<?xml version="1.0" encoding="utf-8" standalone="no"?>
<!DOCTYPE svg PUBLIC "-//W3C//DTD SVG 1.1//EN"
  "http://www.w3.org/Graphics/SVG/1.1/DTD/svg11.dtd">
<svg xmlns:xlink="http://www.w3.org/1999/xlink" width="720pt" height="576pt" viewBox="0 0 720 576" xmlns="http://www.w3.org/2000/svg" version="1.1">
 <metadata>
  <rdf:RDF xmlns:dc="http://purl.org/dc/elements/1.1/" xmlns:cc="http://creativecommons.org/ns#" xmlns:rdf="http://www.w3.org/1999/02/22-rdf-syntax-ns#">
   <cc:Work>
    <dc:type rdf:resource="http://purl.org/dc/dcmitype/StillImage"/>
    <dc:date>2024-04-15T05:35:48.705669</dc:date>
    <dc:format>image/svg+xml</dc:format>
    <dc:creator>
     <cc:Agent>
      <dc:title>Matplotlib v3.7.1, https://matplotlib.org/</dc:title>
     </cc:Agent>
    </dc:creator>
   </cc:Work>
  </rdf:RDF>
 </metadata>
 <defs>
  <style type="text/css">*{stroke-linejoin: round; stroke-linecap: butt}</style>
 </defs>
 <g id="figure_1">
  <g id="patch_1">
   <path d="M 0 576 
L 720 576 
L 720 0 
L 0 0 
z
" style="fill: #ffffff"/>
  </g>
  <g id="axes_1">
   <g id="patch_2">
    <path d="M 63.2 182.466667 
L 709.2 182.466667 
L 709.2 46.92 
L 63.2 46.92 
z
" style="fill: #ffffff"/>
   </g>
   <g id="matplotlib.axis_1">
    <g id="xtick_1">
     <g id="line2d_1">
      <defs>
       <path id="m54b0dd2565" d="M 0 0 
L 0 3.5 
" style="stroke: #000000; stroke-width: 0.8"/>
      </defs>
      <g>
       <use xlink:href="#m54b0dd2565" x="92.563636" y="182.466667" style="stroke: #000000; stroke-width: 0.8"/>
      </g>
     </g>
     <g id="text_1">
      <!-- 0 -->
      <g transform="translate(89.382386 197.065104) scale(0.1 -0.1)">
       <defs>
        <path id="DejaVuSans-30" d="M 2034 4250 
Q 1547 4250 1301 3770 
Q 1056 3291 1056 2328 
Q 1056 1369 1301 889 
Q 1547 409 2034 409 
Q 2525 409 2770 889 
Q 3016 1369 3016 2328 
Q 3016 3291 2770 3770 
Q 2525 4250 2034 4250 
z
M 2034 4750 
Q 2819 4750 3233 4129 
Q 3647 3509 3647 2328 
Q 3647 1150 3233 529 
Q 2819 -91 2034 -91 
Q 1250 -91 836 529 
Q 422 1150 422 2328 
Q 422 3509 836 4129 
Q 1250 4750 2034 4750 
z
" transform="scale(0.015625)"/>
       </defs>
       <use xlink:href="#DejaVuSans-30"/>
      </g>
     </g>
    </g>
    <g id="xtick_2">
     <g id="line2d_2">
      <g>
       <use xlink:href="#m54b0dd2565" x="165.972727" y="182.466667" style="stroke: #000000; stroke-width: 0.8"/>
      </g>
     </g>
     <g id="text_2">
      <!-- 25 -->
      <g transform="translate(159.610227 197.065104) scale(0.1 -0.1)">
       <defs>
        <path id="DejaVuSans-32" d="M 1228 531 
L 3431 531 
L 3431 0 
L 469 0 
L 469 531 
Q 828 903 1448 1529 
Q 2069 2156 2228 2338 
Q 2531 2678 2651 2914 
Q 2772 3150 2772 3378 
Q 2772 3750 2511 3984 
Q 2250 4219 1831 4219 
Q 1534 4219 1204 4116 
Q 875 4013 500 3803 
L 500 4441 
Q 881 4594 1212 4672 
Q 1544 4750 1819 4750 
Q 2544 4750 2975 4387 
Q 3406 4025 3406 3419 
Q 3406 3131 3298 2873 
Q 3191 2616 2906 2266 
Q 2828 2175 2409 1742 
Q 1991 1309 1228 531 
z
" transform="scale(0.015625)"/>
        <path id="DejaVuSans-35" d="M 691 4666 
L 3169 4666 
L 3169 4134 
L 1269 4134 
L 1269 2991 
Q 1406 3038 1543 3061 
Q 1681 3084 1819 3084 
Q 2600 3084 3056 2656 
Q 3513 2228 3513 1497 
Q 3513 744 3044 326 
Q 2575 -91 1722 -91 
Q 1428 -91 1123 -41 
Q 819 9 494 109 
L 494 744 
Q 775 591 1075 516 
Q 1375 441 1709 441 
Q 2250 441 2565 725 
Q 2881 1009 2881 1497 
Q 2881 1984 2565 2268 
Q 2250 2553 1709 2553 
Q 1456 2553 1204 2497 
Q 953 2441 691 2322 
L 691 4666 
z
" transform="scale(0.015625)"/>
       </defs>
       <use xlink:href="#DejaVuSans-32"/>
       <use xlink:href="#DejaVuSans-35" x="63.623047"/>
      </g>
     </g>
    </g>
    <g id="xtick_3">
     <g id="line2d_3">
      <g>
       <use xlink:href="#m54b0dd2565" x="239.381818" y="182.466667" style="stroke: #000000; stroke-width: 0.8"/>
      </g>
     </g>
     <g id="text_3">
      <!-- 50 -->
      <g transform="translate(233.019318 197.065104) scale(0.1 -0.1)">
       <use xlink:href="#DejaVuSans-35"/>
       <use xlink:href="#DejaVuSans-30" x="63.623047"/>
      </g>
     </g>
    </g>
    <g id="xtick_4">
     <g id="line2d_4">
      <g>
       <use xlink:href="#m54b0dd2565" x="312.790909" y="182.466667" style="stroke: #000000; stroke-width: 0.8"/>
      </g>
     </g>
     <g id="text_4">
      <!-- 75 -->
      <g transform="translate(306.428409 197.065104) scale(0.1 -0.1)">
       <defs>
        <path id="DejaVuSans-37" d="M 525 4666 
L 3525 4666 
L 3525 4397 
L 1831 0 
L 1172 0 
L 2766 4134 
L 525 4134 
L 525 4666 
z
" transform="scale(0.015625)"/>
       </defs>
       <use xlink:href="#DejaVuSans-37"/>
       <use xlink:href="#DejaVuSans-35" x="63.623047"/>
      </g>
     </g>
    </g>
    <g id="xtick_5">
     <g id="line2d_5">
      <g>
       <use xlink:href="#m54b0dd2565" x="386.2" y="182.466667" style="stroke: #000000; stroke-width: 0.8"/>
      </g>
     </g>
     <g id="text_5">
      <!-- 100 -->
      <g transform="translate(376.65625 197.065104) scale(0.1 -0.1)">
       <defs>
        <path id="DejaVuSans-31" d="M 794 531 
L 1825 531 
L 1825 4091 
L 703 3866 
L 703 4441 
L 1819 4666 
L 2450 4666 
L 2450 531 
L 3481 531 
L 3481 0 
L 794 0 
L 794 531 
z
" transform="scale(0.015625)"/>
       </defs>
       <use xlink:href="#DejaVuSans-31"/>
       <use xlink:href="#DejaVuSans-30" x="63.623047"/>
       <use xlink:href="#DejaVuSans-30" x="127.246094"/>
      </g>
     </g>
    </g>
    <g id="xtick_6">
     <g id="line2d_6">
      <g>
       <use xlink:href="#m54b0dd2565" x="459.609091" y="182.466667" style="stroke: #000000; stroke-width: 0.8"/>
      </g>
     </g>
     <g id="text_6">
      <!-- 125 -->
      <g transform="translate(450.065341 197.065104) scale(0.1 -0.1)">
       <use xlink:href="#DejaVuSans-31"/>
       <use xlink:href="#DejaVuSans-32" x="63.623047"/>
       <use xlink:href="#DejaVuSans-35" x="127.246094"/>
      </g>
     </g>
    </g>
    <g id="xtick_7">
     <g id="line2d_7">
      <g>
       <use xlink:href="#m54b0dd2565" x="533.018182" y="182.466667" style="stroke: #000000; stroke-width: 0.8"/>
      </g>
     </g>
     <g id="text_7">
      <!-- 150 -->
      <g transform="translate(523.474432 197.065104) scale(0.1 -0.1)">
       <use xlink:href="#DejaVuSans-31"/>
       <use xlink:href="#DejaVuSans-35" x="63.623047"/>
       <use xlink:href="#DejaVuSans-30" x="127.246094"/>
      </g>
     </g>
    </g>
    <g id="xtick_8">
     <g id="line2d_8">
      <g>
       <use xlink:href="#m54b0dd2565" x="606.427273" y="182.466667" style="stroke: #000000; stroke-width: 0.8"/>
      </g>
     </g>
     <g id="text_8">
      <!-- 175 -->
      <g transform="translate(596.883523 197.065104) scale(0.1 -0.1)">
       <use xlink:href="#DejaVuSans-31"/>
       <use xlink:href="#DejaVuSans-37" x="63.623047"/>
       <use xlink:href="#DejaVuSans-35" x="127.246094"/>
      </g>
     </g>
    </g>
    <g id="xtick_9">
     <g id="line2d_9">
      <g>
       <use xlink:href="#m54b0dd2565" x="679.836364" y="182.466667" style="stroke: #000000; stroke-width: 0.8"/>
      </g>
     </g>
     <g id="text_9">
      <!-- 200 -->
      <g transform="translate(670.292614 197.065104) scale(0.1 -0.1)">
       <use xlink:href="#DejaVuSans-32"/>
       <use xlink:href="#DejaVuSans-30" x="63.623047"/>
       <use xlink:href="#DejaVuSans-30" x="127.246094"/>
      </g>
     </g>
    </g>
   </g>
   <g id="matplotlib.axis_2">
    <g id="ytick_1">
     <g id="line2d_10">
      <defs>
       <path id="m9e9e4dbfc0" d="M 0 0 
L -3.5 0 
" style="stroke: #000000; stroke-width: 0.8"/>
      </defs>
      <g>
       <use xlink:href="#m9e9e4dbfc0" x="63.2" y="175.270033" style="stroke: #000000; stroke-width: 0.8"/>
      </g>
     </g>
     <g id="text_10">
      <!-- −2.5 -->
      <g transform="translate(31.917187 179.069252) scale(0.1 -0.1)">
       <defs>
        <path id="DejaVuSans-2212" d="M 678 2272 
L 4684 2272 
L 4684 1741 
L 678 1741 
L 678 2272 
z
" transform="scale(0.015625)"/>
        <path id="DejaVuSans-2e" d="M 684 794 
L 1344 794 
L 1344 0 
L 684 0 
L 684 794 
z
" transform="scale(0.015625)"/>
       </defs>
       <use xlink:href="#DejaVuSans-2212"/>
       <use xlink:href="#DejaVuSans-32" x="83.789062"/>
       <use xlink:href="#DejaVuSans-2e" x="147.412109"/>
       <use xlink:href="#DejaVuSans-35" x="179.199219"/>
      </g>
     </g>
    </g>
    <g id="ytick_2">
     <g id="line2d_11">
      <g>
       <use xlink:href="#m9e9e4dbfc0" x="63.2" y="152.18548" style="stroke: #000000; stroke-width: 0.8"/>
      </g>
     </g>
     <g id="text_11">
      <!-- −2.0 -->
      <g transform="translate(31.917187 155.984699) scale(0.1 -0.1)">
       <use xlink:href="#DejaVuSans-2212"/>
       <use xlink:href="#DejaVuSans-32" x="83.789062"/>
       <use xlink:href="#DejaVuSans-2e" x="147.412109"/>
       <use xlink:href="#DejaVuSans-30" x="179.199219"/>
      </g>
     </g>
    </g>
    <g id="ytick_3">
     <g id="line2d_12">
      <g>
       <use xlink:href="#m9e9e4dbfc0" x="63.2" y="129.100927" style="stroke: #000000; stroke-width: 0.8"/>
      </g>
     </g>
     <g id="text_12">
      <!-- −1.5 -->
      <g transform="translate(31.917187 132.900146) scale(0.1 -0.1)">
       <use xlink:href="#DejaVuSans-2212"/>
       <use xlink:href="#DejaVuSans-31" x="83.789062"/>
       <use xlink:href="#DejaVuSans-2e" x="147.412109"/>
       <use xlink:href="#DejaVuSans-35" x="179.199219"/>
      </g>
     </g>
    </g>
    <g id="ytick_4">
     <g id="line2d_13">
      <g>
       <use xlink:href="#m9e9e4dbfc0" x="63.2" y="106.016375" style="stroke: #000000; stroke-width: 0.8"/>
      </g>
     </g>
     <g id="text_13">
      <!-- −1.0 -->
      <g transform="translate(31.917187 109.815593) scale(0.1 -0.1)">
       <use xlink:href="#DejaVuSans-2212"/>
       <use xlink:href="#DejaVuSans-31" x="83.789062"/>
       <use xlink:href="#DejaVuSans-2e" x="147.412109"/>
       <use xlink:href="#DejaVuSans-30" x="179.199219"/>
      </g>
     </g>
    </g>
    <g id="ytick_5">
     <g id="line2d_14">
      <g>
       <use xlink:href="#m9e9e4dbfc0" x="63.2" y="82.931822" style="stroke: #000000; stroke-width: 0.8"/>
      </g>
     </g>
     <g id="text_14">
      <!-- −0.5 -->
      <g transform="translate(31.917187 86.73104) scale(0.1 -0.1)">
       <use xlink:href="#DejaVuSans-2212"/>
       <use xlink:href="#DejaVuSans-30" x="83.789062"/>
       <use xlink:href="#DejaVuSans-2e" x="147.412109"/>
       <use xlink:href="#DejaVuSans-35" x="179.199219"/>
      </g>
     </g>
    </g>
    <g id="ytick_6">
     <g id="line2d_15">
      <g>
       <use xlink:href="#m9e9e4dbfc0" x="63.2" y="59.847269" style="stroke: #000000; stroke-width: 0.8"/>
      </g>
     </g>
     <g id="text_15">
      <!-- 0.0 -->
      <g transform="translate(40.296875 63.646487) scale(0.1 -0.1)">
       <use xlink:href="#DejaVuSans-30"/>
       <use xlink:href="#DejaVuSans-2e" x="63.623047"/>
       <use xlink:href="#DejaVuSans-30" x="95.410156"/>
      </g>
     </g>
    </g>
    <g id="text_16">
     <!-- Azimuth [rad] -->
     <g transform="translate(21.07625 155.956458) rotate(-90) scale(0.12 -0.12)">
      <defs>
       <path id="DejaVuSans-41" d="M 2188 4044 
L 1331 1722 
L 3047 1722 
L 2188 4044 
z
M 1831 4666 
L 2547 4666 
L 4325 0 
L 3669 0 
L 3244 1197 
L 1141 1197 
L 716 0 
L 50 0 
L 1831 4666 
z
" transform="scale(0.015625)"/>
       <path id="DejaVuSans-7a" d="M 353 3500 
L 3084 3500 
L 3084 2975 
L 922 459 
L 3084 459 
L 3084 0 
L 275 0 
L 275 525 
L 2438 3041 
L 353 3041 
L 353 3500 
z
" transform="scale(0.015625)"/>
       <path id="DejaVuSans-69" d="M 603 3500 
L 1178 3500 
L 1178 0 
L 603 0 
L 603 3500 
z
M 603 4863 
L 1178 4863 
L 1178 4134 
L 603 4134 
L 603 4863 
z
" transform="scale(0.015625)"/>
       <path id="DejaVuSans-6d" d="M 3328 2828 
Q 3544 3216 3844 3400 
Q 4144 3584 4550 3584 
Q 5097 3584 5394 3201 
Q 5691 2819 5691 2113 
L 5691 0 
L 5113 0 
L 5113 2094 
Q 5113 2597 4934 2840 
Q 4756 3084 4391 3084 
Q 3944 3084 3684 2787 
Q 3425 2491 3425 1978 
L 3425 0 
L 2847 0 
L 2847 2094 
Q 2847 2600 2669 2842 
Q 2491 3084 2119 3084 
Q 1678 3084 1418 2786 
Q 1159 2488 1159 1978 
L 1159 0 
L 581 0 
L 581 3500 
L 1159 3500 
L 1159 2956 
Q 1356 3278 1631 3431 
Q 1906 3584 2284 3584 
Q 2666 3584 2933 3390 
Q 3200 3197 3328 2828 
z
" transform="scale(0.015625)"/>
       <path id="DejaVuSans-75" d="M 544 1381 
L 544 3500 
L 1119 3500 
L 1119 1403 
Q 1119 906 1312 657 
Q 1506 409 1894 409 
Q 2359 409 2629 706 
Q 2900 1003 2900 1516 
L 2900 3500 
L 3475 3500 
L 3475 0 
L 2900 0 
L 2900 538 
Q 2691 219 2414 64 
Q 2138 -91 1772 -91 
Q 1169 -91 856 284 
Q 544 659 544 1381 
z
M 1991 3584 
L 1991 3584 
z
" transform="scale(0.015625)"/>
       <path id="DejaVuSans-74" d="M 1172 4494 
L 1172 3500 
L 2356 3500 
L 2356 3053 
L 1172 3053 
L 1172 1153 
Q 1172 725 1289 603 
Q 1406 481 1766 481 
L 2356 481 
L 2356 0 
L 1766 0 
Q 1100 0 847 248 
Q 594 497 594 1153 
L 594 3053 
L 172 3053 
L 172 3500 
L 594 3500 
L 594 4494 
L 1172 4494 
z
" transform="scale(0.015625)"/>
       <path id="DejaVuSans-68" d="M 3513 2113 
L 3513 0 
L 2938 0 
L 2938 2094 
Q 2938 2591 2744 2837 
Q 2550 3084 2163 3084 
Q 1697 3084 1428 2787 
Q 1159 2491 1159 1978 
L 1159 0 
L 581 0 
L 581 4863 
L 1159 4863 
L 1159 2956 
Q 1366 3272 1645 3428 
Q 1925 3584 2291 3584 
Q 2894 3584 3203 3211 
Q 3513 2838 3513 2113 
z
" transform="scale(0.015625)"/>
       <path id="DejaVuSans-20" transform="scale(0.015625)"/>
       <path id="DejaVuSans-5b" d="M 550 4863 
L 1875 4863 
L 1875 4416 
L 1125 4416 
L 1125 -397 
L 1875 -397 
L 1875 -844 
L 550 -844 
L 550 4863 
z
" transform="scale(0.015625)"/>
       <path id="DejaVuSans-72" d="M 2631 2963 
Q 2534 3019 2420 3045 
Q 2306 3072 2169 3072 
Q 1681 3072 1420 2755 
Q 1159 2438 1159 1844 
L 1159 0 
L 581 0 
L 581 3500 
L 1159 3500 
L 1159 2956 
Q 1341 3275 1631 3429 
Q 1922 3584 2338 3584 
Q 2397 3584 2469 3576 
Q 2541 3569 2628 3553 
L 2631 2963 
z
" transform="scale(0.015625)"/>
       <path id="DejaVuSans-61" d="M 2194 1759 
Q 1497 1759 1228 1600 
Q 959 1441 959 1056 
Q 959 750 1161 570 
Q 1363 391 1709 391 
Q 2188 391 2477 730 
Q 2766 1069 2766 1631 
L 2766 1759 
L 2194 1759 
z
M 3341 1997 
L 3341 0 
L 2766 0 
L 2766 531 
Q 2569 213 2275 61 
Q 1981 -91 1556 -91 
Q 1019 -91 701 211 
Q 384 513 384 1019 
Q 384 1609 779 1909 
Q 1175 2209 1959 2209 
L 2766 2209 
L 2766 2266 
Q 2766 2663 2505 2880 
Q 2244 3097 1772 3097 
Q 1472 3097 1187 3025 
Q 903 2953 641 2809 
L 641 3341 
Q 956 3463 1253 3523 
Q 1550 3584 1831 3584 
Q 2591 3584 2966 3190 
Q 3341 2797 3341 1997 
z
" transform="scale(0.015625)"/>
       <path id="DejaVuSans-64" d="M 2906 2969 
L 2906 4863 
L 3481 4863 
L 3481 0 
L 2906 0 
L 2906 525 
Q 2725 213 2448 61 
Q 2172 -91 1784 -91 
Q 1150 -91 751 415 
Q 353 922 353 1747 
Q 353 2572 751 3078 
Q 1150 3584 1784 3584 
Q 2172 3584 2448 3432 
Q 2725 3281 2906 2969 
z
M 947 1747 
Q 947 1113 1208 752 
Q 1469 391 1925 391 
Q 2381 391 2643 752 
Q 2906 1113 2906 1747 
Q 2906 2381 2643 2742 
Q 2381 3103 1925 3103 
Q 1469 3103 1208 2742 
Q 947 2381 947 1747 
z
" transform="scale(0.015625)"/>
       <path id="DejaVuSans-5d" d="M 1947 4863 
L 1947 -844 
L 622 -844 
L 622 -397 
L 1369 -397 
L 1369 4416 
L 622 4416 
L 622 4863 
L 1947 4863 
z
" transform="scale(0.015625)"/>
      </defs>
      <use xlink:href="#DejaVuSans-41"/>
      <use xlink:href="#DejaVuSans-7a" x="68.408203"/>
      <use xlink:href="#DejaVuSans-69" x="120.898438"/>
      <use xlink:href="#DejaVuSans-6d" x="148.681641"/>
      <use xlink:href="#DejaVuSans-75" x="246.09375"/>
      <use xlink:href="#DejaVuSans-74" x="309.472656"/>
      <use xlink:href="#DejaVuSans-68" x="348.681641"/>
      <use xlink:href="#DejaVuSans-20" x="412.060547"/>
      <use xlink:href="#DejaVuSans-5b" x="443.847656"/>
      <use xlink:href="#DejaVuSans-72" x="482.861328"/>
      <use xlink:href="#DejaVuSans-61" x="523.974609"/>
      <use xlink:href="#DejaVuSans-64" x="585.253906"/>
      <use xlink:href="#DejaVuSans-5d" x="648.730469"/>
     </g>
    </g>
    <g id="text_17">
     <!-- 1e−13 -->
     <g transform="translate(63.2 43.92) scale(0.1 -0.1)">
      <defs>
       <path id="DejaVuSans-65" d="M 3597 1894 
L 3597 1613 
L 953 1613 
Q 991 1019 1311 708 
Q 1631 397 2203 397 
Q 2534 397 2845 478 
Q 3156 559 3463 722 
L 3463 178 
Q 3153 47 2828 -22 
Q 2503 -91 2169 -91 
Q 1331 -91 842 396 
Q 353 884 353 1716 
Q 353 2575 817 3079 
Q 1281 3584 2069 3584 
Q 2775 3584 3186 3129 
Q 3597 2675 3597 1894 
z
M 3022 2063 
Q 3016 2534 2758 2815 
Q 2500 3097 2075 3097 
Q 1594 3097 1305 2825 
Q 1016 2553 972 2059 
L 3022 2063 
z
" transform="scale(0.015625)"/>
       <path id="DejaVuSans-33" d="M 2597 2516 
Q 3050 2419 3304 2112 
Q 3559 1806 3559 1356 
Q 3559 666 3084 287 
Q 2609 -91 1734 -91 
Q 1441 -91 1130 -33 
Q 819 25 488 141 
L 488 750 
Q 750 597 1062 519 
Q 1375 441 1716 441 
Q 2309 441 2620 675 
Q 2931 909 2931 1356 
Q 2931 1769 2642 2001 
Q 2353 2234 1838 2234 
L 1294 2234 
L 1294 2753 
L 1863 2753 
Q 2328 2753 2575 2939 
Q 2822 3125 2822 3475 
Q 2822 3834 2567 4026 
Q 2313 4219 1838 4219 
Q 1578 4219 1281 4162 
Q 984 4106 628 3988 
L 628 4550 
Q 988 4650 1302 4700 
Q 1616 4750 1894 4750 
Q 2613 4750 3031 4423 
Q 3450 4097 3450 3541 
Q 3450 3153 3228 2886 
Q 3006 2619 2597 2516 
z
" transform="scale(0.015625)"/>
      </defs>
      <use xlink:href="#DejaVuSans-31"/>
      <use xlink:href="#DejaVuSans-65" x="63.623047"/>
      <use xlink:href="#DejaVuSans-2212" x="125.146484"/>
      <use xlink:href="#DejaVuSans-31" x="208.935547"/>
      <use xlink:href="#DejaVuSans-33" x="272.558594"/>
     </g>
    </g>
   </g>
   <g id="line2d_16">
    <path d="M 92.563636 59.847269 
L 121.046364 59.744753 
L 121.633636 59.642237 
L 125.744545 59.539721 
L 126.331818 59.437205 
L 130.442727 59.334689 
L 130.736364 59.232173 
L 131.03 59.334689 
L 131.617273 59.232173 
L 132.498182 59.232173 
L 132.791818 59.027141 
L 133.085455 59.232173 
L 133.379091 59.027141 
L 133.672727 59.232173 
L 133.966364 59.027141 
L 134.26 59.232173 
L 134.553636 59.027141 
L 134.847273 59.232173 
L 135.140909 59.027141 
L 137.783636 59.027141 
L 138.077273 58.822109 
L 138.370909 59.027141 
L 138.664545 58.822109 
L 138.958182 59.027141 
L 139.251818 58.822109 
L 140.132727 58.822109 
L 140.426364 59.027141 
L 140.72 58.822109 
L 141.307273 58.822109 
L 141.600909 59.027141 
L 142.188182 58.617077 
L 142.775455 59.027141 
L 143.362727 58.617077 
L 143.656364 58.822109 
L 144.243636 58.822109 
L 144.537273 58.617077 
L 144.830909 58.617077 
L 145.124545 58.822109 
L 145.418182 58.617077 
L 146.005455 58.617077 
L 146.299091 58.822109 
L 146.592727 58.617077 
L 148.941818 58.617077 
L 149.235455 58.412045 
L 149.529091 58.617077 
L 149.822727 58.617077 
L 150.116364 58.412045 
L 150.703636 58.412045 
L 150.997273 58.617077 
L 151.290909 58.412045 
L 151.878182 58.412045 
L 152.171818 58.617077 
L 152.759091 58.207013 
L 153.346364 58.617077 
L 153.933636 58.207013 
L 154.227273 58.207013 
L 154.520909 58.412045 
L 154.814545 58.412045 
L 155.108182 58.207013 
L 155.401818 58.207013 
L 155.695455 58.412045 
L 155.989091 58.207013 
L 156.576364 58.207013 
L 156.87 58.412045 
L 157.163636 58.207013 
L 158.338182 58.207013 
L 158.631818 58.001981 
L 158.925455 58.207013 
L 159.219091 58.207013 
L 159.512727 58.001981 
L 160.1 58.001981 
L 160.393636 58.207013 
L 160.687273 58.001981 
L 161.274545 58.001981 
L 161.568182 58.207013 
L 161.861818 58.001981 
L 162.449091 58.001981 
L 162.742727 58.207013 
L 163.33 57.796949 
L 163.623636 58.001981 
L 164.210909 58.001981 
L 164.504545 57.796949 
L 164.798182 57.796949 
L 165.091818 58.001981 
L 165.385455 57.796949 
L 165.972727 57.796949 
L 166.266364 58.001981 
L 166.56 57.796949 
L 168.615455 57.796949 
L 168.909091 57.591917 
L 169.202727 57.591917 
L 169.496364 57.796949 
L 169.79 57.796949 
L 170.083636 57.591917 
L 170.670909 57.591917 
L 170.964545 57.796949 
L 171.258182 57.591917 
L 171.845455 57.591917 
L 172.139091 57.796949 
L 172.726364 57.386884 
L 173.02 57.591917 
L 173.607273 57.591917 
L 173.900909 57.386884 
L 174.194545 57.386884 
L 174.488182 57.591917 
L 174.781818 57.591917 
L 175.075455 57.386884 
L 175.369091 57.386884 
L 175.662727 57.591917 
L 175.956364 57.386884 
L 176.543636 57.386884 
L 176.837273 57.591917 
L 177.130909 57.386884 
L 178.305455 57.386884 
L 178.599091 57.181852 
L 178.892727 57.386884 
L 179.186364 57.386884 
L 179.48 57.181852 
L 180.067273 57.181852 
L 180.360909 57.386884 
L 180.654545 57.181852 
L 181.241818 57.181852 
L 181.535455 57.386884 
L 182.122727 56.97682 
L 182.71 57.386884 
L 183.297273 56.97682 
L 183.590909 56.97682 
L 183.884545 57.181852 
L 184.178182 57.181852 
L 184.471818 56.97682 
L 184.765455 56.97682 
L 185.059091 57.181852 
L 185.352727 56.97682 
L 187.408182 56.97682 
L 187.701818 56.771788 
L 187.995455 56.771788 
L 188.289091 56.97682 
L 188.876364 56.97682 
L 189.17 56.771788 
L 189.463636 56.97682 
L 189.757273 56.97682 
L 190.050909 56.771788 
L 190.638182 56.771788 
L 190.931818 56.97682 
L 191.519091 56.566756 
L 192.106364 56.97682 
L 192.693636 56.566756 
L 193.280909 56.97682 
L 193.868182 56.566756 
L 194.161818 56.566756 
L 194.455455 56.771788 
L 194.749091 56.771788 
L 195.042727 56.566756 
L 195.336364 56.566756 
L 195.63 56.771788 
L 195.923636 56.771788 
L 196.217273 56.566756 
L 197.979091 56.566756 
L 198.272727 56.361724 
L 198.566364 56.361724 
L 198.86 56.566756 
L 199.153636 56.566756 
L 199.447273 56.361724 
L 199.740909 56.361724 
L 200.034545 56.566756 
L 200.328182 56.566756 
L 200.915455 56.156692 
L 201.502727 56.566756 
L 202.09 56.156692 
L 202.383636 56.156692 
L 202.677273 56.361724 
L 202.970909 56.361724 
L 203.264545 56.156692 
L 203.558182 56.361724 
L 204.145455 56.361724 
L 204.439091 56.156692 
L 204.732727 56.156692 
L 205.026364 56.361724 
L 205.32 56.361724 
L 205.613636 56.156692 
L 206.200909 56.156692 
L 206.494545 56.361724 
L 206.788182 56.156692 
L 208.55 56.156692 
L 208.843636 55.95166 
L 209.137273 55.95166 
L 209.430909 56.156692 
L 209.724545 56.156692 
L 210.018182 55.95166 
L 210.311818 55.95166 
L 210.605455 56.156692 
L 210.899091 56.156692 
L 211.486364 55.746628 
L 212.073636 56.156692 
L 212.660909 55.746628 
L 212.954545 55.746628 
L 213.248182 55.95166 
L 213.541818 55.95166 
L 213.835455 55.746628 
L 214.129091 55.95166 
L 214.716364 55.95166 
L 215.01 55.746628 
L 215.303636 55.746628 
L 215.597273 55.95166 
L 215.890909 55.746628 
L 219.120909 55.746628 
L 219.414545 55.541596 
L 219.708182 55.541596 
L 220.001818 55.746628 
L 220.295455 55.746628 
L 220.589091 55.541596 
L 220.882727 55.541596 
L 221.176364 55.746628 
L 221.47 55.746628 
L 222.057273 55.336564 
L 222.644545 55.746628 
L 223.231818 55.336564 
L 223.525455 55.336564 
L 223.819091 55.541596 
L 224.112727 55.541596 
L 224.406364 55.336564 
L 224.7 55.336564 
L 224.993636 55.541596 
L 225.287273 55.541596 
L 225.580909 55.336564 
L 227.342727 55.336564 
L 227.636364 55.131532 
L 227.93 55.131532 
L 228.223636 55.336564 
L 228.810909 55.336564 
L 229.104545 55.131532 
L 229.398182 55.336564 
L 229.691818 55.336564 
L 229.985455 55.131532 
L 230.572727 55.131532 
L 230.866364 55.336564 
L 231.453636 54.9265 
L 231.747273 55.336564 
L 232.040909 55.336564 
L 232.628182 54.9265 
L 233.215455 55.336564 
L 233.802727 54.9265 
L 234.096364 54.9265 
L 234.39 55.131532 
L 234.683636 55.131532 
L 234.977273 54.9265 
L 235.270909 54.9265 
L 235.564545 55.131532 
L 235.858182 55.131532 
L 236.151818 54.9265 
L 237.913636 54.9265 
L 238.207273 54.721468 
L 238.500909 54.721468 
L 238.794545 54.9265 
L 239.088182 54.9265 
L 239.381818 54.721468 
L 239.675455 54.721468 
L 239.969091 54.9265 
L 240.262727 54.9265 
L 240.85 54.516436 
L 241.437273 54.9265 
L 242.024545 54.516436 
L 242.318182 54.516436 
L 242.611818 54.9265 
L 243.199091 54.516436 
L 243.492727 54.721468 
L 244.08 54.721468 
L 244.373636 54.516436 
L 244.667273 54.516436 
L 244.960909 54.721468 
L 245.254545 54.516436 
L 246.135455 54.516436 
L 246.429091 54.721468 
L 246.722727 54.516436 
L 248.484545 54.516436 
L 248.778182 54.311404 
L 249.071818 54.311404 
L 249.365455 54.516436 
L 249.659091 54.516436 
L 249.952727 54.311404 
L 250.246364 54.311404 
L 250.54 54.516436 
L 250.833636 54.516436 
L 251.420909 54.106372 
L 252.008182 54.516436 
L 252.595455 54.106372 
L 252.889091 54.106372 
L 253.182727 54.311404 
L 253.476364 54.311404 
L 253.77 54.106372 
L 254.063636 54.106372 
L 254.357273 54.311404 
L 254.650909 54.311404 
L 254.944545 54.106372 
L 258.174545 54.106372 
L 258.468182 53.90134 
L 258.761818 54.106372 
L 259.055455 54.106372 
L 259.349091 53.90134 
L 259.936364 53.90134 
L 260.23 54.106372 
L 260.523636 53.90134 
L 260.817273 53.90134 
L 261.110909 54.106372 
L 261.404545 54.106372 
L 261.991818 53.696308 
L 262.579091 54.106372 
L 263.166364 53.696308 
L 263.46 53.696308 
L 263.753636 53.90134 
L 264.047273 53.90134 
L 264.340909 53.696308 
L 264.634545 53.696308 
L 264.928182 53.90134 
L 265.221818 53.90134 
L 265.515455 53.696308 
L 267.277273 53.696308 
L 267.570909 53.491276 
L 267.864545 53.696308 
L 268.451818 53.696308 
L 268.745455 53.491276 
L 269.039091 53.491276 
L 269.332727 53.696308 
L 269.626364 53.696308 
L 270.213636 53.286244 
L 270.800909 53.696308 
L 271.388182 53.286244 
L 271.975455 53.696308 
L 272.562727 53.286244 
L 272.856364 53.491276 
L 273.443636 53.491276 
L 273.737273 53.286244 
L 274.030909 53.286244 
L 274.324545 53.491276 
L 274.618182 53.286244 
L 275.205455 53.286244 
L 275.499091 53.491276 
L 275.792727 53.491276 
L 276.086364 53.286244 
L 277.848182 53.286244 
L 278.141818 53.081212 
L 278.435455 53.081212 
L 278.729091 53.286244 
L 279.022727 53.286244 
L 279.316364 53.081212 
L 279.61 53.286244 
L 279.903636 53.286244 
L 280.197273 53.491276 
L 280.490909 53.491276 
L 280.784545 53.696308 
L 281.371818 53.696308 
L 281.665455 53.90134 
L 281.959091 53.90134 
L 282.252727 54.106372 
L 282.84 54.106372 
L 283.133636 54.311404 
L 283.427273 54.311404 
L 283.720909 54.516436 
L 284.014545 54.516436 
L 284.601818 54.9265 
L 284.895455 54.9265 
L 285.189091 55.131532 
L 285.776364 55.131532 
L 286.07 55.336564 
L 286.363636 55.336564 
L 286.657273 55.541596 
L 287.244545 55.541596 
L 287.538182 55.746628 
L 287.831818 55.746628 
L 288.125455 55.95166 
L 288.712727 55.95166 
L 289.006364 56.156692 
L 289.3 56.156692 
L 289.593636 56.361724 
L 290.180909 56.361724 
L 290.474545 56.566756 
L 290.768182 56.566756 
L 291.355455 56.97682 
L 291.649091 56.97682 
L 291.942727 57.181852 
L 292.236364 57.181852 
L 292.53 57.386884 
L 293.117273 57.386884 
L 293.410909 57.591917 
L 293.704545 57.591917 
L 293.998182 57.796949 
L 294.585455 57.796949 
L 294.879091 58.001981 
L 295.172727 58.001981 
L 295.466364 58.207013 
L 296.053636 58.207013 
L 296.347273 58.412045 
L 296.640909 58.412045 
L 296.934545 58.617077 
L 297.521818 58.617077 
L 297.815455 58.822109 
L 298.109091 58.822109 
L 298.696364 59.232173 
L 298.99 59.232173 
L 299.283636 59.437205 
L 299.577273 59.437205 
L 299.870909 59.642237 
L 300.458182 59.642237 
L 300.751818 59.847269 
L 301.045455 59.847269 
L 301.339091 60.052301 
L 301.926364 60.052301 
L 302.22 60.257333 
L 302.513636 60.257333 
L 302.807273 60.462365 
L 303.394545 60.462365 
L 303.688182 60.667397 
L 303.981818 60.667397 
L 304.275455 60.872429 
L 304.862727 60.872429 
L 305.156364 61.077461 
L 305.45 61.077461 
L 306.037273 61.487525 
L 306.330909 61.487525 
L 306.624545 61.692557 
L 306.918182 61.692557 
L 307.211818 61.897589 
L 307.799091 61.897589 
L 308.092727 62.102621 
L 308.386364 62.102621 
L 308.68 62.307653 
L 309.267273 62.307653 
L 309.560909 62.512685 
L 309.854545 62.512685 
L 310.148182 62.717717 
L 310.735455 62.717717 
L 311.029091 62.922749 
L 311.322727 62.922749 
L 311.616364 63.127781 
L 312.203636 63.127781 
L 312.497273 63.332813 
L 312.790909 63.332813 
L 313.084545 63.742877 
L 313.671818 63.742877 
L 313.965455 63.947909 
L 314.259091 63.947909 
L 314.552727 64.152941 
L 315.14 64.152941 
L 315.433636 64.357973 
L 315.727273 64.357973 
L 316.020909 64.563005 
L 316.608182 64.563005 
L 316.901818 64.768037 
L 317.195455 64.768037 
L 317.489091 64.973069 
L 317.782727 64.973069 
L 318.076364 65.178101 
L 318.663636 65.178101 
L 318.957273 65.383133 
L 319.250909 65.383133 
L 319.544545 65.588165 
L 320.131818 65.588165 
L 320.425455 66.408293 
L 322.187273 66.408293 
L 322.480909 66.818357 
L 323.068182 66.818357 
L 323.361818 67.228421 
L 325.123636 67.228421 
L 325.417273 67.638485 
L 326.004545 67.638485 
L 326.298182 68.048549 
L 327.472727 68.048549 
L 327.766364 68.458613 
L 328.06 68.458613 
L 328.353636 68.868677 
L 330.409091 68.868677 
L 330.702727 69.278741 
L 330.996364 69.278741 
L 331.29 69.688806 
L 333.345455 69.688806 
L 333.639091 70.09887 
L 333.932727 70.09887 
L 334.226364 70.508934 
L 335.400909 70.508934 
L 335.694545 70.918998 
L 336.281818 70.918998 
L 336.575455 71.329062 
L 338.337273 71.329062 
L 338.630909 71.739126 
L 339.218182 71.739126 
L 339.511818 72.14919 
L 341.273636 72.14919 
L 341.567273 72.559254 
L 341.860909 72.559254 
L 342.154545 72.969318 
L 343.622727 72.969318 
L 343.916364 73.379382 
L 344.21 73.379382 
L 344.503636 73.789446 
L 346.559091 73.789446 
L 346.852727 74.19951 
L 347.146364 74.19951 
L 347.44 74.609574 
L 348.908182 74.609574 
L 349.201818 75.019638 
L 349.495455 75.019638 
L 349.789091 75.429702 
L 351.550909 75.429702 
L 351.844545 75.839766 
L 352.431818 75.839766 
L 352.725455 76.24983 
L 354.487273 76.24983 
L 354.780909 76.659894 
L 355.368182 76.659894 
L 355.661818 77.069958 
L 356.836364 77.069958 
L 357.13 77.480022 
L 357.423636 77.480022 
L 357.717273 77.890086 
L 359.772727 77.890086 
L 360.066364 78.30015 
L 360.36 78.30015 
L 360.653636 78.710214 
L 362.709091 78.710214 
L 363.002727 79.120278 
L 363.296364 79.120278 
L 363.59 79.530342 
L 364.764545 79.530342 
L 365.058182 79.940406 
L 365.645455 79.940406 
L 365.939091 80.35047 
L 367.700909 80.35047 
L 367.994545 80.760534 
L 368.581818 80.760534 
L 368.875455 81.170598 
L 370.637273 81.170598 
L 370.930909 81.990727 
L 372.986364 81.990727 
L 373.28 82.400791 
L 373.573636 82.400791 
L 373.867273 82.810855 
L 375.922727 82.810855 
L 376.216364 83.220919 
L 376.51 83.220919 
L 376.803636 83.630983 
L 377.978182 83.630983 
L 378.271818 84.041047 
L 378.859091 84.041047 
L 379.152727 84.451111 
L 380.914545 84.451111 
L 381.208182 84.861175 
L 381.795455 84.861175 
L 382.089091 85.271239 
L 383.850909 85.271239 
L 384.144545 85.681303 
L 384.731818 85.681303 
L 385.025455 86.091367 
L 386.2 86.091367 
L 386.493636 86.501431 
L 386.787273 86.501431 
L 387.080909 86.911495 
L 389.136364 86.911495 
L 389.43 87.321559 
L 389.723636 87.321559 
L 390.017273 87.731623 
L 392.072727 87.731623 
L 392.66 88.551751 
L 394.128182 88.551751 
L 394.421818 88.961815 
L 395.009091 88.961815 
L 395.302727 89.371879 
L 397.064545 89.371879 
L 397.358182 89.781943 
L 397.945455 89.781943 
L 398.239091 90.192007 
L 399.707273 90.192007 
L 400.294545 91.012135 
L 402.35 91.012135 
L 402.643636 91.422199 
L 402.937273 91.422199 
L 403.230909 91.832263 
L 405.286364 91.832263 
L 405.58 92.242327 
L 405.873636 92.242327 
L 406.167273 92.652391 
L 407.341818 92.652391 
L 407.635455 93.062456 
L 408.222727 93.062456 
L 408.516364 93.47252 
L 410.278182 93.47252 
L 410.571818 93.882584 
L 411.159091 93.882584 
L 411.452727 94.292648 
L 413.214545 94.292648 
L 413.508182 94.702712 
L 414.095455 94.702712 
L 414.389091 95.112776 
L 415.563636 95.112776 
L 415.857273 95.52284 
L 416.150909 95.52284 
L 416.444545 95.932904 
L 418.5 95.932904 
L 418.793636 96.342968 
L 419.087273 96.342968 
L 419.380909 96.753032 
L 421.142727 96.753032 
L 421.73 97.57316 
L 423.491818 97.57316 
L 423.785455 97.983224 
L 424.372727 97.983224 
L 424.666364 98.393288 
L 426.428182 98.393288 
L 426.721818 98.803352 
L 427.309091 98.803352 
L 427.602727 99.213416 
L 428.777273 99.213416 
L 429.070909 99.62348 
L 429.364545 99.62348 
L 429.658182 100.033544 
L 431.713636 100.033544 
L 432.007273 100.443608 
L 432.300909 100.443608 
L 432.594545 100.853672 
L 434.65 100.853672 
L 434.943636 101.263736 
L 435.237273 101.263736 
L 435.530909 101.6738 
L 436.705455 101.6738 
L 436.999091 102.083864 
L 437.586364 102.083864 
L 437.88 102.493928 
L 439.641818 102.493928 
L 439.935455 102.903992 
L 440.522727 102.903992 
L 440.816364 103.314056 
L 442.578182 103.314056 
L 443.165455 104.134184 
L 444.927273 104.134184 
L 445.220909 104.544248 
L 445.514545 104.544248 
L 445.808182 104.954313 
L 447.863636 104.954313 
L 448.157273 105.364377 
L 448.450909 105.364377 
L 448.744545 105.774441 
L 450.212727 105.774441 
L 450.506364 106.184505 
L 450.8 106.184505 
L 451.093636 106.594569 
L 452.855455 106.594569 
L 453.149091 107.004633 
L 453.736364 107.004633 
L 454.03 107.414697 
L 455.791818 107.414697 
L 456.085455 107.824761 
L 456.672727 107.824761 
L 456.966364 108.234825 
L 458.140909 108.234825 
L 458.434545 108.644889 
L 458.728182 108.644889 
L 459.021818 109.054953 
L 461.077273 109.054953 
L 461.370909 109.465017 
L 461.664545 109.465017 
L 461.958182 109.875081 
L 464.013636 109.875081 
L 464.307273 110.285145 
L 464.600909 110.285145 
L 464.894545 110.695209 
L 466.069091 110.695209 
L 466.362727 111.105273 
L 466.656364 110.695209 
L 467.537273 110.695209 
L 467.830909 111.105273 
L 468.711818 111.105273 
L 469.005455 111.515337 
L 470.18 111.515337 
L 470.473636 111.925401 
L 471.648182 111.925401 
L 471.941818 112.335465 
L 473.116364 112.335465 
L 473.41 112.745529 
L 474.584545 112.745529 
L 474.878182 113.155593 
L 475.465455 113.155593 
L 475.759091 113.565657 
L 476.052727 113.565657 
L 476.346364 113.975721 
L 477.520909 113.975721 
L 477.814545 114.385785 
L 478.989091 114.385785 
L 479.282727 114.795849 
L 480.457273 114.795849 
L 480.750909 115.205913 
L 481.925455 115.205913 
L 482.219091 115.615977 
L 483.393636 115.615977 
L 483.687273 116.026041 
L 484.861818 116.026041 
L 485.155455 116.436105 
L 486.33 116.436105 
L 486.623636 116.84617 
L 487.798182 116.84617 
L 488.091818 117.256234 
L 489.266364 117.256234 
L 489.56 117.666298 
L 489.853636 117.666298 
L 490.147273 118.076362 
L 490.734545 118.076362 
L 491.028182 118.486426 
L 492.202727 118.486426 
L 492.496364 118.89649 
L 493.670909 118.89649 
L 493.964545 119.306554 
L 495.139091 119.306554 
L 495.432727 119.716618 
L 496.607273 119.716618 
L 496.900909 120.126682 
L 498.075455 120.126682 
L 498.369091 120.536746 
L 499.543636 120.536746 
L 499.837273 120.94681 
L 501.011818 120.94681 
L 501.305455 121.356874 
L 502.48 121.356874 
L 502.773636 121.766938 
L 503.948182 121.766938 
L 504.535455 122.587066 
L 505.416364 122.587066 
L 505.71 122.99713 
L 506.884545 122.99713 
L 507.178182 123.407194 
L 508.352727 123.407194 
L 508.646364 123.817258 
L 509.820909 123.817258 
L 510.114545 124.227322 
L 511.289091 124.227322 
L 511.582727 124.637386 
L 512.757273 124.637386 
L 513.050909 125.04745 
L 514.225455 125.04745 
L 514.519091 125.457514 
L 515.693636 125.457514 
L 515.987273 125.867578 
L 517.161818 125.867578 
L 517.455455 126.277642 
L 518.63 126.277642 
L 519.217273 127.09777 
L 520.098182 127.09777 
L 520.391818 127.507834 
L 521.566364 127.507834 
L 521.86 127.917898 
L 523.034545 127.917898 
L 523.328182 128.327962 
L 524.502727 128.327962 
L 524.796364 128.738027 
L 525.970909 128.738027 
L 526.264545 129.148091 
L 527.439091 129.148091 
L 527.732727 129.558155 
L 528.907273 129.558155 
L 529.200909 129.968219 
L 530.375455 129.968219 
L 530.669091 130.378283 
L 531.843636 130.378283 
L 532.137273 130.788347 
L 533.311818 130.788347 
L 533.605455 131.608475 
L 534.78 131.608475 
L 535.073636 132.018539 
L 536.248182 132.018539 
L 536.541818 132.428603 
L 537.716364 132.428603 
L 538.01 132.838667 
L 539.184545 132.838667 
L 539.478182 133.248731 
L 540.652727 133.248731 
L 540.946364 133.658795 
L 542.120909 133.658795 
L 542.414545 134.068859 
L 543.295455 134.068859 
L 543.589091 134.478923 
L 544.763636 134.478923 
L 545.057273 134.888987 
L 546.231818 134.888987 
L 546.525455 135.299051 
L 547.7 135.299051 
L 547.993636 136.119179 
L 549.168182 136.119179 
L 549.461818 136.529243 
L 550.636364 136.529243 
L 550.93 136.939307 
L 552.104545 136.939307 
L 552.398182 137.349371 
L 553.572727 137.349371 
L 553.866364 137.759435 
L 555.040909 137.759435 
L 555.334545 138.169499 
L 556.509091 138.169499 
L 556.802727 138.579563 
L 557.977273 138.579563 
L 558.270909 138.989627 
L 559.445455 138.989627 
L 559.739091 139.399691 
L 560.913636 139.399691 
L 561.207273 139.809755 
L 562.381818 139.809755 
L 562.675455 140.629884 
L 563.85 140.629884 
L 564.143636 141.039948 
L 565.318182 141.039948 
L 565.611818 141.450012 
L 566.786364 141.450012 
L 567.08 141.860076 
L 568.254545 141.860076 
L 568.548182 142.27014 
L 569.722727 142.27014 
L 570.016364 142.680204 
L 571.190909 142.680204 
L 571.484545 143.090268 
L 572.659091 143.090268 
L 572.952727 143.500332 
L 574.127273 143.500332 
L 574.420909 143.910396 
L 575.595455 143.910396 
L 575.889091 144.32046 
L 576.77 144.32046 
L 577.357273 145.140588 
L 578.531818 145.140588 
L 578.825455 145.550652 
L 580 145.550652 
L 580.293636 145.960716 
L 581.468182 145.960716 
L 581.761818 146.37078 
L 582.936364 146.37078 
L 583.23 146.780844 
L 584.404545 146.780844 
L 584.698182 147.190908 
L 585.872727 147.190908 
L 586.166364 147.600972 
L 587.340909 147.600972 
L 587.634545 148.011036 
L 588.809091 148.011036 
L 589.102727 148.4211 
L 590.277273 148.4211 
L 590.570909 148.831164 
L 591.158182 148.831164 
L 591.451818 149.241228 
L 591.745455 149.241228 
L 592.039091 149.651292 
L 593.213636 149.651292 
L 593.507273 150.061356 
L 594.681818 150.061356 
L 594.975455 150.47142 
L 596.15 150.47142 
L 596.443636 150.881484 
L 597.618182 150.881484 
L 597.911818 151.291548 
L 599.086364 151.291548 
L 599.38 151.701612 
L 600.554545 151.701612 
L 600.848182 152.111676 
L 602.022727 152.111676 
L 602.316364 152.521741 
L 603.490909 152.521741 
L 603.784545 152.931805 
L 604.959091 152.931805 
L 605.252727 153.341869 
L 605.546364 153.341869 
L 605.84 153.751933 
L 606.427273 153.751933 
L 606.720909 154.161997 
L 607.895455 154.161997 
L 608.189091 154.572061 
L 609.363636 154.572061 
L 609.657273 154.982125 
L 610.831818 154.982125 
L 611.125455 155.392189 
L 612.3 155.392189 
L 612.593636 155.802253 
L 613.768182 155.802253 
L 614.061818 156.212317 
L 615.236364 156.212317 
L 615.53 156.622381 
L 616.704545 156.622381 
L 616.998182 157.032445 
L 618.172727 157.032445 
L 618.466364 157.442509 
L 619.640909 157.442509 
L 620.228182 158.262637 
L 621.109091 158.262637 
L 621.402727 158.672701 
L 622.577273 158.672701 
L 622.870909 159.082765 
L 624.045455 159.082765 
L 624.339091 159.492829 
L 625.513636 159.492829 
L 625.807273 159.902893 
L 626.981818 159.902893 
L 627.275455 160.312957 
L 628.45 160.312957 
L 628.743636 160.723021 
L 629.918182 160.723021 
L 630.211818 161.133085 
L 631.386364 161.133085 
L 631.68 161.543149 
L 632.854545 161.543149 
L 633.148182 161.953213 
L 634.322727 161.953213 
L 634.616364 162.773341 
L 635.790909 162.773341 
L 636.084545 163.183405 
L 637.259091 163.183405 
L 637.552727 163.593469 
L 638.727273 163.593469 
L 639.020909 164.003534 
L 640.195455 164.003534 
L 640.489091 164.413598 
L 641.663636 164.413598 
L 641.957273 164.823662 
L 643.131818 164.823662 
L 643.425455 165.233726 
L 644.6 165.233726 
L 644.893636 165.64379 
L 646.068182 165.64379 
L 646.361818 166.053854 
L 647.536364 166.053854 
L 647.83 166.463918 
L 649.004545 166.463918 
L 649.298182 167.284046 
L 650.472727 167.284046 
L 650.766364 167.69411 
L 651.940909 167.69411 
L 652.234545 168.104174 
L 653.409091 168.104174 
L 653.702727 168.514238 
L 654.877273 168.514238 
L 655.170909 168.924302 
L 656.345455 168.924302 
L 656.639091 169.334366 
L 657.813636 169.334366 
L 658.107273 169.74443 
L 659.281818 169.74443 
L 659.575455 170.154494 
L 660.75 170.154494 
L 661.043636 170.564558 
L 662.218182 170.564558 
L 662.511818 170.974622 
L 663.392727 170.974622 
L 663.98 171.79475 
L 665.154545 171.79475 
L 665.448182 172.204814 
L 666.622727 172.204814 
L 666.916364 172.614878 
L 668.090909 172.614878 
L 668.384545 173.024942 
L 669.559091 173.024942 
L 669.852727 173.435006 
L 671.027273 173.435006 
L 671.320909 173.84507 
L 672.495455 173.84507 
L 672.789091 174.255134 
L 673.963636 174.255134 
L 674.257273 174.665198 
L 675.431818 174.665198 
L 675.725455 175.075262 
L 676.9 175.075262 
L 677.193636 175.485326 
L 677.780909 175.485326 
L 678.074545 175.895391 
L 678.368182 175.895391 
L 678.661818 176.305455 
L 679.836364 176.305455 
L 679.836364 176.305455 
" clip-path="url(#p1e0c5bcb45)" style="fill: none; stroke: #1f77b4; stroke-width: 1.5; stroke-linecap: square"/>
   </g>
   <g id="patch_3">
    <path d="M 63.2 182.466667 
L 63.2 46.92 
" style="fill: none; stroke: #000000; stroke-width: 0.8; stroke-linejoin: miter; stroke-linecap: square"/>
   </g>
   <g id="patch_4">
    <path d="M 709.2 182.466667 
L 709.2 46.92 
" style="fill: none; stroke: #000000; stroke-width: 0.8; stroke-linejoin: miter; stroke-linecap: square"/>
   </g>
   <g id="patch_5">
    <path d="M 63.2 182.466667 
L 709.2 182.466667 
" style="fill: none; stroke: #000000; stroke-width: 0.8; stroke-linejoin: miter; stroke-linecap: square"/>
   </g>
   <g id="patch_6">
    <path d="M 63.2 46.92 
L 709.2 46.92 
" style="fill: none; stroke: #000000; stroke-width: 0.8; stroke-linejoin: miter; stroke-linecap: square"/>
   </g>
  </g>
  <g id="axes_2">
   <g id="patch_7">
    <path d="M 63.2 356.813333 
L 709.2 356.813333 
L 709.2 221.266667 
L 63.2 221.266667 
z
" style="fill: #ffffff"/>
   </g>
   <g id="matplotlib.axis_3">
    <g id="xtick_10">
     <g id="line2d_17">
      <g>
       <use xlink:href="#m54b0dd2565" x="92.563636" y="356.813333" style="stroke: #000000; stroke-width: 0.8"/>
      </g>
     </g>
     <g id="text_18">
      <!-- 0 -->
      <g transform="translate(89.382386 371.411771) scale(0.1 -0.1)">
       <use xlink:href="#DejaVuSans-30"/>
      </g>
     </g>
    </g>
    <g id="xtick_11">
     <g id="line2d_18">
      <g>
       <use xlink:href="#m54b0dd2565" x="165.972727" y="356.813333" style="stroke: #000000; stroke-width: 0.8"/>
      </g>
     </g>
     <g id="text_19">
      <!-- 25 -->
      <g transform="translate(159.610227 371.411771) scale(0.1 -0.1)">
       <use xlink:href="#DejaVuSans-32"/>
       <use xlink:href="#DejaVuSans-35" x="63.623047"/>
      </g>
     </g>
    </g>
    <g id="xtick_12">
     <g id="line2d_19">
      <g>
       <use xlink:href="#m54b0dd2565" x="239.381818" y="356.813333" style="stroke: #000000; stroke-width: 0.8"/>
      </g>
     </g>
     <g id="text_20">
      <!-- 50 -->
      <g transform="translate(233.019318 371.411771) scale(0.1 -0.1)">
       <use xlink:href="#DejaVuSans-35"/>
       <use xlink:href="#DejaVuSans-30" x="63.623047"/>
      </g>
     </g>
    </g>
    <g id="xtick_13">
     <g id="line2d_20">
      <g>
       <use xlink:href="#m54b0dd2565" x="312.790909" y="356.813333" style="stroke: #000000; stroke-width: 0.8"/>
      </g>
     </g>
     <g id="text_21">
      <!-- 75 -->
      <g transform="translate(306.428409 371.411771) scale(0.1 -0.1)">
       <use xlink:href="#DejaVuSans-37"/>
       <use xlink:href="#DejaVuSans-35" x="63.623047"/>
      </g>
     </g>
    </g>
    <g id="xtick_14">
     <g id="line2d_21">
      <g>
       <use xlink:href="#m54b0dd2565" x="386.2" y="356.813333" style="stroke: #000000; stroke-width: 0.8"/>
      </g>
     </g>
     <g id="text_22">
      <!-- 100 -->
      <g transform="translate(376.65625 371.411771) scale(0.1 -0.1)">
       <use xlink:href="#DejaVuSans-31"/>
       <use xlink:href="#DejaVuSans-30" x="63.623047"/>
       <use xlink:href="#DejaVuSans-30" x="127.246094"/>
      </g>
     </g>
    </g>
    <g id="xtick_15">
     <g id="line2d_22">
      <g>
       <use xlink:href="#m54b0dd2565" x="459.609091" y="356.813333" style="stroke: #000000; stroke-width: 0.8"/>
      </g>
     </g>
     <g id="text_23">
      <!-- 125 -->
      <g transform="translate(450.065341 371.411771) scale(0.1 -0.1)">
       <use xlink:href="#DejaVuSans-31"/>
       <use xlink:href="#DejaVuSans-32" x="63.623047"/>
       <use xlink:href="#DejaVuSans-35" x="127.246094"/>
      </g>
     </g>
    </g>
    <g id="xtick_16">
     <g id="line2d_23">
      <g>
       <use xlink:href="#m54b0dd2565" x="533.018182" y="356.813333" style="stroke: #000000; stroke-width: 0.8"/>
      </g>
     </g>
     <g id="text_24">
      <!-- 150 -->
      <g transform="translate(523.474432 371.411771) scale(0.1 -0.1)">
       <use xlink:href="#DejaVuSans-31"/>
       <use xlink:href="#DejaVuSans-35" x="63.623047"/>
       <use xlink:href="#DejaVuSans-30" x="127.246094"/>
      </g>
     </g>
    </g>
    <g id="xtick_17">
     <g id="line2d_24">
      <g>
       <use xlink:href="#m54b0dd2565" x="606.427273" y="356.813333" style="stroke: #000000; stroke-width: 0.8"/>
      </g>
     </g>
     <g id="text_25">
      <!-- 175 -->
      <g transform="translate(596.883523 371.411771) scale(0.1 -0.1)">
       <use xlink:href="#DejaVuSans-31"/>
       <use xlink:href="#DejaVuSans-37" x="63.623047"/>
       <use xlink:href="#DejaVuSans-35" x="127.246094"/>
      </g>
     </g>
    </g>
    <g id="xtick_18">
     <g id="line2d_25">
      <g>
       <use xlink:href="#m54b0dd2565" x="679.836364" y="356.813333" style="stroke: #000000; stroke-width: 0.8"/>
      </g>
     </g>
     <g id="text_26">
      <!-- 200 -->
      <g transform="translate(670.292614 371.411771) scale(0.1 -0.1)">
       <use xlink:href="#DejaVuSans-32"/>
       <use xlink:href="#DejaVuSans-30" x="63.623047"/>
       <use xlink:href="#DejaVuSans-30" x="127.246094"/>
      </g>
     </g>
    </g>
   </g>
   <g id="matplotlib.axis_4">
    <g id="ytick_7">
     <g id="line2d_26">
      <g>
       <use xlink:href="#m9e9e4dbfc0" x="63.2" y="339.62487" style="stroke: #000000; stroke-width: 0.8"/>
      </g>
     </g>
     <g id="text_27">
      <!-- 0.000 -->
      <g transform="translate(27.571875 343.424089) scale(0.1 -0.1)">
       <use xlink:href="#DejaVuSans-30"/>
       <use xlink:href="#DejaVuSans-2e" x="63.623047"/>
       <use xlink:href="#DejaVuSans-30" x="95.410156"/>
       <use xlink:href="#DejaVuSans-30" x="159.033203"/>
       <use xlink:href="#DejaVuSans-30" x="222.65625"/>
      </g>
     </g>
    </g>
    <g id="ytick_8">
     <g id="line2d_27">
      <g>
       <use xlink:href="#m9e9e4dbfc0" x="63.2" y="300.470323" style="stroke: #000000; stroke-width: 0.8"/>
      </g>
     </g>
     <g id="text_28">
      <!-- 0.001 -->
      <g transform="translate(27.571875 304.269542) scale(0.1 -0.1)">
       <use xlink:href="#DejaVuSans-30"/>
       <use xlink:href="#DejaVuSans-2e" x="63.623047"/>
       <use xlink:href="#DejaVuSans-30" x="95.410156"/>
       <use xlink:href="#DejaVuSans-30" x="159.033203"/>
       <use xlink:href="#DejaVuSans-31" x="222.65625"/>
      </g>
     </g>
    </g>
    <g id="ytick_9">
     <g id="line2d_28">
      <g>
       <use xlink:href="#m9e9e4dbfc0" x="63.2" y="261.315775" style="stroke: #000000; stroke-width: 0.8"/>
      </g>
     </g>
     <g id="text_29">
      <!-- 0.002 -->
      <g transform="translate(27.571875 265.114994) scale(0.1 -0.1)">
       <use xlink:href="#DejaVuSans-30"/>
       <use xlink:href="#DejaVuSans-2e" x="63.623047"/>
       <use xlink:href="#DejaVuSans-30" x="95.410156"/>
       <use xlink:href="#DejaVuSans-30" x="159.033203"/>
       <use xlink:href="#DejaVuSans-32" x="222.65625"/>
      </g>
     </g>
    </g>
    <g id="ytick_10">
     <g id="line2d_29">
      <g>
       <use xlink:href="#m9e9e4dbfc0" x="63.2" y="222.161228" style="stroke: #000000; stroke-width: 0.8"/>
      </g>
     </g>
     <g id="text_30">
      <!-- 0.003 -->
      <g transform="translate(27.571875 225.960446) scale(0.1 -0.1)">
       <use xlink:href="#DejaVuSans-30"/>
       <use xlink:href="#DejaVuSans-2e" x="63.623047"/>
       <use xlink:href="#DejaVuSans-30" x="95.410156"/>
       <use xlink:href="#DejaVuSans-30" x="159.033203"/>
       <use xlink:href="#DejaVuSans-33" x="222.65625"/>
      </g>
     </g>
    </g>
    <g id="text_31">
     <!-- Position [m] -->
     <g transform="translate(21.07625 324.83) rotate(-90) scale(0.12 -0.12)">
      <defs>
       <path id="DejaVuSans-50" d="M 1259 4147 
L 1259 2394 
L 2053 2394 
Q 2494 2394 2734 2622 
Q 2975 2850 2975 3272 
Q 2975 3691 2734 3919 
Q 2494 4147 2053 4147 
L 1259 4147 
z
M 628 4666 
L 2053 4666 
Q 2838 4666 3239 4311 
Q 3641 3956 3641 3272 
Q 3641 2581 3239 2228 
Q 2838 1875 2053 1875 
L 1259 1875 
L 1259 0 
L 628 0 
L 628 4666 
z
" transform="scale(0.015625)"/>
       <path id="DejaVuSans-6f" d="M 1959 3097 
Q 1497 3097 1228 2736 
Q 959 2375 959 1747 
Q 959 1119 1226 758 
Q 1494 397 1959 397 
Q 2419 397 2687 759 
Q 2956 1122 2956 1747 
Q 2956 2369 2687 2733 
Q 2419 3097 1959 3097 
z
M 1959 3584 
Q 2709 3584 3137 3096 
Q 3566 2609 3566 1747 
Q 3566 888 3137 398 
Q 2709 -91 1959 -91 
Q 1206 -91 779 398 
Q 353 888 353 1747 
Q 353 2609 779 3096 
Q 1206 3584 1959 3584 
z
" transform="scale(0.015625)"/>
       <path id="DejaVuSans-73" d="M 2834 3397 
L 2834 2853 
Q 2591 2978 2328 3040 
Q 2066 3103 1784 3103 
Q 1356 3103 1142 2972 
Q 928 2841 928 2578 
Q 928 2378 1081 2264 
Q 1234 2150 1697 2047 
L 1894 2003 
Q 2506 1872 2764 1633 
Q 3022 1394 3022 966 
Q 3022 478 2636 193 
Q 2250 -91 1575 -91 
Q 1294 -91 989 -36 
Q 684 19 347 128 
L 347 722 
Q 666 556 975 473 
Q 1284 391 1588 391 
Q 1994 391 2212 530 
Q 2431 669 2431 922 
Q 2431 1156 2273 1281 
Q 2116 1406 1581 1522 
L 1381 1569 
Q 847 1681 609 1914 
Q 372 2147 372 2553 
Q 372 3047 722 3315 
Q 1072 3584 1716 3584 
Q 2034 3584 2315 3537 
Q 2597 3491 2834 3397 
z
" transform="scale(0.015625)"/>
       <path id="DejaVuSans-6e" d="M 3513 2113 
L 3513 0 
L 2938 0 
L 2938 2094 
Q 2938 2591 2744 2837 
Q 2550 3084 2163 3084 
Q 1697 3084 1428 2787 
Q 1159 2491 1159 1978 
L 1159 0 
L 581 0 
L 581 3500 
L 1159 3500 
L 1159 2956 
Q 1366 3272 1645 3428 
Q 1925 3584 2291 3584 
Q 2894 3584 3203 3211 
Q 3513 2838 3513 2113 
z
" transform="scale(0.015625)"/>
      </defs>
      <use xlink:href="#DejaVuSans-50"/>
      <use xlink:href="#DejaVuSans-6f" x="56.677734"/>
      <use xlink:href="#DejaVuSans-73" x="117.859375"/>
      <use xlink:href="#DejaVuSans-69" x="169.958984"/>
      <use xlink:href="#DejaVuSans-74" x="197.742188"/>
      <use xlink:href="#DejaVuSans-69" x="236.951172"/>
      <use xlink:href="#DejaVuSans-6f" x="264.734375"/>
      <use xlink:href="#DejaVuSans-6e" x="325.916016"/>
      <use xlink:href="#DejaVuSans-20" x="389.294922"/>
      <use xlink:href="#DejaVuSans-5b" x="421.082031"/>
      <use xlink:href="#DejaVuSans-6d" x="460.095703"/>
      <use xlink:href="#DejaVuSans-5d" x="557.507812"/>
     </g>
    </g>
   </g>
   <g id="line2d_30">
    <path d="M 92.563636 339.62487 
L 100.198182 339.517502 
L 108.126364 339.179503 
L 116.054545 338.613144 
L 123.982727 337.822498 
L 131.910909 336.81325 
L 140.132727 335.543501 
L 148.648182 333.999294 
L 157.457273 332.170025 
L 166.56 330.049213 
L 176.25 327.556441 
L 186.527273 324.676954 
L 197.685455 321.315869 
L 210.311818 317.276659 
L 226.168182 311.959041 
L 273.443636 295.943909 
L 286.07 291.99622 
L 297.228182 288.7393 
L 307.211818 286.049335 
L 316.608182 283.739625 
L 325.710909 281.729927 
L 334.52 280.016709 
L 343.035455 278.591674 
L 351.257273 277.442572 
L 359.185455 276.553973 
L 367.113636 275.887331 
L 375.041818 275.44744 
L 382.97 275.237464 
L 390.604545 275.253986 
L 398.239091 275.485007 
L 406.167273 275.950279 
L 414.095455 276.641848 
L 422.023636 277.554743 
L 430.245455 278.728188 
L 438.467273 280.123512 
L 446.982727 281.791051 
L 455.791818 283.739625 
L 465.188182 286.049334 
L 475.171818 288.739299 
L 485.742727 291.818908 
L 497.488182 295.472715 
L 511.582727 300.100733 
L 531.843636 307.016884 
L 559.151818 316.308793 
L 573.246364 320.857828 
L 584.991818 324.419926 
L 595.562727 327.398129 
L 605.252727 329.904791 
L 614.649091 332.105166 
L 623.458182 333.942029 
L 631.973636 335.494061 
L 640.195455 336.771755 
L 648.417273 337.822491 
L 656.345455 338.613136 
L 664.273636 339.179495 
L 672.201818 339.517494 
L 679.836364 339.624861 
L 679.836364 339.624861 
" clip-path="url(#pc679a05c37)" style="fill: none; stroke: #1f77b4; stroke-width: 1.5; stroke-linecap: square"/>
   </g>
   <g id="line2d_31">
    <path d="M 92.563636 339.62487 
L 118.11 343.916573 
L 131.910909 346.006353 
L 143.656364 347.562945 
L 154.227273 348.739687 
L 163.917273 349.5977 
L 173.02 350.186384 
L 181.829091 350.5359 
L 190.344545 350.652121 
L 198.566364 350.545096 
L 206.788182 350.212417 
L 214.716364 349.670054 
L 222.644545 348.904145 
L 230.572727 347.910378 
L 238.500909 346.686075 
L 246.429091 345.230221 
L 254.357273 343.543463 
L 262.285455 341.628108 
L 270.213636 339.488109 
L 278.435455 337.03754 
L 286.950909 334.259632 
L 295.466364 331.248464 
L 304.275455 327.901649 
L 313.671818 324.090024 
L 323.655455 319.791155 
L 334.226364 314.991897 
L 345.971818 309.406403 
L 359.479091 302.724769 
L 377.097273 293.739435 
L 416.444545 273.590176 
L 429.951818 266.973068 
L 441.697273 261.462274 
L 452.268182 256.744022 
L 462.251818 252.532681 
L 471.648182 248.812308 
L 480.457273 245.558021 
L 488.972727 242.641929 
L 497.488182 239.963838 
L 505.71 237.613364 
L 513.638182 235.572615 
L 521.566364 233.758468 
L 529.494545 232.174148 
L 537.422727 230.821225 
L 545.350909 229.699607 
L 553.279091 228.807538 
L 561.207273 228.141612 
L 569.135455 227.696797 
L 577.357273 227.461956 
L 585.579091 227.448639 
L 594.094545 227.656788 
L 602.903636 228.095113 
L 612.006364 228.768017 
L 621.696364 229.706369 
L 632.267273 230.95881 
L 644.012727 232.583758 
L 657.813636 234.731281 
L 677.193636 237.999988 
L 679.836364 238.45513 
L 679.836364 238.45513 
" clip-path="url(#pc679a05c37)" style="fill: none; stroke: #ff7f0e; stroke-width: 1.5; stroke-linecap: square"/>
   </g>
   <g id="patch_8">
    <path d="M 63.2 356.813333 
L 63.2 221.266667 
" style="fill: none; stroke: #000000; stroke-width: 0.8; stroke-linejoin: miter; stroke-linecap: square"/>
   </g>
   <g id="patch_9">
    <path d="M 709.2 356.813333 
L 709.2 221.266667 
" style="fill: none; stroke: #000000; stroke-width: 0.8; stroke-linejoin: miter; stroke-linecap: square"/>
   </g>
   <g id="patch_10">
    <path d="M 63.2 356.813333 
L 709.2 356.813333 
" style="fill: none; stroke: #000000; stroke-width: 0.8; stroke-linejoin: miter; stroke-linecap: square"/>
   </g>
   <g id="patch_11">
    <path d="M 63.2 221.266667 
L 709.2 221.266667 
" style="fill: none; stroke: #000000; stroke-width: 0.8; stroke-linejoin: miter; stroke-linecap: square"/>
   </g>
   <g id="legend_1">
    <g id="patch_12">
     <path d="M 70.2 258.622917 
L 130.16875 258.622917 
Q 132.16875 258.622917 132.16875 256.622917 
L 132.16875 228.266667 
Q 132.16875 226.266667 130.16875 226.266667 
L 70.2 226.266667 
Q 68.2 226.266667 68.2 228.266667 
L 68.2 256.622917 
Q 68.2 258.622917 70.2 258.622917 
z
" style="fill: #ffffff; opacity: 0.8; stroke: #cccccc; stroke-linejoin: miter"/>
    </g>
    <g id="line2d_32">
     <path d="M 72.2 234.365104 
L 82.2 234.365104 
L 92.2 234.365104 
" style="fill: none; stroke: #1f77b4; stroke-width: 1.5; stroke-linecap: square"/>
    </g>
    <g id="text_32">
     <!-- North -->
     <g transform="translate(100.2 237.865104) scale(0.1 -0.1)">
      <defs>
       <path id="DejaVuSans-4e" d="M 628 4666 
L 1478 4666 
L 3547 763 
L 3547 4666 
L 4159 4666 
L 4159 0 
L 3309 0 
L 1241 3903 
L 1241 0 
L 628 0 
L 628 4666 
z
" transform="scale(0.015625)"/>
      </defs>
      <use xlink:href="#DejaVuSans-4e"/>
      <use xlink:href="#DejaVuSans-6f" x="74.804688"/>
      <use xlink:href="#DejaVuSans-72" x="135.986328"/>
      <use xlink:href="#DejaVuSans-74" x="177.099609"/>
      <use xlink:href="#DejaVuSans-68" x="216.308594"/>
     </g>
    </g>
    <g id="line2d_33">
     <path d="M 72.2 249.043229 
L 82.2 249.043229 
L 92.2 249.043229 
" style="fill: none; stroke: #ff7f0e; stroke-width: 1.5; stroke-linecap: square"/>
    </g>
    <g id="text_33">
     <!-- East -->
     <g transform="translate(100.2 252.543229) scale(0.1 -0.1)">
      <defs>
       <path id="DejaVuSans-45" d="M 628 4666 
L 3578 4666 
L 3578 4134 
L 1259 4134 
L 1259 2753 
L 3481 2753 
L 3481 2222 
L 1259 2222 
L 1259 531 
L 3634 531 
L 3634 0 
L 628 0 
L 628 4666 
z
" transform="scale(0.015625)"/>
      </defs>
      <use xlink:href="#DejaVuSans-45"/>
      <use xlink:href="#DejaVuSans-61" x="63.183594"/>
      <use xlink:href="#DejaVuSans-73" x="124.462891"/>
      <use xlink:href="#DejaVuSans-74" x="176.5625"/>
     </g>
    </g>
   </g>
  </g>
  <g id="axes_3">
   <g id="patch_13">
    <path d="M 63.2 531.16 
L 709.2 531.16 
L 709.2 395.613333 
L 63.2 395.613333 
z
" style="fill: #ffffff"/>
   </g>
   <g id="matplotlib.axis_5">
    <g id="xtick_19">
     <g id="line2d_34">
      <g>
       <use xlink:href="#m54b0dd2565" x="92.563636" y="531.16" style="stroke: #000000; stroke-width: 0.8"/>
      </g>
     </g>
     <g id="text_34">
      <!-- 0 -->
      <g transform="translate(89.382386 545.758438) scale(0.1 -0.1)">
       <use xlink:href="#DejaVuSans-30"/>
      </g>
     </g>
    </g>
    <g id="xtick_20">
     <g id="line2d_35">
      <g>
       <use xlink:href="#m54b0dd2565" x="165.972727" y="531.16" style="stroke: #000000; stroke-width: 0.8"/>
      </g>
     </g>
     <g id="text_35">
      <!-- 25 -->
      <g transform="translate(159.610227 545.758438) scale(0.1 -0.1)">
       <use xlink:href="#DejaVuSans-32"/>
       <use xlink:href="#DejaVuSans-35" x="63.623047"/>
      </g>
     </g>
    </g>
    <g id="xtick_21">
     <g id="line2d_36">
      <g>
       <use xlink:href="#m54b0dd2565" x="239.381818" y="531.16" style="stroke: #000000; stroke-width: 0.8"/>
      </g>
     </g>
     <g id="text_36">
      <!-- 50 -->
      <g transform="translate(233.019318 545.758438) scale(0.1 -0.1)">
       <use xlink:href="#DejaVuSans-35"/>
       <use xlink:href="#DejaVuSans-30" x="63.623047"/>
      </g>
     </g>
    </g>
    <g id="xtick_22">
     <g id="line2d_37">
      <g>
       <use xlink:href="#m54b0dd2565" x="312.790909" y="531.16" style="stroke: #000000; stroke-width: 0.8"/>
      </g>
     </g>
     <g id="text_37">
      <!-- 75 -->
      <g transform="translate(306.428409 545.758438) scale(0.1 -0.1)">
       <use xlink:href="#DejaVuSans-37"/>
       <use xlink:href="#DejaVuSans-35" x="63.623047"/>
      </g>
     </g>
    </g>
    <g id="xtick_23">
     <g id="line2d_38">
      <g>
       <use xlink:href="#m54b0dd2565" x="386.2" y="531.16" style="stroke: #000000; stroke-width: 0.8"/>
      </g>
     </g>
     <g id="text_38">
      <!-- 100 -->
      <g transform="translate(376.65625 545.758438) scale(0.1 -0.1)">
       <use xlink:href="#DejaVuSans-31"/>
       <use xlink:href="#DejaVuSans-30" x="63.623047"/>
       <use xlink:href="#DejaVuSans-30" x="127.246094"/>
      </g>
     </g>
    </g>
    <g id="xtick_24">
     <g id="line2d_39">
      <g>
       <use xlink:href="#m54b0dd2565" x="459.609091" y="531.16" style="stroke: #000000; stroke-width: 0.8"/>
      </g>
     </g>
     <g id="text_39">
      <!-- 125 -->
      <g transform="translate(450.065341 545.758438) scale(0.1 -0.1)">
       <use xlink:href="#DejaVuSans-31"/>
       <use xlink:href="#DejaVuSans-32" x="63.623047"/>
       <use xlink:href="#DejaVuSans-35" x="127.246094"/>
      </g>
     </g>
    </g>
    <g id="xtick_25">
     <g id="line2d_40">
      <g>
       <use xlink:href="#m54b0dd2565" x="533.018182" y="531.16" style="stroke: #000000; stroke-width: 0.8"/>
      </g>
     </g>
     <g id="text_40">
      <!-- 150 -->
      <g transform="translate(523.474432 545.758438) scale(0.1 -0.1)">
       <use xlink:href="#DejaVuSans-31"/>
       <use xlink:href="#DejaVuSans-35" x="63.623047"/>
       <use xlink:href="#DejaVuSans-30" x="127.246094"/>
      </g>
     </g>
    </g>
    <g id="xtick_26">
     <g id="line2d_41">
      <g>
       <use xlink:href="#m54b0dd2565" x="606.427273" y="531.16" style="stroke: #000000; stroke-width: 0.8"/>
      </g>
     </g>
     <g id="text_41">
      <!-- 175 -->
      <g transform="translate(596.883523 545.758438) scale(0.1 -0.1)">
       <use xlink:href="#DejaVuSans-31"/>
       <use xlink:href="#DejaVuSans-37" x="63.623047"/>
       <use xlink:href="#DejaVuSans-35" x="127.246094"/>
      </g>
     </g>
    </g>
    <g id="xtick_27">
     <g id="line2d_42">
      <g>
       <use xlink:href="#m54b0dd2565" x="679.836364" y="531.16" style="stroke: #000000; stroke-width: 0.8"/>
      </g>
     </g>
     <g id="text_42">
      <!-- 200 -->
      <g transform="translate(670.292614 545.758438) scale(0.1 -0.1)">
       <use xlink:href="#DejaVuSans-32"/>
       <use xlink:href="#DejaVuSans-30" x="63.623047"/>
       <use xlink:href="#DejaVuSans-30" x="127.246094"/>
      </g>
     </g>
    </g>
    <g id="text_43">
     <!-- Time [s] -->
     <g transform="translate(361.805313 560.95625) scale(0.12 -0.12)">
      <defs>
       <path id="DejaVuSans-54" d="M -19 4666 
L 3928 4666 
L 3928 4134 
L 2272 4134 
L 2272 0 
L 1638 0 
L 1638 4134 
L -19 4134 
L -19 4666 
z
" transform="scale(0.015625)"/>
      </defs>
      <use xlink:href="#DejaVuSans-54"/>
      <use xlink:href="#DejaVuSans-69" x="57.958984"/>
      <use xlink:href="#DejaVuSans-6d" x="85.742188"/>
      <use xlink:href="#DejaVuSans-65" x="183.154297"/>
      <use xlink:href="#DejaVuSans-20" x="244.677734"/>
      <use xlink:href="#DejaVuSans-5b" x="276.464844"/>
      <use xlink:href="#DejaVuSans-73" x="315.478516"/>
      <use xlink:href="#DejaVuSans-5d" x="367.578125"/>
     </g>
    </g>
   </g>
   <g id="matplotlib.axis_6">
    <g id="ytick_11">
     <g id="line2d_43">
      <g>
       <use xlink:href="#m9e9e4dbfc0" x="63.2" y="515.717408" style="stroke: #000000; stroke-width: 0.8"/>
      </g>
     </g>
     <g id="text_44">
      <!-- −1 -->
      <g transform="translate(41.457812 519.516627) scale(0.1 -0.1)">
       <use xlink:href="#DejaVuSans-2212"/>
       <use xlink:href="#DejaVuSans-31" x="83.789062"/>
      </g>
     </g>
    </g>
    <g id="ytick_12">
     <g id="line2d_44">
      <g>
       <use xlink:href="#m9e9e4dbfc0" x="63.2" y="483.924044" style="stroke: #000000; stroke-width: 0.8"/>
      </g>
     </g>
     <g id="text_45">
      <!-- 0 -->
      <g transform="translate(49.8375 487.723263) scale(0.1 -0.1)">
       <use xlink:href="#DejaVuSans-30"/>
      </g>
     </g>
    </g>
    <g id="ytick_13">
     <g id="line2d_45">
      <g>
       <use xlink:href="#m9e9e4dbfc0" x="63.2" y="452.13068" style="stroke: #000000; stroke-width: 0.8"/>
      </g>
     </g>
     <g id="text_46">
      <!-- 1 -->
      <g transform="translate(49.8375 455.929899) scale(0.1 -0.1)">
       <use xlink:href="#DejaVuSans-31"/>
      </g>
     </g>
    </g>
    <g id="ytick_14">
     <g id="line2d_46">
      <g>
       <use xlink:href="#m9e9e4dbfc0" x="63.2" y="420.337316" style="stroke: #000000; stroke-width: 0.8"/>
      </g>
     </g>
     <g id="text_47">
      <!-- 2 -->
      <g transform="translate(49.8375 424.136535) scale(0.1 -0.1)">
       <use xlink:href="#DejaVuSans-32"/>
      </g>
     </g>
    </g>
    <g id="text_48">
     <!-- Velocity [m/s] -->
     <g transform="translate(21.07625 504.505417) rotate(-90) scale(0.12 -0.12)">
      <defs>
       <path id="DejaVuSans-56" d="M 1831 0 
L 50 4666 
L 709 4666 
L 2188 738 
L 3669 4666 
L 4325 4666 
L 2547 0 
L 1831 0 
z
" transform="scale(0.015625)"/>
       <path id="DejaVuSans-6c" d="M 603 4863 
L 1178 4863 
L 1178 0 
L 603 0 
L 603 4863 
z
" transform="scale(0.015625)"/>
       <path id="DejaVuSans-63" d="M 3122 3366 
L 3122 2828 
Q 2878 2963 2633 3030 
Q 2388 3097 2138 3097 
Q 1578 3097 1268 2742 
Q 959 2388 959 1747 
Q 959 1106 1268 751 
Q 1578 397 2138 397 
Q 2388 397 2633 464 
Q 2878 531 3122 666 
L 3122 134 
Q 2881 22 2623 -34 
Q 2366 -91 2075 -91 
Q 1284 -91 818 406 
Q 353 903 353 1747 
Q 353 2603 823 3093 
Q 1294 3584 2113 3584 
Q 2378 3584 2631 3529 
Q 2884 3475 3122 3366 
z
" transform="scale(0.015625)"/>
       <path id="DejaVuSans-79" d="M 2059 -325 
Q 1816 -950 1584 -1140 
Q 1353 -1331 966 -1331 
L 506 -1331 
L 506 -850 
L 844 -850 
Q 1081 -850 1212 -737 
Q 1344 -625 1503 -206 
L 1606 56 
L 191 3500 
L 800 3500 
L 1894 763 
L 2988 3500 
L 3597 3500 
L 2059 -325 
z
" transform="scale(0.015625)"/>
       <path id="DejaVuSans-2f" d="M 1625 4666 
L 2156 4666 
L 531 -594 
L 0 -594 
L 1625 4666 
z
" transform="scale(0.015625)"/>
      </defs>
      <use xlink:href="#DejaVuSans-56"/>
      <use xlink:href="#DejaVuSans-65" x="60.658203"/>
      <use xlink:href="#DejaVuSans-6c" x="122.181641"/>
      <use xlink:href="#DejaVuSans-6f" x="149.964844"/>
      <use xlink:href="#DejaVuSans-63" x="211.146484"/>
      <use xlink:href="#DejaVuSans-69" x="266.126953"/>
      <use xlink:href="#DejaVuSans-74" x="293.910156"/>
      <use xlink:href="#DejaVuSans-79" x="333.119141"/>
      <use xlink:href="#DejaVuSans-20" x="392.298828"/>
      <use xlink:href="#DejaVuSans-5b" x="424.085938"/>
      <use xlink:href="#DejaVuSans-6d" x="463.099609"/>
      <use xlink:href="#DejaVuSans-2f" x="560.511719"/>
      <use xlink:href="#DejaVuSans-73" x="594.203125"/>
      <use xlink:href="#DejaVuSans-5d" x="646.302734"/>
     </g>
    </g>
    <g id="text_49">
     <!-- 1e−5 -->
     <g transform="translate(63.2 392.613333) scale(0.1 -0.1)">
      <use xlink:href="#DejaVuSans-31"/>
      <use xlink:href="#DejaVuSans-65" x="63.623047"/>
      <use xlink:href="#DejaVuSans-2212" x="125.146484"/>
      <use xlink:href="#DejaVuSans-35" x="208.935547"/>
     </g>
    </g>
   </g>
   <g id="line2d_47">
    <path d="M 92.563636 483.924044 
L 116.935455 473.33467 
L 129.855455 467.967295 
L 140.72 463.685392 
L 150.41 460.095166 
L 159.512727 456.954948 
L 168.028182 454.248168 
L 176.25 451.86806 
L 184.178182 449.807525 
L 191.812727 448.055007 
L 199.153636 446.595324 
L 206.494545 445.365785 
L 213.541818 444.408998 
L 220.589091 443.676743 
L 227.636364 443.173181 
L 234.39 442.907859 
L 241.143636 442.856591 
L 247.897273 443.019643 
L 254.944545 443.417352 
L 261.991818 444.045228 
L 269.039091 444.899703 
L 276.086364 445.975923 
L 283.427273 447.326173 
L 290.768182 448.902062 
L 298.402727 450.769884 
L 306.330909 452.943357 
L 314.552727 455.432407 
L 323.068182 458.242358 
L 332.170909 461.481032 
L 342.154545 465.276497 
L 353.312727 469.767922 
L 366.526364 475.342054 
L 385.612727 483.665965 
L 410.571818 494.513418 
L 423.491818 499.880793 
L 434.356364 504.162696 
L 444.046364 507.752921 
L 453.149091 510.893139 
L 461.664545 513.599918 
L 469.886364 515.980026 
L 477.814545 518.040561 
L 485.449091 519.793078 
L 492.79 521.252761 
L 500.130909 522.482299 
L 507.178182 523.439086 
L 514.225455 524.171341 
L 521.272727 524.674902 
L 528.026364 524.940223 
L 534.78 524.991491 
L 541.533636 524.828438 
L 548.580909 524.430728 
L 555.628182 523.802852 
L 562.675455 522.948376 
L 569.722727 521.872156 
L 577.063636 520.521904 
L 584.404545 518.946015 
L 592.039091 517.078192 
L 599.967273 514.904719 
L 608.189091 512.415668 
L 616.704545 509.605717 
L 625.807273 506.367041 
L 635.790909 502.571576 
L 646.949091 498.080151 
L 660.162727 492.506018 
L 679.249091 484.182107 
L 679.836364 483.924028 
L 679.836364 483.924028 
" clip-path="url(#p6236f94746)" style="fill: none; stroke: #1f77b4; stroke-width: 1.5; stroke-linecap: square"/>
   </g>
   <g id="line2d_48">
    <path d="M 92.563636 483.924044 
L 99.317273 483.816865 
L 106.070909 483.495886 
L 113.118182 482.934831 
L 120.165455 482.146002 
L 127.212727 481.133882 
L 134.553636 479.848363 
L 141.894545 478.334733 
L 149.529091 476.528622 
L 157.457273 474.415524 
L 165.679091 471.98463 
L 174.194545 469.229661 
L 183.297273 466.043341 
L 192.987273 462.410659 
L 203.851818 458.089822 
L 216.478182 452.813997 
L 233.215455 445.557172 
L 265.221818 431.637862 
L 277.848182 426.418197 
L 288.712727 422.163097 
L 298.402727 418.601886 
L 307.505455 415.493023 
L 316.020909 412.818904 
L 324.242727 410.473124 
L 332.170909 408.448039 
L 339.805455 406.731597 
L 347.146364 405.308169 
L 354.487273 404.116194 
L 361.534545 403.196485 
L 368.581818 402.502092 
L 375.629091 402.036959 
L 382.382727 401.808796 
L 389.136364 401.794813 
L 395.89 401.995084 
L 402.937273 402.431347 
L 409.984545 403.097272 
L 417.031818 403.989077 
L 424.079091 405.101693 
L 431.42 406.488642 
L 438.760909 408.099767 
L 446.395455 410.00245 
L 454.323636 412.209952 
L 462.545455 414.731697 
L 471.354545 417.674295 
L 480.457273 420.949408 
L 490.440909 424.778908 
L 501.599091 429.300571 
L 515.106364 435.025943 
L 536.248182 444.268459 
L 557.683636 453.563299 
L 570.603636 458.924875 
L 581.468182 463.20014 
L 591.158182 466.783164 
L 600.260909 469.915589 
L 608.776364 472.614243 
L 616.998182 474.985803 
L 624.926364 477.037506 
L 632.560909 478.78103 
L 639.901818 480.231669 
L 647.242727 481.451834 
L 654.29 482.399365 
L 661.337273 483.122165 
L 668.384545 483.616126 
L 675.138182 483.872161 
L 679.836364 483.924039 
L 679.836364 483.924039 
" clip-path="url(#p6236f94746)" style="fill: none; stroke: #ff7f0e; stroke-width: 1.5; stroke-linecap: square"/>
   </g>
   <g id="patch_14">
    <path d="M 63.2 531.16 
L 63.2 395.613333 
" style="fill: none; stroke: #000000; stroke-width: 0.8; stroke-linejoin: miter; stroke-linecap: square"/>
   </g>
   <g id="patch_15">
    <path d="M 709.2 531.16 
L 709.2 395.613333 
" style="fill: none; stroke: #000000; stroke-width: 0.8; stroke-linejoin: miter; stroke-linecap: square"/>
   </g>
   <g id="patch_16">
    <path d="M 63.2 531.16 
L 709.2 531.16 
" style="fill: none; stroke: #000000; stroke-width: 0.8; stroke-linejoin: miter; stroke-linecap: square"/>
   </g>
   <g id="patch_17">
    <path d="M 63.2 395.613333 
L 709.2 395.613333 
" style="fill: none; stroke: #000000; stroke-width: 0.8; stroke-linejoin: miter; stroke-linecap: square"/>
   </g>
   <g id="legend_2">
    <g id="patch_18">
     <path d="M 642.23125 432.969583 
L 702.2 432.969583 
Q 704.2 432.969583 704.2 430.969583 
L 704.2 402.613333 
Q 704.2 400.613333 702.2 400.613333 
L 642.23125 400.613333 
Q 640.23125 400.613333 640.23125 402.613333 
L 640.23125 430.969583 
Q 640.23125 432.969583 642.23125 432.969583 
z
" style="fill: #ffffff; opacity: 0.8; stroke: #cccccc; stroke-linejoin: miter"/>
    </g>
    <g id="line2d_49">
     <path d="M 644.23125 408.711771 
L 654.23125 408.711771 
L 664.23125 408.711771 
" style="fill: none; stroke: #1f77b4; stroke-width: 1.5; stroke-linecap: square"/>
    </g>
    <g id="text_50">
     <!-- North -->
     <g transform="translate(672.23125 412.211771) scale(0.1 -0.1)">
      <use xlink:href="#DejaVuSans-4e"/>
      <use xlink:href="#DejaVuSans-6f" x="74.804688"/>
      <use xlink:href="#DejaVuSans-72" x="135.986328"/>
      <use xlink:href="#DejaVuSans-74" x="177.099609"/>
      <use xlink:href="#DejaVuSans-68" x="216.308594"/>
     </g>
    </g>
    <g id="line2d_50">
     <path d="M 644.23125 423.389896 
L 654.23125 423.389896 
L 664.23125 423.389896 
" style="fill: none; stroke: #ff7f0e; stroke-width: 1.5; stroke-linecap: square"/>
    </g>
    <g id="text_51">
     <!-- East -->
     <g transform="translate(672.23125 426.889896) scale(0.1 -0.1)">
      <use xlink:href="#DejaVuSans-45"/>
      <use xlink:href="#DejaVuSans-61" x="63.183594"/>
      <use xlink:href="#DejaVuSans-73" x="124.462891"/>
      <use xlink:href="#DejaVuSans-74" x="176.5625"/>
     </g>
    </g>
   </g>
  </g>
  <g id="text_52">
   <!-- Deviation from true trajectory (PVA) -->
   <g transform="translate(216.10625 23.6775) scale(0.16 -0.16)">
    <defs>
     <path id="DejaVuSans-44" d="M 1259 4147 
L 1259 519 
L 2022 519 
Q 2988 519 3436 956 
Q 3884 1394 3884 2338 
Q 3884 3275 3436 3711 
Q 2988 4147 2022 4147 
L 1259 4147 
z
M 628 4666 
L 1925 4666 
Q 3281 4666 3915 4102 
Q 4550 3538 4550 2338 
Q 4550 1131 3912 565 
Q 3275 0 1925 0 
L 628 0 
L 628 4666 
z
" transform="scale(0.015625)"/>
     <path id="DejaVuSans-76" d="M 191 3500 
L 800 3500 
L 1894 563 
L 2988 3500 
L 3597 3500 
L 2284 0 
L 1503 0 
L 191 3500 
z
" transform="scale(0.015625)"/>
     <path id="DejaVuSans-66" d="M 2375 4863 
L 2375 4384 
L 1825 4384 
Q 1516 4384 1395 4259 
Q 1275 4134 1275 3809 
L 1275 3500 
L 2222 3500 
L 2222 3053 
L 1275 3053 
L 1275 0 
L 697 0 
L 697 3053 
L 147 3053 
L 147 3500 
L 697 3500 
L 697 3744 
Q 697 4328 969 4595 
Q 1241 4863 1831 4863 
L 2375 4863 
z
" transform="scale(0.015625)"/>
     <path id="DejaVuSans-6a" d="M 603 3500 
L 1178 3500 
L 1178 -63 
Q 1178 -731 923 -1031 
Q 669 -1331 103 -1331 
L -116 -1331 
L -116 -844 
L 38 -844 
Q 366 -844 484 -692 
Q 603 -541 603 -63 
L 603 3500 
z
M 603 4863 
L 1178 4863 
L 1178 4134 
L 603 4134 
L 603 4863 
z
" transform="scale(0.015625)"/>
     <path id="DejaVuSans-28" d="M 1984 4856 
Q 1566 4138 1362 3434 
Q 1159 2731 1159 2009 
Q 1159 1288 1364 580 
Q 1569 -128 1984 -844 
L 1484 -844 
Q 1016 -109 783 600 
Q 550 1309 550 2009 
Q 550 2706 781 3412 
Q 1013 4119 1484 4856 
L 1984 4856 
z
" transform="scale(0.015625)"/>
     <path id="DejaVuSans-29" d="M 513 4856 
L 1013 4856 
Q 1481 4119 1714 3412 
Q 1947 2706 1947 2009 
Q 1947 1309 1714 600 
Q 1481 -109 1013 -844 
L 513 -844 
Q 928 -128 1133 580 
Q 1338 1288 1338 2009 
Q 1338 2731 1133 3434 
Q 928 4138 513 4856 
z
" transform="scale(0.015625)"/>
    </defs>
    <use xlink:href="#DejaVuSans-44"/>
    <use xlink:href="#DejaVuSans-65" x="77.001953"/>
    <use xlink:href="#DejaVuSans-76" x="138.525391"/>
    <use xlink:href="#DejaVuSans-69" x="197.705078"/>
    <use xlink:href="#DejaVuSans-61" x="225.488281"/>
    <use xlink:href="#DejaVuSans-74" x="286.767578"/>
    <use xlink:href="#DejaVuSans-69" x="325.976562"/>
    <use xlink:href="#DejaVuSans-6f" x="353.759766"/>
    <use xlink:href="#DejaVuSans-6e" x="414.941406"/>
    <use xlink:href="#DejaVuSans-20" x="478.320312"/>
    <use xlink:href="#DejaVuSans-66" x="510.107422"/>
    <use xlink:href="#DejaVuSans-72" x="545.3125"/>
    <use xlink:href="#DejaVuSans-6f" x="584.175781"/>
    <use xlink:href="#DejaVuSans-6d" x="645.357422"/>
    <use xlink:href="#DejaVuSans-20" x="742.769531"/>
    <use xlink:href="#DejaVuSans-74" x="774.556641"/>
    <use xlink:href="#DejaVuSans-72" x="813.765625"/>
    <use xlink:href="#DejaVuSans-75" x="854.878906"/>
    <use xlink:href="#DejaVuSans-65" x="918.257812"/>
    <use xlink:href="#DejaVuSans-20" x="979.78125"/>
    <use xlink:href="#DejaVuSans-74" x="1011.568359"/>
    <use xlink:href="#DejaVuSans-72" x="1050.777344"/>
    <use xlink:href="#DejaVuSans-61" x="1091.890625"/>
    <use xlink:href="#DejaVuSans-6a" x="1153.169922"/>
    <use xlink:href="#DejaVuSans-65" x="1180.953125"/>
    <use xlink:href="#DejaVuSans-63" x="1242.476562"/>
    <use xlink:href="#DejaVuSans-74" x="1297.457031"/>
    <use xlink:href="#DejaVuSans-6f" x="1336.666016"/>
    <use xlink:href="#DejaVuSans-72" x="1397.847656"/>
    <use xlink:href="#DejaVuSans-79" x="1438.960938"/>
    <use xlink:href="#DejaVuSans-20" x="1498.140625"/>
    <use xlink:href="#DejaVuSans-28" x="1529.927734"/>
    <use xlink:href="#DejaVuSans-50" x="1568.941406"/>
    <use xlink:href="#DejaVuSans-56" x="1629.244141"/>
    <use xlink:href="#DejaVuSans-41" x="1691.277344"/>
    <use xlink:href="#DejaVuSans-29" x="1759.685547"/>
   </g>
  </g>
 </g>
 <defs>
  <clipPath id="p1e0c5bcb45">
   <rect x="63.2" y="46.92" width="646" height="135.546667"/>
  </clipPath>
  <clipPath id="pc679a05c37">
   <rect x="63.2" y="221.266667" width="646" height="135.546667"/>
  </clipPath>
  <clipPath id="p6236f94746">
   <rect x="63.2" y="395.613333" width="646" height="135.546667"/>
  </clipPath>
 </defs>
</svg>
