<?xml version="1.0" encoding="utf-8" standalone="no"?>
<!DOCTYPE svg PUBLIC "-//W3C//DTD SVG 1.1//EN"
  "http://www.w3.org/Graphics/SVG/1.1/DTD/svg11.dtd">
<svg xmlns:xlink="http://www.w3.org/1999/xlink" width="720pt" height="576pt" viewBox="0 0 720 576" xmlns="http://www.w3.org/2000/svg" version="1.1">
 <metadata>
  <rdf:RDF xmlns:dc="http://purl.org/dc/elements/1.1/" xmlns:cc="http://creativecommons.org/ns#" xmlns:rdf="http://www.w3.org/1999/02/22-rdf-syntax-ns#">
   <cc:Work>
    <dc:type rdf:resource="http://purl.org/dc/dcmitype/StillImage"/>
    <dc:date>2024-04-15T11:31:24.657284</dc:date>
    <dc:format>image/svg+xml</dc:format>
    <dc:creator>
     <cc:Agent>
      <dc:title>Matplotlib v3.7.1, https://matplotlib.org/</dc:title>
     </cc:Agent>
    </dc:creator>
   </cc:Work>
  </rdf:RDF>
 </metadata>
 <defs>
  <style type="text/css">*{stroke-linejoin: round; stroke-linecap: butt}</style>
 </defs>
 <g id="figure_1">
  <g id="patch_1">
   <path d="M 0 576 
L 720 576 
L 720 0 
L 0 0 
z
" style="fill: #ffffff"/>
  </g>
  <g id="axes_1">
   <g id="patch_2">
    <path d="M 90 199.567059 
L 343.636364 199.567059 
L 343.636364 69.12 
L 90 69.12 
z
" style="fill: #ffffff"/>
   </g>
   <g id="matplotlib.axis_1">
    <g id="xtick_1">
     <g id="line2d_1">
      <defs>
       <path id="ma812014725" d="M 0 0 
L 0 3.5 
" style="stroke: #000000; stroke-width: 0.8"/>
      </defs>
      <g>
       <use xlink:href="#ma812014725" x="101.528926" y="199.567059" style="stroke: #000000; stroke-width: 0.8"/>
      </g>
     </g>
    </g>
    <g id="xtick_2">
     <g id="line2d_2">
      <g>
       <use xlink:href="#ma812014725" x="159.173554" y="199.567059" style="stroke: #000000; stroke-width: 0.8"/>
      </g>
     </g>
    </g>
    <g id="xtick_3">
     <g id="line2d_3">
      <g>
       <use xlink:href="#ma812014725" x="216.818182" y="199.567059" style="stroke: #000000; stroke-width: 0.8"/>
      </g>
     </g>
    </g>
    <g id="xtick_4">
     <g id="line2d_4">
      <g>
       <use xlink:href="#ma812014725" x="274.46281" y="199.567059" style="stroke: #000000; stroke-width: 0.8"/>
      </g>
     </g>
    </g>
    <g id="xtick_5">
     <g id="line2d_5">
      <g>
       <use xlink:href="#ma812014725" x="332.107438" y="199.567059" style="stroke: #000000; stroke-width: 0.8"/>
      </g>
     </g>
    </g>
   </g>
   <g id="matplotlib.axis_2">
    <g id="ytick_1">
     <g id="line2d_6">
      <defs>
       <path id="m09a027c0dd" d="M 0 0 
L -3.5 0 
" style="stroke: #000000; stroke-width: 0.8"/>
      </defs>
      <g>
       <use xlink:href="#m09a027c0dd" x="90" y="185.536898" style="stroke: #000000; stroke-width: 0.8"/>
      </g>
     </g>
     <g id="text_1">
      <!-- 2 -->
      <g transform="translate(76.6375 189.336117) scale(0.1 -0.1)">
       <defs>
        <path id="DejaVuSans-32" d="M 1228 531 
L 3431 531 
L 3431 0 
L 469 0 
L 469 531 
Q 828 903 1448 1529 
Q 2069 2156 2228 2338 
Q 2531 2678 2651 2914 
Q 2772 3150 2772 3378 
Q 2772 3750 2511 3984 
Q 2250 4219 1831 4219 
Q 1534 4219 1204 4116 
Q 875 4013 500 3803 
L 500 4441 
Q 881 4594 1212 4672 
Q 1544 4750 1819 4750 
Q 2544 4750 2975 4387 
Q 3406 4025 3406 3419 
Q 3406 3131 3298 2873 
Q 3191 2616 2906 2266 
Q 2828 2175 2409 1742 
Q 1991 1309 1228 531 
z
" transform="scale(0.015625)"/>
       </defs>
       <use xlink:href="#DejaVuSans-32"/>
      </g>
     </g>
    </g>
    <g id="ytick_2">
     <g id="line2d_7">
      <g>
       <use xlink:href="#m09a027c0dd" x="90" y="147.789091" style="stroke: #000000; stroke-width: 0.8"/>
      </g>
     </g>
     <g id="text_2">
      <!-- 4 -->
      <g transform="translate(76.6375 151.588309) scale(0.1 -0.1)">
       <defs>
        <path id="DejaVuSans-34" d="M 2419 4116 
L 825 1625 
L 2419 1625 
L 2419 4116 
z
M 2253 4666 
L 3047 4666 
L 3047 1625 
L 3713 1625 
L 3713 1100 
L 3047 1100 
L 3047 0 
L 2419 0 
L 2419 1100 
L 313 1100 
L 313 1709 
L 2253 4666 
z
" transform="scale(0.015625)"/>
       </defs>
       <use xlink:href="#DejaVuSans-34"/>
      </g>
     </g>
    </g>
    <g id="ytick_3">
     <g id="line2d_8">
      <g>
       <use xlink:href="#m09a027c0dd" x="90" y="110.041283" style="stroke: #000000; stroke-width: 0.8"/>
      </g>
     </g>
     <g id="text_3">
      <!-- 6 -->
      <g transform="translate(76.6375 113.840502) scale(0.1 -0.1)">
       <defs>
        <path id="DejaVuSans-36" d="M 2113 2584 
Q 1688 2584 1439 2293 
Q 1191 2003 1191 1497 
Q 1191 994 1439 701 
Q 1688 409 2113 409 
Q 2538 409 2786 701 
Q 3034 994 3034 1497 
Q 3034 2003 2786 2293 
Q 2538 2584 2113 2584 
z
M 3366 4563 
L 3366 3988 
Q 3128 4100 2886 4159 
Q 2644 4219 2406 4219 
Q 1781 4219 1451 3797 
Q 1122 3375 1075 2522 
Q 1259 2794 1537 2939 
Q 1816 3084 2150 3084 
Q 2853 3084 3261 2657 
Q 3669 2231 3669 1497 
Q 3669 778 3244 343 
Q 2819 -91 2113 -91 
Q 1303 -91 875 529 
Q 447 1150 447 2328 
Q 447 3434 972 4092 
Q 1497 4750 2381 4750 
Q 2619 4750 2861 4703 
Q 3103 4656 3366 4563 
z
" transform="scale(0.015625)"/>
       </defs>
       <use xlink:href="#DejaVuSans-36"/>
      </g>
     </g>
    </g>
    <g id="ytick_4">
     <g id="line2d_9">
      <g>
       <use xlink:href="#m09a027c0dd" x="90" y="72.293475" style="stroke: #000000; stroke-width: 0.8"/>
      </g>
     </g>
     <g id="text_4">
      <!-- 8 -->
      <g transform="translate(76.6375 76.092694) scale(0.1 -0.1)">
       <defs>
        <path id="DejaVuSans-38" d="M 2034 2216 
Q 1584 2216 1326 1975 
Q 1069 1734 1069 1313 
Q 1069 891 1326 650 
Q 1584 409 2034 409 
Q 2484 409 2743 651 
Q 3003 894 3003 1313 
Q 3003 1734 2745 1975 
Q 2488 2216 2034 2216 
z
M 1403 2484 
Q 997 2584 770 2862 
Q 544 3141 544 3541 
Q 544 4100 942 4425 
Q 1341 4750 2034 4750 
Q 2731 4750 3128 4425 
Q 3525 4100 3525 3541 
Q 3525 3141 3298 2862 
Q 3072 2584 2669 2484 
Q 3125 2378 3379 2068 
Q 3634 1759 3634 1313 
Q 3634 634 3220 271 
Q 2806 -91 2034 -91 
Q 1263 -91 848 271 
Q 434 634 434 1313 
Q 434 1759 690 2068 
Q 947 2378 1403 2484 
z
M 1172 3481 
Q 1172 3119 1398 2916 
Q 1625 2713 2034 2713 
Q 2441 2713 2670 2916 
Q 2900 3119 2900 3481 
Q 2900 3844 2670 4047 
Q 2441 4250 2034 4250 
Q 1625 4250 1398 4047 
Q 1172 3844 1172 3481 
z
" transform="scale(0.015625)"/>
       </defs>
       <use xlink:href="#DejaVuSans-38"/>
      </g>
     </g>
    </g>
    <g id="text_5">
     <!-- Azimuth [rad] -->
     <g transform="translate(49.037187 175.606654) rotate(-90) scale(0.12 -0.12)">
      <defs>
       <path id="DejaVuSans-41" d="M 2188 4044 
L 1331 1722 
L 3047 1722 
L 2188 4044 
z
M 1831 4666 
L 2547 4666 
L 4325 0 
L 3669 0 
L 3244 1197 
L 1141 1197 
L 716 0 
L 50 0 
L 1831 4666 
z
" transform="scale(0.015625)"/>
       <path id="DejaVuSans-7a" d="M 353 3500 
L 3084 3500 
L 3084 2975 
L 922 459 
L 3084 459 
L 3084 0 
L 275 0 
L 275 525 
L 2438 3041 
L 353 3041 
L 353 3500 
z
" transform="scale(0.015625)"/>
       <path id="DejaVuSans-69" d="M 603 3500 
L 1178 3500 
L 1178 0 
L 603 0 
L 603 3500 
z
M 603 4863 
L 1178 4863 
L 1178 4134 
L 603 4134 
L 603 4863 
z
" transform="scale(0.015625)"/>
       <path id="DejaVuSans-6d" d="M 3328 2828 
Q 3544 3216 3844 3400 
Q 4144 3584 4550 3584 
Q 5097 3584 5394 3201 
Q 5691 2819 5691 2113 
L 5691 0 
L 5113 0 
L 5113 2094 
Q 5113 2597 4934 2840 
Q 4756 3084 4391 3084 
Q 3944 3084 3684 2787 
Q 3425 2491 3425 1978 
L 3425 0 
L 2847 0 
L 2847 2094 
Q 2847 2600 2669 2842 
Q 2491 3084 2119 3084 
Q 1678 3084 1418 2786 
Q 1159 2488 1159 1978 
L 1159 0 
L 581 0 
L 581 3500 
L 1159 3500 
L 1159 2956 
Q 1356 3278 1631 3431 
Q 1906 3584 2284 3584 
Q 2666 3584 2933 3390 
Q 3200 3197 3328 2828 
z
" transform="scale(0.015625)"/>
       <path id="DejaVuSans-75" d="M 544 1381 
L 544 3500 
L 1119 3500 
L 1119 1403 
Q 1119 906 1312 657 
Q 1506 409 1894 409 
Q 2359 409 2629 706 
Q 2900 1003 2900 1516 
L 2900 3500 
L 3475 3500 
L 3475 0 
L 2900 0 
L 2900 538 
Q 2691 219 2414 64 
Q 2138 -91 1772 -91 
Q 1169 -91 856 284 
Q 544 659 544 1381 
z
M 1991 3584 
L 1991 3584 
z
" transform="scale(0.015625)"/>
       <path id="DejaVuSans-74" d="M 1172 4494 
L 1172 3500 
L 2356 3500 
L 2356 3053 
L 1172 3053 
L 1172 1153 
Q 1172 725 1289 603 
Q 1406 481 1766 481 
L 2356 481 
L 2356 0 
L 1766 0 
Q 1100 0 847 248 
Q 594 497 594 1153 
L 594 3053 
L 172 3053 
L 172 3500 
L 594 3500 
L 594 4494 
L 1172 4494 
z
" transform="scale(0.015625)"/>
       <path id="DejaVuSans-68" d="M 3513 2113 
L 3513 0 
L 2938 0 
L 2938 2094 
Q 2938 2591 2744 2837 
Q 2550 3084 2163 3084 
Q 1697 3084 1428 2787 
Q 1159 2491 1159 1978 
L 1159 0 
L 581 0 
L 581 4863 
L 1159 4863 
L 1159 2956 
Q 1366 3272 1645 3428 
Q 1925 3584 2291 3584 
Q 2894 3584 3203 3211 
Q 3513 2838 3513 2113 
z
" transform="scale(0.015625)"/>
       <path id="DejaVuSans-20" transform="scale(0.015625)"/>
       <path id="DejaVuSans-5b" d="M 550 4863 
L 1875 4863 
L 1875 4416 
L 1125 4416 
L 1125 -397 
L 1875 -397 
L 1875 -844 
L 550 -844 
L 550 4863 
z
" transform="scale(0.015625)"/>
       <path id="DejaVuSans-72" d="M 2631 2963 
Q 2534 3019 2420 3045 
Q 2306 3072 2169 3072 
Q 1681 3072 1420 2755 
Q 1159 2438 1159 1844 
L 1159 0 
L 581 0 
L 581 3500 
L 1159 3500 
L 1159 2956 
Q 1341 3275 1631 3429 
Q 1922 3584 2338 3584 
Q 2397 3584 2469 3576 
Q 2541 3569 2628 3553 
L 2631 2963 
z
" transform="scale(0.015625)"/>
       <path id="DejaVuSans-61" d="M 2194 1759 
Q 1497 1759 1228 1600 
Q 959 1441 959 1056 
Q 959 750 1161 570 
Q 1363 391 1709 391 
Q 2188 391 2477 730 
Q 2766 1069 2766 1631 
L 2766 1759 
L 2194 1759 
z
M 3341 1997 
L 3341 0 
L 2766 0 
L 2766 531 
Q 2569 213 2275 61 
Q 1981 -91 1556 -91 
Q 1019 -91 701 211 
Q 384 513 384 1019 
Q 384 1609 779 1909 
Q 1175 2209 1959 2209 
L 2766 2209 
L 2766 2266 
Q 2766 2663 2505 2880 
Q 2244 3097 1772 3097 
Q 1472 3097 1187 3025 
Q 903 2953 641 2809 
L 641 3341 
Q 956 3463 1253 3523 
Q 1550 3584 1831 3584 
Q 2591 3584 2966 3190 
Q 3341 2797 3341 1997 
z
" transform="scale(0.015625)"/>
       <path id="DejaVuSans-64" d="M 2906 2969 
L 2906 4863 
L 3481 4863 
L 3481 0 
L 2906 0 
L 2906 525 
Q 2725 213 2448 61 
Q 2172 -91 1784 -91 
Q 1150 -91 751 415 
Q 353 922 353 1747 
Q 353 2572 751 3078 
Q 1150 3584 1784 3584 
Q 2172 3584 2448 3432 
Q 2725 3281 2906 2969 
z
M 947 1747 
Q 947 1113 1208 752 
Q 1469 391 1925 391 
Q 2381 391 2643 752 
Q 2906 1113 2906 1747 
Q 2906 2381 2643 2742 
Q 2381 3103 1925 3103 
Q 1469 3103 1208 2742 
Q 947 2381 947 1747 
z
" transform="scale(0.015625)"/>
       <path id="DejaVuSans-5d" d="M 1947 4863 
L 1947 -844 
L 622 -844 
L 622 -397 
L 1369 -397 
L 1369 4416 
L 622 4416 
L 622 4863 
L 1947 4863 
z
" transform="scale(0.015625)"/>
      </defs>
      <use xlink:href="#DejaVuSans-41"/>
      <use xlink:href="#DejaVuSans-7a" x="68.408203"/>
      <use xlink:href="#DejaVuSans-69" x="120.898438"/>
      <use xlink:href="#DejaVuSans-6d" x="148.681641"/>
      <use xlink:href="#DejaVuSans-75" x="246.09375"/>
      <use xlink:href="#DejaVuSans-74" x="309.472656"/>
      <use xlink:href="#DejaVuSans-68" x="348.681641"/>
      <use xlink:href="#DejaVuSans-20" x="412.060547"/>
      <use xlink:href="#DejaVuSans-5b" x="443.847656"/>
      <use xlink:href="#DejaVuSans-72" x="482.861328"/>
      <use xlink:href="#DejaVuSans-61" x="523.974609"/>
      <use xlink:href="#DejaVuSans-64" x="585.253906"/>
      <use xlink:href="#DejaVuSans-5d" x="648.730469"/>
     </g>
    </g>
   </g>
   <g id="line2d_10">
    <path d="M 101.528926 193.637647 
L 332.107438 75.049412 
L 332.107438 75.049412 
" clip-path="url(#p55551430ae)" style="fill: none; stroke: #1f77b4; stroke-width: 1.5; stroke-linecap: square"/>
   </g>
   <g id="patch_3">
    <path d="M 90 199.567059 
L 90 69.12 
" style="fill: none; stroke: #000000; stroke-width: 0.8; stroke-linejoin: miter; stroke-linecap: square"/>
   </g>
   <g id="patch_4">
    <path d="M 343.636364 199.567059 
L 343.636364 69.12 
" style="fill: none; stroke: #000000; stroke-width: 0.8; stroke-linejoin: miter; stroke-linecap: square"/>
   </g>
   <g id="patch_5">
    <path d="M 90 199.567059 
L 343.636364 199.567059 
" style="fill: none; stroke: #000000; stroke-width: 0.8; stroke-linejoin: miter; stroke-linecap: square"/>
   </g>
   <g id="patch_6">
    <path d="M 90 69.12 
L 343.636364 69.12 
" style="fill: none; stroke: #000000; stroke-width: 0.8; stroke-linejoin: miter; stroke-linecap: square"/>
   </g>
   <g id="text_6">
    <!-- Estimated -->
    <g transform="translate(186.507869 63.12) scale(0.12 -0.12)">
     <defs>
      <path id="DejaVuSans-45" d="M 628 4666 
L 3578 4666 
L 3578 4134 
L 1259 4134 
L 1259 2753 
L 3481 2753 
L 3481 2222 
L 1259 2222 
L 1259 531 
L 3634 531 
L 3634 0 
L 628 0 
L 628 4666 
z
" transform="scale(0.015625)"/>
      <path id="DejaVuSans-73" d="M 2834 3397 
L 2834 2853 
Q 2591 2978 2328 3040 
Q 2066 3103 1784 3103 
Q 1356 3103 1142 2972 
Q 928 2841 928 2578 
Q 928 2378 1081 2264 
Q 1234 2150 1697 2047 
L 1894 2003 
Q 2506 1872 2764 1633 
Q 3022 1394 3022 966 
Q 3022 478 2636 193 
Q 2250 -91 1575 -91 
Q 1294 -91 989 -36 
Q 684 19 347 128 
L 347 722 
Q 666 556 975 473 
Q 1284 391 1588 391 
Q 1994 391 2212 530 
Q 2431 669 2431 922 
Q 2431 1156 2273 1281 
Q 2116 1406 1581 1522 
L 1381 1569 
Q 847 1681 609 1914 
Q 372 2147 372 2553 
Q 372 3047 722 3315 
Q 1072 3584 1716 3584 
Q 2034 3584 2315 3537 
Q 2597 3491 2834 3397 
z
" transform="scale(0.015625)"/>
      <path id="DejaVuSans-65" d="M 3597 1894 
L 3597 1613 
L 953 1613 
Q 991 1019 1311 708 
Q 1631 397 2203 397 
Q 2534 397 2845 478 
Q 3156 559 3463 722 
L 3463 178 
Q 3153 47 2828 -22 
Q 2503 -91 2169 -91 
Q 1331 -91 842 396 
Q 353 884 353 1716 
Q 353 2575 817 3079 
Q 1281 3584 2069 3584 
Q 2775 3584 3186 3129 
Q 3597 2675 3597 1894 
z
M 3022 2063 
Q 3016 2534 2758 2815 
Q 2500 3097 2075 3097 
Q 1594 3097 1305 2825 
Q 1016 2553 972 2059 
L 3022 2063 
z
" transform="scale(0.015625)"/>
     </defs>
     <use xlink:href="#DejaVuSans-45"/>
     <use xlink:href="#DejaVuSans-73" x="63.183594"/>
     <use xlink:href="#DejaVuSans-74" x="115.283203"/>
     <use xlink:href="#DejaVuSans-69" x="154.492188"/>
     <use xlink:href="#DejaVuSans-6d" x="182.275391"/>
     <use xlink:href="#DejaVuSans-61" x="279.6875"/>
     <use xlink:href="#DejaVuSans-74" x="340.966797"/>
     <use xlink:href="#DejaVuSans-65" x="380.175781"/>
     <use xlink:href="#DejaVuSans-64" x="441.699219"/>
    </g>
   </g>
  </g>
  <g id="axes_2">
   <g id="patch_7">
    <path d="M 394.363636 199.567059 
L 648 199.567059 
L 648 69.12 
L 394.363636 69.12 
z
" style="fill: #ffffff"/>
   </g>
   <g id="matplotlib.axis_3">
    <g id="xtick_6">
     <g id="line2d_11">
      <g>
       <use xlink:href="#ma812014725" x="405.892562" y="199.567059" style="stroke: #000000; stroke-width: 0.8"/>
      </g>
     </g>
    </g>
    <g id="xtick_7">
     <g id="line2d_12">
      <g>
       <use xlink:href="#ma812014725" x="463.53719" y="199.567059" style="stroke: #000000; stroke-width: 0.8"/>
      </g>
     </g>
    </g>
    <g id="xtick_8">
     <g id="line2d_13">
      <g>
       <use xlink:href="#ma812014725" x="521.181818" y="199.567059" style="stroke: #000000; stroke-width: 0.8"/>
      </g>
     </g>
    </g>
    <g id="xtick_9">
     <g id="line2d_14">
      <g>
       <use xlink:href="#ma812014725" x="578.826446" y="199.567059" style="stroke: #000000; stroke-width: 0.8"/>
      </g>
     </g>
    </g>
    <g id="xtick_10">
     <g id="line2d_15">
      <g>
       <use xlink:href="#ma812014725" x="636.471074" y="199.567059" style="stroke: #000000; stroke-width: 0.8"/>
      </g>
     </g>
    </g>
   </g>
   <g id="matplotlib.axis_4">
    <g id="ytick_5">
     <g id="line2d_16">
      <g>
       <use xlink:href="#m09a027c0dd" x="394.363636" y="185.536898" style="stroke: #000000; stroke-width: 0.8"/>
      </g>
     </g>
    </g>
    <g id="ytick_6">
     <g id="line2d_17">
      <g>
       <use xlink:href="#m09a027c0dd" x="394.363636" y="147.789091" style="stroke: #000000; stroke-width: 0.8"/>
      </g>
     </g>
    </g>
    <g id="ytick_7">
     <g id="line2d_18">
      <g>
       <use xlink:href="#m09a027c0dd" x="394.363636" y="110.041283" style="stroke: #000000; stroke-width: 0.8"/>
      </g>
     </g>
    </g>
    <g id="ytick_8">
     <g id="line2d_19">
      <g>
       <use xlink:href="#m09a027c0dd" x="394.363636" y="72.293475" style="stroke: #000000; stroke-width: 0.8"/>
      </g>
     </g>
    </g>
   </g>
   <g id="line2d_20">
    <path d="M 405.892562 193.637647 
L 636.471074 75.049412 
L 636.471074 75.049412 
" clip-path="url(#p72b80eb45d)" style="fill: none; stroke: #1f77b4; stroke-width: 1.5; stroke-linecap: square"/>
   </g>
   <g id="patch_8">
    <path d="M 394.363636 199.567059 
L 394.363636 69.12 
" style="fill: none; stroke: #000000; stroke-width: 0.8; stroke-linejoin: miter; stroke-linecap: square"/>
   </g>
   <g id="patch_9">
    <path d="M 648 199.567059 
L 648 69.12 
" style="fill: none; stroke: #000000; stroke-width: 0.8; stroke-linejoin: miter; stroke-linecap: square"/>
   </g>
   <g id="patch_10">
    <path d="M 394.363636 199.567059 
L 648 199.567059 
" style="fill: none; stroke: #000000; stroke-width: 0.8; stroke-linejoin: miter; stroke-linecap: square"/>
   </g>
   <g id="patch_11">
    <path d="M 394.363636 69.12 
L 648 69.12 
" style="fill: none; stroke: #000000; stroke-width: 0.8; stroke-linejoin: miter; stroke-linecap: square"/>
   </g>
   <g id="text_7">
    <!-- True -->
    <g transform="translate(508.441193 63.12) scale(0.12 -0.12)">
     <defs>
      <path id="DejaVuSans-54" d="M -19 4666 
L 3928 4666 
L 3928 4134 
L 2272 4134 
L 2272 0 
L 1638 0 
L 1638 4134 
L -19 4134 
L -19 4666 
z
" transform="scale(0.015625)"/>
     </defs>
     <use xlink:href="#DejaVuSans-54"/>
     <use xlink:href="#DejaVuSans-72" x="46.333984"/>
     <use xlink:href="#DejaVuSans-75" x="87.447266"/>
     <use xlink:href="#DejaVuSans-65" x="150.826172"/>
    </g>
   </g>
  </g>
  <g id="axes_3">
   <g id="patch_12">
    <path d="M 90 356.103529 
L 343.636364 356.103529 
L 343.636364 225.656471 
L 90 225.656471 
z
" style="fill: #ffffff"/>
   </g>
   <g id="matplotlib.axis_5">
    <g id="xtick_11">
     <g id="line2d_21">
      <g>
       <use xlink:href="#ma812014725" x="101.528926" y="356.103529" style="stroke: #000000; stroke-width: 0.8"/>
      </g>
     </g>
    </g>
    <g id="xtick_12">
     <g id="line2d_22">
      <g>
       <use xlink:href="#ma812014725" x="159.173554" y="356.103529" style="stroke: #000000; stroke-width: 0.8"/>
      </g>
     </g>
    </g>
    <g id="xtick_13">
     <g id="line2d_23">
      <g>
       <use xlink:href="#ma812014725" x="216.818182" y="356.103529" style="stroke: #000000; stroke-width: 0.8"/>
      </g>
     </g>
    </g>
    <g id="xtick_14">
     <g id="line2d_24">
      <g>
       <use xlink:href="#ma812014725" x="274.46281" y="356.103529" style="stroke: #000000; stroke-width: 0.8"/>
      </g>
     </g>
    </g>
    <g id="xtick_15">
     <g id="line2d_25">
      <g>
       <use xlink:href="#ma812014725" x="332.107438" y="356.103529" style="stroke: #000000; stroke-width: 0.8"/>
      </g>
     </g>
    </g>
   </g>
   <g id="matplotlib.axis_6">
    <g id="ytick_9">
     <g id="line2d_26">
      <g>
       <use xlink:href="#m09a027c0dd" x="90" y="338.315294" style="stroke: #000000; stroke-width: 0.8"/>
      </g>
     </g>
     <g id="text_8">
      <!-- −400 -->
      <g transform="translate(55.532812 342.114513) scale(0.1 -0.1)">
       <defs>
        <path id="DejaVuSans-2212" d="M 678 2272 
L 4684 2272 
L 4684 1741 
L 678 1741 
L 678 2272 
z
" transform="scale(0.015625)"/>
        <path id="DejaVuSans-30" d="M 2034 4250 
Q 1547 4250 1301 3770 
Q 1056 3291 1056 2328 
Q 1056 1369 1301 889 
Q 1547 409 2034 409 
Q 2525 409 2770 889 
Q 3016 1369 3016 2328 
Q 3016 3291 2770 3770 
Q 2525 4250 2034 4250 
z
M 2034 4750 
Q 2819 4750 3233 4129 
Q 3647 3509 3647 2328 
Q 3647 1150 3233 529 
Q 2819 -91 2034 -91 
Q 1250 -91 836 529 
Q 422 1150 422 2328 
Q 422 3509 836 4129 
Q 1250 4750 2034 4750 
z
" transform="scale(0.015625)"/>
       </defs>
       <use xlink:href="#DejaVuSans-2212"/>
       <use xlink:href="#DejaVuSans-34" x="83.789062"/>
       <use xlink:href="#DejaVuSans-30" x="147.412109"/>
       <use xlink:href="#DejaVuSans-30" x="211.035156"/>
      </g>
     </g>
    </g>
    <g id="ytick_10">
     <g id="line2d_27">
      <g>
       <use xlink:href="#m09a027c0dd" x="90" y="314.597647" style="stroke: #000000; stroke-width: 0.8"/>
      </g>
     </g>
     <g id="text_9">
      <!-- −200 -->
      <g transform="translate(55.532812 318.396866) scale(0.1 -0.1)">
       <use xlink:href="#DejaVuSans-2212"/>
       <use xlink:href="#DejaVuSans-32" x="83.789062"/>
       <use xlink:href="#DejaVuSans-30" x="147.412109"/>
       <use xlink:href="#DejaVuSans-30" x="211.035156"/>
      </g>
     </g>
    </g>
    <g id="ytick_11">
     <g id="line2d_28">
      <g>
       <use xlink:href="#m09a027c0dd" x="90" y="290.88" style="stroke: #000000; stroke-width: 0.8"/>
      </g>
     </g>
     <g id="text_10">
      <!-- 0 -->
      <g transform="translate(76.6375 294.679219) scale(0.1 -0.1)">
       <use xlink:href="#DejaVuSans-30"/>
      </g>
     </g>
    </g>
    <g id="ytick_12">
     <g id="line2d_29">
      <g>
       <use xlink:href="#m09a027c0dd" x="90" y="267.162353" style="stroke: #000000; stroke-width: 0.8"/>
      </g>
     </g>
     <g id="text_11">
      <!-- 200 -->
      <g transform="translate(63.9125 270.961572) scale(0.1 -0.1)">
       <use xlink:href="#DejaVuSans-32"/>
       <use xlink:href="#DejaVuSans-30" x="63.623047"/>
       <use xlink:href="#DejaVuSans-30" x="127.246094"/>
      </g>
     </g>
    </g>
    <g id="ytick_13">
     <g id="line2d_30">
      <g>
       <use xlink:href="#m09a027c0dd" x="90" y="243.444706" style="stroke: #000000; stroke-width: 0.8"/>
      </g>
     </g>
     <g id="text_12">
      <!-- 400 -->
      <g transform="translate(63.9125 247.243925) scale(0.1 -0.1)">
       <use xlink:href="#DejaVuSans-34"/>
       <use xlink:href="#DejaVuSans-30" x="63.623047"/>
       <use xlink:href="#DejaVuSans-30" x="127.246094"/>
      </g>
     </g>
    </g>
    <g id="text_13">
     <!-- Position [m] -->
     <g transform="translate(49.037187 326.67) rotate(-90) scale(0.12 -0.12)">
      <defs>
       <path id="DejaVuSans-50" d="M 1259 4147 
L 1259 2394 
L 2053 2394 
Q 2494 2394 2734 2622 
Q 2975 2850 2975 3272 
Q 2975 3691 2734 3919 
Q 2494 4147 2053 4147 
L 1259 4147 
z
M 628 4666 
L 2053 4666 
Q 2838 4666 3239 4311 
Q 3641 3956 3641 3272 
Q 3641 2581 3239 2228 
Q 2838 1875 2053 1875 
L 1259 1875 
L 1259 0 
L 628 0 
L 628 4666 
z
" transform="scale(0.015625)"/>
       <path id="DejaVuSans-6f" d="M 1959 3097 
Q 1497 3097 1228 2736 
Q 959 2375 959 1747 
Q 959 1119 1226 758 
Q 1494 397 1959 397 
Q 2419 397 2687 759 
Q 2956 1122 2956 1747 
Q 2956 2369 2687 2733 
Q 2419 3097 1959 3097 
z
M 1959 3584 
Q 2709 3584 3137 3096 
Q 3566 2609 3566 1747 
Q 3566 888 3137 398 
Q 2709 -91 1959 -91 
Q 1206 -91 779 398 
Q 353 888 353 1747 
Q 353 2609 779 3096 
Q 1206 3584 1959 3584 
z
" transform="scale(0.015625)"/>
       <path id="DejaVuSans-6e" d="M 3513 2113 
L 3513 0 
L 2938 0 
L 2938 2094 
Q 2938 2591 2744 2837 
Q 2550 3084 2163 3084 
Q 1697 3084 1428 2787 
Q 1159 2491 1159 1978 
L 1159 0 
L 581 0 
L 581 3500 
L 1159 3500 
L 1159 2956 
Q 1366 3272 1645 3428 
Q 1925 3584 2291 3584 
Q 2894 3584 3203 3211 
Q 3513 2838 3513 2113 
z
" transform="scale(0.015625)"/>
      </defs>
      <use xlink:href="#DejaVuSans-50"/>
      <use xlink:href="#DejaVuSans-6f" x="56.677734"/>
      <use xlink:href="#DejaVuSans-73" x="117.859375"/>
      <use xlink:href="#DejaVuSans-69" x="169.958984"/>
      <use xlink:href="#DejaVuSans-74" x="197.742188"/>
      <use xlink:href="#DejaVuSans-69" x="236.951172"/>
      <use xlink:href="#DejaVuSans-6f" x="264.734375"/>
      <use xlink:href="#DejaVuSans-6e" x="325.916016"/>
      <use xlink:href="#DejaVuSans-20" x="389.294922"/>
      <use xlink:href="#DejaVuSans-5b" x="421.082031"/>
      <use xlink:href="#DejaVuSans-6d" x="460.095703"/>
      <use xlink:href="#DejaVuSans-5d" x="557.507812"/>
     </g>
    </g>
   </g>
   <g id="line2d_31">
    <path d="M 101.528926 231.585882 
L 103.719421 231.691481 
L 106.025207 232.030377 
L 108.330992 232.601525 
L 110.636777 233.402671 
L 113.057851 234.487938 
L 115.478926 235.818562 
L 118.015289 237.469388 
L 120.666942 239.467795 
L 123.433884 241.83897 
L 126.316116 244.605046 
L 129.428926 247.912305 
L 132.657025 251.668063 
L 136.230992 256.178625 
L 140.150826 261.502166 
L 144.531818 267.845317 
L 149.719835 275.773522 
L 156.752479 286.970909 
L 169.895455 307.958308 
L 175.19876 315.957395 
L 179.579752 322.177985 
L 183.499587 327.368634 
L 187.073554 331.74023 
L 190.416942 335.479971 
L 193.529752 338.629844 
L 196.411983 341.240709 
L 199.178926 343.455214 
L 201.830579 345.297264 
L 204.366942 346.793602 
L 206.788017 347.972954 
L 209.209091 348.903898 
L 211.514876 349.555849 
L 213.820661 349.976232 
L 216.126446 350.163389 
L 218.316942 350.124479 
L 220.622727 349.855562 
L 222.928512 349.353894 
L 225.234298 348.621457 
L 227.540083 347.66114 
L 229.961157 346.41171 
L 232.497521 344.843744 
L 235.149174 342.929132 
L 237.916116 340.641843 
L 240.798347 337.958785 
L 243.795868 334.860754 
L 247.023967 331.197072 
L 250.482645 326.926534 
L 254.28719 321.860943 
L 258.437603 315.957395 
L 263.279752 308.670475 
L 269.390083 299.050043 
L 287.605785 270.095313 
L 292.447934 262.969974 
L 296.598347 257.244246 
L 300.402893 252.371517 
L 303.86157 248.299307 
L 307.089669 244.838896 
L 310.08719 241.943916 
L 312.969421 239.467795 
L 315.736364 237.388753 
L 318.388017 235.681416 
L 320.92438 234.317756 
L 323.345455 233.267951 
L 325.65124 232.501125 
L 327.957025 231.964693 
L 330.26281 231.660773 
L 332.107438 231.585882 
L 332.107438 231.585882 
" clip-path="url(#pdc0b593cec)" style="fill: none; stroke: #1f77b4; stroke-width: 1.5; stroke-linecap: square"/>
   </g>
   <g id="line2d_32">
    <path d="M 101.528926 290.88 
L 111.67438 274.695569 
L 117.092975 266.479639 
L 121.589256 260.057913 
L 125.509091 254.833337 
L 129.083058 250.426404 
L 132.426446 246.65011 
L 135.539256 243.463437 
L 138.421488 240.816354 
L 141.18843 238.565354 
L 143.840083 236.686935 
L 146.376446 235.154712 
L 148.797521 233.940264 
L 151.218595 232.973556 
L 153.52438 232.287067 
L 155.830165 231.831818 
L 158.13595 231.609604 
L 160.441736 231.621303 
L 162.747521 231.866869 
L 165.053306 232.345332 
L 167.359091 233.054805 
L 169.664876 233.992487 
L 172.08595 235.218602 
L 174.622314 236.76275 
L 177.158678 238.565306 
L 179.810331 240.716734 
L 182.692562 243.351763 
L 185.690083 246.402787 
L 188.918182 250.019556 
L 192.37686 254.244499 
L 196.066116 259.10855 
L 200.216529 264.961518 
L 204.943388 272.026343 
L 210.82314 281.236443 
L 231.229339 313.570667 
L 235.840909 320.257558 
L 239.876033 325.731967 
L 243.565289 330.370332 
L 246.908678 334.23059 
L 250.021488 337.502005 
L 253.019008 340.335662 
L 255.78595 342.659037 
L 258.437603 344.609673 
L 260.973967 346.213242 
L 263.510331 347.552595 
L 265.931405 348.578704 
L 268.23719 349.322609 
L 270.542975 349.835866 
L 272.84876 350.116451 
L 275.154545 350.163256 
L 277.460331 349.976096 
L 279.766116 349.555709 
L 282.071901 348.903756 
L 284.377686 348.022808 
L 286.79876 346.855174 
L 289.219835 345.443996 
L 291.756198 343.711106 
L 294.407851 341.629867 
L 297.174793 339.175948 
L 300.172314 336.208326 
L 303.285124 332.806936 
L 306.628512 328.818501 
L 310.202479 324.207906 
L 314.237603 318.625157 
L 318.733884 312.012804 
L 324.152479 303.632439 
L 332.107438 290.879694 
L 332.107438 290.879694 
" clip-path="url(#pdc0b593cec)" style="fill: none; stroke: #ff7f0e; stroke-width: 1.5; stroke-linecap: square"/>
   </g>
   <g id="patch_13">
    <path d="M 90 356.103529 
L 90 225.656471 
" style="fill: none; stroke: #000000; stroke-width: 0.8; stroke-linejoin: miter; stroke-linecap: square"/>
   </g>
   <g id="patch_14">
    <path d="M 343.636364 356.103529 
L 343.636364 225.656471 
" style="fill: none; stroke: #000000; stroke-width: 0.8; stroke-linejoin: miter; stroke-linecap: square"/>
   </g>
   <g id="patch_15">
    <path d="M 90 356.103529 
L 343.636364 356.103529 
" style="fill: none; stroke: #000000; stroke-width: 0.8; stroke-linejoin: miter; stroke-linecap: square"/>
   </g>
   <g id="patch_16">
    <path d="M 90 225.656471 
L 343.636364 225.656471 
" style="fill: none; stroke: #000000; stroke-width: 0.8; stroke-linejoin: miter; stroke-linecap: square"/>
   </g>
   <g id="legend_1">
    <g id="patch_17">
     <path d="M 97 351.103529 
L 156.96875 351.103529 
Q 158.96875 351.103529 158.96875 349.103529 
L 158.96875 320.747279 
Q 158.96875 318.747279 156.96875 318.747279 
L 97 318.747279 
Q 95 318.747279 95 320.747279 
L 95 349.103529 
Q 95 351.103529 97 351.103529 
z
" style="fill: #ffffff; opacity: 0.8; stroke: #cccccc; stroke-linejoin: miter"/>
    </g>
    <g id="line2d_33">
     <path d="M 99 326.845717 
L 109 326.845717 
L 119 326.845717 
" style="fill: none; stroke: #1f77b4; stroke-width: 1.5; stroke-linecap: square"/>
    </g>
    <g id="text_14">
     <!-- North -->
     <g transform="translate(127 330.345717) scale(0.1 -0.1)">
      <defs>
       <path id="DejaVuSans-4e" d="M 628 4666 
L 1478 4666 
L 3547 763 
L 3547 4666 
L 4159 4666 
L 4159 0 
L 3309 0 
L 1241 3903 
L 1241 0 
L 628 0 
L 628 4666 
z
" transform="scale(0.015625)"/>
      </defs>
      <use xlink:href="#DejaVuSans-4e"/>
      <use xlink:href="#DejaVuSans-6f" x="74.804688"/>
      <use xlink:href="#DejaVuSans-72" x="135.986328"/>
      <use xlink:href="#DejaVuSans-74" x="177.099609"/>
      <use xlink:href="#DejaVuSans-68" x="216.308594"/>
     </g>
    </g>
    <g id="line2d_34">
     <path d="M 99 341.523842 
L 109 341.523842 
L 119 341.523842 
" style="fill: none; stroke: #ff7f0e; stroke-width: 1.5; stroke-linecap: square"/>
    </g>
    <g id="text_15">
     <!-- East -->
     <g transform="translate(127 345.023842) scale(0.1 -0.1)">
      <use xlink:href="#DejaVuSans-45"/>
      <use xlink:href="#DejaVuSans-61" x="63.183594"/>
      <use xlink:href="#DejaVuSans-73" x="124.462891"/>
      <use xlink:href="#DejaVuSans-74" x="176.5625"/>
     </g>
    </g>
   </g>
  </g>
  <g id="axes_4">
   <g id="patch_18">
    <path d="M 394.363636 356.103529 
L 648 356.103529 
L 648 225.656471 
L 394.363636 225.656471 
z
" style="fill: #ffffff"/>
   </g>
   <g id="matplotlib.axis_7">
    <g id="xtick_16">
     <g id="line2d_35">
      <g>
       <use xlink:href="#ma812014725" x="405.892562" y="356.103529" style="stroke: #000000; stroke-width: 0.8"/>
      </g>
     </g>
    </g>
    <g id="xtick_17">
     <g id="line2d_36">
      <g>
       <use xlink:href="#ma812014725" x="463.53719" y="356.103529" style="stroke: #000000; stroke-width: 0.8"/>
      </g>
     </g>
    </g>
    <g id="xtick_18">
     <g id="line2d_37">
      <g>
       <use xlink:href="#ma812014725" x="521.181818" y="356.103529" style="stroke: #000000; stroke-width: 0.8"/>
      </g>
     </g>
    </g>
    <g id="xtick_19">
     <g id="line2d_38">
      <g>
       <use xlink:href="#ma812014725" x="578.826446" y="356.103529" style="stroke: #000000; stroke-width: 0.8"/>
      </g>
     </g>
    </g>
    <g id="xtick_20">
     <g id="line2d_39">
      <g>
       <use xlink:href="#ma812014725" x="636.471074" y="356.103529" style="stroke: #000000; stroke-width: 0.8"/>
      </g>
     </g>
    </g>
   </g>
   <g id="matplotlib.axis_8">
    <g id="ytick_14">
     <g id="line2d_40">
      <g>
       <use xlink:href="#m09a027c0dd" x="394.363636" y="338.315294" style="stroke: #000000; stroke-width: 0.8"/>
      </g>
     </g>
    </g>
    <g id="ytick_15">
     <g id="line2d_41">
      <g>
       <use xlink:href="#m09a027c0dd" x="394.363636" y="314.597647" style="stroke: #000000; stroke-width: 0.8"/>
      </g>
     </g>
    </g>
    <g id="ytick_16">
     <g id="line2d_42">
      <g>
       <use xlink:href="#m09a027c0dd" x="394.363636" y="290.88" style="stroke: #000000; stroke-width: 0.8"/>
      </g>
     </g>
    </g>
    <g id="ytick_17">
     <g id="line2d_43">
      <g>
       <use xlink:href="#m09a027c0dd" x="394.363636" y="267.162353" style="stroke: #000000; stroke-width: 0.8"/>
      </g>
     </g>
    </g>
    <g id="ytick_18">
     <g id="line2d_44">
      <g>
       <use xlink:href="#m09a027c0dd" x="394.363636" y="243.444706" style="stroke: #000000; stroke-width: 0.8"/>
      </g>
     </g>
    </g>
   </g>
   <g id="line2d_45">
    <path d="M 405.892562 231.585882 
L 408.083058 231.691481 
L 410.388843 232.030378 
L 412.694628 232.601527 
L 415.000413 233.402674 
L 417.421488 234.487943 
L 419.842562 235.818569 
L 422.378926 237.469397 
L 425.030579 239.467808 
L 427.797521 241.838987 
L 430.679752 244.605068 
L 433.792562 247.912332 
L 437.020661 251.668096 
L 440.594628 256.178666 
L 444.514463 261.502215 
L 448.895455 267.845377 
L 454.083471 275.773595 
L 461.116116 286.971 
L 474.259091 307.958433 
L 479.562397 315.957534 
L 483.943388 322.178134 
L 487.863223 327.368792 
L 491.43719 331.740395 
L 494.780579 335.480142 
L 497.893388 338.630021 
L 500.77562 341.24089 
L 503.542562 343.455398 
L 506.194215 345.297451 
L 508.730579 346.793792 
L 511.151653 347.973145 
L 513.572727 348.904091 
L 515.878512 349.556043 
L 518.184298 349.976427 
L 520.490083 350.163584 
L 522.680579 350.124674 
L 524.986364 349.855756 
L 527.292149 349.354088 
L 529.597934 348.621649 
L 531.903719 347.661331 
L 534.324793 346.411899 
L 536.861157 344.84393 
L 539.51281 342.929315 
L 542.279752 340.642022 
L 545.161983 337.95896 
L 548.159504 334.860924 
L 551.387603 331.197236 
L 554.846281 326.926691 
L 558.650826 321.861091 
L 562.80124 315.957534 
L 567.643388 308.670601 
L 573.753719 299.050154 
L 591.969421 270.095377 
L 596.81157 262.970026 
L 600.961983 257.244288 
L 604.766529 252.371551 
L 608.225207 248.299335 
L 611.453306 244.838917 
L 614.450826 241.943933 
L 617.333058 239.467808 
L 620.1 237.388763 
L 622.751653 235.681422 
L 625.288017 234.317761 
L 627.709091 233.267954 
L 630.014876 232.501127 
L 632.320661 231.964694 
L 634.626446 231.660773 
L 636.471074 231.585882 
L 636.471074 231.585882 
" clip-path="url(#p1de9f56aa3)" style="fill: none; stroke: #1f77b4; stroke-width: 1.5; stroke-linecap: square"/>
   </g>
   <g id="line2d_46">
    <path d="M 405.892562 290.88 
L 416.038017 274.695556 
L 421.456612 266.479619 
L 425.952893 260.057889 
L 429.872727 254.833309 
L 433.446694 250.426374 
L 436.790083 246.650078 
L 439.902893 243.463404 
L 442.785124 240.816321 
L 445.552066 238.56532 
L 448.203719 236.686903 
L 450.740083 235.15468 
L 453.161157 233.940233 
L 455.582231 232.973527 
L 457.888017 232.28704 
L 460.193802 231.831793 
L 462.499587 231.609582 
L 464.805372 231.621284 
L 467.111157 231.866853 
L 469.416942 232.345321 
L 471.722727 233.054797 
L 474.028512 233.992484 
L 476.449587 235.218604 
L 478.98595 236.762758 
L 481.522314 238.56532 
L 484.173967 240.716755 
L 487.056198 243.351793 
L 490.053719 246.402826 
L 493.281818 250.019605 
L 496.740496 254.244559 
L 500.429752 259.108623 
L 504.580165 264.961606 
L 509.307025 272.026449 
L 515.186777 281.236573 
L 535.592975 313.570876 
L 540.204545 320.257785 
L 544.239669 325.732208 
L 547.928926 330.370586 
L 551.272314 334.230854 
L 554.385124 337.502279 
L 557.382645 340.335945 
L 560.149587 342.659327 
L 562.80124 344.60997 
L 565.337603 346.213545 
L 567.873967 347.552903 
L 570.295041 348.579018 
L 572.600826 349.322927 
L 574.906612 349.836188 
L 577.212397 350.116776 
L 579.518182 350.163584 
L 581.823967 349.976427 
L 584.129752 349.556043 
L 586.435537 348.904091 
L 588.741322 348.023145 
L 591.162397 346.855513 
L 593.583471 345.444335 
L 596.119835 343.711446 
L 598.771488 341.630207 
L 601.53843 339.176288 
L 604.53595 336.208665 
L 607.64876 332.807273 
L 610.992149 328.818836 
L 614.566116 324.208238 
L 618.60124 318.625485 
L 623.097521 312.013128 
L 628.516116 303.632756 
L 636.471074 290.88 
L 636.471074 290.88 
" clip-path="url(#p1de9f56aa3)" style="fill: none; stroke: #ff7f0e; stroke-width: 1.5; stroke-linecap: square"/>
   </g>
   <g id="patch_19">
    <path d="M 394.363636 356.103529 
L 394.363636 225.656471 
" style="fill: none; stroke: #000000; stroke-width: 0.8; stroke-linejoin: miter; stroke-linecap: square"/>
   </g>
   <g id="patch_20">
    <path d="M 648 356.103529 
L 648 225.656471 
" style="fill: none; stroke: #000000; stroke-width: 0.8; stroke-linejoin: miter; stroke-linecap: square"/>
   </g>
   <g id="patch_21">
    <path d="M 394.363636 356.103529 
L 648 356.103529 
" style="fill: none; stroke: #000000; stroke-width: 0.8; stroke-linejoin: miter; stroke-linecap: square"/>
   </g>
   <g id="patch_22">
    <path d="M 394.363636 225.656471 
L 648 225.656471 
" style="fill: none; stroke: #000000; stroke-width: 0.8; stroke-linejoin: miter; stroke-linecap: square"/>
   </g>
   <g id="legend_2">
    <g id="patch_23">
     <path d="M 401.363636 351.103529 
L 461.332386 351.103529 
Q 463.332386 351.103529 463.332386 349.103529 
L 463.332386 320.747279 
Q 463.332386 318.747279 461.332386 318.747279 
L 401.363636 318.747279 
Q 399.363636 318.747279 399.363636 320.747279 
L 399.363636 349.103529 
Q 399.363636 351.103529 401.363636 351.103529 
z
" style="fill: #ffffff; opacity: 0.8; stroke: #cccccc; stroke-linejoin: miter"/>
    </g>
    <g id="line2d_47">
     <path d="M 403.363636 326.845717 
L 413.363636 326.845717 
L 423.363636 326.845717 
" style="fill: none; stroke: #1f77b4; stroke-width: 1.5; stroke-linecap: square"/>
    </g>
    <g id="text_16">
     <!-- North -->
     <g transform="translate(431.363636 330.345717) scale(0.1 -0.1)">
      <use xlink:href="#DejaVuSans-4e"/>
      <use xlink:href="#DejaVuSans-6f" x="74.804688"/>
      <use xlink:href="#DejaVuSans-72" x="135.986328"/>
      <use xlink:href="#DejaVuSans-74" x="177.099609"/>
      <use xlink:href="#DejaVuSans-68" x="216.308594"/>
     </g>
    </g>
    <g id="line2d_48">
     <path d="M 403.363636 341.523842 
L 413.363636 341.523842 
L 423.363636 341.523842 
" style="fill: none; stroke: #ff7f0e; stroke-width: 1.5; stroke-linecap: square"/>
    </g>
    <g id="text_17">
     <!-- East -->
     <g transform="translate(431.363636 345.023842) scale(0.1 -0.1)">
      <use xlink:href="#DejaVuSans-45"/>
      <use xlink:href="#DejaVuSans-61" x="63.183594"/>
      <use xlink:href="#DejaVuSans-73" x="124.462891"/>
      <use xlink:href="#DejaVuSans-74" x="176.5625"/>
     </g>
    </g>
   </g>
  </g>
  <g id="axes_5">
   <g id="patch_24">
    <path d="M 90 512.64 
L 343.636364 512.64 
L 343.636364 382.192941 
L 90 382.192941 
z
" style="fill: #ffffff"/>
   </g>
   <g id="matplotlib.axis_9">
    <g id="xtick_21">
     <g id="line2d_49">
      <g>
       <use xlink:href="#ma812014725" x="101.528926" y="512.64" style="stroke: #000000; stroke-width: 0.8"/>
      </g>
     </g>
     <g id="text_18">
      <!-- 0 -->
      <g transform="translate(98.347676 527.238438) scale(0.1 -0.1)">
       <use xlink:href="#DejaVuSans-30"/>
      </g>
     </g>
    </g>
    <g id="xtick_22">
     <g id="line2d_50">
      <g>
       <use xlink:href="#ma812014725" x="159.173554" y="512.64" style="stroke: #000000; stroke-width: 0.8"/>
      </g>
     </g>
     <g id="text_19">
      <!-- 50 -->
      <g transform="translate(152.811054 527.238438) scale(0.1 -0.1)">
       <defs>
        <path id="DejaVuSans-35" d="M 691 4666 
L 3169 4666 
L 3169 4134 
L 1269 4134 
L 1269 2991 
Q 1406 3038 1543 3061 
Q 1681 3084 1819 3084 
Q 2600 3084 3056 2656 
Q 3513 2228 3513 1497 
Q 3513 744 3044 326 
Q 2575 -91 1722 -91 
Q 1428 -91 1123 -41 
Q 819 9 494 109 
L 494 744 
Q 775 591 1075 516 
Q 1375 441 1709 441 
Q 2250 441 2565 725 
Q 2881 1009 2881 1497 
Q 2881 1984 2565 2268 
Q 2250 2553 1709 2553 
Q 1456 2553 1204 2497 
Q 953 2441 691 2322 
L 691 4666 
z
" transform="scale(0.015625)"/>
       </defs>
       <use xlink:href="#DejaVuSans-35"/>
       <use xlink:href="#DejaVuSans-30" x="63.623047"/>
      </g>
     </g>
    </g>
    <g id="xtick_23">
     <g id="line2d_51">
      <g>
       <use xlink:href="#ma812014725" x="216.818182" y="512.64" style="stroke: #000000; stroke-width: 0.8"/>
      </g>
     </g>
     <g id="text_20">
      <!-- 100 -->
      <g transform="translate(207.274432 527.238438) scale(0.1 -0.1)">
       <defs>
        <path id="DejaVuSans-31" d="M 794 531 
L 1825 531 
L 1825 4091 
L 703 3866 
L 703 4441 
L 1819 4666 
L 2450 4666 
L 2450 531 
L 3481 531 
L 3481 0 
L 794 0 
L 794 531 
z
" transform="scale(0.015625)"/>
       </defs>
       <use xlink:href="#DejaVuSans-31"/>
       <use xlink:href="#DejaVuSans-30" x="63.623047"/>
       <use xlink:href="#DejaVuSans-30" x="127.246094"/>
      </g>
     </g>
    </g>
    <g id="xtick_24">
     <g id="line2d_52">
      <g>
       <use xlink:href="#ma812014725" x="274.46281" y="512.64" style="stroke: #000000; stroke-width: 0.8"/>
      </g>
     </g>
     <g id="text_21">
      <!-- 150 -->
      <g transform="translate(264.91906 527.238438) scale(0.1 -0.1)">
       <use xlink:href="#DejaVuSans-31"/>
       <use xlink:href="#DejaVuSans-35" x="63.623047"/>
       <use xlink:href="#DejaVuSans-30" x="127.246094"/>
      </g>
     </g>
    </g>
    <g id="xtick_25">
     <g id="line2d_53">
      <g>
       <use xlink:href="#ma812014725" x="332.107438" y="512.64" style="stroke: #000000; stroke-width: 0.8"/>
      </g>
     </g>
     <g id="text_22">
      <!-- 200 -->
      <g transform="translate(322.563688 527.238438) scale(0.1 -0.1)">
       <use xlink:href="#DejaVuSans-32"/>
       <use xlink:href="#DejaVuSans-30" x="63.623047"/>
       <use xlink:href="#DejaVuSans-30" x="127.246094"/>
      </g>
     </g>
    </g>
    <g id="text_23">
     <!-- Time s -->
     <g transform="translate(197.105369 542.43625) scale(0.12 -0.12)">
      <use xlink:href="#DejaVuSans-54"/>
      <use xlink:href="#DejaVuSans-69" x="57.958984"/>
      <use xlink:href="#DejaVuSans-6d" x="85.742188"/>
      <use xlink:href="#DejaVuSans-65" x="183.154297"/>
      <use xlink:href="#DejaVuSans-20" x="244.677734"/>
      <use xlink:href="#DejaVuSans-73" x="276.464844"/>
     </g>
    </g>
   </g>
   <g id="matplotlib.axis_10">
    <g id="ytick_19">
     <g id="line2d_54">
      <g>
       <use xlink:href="#m09a027c0dd" x="90" y="485.164278" style="stroke: #000000; stroke-width: 0.8"/>
      </g>
     </g>
     <g id="text_24">
      <!-- −10 -->
      <g transform="translate(61.895313 488.963497) scale(0.1 -0.1)">
       <use xlink:href="#DejaVuSans-2212"/>
       <use xlink:href="#DejaVuSans-31" x="83.789062"/>
       <use xlink:href="#DejaVuSans-30" x="147.412109"/>
      </g>
     </g>
    </g>
    <g id="ytick_20">
     <g id="line2d_55">
      <g>
       <use xlink:href="#m09a027c0dd" x="90" y="447.416471" style="stroke: #000000; stroke-width: 0.8"/>
      </g>
     </g>
     <g id="text_25">
      <!-- 0 -->
      <g transform="translate(76.6375 451.215689) scale(0.1 -0.1)">
       <use xlink:href="#DejaVuSans-30"/>
      </g>
     </g>
    </g>
    <g id="ytick_21">
     <g id="line2d_56">
      <g>
       <use xlink:href="#m09a027c0dd" x="90" y="409.668663" style="stroke: #000000; stroke-width: 0.8"/>
      </g>
     </g>
     <g id="text_26">
      <!-- 10 -->
      <g transform="translate(70.275 413.467882) scale(0.1 -0.1)">
       <use xlink:href="#DejaVuSans-31"/>
       <use xlink:href="#DejaVuSans-30" x="63.623047"/>
      </g>
     </g>
    </g>
    <g id="text_27">
     <!-- Velocity [m/s] -->
     <g transform="translate(49.037187 488.535221) rotate(-90) scale(0.12 -0.12)">
      <defs>
       <path id="DejaVuSans-56" d="M 1831 0 
L 50 4666 
L 709 4666 
L 2188 738 
L 3669 4666 
L 4325 4666 
L 2547 0 
L 1831 0 
z
" transform="scale(0.015625)"/>
       <path id="DejaVuSans-6c" d="M 603 4863 
L 1178 4863 
L 1178 0 
L 603 0 
L 603 4863 
z
" transform="scale(0.015625)"/>
       <path id="DejaVuSans-63" d="M 3122 3366 
L 3122 2828 
Q 2878 2963 2633 3030 
Q 2388 3097 2138 3097 
Q 1578 3097 1268 2742 
Q 959 2388 959 1747 
Q 959 1106 1268 751 
Q 1578 397 2138 397 
Q 2388 397 2633 464 
Q 2878 531 3122 666 
L 3122 134 
Q 2881 22 2623 -34 
Q 2366 -91 2075 -91 
Q 1284 -91 818 406 
Q 353 903 353 1747 
Q 353 2603 823 3093 
Q 1294 3584 2113 3584 
Q 2378 3584 2631 3529 
Q 2884 3475 3122 3366 
z
" transform="scale(0.015625)"/>
       <path id="DejaVuSans-79" d="M 2059 -325 
Q 1816 -950 1584 -1140 
Q 1353 -1331 966 -1331 
L 506 -1331 
L 506 -850 
L 844 -850 
Q 1081 -850 1212 -737 
Q 1344 -625 1503 -206 
L 1606 56 
L 191 3500 
L 800 3500 
L 1894 763 
L 2988 3500 
L 3597 3500 
L 2059 -325 
z
" transform="scale(0.015625)"/>
       <path id="DejaVuSans-2f" d="M 1625 4666 
L 2156 4666 
L 531 -594 
L 0 -594 
L 1625 4666 
z
" transform="scale(0.015625)"/>
      </defs>
      <use xlink:href="#DejaVuSans-56"/>
      <use xlink:href="#DejaVuSans-65" x="60.658203"/>
      <use xlink:href="#DejaVuSans-6c" x="122.181641"/>
      <use xlink:href="#DejaVuSans-6f" x="149.964844"/>
      <use xlink:href="#DejaVuSans-63" x="211.146484"/>
      <use xlink:href="#DejaVuSans-69" x="266.126953"/>
      <use xlink:href="#DejaVuSans-74" x="293.910156"/>
      <use xlink:href="#DejaVuSans-79" x="333.119141"/>
      <use xlink:href="#DejaVuSans-20" x="392.298828"/>
      <use xlink:href="#DejaVuSans-5b" x="424.085938"/>
      <use xlink:href="#DejaVuSans-6d" x="463.099609"/>
      <use xlink:href="#DejaVuSans-2f" x="560.511719"/>
      <use xlink:href="#DejaVuSans-73" x="594.203125"/>
      <use xlink:href="#DejaVuSans-5d" x="646.302734"/>
     </g>
    </g>
   </g>
   <g id="line2d_57">
    <path d="M 101.528926 447.416471 
L 111.67438 463.600901 
L 117.092975 471.816831 
L 121.589256 478.238556 
L 125.509091 483.463132 
L 129.083058 487.870063 
L 132.426446 491.646356 
L 135.539256 494.833028 
L 138.421488 497.480109 
L 141.18843 499.731107 
L 143.840083 501.609524 
L 146.376446 503.141745 
L 148.797521 504.356191 
L 151.218595 505.322896 
L 153.52438 506.009382 
L 155.830165 506.464629 
L 158.13595 506.68684 
L 160.441736 506.675138 
L 162.747521 506.429569 
L 165.053306 505.951102 
L 167.359091 505.241626 
L 169.664876 504.30394 
L 172.08595 503.077821 
L 174.622314 501.533668 
L 177.158678 499.731107 
L 179.810331 497.579674 
L 182.692562 494.944639 
L 185.690083 491.893608 
L 188.918182 488.276832 
L 192.37686 484.051881 
L 196.066116 479.187821 
L 200.216529 473.334843 
L 204.943388 466.270006 
L 210.82314 457.05989 
L 231.229339 424.725613 
L 235.840909 418.03871 
L 239.876033 412.564291 
L 243.565289 407.925917 
L 246.908678 404.065652 
L 250.021488 400.79423 
L 253.019008 397.960566 
L 255.78595 395.637186 
L 258.437603 393.686545 
L 260.973967 392.082971 
L 263.510331 390.743614 
L 265.931405 389.7175 
L 268.23719 388.973592 
L 270.542975 388.460331 
L 272.84876 388.179743 
L 275.154545 388.132935 
L 277.460331 388.320092 
L 279.766116 388.740476 
L 282.071901 389.392427 
L 284.377686 390.273372 
L 286.79876 391.441004 
L 289.219835 392.85218 
L 291.756198 394.585068 
L 294.407851 396.666305 
L 297.174793 399.120222 
L 300.172314 402.087843 
L 303.285124 405.489232 
L 306.628512 409.477666 
L 310.202479 414.08826 
L 314.237603 419.671008 
L 318.733884 426.28336 
L 324.152479 434.663725 
L 332.107438 447.416471 
L 332.107438 447.416471 
" clip-path="url(#pee31bf0620)" style="fill: none; stroke: #1f77b4; stroke-width: 1.5; stroke-linecap: square"/>
   </g>
   <g id="line2d_58">
    <path d="M 101.528926 388.122353 
L 103.719421 388.227952 
L 106.025207 388.566848 
L 108.330992 389.137996 
L 110.636777 389.939143 
L 113.057851 391.024411 
L 115.478926 392.355036 
L 118.015289 394.005863 
L 120.666942 396.004272 
L 123.433884 398.375449 
L 126.316116 401.141527 
L 129.428926 404.448789 
L 132.657025 408.204551 
L 136.230992 412.715116 
L 140.150826 418.038661 
L 144.531818 424.381818 
L 149.719835 432.310029 
L 156.752479 443.507425 
L 169.895455 464.494841 
L 175.19876 472.493935 
L 179.579752 478.71453 
L 183.499587 483.905184 
L 187.073554 488.276783 
L 190.416942 492.016527 
L 193.529752 495.166403 
L 196.411983 497.77727 
L 199.178926 499.991776 
L 201.830579 501.833828 
L 204.366942 503.330168 
L 206.788017 504.50952 
L 209.209091 505.440465 
L 211.514876 506.092416 
L 213.820661 506.5128 
L 216.126446 506.699957 
L 218.316942 506.661047 
L 220.622727 506.39213 
L 222.928512 505.890462 
L 225.234298 505.158024 
L 227.540083 504.197706 
L 229.961157 502.948275 
L 232.497521 501.380308 
L 235.149174 499.465694 
L 237.916116 497.178403 
L 240.798347 494.495343 
L 243.795868 491.39731 
L 247.023967 487.733624 
L 250.482645 483.463083 
L 254.28719 478.397488 
L 258.437603 472.493935 
L 263.279752 465.207009 
L 269.390083 455.586569 
L 287.605785 426.631816 
L 292.447934 419.50647 
L 296.598347 413.780738 
L 300.402893 408.908005 
L 303.86157 404.835792 
L 307.089669 401.375377 
L 310.08719 398.480395 
L 312.969421 396.004272 
L 315.736364 393.925229 
L 318.388017 392.21789 
L 320.92438 390.854229 
L 323.345455 389.804423 
L 325.65124 389.037596 
L 327.957025 388.501164 
L 330.26281 388.197244 
L 332.107438 388.122353 
L 332.107438 388.122353 
" clip-path="url(#pee31bf0620)" style="fill: none; stroke: #ff7f0e; stroke-width: 1.5; stroke-linecap: square"/>
   </g>
   <g id="patch_25">
    <path d="M 90 512.64 
L 90 382.192941 
" style="fill: none; stroke: #000000; stroke-width: 0.8; stroke-linejoin: miter; stroke-linecap: square"/>
   </g>
   <g id="patch_26">
    <path d="M 343.636364 512.64 
L 343.636364 382.192941 
" style="fill: none; stroke: #000000; stroke-width: 0.8; stroke-linejoin: miter; stroke-linecap: square"/>
   </g>
   <g id="patch_27">
    <path d="M 90 512.64 
L 343.636364 512.64 
" style="fill: none; stroke: #000000; stroke-width: 0.8; stroke-linejoin: miter; stroke-linecap: square"/>
   </g>
   <g id="patch_28">
    <path d="M 90 382.192941 
L 343.636364 382.192941 
" style="fill: none; stroke: #000000; stroke-width: 0.8; stroke-linejoin: miter; stroke-linecap: square"/>
   </g>
   <g id="legend_3">
    <g id="patch_29">
     <path d="M 276.667614 507.64 
L 336.636364 507.64 
Q 338.636364 507.64 338.636364 505.64 
L 338.636364 477.28375 
Q 338.636364 475.28375 336.636364 475.28375 
L 276.667614 475.28375 
Q 274.667614 475.28375 274.667614 477.28375 
L 274.667614 505.64 
Q 274.667614 507.64 276.667614 507.64 
z
" style="fill: #ffffff; opacity: 0.8; stroke: #cccccc; stroke-linejoin: miter"/>
    </g>
    <g id="line2d_59">
     <path d="M 278.667614 483.382187 
L 288.667614 483.382187 
L 298.667614 483.382187 
" style="fill: none; stroke: #1f77b4; stroke-width: 1.5; stroke-linecap: square"/>
    </g>
    <g id="text_28">
     <!-- North -->
     <g transform="translate(306.667614 486.882187) scale(0.1 -0.1)">
      <use xlink:href="#DejaVuSans-4e"/>
      <use xlink:href="#DejaVuSans-6f" x="74.804688"/>
      <use xlink:href="#DejaVuSans-72" x="135.986328"/>
      <use xlink:href="#DejaVuSans-74" x="177.099609"/>
      <use xlink:href="#DejaVuSans-68" x="216.308594"/>
     </g>
    </g>
    <g id="line2d_60">
     <path d="M 278.667614 498.060313 
L 288.667614 498.060313 
L 298.667614 498.060313 
" style="fill: none; stroke: #ff7f0e; stroke-width: 1.5; stroke-linecap: square"/>
    </g>
    <g id="text_29">
     <!-- East -->
     <g transform="translate(306.667614 501.560313) scale(0.1 -0.1)">
      <use xlink:href="#DejaVuSans-45"/>
      <use xlink:href="#DejaVuSans-61" x="63.183594"/>
      <use xlink:href="#DejaVuSans-73" x="124.462891"/>
      <use xlink:href="#DejaVuSans-74" x="176.5625"/>
     </g>
    </g>
   </g>
  </g>
  <g id="axes_6">
   <g id="patch_30">
    <path d="M 394.363636 512.64 
L 648 512.64 
L 648 382.192941 
L 394.363636 382.192941 
z
" style="fill: #ffffff"/>
   </g>
   <g id="matplotlib.axis_11">
    <g id="xtick_26">
     <g id="line2d_61">
      <g>
       <use xlink:href="#ma812014725" x="405.892562" y="512.64" style="stroke: #000000; stroke-width: 0.8"/>
      </g>
     </g>
     <g id="text_30">
      <!-- 0 -->
      <g transform="translate(402.711312 527.238438) scale(0.1 -0.1)">
       <use xlink:href="#DejaVuSans-30"/>
      </g>
     </g>
    </g>
    <g id="xtick_27">
     <g id="line2d_62">
      <g>
       <use xlink:href="#ma812014725" x="463.53719" y="512.64" style="stroke: #000000; stroke-width: 0.8"/>
      </g>
     </g>
     <g id="text_31">
      <!-- 50 -->
      <g transform="translate(457.17469 527.238438) scale(0.1 -0.1)">
       <use xlink:href="#DejaVuSans-35"/>
       <use xlink:href="#DejaVuSans-30" x="63.623047"/>
      </g>
     </g>
    </g>
    <g id="xtick_28">
     <g id="line2d_63">
      <g>
       <use xlink:href="#ma812014725" x="521.181818" y="512.64" style="stroke: #000000; stroke-width: 0.8"/>
      </g>
     </g>
     <g id="text_32">
      <!-- 100 -->
      <g transform="translate(511.638068 527.238438) scale(0.1 -0.1)">
       <use xlink:href="#DejaVuSans-31"/>
       <use xlink:href="#DejaVuSans-30" x="63.623047"/>
       <use xlink:href="#DejaVuSans-30" x="127.246094"/>
      </g>
     </g>
    </g>
    <g id="xtick_29">
     <g id="line2d_64">
      <g>
       <use xlink:href="#ma812014725" x="578.826446" y="512.64" style="stroke: #000000; stroke-width: 0.8"/>
      </g>
     </g>
     <g id="text_33">
      <!-- 150 -->
      <g transform="translate(569.282696 527.238438) scale(0.1 -0.1)">
       <use xlink:href="#DejaVuSans-31"/>
       <use xlink:href="#DejaVuSans-35" x="63.623047"/>
       <use xlink:href="#DejaVuSans-30" x="127.246094"/>
      </g>
     </g>
    </g>
    <g id="xtick_30">
     <g id="line2d_65">
      <g>
       <use xlink:href="#ma812014725" x="636.471074" y="512.64" style="stroke: #000000; stroke-width: 0.8"/>
      </g>
     </g>
     <g id="text_34">
      <!-- 200 -->
      <g transform="translate(626.927324 527.238438) scale(0.1 -0.1)">
       <use xlink:href="#DejaVuSans-32"/>
       <use xlink:href="#DejaVuSans-30" x="63.623047"/>
       <use xlink:href="#DejaVuSans-30" x="127.246094"/>
      </g>
     </g>
    </g>
    <g id="text_35">
     <!-- Time s -->
     <g transform="translate(501.469006 542.43625) scale(0.12 -0.12)">
      <use xlink:href="#DejaVuSans-54"/>
      <use xlink:href="#DejaVuSans-69" x="57.958984"/>
      <use xlink:href="#DejaVuSans-6d" x="85.742188"/>
      <use xlink:href="#DejaVuSans-65" x="183.154297"/>
      <use xlink:href="#DejaVuSans-20" x="244.677734"/>
      <use xlink:href="#DejaVuSans-73" x="276.464844"/>
     </g>
    </g>
   </g>
   <g id="matplotlib.axis_12">
    <g id="ytick_22">
     <g id="line2d_66">
      <g>
       <use xlink:href="#m09a027c0dd" x="394.363636" y="485.164278" style="stroke: #000000; stroke-width: 0.8"/>
      </g>
     </g>
    </g>
    <g id="ytick_23">
     <g id="line2d_67">
      <g>
       <use xlink:href="#m09a027c0dd" x="394.363636" y="447.416471" style="stroke: #000000; stroke-width: 0.8"/>
      </g>
     </g>
    </g>
    <g id="ytick_24">
     <g id="line2d_68">
      <g>
       <use xlink:href="#m09a027c0dd" x="394.363636" y="409.668663" style="stroke: #000000; stroke-width: 0.8"/>
      </g>
     </g>
    </g>
   </g>
   <g id="line2d_69">
    <path d="M 405.892562 447.416471 
L 416.038017 463.600915 
L 421.456612 471.816851 
L 425.952893 478.238581 
L 429.872727 483.463161 
L 433.446694 487.870096 
L 436.790083 491.646393 
L 439.902893 494.833067 
L 442.785124 497.48015 
L 445.552066 499.73115 
L 448.203719 501.609568 
L 450.740083 503.141791 
L 453.161157 504.356237 
L 455.582231 505.322944 
L 457.888017 506.00943 
L 460.193802 506.464678 
L 462.499587 506.686889 
L 464.805372 506.675187 
L 467.111157 506.429617 
L 469.416942 505.95115 
L 471.722727 505.241673 
L 474.028512 504.303987 
L 476.449587 503.077866 
L 478.98595 501.533713 
L 481.522314 499.73115 
L 484.173967 497.579715 
L 487.056198 494.944678 
L 490.053719 491.893645 
L 493.281818 488.276866 
L 496.740496 484.051911 
L 500.429752 479.187848 
L 504.580165 473.334864 
L 509.307025 466.270022 
L 515.186777 457.059898 
L 535.592975 424.725594 
L 540.204545 418.038686 
L 544.239669 412.564263 
L 547.928926 407.925885 
L 551.272314 404.065617 
L 554.385124 400.794192 
L 557.382645 397.960526 
L 560.149587 395.637144 
L 562.80124 393.6865 
L 565.337603 392.082925 
L 567.873967 390.743567 
L 570.295041 389.717453 
L 572.600826 388.973544 
L 574.906612 388.460283 
L 577.212397 388.179694 
L 579.518182 388.132886 
L 581.823967 388.320044 
L 584.129752 388.740428 
L 586.435537 389.392379 
L 588.741322 390.273325 
L 591.162397 391.440958 
L 593.583471 392.852135 
L 596.119835 394.585025 
L 598.771488 396.666264 
L 601.53843 399.120183 
L 604.53595 402.087806 
L 607.64876 405.489198 
L 610.992149 409.477635 
L 614.566116 414.088233 
L 618.60124 419.670985 
L 623.097521 426.283343 
L 628.516116 434.663715 
L 636.471074 447.416471 
L 636.471074 447.416471 
" clip-path="url(#p1760e03f36)" style="fill: none; stroke: #1f77b4; stroke-width: 1.5; stroke-linecap: square"/>
   </g>
   <g id="line2d_70">
    <path d="M 405.892562 388.122353 
L 408.083058 388.227952 
L 410.388843 388.566848 
L 412.694628 389.137997 
L 415.000413 389.939145 
L 417.421488 391.024414 
L 419.842562 392.35504 
L 422.378926 394.005868 
L 425.030579 396.004278 
L 427.797521 398.375458 
L 430.679752 401.141538 
L 433.792562 404.448803 
L 437.020661 408.204567 
L 440.594628 412.715136 
L 444.514463 418.038686 
L 448.895455 424.381847 
L 454.083471 432.310065 
L 461.116116 443.50747 
L 474.259091 464.494904 
L 479.562397 472.494004 
L 483.943388 478.714604 
L 487.863223 483.905262 
L 491.43719 488.276866 
L 494.780579 492.016613 
L 497.893388 495.166491 
L 500.77562 497.77736 
L 503.542562 499.991868 
L 506.194215 501.833921 
L 508.730579 503.330262 
L 511.151653 504.509616 
L 513.572727 505.440562 
L 515.878512 506.092513 
L 518.184298 506.512897 
L 520.490083 506.700055 
L 522.680579 506.661145 
L 524.986364 506.392227 
L 527.292149 505.890559 
L 529.597934 505.15812 
L 531.903719 504.197801 
L 534.324793 502.94837 
L 536.861157 501.380401 
L 539.51281 499.465786 
L 542.279752 497.178493 
L 545.161983 494.495431 
L 548.159504 491.397395 
L 551.387603 487.733706 
L 554.846281 483.463161 
L 558.650826 478.397562 
L 562.80124 472.494004 
L 567.643388 465.207072 
L 573.753719 455.586624 
L 591.969421 426.631847 
L 596.81157 419.506496 
L 600.961983 413.780759 
L 604.766529 408.908022 
L 608.225207 404.835805 
L 611.453306 401.375388 
L 614.450826 398.480403 
L 617.333058 396.004278 
L 620.1 393.925233 
L 622.751653 392.217893 
L 625.288017 390.854232 
L 627.709091 389.804424 
L 630.014876 389.037597 
L 632.320661 388.501165 
L 634.626446 388.197244 
L 636.471074 388.122353 
L 636.471074 388.122353 
" clip-path="url(#p1760e03f36)" style="fill: none; stroke: #ff7f0e; stroke-width: 1.5; stroke-linecap: square"/>
   </g>
   <g id="patch_31">
    <path d="M 394.363636 512.64 
L 394.363636 382.192941 
" style="fill: none; stroke: #000000; stroke-width: 0.8; stroke-linejoin: miter; stroke-linecap: square"/>
   </g>
   <g id="patch_32">
    <path d="M 648 512.64 
L 648 382.192941 
" style="fill: none; stroke: #000000; stroke-width: 0.8; stroke-linejoin: miter; stroke-linecap: square"/>
   </g>
   <g id="patch_33">
    <path d="M 394.363636 512.64 
L 648 512.64 
" style="fill: none; stroke: #000000; stroke-width: 0.8; stroke-linejoin: miter; stroke-linecap: square"/>
   </g>
   <g id="patch_34">
    <path d="M 394.363636 382.192941 
L 648 382.192941 
" style="fill: none; stroke: #000000; stroke-width: 0.8; stroke-linejoin: miter; stroke-linecap: square"/>
   </g>
   <g id="legend_4">
    <g id="patch_35">
     <path d="M 581.03125 507.64 
L 641 507.64 
Q 643 507.64 643 505.64 
L 643 477.28375 
Q 643 475.28375 641 475.28375 
L 581.03125 475.28375 
Q 579.03125 475.28375 579.03125 477.28375 
L 579.03125 505.64 
Q 579.03125 507.64 581.03125 507.64 
z
" style="fill: #ffffff; opacity: 0.8; stroke: #cccccc; stroke-linejoin: miter"/>
    </g>
    <g id="line2d_71">
     <path d="M 583.03125 483.382187 
L 593.03125 483.382187 
L 603.03125 483.382187 
" style="fill: none; stroke: #1f77b4; stroke-width: 1.5; stroke-linecap: square"/>
    </g>
    <g id="text_36">
     <!-- North -->
     <g transform="translate(611.03125 486.882187) scale(0.1 -0.1)">
      <use xlink:href="#DejaVuSans-4e"/>
      <use xlink:href="#DejaVuSans-6f" x="74.804688"/>
      <use xlink:href="#DejaVuSans-72" x="135.986328"/>
      <use xlink:href="#DejaVuSans-74" x="177.099609"/>
      <use xlink:href="#DejaVuSans-68" x="216.308594"/>
     </g>
    </g>
    <g id="line2d_72">
     <path d="M 583.03125 498.060313 
L 593.03125 498.060313 
L 603.03125 498.060313 
" style="fill: none; stroke: #ff7f0e; stroke-width: 1.5; stroke-linecap: square"/>
    </g>
    <g id="text_37">
     <!-- East -->
     <g transform="translate(611.03125 501.560313) scale(0.1 -0.1)">
      <use xlink:href="#DejaVuSans-45"/>
      <use xlink:href="#DejaVuSans-61" x="63.183594"/>
      <use xlink:href="#DejaVuSans-73" x="124.462891"/>
      <use xlink:href="#DejaVuSans-74" x="176.5625"/>
     </g>
    </g>
   </g>
  </g>
 </g>
 <defs>
  <clipPath id="p55551430ae">
   <rect x="90" y="69.12" width="253.636364" height="130.447059"/>
  </clipPath>
  <clipPath id="p72b80eb45d">
   <rect x="394.363636" y="69.12" width="253.636364" height="130.447059"/>
  </clipPath>
  <clipPath id="pdc0b593cec">
   <rect x="90" y="225.656471" width="253.636364" height="130.447059"/>
  </clipPath>
  <clipPath id="p1de9f56aa3">
   <rect x="394.363636" y="225.656471" width="253.636364" height="130.447059"/>
  </clipPath>
  <clipPath id="pee31bf0620">
   <rect x="90" y="382.192941" width="253.636364" height="130.447059"/>
  </clipPath>
  <clipPath id="p1760e03f36">
   <rect x="394.363636" y="382.192941" width="253.636364" height="130.447059"/>
  </clipPath>
 </defs>
</svg>
