<?xml version="1.0" encoding="utf-8" standalone="no"?>
<!DOCTYPE svg PUBLIC "-//W3C//DTD SVG 1.1//EN"
  "http://www.w3.org/Graphics/SVG/1.1/DTD/svg11.dtd">
<svg height="576pt" version="1.1" viewBox="0 0 720 576" width="720pt" xmlns="http://www.w3.org/2000/svg" xmlns:xlink="http://www.w3.org/1999/xlink">
 <metadata>
  <rdf:RDF xmlns:cc="http://creativecommons.org/ns#" xmlns:dc="http://purl.org/dc/elements/1.1/" xmlns:rdf="http://www.w3.org/1999/02/22-rdf-syntax-ns#">
   <cc:Work>
    <dc:type rdf:resource="http://purl.org/dc/dcmitype/StillImage"/>
    <dc:date>2024-04-14T16:01:26.002511</dc:date>
    <dc:format>image/svg+xml</dc:format>
    <dc:creator>
     <cc:Agent>
      <dc:title>Matplotlib v3.4.2, https://matplotlib.org/</dc:title>
     </cc:Agent>
    </dc:creator>
   </cc:Work>
  </rdf:RDF>
 </metadata>
 <defs>
  <style type="text/css">*{stroke-linecap:butt;stroke-linejoin:round;}</style>
 </defs>
 <g id="figure_1">
  <g id="patch_1">
   <path d="M 0 576 
L 720 576 
L 720 0 
L 0 0 
z
" style="fill:#ffffff;"/>
  </g>
  <g id="axes_1">
   <g id="patch_2">
    <path d="M 76.52 177.24 
L 702.72 177.24 
L 702.72 63.48 
L 76.52 63.48 
z
" style="fill:#ffffff;"/>
   </g>
   <g id="matplotlib.axis_1">
    <g id="xtick_1">
     <g id="line2d_1">
      <defs>
       <path d="M 0 0 
L 0 3.5 
" id="m9b7c390394" style="stroke:#000000;stroke-width:0.8;"/>
      </defs>
      <g>
       <use style="stroke:#000000;stroke-width:0.8;" x="104.983636" xlink:href="#m9b7c390394" y="177.24"/>
      </g>
     </g>
     <g id="text_1">
      <!-- 0 -->
      <g transform="translate(99.893636 196.3975)scale(0.16 -0.16)">
       <defs>
        <path d="M 2034 4250 
Q 1547 4250 1301 3770 
Q 1056 3291 1056 2328 
Q 1056 1369 1301 889 
Q 1547 409 2034 409 
Q 2525 409 2770 889 
Q 3016 1369 3016 2328 
Q 3016 3291 2770 3770 
Q 2525 4250 2034 4250 
z
M 2034 4750 
Q 2819 4750 3233 4129 
Q 3647 3509 3647 2328 
Q 3647 1150 3233 529 
Q 2819 -91 2034 -91 
Q 1250 -91 836 529 
Q 422 1150 422 2328 
Q 422 3509 836 4129 
Q 1250 4750 2034 4750 
z
" id="DejaVuSans-30" transform="scale(0.015625)"/>
       </defs>
       <use xlink:href="#DejaVuSans-30"/>
      </g>
     </g>
    </g>
    <g id="xtick_2">
     <g id="line2d_2">
      <g>
       <use style="stroke:#000000;stroke-width:0.8;" x="176.142727" xlink:href="#m9b7c390394" y="177.24"/>
      </g>
     </g>
     <g id="text_2">
      <!-- 25 -->
      <g transform="translate(165.962727 196.3975)scale(0.16 -0.16)">
       <defs>
        <path d="M 1228 531 
L 3431 531 
L 3431 0 
L 469 0 
L 469 531 
Q 828 903 1448 1529 
Q 2069 2156 2228 2338 
Q 2531 2678 2651 2914 
Q 2772 3150 2772 3378 
Q 2772 3750 2511 3984 
Q 2250 4219 1831 4219 
Q 1534 4219 1204 4116 
Q 875 4013 500 3803 
L 500 4441 
Q 881 4594 1212 4672 
Q 1544 4750 1819 4750 
Q 2544 4750 2975 4387 
Q 3406 4025 3406 3419 
Q 3406 3131 3298 2873 
Q 3191 2616 2906 2266 
Q 2828 2175 2409 1742 
Q 1991 1309 1228 531 
z
" id="DejaVuSans-32" transform="scale(0.015625)"/>
        <path d="M 691 4666 
L 3169 4666 
L 3169 4134 
L 1269 4134 
L 1269 2991 
Q 1406 3038 1543 3061 
Q 1681 3084 1819 3084 
Q 2600 3084 3056 2656 
Q 3513 2228 3513 1497 
Q 3513 744 3044 326 
Q 2575 -91 1722 -91 
Q 1428 -91 1123 -41 
Q 819 9 494 109 
L 494 744 
Q 775 591 1075 516 
Q 1375 441 1709 441 
Q 2250 441 2565 725 
Q 2881 1009 2881 1497 
Q 2881 1984 2565 2268 
Q 2250 2553 1709 2553 
Q 1456 2553 1204 2497 
Q 953 2441 691 2322 
L 691 4666 
z
" id="DejaVuSans-35" transform="scale(0.015625)"/>
       </defs>
       <use xlink:href="#DejaVuSans-32"/>
       <use x="63.623047" xlink:href="#DejaVuSans-35"/>
      </g>
     </g>
    </g>
    <g id="xtick_3">
     <g id="line2d_3">
      <g>
       <use style="stroke:#000000;stroke-width:0.8;" x="247.301818" xlink:href="#m9b7c390394" y="177.24"/>
      </g>
     </g>
     <g id="text_3">
      <!-- 50 -->
      <g transform="translate(237.121818 196.3975)scale(0.16 -0.16)">
       <use xlink:href="#DejaVuSans-35"/>
       <use x="63.623047" xlink:href="#DejaVuSans-30"/>
      </g>
     </g>
    </g>
    <g id="xtick_4">
     <g id="line2d_4">
      <g>
       <use style="stroke:#000000;stroke-width:0.8;" x="318.460909" xlink:href="#m9b7c390394" y="177.24"/>
      </g>
     </g>
     <g id="text_4">
      <!-- 75 -->
      <g transform="translate(308.280909 196.3975)scale(0.16 -0.16)">
       <defs>
        <path d="M 525 4666 
L 3525 4666 
L 3525 4397 
L 1831 0 
L 1172 0 
L 2766 4134 
L 525 4134 
L 525 4666 
z
" id="DejaVuSans-37" transform="scale(0.015625)"/>
       </defs>
       <use xlink:href="#DejaVuSans-37"/>
       <use x="63.623047" xlink:href="#DejaVuSans-35"/>
      </g>
     </g>
    </g>
    <g id="xtick_5">
     <g id="line2d_5">
      <g>
       <use style="stroke:#000000;stroke-width:0.8;" x="389.62" xlink:href="#m9b7c390394" y="177.24"/>
      </g>
     </g>
     <g id="text_5">
      <!-- 100 -->
      <g transform="translate(374.35 196.3975)scale(0.16 -0.16)">
       <defs>
        <path d="M 794 531 
L 1825 531 
L 1825 4091 
L 703 3866 
L 703 4441 
L 1819 4666 
L 2450 4666 
L 2450 531 
L 3481 531 
L 3481 0 
L 794 0 
L 794 531 
z
" id="DejaVuSans-31" transform="scale(0.015625)"/>
       </defs>
       <use xlink:href="#DejaVuSans-31"/>
       <use x="63.623047" xlink:href="#DejaVuSans-30"/>
       <use x="127.246094" xlink:href="#DejaVuSans-30"/>
      </g>
     </g>
    </g>
    <g id="xtick_6">
     <g id="line2d_6">
      <g>
       <use style="stroke:#000000;stroke-width:0.8;" x="460.779091" xlink:href="#m9b7c390394" y="177.24"/>
      </g>
     </g>
     <g id="text_6">
      <!-- 125 -->
      <g transform="translate(445.509091 196.3975)scale(0.16 -0.16)">
       <use xlink:href="#DejaVuSans-31"/>
       <use x="63.623047" xlink:href="#DejaVuSans-32"/>
       <use x="127.246094" xlink:href="#DejaVuSans-35"/>
      </g>
     </g>
    </g>
    <g id="xtick_7">
     <g id="line2d_7">
      <g>
       <use style="stroke:#000000;stroke-width:0.8;" x="531.938182" xlink:href="#m9b7c390394" y="177.24"/>
      </g>
     </g>
     <g id="text_7">
      <!-- 150 -->
      <g transform="translate(516.668182 196.3975)scale(0.16 -0.16)">
       <use xlink:href="#DejaVuSans-31"/>
       <use x="63.623047" xlink:href="#DejaVuSans-35"/>
       <use x="127.246094" xlink:href="#DejaVuSans-30"/>
      </g>
     </g>
    </g>
    <g id="xtick_8">
     <g id="line2d_8">
      <g>
       <use style="stroke:#000000;stroke-width:0.8;" x="603.097273" xlink:href="#m9b7c390394" y="177.24"/>
      </g>
     </g>
     <g id="text_8">
      <!-- 175 -->
      <g transform="translate(587.827273 196.3975)scale(0.16 -0.16)">
       <use xlink:href="#DejaVuSans-31"/>
       <use x="63.623047" xlink:href="#DejaVuSans-37"/>
       <use x="127.246094" xlink:href="#DejaVuSans-35"/>
      </g>
     </g>
    </g>
    <g id="xtick_9">
     <g id="line2d_9">
      <g>
       <use style="stroke:#000000;stroke-width:0.8;" x="674.256364" xlink:href="#m9b7c390394" y="177.24"/>
      </g>
     </g>
     <g id="text_9">
      <!-- 200 -->
      <g transform="translate(658.986364 196.3975)scale(0.16 -0.16)">
       <use xlink:href="#DejaVuSans-32"/>
       <use x="63.623047" xlink:href="#DejaVuSans-30"/>
       <use x="127.246094" xlink:href="#DejaVuSans-30"/>
      </g>
     </g>
    </g>
    <g id="text_10">
     <!-- Time [s] -->
     <g transform="translate(357.09375 215.8825)scale(0.16 -0.16)">
      <defs>
       <path d="M -19 4666 
L 3928 4666 
L 3928 4134 
L 2272 4134 
L 2272 0 
L 1638 0 
L 1638 4134 
L -19 4134 
L -19 4666 
z
" id="DejaVuSans-54" transform="scale(0.015625)"/>
       <path d="M 603 3500 
L 1178 3500 
L 1178 0 
L 603 0 
L 603 3500 
z
M 603 4863 
L 1178 4863 
L 1178 4134 
L 603 4134 
L 603 4863 
z
" id="DejaVuSans-69" transform="scale(0.015625)"/>
       <path d="M 3328 2828 
Q 3544 3216 3844 3400 
Q 4144 3584 4550 3584 
Q 5097 3584 5394 3201 
Q 5691 2819 5691 2113 
L 5691 0 
L 5113 0 
L 5113 2094 
Q 5113 2597 4934 2840 
Q 4756 3084 4391 3084 
Q 3944 3084 3684 2787 
Q 3425 2491 3425 1978 
L 3425 0 
L 2847 0 
L 2847 2094 
Q 2847 2600 2669 2842 
Q 2491 3084 2119 3084 
Q 1678 3084 1418 2786 
Q 1159 2488 1159 1978 
L 1159 0 
L 581 0 
L 581 3500 
L 1159 3500 
L 1159 2956 
Q 1356 3278 1631 3431 
Q 1906 3584 2284 3584 
Q 2666 3584 2933 3390 
Q 3200 3197 3328 2828 
z
" id="DejaVuSans-6d" transform="scale(0.015625)"/>
       <path d="M 3597 1894 
L 3597 1613 
L 953 1613 
Q 991 1019 1311 708 
Q 1631 397 2203 397 
Q 2534 397 2845 478 
Q 3156 559 3463 722 
L 3463 178 
Q 3153 47 2828 -22 
Q 2503 -91 2169 -91 
Q 1331 -91 842 396 
Q 353 884 353 1716 
Q 353 2575 817 3079 
Q 1281 3584 2069 3584 
Q 2775 3584 3186 3129 
Q 3597 2675 3597 1894 
z
M 3022 2063 
Q 3016 2534 2758 2815 
Q 2500 3097 2075 3097 
Q 1594 3097 1305 2825 
Q 1016 2553 972 2059 
L 3022 2063 
z
" id="DejaVuSans-65" transform="scale(0.015625)"/>
       <path id="DejaVuSans-20" transform="scale(0.015625)"/>
       <path d="M 550 4863 
L 1875 4863 
L 1875 4416 
L 1125 4416 
L 1125 -397 
L 1875 -397 
L 1875 -844 
L 550 -844 
L 550 4863 
z
" id="DejaVuSans-5b" transform="scale(0.015625)"/>
       <path d="M 2834 3397 
L 2834 2853 
Q 2591 2978 2328 3040 
Q 2066 3103 1784 3103 
Q 1356 3103 1142 2972 
Q 928 2841 928 2578 
Q 928 2378 1081 2264 
Q 1234 2150 1697 2047 
L 1894 2003 
Q 2506 1872 2764 1633 
Q 3022 1394 3022 966 
Q 3022 478 2636 193 
Q 2250 -91 1575 -91 
Q 1294 -91 989 -36 
Q 684 19 347 128 
L 347 722 
Q 666 556 975 473 
Q 1284 391 1588 391 
Q 1994 391 2212 530 
Q 2431 669 2431 922 
Q 2431 1156 2273 1281 
Q 2116 1406 1581 1522 
L 1381 1569 
Q 847 1681 609 1914 
Q 372 2147 372 2553 
Q 372 3047 722 3315 
Q 1072 3584 1716 3584 
Q 2034 3584 2315 3537 
Q 2597 3491 2834 3397 
z
" id="DejaVuSans-73" transform="scale(0.015625)"/>
       <path d="M 1947 4863 
L 1947 -844 
L 622 -844 
L 622 -397 
L 1369 -397 
L 1369 4416 
L 622 4416 
L 622 4863 
L 1947 4863 
z
" id="DejaVuSans-5d" transform="scale(0.015625)"/>
      </defs>
      <use xlink:href="#DejaVuSans-54"/>
      <use x="57.958984" xlink:href="#DejaVuSans-69"/>
      <use x="85.742188" xlink:href="#DejaVuSans-6d"/>
      <use x="183.154297" xlink:href="#DejaVuSans-65"/>
      <use x="244.677734" xlink:href="#DejaVuSans-20"/>
      <use x="276.464844" xlink:href="#DejaVuSans-5b"/>
      <use x="315.478516" xlink:href="#DejaVuSans-73"/>
      <use x="367.578125" xlink:href="#DejaVuSans-5d"/>
     </g>
    </g>
   </g>
   <g id="matplotlib.axis_2">
    <g id="ytick_1">
     <g id="line2d_10">
      <defs>
       <path d="M 0 0 
L -3.5 0 
" id="m98a5e0ef29" style="stroke:#000000;stroke-width:0.8;"/>
      </defs>
      <g>
       <use style="stroke:#000000;stroke-width:0.8;" x="76.52" xlink:href="#m98a5e0ef29" y="151.825965"/>
      </g>
     </g>
     <g id="text_11">
      <!-- −2 -->
      <g transform="translate(45.9325 157.904715)scale(0.16 -0.16)">
       <defs>
        <path d="M 678 2272 
L 4684 2272 
L 4684 1741 
L 678 1741 
L 678 2272 
z
" id="DejaVuSans-2212" transform="scale(0.015625)"/>
       </defs>
       <use xlink:href="#DejaVuSans-2212"/>
       <use x="83.789062" xlink:href="#DejaVuSans-32"/>
      </g>
     </g>
    </g>
    <g id="ytick_2">
     <g id="line2d_11">
      <g>
       <use style="stroke:#000000;stroke-width:0.8;" x="76.52" xlink:href="#m98a5e0ef29" y="113.077705"/>
      </g>
     </g>
     <g id="text_12">
      <!-- −1 -->
      <g transform="translate(45.9325 119.156455)scale(0.16 -0.16)">
       <use xlink:href="#DejaVuSans-2212"/>
       <use x="83.789062" xlink:href="#DejaVuSans-31"/>
      </g>
     </g>
    </g>
    <g id="ytick_3">
     <g id="line2d_12">
      <g>
       <use style="stroke:#000000;stroke-width:0.8;" x="76.52" xlink:href="#m98a5e0ef29" y="74.329445"/>
      </g>
     </g>
     <g id="text_13">
      <!-- 0 -->
      <g transform="translate(59.34 80.408195)scale(0.16 -0.16)">
       <use xlink:href="#DejaVuSans-30"/>
      </g>
     </g>
    </g>
    <g id="text_14">
     <!-- Azimuth [rad] -->
     <g transform="translate(23.34 175.3775)rotate(-90)scale(0.16 -0.16)">
      <defs>
       <path d="M 2188 4044 
L 1331 1722 
L 3047 1722 
L 2188 4044 
z
M 1831 4666 
L 2547 4666 
L 4325 0 
L 3669 0 
L 3244 1197 
L 1141 1197 
L 716 0 
L 50 0 
L 1831 4666 
z
" id="DejaVuSans-41" transform="scale(0.015625)"/>
       <path d="M 353 3500 
L 3084 3500 
L 3084 2975 
L 922 459 
L 3084 459 
L 3084 0 
L 275 0 
L 275 525 
L 2438 3041 
L 353 3041 
L 353 3500 
z
" id="DejaVuSans-7a" transform="scale(0.015625)"/>
       <path d="M 544 1381 
L 544 3500 
L 1119 3500 
L 1119 1403 
Q 1119 906 1312 657 
Q 1506 409 1894 409 
Q 2359 409 2629 706 
Q 2900 1003 2900 1516 
L 2900 3500 
L 3475 3500 
L 3475 0 
L 2900 0 
L 2900 538 
Q 2691 219 2414 64 
Q 2138 -91 1772 -91 
Q 1169 -91 856 284 
Q 544 659 544 1381 
z
M 1991 3584 
L 1991 3584 
z
" id="DejaVuSans-75" transform="scale(0.015625)"/>
       <path d="M 1172 4494 
L 1172 3500 
L 2356 3500 
L 2356 3053 
L 1172 3053 
L 1172 1153 
Q 1172 725 1289 603 
Q 1406 481 1766 481 
L 2356 481 
L 2356 0 
L 1766 0 
Q 1100 0 847 248 
Q 594 497 594 1153 
L 594 3053 
L 172 3053 
L 172 3500 
L 594 3500 
L 594 4494 
L 1172 4494 
z
" id="DejaVuSans-74" transform="scale(0.015625)"/>
       <path d="M 3513 2113 
L 3513 0 
L 2938 0 
L 2938 2094 
Q 2938 2591 2744 2837 
Q 2550 3084 2163 3084 
Q 1697 3084 1428 2787 
Q 1159 2491 1159 1978 
L 1159 0 
L 581 0 
L 581 4863 
L 1159 4863 
L 1159 2956 
Q 1366 3272 1645 3428 
Q 1925 3584 2291 3584 
Q 2894 3584 3203 3211 
Q 3513 2838 3513 2113 
z
" id="DejaVuSans-68" transform="scale(0.015625)"/>
       <path d="M 2631 2963 
Q 2534 3019 2420 3045 
Q 2306 3072 2169 3072 
Q 1681 3072 1420 2755 
Q 1159 2438 1159 1844 
L 1159 0 
L 581 0 
L 581 3500 
L 1159 3500 
L 1159 2956 
Q 1341 3275 1631 3429 
Q 1922 3584 2338 3584 
Q 2397 3584 2469 3576 
Q 2541 3569 2628 3553 
L 2631 2963 
z
" id="DejaVuSans-72" transform="scale(0.015625)"/>
       <path d="M 2194 1759 
Q 1497 1759 1228 1600 
Q 959 1441 959 1056 
Q 959 750 1161 570 
Q 1363 391 1709 391 
Q 2188 391 2477 730 
Q 2766 1069 2766 1631 
L 2766 1759 
L 2194 1759 
z
M 3341 1997 
L 3341 0 
L 2766 0 
L 2766 531 
Q 2569 213 2275 61 
Q 1981 -91 1556 -91 
Q 1019 -91 701 211 
Q 384 513 384 1019 
Q 384 1609 779 1909 
Q 1175 2209 1959 2209 
L 2766 2209 
L 2766 2266 
Q 2766 2663 2505 2880 
Q 2244 3097 1772 3097 
Q 1472 3097 1187 3025 
Q 903 2953 641 2809 
L 641 3341 
Q 956 3463 1253 3523 
Q 1550 3584 1831 3584 
Q 2591 3584 2966 3190 
Q 3341 2797 3341 1997 
z
" id="DejaVuSans-61" transform="scale(0.015625)"/>
       <path d="M 2906 2969 
L 2906 4863 
L 3481 4863 
L 3481 0 
L 2906 0 
L 2906 525 
Q 2725 213 2448 61 
Q 2172 -91 1784 -91 
Q 1150 -91 751 415 
Q 353 922 353 1747 
Q 353 2572 751 3078 
Q 1150 3584 1784 3584 
Q 2172 3584 2448 3432 
Q 2725 3281 2906 2969 
z
M 947 1747 
Q 947 1113 1208 752 
Q 1469 391 1925 391 
Q 2381 391 2643 752 
Q 2906 1113 2906 1747 
Q 2906 2381 2643 2742 
Q 2381 3103 1925 3103 
Q 1469 3103 1208 2742 
Q 947 2381 947 1747 
z
" id="DejaVuSans-64" transform="scale(0.015625)"/>
      </defs>
      <use xlink:href="#DejaVuSans-41"/>
      <use x="68.408203" xlink:href="#DejaVuSans-7a"/>
      <use x="120.898438" xlink:href="#DejaVuSans-69"/>
      <use x="148.681641" xlink:href="#DejaVuSans-6d"/>
      <use x="246.09375" xlink:href="#DejaVuSans-75"/>
      <use x="309.472656" xlink:href="#DejaVuSans-74"/>
      <use x="348.681641" xlink:href="#DejaVuSans-68"/>
      <use x="412.060547" xlink:href="#DejaVuSans-20"/>
      <use x="443.847656" xlink:href="#DejaVuSans-5b"/>
      <use x="482.861328" xlink:href="#DejaVuSans-72"/>
      <use x="523.974609" xlink:href="#DejaVuSans-61"/>
      <use x="585.253906" xlink:href="#DejaVuSans-64"/>
      <use x="648.730469" xlink:href="#DejaVuSans-5d"/>
     </g>
    </g>
    <g id="text_15">
     <!-- 1e−13 -->
     <g transform="translate(76.52 60.48)scale(0.16 -0.16)">
      <defs>
       <path d="M 2597 2516 
Q 3050 2419 3304 2112 
Q 3559 1806 3559 1356 
Q 3559 666 3084 287 
Q 2609 -91 1734 -91 
Q 1441 -91 1130 -33 
Q 819 25 488 141 
L 488 750 
Q 750 597 1062 519 
Q 1375 441 1716 441 
Q 2309 441 2620 675 
Q 2931 909 2931 1356 
Q 2931 1769 2642 2001 
Q 2353 2234 1838 2234 
L 1294 2234 
L 1294 2753 
L 1863 2753 
Q 2328 2753 2575 2939 
Q 2822 3125 2822 3475 
Q 2822 3834 2567 4026 
Q 2313 4219 1838 4219 
Q 1578 4219 1281 4162 
Q 984 4106 628 3988 
L 628 4550 
Q 988 4650 1302 4700 
Q 1616 4750 1894 4750 
Q 2613 4750 3031 4423 
Q 3450 4097 3450 3541 
Q 3450 3153 3228 2886 
Q 3006 2619 2597 2516 
z
" id="DejaVuSans-33" transform="scale(0.015625)"/>
      </defs>
      <use xlink:href="#DejaVuSans-31"/>
      <use x="63.623047" xlink:href="#DejaVuSans-65"/>
      <use x="125.146484" xlink:href="#DejaVuSans-2212"/>
      <use x="208.935547" xlink:href="#DejaVuSans-31"/>
      <use x="272.558594" xlink:href="#DejaVuSans-33"/>
     </g>
    </g>
   </g>
   <g id="line2d_13">
    <path clip-path="url(#p1114d47d62)" d="M 104.983636 74.329445 
L 132.593364 74.243406 
L 133.162636 74.157368 
L 137.147545 74.07133 
L 137.716818 73.985291 
L 141.701727 73.899253 
L 141.986364 73.813214 
L 142.271 73.899253 
L 142.840273 73.813214 
L 143.694182 73.813214 
L 143.978818 73.641137 
L 144.263455 73.813214 
L 144.548091 73.641137 
L 144.832727 73.813214 
L 145.117364 73.641137 
L 145.402 73.813214 
L 145.686636 73.641137 
L 145.971273 73.813214 
L 146.255909 73.641137 
L 148.817636 73.641137 
L 149.102273 73.469061 
L 149.386909 73.641137 
L 149.671545 73.469061 
L 149.956182 73.641137 
L 150.240818 73.641137 
L 150.525455 73.469061 
L 151.094727 73.469061 
L 151.379364 73.641137 
L 151.664 73.469061 
L 152.233273 73.469061 
L 152.517909 73.641137 
L 153.087182 73.296984 
L 153.656455 73.641137 
L 154.225727 73.296984 
L 154.510364 73.469061 
L 155.079636 73.469061 
L 155.364273 73.296984 
L 155.648909 73.296984 
L 155.933545 73.469061 
L 156.218182 73.296984 
L 156.787455 73.296984 
L 157.072091 73.469061 
L 157.356727 73.296984 
L 159.633818 73.296984 
L 159.918455 73.124907 
L 160.203091 73.296984 
L 160.487727 73.296984 
L 160.772364 73.124907 
L 161.341636 73.124907 
L 161.626273 73.296984 
L 161.910909 73.124907 
L 162.480182 73.124907 
L 162.764818 73.296984 
L 163.334091 72.95283 
L 163.903364 73.296984 
L 164.472636 72.95283 
L 164.757273 72.95283 
L 165.041909 73.124907 
L 165.326545 73.124907 
L 165.611182 72.95283 
L 165.895818 72.95283 
L 166.180455 73.124907 
L 166.465091 72.95283 
L 167.034364 72.95283 
L 167.319 73.124907 
L 167.603636 72.95283 
L 168.742182 72.95283 
L 169.026818 72.780753 
L 169.311455 72.95283 
L 169.596091 72.95283 
L 169.880727 72.780753 
L 170.45 72.780753 
L 170.734636 72.95283 
L 171.019273 72.780753 
L 171.588545 72.780753 
L 171.873182 72.95283 
L 172.157818 72.780753 
L 172.727091 72.780753 
L 173.011727 72.95283 
L 173.581 72.608676 
L 173.865636 72.780753 
L 174.434909 72.780753 
L 174.719545 72.608676 
L 175.004182 72.608676 
L 175.288818 72.780753 
L 175.573455 72.608676 
L 176.142727 72.608676 
L 176.427364 72.780753 
L 176.712 72.608676 
L 178.704455 72.608676 
L 178.989091 72.4366 
L 179.273727 72.4366 
L 179.558364 72.608676 
L 179.843 72.608676 
L 180.127636 72.4366 
L 180.696909 72.4366 
L 180.981545 72.608676 
L 181.266182 72.4366 
L 181.835455 72.4366 
L 182.120091 72.608676 
L 182.689364 72.264523 
L 182.974 72.4366 
L 183.543273 72.4366 
L 183.827909 72.264523 
L 184.112545 72.264523 
L 184.397182 72.4366 
L 184.681818 72.4366 
L 184.966455 72.264523 
L 185.251091 72.264523 
L 185.535727 72.4366 
L 185.820364 72.264523 
L 186.389636 72.264523 
L 186.674273 72.4366 
L 186.958909 72.264523 
L 188.097455 72.264523 
L 188.382091 72.092446 
L 188.666727 72.264523 
L 188.951364 72.264523 
L 189.236 72.092446 
L 189.805273 72.092446 
L 190.089909 72.264523 
L 190.374545 72.092446 
L 190.943818 72.092446 
L 191.228455 72.264523 
L 191.797727 71.920369 
L 192.367 72.264523 
L 192.936273 71.920369 
L 193.220909 71.920369 
L 193.505545 72.092446 
L 193.790182 72.092446 
L 194.074818 71.920369 
L 194.359455 71.920369 
L 194.644091 72.092446 
L 194.928727 71.920369 
L 196.921182 71.920369 
L 197.205818 71.748292 
L 197.490455 71.748292 
L 197.775091 71.920369 
L 198.344364 71.920369 
L 198.629 71.748292 
L 198.913636 71.920369 
L 199.198273 71.920369 
L 199.482909 71.748292 
L 200.052182 71.748292 
L 200.336818 71.920369 
L 200.906091 71.576215 
L 201.475364 71.920369 
L 202.044636 71.576215 
L 202.613909 71.920369 
L 203.183182 71.576215 
L 203.467818 71.576215 
L 203.752455 71.748292 
L 204.037091 71.748292 
L 204.321727 71.576215 
L 204.606364 71.576215 
L 204.891 71.748292 
L 205.175636 71.748292 
L 205.460273 71.576215 
L 207.168091 71.576215 
L 207.452727 71.404139 
L 207.737364 71.404139 
L 208.022 71.576215 
L 208.306636 71.576215 
L 208.591273 71.404139 
L 208.875909 71.404139 
L 209.160545 71.576215 
L 209.445182 71.576215 
L 210.014455 71.232062 
L 210.583727 71.576215 
L 211.153 71.232062 
L 211.437636 71.232062 
L 211.722273 71.404139 
L 212.006909 71.404139 
L 212.291545 71.232062 
L 212.576182 71.404139 
L 213.145455 71.404139 
L 213.430091 71.232062 
L 213.714727 71.232062 
L 213.999364 71.404139 
L 214.284 71.404139 
L 214.568636 71.232062 
L 215.137909 71.232062 
L 215.422545 71.404139 
L 215.707182 71.232062 
L 217.415 71.232062 
L 217.699636 71.059985 
L 217.984273 71.059985 
L 218.268909 71.232062 
L 218.553545 71.232062 
L 218.838182 71.059985 
L 219.122818 71.059985 
L 219.407455 71.232062 
L 219.692091 71.232062 
L 220.261364 70.887908 
L 220.830636 71.232062 
L 221.399909 70.887908 
L 221.684545 70.887908 
L 221.969182 71.059985 
L 222.253818 71.059985 
L 222.538455 70.887908 
L 222.823091 71.059985 
L 223.392364 71.059985 
L 223.677 70.887908 
L 223.961636 70.887908 
L 224.246273 71.059985 
L 224.530909 70.887908 
L 227.661909 70.887908 
L 227.946545 70.715831 
L 228.231182 70.715831 
L 228.515818 70.887908 
L 228.800455 70.887908 
L 229.085091 70.715831 
L 229.369727 70.715831 
L 229.654364 70.887908 
L 229.939 70.887908 
L 230.508273 70.543754 
L 231.077545 70.887908 
L 231.646818 70.543754 
L 231.931455 70.543754 
L 232.216091 70.715831 
L 232.500727 70.715831 
L 232.785364 70.543754 
L 233.07 70.543754 
L 233.354636 70.715831 
L 233.639273 70.715831 
L 233.923909 70.543754 
L 235.631727 70.543754 
L 235.916364 70.371678 
L 236.201 70.371678 
L 236.485636 70.543754 
L 237.054909 70.543754 
L 237.339545 70.371678 
L 237.624182 70.543754 
L 237.908818 70.543754 
L 238.193455 70.371678 
L 238.762727 70.371678 
L 239.047364 70.543754 
L 239.616636 70.199601 
L 239.901273 70.543754 
L 240.185909 70.543754 
L 240.755182 70.199601 
L 241.324455 70.543754 
L 241.893727 70.199601 
L 242.178364 70.199601 
L 242.463 70.371678 
L 242.747636 70.371678 
L 243.032273 70.199601 
L 243.316909 70.199601 
L 243.601545 70.371678 
L 243.886182 70.371678 
L 244.170818 70.199601 
L 245.878636 70.199601 
L 246.163273 70.027524 
L 246.447909 70.027524 
L 246.732545 70.199601 
L 247.017182 70.199601 
L 247.301818 70.027524 
L 247.586455 70.027524 
L 247.871091 70.199601 
L 248.155727 70.199601 
L 248.725 69.855447 
L 249.294273 70.199601 
L 249.863545 69.855447 
L 250.148182 69.855447 
L 250.432818 70.199601 
L 251.002091 69.855447 
L 251.286727 70.027524 
L 251.856 70.027524 
L 252.140636 69.855447 
L 252.425273 69.855447 
L 252.709909 70.027524 
L 252.994545 69.855447 
L 253.848455 69.855447 
L 254.133091 70.027524 
L 254.417727 69.855447 
L 256.125545 69.855447 
L 256.410182 69.68337 
L 256.694818 69.68337 
L 256.979455 69.855447 
L 257.264091 69.855447 
L 257.548727 69.68337 
L 257.833364 69.68337 
L 258.118 69.855447 
L 258.402636 69.855447 
L 258.971909 69.511293 
L 259.541182 69.855447 
L 260.110455 69.511293 
L 260.395091 69.511293 
L 260.679727 69.68337 
L 260.964364 69.68337 
L 261.249 69.511293 
L 261.533636 69.511293 
L 261.818273 69.68337 
L 262.102909 69.68337 
L 262.387545 69.511293 
L 265.518545 69.511293 
L 265.803182 69.339216 
L 266.087818 69.511293 
L 266.372455 69.511293 
L 266.657091 69.339216 
L 267.226364 69.339216 
L 267.511 69.511293 
L 267.795636 69.339216 
L 268.080273 69.339216 
L 268.364909 69.511293 
L 268.649545 69.511293 
L 269.218818 69.16714 
L 269.788091 69.511293 
L 270.357364 69.16714 
L 270.642 69.16714 
L 270.926636 69.339216 
L 271.211273 69.339216 
L 271.495909 69.16714 
L 271.780545 69.16714 
L 272.065182 69.339216 
L 272.349818 69.339216 
L 272.634455 69.16714 
L 274.342273 69.16714 
L 274.626909 68.995063 
L 274.911545 69.16714 
L 275.480818 69.16714 
L 275.765455 68.995063 
L 276.050091 68.995063 
L 276.334727 69.16714 
L 276.619364 69.16714 
L 277.188636 68.822986 
L 277.757909 69.16714 
L 278.327182 68.822986 
L 278.896455 69.16714 
L 279.465727 68.822986 
L 279.750364 68.995063 
L 280.319636 68.995063 
L 280.604273 68.822986 
L 280.888909 68.822986 
L 281.173545 68.995063 
L 281.458182 68.822986 
L 282.027455 68.822986 
L 282.312091 68.995063 
L 282.596727 68.995063 
L 282.881364 68.822986 
L 284.589182 68.822986 
L 284.873818 68.650909 
L 285.158455 68.650909 
L 285.443091 68.822986 
L 286.581636 68.822986 
L 286.866273 68.995063 
L 287.150909 68.995063 
L 287.435545 69.16714 
L 288.004818 69.16714 
L 288.289455 69.339216 
L 288.574091 69.339216 
L 288.858727 69.511293 
L 289.428 69.511293 
L 289.712636 69.68337 
L 289.997273 69.68337 
L 290.281909 69.855447 
L 290.566545 69.855447 
L 291.135818 70.199601 
L 291.420455 70.199601 
L 291.705091 70.371678 
L 292.274364 70.371678 
L 292.559 70.543754 
L 292.843636 70.543754 
L 293.128273 70.715831 
L 293.697545 70.715831 
L 293.982182 70.887908 
L 294.266818 70.887908 
L 294.551455 71.059985 
L 295.120727 71.059985 
L 295.405364 71.232062 
L 295.69 71.232062 
L 295.974636 71.404139 
L 296.543909 71.404139 
L 296.828545 71.576215 
L 297.113182 71.576215 
L 297.682455 71.920369 
L 297.967091 71.920369 
L 298.251727 72.092446 
L 298.536364 72.092446 
L 298.821 72.264523 
L 299.390273 72.264523 
L 299.674909 72.4366 
L 299.959545 72.4366 
L 300.244182 72.608676 
L 300.813455 72.608676 
L 301.098091 72.780753 
L 301.382727 72.780753 
L 301.667364 72.95283 
L 302.236636 72.95283 
L 302.521273 73.124907 
L 302.805909 73.124907 
L 303.090545 73.296984 
L 303.659818 73.296984 
L 303.944455 73.469061 
L 304.229091 73.469061 
L 304.798364 73.813214 
L 305.083 73.813214 
L 305.367636 73.985291 
L 305.652273 73.985291 
L 305.936909 74.157368 
L 306.506182 74.157368 
L 306.790818 74.329445 
L 307.075455 74.329445 
L 307.360091 74.501522 
L 307.929364 74.501522 
L 308.214 74.673599 
L 308.498636 74.673599 
L 308.783273 74.845675 
L 309.352545 74.845675 
L 309.637182 75.017752 
L 309.921818 75.017752 
L 310.206455 75.189829 
L 310.775727 75.189829 
L 311.060364 75.361906 
L 311.345 75.361906 
L 311.914273 75.70606 
L 312.198909 75.70606 
L 312.483545 75.878136 
L 312.768182 75.878136 
L 313.052818 76.050213 
L 313.622091 76.050213 
L 313.906727 76.22229 
L 314.191364 76.22229 
L 314.476 76.394367 
L 315.045273 76.394367 
L 315.329909 76.566444 
L 315.614545 76.566444 
L 315.899182 76.738521 
L 316.468455 76.738521 
L 316.753091 76.910597 
L 317.037727 76.910597 
L 317.322364 77.082674 
L 317.891636 77.082674 
L 318.176273 77.254751 
L 318.460909 77.254751 
L 318.745545 77.598905 
L 319.314818 77.598905 
L 319.599455 77.770982 
L 319.884091 77.770982 
L 320.168727 77.943059 
L 320.738 77.943059 
L 321.022636 78.115135 
L 321.307273 78.115135 
L 321.591909 78.287212 
L 322.161182 78.287212 
L 322.445818 78.459289 
L 322.730455 78.459289 
L 323.015091 78.631366 
L 323.299727 78.631366 
L 323.584364 78.803443 
L 324.153636 78.803443 
L 324.438273 78.97552 
L 324.722909 78.97552 
L 325.007545 79.147596 
L 325.576818 79.147596 
L 325.861455 79.835904 
L 327.569273 79.835904 
L 327.853909 80.180057 
L 328.423182 80.180057 
L 328.707818 80.524211 
L 330.415636 80.524211 
L 330.700273 80.868365 
L 331.269545 80.868365 
L 331.554182 81.212519 
L 332.692727 81.212519 
L 332.977364 81.556672 
L 333.262 81.556672 
L 333.546636 81.900826 
L 335.539091 81.900826 
L 335.823727 82.24498 
L 336.108364 82.24498 
L 336.393 82.589133 
L 338.385455 82.589133 
L 338.670091 82.933287 
L 338.954727 82.933287 
L 339.239364 83.277441 
L 340.377909 83.277441 
L 340.662545 83.621594 
L 341.231818 83.621594 
L 341.516455 83.965748 
L 343.224273 83.965748 
L 343.508909 84.309902 
L 344.078182 84.309902 
L 344.362818 84.654055 
L 346.070636 84.654055 
L 346.355273 84.998209 
L 346.639909 84.998209 
L 346.924545 85.342363 
L 348.347727 85.342363 
L 348.632364 85.686516 
L 348.917 85.686516 
L 349.201636 86.03067 
L 351.194091 86.03067 
L 351.478727 86.374824 
L 351.763364 86.374824 
L 352.048 86.718977 
L 353.471182 86.718977 
L 353.755818 87.063131 
L 354.040455 87.063131 
L 354.325091 87.407285 
L 356.032909 87.407285 
L 356.317545 87.751439 
L 356.886818 87.751439 
L 357.171455 88.095592 
L 358.879273 88.095592 
L 359.163909 88.439746 
L 359.733182 88.439746 
L 360.017818 88.7839 
L 361.156364 88.7839 
L 361.441 89.128053 
L 361.725636 89.128053 
L 362.010273 89.472207 
L 364.002727 89.472207 
L 364.287364 89.816361 
L 364.572 89.816361 
L 364.856636 90.160514 
L 366.849091 90.160514 
L 367.133727 90.504668 
L 367.418364 90.504668 
L 367.703 90.848822 
L 368.841545 90.848822 
L 369.126182 91.192975 
L 369.695455 91.192975 
L 369.980091 91.537129 
L 371.687909 91.537129 
L 371.972545 91.881283 
L 372.541818 91.881283 
L 372.826455 92.225436 
L 374.534273 92.225436 
L 374.818909 92.913744 
L 376.811364 92.913744 
L 377.096 93.257897 
L 377.380636 93.257897 
L 377.665273 93.602051 
L 379.657727 93.602051 
L 379.942364 93.946205 
L 380.227 93.946205 
L 380.511636 94.290358 
L 381.650182 94.290358 
L 381.934818 94.634512 
L 382.504091 94.634512 
L 382.788727 94.978666 
L 384.496545 94.978666 
L 384.781182 95.32282 
L 385.350455 95.32282 
L 385.635091 95.666973 
L 387.342909 95.666973 
L 387.627545 96.011127 
L 388.196818 96.011127 
L 388.481455 96.355281 
L 389.62 96.355281 
L 389.904636 96.699434 
L 390.189273 96.699434 
L 390.473909 97.043588 
L 392.466364 97.043588 
L 392.751 97.387742 
L 393.035636 97.387742 
L 393.320273 97.731895 
L 395.312727 97.731895 
L 395.882 98.420203 
L 397.305182 98.420203 
L 397.589818 98.764356 
L 398.159091 98.764356 
L 398.443727 99.10851 
L 400.151545 99.10851 
L 400.436182 99.452664 
L 401.005455 99.452664 
L 401.290091 99.796817 
L 402.713273 99.796817 
L 403.282545 100.485125 
L 405.275 100.485125 
L 405.559636 100.829278 
L 405.844273 100.829278 
L 406.128909 101.173432 
L 408.121364 101.173432 
L 408.406 101.517586 
L 408.690636 101.517586 
L 408.975273 101.86174 
L 410.113818 101.86174 
L 410.398455 102.205893 
L 410.967727 102.205893 
L 411.252364 102.550047 
L 412.960182 102.550047 
L 413.244818 102.894201 
L 413.814091 102.894201 
L 414.098727 103.238354 
L 415.806545 103.238354 
L 416.091182 103.582508 
L 416.660455 103.582508 
L 416.945091 103.926662 
L 418.083636 103.926662 
L 418.368273 104.270815 
L 418.652909 104.270815 
L 418.937545 104.614969 
L 420.93 104.614969 
L 421.214636 104.959123 
L 421.499273 104.959123 
L 421.783909 105.303276 
L 423.491727 105.303276 
L 424.061 105.991584 
L 425.768818 105.991584 
L 426.053455 106.335737 
L 426.622727 106.335737 
L 426.907364 106.679891 
L 428.615182 106.679891 
L 428.899818 107.024045 
L 429.469091 107.024045 
L 429.753727 107.368198 
L 430.892273 107.368198 
L 431.176909 107.712352 
L 431.461545 107.712352 
L 431.746182 108.056506 
L 433.738636 108.056506 
L 434.023273 108.40066 
L 434.307909 108.40066 
L 434.592545 108.744813 
L 436.585 108.744813 
L 436.869636 109.088967 
L 437.154273 109.088967 
L 437.438909 109.433121 
L 438.577455 109.433121 
L 438.862091 109.777274 
L 439.431364 109.777274 
L 439.716 110.121428 
L 441.423818 110.121428 
L 441.708455 110.465582 
L 442.277727 110.465582 
L 442.562364 110.809735 
L 444.270182 110.809735 
L 444.839455 111.498043 
L 446.547273 111.498043 
L 446.831909 111.842196 
L 447.116545 111.842196 
L 447.401182 112.18635 
L 449.393636 112.18635 
L 449.678273 112.530504 
L 449.962909 112.530504 
L 450.247545 112.874657 
L 451.670727 112.874657 
L 451.955364 113.218811 
L 452.24 113.218811 
L 452.524636 113.562965 
L 454.232455 113.562965 
L 454.517091 113.907118 
L 455.086364 113.907118 
L 455.371 114.251272 
L 457.078818 114.251272 
L 457.363455 114.595426 
L 457.932727 114.595426 
L 458.217364 114.939579 
L 459.355909 114.939579 
L 459.640545 115.283733 
L 459.925182 115.283733 
L 460.209818 115.627887 
L 462.202273 115.627887 
L 462.486909 115.972041 
L 462.771545 115.972041 
L 463.056182 116.316194 
L 465.048636 116.316194 
L 465.333273 116.660348 
L 465.617909 116.660348 
L 465.902545 117.004502 
L 468.464273 117.004502 
L 468.748909 117.348655 
L 469.602818 117.348655 
L 469.887455 117.692809 
L 471.026 117.692809 
L 471.310636 118.036963 
L 472.449182 118.036963 
L 472.733818 118.381116 
L 473.872364 118.381116 
L 474.157 118.72527 
L 475.295545 118.72527 
L 475.580182 119.069424 
L 476.149455 119.069424 
L 476.434091 119.413577 
L 476.718727 119.413577 
L 477.003364 119.757731 
L 478.141909 119.757731 
L 478.426545 120.101885 
L 479.565091 120.101885 
L 479.849727 120.446038 
L 480.988273 120.446038 
L 481.272909 120.790192 
L 482.411455 120.790192 
L 482.696091 121.134346 
L 483.834636 121.134346 
L 484.119273 121.478499 
L 485.257818 121.478499 
L 485.542455 121.822653 
L 486.681 121.822653 
L 486.965636 122.166807 
L 488.104182 122.166807 
L 488.388818 122.510961 
L 489.527364 122.510961 
L 489.812 122.855114 
L 490.096636 122.855114 
L 490.381273 123.199268 
L 490.950545 123.199268 
L 491.235182 123.543422 
L 492.373727 123.543422 
L 492.658364 123.887575 
L 493.796909 123.887575 
L 494.081545 124.231729 
L 495.220091 124.231729 
L 495.504727 124.575883 
L 496.643273 124.575883 
L 496.927909 124.920036 
L 498.066455 124.920036 
L 498.351091 125.26419 
L 499.489636 125.26419 
L 499.774273 125.608344 
L 500.912818 125.608344 
L 501.197455 125.952497 
L 502.336 125.952497 
L 502.620636 126.296651 
L 503.759182 126.296651 
L 504.328455 126.984958 
L 505.182364 126.984958 
L 505.467 127.329112 
L 506.605545 127.329112 
L 506.890182 127.673266 
L 508.028727 127.673266 
L 508.313364 128.017419 
L 509.451909 128.017419 
L 509.736545 128.361573 
L 510.875091 128.361573 
L 511.159727 128.705727 
L 512.298273 128.705727 
L 512.582909 129.049881 
L 513.721455 129.049881 
L 514.006091 129.394034 
L 515.144636 129.394034 
L 515.429273 129.738188 
L 516.567818 129.738188 
L 516.852455 130.082342 
L 517.991 130.082342 
L 518.560273 130.770649 
L 519.414182 130.770649 
L 519.698818 131.114803 
L 520.837364 131.114803 
L 521.122 131.458956 
L 522.260545 131.458956 
L 522.545182 131.80311 
L 523.683727 131.80311 
L 523.968364 132.147264 
L 525.106909 132.147264 
L 525.391545 132.491417 
L 526.530091 132.491417 
L 526.814727 132.835571 
L 527.953273 132.835571 
L 528.237909 133.179725 
L 529.376455 133.179725 
L 529.661091 133.523878 
L 530.799636 133.523878 
L 531.084273 133.868032 
L 532.222818 133.868032 
L 532.507455 134.556339 
L 533.646 134.556339 
L 533.930636 134.900493 
L 535.069182 134.900493 
L 535.353818 135.244647 
L 536.492364 135.244647 
L 536.777 135.5888 
L 537.915545 135.5888 
L 538.200182 135.932954 
L 539.338727 135.932954 
L 539.623364 136.277108 
L 540.761909 136.277108 
L 541.046545 136.621262 
L 541.900455 136.621262 
L 542.185091 136.965415 
L 543.323636 136.965415 
L 543.608273 137.309569 
L 544.746818 137.309569 
L 545.031455 137.653723 
L 546.17 137.653723 
L 546.454636 138.34203 
L 547.593182 138.34203 
L 547.877818 138.686184 
L 549.016364 138.686184 
L 549.301 139.030337 
L 550.439545 139.030337 
L 550.724182 139.374491 
L 551.862727 139.374491 
L 552.147364 139.718645 
L 553.285909 139.718645 
L 553.570545 140.062798 
L 554.709091 140.062798 
L 554.993727 140.406952 
L 556.132273 140.406952 
L 556.416909 140.751106 
L 557.555455 140.751106 
L 557.840091 141.095259 
L 558.978636 141.095259 
L 559.263273 141.439413 
L 560.401818 141.439413 
L 560.686455 142.12772 
L 561.825 142.12772 
L 562.109636 142.471874 
L 563.248182 142.471874 
L 563.532818 142.816028 
L 564.671364 142.816028 
L 564.956 143.160182 
L 566.094545 143.160182 
L 566.379182 143.504335 
L 567.517727 143.504335 
L 567.802364 143.848489 
L 568.940909 143.848489 
L 569.225545 144.192643 
L 570.364091 144.192643 
L 570.648727 144.536796 
L 571.787273 144.536796 
L 572.071909 144.88095 
L 573.210455 144.88095 
L 573.495091 145.225104 
L 574.349 145.225104 
L 574.918273 145.913411 
L 576.056818 145.913411 
L 576.341455 146.257565 
L 577.48 146.257565 
L 577.764636 146.601718 
L 578.903182 146.601718 
L 579.187818 146.945872 
L 580.326364 146.945872 
L 580.611 147.290026 
L 581.749545 147.290026 
L 582.034182 147.634179 
L 583.172727 147.634179 
L 583.457364 147.978333 
L 584.595909 147.978333 
L 584.880545 148.322487 
L 586.019091 148.322487 
L 586.303727 148.66664 
L 587.442273 148.66664 
L 587.726909 149.010794 
L 588.296182 149.010794 
L 588.580818 149.354948 
L 588.865455 149.354948 
L 589.150091 149.699101 
L 590.288636 149.699101 
L 590.573273 150.043255 
L 591.711818 150.043255 
L 591.996455 150.387409 
L 593.135 150.387409 
L 593.419636 150.731563 
L 594.558182 150.731563 
L 594.842818 151.075716 
L 595.981364 151.075716 
L 596.266 151.41987 
L 597.404545 151.41987 
L 597.689182 151.764024 
L 598.827727 151.764024 
L 599.112364 152.108177 
L 600.250909 152.108177 
L 600.535545 152.452331 
L 601.674091 152.452331 
L 601.958727 152.796485 
L 602.243364 152.796485 
L 602.528 153.140638 
L 603.097273 153.140638 
L 603.381909 153.484792 
L 604.520455 153.484792 
L 604.805091 153.828946 
L 605.943636 153.828946 
L 606.228273 154.173099 
L 607.366818 154.173099 
L 607.651455 154.517253 
L 608.79 154.517253 
L 609.074636 154.861407 
L 610.213182 154.861407 
L 610.497818 155.20556 
L 611.636364 155.20556 
L 611.921 155.549714 
L 613.059545 155.549714 
L 613.344182 155.893868 
L 614.482727 155.893868 
L 614.767364 156.238021 
L 615.905909 156.238021 
L 616.475182 156.926329 
L 617.329091 156.926329 
L 617.613727 157.270483 
L 618.752273 157.270483 
L 619.036909 157.614636 
L 620.175455 157.614636 
L 620.460091 157.95879 
L 621.598636 157.95879 
L 621.883273 158.302944 
L 623.021818 158.302944 
L 623.306455 158.647097 
L 624.445 158.647097 
L 624.729636 158.991251 
L 625.868182 158.991251 
L 626.152818 159.335405 
L 627.291364 159.335405 
L 627.576 159.679558 
L 628.714545 159.679558 
L 628.999182 160.023712 
L 630.137727 160.023712 
L 630.422364 160.712019 
L 631.560909 160.712019 
L 631.845545 161.056173 
L 632.984091 161.056173 
L 633.268727 161.400327 
L 634.407273 161.400327 
L 634.691909 161.74448 
L 635.830455 161.74448 
L 636.115091 162.088634 
L 637.253636 162.088634 
L 637.538273 162.432788 
L 638.676818 162.432788 
L 638.961455 162.776941 
L 640.1 162.776941 
L 640.384636 163.121095 
L 641.523182 163.121095 
L 641.807818 163.465249 
L 642.946364 163.465249 
L 643.231 163.809403 
L 644.369545 163.809403 
L 644.654182 164.49771 
L 645.792727 164.49771 
L 646.077364 164.841864 
L 647.215909 164.841864 
L 647.500545 165.186017 
L 648.639091 165.186017 
L 648.923727 165.530171 
L 650.062273 165.530171 
L 650.346909 165.874325 
L 651.485455 165.874325 
L 651.770091 166.218478 
L 652.908636 166.218478 
L 653.193273 166.562632 
L 654.331818 166.562632 
L 654.616455 166.906786 
L 655.755 166.906786 
L 656.039636 167.250939 
L 657.178182 167.250939 
L 657.462818 167.595093 
L 658.316727 167.595093 
L 658.886 168.2834 
L 660.024545 168.2834 
L 660.309182 168.627554 
L 661.447727 168.627554 
L 661.732364 168.971708 
L 662.870909 168.971708 
L 663.155545 169.315861 
L 664.294091 169.315861 
L 664.578727 169.660015 
L 665.717273 169.660015 
L 666.001909 170.004169 
L 667.140455 170.004169 
L 667.425091 170.348322 
L 668.563636 170.348322 
L 668.848273 170.692476 
L 669.986818 170.692476 
L 670.271455 171.03663 
L 671.41 171.03663 
L 671.694636 171.380784 
L 672.263909 171.380784 
L 672.548545 171.724937 
L 672.833182 171.724937 
L 673.117818 172.069091 
L 674.256364 172.069091 
L 674.256364 172.069091 
" style="fill:none;stroke:#1f77b4;stroke-linecap:square;stroke-width:1.5;"/>
   </g>
   <g id="patch_3">
    <path d="M 76.52 177.24 
L 76.52 63.48 
" style="fill:none;stroke:#000000;stroke-linecap:square;stroke-linejoin:miter;stroke-width:0.8;"/>
   </g>
   <g id="patch_4">
    <path d="M 702.72 177.24 
L 702.72 63.48 
" style="fill:none;stroke:#000000;stroke-linecap:square;stroke-linejoin:miter;stroke-width:0.8;"/>
   </g>
   <g id="patch_5">
    <path d="M 76.52 177.24 
L 702.72 177.24 
" style="fill:none;stroke:#000000;stroke-linecap:square;stroke-linejoin:miter;stroke-width:0.8;"/>
   </g>
   <g id="patch_6">
    <path d="M 76.52 63.48 
L 702.72 63.48 
" style="fill:none;stroke:#000000;stroke-linecap:square;stroke-linejoin:miter;stroke-width:0.8;"/>
   </g>
  </g>
  <g id="axes_2">
   <g id="patch_7">
    <path d="M 76.52 348.08 
L 702.72 348.08 
L 702.72 234.32 
L 76.52 234.32 
z
" style="fill:#ffffff;"/>
   </g>
   <g id="matplotlib.axis_3">
    <g id="xtick_10">
     <g id="line2d_14">
      <g>
       <use style="stroke:#000000;stroke-width:0.8;" x="104.983636" xlink:href="#m9b7c390394" y="348.08"/>
      </g>
     </g>
     <g id="text_16">
      <!-- 0 -->
      <g transform="translate(99.893636 367.2375)scale(0.16 -0.16)">
       <use xlink:href="#DejaVuSans-30"/>
      </g>
     </g>
    </g>
    <g id="xtick_11">
     <g id="line2d_15">
      <g>
       <use style="stroke:#000000;stroke-width:0.8;" x="176.142727" xlink:href="#m9b7c390394" y="348.08"/>
      </g>
     </g>
     <g id="text_17">
      <!-- 25 -->
      <g transform="translate(165.962727 367.2375)scale(0.16 -0.16)">
       <use xlink:href="#DejaVuSans-32"/>
       <use x="63.623047" xlink:href="#DejaVuSans-35"/>
      </g>
     </g>
    </g>
    <g id="xtick_12">
     <g id="line2d_16">
      <g>
       <use style="stroke:#000000;stroke-width:0.8;" x="247.301818" xlink:href="#m9b7c390394" y="348.08"/>
      </g>
     </g>
     <g id="text_18">
      <!-- 50 -->
      <g transform="translate(237.121818 367.2375)scale(0.16 -0.16)">
       <use xlink:href="#DejaVuSans-35"/>
       <use x="63.623047" xlink:href="#DejaVuSans-30"/>
      </g>
     </g>
    </g>
    <g id="xtick_13">
     <g id="line2d_17">
      <g>
       <use style="stroke:#000000;stroke-width:0.8;" x="318.460909" xlink:href="#m9b7c390394" y="348.08"/>
      </g>
     </g>
     <g id="text_19">
      <!-- 75 -->
      <g transform="translate(308.280909 367.2375)scale(0.16 -0.16)">
       <use xlink:href="#DejaVuSans-37"/>
       <use x="63.623047" xlink:href="#DejaVuSans-35"/>
      </g>
     </g>
    </g>
    <g id="xtick_14">
     <g id="line2d_18">
      <g>
       <use style="stroke:#000000;stroke-width:0.8;" x="389.62" xlink:href="#m9b7c390394" y="348.08"/>
      </g>
     </g>
     <g id="text_20">
      <!-- 100 -->
      <g transform="translate(374.35 367.2375)scale(0.16 -0.16)">
       <use xlink:href="#DejaVuSans-31"/>
       <use x="63.623047" xlink:href="#DejaVuSans-30"/>
       <use x="127.246094" xlink:href="#DejaVuSans-30"/>
      </g>
     </g>
    </g>
    <g id="xtick_15">
     <g id="line2d_19">
      <g>
       <use style="stroke:#000000;stroke-width:0.8;" x="460.779091" xlink:href="#m9b7c390394" y="348.08"/>
      </g>
     </g>
     <g id="text_21">
      <!-- 125 -->
      <g transform="translate(445.509091 367.2375)scale(0.16 -0.16)">
       <use xlink:href="#DejaVuSans-31"/>
       <use x="63.623047" xlink:href="#DejaVuSans-32"/>
       <use x="127.246094" xlink:href="#DejaVuSans-35"/>
      </g>
     </g>
    </g>
    <g id="xtick_16">
     <g id="line2d_20">
      <g>
       <use style="stroke:#000000;stroke-width:0.8;" x="531.938182" xlink:href="#m9b7c390394" y="348.08"/>
      </g>
     </g>
     <g id="text_22">
      <!-- 150 -->
      <g transform="translate(516.668182 367.2375)scale(0.16 -0.16)">
       <use xlink:href="#DejaVuSans-31"/>
       <use x="63.623047" xlink:href="#DejaVuSans-35"/>
       <use x="127.246094" xlink:href="#DejaVuSans-30"/>
      </g>
     </g>
    </g>
    <g id="xtick_17">
     <g id="line2d_21">
      <g>
       <use style="stroke:#000000;stroke-width:0.8;" x="603.097273" xlink:href="#m9b7c390394" y="348.08"/>
      </g>
     </g>
     <g id="text_23">
      <!-- 175 -->
      <g transform="translate(587.827273 367.2375)scale(0.16 -0.16)">
       <use xlink:href="#DejaVuSans-31"/>
       <use x="63.623047" xlink:href="#DejaVuSans-37"/>
       <use x="127.246094" xlink:href="#DejaVuSans-35"/>
      </g>
     </g>
    </g>
    <g id="xtick_18">
     <g id="line2d_22">
      <g>
       <use style="stroke:#000000;stroke-width:0.8;" x="674.256364" xlink:href="#m9b7c390394" y="348.08"/>
      </g>
     </g>
     <g id="text_24">
      <!-- 200 -->
      <g transform="translate(658.986364 367.2375)scale(0.16 -0.16)">
       <use xlink:href="#DejaVuSans-32"/>
       <use x="63.623047" xlink:href="#DejaVuSans-30"/>
       <use x="127.246094" xlink:href="#DejaVuSans-30"/>
      </g>
     </g>
    </g>
    <g id="text_25">
     <!-- Time [s] -->
     <g transform="translate(357.09375 386.7225)scale(0.16 -0.16)">
      <use xlink:href="#DejaVuSans-54"/>
      <use x="57.958984" xlink:href="#DejaVuSans-69"/>
      <use x="85.742188" xlink:href="#DejaVuSans-6d"/>
      <use x="183.154297" xlink:href="#DejaVuSans-65"/>
      <use x="244.677734" xlink:href="#DejaVuSans-20"/>
      <use x="276.464844" xlink:href="#DejaVuSans-5b"/>
      <use x="315.478516" xlink:href="#DejaVuSans-73"/>
      <use x="367.578125" xlink:href="#DejaVuSans-5d"/>
     </g>
    </g>
   </g>
   <g id="matplotlib.axis_4">
    <g id="ytick_4">
     <g id="line2d_23">
      <g>
       <use style="stroke:#000000;stroke-width:0.8;" x="76.52" xlink:href="#m98a5e0ef29" y="343.865974"/>
      </g>
     </g>
     <g id="text_26">
      <!-- −5.0 -->
      <g transform="translate(30.6675 349.944724)scale(0.16 -0.16)">
       <defs>
        <path d="M 684 794 
L 1344 794 
L 1344 0 
L 684 0 
L 684 794 
z
" id="DejaVuSans-2e" transform="scale(0.015625)"/>
       </defs>
       <use xlink:href="#DejaVuSans-2212"/>
       <use x="83.789062" xlink:href="#DejaVuSans-35"/>
       <use x="147.412109" xlink:href="#DejaVuSans-2e"/>
       <use x="179.199219" xlink:href="#DejaVuSans-30"/>
      </g>
     </g>
    </g>
    <g id="ytick_5">
     <g id="line2d_24">
      <g>
       <use style="stroke:#000000;stroke-width:0.8;" x="76.52" xlink:href="#m98a5e0ef29" y="304.169858"/>
      </g>
     </g>
     <g id="text_27">
      <!-- −2.5 -->
      <g transform="translate(30.6675 310.248608)scale(0.16 -0.16)">
       <use xlink:href="#DejaVuSans-2212"/>
       <use x="83.789062" xlink:href="#DejaVuSans-32"/>
       <use x="147.412109" xlink:href="#DejaVuSans-2e"/>
       <use x="179.199219" xlink:href="#DejaVuSans-35"/>
      </g>
     </g>
    </g>
    <g id="ytick_6">
     <g id="line2d_25">
      <g>
       <use style="stroke:#000000;stroke-width:0.8;" x="76.52" xlink:href="#m98a5e0ef29" y="264.473742"/>
      </g>
     </g>
     <g id="text_28">
      <!-- 0.0 -->
      <g transform="translate(44.075 270.552492)scale(0.16 -0.16)">
       <use xlink:href="#DejaVuSans-30"/>
       <use x="63.623047" xlink:href="#DejaVuSans-2e"/>
       <use x="95.410156" xlink:href="#DejaVuSans-30"/>
      </g>
     </g>
    </g>
    <g id="text_29">
     <!-- Position [m] -->
     <g transform="translate(23.34 338.92)rotate(-90)scale(0.16 -0.16)">
      <defs>
       <path d="M 1259 4147 
L 1259 2394 
L 2053 2394 
Q 2494 2394 2734 2622 
Q 2975 2850 2975 3272 
Q 2975 3691 2734 3919 
Q 2494 4147 2053 4147 
L 1259 4147 
z
M 628 4666 
L 2053 4666 
Q 2838 4666 3239 4311 
Q 3641 3956 3641 3272 
Q 3641 2581 3239 2228 
Q 2838 1875 2053 1875 
L 1259 1875 
L 1259 0 
L 628 0 
L 628 4666 
z
" id="DejaVuSans-50" transform="scale(0.015625)"/>
       <path d="M 1959 3097 
Q 1497 3097 1228 2736 
Q 959 2375 959 1747 
Q 959 1119 1226 758 
Q 1494 397 1959 397 
Q 2419 397 2687 759 
Q 2956 1122 2956 1747 
Q 2956 2369 2687 2733 
Q 2419 3097 1959 3097 
z
M 1959 3584 
Q 2709 3584 3137 3096 
Q 3566 2609 3566 1747 
Q 3566 888 3137 398 
Q 2709 -91 1959 -91 
Q 1206 -91 779 398 
Q 353 888 353 1747 
Q 353 2609 779 3096 
Q 1206 3584 1959 3584 
z
" id="DejaVuSans-6f" transform="scale(0.015625)"/>
       <path d="M 3513 2113 
L 3513 0 
L 2938 0 
L 2938 2094 
Q 2938 2591 2744 2837 
Q 2550 3084 2163 3084 
Q 1697 3084 1428 2787 
Q 1159 2491 1159 1978 
L 1159 0 
L 581 0 
L 581 3500 
L 1159 3500 
L 1159 2956 
Q 1366 3272 1645 3428 
Q 1925 3584 2291 3584 
Q 2894 3584 3203 3211 
Q 3513 2838 3513 2113 
z
" id="DejaVuSans-6e" transform="scale(0.015625)"/>
      </defs>
      <use xlink:href="#DejaVuSans-50"/>
      <use x="56.677734" xlink:href="#DejaVuSans-6f"/>
      <use x="117.859375" xlink:href="#DejaVuSans-73"/>
      <use x="169.958984" xlink:href="#DejaVuSans-69"/>
      <use x="197.742188" xlink:href="#DejaVuSans-74"/>
      <use x="236.951172" xlink:href="#DejaVuSans-69"/>
      <use x="264.734375" xlink:href="#DejaVuSans-6f"/>
      <use x="325.916016" xlink:href="#DejaVuSans-6e"/>
      <use x="389.294922" xlink:href="#DejaVuSans-20"/>
      <use x="421.082031" xlink:href="#DejaVuSans-5b"/>
      <use x="460.095703" xlink:href="#DejaVuSans-6d"/>
      <use x="557.507812" xlink:href="#DejaVuSans-5d"/>
     </g>
    </g>
   </g>
   <g id="line2d_26">
    <path clip-path="url(#pa6ae69faaa)" d="M 104.983636 239.531937 
L 113.522727 239.645086 
L 122.061818 239.978611 
L 130.600909 240.529546 
L 139.424636 241.322028 
L 148.533 242.370091 
L 157.641364 243.641324 
L 167.034364 245.172413 
L 176.996636 247.02233 
L 187.528182 249.206574 
L 198.913636 251.798653 
L 211.722273 254.951384 
L 226.808 258.903046 
L 250.432818 265.357623 
L 274.911545 271.97615 
L 289.428 275.673089 
L 301.952 278.635113 
L 313.052818 281.036141 
L 323.299727 283.032633 
L 333.262 284.746336 
L 342.655 286.137989 
L 351.763364 287.265249 
L 360.587091 288.137736 
L 369.410818 288.785779 
L 377.949909 289.193411 
L 386.489 289.381454 
L 395.028091 289.348235 
L 403.567182 289.094042 
L 412.106273 288.621127 
L 420.93 287.907137 
L 429.753727 286.970849 
L 438.862091 285.780605 
L 448.255091 284.327714 
L 457.932727 282.607713 
L 468.179636 280.561383 
L 479.280455 278.113067 
L 491.519818 275.177694 
L 505.467 271.597554 
L 523.968364 266.602168 
L 561.825 256.33083 
L 576.056818 252.739913 
L 588.296182 249.879015 
L 599.397 247.512368 
L 609.643909 245.552261 
L 619.321545 243.922226 
L 628.714545 242.563595 
L 637.822909 241.470317 
L 646.646636 240.632255 
L 655.470364 240.019772 
L 664.009455 239.647308 
L 672.548545 239.494848 
L 674.256364 239.490909 
L 674.256364 239.490909 
" style="fill:none;stroke:#1f77b4;stroke-linecap:square;stroke-width:1.5;"/>
   </g>
   <g id="line2d_27">
    <path clip-path="url(#pa6ae69faaa)" d="M 104.983636 264.552099 
L 132.593364 275.83444 
L 147.394455 281.639644 
L 159.918455 286.320888 
L 171.303909 290.342218 
L 181.835455 293.828344 
L 191.797727 296.893779 
L 201.190727 299.558414 
L 210.299091 301.918898 
L 219.407455 304.048105 
L 228.231182 305.881863 
L 237.054909 307.484396 
L 245.594 308.811596 
L 254.133091 309.917445 
L 262.672182 310.80256 
L 271.211273 311.469517 
L 280.035 311.934328 
L 288.858727 312.178131 
L 297.967091 312.207751 
L 307.360091 312.015023 
L 317.037727 311.596061 
L 327.284636 310.930673 
L 338.385455 309.982727 
L 350.624818 308.70735 
L 364.856636 306.990474 
L 384.211909 304.408862 
L 417.799 299.912659 
L 432.030818 298.252944 
L 444.270182 297.04463 
L 455.371 296.170763 
L 465.617909 295.583959 
L 475.295545 295.247281 
L 484.688545 295.141008 
L 493.796909 295.259777 
L 502.620636 295.594074 
L 511.444364 296.152581 
L 519.983455 296.91242 
L 528.522545 297.891759 
L 537.061636 299.092336 
L 545.600727 300.513928 
L 554.424455 302.212755 
L 563.248182 304.140643 
L 572.356545 306.363796 
L 581.464909 308.81402 
L 591.142545 311.652632 
L 601.104818 314.810085 
L 611.636364 318.383837 
L 623.021818 322.487403 
L 635.545818 327.242614 
L 650.346909 333.111114 
L 671.125364 341.616353 
L 674.256364 342.909091 
L 674.256364 342.909091 
" style="fill:none;stroke:#ff7f0e;stroke-linecap:square;stroke-width:1.5;"/>
   </g>
   <g id="patch_8">
    <path d="M 76.52 348.08 
L 76.52 234.32 
" style="fill:none;stroke:#000000;stroke-linecap:square;stroke-linejoin:miter;stroke-width:0.8;"/>
   </g>
   <g id="patch_9">
    <path d="M 702.72 348.08 
L 702.72 234.32 
" style="fill:none;stroke:#000000;stroke-linecap:square;stroke-linejoin:miter;stroke-width:0.8;"/>
   </g>
   <g id="patch_10">
    <path d="M 76.52 348.08 
L 702.72 348.08 
" style="fill:none;stroke:#000000;stroke-linecap:square;stroke-linejoin:miter;stroke-width:0.8;"/>
   </g>
   <g id="patch_11">
    <path d="M 76.52 234.32 
L 702.72 234.32 
" style="fill:none;stroke:#000000;stroke-linecap:square;stroke-linejoin:miter;stroke-width:0.8;"/>
   </g>
   <g id="legend_1">
    <g id="patch_12">
     <path d="M 592.0675 317.53 
L 691.52 317.53 
Q 694.72 317.53 694.72 314.33 
L 694.72 268.07 
Q 694.72 264.87 691.52 264.87 
L 592.0675 264.87 
Q 588.8675 264.87 588.8675 268.07 
L 588.8675 314.33 
Q 588.8675 317.53 592.0675 317.53 
z
" style="fill:#ffffff;opacity:0.8;stroke:#cccccc;stroke-linejoin:miter;"/>
    </g>
    <g id="line2d_28">
     <path d="M 595.2675 277.8275 
L 627.2675 277.8275 
" style="fill:none;stroke:#1f77b4;stroke-linecap:square;stroke-width:1.5;"/>
    </g>
    <g id="line2d_29"/>
    <g id="text_30">
     <!-- pos_E -->
     <g transform="translate(640.0675 283.4275)scale(0.16 -0.16)">
      <defs>
       <path d="M 1159 525 
L 1159 -1331 
L 581 -1331 
L 581 3500 
L 1159 3500 
L 1159 2969 
Q 1341 3281 1617 3432 
Q 1894 3584 2278 3584 
Q 2916 3584 3314 3078 
Q 3713 2572 3713 1747 
Q 3713 922 3314 415 
Q 2916 -91 2278 -91 
Q 1894 -91 1617 61 
Q 1341 213 1159 525 
z
M 3116 1747 
Q 3116 2381 2855 2742 
Q 2594 3103 2138 3103 
Q 1681 3103 1420 2742 
Q 1159 2381 1159 1747 
Q 1159 1113 1420 752 
Q 1681 391 2138 391 
Q 2594 391 2855 752 
Q 3116 1113 3116 1747 
z
" id="DejaVuSans-70" transform="scale(0.015625)"/>
       <path d="M 3263 -1063 
L 3263 -1509 
L -63 -1509 
L -63 -1063 
L 3263 -1063 
z
" id="DejaVuSans-5f" transform="scale(0.015625)"/>
       <path d="M 628 4666 
L 3578 4666 
L 3578 4134 
L 1259 4134 
L 1259 2753 
L 3481 2753 
L 3481 2222 
L 1259 2222 
L 1259 531 
L 3634 531 
L 3634 0 
L 628 0 
L 628 4666 
z
" id="DejaVuSans-45" transform="scale(0.015625)"/>
      </defs>
      <use xlink:href="#DejaVuSans-70"/>
      <use x="63.476562" xlink:href="#DejaVuSans-6f"/>
      <use x="124.658203" xlink:href="#DejaVuSans-73"/>
      <use x="176.757812" xlink:href="#DejaVuSans-5f"/>
      <use x="226.757812" xlink:href="#DejaVuSans-45"/>
     </g>
    </g>
    <g id="line2d_30">
     <path d="M 595.2675 301.7575 
L 627.2675 301.7575 
" style="fill:none;stroke:#ff7f0e;stroke-linecap:square;stroke-width:1.5;"/>
    </g>
    <g id="line2d_31"/>
    <g id="text_31">
     <!-- pos_N -->
     <g transform="translate(640.0675 307.3575)scale(0.16 -0.16)">
      <defs>
       <path d="M 628 4666 
L 1478 4666 
L 3547 763 
L 3547 4666 
L 4159 4666 
L 4159 0 
L 3309 0 
L 1241 3903 
L 1241 0 
L 628 0 
L 628 4666 
z
" id="DejaVuSans-4e" transform="scale(0.015625)"/>
      </defs>
      <use xlink:href="#DejaVuSans-70"/>
      <use x="63.476562" xlink:href="#DejaVuSans-6f"/>
      <use x="124.658203" xlink:href="#DejaVuSans-73"/>
      <use x="176.757812" xlink:href="#DejaVuSans-5f"/>
      <use x="226.757812" xlink:href="#DejaVuSans-4e"/>
     </g>
    </g>
   </g>
  </g>
  <g id="axes_3">
   <g id="patch_13">
    <path d="M 76.52 518.92 
L 702.72 518.92 
L 702.72 405.16 
L 76.52 405.16 
z
" style="fill:#ffffff;"/>
   </g>
   <g id="matplotlib.axis_5">
    <g id="xtick_19">
     <g id="line2d_32">
      <g>
       <use style="stroke:#000000;stroke-width:0.8;" x="104.983636" xlink:href="#m9b7c390394" y="518.92"/>
      </g>
     </g>
     <g id="text_32">
      <!-- 0 -->
      <g transform="translate(99.893636 538.0775)scale(0.16 -0.16)">
       <use xlink:href="#DejaVuSans-30"/>
      </g>
     </g>
    </g>
    <g id="xtick_20">
     <g id="line2d_33">
      <g>
       <use style="stroke:#000000;stroke-width:0.8;" x="176.142727" xlink:href="#m9b7c390394" y="518.92"/>
      </g>
     </g>
     <g id="text_33">
      <!-- 25 -->
      <g transform="translate(165.962727 538.0775)scale(0.16 -0.16)">
       <use xlink:href="#DejaVuSans-32"/>
       <use x="63.623047" xlink:href="#DejaVuSans-35"/>
      </g>
     </g>
    </g>
    <g id="xtick_21">
     <g id="line2d_34">
      <g>
       <use style="stroke:#000000;stroke-width:0.8;" x="247.301818" xlink:href="#m9b7c390394" y="518.92"/>
      </g>
     </g>
     <g id="text_34">
      <!-- 50 -->
      <g transform="translate(237.121818 538.0775)scale(0.16 -0.16)">
       <use xlink:href="#DejaVuSans-35"/>
       <use x="63.623047" xlink:href="#DejaVuSans-30"/>
      </g>
     </g>
    </g>
    <g id="xtick_22">
     <g id="line2d_35">
      <g>
       <use style="stroke:#000000;stroke-width:0.8;" x="318.460909" xlink:href="#m9b7c390394" y="518.92"/>
      </g>
     </g>
     <g id="text_35">
      <!-- 75 -->
      <g transform="translate(308.280909 538.0775)scale(0.16 -0.16)">
       <use xlink:href="#DejaVuSans-37"/>
       <use x="63.623047" xlink:href="#DejaVuSans-35"/>
      </g>
     </g>
    </g>
    <g id="xtick_23">
     <g id="line2d_36">
      <g>
       <use style="stroke:#000000;stroke-width:0.8;" x="389.62" xlink:href="#m9b7c390394" y="518.92"/>
      </g>
     </g>
     <g id="text_36">
      <!-- 100 -->
      <g transform="translate(374.35 538.0775)scale(0.16 -0.16)">
       <use xlink:href="#DejaVuSans-31"/>
       <use x="63.623047" xlink:href="#DejaVuSans-30"/>
       <use x="127.246094" xlink:href="#DejaVuSans-30"/>
      </g>
     </g>
    </g>
    <g id="xtick_24">
     <g id="line2d_37">
      <g>
       <use style="stroke:#000000;stroke-width:0.8;" x="460.779091" xlink:href="#m9b7c390394" y="518.92"/>
      </g>
     </g>
     <g id="text_37">
      <!-- 125 -->
      <g transform="translate(445.509091 538.0775)scale(0.16 -0.16)">
       <use xlink:href="#DejaVuSans-31"/>
       <use x="63.623047" xlink:href="#DejaVuSans-32"/>
       <use x="127.246094" xlink:href="#DejaVuSans-35"/>
      </g>
     </g>
    </g>
    <g id="xtick_25">
     <g id="line2d_38">
      <g>
       <use style="stroke:#000000;stroke-width:0.8;" x="531.938182" xlink:href="#m9b7c390394" y="518.92"/>
      </g>
     </g>
     <g id="text_38">
      <!-- 150 -->
      <g transform="translate(516.668182 538.0775)scale(0.16 -0.16)">
       <use xlink:href="#DejaVuSans-31"/>
       <use x="63.623047" xlink:href="#DejaVuSans-35"/>
       <use x="127.246094" xlink:href="#DejaVuSans-30"/>
      </g>
     </g>
    </g>
    <g id="xtick_26">
     <g id="line2d_39">
      <g>
       <use style="stroke:#000000;stroke-width:0.8;" x="603.097273" xlink:href="#m9b7c390394" y="518.92"/>
      </g>
     </g>
     <g id="text_39">
      <!-- 175 -->
      <g transform="translate(587.827273 538.0775)scale(0.16 -0.16)">
       <use xlink:href="#DejaVuSans-31"/>
       <use x="63.623047" xlink:href="#DejaVuSans-37"/>
       <use x="127.246094" xlink:href="#DejaVuSans-35"/>
      </g>
     </g>
    </g>
    <g id="xtick_27">
     <g id="line2d_40">
      <g>
       <use style="stroke:#000000;stroke-width:0.8;" x="674.256364" xlink:href="#m9b7c390394" y="518.92"/>
      </g>
     </g>
     <g id="text_40">
      <!-- 200 -->
      <g transform="translate(658.986364 538.0775)scale(0.16 -0.16)">
       <use xlink:href="#DejaVuSans-32"/>
       <use x="63.623047" xlink:href="#DejaVuSans-30"/>
       <use x="127.246094" xlink:href="#DejaVuSans-30"/>
      </g>
     </g>
    </g>
    <g id="text_41">
     <!-- Time [s] -->
     <g transform="translate(357.09375 557.5625)scale(0.16 -0.16)">
      <use xlink:href="#DejaVuSans-54"/>
      <use x="57.958984" xlink:href="#DejaVuSans-69"/>
      <use x="85.742188" xlink:href="#DejaVuSans-6d"/>
      <use x="183.154297" xlink:href="#DejaVuSans-65"/>
      <use x="244.677734" xlink:href="#DejaVuSans-20"/>
      <use x="276.464844" xlink:href="#DejaVuSans-5b"/>
      <use x="315.478516" xlink:href="#DejaVuSans-73"/>
      <use x="367.578125" xlink:href="#DejaVuSans-5d"/>
     </g>
    </g>
   </g>
   <g id="matplotlib.axis_6">
    <g id="ytick_7">
     <g id="line2d_41">
      <g>
       <use style="stroke:#000000;stroke-width:0.8;" x="76.52" xlink:href="#m98a5e0ef29" y="476.065766"/>
      </g>
     </g>
     <g id="text_42">
      <!-- −10 -->
      <g transform="translate(35.7525 482.144516)scale(0.16 -0.16)">
       <use xlink:href="#DejaVuSans-2212"/>
       <use x="83.789062" xlink:href="#DejaVuSans-31"/>
       <use x="147.412109" xlink:href="#DejaVuSans-30"/>
      </g>
     </g>
    </g>
    <g id="ytick_8">
     <g id="line2d_42">
      <g>
       <use style="stroke:#000000;stroke-width:0.8;" x="76.52" xlink:href="#m98a5e0ef29" y="410.330909"/>
      </g>
     </g>
     <g id="text_43">
      <!-- 0 -->
      <g transform="translate(59.34 416.409659)scale(0.16 -0.16)">
       <use xlink:href="#DejaVuSans-30"/>
      </g>
     </g>
    </g>
    <g id="text_44">
     <!-- Velocity [m/s] -->
     <g transform="translate(23.34 516.865)rotate(-90)scale(0.16 -0.16)">
      <defs>
       <path d="M 1831 0 
L 50 4666 
L 709 4666 
L 2188 738 
L 3669 4666 
L 4325 4666 
L 2547 0 
L 1831 0 
z
" id="DejaVuSans-56" transform="scale(0.015625)"/>
       <path d="M 603 4863 
L 1178 4863 
L 1178 0 
L 603 0 
L 603 4863 
z
" id="DejaVuSans-6c" transform="scale(0.015625)"/>
       <path d="M 3122 3366 
L 3122 2828 
Q 2878 2963 2633 3030 
Q 2388 3097 2138 3097 
Q 1578 3097 1268 2742 
Q 959 2388 959 1747 
Q 959 1106 1268 751 
Q 1578 397 2138 397 
Q 2388 397 2633 464 
Q 2878 531 3122 666 
L 3122 134 
Q 2881 22 2623 -34 
Q 2366 -91 2075 -91 
Q 1284 -91 818 406 
Q 353 903 353 1747 
Q 353 2603 823 3093 
Q 1294 3584 2113 3584 
Q 2378 3584 2631 3529 
Q 2884 3475 3122 3366 
z
" id="DejaVuSans-63" transform="scale(0.015625)"/>
       <path d="M 2059 -325 
Q 1816 -950 1584 -1140 
Q 1353 -1331 966 -1331 
L 506 -1331 
L 506 -850 
L 844 -850 
Q 1081 -850 1212 -737 
Q 1344 -625 1503 -206 
L 1606 56 
L 191 3500 
L 800 3500 
L 1894 763 
L 2988 3500 
L 3597 3500 
L 2059 -325 
z
" id="DejaVuSans-79" transform="scale(0.015625)"/>
       <path d="M 1625 4666 
L 2156 4666 
L 531 -594 
L 0 -594 
L 1625 4666 
z
" id="DejaVuSans-2f" transform="scale(0.015625)"/>
      </defs>
      <use xlink:href="#DejaVuSans-56"/>
      <use x="60.658203" xlink:href="#DejaVuSans-65"/>
      <use x="122.181641" xlink:href="#DejaVuSans-6c"/>
      <use x="149.964844" xlink:href="#DejaVuSans-6f"/>
      <use x="211.146484" xlink:href="#DejaVuSans-63"/>
      <use x="266.126953" xlink:href="#DejaVuSans-69"/>
      <use x="293.910156" xlink:href="#DejaVuSans-74"/>
      <use x="333.119141" xlink:href="#DejaVuSans-79"/>
      <use x="392.298828" xlink:href="#DejaVuSans-20"/>
      <use x="424.085938" xlink:href="#DejaVuSans-5b"/>
      <use x="463.099609" xlink:href="#DejaVuSans-6d"/>
      <use x="560.511719" xlink:href="#DejaVuSans-2f"/>
      <use x="594.203125" xlink:href="#DejaVuSans-73"/>
      <use x="646.302734" xlink:href="#DejaVuSans-5d"/>
     </g>
    </g>
   </g>
   <g id="line2d_43">
    <path clip-path="url(#p8fe8023dce)" d="M 104.983636 513.586982 
L 256.979455 513.748157 
L 373.965 513.614699 
L 543.608273 513.426057 
L 661.732364 513.564632 
L 674.256364 513.586982 
L 674.256364 513.586982 
" style="fill:none;stroke:#1f77b4;stroke-linecap:square;stroke-width:1.5;"/>
   </g>
   <g id="line2d_44">
    <path clip-path="url(#p8fe8023dce)" d="M 104.983636 410.655298 
L 218.268909 410.544112 
L 406.982818 410.333894 
L 528.237909 410.486566 
L 674.256364 410.655298 
L 674.256364 410.655298 
" style="fill:none;stroke:#ff7f0e;stroke-linecap:square;stroke-width:1.5;"/>
   </g>
   <g id="patch_14">
    <path d="M 76.52 518.92 
L 76.52 405.16 
" style="fill:none;stroke:#000000;stroke-linecap:square;stroke-linejoin:miter;stroke-width:0.8;"/>
   </g>
   <g id="patch_15">
    <path d="M 702.72 518.92 
L 702.72 405.16 
" style="fill:none;stroke:#000000;stroke-linecap:square;stroke-linejoin:miter;stroke-width:0.8;"/>
   </g>
   <g id="patch_16">
    <path d="M 76.52 518.92 
L 702.72 518.92 
" style="fill:none;stroke:#000000;stroke-linecap:square;stroke-linejoin:miter;stroke-width:0.8;"/>
   </g>
   <g id="patch_17">
    <path d="M 76.52 405.16 
L 702.72 405.16 
" style="fill:none;stroke:#000000;stroke-linecap:square;stroke-linejoin:miter;stroke-width:0.8;"/>
   </g>
   <g id="legend_2">
    <g id="patch_18">
     <path d="M 596.59 465.82 
L 691.52 465.82 
Q 694.72 465.82 694.72 462.62 
L 694.72 416.36 
Q 694.72 413.16 691.52 413.16 
L 596.59 413.16 
Q 593.39 413.16 593.39 416.36 
L 593.39 462.62 
Q 593.39 465.82 596.59 465.82 
z
" style="fill:#ffffff;opacity:0.8;stroke:#cccccc;stroke-linejoin:miter;"/>
    </g>
    <g id="line2d_45">
     <path d="M 599.79 426.1175 
L 631.79 426.1175 
" style="fill:none;stroke:#1f77b4;stroke-linecap:square;stroke-width:1.5;"/>
    </g>
    <g id="line2d_46"/>
    <g id="text_45">
     <!-- vel_E -->
     <g transform="translate(644.59 431.7175)scale(0.16 -0.16)">
      <defs>
       <path d="M 191 3500 
L 800 3500 
L 1894 563 
L 2988 3500 
L 3597 3500 
L 2284 0 
L 1503 0 
L 191 3500 
z
" id="DejaVuSans-76" transform="scale(0.015625)"/>
      </defs>
      <use xlink:href="#DejaVuSans-76"/>
      <use x="59.179688" xlink:href="#DejaVuSans-65"/>
      <use x="120.703125" xlink:href="#DejaVuSans-6c"/>
      <use x="148.486328" xlink:href="#DejaVuSans-5f"/>
      <use x="198.486328" xlink:href="#DejaVuSans-45"/>
     </g>
    </g>
    <g id="line2d_47">
     <path d="M 599.79 450.0475 
L 631.79 450.0475 
" style="fill:none;stroke:#ff7f0e;stroke-linecap:square;stroke-width:1.5;"/>
    </g>
    <g id="line2d_48"/>
    <g id="text_46">
     <!-- vel_N -->
     <g transform="translate(644.59 455.6475)scale(0.16 -0.16)">
      <use xlink:href="#DejaVuSans-76"/>
      <use x="59.179688" xlink:href="#DejaVuSans-65"/>
      <use x="120.703125" xlink:href="#DejaVuSans-6c"/>
      <use x="148.486328" xlink:href="#DejaVuSans-5f"/>
      <use x="198.486328" xlink:href="#DejaVuSans-4e"/>
     </g>
    </g>
   </g>
  </g>
  <g id="text_47">
   <!-- Deviation from true trajectory (PVA) -->
   <g transform="translate(216.10625 23.6775)scale(0.16 -0.16)">
    <defs>
     <path d="M 1259 4147 
L 1259 519 
L 2022 519 
Q 2988 519 3436 956 
Q 3884 1394 3884 2338 
Q 3884 3275 3436 3711 
Q 2988 4147 2022 4147 
L 1259 4147 
z
M 628 4666 
L 1925 4666 
Q 3281 4666 3915 4102 
Q 4550 3538 4550 2338 
Q 4550 1131 3912 565 
Q 3275 0 1925 0 
L 628 0 
L 628 4666 
z
" id="DejaVuSans-44" transform="scale(0.015625)"/>
     <path d="M 2375 4863 
L 2375 4384 
L 1825 4384 
Q 1516 4384 1395 4259 
Q 1275 4134 1275 3809 
L 1275 3500 
L 2222 3500 
L 2222 3053 
L 1275 3053 
L 1275 0 
L 697 0 
L 697 3053 
L 147 3053 
L 147 3500 
L 697 3500 
L 697 3744 
Q 697 4328 969 4595 
Q 1241 4863 1831 4863 
L 2375 4863 
z
" id="DejaVuSans-66" transform="scale(0.015625)"/>
     <path d="M 603 3500 
L 1178 3500 
L 1178 -63 
Q 1178 -731 923 -1031 
Q 669 -1331 103 -1331 
L -116 -1331 
L -116 -844 
L 38 -844 
Q 366 -844 484 -692 
Q 603 -541 603 -63 
L 603 3500 
z
M 603 4863 
L 1178 4863 
L 1178 4134 
L 603 4134 
L 603 4863 
z
" id="DejaVuSans-6a" transform="scale(0.015625)"/>
     <path d="M 1984 4856 
Q 1566 4138 1362 3434 
Q 1159 2731 1159 2009 
Q 1159 1288 1364 580 
Q 1569 -128 1984 -844 
L 1484 -844 
Q 1016 -109 783 600 
Q 550 1309 550 2009 
Q 550 2706 781 3412 
Q 1013 4119 1484 4856 
L 1984 4856 
z
" id="DejaVuSans-28" transform="scale(0.015625)"/>
     <path d="M 513 4856 
L 1013 4856 
Q 1481 4119 1714 3412 
Q 1947 2706 1947 2009 
Q 1947 1309 1714 600 
Q 1481 -109 1013 -844 
L 513 -844 
Q 928 -128 1133 580 
Q 1338 1288 1338 2009 
Q 1338 2731 1133 3434 
Q 928 4138 513 4856 
z
" id="DejaVuSans-29" transform="scale(0.015625)"/>
    </defs>
    <use xlink:href="#DejaVuSans-44"/>
    <use x="77.001953" xlink:href="#DejaVuSans-65"/>
    <use x="138.525391" xlink:href="#DejaVuSans-76"/>
    <use x="197.705078" xlink:href="#DejaVuSans-69"/>
    <use x="225.488281" xlink:href="#DejaVuSans-61"/>
    <use x="286.767578" xlink:href="#DejaVuSans-74"/>
    <use x="325.976562" xlink:href="#DejaVuSans-69"/>
    <use x="353.759766" xlink:href="#DejaVuSans-6f"/>
    <use x="414.941406" xlink:href="#DejaVuSans-6e"/>
    <use x="478.320312" xlink:href="#DejaVuSans-20"/>
    <use x="510.107422" xlink:href="#DejaVuSans-66"/>
    <use x="545.3125" xlink:href="#DejaVuSans-72"/>
    <use x="584.175781" xlink:href="#DejaVuSans-6f"/>
    <use x="645.357422" xlink:href="#DejaVuSans-6d"/>
    <use x="742.769531" xlink:href="#DejaVuSans-20"/>
    <use x="774.556641" xlink:href="#DejaVuSans-74"/>
    <use x="813.765625" xlink:href="#DejaVuSans-72"/>
    <use x="854.878906" xlink:href="#DejaVuSans-75"/>
    <use x="918.257812" xlink:href="#DejaVuSans-65"/>
    <use x="979.78125" xlink:href="#DejaVuSans-20"/>
    <use x="1011.568359" xlink:href="#DejaVuSans-74"/>
    <use x="1050.777344" xlink:href="#DejaVuSans-72"/>
    <use x="1091.890625" xlink:href="#DejaVuSans-61"/>
    <use x="1153.169922" xlink:href="#DejaVuSans-6a"/>
    <use x="1180.953125" xlink:href="#DejaVuSans-65"/>
    <use x="1242.476562" xlink:href="#DejaVuSans-63"/>
    <use x="1297.457031" xlink:href="#DejaVuSans-74"/>
    <use x="1336.666016" xlink:href="#DejaVuSans-6f"/>
    <use x="1397.847656" xlink:href="#DejaVuSans-72"/>
    <use x="1438.960938" xlink:href="#DejaVuSans-79"/>
    <use x="1498.140625" xlink:href="#DejaVuSans-20"/>
    <use x="1529.927734" xlink:href="#DejaVuSans-28"/>
    <use x="1568.941406" xlink:href="#DejaVuSans-50"/>
    <use x="1629.244141" xlink:href="#DejaVuSans-56"/>
    <use x="1691.277344" xlink:href="#DejaVuSans-41"/>
    <use x="1759.685547" xlink:href="#DejaVuSans-29"/>
   </g>
  </g>
 </g>
 <defs>
  <clipPath id="p1114d47d62">
   <rect height="113.76" width="626.2" x="76.52" y="63.48"/>
  </clipPath>
  <clipPath id="pa6ae69faaa">
   <rect height="113.76" width="626.2" x="76.52" y="234.32"/>
  </clipPath>
  <clipPath id="p8fe8023dce">
   <rect height="113.76" width="626.2" x="76.52" y="405.16"/>
  </clipPath>
 </defs>
</svg>
