<?xml version="1.0" encoding="utf-8" standalone="no"?>
<!DOCTYPE svg PUBLIC "-//W3C//DTD SVG 1.1//EN"
  "http://www.w3.org/Graphics/SVG/1.1/DTD/svg11.dtd">
<svg height="576pt" version="1.1" viewBox="0 0 720 576" width="720pt" xmlns="http://www.w3.org/2000/svg" xmlns:xlink="http://www.w3.org/1999/xlink">
 <metadata>
  <rdf:RDF xmlns:cc="http://creativecommons.org/ns#" xmlns:dc="http://purl.org/dc/elements/1.1/" xmlns:rdf="http://www.w3.org/1999/02/22-rdf-syntax-ns#">
   <cc:Work>
    <dc:type rdf:resource="http://purl.org/dc/dcmitype/StillImage"/>
    <dc:date>2024-04-03T18:15:33.399764</dc:date>
    <dc:format>image/svg+xml</dc:format>
    <dc:creator>
     <cc:Agent>
      <dc:title>Matplotlib v3.4.2, https://matplotlib.org/</dc:title>
     </cc:Agent>
    </dc:creator>
   </cc:Work>
  </rdf:RDF>
 </metadata>
 <defs>
  <style type="text/css">*{stroke-linecap:butt;stroke-linejoin:round;}</style>
 </defs>
 <g id="figure_1">
  <g id="patch_1">
   <path d="M 0 576 
L 720 576 
L 720 0 
L 0 0 
z
" style="fill:#ffffff;"/>
  </g>
  <g id="axes_1">
   <g id="patch_2">
    <path d="M 90 199.567059 
L 648 199.567059 
L 648 69.12 
L 90 69.12 
z
" style="fill:#ffffff;"/>
   </g>
   <g id="matplotlib.axis_1">
    <g id="xtick_1">
     <g id="line2d_1">
      <defs>
       <path d="M 0 0 
L 0 3.5 
" id="m2fd33dc3dc" style="stroke:#000000;stroke-width:0.8;"/>
      </defs>
      <g>
       <use style="stroke:#000000;stroke-width:0.8;" x="115.363636" xlink:href="#m2fd33dc3dc" y="199.567059"/>
      </g>
     </g>
     <g id="text_1">
      <!-- 0 -->
      <g transform="translate(108.364886 223.283621)scale(0.22 -0.22)">
       <defs>
        <path d="M 2034 4250 
Q 1547 4250 1301 3770 
Q 1056 3291 1056 2328 
Q 1056 1369 1301 889 
Q 1547 409 2034 409 
Q 2525 409 2770 889 
Q 3016 1369 3016 2328 
Q 3016 3291 2770 3770 
Q 2525 4250 2034 4250 
z
M 2034 4750 
Q 2819 4750 3233 4129 
Q 3647 3509 3647 2328 
Q 3647 1150 3233 529 
Q 2819 -91 2034 -91 
Q 1250 -91 836 529 
Q 422 1150 422 2328 
Q 422 3509 836 4129 
Q 1250 4750 2034 4750 
z
" id="DejaVuSans-30" transform="scale(0.015625)"/>
       </defs>
       <use xlink:href="#DejaVuSans-30"/>
      </g>
     </g>
    </g>
    <g id="xtick_2">
     <g id="line2d_2">
      <g>
       <use style="stroke:#000000;stroke-width:0.8;" x="242.181818" xlink:href="#m2fd33dc3dc" y="199.567059"/>
      </g>
     </g>
     <g id="text_2">
      <!-- 50 -->
      <g transform="translate(228.184318 223.283621)scale(0.22 -0.22)">
       <defs>
        <path d="M 691 4666 
L 3169 4666 
L 3169 4134 
L 1269 4134 
L 1269 2991 
Q 1406 3038 1543 3061 
Q 1681 3084 1819 3084 
Q 2600 3084 3056 2656 
Q 3513 2228 3513 1497 
Q 3513 744 3044 326 
Q 2575 -91 1722 -91 
Q 1428 -91 1123 -41 
Q 819 9 494 109 
L 494 744 
Q 775 591 1075 516 
Q 1375 441 1709 441 
Q 2250 441 2565 725 
Q 2881 1009 2881 1497 
Q 2881 1984 2565 2268 
Q 2250 2553 1709 2553 
Q 1456 2553 1204 2497 
Q 953 2441 691 2322 
L 691 4666 
z
" id="DejaVuSans-35" transform="scale(0.015625)"/>
       </defs>
       <use xlink:href="#DejaVuSans-35"/>
       <use x="63.623047" xlink:href="#DejaVuSans-30"/>
      </g>
     </g>
    </g>
    <g id="xtick_3">
     <g id="line2d_3">
      <g>
       <use style="stroke:#000000;stroke-width:0.8;" x="369" xlink:href="#m2fd33dc3dc" y="199.567059"/>
      </g>
     </g>
     <g id="text_3">
      <!-- 100 -->
      <g transform="translate(348.00375 223.283621)scale(0.22 -0.22)">
       <defs>
        <path d="M 794 531 
L 1825 531 
L 1825 4091 
L 703 3866 
L 703 4441 
L 1819 4666 
L 2450 4666 
L 2450 531 
L 3481 531 
L 3481 0 
L 794 0 
L 794 531 
z
" id="DejaVuSans-31" transform="scale(0.015625)"/>
       </defs>
       <use xlink:href="#DejaVuSans-31"/>
       <use x="63.623047" xlink:href="#DejaVuSans-30"/>
       <use x="127.246094" xlink:href="#DejaVuSans-30"/>
      </g>
     </g>
    </g>
    <g id="xtick_4">
     <g id="line2d_4">
      <g>
       <use style="stroke:#000000;stroke-width:0.8;" x="495.818182" xlink:href="#m2fd33dc3dc" y="199.567059"/>
      </g>
     </g>
     <g id="text_4">
      <!-- 150 -->
      <g transform="translate(474.821932 223.283621)scale(0.22 -0.22)">
       <use xlink:href="#DejaVuSans-31"/>
       <use x="63.623047" xlink:href="#DejaVuSans-35"/>
       <use x="127.246094" xlink:href="#DejaVuSans-30"/>
      </g>
     </g>
    </g>
    <g id="xtick_5">
     <g id="line2d_5">
      <g>
       <use style="stroke:#000000;stroke-width:0.8;" x="622.636364" xlink:href="#m2fd33dc3dc" y="199.567059"/>
      </g>
     </g>
     <g id="text_5">
      <!-- 200 -->
      <g transform="translate(601.640114 223.283621)scale(0.22 -0.22)">
       <defs>
        <path d="M 1228 531 
L 3431 531 
L 3431 0 
L 469 0 
L 469 531 
Q 828 903 1448 1529 
Q 2069 2156 2228 2338 
Q 2531 2678 2651 2914 
Q 2772 3150 2772 3378 
Q 2772 3750 2511 3984 
Q 2250 4219 1831 4219 
Q 1534 4219 1204 4116 
Q 875 4013 500 3803 
L 500 4441 
Q 881 4594 1212 4672 
Q 1544 4750 1819 4750 
Q 2544 4750 2975 4387 
Q 3406 4025 3406 3419 
Q 3406 3131 3298 2873 
Q 3191 2616 2906 2266 
Q 2828 2175 2409 1742 
Q 1991 1309 1228 531 
z
" id="DejaVuSans-32" transform="scale(0.015625)"/>
       </defs>
       <use xlink:href="#DejaVuSans-32"/>
       <use x="63.623047" xlink:href="#DejaVuSans-30"/>
       <use x="127.246094" xlink:href="#DejaVuSans-30"/>
      </g>
     </g>
    </g>
   </g>
   <g id="matplotlib.axis_2">
    <g id="ytick_1">
     <g id="line2d_6">
      <defs>
       <path d="M 0 0 
L -3.5 0 
" id="m35ead9261c" style="stroke:#000000;stroke-width:0.8;"/>
      </defs>
      <g>
       <use style="stroke:#000000;stroke-width:0.8;" x="90" xlink:href="#m35ead9261c" y="184.1875"/>
      </g>
     </g>
     <g id="text_6">
      <!-- 3 -->
      <g transform="translate(69.0025 192.545781)scale(0.22 -0.22)">
       <defs>
        <path d="M 2597 2516 
Q 3050 2419 3304 2112 
Q 3559 1806 3559 1356 
Q 3559 666 3084 287 
Q 2609 -91 1734 -91 
Q 1441 -91 1130 -33 
Q 819 25 488 141 
L 488 750 
Q 750 597 1062 519 
Q 1375 441 1716 441 
Q 2309 441 2620 675 
Q 2931 909 2931 1356 
Q 2931 1769 2642 2001 
Q 2353 2234 1838 2234 
L 1294 2234 
L 1294 2753 
L 1863 2753 
Q 2328 2753 2575 2939 
Q 2822 3125 2822 3475 
Q 2822 3834 2567 4026 
Q 2313 4219 1838 4219 
Q 1578 4219 1281 4162 
Q 984 4106 628 3988 
L 628 4550 
Q 988 4650 1302 4700 
Q 1616 4750 1894 4750 
Q 2613 4750 3031 4423 
Q 3450 4097 3450 3541 
Q 3450 3153 3228 2886 
Q 3006 2619 2597 2516 
z
" id="DejaVuSans-33" transform="scale(0.015625)"/>
       </defs>
       <use xlink:href="#DejaVuSans-33"/>
      </g>
     </g>
    </g>
    <g id="ytick_2">
     <g id="line2d_7">
      <g>
       <use style="stroke:#000000;stroke-width:0.8;" x="90" xlink:href="#m35ead9261c" y="140.664062"/>
      </g>
     </g>
     <g id="text_7">
      <!-- 4 -->
      <g transform="translate(69.0025 149.022344)scale(0.22 -0.22)">
       <defs>
        <path d="M 2419 4116 
L 825 1625 
L 2419 1625 
L 2419 4116 
z
M 2253 4666 
L 3047 4666 
L 3047 1625 
L 3713 1625 
L 3713 1100 
L 3047 1100 
L 3047 0 
L 2419 0 
L 2419 1100 
L 313 1100 
L 313 1709 
L 2253 4666 
z
" id="DejaVuSans-34" transform="scale(0.015625)"/>
       </defs>
       <use xlink:href="#DejaVuSans-34"/>
      </g>
     </g>
    </g>
    <g id="ytick_3">
     <g id="line2d_8">
      <g>
       <use style="stroke:#000000;stroke-width:0.8;" x="90" xlink:href="#m35ead9261c" y="97.140625"/>
      </g>
     </g>
     <g id="text_8">
      <!-- 5 -->
      <g transform="translate(69.0025 105.498906)scale(0.22 -0.22)">
       <use xlink:href="#DejaVuSans-35"/>
      </g>
     </g>
    </g>
    <g id="text_9">
     <!-- Azimuth [rad] -->
     <g transform="translate(60.427187 209.992592)rotate(-90)scale(0.22 -0.22)">
      <defs>
       <path d="M 2188 4044 
L 1331 1722 
L 3047 1722 
L 2188 4044 
z
M 1831 4666 
L 2547 4666 
L 4325 0 
L 3669 0 
L 3244 1197 
L 1141 1197 
L 716 0 
L 50 0 
L 1831 4666 
z
" id="DejaVuSans-41" transform="scale(0.015625)"/>
       <path d="M 353 3500 
L 3084 3500 
L 3084 2975 
L 922 459 
L 3084 459 
L 3084 0 
L 275 0 
L 275 525 
L 2438 3041 
L 353 3041 
L 353 3500 
z
" id="DejaVuSans-7a" transform="scale(0.015625)"/>
       <path d="M 603 3500 
L 1178 3500 
L 1178 0 
L 603 0 
L 603 3500 
z
M 603 4863 
L 1178 4863 
L 1178 4134 
L 603 4134 
L 603 4863 
z
" id="DejaVuSans-69" transform="scale(0.015625)"/>
       <path d="M 3328 2828 
Q 3544 3216 3844 3400 
Q 4144 3584 4550 3584 
Q 5097 3584 5394 3201 
Q 5691 2819 5691 2113 
L 5691 0 
L 5113 0 
L 5113 2094 
Q 5113 2597 4934 2840 
Q 4756 3084 4391 3084 
Q 3944 3084 3684 2787 
Q 3425 2491 3425 1978 
L 3425 0 
L 2847 0 
L 2847 2094 
Q 2847 2600 2669 2842 
Q 2491 3084 2119 3084 
Q 1678 3084 1418 2786 
Q 1159 2488 1159 1978 
L 1159 0 
L 581 0 
L 581 3500 
L 1159 3500 
L 1159 2956 
Q 1356 3278 1631 3431 
Q 1906 3584 2284 3584 
Q 2666 3584 2933 3390 
Q 3200 3197 3328 2828 
z
" id="DejaVuSans-6d" transform="scale(0.015625)"/>
       <path d="M 544 1381 
L 544 3500 
L 1119 3500 
L 1119 1403 
Q 1119 906 1312 657 
Q 1506 409 1894 409 
Q 2359 409 2629 706 
Q 2900 1003 2900 1516 
L 2900 3500 
L 3475 3500 
L 3475 0 
L 2900 0 
L 2900 538 
Q 2691 219 2414 64 
Q 2138 -91 1772 -91 
Q 1169 -91 856 284 
Q 544 659 544 1381 
z
M 1991 3584 
L 1991 3584 
z
" id="DejaVuSans-75" transform="scale(0.015625)"/>
       <path d="M 1172 4494 
L 1172 3500 
L 2356 3500 
L 2356 3053 
L 1172 3053 
L 1172 1153 
Q 1172 725 1289 603 
Q 1406 481 1766 481 
L 2356 481 
L 2356 0 
L 1766 0 
Q 1100 0 847 248 
Q 594 497 594 1153 
L 594 3053 
L 172 3053 
L 172 3500 
L 594 3500 
L 594 4494 
L 1172 4494 
z
" id="DejaVuSans-74" transform="scale(0.015625)"/>
       <path d="M 3513 2113 
L 3513 0 
L 2938 0 
L 2938 2094 
Q 2938 2591 2744 2837 
Q 2550 3084 2163 3084 
Q 1697 3084 1428 2787 
Q 1159 2491 1159 1978 
L 1159 0 
L 581 0 
L 581 4863 
L 1159 4863 
L 1159 2956 
Q 1366 3272 1645 3428 
Q 1925 3584 2291 3584 
Q 2894 3584 3203 3211 
Q 3513 2838 3513 2113 
z
" id="DejaVuSans-68" transform="scale(0.015625)"/>
       <path id="DejaVuSans-20" transform="scale(0.015625)"/>
       <path d="M 550 4863 
L 1875 4863 
L 1875 4416 
L 1125 4416 
L 1125 -397 
L 1875 -397 
L 1875 -844 
L 550 -844 
L 550 4863 
z
" id="DejaVuSans-5b" transform="scale(0.015625)"/>
       <path d="M 2631 2963 
Q 2534 3019 2420 3045 
Q 2306 3072 2169 3072 
Q 1681 3072 1420 2755 
Q 1159 2438 1159 1844 
L 1159 0 
L 581 0 
L 581 3500 
L 1159 3500 
L 1159 2956 
Q 1341 3275 1631 3429 
Q 1922 3584 2338 3584 
Q 2397 3584 2469 3576 
Q 2541 3569 2628 3553 
L 2631 2963 
z
" id="DejaVuSans-72" transform="scale(0.015625)"/>
       <path d="M 2194 1759 
Q 1497 1759 1228 1600 
Q 959 1441 959 1056 
Q 959 750 1161 570 
Q 1363 391 1709 391 
Q 2188 391 2477 730 
Q 2766 1069 2766 1631 
L 2766 1759 
L 2194 1759 
z
M 3341 1997 
L 3341 0 
L 2766 0 
L 2766 531 
Q 2569 213 2275 61 
Q 1981 -91 1556 -91 
Q 1019 -91 701 211 
Q 384 513 384 1019 
Q 384 1609 779 1909 
Q 1175 2209 1959 2209 
L 2766 2209 
L 2766 2266 
Q 2766 2663 2505 2880 
Q 2244 3097 1772 3097 
Q 1472 3097 1187 3025 
Q 903 2953 641 2809 
L 641 3341 
Q 956 3463 1253 3523 
Q 1550 3584 1831 3584 
Q 2591 3584 2966 3190 
Q 3341 2797 3341 1997 
z
" id="DejaVuSans-61" transform="scale(0.015625)"/>
       <path d="M 2906 2969 
L 2906 4863 
L 3481 4863 
L 3481 0 
L 2906 0 
L 2906 525 
Q 2725 213 2448 61 
Q 2172 -91 1784 -91 
Q 1150 -91 751 415 
Q 353 922 353 1747 
Q 353 2572 751 3078 
Q 1150 3584 1784 3584 
Q 2172 3584 2448 3432 
Q 2725 3281 2906 2969 
z
M 947 1747 
Q 947 1113 1208 752 
Q 1469 391 1925 391 
Q 2381 391 2643 752 
Q 2906 1113 2906 1747 
Q 2906 2381 2643 2742 
Q 2381 3103 1925 3103 
Q 1469 3103 1208 2742 
Q 947 2381 947 1747 
z
" id="DejaVuSans-64" transform="scale(0.015625)"/>
       <path d="M 1947 4863 
L 1947 -844 
L 622 -844 
L 622 -397 
L 1369 -397 
L 1369 4416 
L 622 4416 
L 622 4863 
L 1947 4863 
z
" id="DejaVuSans-5d" transform="scale(0.015625)"/>
      </defs>
      <use xlink:href="#DejaVuSans-41"/>
      <use x="68.408203" xlink:href="#DejaVuSans-7a"/>
      <use x="120.898438" xlink:href="#DejaVuSans-69"/>
      <use x="148.681641" xlink:href="#DejaVuSans-6d"/>
      <use x="246.09375" xlink:href="#DejaVuSans-75"/>
      <use x="309.472656" xlink:href="#DejaVuSans-74"/>
      <use x="348.681641" xlink:href="#DejaVuSans-68"/>
      <use x="412.060547" xlink:href="#DejaVuSans-20"/>
      <use x="443.847656" xlink:href="#DejaVuSans-5b"/>
      <use x="482.861328" xlink:href="#DejaVuSans-72"/>
      <use x="523.974609" xlink:href="#DejaVuSans-61"/>
      <use x="585.253906" xlink:href="#DejaVuSans-64"/>
      <use x="648.730469" xlink:href="#DejaVuSans-5d"/>
     </g>
    </g>
    <g id="text_10">
     <!-- 1e−12+1.5707963268 -->
     <g transform="translate(90 66.12)scale(0.22 -0.22)">
      <defs>
       <path d="M 3597 1894 
L 3597 1613 
L 953 1613 
Q 991 1019 1311 708 
Q 1631 397 2203 397 
Q 2534 397 2845 478 
Q 3156 559 3463 722 
L 3463 178 
Q 3153 47 2828 -22 
Q 2503 -91 2169 -91 
Q 1331 -91 842 396 
Q 353 884 353 1716 
Q 353 2575 817 3079 
Q 1281 3584 2069 3584 
Q 2775 3584 3186 3129 
Q 3597 2675 3597 1894 
z
M 3022 2063 
Q 3016 2534 2758 2815 
Q 2500 3097 2075 3097 
Q 1594 3097 1305 2825 
Q 1016 2553 972 2059 
L 3022 2063 
z
" id="DejaVuSans-65" transform="scale(0.015625)"/>
       <path d="M 678 2272 
L 4684 2272 
L 4684 1741 
L 678 1741 
L 678 2272 
z
" id="DejaVuSans-2212" transform="scale(0.015625)"/>
       <path d="M 2944 4013 
L 2944 2272 
L 4684 2272 
L 4684 1741 
L 2944 1741 
L 2944 0 
L 2419 0 
L 2419 1741 
L 678 1741 
L 678 2272 
L 2419 2272 
L 2419 4013 
L 2944 4013 
z
" id="DejaVuSans-2b" transform="scale(0.015625)"/>
       <path d="M 684 794 
L 1344 794 
L 1344 0 
L 684 0 
L 684 794 
z
" id="DejaVuSans-2e" transform="scale(0.015625)"/>
       <path d="M 525 4666 
L 3525 4666 
L 3525 4397 
L 1831 0 
L 1172 0 
L 2766 4134 
L 525 4134 
L 525 4666 
z
" id="DejaVuSans-37" transform="scale(0.015625)"/>
       <path d="M 703 97 
L 703 672 
Q 941 559 1184 500 
Q 1428 441 1663 441 
Q 2288 441 2617 861 
Q 2947 1281 2994 2138 
Q 2813 1869 2534 1725 
Q 2256 1581 1919 1581 
Q 1219 1581 811 2004 
Q 403 2428 403 3163 
Q 403 3881 828 4315 
Q 1253 4750 1959 4750 
Q 2769 4750 3195 4129 
Q 3622 3509 3622 2328 
Q 3622 1225 3098 567 
Q 2575 -91 1691 -91 
Q 1453 -91 1209 -44 
Q 966 3 703 97 
z
M 1959 2075 
Q 2384 2075 2632 2365 
Q 2881 2656 2881 3163 
Q 2881 3666 2632 3958 
Q 2384 4250 1959 4250 
Q 1534 4250 1286 3958 
Q 1038 3666 1038 3163 
Q 1038 2656 1286 2365 
Q 1534 2075 1959 2075 
z
" id="DejaVuSans-39" transform="scale(0.015625)"/>
       <path d="M 2113 2584 
Q 1688 2584 1439 2293 
Q 1191 2003 1191 1497 
Q 1191 994 1439 701 
Q 1688 409 2113 409 
Q 2538 409 2786 701 
Q 3034 994 3034 1497 
Q 3034 2003 2786 2293 
Q 2538 2584 2113 2584 
z
M 3366 4563 
L 3366 3988 
Q 3128 4100 2886 4159 
Q 2644 4219 2406 4219 
Q 1781 4219 1451 3797 
Q 1122 3375 1075 2522 
Q 1259 2794 1537 2939 
Q 1816 3084 2150 3084 
Q 2853 3084 3261 2657 
Q 3669 2231 3669 1497 
Q 3669 778 3244 343 
Q 2819 -91 2113 -91 
Q 1303 -91 875 529 
Q 447 1150 447 2328 
Q 447 3434 972 4092 
Q 1497 4750 2381 4750 
Q 2619 4750 2861 4703 
Q 3103 4656 3366 4563 
z
" id="DejaVuSans-36" transform="scale(0.015625)"/>
       <path d="M 2034 2216 
Q 1584 2216 1326 1975 
Q 1069 1734 1069 1313 
Q 1069 891 1326 650 
Q 1584 409 2034 409 
Q 2484 409 2743 651 
Q 3003 894 3003 1313 
Q 3003 1734 2745 1975 
Q 2488 2216 2034 2216 
z
M 1403 2484 
Q 997 2584 770 2862 
Q 544 3141 544 3541 
Q 544 4100 942 4425 
Q 1341 4750 2034 4750 
Q 2731 4750 3128 4425 
Q 3525 4100 3525 3541 
Q 3525 3141 3298 2862 
Q 3072 2584 2669 2484 
Q 3125 2378 3379 2068 
Q 3634 1759 3634 1313 
Q 3634 634 3220 271 
Q 2806 -91 2034 -91 
Q 1263 -91 848 271 
Q 434 634 434 1313 
Q 434 1759 690 2068 
Q 947 2378 1403 2484 
z
M 1172 3481 
Q 1172 3119 1398 2916 
Q 1625 2713 2034 2713 
Q 2441 2713 2670 2916 
Q 2900 3119 2900 3481 
Q 2900 3844 2670 4047 
Q 2441 4250 2034 4250 
Q 1625 4250 1398 4047 
Q 1172 3844 1172 3481 
z
" id="DejaVuSans-38" transform="scale(0.015625)"/>
      </defs>
      <use xlink:href="#DejaVuSans-31"/>
      <use x="63.623047" xlink:href="#DejaVuSans-65"/>
      <use x="125.146484" xlink:href="#DejaVuSans-2212"/>
      <use x="208.935547" xlink:href="#DejaVuSans-31"/>
      <use x="272.558594" xlink:href="#DejaVuSans-32"/>
      <use x="336.181641" xlink:href="#DejaVuSans-2b"/>
      <use x="419.970703" xlink:href="#DejaVuSans-31"/>
      <use x="483.59375" xlink:href="#DejaVuSans-2e"/>
      <use x="515.380859" xlink:href="#DejaVuSans-35"/>
      <use x="579.003906" xlink:href="#DejaVuSans-37"/>
      <use x="642.626953" xlink:href="#DejaVuSans-30"/>
      <use x="706.25" xlink:href="#DejaVuSans-37"/>
      <use x="769.873047" xlink:href="#DejaVuSans-39"/>
      <use x="833.496094" xlink:href="#DejaVuSans-36"/>
      <use x="897.119141" xlink:href="#DejaVuSans-33"/>
      <use x="960.742188" xlink:href="#DejaVuSans-32"/>
      <use x="1024.365234" xlink:href="#DejaVuSans-36"/>
      <use x="1087.988281" xlink:href="#DejaVuSans-38"/>
     </g>
    </g>
   </g>
   <g id="line2d_9">
    <path clip-path="url(#pb1a523928b)" d="M 115.363636 101.648438 
L 130.099909 101.539062 
L 130.480364 101.53125 
L 134.995091 101.421875 
L 135.375545 101.414062 
L 139.864909 101.3125 
L 140.093182 101.296875 
L 144.734727 101.195312 
L 144.963 101.179688 
L 145.165909 101.179688 
L 150.035727 101.070312 
L 150.264 101.054688 
L 150.441545 101.054688 
L 150.822 101.046875 
L 155.311364 100.945312 
L 155.539636 100.929688 
L 155.691818 100.929688 
L 157.137545 101.03125 
L 157.391182 101.070312 
L 157.594091 101.070312 
L 159.166636 101.179688 
L 159.394909 101.203125 
L 160.789909 101.296875 
L 160.967455 101.320312 
L 161.297182 101.328125 
L 162.742909 101.4375 
L 162.971182 101.453125 
L 164.366182 101.546875 
L 164.543727 101.570312 
L 166.065545 101.679688 
L 166.522091 101.710938 
L 166.801091 101.726562 
L 167.308364 101.78125 
L 167.638091 101.789062 
L 169.236 101.898438 
L 169.464273 101.929688 
L 169.641818 101.929688 
L 170.098364 101.96875 
L 170.275909 101.984375 
L 170.529545 101.992188 
L 170.707091 102.015625 
L 172.152818 102.109375 
L 172.330364 102.132812 
L 172.507909 102.148438 
L 172.786909 102.171875 
L 174.587727 102.28125 
L 174.765273 102.304688 
L 175.069636 102.320312 
L 176.413909 102.421875 
L 176.642182 102.4375 
L 178.164 102.539062 
L 178.392273 102.5625 
L 178.645909 102.578125 
L 178.874182 102.601562 
L 180.472091 102.710938 
L 180.954 102.75 
L 182.501182 102.84375 
L 182.678727 102.867188 
L 184.124455 102.960938 
L 184.302 102.984375 
L 185.874545 103.085938 
L 186.052091 103.109375 
L 186.229636 103.125 
L 186.483273 103.132812 
L 186.660818 103.148438 
L 188.106545 103.25 
L 188.284091 103.273438 
L 189.932727 103.382812 
L 190.161 103.40625 
L 191.632091 103.5 
L 191.809636 103.523438 
L 193.255364 103.617188 
L 193.432909 103.640625 
L 195.081545 103.75 
L 195.259091 103.773438 
L 197.440364 103.6875 
L 197.592545 103.664062 
L 197.820818 103.617188 
L 197.947636 103.625 
L 198.125182 103.585938 
L 198.302727 103.585938 
L 198.480273 103.539062 
L 198.607091 103.539062 
L 198.835364 103.5 
L 198.962182 103.5 
L 199.190455 103.453125 
L 199.317273 103.460938 
L 199.494818 103.421875 
L 199.672364 103.421875 
L 199.849909 103.375 
L 199.976727 103.382812 
L 200.154273 103.335938 
L 200.306455 103.328125 
L 200.585455 103.3125 
L 200.763 103.273438 
L 200.940545 103.273438 
L 201.092727 103.242188 
L 201.676091 103.164062 
L 201.955091 103.148438 
L 202.132636 103.109375 
L 202.310182 103.109375 
L 202.437 103.070312 
L 202.462364 103.09375 
L 202.639909 103.046875 
L 202.766727 103.046875 
L 203.045727 103 
L 203.324727 102.984375 
L 203.502273 102.945312 
L 203.679818 102.945312 
L 203.806636 102.90625 
L 203.832 102.929688 
L 204.009545 102.882812 
L 204.136364 102.882812 
L 204.364636 102.84375 
L 204.491455 102.84375 
L 204.770455 102.796875 
L 205.049455 102.78125 
L 205.227 102.742188 
L 205.506 102.71875 
L 206.089364 102.640625 
L 206.317636 102.632812 
L 206.495182 102.585938 
L 206.672727 102.585938 
L 206.850273 102.546875 
L 207.027818 102.546875 
L 207.18 102.523438 
L 207.408273 102.476562 
L 207.560455 102.46875 
L 207.839455 102.445312 
L 208.017 102.414062 
L 208.296 102.390625 
L 208.575 102.34375 
L 208.854 102.320312 
L 209.082273 102.28125 
L 209.259818 102.28125 
L 209.437364 102.25 
L 209.665636 102.226562 
L 209.944636 102.179688 
L 210.122182 102.179688 
L 210.274364 102.15625 
L 210.502636 102.109375 
L 210.629455 102.117188 
L 210.807 102.078125 
L 210.984545 102.078125 
L 211.162091 102.03125 
L 211.288909 102.046875 
L 211.466455 101.992188 
L 211.618636 101.984375 
L 211.897636 101.96875 
L 212.075182 101.929688 
L 212.252727 101.929688 
L 212.404909 101.898438 
L 212.937545 101.820312 
L 213.089727 101.8125 
L 213.368727 101.789062 
L 213.546273 101.75 
L 213.723818 101.75 
L 213.901364 101.710938 
L 214.078909 101.703125 
L 214.307182 101.65625 
L 214.434 101.664062 
L 214.662273 101.617188 
L 214.789091 101.625 
L 214.966636 101.585938 
L 215.144182 101.585938 
L 215.321727 101.539062 
L 215.448545 101.539062 
L 215.676818 101.5 
L 215.803636 101.5 
L 216.031909 101.453125 
L 216.158727 101.460938 
L 216.336273 101.421875 
L 216.513818 101.421875 
L 216.691364 101.375 
L 216.818182 101.375 
L 217.046455 101.335938 
L 217.173273 101.335938 
L 217.401545 101.296875 
L 217.579091 101.296875 
L 217.756636 101.25 
L 217.883455 101.257812 
L 218.061 101.210938 
L 218.213182 101.203125 
L 218.441455 101.195312 
L 218.619 101.148438 
L 218.796545 101.148438 
L 218.974091 101.109375 
L 219.151636 101.109375 
L 219.303818 101.085938 
L 219.582818 101.039062 
L 219.811091 101.03125 
L 219.963273 101.007812 
L 220.242273 100.960938 
L 220.521273 100.945312 
L 220.648091 100.90625 
L 220.673455 100.929688 
L 220.851 100.882812 
L 220.977818 100.882812 
L 221.206091 100.84375 
L 221.332909 100.84375 
L 221.611909 100.796875 
L 221.890909 100.78125 
L 222.068455 100.742188 
L 222.347455 100.71875 
L 222.575727 100.679688 
L 222.702545 100.679688 
L 222.981545 100.632812 
L 223.260545 100.609375 
L 223.843909 100.539062 
L 224.072182 100.515625 
L 224.351182 100.46875 
L 224.528727 100.46875 
L 224.706273 100.421875 
L 224.883818 100.421875 
L 225.061364 100.382812 
L 225.238909 100.382812 
L 225.391091 100.359375 
L 225.619364 100.3125 
L 225.746182 100.320312 
L 226.025182 100.273438 
L 226.304182 100.257812 
L 226.481727 100.21875 
L 226.760727 100.195312 
L 226.989 100.148438 
L 227.115818 100.15625 
L 227.344091 100.109375 
L 227.470909 100.117188 
L 227.648455 100.078125 
L 227.826 100.078125 
L 228.003545 100.03125 
L 228.130364 100.046875 
L 228.307909 99.992188 
L 228.460091 99.984375 
L 228.688364 99.976562 
L 228.865909 99.929688 
L 229.043455 99.929688 
L 229.221 99.890625 
L 229.5 99.875 
L 229.677545 99.828125 
L 229.829727 99.820312 
L 230.108727 99.804688 
L 230.286273 99.765625 
L 230.463818 99.765625 
L 230.616 99.742188 
L 230.895 99.695312 
L 231.123273 99.6875 
L 231.275455 99.664062 
L 231.503727 99.617188 
L 231.630545 99.625 
L 231.808091 99.585938 
L 231.985636 99.585938 
L 232.163182 99.539062 
L 232.29 99.539062 
L 232.518273 99.492188 
L 232.645091 99.5 
L 232.873364 99.453125 
L 233.000182 99.460938 
L 233.177727 99.421875 
L 233.355273 99.421875 
L 233.532818 99.375 
L 233.659636 99.375 
L 233.887909 99.335938 
L 234.014727 99.335938 
L 234.243 99.289062 
L 234.369818 99.296875 
L 234.547364 99.257812 
L 234.724909 99.257812 
L 234.902455 99.210938 
L 235.029273 99.21875 
L 235.206818 99.171875 
L 235.359 99.164062 
L 235.638 99.140625 
L 235.866273 99.09375 
L 235.993091 99.109375 
L 236.145273 99.078125 
L 236.728636 99 
L 237.007636 98.976562 
L 237.235909 98.945312 
L 237.464182 98.929688 
L 237.641727 98.890625 
L 237.819273 98.882812 
L 238.047545 98.84375 
L 238.174364 98.84375 
L 238.453364 98.796875 
L 238.732364 98.773438 
L 238.960636 98.742188 
L 239.188909 98.71875 
L 239.417182 98.679688 
L 239.544 98.679688 
L 239.823 98.632812 
L 240.102 98.609375 
L 240.330273 98.578125 
L 240.609273 98.554688 
L 240.888273 98.507812 
L 241.167273 98.484375 
L 241.395545 98.4375 
L 241.522364 98.445312 
L 241.699909 98.40625 
L 241.877455 98.40625 
L 242.055 98.375 
L 242.334 98.351562 
L 242.460818 98.3125 
L 242.587636 98.320312 
L 242.866636 98.273438 
L 243.145636 98.257812 
L 243.323182 98.21875 
L 243.602182 98.195312 
L 243.830455 98.148438 
L 243.957273 98.15625 
L 244.185545 98.109375 
L 244.312364 98.117188 
L 244.489909 98.078125 
L 244.667455 98.078125 
L 244.845 98.03125 
L 244.971818 98.039062 
L 245.149364 97.992188 
L 245.301545 97.984375 
L 245.529818 97.96875 
L 245.707364 97.929688 
L 245.884909 97.929688 
L 246.062455 97.890625 
L 246.341455 97.875 
L 246.519 97.828125 
L 246.671182 97.820312 
L 246.950182 97.804688 
L 247.127727 97.765625 
L 247.305273 97.765625 
L 247.457455 97.742188 
L 247.736455 97.6875 
L 247.914 97.6875 
L 248.091545 97.648438 
L 248.269091 97.648438 
L 248.446636 97.601562 
L 248.573455 97.609375 
L 248.751 97.570312 
L 248.928545 97.570312 
L 249.106091 97.53125 
L 249.334364 97.523438 
L 249.486545 97.5 
L 249.714818 97.453125 
L 249.841636 97.460938 
L 250.019182 97.421875 
L 250.196727 97.421875 
L 250.374273 97.375 
L 250.501091 97.375 
L 250.729364 97.335938 
L 250.856182 97.335938 
L 251.135182 97.289062 
L 251.414182 97.273438 
L 251.591727 97.234375 
L 251.870727 97.21875 
L 252.048273 97.171875 
L 252.200455 97.164062 
L 252.479455 97.140625 
L 252.707727 97.09375 
L 252.834545 97.109375 
L 252.986727 97.078125 
L 253.570091 97 
L 253.849091 96.976562 
L 254.077364 96.929688 
L 254.204182 96.9375 
L 254.381727 96.90625 
L 254.660727 96.882812 
L 254.889 96.835938 
L 255.015818 96.84375 
L 255.294818 96.796875 
L 255.573818 96.773438 
L 255.802091 96.742188 
L 256.030364 96.71875 
L 256.258636 96.679688 
L 256.385455 96.679688 
L 256.664455 96.632812 
L 256.943455 96.609375 
L 257.171727 96.570312 
L 257.349273 96.570312 
L 257.526818 96.539062 
L 257.755091 96.515625 
L 258.034091 96.46875 
L 258.313091 96.445312 
L 258.896455 96.375 
L 259.124727 96.351562 
L 259.403727 96.304688 
L 259.581273 96.304688 
L 259.758818 96.257812 
L 259.936364 96.257812 
L 260.113909 96.21875 
L 260.291455 96.21875 
L 260.443636 96.195312 
L 260.671909 96.148438 
L 260.798727 96.15625 
L 261.077727 96.109375 
L 261.356727 96.09375 
L 261.534273 96.054688 
L 261.813273 96.039062 
L 261.990818 95.992188 
L 262.143 95.984375 
L 262.371273 95.96875 
L 262.548818 95.929688 
L 262.726364 95.929688 
L 262.903909 95.890625 
L 263.182909 95.875 
L 263.360455 95.828125 
L 263.512636 95.820312 
L 263.740909 95.8125 
L 263.918455 95.765625 
L 264.096 95.765625 
L 264.273545 95.726562 
L 264.451091 95.726562 
L 264.603273 95.703125 
L 264.882273 95.65625 
L 265.161273 95.640625 
L 265.338818 95.601562 
L 265.516364 95.601562 
L 265.693909 95.5625 
L 265.972909 95.539062 
L 266.201182 95.492188 
L 266.328 95.5 
L 266.607 95.453125 
L 266.886 95.4375 
L 267.063545 95.398438 
L 267.342545 95.375 
L 267.570818 95.328125 
L 267.697636 95.335938 
L 267.976636 95.289062 
L 268.255636 95.273438 
L 268.433182 95.234375 
L 268.712182 95.21875 
L 268.889727 95.171875 
L 269.041909 95.164062 
L 269.270182 95.15625 
L 269.447727 95.101562 
L 269.599909 95.09375 
L 269.878909 95.078125 
L 270.056455 95.039062 
L 270.234 95.039062 
L 270.386182 95.015625 
L 270.614455 94.96875 
L 270.766636 94.960938 
L 271.045636 94.9375 
L 271.223182 94.90625 
L 271.502182 94.882812 
L 271.730455 94.835938 
L 271.857273 94.84375 
L 272.136273 94.796875 
L 272.415273 94.773438 
L 272.643545 94.726562 
L 272.770364 94.734375 
L 272.947909 94.703125 
L 273.226909 94.679688 
L 273.505909 94.632812 
L 273.784909 94.609375 
L 274.013182 94.570312 
L 274.190727 94.570312 
L 274.368273 94.539062 
L 274.596545 94.515625 
L 274.875545 94.46875 
L 275.154545 94.445312 
L 275.382818 94.40625 
L 275.560364 94.40625 
L 275.737909 94.367188 
L 275.915455 94.359375 
L 276.143727 94.3125 
L 276.295909 94.304688 
L 276.574909 94.28125 
L 276.752455 94.242188 
L 276.955364 94.242188 
L 277.209 94.203125 
L 278.223545 94.09375 
L 278.401091 94.070312 
L 279.187364 93.976562 
L 279.364909 93.9375 
L 279.542455 93.9375 
L 279.72 93.898438 
L 279.897545 93.898438 
L 280.100455 93.859375 
L 280.252636 93.859375 
L 280.455545 93.820312 
L 280.709182 93.78125 
L 281.673 93.6875 
L 281.850545 93.648438 
L 282.028091 93.648438 
L 282.205636 93.609375 
L 282.357818 93.609375 
L 282.560727 93.570312 
L 283.423091 93.46875 
L 283.676727 93.4375 
L 284.615182 93.335938 
L 284.868818 93.296875 
L 285.680455 93.203125 
L 285.858 93.179688 
L 286.796455 93.070312 
L 286.974 93.046875 
L 287.785636 92.953125 
L 287.963182 92.929688 
L 288.774818 92.835938 
L 288.952364 92.8125 
L 289.992273 92.703125 
L 290.169818 92.664062 
L 290.322 92.664062 
L 290.524909 92.625 
L 291.387273 92.523438 
L 291.640909 92.484375 
L 292.579364 92.390625 
L 292.782273 92.351562 
L 292.959818 92.335938 
L 293.847545 92.234375 
L 294.101182 92.195312 
L 294.988909 92.101562 
L 295.166455 92.078125 
L 296.104909 91.96875 
L 296.282455 91.945312 
L 297.094091 91.851562 
L 297.271636 91.828125 
L 298.083273 91.734375 
L 298.260818 91.695312 
L 298.438364 91.695312 
L 298.615909 91.65625 
L 298.793455 91.65625 
L 298.996364 91.617188 
L 299.833364 91.523438 
L 300.010909 91.5 
L 300.822545 91.40625 
L 301.000091 91.382812 
L 301.811727 91.289062 
L 301.989273 91.25 
L 302.166818 91.25 
L 302.420455 91.210938 
L 303.308182 91.117188 
L 303.485727 91.09375 
L 304.272 91 
L 304.474909 90.960938 
L 304.627091 90.960938 
L 304.83 90.921875 
L 304.982182 90.921875 
L 305.185091 90.882812 
L 306.047455 90.789062 
L 306.225 90.765625 
L 307.036636 90.671875 
L 307.214182 90.648438 
L 308.025818 90.554688 
L 308.203364 90.515625 
L 308.380909 90.515625 
L 308.634545 90.476562 
L 309.420818 90.382812 
L 309.598364 90.359375 
L 310.41 90.265625 
L 310.587545 90.242188 
L 311.526 90.132812 
L 311.678182 90.109375 
L 311.830364 90.109375 
L 311.982545 90.070312 
L 312.109364 90.09375 
L 312.261545 90.015625 
L 312.464455 90.015625 
L 313.149273 89.9375 
L 313.276091 89.898438 
L 313.428273 89.9375 
L 313.656545 89.875 
L 313.910182 89.835938 
L 314.037 89.835938 
L 314.874 89.726562 
L 315.026182 89.703125 
L 315.153 89.703125 
L 315.99 89.609375 
L 316.142182 89.570312 
L 316.269 89.585938 
L 316.522636 89.507812 
L 316.674818 89.546875 
L 316.827 89.492188 
L 317.613273 89.398438 
L 317.765455 89.375 
L 317.892273 89.398438 
L 318.069818 89.359375 
L 318.222 89.335938 
L 318.348818 89.296875 
L 318.526364 89.320312 
L 318.678545 89.28125 
L 318.830727 89.257812 
L 319.059 89.21875 
L 319.211182 89.242188 
L 319.363364 89.179688 
L 320.352545 89.085938 
L 320.504727 89.046875 
L 320.631545 89.0625 
L 320.885182 89.007812 
L 321.037364 89.03125 
L 321.240273 88.992188 
L 321.975818 88.890625 
L 322.102636 88.851562 
L 322.254818 88.890625 
L 322.407 88.8125 
L 322.559182 88.835938 
L 322.736727 88.796875 
L 322.888909 88.796875 
L 323.041091 88.757812 
L 323.193273 88.734375 
L 323.345455 88.71875 
L 323.472273 88.71875 
L 324.207818 88.625 
L 324.36 88.601562 
L 324.512182 88.601562 
L 324.664364 88.5625 
L 324.791182 88.585938 
L 324.943364 88.507812 
L 325.146273 88.507812 
L 325.932545 88.40625 
L 326.084727 88.390625 
L 326.211545 88.390625 
L 326.947091 88.296875 
L 327.073909 88.257812 
L 327.099273 88.296875 
L 327.758727 88.195312 
L 327.987 88.15625 
L 328.139182 88.179688 
L 328.316727 88.140625 
L 328.468909 88.117188 
L 328.697182 88.0625 
L 328.849364 88.101562 
L 329.077636 88.039062 
L 329.331273 88 
L 329.458091 88 
L 330.295091 87.890625 
L 330.447273 87.867188 
L 330.574091 87.890625 
L 330.751636 87.851562 
L 330.903818 87.828125 
L 331.030636 87.789062 
L 331.208182 87.8125 
L 331.360364 87.773438 
L 331.512545 87.75 
L 331.740818 87.710938 
L 331.893 87.734375 
L 332.045182 87.671875 
L 332.197364 87.695312 
L 332.374909 87.65625 
L 332.527091 87.632812 
L 332.653909 87.59375 
L 332.806091 87.617188 
L 332.983636 87.578125 
L 333.135818 87.5625 
L 333.288 87.539062 
L 333.414818 87.539062 
L 334.150364 87.445312 
L 334.277182 87.40625 
L 334.454727 87.40625 
L 334.606909 87.382812 
L 334.733727 87.382812 
L 334.987364 87.328125 
L 335.139545 87.34375 
L 335.291727 87.289062 
L 335.469273 87.289062 
L 335.621455 87.265625 
L 335.748273 87.265625 
L 336.027273 87.210938 
L 336.154091 87.210938 
L 336.889636 87.117188 
L 337.016455 87.078125 
L 337.041818 87.117188 
L 337.599818 87.039062 
L 337.726636 87 
L 337.878818 87.015625 
L 338.031 86.960938 
L 338.208545 86.960938 
L 338.360727 86.9375 
L 338.487545 86.9375 
L 338.766545 86.882812 
L 338.893364 86.882812 
L 339.730364 86.789062 
L 339.882545 86.75 
L 340.009364 86.765625 
L 340.263 86.6875 
L 340.415182 86.726562 
L 340.567364 86.671875 
L 341.353636 86.59375 
L 341.505818 86.554688 
L 341.632636 86.570312 
L 341.886273 86.492188 
L 342.038455 86.53125 
L 342.190636 86.476562 
L 342.976909 86.382812 
L 343.129091 86.359375 
L 343.255909 86.398438 
L 343.408091 86.320312 
L 343.560273 86.34375 
L 343.737818 86.304688 
L 343.89 86.304688 
L 344.042182 86.265625 
L 344.194364 86.242188 
L 344.422636 86.203125 
L 344.574818 86.226562 
L 344.727 86.164062 
L 344.879182 86.1875 
L 345.056727 86.148438 
L 345.208909 86.125 
L 345.361091 86.109375 
L 345.513273 86.09375 
L 345.665455 86.070312 
L 345.792273 86.09375 
L 345.944455 86.015625 
L 346.122 86.03125 
L 346.248818 85.992188 
L 346.401 86.015625 
L 346.603909 85.976562 
L 347.339455 85.875 
L 347.593091 85.835938 
L 347.719909 85.835938 
L 348.556909 85.726562 
L 348.709091 85.703125 
L 348.835909 85.703125 
L 349.647545 85.625 
L 349.799727 85.570312 
L 350.687455 85.46875 
L 350.839636 85.46875 
L 350.966455 85.46875 
L 351.245455 85.414062 
L 351.397636 85.390625 
L 351.651273 85.359375 
L 351.803455 85.335938 
L 351.955636 85.320312 
L 352.082455 85.335938 
L 352.361455 85.28125 
L 352.513636 85.257812 
L 352.741909 85.21875 
L 352.894091 85.242188 
L 353.046273 85.179688 
L 354.035455 85.085938 
L 354.187636 85.046875 
L 354.314455 85.0625 
L 354.568091 85.007812 
L 354.745636 84.992188 
L 354.897818 84.96875 
L 355.024636 84.96875 
L 355.278273 84.914062 
L 355.455818 84.914062 
L 355.608 84.890625 
L 355.734818 84.890625 
L 356.013818 84.835938 
L 356.166 84.8125 
L 356.977636 84.734375 
L 357.104455 84.695312 
L 357.256636 84.71875 
L 357.408818 84.65625 
L 357.561 84.679688 
L 357.738545 84.640625 
L 357.890727 84.625 
L 358.017545 84.585938 
L 358.195091 84.601562 
L 358.347273 84.5625 
L 358.474091 84.585938 
L 358.626273 84.507812 
L 358.829182 84.507812 
L 359.615455 84.40625 
L 359.767636 84.390625 
L 359.894455 84.390625 
L 360.63 84.289062 
L 360.883636 84.257812 
L 361.010455 84.273438 
L 361.264091 84.195312 
L 361.416273 84.234375 
L 361.568455 84.179688 
L 362.354727 84.078125 
L 362.506909 84.0625 
L 362.633727 84.078125 
L 362.887364 84 
L 363.039545 84.039062 
L 363.191727 83.984375 
L 363.978 83.890625 
L 364.130182 83.867188 
L 364.257 83.867188 
L 365.094 83.773438 
L 365.246182 83.734375 
L 365.373 83.75 
L 365.626636 83.671875 
L 365.778818 83.710938 
L 366.057818 83.65625 
L 366.21 83.632812 
L 366.336818 83.59375 
L 366.489 83.617188 
L 366.666545 83.578125 
L 366.818727 83.554688 
L 366.970909 83.539062 
L 367.097727 83.539062 
L 367.833273 83.445312 
L 367.960091 83.40625 
L 368.137636 83.40625 
L 368.289818 83.382812 
L 368.416636 83.382812 
L 368.695636 83.328125 
L 368.847818 83.304688 
L 369.659455 83.226562 
L 369.786273 83.1875 
L 369.938455 83.210938 
L 370.090636 83.15625 
L 370.268182 83.15625 
L 370.420364 83.132812 
L 370.547182 83.132812 
L 370.826182 83.078125 
L 370.953 83.078125 
L 371.688545 82.976562 
L 371.942182 82.9375 
L 372.069 82.960938 
L 372.246545 82.921875 
L 372.398727 82.898438 
L 372.652364 82.859375 
L 372.779182 82.882812 
L 372.931364 82.804688 
L 373.108909 82.820312 
L 373.261091 82.804688 
L 373.920545 82.710938 
L 374.072727 82.6875 
L 374.199545 82.6875 
L 375.011182 82.609375 
L 375.163364 82.554688 
L 376.152545 82.453125 
L 376.304727 82.421875 
L 376.431545 82.4375 
L 376.685182 82.359375 
L 376.837364 82.398438 
L 377.116364 82.34375 
L 377.268545 82.320312 
L 377.395364 82.28125 
L 377.547545 82.304688 
L 377.725091 82.265625 
L 377.877273 82.242188 
L 378.105545 82.203125 
L 378.257727 82.226562 
L 378.409909 82.164062 
L 378.562091 82.1875 
L 378.739636 82.148438 
L 378.891818 82.125 
L 379.018636 82.085938 
L 379.170818 82.109375 
L 379.348364 82.070312 
L 379.500545 82.054688 
L 379.652727 82.03125 
L 379.779545 82.03125 
L 380.515091 81.9375 
L 380.641909 81.898438 
L 380.819455 81.898438 
L 380.971636 81.875 
L 381.098455 81.875 
L 381.377455 81.820312 
L 381.529636 81.796875 
L 382.620273 81.703125 
L 382.772455 81.648438 
L 382.95 81.648438 
L 383.102182 81.625 
L 383.229 81.625 
L 383.508 81.570312 
L 383.634818 81.570312 
L 384.370364 81.46875 
L 384.624 81.429688 
L 384.750818 81.453125 
L 384.928364 81.414062 
L 385.080545 81.390625 
L 385.334182 81.351562 
L 385.461 81.375 
L 385.613182 81.296875 
L 385.790727 81.320312 
L 385.917545 81.28125 
L 386.095091 81.28125 
L 386.247273 81.242188 
L 386.374091 81.257812 
L 386.627727 81.179688 
L 386.779909 81.21875 
L 386.932091 81.164062 
L 387.718364 81.0625 
L 387.870545 81.046875 
L 387.997364 81.0625 
L 388.251 81.007812 
L 388.403182 81.023438 
L 388.555364 80.96875 
L 389.341636 80.875 
L 389.493818 80.875 
L 389.646 80.851562 
L 389.874273 80.8125 
L 390.026455 80.835938 
L 390.178636 80.773438 
L 391.066364 80.679688 
L 391.218545 80.65625 
L 391.370727 80.65625 
L 391.522909 80.617188 
L 391.649727 80.640625 
L 391.801909 80.585938 
L 392.689636 80.484375 
L 392.943273 80.445312 
L 393.070091 80.46875 
L 393.222273 80.40625 
L 393.374455 80.429688 
L 393.577364 80.390625 
L 394.312909 80.289062 
L 394.566545 80.25 
L 394.693364 80.25 
L 395.530364 80.15625 
L 395.682545 80.117188 
L 395.809364 80.140625 
L 395.986909 80.101562 
L 396.139091 80.078125 
L 396.392727 80.039062 
L 396.519545 80.0625 
L 396.671727 79.984375 
L 396.874636 79.984375 
L 397.660909 79.882812 
L 397.813091 79.867188 
L 397.939909 79.867188 
L 398.776909 79.773438 
L 398.929091 79.734375 
L 399.055909 79.75 
L 399.309545 79.671875 
L 399.461727 79.710938 
L 399.613909 79.65625 
L 400.400182 79.554688 
L 400.552364 79.539062 
L 400.679182 79.578125 
L 400.831364 79.5 
L 401.008909 79.5 
L 401.135727 79.460938 
L 401.313273 79.484375 
L 401.465455 79.445312 
L 401.617636 79.421875 
L 401.845909 79.382812 
L 401.998091 79.40625 
L 402.150273 79.34375 
L 402.302455 79.367188 
L 402.48 79.328125 
L 402.632182 79.304688 
L 402.759 79.265625 
L 402.911182 79.289062 
L 403.088727 79.25 
L 403.240909 79.226562 
L 403.393091 79.210938 
L 403.519909 79.210938 
L 404.255455 79.117188 
L 404.382273 79.078125 
L 404.559818 79.078125 
L 404.712 79.054688 
L 404.838818 79.054688 
L 405.092455 79 
L 405.244636 79.015625 
L 405.396818 78.960938 
L 405.574364 78.960938 
L 405.726545 78.9375 
L 405.853364 78.9375 
L 406.132364 78.882812 
L 406.259182 78.882812 
L 407.070818 78.804688 
L 407.223 78.75 
L 408.110727 78.648438 
L 408.262909 78.648438 
L 408.389727 78.648438 
L 408.668727 78.59375 
L 408.820909 78.570312 
L 409.074545 78.53125 
L 409.201364 78.554688 
L 409.353545 78.476562 
L 409.556455 78.476562 
L 410.342727 78.382812 
L 410.494909 78.359375 
L 410.621727 78.359375 
L 411.458727 78.265625 
L 411.610909 78.226562 
L 411.737727 78.242188 
L 411.991364 78.1875 
L 412.143545 78.203125 
L 412.295727 78.148438 
L 413.082 78.046875 
L 413.234182 78.046875 
L 413.361 78.070312 
L 413.513182 77.992188 
L 413.665364 78.015625 
L 413.842909 77.976562 
L 413.995091 77.976562 
L 414.147273 77.9375 
L 414.299455 77.914062 
L 414.451636 77.898438 
L 414.578455 77.898438 
L 415.314 77.796875 
L 415.440818 77.757812 
L 415.593 77.78125 
L 415.770545 77.742188 
L 415.922727 77.71875 
L 416.074909 77.703125 
L 416.201727 77.703125 
L 416.937273 77.609375 
L 417.064091 77.570312 
L 417.089455 77.609375 
L 417.647455 77.53125 
L 417.774273 77.492188 
L 417.926455 77.507812 
L 418.078636 77.453125 
L 418.256182 77.453125 
L 418.408364 77.429688 
L 418.535182 77.429688 
L 418.814182 77.375 
L 418.941 77.375 
L 419.752636 77.296875 
L 419.904818 77.242188 
L 420.894 77.140625 
L 421.046182 77.101562 
L 421.173 77.125 
L 421.350545 77.085938 
L 421.502727 77.0625 
L 421.756364 77.023438 
L 421.883182 77.046875 
L 422.035364 76.96875 
L 422.187545 77.007812 
L 422.415818 76.945312 
L 423.430364 76.851562 
L 423.582545 76.8125 
L 423.709364 76.835938 
L 423.861545 76.757812 
L 424.064455 76.757812 
L 424.850727 76.65625 
L 425.079 76.617188 
L 425.231182 76.640625 
L 425.408727 76.601562 
L 425.560909 76.578125 
L 425.789182 76.546875 
L 425.966727 76.546875 
L 426.118909 76.507812 
L 426.271091 76.484375 
L 427.082727 76.40625 
L 427.209545 76.367188 
L 427.361727 76.390625 
L 427.513909 76.328125 
L 427.666091 76.367188 
L 427.818273 76.289062 
L 427.970455 76.3125 
L 428.122636 76.25 
L 428.148 76.289062 
L 428.985 76.195312 
L 429.137182 76.140625 
L 429.314727 76.140625 
L 429.466909 76.117188 
L 429.593727 76.117188 
L 429.872727 76.0625 
L 429.999545 76.0625 
L 430.836545 75.960938 
L 430.988727 75.921875 
L 431.115545 75.945312 
L 431.293091 75.90625 
L 431.445273 75.882812 
L 431.698909 75.84375 
L 431.825727 75.84375 
L 432.079364 75.789062 
L 432.231545 75.8125 
L 432.409091 75.773438 
L 432.561273 75.75 
L 432.814909 75.710938 
L 432.941727 75.734375 
L 433.093909 75.65625 
L 433.296818 75.65625 
L 434.083091 75.554688 
L 434.235273 75.539062 
L 434.362091 75.539062 
L 435.199091 75.445312 
L 435.351273 75.40625 
L 435.478091 75.421875 
L 435.731727 75.367188 
L 435.909273 75.367188 
L 436.061455 75.328125 
L 436.213636 75.304688 
L 437.025273 75.226562 
L 437.152091 75.1875 
L 437.304273 75.210938 
L 437.456455 75.148438 
L 437.608636 75.171875 
L 437.786182 75.132812 
L 437.938364 75.109375 
L 438.090545 75.09375 
L 438.242727 75.078125 
L 438.344182 75.09375 
L 438.572455 75.25 
L 438.699273 75.328125 
L 438.927545 75.476562 
L 439.054364 75.554688 
L 439.282636 75.710938 
L 439.434818 75.789062 
L 439.688455 75.984375 
L 439.866 76.0625 
L 440.094273 76.210938 
L 440.195727 76.289062 
L 440.449364 76.484375 
L 440.626909 76.5625 
L 440.855182 76.71875 
L 440.982 76.796875 
L 441.210273 76.945312 
L 441.362455 77.023438 
L 441.590727 77.179688 
L 441.692182 77.257812 
L 441.920455 77.414062 
L 442.098 77.492188 
L 442.351636 77.679688 
L 442.503818 77.757812 
L 442.757455 77.953125 
L 442.884273 78.03125 
L 443.087182 78.148438 
L 443.214 78.226562 
L 443.467636 78.414062 
L 443.619818 78.492188 
L 443.822727 78.609375 
L 443.924182 78.6875 
L 444.177818 78.882812 
L 444.355364 78.960938 
L 444.583636 79.117188 
L 444.786545 79.226562 
L 445.014818 79.382812 
L 445.116273 79.460938 
L 445.319182 79.578125 
L 445.420636 79.65625 
L 445.648909 79.8125 
L 445.851818 79.921875 
L 446.080091 80.078125 
L 446.232273 80.15625 
L 446.485909 80.351562 
L 446.612727 80.429688 
L 446.815636 80.546875 
L 447.018545 80.65625 
L 447.272182 80.851562 
L 447.399 80.929688 
L 447.627273 81.085938 
L 447.804818 81.164062 
L 448.058455 81.351562 
L 448.210636 81.429688 
L 448.464273 81.625 
L 448.591091 81.664062 
L 448.743273 81.78125 
L 448.844727 81.859375 
L 449.047636 81.976562 
L 449.225182 82.085938 
L 449.453455 82.242188 
L 449.580273 82.320312 
L 449.808545 82.476562 
L 449.935364 82.554688 
L 450.163636 82.710938 
L 450.341182 82.820312 
L 450.544091 82.9375 
L 450.670909 83.015625 
L 450.924545 83.210938 
L 451.076727 83.289062 
L 451.279636 83.40625 
L 451.381091 83.484375 
L 451.634727 83.671875 
L 451.812273 83.75 
L 452.040545 83.90625 
L 452.167364 83.984375 
L 452.421 84.179688 
L 452.649273 84.289062 
L 452.902909 84.484375 
L 453.055091 84.5625 
L 453.258 84.679688 
L 453.359455 84.757812 
L 453.613091 84.953125 
L 453.841364 85.0625 
L 454.095 85.257812 
L 454.297909 85.335938 
L 454.450091 85.453125 
L 454.551545 85.492188 
L 454.703727 85.609375 
L 454.957364 85.796875 
L 455.109545 85.875 
L 455.363182 86.070312 
L 455.540727 86.148438 
L 455.769 86.304688 
L 455.895818 86.382812 
L 456.149455 86.570312 
L 456.276273 86.609375 
L 456.428455 86.726562 
L 456.529909 86.765625 
L 456.682091 86.882812 
L 456.935727 87.078125 
L 457.087909 87.15625 
L 457.341545 87.34375 
L 457.519091 87.421875 
L 457.747364 87.578125 
L 457.874182 87.65625 
L 458.127818 87.851562 
L 458.356091 87.960938 
L 458.609727 88.15625 
L 458.761909 88.234375 
L 458.964818 88.351562 
L 459.066273 88.429688 
L 459.319909 88.625 
L 459.548182 88.734375 
L 459.751091 88.851562 
L 459.852545 88.929688 
L 460.106182 89.125 
L 460.258364 89.164062 
L 460.410545 89.28125 
L 460.664182 89.46875 
L 460.816364 89.546875 
L 461.07 89.742188 
L 461.247545 89.820312 
L 461.475818 89.976562 
L 461.602636 90.054688 
L 461.856273 90.242188 
L 462.008455 90.320312 
L 462.211364 90.4375 
L 462.312818 90.515625 
L 462.566455 90.710938 
L 462.744 90.789062 
L 462.972273 90.9375 
L 463.099091 91.015625 
L 463.352727 91.210938 
L 463.504909 91.25 
L 463.657091 91.367188 
L 463.910727 91.5625 
L 464.139 91.671875 
L 464.392636 91.867188 
L 464.519455 91.945312 
L 464.722364 92.0625 
L 464.849182 92.140625 
L 465.102818 92.335938 
L 465.331091 92.445312 
L 465.584727 92.640625 
L 465.736909 92.71875 
L 465.939818 92.835938 
L 466.041273 92.914062 
L 466.294909 93.101562 
L 466.472455 93.179688 
L 466.700727 93.335938 
L 466.827545 93.414062 
L 467.081182 93.609375 
L 467.233364 93.648438 
L 467.385545 93.765625 
L 467.639182 93.953125 
L 467.766 94.03125 
L 467.994273 94.1875 
L 468.171818 94.265625 
L 468.425455 94.460938 
L 468.653727 94.570312 
L 468.907364 94.765625 
L 469.034182 94.84375 
L 469.262455 95 
L 469.44 95.078125 
L 469.693636 95.273438 
L 469.921909 95.382812 
L 470.175545 95.578125 
L 470.302364 95.65625 
L 470.530636 95.8125 
L 470.708182 95.890625 
L 470.860364 96.007812 
L 471.139364 96.195312 
L 471.266182 96.273438 
L 471.519818 96.46875 
L 471.697364 96.546875 
L 471.925636 96.703125 
L 472.128545 96.8125 
L 472.356818 96.96875 
L 472.458273 97.007812 
L 472.610455 97.125 
L 472.864091 97.320312 
L 473.016273 97.398438 
L 473.269909 97.585938 
L 473.447455 97.664062 
L 473.675727 97.820312 
L 473.802545 97.898438 
L 474.056182 98.09375 
L 474.208364 98.171875 
L 474.411273 98.28125 
L 474.512727 98.359375 
L 474.766364 98.554688 
L 474.943909 98.632812 
L 475.197545 98.828125 
L 475.375091 98.90625 
L 475.603364 99.054688 
L 475.704818 99.132812 
L 475.907727 99.25 
L 476.009182 99.328125 
L 476.237455 99.484375 
L 476.415 99.5625 
L 476.567182 99.679688 
L 476.846182 99.867188 
L 476.973 99.945312 
L 477.226636 100.140625 
L 477.429545 100.21875 
L 477.708545 100.445312 
L 477.911455 100.523438 
L 478.063636 100.640625 
L 478.165091 100.679688 
L 478.317273 100.796875 
L 478.570909 100.992188 
L 478.723091 101.070312 
L 478.976727 101.257812 
L 479.154273 101.335938 
L 479.382545 101.492188 
L 479.509364 101.570312 
L 479.763 101.765625 
L 479.915182 101.804688 
L 480.067364 101.914062 
L 480.321 102.109375 
L 480.447818 102.1875 
L 480.676091 102.34375 
L 480.853636 102.421875 
L 481.107273 102.617188 
L 481.335545 102.726562 
L 481.589182 102.921875 
L 481.716 103 
L 481.944273 103.15625 
L 482.121818 103.234375 
L 482.375455 103.421875 
L 482.527636 103.5 
L 482.781273 103.695312 
L 482.908091 103.773438 
L 483.111 103.890625 
L 483.237818 103.96875 
L 483.491455 104.15625 
L 483.643636 104.234375 
L 483.846545 104.351562 
L 483.948 104.429688 
L 484.201636 104.625 
L 484.379182 104.703125 
L 484.607455 104.851562 
L 484.734273 104.929688 
L 484.962545 105.085938 
L 485.114727 105.164062 
L 485.343 105.320312 
L 485.444455 105.398438 
L 485.672727 105.554688 
L 485.875636 105.664062 
L 486.103909 105.820312 
L 486.256091 105.898438 
L 486.509727 106.09375 
L 486.636545 106.171875 
L 486.839455 106.289062 
L 487.042364 106.398438 
L 487.296 106.59375 
L 487.422818 106.671875 
L 487.651091 106.828125 
L 487.828636 106.90625 
L 488.082273 107.09375 
L 488.234455 107.171875 
L 488.488091 107.367188 
L 488.614909 107.40625 
L 488.767091 107.523438 
L 488.868545 107.601562 
L 489.071455 107.71875 
L 489.249 107.828125 
L 489.477273 107.984375 
L 489.604091 108.0625 
L 489.832364 108.21875 
L 489.959182 108.296875 
L 490.187455 108.453125 
L 490.365 108.5625 
L 490.567909 108.679688 
L 490.694727 108.757812 
L 490.948364 108.953125 
L 491.100545 109.03125 
L 491.303455 109.148438 
L 491.481 109.257812 
L 491.734636 109.453125 
L 491.861455 109.53125 
L 492.064364 109.648438 
L 492.191182 109.726562 
L 492.444818 109.921875 
L 492.673091 110.03125 
L 492.926727 110.226562 
L 493.078909 110.304688 
L 493.281818 110.421875 
L 493.383273 110.5 
L 493.636909 110.6875 
L 493.814455 110.765625 
L 494.042727 110.921875 
L 494.169545 111 
L 494.423182 111.195312 
L 494.575364 111.234375 
L 494.727545 111.351562 
L 494.981182 111.539062 
L 495.133364 111.617188 
L 495.387 111.8125 
L 495.564545 111.890625 
L 495.792818 112.046875 
L 495.995727 112.15625 
L 496.249364 112.351562 
L 496.401545 112.429688 
L 496.655182 112.625 
L 496.807364 112.703125 
L 497.010273 112.820312 
L 497.187818 112.929688 
L 497.441455 113.125 
L 497.568273 113.203125 
L 497.771182 113.320312 
L 497.898 113.398438 
L 498.151636 113.59375 
L 498.379909 113.703125 
L 498.633545 113.898438 
L 498.785727 113.976562 
L 498.988636 114.09375 
L 499.090091 114.171875 
L 499.343727 114.359375 
L 499.546636 114.4375 
L 499.774909 114.59375 
L 499.876364 114.671875 
L 500.13 114.867188 
L 500.282182 114.90625 
L 500.434364 115.023438 
L 500.688 115.210938 
L 500.840182 115.289062 
L 501.093818 115.484375 
L 501.271364 115.5625 
L 501.499636 115.71875 
L 501.702545 115.828125 
L 501.956182 116.023438 
L 502.108364 116.101562 
L 502.362 116.296875 
L 502.514182 116.375 
L 502.717091 116.492188 
L 502.894636 116.601562 
L 503.148273 116.796875 
L 503.275091 116.835938 
L 503.427273 116.953125 
L 503.528727 116.992188 
L 503.680909 117.109375 
L 503.934545 117.296875 
L 504.086727 117.375 
L 504.340364 117.570312 
L 504.517909 117.648438 
L 504.746182 117.804688 
L 504.873 117.882812 
L 505.126636 118.070312 
L 505.278818 118.148438 
L 505.481727 118.265625 
L 505.583182 118.34375 
L 505.836818 118.539062 
L 506.014364 118.617188 
L 506.268 118.804688 
L 506.445545 118.882812 
L 506.673818 119.039062 
L 506.775273 119.117188 
L 506.978182 119.234375 
L 507.079636 119.3125 
L 507.307909 119.46875 
L 507.485455 119.539062 
L 507.637636 119.65625 
L 507.865909 119.8125 
L 507.992727 119.890625 
L 508.221 120.046875 
L 508.347818 120.125 
L 508.576091 120.273438 
L 508.728273 120.351562 
L 508.956545 120.507812 
L 509.083364 120.585938 
L 509.337 120.78125 
L 509.489182 120.859375 
L 509.692091 120.96875 
L 509.793545 121.046875 
L 510.047182 121.242188 
L 510.224727 121.320312 
L 510.453 121.476562 
L 510.579818 121.554688 
L 510.833455 121.742188 
L 510.985636 121.78125 
L 511.137818 121.898438 
L 511.391455 122.09375 
L 511.518273 122.171875 
L 511.746545 122.328125 
L 511.974818 122.4375 
L 512.203091 122.59375 
L 512.329909 122.671875 
L 512.583545 122.867188 
L 512.710364 122.90625 
L 512.862545 123.023438 
L 512.964 123.0625 
L 513.116182 123.171875 
L 513.369818 123.367188 
L 513.522 123.445312 
L 513.775636 123.640625 
L 513.953182 123.71875 
L 514.181455 123.875 
L 514.384364 123.984375 
L 514.638 124.179688 
L 514.790182 124.257812 
L 515.043818 124.453125 
L 515.196 124.53125 
L 515.398909 124.640625 
L 515.500364 124.71875 
L 515.754 124.914062 
L 515.956909 124.992188 
L 516.109091 125.109375 
L 516.210545 125.1875 
L 516.413455 125.304688 
L 516.591 125.414062 
L 516.819273 125.570312 
L 516.946091 125.648438 
L 517.174364 125.804688 
L 517.326545 125.882812 
L 517.580182 126.078125 
L 517.783091 126.1875 
L 518.011364 126.34375 
L 518.188909 126.421875 
L 518.341091 126.539062 
L 518.569364 126.695312 
L 518.670818 126.734375 
L 518.823 126.84375 
L 519.076636 127.039062 
L 519.228818 127.117188 
L 519.482455 127.3125 
L 519.685364 127.390625 
L 519.837545 127.507812 
L 520.015091 127.617188 
L 520.268727 127.8125 
L 520.420909 127.890625 
L 520.623818 128.007812 
L 520.725273 128.085938 
L 520.978909 128.28125 
L 521.207182 128.390625 
L 521.460818 128.585938 
L 521.663727 128.664062 
L 521.815909 128.78125 
L 521.917364 128.820312 
L 522.069545 128.9375 
L 522.323182 129.125 
L 522.475364 129.203125 
L 522.729 129.398438 
L 522.906545 129.476562 
L 523.134818 129.632812 
L 523.261636 129.710938 
L 523.515273 129.898438 
L 523.667455 129.9375 
L 523.819636 130.054688 
L 524.073273 130.25 
L 524.200091 130.328125 
L 524.428364 130.484375 
L 524.656636 130.59375 
L 524.884909 130.75 
L 525.011727 130.828125 
L 525.265364 131.023438 
L 525.392182 131.0625 
L 525.544364 131.179688 
L 525.721909 131.289062 
L 525.975545 131.484375 
L 526.153091 131.5625 
L 526.406727 131.757812 
L 526.584273 131.835938 
L 526.812545 131.984375 
L 526.914 132.0625 
L 527.116909 132.179688 
L 527.218364 132.257812 
L 527.446636 132.414062 
L 527.624182 132.492188 
L 527.776364 132.609375 
L 528.03 132.796875 
L 528.182182 132.875 
L 528.435818 133.070312 
L 528.638727 133.148438 
L 528.790909 133.265625 
L 528.892364 133.34375 
L 529.095273 133.453125 
L 529.196727 133.53125 
L 529.425 133.6875 
L 529.602545 133.765625 
L 529.856182 133.960938 
L 530.008364 134.039062 
L 530.262 134.226562 
L 530.388818 134.304688 
L 530.591727 134.421875 
L 530.718545 134.5 
L 530.972182 134.695312 
L 531.124364 134.773438 
L 531.327273 134.890625 
L 531.504818 135 
L 531.758455 135.195312 
L 531.910636 135.273438 
L 532.164273 135.46875 
L 532.367182 135.546875 
L 532.519364 135.65625 
L 532.620818 135.734375 
L 532.823727 135.851562 
L 532.925182 135.929688 
L 533.153455 136.085938 
L 533.331 136.164062 
L 533.584636 136.359375 
L 533.812909 136.46875 
L 534.066545 136.664062 
L 534.193364 136.742188 
L 534.421636 136.898438 
L 534.599182 136.976562 
L 534.751364 137.09375 
L 535.030364 137.28125 
L 535.157182 137.359375 
L 535.410818 137.554688 
L 535.588364 137.632812 
L 535.816636 137.789062 
L 536.019545 137.898438 
L 536.273182 138.09375 
L 536.425364 138.171875 
L 536.679 138.367188 
L 536.831182 138.445312 
L 537.034091 138.5625 
L 537.211636 138.671875 
L 537.465273 138.867188 
L 537.617455 138.945312 
L 537.871091 139.140625 
L 538.074 139.21875 
L 538.226182 139.328125 
L 538.327636 139.367188 
L 538.479818 139.484375 
L 538.733455 139.679688 
L 538.885636 139.757812 
L 539.139273 139.953125 
L 539.342182 140.0625 
L 539.545091 140.179688 
L 539.671909 140.257812 
L 539.925545 140.453125 
L 540.052364 140.492188 
L 540.204545 140.609375 
L 540.306 140.648438 
L 540.458182 140.765625 
L 540.737182 140.953125 
L 540.864 141.03125 
L 541.117636 141.226562 
L 541.295182 141.304688 
L 541.523455 141.460938 
L 541.726364 141.570312 
L 541.98 141.765625 
L 542.132182 141.84375 
L 542.385818 142.039062 
L 542.538 142.117188 
L 542.740909 142.234375 
L 542.918455 142.34375 
L 543.172091 142.539062 
L 543.324273 142.617188 
L 543.527182 142.734375 
L 543.628636 142.8125 
L 543.882273 143 
L 544.034455 143.039062 
L 544.186636 143.15625 
L 544.440273 143.351562 
L 544.592455 143.429688 
L 544.846091 143.625 
L 545.049 143.734375 
L 545.251909 143.851562 
L 545.378727 143.929688 
L 545.632364 144.125 
L 545.784545 144.203125 
L 545.987455 144.320312 
L 546.088909 144.398438 
L 546.342545 144.585938 
L 546.520091 144.664062 
L 546.748364 144.820312 
L 546.875182 144.898438 
L 547.103455 145.054688 
L 547.281 145.132812 
L 547.433182 145.242188 
L 547.686818 145.4375 
L 547.839 145.515625 
L 548.092636 145.710938 
L 548.270182 145.789062 
L 548.498455 145.9375 
L 548.625273 146.015625 
L 548.878909 146.210938 
L 549.031091 146.289062 
L 549.234 146.40625 
L 549.335455 146.484375 
L 549.589091 146.671875 
L 549.766636 146.75 
L 550.020273 146.945312 
L 550.197818 147.023438 
L 550.426091 147.179688 
L 550.527545 147.257812 
L 550.730455 147.375 
L 550.933364 147.484375 
L 551.187 147.679688 
L 551.313818 147.757812 
L 551.542091 147.914062 
L 551.719636 147.992188 
L 551.973273 148.179688 
L 552.100091 148.257812 
L 552.328364 148.414062 
L 552.480545 148.492188 
L 552.708818 148.648438 
L 552.835636 148.726562 
L 553.089273 148.914062 
L 553.241455 148.992188 
L 553.444364 149.109375 
L 553.545818 149.1875 
L 553.799455 149.382812 
L 553.977 149.460938 
L 554.205273 149.609375 
L 554.332091 149.6875 
L 554.585727 149.882812 
L 554.737909 149.921875 
L 554.890091 150.039062 
L 555.143727 150.234375 
L 555.372 150.34375 
L 555.625636 150.539062 
L 555.752455 150.617188 
L 555.955364 150.734375 
L 556.082182 150.8125 
L 556.335818 151.007812 
L 556.538727 151.117188 
L 556.767 151.273438 
L 556.944545 151.351562 
L 557.198182 151.546875 
L 557.350364 151.625 
L 557.604 151.8125 
L 557.730818 151.890625 
L 557.933727 152.007812 
L 558.060545 152.085938 
L 558.314182 152.28125 
L 558.466364 152.359375 
L 558.669273 152.476562 
L 558.846818 152.585938 
L 559.100455 152.78125 
L 559.252636 152.859375 
L 559.506273 153.054688 
L 559.709182 153.132812 
L 559.861364 153.25 
L 560.038909 153.359375 
L 560.292545 153.554688 
L 560.444727 153.59375 
L 560.596909 153.710938 
L 560.850545 153.90625 
L 561.078818 154.015625 
L 561.332455 154.210938 
L 561.459273 154.289062 
L 561.662182 154.40625 
L 561.789 154.484375 
L 562.042636 154.679688 
L 562.245545 154.789062 
L 562.473818 154.945312 
L 562.651364 155.023438 
L 562.905 155.21875 
L 563.057182 155.296875 
L 563.310818 155.484375 
L 563.437636 155.523438 
L 563.589818 155.640625 
L 563.691273 155.71875 
L 563.894182 155.835938 
L 563.995636 155.914062 
L 564.223909 156.070312 
L 564.401455 156.148438 
L 564.655091 156.335938 
L 564.781909 156.414062 
L 565.010182 156.570312 
L 565.162364 156.648438 
L 565.390636 156.804688 
L 565.517455 156.882812 
L 565.771091 157.070312 
L 565.923273 157.148438 
L 566.126182 157.265625 
L 566.227636 157.34375 
L 566.481273 157.539062 
L 566.658818 157.617188 
L 566.887091 157.765625 
L 567.013909 157.84375 
L 567.267545 158.039062 
L 567.419727 158.117188 
L 567.622636 158.234375 
L 567.724091 158.3125 
L 567.977727 158.5 
L 568.155273 158.578125 
L 568.383545 158.734375 
L 568.510364 158.8125 
L 568.738636 158.96875 
L 568.890818 159.046875 
L 569.119091 159.195312 
L 569.220545 159.273438 
L 569.448818 159.429688 
L 569.626364 159.507812 
L 569.905364 159.742188 
L 570.133636 159.851562 
L 570.361909 160.007812 
L 570.488727 160.085938 
L 570.717 160.242188 
L 570.894545 160.320312 
L 571.046727 160.4375 
L 571.275 160.585938 
L 571.376455 160.625 
L 571.528636 160.742188 
L 571.782273 160.9375 
L 571.934455 161.015625 
L 572.188091 161.210938 
L 572.391 161.320312 
L 572.593909 161.4375 
L 572.720727 161.515625 
L 572.974364 161.710938 
L 573.126545 161.75 
L 573.278727 161.867188 
L 573.532364 162.054688 
L 573.659182 162.132812 
L 573.887455 162.289062 
L 574.065 162.367188 
L 574.318636 162.5625 
L 574.470818 162.640625 
L 574.724455 162.828125 
L 574.851273 162.867188 
L 575.003455 162.984375 
L 575.104909 163.023438 
L 575.257091 163.140625 
L 575.510727 163.335938 
L 575.662909 163.414062 
L 575.916545 163.601562 
L 576.119455 163.679688 
L 576.271636 163.796875 
L 576.373091 163.875 
L 576.576 163.992188 
L 576.677455 164.070312 
L 576.905727 164.226562 
L 577.108636 164.335938 
L 577.362273 164.53125 
L 577.565182 164.609375 
L 577.818818 164.804688 
L 577.945636 164.882812 
L 578.173909 165.03125 
L 578.351455 165.109375 
L 578.503636 165.226562 
L 578.757273 165.421875 
L 578.909455 165.5 
L 579.163091 165.695312 
L 579.366 165.804688 
L 579.568909 165.921875 
L 579.695727 166 
L 579.949364 166.195312 
L 580.101545 166.273438 
L 580.304455 166.390625 
L 580.482 166.5 
L 580.710273 166.65625 
L 580.837091 166.734375 
L 581.065364 166.890625 
L 581.192182 166.96875 
L 581.420455 167.125 
L 581.598 167.234375 
L 581.800909 167.351562 
L 581.902364 167.429688 
L 582.130636 167.585938 
L 582.308182 167.664062 
L 582.587182 167.898438 
L 582.815455 168.007812 
L 583.043727 168.164062 
L 583.170545 168.242188 
L 583.398818 168.398438 
L 583.576364 168.476562 
L 583.728545 168.59375 
L 583.956818 168.742188 
L 584.058273 168.78125 
L 584.210455 168.898438 
L 584.464091 169.09375 
L 584.616273 169.171875 
L 584.869909 169.367188 
L 585.072818 169.476562 
L 585.275727 169.59375 
L 585.402545 169.671875 
L 585.656182 169.867188 
L 585.808364 169.90625 
L 585.960545 170.023438 
L 586.214182 170.210938 
L 586.341 170.289062 
L 586.569273 170.445312 
L 586.746818 170.523438 
L 587.000455 170.71875 
L 587.152636 170.796875 
L 587.406273 170.984375 
L 587.533091 171.023438 
L 587.685273 171.140625 
L 587.786727 171.179688 
L 587.938909 171.296875 
L 588.192545 171.492188 
L 588.420818 171.601562 
L 588.674455 171.796875 
L 588.801273 171.875 
L 589.004182 171.992188 
L 589.131 172.070312 
L 589.384636 172.265625 
L 589.612909 172.375 
L 589.866545 172.570312 
L 590.018727 172.648438 
L 590.221636 172.765625 
L 590.323091 172.84375 
L 590.576727 173.039062 
L 590.779636 173.109375 
L 590.931818 173.226562 
L 591.033273 173.265625 
L 591.185455 173.382812 
L 591.439091 173.578125 
L 591.591273 173.65625 
L 591.844909 173.84375 
L 592.022455 173.921875 
L 592.250727 174.078125 
L 592.377545 174.15625 
L 592.631182 174.351562 
L 592.783364 174.429688 
L 592.986273 174.539062 
L 593.087727 174.617188 
L 593.341364 174.8125 
L 593.518909 174.890625 
L 593.772545 175.085938 
L 593.950091 175.164062 
L 594.178364 175.3125 
L 594.279818 175.390625 
L 594.482727 175.507812 
L 594.584182 175.585938 
L 594.812455 175.742188 
L 594.99 175.820312 
L 595.142182 175.9375 
L 595.370455 176.085938 
L 595.497273 176.164062 
L 595.725545 176.320312 
L 595.852364 176.398438 
L 596.080636 176.554688 
L 596.232818 176.632812 
L 596.461091 176.78125 
L 596.587909 176.859375 
L 596.841545 177.054688 
L 596.993727 177.132812 
L 597.196636 177.25 
L 597.298091 177.328125 
L 597.551727 177.515625 
L 597.729273 177.59375 
L 597.957545 177.75 
L 598.084364 177.828125 
L 598.338 178.023438 
L 598.490182 178.0625 
L 598.642364 178.179688 
L 598.921364 178.367188 
L 599.022818 178.445312 
L 599.251091 178.601562 
L 599.428636 178.679688 
L 599.682273 178.875 
L 599.910545 178.984375 
L 600.164182 179.179688 
L 600.291 179.257812 
L 600.519273 179.414062 
L 600.696818 179.492188 
L 600.950455 179.679688 
L 601.102636 179.757812 
L 601.356273 179.953125 
L 601.483091 180.03125 
L 601.686 180.148438 
L 601.812818 180.226562 
L 602.066455 180.414062 
L 602.218636 180.492188 
L 602.421545 180.609375 
L 602.523 180.6875 
L 602.776636 180.882812 
L 602.954182 180.960938 
L 603.182455 181.117188 
L 603.385364 181.226562 
L 603.613636 181.382812 
L 603.715091 181.460938 
L 603.918 181.578125 
L 604.019455 181.65625 
L 604.247727 181.8125 
L 604.450636 181.921875 
L 604.678909 182.078125 
L 604.805727 182.15625 
L 605.034 182.3125 
L 605.186182 182.390625 
L 605.414455 182.546875 
L 605.617364 182.65625 
L 605.871 182.851562 
L 605.997818 182.929688 
L 606.226091 183.085938 
L 606.403636 183.164062 
L 606.657273 183.351562 
L 606.809455 183.429688 
L 607.063091 183.625 
L 607.189909 183.664062 
L 607.342091 183.78125 
L 607.570364 183.9375 
L 607.671818 183.976562 
L 607.824 184.085938 
L 608.052273 184.242188 
L 608.179091 184.320312 
L 608.407364 184.476562 
L 608.534182 184.554688 
L 608.762455 184.710938 
L 608.94 184.820312 
L 609.142909 184.9375 
L 609.244364 185.015625 
L 609.472636 185.171875 
L 609.650182 185.25 
L 609.929182 185.484375 
L 610.157455 185.59375 
L 610.385727 185.75 
L 610.512545 185.828125 
L 610.740818 185.984375 
L 610.918364 186.0625 
L 611.070545 186.179688 
L 611.298818 186.328125 
L 611.400273 186.367188 
L 611.552455 186.484375 
L 611.806091 186.679688 
L 611.958273 186.757812 
L 612.211909 186.953125 
L 612.414818 187.0625 
L 612.617727 187.179688 
L 612.744545 187.257812 
L 612.998182 187.453125 
L 613.150364 187.492188 
L 613.302545 187.609375 
L 613.556182 187.796875 
L 613.683 187.875 
L 613.911273 188.03125 
L 614.088818 188.109375 
L 614.342455 188.304688 
L 614.494636 188.382812 
L 614.748273 188.570312 
L 614.875091 188.609375 
L 615.027273 188.726562 
L 615.128727 188.765625 
L 615.280909 188.882812 
L 615.534545 189.078125 
L 615.686727 189.15625 
L 615.940364 189.34375 
L 616.117909 189.421875 
L 616.346182 189.578125 
L 616.473 189.65625 
L 616.726636 189.851562 
L 616.954909 189.960938 
L 617.208545 190.15625 
L 617.360727 190.234375 
L 617.563636 190.351562 
L 617.665091 190.429688 
L 617.918727 190.625 
L 618.121636 190.695312 
L 618.273818 190.8125 
L 618.375273 190.851562 
L 618.527455 190.96875 
L 618.781091 191.164062 
L 618.933273 191.242188 
L 619.186909 191.429688 
L 619.364455 191.507812 
L 619.592727 191.664062 
L 619.719545 191.742188 
L 619.973182 191.9375 
L 620.125364 192.015625 
L 620.328273 192.132812 
L 620.505818 192.242188 
L 620.734091 192.398438 
L 620.860909 192.476562 
L 621.114545 192.671875 
L 621.292091 192.75 
L 621.520364 192.898438 
L 621.621818 192.976562 
L 621.824727 193.09375 
L 621.926182 193.171875 
L 622.154455 193.328125 
L 622.332 193.40625 
L 622.484182 193.523438 
L 622.636364 193.632812 
L 622.636364 193.632812 
" style="fill:none;stroke:#1f77b4;stroke-linecap:square;stroke-width:1.5;"/>
   </g>
   <g id="patch_3">
    <path d="M 90 199.570312 
L 90 69.125 
" style="fill:none;stroke:#000000;stroke-linecap:square;stroke-linejoin:miter;stroke-width:0.8;"/>
   </g>
   <g id="patch_4">
    <path d="M 648 199.570312 
L 648 69.125 
" style="fill:none;stroke:#000000;stroke-linecap:square;stroke-linejoin:miter;stroke-width:0.8;"/>
   </g>
   <g id="patch_5">
    <path d="M 90 199.567059 
L 648 199.567059 
" style="fill:none;stroke:#000000;stroke-linecap:square;stroke-linejoin:miter;stroke-width:0.8;"/>
   </g>
   <g id="patch_6">
    <path d="M 90 69.12 
L 648 69.12 
" style="fill:none;stroke:#000000;stroke-linecap:square;stroke-linejoin:miter;stroke-width:0.8;"/>
   </g>
  </g>
  <g id="axes_2">
   <g id="patch_7">
    <path d="M 90 356.103529 
L 648 356.103529 
L 648 225.656471 
L 90 225.656471 
z
" style="fill:#ffffff;"/>
   </g>
   <g id="matplotlib.axis_3">
    <g id="xtick_6">
     <g id="line2d_10">
      <g>
       <use style="stroke:#000000;stroke-width:0.8;" x="115.363636" xlink:href="#m2fd33dc3dc" y="356.103529"/>
      </g>
     </g>
     <g id="text_11">
      <!-- 0 -->
      <g transform="translate(108.364886 379.820092)scale(0.22 -0.22)">
       <use xlink:href="#DejaVuSans-30"/>
      </g>
     </g>
    </g>
    <g id="xtick_7">
     <g id="line2d_11">
      <g>
       <use style="stroke:#000000;stroke-width:0.8;" x="242.181818" xlink:href="#m2fd33dc3dc" y="356.103529"/>
      </g>
     </g>
     <g id="text_12">
      <!-- 50 -->
      <g transform="translate(228.184318 379.820092)scale(0.22 -0.22)">
       <use xlink:href="#DejaVuSans-35"/>
       <use x="63.623047" xlink:href="#DejaVuSans-30"/>
      </g>
     </g>
    </g>
    <g id="xtick_8">
     <g id="line2d_12">
      <g>
       <use style="stroke:#000000;stroke-width:0.8;" x="369" xlink:href="#m2fd33dc3dc" y="356.103529"/>
      </g>
     </g>
     <g id="text_13">
      <!-- 100 -->
      <g transform="translate(348.00375 379.820092)scale(0.22 -0.22)">
       <use xlink:href="#DejaVuSans-31"/>
       <use x="63.623047" xlink:href="#DejaVuSans-30"/>
       <use x="127.246094" xlink:href="#DejaVuSans-30"/>
      </g>
     </g>
    </g>
    <g id="xtick_9">
     <g id="line2d_13">
      <g>
       <use style="stroke:#000000;stroke-width:0.8;" x="495.818182" xlink:href="#m2fd33dc3dc" y="356.103529"/>
      </g>
     </g>
     <g id="text_14">
      <!-- 150 -->
      <g transform="translate(474.821932 379.820092)scale(0.22 -0.22)">
       <use xlink:href="#DejaVuSans-31"/>
       <use x="63.623047" xlink:href="#DejaVuSans-35"/>
       <use x="127.246094" xlink:href="#DejaVuSans-30"/>
      </g>
     </g>
    </g>
    <g id="xtick_10">
     <g id="line2d_14">
      <g>
       <use style="stroke:#000000;stroke-width:0.8;" x="622.636364" xlink:href="#m2fd33dc3dc" y="356.103529"/>
      </g>
     </g>
     <g id="text_15">
      <!-- 200 -->
      <g transform="translate(601.640114 379.820092)scale(0.22 -0.22)">
       <use xlink:href="#DejaVuSans-32"/>
       <use x="63.623047" xlink:href="#DejaVuSans-30"/>
       <use x="127.246094" xlink:href="#DejaVuSans-30"/>
      </g>
     </g>
    </g>
   </g>
   <g id="matplotlib.axis_4">
    <g id="ytick_4">
     <g id="line2d_15">
      <g>
       <use style="stroke:#000000;stroke-width:0.8;" x="90" xlink:href="#m35ead9261c" y="350.174118"/>
      </g>
     </g>
     <g id="text_16">
      <!-- 0.000 -->
      <g transform="translate(20.018125 358.532399)scale(0.22 -0.22)">
       <use xlink:href="#DejaVuSans-30"/>
       <use x="63.623047" xlink:href="#DejaVuSans-2e"/>
       <use x="95.410156" xlink:href="#DejaVuSans-30"/>
       <use x="159.033203" xlink:href="#DejaVuSans-30"/>
       <use x="222.65625" xlink:href="#DejaVuSans-30"/>
      </g>
     </g>
    </g>
    <g id="ytick_5">
     <g id="line2d_16">
      <g>
       <use style="stroke:#000000;stroke-width:0.8;" x="90" xlink:href="#m35ead9261c" y="230.019114"/>
      </g>
     </g>
     <g id="text_17">
      <!-- 0.005 -->
      <g transform="translate(20.018125 238.377395)scale(0.22 -0.22)">
       <use xlink:href="#DejaVuSans-30"/>
       <use x="63.623047" xlink:href="#DejaVuSans-2e"/>
       <use x="95.410156" xlink:href="#DejaVuSans-30"/>
       <use x="159.033203" xlink:href="#DejaVuSans-30"/>
       <use x="222.65625" xlink:href="#DejaVuSans-35"/>
      </g>
     </g>
    </g>
    <g id="text_18">
     <!-- velocity [m/s] -->
     <g transform="translate(11.442812 366.102813)rotate(-90)scale(0.22 -0.22)">
      <defs>
       <path d="M 191 3500 
L 800 3500 
L 1894 563 
L 2988 3500 
L 3597 3500 
L 2284 0 
L 1503 0 
L 191 3500 
z
" id="DejaVuSans-76" transform="scale(0.015625)"/>
       <path d="M 603 4863 
L 1178 4863 
L 1178 0 
L 603 0 
L 603 4863 
z
" id="DejaVuSans-6c" transform="scale(0.015625)"/>
       <path d="M 1959 3097 
Q 1497 3097 1228 2736 
Q 959 2375 959 1747 
Q 959 1119 1226 758 
Q 1494 397 1959 397 
Q 2419 397 2687 759 
Q 2956 1122 2956 1747 
Q 2956 2369 2687 2733 
Q 2419 3097 1959 3097 
z
M 1959 3584 
Q 2709 3584 3137 3096 
Q 3566 2609 3566 1747 
Q 3566 888 3137 398 
Q 2709 -91 1959 -91 
Q 1206 -91 779 398 
Q 353 888 353 1747 
Q 353 2609 779 3096 
Q 1206 3584 1959 3584 
z
" id="DejaVuSans-6f" transform="scale(0.015625)"/>
       <path d="M 3122 3366 
L 3122 2828 
Q 2878 2963 2633 3030 
Q 2388 3097 2138 3097 
Q 1578 3097 1268 2742 
Q 959 2388 959 1747 
Q 959 1106 1268 751 
Q 1578 397 2138 397 
Q 2388 397 2633 464 
Q 2878 531 3122 666 
L 3122 134 
Q 2881 22 2623 -34 
Q 2366 -91 2075 -91 
Q 1284 -91 818 406 
Q 353 903 353 1747 
Q 353 2603 823 3093 
Q 1294 3584 2113 3584 
Q 2378 3584 2631 3529 
Q 2884 3475 3122 3366 
z
" id="DejaVuSans-63" transform="scale(0.015625)"/>
       <path d="M 2059 -325 
Q 1816 -950 1584 -1140 
Q 1353 -1331 966 -1331 
L 506 -1331 
L 506 -850 
L 844 -850 
Q 1081 -850 1212 -737 
Q 1344 -625 1503 -206 
L 1606 56 
L 191 3500 
L 800 3500 
L 1894 763 
L 2988 3500 
L 3597 3500 
L 2059 -325 
z
" id="DejaVuSans-79" transform="scale(0.015625)"/>
       <path d="M 1625 4666 
L 2156 4666 
L 531 -594 
L 0 -594 
L 1625 4666 
z
" id="DejaVuSans-2f" transform="scale(0.015625)"/>
       <path d="M 2834 3397 
L 2834 2853 
Q 2591 2978 2328 3040 
Q 2066 3103 1784 3103 
Q 1356 3103 1142 2972 
Q 928 2841 928 2578 
Q 928 2378 1081 2264 
Q 1234 2150 1697 2047 
L 1894 2003 
Q 2506 1872 2764 1633 
Q 3022 1394 3022 966 
Q 3022 478 2636 193 
Q 2250 -91 1575 -91 
Q 1294 -91 989 -36 
Q 684 19 347 128 
L 347 722 
Q 666 556 975 473 
Q 1284 391 1588 391 
Q 1994 391 2212 530 
Q 2431 669 2431 922 
Q 2431 1156 2273 1281 
Q 2116 1406 1581 1522 
L 1381 1569 
Q 847 1681 609 1914 
Q 372 2147 372 2553 
Q 372 3047 722 3315 
Q 1072 3584 1716 3584 
Q 2034 3584 2315 3537 
Q 2597 3491 2834 3397 
z
" id="DejaVuSans-73" transform="scale(0.015625)"/>
      </defs>
      <use xlink:href="#DejaVuSans-76"/>
      <use x="59.179688" xlink:href="#DejaVuSans-65"/>
      <use x="120.703125" xlink:href="#DejaVuSans-6c"/>
      <use x="148.486328" xlink:href="#DejaVuSans-6f"/>
      <use x="209.667969" xlink:href="#DejaVuSans-63"/>
      <use x="264.648438" xlink:href="#DejaVuSans-69"/>
      <use x="292.431641" xlink:href="#DejaVuSans-74"/>
      <use x="331.640625" xlink:href="#DejaVuSans-79"/>
      <use x="390.820312" xlink:href="#DejaVuSans-20"/>
      <use x="422.607422" xlink:href="#DejaVuSans-5b"/>
      <use x="461.621094" xlink:href="#DejaVuSans-6d"/>
      <use x="559.033203" xlink:href="#DejaVuSans-2f"/>
      <use x="592.724609" xlink:href="#DejaVuSans-73"/>
      <use x="644.824219" xlink:href="#DejaVuSans-5d"/>
     </g>
    </g>
   </g>
   <g id="line2d_17">
    <path clip-path="url(#pce5b072eb2)" d="M 115.363636 350.174118 
L 134.792182 336.042637 
L 145.140545 328.797741 
L 153.814909 322.990278 
L 161.550818 318.073641 
L 168.678 313.803557 
L 175.348636 310.063031 
L 181.664182 306.773452 
L 187.700727 303.877066 
L 193.509 301.334259 
L 199.139727 299.110281 
L 204.618273 297.184646 
L 209.944636 295.546284 
L 215.169545 294.170037 
L 220.318364 293.043201 
L 225.391091 292.160171 
L 230.413091 291.511505 
L 235.384364 291.09288 
L 240.330273 290.898626 
L 245.276182 290.92677 
L 250.222091 291.177206 
L 255.193364 291.651982 
L 260.19 292.352707 
L 265.237364 293.285331 
L 270.360818 294.459331 
L 275.560364 295.880074 
L 280.861364 297.560256 
L 286.289182 299.515528 
L 291.869182 301.764143 
L 297.626727 304.326497 
L 303.587182 307.224533 
L 309.826636 310.508635 
L 316.370455 314.206996 
L 323.345455 318.408467 
L 330.853091 323.194652 
L 339.147 328.751416 
L 348.709091 335.434382 
L 360.985091 344.303592 
L 369.076091 350.112025 
L 388.428545 336.036427 
L 398.776909 328.791531 
L 407.451273 322.984069 
L 415.187182 318.067432 
L 422.314364 313.797347 
L 428.985 310.056822 
L 435.300545 306.767242 
L 441.337091 303.870856 
L 447.145364 301.328049 
L 452.776091 299.104072 
L 458.254636 297.178436 
L 463.581 295.540075 
L 468.805909 294.163827 
L 473.954727 293.036992 
L 479.027455 292.153961 
L 484.049455 291.505296 
L 489.020727 291.08667 
L 493.966636 290.892416 
L 498.912545 290.92056 
L 503.858455 291.170996 
L 508.829727 291.645773 
L 513.826364 292.346497 
L 518.873727 293.279121 
L 523.997182 294.453122 
L 529.196727 295.873864 
L 534.497727 297.554047 
L 539.925545 299.509319 
L 545.505545 301.757933 
L 551.263091 304.320287 
L 557.223545 307.218324 
L 563.463 310.502426 
L 570.006818 314.200786 
L 576.981818 318.402257 
L 584.489455 323.188442 
L 592.783364 328.745206 
L 602.345455 335.428172 
L 614.621455 344.297382 
L 622.636364 350.174117 
L 622.636364 350.174117 
" style="fill:none;stroke:#1f77b4;stroke-linecap:square;stroke-width:1.5;"/>
   </g>
   <g id="line2d_18">
    <path clip-path="url(#pce5b072eb2)" d="M 115.363636 231.585882 
L 120.309545 231.697301 
L 125.255455 232.030757 
L 130.226727 232.588409 
L 135.248727 233.376078 
L 140.321455 234.397499 
L 145.470273 235.662169 
L 150.695182 237.175004 
L 156.046909 238.957605 
L 161.525455 241.018613 
L 167.156182 243.375935 
L 172.989818 246.061658 
L 179.051727 249.100071 
L 185.392636 252.52996 
L 192.088636 256.408144 
L 199.241182 260.811823 
L 207.002455 265.855931 
L 215.676818 271.764682 
L 225.949091 279.041415 
L 240.634636 289.746878 
L 261.737182 305.105022 
L 272.060182 312.328964 
L 280.709182 318.116595 
L 288.445091 323.03055 
L 295.572273 327.297782 
L 302.242909 331.035327 
L 308.558455 334.321825 
L 314.595 337.215047 
L 320.403273 339.754626 
L 326.034 341.975318 
L 331.487182 343.88928 
L 336.813545 345.525409 
L 342.038455 346.899406 
L 347.187273 348.023974 
L 352.26 348.90473 
L 357.282 349.551115 
L 362.253273 349.967462 
L 367.199182 350.159437 
L 372.145091 350.129012 
L 377.091 349.876299 
L 382.062273 349.399248 
L 387.058909 348.696261 
L 392.106273 347.761384 
L 397.229727 346.585137 
L 402.429273 345.162169 
L 407.730273 343.47978 
L 413.158091 341.522326 
L 418.738091 339.27156 
L 424.495636 336.707094 
L 430.456091 333.806997 
L 436.695545 330.520889 
L 443.239364 326.820602 
L 450.214364 322.617292 
L 457.722 317.82939 
L 466.015909 312.271064 
L 475.578 305.586752 
L 487.879364 296.698019 
L 519.178091 273.959204 
L 528.790909 267.328617 
L 537.084818 261.872427 
L 544.592455 257.195726 
L 551.542091 253.125189 
L 558.085909 249.547404 
L 564.3 246.400773 
L 570.260455 243.629822 
L 575.992636 241.207643 
L 581.547273 239.099161 
L 586.975091 237.275435 
L 592.276091 235.728036 
L 597.475636 234.441119 
L 602.599091 233.401912 
L 607.646455 232.60439 
L 612.643091 232.039148 
L 617.614364 231.700365 
L 622.560273 231.585906 
L 622.636364 231.585883 
L 622.636364 231.585883 
" style="fill:none;stroke:#ff7f0e;stroke-linecap:square;stroke-width:1.5;"/>
   </g>
   <g id="patch_8">
    <path d="M 90 356.103529 
L 90 225.656471 
" style="fill:none;stroke:#000000;stroke-linecap:square;stroke-linejoin:miter;stroke-width:0.8;"/>
   </g>
   <g id="patch_9">
    <path d="M 648 356.103529 
L 648 225.656471 
" style="fill:none;stroke:#000000;stroke-linecap:square;stroke-linejoin:miter;stroke-width:0.8;"/>
   </g>
   <g id="patch_10">
    <path d="M 90 356.103529 
L 648 356.103529 
" style="fill:none;stroke:#000000;stroke-linecap:square;stroke-linejoin:miter;stroke-width:0.8;"/>
   </g>
   <g id="patch_11">
    <path d="M 90 225.656471 
L 648 225.656471 
" style="fill:none;stroke:#000000;stroke-linecap:square;stroke-linejoin:miter;stroke-width:0.8;"/>
   </g>
   <g id="legend_1">
    <g id="patch_12">
     <path d="M 303.735625 309.063971 
L 434.264375 309.063971 
Q 438.664375 309.063971 438.664375 304.663971 
L 438.664375 241.056471 
Q 438.664375 236.656471 434.264375 236.656471 
L 303.735625 236.656471 
Q 299.335625 236.656471 299.335625 241.056471 
L 299.335625 304.663971 
Q 299.335625 309.063971 303.735625 309.063971 
z
" style="fill:#ffffff;opacity:0.8;stroke:#cccccc;stroke-linejoin:miter;"/>
    </g>
    <g id="line2d_19">
     <path d="M 308.135625 254.473033 
L 352.135625 254.473033 
" style="fill:none;stroke:#1f77b4;stroke-linecap:square;stroke-width:1.5;"/>
    </g>
    <g id="line2d_20"/>
    <g id="text_19">
     <!-- vel_E -->
     <g transform="translate(369.735625 262.173033)scale(0.22 -0.22)">
      <defs>
       <path d="M 3263 -1063 
L 3263 -1509 
L -63 -1509 
L -63 -1063 
L 3263 -1063 
z
" id="DejaVuSans-5f" transform="scale(0.015625)"/>
       <path d="M 628 4666 
L 3578 4666 
L 3578 4134 
L 1259 4134 
L 1259 2753 
L 3481 2753 
L 3481 2222 
L 1259 2222 
L 1259 531 
L 3634 531 
L 3634 0 
L 628 0 
L 628 4666 
z
" id="DejaVuSans-45" transform="scale(0.015625)"/>
      </defs>
      <use xlink:href="#DejaVuSans-76"/>
      <use x="59.179688" xlink:href="#DejaVuSans-65"/>
      <use x="120.703125" xlink:href="#DejaVuSans-6c"/>
      <use x="148.486328" xlink:href="#DejaVuSans-5f"/>
      <use x="198.486328" xlink:href="#DejaVuSans-45"/>
     </g>
    </g>
    <g id="line2d_21">
     <path d="M 308.135625 287.376783 
L 352.135625 287.376783 
" style="fill:none;stroke:#ff7f0e;stroke-linecap:square;stroke-width:1.5;"/>
    </g>
    <g id="line2d_22"/>
    <g id="text_20">
     <!-- vel_N -->
     <g transform="translate(369.735625 295.076783)scale(0.22 -0.22)">
      <defs>
       <path d="M 628 4666 
L 1478 4666 
L 3547 763 
L 3547 4666 
L 4159 4666 
L 4159 0 
L 3309 0 
L 1241 3903 
L 1241 0 
L 628 0 
L 628 4666 
z
" id="DejaVuSans-4e" transform="scale(0.015625)"/>
      </defs>
      <use xlink:href="#DejaVuSans-76"/>
      <use x="59.179688" xlink:href="#DejaVuSans-65"/>
      <use x="120.703125" xlink:href="#DejaVuSans-6c"/>
      <use x="148.486328" xlink:href="#DejaVuSans-5f"/>
      <use x="198.486328" xlink:href="#DejaVuSans-4e"/>
     </g>
    </g>
   </g>
  </g>
  <g id="axes_3">
   <g id="patch_13">
    <path d="M 90 512.64 
L 648 512.64 
L 648 382.192941 
L 90 382.192941 
z
" style="fill:#ffffff;"/>
   </g>
   <g id="matplotlib.axis_5">
    <g id="xtick_11">
     <g id="line2d_23">
      <g>
       <use style="stroke:#000000;stroke-width:0.8;" x="115.363636" xlink:href="#m2fd33dc3dc" y="512.64"/>
      </g>
     </g>
     <g id="text_21">
      <!-- 0 -->
      <g transform="translate(108.364886 536.356562)scale(0.22 -0.22)">
       <use xlink:href="#DejaVuSans-30"/>
      </g>
     </g>
    </g>
    <g id="xtick_12">
     <g id="line2d_24">
      <g>
       <use style="stroke:#000000;stroke-width:0.8;" x="242.181818" xlink:href="#m2fd33dc3dc" y="512.64"/>
      </g>
     </g>
     <g id="text_22">
      <!-- 50 -->
      <g transform="translate(228.184318 536.356562)scale(0.22 -0.22)">
       <use xlink:href="#DejaVuSans-35"/>
       <use x="63.623047" xlink:href="#DejaVuSans-30"/>
      </g>
     </g>
    </g>
    <g id="xtick_13">
     <g id="line2d_25">
      <g>
       <use style="stroke:#000000;stroke-width:0.8;" x="369" xlink:href="#m2fd33dc3dc" y="512.64"/>
      </g>
     </g>
     <g id="text_23">
      <!-- 100 -->
      <g transform="translate(348.00375 536.356562)scale(0.22 -0.22)">
       <use xlink:href="#DejaVuSans-31"/>
       <use x="63.623047" xlink:href="#DejaVuSans-30"/>
       <use x="127.246094" xlink:href="#DejaVuSans-30"/>
      </g>
     </g>
    </g>
    <g id="xtick_14">
     <g id="line2d_26">
      <g>
       <use style="stroke:#000000;stroke-width:0.8;" x="495.818182" xlink:href="#m2fd33dc3dc" y="512.64"/>
      </g>
     </g>
     <g id="text_24">
      <!-- 150 -->
      <g transform="translate(474.821932 536.356562)scale(0.22 -0.22)">
       <use xlink:href="#DejaVuSans-31"/>
       <use x="63.623047" xlink:href="#DejaVuSans-35"/>
       <use x="127.246094" xlink:href="#DejaVuSans-30"/>
      </g>
     </g>
    </g>
    <g id="xtick_15">
     <g id="line2d_27">
      <g>
       <use style="stroke:#000000;stroke-width:0.8;" x="622.636364" xlink:href="#m2fd33dc3dc" y="512.64"/>
      </g>
     </g>
     <g id="text_25">
      <!-- 200 -->
      <g transform="translate(601.640114 536.356562)scale(0.22 -0.22)">
       <use xlink:href="#DejaVuSans-32"/>
       <use x="63.623047" xlink:href="#DejaVuSans-30"/>
       <use x="127.246094" xlink:href="#DejaVuSans-30"/>
      </g>
     </g>
    </g>
    <g id="text_26">
     <!-- steps [-] -->
     <g transform="translate(323.427344 561.648438)scale(0.22 -0.22)">
      <defs>
       <path d="M 1159 525 
L 1159 -1331 
L 581 -1331 
L 581 3500 
L 1159 3500 
L 1159 2969 
Q 1341 3281 1617 3432 
Q 1894 3584 2278 3584 
Q 2916 3584 3314 3078 
Q 3713 2572 3713 1747 
Q 3713 922 3314 415 
Q 2916 -91 2278 -91 
Q 1894 -91 1617 61 
Q 1341 213 1159 525 
z
M 3116 1747 
Q 3116 2381 2855 2742 
Q 2594 3103 2138 3103 
Q 1681 3103 1420 2742 
Q 1159 2381 1159 1747 
Q 1159 1113 1420 752 
Q 1681 391 2138 391 
Q 2594 391 2855 752 
Q 3116 1113 3116 1747 
z
" id="DejaVuSans-70" transform="scale(0.015625)"/>
       <path d="M 313 2009 
L 1997 2009 
L 1997 1497 
L 313 1497 
L 313 2009 
z
" id="DejaVuSans-2d" transform="scale(0.015625)"/>
      </defs>
      <use xlink:href="#DejaVuSans-73"/>
      <use x="52.099609" xlink:href="#DejaVuSans-74"/>
      <use x="91.308594" xlink:href="#DejaVuSans-65"/>
      <use x="152.832031" xlink:href="#DejaVuSans-70"/>
      <use x="216.308594" xlink:href="#DejaVuSans-73"/>
      <use x="268.408203" xlink:href="#DejaVuSans-20"/>
      <use x="300.195312" xlink:href="#DejaVuSans-5b"/>
      <use x="339.208984" xlink:href="#DejaVuSans-2d"/>
      <use x="375.292969" xlink:href="#DejaVuSans-5d"/>
     </g>
    </g>
   </g>
   <g id="matplotlib.axis_6">
    <g id="ytick_6">
     <g id="line2d_28">
      <g>
       <use style="stroke:#000000;stroke-width:0.8;" x="90" xlink:href="#m35ead9261c" y="506.712849"/>
      </g>
     </g>
     <g id="text_27">
      <!-- 0.0 -->
      <g transform="translate(48.013125 515.07113)scale(0.22 -0.22)">
       <use xlink:href="#DejaVuSans-30"/>
       <use x="63.623047" xlink:href="#DejaVuSans-2e"/>
       <use x="95.410156" xlink:href="#DejaVuSans-30"/>
      </g>
     </g>
    </g>
    <g id="ytick_7">
     <g id="line2d_29">
      <g>
       <use style="stroke:#000000;stroke-width:0.8;" x="90" xlink:href="#m35ead9261c" y="386.567569"/>
      </g>
     </g>
     <g id="text_28">
      <!-- 0.5 -->
      <g transform="translate(48.013125 394.92585)scale(0.22 -0.22)">
       <use xlink:href="#DejaVuSans-30"/>
       <use x="63.623047" xlink:href="#DejaVuSans-2e"/>
       <use x="95.410156" xlink:href="#DejaVuSans-35"/>
      </g>
     </g>
    </g>
    <g id="text_29">
     <!-- Position [m] -->
     <g transform="translate(39.437812 513.031471)rotate(-90)scale(0.22 -0.22)">
      <defs>
       <path d="M 1259 4147 
L 1259 2394 
L 2053 2394 
Q 2494 2394 2734 2622 
Q 2975 2850 2975 3272 
Q 2975 3691 2734 3919 
Q 2494 4147 2053 4147 
L 1259 4147 
z
M 628 4666 
L 2053 4666 
Q 2838 4666 3239 4311 
Q 3641 3956 3641 3272 
Q 3641 2581 3239 2228 
Q 2838 1875 2053 1875 
L 1259 1875 
L 1259 0 
L 628 0 
L 628 4666 
z
" id="DejaVuSans-50" transform="scale(0.015625)"/>
       <path d="M 3513 2113 
L 3513 0 
L 2938 0 
L 2938 2094 
Q 2938 2591 2744 2837 
Q 2550 3084 2163 3084 
Q 1697 3084 1428 2787 
Q 1159 2491 1159 1978 
L 1159 0 
L 581 0 
L 581 3500 
L 1159 3500 
L 1159 2956 
Q 1366 3272 1645 3428 
Q 1925 3584 2291 3584 
Q 2894 3584 3203 3211 
Q 3513 2838 3513 2113 
z
" id="DejaVuSans-6e" transform="scale(0.015625)"/>
      </defs>
      <use xlink:href="#DejaVuSans-50"/>
      <use x="56.677734" xlink:href="#DejaVuSans-6f"/>
      <use x="117.859375" xlink:href="#DejaVuSans-73"/>
      <use x="169.958984" xlink:href="#DejaVuSans-69"/>
      <use x="197.742188" xlink:href="#DejaVuSans-74"/>
      <use x="236.951172" xlink:href="#DejaVuSans-69"/>
      <use x="264.734375" xlink:href="#DejaVuSans-6f"/>
      <use x="325.916016" xlink:href="#DejaVuSans-6e"/>
      <use x="389.294922" xlink:href="#DejaVuSans-20"/>
      <use x="421.082031" xlink:href="#DejaVuSans-5b"/>
      <use x="460.095703" xlink:href="#DejaVuSans-6d"/>
      <use x="557.507812" xlink:href="#DejaVuSans-5d"/>
     </g>
    </g>
   </g>
   <g id="line2d_30">
    <path clip-path="url(#pfc555e5d1a)" d="M 115.363636 468.968096 
L 121.552364 469.079238 
L 127.766455 469.413219 
L 134.031273 469.973491 
L 140.346818 470.762089 
L 146.763818 471.788528 
L 153.282273 473.056924 
L 159.952909 474.58187 
L 166.826455 476.382404 
L 173.953636 478.481211 
L 181.385182 480.903528 
L 189.222545 483.694433 
L 197.617909 486.923744 
L 206.774182 490.688199 
L 217.173273 495.210535 
L 230.058 501.06955 
L 242.334 506.638315 
L 263.918455 496.670042 
L 275.535 491.556963 
L 285.3 487.497034 
L 294.050455 484.095808 
L 302.141455 481.186264 
L 309.750545 478.68327 
L 317.004545 476.528451 
L 323.979545 474.68598 
L 330.751636 473.125583 
L 337.346182 471.833005 
L 343.813909 470.791173 
L 350.180182 469.99069 
L 356.470364 469.423921 
L 362.709818 469.085241 
L 368.923909 468.971212 
L 375.112636 469.079781 
L 381.326727 469.411195 
L 387.591545 469.968912 
L 393.907091 470.754983 
L 400.324091 471.778922 
L 406.842545 473.044867 
L 413.513182 474.567413 
L 420.386727 476.365606 
L 427.513909 478.462149 
L 434.945455 480.882301 
L 442.782818 483.671162 
L 451.152818 486.888486 
L 460.309091 490.650608 
L 470.708182 495.170964 
L 483.542182 501.005123 
L 495.970364 506.632102 
L 517.554818 496.663301 
L 529.171364 491.549937 
L 538.936364 487.489769 
L 547.686818 484.088329 
L 555.777818 481.178587 
L 563.386909 478.675406 
L 570.640909 476.52041 
L 577.615909 474.677768 
L 584.388 473.117206 
L 590.982545 471.824466 
L 597.450273 470.782475 
L 603.816545 469.981837 
L 610.106727 469.414913 
L 616.346182 469.07608 
L 622.560273 468.9619 
L 622.636364 468.961887 
L 622.636364 468.961887 
" style="fill:none;stroke:#1f77b4;stroke-linecap:square;stroke-width:1.5;"/>
   </g>
   <g id="line2d_31">
    <path clip-path="url(#pfc555e5d1a)" d="M 115.363636 506.700991 
L 137.835818 491.077217 
L 149.858182 482.997584 
L 159.952909 476.476263 
L 168.982364 470.903304 
L 177.327 466.010611 
L 185.164364 461.669573 
L 192.646636 457.777241 
L 199.824545 454.29198 
L 206.774182 451.163321 
L 213.520909 448.368013 
L 220.115455 445.874426 
L 226.608545 443.655966 
L 233.000182 441.706056 
L 239.341091 440.003749 
L 245.631273 438.544842 
L 251.896091 437.319229 
L 258.160909 436.319131 
L 264.476455 435.536357 
L 270.842727 434.972061 
L 277.285091 434.624889 
L 283.828909 434.495225 
L 290.524909 434.585607 
L 297.423818 434.902759 
L 304.551 435.454354 
L 312.007909 436.256488 
L 319.896 437.331679 
L 328.367455 438.714638 
L 337.701273 440.468663 
L 348.480818 442.727832 
L 362.735182 445.960031 
L 392.385273 452.735584 
L 403.317 454.964191 
L 412.676182 456.648953 
L 421.122273 457.946701 
L 428.985 458.932292 
L 436.416545 459.641776 
L 443.518364 460.098641 
L 450.391909 460.319311 
L 457.062545 460.31243 
L 463.606364 460.083776 
L 470.023364 459.637817 
L 476.364273 458.974903 
L 482.654455 458.094014 
L 488.919273 456.992076 
L 495.184091 455.663804 
L 501.448909 454.108378 
L 507.764455 452.310996 
L 514.156091 450.259504 
L 520.623818 447.949112 
L 527.218364 445.355872 
L 533.965091 442.461852 
L 540.889364 439.247876 
L 548.041909 435.681006 
L 555.498818 431.711086 
L 563.310818 427.297464 
L 571.604727 422.353088 
L 580.558091 416.752698 
L 590.500636 410.265019 
L 602.091818 402.426492 
L 617.842636 391.482749 
L 622.636364 388.122353 
L 622.636364 388.122353 
" style="fill:none;stroke:#ff7f0e;stroke-linecap:square;stroke-width:1.5;"/>
   </g>
   <g id="patch_14">
    <path d="M 90 512.64 
L 90 382.192941 
" style="fill:none;stroke:#000000;stroke-linecap:square;stroke-linejoin:miter;stroke-width:0.8;"/>
   </g>
   <g id="patch_15">
    <path d="M 648 512.64 
L 648 382.192941 
" style="fill:none;stroke:#000000;stroke-linecap:square;stroke-linejoin:miter;stroke-width:0.8;"/>
   </g>
   <g id="patch_16">
    <path d="M 90 512.64 
L 648 512.64 
" style="fill:none;stroke:#000000;stroke-linecap:square;stroke-linejoin:miter;stroke-width:0.8;"/>
   </g>
   <g id="patch_17">
    <path d="M 90 382.192941 
L 648 382.192941 
" style="fill:none;stroke:#000000;stroke-linecap:square;stroke-linejoin:miter;stroke-width:0.8;"/>
   </g>
   <g id="legend_2">
    <g id="patch_18">
     <path d="M 105.4 465.600441 
L 242.147188 465.600441 
Q 246.547188 465.600441 246.547188 461.200441 
L 246.547188 397.592941 
Q 246.547188 393.192941 242.147188 393.192941 
L 105.4 393.192941 
Q 101 393.192941 101 397.592941 
L 101 461.200441 
Q 101 465.600441 105.4 465.600441 
z
" style="fill:#ffffff;opacity:0.8;stroke:#cccccc;stroke-linejoin:miter;"/>
    </g>
    <g id="line2d_32">
     <path d="M 109.8 411.009504 
L 153.8 411.009504 
" style="fill:none;stroke:#1f77b4;stroke-linecap:square;stroke-width:1.5;"/>
    </g>
    <g id="line2d_33"/>
    <g id="text_30">
     <!-- pos_E -->
     <g transform="translate(171.4 418.709504)scale(0.22 -0.22)">
      <use xlink:href="#DejaVuSans-70"/>
      <use x="63.476562" xlink:href="#DejaVuSans-6f"/>
      <use x="124.658203" xlink:href="#DejaVuSans-73"/>
      <use x="176.757812" xlink:href="#DejaVuSans-5f"/>
      <use x="226.757812" xlink:href="#DejaVuSans-45"/>
     </g>
    </g>
    <g id="line2d_34">
     <path d="M 109.8 443.913254 
L 153.8 443.913254 
" style="fill:none;stroke:#ff7f0e;stroke-linecap:square;stroke-width:1.5;"/>
    </g>
    <g id="line2d_35"/>
    <g id="text_31">
     <!-- pos_N -->
     <g transform="translate(171.4 451.613254)scale(0.22 -0.22)">
      <use xlink:href="#DejaVuSans-70"/>
      <use x="63.476562" xlink:href="#DejaVuSans-6f"/>
      <use x="124.658203" xlink:href="#DejaVuSans-73"/>
      <use x="176.757812" xlink:href="#DejaVuSans-5f"/>
      <use x="226.757812" xlink:href="#DejaVuSans-4e"/>
     </g>
    </g>
   </g>
  </g>
 </g>
 <defs>
  <clipPath id="pb1a523928b">
   <rect height="130.447059" width="558" x="90" y="69.12"/>
  </clipPath>
  <clipPath id="pce5b072eb2">
   <rect height="130.447059" width="558" x="90" y="225.656471"/>
  </clipPath>
  <clipPath id="pfc555e5d1a">
   <rect height="130.447059" width="558" x="90" y="382.192941"/>
  </clipPath>
 </defs>
</svg>
