<?xml version="1.0" encoding="utf-8" standalone="no"?>
<!DOCTYPE svg PUBLIC "-//W3C//DTD SVG 1.1//EN"
  "http://www.w3.org/Graphics/SVG/1.1/DTD/svg11.dtd">
<svg height="576pt" version="1.1" viewBox="0 0 720 576" width="720pt" xmlns="http://www.w3.org/2000/svg" xmlns:xlink="http://www.w3.org/1999/xlink">
 <metadata>
  <rdf:RDF xmlns:cc="http://creativecommons.org/ns#" xmlns:dc="http://purl.org/dc/elements/1.1/" xmlns:rdf="http://www.w3.org/1999/02/22-rdf-syntax-ns#">
   <cc:Work>
    <dc:type rdf:resource="http://purl.org/dc/dcmitype/StillImage"/>
    <dc:date>2024-04-03T18:48:44.844817</dc:date>
    <dc:format>image/svg+xml</dc:format>
    <dc:creator>
     <cc:Agent>
      <dc:title>Matplotlib v3.4.2, https://matplotlib.org/</dc:title>
     </cc:Agent>
    </dc:creator>
   </cc:Work>
  </rdf:RDF>
 </metadata>
 <defs>
  <style type="text/css">*{stroke-linecap:butt;stroke-linejoin:round;}</style>
 </defs>
 <g id="figure_1">
  <g id="patch_1">
   <path d="M 0 576 
L 720 576 
L 720 0 
L 0 0 
z
" style="fill:#ffffff;"/>
  </g>
  <g id="axes_1">
   <g id="patch_2">
    <path d="M 90 199.567059 
L 648 199.567059 
L 648 69.12 
L 90 69.12 
z
" style="fill:#ffffff;"/>
   </g>
   <g id="matplotlib.axis_1">
    <g id="xtick_1">
     <g id="line2d_1">
      <defs>
       <path d="M 0 0 
L 0 3.5 
" id="m61f305ad50" style="stroke:#000000;stroke-width:0.8;"/>
      </defs>
      <g>
       <use style="stroke:#000000;stroke-width:0.8;" x="115.363636" xlink:href="#m61f305ad50" y="199.567059"/>
      </g>
     </g>
     <g id="text_1">
      <!-- 0 -->
      <g transform="translate(108.364886 223.283621)scale(0.22 -0.22)">
       <defs>
        <path d="M 2034 4250 
Q 1547 4250 1301 3770 
Q 1056 3291 1056 2328 
Q 1056 1369 1301 889 
Q 1547 409 2034 409 
Q 2525 409 2770 889 
Q 3016 1369 3016 2328 
Q 3016 3291 2770 3770 
Q 2525 4250 2034 4250 
z
M 2034 4750 
Q 2819 4750 3233 4129 
Q 3647 3509 3647 2328 
Q 3647 1150 3233 529 
Q 2819 -91 2034 -91 
Q 1250 -91 836 529 
Q 422 1150 422 2328 
Q 422 3509 836 4129 
Q 1250 4750 2034 4750 
z
" id="DejaVuSans-30" transform="scale(0.015625)"/>
       </defs>
       <use xlink:href="#DejaVuSans-30"/>
      </g>
     </g>
    </g>
    <g id="xtick_2">
     <g id="line2d_2">
      <g>
       <use style="stroke:#000000;stroke-width:0.8;" x="242.181818" xlink:href="#m61f305ad50" y="199.567059"/>
      </g>
     </g>
     <g id="text_2">
      <!-- 50 -->
      <g transform="translate(228.184318 223.283621)scale(0.22 -0.22)">
       <defs>
        <path d="M 691 4666 
L 3169 4666 
L 3169 4134 
L 1269 4134 
L 1269 2991 
Q 1406 3038 1543 3061 
Q 1681 3084 1819 3084 
Q 2600 3084 3056 2656 
Q 3513 2228 3513 1497 
Q 3513 744 3044 326 
Q 2575 -91 1722 -91 
Q 1428 -91 1123 -41 
Q 819 9 494 109 
L 494 744 
Q 775 591 1075 516 
Q 1375 441 1709 441 
Q 2250 441 2565 725 
Q 2881 1009 2881 1497 
Q 2881 1984 2565 2268 
Q 2250 2553 1709 2553 
Q 1456 2553 1204 2497 
Q 953 2441 691 2322 
L 691 4666 
z
" id="DejaVuSans-35" transform="scale(0.015625)"/>
       </defs>
       <use xlink:href="#DejaVuSans-35"/>
       <use x="63.623047" xlink:href="#DejaVuSans-30"/>
      </g>
     </g>
    </g>
    <g id="xtick_3">
     <g id="line2d_3">
      <g>
       <use style="stroke:#000000;stroke-width:0.8;" x="369" xlink:href="#m61f305ad50" y="199.567059"/>
      </g>
     </g>
     <g id="text_3">
      <!-- 100 -->
      <g transform="translate(348.00375 223.283621)scale(0.22 -0.22)">
       <defs>
        <path d="M 794 531 
L 1825 531 
L 1825 4091 
L 703 3866 
L 703 4441 
L 1819 4666 
L 2450 4666 
L 2450 531 
L 3481 531 
L 3481 0 
L 794 0 
L 794 531 
z
" id="DejaVuSans-31" transform="scale(0.015625)"/>
       </defs>
       <use xlink:href="#DejaVuSans-31"/>
       <use x="63.623047" xlink:href="#DejaVuSans-30"/>
       <use x="127.246094" xlink:href="#DejaVuSans-30"/>
      </g>
     </g>
    </g>
    <g id="xtick_4">
     <g id="line2d_4">
      <g>
       <use style="stroke:#000000;stroke-width:0.8;" x="495.818182" xlink:href="#m61f305ad50" y="199.567059"/>
      </g>
     </g>
     <g id="text_4">
      <!-- 150 -->
      <g transform="translate(474.821932 223.283621)scale(0.22 -0.22)">
       <use xlink:href="#DejaVuSans-31"/>
       <use x="63.623047" xlink:href="#DejaVuSans-35"/>
       <use x="127.246094" xlink:href="#DejaVuSans-30"/>
      </g>
     </g>
    </g>
    <g id="xtick_5">
     <g id="line2d_5">
      <g>
       <use style="stroke:#000000;stroke-width:0.8;" x="622.636364" xlink:href="#m61f305ad50" y="199.567059"/>
      </g>
     </g>
     <g id="text_5">
      <!-- 200 -->
      <g transform="translate(601.640114 223.283621)scale(0.22 -0.22)">
       <defs>
        <path d="M 1228 531 
L 3431 531 
L 3431 0 
L 469 0 
L 469 531 
Q 828 903 1448 1529 
Q 2069 2156 2228 2338 
Q 2531 2678 2651 2914 
Q 2772 3150 2772 3378 
Q 2772 3750 2511 3984 
Q 2250 4219 1831 4219 
Q 1534 4219 1204 4116 
Q 875 4013 500 3803 
L 500 4441 
Q 881 4594 1212 4672 
Q 1544 4750 1819 4750 
Q 2544 4750 2975 4387 
Q 3406 4025 3406 3419 
Q 3406 3131 3298 2873 
Q 3191 2616 2906 2266 
Q 2828 2175 2409 1742 
Q 1991 1309 1228 531 
z
" id="DejaVuSans-32" transform="scale(0.015625)"/>
       </defs>
       <use xlink:href="#DejaVuSans-32"/>
       <use x="63.623047" xlink:href="#DejaVuSans-30"/>
       <use x="127.246094" xlink:href="#DejaVuSans-30"/>
      </g>
     </g>
    </g>
   </g>
   <g id="matplotlib.axis_2">
    <g id="ytick_1">
     <g id="line2d_6">
      <defs>
       <path d="M 0 0 
L -3.5 0 
" id="m5e6bb8d373" style="stroke:#000000;stroke-width:0.8;"/>
      </defs>
      <g>
       <use style="stroke:#000000;stroke-width:0.8;" x="90" xlink:href="#m5e6bb8d373" y="193.637647"/>
      </g>
     </g>
     <g id="text_6">
      <!-- 0 -->
      <g transform="translate(69.0025 201.995928)scale(0.22 -0.22)">
       <use xlink:href="#DejaVuSans-30"/>
      </g>
     </g>
    </g>
    <g id="ytick_2">
     <g id="line2d_7">
      <g>
       <use style="stroke:#000000;stroke-width:0.8;" x="90" xlink:href="#m5e6bb8d373" y="81.437241"/>
      </g>
     </g>
     <g id="text_7">
      <!-- 2 -->
      <g transform="translate(69.0025 89.795522)scale(0.22 -0.22)">
       <use xlink:href="#DejaVuSans-32"/>
      </g>
     </g>
    </g>
    <g id="text_8">
     <!-- Azimuth [rad] -->
     <g transform="translate(60.427187 209.992592)rotate(-90)scale(0.22 -0.22)">
      <defs>
       <path d="M 2188 4044 
L 1331 1722 
L 3047 1722 
L 2188 4044 
z
M 1831 4666 
L 2547 4666 
L 4325 0 
L 3669 0 
L 3244 1197 
L 1141 1197 
L 716 0 
L 50 0 
L 1831 4666 
z
" id="DejaVuSans-41" transform="scale(0.015625)"/>
       <path d="M 353 3500 
L 3084 3500 
L 3084 2975 
L 922 459 
L 3084 459 
L 3084 0 
L 275 0 
L 275 525 
L 2438 3041 
L 353 3041 
L 353 3500 
z
" id="DejaVuSans-7a" transform="scale(0.015625)"/>
       <path d="M 603 3500 
L 1178 3500 
L 1178 0 
L 603 0 
L 603 3500 
z
M 603 4863 
L 1178 4863 
L 1178 4134 
L 603 4134 
L 603 4863 
z
" id="DejaVuSans-69" transform="scale(0.015625)"/>
       <path d="M 3328 2828 
Q 3544 3216 3844 3400 
Q 4144 3584 4550 3584 
Q 5097 3584 5394 3201 
Q 5691 2819 5691 2113 
L 5691 0 
L 5113 0 
L 5113 2094 
Q 5113 2597 4934 2840 
Q 4756 3084 4391 3084 
Q 3944 3084 3684 2787 
Q 3425 2491 3425 1978 
L 3425 0 
L 2847 0 
L 2847 2094 
Q 2847 2600 2669 2842 
Q 2491 3084 2119 3084 
Q 1678 3084 1418 2786 
Q 1159 2488 1159 1978 
L 1159 0 
L 581 0 
L 581 3500 
L 1159 3500 
L 1159 2956 
Q 1356 3278 1631 3431 
Q 1906 3584 2284 3584 
Q 2666 3584 2933 3390 
Q 3200 3197 3328 2828 
z
" id="DejaVuSans-6d" transform="scale(0.015625)"/>
       <path d="M 544 1381 
L 544 3500 
L 1119 3500 
L 1119 1403 
Q 1119 906 1312 657 
Q 1506 409 1894 409 
Q 2359 409 2629 706 
Q 2900 1003 2900 1516 
L 2900 3500 
L 3475 3500 
L 3475 0 
L 2900 0 
L 2900 538 
Q 2691 219 2414 64 
Q 2138 -91 1772 -91 
Q 1169 -91 856 284 
Q 544 659 544 1381 
z
M 1991 3584 
L 1991 3584 
z
" id="DejaVuSans-75" transform="scale(0.015625)"/>
       <path d="M 1172 4494 
L 1172 3500 
L 2356 3500 
L 2356 3053 
L 1172 3053 
L 1172 1153 
Q 1172 725 1289 603 
Q 1406 481 1766 481 
L 2356 481 
L 2356 0 
L 1766 0 
Q 1100 0 847 248 
Q 594 497 594 1153 
L 594 3053 
L 172 3053 
L 172 3500 
L 594 3500 
L 594 4494 
L 1172 4494 
z
" id="DejaVuSans-74" transform="scale(0.015625)"/>
       <path d="M 3513 2113 
L 3513 0 
L 2938 0 
L 2938 2094 
Q 2938 2591 2744 2837 
Q 2550 3084 2163 3084 
Q 1697 3084 1428 2787 
Q 1159 2491 1159 1978 
L 1159 0 
L 581 0 
L 581 4863 
L 1159 4863 
L 1159 2956 
Q 1366 3272 1645 3428 
Q 1925 3584 2291 3584 
Q 2894 3584 3203 3211 
Q 3513 2838 3513 2113 
z
" id="DejaVuSans-68" transform="scale(0.015625)"/>
       <path id="DejaVuSans-20" transform="scale(0.015625)"/>
       <path d="M 550 4863 
L 1875 4863 
L 1875 4416 
L 1125 4416 
L 1125 -397 
L 1875 -397 
L 1875 -844 
L 550 -844 
L 550 4863 
z
" id="DejaVuSans-5b" transform="scale(0.015625)"/>
       <path d="M 2631 2963 
Q 2534 3019 2420 3045 
Q 2306 3072 2169 3072 
Q 1681 3072 1420 2755 
Q 1159 2438 1159 1844 
L 1159 0 
L 581 0 
L 581 3500 
L 1159 3500 
L 1159 2956 
Q 1341 3275 1631 3429 
Q 1922 3584 2338 3584 
Q 2397 3584 2469 3576 
Q 2541 3569 2628 3553 
L 2631 2963 
z
" id="DejaVuSans-72" transform="scale(0.015625)"/>
       <path d="M 2194 1759 
Q 1497 1759 1228 1600 
Q 959 1441 959 1056 
Q 959 750 1161 570 
Q 1363 391 1709 391 
Q 2188 391 2477 730 
Q 2766 1069 2766 1631 
L 2766 1759 
L 2194 1759 
z
M 3341 1997 
L 3341 0 
L 2766 0 
L 2766 531 
Q 2569 213 2275 61 
Q 1981 -91 1556 -91 
Q 1019 -91 701 211 
Q 384 513 384 1019 
Q 384 1609 779 1909 
Q 1175 2209 1959 2209 
L 2766 2209 
L 2766 2266 
Q 2766 2663 2505 2880 
Q 2244 3097 1772 3097 
Q 1472 3097 1187 3025 
Q 903 2953 641 2809 
L 641 3341 
Q 956 3463 1253 3523 
Q 1550 3584 1831 3584 
Q 2591 3584 2966 3190 
Q 3341 2797 3341 1997 
z
" id="DejaVuSans-61" transform="scale(0.015625)"/>
       <path d="M 2906 2969 
L 2906 4863 
L 3481 4863 
L 3481 0 
L 2906 0 
L 2906 525 
Q 2725 213 2448 61 
Q 2172 -91 1784 -91 
Q 1150 -91 751 415 
Q 353 922 353 1747 
Q 353 2572 751 3078 
Q 1150 3584 1784 3584 
Q 2172 3584 2448 3432 
Q 2725 3281 2906 2969 
z
M 947 1747 
Q 947 1113 1208 752 
Q 1469 391 1925 391 
Q 2381 391 2643 752 
Q 2906 1113 2906 1747 
Q 2906 2381 2643 2742 
Q 2381 3103 1925 3103 
Q 1469 3103 1208 2742 
Q 947 2381 947 1747 
z
" id="DejaVuSans-64" transform="scale(0.015625)"/>
       <path d="M 1947 4863 
L 1947 -844 
L 622 -844 
L 622 -397 
L 1369 -397 
L 1369 4416 
L 622 4416 
L 622 4863 
L 1947 4863 
z
" id="DejaVuSans-5d" transform="scale(0.015625)"/>
      </defs>
      <use xlink:href="#DejaVuSans-41"/>
      <use x="68.408203" xlink:href="#DejaVuSans-7a"/>
      <use x="120.898438" xlink:href="#DejaVuSans-69"/>
      <use x="148.681641" xlink:href="#DejaVuSans-6d"/>
      <use x="246.09375" xlink:href="#DejaVuSans-75"/>
      <use x="309.472656" xlink:href="#DejaVuSans-74"/>
      <use x="348.681641" xlink:href="#DejaVuSans-68"/>
      <use x="412.060547" xlink:href="#DejaVuSans-20"/>
      <use x="443.847656" xlink:href="#DejaVuSans-5b"/>
      <use x="482.861328" xlink:href="#DejaVuSans-72"/>
      <use x="523.974609" xlink:href="#DejaVuSans-61"/>
      <use x="585.253906" xlink:href="#DejaVuSans-64"/>
      <use x="648.730469" xlink:href="#DejaVuSans-5d"/>
     </g>
    </g>
    <g id="text_9">
     <!-- 1e−12 -->
     <g transform="translate(90 66.12)scale(0.22 -0.22)">
      <defs>
       <path d="M 3597 1894 
L 3597 1613 
L 953 1613 
Q 991 1019 1311 708 
Q 1631 397 2203 397 
Q 2534 397 2845 478 
Q 3156 559 3463 722 
L 3463 178 
Q 3153 47 2828 -22 
Q 2503 -91 2169 -91 
Q 1331 -91 842 396 
Q 353 884 353 1716 
Q 353 2575 817 3079 
Q 1281 3584 2069 3584 
Q 2775 3584 3186 3129 
Q 3597 2675 3597 1894 
z
M 3022 2063 
Q 3016 2534 2758 2815 
Q 2500 3097 2075 3097 
Q 1594 3097 1305 2825 
Q 1016 2553 972 2059 
L 3022 2063 
z
" id="DejaVuSans-65" transform="scale(0.015625)"/>
       <path d="M 678 2272 
L 4684 2272 
L 4684 1741 
L 678 1741 
L 678 2272 
z
" id="DejaVuSans-2212" transform="scale(0.015625)"/>
      </defs>
      <use xlink:href="#DejaVuSans-31"/>
      <use x="63.623047" xlink:href="#DejaVuSans-65"/>
      <use x="125.146484" xlink:href="#DejaVuSans-2212"/>
      <use x="208.935547" xlink:href="#DejaVuSans-31"/>
      <use x="272.558594" xlink:href="#DejaVuSans-32"/>
     </g>
    </g>
   </g>
   <g id="line2d_8">
    <path clip-path="url(#pe5fd70ec1c)" d="M 115.363636 193.637647 
L 116.124545 193.63317 
L 123.353182 193.634533 
L 124.545273 193.63609 
L 126.980182 193.589377 
L 127.259182 193.584706 
L 128.400545 193.545779 
L 128.679545 193.541107 
L 129.415091 193.516194 
L 129.770182 193.511522 
L 130.962273 193.466367 
L 131.317364 193.461696 
L 132.052909 193.435225 
L 132.331909 193.430554 
L 133.473273 193.393183 
L 133.828364 193.388512 
L 134.614636 193.354256 
L 134.919 193.35737 
L 136.111091 193.310657 
L 136.415455 193.304429 
L 137.531455 193.270173 
L 137.962636 193.267059 
L 138.520636 193.242145 
L 139.687364 193.201661 
L 140.118545 193.195433 
L 141.310636 193.151834 
L 141.615 193.154948 
L 142.147636 193.136263 
L 143.339727 193.08955 
L 143.644091 193.092664 
L 144.836182 193.049066 
L 145.115182 193.042837 
L 146.256545 193.002353 
L 146.560909 192.996125 
L 147.676909 192.961869 
L 148.108091 192.958754 
L 148.666091 192.933841 
L 149.832818 192.893356 
L 150.238636 192.8809 
L 150.669818 192.862215 
L 150.822 192.865329 
L 151.887273 192.827958 
L 152.064818 192.824844 
L 153.104727 192.790588 
L 153.256909 192.790588 
L 157.543364 192.877785 
L 157.720909 192.902699 
L 158.760818 192.996125 
L 158.989091 193.033495 
L 160.181182 193.12692 
L 160.409455 193.170519 
L 160.612364 193.182976 
L 161.804455 193.276401 
L 162.032727 193.32 
L 162.413182 193.332457 
L 162.641455 193.369827 
L 163.833545 193.463253 
L 164.011091 193.488166 
L 164.366182 193.506851 
L 164.543727 193.531765 
L 167.891727 193.438339 
L 168.12 193.39474 
L 168.500455 193.382284 
L 168.678 193.35737 
L 169.717909 193.270173 
L 169.895455 193.24526 
L 170.935364 193.158062 
L 171.112909 193.133149 
L 172.152818 193.039723 
L 172.381091 193.002353 
L 173.573182 192.915156 
L 173.750727 192.890242 
L 174.790636 192.803045 
L 174.968182 192.778131 
L 176.008091 192.684706 
L 176.236364 192.647336 
L 177.428455 192.560138 
L 177.606 192.535225 
L 178.645909 192.441799 
L 178.874182 192.404429 
L 180.066273 192.311003 
L 180.294545 192.267405 
L 180.497455 192.254948 
L 181.689545 192.161522 
L 181.917818 192.117924 
L 182.298273 192.105467 
L 182.475818 192.080554 
L 182.830909 192.061869 
L 183.059182 192.01827 
L 183.262091 192.005813 
L 184.454182 191.912388 
L 184.682455 191.868789 
L 185.062909 191.856332 
L 185.240455 191.831419 
L 186.356455 191.725536 
L 186.584727 191.688166 
L 186.965182 191.675709 
L 187.142727 191.650796 
L 188.309455 191.551142 
L 188.639182 191.507543 
L 189.805909 191.407889 
L 190.034182 191.370519 
L 190.414636 191.358062 
L 190.592182 191.333149 
L 191.632091 191.245952 
L 191.809636 191.221038 
L 192.849545 191.127612 
L 193.077818 191.090242 
L 194.269909 191.003045 
L 194.447455 190.978131 
L 195.487364 190.884706 
L 195.715636 190.847336 
L 196.882364 190.922076 
L 197.009182 190.971903 
L 197.136 190.959446 
L 197.288182 190.996817 
L 197.617909 191.0591 
L 197.795455 191.071557 
L 197.973 191.121384 
L 198.099818 191.121384 
L 198.429545 191.183668 
L 198.607091 191.196125 
L 198.784636 191.245952 
L 198.911455 191.245952 
L 199.241182 191.308235 
L 199.418727 191.308235 
L 199.545545 191.358062 
L 199.672364 191.345606 
L 199.824545 191.382976 
L 200.002091 191.432803 
L 200.128909 191.420346 
L 200.255727 191.470173 
L 200.382545 191.457716 
L 200.534727 191.495087 
L 200.864455 191.55737 
L 201.042 191.55737 
L 201.168818 191.607197 
L 201.295636 191.59474 
L 201.447818 191.632111 
L 201.777545 191.706851 
L 201.904364 191.694394 
L 202.081909 191.756678 
L 202.208727 191.744221 
L 202.386273 191.794048 
L 202.513091 191.794048 
L 202.690636 191.843875 
L 202.817455 191.831419 
L 202.995 191.881246 
L 203.172545 191.893702 
L 203.350091 191.943529 
L 203.476909 191.931073 
L 203.603727 191.9809 
L 203.730545 191.968443 
L 203.882727 192.005813 
L 204.212455 192.068097 
L 204.39 192.068097 
L 204.516818 192.117924 
L 204.643636 192.105467 
L 204.795818 192.142837 
L 204.973364 192.192664 
L 205.100182 192.180208 
L 205.252364 192.217578 
L 205.582091 192.279862 
L 205.759636 192.279862 
L 205.886455 192.329689 
L 206.013273 192.317232 
L 206.140091 192.367059 
L 206.266909 192.354602 
L 206.419091 192.391972 
L 206.748818 192.466713 
L 206.875636 192.454256 
L 207.053182 192.51654 
L 207.18 192.504083 
L 207.357545 192.55391 
L 207.484364 192.55391 
L 207.661909 192.603737 
L 207.788727 192.603737 
L 208.118455 192.666021 
L 208.296 192.678478 
L 208.473545 192.728304 
L 208.600364 192.728304 
L 208.930091 192.790588 
L 209.107636 192.803045 
L 209.285182 192.852872 
L 209.412 192.852872 
L 209.741727 192.915156 
L 209.919273 192.927612 
L 210.096818 192.977439 
L 210.223636 192.977439 
L 210.553364 193.039723 
L 210.730909 193.039723 
L 210.857727 193.08955 
L 210.984545 193.077093 
L 211.136727 193.114464 
L 211.314273 193.164291 
L 211.441091 193.151834 
L 211.593273 193.189204 
L 211.923 193.251488 
L 212.100545 193.251488 
L 212.227364 193.301315 
L 212.354182 193.288858 
L 212.481 193.338685 
L 212.607818 193.326228 
L 212.76 193.363599 
L 213.089727 193.425882 
L 213.267273 193.438339 
L 213.444818 193.488166 
L 213.571636 193.488166 
L 213.901364 193.55045 
L 214.078909 193.562907 
L 214.256455 193.612734 
L 214.383273 193.612734 
L 214.636909 193.62519 
L 214.814455 193.575363 
L 214.941273 193.575363 
L 215.271 193.51308 
L 215.448545 193.500623 
L 215.626091 193.450796 
L 215.752909 193.450796 
L 216.082636 193.388512 
L 216.260182 193.388512 
L 216.387 193.338685 
L 216.513818 193.351142 
L 216.666 193.313772 
L 216.843545 193.263945 
L 216.970364 193.276401 
L 217.122545 193.239031 
L 217.452273 193.176747 
L 217.629818 193.176747 
L 217.756636 193.12692 
L 217.883455 193.139377 
L 218.010273 193.08955 
L 218.137091 193.102007 
L 218.289273 193.064637 
L 218.619 192.989896 
L 218.745818 193.002353 
L 218.923364 192.940069 
L 219.050182 192.952526 
L 219.227727 192.902699 
L 219.354545 192.902699 
L 219.532091 192.852872 
L 219.658909 192.852872 
L 219.988636 192.790588 
L 220.166182 192.778131 
L 220.343727 192.728304 
L 220.470545 192.728304 
L 220.800273 192.666021 
L 220.977818 192.653564 
L 221.155364 192.603737 
L 221.282182 192.603737 
L 221.611909 192.541453 
L 221.789455 192.528997 
L 221.967 192.47917 
L 222.093818 192.47917 
L 222.423545 192.416886 
L 222.601091 192.416886 
L 222.727909 192.367059 
L 222.854727 192.379516 
L 223.006909 192.342145 
L 223.184455 192.292318 
L 223.311273 192.304775 
L 223.463455 192.267405 
L 223.793182 192.205121 
L 223.970727 192.205121 
L 224.097545 192.155294 
L 224.224364 192.167751 
L 224.351182 192.117924 
L 224.478 192.130381 
L 224.630182 192.09301 
L 224.959909 192.030727 
L 225.137455 192.01827 
L 225.315 191.968443 
L 225.441818 191.968443 
L 225.771545 191.906159 
L 225.949091 191.893702 
L 226.126636 191.843875 
L 226.253455 191.843875 
L 226.583182 191.781592 
L 226.760727 191.769135 
L 226.938273 191.719308 
L 227.065091 191.719308 
L 227.394818 191.657024 
L 227.572364 191.657024 
L 227.699182 191.607197 
L 227.826 191.619654 
L 227.978182 191.582284 
L 228.155727 191.532457 
L 228.282545 191.544913 
L 228.434727 191.507543 
L 228.764455 191.44526 
L 228.942 191.44526 
L 229.068818 191.395433 
L 229.195636 191.407889 
L 229.347818 191.370519 
L 229.677545 191.295779 
L 229.804364 191.295779 
L 230.134091 191.233495 
L 230.311636 191.233495 
L 230.438455 191.183668 
L 230.565273 191.196125 
L 230.692091 191.146298 
L 230.818909 191.158754 
L 230.971091 191.121384 
L 231.300818 191.0591 
L 231.478364 191.046644 
L 231.655909 190.996817 
L 231.782727 190.996817 
L 232.112455 190.934533 
L 232.29 190.922076 
L 232.467545 190.872249 
L 232.594364 190.872249 
L 232.924091 190.809965 
L 233.101636 190.809965 
L 233.228455 190.760138 
L 233.355273 190.772595 
L 233.507455 190.735225 
L 233.685 190.685398 
L 233.811818 190.697855 
L 233.964 190.660484 
L 234.293727 190.598201 
L 234.471273 190.598201 
L 234.598091 190.548374 
L 234.724909 190.56083 
L 234.877091 190.52346 
L 235.054636 190.473633 
L 235.181455 190.48609 
L 235.308273 190.436263 
L 235.435091 190.44872 
L 235.561909 190.398893 
L 235.688727 190.398893 
L 236.018455 190.324152 
L 236.145273 190.324152 
L 236.475 190.261869 
L 236.652545 190.261869 
L 236.779364 190.224498 
L 236.956909 190.212042 
L 237.134455 190.149758 
L 237.261273 190.162215 
L 237.438818 190.112388 
L 237.565636 190.112388 
L 237.743182 190.062561 
L 237.87 190.075017 
L 238.047545 190.02519 
L 238.174364 190.02519 
L 238.351909 189.975363 
L 238.529455 189.975363 
L 238.656273 189.925536 
L 238.783091 189.937993 
L 238.935273 189.900623 
L 239.265 189.838339 
L 239.442545 189.838339 
L 239.569364 189.788512 
L 239.696182 189.800969 
L 239.848364 189.763599 
L 240.025909 189.713772 
L 240.152727 189.726228 
L 240.304909 189.688858 
L 240.634636 189.626574 
L 240.812182 189.626574 
L 240.939 189.576747 
L 241.065818 189.589204 
L 241.192636 189.539377 
L 241.319455 189.551834 
L 241.471636 189.514464 
L 241.801364 189.45218 
L 241.978909 189.439723 
L 242.156455 189.389896 
L 242.283273 189.389896 
L 242.613 189.327612 
L 242.790545 189.315156 
L 242.968091 189.265329 
L 243.094909 189.265329 
L 243.424636 189.203045 
L 243.602182 189.190588 
L 243.779727 189.140761 
L 243.906545 189.140761 
L 244.084091 189.090934 
L 244.210909 189.103391 
L 244.388455 189.053564 
L 244.515273 189.053564 
L 244.692818 189.003737 
L 244.870364 189.003737 
L 244.997182 188.95391 
L 245.124 188.966367 
L 245.276182 188.928997 
L 245.605909 188.866713 
L 245.783455 188.866713 
L 245.910273 188.816886 
L 246.037091 188.829343 
L 246.189273 188.791972 
L 246.519 188.717232 
L 246.645818 188.717232 
L 246.975545 188.654948 
L 247.153091 188.654948 
L 247.279909 188.605121 
L 247.406727 188.617578 
L 247.533545 188.567751 
L 247.660364 188.580208 
L 247.812545 188.542837 
L 248.142273 188.480554 
L 248.319818 188.468097 
L 248.497364 188.41827 
L 248.624182 188.41827 
L 248.953909 188.355986 
L 249.131455 188.343529 
L 249.309 188.293702 
L 249.435818 188.293702 
L 249.765545 188.231419 
L 249.943091 188.231419 
L 250.069909 188.181592 
L 250.196727 188.194048 
L 250.348909 188.156678 
L 250.526455 188.106851 
L 250.653273 188.119308 
L 250.805455 188.081938 
L 251.135182 188.019654 
L 251.312727 188.019654 
L 251.439545 187.969827 
L 251.566364 187.982284 
L 251.718545 187.944913 
L 251.896091 187.895087 
L 252.022909 187.907543 
L 252.175091 187.870173 
L 252.504818 187.807889 
L 252.682364 187.807889 
L 252.809182 187.758062 
L 252.936 187.770519 
L 253.062818 187.720692 
L 253.189636 187.733149 
L 253.341818 187.695779 
L 253.671545 187.633495 
L 253.849091 187.621038 
L 254.026636 187.571211 
L 254.153455 187.571211 
L 254.483182 187.508927 
L 254.660727 187.496471 
L 254.838273 187.446644 
L 254.965091 187.446644 
L 255.294818 187.38436 
L 255.472364 187.371903 
L 255.649909 187.322076 
L 255.776727 187.322076 
L 256.106455 187.259792 
L 256.284 187.259792 
L 256.410818 187.209965 
L 256.537636 187.222422 
L 256.689818 187.185052 
L 256.867364 187.135225 
L 256.994182 187.147682 
L 257.146364 187.110311 
L 257.476091 187.048028 
L 257.653636 187.048028 
L 257.780455 186.998201 
L 257.907273 187.010657 
L 258.059455 186.973287 
L 258.389182 186.898547 
L 258.516 186.898547 
L 258.845727 186.836263 
L 259.023273 186.836263 
L 259.150091 186.786436 
L 259.276909 186.798893 
L 259.403727 186.749066 
L 259.530545 186.761522 
L 259.682727 186.724152 
L 260.012455 186.661869 
L 260.19 186.649412 
L 260.367545 186.599585 
L 260.494364 186.599585 
L 260.824091 186.537301 
L 261.001636 186.524844 
L 261.179182 186.475017 
L 261.306 186.475017 
L 261.635727 186.412734 
L 261.813273 186.412734 
L 261.940091 186.362907 
L 262.066909 186.375363 
L 262.219091 186.337993 
L 262.396636 186.288166 
L 262.523455 186.300623 
L 262.675636 186.263253 
L 263.005364 186.200969 
L 263.182909 186.200969 
L 263.309727 186.151142 
L 263.436545 186.163599 
L 263.588727 186.126228 
L 263.766273 186.076401 
L 263.893091 186.088858 
L 264.019909 186.039031 
L 264.146727 186.051488 
L 264.273545 186.001661 
L 264.400364 186.001661 
L 264.730091 185.92692 
L 264.856909 185.92692 
L 265.186636 185.864637 
L 265.364182 185.864637 
L 265.491 185.81481 
L 265.617818 185.827266 
L 265.744636 185.777439 
L 265.871455 185.789896 
L 266.023636 185.752526 
L 266.353364 185.690242 
L 266.530909 185.677785 
L 266.708455 185.627958 
L 266.835273 185.627958 
L 267.165 185.565675 
L 267.342545 185.553218 
L 267.520091 185.503391 
L 267.646909 185.503391 
L 267.976636 185.441107 
L 268.154182 185.441107 
L 268.281 185.39128 
L 268.407818 185.403737 
L 268.56 185.366367 
L 268.737545 185.31654 
L 268.864364 185.328997 
L 269.016545 185.291626 
L 269.346273 185.229343 
L 269.523818 185.229343 
L 269.650636 185.179516 
L 269.777455 185.191972 
L 269.929636 185.154602 
L 270.259364 185.079862 
L 270.386182 185.092318 
L 270.563727 185.030035 
L 270.690545 185.042491 
L 270.868091 184.992664 
L 270.994909 184.992664 
L 271.324636 184.930381 
L 271.502182 184.917924 
L 271.679727 184.868097 
L 271.806545 184.868097 
L 272.136273 184.805813 
L 272.313818 184.793356 
L 272.491364 184.743529 
L 272.618182 184.743529 
L 272.795727 184.693702 
L 272.922545 184.706159 
L 273.100091 184.656332 
L 273.226909 184.656332 
L 273.404455 184.606505 
L 273.582 184.606505 
L 273.708818 184.556678 
L 273.835636 184.569135 
L 273.987818 184.531765 
L 274.317545 184.469481 
L 274.495091 184.469481 
L 274.621909 184.419654 
L 274.748727 184.432111 
L 274.900909 184.39474 
L 275.230636 184.32 
L 275.357455 184.32 
L 275.687182 184.257716 
L 275.864727 184.257716 
L 275.991545 184.207889 
L 276.118364 184.220346 
L 276.245182 184.170519 
L 276.372 184.182976 
L 276.524182 184.145606 
L 276.853909 184.095779 
L 277.589455 183.996125 
L 277.767 183.971211 
L 278.426455 183.871557 
L 278.604 183.82173 
L 278.756182 183.82173 
L 279.339545 183.722076 
L 279.517091 183.697163 
L 280.176545 183.597509 
L 280.354091 183.547682 
L 280.506273 183.547682 
L 281.165727 183.448028 
L 281.343273 183.398201 
L 281.495455 183.398201 
L 282.154909 183.298547 
L 282.332455 183.24872 
L 282.484636 183.24872 
L 283.068 183.149066 
L 283.245545 183.124152 
L 283.930364 183.024498 
L 284.107909 182.999585 
L 284.767364 182.899931 
L 284.944909 182.850104 
L 285.097091 182.850104 
L 285.680455 182.75045 
L 285.858 182.725536 
L 286.517455 182.625882 
L 286.695 182.576055 
L 286.847182 182.576055 
L 287.506636 182.476401 
L 287.684182 182.426574 
L 287.836364 182.426574 
L 288.495818 182.32692 
L 288.673364 182.277093 
L 288.825545 182.277093 
L 289.408909 182.177439 
L 289.586455 182.152526 
L 290.271273 182.052872 
L 290.448818 182.027958 
L 291.108273 181.928304 
L 291.285818 181.878478 
L 291.438 181.878478 
L 292.021364 181.778824 
L 292.198909 181.75391 
L 292.858364 181.654256 
L 293.035909 181.604429 
L 293.188091 181.604429 
L 293.847545 181.504775 
L 294.025091 181.454948 
L 294.177273 181.454948 
L 294.836727 181.355294 
L 295.014273 181.305467 
L 295.166455 181.305467 
L 295.749818 181.205813 
L 295.927364 181.1809 
L 296.612182 181.081246 
L 296.789727 181.056332 
L 297.449182 180.956678 
L 297.626727 180.906851 
L 297.778909 180.906851 
L 298.438364 180.807197 
L 298.615909 180.75737 
L 298.768091 180.75737 
L 299.351455 180.657716 
L 299.529 180.632803 
L 300.188455 180.533149 
L 300.366 180.483322 
L 300.518182 180.483322 
L 301.177636 180.383668 
L 301.355182 180.333841 
L 301.507364 180.333841 
L 302.166818 180.234187 
L 302.344364 180.18436 
L 302.496545 180.18436 
L 303.079909 180.084706 
L 303.257455 180.059792 
L 303.942273 179.960138 
L 304.119818 179.935225 
L 304.779273 179.835571 
L 304.956818 179.785744 
L 305.109 179.785744 
L 305.692364 179.68609 
L 305.869909 179.661176 
L 306.529364 179.561522 
L 306.706909 179.511696 
L 306.859091 179.511696 
L 307.518545 179.412042 
L 307.696091 179.362215 
L 307.848273 179.362215 
L 308.507727 179.262561 
L 308.685273 179.212734 
L 308.837455 179.212734 
L 309.420818 179.11308 
L 309.598364 179.088166 
L 310.283182 178.988512 
L 310.460727 178.963599 
L 311.120182 178.863945 
L 311.297727 178.814118 
L 311.449909 178.814118 
L 312.033273 178.714464 
L 312.160091 178.664637 
L 312.185455 178.714464 
L 312.642 178.61481 
L 312.794182 178.589896 
L 312.819545 178.639723 
L 312.895636 178.564983 
L 313.022455 178.589896 
L 313.174636 178.490242 
L 313.301455 178.540069 
L 313.758 178.440415 
L 313.910182 178.415502 
L 313.935545 178.465329 
L 314.011636 178.415502 
L 314.569636 178.340761 
L 314.696455 178.290934 
L 314.848636 178.315848 
L 315.000818 178.241107 
L 315.685636 178.166367 
L 315.812455 178.11654 
L 315.964636 178.141453 
L 316.142182 178.066713 
L 316.269 178.091626 
L 316.446545 178.041799 
L 316.573364 178.041799 
L 316.776273 177.991972 
L 317.308909 177.917232 
L 317.435727 177.867405 
L 317.587909 177.892318 
L 317.740091 177.817578 
L 318.526364 177.742837 
L 318.653182 177.69301 
L 319.236545 177.593356 
L 319.388727 177.568443 
L 319.414091 177.61827 
L 319.490182 177.568443 
L 320.149636 177.468789 
L 320.301818 177.443875 
L 320.428636 177.468789 
L 320.580818 177.369135 
L 320.733 177.394048 
L 320.910545 177.369135 
L 321.468545 177.269481 
L 321.595364 177.219654 
L 321.747545 177.244567 
L 321.925091 177.19474 
L 322.051909 177.19474 
L 322.229455 177.144913 
L 322.254818 177.19474 
L 322.330909 177.144913 
L 322.888909 177.070173 
L 323.015727 177.020346 
L 323.700545 176.920692 
L 323.852727 176.895779 
L 323.878091 176.945606 
L 323.954182 176.870865 
L 324.081 176.895779 
L 324.233182 176.821038 
L 324.385364 176.845952 
L 324.588273 176.796125 
L 325.197 176.721384 
L 325.349182 176.646644 
L 325.501364 176.696471 
L 325.653545 176.596817 
L 325.805727 176.62173 
L 325.957909 176.54699 
L 325.983273 176.596817 
L 326.439818 176.497163 
L 326.592 176.472249 
L 326.617364 176.522076 
L 326.693455 176.472249 
L 327.251455 176.397509 
L 327.378273 176.347682 
L 327.530455 176.372595 
L 327.682636 176.297855 
L 328.367455 176.223114 
L 328.494273 176.173287 
L 328.646455 176.198201 
L 328.824 176.12346 
L 328.950818 176.148374 
L 329.128364 176.098547 
L 329.255182 176.098547 
L 329.458091 176.04872 
L 329.990727 175.973979 
L 330.117545 175.924152 
L 330.269727 175.949066 
L 330.421909 175.874325 
L 331.208182 175.799585 
L 331.335 175.749758 
L 331.918364 175.650104 
L 332.070545 175.650104 
L 332.197364 175.650104 
L 332.374909 175.600277 
L 332.501727 175.600277 
L 332.679273 175.55045 
L 332.806091 175.55045 
L 332.983636 175.500623 
L 333.110455 175.525536 
L 333.262636 175.425882 
L 333.440182 175.450796 
L 333.567 175.400969 
L 333.719182 175.425882 
L 333.922091 175.376055 
L 334.454727 175.276401 
L 334.606909 175.251488 
L 334.733727 175.251488 
L 334.911273 175.201661 
L 334.936636 175.251488 
L 335.012727 175.201661 
L 335.570727 175.12692 
L 335.697545 175.077093 
L 336.382364 174.977439 
L 336.534545 174.952526 
L 336.559909 175.002353 
L 336.636 174.927612 
L 336.762818 174.952526 
L 336.915 174.877785 
L 337.067182 174.902699 
L 337.270091 174.852872 
L 337.878818 174.778131 
L 338.031 174.703391 
L 338.183182 174.753218 
L 338.335364 174.653564 
L 338.487545 174.678478 
L 338.639727 174.603737 
L 338.665091 174.653564 
L 339.121636 174.55391 
L 339.273818 174.528997 
L 339.299182 174.578824 
L 339.375273 174.528997 
L 339.933273 174.454256 
L 340.060091 174.404429 
L 340.212273 174.429343 
L 340.364455 174.354602 
L 341.049273 174.279862 
L 341.176091 174.230035 
L 341.328273 174.254948 
L 341.505818 174.180208 
L 341.632636 174.205121 
L 341.810182 174.155294 
L 341.937 174.155294 
L 342.114545 174.105467 
L 342.266727 174.105467 
L 342.393545 174.05564 
L 342.976909 173.955986 
L 343.129091 173.931073 
L 343.255909 173.9809 
L 343.408091 173.881246 
L 343.560273 173.906159 
L 343.737818 173.856332 
L 343.89 173.856332 
L 344.016818 173.806505 
L 344.701636 173.706851 
L 344.853818 173.681938 
L 345.006 173.681938 
L 345.132818 173.632111 
L 345.285 173.657024 
L 345.437182 173.582284 
L 346.122 173.507543 
L 346.248818 173.457716 
L 346.401 173.48263 
L 346.603909 173.432803 
L 347.136545 173.333149 
L 347.288727 173.308235 
L 347.415545 173.308235 
L 347.593091 173.258408 
L 347.618455 173.308235 
L 347.694545 173.258408 
L 348.252545 173.183668 
L 348.379364 173.133841 
L 349.064182 173.034187 
L 349.216364 173.009273 
L 349.241727 173.0591 
L 349.317818 172.98436 
L 349.444636 173.009273 
L 349.571455 172.959446 
L 350.180182 172.859792 
L 350.332364 172.834879 
L 350.357727 172.884706 
L 350.433818 172.834879 
L 350.991818 172.760138 
L 351.118636 172.710311 
L 351.270818 172.735225 
L 351.423 172.660484 
L 352.209273 172.56083 
L 352.361455 172.535917 
L 352.488273 172.535917 
L 352.665818 172.48609 
L 352.792636 172.48609 
L 352.944818 172.411349 
L 352.970182 172.461176 
L 353.528182 172.361522 
L 353.655 172.311696 
L 353.807182 172.336609 
L 353.984727 172.286782 
L 354.111545 172.286782 
L 354.289091 172.236955 
L 354.415909 172.236955 
L 354.593455 172.212042 
L 355.151455 172.112388 
L 355.278273 172.062561 
L 355.430455 172.087474 
L 355.608 172.037647 
L 355.734818 172.037647 
L 355.912364 171.98782 
L 355.937727 172.037647 
L 356.013818 171.962907 
L 356.140636 171.98782 
L 356.292818 171.888166 
L 356.343545 171.962907 
L 356.419636 171.91308 
L 356.571818 171.91308 
L 356.698636 171.863253 
L 357.383455 171.763599 
L 357.535636 171.738685 
L 357.687818 171.738685 
L 357.814636 171.688858 
L 357.966818 171.713772 
L 358.119 171.639031 
L 358.879909 171.564291 
L 359.032091 171.48955 
L 359.184273 171.514464 
L 359.361818 171.464637 
L 359.488636 171.464637 
L 359.640818 171.389896 
L 359.666182 171.439723 
L 360.122727 171.340069 
L 360.274909 171.315156 
L 360.300273 171.364983 
L 360.376364 171.315156 
L 360.934364 171.240415 
L 361.061182 171.190588 
L 361.746 171.090934 
L 361.898182 171.066021 
L 362.025 171.090934 
L 362.253273 171.016194 
L 362.862 170.91654 
L 363.014182 170.891626 
L 363.039545 170.941453 
L 363.115636 170.891626 
L 363.673636 170.816886 
L 363.800455 170.767059 
L 363.952636 170.791972 
L 364.104818 170.717232 
L 364.891091 170.617578 
L 365.043273 170.592664 
L 365.170091 170.617578 
L 365.322273 170.517924 
L 365.474455 170.542837 
L 365.626636 170.468097 
L 365.652 170.517924 
L 366.21 170.41827 
L 366.336818 170.368443 
L 366.489 170.393356 
L 366.666545 170.343529 
L 366.793364 170.343529 
L 366.970909 170.293702 
L 366.996273 170.343529 
L 367.072364 170.293702 
L 367.630364 170.218962 
L 367.757182 170.169135 
L 368.442 170.069481 
L 368.594182 170.044567 
L 368.619545 170.094394 
L 368.695636 170.019654 
L 368.822455 170.044567 
L 368.974636 169.969827 
L 369.126818 169.99474 
L 369.355091 169.92 
L 370.065273 169.820346 
L 370.217455 169.795433 
L 370.242818 169.84526 
L 370.318909 169.770519 
L 370.445727 169.795433 
L 370.597909 169.695779 
L 370.724727 169.745606 
L 371.181273 169.645952 
L 371.333455 169.621038 
L 371.358818 169.670865 
L 371.434909 169.621038 
L 371.992909 169.546298 
L 372.119727 169.496471 
L 372.271909 169.521384 
L 372.424091 169.446644 
L 373.108909 169.371903 
L 373.235727 169.322076 
L 373.387909 169.34699 
L 373.565455 169.272249 
L 373.692273 169.297163 
L 373.869818 169.247336 
L 373.996636 169.247336 
L 374.199545 169.197509 
L 374.732182 169.122768 
L 374.859 169.072941 
L 375.011182 169.097855 
L 375.163364 169.023114 
L 375.949636 168.948374 
L 376.076455 168.898547 
L 376.659818 168.798893 
L 376.812 168.773979 
L 376.837364 168.823806 
L 376.913455 168.773979 
L 377.572909 168.674325 
L 377.725091 168.649412 
L 377.851909 168.674325 
L 378.004091 168.574671 
L 378.156273 168.599585 
L 378.333818 168.574671 
L 378.891818 168.475017 
L 379.018636 168.42519 
L 379.170818 168.450104 
L 379.348364 168.400277 
L 379.475182 168.400277 
L 379.652727 168.35045 
L 379.678091 168.400277 
L 379.754182 168.35045 
L 380.312182 168.275709 
L 380.439 168.225882 
L 381.123818 168.126228 
L 381.276 168.101315 
L 381.301364 168.151142 
L 381.377455 168.076401 
L 381.504273 168.101315 
L 381.656455 168.026574 
L 381.808636 168.051488 
L 382.011545 168.001661 
L 382.620273 167.92692 
L 382.772455 167.85218 
L 382.924636 167.902007 
L 383.076818 167.802353 
L 383.229 167.827266 
L 383.381182 167.752526 
L 383.406545 167.802353 
L 383.863091 167.702699 
L 384.015273 167.677785 
L 384.040636 167.727612 
L 384.116727 167.677785 
L 384.674727 167.603045 
L 384.801545 167.553218 
L 384.953727 167.578131 
L 385.105909 167.503391 
L 385.790727 167.428651 
L 385.917545 167.378824 
L 386.069727 167.403737 
L 386.247273 167.328997 
L 386.374091 167.35391 
L 386.551636 167.304083 
L 386.678455 167.304083 
L 386.881364 167.254256 
L 387.414 167.179516 
L 387.540818 167.129689 
L 387.693 167.154602 
L 387.845182 167.079862 
L 388.631455 167.005121 
L 388.758273 166.955294 
L 389.341636 166.85564 
L 389.493818 166.85564 
L 389.620636 166.85564 
L 389.798182 166.805813 
L 389.925 166.805813 
L 390.102545 166.755986 
L 390.229364 166.755986 
L 390.406909 166.706159 
L 390.533727 166.731073 
L 390.685909 166.631419 
L 390.863455 166.656332 
L 390.990273 166.606505 
L 391.142455 166.631419 
L 391.345364 166.581592 
L 391.878 166.481938 
L 392.030182 166.457024 
L 392.157 166.457024 
L 392.334545 166.407197 
L 392.359909 166.457024 
L 392.436 166.407197 
L 392.994 166.332457 
L 393.120818 166.28263 
L 393.805636 166.182976 
L 393.957818 166.158062 
L 393.983182 166.207889 
L 394.059273 166.133149 
L 394.186091 166.158062 
L 394.338273 166.083322 
L 394.490455 166.108235 
L 394.693364 166.058408 
L 395.302091 165.983668 
L 395.454273 165.908927 
L 395.606455 165.958754 
L 395.758636 165.8591 
L 395.910818 165.884014 
L 396.063 165.809273 
L 396.088364 165.8591 
L 396.544909 165.759446 
L 396.697091 165.734533 
L 396.722455 165.78436 
L 396.798545 165.734533 
L 397.356545 165.659792 
L 397.483364 165.609965 
L 397.635545 165.634879 
L 397.787727 165.560138 
L 398.472545 165.485398 
L 398.599364 165.435571 
L 398.751545 165.460484 
L 398.929091 165.385744 
L 399.055909 165.410657 
L 399.233455 165.36083 
L 399.360273 165.36083 
L 399.537818 165.311003 
L 399.69 165.311003 
L 399.816818 165.261176 
L 400.400182 165.161522 
L 400.552364 165.136609 
L 400.679182 165.186436 
L 400.831364 165.086782 
L 400.983545 165.111696 
L 401.161091 165.061869 
L 401.313273 165.061869 
L 401.440091 165.012042 
L 402.124909 164.912388 
L 402.277091 164.887474 
L 402.429273 164.887474 
L 402.556091 164.837647 
L 402.708273 164.862561 
L 402.860455 164.78782 
L 403.545273 164.71308 
L 403.672091 164.663253 
L 403.824273 164.688166 
L 404.027182 164.638339 
L 404.559818 164.538685 
L 404.712 164.513772 
L 404.838818 164.513772 
L 405.016364 164.463945 
L 405.041727 164.513772 
L 405.117818 164.463945 
L 405.675818 164.389204 
L 405.802636 164.339377 
L 406.487455 164.239723 
L 406.639636 164.21481 
L 406.665 164.264637 
L 406.741091 164.189896 
L 406.867909 164.21481 
L 406.994727 164.164983 
L 407.603455 164.065329 
L 407.755636 164.040415 
L 407.781 164.090242 
L 407.857091 164.040415 
L 408.415091 163.965675 
L 408.541909 163.915848 
L 408.694091 163.940761 
L 408.846273 163.866021 
L 409.632545 163.766367 
L 409.784727 163.741453 
L 409.911545 163.741453 
L 410.089091 163.691626 
L 410.215909 163.691626 
L 410.368091 163.616886 
L 410.393455 163.666713 
L 410.951455 163.567059 
L 411.078273 163.517232 
L 411.230455 163.542145 
L 411.408 163.492318 
L 411.534818 163.492318 
L 411.712364 163.442491 
L 411.839182 163.442491 
L 412.016727 163.417578 
L 412.574727 163.317924 
L 412.701545 163.268097 
L 412.853727 163.29301 
L 413.031273 163.243183 
L 413.158091 163.243183 
L 413.335636 163.193356 
L 413.361 163.243183 
L 413.437091 163.168443 
L 413.563909 163.193356 
L 413.716091 163.093702 
L 413.766818 163.168443 
L 413.842909 163.118616 
L 413.995091 163.118616 
L 414.121909 163.068789 
L 414.806727 162.969135 
L 414.958909 162.944221 
L 415.111091 162.944221 
L 415.237909 162.894394 
L 415.390091 162.919308 
L 415.542273 162.844567 
L 416.227091 162.769827 
L 416.353909 162.72 
L 416.506091 162.744913 
L 416.709 162.695087 
L 417.241636 162.595433 
L 417.393818 162.570519 
L 417.520636 162.570519 
L 417.698182 162.520692 
L 417.723545 162.570519 
L 417.799636 162.520692 
L 418.357636 162.445952 
L 418.484455 162.396125 
L 419.169273 162.296471 
L 419.321455 162.271557 
L 419.448273 162.296471 
L 419.676545 162.22173 
L 420.285273 162.122076 
L 420.437455 162.097163 
L 420.462818 162.14699 
L 420.538909 162.097163 
L 421.096909 162.022422 
L 421.223727 161.972595 
L 421.375909 161.997509 
L 421.528091 161.922768 
L 422.314364 161.823114 
L 422.466545 161.798201 
L 422.593364 161.798201 
L 422.770909 161.748374 
L 422.897727 161.748374 
L 423.049909 161.673633 
L 423.075273 161.72346 
L 423.633273 161.623806 
L 423.760091 161.573979 
L 423.912273 161.598893 
L 424.089818 161.549066 
L 424.216636 161.549066 
L 424.394182 161.499239 
L 424.419545 161.549066 
L 424.495636 161.474325 
L 424.622455 161.499239 
L 424.774636 161.424498 
L 424.926818 161.449412 
L 425.155091 161.374671 
L 425.865273 161.275017 
L 426.017455 161.250104 
L 426.042818 161.299931 
L 426.118909 161.22519 
L 426.245727 161.250104 
L 426.397909 161.15045 
L 426.448636 161.22519 
L 426.524727 161.175363 
L 426.676909 161.175363 
L 426.803727 161.125536 
L 427.488545 161.025882 
L 427.640727 161.000969 
L 427.666091 161.050796 
L 427.742182 160.976055 
L 427.869 161.000969 
L 428.021182 160.901315 
L 428.148 160.951142 
L 428.604545 160.851488 
L 428.756727 160.826574 
L 428.782091 160.876401 
L 428.858182 160.826574 
L 429.416182 160.751834 
L 429.543 160.702007 
L 429.695182 160.72692 
L 429.847364 160.65218 
L 430.532182 160.577439 
L 430.659 160.527612 
L 430.811182 160.552526 
L 430.988727 160.477785 
L 431.115545 160.502699 
L 431.293091 160.452872 
L 431.419909 160.452872 
L 431.622818 160.403045 
L 432.155455 160.328304 
L 432.282273 160.278478 
L 432.434455 160.303391 
L 432.586636 160.228651 
L 433.372909 160.15391 
L 433.499727 160.104083 
L 434.083091 160.004429 
L 434.235273 159.979516 
L 434.260636 160.029343 
L 434.336727 159.979516 
L 434.996182 159.879862 
L 435.148364 159.854948 
L 435.275182 159.879862 
L 435.427364 159.780208 
L 435.579545 159.805121 
L 435.757091 159.780208 
L 436.315091 159.680554 
L 436.441909 159.630727 
L 436.594091 159.65564 
L 436.771636 159.605813 
L 436.898455 159.605813 
L 437.076 159.555986 
L 437.101364 159.605813 
L 437.177455 159.555986 
L 437.735455 159.481246 
L 437.862273 159.431419 
L 438.471 159.506159 
L 438.673909 159.705467 
L 438.826091 159.805121 
L 439.029 160.004429 
L 439.181182 160.104083 
L 439.358727 160.253564 
L 439.510909 160.353218 
L 439.713818 160.552526 
L 439.866 160.65218 
L 440.068909 160.851488 
L 440.195727 160.951142 
L 440.398636 161.15045 
L 440.601545 161.250104 
L 440.804455 161.449412 
L 440.905909 161.549066 
L 441.083455 161.698547 
L 441.235636 161.798201 
L 441.438545 161.997509 
L 441.616091 162.097163 
L 441.768273 162.246644 
L 441.869727 162.296471 
L 442.021909 162.445952 
L 442.224818 162.64526 
L 442.377 162.744913 
L 442.554545 162.894394 
L 442.656 162.994048 
L 442.833545 163.143529 
L 442.960364 163.243183 
L 443.163273 163.442491 
L 443.366182 163.542145 
L 443.518364 163.691626 
L 443.721273 163.890934 
L 443.848091 163.940761 
L 444.000273 164.090242 
L 444.203182 164.28955 
L 444.355364 164.389204 
L 444.532909 164.538685 
L 444.634364 164.638339 
L 444.811909 164.78782 
L 444.964091 164.887474 
L 445.167 165.086782 
L 445.344545 165.186436 
L 445.496727 165.335917 
L 445.699636 165.535225 
L 445.851818 165.634879 
L 446.029364 165.78436 
L 446.130818 165.884014 
L 446.283 165.983668 
L 446.384455 166.083322 
L 446.562 166.232803 
L 446.688818 166.332457 
L 446.891727 166.531765 
L 447.094636 166.631419 
L 447.246818 166.7809 
L 447.449727 166.980208 
L 447.576545 167.030035 
L 447.728727 167.179516 
L 447.931636 167.378824 
L 448.083818 167.478478 
L 448.261364 167.627958 
L 448.362818 167.727612 
L 448.540364 167.877093 
L 448.667182 167.976747 
L 448.870091 168.176055 
L 449.073 168.275709 
L 449.225182 168.42519 
L 449.428091 168.624498 
L 449.580273 168.724152 
L 449.757818 168.873633 
L 449.859273 168.973287 
L 450.011455 169.072941 
L 450.112909 169.172595 
L 450.290455 169.322076 
L 450.417273 169.42173 
L 450.620182 169.621038 
L 450.823091 169.720692 
L 450.975273 169.870173 
L 451.178182 170.069481 
L 451.305 170.119308 
L 451.457182 170.268789 
L 451.660091 170.468097 
L 451.812273 170.567751 
L 451.989818 170.717232 
L 452.091273 170.816886 
L 452.268818 170.966367 
L 452.395636 171.066021 
L 452.598545 171.265329 
L 452.801455 171.364983 
L 452.953636 171.514464 
L 453.156545 171.713772 
L 453.308727 171.813426 
L 453.486273 171.962907 
L 453.587727 172.062561 
L 453.765273 172.212042 
L 453.917455 172.311696 
L 454.120364 172.511003 
L 454.297909 172.610657 
L 454.450091 172.760138 
L 454.551545 172.809965 
L 454.703727 172.959446 
L 454.906636 173.158754 
L 455.033455 173.258408 
L 455.211 173.407889 
L 455.337818 173.507543 
L 455.515364 173.657024 
L 455.642182 173.756678 
L 455.845091 173.955986 
L 456.048 174.05564 
L 456.200182 174.205121 
L 456.403091 174.404429 
L 456.529909 174.454256 
L 456.682091 174.603737 
L 456.885 174.803045 
L 457.037182 174.902699 
L 457.214727 175.05218 
L 457.316182 175.151834 
L 457.493727 175.301315 
L 457.645909 175.400969 
L 457.848818 175.600277 
L 458.026364 175.699931 
L 458.178545 175.849412 
L 458.381455 176.04872 
L 458.533636 176.148374 
L 458.711182 176.297855 
L 458.812636 176.397509 
L 458.964818 176.497163 
L 459.066273 176.596817 
L 459.243818 176.746298 
L 459.370636 176.845952 
L 459.573545 177.04526 
L 459.776455 177.144913 
L 459.928636 177.294394 
L 460.131545 177.493702 
L 460.258364 177.543529 
L 460.410545 177.69301 
L 460.613455 177.892318 
L 460.765636 177.991972 
L 460.943182 178.141453 
L 461.044636 178.241107 
L 461.222182 178.390588 
L 461.349 178.490242 
L 461.551909 178.68955 
L 461.754818 178.789204 
L 461.907 178.938685 
L 462.109909 179.137993 
L 462.262091 179.237647 
L 462.439636 179.387128 
L 462.541091 179.486782 
L 462.718636 179.636263 
L 462.870818 179.735917 
L 463.073727 179.935225 
L 463.251273 180.034879 
L 463.403455 180.18436 
L 463.504909 180.234187 
L 463.657091 180.383668 
L 463.86 180.582976 
L 463.986818 180.68263 
L 464.164364 180.832111 
L 464.291182 180.931765 
L 464.468727 181.081246 
L 464.595545 181.1809 
L 464.798455 181.380208 
L 465.001364 181.479862 
L 465.153545 181.629343 
L 465.356455 181.828651 
L 465.483273 181.878478 
L 465.635455 182.027958 
L 465.838364 182.227266 
L 465.990545 182.32692 
L 466.168091 182.476401 
L 466.269545 182.576055 
L 466.447091 182.725536 
L 466.599273 182.82519 
L 466.802182 183.024498 
L 466.979727 183.124152 
L 467.131909 183.273633 
L 467.334818 183.472941 
L 467.461636 183.522768 
L 467.613818 183.672249 
L 467.816727 183.871557 
L 467.968909 183.971211 
L 468.146455 184.120692 
L 468.247909 184.220346 
L 468.425455 184.369827 
L 468.577636 184.469481 
L 468.780545 184.668789 
L 468.958091 184.768443 
L 469.110273 184.917924 
L 469.211727 184.967751 
L 469.363909 185.117232 
L 469.566818 185.31654 
L 469.719 185.416194 
L 469.896545 185.565675 
L 469.998 185.665329 
L 470.175545 185.81481 
L 470.302364 185.914464 
L 470.505273 186.113772 
L 470.708182 186.213426 
L 470.860364 186.362907 
L 471.063273 186.562215 
L 471.190091 186.612042 
L 471.342273 186.761522 
L 471.545182 186.96083 
L 471.697364 187.060484 
L 471.874909 187.209965 
L 471.976364 187.309619 
L 472.153909 187.4591 
L 472.306091 187.558754 
L 472.509 187.758062 
L 472.686545 187.857716 
L 472.838727 188.007197 
L 473.041636 188.206505 
L 473.193818 188.306159 
L 473.371364 188.45564 
L 473.472818 188.555294 
L 473.625 188.654948 
L 473.726455 188.754602 
L 473.904 188.904083 
L 474.030818 189.003737 
L 474.233727 189.203045 
L 474.436636 189.302699 
L 474.588818 189.45218 
L 474.791727 189.651488 
L 474.943909 189.751142 
L 475.121455 189.900623 
L 475.222909 190.000277 
L 475.400455 190.149758 
L 475.552636 190.249412 
L 475.755545 190.44872 
L 475.933091 190.548374 
L 476.085273 190.697855 
L 476.186727 190.747682 
L 476.338909 190.897163 
L 476.541818 191.096471 
L 476.668636 191.196125 
L 476.846182 191.345606 
L 476.973 191.44526 
L 477.150545 191.59474 
L 477.277364 191.694394 
L 477.480273 191.893702 
L 477.657818 191.993356 
L 477.860727 192.192664 
L 478.012909 192.292318 
L 478.215818 192.491626 
L 478.393364 192.59128 
L 478.596273 192.790588 
L 478.723091 192.890242 
L 478.926 193.08955 
L 479.103545 193.189204 
L 479.306455 193.388512 
L 479.433273 193.488166 
L 479.610818 193.637647 
L 479.737636 193.537993 
L 479.889818 193.438339 
L 479.991273 193.338685 
L 480.194182 193.139377 
L 480.371727 193.039723 
L 480.574636 192.840415 
L 480.701455 192.740761 
L 480.879 192.59128 
L 481.005818 192.491626 
L 481.208727 192.292318 
L 481.386273 192.192664 
L 481.589182 191.993356 
L 481.716 191.893702 
L 481.868182 191.794048 
L 481.969636 191.694394 
L 482.172545 191.495087 
L 482.350091 191.395433 
L 482.553 191.196125 
L 482.679818 191.096471 
L 482.857364 190.94699 
L 482.984182 190.847336 
L 483.187091 190.648028 
L 483.39 190.548374 
L 483.542182 190.398893 
L 483.745091 190.199585 
L 483.871909 190.149758 
L 484.024091 190.000277 
L 484.227 189.800969 
L 484.379182 189.701315 
L 484.556727 189.551834 
L 484.658182 189.45218 
L 484.835727 189.302699 
L 484.987909 189.203045 
L 485.190818 189.003737 
L 485.368364 188.904083 
L 485.520545 188.754602 
L 485.723455 188.555294 
L 485.875636 188.45564 
L 486.053182 188.306159 
L 486.154636 188.206505 
L 486.306818 188.106851 
L 486.408273 188.007197 
L 486.585818 187.857716 
L 486.712636 187.758062 
L 486.915545 187.558754 
L 487.118455 187.4591 
L 487.270636 187.309619 
L 487.473545 187.110311 
L 487.600364 187.060484 
L 487.752545 186.911003 
L 487.955455 186.711696 
L 488.107636 186.612042 
L 488.285182 186.462561 
L 488.386636 186.362907 
L 488.564182 186.213426 
L 488.691 186.113772 
L 488.893909 185.914464 
L 489.096818 185.81481 
L 489.249 185.665329 
L 489.451909 185.466021 
L 489.604091 185.366367 
L 489.781636 185.216886 
L 489.883091 185.117232 
L 490.035273 185.017578 
L 490.136727 184.917924 
L 490.314273 184.768443 
L 490.441091 184.668789 
L 490.644 184.469481 
L 490.846909 184.369827 
L 490.999091 184.220346 
L 491.202 184.021038 
L 491.328818 183.971211 
L 491.481 183.82173 
L 491.683909 183.622422 
L 491.836091 183.522768 
L 492.013636 183.373287 
L 492.115091 183.273633 
L 492.292636 183.124152 
L 492.419455 183.024498 
L 492.622364 182.82519 
L 492.825273 182.725536 
L 492.977455 182.576055 
L 493.180364 182.376747 
L 493.332545 182.277093 
L 493.510091 182.127612 
L 493.611545 182.027958 
L 493.789091 181.878478 
L 493.941273 181.778824 
L 494.144182 181.579516 
L 494.321727 181.479862 
L 494.473909 181.330381 
L 494.575364 181.280554 
L 494.727545 181.131073 
L 494.930455 180.931765 
L 495.057273 180.832111 
L 495.234818 180.68263 
L 495.361636 180.582976 
L 495.539182 180.433495 
L 495.666 180.333841 
L 495.868909 180.134533 
L 496.071818 180.034879 
L 496.224 179.885398 
L 496.426909 179.68609 
L 496.553727 179.636263 
L 496.705909 179.486782 
L 496.908818 179.287474 
L 497.061 179.18782 
L 497.238545 179.038339 
L 497.34 178.938685 
L 497.517545 178.789204 
L 497.669727 178.68955 
L 497.872636 178.490242 
L 498.050182 178.390588 
L 498.202364 178.241107 
L 498.405273 178.041799 
L 498.557455 177.942145 
L 498.735 177.792664 
L 498.836455 177.69301 
L 498.988636 177.593356 
L 499.090091 177.493702 
L 499.267636 177.344221 
L 499.394455 177.244567 
L 499.597364 177.04526 
L 499.800273 176.945606 
L 499.952455 176.796125 
L 500.155364 176.596817 
L 500.282182 176.54699 
L 500.434364 176.397509 
L 500.637273 176.198201 
L 500.789455 176.098547 
L 500.967 175.949066 
L 501.068455 175.849412 
L 501.246 175.699931 
L 501.372818 175.600277 
L 501.575727 175.400969 
L 501.778636 175.301315 
L 501.930818 175.151834 
L 502.133727 174.952526 
L 502.285909 174.852872 
L 502.463455 174.703391 
L 502.564909 174.603737 
L 502.717091 174.504083 
L 502.818545 174.404429 
L 502.996091 174.254948 
L 503.122909 174.155294 
L 503.325818 173.955986 
L 503.528727 173.856332 
L 503.680909 173.706851 
L 503.883818 173.507543 
L 504.010636 173.457716 
L 504.162818 173.308235 
L 504.365727 173.108927 
L 504.517909 173.009273 
L 504.695455 172.859792 
L 504.796909 172.760138 
L 504.974455 172.610657 
L 505.101273 172.511003 
L 505.304182 172.311696 
L 505.507091 172.212042 
L 505.659273 172.062561 
L 505.862182 171.863253 
L 506.014364 171.763599 
L 506.191909 171.614118 
L 506.293364 171.514464 
L 506.470909 171.364983 
L 506.623091 171.265329 
L 506.826 171.066021 
L 507.003545 170.966367 
L 507.155727 170.816886 
L 507.257182 170.767059 
L 507.409364 170.617578 
L 507.612273 170.41827 
L 507.739091 170.318616 
L 507.916636 170.169135 
L 508.043455 170.069481 
L 508.221 169.92 
L 508.347818 169.820346 
L 508.550727 169.621038 
L 508.728273 169.521384 
L 508.931182 169.322076 
L 509.083364 169.222422 
L 509.286273 169.023114 
L 509.463818 168.92346 
L 509.666727 168.724152 
L 509.793545 168.624498 
L 509.996455 168.42519 
L 510.174 168.325536 
L 510.376909 168.126228 
L 510.503727 168.026574 
L 510.681273 167.877093 
L 510.808091 167.777439 
L 510.960273 167.677785 
L 511.061727 167.578131 
L 511.264636 167.378824 
L 511.442182 167.27917 
L 511.645091 167.079862 
L 511.771909 166.980208 
L 511.949455 166.830727 
L 512.076273 166.731073 
L 512.279182 166.531765 
L 512.456727 166.432111 
L 512.659636 166.232803 
L 512.786455 166.133149 
L 512.938636 166.033495 
L 513.040091 165.933841 
L 513.243 165.734533 
L 513.420545 165.634879 
L 513.623455 165.435571 
L 513.750273 165.335917 
L 513.927818 165.186436 
L 514.054636 165.086782 
L 514.257545 164.887474 
L 514.460455 164.78782 
L 514.612636 164.638339 
L 514.815545 164.439031 
L 514.942364 164.389204 
L 515.094545 164.239723 
L 515.297455 164.040415 
L 515.449636 163.940761 
L 515.627182 163.79128 
L 515.728636 163.691626 
L 515.906182 163.542145 
L 516.058364 163.442491 
L 516.261273 163.243183 
L 516.438818 163.143529 
L 516.591 162.994048 
L 516.793909 162.79474 
L 516.946091 162.695087 
L 517.123636 162.545606 
L 517.225091 162.445952 
L 517.377273 162.346298 
L 517.478727 162.246644 
L 517.656273 162.097163 
L 517.783091 161.997509 
L 517.986 161.798201 
L 518.188909 161.698547 
L 518.341091 161.549066 
L 518.544 161.349758 
L 518.670818 161.299931 
L 518.823 161.15045 
L 519.025909 160.951142 
L 519.178091 160.851488 
L 519.355636 160.702007 
L 519.457091 160.602353 
L 519.634636 160.452872 
L 519.761455 160.353218 
L 519.913636 160.253564 
L 520.015091 160.15391 
L 520.218 159.954602 
L 520.395545 159.854948 
L 520.598455 159.65564 
L 520.725273 159.555986 
L 520.902818 159.406505 
L 521.029636 159.306851 
L 521.232545 159.107543 
L 521.410091 159.007889 
L 521.613 158.808581 
L 521.765182 158.708927 
L 521.968091 158.509619 
L 522.145636 158.409965 
L 522.348545 158.210657 
L 522.475364 158.111003 
L 522.678273 157.911696 
L 522.855818 157.812042 
L 523.058727 157.612734 
L 523.185545 157.51308 
L 523.363091 157.363599 
L 523.489909 157.263945 
L 523.642091 157.164291 
L 523.743545 157.064637 
L 523.946455 156.865329 
L 524.124 156.765675 
L 524.326909 156.566367 
L 524.453727 156.466713 
L 524.631273 156.317232 
L 524.758091 156.217578 
L 524.961 156.01827 
L 525.138545 155.918616 
L 525.341455 155.719308 
L 525.468273 155.619654 
L 525.620455 155.52 
L 525.721909 155.420346 
L 525.924818 155.221038 
L 526.102364 155.121384 
L 526.305273 154.922076 
L 526.432091 154.822422 
L 526.609636 154.672941 
L 526.736455 154.573287 
L 526.939364 154.373979 
L 527.142273 154.274325 
L 527.294455 154.124844 
L 527.497364 153.925536 
L 527.624182 153.875709 
L 527.776364 153.726228 
L 527.979273 153.52692 
L 528.131455 153.427266 
L 528.309 153.277785 
L 528.410455 153.178131 
L 528.588 153.028651 
L 528.740182 152.928997 
L 528.943091 152.729689 
L 529.120636 152.630035 
L 529.272818 152.480554 
L 529.475727 152.281246 
L 529.627909 152.181592 
L 529.805455 152.032111 
L 529.906909 151.932457 
L 530.059091 151.832803 
L 530.160545 151.733149 
L 530.338091 151.583668 
L 530.464909 151.484014 
L 530.667818 151.284706 
L 530.870727 151.185052 
L 531.022909 151.035571 
L 531.225818 150.836263 
L 531.352636 150.786436 
L 531.504818 150.636955 
L 531.707727 150.437647 
L 531.859909 150.337993 
L 532.037455 150.188512 
L 532.138909 150.088858 
L 532.316455 149.939377 
L 532.443273 149.839723 
L 532.646182 149.640415 
L 532.849091 149.540761 
L 533.001273 149.39128 
L 533.204182 149.191972 
L 533.356364 149.092318 
L 533.533909 148.942837 
L 533.635364 148.843183 
L 533.787545 148.743529 
L 533.889 148.643875 
L 534.066545 148.494394 
L 534.193364 148.39474 
L 534.396273 148.195433 
L 534.599182 148.095779 
L 534.751364 147.946298 
L 534.954273 147.74699 
L 535.081091 147.697163 
L 535.233273 147.547682 
L 535.436182 147.348374 
L 535.588364 147.24872 
L 535.765909 147.099239 
L 535.867364 146.999585 
L 536.044909 146.850104 
L 536.171727 146.75045 
L 536.374636 146.551142 
L 536.577545 146.451488 
L 536.729727 146.302007 
L 536.932636 146.102699 
L 537.084818 146.003045 
L 537.262364 145.853564 
L 537.363818 145.75391 
L 537.541364 145.604429 
L 537.693545 145.504775 
L 537.896455 145.305467 
L 538.074 145.205813 
L 538.226182 145.056332 
L 538.327636 145.006505 
L 538.479818 144.857024 
L 538.682727 144.657716 
L 538.809545 144.558062 
L 538.987091 144.408581 
L 539.113909 144.308927 
L 539.291455 144.159446 
L 539.418273 144.059792 
L 539.621182 143.860484 
L 539.824091 143.76083 
L 539.976273 143.611349 
L 540.179182 143.412042 
L 540.306 143.362215 
L 540.458182 143.212734 
L 540.661091 143.013426 
L 540.813273 142.913772 
L 540.990818 142.764291 
L 541.092273 142.664637 
L 541.269818 142.515156 
L 541.422 142.415502 
L 541.624909 142.216194 
L 541.802455 142.11654 
L 541.954636 141.967059 
L 542.157545 141.767751 
L 542.309727 141.668097 
L 542.487273 141.518616 
L 542.588727 141.418962 
L 542.740909 141.319308 
L 542.842364 141.219654 
L 543.019909 141.070173 
L 543.146727 140.970519 
L 543.349636 140.771211 
L 543.552545 140.671557 
L 543.704727 140.522076 
L 543.907636 140.322768 
L 544.034455 140.272941 
L 544.186636 140.12346 
L 544.389545 139.924152 
L 544.541727 139.824498 
L 544.719273 139.675017 
L 544.820727 139.575363 
L 544.998273 139.425882 
L 545.125091 139.326228 
L 545.328 139.12692 
L 545.530909 139.027266 
L 545.683091 138.877785 
L 545.886 138.678478 
L 546.038182 138.578824 
L 546.215727 138.429343 
L 546.317182 138.329689 
L 546.469364 138.230035 
L 546.570818 138.130381 
L 546.748364 137.9809 
L 546.875182 137.881246 
L 547.078091 137.681938 
L 547.281 137.582284 
L 547.433182 137.432803 
L 547.636091 137.233495 
L 547.762909 137.183668 
L 547.915091 137.034187 
L 548.118 136.834879 
L 548.270182 136.735225 
L 548.447727 136.585744 
L 548.549182 136.48609 
L 548.726727 136.336609 
L 548.853545 136.236955 
L 549.056455 136.037647 
L 549.259364 135.937993 
L 549.411545 135.788512 
L 549.614455 135.589204 
L 549.766636 135.48955 
L 549.944182 135.340069 
L 550.045636 135.240415 
L 550.223182 135.090934 
L 550.375364 134.99128 
L 550.578273 134.791972 
L 550.755818 134.692318 
L 550.908 134.542837 
L 551.009455 134.49301 
L 551.161636 134.343529 
L 551.364545 134.144221 
L 551.491364 134.044567 
L 551.668909 133.895087 
L 551.795727 133.795433 
L 551.973273 133.645952 
L 552.100091 133.546298 
L 552.303 133.34699 
L 552.480545 133.247336 
L 552.683455 133.048028 
L 552.835636 132.948374 
L 553.038545 132.749066 
L 553.216091 132.649412 
L 553.419 132.450104 
L 553.545818 132.35045 
L 553.748727 132.151142 
L 553.926273 132.051488 
L 554.129182 131.85218 
L 554.256 131.752526 
L 554.433545 131.603045 
L 554.560364 131.503391 
L 554.712545 131.403737 
L 554.814 131.304083 
L 555.016909 131.104775 
L 555.194455 131.005121 
L 555.397364 130.805813 
L 555.524182 130.706159 
L 555.701727 130.556678 
L 555.828545 130.457024 
L 556.031455 130.257716 
L 556.209 130.158062 
L 556.411909 129.958754 
L 556.538727 129.8591 
L 556.690909 129.759446 
L 556.792364 129.659792 
L 556.995273 129.460484 
L 557.172818 129.36083 
L 557.375727 129.161522 
L 557.502545 129.061869 
L 557.680091 128.912388 
L 557.806909 128.812734 
L 558.009818 128.613426 
L 558.212727 128.513772 
L 558.364909 128.364291 
L 558.567818 128.164983 
L 558.694636 128.115156 
L 558.846818 127.965675 
L 559.049727 127.766367 
L 559.201909 127.666713 
L 559.379455 127.517232 
L 559.480909 127.417578 
L 559.658455 127.268097 
L 559.810636 127.168443 
L 560.013545 126.969135 
L 560.191091 126.869481 
L 560.343273 126.72 
L 560.546182 126.520692 
L 560.698364 126.421038 
L 560.875909 126.271557 
L 560.977364 126.171903 
L 561.129545 126.072249 
L 561.231 125.972595 
L 561.408545 125.823114 
L 561.535364 125.72346 
L 561.738273 125.524152 
L 561.941182 125.424498 
L 562.093364 125.275017 
L 562.296273 125.075709 
L 562.423091 125.025882 
L 562.575273 124.876401 
L 562.778182 124.677093 
L 562.930364 124.577439 
L 563.107909 124.427958 
L 563.209364 124.328304 
L 563.386909 124.178824 
L 563.513727 124.07917 
L 563.716636 123.879862 
L 563.919545 123.780208 
L 564.071727 123.630727 
L 564.274636 123.431419 
L 564.426818 123.331765 
L 564.604364 123.182284 
L 564.705818 123.08263 
L 564.858 122.982976 
L 564.959455 122.883322 
L 565.137 122.733841 
L 565.263818 122.634187 
L 565.466727 122.434879 
L 565.669636 122.335225 
L 565.821818 122.185744 
L 566.024727 121.986436 
L 566.151545 121.936609 
L 566.303727 121.787128 
L 566.506636 121.58782 
L 566.658818 121.488166 
L 566.836364 121.338685 
L 566.937818 121.239031 
L 567.115364 121.08955 
L 567.242182 120.989896 
L 567.445091 120.790588 
L 567.648 120.690934 
L 567.800182 120.541453 
L 568.003091 120.342145 
L 568.155273 120.242491 
L 568.332818 120.09301 
L 568.434273 119.993356 
L 568.611818 119.843875 
L 568.764 119.744221 
L 568.966909 119.544913 
L 569.144455 119.44526 
L 569.296636 119.295779 
L 569.398091 119.245952 
L 569.550273 119.096471 
L 569.753182 118.897163 
L 569.88 118.797509 
L 570.057545 118.648028 
L 570.184364 118.548374 
L 570.361909 118.398893 
L 570.488727 118.299239 
L 570.691636 118.099931 
L 570.894545 118.000277 
L 571.046727 117.850796 
L 571.249636 117.651488 
L 571.376455 117.601661 
L 571.528636 117.45218 
L 571.731545 117.252872 
L 571.883727 117.153218 
L 572.061273 117.003737 
L 572.162727 116.904083 
L 572.340273 116.754602 
L 572.492455 116.654948 
L 572.695364 116.45564 
L 572.872909 116.355986 
L 573.025091 116.206505 
L 573.228 116.007197 
L 573.380182 115.907543 
L 573.557727 115.758062 
L 573.659182 115.658408 
L 573.811364 115.558754 
L 573.912818 115.4591 
L 574.090364 115.309619 
L 574.217182 115.209965 
L 574.420091 115.010657 
L 574.623 114.911003 
L 574.775182 114.761522 
L 574.978091 114.562215 
L 575.104909 114.512388 
L 575.257091 114.362907 
L 575.46 114.163599 
L 575.612182 114.063945 
L 575.789727 113.914464 
L 575.891182 113.81481 
L 576.068727 113.665329 
L 576.195545 113.565675 
L 576.398455 113.366367 
L 576.601364 113.266713 
L 576.753545 113.117232 
L 576.956455 112.917924 
L 577.108636 112.81827 
L 577.286182 112.668789 
L 577.387636 112.569135 
L 577.539818 112.469481 
L 577.641273 112.369827 
L 577.818818 112.220346 
L 577.945636 112.120692 
L 578.148545 111.921384 
L 578.351455 111.82173 
L 578.503636 111.672249 
L 578.706545 111.472941 
L 578.833364 111.423114 
L 578.985545 111.273633 
L 579.188455 111.074325 
L 579.340636 110.974671 
L 579.518182 110.82519 
L 579.619636 110.725536 
L 579.797182 110.576055 
L 579.924 110.476401 
L 580.126909 110.277093 
L 580.329818 110.177439 
L 580.482 110.027958 
L 580.684909 109.828651 
L 580.837091 109.728997 
L 581.014636 109.579516 
L 581.116091 109.479862 
L 581.293636 109.330381 
L 581.445818 109.230727 
L 581.648727 109.031419 
L 581.826273 108.931765 
L 581.978455 108.782284 
L 582.079909 108.732457 
L 582.232091 108.582976 
L 582.435 108.383668 
L 582.561818 108.284014 
L 582.739364 108.134533 
L 582.866182 108.034879 
L 583.043727 107.885398 
L 583.170545 107.785744 
L 583.373455 107.586436 
L 583.576364 107.486782 
L 583.728545 107.337301 
L 583.931455 107.137993 
L 584.058273 107.088166 
L 584.210455 106.938685 
L 584.413364 106.739377 
L 584.565545 106.639723 
L 584.743091 106.490242 
L 584.844545 106.390588 
L 585.022091 106.241107 
L 585.174273 106.141453 
L 585.377182 105.942145 
L 585.554727 105.842491 
L 585.706909 105.69301 
L 585.909818 105.493702 
L 586.062 105.394048 
L 586.239545 105.244567 
L 586.341 105.144913 
L 586.493182 105.04526 
L 586.594636 104.945606 
L 586.772182 104.796125 
L 586.899 104.696471 
L 587.101909 104.497163 
L 587.304818 104.397509 
L 587.457 104.248028 
L 587.659909 104.04872 
L 587.786727 103.998893 
L 587.938909 103.849412 
L 588.141818 103.650104 
L 588.294 103.55045 
L 588.471545 103.400969 
L 588.573 103.301315 
L 588.750545 103.151834 
L 588.877364 103.05218 
L 589.080273 102.852872 
L 589.283182 102.753218 
L 589.435364 102.603737 
L 589.638273 102.404429 
L 589.790455 102.304775 
L 589.968 102.155294 
L 590.069455 102.05564 
L 590.221636 101.955986 
L 590.323091 101.856332 
L 590.500636 101.706851 
L 590.627455 101.607197 
L 590.830364 101.407889 
L 591.033273 101.308235 
L 591.185455 101.158754 
L 591.388364 100.959446 
L 591.515182 100.909619 
L 591.667364 100.760138 
L 591.870273 100.56083 
L 592.022455 100.461176 
L 592.2 100.311696 
L 592.301455 100.212042 
L 592.479 100.062561 
L 592.605818 99.962907 
L 592.808727 99.763599 
L 593.011636 99.663945 
L 593.163818 99.514464 
L 593.366727 99.315156 
L 593.518909 99.215502 
L 593.696455 99.066021 
L 593.797909 98.966367 
L 593.975455 98.816886 
L 594.127636 98.717232 
L 594.330545 98.517924 
L 594.508091 98.41827 
L 594.660273 98.268789 
L 594.761727 98.218962 
L 594.913909 98.069481 
L 595.116818 97.870173 
L 595.243636 97.770519 
L 595.421182 97.621038 
L 595.548 97.521384 
L 595.725545 97.371903 
L 595.852364 97.272249 
L 596.055273 97.072941 
L 596.232818 96.973287 
L 596.435727 96.773979 
L 596.587909 96.674325 
L 596.790818 96.475017 
L 596.968364 96.375363 
L 597.171273 96.176055 
L 597.298091 96.076401 
L 597.501 95.877093 
L 597.678545 95.777439 
L 597.881455 95.578131 
L 598.008273 95.478478 
L 598.185818 95.328997 
L 598.312636 95.229343 
L 598.464818 95.129689 
L 598.566273 95.030035 
L 598.769182 94.830727 
L 598.946727 94.731073 
L 599.149636 94.531765 
L 599.276455 94.432111 
L 599.454 94.28263 
L 599.580818 94.182976 
L 599.783727 93.983668 
L 599.961273 93.884014 
L 600.164182 93.684706 
L 600.291 93.585052 
L 600.443182 93.485398 
L 600.544636 93.385744 
L 600.747545 93.186436 
L 600.925091 93.086782 
L 601.128 92.887474 
L 601.254818 92.78782 
L 601.432364 92.638339 
L 601.559182 92.538685 
L 601.762091 92.339377 
L 601.965 92.239723 
L 602.117182 92.090242 
L 602.320091 91.890934 
L 602.446909 91.841107 
L 602.599091 91.691626 
L 602.802 91.492318 
L 602.954182 91.392664 
L 603.131727 91.243183 
L 603.233182 91.143529 
L 603.410727 90.994048 
L 603.537545 90.894394 
L 603.740455 90.695087 
L 603.943364 90.595433 
L 604.095545 90.445952 
L 604.298455 90.246644 
L 604.450636 90.14699 
L 604.628182 89.997509 
L 604.729636 89.897855 
L 604.881818 89.798201 
L 604.983273 89.698547 
L 605.160818 89.549066 
L 605.287636 89.449412 
L 605.490545 89.250104 
L 605.693455 89.15045 
L 605.845636 89.000969 
L 606.048545 88.801661 
L 606.175364 88.751834 
L 606.327545 88.602353 
L 606.530455 88.403045 
L 606.682636 88.303391 
L 606.860182 88.15391 
L 606.961636 88.054256 
L 607.139182 87.904775 
L 607.266 87.805121 
L 607.468909 87.605813 
L 607.671818 87.506159 
L 607.824 87.356678 
L 608.026909 87.15737 
L 608.179091 87.057716 
L 608.356636 86.908235 
L 608.458091 86.808581 
L 608.635636 86.6591 
L 608.787818 86.559446 
L 608.990727 86.360138 
L 609.168273 86.260484 
L 609.320455 86.111003 
L 609.421909 86.061176 
L 609.574091 85.911696 
L 609.777 85.712388 
L 609.903818 85.612734 
L 610.081364 85.463253 
L 610.208182 85.363599 
L 610.385727 85.214118 
L 610.512545 85.114464 
L 610.715455 84.915156 
L 610.918364 84.815502 
L 611.070545 84.666021 
L 611.273455 84.466713 
L 611.400273 84.416886 
L 611.552455 84.267405 
L 611.755364 84.068097 
L 611.907545 83.968443 
L 612.085091 83.818962 
L 612.186545 83.719308 
L 612.364091 83.569827 
L 612.516273 83.470173 
L 612.719182 83.270865 
L 612.896727 83.171211 
L 613.048909 83.02173 
L 613.251818 82.822422 
L 613.404 82.722768 
L 613.581545 82.573287 
L 613.683 82.473633 
L 613.835182 82.373979 
L 613.936636 82.274325 
L 614.114182 82.124844 
L 614.241 82.02519 
L 614.443909 81.825882 
L 614.646818 81.726228 
L 614.799 81.576747 
L 615.001909 81.377439 
L 615.128727 81.327612 
L 615.280909 81.178131 
L 615.483818 80.978824 
L 615.636 80.87917 
L 615.813545 80.729689 
L 615.915 80.630035 
L 616.092545 80.480554 
L 616.219364 80.3809 
L 616.422273 80.181592 
L 616.625182 80.081938 
L 616.777364 79.932457 
L 616.980273 79.733149 
L 617.132455 79.633495 
L 617.31 79.484014 
L 617.411455 79.38436 
L 617.563636 79.284706 
L 617.665091 79.185052 
L 617.842636 79.035571 
L 617.969455 78.935917 
L 618.172364 78.736609 
L 618.375273 78.636955 
L 618.527455 78.487474 
L 618.730364 78.288166 
L 618.857182 78.238339 
L 619.009364 78.088858 
L 619.212273 77.88955 
L 619.364455 77.789896 
L 619.542 77.640415 
L 619.643455 77.540761 
L 619.821 77.39128 
L 619.947818 77.291626 
L 620.150727 77.092318 
L 620.353636 76.992664 
L 620.505818 76.843183 
L 620.708727 76.643875 
L 620.860909 76.544221 
L 621.038455 76.39474 
L 621.139909 76.295087 
L 621.317455 76.145606 
L 621.469636 76.045952 
L 621.672545 75.846644 
L 621.850091 75.74699 
L 622.002273 75.597509 
L 622.103727 75.547682 
L 622.255909 75.398201 
L 622.458818 75.198893 
L 622.585636 75.099239 
L 622.636364 75.049412 
L 622.636364 75.049412 
" style="fill:none;stroke:#1f77b4;stroke-linecap:square;stroke-width:1.5;"/>
   </g>
   <g id="patch_3">
    <path d="M 90 199.567059 
L 90 69.12 
" style="fill:none;stroke:#000000;stroke-linecap:square;stroke-linejoin:miter;stroke-width:0.8;"/>
   </g>
   <g id="patch_4">
    <path d="M 648 199.567059 
L 648 69.12 
" style="fill:none;stroke:#000000;stroke-linecap:square;stroke-linejoin:miter;stroke-width:0.8;"/>
   </g>
   <g id="patch_5">
    <path d="M 90 199.567059 
L 648 199.567059 
" style="fill:none;stroke:#000000;stroke-linecap:square;stroke-linejoin:miter;stroke-width:0.8;"/>
   </g>
   <g id="patch_6">
    <path d="M 90 69.12 
L 648 69.12 
" style="fill:none;stroke:#000000;stroke-linecap:square;stroke-linejoin:miter;stroke-width:0.8;"/>
   </g>
  </g>
  <g id="axes_2">
   <g id="patch_7">
    <path d="M 90 356.103529 
L 648 356.103529 
L 648 225.656471 
L 90 225.656471 
z
" style="fill:#ffffff;"/>
   </g>
   <g id="matplotlib.axis_3">
    <g id="xtick_6">
     <g id="line2d_9">
      <g>
       <use style="stroke:#000000;stroke-width:0.8;" x="115.363636" xlink:href="#m61f305ad50" y="356.103529"/>
      </g>
     </g>
     <g id="text_10">
      <!-- 0 -->
      <g transform="translate(108.364886 379.820092)scale(0.22 -0.22)">
       <use xlink:href="#DejaVuSans-30"/>
      </g>
     </g>
    </g>
    <g id="xtick_7">
     <g id="line2d_10">
      <g>
       <use style="stroke:#000000;stroke-width:0.8;" x="242.181818" xlink:href="#m61f305ad50" y="356.103529"/>
      </g>
     </g>
     <g id="text_11">
      <!-- 50 -->
      <g transform="translate(228.184318 379.820092)scale(0.22 -0.22)">
       <use xlink:href="#DejaVuSans-35"/>
       <use x="63.623047" xlink:href="#DejaVuSans-30"/>
      </g>
     </g>
    </g>
    <g id="xtick_8">
     <g id="line2d_11">
      <g>
       <use style="stroke:#000000;stroke-width:0.8;" x="369" xlink:href="#m61f305ad50" y="356.103529"/>
      </g>
     </g>
     <g id="text_12">
      <!-- 100 -->
      <g transform="translate(348.00375 379.820092)scale(0.22 -0.22)">
       <use xlink:href="#DejaVuSans-31"/>
       <use x="63.623047" xlink:href="#DejaVuSans-30"/>
       <use x="127.246094" xlink:href="#DejaVuSans-30"/>
      </g>
     </g>
    </g>
    <g id="xtick_9">
     <g id="line2d_12">
      <g>
       <use style="stroke:#000000;stroke-width:0.8;" x="495.818182" xlink:href="#m61f305ad50" y="356.103529"/>
      </g>
     </g>
     <g id="text_13">
      <!-- 150 -->
      <g transform="translate(474.821932 379.820092)scale(0.22 -0.22)">
       <use xlink:href="#DejaVuSans-31"/>
       <use x="63.623047" xlink:href="#DejaVuSans-35"/>
       <use x="127.246094" xlink:href="#DejaVuSans-30"/>
      </g>
     </g>
    </g>
    <g id="xtick_10">
     <g id="line2d_13">
      <g>
       <use style="stroke:#000000;stroke-width:0.8;" x="622.636364" xlink:href="#m61f305ad50" y="356.103529"/>
      </g>
     </g>
     <g id="text_14">
      <!-- 200 -->
      <g transform="translate(601.640114 379.820092)scale(0.22 -0.22)">
       <use xlink:href="#DejaVuSans-32"/>
       <use x="63.623047" xlink:href="#DejaVuSans-30"/>
       <use x="127.246094" xlink:href="#DejaVuSans-30"/>
      </g>
     </g>
    </g>
   </g>
   <g id="matplotlib.axis_4">
    <g id="ytick_3">
     <g id="line2d_14">
      <g>
       <use style="stroke:#000000;stroke-width:0.8;" x="90" xlink:href="#m5e6bb8d373" y="350.174118"/>
      </g>
     </g>
     <g id="text_15">
      <!-- 0.000 -->
      <g transform="translate(20.018125 358.532399)scale(0.22 -0.22)">
       <defs>
        <path d="M 684 794 
L 1344 794 
L 1344 0 
L 684 0 
L 684 794 
z
" id="DejaVuSans-2e" transform="scale(0.015625)"/>
       </defs>
       <use xlink:href="#DejaVuSans-30"/>
       <use x="63.623047" xlink:href="#DejaVuSans-2e"/>
       <use x="95.410156" xlink:href="#DejaVuSans-30"/>
       <use x="159.033203" xlink:href="#DejaVuSans-30"/>
       <use x="222.65625" xlink:href="#DejaVuSans-30"/>
      </g>
     </g>
    </g>
    <g id="ytick_4">
     <g id="line2d_15">
      <g>
       <use style="stroke:#000000;stroke-width:0.8;" x="90" xlink:href="#m5e6bb8d373" y="230.019114"/>
      </g>
     </g>
     <g id="text_16">
      <!-- 0.005 -->
      <g transform="translate(20.018125 238.377395)scale(0.22 -0.22)">
       <use xlink:href="#DejaVuSans-30"/>
       <use x="63.623047" xlink:href="#DejaVuSans-2e"/>
       <use x="95.410156" xlink:href="#DejaVuSans-30"/>
       <use x="159.033203" xlink:href="#DejaVuSans-30"/>
       <use x="222.65625" xlink:href="#DejaVuSans-35"/>
      </g>
     </g>
    </g>
    <g id="text_17">
     <!-- velocity [m/s] -->
     <g transform="translate(11.442812 366.102813)rotate(-90)scale(0.22 -0.22)">
      <defs>
       <path d="M 191 3500 
L 800 3500 
L 1894 563 
L 2988 3500 
L 3597 3500 
L 2284 0 
L 1503 0 
L 191 3500 
z
" id="DejaVuSans-76" transform="scale(0.015625)"/>
       <path d="M 603 4863 
L 1178 4863 
L 1178 0 
L 603 0 
L 603 4863 
z
" id="DejaVuSans-6c" transform="scale(0.015625)"/>
       <path d="M 1959 3097 
Q 1497 3097 1228 2736 
Q 959 2375 959 1747 
Q 959 1119 1226 758 
Q 1494 397 1959 397 
Q 2419 397 2687 759 
Q 2956 1122 2956 1747 
Q 2956 2369 2687 2733 
Q 2419 3097 1959 3097 
z
M 1959 3584 
Q 2709 3584 3137 3096 
Q 3566 2609 3566 1747 
Q 3566 888 3137 398 
Q 2709 -91 1959 -91 
Q 1206 -91 779 398 
Q 353 888 353 1747 
Q 353 2609 779 3096 
Q 1206 3584 1959 3584 
z
" id="DejaVuSans-6f" transform="scale(0.015625)"/>
       <path d="M 3122 3366 
L 3122 2828 
Q 2878 2963 2633 3030 
Q 2388 3097 2138 3097 
Q 1578 3097 1268 2742 
Q 959 2388 959 1747 
Q 959 1106 1268 751 
Q 1578 397 2138 397 
Q 2388 397 2633 464 
Q 2878 531 3122 666 
L 3122 134 
Q 2881 22 2623 -34 
Q 2366 -91 2075 -91 
Q 1284 -91 818 406 
Q 353 903 353 1747 
Q 353 2603 823 3093 
Q 1294 3584 2113 3584 
Q 2378 3584 2631 3529 
Q 2884 3475 3122 3366 
z
" id="DejaVuSans-63" transform="scale(0.015625)"/>
       <path d="M 2059 -325 
Q 1816 -950 1584 -1140 
Q 1353 -1331 966 -1331 
L 506 -1331 
L 506 -850 
L 844 -850 
Q 1081 -850 1212 -737 
Q 1344 -625 1503 -206 
L 1606 56 
L 191 3500 
L 800 3500 
L 1894 763 
L 2988 3500 
L 3597 3500 
L 2059 -325 
z
" id="DejaVuSans-79" transform="scale(0.015625)"/>
       <path d="M 1625 4666 
L 2156 4666 
L 531 -594 
L 0 -594 
L 1625 4666 
z
" id="DejaVuSans-2f" transform="scale(0.015625)"/>
       <path d="M 2834 3397 
L 2834 2853 
Q 2591 2978 2328 3040 
Q 2066 3103 1784 3103 
Q 1356 3103 1142 2972 
Q 928 2841 928 2578 
Q 928 2378 1081 2264 
Q 1234 2150 1697 2047 
L 1894 2003 
Q 2506 1872 2764 1633 
Q 3022 1394 3022 966 
Q 3022 478 2636 193 
Q 2250 -91 1575 -91 
Q 1294 -91 989 -36 
Q 684 19 347 128 
L 347 722 
Q 666 556 975 473 
Q 1284 391 1588 391 
Q 1994 391 2212 530 
Q 2431 669 2431 922 
Q 2431 1156 2273 1281 
Q 2116 1406 1581 1522 
L 1381 1569 
Q 847 1681 609 1914 
Q 372 2147 372 2553 
Q 372 3047 722 3315 
Q 1072 3584 1716 3584 
Q 2034 3584 2315 3537 
Q 2597 3491 2834 3397 
z
" id="DejaVuSans-73" transform="scale(0.015625)"/>
      </defs>
      <use xlink:href="#DejaVuSans-76"/>
      <use x="59.179688" xlink:href="#DejaVuSans-65"/>
      <use x="120.703125" xlink:href="#DejaVuSans-6c"/>
      <use x="148.486328" xlink:href="#DejaVuSans-6f"/>
      <use x="209.667969" xlink:href="#DejaVuSans-63"/>
      <use x="264.648438" xlink:href="#DejaVuSans-69"/>
      <use x="292.431641" xlink:href="#DejaVuSans-74"/>
      <use x="331.640625" xlink:href="#DejaVuSans-79"/>
      <use x="390.820312" xlink:href="#DejaVuSans-20"/>
      <use x="422.607422" xlink:href="#DejaVuSans-5b"/>
      <use x="461.621094" xlink:href="#DejaVuSans-6d"/>
      <use x="559.033203" xlink:href="#DejaVuSans-2f"/>
      <use x="592.724609" xlink:href="#DejaVuSans-73"/>
      <use x="644.824219" xlink:href="#DejaVuSans-5d"/>
     </g>
    </g>
   </g>
   <g id="line2d_16">
    <path clip-path="url(#p48729aac34)" d="M 115.363636 350.174118 
L 134.792182 336.042637 
L 145.140545 328.797741 
L 153.814909 322.990278 
L 161.550818 318.073641 
L 168.678 313.803557 
L 175.348636 310.063031 
L 181.664182 306.773452 
L 187.700727 303.877066 
L 193.509 301.334259 
L 199.139727 299.110281 
L 204.618273 297.184646 
L 209.944636 295.546284 
L 215.169545 294.170037 
L 220.318364 293.043201 
L 225.391091 292.160171 
L 230.413091 291.511505 
L 235.384364 291.09288 
L 240.330273 290.898626 
L 245.276182 290.92677 
L 250.222091 291.177206 
L 255.193364 291.651982 
L 260.19 292.352707 
L 265.237364 293.285331 
L 270.360818 294.459331 
L 275.560364 295.880074 
L 280.861364 297.560256 
L 286.289182 299.515528 
L 291.869182 301.764143 
L 297.626727 304.326497 
L 303.587182 307.224533 
L 309.826636 310.508635 
L 316.370455 314.206996 
L 323.345455 318.408467 
L 330.853091 323.194652 
L 339.147 328.751416 
L 348.709091 335.434382 
L 360.985091 344.303592 
L 369.076091 350.112025 
L 388.428545 336.036427 
L 398.776909 328.791531 
L 407.451273 322.984069 
L 415.187182 318.067432 
L 422.314364 313.797347 
L 428.985 310.056822 
L 435.300545 306.767242 
L 441.337091 303.870856 
L 447.145364 301.328049 
L 452.776091 299.104072 
L 458.254636 297.178436 
L 463.581 295.540075 
L 468.805909 294.163827 
L 473.954727 293.036992 
L 479.027455 292.153961 
L 484.049455 291.505296 
L 489.020727 291.08667 
L 493.966636 290.892416 
L 498.912545 290.92056 
L 503.858455 291.170996 
L 508.829727 291.645773 
L 513.826364 292.346497 
L 518.873727 293.279121 
L 523.997182 294.453122 
L 529.196727 295.873864 
L 534.497727 297.554047 
L 539.925545 299.509319 
L 545.505545 301.757933 
L 551.263091 304.320287 
L 557.223545 307.218324 
L 563.463 310.502426 
L 570.006818 314.200786 
L 576.981818 318.402257 
L 584.489455 323.188442 
L 592.783364 328.745206 
L 602.345455 335.428172 
L 614.621455 344.297382 
L 622.636364 350.174117 
L 622.636364 350.174117 
" style="fill:none;stroke:#1f77b4;stroke-linecap:square;stroke-width:1.5;"/>
   </g>
   <g id="line2d_17">
    <path clip-path="url(#p48729aac34)" d="M 115.363636 231.585882 
L 120.309545 231.697301 
L 125.255455 232.030757 
L 130.226727 232.588409 
L 135.248727 233.376078 
L 140.321455 234.397499 
L 145.470273 235.662169 
L 150.695182 237.175004 
L 156.046909 238.957605 
L 161.525455 241.018613 
L 167.156182 243.375935 
L 172.989818 246.061658 
L 179.051727 249.100071 
L 185.392636 252.52996 
L 192.088636 256.408144 
L 199.241182 260.811823 
L 207.002455 265.855931 
L 215.676818 271.764682 
L 225.949091 279.041415 
L 240.634636 289.746878 
L 261.737182 305.105022 
L 272.060182 312.328964 
L 280.709182 318.116595 
L 288.445091 323.03055 
L 295.572273 327.297782 
L 302.242909 331.035327 
L 308.558455 334.321825 
L 314.595 337.215047 
L 320.403273 339.754626 
L 326.034 341.975318 
L 331.487182 343.88928 
L 336.813545 345.525409 
L 342.038455 346.899406 
L 347.187273 348.023974 
L 352.26 348.90473 
L 357.282 349.551115 
L 362.253273 349.967462 
L 367.199182 350.159437 
L 372.145091 350.129012 
L 377.091 349.876299 
L 382.062273 349.399248 
L 387.058909 348.696261 
L 392.106273 347.761384 
L 397.229727 346.585137 
L 402.429273 345.162169 
L 407.730273 343.47978 
L 413.158091 341.522326 
L 418.738091 339.27156 
L 424.495636 336.707094 
L 430.456091 333.806997 
L 436.695545 330.520889 
L 443.239364 326.820602 
L 450.214364 322.617292 
L 457.722 317.82939 
L 466.015909 312.271064 
L 475.578 305.586752 
L 487.879364 296.698019 
L 519.178091 273.959204 
L 528.790909 267.328617 
L 537.084818 261.872427 
L 544.592455 257.195726 
L 551.542091 253.125189 
L 558.085909 249.547404 
L 564.3 246.400773 
L 570.260455 243.629822 
L 575.992636 241.207643 
L 581.547273 239.099161 
L 586.975091 237.275435 
L 592.276091 235.728036 
L 597.475636 234.441119 
L 602.599091 233.401912 
L 607.646455 232.60439 
L 612.643091 232.039148 
L 617.614364 231.700365 
L 622.560273 231.585906 
L 622.636364 231.585883 
L 622.636364 231.585883 
" style="fill:none;stroke:#ff7f0e;stroke-linecap:square;stroke-width:1.5;"/>
   </g>
   <g id="patch_8">
    <path d="M 90 356.103529 
L 90 225.656471 
" style="fill:none;stroke:#000000;stroke-linecap:square;stroke-linejoin:miter;stroke-width:0.8;"/>
   </g>
   <g id="patch_9">
    <path d="M 648 356.103529 
L 648 225.656471 
" style="fill:none;stroke:#000000;stroke-linecap:square;stroke-linejoin:miter;stroke-width:0.8;"/>
   </g>
   <g id="patch_10">
    <path d="M 90 356.103529 
L 648 356.103529 
" style="fill:none;stroke:#000000;stroke-linecap:square;stroke-linejoin:miter;stroke-width:0.8;"/>
   </g>
   <g id="patch_11">
    <path d="M 90 225.656471 
L 648 225.656471 
" style="fill:none;stroke:#000000;stroke-linecap:square;stroke-linejoin:miter;stroke-width:0.8;"/>
   </g>
   <g id="legend_1">
    <g id="patch_12">
     <path d="M 303.735625 309.063971 
L 434.264375 309.063971 
Q 438.664375 309.063971 438.664375 304.663971 
L 438.664375 241.056471 
Q 438.664375 236.656471 434.264375 236.656471 
L 303.735625 236.656471 
Q 299.335625 236.656471 299.335625 241.056471 
L 299.335625 304.663971 
Q 299.335625 309.063971 303.735625 309.063971 
z
" style="fill:#ffffff;opacity:0.8;stroke:#cccccc;stroke-linejoin:miter;"/>
    </g>
    <g id="line2d_18">
     <path d="M 308.135625 254.473033 
L 352.135625 254.473033 
" style="fill:none;stroke:#1f77b4;stroke-linecap:square;stroke-width:1.5;"/>
    </g>
    <g id="line2d_19"/>
    <g id="text_18">
     <!-- vel_E -->
     <g transform="translate(369.735625 262.173033)scale(0.22 -0.22)">
      <defs>
       <path d="M 3263 -1063 
L 3263 -1509 
L -63 -1509 
L -63 -1063 
L 3263 -1063 
z
" id="DejaVuSans-5f" transform="scale(0.015625)"/>
       <path d="M 628 4666 
L 3578 4666 
L 3578 4134 
L 1259 4134 
L 1259 2753 
L 3481 2753 
L 3481 2222 
L 1259 2222 
L 1259 531 
L 3634 531 
L 3634 0 
L 628 0 
L 628 4666 
z
" id="DejaVuSans-45" transform="scale(0.015625)"/>
      </defs>
      <use xlink:href="#DejaVuSans-76"/>
      <use x="59.179688" xlink:href="#DejaVuSans-65"/>
      <use x="120.703125" xlink:href="#DejaVuSans-6c"/>
      <use x="148.486328" xlink:href="#DejaVuSans-5f"/>
      <use x="198.486328" xlink:href="#DejaVuSans-45"/>
     </g>
    </g>
    <g id="line2d_20">
     <path d="M 308.135625 287.376783 
L 352.135625 287.376783 
" style="fill:none;stroke:#ff7f0e;stroke-linecap:square;stroke-width:1.5;"/>
    </g>
    <g id="line2d_21"/>
    <g id="text_19">
     <!-- vel_N -->
     <g transform="translate(369.735625 295.076783)scale(0.22 -0.22)">
      <defs>
       <path d="M 628 4666 
L 1478 4666 
L 3547 763 
L 3547 4666 
L 4159 4666 
L 4159 0 
L 3309 0 
L 1241 3903 
L 1241 0 
L 628 0 
L 628 4666 
z
" id="DejaVuSans-4e" transform="scale(0.015625)"/>
      </defs>
      <use xlink:href="#DejaVuSans-76"/>
      <use x="59.179688" xlink:href="#DejaVuSans-65"/>
      <use x="120.703125" xlink:href="#DejaVuSans-6c"/>
      <use x="148.486328" xlink:href="#DejaVuSans-5f"/>
      <use x="198.486328" xlink:href="#DejaVuSans-4e"/>
     </g>
    </g>
   </g>
  </g>
  <g id="axes_3">
   <g id="patch_13">
    <path d="M 90 512.64 
L 648 512.64 
L 648 382.192941 
L 90 382.192941 
z
" style="fill:#ffffff;"/>
   </g>
   <g id="matplotlib.axis_5">
    <g id="xtick_11">
     <g id="line2d_22">
      <g>
       <use style="stroke:#000000;stroke-width:0.8;" x="115.363636" xlink:href="#m61f305ad50" y="512.64"/>
      </g>
     </g>
     <g id="text_20">
      <!-- 0 -->
      <g transform="translate(108.364886 536.356562)scale(0.22 -0.22)">
       <use xlink:href="#DejaVuSans-30"/>
      </g>
     </g>
    </g>
    <g id="xtick_12">
     <g id="line2d_23">
      <g>
       <use style="stroke:#000000;stroke-width:0.8;" x="242.181818" xlink:href="#m61f305ad50" y="512.64"/>
      </g>
     </g>
     <g id="text_21">
      <!-- 50 -->
      <g transform="translate(228.184318 536.356562)scale(0.22 -0.22)">
       <use xlink:href="#DejaVuSans-35"/>
       <use x="63.623047" xlink:href="#DejaVuSans-30"/>
      </g>
     </g>
    </g>
    <g id="xtick_13">
     <g id="line2d_24">
      <g>
       <use style="stroke:#000000;stroke-width:0.8;" x="369" xlink:href="#m61f305ad50" y="512.64"/>
      </g>
     </g>
     <g id="text_22">
      <!-- 100 -->
      <g transform="translate(348.00375 536.356562)scale(0.22 -0.22)">
       <use xlink:href="#DejaVuSans-31"/>
       <use x="63.623047" xlink:href="#DejaVuSans-30"/>
       <use x="127.246094" xlink:href="#DejaVuSans-30"/>
      </g>
     </g>
    </g>
    <g id="xtick_14">
     <g id="line2d_25">
      <g>
       <use style="stroke:#000000;stroke-width:0.8;" x="495.818182" xlink:href="#m61f305ad50" y="512.64"/>
      </g>
     </g>
     <g id="text_23">
      <!-- 150 -->
      <g transform="translate(474.821932 536.356562)scale(0.22 -0.22)">
       <use xlink:href="#DejaVuSans-31"/>
       <use x="63.623047" xlink:href="#DejaVuSans-35"/>
       <use x="127.246094" xlink:href="#DejaVuSans-30"/>
      </g>
     </g>
    </g>
    <g id="xtick_15">
     <g id="line2d_26">
      <g>
       <use style="stroke:#000000;stroke-width:0.8;" x="622.636364" xlink:href="#m61f305ad50" y="512.64"/>
      </g>
     </g>
     <g id="text_24">
      <!-- 200 -->
      <g transform="translate(601.640114 536.356562)scale(0.22 -0.22)">
       <use xlink:href="#DejaVuSans-32"/>
       <use x="63.623047" xlink:href="#DejaVuSans-30"/>
       <use x="127.246094" xlink:href="#DejaVuSans-30"/>
      </g>
     </g>
    </g>
    <g id="text_25">
     <!-- steps [-] -->
     <g transform="translate(323.427344 561.648438)scale(0.22 -0.22)">
      <defs>
       <path d="M 1159 525 
L 1159 -1331 
L 581 -1331 
L 581 3500 
L 1159 3500 
L 1159 2969 
Q 1341 3281 1617 3432 
Q 1894 3584 2278 3584 
Q 2916 3584 3314 3078 
Q 3713 2572 3713 1747 
Q 3713 922 3314 415 
Q 2916 -91 2278 -91 
Q 1894 -91 1617 61 
Q 1341 213 1159 525 
z
M 3116 1747 
Q 3116 2381 2855 2742 
Q 2594 3103 2138 3103 
Q 1681 3103 1420 2742 
Q 1159 2381 1159 1747 
Q 1159 1113 1420 752 
Q 1681 391 2138 391 
Q 2594 391 2855 752 
Q 3116 1113 3116 1747 
z
" id="DejaVuSans-70" transform="scale(0.015625)"/>
       <path d="M 313 2009 
L 1997 2009 
L 1997 1497 
L 313 1497 
L 313 2009 
z
" id="DejaVuSans-2d" transform="scale(0.015625)"/>
      </defs>
      <use xlink:href="#DejaVuSans-73"/>
      <use x="52.099609" xlink:href="#DejaVuSans-74"/>
      <use x="91.308594" xlink:href="#DejaVuSans-65"/>
      <use x="152.832031" xlink:href="#DejaVuSans-70"/>
      <use x="216.308594" xlink:href="#DejaVuSans-73"/>
      <use x="268.408203" xlink:href="#DejaVuSans-20"/>
      <use x="300.195312" xlink:href="#DejaVuSans-5b"/>
      <use x="339.208984" xlink:href="#DejaVuSans-2d"/>
      <use x="375.292969" xlink:href="#DejaVuSans-5d"/>
     </g>
    </g>
   </g>
   <g id="matplotlib.axis_6">
    <g id="ytick_5">
     <g id="line2d_27">
      <g>
       <use style="stroke:#000000;stroke-width:0.8;" x="90" xlink:href="#m5e6bb8d373" y="506.712849"/>
      </g>
     </g>
     <g id="text_26">
      <!-- 0.0 -->
      <g transform="translate(48.013125 515.07113)scale(0.22 -0.22)">
       <use xlink:href="#DejaVuSans-30"/>
       <use x="63.623047" xlink:href="#DejaVuSans-2e"/>
       <use x="95.410156" xlink:href="#DejaVuSans-30"/>
      </g>
     </g>
    </g>
    <g id="ytick_6">
     <g id="line2d_28">
      <g>
       <use style="stroke:#000000;stroke-width:0.8;" x="90" xlink:href="#m5e6bb8d373" y="386.567569"/>
      </g>
     </g>
     <g id="text_27">
      <!-- 0.5 -->
      <g transform="translate(48.013125 394.92585)scale(0.22 -0.22)">
       <use xlink:href="#DejaVuSans-30"/>
       <use x="63.623047" xlink:href="#DejaVuSans-2e"/>
       <use x="95.410156" xlink:href="#DejaVuSans-35"/>
      </g>
     </g>
    </g>
    <g id="text_28">
     <!-- Position [m] -->
     <g transform="translate(39.437812 513.031471)rotate(-90)scale(0.22 -0.22)">
      <defs>
       <path d="M 1259 4147 
L 1259 2394 
L 2053 2394 
Q 2494 2394 2734 2622 
Q 2975 2850 2975 3272 
Q 2975 3691 2734 3919 
Q 2494 4147 2053 4147 
L 1259 4147 
z
M 628 4666 
L 2053 4666 
Q 2838 4666 3239 4311 
Q 3641 3956 3641 3272 
Q 3641 2581 3239 2228 
Q 2838 1875 2053 1875 
L 1259 1875 
L 1259 0 
L 628 0 
L 628 4666 
z
" id="DejaVuSans-50" transform="scale(0.015625)"/>
       <path d="M 3513 2113 
L 3513 0 
L 2938 0 
L 2938 2094 
Q 2938 2591 2744 2837 
Q 2550 3084 2163 3084 
Q 1697 3084 1428 2787 
Q 1159 2491 1159 1978 
L 1159 0 
L 581 0 
L 581 3500 
L 1159 3500 
L 1159 2956 
Q 1366 3272 1645 3428 
Q 1925 3584 2291 3584 
Q 2894 3584 3203 3211 
Q 3513 2838 3513 2113 
z
" id="DejaVuSans-6e" transform="scale(0.015625)"/>
      </defs>
      <use xlink:href="#DejaVuSans-50"/>
      <use x="56.677734" xlink:href="#DejaVuSans-6f"/>
      <use x="117.859375" xlink:href="#DejaVuSans-73"/>
      <use x="169.958984" xlink:href="#DejaVuSans-69"/>
      <use x="197.742188" xlink:href="#DejaVuSans-74"/>
      <use x="236.951172" xlink:href="#DejaVuSans-69"/>
      <use x="264.734375" xlink:href="#DejaVuSans-6f"/>
      <use x="325.916016" xlink:href="#DejaVuSans-6e"/>
      <use x="389.294922" xlink:href="#DejaVuSans-20"/>
      <use x="421.082031" xlink:href="#DejaVuSans-5b"/>
      <use x="460.095703" xlink:href="#DejaVuSans-6d"/>
      <use x="557.507812" xlink:href="#DejaVuSans-5d"/>
     </g>
    </g>
   </g>
   <g id="line2d_29">
    <path clip-path="url(#p96d9a28906)" d="M 115.363636 468.968096 
L 121.552364 469.079238 
L 127.766455 469.413219 
L 134.031273 469.973491 
L 140.346818 470.762089 
L 146.763818 471.788528 
L 153.282273 473.056924 
L 159.952909 474.58187 
L 166.826455 476.382404 
L 173.953636 478.481211 
L 181.385182 480.903528 
L 189.222545 483.694433 
L 197.617909 486.923744 
L 206.774182 490.688199 
L 217.173273 495.210535 
L 230.058 501.06955 
L 242.334 506.638315 
L 263.918455 496.670042 
L 275.535 491.556963 
L 285.3 487.497034 
L 294.050455 484.095808 
L 302.141455 481.186264 
L 309.750545 478.68327 
L 317.004545 476.528451 
L 323.979545 474.68598 
L 330.751636 473.125583 
L 337.346182 471.833005 
L 343.813909 470.791173 
L 350.180182 469.99069 
L 356.470364 469.423921 
L 362.709818 469.085241 
L 368.923909 468.971212 
L 375.112636 469.079781 
L 381.326727 469.411195 
L 387.591545 469.968912 
L 393.907091 470.754983 
L 400.324091 471.778922 
L 406.842545 473.044867 
L 413.513182 474.567413 
L 420.386727 476.365606 
L 427.513909 478.462149 
L 434.945455 480.882301 
L 442.782818 483.671162 
L 451.152818 486.888486 
L 460.309091 490.650608 
L 470.708182 495.170964 
L 483.542182 501.005123 
L 495.970364 506.632102 
L 517.554818 496.663301 
L 529.171364 491.549937 
L 538.936364 487.489769 
L 547.686818 484.088329 
L 555.777818 481.178587 
L 563.386909 478.675406 
L 570.640909 476.52041 
L 577.615909 474.677768 
L 584.388 473.117206 
L 590.982545 471.824466 
L 597.450273 470.782475 
L 603.816545 469.981837 
L 610.106727 469.414913 
L 616.346182 469.07608 
L 622.560273 468.9619 
L 622.636364 468.961887 
L 622.636364 468.961887 
" style="fill:none;stroke:#1f77b4;stroke-linecap:square;stroke-width:1.5;"/>
   </g>
   <g id="line2d_30">
    <path clip-path="url(#p96d9a28906)" d="M 115.363636 506.700991 
L 137.835818 491.077217 
L 149.858182 482.997584 
L 159.952909 476.476263 
L 168.982364 470.903304 
L 177.327 466.010611 
L 185.164364 461.669573 
L 192.646636 457.777241 
L 199.824545 454.29198 
L 206.774182 451.163321 
L 213.520909 448.368013 
L 220.115455 445.874426 
L 226.608545 443.655966 
L 233.000182 441.706056 
L 239.341091 440.003749 
L 245.631273 438.544842 
L 251.896091 437.319229 
L 258.160909 436.319131 
L 264.476455 435.536357 
L 270.842727 434.972061 
L 277.285091 434.624889 
L 283.828909 434.495225 
L 290.524909 434.585607 
L 297.423818 434.902759 
L 304.551 435.454354 
L 312.007909 436.256488 
L 319.896 437.331679 
L 328.367455 438.714638 
L 337.701273 440.468663 
L 348.480818 442.727832 
L 362.735182 445.960031 
L 392.385273 452.735584 
L 403.317 454.964191 
L 412.676182 456.648953 
L 421.122273 457.946701 
L 428.985 458.932292 
L 436.416545 459.641776 
L 443.518364 460.098641 
L 450.391909 460.319311 
L 457.062545 460.31243 
L 463.606364 460.083776 
L 470.023364 459.637817 
L 476.364273 458.974903 
L 482.654455 458.094014 
L 488.919273 456.992076 
L 495.184091 455.663804 
L 501.448909 454.108378 
L 507.764455 452.310996 
L 514.156091 450.259504 
L 520.623818 447.949112 
L 527.218364 445.355872 
L 533.965091 442.461852 
L 540.889364 439.247876 
L 548.041909 435.681006 
L 555.498818 431.711086 
L 563.310818 427.297464 
L 571.604727 422.353088 
L 580.558091 416.752698 
L 590.500636 410.265019 
L 602.091818 402.426492 
L 617.842636 391.482749 
L 622.636364 388.122353 
L 622.636364 388.122353 
" style="fill:none;stroke:#ff7f0e;stroke-linecap:square;stroke-width:1.5;"/>
   </g>
   <g id="patch_14">
    <path d="M 90 512.64 
L 90 382.192941 
" style="fill:none;stroke:#000000;stroke-linecap:square;stroke-linejoin:miter;stroke-width:0.8;"/>
   </g>
   <g id="patch_15">
    <path d="M 648 512.64 
L 648 382.192941 
" style="fill:none;stroke:#000000;stroke-linecap:square;stroke-linejoin:miter;stroke-width:0.8;"/>
   </g>
   <g id="patch_16">
    <path d="M 90 512.64 
L 648 512.64 
" style="fill:none;stroke:#000000;stroke-linecap:square;stroke-linejoin:miter;stroke-width:0.8;"/>
   </g>
   <g id="patch_17">
    <path d="M 90 382.192941 
L 648 382.192941 
" style="fill:none;stroke:#000000;stroke-linecap:square;stroke-linejoin:miter;stroke-width:0.8;"/>
   </g>
   <g id="legend_2">
    <g id="patch_18">
     <path d="M 105.4 465.600441 
L 242.147188 465.600441 
Q 246.547188 465.600441 246.547188 461.200441 
L 246.547188 397.592941 
Q 246.547188 393.192941 242.147188 393.192941 
L 105.4 393.192941 
Q 101 393.192941 101 397.592941 
L 101 461.200441 
Q 101 465.600441 105.4 465.600441 
z
" style="fill:#ffffff;opacity:0.8;stroke:#cccccc;stroke-linejoin:miter;"/>
    </g>
    <g id="line2d_31">
     <path d="M 109.8 411.009504 
L 153.8 411.009504 
" style="fill:none;stroke:#1f77b4;stroke-linecap:square;stroke-width:1.5;"/>
    </g>
    <g id="line2d_32"/>
    <g id="text_29">
     <!-- pos_E -->
     <g transform="translate(171.4 418.709504)scale(0.22 -0.22)">
      <use xlink:href="#DejaVuSans-70"/>
      <use x="63.476562" xlink:href="#DejaVuSans-6f"/>
      <use x="124.658203" xlink:href="#DejaVuSans-73"/>
      <use x="176.757812" xlink:href="#DejaVuSans-5f"/>
      <use x="226.757812" xlink:href="#DejaVuSans-45"/>
     </g>
    </g>
    <g id="line2d_33">
     <path d="M 109.8 443.913254 
L 153.8 443.913254 
" style="fill:none;stroke:#ff7f0e;stroke-linecap:square;stroke-width:1.5;"/>
    </g>
    <g id="line2d_34"/>
    <g id="text_30">
     <!-- pos_N -->
     <g transform="translate(171.4 451.613254)scale(0.22 -0.22)">
      <use xlink:href="#DejaVuSans-70"/>
      <use x="63.476562" xlink:href="#DejaVuSans-6f"/>
      <use x="124.658203" xlink:href="#DejaVuSans-73"/>
      <use x="176.757812" xlink:href="#DejaVuSans-5f"/>
      <use x="226.757812" xlink:href="#DejaVuSans-4e"/>
     </g>
    </g>
   </g>
  </g>
 </g>
 <defs>
  <clipPath id="pe5fd70ec1c">
   <rect height="130.447059" width="558" x="90" y="69.12"/>
  </clipPath>
  <clipPath id="p48729aac34">
   <rect height="130.447059" width="558" x="90" y="225.656471"/>
  </clipPath>
  <clipPath id="p96d9a28906">
   <rect height="130.447059" width="558" x="90" y="382.192941"/>
  </clipPath>
 </defs>
</svg>
