<?xml version="1.0" encoding="utf-8" standalone="no"?>
<!DOCTYPE svg PUBLIC "-//W3C//DTD SVG 1.1//EN"
  "http://www.w3.org/Graphics/SVG/1.1/DTD/svg11.dtd">
<svg height="576pt" version="1.1" viewBox="0 0 720 576" width="720pt" xmlns="http://www.w3.org/2000/svg" xmlns:xlink="http://www.w3.org/1999/xlink">
 <metadata>
  <rdf:RDF xmlns:cc="http://creativecommons.org/ns#" xmlns:dc="http://purl.org/dc/elements/1.1/" xmlns:rdf="http://www.w3.org/1999/02/22-rdf-syntax-ns#">
   <cc:Work>
    <dc:type rdf:resource="http://purl.org/dc/dcmitype/StillImage"/>
    <dc:date>2024-04-04T01:33:57.174001</dc:date>
    <dc:format>image/svg+xml</dc:format>
    <dc:creator>
     <cc:Agent>
      <dc:title>Matplotlib v3.4.2, https://matplotlib.org/</dc:title>
     </cc:Agent>
    </dc:creator>
   </cc:Work>
  </rdf:RDF>
 </metadata>
 <defs>
  <style type="text/css">*{stroke-linecap:butt;stroke-linejoin:round;}</style>
 </defs>
 <g id="figure_1">
  <g id="patch_1">
   <path d="M 0 576 
L 720 576 
L 720 0 
L 0 0 
z
" style="fill:#ffffff;"/>
  </g>
  <g id="axes_1">
   <g id="patch_2">
    <path d="M 78.5 168.386667 
L 702.72 168.386667 
L 702.72 31.8 
L 78.5 31.8 
z
" style="fill:#ffffff;"/>
   </g>
   <g id="matplotlib.axis_1">
    <g id="xtick_1">
     <g id="line2d_1">
      <defs>
       <path d="M 0 0 
L 0 3.5 
" id="m01a9696b6b" style="stroke:#000000;stroke-width:0.8;"/>
      </defs>
      <g>
       <use style="stroke:#000000;stroke-width:0.8;" x="106.873636" xlink:href="#m01a9696b6b" y="168.386667"/>
      </g>
     </g>
     <g id="text_1">
      <!-- 0 -->
      <g transform="translate(101.783636 187.544167)scale(0.16 -0.16)">
       <defs>
        <path d="M 2034 4250 
Q 1547 4250 1301 3770 
Q 1056 3291 1056 2328 
Q 1056 1369 1301 889 
Q 1547 409 2034 409 
Q 2525 409 2770 889 
Q 3016 1369 3016 2328 
Q 3016 3291 2770 3770 
Q 2525 4250 2034 4250 
z
M 2034 4750 
Q 2819 4750 3233 4129 
Q 3647 3509 3647 2328 
Q 3647 1150 3233 529 
Q 2819 -91 2034 -91 
Q 1250 -91 836 529 
Q 422 1150 422 2328 
Q 422 3509 836 4129 
Q 1250 4750 2034 4750 
z
" id="DejaVuSans-30" transform="scale(0.015625)"/>
       </defs>
       <use xlink:href="#DejaVuSans-30"/>
      </g>
     </g>
    </g>
    <g id="xtick_2">
     <g id="line2d_2">
      <g>
       <use style="stroke:#000000;stroke-width:0.8;" x="177.807727" xlink:href="#m01a9696b6b" y="168.386667"/>
      </g>
     </g>
     <g id="text_2">
      <!-- 25 -->
      <g transform="translate(167.627727 187.544167)scale(0.16 -0.16)">
       <defs>
        <path d="M 1228 531 
L 3431 531 
L 3431 0 
L 469 0 
L 469 531 
Q 828 903 1448 1529 
Q 2069 2156 2228 2338 
Q 2531 2678 2651 2914 
Q 2772 3150 2772 3378 
Q 2772 3750 2511 3984 
Q 2250 4219 1831 4219 
Q 1534 4219 1204 4116 
Q 875 4013 500 3803 
L 500 4441 
Q 881 4594 1212 4672 
Q 1544 4750 1819 4750 
Q 2544 4750 2975 4387 
Q 3406 4025 3406 3419 
Q 3406 3131 3298 2873 
Q 3191 2616 2906 2266 
Q 2828 2175 2409 1742 
Q 1991 1309 1228 531 
z
" id="DejaVuSans-32" transform="scale(0.015625)"/>
        <path d="M 691 4666 
L 3169 4666 
L 3169 4134 
L 1269 4134 
L 1269 2991 
Q 1406 3038 1543 3061 
Q 1681 3084 1819 3084 
Q 2600 3084 3056 2656 
Q 3513 2228 3513 1497 
Q 3513 744 3044 326 
Q 2575 -91 1722 -91 
Q 1428 -91 1123 -41 
Q 819 9 494 109 
L 494 744 
Q 775 591 1075 516 
Q 1375 441 1709 441 
Q 2250 441 2565 725 
Q 2881 1009 2881 1497 
Q 2881 1984 2565 2268 
Q 2250 2553 1709 2553 
Q 1456 2553 1204 2497 
Q 953 2441 691 2322 
L 691 4666 
z
" id="DejaVuSans-35" transform="scale(0.015625)"/>
       </defs>
       <use xlink:href="#DejaVuSans-32"/>
       <use x="63.623047" xlink:href="#DejaVuSans-35"/>
      </g>
     </g>
    </g>
    <g id="xtick_3">
     <g id="line2d_3">
      <g>
       <use style="stroke:#000000;stroke-width:0.8;" x="248.741818" xlink:href="#m01a9696b6b" y="168.386667"/>
      </g>
     </g>
     <g id="text_3">
      <!-- 50 -->
      <g transform="translate(238.561818 187.544167)scale(0.16 -0.16)">
       <use xlink:href="#DejaVuSans-35"/>
       <use x="63.623047" xlink:href="#DejaVuSans-30"/>
      </g>
     </g>
    </g>
    <g id="xtick_4">
     <g id="line2d_4">
      <g>
       <use style="stroke:#000000;stroke-width:0.8;" x="319.675909" xlink:href="#m01a9696b6b" y="168.386667"/>
      </g>
     </g>
     <g id="text_4">
      <!-- 75 -->
      <g transform="translate(309.495909 187.544167)scale(0.16 -0.16)">
       <defs>
        <path d="M 525 4666 
L 3525 4666 
L 3525 4397 
L 1831 0 
L 1172 0 
L 2766 4134 
L 525 4134 
L 525 4666 
z
" id="DejaVuSans-37" transform="scale(0.015625)"/>
       </defs>
       <use xlink:href="#DejaVuSans-37"/>
       <use x="63.623047" xlink:href="#DejaVuSans-35"/>
      </g>
     </g>
    </g>
    <g id="xtick_5">
     <g id="line2d_5">
      <g>
       <use style="stroke:#000000;stroke-width:0.8;" x="390.61" xlink:href="#m01a9696b6b" y="168.386667"/>
      </g>
     </g>
     <g id="text_5">
      <!-- 100 -->
      <g transform="translate(375.34 187.544167)scale(0.16 -0.16)">
       <defs>
        <path d="M 794 531 
L 1825 531 
L 1825 4091 
L 703 3866 
L 703 4441 
L 1819 4666 
L 2450 4666 
L 2450 531 
L 3481 531 
L 3481 0 
L 794 0 
L 794 531 
z
" id="DejaVuSans-31" transform="scale(0.015625)"/>
       </defs>
       <use xlink:href="#DejaVuSans-31"/>
       <use x="63.623047" xlink:href="#DejaVuSans-30"/>
       <use x="127.246094" xlink:href="#DejaVuSans-30"/>
      </g>
     </g>
    </g>
    <g id="xtick_6">
     <g id="line2d_6">
      <g>
       <use style="stroke:#000000;stroke-width:0.8;" x="461.544091" xlink:href="#m01a9696b6b" y="168.386667"/>
      </g>
     </g>
     <g id="text_6">
      <!-- 125 -->
      <g transform="translate(446.274091 187.544167)scale(0.16 -0.16)">
       <use xlink:href="#DejaVuSans-31"/>
       <use x="63.623047" xlink:href="#DejaVuSans-32"/>
       <use x="127.246094" xlink:href="#DejaVuSans-35"/>
      </g>
     </g>
    </g>
    <g id="xtick_7">
     <g id="line2d_7">
      <g>
       <use style="stroke:#000000;stroke-width:0.8;" x="532.478182" xlink:href="#m01a9696b6b" y="168.386667"/>
      </g>
     </g>
     <g id="text_7">
      <!-- 150 -->
      <g transform="translate(517.208182 187.544167)scale(0.16 -0.16)">
       <use xlink:href="#DejaVuSans-31"/>
       <use x="63.623047" xlink:href="#DejaVuSans-35"/>
       <use x="127.246094" xlink:href="#DejaVuSans-30"/>
      </g>
     </g>
    </g>
    <g id="xtick_8">
     <g id="line2d_8">
      <g>
       <use style="stroke:#000000;stroke-width:0.8;" x="603.412273" xlink:href="#m01a9696b6b" y="168.386667"/>
      </g>
     </g>
     <g id="text_8">
      <!-- 175 -->
      <g transform="translate(588.142273 187.544167)scale(0.16 -0.16)">
       <use xlink:href="#DejaVuSans-31"/>
       <use x="63.623047" xlink:href="#DejaVuSans-37"/>
       <use x="127.246094" xlink:href="#DejaVuSans-35"/>
      </g>
     </g>
    </g>
    <g id="xtick_9">
     <g id="line2d_9">
      <g>
       <use style="stroke:#000000;stroke-width:0.8;" x="674.346364" xlink:href="#m01a9696b6b" y="168.386667"/>
      </g>
     </g>
     <g id="text_9">
      <!-- 200 -->
      <g transform="translate(659.076364 187.544167)scale(0.16 -0.16)">
       <use xlink:href="#DejaVuSans-32"/>
       <use x="63.623047" xlink:href="#DejaVuSans-30"/>
       <use x="127.246094" xlink:href="#DejaVuSans-30"/>
      </g>
     </g>
    </g>
   </g>
   <g id="matplotlib.axis_2">
    <g id="ytick_1">
     <g id="line2d_10">
      <defs>
       <path d="M 0 0 
L -3.5 0 
" id="m1d4f53b861" style="stroke:#000000;stroke-width:0.8;"/>
      </defs>
      <g>
       <use style="stroke:#000000;stroke-width:0.8;" x="78.5" xlink:href="#m1d4f53b861" y="162.178182"/>
      </g>
     </g>
     <g id="text_10">
      <!-- 0 -->
      <g transform="translate(61.32 168.256932)scale(0.16 -0.16)">
       <use xlink:href="#DejaVuSans-30"/>
      </g>
     </g>
    </g>
    <g id="ytick_2">
     <g id="line2d_11">
      <g>
       <use style="stroke:#000000;stroke-width:0.8;" x="78.5" xlink:href="#m1d4f53b861" y="112.951897"/>
      </g>
     </g>
     <g id="text_11">
      <!-- 1 -->
      <g transform="translate(61.32 119.030647)scale(0.16 -0.16)">
       <use xlink:href="#DejaVuSans-31"/>
      </g>
     </g>
    </g>
    <g id="ytick_3">
     <g id="line2d_12">
      <g>
       <use style="stroke:#000000;stroke-width:0.8;" x="78.5" xlink:href="#m1d4f53b861" y="63.725611"/>
      </g>
     </g>
     <g id="text_12">
      <!-- 2 -->
      <g transform="translate(61.32 69.804361)scale(0.16 -0.16)">
       <use xlink:href="#DejaVuSans-32"/>
      </g>
     </g>
    </g>
    <g id="text_13">
     <!-- Azimuth [rad] -->
     <g transform="translate(53.9925 155.110833)rotate(-90)scale(0.16 -0.16)">
      <defs>
       <path d="M 2188 4044 
L 1331 1722 
L 3047 1722 
L 2188 4044 
z
M 1831 4666 
L 2547 4666 
L 4325 0 
L 3669 0 
L 3244 1197 
L 1141 1197 
L 716 0 
L 50 0 
L 1831 4666 
z
" id="DejaVuSans-41" transform="scale(0.015625)"/>
       <path d="M 353 3500 
L 3084 3500 
L 3084 2975 
L 922 459 
L 3084 459 
L 3084 0 
L 275 0 
L 275 525 
L 2438 3041 
L 353 3041 
L 353 3500 
z
" id="DejaVuSans-7a" transform="scale(0.015625)"/>
       <path d="M 603 3500 
L 1178 3500 
L 1178 0 
L 603 0 
L 603 3500 
z
M 603 4863 
L 1178 4863 
L 1178 4134 
L 603 4134 
L 603 4863 
z
" id="DejaVuSans-69" transform="scale(0.015625)"/>
       <path d="M 3328 2828 
Q 3544 3216 3844 3400 
Q 4144 3584 4550 3584 
Q 5097 3584 5394 3201 
Q 5691 2819 5691 2113 
L 5691 0 
L 5113 0 
L 5113 2094 
Q 5113 2597 4934 2840 
Q 4756 3084 4391 3084 
Q 3944 3084 3684 2787 
Q 3425 2491 3425 1978 
L 3425 0 
L 2847 0 
L 2847 2094 
Q 2847 2600 2669 2842 
Q 2491 3084 2119 3084 
Q 1678 3084 1418 2786 
Q 1159 2488 1159 1978 
L 1159 0 
L 581 0 
L 581 3500 
L 1159 3500 
L 1159 2956 
Q 1356 3278 1631 3431 
Q 1906 3584 2284 3584 
Q 2666 3584 2933 3390 
Q 3200 3197 3328 2828 
z
" id="DejaVuSans-6d" transform="scale(0.015625)"/>
       <path d="M 544 1381 
L 544 3500 
L 1119 3500 
L 1119 1403 
Q 1119 906 1312 657 
Q 1506 409 1894 409 
Q 2359 409 2629 706 
Q 2900 1003 2900 1516 
L 2900 3500 
L 3475 3500 
L 3475 0 
L 2900 0 
L 2900 538 
Q 2691 219 2414 64 
Q 2138 -91 1772 -91 
Q 1169 -91 856 284 
Q 544 659 544 1381 
z
M 1991 3584 
L 1991 3584 
z
" id="DejaVuSans-75" transform="scale(0.015625)"/>
       <path d="M 1172 4494 
L 1172 3500 
L 2356 3500 
L 2356 3053 
L 1172 3053 
L 1172 1153 
Q 1172 725 1289 603 
Q 1406 481 1766 481 
L 2356 481 
L 2356 0 
L 1766 0 
Q 1100 0 847 248 
Q 594 497 594 1153 
L 594 3053 
L 172 3053 
L 172 3500 
L 594 3500 
L 594 4494 
L 1172 4494 
z
" id="DejaVuSans-74" transform="scale(0.015625)"/>
       <path d="M 3513 2113 
L 3513 0 
L 2938 0 
L 2938 2094 
Q 2938 2591 2744 2837 
Q 2550 3084 2163 3084 
Q 1697 3084 1428 2787 
Q 1159 2491 1159 1978 
L 1159 0 
L 581 0 
L 581 4863 
L 1159 4863 
L 1159 2956 
Q 1366 3272 1645 3428 
Q 1925 3584 2291 3584 
Q 2894 3584 3203 3211 
Q 3513 2838 3513 2113 
z
" id="DejaVuSans-68" transform="scale(0.015625)"/>
       <path id="DejaVuSans-20" transform="scale(0.015625)"/>
       <path d="M 550 4863 
L 1875 4863 
L 1875 4416 
L 1125 4416 
L 1125 -397 
L 1875 -397 
L 1875 -844 
L 550 -844 
L 550 4863 
z
" id="DejaVuSans-5b" transform="scale(0.015625)"/>
       <path d="M 2631 2963 
Q 2534 3019 2420 3045 
Q 2306 3072 2169 3072 
Q 1681 3072 1420 2755 
Q 1159 2438 1159 1844 
L 1159 0 
L 581 0 
L 581 3500 
L 1159 3500 
L 1159 2956 
Q 1341 3275 1631 3429 
Q 1922 3584 2338 3584 
Q 2397 3584 2469 3576 
Q 2541 3569 2628 3553 
L 2631 2963 
z
" id="DejaVuSans-72" transform="scale(0.015625)"/>
       <path d="M 2194 1759 
Q 1497 1759 1228 1600 
Q 959 1441 959 1056 
Q 959 750 1161 570 
Q 1363 391 1709 391 
Q 2188 391 2477 730 
Q 2766 1069 2766 1631 
L 2766 1759 
L 2194 1759 
z
M 3341 1997 
L 3341 0 
L 2766 0 
L 2766 531 
Q 2569 213 2275 61 
Q 1981 -91 1556 -91 
Q 1019 -91 701 211 
Q 384 513 384 1019 
Q 384 1609 779 1909 
Q 1175 2209 1959 2209 
L 2766 2209 
L 2766 2266 
Q 2766 2663 2505 2880 
Q 2244 3097 1772 3097 
Q 1472 3097 1187 3025 
Q 903 2953 641 2809 
L 641 3341 
Q 956 3463 1253 3523 
Q 1550 3584 1831 3584 
Q 2591 3584 2966 3190 
Q 3341 2797 3341 1997 
z
" id="DejaVuSans-61" transform="scale(0.015625)"/>
       <path d="M 2906 2969 
L 2906 4863 
L 3481 4863 
L 3481 0 
L 2906 0 
L 2906 525 
Q 2725 213 2448 61 
Q 2172 -91 1784 -91 
Q 1150 -91 751 415 
Q 353 922 353 1747 
Q 353 2572 751 3078 
Q 1150 3584 1784 3584 
Q 2172 3584 2448 3432 
Q 2725 3281 2906 2969 
z
M 947 1747 
Q 947 1113 1208 752 
Q 1469 391 1925 391 
Q 2381 391 2643 752 
Q 2906 1113 2906 1747 
Q 2906 2381 2643 2742 
Q 2381 3103 1925 3103 
Q 1469 3103 1208 2742 
Q 947 2381 947 1747 
z
" id="DejaVuSans-64" transform="scale(0.015625)"/>
       <path d="M 1947 4863 
L 1947 -844 
L 622 -844 
L 622 -397 
L 1369 -397 
L 1369 4416 
L 622 4416 
L 622 4863 
L 1947 4863 
z
" id="DejaVuSans-5d" transform="scale(0.015625)"/>
      </defs>
      <use xlink:href="#DejaVuSans-41"/>
      <use x="68.408203" xlink:href="#DejaVuSans-7a"/>
      <use x="120.898438" xlink:href="#DejaVuSans-69"/>
      <use x="148.681641" xlink:href="#DejaVuSans-6d"/>
      <use x="246.09375" xlink:href="#DejaVuSans-75"/>
      <use x="309.472656" xlink:href="#DejaVuSans-74"/>
      <use x="348.681641" xlink:href="#DejaVuSans-68"/>
      <use x="412.060547" xlink:href="#DejaVuSans-20"/>
      <use x="443.847656" xlink:href="#DejaVuSans-5b"/>
      <use x="482.861328" xlink:href="#DejaVuSans-72"/>
      <use x="523.974609" xlink:href="#DejaVuSans-61"/>
      <use x="585.253906" xlink:href="#DejaVuSans-64"/>
      <use x="648.730469" xlink:href="#DejaVuSans-5d"/>
     </g>
    </g>
    <g id="text_14">
     <!-- 1e−13 -->
     <g transform="translate(78.5 28.8)scale(0.16 -0.16)">
      <defs>
       <path d="M 3597 1894 
L 3597 1613 
L 953 1613 
Q 991 1019 1311 708 
Q 1631 397 2203 397 
Q 2534 397 2845 478 
Q 3156 559 3463 722 
L 3463 178 
Q 3153 47 2828 -22 
Q 2503 -91 2169 -91 
Q 1331 -91 842 396 
Q 353 884 353 1716 
Q 353 2575 817 3079 
Q 1281 3584 2069 3584 
Q 2775 3584 3186 3129 
Q 3597 2675 3597 1894 
z
M 3022 2063 
Q 3016 2534 2758 2815 
Q 2500 3097 2075 3097 
Q 1594 3097 1305 2825 
Q 1016 2553 972 2059 
L 3022 2063 
z
" id="DejaVuSans-65" transform="scale(0.015625)"/>
       <path d="M 678 2272 
L 4684 2272 
L 4684 1741 
L 678 1741 
L 678 2272 
z
" id="DejaVuSans-2212" transform="scale(0.015625)"/>
       <path d="M 2597 2516 
Q 3050 2419 3304 2112 
Q 3559 1806 3559 1356 
Q 3559 666 3084 287 
Q 2609 -91 1734 -91 
Q 1441 -91 1130 -33 
Q 819 25 488 141 
L 488 750 
Q 750 597 1062 519 
Q 1375 441 1716 441 
Q 2309 441 2620 675 
Q 2931 909 2931 1356 
Q 2931 1769 2642 2001 
Q 2353 2234 1838 2234 
L 1294 2234 
L 1294 2753 
L 1863 2753 
Q 2328 2753 2575 2939 
Q 2822 3125 2822 3475 
Q 2822 3834 2567 4026 
Q 2313 4219 1838 4219 
Q 1578 4219 1281 4162 
Q 984 4106 628 3988 
L 628 4550 
Q 988 4650 1302 4700 
Q 1616 4750 1894 4750 
Q 2613 4750 3031 4423 
Q 3450 4097 3450 3541 
Q 3450 3153 3228 2886 
Q 3006 2619 2597 2516 
z
" id="DejaVuSans-33" transform="scale(0.015625)"/>
      </defs>
      <use xlink:href="#DejaVuSans-31"/>
      <use x="63.623047" xlink:href="#DejaVuSans-65"/>
      <use x="125.146484" xlink:href="#DejaVuSans-2212"/>
      <use x="208.935547" xlink:href="#DejaVuSans-31"/>
      <use x="272.558594" xlink:href="#DejaVuSans-33"/>
     </g>
    </g>
   </g>
   <g id="line2d_13">
    <path clip-path="url(#pdf34865aee)" d="M 106.873636 162.178182 
L 110.278473 162.133777 
L 113.683309 162.157687 
L 114.818255 162.144024 
L 115.669464 162.144024 
L 119.641773 162.137193 
L 120.492982 162.137193 
L 123.046609 162.150856 
L 134.396064 162.041551 
L 136.949691 161.904921 
L 139.219582 161.795617 
L 141.205736 161.713638 
L 143.475627 161.604334 
L 145.745518 161.413052 
L 146.029255 161.49503 
L 146.312991 161.358399 
L 146.596727 161.467704 
L 146.880464 161.358399 
L 147.1642 161.440378 
L 147.447936 161.303747 
L 147.731673 161.413052 
L 148.015409 161.276421 
L 148.299145 161.385726 
L 148.582882 161.276421 
L 148.866618 161.358399 
L 149.150355 161.221769 
L 149.434091 161.331073 
L 149.717827 161.221769 
L 150.001564 161.303747 
L 150.2853 161.194443 
L 150.569036 161.276421 
L 150.852773 161.139791 
L 151.136509 161.276421 
L 151.420245 161.139791 
L 151.987718 161.331073 
L 152.555191 161.085139 
L 153.4064 161.194443 
L 153.690136 161.030487 
L 154.257609 161.194443 
L 154.825082 160.975834 
L 155.392555 161.194443 
L 155.960027 160.921182 
L 156.5275 161.085139 
L 157.378709 160.975834 
L 157.662445 161.085139 
L 158.229918 160.811878 
L 158.797391 161.030487 
L 159.364864 160.757226 
L 159.932336 160.921182 
L 160.783545 160.811878 
L 161.067282 160.921182 
L 161.634755 160.647921 
L 162.202227 160.86653 
L 162.7697 160.647921 
L 163.337173 160.811878 
L 163.904645 160.593269 
L 164.472118 160.757226 
L 165.039591 160.483965 
L 165.607064 160.757226 
L 166.174536 160.483965 
L 167.025745 160.538617 
L 167.309482 160.429313 
L 167.876955 160.593269 
L 168.444427 160.374661 
L 169.295636 160.429313 
L 169.579373 160.320009 
L 170.146845 160.483965 
L 170.714318 160.265356 
L 171.281791 160.483965 
L 171.849264 160.210704 
L 172.700473 160.320009 
L 172.984209 160.156052 
L 173.551682 160.320009 
L 174.119155 160.156052 
L 174.686627 160.320009 
L 175.2541 160.046748 
L 175.821573 160.210704 
L 176.672782 160.1014 
L 176.956518 160.210704 
L 177.523991 159.937443 
L 178.091464 160.156052 
L 178.658936 159.882791 
L 179.226409 160.046748 
L 180.077618 159.937443 
L 180.361355 160.046748 
L 180.928827 159.773487 
L 181.4963 159.992096 
L 182.063773 159.718835 
L 182.631245 159.937443 
L 183.198718 159.718835 
L 184.049927 159.773487 
L 184.333664 159.609531 
L 184.901136 159.828139 
L 185.468609 159.609531 
L 186.319818 159.664183 
L 186.603555 159.554878 
L 187.171027 159.718835 
L 187.7385 159.445574 
L 188.305973 159.718835 
L 188.873445 159.445574 
L 189.724655 159.500226 
L 190.008391 159.390922 
L 190.575864 159.554878 
L 191.143336 159.33627 
L 191.994545 159.390922 
L 192.278282 159.281618 
L 192.845755 159.445574 
L 193.413227 159.226965 
L 193.9807 159.445574 
L 194.548173 159.172313 
L 195.399382 159.281618 
L 195.683118 159.117661 
L 196.250591 159.281618 
L 196.818064 159.117661 
L 197.385536 159.226965 
L 197.953009 159.008357 
L 198.520482 159.226965 
L 199.087955 158.899052 
L 199.939164 159.117661 
L 200.2229 158.899052 
L 200.790373 159.117661 
L 201.641582 158.899052 
L 201.925318 159.008357 
L 202.492791 158.789748 
L 203.060264 159.008357 
L 203.627736 158.789748 
L 204.195209 159.008357 
L 204.762682 158.680444 
L 205.330155 158.899052 
L 206.181364 158.680444 
L 206.4651 158.899052 
L 207.316309 158.680444 
L 207.600045 158.789748 
L 208.167518 158.57114 
L 208.734991 158.680444 
L 209.302464 158.461835 
L 209.869936 158.680444 
L 210.437409 158.461835 
L 211.004882 158.680444 
L 211.856091 158.461835 
L 212.139827 158.57114 
L 212.991036 158.352531 
L 213.558509 158.461835 
L 213.842245 158.352531 
L 214.409718 158.461835 
L 214.977191 158.243227 
L 215.544664 158.461835 
L 216.395873 158.243227 
L 216.963345 158.352531 
L 217.530818 158.243227 
L 217.814555 158.352531 
L 218.382027 158.133922 
L 218.9495 158.243227 
L 219.516973 158.024618 
L 220.084445 158.243227 
L 220.368182 158.024618 
L 220.935655 158.133922 
L 221.219391 158.243227 
L 222.0706 158.024618 
L 222.354336 158.133922 
L 223.205545 157.915314 
L 223.489282 158.024618 
L 224.056755 157.915314 
L 224.624227 158.024618 
L 225.1917 157.806009 
L 225.759173 158.024618 
L 226.326645 157.696705 
L 226.894118 157.915314 
L 227.461591 157.696705 
L 228.029064 157.915314 
L 228.880273 157.696705 
L 229.164009 157.806009 
L 229.731482 157.587401 
L 230.298955 157.696705 
L 230.866427 157.587401 
L 231.4339 157.806009 
L 232.001373 157.478096 
L 232.568845 157.696705 
L 233.420055 157.478096 
L 233.703791 157.587401 
L 234.271264 157.368792 
L 234.838736 157.587401 
L 235.406209 157.368792 
L 235.973682 157.478096 
L 236.541155 157.259488 
L 237.108627 157.478096 
L 237.6761 157.150184 
L 238.243573 157.478096 
L 239.094782 157.259488 
L 239.378518 157.368792 
L 240.229727 157.150184 
L 240.513464 157.259488 
L 241.080936 157.040879 
L 241.364673 157.259488 
L 241.932145 157.150184 
L 242.215882 157.040879 
L 242.783355 157.259488 
L 243.350827 156.931575 
L 243.9183 157.150184 
L 244.769509 156.931575 
L 245.053245 157.150184 
L 245.904455 156.931575 
L 246.188191 157.040879 
L 246.755664 156.822271 
L 247.323136 156.931575 
L 247.890609 156.712966 
L 248.458082 157.040879 
L 249.025555 156.712966 
L 249.593027 156.931575 
L 250.444236 156.712966 
L 250.727973 156.822271 
L 251.579182 156.603662 
L 251.862918 156.822271 
L 252.430391 156.603662 
L 252.997864 156.712966 
L 253.565336 156.494358 
L 254.132809 156.712966 
L 254.700282 156.385053 
L 255.551491 156.603662 
L 255.835227 156.385053 
L 256.4027 156.603662 
L 257.253909 156.385053 
L 257.537645 156.494358 
L 258.105118 156.275749 
L 258.672591 156.385053 
L 260.091273 156.275749 
L 260.375009 156.166445 
L 260.942482 156.385053 
L 261.793691 156.166445 
L 262.361164 156.275749 
L 262.928636 156.166445 
L 263.212373 156.275749 
L 263.779845 156.05714 
L 264.347318 156.166445 
L 264.914791 155.947836 
L 265.482264 156.166445 
L 266.049736 155.947836 
L 266.617209 156.166445 
L 267.468418 155.947836 
L 267.752155 156.05714 
L 268.603364 155.838532 
L 268.8871 155.947836 
L 269.454573 155.838532 
L 270.022045 155.947836 
L 270.589518 155.729227 
L 271.156991 155.947836 
L 271.724464 155.619923 
L 272.291936 155.838532 
L 272.859409 155.619923 
L 273.426882 155.838532 
L 274.278091 155.619923 
L 274.561827 155.729227 
L 275.1293 155.510619 
L 275.696773 155.619923 
L 276.264245 155.510619 
L 276.831718 155.729227 
L 277.399191 155.401315 
L 277.966664 155.619923 
L 278.817873 155.401315 
L 279.101609 155.510619 
L 279.669082 155.29201 
L 280.236555 155.510619 
L 280.804027 155.29201 
L 281.3715 155.401315 
L 281.938973 155.182706 
L 282.506445 155.401315 
L 283.073918 155.073402 
L 283.641391 155.401315 
L 284.4926 155.182706 
L 284.776336 155.29201 
L 285.627545 155.073402 
L 285.911282 155.182706 
L 286.478755 154.964097 
L 286.762491 155.182706 
L 287.897436 155.182706 
L 288.181173 155.401315 
L 288.464909 155.401315 
L 288.748645 155.619923 
L 289.316118 155.619923 
L 289.599855 155.838532 
L 289.883591 155.838532 
L 290.167327 156.05714 
L 290.7348 156.05714 
L 291.018536 156.275749 
L 291.302273 156.275749 
L 291.586009 156.494358 
L 291.869745 156.494358 
L 292.437218 156.931575 
L 292.720955 156.931575 
L 293.004691 157.150184 
L 293.572164 157.150184 
L 293.8559 157.368792 
L 294.139636 157.368792 
L 294.423373 157.587401 
L 294.990845 157.587401 
L 295.274582 157.806009 
L 295.558318 157.806009 
L 295.842055 158.024618 
L 296.409527 158.024618 
L 296.693264 158.243227 
L 296.977 158.243227 
L 297.260736 158.461835 
L 297.828209 158.461835 
L 298.111945 158.680444 
L 298.395682 158.680444 
L 298.963155 159.117661 
L 299.246891 159.117661 
L 299.530627 159.33627 
L 299.814364 159.33627 
L 300.0981 159.554878 
L 300.665573 159.554878 
L 300.949309 159.773487 
L 301.233045 159.773487 
L 301.516782 159.992096 
L 302.084255 159.992096 
L 302.367991 160.210704 
L 302.651727 160.210704 
L 302.935464 160.429313 
L 303.502936 160.429313 
L 303.786673 160.647921 
L 304.070409 160.647921 
L 304.354145 160.86653 
L 304.921618 160.86653 
L 305.205355 161.085139 
L 305.489091 161.085139 
L 306.056564 161.522356 
L 306.3403 161.522356 
L 306.624036 161.740965 
L 306.907773 161.740965 
L 307.191509 161.959573 
L 307.758982 161.959573 
L 308.042718 162.178182 
L 308.326455 162.178182 
L 308.610191 161.959573 
L 309.177664 161.959573 
L 309.4614 161.740965 
L 309.745136 161.740965 
L 310.028873 161.522356 
L 310.596345 161.522356 
L 310.880082 161.303747 
L 311.163818 161.303747 
L 311.447555 161.085139 
L 312.015027 161.085139 
L 312.298764 160.86653 
L 312.5825 160.86653 
L 313.149973 160.429313 
L 313.433709 160.429313 
L 313.717445 160.210704 
L 314.001182 160.210704 
L 314.284918 159.992096 
L 314.852391 159.992096 
L 315.136127 159.773487 
L 315.419864 159.773487 
L 315.7036 159.554878 
L 316.271073 159.554878 
L 316.554809 159.33627 
L 316.838545 159.33627 
L 317.122282 159.117661 
L 317.689755 159.117661 
L 317.973491 158.899052 
L 318.257227 158.899052 
L 318.540964 158.680444 
L 319.108436 158.680444 
L 319.392173 158.461835 
L 319.675909 158.461835 
L 319.959645 158.024618 
L 320.527118 158.024618 
L 320.810855 157.806009 
L 321.094591 157.806009 
L 321.378327 157.587401 
L 321.9458 157.587401 
L 322.229536 157.368792 
L 322.513273 157.368792 
L 322.797009 157.150184 
L 323.364482 157.150184 
L 323.648218 156.931575 
L 323.931955 156.931575 
L 324.215691 156.712966 
L 324.499427 156.712966 
L 324.783164 156.494358 
L 325.350636 156.494358 
L 325.634373 156.275749 
L 325.918109 156.275749 
L 326.485582 155.838532 
L 326.769318 155.838532 
L 327.053055 155.401315 
L 327.336791 155.401315 
L 327.620527 155.182706 
L 328.188 155.182706 
L 328.471736 154.964097 
L 328.755473 154.964097 
L 329.039209 154.745489 
L 329.606682 154.745489 
L 329.890418 154.52688 
L 330.174155 154.52688 
L 330.457891 154.308271 
L 331.025364 154.308271 
L 331.3091 154.089663 
L 331.592836 154.089663 
L 331.876573 153.871054 
L 332.444045 153.871054 
L 332.727782 153.652446 
L 333.011518 153.652446 
L 333.295255 153.433837 
L 333.862727 153.433837 
L 334.146464 152.99662 
L 334.4302 152.99662 
L 334.713936 152.778011 
L 335.281409 152.778011 
L 335.565145 152.559402 
L 335.848882 152.559402 
L 336.132618 152.340794 
L 336.700091 152.340794 
L 336.983827 152.122185 
L 337.267564 152.122185 
L 337.5513 151.903577 
L 338.118773 151.903577 
L 338.402509 151.684968 
L 338.686245 151.684968 
L 338.969982 151.466359 
L 339.537455 151.466359 
L 339.821191 151.247751 
L 340.104927 151.247751 
L 340.388664 151.029142 
L 340.6724 151.029142 
L 341.239873 150.591925 
L 341.523609 150.591925 
L 341.807345 150.373316 
L 342.374818 150.373316 
L 342.658555 150.154708 
L 342.942291 150.154708 
L 343.226027 149.936099 
L 343.7935 149.936099 
L 344.077236 149.71749 
L 344.360973 149.71749 
L 344.644709 149.498882 
L 345.212182 149.498882 
L 345.495918 149.280273 
L 345.779655 149.280273 
L 346.063391 149.061665 
L 346.630864 149.061665 
L 346.9146 148.843056 
L 347.198336 148.843056 
L 347.482073 148.624447 
L 347.765809 148.624447 
L 348.333282 148.18723 
L 348.617018 148.18723 
L 348.900755 147.968621 
L 349.468227 147.968621 
L 349.751964 147.750013 
L 350.0357 147.750013 
L 350.319436 147.531404 
L 350.886909 147.531404 
L 351.170645 147.312796 
L 351.454382 147.312796 
L 351.738118 147.094187 
L 352.305591 147.094187 
L 352.589327 146.875578 
L 352.873064 146.875578 
L 353.1568 146.65697 
L 353.724273 146.65697 
L 354.008009 146.438361 
L 354.291745 146.438361 
L 354.859218 146.001144 
L 355.142955 146.001144 
L 355.426691 145.782535 
L 355.710427 145.782535 
L 355.994164 145.563927 
L 356.561636 145.563927 
L 356.845373 145.345318 
L 357.129109 145.345318 
L 357.412845 145.126709 
L 357.980318 145.126709 
L 358.264055 144.908101 
L 358.547791 144.908101 
L 358.831527 144.689492 
L 359.399 144.689492 
L 359.682736 144.470883 
L 359.966473 144.470883 
L 360.250209 144.252275 
L 360.817682 144.252275 
L 361.101418 144.033666 
L 361.385155 144.033666 
L 361.952627 143.596449 
L 362.236364 143.596449 
L 362.5201 143.37784 
L 362.803836 143.37784 
L 363.087573 143.159232 
L 363.655045 143.159232 
L 363.938782 142.940623 
L 364.222518 142.940623 
L 364.506255 142.722015 
L 365.073727 142.722015 
L 365.357464 142.503406 
L 365.6412 142.503406 
L 365.924936 142.284797 
L 366.492409 142.284797 
L 366.776145 142.066189 
L 367.059882 142.066189 
L 367.343618 141.84758 
L 367.911091 141.84758 
L 368.194827 141.628971 
L 368.478564 141.628971 
L 368.7623 141.191754 
L 369.329773 141.191754 
L 369.613509 140.973146 
L 369.897245 140.973146 
L 370.180982 140.754537 
L 370.748455 140.754537 
L 371.032191 140.535928 
L 371.315927 140.535928 
L 371.599664 140.31732 
L 372.167136 140.31732 
L 372.450873 140.098711 
L 372.734609 140.098711 
L 373.018345 139.880102 
L 373.585818 139.880102 
L 373.869555 139.661494 
L 374.153291 139.661494 
L 374.437027 139.442885 
L 375.0045 139.442885 
L 375.288236 139.224277 
L 375.571973 139.224277 
L 375.855709 138.787059 
L 376.423182 138.787059 
L 376.706918 138.568451 
L 376.990655 138.568451 
L 377.274391 138.349842 
L 377.841864 138.349842 
L 378.1256 138.131233 
L 378.409336 138.131233 
L 378.693073 137.912625 
L 379.260545 137.912625 
L 379.544282 137.694016 
L 379.828018 137.694016 
L 380.111755 137.475408 
L 380.679227 137.475408 
L 380.962964 137.256799 
L 381.2467 137.256799 
L 381.530436 137.03819 
L 382.097909 137.03819 
L 382.381645 136.819582 
L 382.665382 136.819582 
L 382.949118 136.382364 
L 383.516591 136.382364 
L 383.800327 136.163756 
L 384.084064 136.163756 
L 384.3678 135.945147 
L 384.935273 135.945147 
L 385.219009 135.726539 
L 385.502745 135.726539 
L 385.786482 135.50793 
L 386.353955 135.50793 
L 386.637691 135.289321 
L 386.921427 135.289321 
L 387.205164 135.070713 
L 387.772636 135.070713 
L 388.056373 134.852104 
L 388.340109 134.852104 
L 388.623845 134.633496 
L 389.191318 134.633496 
L 390.042527 133.97767 
L 390.61 133.97767 
L 390.893736 133.759061 
L 391.177473 133.759061 
L 391.461209 133.540452 
L 392.028682 133.540452 
L 392.312418 133.321844 
L 392.596155 133.321844 
L 392.879891 133.103235 
L 393.447364 133.103235 
L 393.7311 132.884627 
L 394.014836 132.884627 
L 394.298573 132.666018 
L 394.866045 132.666018 
L 395.149782 132.447409 
L 395.433518 132.447409 
L 395.717255 132.228801 
L 396.284727 132.228801 
L 397.135936 131.572975 
L 397.703409 131.572975 
L 397.987145 131.354366 
L 398.270882 131.354366 
L 398.554618 131.135758 
L 399.122091 131.135758 
L 399.405827 130.917149 
L 399.689564 130.917149 
L 399.9733 130.69854 
L 400.540773 130.69854 
L 400.824509 130.479932 
L 401.108245 130.479932 
L 401.391982 130.261323 
L 401.959455 130.261323 
L 402.243191 130.042714 
L 402.526927 130.042714 
L 402.810664 129.824106 
L 403.378136 129.824106 
L 404.229345 129.16828 
L 404.796818 129.16828 
L 405.080555 128.949671 
L 405.364291 128.949671 
L 405.648027 128.731063 
L 406.2155 128.731063 
L 406.499236 128.512454 
L 406.782973 128.512454 
L 407.066709 128.293845 
L 407.634182 128.293845 
L 407.917918 128.075237 
L 408.201655 128.075237 
L 408.485391 127.856628 
L 409.052864 127.856628 
L 409.3366 127.63802 
L 409.620336 127.63802 
L 409.904073 127.419411 
L 410.471545 127.419411 
L 410.755282 126.982194 
L 411.039018 126.982194 
L 411.322755 126.763585 
L 411.890227 126.763585 
L 412.173964 126.544977 
L 412.4577 126.544977 
L 412.741436 126.326368 
L 413.308909 126.326368 
L 413.592645 126.107759 
L 413.876382 126.107759 
L 414.160118 125.889151 
L 414.727591 125.889151 
L 415.011327 125.670542 
L 415.295064 125.670542 
L 415.5788 125.451933 
L 416.146273 125.451933 
L 416.430009 125.233325 
L 416.713745 125.233325 
L 416.997482 125.014716 
L 417.564955 125.014716 
L 417.848691 124.577499 
L 418.132427 124.577499 
L 418.416164 124.35889 
L 418.983636 124.35889 
L 419.267373 124.140282 
L 419.551109 124.140282 
L 419.834845 123.921673 
L 420.402318 123.921673 
L 420.686055 123.703064 
L 420.969791 123.703064 
L 421.253527 123.484456 
L 421.821 123.484456 
L 422.104736 123.265847 
L 422.388473 123.265847 
L 422.672209 123.047239 
L 423.239682 123.047239 
L 423.523418 122.82863 
L 423.807155 122.82863 
L 424.090891 122.610021 
L 424.374627 122.610021 
L 424.9421 122.172804 
L 425.225836 122.172804 
L 425.509573 121.954195 
L 426.077045 121.954195 
L 426.360782 121.735587 
L 426.644518 121.735587 
L 426.928255 121.516978 
L 427.495727 121.516978 
L 427.779464 121.29837 
L 428.0632 121.29837 
L 428.346936 121.079761 
L 428.914409 121.079761 
L 429.198145 120.861152 
L 429.481882 120.861152 
L 429.765618 120.642544 
L 430.333091 120.642544 
L 430.616827 120.423935 
L 430.900564 120.423935 
L 431.1843 120.205327 
L 431.468036 120.205327 
L 432.035509 119.768109 
L 432.319245 119.768109 
L 432.602982 119.549501 
L 433.170455 119.549501 
L 433.454191 119.330892 
L 433.737927 119.330892 
L 434.021664 119.112283 
L 434.589136 119.112283 
L 434.872873 118.893675 
L 435.156609 118.893675 
L 435.440345 118.675066 
L 436.007818 118.675066 
L 436.291555 118.456458 
L 436.575291 118.456458 
L 436.859027 118.237849 
L 437.4265 118.237849 
L 437.710236 118.01924 
L 437.993973 118.01924 
L 438.277709 117.800632 
L 438.561445 117.800632 
L 439.128918 117.363414 
L 439.412655 117.363414 
L 439.696391 117.144806 
L 440.263864 117.144806 
L 440.5476 116.926197 
L 440.831336 116.926197 
L 441.115073 116.707589 
L 441.682545 116.707589 
L 441.966282 116.48898 
L 442.250018 116.48898 
L 442.533755 116.270371 
L 443.101227 116.270371 
L 443.384964 116.051763 
L 443.6687 116.051763 
L 443.952436 115.833154 
L 444.519909 115.833154 
L 444.803645 115.614545 
L 445.087382 115.614545 
L 445.654855 115.177328 
L 445.938591 115.177328 
L 446.222327 114.95872 
L 446.506064 114.95872 
L 446.7898 114.740111 
L 447.357273 114.740111 
L 447.641009 114.521502 
L 447.924745 114.521502 
L 448.208482 114.302894 
L 448.775955 114.302894 
L 449.059691 114.084285 
L 449.343427 114.084285 
L 449.627164 113.865676 
L 450.194636 113.865676 
L 450.478373 113.647068 
L 450.762109 113.647068 
L 451.045845 113.428459 
L 451.613318 113.428459 
L 451.897055 113.209851 
L 452.180791 113.209851 
L 452.748264 112.772633 
L 453.032 112.772633 
L 453.315736 112.554025 
L 453.599473 112.554025 
L 453.883209 112.335416 
L 454.450682 112.335416 
L 454.734418 112.116808 
L 455.018155 112.116808 
L 455.301891 111.898199 
L 455.869364 111.898199 
L 456.1531 111.67959 
L 456.436836 111.67959 
L 456.720573 111.460982 
L 457.288045 111.460982 
L 457.571782 111.242373 
L 457.855518 111.242373 
L 458.139255 111.023764 
L 458.706727 111.023764 
L 458.990464 110.805156 
L 459.2742 110.805156 
L 459.557936 110.367939 
L 460.125409 110.367939 
L 460.409145 110.14933 
L 460.692882 110.14933 
L 460.976618 109.930721 
L 461.544091 109.930721 
L 461.827827 109.712113 
L 462.111564 109.712113 
L 462.3953 109.493504 
L 462.962773 109.493504 
L 463.246509 109.274895 
L 463.530245 109.274895 
L 463.813982 109.056287 
L 464.381455 109.056287 
L 464.665191 108.837678 
L 464.948927 108.837678 
L 465.232664 108.61907 
L 465.800136 108.61907 
L 466.083873 108.400461 
L 466.367609 108.400461 
L 466.651345 107.963244 
L 467.218818 107.963244 
L 467.502555 107.744635 
L 467.786291 107.744635 
L 468.070027 107.963244 
L 469.204973 107.963244 
L 469.488709 107.526026 
L 470.339918 107.526026 
L 470.623655 107.088809 
L 471.7586 107.088809 
L 472.042336 106.651592 
L 473.177282 106.651592 
L 473.461018 106.214375 
L 474.595964 106.214375 
L 474.8797 105.777157 
L 476.014645 105.777157 
L 476.298382 105.33994 
L 476.865855 105.33994 
L 477.149591 104.902723 
L 477.433327 104.902723 
L 477.717064 104.465506 
L 478.852009 104.465506 
L 479.135745 104.028289 
L 480.270691 104.028289 
L 480.554427 103.591071 
L 481.689373 103.591071 
L 481.973109 103.153854 
L 483.108055 103.153854 
L 483.391791 102.716637 
L 484.526736 102.716637 
L 484.810473 102.27942 
L 485.945418 102.27942 
L 486.229155 101.842202 
L 487.3641 101.842202 
L 487.647836 101.404985 
L 488.782782 101.404985 
L 489.066518 100.967768 
L 490.201464 100.967768 
L 490.4852 100.530551 
L 490.768936 100.530551 
L 491.052673 100.093333 
L 491.620145 100.093333 
L 491.903882 99.656116 
L 493.038827 99.656116 
L 493.322564 99.218899 
L 494.457509 99.218899 
L 494.741245 98.781682 
L 495.876191 98.781682 
L 496.159927 98.344464 
L 497.294873 98.344464 
L 497.578609 97.907247 
L 498.713555 97.907247 
L 498.997291 97.47003 
L 500.132236 97.47003 
L 500.415973 97.032813 
L 501.550918 97.032813 
L 501.834655 96.595595 
L 502.9696 96.595595 
L 503.253336 96.158378 
L 504.388282 96.158378 
L 504.955755 95.283944 
L 505.806964 95.283944 
L 506.0907 94.846726 
L 507.225645 94.846726 
L 507.509382 94.409509 
L 508.644327 94.409509 
L 508.928064 93.972292 
L 510.063009 93.972292 
L 510.346745 93.535075 
L 511.481691 93.535075 
L 511.765427 93.097857 
L 512.900373 93.097857 
L 513.184109 92.66064 
L 514.319055 92.66064 
L 514.602791 92.223423 
L 515.737736 92.223423 
L 516.021473 91.786206 
L 517.156418 91.786206 
L 517.440155 91.348988 
L 518.5751 91.348988 
L 519.142573 90.474554 
L 519.993782 90.474554 
L 520.277518 90.037337 
L 521.412464 90.037337 
L 521.6962 89.60012 
L 522.831145 89.60012 
L 523.114882 89.162902 
L 524.249827 89.162902 
L 524.533564 88.725685 
L 525.668509 88.725685 
L 525.952245 88.288468 
L 527.087191 88.288468 
L 527.370927 87.851251 
L 528.505873 87.851251 
L 528.789609 87.414033 
L 529.924555 87.414033 
L 530.208291 86.976816 
L 531.343236 86.976816 
L 531.626973 86.539599 
L 532.761918 86.539599 
L 533.045655 85.665164 
L 534.1806 85.665164 
L 534.464336 85.227947 
L 535.599282 85.227947 
L 535.883018 84.79073 
L 537.017964 84.79073 
L 537.3017 84.353513 
L 538.436645 84.353513 
L 538.720382 83.916295 
L 539.855327 83.916295 
L 540.139064 83.479078 
L 541.274009 83.479078 
L 541.557745 83.041861 
L 542.408955 83.041861 
L 542.692691 82.604644 
L 543.827636 82.604644 
L 544.111373 82.167426 
L 545.246318 82.167426 
L 545.530055 81.730209 
L 546.665 81.730209 
L 546.948736 80.855775 
L 548.083682 80.855775 
L 548.367418 80.418557 
L 549.502364 80.418557 
L 549.7861 79.98134 
L 550.921045 79.98134 
L 551.204782 79.544123 
L 552.339727 79.544123 
L 552.623464 79.106906 
L 553.758409 79.106906 
L 554.042145 78.669688 
L 555.177091 78.669688 
L 555.460827 78.232471 
L 556.595773 78.232471 
L 556.879509 77.795254 
L 558.014455 77.795254 
L 558.298191 77.358037 
L 559.433136 77.358037 
L 559.716873 76.920819 
L 560.851818 76.920819 
L 561.135555 76.046385 
L 562.2705 76.046385 
L 562.554236 75.609168 
L 563.689182 75.609168 
L 563.972918 75.17195 
L 565.107864 75.17195 
L 565.3916 74.734733 
L 566.526545 74.734733 
L 566.810282 74.297516 
L 567.945227 74.297516 
L 568.228964 73.860299 
L 569.363909 73.860299 
L 569.647645 73.423082 
L 570.782591 73.423082 
L 571.066327 72.985864 
L 572.201273 72.985864 
L 572.485009 72.548647 
L 573.619955 72.548647 
L 573.903691 72.11143 
L 574.7549 72.11143 
L 575.322373 71.236995 
L 576.457318 71.236995 
L 576.741055 70.799778 
L 577.876 70.799778 
L 578.159736 70.362561 
L 579.294682 70.362561 
L 579.578418 69.925344 
L 580.713364 69.925344 
L 580.9971 69.488126 
L 582.132045 69.488126 
L 582.415782 69.050909 
L 583.550727 69.050909 
L 583.834464 68.613692 
L 584.969409 68.613692 
L 585.253145 68.176475 
L 586.388091 68.176475 
L 586.671827 67.739257 
L 587.806773 67.739257 
L 588.090509 67.30204 
L 588.657982 67.30204 
L 588.941718 66.864823 
L 589.225455 66.864823 
L 589.509191 66.427606 
L 590.644136 66.427606 
L 590.927873 65.990388 
L 592.062818 65.990388 
L 592.346555 65.553171 
L 593.4815 65.553171 
L 593.765236 65.115954 
L 594.900182 65.115954 
L 595.183918 64.678737 
L 596.318864 64.678737 
L 596.6026 64.241519 
L 597.737545 64.241519 
L 598.021282 63.804302 
L 599.156227 63.804302 
L 599.439964 63.367085 
L 600.574909 63.367085 
L 600.858645 62.929868 
L 601.993591 62.929868 
L 602.277327 62.49265 
L 602.561064 62.49265 
L 602.8448 62.055433 
L 603.412273 62.055433 
L 603.696009 61.618216 
L 604.830955 61.618216 
L 605.114691 61.180999 
L 606.249636 61.180999 
L 606.533373 60.743781 
L 607.668318 60.743781 
L 607.952055 60.306564 
L 609.087 60.306564 
L 609.370736 59.869347 
L 610.505682 59.869347 
L 610.789418 59.43213 
L 611.924364 59.43213 
L 612.2081 58.994913 
L 613.343045 58.994913 
L 613.626782 58.557695 
L 614.761727 58.557695 
L 615.045464 58.120478 
L 616.180409 58.120478 
L 616.747882 57.246044 
L 617.599091 57.246044 
L 617.882827 56.808826 
L 619.017773 56.808826 
L 619.301509 56.371609 
L 620.436455 56.371609 
L 620.720191 55.934392 
L 621.855136 55.934392 
L 622.138873 55.497175 
L 623.273818 55.497175 
L 623.557555 55.059957 
L 624.6925 55.059957 
L 624.976236 54.62274 
L 626.111182 54.62274 
L 626.394918 54.185523 
L 627.529864 54.185523 
L 627.8136 53.748306 
L 628.948545 53.748306 
L 629.232282 53.311088 
L 630.367227 53.311088 
L 630.650964 52.436654 
L 631.785909 52.436654 
L 632.069645 51.999437 
L 633.204591 51.999437 
L 633.488327 51.562219 
L 634.623273 51.562219 
L 634.907009 51.125002 
L 636.041955 51.125002 
L 636.325691 50.687785 
L 637.460636 50.687785 
L 637.744373 50.250568 
L 638.879318 50.250568 
L 639.163055 49.81335 
L 640.298 49.81335 
L 640.581736 49.376133 
L 641.716682 49.376133 
L 642.000418 48.938916 
L 643.135364 48.938916 
L 643.4191 48.501699 
L 644.554045 48.501699 
L 644.837782 47.627264 
L 645.972727 47.627264 
L 646.256464 47.190047 
L 647.391409 47.190047 
L 647.675145 46.75283 
L 648.810091 46.75283 
L 649.093827 46.315612 
L 650.228773 46.315612 
L 650.512509 45.878395 
L 651.647455 45.878395 
L 651.931191 45.441178 
L 653.066136 45.441178 
L 653.349873 45.003961 
L 654.484818 45.003961 
L 654.768555 44.566743 
L 655.9035 44.566743 
L 656.187236 44.129526 
L 657.322182 44.129526 
L 657.605918 43.692309 
L 658.457127 43.692309 
L 659.0246 42.817875 
L 660.159545 42.817875 
L 660.443282 42.380657 
L 661.578227 42.380657 
L 661.861964 41.94344 
L 662.996909 41.94344 
L 663.280645 41.506223 
L 664.415591 41.506223 
L 664.699327 41.069006 
L 665.834273 41.069006 
L 666.118009 40.631788 
L 667.252955 40.631788 
L 667.536691 40.194571 
L 668.671636 40.194571 
L 668.955373 39.757354 
L 670.090318 39.757354 
L 670.374055 39.320137 
L 671.509 39.320137 
L 671.792736 38.882919 
L 672.360209 38.882919 
L 672.643945 38.445702 
L 672.927682 38.445702 
L 673.211418 38.008485 
L 674.346364 38.008485 
L 674.346364 38.008485 
" style="fill:none;stroke:#1f77b4;stroke-linecap:square;stroke-width:1.5;"/>
   </g>
   <g id="patch_3">
    <path d="M 78.5 168.386667 
L 78.5 31.8 
" style="fill:none;stroke:#000000;stroke-linecap:square;stroke-linejoin:miter;stroke-width:0.8;"/>
   </g>
   <g id="patch_4">
    <path d="M 702.72 168.386667 
L 702.72 31.8 
" style="fill:none;stroke:#000000;stroke-linecap:square;stroke-linejoin:miter;stroke-width:0.8;"/>
   </g>
   <g id="patch_5">
    <path d="M 78.5 168.386667 
L 702.72 168.386667 
" style="fill:none;stroke:#000000;stroke-linecap:square;stroke-linejoin:miter;stroke-width:0.8;"/>
   </g>
   <g id="patch_6">
    <path d="M 78.5 31.8 
L 702.72 31.8 
" style="fill:none;stroke:#000000;stroke-linecap:square;stroke-linejoin:miter;stroke-width:0.8;"/>
   </g>
  </g>
  <g id="axes_2">
   <g id="patch_7">
    <path d="M 78.5 343.653333 
L 702.72 343.653333 
L 702.72 207.066667 
L 78.5 207.066667 
z
" style="fill:#ffffff;"/>
   </g>
   <g id="matplotlib.axis_3">
    <g id="xtick_10">
     <g id="line2d_14">
      <g>
       <use style="stroke:#000000;stroke-width:0.8;" x="106.873636" xlink:href="#m01a9696b6b" y="343.653333"/>
      </g>
     </g>
     <g id="text_15">
      <!-- 0 -->
      <g transform="translate(101.783636 362.810833)scale(0.16 -0.16)">
       <use xlink:href="#DejaVuSans-30"/>
      </g>
     </g>
    </g>
    <g id="xtick_11">
     <g id="line2d_15">
      <g>
       <use style="stroke:#000000;stroke-width:0.8;" x="177.807727" xlink:href="#m01a9696b6b" y="343.653333"/>
      </g>
     </g>
     <g id="text_16">
      <!-- 25 -->
      <g transform="translate(167.627727 362.810833)scale(0.16 -0.16)">
       <use xlink:href="#DejaVuSans-32"/>
       <use x="63.623047" xlink:href="#DejaVuSans-35"/>
      </g>
     </g>
    </g>
    <g id="xtick_12">
     <g id="line2d_16">
      <g>
       <use style="stroke:#000000;stroke-width:0.8;" x="248.741818" xlink:href="#m01a9696b6b" y="343.653333"/>
      </g>
     </g>
     <g id="text_17">
      <!-- 50 -->
      <g transform="translate(238.561818 362.810833)scale(0.16 -0.16)">
       <use xlink:href="#DejaVuSans-35"/>
       <use x="63.623047" xlink:href="#DejaVuSans-30"/>
      </g>
     </g>
    </g>
    <g id="xtick_13">
     <g id="line2d_17">
      <g>
       <use style="stroke:#000000;stroke-width:0.8;" x="319.675909" xlink:href="#m01a9696b6b" y="343.653333"/>
      </g>
     </g>
     <g id="text_18">
      <!-- 75 -->
      <g transform="translate(309.495909 362.810833)scale(0.16 -0.16)">
       <use xlink:href="#DejaVuSans-37"/>
       <use x="63.623047" xlink:href="#DejaVuSans-35"/>
      </g>
     </g>
    </g>
    <g id="xtick_14">
     <g id="line2d_18">
      <g>
       <use style="stroke:#000000;stroke-width:0.8;" x="390.61" xlink:href="#m01a9696b6b" y="343.653333"/>
      </g>
     </g>
     <g id="text_19">
      <!-- 100 -->
      <g transform="translate(375.34 362.810833)scale(0.16 -0.16)">
       <use xlink:href="#DejaVuSans-31"/>
       <use x="63.623047" xlink:href="#DejaVuSans-30"/>
       <use x="127.246094" xlink:href="#DejaVuSans-30"/>
      </g>
     </g>
    </g>
    <g id="xtick_15">
     <g id="line2d_19">
      <g>
       <use style="stroke:#000000;stroke-width:0.8;" x="461.544091" xlink:href="#m01a9696b6b" y="343.653333"/>
      </g>
     </g>
     <g id="text_20">
      <!-- 125 -->
      <g transform="translate(446.274091 362.810833)scale(0.16 -0.16)">
       <use xlink:href="#DejaVuSans-31"/>
       <use x="63.623047" xlink:href="#DejaVuSans-32"/>
       <use x="127.246094" xlink:href="#DejaVuSans-35"/>
      </g>
     </g>
    </g>
    <g id="xtick_16">
     <g id="line2d_20">
      <g>
       <use style="stroke:#000000;stroke-width:0.8;" x="532.478182" xlink:href="#m01a9696b6b" y="343.653333"/>
      </g>
     </g>
     <g id="text_21">
      <!-- 150 -->
      <g transform="translate(517.208182 362.810833)scale(0.16 -0.16)">
       <use xlink:href="#DejaVuSans-31"/>
       <use x="63.623047" xlink:href="#DejaVuSans-35"/>
       <use x="127.246094" xlink:href="#DejaVuSans-30"/>
      </g>
     </g>
    </g>
    <g id="xtick_17">
     <g id="line2d_21">
      <g>
       <use style="stroke:#000000;stroke-width:0.8;" x="603.412273" xlink:href="#m01a9696b6b" y="343.653333"/>
      </g>
     </g>
     <g id="text_22">
      <!-- 175 -->
      <g transform="translate(588.142273 362.810833)scale(0.16 -0.16)">
       <use xlink:href="#DejaVuSans-31"/>
       <use x="63.623047" xlink:href="#DejaVuSans-37"/>
       <use x="127.246094" xlink:href="#DejaVuSans-35"/>
      </g>
     </g>
    </g>
    <g id="xtick_18">
     <g id="line2d_22">
      <g>
       <use style="stroke:#000000;stroke-width:0.8;" x="674.346364" xlink:href="#m01a9696b6b" y="343.653333"/>
      </g>
     </g>
     <g id="text_23">
      <!-- 200 -->
      <g transform="translate(659.076364 362.810833)scale(0.16 -0.16)">
       <use xlink:href="#DejaVuSans-32"/>
       <use x="63.623047" xlink:href="#DejaVuSans-30"/>
       <use x="127.246094" xlink:href="#DejaVuSans-30"/>
      </g>
     </g>
    </g>
   </g>
   <g id="matplotlib.axis_4">
    <g id="ytick_4">
     <g id="line2d_23">
      <g>
       <use style="stroke:#000000;stroke-width:0.8;" x="78.5" xlink:href="#m1d4f53b861" y="337.444848"/>
      </g>
     </g>
     <g id="text_24">
      <!-- 0.00 -->
      <g transform="translate(35.875 343.523598)scale(0.16 -0.16)">
       <defs>
        <path d="M 684 794 
L 1344 794 
L 1344 0 
L 684 0 
L 684 794 
z
" id="DejaVuSans-2e" transform="scale(0.015625)"/>
       </defs>
       <use xlink:href="#DejaVuSans-30"/>
       <use x="63.623047" xlink:href="#DejaVuSans-2e"/>
       <use x="95.410156" xlink:href="#DejaVuSans-30"/>
       <use x="159.033203" xlink:href="#DejaVuSans-30"/>
      </g>
     </g>
    </g>
    <g id="ytick_5">
     <g id="line2d_24">
      <g>
       <use style="stroke:#000000;stroke-width:0.8;" x="78.5" xlink:href="#m1d4f53b861" y="287.120766"/>
      </g>
     </g>
     <g id="text_25">
      <!-- 0.02 -->
      <g transform="translate(35.875 293.199516)scale(0.16 -0.16)">
       <use xlink:href="#DejaVuSans-30"/>
       <use x="63.623047" xlink:href="#DejaVuSans-2e"/>
       <use x="95.410156" xlink:href="#DejaVuSans-30"/>
       <use x="159.033203" xlink:href="#DejaVuSans-32"/>
      </g>
     </g>
    </g>
    <g id="ytick_6">
     <g id="line2d_25">
      <g>
       <use style="stroke:#000000;stroke-width:0.8;" x="78.5" xlink:href="#m1d4f53b861" y="236.796683"/>
      </g>
     </g>
     <g id="text_26">
      <!-- 0.04 -->
      <g transform="translate(35.875 242.875433)scale(0.16 -0.16)">
       <defs>
        <path d="M 2419 4116 
L 825 1625 
L 2419 1625 
L 2419 4116 
z
M 2253 4666 
L 3047 4666 
L 3047 1625 
L 3713 1625 
L 3713 1100 
L 3047 1100 
L 3047 0 
L 2419 0 
L 2419 1100 
L 313 1100 
L 313 1709 
L 2253 4666 
z
" id="DejaVuSans-34" transform="scale(0.015625)"/>
       </defs>
       <use xlink:href="#DejaVuSans-30"/>
       <use x="63.623047" xlink:href="#DejaVuSans-2e"/>
       <use x="95.410156" xlink:href="#DejaVuSans-30"/>
       <use x="159.033203" xlink:href="#DejaVuSans-34"/>
      </g>
     </g>
    </g>
    <g id="text_27">
     <!-- velocity [m/s] -->
     <g transform="translate(28.5475 330.0675)rotate(-90)scale(0.16 -0.16)">
      <defs>
       <path d="M 191 3500 
L 800 3500 
L 1894 563 
L 2988 3500 
L 3597 3500 
L 2284 0 
L 1503 0 
L 191 3500 
z
" id="DejaVuSans-76" transform="scale(0.015625)"/>
       <path d="M 603 4863 
L 1178 4863 
L 1178 0 
L 603 0 
L 603 4863 
z
" id="DejaVuSans-6c" transform="scale(0.015625)"/>
       <path d="M 1959 3097 
Q 1497 3097 1228 2736 
Q 959 2375 959 1747 
Q 959 1119 1226 758 
Q 1494 397 1959 397 
Q 2419 397 2687 759 
Q 2956 1122 2956 1747 
Q 2956 2369 2687 2733 
Q 2419 3097 1959 3097 
z
M 1959 3584 
Q 2709 3584 3137 3096 
Q 3566 2609 3566 1747 
Q 3566 888 3137 398 
Q 2709 -91 1959 -91 
Q 1206 -91 779 398 
Q 353 888 353 1747 
Q 353 2609 779 3096 
Q 1206 3584 1959 3584 
z
" id="DejaVuSans-6f" transform="scale(0.015625)"/>
       <path d="M 3122 3366 
L 3122 2828 
Q 2878 2963 2633 3030 
Q 2388 3097 2138 3097 
Q 1578 3097 1268 2742 
Q 959 2388 959 1747 
Q 959 1106 1268 751 
Q 1578 397 2138 397 
Q 2388 397 2633 464 
Q 2878 531 3122 666 
L 3122 134 
Q 2881 22 2623 -34 
Q 2366 -91 2075 -91 
Q 1284 -91 818 406 
Q 353 903 353 1747 
Q 353 2603 823 3093 
Q 1294 3584 2113 3584 
Q 2378 3584 2631 3529 
Q 2884 3475 3122 3366 
z
" id="DejaVuSans-63" transform="scale(0.015625)"/>
       <path d="M 2059 -325 
Q 1816 -950 1584 -1140 
Q 1353 -1331 966 -1331 
L 506 -1331 
L 506 -850 
L 844 -850 
Q 1081 -850 1212 -737 
Q 1344 -625 1503 -206 
L 1606 56 
L 191 3500 
L 800 3500 
L 1894 763 
L 2988 3500 
L 3597 3500 
L 2059 -325 
z
" id="DejaVuSans-79" transform="scale(0.015625)"/>
       <path d="M 1625 4666 
L 2156 4666 
L 531 -594 
L 0 -594 
L 1625 4666 
z
" id="DejaVuSans-2f" transform="scale(0.015625)"/>
       <path d="M 2834 3397 
L 2834 2853 
Q 2591 2978 2328 3040 
Q 2066 3103 1784 3103 
Q 1356 3103 1142 2972 
Q 928 2841 928 2578 
Q 928 2378 1081 2264 
Q 1234 2150 1697 2047 
L 1894 2003 
Q 2506 1872 2764 1633 
Q 3022 1394 3022 966 
Q 3022 478 2636 193 
Q 2250 -91 1575 -91 
Q 1294 -91 989 -36 
Q 684 19 347 128 
L 347 722 
Q 666 556 975 473 
Q 1284 391 1588 391 
Q 1994 391 2212 530 
Q 2431 669 2431 922 
Q 2431 1156 2273 1281 
Q 2116 1406 1581 1522 
L 1381 1569 
Q 847 1681 609 1914 
Q 372 2147 372 2553 
Q 372 3047 722 3315 
Q 1072 3584 1716 3584 
Q 2034 3584 2315 3537 
Q 2597 3491 2834 3397 
z
" id="DejaVuSans-73" transform="scale(0.015625)"/>
      </defs>
      <use xlink:href="#DejaVuSans-76"/>
      <use x="59.179688" xlink:href="#DejaVuSans-65"/>
      <use x="120.703125" xlink:href="#DejaVuSans-6c"/>
      <use x="148.486328" xlink:href="#DejaVuSans-6f"/>
      <use x="209.667969" xlink:href="#DejaVuSans-63"/>
      <use x="264.648438" xlink:href="#DejaVuSans-69"/>
      <use x="292.431641" xlink:href="#DejaVuSans-74"/>
      <use x="331.640625" xlink:href="#DejaVuSans-79"/>
      <use x="390.820312" xlink:href="#DejaVuSans-20"/>
      <use x="422.607422" xlink:href="#DejaVuSans-5b"/>
      <use x="461.621094" xlink:href="#DejaVuSans-6d"/>
      <use x="559.033203" xlink:href="#DejaVuSans-2f"/>
      <use x="592.724609" xlink:href="#DejaVuSans-73"/>
      <use x="644.824219" xlink:href="#DejaVuSans-5d"/>
     </g>
    </g>
   </g>
   <g id="line2d_26">
    <path clip-path="url(#p79270862cf)" d="M 106.873636 337.444848 
L 127.870127 323.14203 
L 139.219582 315.684041 
L 148.582882 309.784926 
L 157.094973 304.678537 
L 165.039591 300.174362 
L 172.416736 296.24949 
L 179.226409 292.869971 
L 185.752345 289.868876 
L 192.278282 287.116237 
L 198.520482 284.729027 
L 204.478945 282.685137 
L 210.437409 280.879644 
L 216.112136 279.388965 
L 221.786864 278.127533 
L 227.461591 277.100328 
L 232.852582 276.345139 
L 238.243573 275.807695 
L 243.634564 275.48991 
L 249.025555 275.392916 
L 254.416545 275.517059 
L 259.807536 275.861896 
L 265.198527 276.4262 
L 270.589518 277.20796 
L 276.264245 278.262718 
L 281.938973 279.551169 
L 287.6137 281.068229 
L 293.288427 282.807909 
L 299.246891 284.866645 
L 305.489091 287.268766 
L 311.731291 289.910632 
L 318.257227 292.915216 
L 325.0669 296.298123 
L 332.160309 300.070501 
L 339.821191 304.402978 
L 348.049545 309.320389 
L 357.129109 315.015844 
L 367.343618 321.691389 
L 380.395491 330.502984 
L 390.61 337.379833 
L 411.606491 323.077015 
L 422.955945 315.619026 
L 432.319245 309.719911 
L 440.831336 304.613522 
L 448.775955 300.109346 
L 456.1531 296.184475 
L 462.962773 292.804956 
L 469.488709 289.803861 
L 476.014645 287.051222 
L 482.256845 284.664012 
L 488.215309 282.620122 
L 494.173773 280.814629 
L 499.8485 279.323949 
L 505.523227 278.062518 
L 511.197955 277.035313 
L 516.588945 276.280124 
L 521.979936 275.74268 
L 527.370927 275.424895 
L 532.761918 275.327901 
L 538.152909 275.452044 
L 543.5439 275.796881 
L 548.934891 276.361185 
L 554.325882 277.142945 
L 560.000609 278.197703 
L 565.675336 279.486154 
L 571.350064 281.003214 
L 577.024791 282.742894 
L 582.983255 284.80163 
L 589.225455 287.203751 
L 595.467655 289.845617 
L 601.993591 292.850201 
L 608.803264 296.233108 
L 615.896673 300.005486 
L 623.557555 304.337963 
L 631.785909 309.255374 
L 640.865473 314.950829 
L 651.079982 321.626374 
L 664.131855 330.437969 
L 674.346364 337.444848 
L 674.346364 337.444848 
" style="fill:none;stroke:#1f77b4;stroke-linecap:square;stroke-width:1.5;"/>
   </g>
   <g id="line2d_27">
    <path clip-path="url(#p79270862cf)" d="M 106.873636 213.275152 
L 112.264627 213.38766 
L 117.655618 213.720905 
L 123.046609 214.273702 
L 128.4376 215.044079 
L 134.112327 216.087036 
L 139.787055 217.363915 
L 145.461782 218.869679 
L 151.136509 220.598384 
L 157.094973 222.645989 
L 163.053436 224.922948 
L 169.295636 227.543523 
L 175.821573 230.527126 
L 182.631245 233.889647 
L 189.724655 237.64255 
L 197.385536 241.956149 
L 205.613891 246.855925 
L 214.693455 252.535268 
L 224.907964 259.197077 
L 237.6761 267.804514 
L 276.547982 294.204878 
L 286.762491 300.760585 
L 295.558318 306.148713 
L 303.502936 310.765972 
L 310.880082 314.809004 
L 317.973491 318.448776 
L 324.783164 321.693293 
L 331.3091 324.5558 
L 337.5513 327.0538 
L 343.509764 329.208148 
L 349.468227 331.128207 
L 355.142955 332.731361 
L 360.817682 334.108096 
L 366.492409 335.252979 
L 371.8834 336.121739 
L 377.274391 336.774074 
L 382.665382 337.20766 
L 388.056373 337.420953 
L 393.447364 337.413192 
L 398.838355 337.184407 
L 404.229345 336.73541 
L 409.620336 336.067803 
L 415.011327 335.183962 
L 420.686055 334.023472 
L 426.360782 332.631463 
L 432.035509 331.01343 
L 437.993973 329.078236 
L 443.952436 326.909318 
L 450.194636 324.39673 
L 456.720573 321.519786 
L 463.246509 318.401945 
L 470.339918 314.758779 
L 477.717064 310.712546 
L 485.661682 306.092239 
L 494.173773 300.879179 
L 503.820809 294.699793 
L 515.170264 287.153161 
L 531.910709 275.717581 
L 553.474673 261.024674 
L 564.824127 253.566685 
L 574.187427 247.66757 
L 582.699518 242.561181 
L 590.644136 238.057005 
L 598.021282 234.132134 
L 604.830955 230.752615 
L 611.356891 227.75152 
L 617.882827 224.998881 
L 624.125027 222.611671 
L 630.083491 220.567781 
L 636.041955 218.762288 
L 641.716682 217.271608 
L 647.391409 216.010177 
L 653.066136 214.982972 
L 658.457127 214.227783 
L 663.848118 213.690339 
L 669.239109 213.372554 
L 674.346364 213.275152 
L 674.346364 213.275152 
" style="fill:none;stroke:#ff7f0e;stroke-linecap:square;stroke-width:1.5;"/>
   </g>
   <g id="patch_8">
    <path d="M 78.5 343.653333 
L 78.5 207.066667 
" style="fill:none;stroke:#000000;stroke-linecap:square;stroke-linejoin:miter;stroke-width:0.8;"/>
   </g>
   <g id="patch_9">
    <path d="M 702.72 343.653333 
L 702.72 207.066667 
" style="fill:none;stroke:#000000;stroke-linecap:square;stroke-linejoin:miter;stroke-width:0.8;"/>
   </g>
   <g id="patch_10">
    <path d="M 78.5 343.653333 
L 702.72 343.653333 
" style="fill:none;stroke:#000000;stroke-linecap:square;stroke-linejoin:miter;stroke-width:0.8;"/>
   </g>
   <g id="patch_11">
    <path d="M 78.5 207.066667 
L 702.72 207.066667 
" style="fill:none;stroke:#000000;stroke-linecap:square;stroke-linejoin:miter;stroke-width:0.8;"/>
   </g>
   <g id="legend_1">
    <g id="patch_12">
     <path d="M 343.145 267.726667 
L 438.075 267.726667 
Q 441.275 267.726667 441.275 264.526667 
L 441.275 218.266667 
Q 441.275 215.066667 438.075 215.066667 
L 343.145 215.066667 
Q 339.945 215.066667 339.945 218.266667 
L 339.945 264.526667 
Q 339.945 267.726667 343.145 267.726667 
z
" style="fill:#ffffff;opacity:0.8;stroke:#cccccc;stroke-linejoin:miter;"/>
    </g>
    <g id="line2d_28">
     <path d="M 346.345 228.024167 
L 378.345 228.024167 
" style="fill:none;stroke:#1f77b4;stroke-linecap:square;stroke-width:1.5;"/>
    </g>
    <g id="line2d_29"/>
    <g id="text_28">
     <!-- vel_E -->
     <g transform="translate(391.145 233.624167)scale(0.16 -0.16)">
      <defs>
       <path d="M 3263 -1063 
L 3263 -1509 
L -63 -1509 
L -63 -1063 
L 3263 -1063 
z
" id="DejaVuSans-5f" transform="scale(0.015625)"/>
       <path d="M 628 4666 
L 3578 4666 
L 3578 4134 
L 1259 4134 
L 1259 2753 
L 3481 2753 
L 3481 2222 
L 1259 2222 
L 1259 531 
L 3634 531 
L 3634 0 
L 628 0 
L 628 4666 
z
" id="DejaVuSans-45" transform="scale(0.015625)"/>
      </defs>
      <use xlink:href="#DejaVuSans-76"/>
      <use x="59.179688" xlink:href="#DejaVuSans-65"/>
      <use x="120.703125" xlink:href="#DejaVuSans-6c"/>
      <use x="148.486328" xlink:href="#DejaVuSans-5f"/>
      <use x="198.486328" xlink:href="#DejaVuSans-45"/>
     </g>
    </g>
    <g id="line2d_30">
     <path d="M 346.345 251.954167 
L 378.345 251.954167 
" style="fill:none;stroke:#ff7f0e;stroke-linecap:square;stroke-width:1.5;"/>
    </g>
    <g id="line2d_31"/>
    <g id="text_29">
     <!-- vel_N -->
     <g transform="translate(391.145 257.554167)scale(0.16 -0.16)">
      <defs>
       <path d="M 628 4666 
L 1478 4666 
L 3547 763 
L 3547 4666 
L 4159 4666 
L 4159 0 
L 3309 0 
L 1241 3903 
L 1241 0 
L 628 0 
L 628 4666 
z
" id="DejaVuSans-4e" transform="scale(0.015625)"/>
      </defs>
      <use xlink:href="#DejaVuSans-76"/>
      <use x="59.179688" xlink:href="#DejaVuSans-65"/>
      <use x="120.703125" xlink:href="#DejaVuSans-6c"/>
      <use x="148.486328" xlink:href="#DejaVuSans-5f"/>
      <use x="198.486328" xlink:href="#DejaVuSans-4e"/>
     </g>
    </g>
   </g>
  </g>
  <g id="axes_3">
   <g id="patch_13">
    <path d="M 78.5 518.92 
L 702.72 518.92 
L 702.72 382.333333 
L 78.5 382.333333 
z
" style="fill:#ffffff;"/>
   </g>
   <g id="matplotlib.axis_5">
    <g id="xtick_19">
     <g id="line2d_32">
      <g>
       <use style="stroke:#000000;stroke-width:0.8;" x="106.873636" xlink:href="#m01a9696b6b" y="518.92"/>
      </g>
     </g>
     <g id="text_30">
      <!-- 0 -->
      <g transform="translate(101.783636 538.0775)scale(0.16 -0.16)">
       <use xlink:href="#DejaVuSans-30"/>
      </g>
     </g>
    </g>
    <g id="xtick_20">
     <g id="line2d_33">
      <g>
       <use style="stroke:#000000;stroke-width:0.8;" x="177.807727" xlink:href="#m01a9696b6b" y="518.92"/>
      </g>
     </g>
     <g id="text_31">
      <!-- 25 -->
      <g transform="translate(167.627727 538.0775)scale(0.16 -0.16)">
       <use xlink:href="#DejaVuSans-32"/>
       <use x="63.623047" xlink:href="#DejaVuSans-35"/>
      </g>
     </g>
    </g>
    <g id="xtick_21">
     <g id="line2d_34">
      <g>
       <use style="stroke:#000000;stroke-width:0.8;" x="248.741818" xlink:href="#m01a9696b6b" y="518.92"/>
      </g>
     </g>
     <g id="text_32">
      <!-- 50 -->
      <g transform="translate(238.561818 538.0775)scale(0.16 -0.16)">
       <use xlink:href="#DejaVuSans-35"/>
       <use x="63.623047" xlink:href="#DejaVuSans-30"/>
      </g>
     </g>
    </g>
    <g id="xtick_22">
     <g id="line2d_35">
      <g>
       <use style="stroke:#000000;stroke-width:0.8;" x="319.675909" xlink:href="#m01a9696b6b" y="518.92"/>
      </g>
     </g>
     <g id="text_33">
      <!-- 75 -->
      <g transform="translate(309.495909 538.0775)scale(0.16 -0.16)">
       <use xlink:href="#DejaVuSans-37"/>
       <use x="63.623047" xlink:href="#DejaVuSans-35"/>
      </g>
     </g>
    </g>
    <g id="xtick_23">
     <g id="line2d_36">
      <g>
       <use style="stroke:#000000;stroke-width:0.8;" x="390.61" xlink:href="#m01a9696b6b" y="518.92"/>
      </g>
     </g>
     <g id="text_34">
      <!-- 100 -->
      <g transform="translate(375.34 538.0775)scale(0.16 -0.16)">
       <use xlink:href="#DejaVuSans-31"/>
       <use x="63.623047" xlink:href="#DejaVuSans-30"/>
       <use x="127.246094" xlink:href="#DejaVuSans-30"/>
      </g>
     </g>
    </g>
    <g id="xtick_24">
     <g id="line2d_37">
      <g>
       <use style="stroke:#000000;stroke-width:0.8;" x="461.544091" xlink:href="#m01a9696b6b" y="518.92"/>
      </g>
     </g>
     <g id="text_35">
      <!-- 125 -->
      <g transform="translate(446.274091 538.0775)scale(0.16 -0.16)">
       <use xlink:href="#DejaVuSans-31"/>
       <use x="63.623047" xlink:href="#DejaVuSans-32"/>
       <use x="127.246094" xlink:href="#DejaVuSans-35"/>
      </g>
     </g>
    </g>
    <g id="xtick_25">
     <g id="line2d_38">
      <g>
       <use style="stroke:#000000;stroke-width:0.8;" x="532.478182" xlink:href="#m01a9696b6b" y="518.92"/>
      </g>
     </g>
     <g id="text_36">
      <!-- 150 -->
      <g transform="translate(517.208182 538.0775)scale(0.16 -0.16)">
       <use xlink:href="#DejaVuSans-31"/>
       <use x="63.623047" xlink:href="#DejaVuSans-35"/>
       <use x="127.246094" xlink:href="#DejaVuSans-30"/>
      </g>
     </g>
    </g>
    <g id="xtick_26">
     <g id="line2d_39">
      <g>
       <use style="stroke:#000000;stroke-width:0.8;" x="603.412273" xlink:href="#m01a9696b6b" y="518.92"/>
      </g>
     </g>
     <g id="text_37">
      <!-- 175 -->
      <g transform="translate(588.142273 538.0775)scale(0.16 -0.16)">
       <use xlink:href="#DejaVuSans-31"/>
       <use x="63.623047" xlink:href="#DejaVuSans-37"/>
       <use x="127.246094" xlink:href="#DejaVuSans-35"/>
      </g>
     </g>
    </g>
    <g id="xtick_27">
     <g id="line2d_40">
      <g>
       <use style="stroke:#000000;stroke-width:0.8;" x="674.346364" xlink:href="#m01a9696b6b" y="518.92"/>
      </g>
     </g>
     <g id="text_38">
      <!-- 200 -->
      <g transform="translate(659.076364 538.0775)scale(0.16 -0.16)">
       <use xlink:href="#DejaVuSans-32"/>
       <use x="63.623047" xlink:href="#DejaVuSans-30"/>
       <use x="127.246094" xlink:href="#DejaVuSans-30"/>
      </g>
     </g>
    </g>
    <g id="text_39">
     <!-- steps [-] -->
     <g transform="translate(357.46625 557.5625)scale(0.16 -0.16)">
      <defs>
       <path d="M 1159 525 
L 1159 -1331 
L 581 -1331 
L 581 3500 
L 1159 3500 
L 1159 2969 
Q 1341 3281 1617 3432 
Q 1894 3584 2278 3584 
Q 2916 3584 3314 3078 
Q 3713 2572 3713 1747 
Q 3713 922 3314 415 
Q 2916 -91 2278 -91 
Q 1894 -91 1617 61 
Q 1341 213 1159 525 
z
M 3116 1747 
Q 3116 2381 2855 2742 
Q 2594 3103 2138 3103 
Q 1681 3103 1420 2742 
Q 1159 2381 1159 1747 
Q 1159 1113 1420 752 
Q 1681 391 2138 391 
Q 2594 391 2855 752 
Q 3116 1113 3116 1747 
z
" id="DejaVuSans-70" transform="scale(0.015625)"/>
       <path d="M 313 2009 
L 1997 2009 
L 1997 1497 
L 313 1497 
L 313 2009 
z
" id="DejaVuSans-2d" transform="scale(0.015625)"/>
      </defs>
      <use xlink:href="#DejaVuSans-73"/>
      <use x="52.099609" xlink:href="#DejaVuSans-74"/>
      <use x="91.308594" xlink:href="#DejaVuSans-65"/>
      <use x="152.832031" xlink:href="#DejaVuSans-70"/>
      <use x="216.308594" xlink:href="#DejaVuSans-73"/>
      <use x="268.408203" xlink:href="#DejaVuSans-20"/>
      <use x="300.195312" xlink:href="#DejaVuSans-5b"/>
      <use x="339.208984" xlink:href="#DejaVuSans-2d"/>
      <use x="375.292969" xlink:href="#DejaVuSans-5d"/>
     </g>
    </g>
   </g>
   <g id="matplotlib.axis_6">
    <g id="ytick_7">
     <g id="line2d_41">
      <g>
       <use style="stroke:#000000;stroke-width:0.8;" x="78.5" xlink:href="#m1d4f53b861" y="512.735167"/>
      </g>
     </g>
     <g id="text_40">
      <!-- 0 -->
      <g transform="translate(61.32 518.813917)scale(0.16 -0.16)">
       <use xlink:href="#DejaVuSans-30"/>
      </g>
     </g>
    </g>
    <g id="ytick_8">
     <g id="line2d_42">
      <g>
       <use style="stroke:#000000;stroke-width:0.8;" x="78.5" xlink:href="#m1d4f53b861" y="462.451782"/>
      </g>
     </g>
     <g id="text_41">
      <!-- 2 -->
      <g transform="translate(61.32 468.530532)scale(0.16 -0.16)">
       <use xlink:href="#DejaVuSans-32"/>
      </g>
     </g>
    </g>
    <g id="ytick_9">
     <g id="line2d_43">
      <g>
       <use style="stroke:#000000;stroke-width:0.8;" x="78.5" xlink:href="#m1d4f53b861" y="412.168397"/>
      </g>
     </g>
     <g id="text_42">
      <!-- 4 -->
      <g transform="translate(61.32 418.247147)scale(0.16 -0.16)">
       <use xlink:href="#DejaVuSans-34"/>
      </g>
     </g>
    </g>
    <g id="text_43">
     <!-- Position [m] -->
     <g transform="translate(53.9925 498.346667)rotate(-90)scale(0.16 -0.16)">
      <defs>
       <path d="M 1259 4147 
L 1259 2394 
L 2053 2394 
Q 2494 2394 2734 2622 
Q 2975 2850 2975 3272 
Q 2975 3691 2734 3919 
Q 2494 4147 2053 4147 
L 1259 4147 
z
M 628 4666 
L 2053 4666 
Q 2838 4666 3239 4311 
Q 3641 3956 3641 3272 
Q 3641 2581 3239 2228 
Q 2838 1875 2053 1875 
L 1259 1875 
L 1259 0 
L 628 0 
L 628 4666 
z
" id="DejaVuSans-50" transform="scale(0.015625)"/>
       <path d="M 3513 2113 
L 3513 0 
L 2938 0 
L 2938 2094 
Q 2938 2591 2744 2837 
Q 2550 3084 2163 3084 
Q 1697 3084 1428 2787 
Q 1159 2491 1159 1978 
L 1159 0 
L 581 0 
L 581 3500 
L 1159 3500 
L 1159 2956 
Q 1366 3272 1645 3428 
Q 1925 3584 2291 3584 
Q 2894 3584 3203 3211 
Q 3513 2838 3513 2113 
z
" id="DejaVuSans-6e" transform="scale(0.015625)"/>
      </defs>
      <use xlink:href="#DejaVuSans-50"/>
      <use x="56.677734" xlink:href="#DejaVuSans-6f"/>
      <use x="117.859375" xlink:href="#DejaVuSans-73"/>
      <use x="169.958984" xlink:href="#DejaVuSans-69"/>
      <use x="197.742188" xlink:href="#DejaVuSans-74"/>
      <use x="236.951172" xlink:href="#DejaVuSans-69"/>
      <use x="264.734375" xlink:href="#DejaVuSans-6f"/>
      <use x="325.916016" xlink:href="#DejaVuSans-6e"/>
      <use x="389.294922" xlink:href="#DejaVuSans-20"/>
      <use x="421.082031" xlink:href="#DejaVuSans-5b"/>
      <use x="460.095703" xlink:href="#DejaVuSans-6d"/>
      <use x="557.507812" xlink:href="#DejaVuSans-5d"/>
     </g>
    </g>
   </g>
   <g id="line2d_44">
    <path clip-path="url(#p0554ec9fd2)" d="M 106.873636 473.242689 
L 113.683309 473.358005 
L 120.492982 473.697066 
L 127.302655 474.25794 
L 134.112327 475.037436 
L 141.205736 476.077092 
L 148.299145 477.342733 
L 155.676291 478.890317 
L 163.053436 480.663545 
L 170.714318 482.731108 
L 178.658936 485.102864 
L 187.171027 487.880555 
L 196.250591 491.085857 
L 205.897627 494.730133 
L 216.679609 499.043844 
L 229.447745 504.398944 
L 248.174345 512.522517 
L 248.741818 512.699745 
L 272.291936 502.522744 
L 285.060073 497.251722 
L 295.842055 493.03746 
L 305.489091 489.503037 
L 314.284918 486.510514 
L 322.797009 483.851105 
L 330.741627 481.600057 
L 338.402509 479.657427 
L 345.779655 478.011578 
L 353.1568 476.597452 
L 360.250209 475.465042 
L 367.343618 474.562593 
L 374.153291 473.917773 
L 380.962964 473.493695 
L 387.772636 473.292773 
L 394.582309 473.316154 
L 401.391982 473.563709 
L 408.201655 474.034036 
L 415.011327 474.724467 
L 422.104736 475.673478 
L 429.198145 476.851209 
L 436.291555 478.250404 
L 443.6687 479.931215 
L 451.329582 481.9083 
L 459.2742 484.192841 
L 467.502555 486.791739 
L 476.298382 489.807631 
L 485.661682 493.256592 
L 495.876191 497.25684 
L 507.793118 502.170744 
L 523.114882 508.747315 
L 532.194445 512.711515 
L 533.045655 512.386516 
L 556.0283 502.452324 
L 568.796436 497.17838 
L 579.578418 492.961649 
L 589.225455 489.425017 
L 598.021282 486.43048 
L 606.533373 483.769123 
L 614.477991 481.516256 
L 622.138873 479.571872 
L 629.516018 477.924333 
L 636.893164 476.508519 
L 643.986573 475.374484 
L 651.079982 474.470411 
L 657.889655 473.824032 
L 664.699327 473.398395 
L 671.509 473.195914 
L 674.346364 473.177726 
L 674.346364 473.177726 
" style="fill:none;stroke:#1f77b4;stroke-linecap:square;stroke-width:1.5;"/>
   </g>
   <g id="line2d_45">
    <path clip-path="url(#p0554ec9fd2)" d="M 106.873636 512.611098 
L 131.274964 496.737382 
L 144.326836 488.515146 
L 155.392555 481.800474 
L 165.323327 476.031253 
L 174.402891 471.007621 
L 182.914982 466.54404 
L 191.143336 462.477861 
L 199.087955 458.801679 
L 206.748836 455.503437 
L 214.125982 452.56729 
L 221.503127 449.875507 
L 228.596536 447.524413 
L 235.689945 445.410841 
L 242.499618 443.608508 
L 249.309291 442.030063 
L 256.118964 440.676015 
L 262.928636 439.5456 
L 269.738309 438.63678 
L 276.547982 437.946259 
L 283.641391 437.454195 
L 290.7348 437.187542 
L 297.828209 437.138382 
L 305.205355 437.308006 
L 312.866236 437.709775 
L 320.810855 438.353426 
L 329.039209 439.244283 
L 337.835036 440.42387 
L 347.198336 441.905258 
L 357.696582 443.796896 
L 369.897245 446.229158 
L 386.921427 449.873805 
L 414.160118 455.710671 
L 426.644518 458.139444 
L 437.142764 459.958465 
L 446.506064 461.360365 
L 455.301891 462.453424 
L 463.530245 463.253678 
L 471.474864 463.801709 
L 479.135745 464.104397 
L 486.512891 464.172904 
L 493.6063 464.02187 
L 500.699709 463.649426 
L 507.793118 463.048304 
L 514.602791 462.25064 
L 521.412464 461.232895 
L 528.222136 459.992393 
L 535.031809 458.527721 
L 541.841482 456.838744 
L 548.651155 454.926598 
L 555.744564 452.700076 
L 562.837973 450.238186 
L 569.931382 447.546545 
L 577.308527 444.511093 
L 584.969409 441.11412 
L 592.914027 437.34103 
L 601.142382 433.181151 
L 609.654473 428.628597 
L 618.734036 423.519861 
L 628.664809 417.670127 
L 639.730527 410.882359 
L 652.498664 402.780418 
L 670.374055 391.146762 
L 674.346364 388.541818 
L 674.346364 388.541818 
" style="fill:none;stroke:#ff7f0e;stroke-linecap:square;stroke-width:1.5;"/>
   </g>
   <g id="patch_14">
    <path d="M 78.5 518.92 
L 78.5 382.333333 
" style="fill:none;stroke:#000000;stroke-linecap:square;stroke-linejoin:miter;stroke-width:0.8;"/>
   </g>
   <g id="patch_15">
    <path d="M 702.72 518.92 
L 702.72 382.333333 
" style="fill:none;stroke:#000000;stroke-linecap:square;stroke-linejoin:miter;stroke-width:0.8;"/>
   </g>
   <g id="patch_16">
    <path d="M 78.5 518.92 
L 702.72 518.92 
" style="fill:none;stroke:#000000;stroke-linecap:square;stroke-linejoin:miter;stroke-width:0.8;"/>
   </g>
   <g id="patch_17">
    <path d="M 78.5 382.333333 
L 702.72 382.333333 
" style="fill:none;stroke:#000000;stroke-linecap:square;stroke-linejoin:miter;stroke-width:0.8;"/>
   </g>
   <g id="legend_2">
    <g id="patch_18">
     <path d="M 89.7 442.993333 
L 189.1525 442.993333 
Q 192.3525 442.993333 192.3525 439.793333 
L 192.3525 393.533333 
Q 192.3525 390.333333 189.1525 390.333333 
L 89.7 390.333333 
Q 86.5 390.333333 86.5 393.533333 
L 86.5 439.793333 
Q 86.5 442.993333 89.7 442.993333 
z
" style="fill:#ffffff;opacity:0.8;stroke:#cccccc;stroke-linejoin:miter;"/>
    </g>
    <g id="line2d_46">
     <path d="M 92.9 403.290833 
L 124.9 403.290833 
" style="fill:none;stroke:#1f77b4;stroke-linecap:square;stroke-width:1.5;"/>
    </g>
    <g id="line2d_47"/>
    <g id="text_44">
     <!-- pos_E -->
     <g transform="translate(137.7 408.890833)scale(0.16 -0.16)">
      <use xlink:href="#DejaVuSans-70"/>
      <use x="63.476562" xlink:href="#DejaVuSans-6f"/>
      <use x="124.658203" xlink:href="#DejaVuSans-73"/>
      <use x="176.757812" xlink:href="#DejaVuSans-5f"/>
      <use x="226.757812" xlink:href="#DejaVuSans-45"/>
     </g>
    </g>
    <g id="line2d_48">
     <path d="M 92.9 427.220833 
L 124.9 427.220833 
" style="fill:none;stroke:#ff7f0e;stroke-linecap:square;stroke-width:1.5;"/>
    </g>
    <g id="line2d_49"/>
    <g id="text_45">
     <!-- pos_N -->
     <g transform="translate(137.7 432.820833)scale(0.16 -0.16)">
      <use xlink:href="#DejaVuSans-70"/>
      <use x="63.476562" xlink:href="#DejaVuSans-6f"/>
      <use x="124.658203" xlink:href="#DejaVuSans-73"/>
      <use x="176.757812" xlink:href="#DejaVuSans-5f"/>
      <use x="226.757812" xlink:href="#DejaVuSans-4e"/>
     </g>
    </g>
   </g>
  </g>
 </g>
 <defs>
  <clipPath id="pdf34865aee">
   <rect height="136.586667" width="624.22" x="78.5" y="31.8"/>
  </clipPath>
  <clipPath id="p79270862cf">
   <rect height="136.586667" width="624.22" x="78.5" y="207.066667"/>
  </clipPath>
  <clipPath id="p0554ec9fd2">
   <rect height="136.586667" width="624.22" x="78.5" y="382.333333"/>
  </clipPath>
 </defs>
</svg>
