<?xml version="1.0" encoding="utf-8" standalone="no"?>
<!DOCTYPE svg PUBLIC "-//W3C//DTD SVG 1.1//EN"
  "http://www.w3.org/Graphics/SVG/1.1/DTD/svg11.dtd">
<svg height="576pt" version="1.1" viewBox="0 0 720 576" width="720pt" xmlns="http://www.w3.org/2000/svg" xmlns:xlink="http://www.w3.org/1999/xlink">
 <metadata>
  <rdf:RDF xmlns:cc="http://creativecommons.org/ns#" xmlns:dc="http://purl.org/dc/elements/1.1/" xmlns:rdf="http://www.w3.org/1999/02/22-rdf-syntax-ns#">
   <cc:Work>
    <dc:type rdf:resource="http://purl.org/dc/dcmitype/StillImage"/>
    <dc:date>2024-04-03T18:15:33.615305</dc:date>
    <dc:format>image/svg+xml</dc:format>
    <dc:creator>
     <cc:Agent>
      <dc:title>Matplotlib v3.4.2, https://matplotlib.org/</dc:title>
     </cc:Agent>
    </dc:creator>
   </cc:Work>
  </rdf:RDF>
 </metadata>
 <defs>
  <style type="text/css">*{stroke-linecap:butt;stroke-linejoin:round;}</style>
 </defs>
 <g id="figure_1">
  <g id="patch_1">
   <path d="M 0 576 
L 720 576 
L 720 0 
L 0 0 
z
" style="fill:#ffffff;"/>
  </g>
  <g id="axes_1">
   <g id="patch_2">
    <path d="M 90 199.567059 
L 648 199.567059 
L 648 69.12 
L 90 69.12 
z
" style="fill:#ffffff;"/>
   </g>
   <g id="matplotlib.axis_1">
    <g id="xtick_1">
     <g id="line2d_1">
      <defs>
       <path d="M 0 0 
L 0 3.5 
" id="mac307eb912" style="stroke:#000000;stroke-width:0.8;"/>
      </defs>
      <g>
       <use style="stroke:#000000;stroke-width:0.8;" x="115.363636" xlink:href="#mac307eb912" y="199.567059"/>
      </g>
     </g>
     <g id="text_1">
      <!-- 0 -->
      <g transform="translate(108.364886 223.283621)scale(0.22 -0.22)">
       <defs>
        <path d="M 2034 4250 
Q 1547 4250 1301 3770 
Q 1056 3291 1056 2328 
Q 1056 1369 1301 889 
Q 1547 409 2034 409 
Q 2525 409 2770 889 
Q 3016 1369 3016 2328 
Q 3016 3291 2770 3770 
Q 2525 4250 2034 4250 
z
M 2034 4750 
Q 2819 4750 3233 4129 
Q 3647 3509 3647 2328 
Q 3647 1150 3233 529 
Q 2819 -91 2034 -91 
Q 1250 -91 836 529 
Q 422 1150 422 2328 
Q 422 3509 836 4129 
Q 1250 4750 2034 4750 
z
" id="DejaVuSans-30" transform="scale(0.015625)"/>
       </defs>
       <use xlink:href="#DejaVuSans-30"/>
      </g>
     </g>
    </g>
    <g id="xtick_2">
     <g id="line2d_2">
      <g>
       <use style="stroke:#000000;stroke-width:0.8;" x="242.181818" xlink:href="#mac307eb912" y="199.567059"/>
      </g>
     </g>
     <g id="text_2">
      <!-- 50 -->
      <g transform="translate(228.184318 223.283621)scale(0.22 -0.22)">
       <defs>
        <path d="M 691 4666 
L 3169 4666 
L 3169 4134 
L 1269 4134 
L 1269 2991 
Q 1406 3038 1543 3061 
Q 1681 3084 1819 3084 
Q 2600 3084 3056 2656 
Q 3513 2228 3513 1497 
Q 3513 744 3044 326 
Q 2575 -91 1722 -91 
Q 1428 -91 1123 -41 
Q 819 9 494 109 
L 494 744 
Q 775 591 1075 516 
Q 1375 441 1709 441 
Q 2250 441 2565 725 
Q 2881 1009 2881 1497 
Q 2881 1984 2565 2268 
Q 2250 2553 1709 2553 
Q 1456 2553 1204 2497 
Q 953 2441 691 2322 
L 691 4666 
z
" id="DejaVuSans-35" transform="scale(0.015625)"/>
       </defs>
       <use xlink:href="#DejaVuSans-35"/>
       <use x="63.623047" xlink:href="#DejaVuSans-30"/>
      </g>
     </g>
    </g>
    <g id="xtick_3">
     <g id="line2d_3">
      <g>
       <use style="stroke:#000000;stroke-width:0.8;" x="369" xlink:href="#mac307eb912" y="199.567059"/>
      </g>
     </g>
     <g id="text_3">
      <!-- 100 -->
      <g transform="translate(348.00375 223.283621)scale(0.22 -0.22)">
       <defs>
        <path d="M 794 531 
L 1825 531 
L 1825 4091 
L 703 3866 
L 703 4441 
L 1819 4666 
L 2450 4666 
L 2450 531 
L 3481 531 
L 3481 0 
L 794 0 
L 794 531 
z
" id="DejaVuSans-31" transform="scale(0.015625)"/>
       </defs>
       <use xlink:href="#DejaVuSans-31"/>
       <use x="63.623047" xlink:href="#DejaVuSans-30"/>
       <use x="127.246094" xlink:href="#DejaVuSans-30"/>
      </g>
     </g>
    </g>
    <g id="xtick_4">
     <g id="line2d_4">
      <g>
       <use style="stroke:#000000;stroke-width:0.8;" x="495.818182" xlink:href="#mac307eb912" y="199.567059"/>
      </g>
     </g>
     <g id="text_4">
      <!-- 150 -->
      <g transform="translate(474.821932 223.283621)scale(0.22 -0.22)">
       <use xlink:href="#DejaVuSans-31"/>
       <use x="63.623047" xlink:href="#DejaVuSans-35"/>
       <use x="127.246094" xlink:href="#DejaVuSans-30"/>
      </g>
     </g>
    </g>
    <g id="xtick_5">
     <g id="line2d_5">
      <g>
       <use style="stroke:#000000;stroke-width:0.8;" x="622.636364" xlink:href="#mac307eb912" y="199.567059"/>
      </g>
     </g>
     <g id="text_5">
      <!-- 200 -->
      <g transform="translate(601.640114 223.283621)scale(0.22 -0.22)">
       <defs>
        <path d="M 1228 531 
L 3431 531 
L 3431 0 
L 469 0 
L 469 531 
Q 828 903 1448 1529 
Q 2069 2156 2228 2338 
Q 2531 2678 2651 2914 
Q 2772 3150 2772 3378 
Q 2772 3750 2511 3984 
Q 2250 4219 1831 4219 
Q 1534 4219 1204 4116 
Q 875 4013 500 3803 
L 500 4441 
Q 881 4594 1212 4672 
Q 1544 4750 1819 4750 
Q 2544 4750 2975 4387 
Q 3406 4025 3406 3419 
Q 3406 3131 3298 2873 
Q 3191 2616 2906 2266 
Q 2828 2175 2409 1742 
Q 1991 1309 1228 531 
z
" id="DejaVuSans-32" transform="scale(0.015625)"/>
       </defs>
       <use xlink:href="#DejaVuSans-32"/>
       <use x="63.623047" xlink:href="#DejaVuSans-30"/>
       <use x="127.246094" xlink:href="#DejaVuSans-30"/>
      </g>
     </g>
    </g>
   </g>
   <g id="matplotlib.axis_2">
    <g id="ytick_1">
     <g id="line2d_6">
      <defs>
       <path d="M 0 0 
L -3.5 0 
" id="m3c25e2ae88" style="stroke:#000000;stroke-width:0.8;"/>
      </defs>
      <g>
       <use style="stroke:#000000;stroke-width:0.8;" x="90" xlink:href="#m3c25e2ae88" y="168.875"/>
      </g>
     </g>
     <g id="text_6">
      <!-- 7.001 -->
      <g transform="translate(20.018125 177.233281)scale(0.22 -0.22)">
       <defs>
        <path d="M 525 4666 
L 3525 4666 
L 3525 4397 
L 1831 0 
L 1172 0 
L 2766 4134 
L 525 4134 
L 525 4666 
z
" id="DejaVuSans-37" transform="scale(0.015625)"/>
        <path d="M 684 794 
L 1344 794 
L 1344 0 
L 684 0 
L 684 794 
z
" id="DejaVuSans-2e" transform="scale(0.015625)"/>
       </defs>
       <use xlink:href="#DejaVuSans-37"/>
       <use x="63.623047" xlink:href="#DejaVuSans-2e"/>
       <use x="95.410156" xlink:href="#DejaVuSans-30"/>
       <use x="159.033203" xlink:href="#DejaVuSans-30"/>
       <use x="222.65625" xlink:href="#DejaVuSans-31"/>
      </g>
     </g>
    </g>
    <g id="ytick_2">
     <g id="line2d_7">
      <g>
       <use style="stroke:#000000;stroke-width:0.8;" x="90" xlink:href="#m3c25e2ae88" y="124.5"/>
      </g>
     </g>
     <g id="text_7">
      <!-- 8.000 -->
      <g transform="translate(20.018125 132.858281)scale(0.22 -0.22)">
       <defs>
        <path d="M 2034 2216 
Q 1584 2216 1326 1975 
Q 1069 1734 1069 1313 
Q 1069 891 1326 650 
Q 1584 409 2034 409 
Q 2484 409 2743 651 
Q 3003 894 3003 1313 
Q 3003 1734 2745 1975 
Q 2488 2216 2034 2216 
z
M 1403 2484 
Q 997 2584 770 2862 
Q 544 3141 544 3541 
Q 544 4100 942 4425 
Q 1341 4750 2034 4750 
Q 2731 4750 3128 4425 
Q 3525 4100 3525 3541 
Q 3525 3141 3298 2862 
Q 3072 2584 2669 2484 
Q 3125 2378 3379 2068 
Q 3634 1759 3634 1313 
Q 3634 634 3220 271 
Q 2806 -91 2034 -91 
Q 1263 -91 848 271 
Q 434 634 434 1313 
Q 434 1759 690 2068 
Q 947 2378 1403 2484 
z
M 1172 3481 
Q 1172 3119 1398 2916 
Q 1625 2713 2034 2713 
Q 2441 2713 2670 2916 
Q 2900 3119 2900 3481 
Q 2900 3844 2670 4047 
Q 2441 4250 2034 4250 
Q 1625 4250 1398 4047 
Q 1172 3844 1172 3481 
z
" id="DejaVuSans-38" transform="scale(0.015625)"/>
       </defs>
       <use xlink:href="#DejaVuSans-38"/>
       <use x="63.623047" xlink:href="#DejaVuSans-2e"/>
       <use x="95.410156" xlink:href="#DejaVuSans-30"/>
       <use x="159.033203" xlink:href="#DejaVuSans-30"/>
       <use x="222.65625" xlink:href="#DejaVuSans-30"/>
      </g>
     </g>
    </g>
    <g id="ytick_3">
     <g id="line2d_8">
      <g>
       <use style="stroke:#000000;stroke-width:0.8;" x="90" xlink:href="#m3c25e2ae88" y="80"/>
      </g>
     </g>
     <g id="text_8">
      <!-- 9.002 -->
      <g transform="translate(20.018125 88.358281)scale(0.22 -0.22)">
       <defs>
        <path d="M 703 97 
L 703 672 
Q 941 559 1184 500 
Q 1428 441 1663 441 
Q 2288 441 2617 861 
Q 2947 1281 2994 2138 
Q 2813 1869 2534 1725 
Q 2256 1581 1919 1581 
Q 1219 1581 811 2004 
Q 403 2428 403 3163 
Q 403 3881 828 4315 
Q 1253 4750 1959 4750 
Q 2769 4750 3195 4129 
Q 3622 3509 3622 2328 
Q 3622 1225 3098 567 
Q 2575 -91 1691 -91 
Q 1453 -91 1209 -44 
Q 966 3 703 97 
z
M 1959 2075 
Q 2384 2075 2632 2365 
Q 2881 2656 2881 3163 
Q 2881 3666 2632 3958 
Q 2384 4250 1959 4250 
Q 1534 4250 1286 3958 
Q 1038 3666 1038 3163 
Q 1038 2656 1286 2365 
Q 1534 2075 1959 2075 
z
" id="DejaVuSans-39" transform="scale(0.015625)"/>
       </defs>
       <use xlink:href="#DejaVuSans-39"/>
       <use x="63.623047" xlink:href="#DejaVuSans-2e"/>
       <use x="95.410156" xlink:href="#DejaVuSans-30"/>
       <use x="159.033203" xlink:href="#DejaVuSans-30"/>
       <use x="222.65625" xlink:href="#DejaVuSans-32"/>
      </g>
     </g>
    </g>
    <g id="text_9">
     <!-- Azimuth [rad] -->
     <g transform="translate(11.442812 209.992592)rotate(-90)scale(0.22 -0.22)">
      <defs>
       <path d="M 2188 4044 
L 1331 1722 
L 3047 1722 
L 2188 4044 
z
M 1831 4666 
L 2547 4666 
L 4325 0 
L 3669 0 
L 3244 1197 
L 1141 1197 
L 716 0 
L 50 0 
L 1831 4666 
z
" id="DejaVuSans-41" transform="scale(0.015625)"/>
       <path d="M 353 3500 
L 3084 3500 
L 3084 2975 
L 922 459 
L 3084 459 
L 3084 0 
L 275 0 
L 275 525 
L 2438 3041 
L 353 3041 
L 353 3500 
z
" id="DejaVuSans-7a" transform="scale(0.015625)"/>
       <path d="M 603 3500 
L 1178 3500 
L 1178 0 
L 603 0 
L 603 3500 
z
M 603 4863 
L 1178 4863 
L 1178 4134 
L 603 4134 
L 603 4863 
z
" id="DejaVuSans-69" transform="scale(0.015625)"/>
       <path d="M 3328 2828 
Q 3544 3216 3844 3400 
Q 4144 3584 4550 3584 
Q 5097 3584 5394 3201 
Q 5691 2819 5691 2113 
L 5691 0 
L 5113 0 
L 5113 2094 
Q 5113 2597 4934 2840 
Q 4756 3084 4391 3084 
Q 3944 3084 3684 2787 
Q 3425 2491 3425 1978 
L 3425 0 
L 2847 0 
L 2847 2094 
Q 2847 2600 2669 2842 
Q 2491 3084 2119 3084 
Q 1678 3084 1418 2786 
Q 1159 2488 1159 1978 
L 1159 0 
L 581 0 
L 581 3500 
L 1159 3500 
L 1159 2956 
Q 1356 3278 1631 3431 
Q 1906 3584 2284 3584 
Q 2666 3584 2933 3390 
Q 3200 3197 3328 2828 
z
" id="DejaVuSans-6d" transform="scale(0.015625)"/>
       <path d="M 544 1381 
L 544 3500 
L 1119 3500 
L 1119 1403 
Q 1119 906 1312 657 
Q 1506 409 1894 409 
Q 2359 409 2629 706 
Q 2900 1003 2900 1516 
L 2900 3500 
L 3475 3500 
L 3475 0 
L 2900 0 
L 2900 538 
Q 2691 219 2414 64 
Q 2138 -91 1772 -91 
Q 1169 -91 856 284 
Q 544 659 544 1381 
z
M 1991 3584 
L 1991 3584 
z
" id="DejaVuSans-75" transform="scale(0.015625)"/>
       <path d="M 1172 4494 
L 1172 3500 
L 2356 3500 
L 2356 3053 
L 1172 3053 
L 1172 1153 
Q 1172 725 1289 603 
Q 1406 481 1766 481 
L 2356 481 
L 2356 0 
L 1766 0 
Q 1100 0 847 248 
Q 594 497 594 1153 
L 594 3053 
L 172 3053 
L 172 3500 
L 594 3500 
L 594 4494 
L 1172 4494 
z
" id="DejaVuSans-74" transform="scale(0.015625)"/>
       <path d="M 3513 2113 
L 3513 0 
L 2938 0 
L 2938 2094 
Q 2938 2591 2744 2837 
Q 2550 3084 2163 3084 
Q 1697 3084 1428 2787 
Q 1159 2491 1159 1978 
L 1159 0 
L 581 0 
L 581 4863 
L 1159 4863 
L 1159 2956 
Q 1366 3272 1645 3428 
Q 1925 3584 2291 3584 
Q 2894 3584 3203 3211 
Q 3513 2838 3513 2113 
z
" id="DejaVuSans-68" transform="scale(0.015625)"/>
       <path id="DejaVuSans-20" transform="scale(0.015625)"/>
       <path d="M 550 4863 
L 1875 4863 
L 1875 4416 
L 1125 4416 
L 1125 -397 
L 1875 -397 
L 1875 -844 
L 550 -844 
L 550 4863 
z
" id="DejaVuSans-5b" transform="scale(0.015625)"/>
       <path d="M 2631 2963 
Q 2534 3019 2420 3045 
Q 2306 3072 2169 3072 
Q 1681 3072 1420 2755 
Q 1159 2438 1159 1844 
L 1159 0 
L 581 0 
L 581 3500 
L 1159 3500 
L 1159 2956 
Q 1341 3275 1631 3429 
Q 1922 3584 2338 3584 
Q 2397 3584 2469 3576 
Q 2541 3569 2628 3553 
L 2631 2963 
z
" id="DejaVuSans-72" transform="scale(0.015625)"/>
       <path d="M 2194 1759 
Q 1497 1759 1228 1600 
Q 959 1441 959 1056 
Q 959 750 1161 570 
Q 1363 391 1709 391 
Q 2188 391 2477 730 
Q 2766 1069 2766 1631 
L 2766 1759 
L 2194 1759 
z
M 3341 1997 
L 3341 0 
L 2766 0 
L 2766 531 
Q 2569 213 2275 61 
Q 1981 -91 1556 -91 
Q 1019 -91 701 211 
Q 384 513 384 1019 
Q 384 1609 779 1909 
Q 1175 2209 1959 2209 
L 2766 2209 
L 2766 2266 
Q 2766 2663 2505 2880 
Q 2244 3097 1772 3097 
Q 1472 3097 1187 3025 
Q 903 2953 641 2809 
L 641 3341 
Q 956 3463 1253 3523 
Q 1550 3584 1831 3584 
Q 2591 3584 2966 3190 
Q 3341 2797 3341 1997 
z
" id="DejaVuSans-61" transform="scale(0.015625)"/>
       <path d="M 2906 2969 
L 2906 4863 
L 3481 4863 
L 3481 0 
L 2906 0 
L 2906 525 
Q 2725 213 2448 61 
Q 2172 -91 1784 -91 
Q 1150 -91 751 415 
Q 353 922 353 1747 
Q 353 2572 751 3078 
Q 1150 3584 1784 3584 
Q 2172 3584 2448 3432 
Q 2725 3281 2906 2969 
z
M 947 1747 
Q 947 1113 1208 752 
Q 1469 391 1925 391 
Q 2381 391 2643 752 
Q 2906 1113 2906 1747 
Q 2906 2381 2643 2742 
Q 2381 3103 1925 3103 
Q 1469 3103 1208 2742 
Q 947 2381 947 1747 
z
" id="DejaVuSans-64" transform="scale(0.015625)"/>
       <path d="M 1947 4863 
L 1947 -844 
L 622 -844 
L 622 -397 
L 1369 -397 
L 1369 4416 
L 622 4416 
L 622 4863 
L 1947 4863 
z
" id="DejaVuSans-5d" transform="scale(0.015625)"/>
      </defs>
      <use xlink:href="#DejaVuSans-41"/>
      <use x="68.408203" xlink:href="#DejaVuSans-7a"/>
      <use x="120.898438" xlink:href="#DejaVuSans-69"/>
      <use x="148.681641" xlink:href="#DejaVuSans-6d"/>
      <use x="246.09375" xlink:href="#DejaVuSans-75"/>
      <use x="309.472656" xlink:href="#DejaVuSans-74"/>
      <use x="348.681641" xlink:href="#DejaVuSans-68"/>
      <use x="412.060547" xlink:href="#DejaVuSans-20"/>
      <use x="443.847656" xlink:href="#DejaVuSans-5b"/>
      <use x="482.861328" xlink:href="#DejaVuSans-72"/>
      <use x="523.974609" xlink:href="#DejaVuSans-61"/>
      <use x="585.253906" xlink:href="#DejaVuSans-64"/>
      <use x="648.730469" xlink:href="#DejaVuSans-5d"/>
     </g>
    </g>
    <g id="text_10">
     <!-- 1e−13+1.5707963268 -->
     <g transform="translate(90 66.12)scale(0.22 -0.22)">
      <defs>
       <path d="M 3597 1894 
L 3597 1613 
L 953 1613 
Q 991 1019 1311 708 
Q 1631 397 2203 397 
Q 2534 397 2845 478 
Q 3156 559 3463 722 
L 3463 178 
Q 3153 47 2828 -22 
Q 2503 -91 2169 -91 
Q 1331 -91 842 396 
Q 353 884 353 1716 
Q 353 2575 817 3079 
Q 1281 3584 2069 3584 
Q 2775 3584 3186 3129 
Q 3597 2675 3597 1894 
z
M 3022 2063 
Q 3016 2534 2758 2815 
Q 2500 3097 2075 3097 
Q 1594 3097 1305 2825 
Q 1016 2553 972 2059 
L 3022 2063 
z
" id="DejaVuSans-65" transform="scale(0.015625)"/>
       <path d="M 678 2272 
L 4684 2272 
L 4684 1741 
L 678 1741 
L 678 2272 
z
" id="DejaVuSans-2212" transform="scale(0.015625)"/>
       <path d="M 2597 2516 
Q 3050 2419 3304 2112 
Q 3559 1806 3559 1356 
Q 3559 666 3084 287 
Q 2609 -91 1734 -91 
Q 1441 -91 1130 -33 
Q 819 25 488 141 
L 488 750 
Q 750 597 1062 519 
Q 1375 441 1716 441 
Q 2309 441 2620 675 
Q 2931 909 2931 1356 
Q 2931 1769 2642 2001 
Q 2353 2234 1838 2234 
L 1294 2234 
L 1294 2753 
L 1863 2753 
Q 2328 2753 2575 2939 
Q 2822 3125 2822 3475 
Q 2822 3834 2567 4026 
Q 2313 4219 1838 4219 
Q 1578 4219 1281 4162 
Q 984 4106 628 3988 
L 628 4550 
Q 988 4650 1302 4700 
Q 1616 4750 1894 4750 
Q 2613 4750 3031 4423 
Q 3450 4097 3450 3541 
Q 3450 3153 3228 2886 
Q 3006 2619 2597 2516 
z
" id="DejaVuSans-33" transform="scale(0.015625)"/>
       <path d="M 2944 4013 
L 2944 2272 
L 4684 2272 
L 4684 1741 
L 2944 1741 
L 2944 0 
L 2419 0 
L 2419 1741 
L 678 1741 
L 678 2272 
L 2419 2272 
L 2419 4013 
L 2944 4013 
z
" id="DejaVuSans-2b" transform="scale(0.015625)"/>
       <path d="M 2113 2584 
Q 1688 2584 1439 2293 
Q 1191 2003 1191 1497 
Q 1191 994 1439 701 
Q 1688 409 2113 409 
Q 2538 409 2786 701 
Q 3034 994 3034 1497 
Q 3034 2003 2786 2293 
Q 2538 2584 2113 2584 
z
M 3366 4563 
L 3366 3988 
Q 3128 4100 2886 4159 
Q 2644 4219 2406 4219 
Q 1781 4219 1451 3797 
Q 1122 3375 1075 2522 
Q 1259 2794 1537 2939 
Q 1816 3084 2150 3084 
Q 2853 3084 3261 2657 
Q 3669 2231 3669 1497 
Q 3669 778 3244 343 
Q 2819 -91 2113 -91 
Q 1303 -91 875 529 
Q 447 1150 447 2328 
Q 447 3434 972 4092 
Q 1497 4750 2381 4750 
Q 2619 4750 2861 4703 
Q 3103 4656 3366 4563 
z
" id="DejaVuSans-36" transform="scale(0.015625)"/>
      </defs>
      <use xlink:href="#DejaVuSans-31"/>
      <use x="63.623047" xlink:href="#DejaVuSans-65"/>
      <use x="125.146484" xlink:href="#DejaVuSans-2212"/>
      <use x="208.935547" xlink:href="#DejaVuSans-31"/>
      <use x="272.558594" xlink:href="#DejaVuSans-33"/>
      <use x="336.181641" xlink:href="#DejaVuSans-2b"/>
      <use x="419.970703" xlink:href="#DejaVuSans-31"/>
      <use x="483.59375" xlink:href="#DejaVuSans-2e"/>
      <use x="515.380859" xlink:href="#DejaVuSans-35"/>
      <use x="579.003906" xlink:href="#DejaVuSans-37"/>
      <use x="642.626953" xlink:href="#DejaVuSans-30"/>
      <use x="706.25" xlink:href="#DejaVuSans-37"/>
      <use x="769.873047" xlink:href="#DejaVuSans-39"/>
      <use x="833.496094" xlink:href="#DejaVuSans-36"/>
      <use x="897.119141" xlink:href="#DejaVuSans-33"/>
      <use x="960.742188" xlink:href="#DejaVuSans-32"/>
      <use x="1024.365234" xlink:href="#DejaVuSans-36"/>
      <use x="1087.988281" xlink:href="#DejaVuSans-38"/>
     </g>
    </g>
   </g>
   <g id="line2d_9">
    <path clip-path="url(#p6e1ee03260)" d="M 115.363636 81.5 
L 122.465455 81.5 
L 122.719091 81.625 
L 122.972727 81.5 
L 124.494545 81.5 
L 124.748182 81.625 
L 125.001818 81.5 
L 126.777273 81.5 
L 127.030909 81.625 
L 127.284545 81.5 
L 128.552727 81.5 
L 128.806364 81.625 
L 129.06 81.625 
L 129.313636 81.5 
L 130.835455 81.5 
L 131.089091 81.625 
L 131.342727 81.625 
L 131.596364 81.5 
L 132.610909 81.5 
L 132.864545 81.625 
L 133.371818 81.625 
L 133.625455 81.5 
L 134.893636 81.5 
L 135.147273 81.625 
L 135.400909 81.625 
L 135.654545 81.5 
L 139.966364 81.5 
L 140.22 81.375 
L 142.502727 81.375 
L 142.756364 81.25 
L 144.024545 81.25 
L 144.278182 81.125 
L 146.560909 81.125 
L 146.814545 81 
L 149.858182 81 
L 150.111818 80.875 
L 150.365455 81 
L 150.619091 80.75 
L 150.872727 81 
L 151.126364 80.75 
L 151.38 80.875 
L 151.633636 80.75 
L 151.887273 80.875 
L 152.140909 80.75 
L 152.394545 80.875 
L 152.648182 80.75 
L 152.901818 80.75 
L 153.155455 80.625 
L 153.409091 80.75 
L 153.662727 80.625 
L 153.916364 80.75 
L 154.17 80.625 
L 154.423636 80.75 
L 154.677273 80.5 
L 154.930909 80.75 
L 155.184545 80.5 
L 155.691818 80.75 
L 156.199091 80.5 
L 156.452727 80.5 
L 156.706364 80.75 
L 157.213636 80.5 
L 157.467273 80.5 
L 157.720909 80.625 
L 157.974545 80.5 
L 158.481818 80.5 
L 158.735455 80.625 
L 159.242727 80.375 
L 159.496364 80.5 
L 160.003636 80.5 
L 160.257273 80.375 
L 160.510909 80.5 
L 160.764545 80.5 
L 161.018182 80.375 
L 161.525455 80.375 
L 161.779091 80.5 
L 162.286364 80.25 
L 162.54 80.375 
L 163.047273 80.375 
L 163.300909 80.25 
L 163.554545 80.375 
L 164.061818 80.375 
L 164.315455 80.125 
L 164.569091 80.375 
L 164.822727 80.375 
L 165.33 80.125 
L 165.583636 80.125 
L 165.837273 80.375 
L 166.090909 80.125 
L 166.598182 80.125 
L 166.851818 80.25 
L 167.359091 80 
L 167.866364 80.25 
L 168.373636 80 
L 168.627273 80 
L 168.880909 80.125 
L 169.134545 80 
L 169.641818 80 
L 169.895455 80.125 
L 170.149091 80 
L 170.656364 80 
L 170.91 80.125 
L 171.417273 79.875 
L 171.670909 80 
L 172.178182 80 
L 172.431818 79.75 
L 172.685455 80 
L 172.939091 80 
L 173.446364 79.75 
L 173.7 79.75 
L 173.953636 80 
L 174.460909 79.75 
L 174.714545 79.75 
L 174.968182 79.875 
L 175.221818 79.75 
L 175.729091 79.75 
L 175.982727 79.875 
L 176.49 79.625 
L 176.743636 79.75 
L 177.250909 79.75 
L 177.504545 79.625 
L 177.758182 79.625 
L 178.011818 79.75 
L 178.265455 79.625 
L 178.772727 79.625 
L 179.026364 79.75 
L 179.533636 79.5 
L 179.787273 79.625 
L 180.294545 79.625 
L 180.548182 79.5 
L 180.801818 79.625 
L 181.055455 79.625 
L 181.562727 79.375 
L 181.816364 79.625 
L 182.07 79.625 
L 182.577273 79.375 
L 182.830909 79.375 
L 183.084545 79.625 
L 183.338182 79.375 
L 183.845455 79.375 
L 184.099091 79.5 
L 184.352727 79.375 
L 184.606364 79.125 
L 184.86 79.375 
L 185.367273 79.375 
L 185.620909 79.125 
L 186.128182 79.375 
L 186.635455 79.125 
L 187.142727 79.375 
L 187.396364 79.125 
L 187.903636 79.125 
L 188.157273 79.375 
L 188.410909 79.125 
L 189.425455 79.125 
L 189.679091 79 
L 189.932727 79.125 
L 190.44 79.125 
L 190.693636 79 
L 190.947273 79 
L 191.200909 79.125 
L 191.454545 79 
L 191.961818 79 
L 192.215455 79.125 
L 192.722727 78.875 
L 193.23 79.125 
L 193.483636 79 
L 193.737273 78.75 
L 194.244545 79 
L 194.498182 79 
L 194.751818 78.75 
L 195.259091 79 
L 195.512727 78.75 
L 196.02 78.75 
L 196.273636 78.875 
L 196.780909 78.625 
L 197.288182 78.875 
L 197.541818 78.625 
L 198.049091 78.625 
L 198.302727 78.875 
L 198.81 78.625 
L 199.063636 78.625 
L 199.317273 78.75 
L 199.570909 78.625 
L 200.585455 78.625 
L 200.839091 78.5 
L 201.092727 78.625 
L 201.6 78.625 
L 201.853636 78.5 
L 202.107273 78.625 
L 202.360909 78.625 
L 202.868182 78.375 
L 203.375455 78.625 
L 203.629091 78.5 
L 203.882727 78.25 
L 204.136364 78.375 
L 204.39 78.625 
L 204.897273 78.375 
L 205.150909 78.375 
L 205.404545 78.5 
L 205.911818 78.25 
L 206.165455 78.375 
L 206.419091 78.375 
L 206.926364 78.125 
L 207.433636 78.375 
L 207.940909 78.125 
L 208.448182 78.375 
L 208.955455 78.125 
L 209.209091 78.125 
L 209.462727 78.25 
L 209.716364 78.125 
L 211.745455 78.125 
L 211.999091 78 
L 212.252727 78.125 
L 212.76 78.125 
L 213.013636 77.875 
L 213.520909 78.125 
L 213.774545 78.125 
L 214.028182 78 
L 214.281818 78 
L 214.535455 78.125 
L 215.042727 77.875 
L 215.296364 78 
L 215.55 78 
L 216.057273 77.75 
L 216.564545 78 
L 216.818182 77.75 
L 217.071818 77.75 
L 217.579091 78 
L 218.086364 77.75 
L 218.34 77.75 
L 218.593636 77.875 
L 218.847273 77.75 
L 220.876364 77.75 
L 221.13 77.625 
L 221.383636 77.75 
L 221.637273 77.75 
L 222.144545 77.5 
L 222.651818 77.75 
L 223.159091 77.5 
L 223.666364 77.75 
L 224.173636 77.5 
L 224.427273 77.5 
L 224.680909 77.625 
L 225.188182 77.375 
L 225.441818 77.5 
L 225.695455 77.5 
L 225.949091 77.375 
L 226.202727 77.375 
L 226.71 77.625 
L 227.217273 77.25 
L 227.724545 77.5 
L 228.231818 77.25 
L 228.485455 77.25 
L 228.739091 77.375 
L 228.992727 77.25 
L 229.5 77.25 
L 229.753636 77.375 
L 230.007273 77.25 
L 231.021818 77.25 
L 231.275455 77.125 
L 231.529091 77.25 
L 231.782727 77.25 
L 232.29 77 
L 232.543636 77.25 
L 233.050909 77.25 
L 233.304545 77 
L 233.811818 77.25 
L 234.319091 77 
L 234.572727 77 
L 234.826364 77.125 
L 235.333636 76.875 
L 235.587273 77.125 
L 235.840909 77.125 
L 236.348182 76.875 
L 236.855455 77.125 
L 237.362727 76.75 
L 237.87 77 
L 238.377273 76.75 
L 238.630909 76.75 
L 238.884545 77 
L 239.391818 76.75 
L 239.645455 76.75 
L 239.899091 76.875 
L 240.152727 76.75 
L 241.167273 76.75 
L 241.420909 76.625 
L 241.928182 76.875 
L 242.435455 76.625 
L 242.689091 76.75 
L 243.196364 76.75 
L 243.45 76.5 
L 243.957273 76.75 
L 244.464545 76.5 
L 244.718182 76.5 
L 244.971818 76.75 
L 245.479091 76.5 
L 245.732727 76.625 
L 245.986364 76.625 
L 246.493636 76.375 
L 247.000909 76.625 
L 247.508182 76.25 
L 248.015455 76.5 
L 248.269091 76.5 
L 248.522727 76.25 
L 249.03 76.5 
L 249.537273 76.25 
L 249.790909 76.25 
L 250.044545 76.375 
L 250.298182 76.25 
L 251.82 76.25 
L 252.073636 76.375 
L 252.580909 76.125 
L 252.834545 76.25 
L 253.341818 76.25 
L 253.595455 76 
L 254.102727 76.25 
L 254.356364 76.25 
L 254.61 76.125 
L 254.863636 76.125 
L 255.117273 76.25 
L 255.624545 76 
L 255.878182 76.125 
L 256.131818 76.125 
L 256.639091 75.875 
L 257.146364 76.125 
L 257.653636 75.875 
L 258.160909 76.125 
L 258.668182 75.875 
L 258.921818 75.875 
L 259.175455 76 
L 259.429091 75.875 
L 261.458182 75.875 
L 261.711818 75.75 
L 261.965455 75.875 
L 262.219091 75.875 
L 262.726364 75.625 
L 263.233636 75.875 
L 263.740909 75.625 
L 264.248182 75.875 
L 264.755455 75.625 
L 265.009091 75.625 
L 265.262727 75.75 
L 265.77 75.5 
L 266.023636 75.625 
L 266.277273 75.625 
L 266.530909 75.5 
L 266.784545 75.5 
L 267.291818 75.75 
L 267.799091 75.375 
L 268.306364 75.625 
L 268.813636 75.375 
L 269.067273 75.375 
L 269.320909 75.5 
L 269.574545 75.375 
L 270.081818 75.375 
L 270.335455 75.5 
L 270.589091 75.375 
L 271.603636 75.375 
L 271.857273 75.25 
L 272.110909 75.375 
L 272.364545 75.375 
L 272.871818 75.125 
L 273.125455 75.375 
L 273.632727 75.375 
L 273.886364 75.125 
L 274.393636 75.375 
L 274.900909 75.125 
L 275.154545 75.125 
L 275.408182 75.25 
L 275.915455 75 
L 276.169091 75.25 
L 276.422727 75.25 
L 276.676364 75.375 
L 276.93 75.25 
L 277.183636 75.25 
L 277.437273 75.375 
L 277.690909 75.375 
L 277.944545 75.625 
L 278.451818 75.625 
L 278.705455 75.875 
L 278.959091 75.875 
L 279.212727 76 
L 279.72 76 
L 279.973636 76.25 
L 280.227273 76.25 
L 280.480909 76.375 
L 280.734545 76.375 
L 281.241818 76.75 
L 281.495455 76.75 
L 281.749091 77 
L 282.256364 77 
L 282.51 77.25 
L 282.763636 77.25 
L 283.017273 77.375 
L 283.524545 77.375 
L 283.778182 77.625 
L 284.031818 77.625 
L 284.285455 77.75 
L 284.792727 77.75 
L 285.046364 78 
L 285.3 78 
L 285.553636 78.125 
L 286.060909 78.125 
L 286.314545 78.375 
L 286.568182 78.375 
L 287.075455 78.75 
L 287.329091 78.75 
L 287.582727 79 
L 287.836364 79 
L 288.09 79.125 
L 288.597273 79.125 
L 288.850909 79.375 
L 289.104545 79.375 
L 289.358182 79.625 
L 289.865455 79.625 
L 290.119091 79.75 
L 290.372727 79.75 
L 290.626364 80 
L 291.133636 80 
L 291.387273 80.125 
L 291.640909 80.125 
L 291.894545 80.375 
L 292.401818 80.375 
L 292.655455 80.5 
L 292.909091 80.5 
L 293.416364 81 
L 293.67 81 
L 293.923636 81.125 
L 294.177273 81.125 
L 294.430909 81.375 
L 294.938182 81.375 
L 295.191818 81.5 
L 295.445455 81.5 
L 295.699091 81.75 
L 296.206364 81.75 
L 296.46 81.875 
L 296.713636 81.875 
L 296.967273 82.125 
L 297.474545 82.125 
L 297.728182 82.375 
L 297.981818 82.375 
L 298.235455 82.5 
L 298.742727 82.5 
L 298.996364 82.75 
L 299.25 82.75 
L 299.503636 82.875 
L 299.757273 83.125 
L 300.010909 83.125 
L 300.264545 83.375 
L 300.518182 83.375 
L 300.771818 83.5 
L 301.279091 83.5 
L 301.532727 83.75 
L 301.786364 83.75 
L 302.04 83.875 
L 302.547273 83.875 
L 302.800909 84.125 
L 303.054545 84.125 
L 303.308182 84.25 
L 303.815455 84.25 
L 304.069091 84.5 
L 304.322727 84.5 
L 304.576364 84.75 
L 305.083636 84.75 
L 305.337273 84.875 
L 305.590909 84.875 
L 305.844545 85.25 
L 306.351818 85.25 
L 306.605455 85.5 
L 306.859091 85.5 
L 307.112727 85.625 
L 307.62 85.625 
L 307.873636 85.875 
L 308.127273 85.875 
L 308.380909 86.125 
L 308.888182 86.125 
L 309.141818 86.25 
L 309.395455 86.25 
L 309.649091 86.5 
L 309.902727 86.5 
L 310.156364 86.625 
L 310.663636 86.625 
L 310.917273 86.875 
L 311.170909 86.875 
L 311.678182 87.25 
L 311.931818 87.25 
L 312.185455 87.625 
L 312.439091 87.625 
L 312.692727 87.875 
L 313.2 87.875 
L 313.453636 88 
L 313.707273 88 
L 313.960909 88.25 
L 314.468182 88.25 
L 314.721818 88.5 
L 314.975455 88.5 
L 315.229091 88.625 
L 315.736364 88.625 
L 315.99 88.875 
L 316.243636 88.875 
L 316.497273 89 
L 317.004545 89 
L 317.258182 89.25 
L 317.511818 89.25 
L 317.765455 89.375 
L 318.272727 89.375 
L 318.526364 89.875 
L 318.78 89.875 
L 319.033636 90 
L 319.540909 90 
L 319.794545 90.25 
L 320.048182 90.25 
L 320.301818 90.375 
L 320.809091 90.375 
L 321.062727 90.625 
L 321.316364 90.625 
L 321.57 90.875 
L 322.077273 90.875 
L 322.330909 91 
L 322.584545 91 
L 322.838182 91.25 
L 323.345455 91.25 
L 323.599091 91.375 
L 323.852727 91.375 
L 324.106364 91.625 
L 324.36 91.625 
L 324.613636 91.75 
L 324.867273 92 
L 325.120909 92 
L 325.374545 92.25 
L 325.881818 92.25 
L 326.135455 92.375 
L 326.389091 92.375 
L 326.642727 92.625 
L 327.15 92.625 
L 327.403636 92.75 
L 327.657273 92.75 
L 327.910909 93 
L 328.418182 93 
L 328.671818 93.125 
L 328.925455 93.125 
L 329.179091 93.375 
L 329.686364 93.375 
L 329.94 93.625 
L 330.193636 93.625 
L 330.447273 93.75 
L 330.700909 93.75 
L 331.208182 94.125 
L 331.461818 94.125 
L 331.715455 94.375 
L 332.222727 94.375 
L 332.476364 94.625 
L 332.73 94.625 
L 332.983636 94.75 
L 333.490909 94.75 
L 333.744545 95 
L 333.998182 95 
L 334.251818 95.125 
L 334.759091 95.125 
L 335.012727 95.375 
L 335.266364 95.375 
L 335.52 95.5 
L 336.027273 95.5 
L 336.280909 95.75 
L 336.534545 95.75 
L 337.041818 96.125 
L 337.295455 96.125 
L 337.549091 96.375 
L 337.802727 96.375 
L 338.056364 96.5 
L 338.563636 96.5 
L 338.817273 96.75 
L 339.070909 96.75 
L 339.324545 96.875 
L 339.831818 96.875 
L 340.085455 97.125 
L 340.339091 97.125 
L 340.592727 97.375 
L 341.1 97.375 
L 341.353636 97.5 
L 341.607273 97.5 
L 341.860909 97.75 
L 342.368182 97.75 
L 342.621818 97.875 
L 342.875455 97.875 
L 343.382727 98.375 
L 343.636364 98.375 
L 343.89 98.5 
L 344.143636 98.5 
L 344.397273 98.75 
L 344.904545 98.75 
L 345.158182 98.875 
L 345.411818 98.875 
L 345.665455 99.125 
L 346.172727 99.125 
L 346.426364 99.25 
L 346.68 99.25 
L 346.933636 99.5 
L 347.440909 99.5 
L 347.694545 99.75 
L 347.948182 99.75 
L 348.201818 99.875 
L 348.709091 99.875 
L 348.962727 100.125 
L 349.216364 100.125 
L 349.47 100.5 
L 349.977273 100.5 
L 350.230909 100.625 
L 350.484545 100.625 
L 350.738182 100.875 
L 351.245455 100.875 
L 351.499091 101.125 
L 351.752727 101.125 
L 352.006364 101.25 
L 352.513636 101.25 
L 352.767273 101.5 
L 353.020909 101.5 
L 353.274545 101.625 
L 353.781818 101.625 
L 354.035455 101.875 
L 354.289091 101.875 
L 354.542727 102.125 
L 355.05 102.125 
L 355.303636 102.25 
L 355.557273 102.25 
L 355.810909 102.625 
L 356.318182 102.625 
L 356.571818 102.875 
L 356.825455 102.875 
L 357.079091 103 
L 357.586364 103 
L 357.84 103.25 
L 358.093636 103.25 
L 358.347273 103.5 
L 358.854545 103.5 
L 359.108182 103.625 
L 359.361818 103.625 
L 359.615455 103.875 
L 360.122727 103.875 
L 360.376364 104 
L 360.63 104 
L 360.883636 104.25 
L 361.390909 104.25 
L 361.644545 104.375 
L 361.898182 104.375 
L 362.151818 104.875 
L 362.659091 104.875 
L 362.912727 105 
L 363.166364 105 
L 363.42 105.25 
L 363.927273 105.25 
L 364.180909 105.375 
L 364.434545 105.375 
L 364.688182 105.625 
L 365.195455 105.625 
L 365.449091 105.875 
L 365.702727 105.875 
L 365.956364 106 
L 366.463636 106 
L 366.717273 106.25 
L 366.970909 106.25 
L 367.224545 106.375 
L 367.731818 106.375 
L 368.492727 107 
L 369 107 
L 369.253636 107.25 
L 369.507273 107.25 
L 369.760909 107.375 
L 370.268182 107.375 
L 370.521818 107.625 
L 370.775455 107.625 
L 371.029091 107.75 
L 371.536364 107.75 
L 371.79 108 
L 372.043636 108 
L 372.297273 108.125 
L 372.804545 108.125 
L 373.058182 108.375 
L 373.311818 108.375 
L 373.565455 108.625 
L 374.072727 108.625 
L 374.326364 108.75 
L 374.833636 109.125 
L 375.340909 109.125 
L 375.594545 109.375 
L 375.848182 109.375 
L 376.101818 109.625 
L 376.609091 109.625 
L 376.862727 109.75 
L 377.116364 109.75 
L 377.37 110 
L 377.877273 110 
L 378.130909 110.125 
L 378.384545 110.125 
L 378.638182 110.375 
L 379.145455 110.375 
L 379.399091 110.5 
L 379.652727 110.5 
L 379.906364 110.75 
L 380.413636 110.75 
L 381.174545 111.375 
L 381.681818 111.375 
L 381.935455 111.5 
L 382.189091 111.5 
L 382.442727 111.75 
L 382.95 111.75 
L 383.203636 111.875 
L 383.457273 111.875 
L 383.710909 112.125 
L 384.218182 112.125 
L 384.471818 112.375 
L 384.725455 112.375 
L 384.979091 112.5 
L 385.486364 112.5 
L 385.74 112.75 
L 385.993636 112.75 
L 386.247273 112.875 
L 386.754545 112.875 
L 387.008182 113.375 
L 387.261818 113.375 
L 387.515455 113.5 
L 388.022727 113.5 
L 388.276364 113.75 
L 388.53 113.75 
L 388.783636 113.875 
L 389.290909 113.875 
L 389.544545 114.125 
L 389.798182 114.125 
L 390.051818 114.25 
L 390.559091 114.25 
L 390.812727 114.5 
L 391.066364 114.5 
L 391.32 114.75 
L 391.827273 114.75 
L 392.080909 114.875 
L 392.334545 114.875 
L 392.588182 115.125 
L 393.095455 115.125 
L 393.349091 115.5 
L 393.602727 115.5 
L 393.856364 115.625 
L 394.363636 115.625 
L 394.617273 115.875 
L 394.870909 115.875 
L 395.124545 116.125 
L 395.631818 116.125 
L 395.885455 116.25 
L 396.139091 116.25 
L 396.392727 116.5 
L 396.9 116.5 
L 397.153636 116.625 
L 397.407273 116.625 
L 397.660909 116.875 
L 398.168182 116.875 
L 398.421818 117 
L 398.675455 117 
L 398.929091 117.25 
L 399.182727 117.25 
L 399.69 117.625 
L 399.943636 117.625 
L 400.197273 117.875 
L 400.704545 117.875 
L 400.958182 118 
L 401.211818 118 
L 401.465455 118.25 
L 401.972727 118.25 
L 402.226364 118.5 
L 402.48 118.5 
L 402.733636 118.625 
L 403.240909 118.625 
L 403.494545 118.875 
L 403.748182 118.875 
L 404.001818 119 
L 404.509091 119 
L 404.762727 119.25 
L 405.016364 119.25 
L 405.27 119.375 
L 405.523636 119.375 
L 406.030909 119.875 
L 406.284545 119.875 
L 406.538182 120 
L 407.045455 120 
L 407.299091 120.25 
L 407.552727 120.25 
L 407.806364 120.375 
L 408.313636 120.375 
L 408.567273 120.625 
L 408.820909 120.625 
L 409.074545 120.75 
L 409.581818 120.75 
L 409.835455 121 
L 410.089091 121 
L 410.342727 121.25 
L 410.85 121.25 
L 411.103636 121.375 
L 411.357273 121.375 
L 411.610909 121.625 
L 411.864545 121.625 
L 412.118182 121.75 
L 412.371818 122 
L 412.625455 122 
L 412.879091 122.25 
L 413.386364 122.25 
L 413.64 122.375 
L 413.893636 122.375 
L 414.147273 122.625 
L 414.654545 122.625 
L 414.908182 122.75 
L 415.161818 122.75 
L 415.415455 123 
L 415.922727 123 
L 416.176364 123.125 
L 416.43 123.125 
L 416.683636 123.375 
L 417.190909 123.375 
L 417.444545 123.625 
L 417.698182 123.625 
L 417.951818 123.75 
L 418.205455 124 
L 418.459091 124 
L 418.712727 124.125 
L 418.966364 124.125 
L 419.22 124.375 
L 419.727273 124.375 
L 419.980909 124.5 
L 420.234545 124.5 
L 420.488182 124.75 
L 420.995455 124.75 
L 421.249091 125 
L 421.502727 125 
L 421.756364 125.125 
L 422.263636 125.125 
L 422.517273 125.375 
L 422.770909 125.375 
L 423.024545 125.5 
L 423.531818 125.5 
L 423.785455 125.75 
L 424.039091 125.75 
L 424.546364 126.125 
L 424.8 126.125 
L 425.053636 126.375 
L 425.307273 126.375 
L 425.560909 126.5 
L 426.068182 126.5 
L 426.321818 126.75 
L 426.575455 126.75 
L 426.829091 126.875 
L 427.336364 126.875 
L 427.59 127.125 
L 427.843636 127.125 
L 428.097273 127.375 
L 428.604545 127.375 
L 428.858182 127.5 
L 429.111818 127.5 
L 429.365455 127.75 
L 429.872727 127.75 
L 430.126364 127.875 
L 430.38 127.875 
L 430.633636 128.25 
L 431.140909 128.25 
L 431.394545 128.5 
L 431.648182 128.5 
L 431.901818 128.75 
L 432.409091 128.75 
L 432.662727 128.875 
L 432.916364 128.875 
L 433.17 129.125 
L 433.677273 129.125 
L 433.930909 129.25 
L 434.184545 129.25 
L 434.438182 129.5 
L 434.945455 129.5 
L 435.199091 129.75 
L 435.452727 129.75 
L 435.706364 129.875 
L 436.213636 129.875 
L 436.467273 130.125 
L 436.720909 130.125 
L 436.974545 130.5 
L 437.481818 130.5 
L 437.735455 130.625 
L 437.989091 130.625 
L 438.242727 130.5 
L 439.257273 130.5 
L 439.510909 130.875 
L 440.271818 130.875 
L 440.525455 131.25 
L 441.54 131.25 
L 441.793636 131.625 
L 442.808182 131.625 
L 443.061818 132 
L 444.076364 132 
L 444.33 132.5 
L 445.344545 132.5 
L 445.598182 132.875 
L 446.105455 132.875 
L 446.359091 133.25 
L 446.612727 133.25 
L 446.866364 133.625 
L 447.880909 133.625 
L 448.134545 134 
L 449.149091 134 
L 449.402727 134.375 
L 450.417273 134.375 
L 450.670909 134.875 
L 451.685455 134.875 
L 451.939091 135.25 
L 452.953636 135.25 
L 453.207273 135.625 
L 454.221818 135.625 
L 454.475455 136 
L 455.49 136 
L 455.743636 136.375 
L 456.758182 136.375 
L 457.011818 136.75 
L 458.026364 136.75 
L 458.28 137.25 
L 458.533636 137.25 
L 458.787273 137.625 
L 459.294545 137.625 
L 459.548182 138 
L 460.562727 138 
L 460.816364 138.375 
L 461.830909 138.375 
L 462.084545 138.75 
L 463.099091 138.75 
L 463.352727 139.125 
L 464.367273 139.125 
L 464.620909 139.5 
L 465.635455 139.5 
L 465.889091 140 
L 466.903636 140 
L 467.157273 140.375 
L 468.171818 140.375 
L 468.425455 140.75 
L 469.44 140.75 
L 469.693636 141.125 
L 470.708182 141.125 
L 471.215455 141.875 
L 471.976364 141.875 
L 472.23 142.375 
L 473.244545 142.375 
L 473.498182 142.75 
L 474.512727 142.75 
L 474.766364 143.125 
L 475.780909 143.125 
L 476.034545 143.5 
L 477.049091 143.5 
L 477.302727 143.875 
L 478.317273 143.875 
L 478.570909 144.25 
L 479.585455 144.25 
L 479.839091 144.75 
L 480.853636 144.75 
L 481.107273 145.125 
L 482.121818 145.125 
L 482.375455 145.5 
L 483.39 145.5 
L 483.897273 146.25 
L 484.658182 146.25 
L 484.911818 146.625 
L 485.926364 146.625 
L 486.18 147 
L 487.194545 147 
L 487.448182 147.5 
L 488.462727 147.5 
L 488.716364 147.875 
L 489.730909 147.875 
L 489.984545 148.25 
L 490.999091 148.25 
L 491.252727 148.625 
L 492.267273 148.625 
L 492.520909 149 
L 493.535455 149 
L 493.789091 149.375 
L 494.803636 149.375 
L 495.057273 149.875 
L 496.071818 149.875 
L 496.325455 150.625 
L 497.34 150.625 
L 497.593636 151 
L 498.608182 151 
L 498.861818 151.375 
L 499.876364 151.375 
L 500.13 151.75 
L 501.144545 151.75 
L 501.398182 152.25 
L 502.412727 152.25 
L 502.666364 152.625 
L 503.680909 152.625 
L 503.934545 153 
L 504.695455 153 
L 504.949091 153.375 
L 505.963636 153.375 
L 506.217273 153.75 
L 507.231818 153.75 
L 507.485455 154.125 
L 508.5 154.125 
L 508.753636 155 
L 509.768182 155 
L 510.021818 155.375 
L 511.036364 155.375 
L 511.29 155.75 
L 512.304545 155.75 
L 512.558182 156.125 
L 513.572727 156.125 
L 513.826364 156.5 
L 514.840909 156.5 
L 515.094545 156.875 
L 516.109091 156.875 
L 516.362727 157.375 
L 517.377273 157.375 
L 517.630909 157.75 
L 518.645455 157.75 
L 518.899091 158.125 
L 519.913636 158.125 
L 520.167273 158.5 
L 521.181818 158.5 
L 521.435455 159.25 
L 522.45 159.25 
L 522.703636 159.75 
L 523.718182 159.75 
L 523.971818 160.125 
L 524.986364 160.125 
L 525.24 160.5 
L 526.254545 160.5 
L 526.508182 160.875 
L 527.522727 160.875 
L 527.776364 161.25 
L 528.790909 161.25 
L 529.044545 161.625 
L 530.059091 161.625 
L 530.312727 162 
L 531.327273 162 
L 531.580909 162.5 
L 532.595455 162.5 
L 532.849091 162.875 
L 533.61 162.875 
L 534.117273 163.625 
L 535.131818 163.625 
L 535.385455 164 
L 536.4 164 
L 536.653636 164.375 
L 537.668182 164.375 
L 537.921818 164.875 
L 538.936364 164.875 
L 539.19 165.25 
L 540.204545 165.25 
L 540.458182 165.625 
L 541.472727 165.625 
L 541.726364 166 
L 542.740909 166 
L 542.994545 166.375 
L 544.009091 166.375 
L 544.262727 166.75 
L 545.277273 166.75 
L 545.530909 167.25 
L 546.038182 167.25 
L 546.291818 167.625 
L 546.545455 167.625 
L 546.799091 168 
L 547.813636 168 
L 548.067273 168.375 
L 549.081818 168.375 
L 549.335455 168.75 
L 550.35 168.75 
L 550.603636 169.125 
L 551.618182 169.125 
L 551.871818 169.5 
L 552.886364 169.5 
L 553.14 170 
L 554.154545 170 
L 554.408182 170.375 
L 555.422727 170.375 
L 555.676364 170.75 
L 556.690909 170.75 
L 556.944545 171.125 
L 557.959091 171.125 
L 558.212727 171.5 
L 558.466364 171.5 
L 558.72 171.875 
L 559.227273 171.875 
L 559.480909 172.375 
L 560.495455 172.375 
L 560.749091 172.75 
L 561.763636 172.75 
L 562.017273 173.125 
L 563.031818 173.125 
L 563.285455 173.5 
L 564.3 173.5 
L 564.553636 173.875 
L 565.568182 173.875 
L 565.821818 174.25 
L 566.836364 174.25 
L 567.09 174.75 
L 568.104545 174.75 
L 568.358182 175.125 
L 569.372727 175.125 
L 569.626364 175.5 
L 570.640909 175.5 
L 571.148182 176.25 
L 571.909091 176.25 
L 572.162727 176.625 
L 573.177273 176.625 
L 573.430909 177 
L 574.445455 177 
L 574.699091 177.5 
L 575.713636 177.5 
L 575.967273 177.875 
L 576.981818 177.875 
L 577.235455 178.25 
L 578.25 178.25 
L 578.503636 178.625 
L 579.518182 178.625 
L 579.771818 179 
L 580.786364 179 
L 581.04 179.375 
L 582.054545 179.375 
L 582.308182 179.875 
L 583.322727 179.875 
L 583.576364 180.625 
L 584.590909 180.625 
L 584.844545 181 
L 585.859091 181 
L 586.112727 181.375 
L 587.127273 181.375 
L 587.380909 181.75 
L 588.395455 181.75 
L 588.649091 182.125 
L 589.663636 182.125 
L 589.917273 182.625 
L 590.931818 182.625 
L 591.185455 183 
L 592.2 183 
L 592.453636 183.375 
L 593.468182 183.375 
L 593.721818 183.75 
L 594.736364 183.75 
L 594.99 184.125 
L 596.004545 184.125 
L 596.258182 185 
L 597.272727 185 
L 597.526364 185.375 
L 598.540909 185.375 
L 598.794545 185.75 
L 599.809091 185.75 
L 600.062727 186.125 
L 601.077273 186.125 
L 601.330909 186.5 
L 602.345455 186.5 
L 602.599091 186.875 
L 603.613636 186.875 
L 603.867273 187.375 
L 604.881818 187.375 
L 605.135455 187.75 
L 606.15 187.75 
L 606.403636 188.125 
L 607.418182 188.125 
L 607.671818 188.5 
L 608.432727 188.5 
L 608.94 189.25 
L 609.954545 189.25 
L 610.208182 189.625 
L 611.222727 189.625 
L 611.476364 190.125 
L 612.490909 190.125 
L 612.744545 190.5 
L 613.759091 190.5 
L 614.012727 190.875 
L 615.027273 190.875 
L 615.280909 191.25 
L 616.295455 191.25 
L 616.549091 191.625 
L 617.563636 191.625 
L 617.817273 192 
L 618.831818 192 
L 619.085455 192.5 
L 620.1 192.5 
L 620.353636 192.875 
L 620.860909 192.875 
L 621.114545 193.25 
L 621.368182 193.25 
L 621.621818 193.625 
L 622.636364 193.625 
L 622.636364 193.625 
" style="fill:none;stroke:#1f77b4;stroke-linecap:square;stroke-width:1.5;"/>
   </g>
   <g id="patch_3">
    <path d="M 90 199.5 
L 90 69.125 
" style="fill:none;stroke:#000000;stroke-linecap:square;stroke-linejoin:miter;stroke-width:0.8;"/>
   </g>
   <g id="patch_4">
    <path d="M 648 199.5 
L 648 69.125 
" style="fill:none;stroke:#000000;stroke-linecap:square;stroke-linejoin:miter;stroke-width:0.8;"/>
   </g>
   <g id="patch_5">
    <path d="M 90 199.567059 
L 648 199.567059 
" style="fill:none;stroke:#000000;stroke-linecap:square;stroke-linejoin:miter;stroke-width:0.8;"/>
   </g>
   <g id="patch_6">
    <path d="M 90 69.12 
L 648 69.12 
" style="fill:none;stroke:#000000;stroke-linecap:square;stroke-linejoin:miter;stroke-width:0.8;"/>
   </g>
  </g>
  <g id="axes_2">
   <g id="patch_7">
    <path d="M 90 356.103529 
L 648 356.103529 
L 648 225.656471 
L 90 225.656471 
z
" style="fill:#ffffff;"/>
   </g>
   <g id="matplotlib.axis_3">
    <g id="xtick_6">
     <g id="line2d_10">
      <g>
       <use style="stroke:#000000;stroke-width:0.8;" x="115.363636" xlink:href="#mac307eb912" y="356.103529"/>
      </g>
     </g>
     <g id="text_11">
      <!-- 0 -->
      <g transform="translate(108.364886 379.820092)scale(0.22 -0.22)">
       <use xlink:href="#DejaVuSans-30"/>
      </g>
     </g>
    </g>
    <g id="xtick_7">
     <g id="line2d_11">
      <g>
       <use style="stroke:#000000;stroke-width:0.8;" x="242.181818" xlink:href="#mac307eb912" y="356.103529"/>
      </g>
     </g>
     <g id="text_12">
      <!-- 50 -->
      <g transform="translate(228.184318 379.820092)scale(0.22 -0.22)">
       <use xlink:href="#DejaVuSans-35"/>
       <use x="63.623047" xlink:href="#DejaVuSans-30"/>
      </g>
     </g>
    </g>
    <g id="xtick_8">
     <g id="line2d_12">
      <g>
       <use style="stroke:#000000;stroke-width:0.8;" x="369" xlink:href="#mac307eb912" y="356.103529"/>
      </g>
     </g>
     <g id="text_13">
      <!-- 100 -->
      <g transform="translate(348.00375 379.820092)scale(0.22 -0.22)">
       <use xlink:href="#DejaVuSans-31"/>
       <use x="63.623047" xlink:href="#DejaVuSans-30"/>
       <use x="127.246094" xlink:href="#DejaVuSans-30"/>
      </g>
     </g>
    </g>
    <g id="xtick_9">
     <g id="line2d_13">
      <g>
       <use style="stroke:#000000;stroke-width:0.8;" x="495.818182" xlink:href="#mac307eb912" y="356.103529"/>
      </g>
     </g>
     <g id="text_14">
      <!-- 150 -->
      <g transform="translate(474.821932 379.820092)scale(0.22 -0.22)">
       <use xlink:href="#DejaVuSans-31"/>
       <use x="63.623047" xlink:href="#DejaVuSans-35"/>
       <use x="127.246094" xlink:href="#DejaVuSans-30"/>
      </g>
     </g>
    </g>
    <g id="xtick_10">
     <g id="line2d_14">
      <g>
       <use style="stroke:#000000;stroke-width:0.8;" x="622.636364" xlink:href="#mac307eb912" y="356.103529"/>
      </g>
     </g>
     <g id="text_15">
      <!-- 200 -->
      <g transform="translate(601.640114 379.820092)scale(0.22 -0.22)">
       <use xlink:href="#DejaVuSans-32"/>
       <use x="63.623047" xlink:href="#DejaVuSans-30"/>
       <use x="127.246094" xlink:href="#DejaVuSans-30"/>
      </g>
     </g>
    </g>
   </g>
   <g id="matplotlib.axis_4">
    <g id="ytick_4">
     <g id="line2d_15">
      <g>
       <use style="stroke:#000000;stroke-width:0.8;" x="90" xlink:href="#m3c25e2ae88" y="350.174118"/>
      </g>
     </g>
     <g id="text_16">
      <!-- 0 -->
      <g transform="translate(69.0025 358.532399)scale(0.22 -0.22)">
       <use xlink:href="#DejaVuSans-30"/>
      </g>
     </g>
    </g>
    <g id="ytick_5">
     <g id="line2d_16">
      <g>
       <use style="stroke:#000000;stroke-width:0.8;" x="90" xlink:href="#m3c25e2ae88" y="258.38247"/>
      </g>
     </g>
     <g id="text_17">
      <!-- 2 -->
      <g transform="translate(69.0025 266.740751)scale(0.22 -0.22)">
       <use xlink:href="#DejaVuSans-32"/>
      </g>
     </g>
    </g>
    <g id="text_18">
     <!-- velocity [m/s] -->
     <g transform="translate(60.427187 366.102813)rotate(-90)scale(0.22 -0.22)">
      <defs>
       <path d="M 191 3500 
L 800 3500 
L 1894 563 
L 2988 3500 
L 3597 3500 
L 2284 0 
L 1503 0 
L 191 3500 
z
" id="DejaVuSans-76" transform="scale(0.015625)"/>
       <path d="M 603 4863 
L 1178 4863 
L 1178 0 
L 603 0 
L 603 4863 
z
" id="DejaVuSans-6c" transform="scale(0.015625)"/>
       <path d="M 1959 3097 
Q 1497 3097 1228 2736 
Q 959 2375 959 1747 
Q 959 1119 1226 758 
Q 1494 397 1959 397 
Q 2419 397 2687 759 
Q 2956 1122 2956 1747 
Q 2956 2369 2687 2733 
Q 2419 3097 1959 3097 
z
M 1959 3584 
Q 2709 3584 3137 3096 
Q 3566 2609 3566 1747 
Q 3566 888 3137 398 
Q 2709 -91 1959 -91 
Q 1206 -91 779 398 
Q 353 888 353 1747 
Q 353 2609 779 3096 
Q 1206 3584 1959 3584 
z
" id="DejaVuSans-6f" transform="scale(0.015625)"/>
       <path d="M 3122 3366 
L 3122 2828 
Q 2878 2963 2633 3030 
Q 2388 3097 2138 3097 
Q 1578 3097 1268 2742 
Q 959 2388 959 1747 
Q 959 1106 1268 751 
Q 1578 397 2138 397 
Q 2388 397 2633 464 
Q 2878 531 3122 666 
L 3122 134 
Q 2881 22 2623 -34 
Q 2366 -91 2075 -91 
Q 1284 -91 818 406 
Q 353 903 353 1747 
Q 353 2603 823 3093 
Q 1294 3584 2113 3584 
Q 2378 3584 2631 3529 
Q 2884 3475 3122 3366 
z
" id="DejaVuSans-63" transform="scale(0.015625)"/>
       <path d="M 2059 -325 
Q 1816 -950 1584 -1140 
Q 1353 -1331 966 -1331 
L 506 -1331 
L 506 -850 
L 844 -850 
Q 1081 -850 1212 -737 
Q 1344 -625 1503 -206 
L 1606 56 
L 191 3500 
L 800 3500 
L 1894 763 
L 2988 3500 
L 3597 3500 
L 2059 -325 
z
" id="DejaVuSans-79" transform="scale(0.015625)"/>
       <path d="M 1625 4666 
L 2156 4666 
L 531 -594 
L 0 -594 
L 1625 4666 
z
" id="DejaVuSans-2f" transform="scale(0.015625)"/>
       <path d="M 2834 3397 
L 2834 2853 
Q 2591 2978 2328 3040 
Q 2066 3103 1784 3103 
Q 1356 3103 1142 2972 
Q 928 2841 928 2578 
Q 928 2378 1081 2264 
Q 1234 2150 1697 2047 
L 1894 2003 
Q 2506 1872 2764 1633 
Q 3022 1394 3022 966 
Q 3022 478 2636 193 
Q 2250 -91 1575 -91 
Q 1294 -91 989 -36 
Q 684 19 347 128 
L 347 722 
Q 666 556 975 473 
Q 1284 391 1588 391 
Q 1994 391 2212 530 
Q 2431 669 2431 922 
Q 2431 1156 2273 1281 
Q 2116 1406 1581 1522 
L 1381 1569 
Q 847 1681 609 1914 
Q 372 2147 372 2553 
Q 372 3047 722 3315 
Q 1072 3584 1716 3584 
Q 2034 3584 2315 3537 
Q 2597 3491 2834 3397 
z
" id="DejaVuSans-73" transform="scale(0.015625)"/>
      </defs>
      <use xlink:href="#DejaVuSans-76"/>
      <use x="59.179688" xlink:href="#DejaVuSans-65"/>
      <use x="120.703125" xlink:href="#DejaVuSans-6c"/>
      <use x="148.486328" xlink:href="#DejaVuSans-6f"/>
      <use x="209.667969" xlink:href="#DejaVuSans-63"/>
      <use x="264.648438" xlink:href="#DejaVuSans-69"/>
      <use x="292.431641" xlink:href="#DejaVuSans-74"/>
      <use x="331.640625" xlink:href="#DejaVuSans-79"/>
      <use x="390.820312" xlink:href="#DejaVuSans-20"/>
      <use x="422.607422" xlink:href="#DejaVuSans-5b"/>
      <use x="461.621094" xlink:href="#DejaVuSans-6d"/>
      <use x="559.033203" xlink:href="#DejaVuSans-2f"/>
      <use x="592.724609" xlink:href="#DejaVuSans-73"/>
      <use x="644.824219" xlink:href="#DejaVuSans-5d"/>
     </g>
    </g>
    <g id="text_19">
     <!-- 1e−5 -->
     <g transform="translate(90 222.656471)scale(0.22 -0.22)">
      <use xlink:href="#DejaVuSans-31"/>
      <use x="63.623047" xlink:href="#DejaVuSans-65"/>
      <use x="125.146484" xlink:href="#DejaVuSans-2212"/>
      <use x="208.935547" xlink:href="#DejaVuSans-35"/>
     </g>
    </g>
   </g>
   <g id="line2d_17">
    <path clip-path="url(#paa9c281665)" d="M 115.363636 350.174118 
L 120.182727 350.068519 
L 125.255455 349.729622 
L 130.328182 349.158473 
L 135.400909 348.357326 
L 140.473636 347.329342 
L 145.546364 346.078578 
L 150.872727 344.530922 
L 156.199091 342.749835 
L 161.779091 340.642022 
L 167.359091 338.296596 
L 173.192727 335.60267 
L 179.28 332.54301 
L 185.620909 329.104397 
L 192.215455 325.27856 
L 199.317273 320.902675 
L 207.18 315.788612 
L 215.803636 309.910068 
L 226.202727 302.539043 
L 241.167273 291.625092 
L 261.458182 276.857 
L 271.857273 269.572931 
L 280.480909 263.795191 
L 288.343636 258.794691 
L 295.445455 254.538216 
L 302.04 250.836736 
L 308.380909 247.529144 
L 314.468182 244.605066 
L 320.301818 242.04936 
L 325.881818 239.84306 
L 331.461818 237.88046 
L 336.788182 236.243028 
L 342.114545 234.843318 
L 347.187273 233.736854 
L 352.26 232.855908 
L 357.332727 232.203957 
L 362.405455 231.783573 
L 367.478182 231.596416 
L 372.297273 231.635326 
L 377.37 231.904244 
L 382.442727 232.405913 
L 387.515455 233.138352 
L 392.588182 234.098671 
L 397.660909 235.28308 
L 402.987273 236.76276 
L 408.313636 238.477899 
L 413.64 240.421036 
L 419.22 242.69202 
L 425.053636 245.312064 
L 431.140909 248.299339 
L 437.481818 251.668101 
L 444.076364 255.427757 
L 451.178182 259.740239 
L 458.787273 264.627048 
L 467.157273 270.269944 
L 477.049091 277.219269 
L 490.238182 286.785154 
L 516.87 306.166469 
L 526.761818 313.053588 
L 535.385455 318.789981 
L 542.994545 323.589361 
L 550.096364 327.807657 
L 556.690909 331.469621 
L 563.031818 334.735777 
L 569.119091 337.617145 
L 574.952727 340.129453 
L 580.532727 342.292194 
L 585.859091 344.127753 
L 591.185455 345.731636 
L 596.511818 347.096864 
L 601.584545 348.169757 
L 606.657273 349.016552 
L 611.73 349.633909 
L 616.802727 350.019391 
L 621.875455 350.171477 
L 622.636364 350.174111 
L 622.636364 350.174111 
" style="fill:none;stroke:#1f77b4;stroke-linecap:square;stroke-width:1.5;"/>
   </g>
   <g id="line2d_18">
    <path clip-path="url(#paa9c281665)" d="M 115.363636 350.174118 
L 134.64 336.151118 
L 145.039091 328.867049 
L 153.662727 323.089309 
L 161.525455 318.08881 
L 168.627273 313.832334 
L 175.221818 310.130854 
L 181.562727 306.823263 
L 187.65 303.899184 
L 193.483636 301.343478 
L 199.063636 299.137178 
L 204.643636 297.174578 
L 209.97 295.537146 
L 215.296364 294.137435 
L 220.369091 293.030971 
L 225.441818 292.150025 
L 230.514545 291.498073 
L 235.587273 291.077689 
L 240.66 290.890532 
L 245.479091 290.929442 
L 250.551818 291.19836 
L 255.624545 291.700028 
L 260.697273 292.432467 
L 265.77 293.392785 
L 270.842727 294.577194 
L 276.169091 296.056874 
L 281.495455 297.772013 
L 286.821818 299.715149 
L 292.401818 301.986132 
L 298.235455 304.606176 
L 304.322727 307.593451 
L 310.663636 310.962213 
L 317.258182 314.721868 
L 324.36 319.03435 
L 331.969091 323.921158 
L 340.339091 329.564054 
L 350.230909 336.513379 
L 363.42 346.079264 
L 369 350.174117 
L 388.276364 336.151119 
L 398.675455 328.86705 
L 407.299091 323.08931 
L 415.161818 318.088811 
L 422.263636 313.832336 
L 428.858182 310.130856 
L 435.199091 306.823265 
L 441.286364 303.899187 
L 447.12 301.343482 
L 452.7 299.137182 
L 458.28 297.174583 
L 463.606364 295.537151 
L 468.932727 294.137441 
L 474.005455 293.030978 
L 479.078182 292.150032 
L 484.150909 291.498081 
L 489.223636 291.077698 
L 494.296364 290.890541 
L 499.115455 290.929452 
L 504.188182 291.19837 
L 509.260909 291.70004 
L 514.333636 292.432479 
L 519.406364 293.392799 
L 524.479091 294.577208 
L 529.805455 296.056888 
L 535.131818 297.772028 
L 540.458182 299.715165 
L 546.038182 301.98615 
L 551.871818 304.606194 
L 557.959091 307.59347 
L 564.3 310.962232 
L 570.894545 314.721888 
L 577.996364 319.034371 
L 585.605455 323.92118 
L 593.975455 329.564077 
L 603.867273 336.513402 
L 617.056364 346.079287 
L 622.636364 350.174095 
L 622.636364 350.174095 
" style="fill:none;stroke:#ff7f0e;stroke-linecap:square;stroke-width:1.5;"/>
   </g>
   <g id="patch_8">
    <path d="M 90 356.103529 
L 90 225.656471 
" style="fill:none;stroke:#000000;stroke-linecap:square;stroke-linejoin:miter;stroke-width:0.8;"/>
   </g>
   <g id="patch_9">
    <path d="M 648 356.103529 
L 648 225.656471 
" style="fill:none;stroke:#000000;stroke-linecap:square;stroke-linejoin:miter;stroke-width:0.8;"/>
   </g>
   <g id="patch_10">
    <path d="M 90 356.103529 
L 648 356.103529 
" style="fill:none;stroke:#000000;stroke-linecap:square;stroke-linejoin:miter;stroke-width:0.8;"/>
   </g>
   <g id="patch_11">
    <path d="M 90 225.656471 
L 648 225.656471 
" style="fill:none;stroke:#000000;stroke-linecap:square;stroke-linejoin:miter;stroke-width:0.8;"/>
   </g>
   <g id="legend_1">
    <g id="patch_12">
     <path d="M 303.735625 327.08375 
L 434.264375 327.08375 
Q 438.664375 327.08375 438.664375 322.68375 
L 438.664375 259.07625 
Q 438.664375 254.67625 434.264375 254.67625 
L 303.735625 254.67625 
Q 299.335625 254.67625 299.335625 259.07625 
L 299.335625 322.68375 
Q 299.335625 327.08375 303.735625 327.08375 
z
" style="fill:#ffffff;opacity:0.8;stroke:#cccccc;stroke-linejoin:miter;"/>
    </g>
    <g id="line2d_19">
     <path d="M 308.135625 272.492813 
L 352.135625 272.492813 
" style="fill:none;stroke:#1f77b4;stroke-linecap:square;stroke-width:1.5;"/>
    </g>
    <g id="line2d_20"/>
    <g id="text_20">
     <!-- vel_E -->
     <g transform="translate(369.735625 280.192813)scale(0.22 -0.22)">
      <defs>
       <path d="M 3263 -1063 
L 3263 -1509 
L -63 -1509 
L -63 -1063 
L 3263 -1063 
z
" id="DejaVuSans-5f" transform="scale(0.015625)"/>
       <path d="M 628 4666 
L 3578 4666 
L 3578 4134 
L 1259 4134 
L 1259 2753 
L 3481 2753 
L 3481 2222 
L 1259 2222 
L 1259 531 
L 3634 531 
L 3634 0 
L 628 0 
L 628 4666 
z
" id="DejaVuSans-45" transform="scale(0.015625)"/>
      </defs>
      <use xlink:href="#DejaVuSans-76"/>
      <use x="59.179688" xlink:href="#DejaVuSans-65"/>
      <use x="120.703125" xlink:href="#DejaVuSans-6c"/>
      <use x="148.486328" xlink:href="#DejaVuSans-5f"/>
      <use x="198.486328" xlink:href="#DejaVuSans-45"/>
     </g>
    </g>
    <g id="line2d_21">
     <path d="M 308.135625 305.396563 
L 352.135625 305.396563 
" style="fill:none;stroke:#ff7f0e;stroke-linecap:square;stroke-width:1.5;"/>
    </g>
    <g id="line2d_22"/>
    <g id="text_21">
     <!-- vel_N -->
     <g transform="translate(369.735625 313.096563)scale(0.22 -0.22)">
      <defs>
       <path d="M 628 4666 
L 1478 4666 
L 3547 763 
L 3547 4666 
L 4159 4666 
L 4159 0 
L 3309 0 
L 1241 3903 
L 1241 0 
L 628 0 
L 628 4666 
z
" id="DejaVuSans-4e" transform="scale(0.015625)"/>
      </defs>
      <use xlink:href="#DejaVuSans-76"/>
      <use x="59.179688" xlink:href="#DejaVuSans-65"/>
      <use x="120.703125" xlink:href="#DejaVuSans-6c"/>
      <use x="148.486328" xlink:href="#DejaVuSans-5f"/>
      <use x="198.486328" xlink:href="#DejaVuSans-4e"/>
     </g>
    </g>
   </g>
  </g>
  <g id="axes_3">
   <g id="patch_13">
    <path d="M 90 512.64 
L 648 512.64 
L 648 382.192941 
L 90 382.192941 
z
" style="fill:#ffffff;"/>
   </g>
   <g id="matplotlib.axis_5">
    <g id="xtick_11">
     <g id="line2d_23">
      <g>
       <use style="stroke:#000000;stroke-width:0.8;" x="115.363636" xlink:href="#mac307eb912" y="512.64"/>
      </g>
     </g>
     <g id="text_22">
      <!-- 0 -->
      <g transform="translate(108.364886 536.356562)scale(0.22 -0.22)">
       <use xlink:href="#DejaVuSans-30"/>
      </g>
     </g>
    </g>
    <g id="xtick_12">
     <g id="line2d_24">
      <g>
       <use style="stroke:#000000;stroke-width:0.8;" x="242.181818" xlink:href="#mac307eb912" y="512.64"/>
      </g>
     </g>
     <g id="text_23">
      <!-- 50 -->
      <g transform="translate(228.184318 536.356562)scale(0.22 -0.22)">
       <use xlink:href="#DejaVuSans-35"/>
       <use x="63.623047" xlink:href="#DejaVuSans-30"/>
      </g>
     </g>
    </g>
    <g id="xtick_13">
     <g id="line2d_25">
      <g>
       <use style="stroke:#000000;stroke-width:0.8;" x="369" xlink:href="#mac307eb912" y="512.64"/>
      </g>
     </g>
     <g id="text_24">
      <!-- 100 -->
      <g transform="translate(348.00375 536.356562)scale(0.22 -0.22)">
       <use xlink:href="#DejaVuSans-31"/>
       <use x="63.623047" xlink:href="#DejaVuSans-30"/>
       <use x="127.246094" xlink:href="#DejaVuSans-30"/>
      </g>
     </g>
    </g>
    <g id="xtick_14">
     <g id="line2d_26">
      <g>
       <use style="stroke:#000000;stroke-width:0.8;" x="495.818182" xlink:href="#mac307eb912" y="512.64"/>
      </g>
     </g>
     <g id="text_25">
      <!-- 150 -->
      <g transform="translate(474.821932 536.356562)scale(0.22 -0.22)">
       <use xlink:href="#DejaVuSans-31"/>
       <use x="63.623047" xlink:href="#DejaVuSans-35"/>
       <use x="127.246094" xlink:href="#DejaVuSans-30"/>
      </g>
     </g>
    </g>
    <g id="xtick_15">
     <g id="line2d_27">
      <g>
       <use style="stroke:#000000;stroke-width:0.8;" x="622.636364" xlink:href="#mac307eb912" y="512.64"/>
      </g>
     </g>
     <g id="text_26">
      <!-- 200 -->
      <g transform="translate(601.640114 536.356562)scale(0.22 -0.22)">
       <use xlink:href="#DejaVuSans-32"/>
       <use x="63.623047" xlink:href="#DejaVuSans-30"/>
       <use x="127.246094" xlink:href="#DejaVuSans-30"/>
      </g>
     </g>
    </g>
    <g id="text_27">
     <!-- steps [-] -->
     <g transform="translate(323.427344 561.648438)scale(0.22 -0.22)">
      <defs>
       <path d="M 1159 525 
L 1159 -1331 
L 581 -1331 
L 581 3500 
L 1159 3500 
L 1159 2969 
Q 1341 3281 1617 3432 
Q 1894 3584 2278 3584 
Q 2916 3584 3314 3078 
Q 3713 2572 3713 1747 
Q 3713 922 3314 415 
Q 2916 -91 2278 -91 
Q 1894 -91 1617 61 
Q 1341 213 1159 525 
z
M 3116 1747 
Q 3116 2381 2855 2742 
Q 2594 3103 2138 3103 
Q 1681 3103 1420 2742 
Q 1159 2381 1159 1747 
Q 1159 1113 1420 752 
Q 1681 391 2138 391 
Q 2594 391 2855 752 
Q 3116 1113 3116 1747 
z
" id="DejaVuSans-70" transform="scale(0.015625)"/>
       <path d="M 313 2009 
L 1997 2009 
L 1997 1497 
L 313 1497 
L 313 2009 
z
" id="DejaVuSans-2d" transform="scale(0.015625)"/>
      </defs>
      <use xlink:href="#DejaVuSans-73"/>
      <use x="52.099609" xlink:href="#DejaVuSans-74"/>
      <use x="91.308594" xlink:href="#DejaVuSans-65"/>
      <use x="152.832031" xlink:href="#DejaVuSans-70"/>
      <use x="216.308594" xlink:href="#DejaVuSans-73"/>
      <use x="268.408203" xlink:href="#DejaVuSans-20"/>
      <use x="300.195312" xlink:href="#DejaVuSans-5b"/>
      <use x="339.208984" xlink:href="#DejaVuSans-2d"/>
      <use x="375.292969" xlink:href="#DejaVuSans-5d"/>
     </g>
    </g>
   </g>
   <g id="matplotlib.axis_6">
    <g id="ytick_6">
     <g id="line2d_28">
      <g>
       <use style="stroke:#000000;stroke-width:0.8;" x="90" xlink:href="#m3c25e2ae88" y="506.710588"/>
      </g>
     </g>
     <g id="text_28">
      <!-- 0.000 -->
      <g transform="translate(20.018125 515.068869)scale(0.22 -0.22)">
       <use xlink:href="#DejaVuSans-30"/>
       <use x="63.623047" xlink:href="#DejaVuSans-2e"/>
       <use x="95.410156" xlink:href="#DejaVuSans-30"/>
       <use x="159.033203" xlink:href="#DejaVuSans-30"/>
       <use x="222.65625" xlink:href="#DejaVuSans-30"/>
      </g>
     </g>
    </g>
    <g id="ytick_7">
     <g id="line2d_29">
      <g>
       <use style="stroke:#000000;stroke-width:0.8;" x="90" xlink:href="#m3c25e2ae88" y="423.940656"/>
      </g>
     </g>
     <g id="text_29">
      <!-- 0.002 -->
      <g transform="translate(20.018125 432.298937)scale(0.22 -0.22)">
       <use xlink:href="#DejaVuSans-30"/>
       <use x="63.623047" xlink:href="#DejaVuSans-2e"/>
       <use x="95.410156" xlink:href="#DejaVuSans-30"/>
       <use x="159.033203" xlink:href="#DejaVuSans-30"/>
       <use x="222.65625" xlink:href="#DejaVuSans-32"/>
      </g>
     </g>
    </g>
    <g id="text_30">
     <!-- Position [m] -->
     <g transform="translate(11.442812 513.031471)rotate(-90)scale(0.22 -0.22)">
      <defs>
       <path d="M 1259 4147 
L 1259 2394 
L 2053 2394 
Q 2494 2394 2734 2622 
Q 2975 2850 2975 3272 
Q 2975 3691 2734 3919 
Q 2494 4147 2053 4147 
L 1259 4147 
z
M 628 4666 
L 2053 4666 
Q 2838 4666 3239 4311 
Q 3641 3956 3641 3272 
Q 3641 2581 3239 2228 
Q 2838 1875 2053 1875 
L 1259 1875 
L 1259 0 
L 628 0 
L 628 4666 
z
" id="DejaVuSans-50" transform="scale(0.015625)"/>
       <path d="M 3513 2113 
L 3513 0 
L 2938 0 
L 2938 2094 
Q 2938 2591 2744 2837 
Q 2550 3084 2163 3084 
Q 1697 3084 1428 2787 
Q 1159 2491 1159 1978 
L 1159 0 
L 581 0 
L 581 3500 
L 1159 3500 
L 1159 2956 
Q 1366 3272 1645 3428 
Q 1925 3584 2291 3584 
Q 2894 3584 3203 3211 
Q 3513 2838 3513 2113 
z
" id="DejaVuSans-6e" transform="scale(0.015625)"/>
      </defs>
      <use xlink:href="#DejaVuSans-50"/>
      <use x="56.677734" xlink:href="#DejaVuSans-6f"/>
      <use x="117.859375" xlink:href="#DejaVuSans-73"/>
      <use x="169.958984" xlink:href="#DejaVuSans-69"/>
      <use x="197.742188" xlink:href="#DejaVuSans-74"/>
      <use x="236.951172" xlink:href="#DejaVuSans-69"/>
      <use x="264.734375" xlink:href="#DejaVuSans-6f"/>
      <use x="325.916016" xlink:href="#DejaVuSans-6e"/>
      <use x="389.294922" xlink:href="#DejaVuSans-20"/>
      <use x="421.082031" xlink:href="#DejaVuSans-5b"/>
      <use x="460.095703" xlink:href="#DejaVuSans-6d"/>
      <use x="557.507812" xlink:href="#DejaVuSans-5d"/>
     </g>
    </g>
   </g>
   <g id="line2d_30">
    <path clip-path="url(#paecbc720b4)" d="M 115.363636 506.710588 
L 137.176364 502.223953 
L 148.843636 500.054121 
L 158.735455 498.434759 
L 167.612727 497.202297 
L 175.982727 496.266675 
L 183.845455 495.614418 
L 191.200909 495.222907 
L 198.302727 495.060972 
L 205.404545 495.124316 
L 212.252727 495.409144 
L 219.100909 495.922098 
L 225.695455 496.637925 
L 232.29 497.576005 
L 238.884545 498.739353 
L 245.479091 500.129479 
L 252.073636 501.746385 
L 258.668182 503.588559 
L 265.516364 505.736768 
L 268.56 506.653981 
L 275.408182 504.168973 
L 282.51 501.355108 
L 289.865455 498.197321 
L 297.474545 494.684054 
L 305.337273 490.808071 
L 313.707273 486.431126 
L 322.584545 481.536918 
L 332.476364 475.821781 
L 343.636364 469.109063 
L 357.84 460.28677 
L 398.421818 434.910609 
L 409.581818 428.291732 
L 419.22 422.824346 
L 428.097273 418.037295 
L 436.467273 413.77488 
L 444.33 410.017304 
L 451.939091 406.627525 
L 459.294545 403.596392 
L 466.396364 400.910608 
L 473.244545 398.553561 
L 480.092727 396.431763 
L 486.687273 394.615456 
L 493.281818 393.024669 
L 499.876364 391.660738 
L 506.470909 390.523489 
L 513.065455 389.611236 
L 519.66 388.920792 
L 526.254545 388.447492 
L 533.102727 388.179251 
L 539.950909 388.130124 
L 547.052727 388.299879 
L 554.408182 388.698971 
L 562.017273 389.333853 
L 570.133636 390.237733 
L 578.757273 391.425474 
L 588.141818 392.944781 
L 598.794545 394.897389 
L 612.490909 397.65036 
L 622.636364 399.777766 
L 622.636364 399.777766 
" style="fill:none;stroke:#1f77b4;stroke-linecap:square;stroke-width:1.5;"/>
   </g>
   <g id="line2d_31">
    <path clip-path="url(#paecbc720b4)" d="M 115.363636 506.710588 
L 121.958182 506.597104 
L 128.552727 506.257408 
L 135.147273 505.693764 
L 141.741818 504.909933 
L 148.59 503.868518 
L 155.438182 502.602786 
L 162.54 501.062989 
L 169.895455 499.236931 
L 177.504545 497.116238 
L 185.620909 494.615524 
L 194.244545 491.71635 
L 203.629091 488.315896 
L 214.028182 484.303261 
L 226.456364 479.260817 
L 247.254545 470.535578 
L 265.516364 462.971408 
L 277.183636 458.374048 
L 287.075455 454.706146 
L 295.952727 451.642268 
L 304.322727 448.985512 
L 312.185455 446.720989 
L 319.794545 444.763491 
L 327.15 443.106553 
L 334.251818 441.739319 
L 341.1 440.64735 
L 347.948182 439.785665 
L 354.542727 439.179341 
L 361.137273 438.796355 
L 367.731818 438.639263 
L 374.326364 438.709112 
L 380.920909 439.005435 
L 387.515455 439.526258 
L 394.11 440.268106 
L 400.958182 441.267111 
L 407.806364 442.491942 
L 414.908182 443.991232 
L 422.263636 445.777718 
L 429.872727 447.860365 
L 437.735455 450.243572 
L 446.105455 453.013543 
L 455.236364 456.275009 
L 465.381818 460.142689 
L 477.302727 464.934979 
L 494.55 472.138183 
L 518.138182 481.963497 
L 530.059091 486.679851 
L 540.204545 490.457504 
L 549.335455 493.619197 
L 557.705455 496.283228 
L 565.568182 498.555338 
L 573.177273 500.520806 
L 580.532727 502.185966 
L 587.634545 503.561558 
L 594.482727 504.661914 
L 601.330909 505.532249 
L 607.925455 506.147092 
L 614.52 506.538723 
L 621.114545 506.704532 
L 622.636364 506.710579 
L 622.636364 506.710579 
" style="fill:none;stroke:#ff7f0e;stroke-linecap:square;stroke-width:1.5;"/>
   </g>
   <g id="patch_14">
    <path d="M 90 512.64 
L 90 382.192941 
" style="fill:none;stroke:#000000;stroke-linecap:square;stroke-linejoin:miter;stroke-width:0.8;"/>
   </g>
   <g id="patch_15">
    <path d="M 648 512.64 
L 648 382.192941 
" style="fill:none;stroke:#000000;stroke-linecap:square;stroke-linejoin:miter;stroke-width:0.8;"/>
   </g>
   <g id="patch_16">
    <path d="M 90 512.64 
L 648 512.64 
" style="fill:none;stroke:#000000;stroke-linecap:square;stroke-linejoin:miter;stroke-width:0.8;"/>
   </g>
   <g id="patch_17">
    <path d="M 90 382.192941 
L 648 382.192941 
" style="fill:none;stroke:#000000;stroke-linecap:square;stroke-linejoin:miter;stroke-width:0.8;"/>
   </g>
   <g id="legend_2">
    <g id="patch_18">
     <path d="M 105.4 465.600441 
L 242.147188 465.600441 
Q 246.547188 465.600441 246.547188 461.200441 
L 246.547188 397.592941 
Q 246.547188 393.192941 242.147188 393.192941 
L 105.4 393.192941 
Q 101 393.192941 101 397.592941 
L 101 461.200441 
Q 101 465.600441 105.4 465.600441 
z
" style="fill:#ffffff;opacity:0.8;stroke:#cccccc;stroke-linejoin:miter;"/>
    </g>
    <g id="line2d_32">
     <path d="M 109.8 411.009504 
L 153.8 411.009504 
" style="fill:none;stroke:#1f77b4;stroke-linecap:square;stroke-width:1.5;"/>
    </g>
    <g id="line2d_33"/>
    <g id="text_31">
     <!-- pos_E -->
     <g transform="translate(171.4 418.709504)scale(0.22 -0.22)">
      <use xlink:href="#DejaVuSans-70"/>
      <use x="63.476562" xlink:href="#DejaVuSans-6f"/>
      <use x="124.658203" xlink:href="#DejaVuSans-73"/>
      <use x="176.757812" xlink:href="#DejaVuSans-5f"/>
      <use x="226.757812" xlink:href="#DejaVuSans-45"/>
     </g>
    </g>
    <g id="line2d_34">
     <path d="M 109.8 443.913254 
L 153.8 443.913254 
" style="fill:none;stroke:#ff7f0e;stroke-linecap:square;stroke-width:1.5;"/>
    </g>
    <g id="line2d_35"/>
    <g id="text_32">
     <!-- pos_N -->
     <g transform="translate(171.4 451.613254)scale(0.22 -0.22)">
      <use xlink:href="#DejaVuSans-70"/>
      <use x="63.476562" xlink:href="#DejaVuSans-6f"/>
      <use x="124.658203" xlink:href="#DejaVuSans-73"/>
      <use x="176.757812" xlink:href="#DejaVuSans-5f"/>
      <use x="226.757812" xlink:href="#DejaVuSans-4e"/>
     </g>
    </g>
   </g>
  </g>
 </g>
 <defs>
  <clipPath id="p6e1ee03260">
   <rect height="130.447059" width="558" x="90" y="69.12"/>
  </clipPath>
  <clipPath id="paa9c281665">
   <rect height="130.447059" width="558" x="90" y="225.656471"/>
  </clipPath>
  <clipPath id="paecbc720b4">
   <rect height="130.447059" width="558" x="90" y="382.192941"/>
  </clipPath>
 </defs>
</svg>
