<?xml version="1.0" encoding="utf-8" standalone="no"?>
<!DOCTYPE svg PUBLIC "-//W3C//DTD SVG 1.1//EN"
  "http://www.w3.org/Graphics/SVG/1.1/DTD/svg11.dtd">
<svg height="576pt" version="1.1" viewBox="0 0 720 576" width="720pt" xmlns="http://www.w3.org/2000/svg" xmlns:xlink="http://www.w3.org/1999/xlink">
 <metadata>
  <rdf:RDF xmlns:cc="http://creativecommons.org/ns#" xmlns:dc="http://purl.org/dc/elements/1.1/" xmlns:rdf="http://www.w3.org/1999/02/22-rdf-syntax-ns#">
   <cc:Work>
    <dc:type rdf:resource="http://purl.org/dc/dcmitype/StillImage"/>
    <dc:date>2024-04-03T18:48:45.055712</dc:date>
    <dc:format>image/svg+xml</dc:format>
    <dc:creator>
     <cc:Agent>
      <dc:title>Matplotlib v3.4.2, https://matplotlib.org/</dc:title>
     </cc:Agent>
    </dc:creator>
   </cc:Work>
  </rdf:RDF>
 </metadata>
 <defs>
  <style type="text/css">*{stroke-linecap:butt;stroke-linejoin:round;}</style>
 </defs>
 <g id="figure_1">
  <g id="patch_1">
   <path d="M 0 576 
L 720 576 
L 720 0 
L 0 0 
z
" style="fill:#ffffff;"/>
  </g>
  <g id="axes_1">
   <g id="patch_2">
    <path d="M 90 199.567059 
L 648 199.567059 
L 648 69.12 
L 90 69.12 
z
" style="fill:#ffffff;"/>
   </g>
   <g id="matplotlib.axis_1">
    <g id="xtick_1">
     <g id="line2d_1">
      <defs>
       <path d="M 0 0 
L 0 3.5 
" id="ma19e13d096" style="stroke:#000000;stroke-width:0.8;"/>
      </defs>
      <g>
       <use style="stroke:#000000;stroke-width:0.8;" x="115.363636" xlink:href="#ma19e13d096" y="199.567059"/>
      </g>
     </g>
     <g id="text_1">
      <!-- 0 -->
      <g transform="translate(108.364886 223.283621)scale(0.22 -0.22)">
       <defs>
        <path d="M 2034 4250 
Q 1547 4250 1301 3770 
Q 1056 3291 1056 2328 
Q 1056 1369 1301 889 
Q 1547 409 2034 409 
Q 2525 409 2770 889 
Q 3016 1369 3016 2328 
Q 3016 3291 2770 3770 
Q 2525 4250 2034 4250 
z
M 2034 4750 
Q 2819 4750 3233 4129 
Q 3647 3509 3647 2328 
Q 3647 1150 3233 529 
Q 2819 -91 2034 -91 
Q 1250 -91 836 529 
Q 422 1150 422 2328 
Q 422 3509 836 4129 
Q 1250 4750 2034 4750 
z
" id="DejaVuSans-30" transform="scale(0.015625)"/>
       </defs>
       <use xlink:href="#DejaVuSans-30"/>
      </g>
     </g>
    </g>
    <g id="xtick_2">
     <g id="line2d_2">
      <g>
       <use style="stroke:#000000;stroke-width:0.8;" x="242.181818" xlink:href="#ma19e13d096" y="199.567059"/>
      </g>
     </g>
     <g id="text_2">
      <!-- 50 -->
      <g transform="translate(228.184318 223.283621)scale(0.22 -0.22)">
       <defs>
        <path d="M 691 4666 
L 3169 4666 
L 3169 4134 
L 1269 4134 
L 1269 2991 
Q 1406 3038 1543 3061 
Q 1681 3084 1819 3084 
Q 2600 3084 3056 2656 
Q 3513 2228 3513 1497 
Q 3513 744 3044 326 
Q 2575 -91 1722 -91 
Q 1428 -91 1123 -41 
Q 819 9 494 109 
L 494 744 
Q 775 591 1075 516 
Q 1375 441 1709 441 
Q 2250 441 2565 725 
Q 2881 1009 2881 1497 
Q 2881 1984 2565 2268 
Q 2250 2553 1709 2553 
Q 1456 2553 1204 2497 
Q 953 2441 691 2322 
L 691 4666 
z
" id="DejaVuSans-35" transform="scale(0.015625)"/>
       </defs>
       <use xlink:href="#DejaVuSans-35"/>
       <use x="63.623047" xlink:href="#DejaVuSans-30"/>
      </g>
     </g>
    </g>
    <g id="xtick_3">
     <g id="line2d_3">
      <g>
       <use style="stroke:#000000;stroke-width:0.8;" x="369" xlink:href="#ma19e13d096" y="199.567059"/>
      </g>
     </g>
     <g id="text_3">
      <!-- 100 -->
      <g transform="translate(348.00375 223.283621)scale(0.22 -0.22)">
       <defs>
        <path d="M 794 531 
L 1825 531 
L 1825 4091 
L 703 3866 
L 703 4441 
L 1819 4666 
L 2450 4666 
L 2450 531 
L 3481 531 
L 3481 0 
L 794 0 
L 794 531 
z
" id="DejaVuSans-31" transform="scale(0.015625)"/>
       </defs>
       <use xlink:href="#DejaVuSans-31"/>
       <use x="63.623047" xlink:href="#DejaVuSans-30"/>
       <use x="127.246094" xlink:href="#DejaVuSans-30"/>
      </g>
     </g>
    </g>
    <g id="xtick_4">
     <g id="line2d_4">
      <g>
       <use style="stroke:#000000;stroke-width:0.8;" x="495.818182" xlink:href="#ma19e13d096" y="199.567059"/>
      </g>
     </g>
     <g id="text_4">
      <!-- 150 -->
      <g transform="translate(474.821932 223.283621)scale(0.22 -0.22)">
       <use xlink:href="#DejaVuSans-31"/>
       <use x="63.623047" xlink:href="#DejaVuSans-35"/>
       <use x="127.246094" xlink:href="#DejaVuSans-30"/>
      </g>
     </g>
    </g>
    <g id="xtick_5">
     <g id="line2d_5">
      <g>
       <use style="stroke:#000000;stroke-width:0.8;" x="622.636364" xlink:href="#ma19e13d096" y="199.567059"/>
      </g>
     </g>
     <g id="text_5">
      <!-- 200 -->
      <g transform="translate(601.640114 223.283621)scale(0.22 -0.22)">
       <defs>
        <path d="M 1228 531 
L 3431 531 
L 3431 0 
L 469 0 
L 469 531 
Q 828 903 1448 1529 
Q 2069 2156 2228 2338 
Q 2531 2678 2651 2914 
Q 2772 3150 2772 3378 
Q 2772 3750 2511 3984 
Q 2250 4219 1831 4219 
Q 1534 4219 1204 4116 
Q 875 4013 500 3803 
L 500 4441 
Q 881 4594 1212 4672 
Q 1544 4750 1819 4750 
Q 2544 4750 2975 4387 
Q 3406 4025 3406 3419 
Q 3406 3131 3298 2873 
Q 3191 2616 2906 2266 
Q 2828 2175 2409 1742 
Q 1991 1309 1228 531 
z
" id="DejaVuSans-32" transform="scale(0.015625)"/>
       </defs>
       <use xlink:href="#DejaVuSans-32"/>
       <use x="63.623047" xlink:href="#DejaVuSans-30"/>
       <use x="127.246094" xlink:href="#DejaVuSans-30"/>
      </g>
     </g>
    </g>
   </g>
   <g id="matplotlib.axis_2">
    <g id="ytick_1">
     <g id="line2d_6">
      <defs>
       <path d="M 0 0 
L -3.5 0 
" id="m1ed92ed7ec" style="stroke:#000000;stroke-width:0.8;"/>
      </defs>
      <g>
       <use style="stroke:#000000;stroke-width:0.8;" x="90" xlink:href="#m1ed92ed7ec" y="193.637647"/>
      </g>
     </g>
     <g id="text_6">
      <!-- 0 -->
      <g transform="translate(69.0025 201.995928)scale(0.22 -0.22)">
       <use xlink:href="#DejaVuSans-30"/>
      </g>
     </g>
    </g>
    <g id="ytick_2">
     <g id="line2d_7">
      <g>
       <use style="stroke:#000000;stroke-width:0.8;" x="90" xlink:href="#m1ed92ed7ec" y="99.610546"/>
      </g>
     </g>
     <g id="text_7">
      <!-- 2 -->
      <g transform="translate(69.0025 107.968828)scale(0.22 -0.22)">
       <use xlink:href="#DejaVuSans-32"/>
      </g>
     </g>
    </g>
    <g id="text_8">
     <!-- Azimuth [rad] -->
     <g transform="translate(60.427187 209.992592)rotate(-90)scale(0.22 -0.22)">
      <defs>
       <path d="M 2188 4044 
L 1331 1722 
L 3047 1722 
L 2188 4044 
z
M 1831 4666 
L 2547 4666 
L 4325 0 
L 3669 0 
L 3244 1197 
L 1141 1197 
L 716 0 
L 50 0 
L 1831 4666 
z
" id="DejaVuSans-41" transform="scale(0.015625)"/>
       <path d="M 353 3500 
L 3084 3500 
L 3084 2975 
L 922 459 
L 3084 459 
L 3084 0 
L 275 0 
L 275 525 
L 2438 3041 
L 353 3041 
L 353 3500 
z
" id="DejaVuSans-7a" transform="scale(0.015625)"/>
       <path d="M 603 3500 
L 1178 3500 
L 1178 0 
L 603 0 
L 603 3500 
z
M 603 4863 
L 1178 4863 
L 1178 4134 
L 603 4134 
L 603 4863 
z
" id="DejaVuSans-69" transform="scale(0.015625)"/>
       <path d="M 3328 2828 
Q 3544 3216 3844 3400 
Q 4144 3584 4550 3584 
Q 5097 3584 5394 3201 
Q 5691 2819 5691 2113 
L 5691 0 
L 5113 0 
L 5113 2094 
Q 5113 2597 4934 2840 
Q 4756 3084 4391 3084 
Q 3944 3084 3684 2787 
Q 3425 2491 3425 1978 
L 3425 0 
L 2847 0 
L 2847 2094 
Q 2847 2600 2669 2842 
Q 2491 3084 2119 3084 
Q 1678 3084 1418 2786 
Q 1159 2488 1159 1978 
L 1159 0 
L 581 0 
L 581 3500 
L 1159 3500 
L 1159 2956 
Q 1356 3278 1631 3431 
Q 1906 3584 2284 3584 
Q 2666 3584 2933 3390 
Q 3200 3197 3328 2828 
z
" id="DejaVuSans-6d" transform="scale(0.015625)"/>
       <path d="M 544 1381 
L 544 3500 
L 1119 3500 
L 1119 1403 
Q 1119 906 1312 657 
Q 1506 409 1894 409 
Q 2359 409 2629 706 
Q 2900 1003 2900 1516 
L 2900 3500 
L 3475 3500 
L 3475 0 
L 2900 0 
L 2900 538 
Q 2691 219 2414 64 
Q 2138 -91 1772 -91 
Q 1169 -91 856 284 
Q 544 659 544 1381 
z
M 1991 3584 
L 1991 3584 
z
" id="DejaVuSans-75" transform="scale(0.015625)"/>
       <path d="M 1172 4494 
L 1172 3500 
L 2356 3500 
L 2356 3053 
L 1172 3053 
L 1172 1153 
Q 1172 725 1289 603 
Q 1406 481 1766 481 
L 2356 481 
L 2356 0 
L 1766 0 
Q 1100 0 847 248 
Q 594 497 594 1153 
L 594 3053 
L 172 3053 
L 172 3500 
L 594 3500 
L 594 4494 
L 1172 4494 
z
" id="DejaVuSans-74" transform="scale(0.015625)"/>
       <path d="M 3513 2113 
L 3513 0 
L 2938 0 
L 2938 2094 
Q 2938 2591 2744 2837 
Q 2550 3084 2163 3084 
Q 1697 3084 1428 2787 
Q 1159 2491 1159 1978 
L 1159 0 
L 581 0 
L 581 4863 
L 1159 4863 
L 1159 2956 
Q 1366 3272 1645 3428 
Q 1925 3584 2291 3584 
Q 2894 3584 3203 3211 
Q 3513 2838 3513 2113 
z
" id="DejaVuSans-68" transform="scale(0.015625)"/>
       <path id="DejaVuSans-20" transform="scale(0.015625)"/>
       <path d="M 550 4863 
L 1875 4863 
L 1875 4416 
L 1125 4416 
L 1125 -397 
L 1875 -397 
L 1875 -844 
L 550 -844 
L 550 4863 
z
" id="DejaVuSans-5b" transform="scale(0.015625)"/>
       <path d="M 2631 2963 
Q 2534 3019 2420 3045 
Q 2306 3072 2169 3072 
Q 1681 3072 1420 2755 
Q 1159 2438 1159 1844 
L 1159 0 
L 581 0 
L 581 3500 
L 1159 3500 
L 1159 2956 
Q 1341 3275 1631 3429 
Q 1922 3584 2338 3584 
Q 2397 3584 2469 3576 
Q 2541 3569 2628 3553 
L 2631 2963 
z
" id="DejaVuSans-72" transform="scale(0.015625)"/>
       <path d="M 2194 1759 
Q 1497 1759 1228 1600 
Q 959 1441 959 1056 
Q 959 750 1161 570 
Q 1363 391 1709 391 
Q 2188 391 2477 730 
Q 2766 1069 2766 1631 
L 2766 1759 
L 2194 1759 
z
M 3341 1997 
L 3341 0 
L 2766 0 
L 2766 531 
Q 2569 213 2275 61 
Q 1981 -91 1556 -91 
Q 1019 -91 701 211 
Q 384 513 384 1019 
Q 384 1609 779 1909 
Q 1175 2209 1959 2209 
L 2766 2209 
L 2766 2266 
Q 2766 2663 2505 2880 
Q 2244 3097 1772 3097 
Q 1472 3097 1187 3025 
Q 903 2953 641 2809 
L 641 3341 
Q 956 3463 1253 3523 
Q 1550 3584 1831 3584 
Q 2591 3584 2966 3190 
Q 3341 2797 3341 1997 
z
" id="DejaVuSans-61" transform="scale(0.015625)"/>
       <path d="M 2906 2969 
L 2906 4863 
L 3481 4863 
L 3481 0 
L 2906 0 
L 2906 525 
Q 2725 213 2448 61 
Q 2172 -91 1784 -91 
Q 1150 -91 751 415 
Q 353 922 353 1747 
Q 353 2572 751 3078 
Q 1150 3584 1784 3584 
Q 2172 3584 2448 3432 
Q 2725 3281 2906 2969 
z
M 947 1747 
Q 947 1113 1208 752 
Q 1469 391 1925 391 
Q 2381 391 2643 752 
Q 2906 1113 2906 1747 
Q 2906 2381 2643 2742 
Q 2381 3103 1925 3103 
Q 1469 3103 1208 2742 
Q 947 2381 947 1747 
z
" id="DejaVuSans-64" transform="scale(0.015625)"/>
       <path d="M 1947 4863 
L 1947 -844 
L 622 -844 
L 622 -397 
L 1369 -397 
L 1369 4416 
L 622 4416 
L 622 4863 
L 1947 4863 
z
" id="DejaVuSans-5d" transform="scale(0.015625)"/>
      </defs>
      <use xlink:href="#DejaVuSans-41"/>
      <use x="68.408203" xlink:href="#DejaVuSans-7a"/>
      <use x="120.898438" xlink:href="#DejaVuSans-69"/>
      <use x="148.681641" xlink:href="#DejaVuSans-6d"/>
      <use x="246.09375" xlink:href="#DejaVuSans-75"/>
      <use x="309.472656" xlink:href="#DejaVuSans-74"/>
      <use x="348.681641" xlink:href="#DejaVuSans-68"/>
      <use x="412.060547" xlink:href="#DejaVuSans-20"/>
      <use x="443.847656" xlink:href="#DejaVuSans-5b"/>
      <use x="482.861328" xlink:href="#DejaVuSans-72"/>
      <use x="523.974609" xlink:href="#DejaVuSans-61"/>
      <use x="585.253906" xlink:href="#DejaVuSans-64"/>
      <use x="648.730469" xlink:href="#DejaVuSans-5d"/>
     </g>
    </g>
    <g id="text_9">
     <!-- 1e−13 -->
     <g transform="translate(90 66.12)scale(0.22 -0.22)">
      <defs>
       <path d="M 3597 1894 
L 3597 1613 
L 953 1613 
Q 991 1019 1311 708 
Q 1631 397 2203 397 
Q 2534 397 2845 478 
Q 3156 559 3463 722 
L 3463 178 
Q 3153 47 2828 -22 
Q 2503 -91 2169 -91 
Q 1331 -91 842 396 
Q 353 884 353 1716 
Q 353 2575 817 3079 
Q 1281 3584 2069 3584 
Q 2775 3584 3186 3129 
Q 3597 2675 3597 1894 
z
M 3022 2063 
Q 3016 2534 2758 2815 
Q 2500 3097 2075 3097 
Q 1594 3097 1305 2825 
Q 1016 2553 972 2059 
L 3022 2063 
z
" id="DejaVuSans-65" transform="scale(0.015625)"/>
       <path d="M 678 2272 
L 4684 2272 
L 4684 1741 
L 678 1741 
L 678 2272 
z
" id="DejaVuSans-2212" transform="scale(0.015625)"/>
       <path d="M 2597 2516 
Q 3050 2419 3304 2112 
Q 3559 1806 3559 1356 
Q 3559 666 3084 287 
Q 2609 -91 1734 -91 
Q 1441 -91 1130 -33 
Q 819 25 488 141 
L 488 750 
Q 750 597 1062 519 
Q 1375 441 1716 441 
Q 2309 441 2620 675 
Q 2931 909 2931 1356 
Q 2931 1769 2642 2001 
Q 2353 2234 1838 2234 
L 1294 2234 
L 1294 2753 
L 1863 2753 
Q 2328 2753 2575 2939 
Q 2822 3125 2822 3475 
Q 2822 3834 2567 4026 
Q 2313 4219 1838 4219 
Q 1578 4219 1281 4162 
Q 984 4106 628 3988 
L 628 4550 
Q 988 4650 1302 4700 
Q 1616 4750 1894 4750 
Q 2613 4750 3031 4423 
Q 3450 4097 3450 3541 
Q 3450 3153 3228 2886 
Q 3006 2619 2597 2516 
z
" id="DejaVuSans-33" transform="scale(0.015625)"/>
      </defs>
      <use xlink:href="#DejaVuSans-31"/>
      <use x="63.623047" xlink:href="#DejaVuSans-65"/>
      <use x="125.146484" xlink:href="#DejaVuSans-2212"/>
      <use x="208.935547" xlink:href="#DejaVuSans-31"/>
      <use x="272.558594" xlink:href="#DejaVuSans-33"/>
     </g>
    </g>
   </g>
   <g id="line2d_8">
    <path clip-path="url(#pa88cc57753)" d="M 115.363636 193.637647 
L 118.660909 193.588714 
L 120.69 193.585452 
L 124.494545 193.611549 
L 125.255455 193.591976 
L 126.777273 193.5985 
L 127.538182 193.5985 
L 129.820909 193.611549 
L 139.966364 193.507158 
L 142.249091 193.376669 
L 144.278182 193.272278 
L 146.053636 193.193985 
L 148.082727 193.089594 
L 150.111818 192.90691 
L 150.365455 192.985203 
L 150.619091 192.854714 
L 150.872727 192.959105 
L 151.126364 192.854714 
L 151.38 192.933007 
L 151.633636 192.802519 
L 151.887273 192.90691 
L 152.140909 192.776421 
L 152.394545 192.880812 
L 152.648182 192.776421 
L 152.901818 192.854714 
L 153.155455 192.724225 
L 153.409091 192.828616 
L 153.662727 192.724225 
L 153.916364 192.802519 
L 154.17 192.698128 
L 154.423636 192.776421 
L 154.677273 192.645932 
L 154.930909 192.776421 
L 155.184545 192.645932 
L 155.691818 192.828616 
L 156.199091 192.593737 
L 156.96 192.698128 
L 157.213636 192.541541 
L 157.720909 192.698128 
L 158.228182 192.489345 
L 158.735455 192.698128 
L 159.242727 192.43715 
L 159.75 192.593737 
L 160.510909 192.489345 
L 160.764545 192.593737 
L 161.271818 192.332759 
L 161.779091 192.541541 
L 162.286364 192.280563 
L 162.793636 192.43715 
L 163.554545 192.332759 
L 163.808182 192.43715 
L 164.315455 192.176172 
L 164.822727 192.384954 
L 165.33 192.176172 
L 165.837273 192.332759 
L 166.344545 192.123977 
L 166.851818 192.280563 
L 167.359091 192.019586 
L 167.866364 192.280563 
L 168.373636 192.019586 
L 169.134545 192.071781 
L 169.388182 191.96739 
L 169.895455 192.123977 
L 170.402727 191.915195 
L 171.163636 191.96739 
L 171.417273 191.862999 
L 171.924545 192.019586 
L 172.431818 191.810804 
L 172.939091 192.019586 
L 173.446364 191.758608 
L 174.207273 191.862999 
L 174.460909 191.706413 
L 174.968182 191.862999 
L 175.475455 191.706413 
L 175.982727 191.862999 
L 176.49 191.602022 
L 176.997273 191.758608 
L 177.758182 191.654217 
L 178.011818 191.758608 
L 178.519091 191.49763 
L 179.026364 191.706413 
L 179.533636 191.445435 
L 180.040909 191.602022 
L 180.801818 191.49763 
L 181.055455 191.602022 
L 181.562727 191.341044 
L 182.07 191.549826 
L 182.577273 191.288848 
L 183.084545 191.49763 
L 183.591818 191.288848 
L 184.352727 191.341044 
L 184.606364 191.184457 
L 185.113636 191.393239 
L 185.620909 191.184457 
L 186.381818 191.236653 
L 186.635455 191.132262 
L 187.142727 191.288848 
L 187.65 191.027871 
L 188.157273 191.288848 
L 188.664545 191.027871 
L 189.425455 191.080066 
L 189.679091 190.975675 
L 190.186364 191.132262 
L 190.693636 190.92348 
L 191.454545 190.975675 
L 191.708182 190.871284 
L 192.215455 191.027871 
L 192.722727 190.819089 
L 193.23 191.027871 
L 193.737273 190.766893 
L 194.498182 190.871284 
L 194.751818 190.714698 
L 195.259091 190.871284 
L 195.766364 190.714698 
L 196.273636 190.819089 
L 196.780909 190.610307 
L 197.288182 190.819089 
L 197.795455 190.505915 
L 198.556364 190.714698 
L 198.81 190.505915 
L 199.317273 190.714698 
L 200.078182 190.505915 
L 200.331818 190.610307 
L 200.839091 190.401524 
L 201.346364 190.610307 
L 201.853636 190.401524 
L 202.360909 190.610307 
L 202.868182 190.297133 
L 203.375455 190.505915 
L 204.136364 190.297133 
L 204.39 190.505915 
L 205.150909 190.297133 
L 205.404545 190.401524 
L 205.911818 190.192742 
L 206.419091 190.297133 
L 206.926364 190.088351 
L 207.433636 190.297133 
L 207.940909 190.088351 
L 208.448182 190.297133 
L 209.209091 190.088351 
L 209.462727 190.192742 
L 210.223636 189.98396 
L 210.730909 190.088351 
L 210.984545 189.98396 
L 211.491818 190.088351 
L 211.999091 189.879569 
L 212.506364 190.088351 
L 213.267273 189.879569 
L 213.774545 189.98396 
L 214.281818 189.879569 
L 214.535455 189.98396 
L 215.042727 189.775178 
L 215.55 189.879569 
L 216.057273 189.670787 
L 216.564545 189.879569 
L 216.818182 189.670787 
L 217.325455 189.775178 
L 217.579091 189.879569 
L 218.34 189.670787 
L 218.593636 189.775178 
L 219.354545 189.566396 
L 219.608182 189.670787 
L 220.115455 189.566396 
L 220.622727 189.670787 
L 221.13 189.462005 
L 221.637273 189.670787 
L 222.144545 189.357614 
L 222.651818 189.566396 
L 223.159091 189.357614 
L 223.666364 189.566396 
L 224.427273 189.357614 
L 224.680909 189.462005 
L 225.188182 189.253223 
L 225.695455 189.357614 
L 226.202727 189.253223 
L 226.71 189.462005 
L 227.217273 189.148832 
L 227.724545 189.357614 
L 228.485455 189.148832 
L 228.739091 189.253223 
L 229.246364 189.044441 
L 229.753636 189.253223 
L 230.260909 189.044441 
L 230.768182 189.148832 
L 231.275455 188.94005 
L 231.782727 189.148832 
L 232.29 188.835659 
L 232.797273 189.148832 
L 233.558182 188.94005 
L 233.811818 189.044441 
L 234.572727 188.835659 
L 234.826364 188.94005 
L 235.333636 188.731268 
L 235.587273 188.94005 
L 236.094545 188.835659 
L 236.348182 188.731268 
L 236.855455 188.94005 
L 237.362727 188.626877 
L 237.87 188.835659 
L 238.630909 188.626877 
L 238.884545 188.835659 
L 239.645455 188.626877 
L 239.899091 188.731268 
L 240.406364 188.522486 
L 240.913636 188.626877 
L 241.420909 188.418094 
L 241.928182 188.731268 
L 242.435455 188.418094 
L 242.942727 188.626877 
L 243.703636 188.418094 
L 243.957273 188.522486 
L 244.718182 188.313703 
L 244.971818 188.522486 
L 245.479091 188.313703 
L 245.986364 188.418094 
L 246.493636 188.209312 
L 247.000909 188.418094 
L 247.508182 188.104921 
L 248.269091 188.313703 
L 248.522727 188.104921 
L 249.03 188.313703 
L 249.790909 188.104921 
L 250.044545 188.209312 
L 250.551818 188.00053 
L 251.059091 188.104921 
L 252.327273 188.00053 
L 252.580909 187.896139 
L 253.088182 188.104921 
L 253.849091 187.896139 
L 254.356364 188.00053 
L 254.863636 187.896139 
L 255.117273 188.00053 
L 255.624545 187.791748 
L 256.131818 187.896139 
L 256.639091 187.687357 
L 257.146364 187.896139 
L 257.653636 187.687357 
L 258.160909 187.896139 
L 258.921818 187.687357 
L 259.175455 187.791748 
L 259.936364 187.582966 
L 260.19 187.687357 
L 260.697273 187.582966 
L 261.204545 187.687357 
L 261.711818 187.478575 
L 262.219091 187.687357 
L 262.726364 187.374184 
L 263.233636 187.582966 
L 263.740909 187.374184 
L 264.248182 187.582966 
L 265.009091 187.374184 
L 265.262727 187.478575 
L 265.77 187.269793 
L 266.277273 187.374184 
L 266.784545 187.269793 
L 267.291818 187.478575 
L 267.799091 187.165402 
L 268.306364 187.374184 
L 269.067273 187.165402 
L 269.320909 187.269793 
L 269.828182 187.061011 
L 270.335455 187.269793 
L 270.842727 187.061011 
L 271.35 187.165402 
L 271.857273 186.95662 
L 272.364545 187.165402 
L 272.871818 186.852229 
L 273.379091 187.165402 
L 274.14 186.95662 
L 274.393636 187.061011 
L 275.154545 186.852229 
L 275.408182 186.95662 
L 275.915455 186.747838 
L 276.169091 186.95662 
L 277.183636 186.95662 
L 277.437273 187.165402 
L 277.690909 187.165402 
L 277.944545 187.374184 
L 278.451818 187.374184 
L 278.705455 187.582966 
L 278.959091 187.582966 
L 279.212727 187.791748 
L 279.72 187.791748 
L 279.973636 188.00053 
L 280.227273 188.00053 
L 280.480909 188.209312 
L 280.734545 188.209312 
L 281.241818 188.626877 
L 281.495455 188.626877 
L 281.749091 188.835659 
L 282.256364 188.835659 
L 282.51 189.044441 
L 282.763636 189.044441 
L 283.017273 189.253223 
L 283.524545 189.253223 
L 283.778182 189.462005 
L 284.031818 189.462005 
L 284.285455 189.670787 
L 284.792727 189.670787 
L 285.046364 189.879569 
L 285.3 189.879569 
L 285.553636 190.088351 
L 286.060909 190.088351 
L 286.314545 190.297133 
L 286.568182 190.297133 
L 287.075455 190.714698 
L 287.329091 190.714698 
L 287.582727 190.92348 
L 287.836364 190.92348 
L 288.09 191.132262 
L 288.597273 191.132262 
L 288.850909 191.341044 
L 289.104545 191.341044 
L 289.358182 191.549826 
L 289.865455 191.549826 
L 290.119091 191.758608 
L 290.372727 191.758608 
L 290.626364 191.96739 
L 291.133636 191.96739 
L 291.387273 192.176172 
L 291.640909 192.176172 
L 291.894545 192.384954 
L 292.401818 192.384954 
L 292.655455 192.593737 
L 292.909091 192.593737 
L 293.416364 193.011301 
L 293.67 193.011301 
L 293.923636 193.220083 
L 294.177273 193.220083 
L 294.430909 193.428865 
L 294.938182 193.428865 
L 295.191818 193.637647 
L 295.445455 193.637647 
L 295.699091 193.428865 
L 296.206364 193.428865 
L 296.46 193.220083 
L 296.713636 193.220083 
L 296.967273 193.011301 
L 297.474545 193.011301 
L 297.728182 192.802519 
L 297.981818 192.802519 
L 298.235455 192.593737 
L 298.742727 192.593737 
L 298.996364 192.384954 
L 299.25 192.384954 
L 299.757273 191.96739 
L 300.010909 191.96739 
L 300.264545 191.758608 
L 300.518182 191.758608 
L 300.771818 191.549826 
L 301.279091 191.549826 
L 301.532727 191.341044 
L 301.786364 191.341044 
L 302.04 191.132262 
L 302.547273 191.132262 
L 302.800909 190.92348 
L 303.054545 190.92348 
L 303.308182 190.714698 
L 303.815455 190.714698 
L 304.069091 190.505915 
L 304.322727 190.505915 
L 304.576364 190.297133 
L 305.083636 190.297133 
L 305.337273 190.088351 
L 305.590909 190.088351 
L 305.844545 189.670787 
L 306.351818 189.670787 
L 306.605455 189.462005 
L 306.859091 189.462005 
L 307.112727 189.253223 
L 307.62 189.253223 
L 307.873636 189.044441 
L 308.127273 189.044441 
L 308.380909 188.835659 
L 308.888182 188.835659 
L 309.141818 188.626877 
L 309.395455 188.626877 
L 309.649091 188.418094 
L 309.902727 188.418094 
L 310.156364 188.209312 
L 310.663636 188.209312 
L 310.917273 188.00053 
L 311.170909 188.00053 
L 311.678182 187.582966 
L 311.931818 187.582966 
L 312.185455 187.165402 
L 312.439091 187.165402 
L 312.692727 186.95662 
L 313.2 186.95662 
L 313.453636 186.747838 
L 313.707273 186.747838 
L 313.960909 186.539056 
L 314.468182 186.539056 
L 314.721818 186.330273 
L 314.975455 186.330273 
L 315.229091 186.121491 
L 315.736364 186.121491 
L 315.99 185.912709 
L 316.243636 185.912709 
L 316.497273 185.703927 
L 317.004545 185.703927 
L 317.258182 185.495145 
L 317.511818 185.495145 
L 317.765455 185.286363 
L 318.272727 185.286363 
L 318.526364 184.868799 
L 318.78 184.868799 
L 319.033636 184.660017 
L 319.540909 184.660017 
L 319.794545 184.451234 
L 320.048182 184.451234 
L 320.301818 184.242452 
L 320.809091 184.242452 
L 321.062727 184.03367 
L 321.316364 184.03367 
L 321.57 183.824888 
L 322.077273 183.824888 
L 322.330909 183.616106 
L 322.584545 183.616106 
L 322.838182 183.407324 
L 323.345455 183.407324 
L 323.599091 183.198542 
L 323.852727 183.198542 
L 324.106364 182.98976 
L 324.36 182.98976 
L 324.867273 182.572196 
L 325.120909 182.572196 
L 325.374545 182.363413 
L 325.881818 182.363413 
L 326.135455 182.154631 
L 326.389091 182.154631 
L 326.642727 181.945849 
L 327.15 181.945849 
L 327.403636 181.737067 
L 327.657273 181.737067 
L 327.910909 181.528285 
L 328.418182 181.528285 
L 328.671818 181.319503 
L 328.925455 181.319503 
L 329.179091 181.110721 
L 329.686364 181.110721 
L 329.94 180.901939 
L 330.193636 180.901939 
L 330.447273 180.693157 
L 330.700909 180.693157 
L 331.208182 180.275592 
L 331.461818 180.275592 
L 331.715455 180.06681 
L 332.222727 180.06681 
L 332.476364 179.858028 
L 332.73 179.858028 
L 332.983636 179.649246 
L 333.490909 179.649246 
L 333.744545 179.440464 
L 333.998182 179.440464 
L 334.251818 179.231682 
L 334.759091 179.231682 
L 335.012727 179.0229 
L 335.266364 179.0229 
L 335.52 178.814118 
L 336.027273 178.814118 
L 336.280909 178.605336 
L 336.534545 178.605336 
L 337.041818 178.187771 
L 337.295455 178.187771 
L 337.549091 177.978989 
L 337.802727 177.978989 
L 338.056364 177.770207 
L 338.563636 177.770207 
L 338.817273 177.561425 
L 339.070909 177.561425 
L 339.324545 177.352643 
L 339.831818 177.352643 
L 340.085455 177.143861 
L 340.339091 177.143861 
L 340.592727 176.935079 
L 341.1 176.935079 
L 341.353636 176.726297 
L 341.607273 176.726297 
L 341.860909 176.517514 
L 342.368182 176.517514 
L 342.621818 176.308732 
L 342.875455 176.308732 
L 343.382727 175.891168 
L 343.636364 175.891168 
L 343.89 175.682386 
L 344.143636 175.682386 
L 344.397273 175.473604 
L 344.904545 175.473604 
L 345.158182 175.264822 
L 345.411818 175.264822 
L 345.665455 175.05604 
L 346.172727 175.05604 
L 346.426364 174.847258 
L 346.68 174.847258 
L 346.933636 174.638476 
L 347.440909 174.638476 
L 347.694545 174.429693 
L 347.948182 174.429693 
L 348.201818 174.220911 
L 348.709091 174.220911 
L 348.962727 174.012129 
L 349.216364 174.012129 
L 349.47 173.594565 
L 349.977273 173.594565 
L 350.230909 173.385783 
L 350.484545 173.385783 
L 350.738182 173.177001 
L 351.245455 173.177001 
L 351.499091 172.968219 
L 351.752727 172.968219 
L 352.006364 172.759437 
L 352.513636 172.759437 
L 352.767273 172.550655 
L 353.020909 172.550655 
L 353.274545 172.341872 
L 353.781818 172.341872 
L 354.035455 172.13309 
L 354.289091 172.13309 
L 354.542727 171.924308 
L 355.05 171.924308 
L 355.303636 171.715526 
L 355.557273 171.715526 
L 355.810909 171.297962 
L 356.318182 171.297962 
L 356.571818 171.08918 
L 356.825455 171.08918 
L 357.079091 170.880398 
L 357.586364 170.880398 
L 357.84 170.671616 
L 358.093636 170.671616 
L 358.347273 170.462833 
L 358.854545 170.462833 
L 359.108182 170.254051 
L 359.361818 170.254051 
L 359.615455 170.045269 
L 360.122727 170.045269 
L 360.376364 169.836487 
L 360.63 169.836487 
L 360.883636 169.627705 
L 361.390909 169.627705 
L 361.644545 169.418923 
L 361.898182 169.418923 
L 362.151818 169.001359 
L 362.659091 169.001359 
L 362.912727 168.792577 
L 363.166364 168.792577 
L 363.42 168.583795 
L 363.927273 168.583795 
L 364.180909 168.375012 
L 364.434545 168.375012 
L 364.688182 168.16623 
L 365.195455 168.16623 
L 365.449091 167.957448 
L 365.702727 167.957448 
L 365.956364 167.748666 
L 366.463636 167.748666 
L 366.717273 167.539884 
L 366.970909 167.539884 
L 367.224545 167.331102 
L 367.731818 167.331102 
L 368.492727 166.704756 
L 369 166.704756 
L 369.253636 166.495973 
L 369.507273 166.495973 
L 369.760909 166.287191 
L 370.268182 166.287191 
L 370.521818 166.078409 
L 370.775455 166.078409 
L 371.029091 165.869627 
L 371.536364 165.869627 
L 371.79 165.660845 
L 372.043636 165.660845 
L 372.297273 165.452063 
L 372.804545 165.452063 
L 373.058182 165.243281 
L 373.311818 165.243281 
L 373.565455 165.034499 
L 374.072727 165.034499 
L 374.833636 164.408152 
L 375.340909 164.408152 
L 375.594545 164.19937 
L 375.848182 164.19937 
L 376.101818 163.990588 
L 376.609091 163.990588 
L 376.862727 163.781806 
L 377.116364 163.781806 
L 377.37 163.573024 
L 377.877273 163.573024 
L 378.130909 163.364242 
L 378.384545 163.364242 
L 378.638182 163.15546 
L 379.145455 163.15546 
L 379.399091 162.946678 
L 379.652727 162.946678 
L 379.906364 162.737896 
L 380.413636 162.737896 
L 381.174545 162.111549 
L 381.681818 162.111549 
L 381.935455 161.902767 
L 382.189091 161.902767 
L 382.442727 161.693985 
L 382.95 161.693985 
L 383.203636 161.485203 
L 383.457273 161.485203 
L 383.710909 161.276421 
L 384.218182 161.276421 
L 384.471818 161.067639 
L 384.725455 161.067639 
L 384.979091 160.858857 
L 385.486364 160.858857 
L 385.74 160.650075 
L 385.993636 160.650075 
L 386.247273 160.441292 
L 386.754545 160.441292 
L 387.008182 160.023728 
L 387.261818 160.023728 
L 387.515455 159.814946 
L 388.022727 159.814946 
L 388.276364 159.606164 
L 388.53 159.606164 
L 388.783636 159.397382 
L 389.290909 159.397382 
L 389.544545 159.1886 
L 389.798182 159.1886 
L 390.051818 158.979818 
L 390.559091 158.979818 
L 390.812727 158.771036 
L 391.066364 158.771036 
L 391.32 158.562254 
L 391.827273 158.562254 
L 392.080909 158.353471 
L 392.334545 158.353471 
L 392.588182 158.144689 
L 393.095455 158.144689 
L 393.349091 157.727125 
L 393.602727 157.727125 
L 393.856364 157.518343 
L 394.363636 157.518343 
L 394.617273 157.309561 
L 394.870909 157.309561 
L 395.124545 157.100779 
L 395.631818 157.100779 
L 395.885455 156.891997 
L 396.139091 156.891997 
L 396.392727 156.683215 
L 396.9 156.683215 
L 397.153636 156.474432 
L 397.407273 156.474432 
L 397.660909 156.26565 
L 398.168182 156.26565 
L 398.421818 156.056868 
L 398.675455 156.056868 
L 398.929091 155.848086 
L 399.182727 155.848086 
L 399.69 155.430522 
L 399.943636 155.430522 
L 400.197273 155.22174 
L 400.704545 155.22174 
L 400.958182 155.012958 
L 401.211818 155.012958 
L 401.465455 154.804176 
L 401.972727 154.804176 
L 402.226364 154.595394 
L 402.48 154.595394 
L 402.733636 154.386611 
L 403.240909 154.386611 
L 403.494545 154.177829 
L 403.748182 154.177829 
L 404.001818 153.969047 
L 404.509091 153.969047 
L 404.762727 153.760265 
L 405.016364 153.760265 
L 405.27 153.551483 
L 405.523636 153.551483 
L 406.030909 153.133919 
L 406.284545 153.133919 
L 406.538182 152.925137 
L 407.045455 152.925137 
L 407.299091 152.716355 
L 407.552727 152.716355 
L 407.806364 152.507572 
L 408.313636 152.507572 
L 408.567273 152.29879 
L 408.820909 152.29879 
L 409.074545 152.090008 
L 409.581818 152.090008 
L 409.835455 151.881226 
L 410.089091 151.881226 
L 410.342727 151.672444 
L 410.85 151.672444 
L 411.103636 151.463662 
L 411.357273 151.463662 
L 411.610909 151.25488 
L 411.864545 151.25488 
L 412.371818 150.837316 
L 412.625455 150.837316 
L 412.879091 150.628534 
L 413.386364 150.628534 
L 413.64 150.419751 
L 413.893636 150.419751 
L 414.147273 150.210969 
L 414.654545 150.210969 
L 414.908182 150.002187 
L 415.161818 150.002187 
L 415.415455 149.793405 
L 415.922727 149.793405 
L 416.176364 149.584623 
L 416.43 149.584623 
L 416.683636 149.375841 
L 417.190909 149.375841 
L 417.444545 149.167059 
L 417.698182 149.167059 
L 418.205455 148.749495 
L 418.459091 148.749495 
L 418.712727 148.540713 
L 418.966364 148.540713 
L 419.22 148.33193 
L 419.727273 148.33193 
L 419.980909 148.123148 
L 420.234545 148.123148 
L 420.488182 147.914366 
L 420.995455 147.914366 
L 421.249091 147.705584 
L 421.502727 147.705584 
L 421.756364 147.496802 
L 422.263636 147.496802 
L 422.517273 147.28802 
L 422.770909 147.28802 
L 423.024545 147.079238 
L 423.531818 147.079238 
L 423.785455 146.870456 
L 424.039091 146.870456 
L 424.546364 146.452891 
L 424.8 146.452891 
L 425.053636 146.244109 
L 425.307273 146.244109 
L 425.560909 146.035327 
L 426.068182 146.035327 
L 426.321818 145.826545 
L 426.575455 145.826545 
L 426.829091 145.617763 
L 427.336364 145.617763 
L 427.59 145.408981 
L 427.843636 145.408981 
L 428.097273 145.200199 
L 428.604545 145.200199 
L 428.858182 144.991417 
L 429.111818 144.991417 
L 429.365455 144.782635 
L 429.872727 144.782635 
L 430.126364 144.573853 
L 430.38 144.573853 
L 430.633636 144.156288 
L 431.140909 144.156288 
L 431.394545 143.947506 
L 431.648182 143.947506 
L 431.901818 143.738724 
L 432.409091 143.738724 
L 432.662727 143.529942 
L 432.916364 143.529942 
L 433.17 143.32116 
L 433.677273 143.32116 
L 433.930909 143.112378 
L 434.184545 143.112378 
L 434.438182 142.903596 
L 434.945455 142.903596 
L 435.199091 142.694814 
L 435.452727 142.694814 
L 435.706364 142.486031 
L 436.213636 142.486031 
L 436.467273 142.277249 
L 436.720909 142.277249 
L 436.974545 141.859685 
L 437.481818 141.859685 
L 437.735455 141.650903 
L 437.989091 141.650903 
L 438.242727 141.859685 
L 439.257273 141.859685 
L 439.510909 141.442121 
L 440.271818 141.442121 
L 440.525455 141.024557 
L 441.54 141.024557 
L 441.793636 140.606993 
L 442.808182 140.606993 
L 443.061818 140.189428 
L 444.076364 140.189428 
L 444.33 139.771864 
L 445.344545 139.771864 
L 445.598182 139.3543 
L 446.105455 139.3543 
L 446.359091 138.936736 
L 446.612727 138.936736 
L 446.866364 138.519171 
L 447.880909 138.519171 
L 448.134545 138.101607 
L 449.149091 138.101607 
L 449.402727 137.684043 
L 450.417273 137.684043 
L 450.670909 137.266479 
L 451.685455 137.266479 
L 451.939091 136.848915 
L 452.953636 136.848915 
L 453.207273 136.43135 
L 454.221818 136.43135 
L 454.475455 136.013786 
L 455.49 136.013786 
L 455.743636 135.596222 
L 456.758182 135.596222 
L 457.011818 135.178658 
L 458.026364 135.178658 
L 458.28 134.761094 
L 458.533636 134.761094 
L 458.787273 134.343529 
L 459.294545 134.343529 
L 459.548182 133.925965 
L 460.562727 133.925965 
L 460.816364 133.508401 
L 461.830909 133.508401 
L 462.084545 133.090837 
L 463.099091 133.090837 
L 463.352727 132.673273 
L 464.367273 132.673273 
L 464.620909 132.255708 
L 465.635455 132.255708 
L 465.889091 131.838144 
L 466.903636 131.838144 
L 467.157273 131.42058 
L 468.171818 131.42058 
L 468.425455 131.003016 
L 469.44 131.003016 
L 469.693636 130.585452 
L 470.708182 130.585452 
L 471.215455 129.750323 
L 471.976364 129.750323 
L 472.23 129.332759 
L 473.244545 129.332759 
L 473.498182 128.915195 
L 474.512727 128.915195 
L 474.766364 128.49763 
L 475.780909 128.49763 
L 476.034545 128.080066 
L 477.049091 128.080066 
L 477.302727 127.662502 
L 478.317273 127.662502 
L 478.570909 127.244938 
L 479.585455 127.244938 
L 479.839091 126.827374 
L 480.853636 126.827374 
L 481.107273 126.409809 
L 482.121818 126.409809 
L 482.375455 125.992245 
L 483.39 125.992245 
L 483.897273 125.157117 
L 484.658182 125.157117 
L 484.911818 124.739553 
L 485.926364 124.739553 
L 486.18 124.321988 
L 487.194545 124.321988 
L 487.448182 123.904424 
L 488.462727 123.904424 
L 488.716364 123.48686 
L 489.730909 123.48686 
L 489.984545 123.069296 
L 490.999091 123.069296 
L 491.252727 122.651732 
L 492.267273 122.651732 
L 492.520909 122.234167 
L 493.535455 122.234167 
L 493.789091 121.816603 
L 494.803636 121.816603 
L 495.057273 121.399039 
L 496.071818 121.399039 
L 496.325455 120.563911 
L 497.34 120.563911 
L 497.593636 120.146346 
L 498.608182 120.146346 
L 498.861818 119.728782 
L 499.876364 119.728782 
L 500.13 119.311218 
L 501.144545 119.311218 
L 501.398182 118.893654 
L 502.412727 118.893654 
L 502.666364 118.476089 
L 503.680909 118.476089 
L 503.934545 118.058525 
L 504.695455 118.058525 
L 504.949091 117.640961 
L 505.963636 117.640961 
L 506.217273 117.223397 
L 507.231818 117.223397 
L 507.485455 116.805833 
L 508.5 116.805833 
L 508.753636 115.970704 
L 509.768182 115.970704 
L 510.021818 115.55314 
L 511.036364 115.55314 
L 511.29 115.135576 
L 512.304545 115.135576 
L 512.558182 114.718012 
L 513.572727 114.718012 
L 513.826364 114.300447 
L 514.840909 114.300447 
L 515.094545 113.882883 
L 516.109091 113.882883 
L 516.362727 113.465319 
L 517.377273 113.465319 
L 517.630909 113.047755 
L 518.645455 113.047755 
L 518.899091 112.630191 
L 519.913636 112.630191 
L 520.167273 112.212626 
L 521.181818 112.212626 
L 521.435455 111.377498 
L 522.45 111.377498 
L 522.703636 110.959934 
L 523.718182 110.959934 
L 523.971818 110.54237 
L 524.986364 110.54237 
L 525.24 110.124805 
L 526.254545 110.124805 
L 526.508182 109.707241 
L 527.522727 109.707241 
L 527.776364 109.289677 
L 528.790909 109.289677 
L 529.044545 108.872113 
L 530.059091 108.872113 
L 530.312727 108.454548 
L 531.327273 108.454548 
L 531.580909 108.036984 
L 532.595455 108.036984 
L 532.849091 107.61942 
L 533.61 107.61942 
L 534.117273 106.784292 
L 535.131818 106.784292 
L 535.385455 106.366727 
L 536.4 106.366727 
L 536.653636 105.949163 
L 537.668182 105.949163 
L 537.921818 105.531599 
L 538.936364 105.531599 
L 539.19 105.114035 
L 540.204545 105.114035 
L 540.458182 104.696471 
L 541.472727 104.696471 
L 541.726364 104.278906 
L 542.740909 104.278906 
L 542.994545 103.861342 
L 544.009091 103.861342 
L 544.262727 103.443778 
L 545.277273 103.443778 
L 545.530909 103.026214 
L 546.038182 103.026214 
L 546.291818 102.60865 
L 546.545455 102.60865 
L 546.799091 102.191085 
L 547.813636 102.191085 
L 548.067273 101.773521 
L 549.081818 101.773521 
L 549.335455 101.355957 
L 550.35 101.355957 
L 550.603636 100.938393 
L 551.618182 100.938393 
L 551.871818 100.520829 
L 552.886364 100.520829 
L 553.14 100.103264 
L 554.154545 100.103264 
L 554.408182 99.6857 
L 555.422727 99.6857 
L 555.676364 99.268136 
L 556.690909 99.268136 
L 556.944545 98.850572 
L 557.959091 98.850572 
L 558.212727 98.433007 
L 558.466364 98.433007 
L 558.72 98.015443 
L 559.227273 98.015443 
L 559.480909 97.597879 
L 560.495455 97.597879 
L 560.749091 97.180315 
L 561.763636 97.180315 
L 562.017273 96.762751 
L 563.031818 96.762751 
L 563.285455 96.345186 
L 564.3 96.345186 
L 564.553636 95.927622 
L 565.568182 95.927622 
L 565.821818 95.510058 
L 566.836364 95.510058 
L 567.09 95.092494 
L 568.104545 95.092494 
L 568.358182 94.67493 
L 569.372727 94.67493 
L 569.626364 94.257365 
L 570.640909 94.257365 
L 571.148182 93.422237 
L 571.909091 93.422237 
L 572.162727 93.004673 
L 573.177273 93.004673 
L 573.430909 92.587109 
L 574.445455 92.587109 
L 574.699091 92.169544 
L 575.713636 92.169544 
L 575.967273 91.75198 
L 576.981818 91.75198 
L 577.235455 91.334416 
L 578.25 91.334416 
L 578.503636 90.916852 
L 579.518182 90.916852 
L 579.771818 90.499287 
L 580.786364 90.499287 
L 581.04 90.081723 
L 582.054545 90.081723 
L 582.308182 89.664159 
L 583.322727 89.664159 
L 583.576364 88.829031 
L 584.590909 88.829031 
L 584.844545 88.411466 
L 585.859091 88.411466 
L 586.112727 87.993902 
L 587.127273 87.993902 
L 587.380909 87.576338 
L 588.395455 87.576338 
L 588.649091 87.158774 
L 589.663636 87.158774 
L 589.917273 86.74121 
L 590.931818 86.74121 
L 591.185455 86.323645 
L 592.2 86.323645 
L 592.453636 85.906081 
L 593.468182 85.906081 
L 593.721818 85.488517 
L 594.736364 85.488517 
L 594.99 85.070953 
L 596.004545 85.070953 
L 596.258182 84.235824 
L 597.272727 84.235824 
L 597.526364 83.81826 
L 598.540909 83.81826 
L 598.794545 83.400696 
L 599.809091 83.400696 
L 600.062727 82.983132 
L 601.077273 82.983132 
L 601.330909 82.565568 
L 602.345455 82.565568 
L 602.599091 82.148003 
L 603.613636 82.148003 
L 603.867273 81.730439 
L 604.881818 81.730439 
L 605.135455 81.312875 
L 606.15 81.312875 
L 606.403636 80.895311 
L 607.418182 80.895311 
L 607.671818 80.477746 
L 608.432727 80.477746 
L 608.94 79.642618 
L 609.954545 79.642618 
L 610.208182 79.225054 
L 611.222727 79.225054 
L 611.476364 78.80749 
L 612.490909 78.80749 
L 612.744545 78.389925 
L 613.759091 78.389925 
L 614.012727 77.972361 
L 615.027273 77.972361 
L 615.280909 77.554797 
L 616.295455 77.554797 
L 616.549091 77.137233 
L 617.563636 77.137233 
L 617.817273 76.719669 
L 618.831818 76.719669 
L 619.085455 76.302104 
L 620.1 76.302104 
L 620.353636 75.88454 
L 620.860909 75.88454 
L 621.114545 75.466976 
L 621.368182 75.466976 
L 621.621818 75.049412 
L 622.636364 75.049412 
L 622.636364 75.049412 
" style="fill:none;stroke:#1f77b4;stroke-linecap:square;stroke-width:1.5;"/>
   </g>
   <g id="patch_3">
    <path d="M 90 199.567059 
L 90 69.12 
" style="fill:none;stroke:#000000;stroke-linecap:square;stroke-linejoin:miter;stroke-width:0.8;"/>
   </g>
   <g id="patch_4">
    <path d="M 648 199.567059 
L 648 69.12 
" style="fill:none;stroke:#000000;stroke-linecap:square;stroke-linejoin:miter;stroke-width:0.8;"/>
   </g>
   <g id="patch_5">
    <path d="M 90 199.567059 
L 648 199.567059 
" style="fill:none;stroke:#000000;stroke-linecap:square;stroke-linejoin:miter;stroke-width:0.8;"/>
   </g>
   <g id="patch_6">
    <path d="M 90 69.12 
L 648 69.12 
" style="fill:none;stroke:#000000;stroke-linecap:square;stroke-linejoin:miter;stroke-width:0.8;"/>
   </g>
  </g>
  <g id="axes_2">
   <g id="patch_7">
    <path d="M 90 356.103529 
L 648 356.103529 
L 648 225.656471 
L 90 225.656471 
z
" style="fill:#ffffff;"/>
   </g>
   <g id="matplotlib.axis_3">
    <g id="xtick_6">
     <g id="line2d_9">
      <g>
       <use style="stroke:#000000;stroke-width:0.8;" x="115.363636" xlink:href="#ma19e13d096" y="356.103529"/>
      </g>
     </g>
     <g id="text_10">
      <!-- 0 -->
      <g transform="translate(108.364886 379.820092)scale(0.22 -0.22)">
       <use xlink:href="#DejaVuSans-30"/>
      </g>
     </g>
    </g>
    <g id="xtick_7">
     <g id="line2d_10">
      <g>
       <use style="stroke:#000000;stroke-width:0.8;" x="242.181818" xlink:href="#ma19e13d096" y="356.103529"/>
      </g>
     </g>
     <g id="text_11">
      <!-- 50 -->
      <g transform="translate(228.184318 379.820092)scale(0.22 -0.22)">
       <use xlink:href="#DejaVuSans-35"/>
       <use x="63.623047" xlink:href="#DejaVuSans-30"/>
      </g>
     </g>
    </g>
    <g id="xtick_8">
     <g id="line2d_11">
      <g>
       <use style="stroke:#000000;stroke-width:0.8;" x="369" xlink:href="#ma19e13d096" y="356.103529"/>
      </g>
     </g>
     <g id="text_12">
      <!-- 100 -->
      <g transform="translate(348.00375 379.820092)scale(0.22 -0.22)">
       <use xlink:href="#DejaVuSans-31"/>
       <use x="63.623047" xlink:href="#DejaVuSans-30"/>
       <use x="127.246094" xlink:href="#DejaVuSans-30"/>
      </g>
     </g>
    </g>
    <g id="xtick_9">
     <g id="line2d_12">
      <g>
       <use style="stroke:#000000;stroke-width:0.8;" x="495.818182" xlink:href="#ma19e13d096" y="356.103529"/>
      </g>
     </g>
     <g id="text_13">
      <!-- 150 -->
      <g transform="translate(474.821932 379.820092)scale(0.22 -0.22)">
       <use xlink:href="#DejaVuSans-31"/>
       <use x="63.623047" xlink:href="#DejaVuSans-35"/>
       <use x="127.246094" xlink:href="#DejaVuSans-30"/>
      </g>
     </g>
    </g>
    <g id="xtick_10">
     <g id="line2d_13">
      <g>
       <use style="stroke:#000000;stroke-width:0.8;" x="622.636364" xlink:href="#ma19e13d096" y="356.103529"/>
      </g>
     </g>
     <g id="text_14">
      <!-- 200 -->
      <g transform="translate(601.640114 379.820092)scale(0.22 -0.22)">
       <use xlink:href="#DejaVuSans-32"/>
       <use x="63.623047" xlink:href="#DejaVuSans-30"/>
       <use x="127.246094" xlink:href="#DejaVuSans-30"/>
      </g>
     </g>
    </g>
   </g>
   <g id="matplotlib.axis_4">
    <g id="ytick_3">
     <g id="line2d_14">
      <g>
       <use style="stroke:#000000;stroke-width:0.8;" x="90" xlink:href="#m1ed92ed7ec" y="350.174118"/>
      </g>
     </g>
     <g id="text_15">
      <!-- 0 -->
      <g transform="translate(69.0025 358.532399)scale(0.22 -0.22)">
       <use xlink:href="#DejaVuSans-30"/>
      </g>
     </g>
    </g>
    <g id="ytick_4">
     <g id="line2d_15">
      <g>
       <use style="stroke:#000000;stroke-width:0.8;" x="90" xlink:href="#m1ed92ed7ec" y="258.38247"/>
      </g>
     </g>
     <g id="text_16">
      <!-- 2 -->
      <g transform="translate(69.0025 266.740751)scale(0.22 -0.22)">
       <use xlink:href="#DejaVuSans-32"/>
      </g>
     </g>
    </g>
    <g id="text_17">
     <!-- velocity [m/s] -->
     <g transform="translate(60.427187 366.102813)rotate(-90)scale(0.22 -0.22)">
      <defs>
       <path d="M 191 3500 
L 800 3500 
L 1894 563 
L 2988 3500 
L 3597 3500 
L 2284 0 
L 1503 0 
L 191 3500 
z
" id="DejaVuSans-76" transform="scale(0.015625)"/>
       <path d="M 603 4863 
L 1178 4863 
L 1178 0 
L 603 0 
L 603 4863 
z
" id="DejaVuSans-6c" transform="scale(0.015625)"/>
       <path d="M 1959 3097 
Q 1497 3097 1228 2736 
Q 959 2375 959 1747 
Q 959 1119 1226 758 
Q 1494 397 1959 397 
Q 2419 397 2687 759 
Q 2956 1122 2956 1747 
Q 2956 2369 2687 2733 
Q 2419 3097 1959 3097 
z
M 1959 3584 
Q 2709 3584 3137 3096 
Q 3566 2609 3566 1747 
Q 3566 888 3137 398 
Q 2709 -91 1959 -91 
Q 1206 -91 779 398 
Q 353 888 353 1747 
Q 353 2609 779 3096 
Q 1206 3584 1959 3584 
z
" id="DejaVuSans-6f" transform="scale(0.015625)"/>
       <path d="M 3122 3366 
L 3122 2828 
Q 2878 2963 2633 3030 
Q 2388 3097 2138 3097 
Q 1578 3097 1268 2742 
Q 959 2388 959 1747 
Q 959 1106 1268 751 
Q 1578 397 2138 397 
Q 2388 397 2633 464 
Q 2878 531 3122 666 
L 3122 134 
Q 2881 22 2623 -34 
Q 2366 -91 2075 -91 
Q 1284 -91 818 406 
Q 353 903 353 1747 
Q 353 2603 823 3093 
Q 1294 3584 2113 3584 
Q 2378 3584 2631 3529 
Q 2884 3475 3122 3366 
z
" id="DejaVuSans-63" transform="scale(0.015625)"/>
       <path d="M 2059 -325 
Q 1816 -950 1584 -1140 
Q 1353 -1331 966 -1331 
L 506 -1331 
L 506 -850 
L 844 -850 
Q 1081 -850 1212 -737 
Q 1344 -625 1503 -206 
L 1606 56 
L 191 3500 
L 800 3500 
L 1894 763 
L 2988 3500 
L 3597 3500 
L 2059 -325 
z
" id="DejaVuSans-79" transform="scale(0.015625)"/>
       <path d="M 1625 4666 
L 2156 4666 
L 531 -594 
L 0 -594 
L 1625 4666 
z
" id="DejaVuSans-2f" transform="scale(0.015625)"/>
       <path d="M 2834 3397 
L 2834 2853 
Q 2591 2978 2328 3040 
Q 2066 3103 1784 3103 
Q 1356 3103 1142 2972 
Q 928 2841 928 2578 
Q 928 2378 1081 2264 
Q 1234 2150 1697 2047 
L 1894 2003 
Q 2506 1872 2764 1633 
Q 3022 1394 3022 966 
Q 3022 478 2636 193 
Q 2250 -91 1575 -91 
Q 1294 -91 989 -36 
Q 684 19 347 128 
L 347 722 
Q 666 556 975 473 
Q 1284 391 1588 391 
Q 1994 391 2212 530 
Q 2431 669 2431 922 
Q 2431 1156 2273 1281 
Q 2116 1406 1581 1522 
L 1381 1569 
Q 847 1681 609 1914 
Q 372 2147 372 2553 
Q 372 3047 722 3315 
Q 1072 3584 1716 3584 
Q 2034 3584 2315 3537 
Q 2597 3491 2834 3397 
z
" id="DejaVuSans-73" transform="scale(0.015625)"/>
      </defs>
      <use xlink:href="#DejaVuSans-76"/>
      <use x="59.179688" xlink:href="#DejaVuSans-65"/>
      <use x="120.703125" xlink:href="#DejaVuSans-6c"/>
      <use x="148.486328" xlink:href="#DejaVuSans-6f"/>
      <use x="209.667969" xlink:href="#DejaVuSans-63"/>
      <use x="264.648438" xlink:href="#DejaVuSans-69"/>
      <use x="292.431641" xlink:href="#DejaVuSans-74"/>
      <use x="331.640625" xlink:href="#DejaVuSans-79"/>
      <use x="390.820312" xlink:href="#DejaVuSans-20"/>
      <use x="422.607422" xlink:href="#DejaVuSans-5b"/>
      <use x="461.621094" xlink:href="#DejaVuSans-6d"/>
      <use x="559.033203" xlink:href="#DejaVuSans-2f"/>
      <use x="592.724609" xlink:href="#DejaVuSans-73"/>
      <use x="644.824219" xlink:href="#DejaVuSans-5d"/>
     </g>
    </g>
    <g id="text_18">
     <!-- 1e−5 -->
     <g transform="translate(90 222.656471)scale(0.22 -0.22)">
      <use xlink:href="#DejaVuSans-31"/>
      <use x="63.623047" xlink:href="#DejaVuSans-65"/>
      <use x="125.146484" xlink:href="#DejaVuSans-2212"/>
      <use x="208.935547" xlink:href="#DejaVuSans-35"/>
     </g>
    </g>
   </g>
   <g id="line2d_16">
    <path clip-path="url(#p4bbd21fb67)" d="M 115.363636 350.174118 
L 120.182727 350.068519 
L 125.255455 349.729622 
L 130.328182 349.158473 
L 135.400909 348.357326 
L 140.473636 347.329342 
L 145.546364 346.078578 
L 150.872727 344.530922 
L 156.199091 342.749835 
L 161.779091 340.642022 
L 167.359091 338.296596 
L 173.192727 335.60267 
L 179.28 332.54301 
L 185.620909 329.104397 
L 192.215455 325.27856 
L 199.317273 320.902675 
L 207.18 315.788612 
L 215.803636 309.910068 
L 226.202727 302.539043 
L 241.167273 291.625092 
L 261.458182 276.857 
L 271.857273 269.572931 
L 280.480909 263.795191 
L 288.343636 258.794691 
L 295.445455 254.538216 
L 302.04 250.836736 
L 308.380909 247.529144 
L 314.468182 244.605066 
L 320.301818 242.04936 
L 325.881818 239.84306 
L 331.461818 237.88046 
L 336.788182 236.243028 
L 342.114545 234.843318 
L 347.187273 233.736854 
L 352.26 232.855908 
L 357.332727 232.203957 
L 362.405455 231.783573 
L 367.478182 231.596416 
L 372.297273 231.635326 
L 377.37 231.904244 
L 382.442727 232.405913 
L 387.515455 233.138352 
L 392.588182 234.098671 
L 397.660909 235.28308 
L 402.987273 236.76276 
L 408.313636 238.477899 
L 413.64 240.421036 
L 419.22 242.69202 
L 425.053636 245.312064 
L 431.140909 248.299339 
L 437.481818 251.668101 
L 444.076364 255.427757 
L 451.178182 259.740239 
L 458.787273 264.627048 
L 467.157273 270.269944 
L 477.049091 277.219269 
L 490.238182 286.785154 
L 516.87 306.166469 
L 526.761818 313.053588 
L 535.385455 318.789981 
L 542.994545 323.589361 
L 550.096364 327.807657 
L 556.690909 331.469621 
L 563.031818 334.735777 
L 569.119091 337.617145 
L 574.952727 340.129453 
L 580.532727 342.292194 
L 585.859091 344.127753 
L 591.185455 345.731636 
L 596.511818 347.096864 
L 601.584545 348.169757 
L 606.657273 349.016552 
L 611.73 349.633909 
L 616.802727 350.019391 
L 621.875455 350.171477 
L 622.636364 350.174111 
L 622.636364 350.174111 
" style="fill:none;stroke:#1f77b4;stroke-linecap:square;stroke-width:1.5;"/>
   </g>
   <g id="line2d_17">
    <path clip-path="url(#p4bbd21fb67)" d="M 115.363636 350.174118 
L 134.64 336.151118 
L 145.039091 328.867049 
L 153.662727 323.089309 
L 161.525455 318.08881 
L 168.627273 313.832334 
L 175.221818 310.130854 
L 181.562727 306.823263 
L 187.65 303.899184 
L 193.483636 301.343478 
L 199.063636 299.137178 
L 204.643636 297.174578 
L 209.97 295.537146 
L 215.296364 294.137435 
L 220.369091 293.030971 
L 225.441818 292.150025 
L 230.514545 291.498073 
L 235.587273 291.077689 
L 240.66 290.890532 
L 245.479091 290.929442 
L 250.551818 291.19836 
L 255.624545 291.700028 
L 260.697273 292.432467 
L 265.77 293.392785 
L 270.842727 294.577194 
L 276.169091 296.056874 
L 281.495455 297.772013 
L 286.821818 299.715149 
L 292.401818 301.986132 
L 298.235455 304.606176 
L 304.322727 307.593451 
L 310.663636 310.962213 
L 317.258182 314.721868 
L 324.36 319.03435 
L 331.969091 323.921158 
L 340.339091 329.564054 
L 350.230909 336.513379 
L 363.42 346.079264 
L 369 350.174117 
L 388.276364 336.151119 
L 398.675455 328.86705 
L 407.299091 323.08931 
L 415.161818 318.088811 
L 422.263636 313.832336 
L 428.858182 310.130856 
L 435.199091 306.823265 
L 441.286364 303.899187 
L 447.12 301.343482 
L 452.7 299.137182 
L 458.28 297.174583 
L 463.606364 295.537151 
L 468.932727 294.137441 
L 474.005455 293.030978 
L 479.078182 292.150032 
L 484.150909 291.498081 
L 489.223636 291.077698 
L 494.296364 290.890541 
L 499.115455 290.929452 
L 504.188182 291.19837 
L 509.260909 291.70004 
L 514.333636 292.432479 
L 519.406364 293.392799 
L 524.479091 294.577208 
L 529.805455 296.056888 
L 535.131818 297.772028 
L 540.458182 299.715165 
L 546.038182 301.98615 
L 551.871818 304.606194 
L 557.959091 307.59347 
L 564.3 310.962232 
L 570.894545 314.721888 
L 577.996364 319.034371 
L 585.605455 323.92118 
L 593.975455 329.564077 
L 603.867273 336.513402 
L 617.056364 346.079287 
L 622.636364 350.174095 
L 622.636364 350.174095 
" style="fill:none;stroke:#ff7f0e;stroke-linecap:square;stroke-width:1.5;"/>
   </g>
   <g id="patch_8">
    <path d="M 90 356.103529 
L 90 225.656471 
" style="fill:none;stroke:#000000;stroke-linecap:square;stroke-linejoin:miter;stroke-width:0.8;"/>
   </g>
   <g id="patch_9">
    <path d="M 648 356.103529 
L 648 225.656471 
" style="fill:none;stroke:#000000;stroke-linecap:square;stroke-linejoin:miter;stroke-width:0.8;"/>
   </g>
   <g id="patch_10">
    <path d="M 90 356.103529 
L 648 356.103529 
" style="fill:none;stroke:#000000;stroke-linecap:square;stroke-linejoin:miter;stroke-width:0.8;"/>
   </g>
   <g id="patch_11">
    <path d="M 90 225.656471 
L 648 225.656471 
" style="fill:none;stroke:#000000;stroke-linecap:square;stroke-linejoin:miter;stroke-width:0.8;"/>
   </g>
   <g id="legend_1">
    <g id="patch_12">
     <path d="M 303.735625 327.08375 
L 434.264375 327.08375 
Q 438.664375 327.08375 438.664375 322.68375 
L 438.664375 259.07625 
Q 438.664375 254.67625 434.264375 254.67625 
L 303.735625 254.67625 
Q 299.335625 254.67625 299.335625 259.07625 
L 299.335625 322.68375 
Q 299.335625 327.08375 303.735625 327.08375 
z
" style="fill:#ffffff;opacity:0.8;stroke:#cccccc;stroke-linejoin:miter;"/>
    </g>
    <g id="line2d_18">
     <path d="M 308.135625 272.492813 
L 352.135625 272.492813 
" style="fill:none;stroke:#1f77b4;stroke-linecap:square;stroke-width:1.5;"/>
    </g>
    <g id="line2d_19"/>
    <g id="text_19">
     <!-- vel_E -->
     <g transform="translate(369.735625 280.192813)scale(0.22 -0.22)">
      <defs>
       <path d="M 3263 -1063 
L 3263 -1509 
L -63 -1509 
L -63 -1063 
L 3263 -1063 
z
" id="DejaVuSans-5f" transform="scale(0.015625)"/>
       <path d="M 628 4666 
L 3578 4666 
L 3578 4134 
L 1259 4134 
L 1259 2753 
L 3481 2753 
L 3481 2222 
L 1259 2222 
L 1259 531 
L 3634 531 
L 3634 0 
L 628 0 
L 628 4666 
z
" id="DejaVuSans-45" transform="scale(0.015625)"/>
      </defs>
      <use xlink:href="#DejaVuSans-76"/>
      <use x="59.179688" xlink:href="#DejaVuSans-65"/>
      <use x="120.703125" xlink:href="#DejaVuSans-6c"/>
      <use x="148.486328" xlink:href="#DejaVuSans-5f"/>
      <use x="198.486328" xlink:href="#DejaVuSans-45"/>
     </g>
    </g>
    <g id="line2d_20">
     <path d="M 308.135625 305.396563 
L 352.135625 305.396563 
" style="fill:none;stroke:#ff7f0e;stroke-linecap:square;stroke-width:1.5;"/>
    </g>
    <g id="line2d_21"/>
    <g id="text_20">
     <!-- vel_N -->
     <g transform="translate(369.735625 313.096563)scale(0.22 -0.22)">
      <defs>
       <path d="M 628 4666 
L 1478 4666 
L 3547 763 
L 3547 4666 
L 4159 4666 
L 4159 0 
L 3309 0 
L 1241 3903 
L 1241 0 
L 628 0 
L 628 4666 
z
" id="DejaVuSans-4e" transform="scale(0.015625)"/>
      </defs>
      <use xlink:href="#DejaVuSans-76"/>
      <use x="59.179688" xlink:href="#DejaVuSans-65"/>
      <use x="120.703125" xlink:href="#DejaVuSans-6c"/>
      <use x="148.486328" xlink:href="#DejaVuSans-5f"/>
      <use x="198.486328" xlink:href="#DejaVuSans-4e"/>
     </g>
    </g>
   </g>
  </g>
  <g id="axes_3">
   <g id="patch_13">
    <path d="M 90 512.64 
L 648 512.64 
L 648 382.192941 
L 90 382.192941 
z
" style="fill:#ffffff;"/>
   </g>
   <g id="matplotlib.axis_5">
    <g id="xtick_11">
     <g id="line2d_22">
      <g>
       <use style="stroke:#000000;stroke-width:0.8;" x="115.363636" xlink:href="#ma19e13d096" y="512.64"/>
      </g>
     </g>
     <g id="text_21">
      <!-- 0 -->
      <g transform="translate(108.364886 536.356562)scale(0.22 -0.22)">
       <use xlink:href="#DejaVuSans-30"/>
      </g>
     </g>
    </g>
    <g id="xtick_12">
     <g id="line2d_23">
      <g>
       <use style="stroke:#000000;stroke-width:0.8;" x="242.181818" xlink:href="#ma19e13d096" y="512.64"/>
      </g>
     </g>
     <g id="text_22">
      <!-- 50 -->
      <g transform="translate(228.184318 536.356562)scale(0.22 -0.22)">
       <use xlink:href="#DejaVuSans-35"/>
       <use x="63.623047" xlink:href="#DejaVuSans-30"/>
      </g>
     </g>
    </g>
    <g id="xtick_13">
     <g id="line2d_24">
      <g>
       <use style="stroke:#000000;stroke-width:0.8;" x="369" xlink:href="#ma19e13d096" y="512.64"/>
      </g>
     </g>
     <g id="text_23">
      <!-- 100 -->
      <g transform="translate(348.00375 536.356562)scale(0.22 -0.22)">
       <use xlink:href="#DejaVuSans-31"/>
       <use x="63.623047" xlink:href="#DejaVuSans-30"/>
       <use x="127.246094" xlink:href="#DejaVuSans-30"/>
      </g>
     </g>
    </g>
    <g id="xtick_14">
     <g id="line2d_25">
      <g>
       <use style="stroke:#000000;stroke-width:0.8;" x="495.818182" xlink:href="#ma19e13d096" y="512.64"/>
      </g>
     </g>
     <g id="text_24">
      <!-- 150 -->
      <g transform="translate(474.821932 536.356562)scale(0.22 -0.22)">
       <use xlink:href="#DejaVuSans-31"/>
       <use x="63.623047" xlink:href="#DejaVuSans-35"/>
       <use x="127.246094" xlink:href="#DejaVuSans-30"/>
      </g>
     </g>
    </g>
    <g id="xtick_15">
     <g id="line2d_26">
      <g>
       <use style="stroke:#000000;stroke-width:0.8;" x="622.636364" xlink:href="#ma19e13d096" y="512.64"/>
      </g>
     </g>
     <g id="text_25">
      <!-- 200 -->
      <g transform="translate(601.640114 536.356562)scale(0.22 -0.22)">
       <use xlink:href="#DejaVuSans-32"/>
       <use x="63.623047" xlink:href="#DejaVuSans-30"/>
       <use x="127.246094" xlink:href="#DejaVuSans-30"/>
      </g>
     </g>
    </g>
    <g id="text_26">
     <!-- steps [-] -->
     <g transform="translate(323.427344 561.648438)scale(0.22 -0.22)">
      <defs>
       <path d="M 1159 525 
L 1159 -1331 
L 581 -1331 
L 581 3500 
L 1159 3500 
L 1159 2969 
Q 1341 3281 1617 3432 
Q 1894 3584 2278 3584 
Q 2916 3584 3314 3078 
Q 3713 2572 3713 1747 
Q 3713 922 3314 415 
Q 2916 -91 2278 -91 
Q 1894 -91 1617 61 
Q 1341 213 1159 525 
z
M 3116 1747 
Q 3116 2381 2855 2742 
Q 2594 3103 2138 3103 
Q 1681 3103 1420 2742 
Q 1159 2381 1159 1747 
Q 1159 1113 1420 752 
Q 1681 391 2138 391 
Q 2594 391 2855 752 
Q 3116 1113 3116 1747 
z
" id="DejaVuSans-70" transform="scale(0.015625)"/>
       <path d="M 313 2009 
L 1997 2009 
L 1997 1497 
L 313 1497 
L 313 2009 
z
" id="DejaVuSans-2d" transform="scale(0.015625)"/>
      </defs>
      <use xlink:href="#DejaVuSans-73"/>
      <use x="52.099609" xlink:href="#DejaVuSans-74"/>
      <use x="91.308594" xlink:href="#DejaVuSans-65"/>
      <use x="152.832031" xlink:href="#DejaVuSans-70"/>
      <use x="216.308594" xlink:href="#DejaVuSans-73"/>
      <use x="268.408203" xlink:href="#DejaVuSans-20"/>
      <use x="300.195312" xlink:href="#DejaVuSans-5b"/>
      <use x="339.208984" xlink:href="#DejaVuSans-2d"/>
      <use x="375.292969" xlink:href="#DejaVuSans-5d"/>
     </g>
    </g>
   </g>
   <g id="matplotlib.axis_6">
    <g id="ytick_5">
     <g id="line2d_27">
      <g>
       <use style="stroke:#000000;stroke-width:0.8;" x="90" xlink:href="#m1ed92ed7ec" y="506.710588"/>
      </g>
     </g>
     <g id="text_27">
      <!-- 0.000 -->
      <g transform="translate(20.018125 515.068869)scale(0.22 -0.22)">
       <defs>
        <path d="M 684 794 
L 1344 794 
L 1344 0 
L 684 0 
L 684 794 
z
" id="DejaVuSans-2e" transform="scale(0.015625)"/>
       </defs>
       <use xlink:href="#DejaVuSans-30"/>
       <use x="63.623047" xlink:href="#DejaVuSans-2e"/>
       <use x="95.410156" xlink:href="#DejaVuSans-30"/>
       <use x="159.033203" xlink:href="#DejaVuSans-30"/>
       <use x="222.65625" xlink:href="#DejaVuSans-30"/>
      </g>
     </g>
    </g>
    <g id="ytick_6">
     <g id="line2d_28">
      <g>
       <use style="stroke:#000000;stroke-width:0.8;" x="90" xlink:href="#m1ed92ed7ec" y="423.940656"/>
      </g>
     </g>
     <g id="text_28">
      <!-- 0.002 -->
      <g transform="translate(20.018125 432.298937)scale(0.22 -0.22)">
       <use xlink:href="#DejaVuSans-30"/>
       <use x="63.623047" xlink:href="#DejaVuSans-2e"/>
       <use x="95.410156" xlink:href="#DejaVuSans-30"/>
       <use x="159.033203" xlink:href="#DejaVuSans-30"/>
       <use x="222.65625" xlink:href="#DejaVuSans-32"/>
      </g>
     </g>
    </g>
    <g id="text_29">
     <!-- Position [m] -->
     <g transform="translate(11.442812 513.031471)rotate(-90)scale(0.22 -0.22)">
      <defs>
       <path d="M 1259 4147 
L 1259 2394 
L 2053 2394 
Q 2494 2394 2734 2622 
Q 2975 2850 2975 3272 
Q 2975 3691 2734 3919 
Q 2494 4147 2053 4147 
L 1259 4147 
z
M 628 4666 
L 2053 4666 
Q 2838 4666 3239 4311 
Q 3641 3956 3641 3272 
Q 3641 2581 3239 2228 
Q 2838 1875 2053 1875 
L 1259 1875 
L 1259 0 
L 628 0 
L 628 4666 
z
" id="DejaVuSans-50" transform="scale(0.015625)"/>
       <path d="M 3513 2113 
L 3513 0 
L 2938 0 
L 2938 2094 
Q 2938 2591 2744 2837 
Q 2550 3084 2163 3084 
Q 1697 3084 1428 2787 
Q 1159 2491 1159 1978 
L 1159 0 
L 581 0 
L 581 3500 
L 1159 3500 
L 1159 2956 
Q 1366 3272 1645 3428 
Q 1925 3584 2291 3584 
Q 2894 3584 3203 3211 
Q 3513 2838 3513 2113 
z
" id="DejaVuSans-6e" transform="scale(0.015625)"/>
      </defs>
      <use xlink:href="#DejaVuSans-50"/>
      <use x="56.677734" xlink:href="#DejaVuSans-6f"/>
      <use x="117.859375" xlink:href="#DejaVuSans-73"/>
      <use x="169.958984" xlink:href="#DejaVuSans-69"/>
      <use x="197.742188" xlink:href="#DejaVuSans-74"/>
      <use x="236.951172" xlink:href="#DejaVuSans-69"/>
      <use x="264.734375" xlink:href="#DejaVuSans-6f"/>
      <use x="325.916016" xlink:href="#DejaVuSans-6e"/>
      <use x="389.294922" xlink:href="#DejaVuSans-20"/>
      <use x="421.082031" xlink:href="#DejaVuSans-5b"/>
      <use x="460.095703" xlink:href="#DejaVuSans-6d"/>
      <use x="557.507812" xlink:href="#DejaVuSans-5d"/>
     </g>
    </g>
   </g>
   <g id="line2d_29">
    <path clip-path="url(#p568f4188c0)" d="M 115.363636 506.710588 
L 137.176364 502.223953 
L 148.843636 500.054121 
L 158.735455 498.434759 
L 167.612727 497.202297 
L 175.982727 496.266675 
L 183.845455 495.614418 
L 191.200909 495.222907 
L 198.302727 495.060972 
L 205.404545 495.124316 
L 212.252727 495.409144 
L 219.100909 495.922098 
L 225.695455 496.637925 
L 232.29 497.576005 
L 238.884545 498.739353 
L 245.479091 500.129479 
L 252.073636 501.746385 
L 258.668182 503.588559 
L 265.516364 505.736768 
L 268.56 506.653981 
L 275.408182 504.168973 
L 282.51 501.355108 
L 289.865455 498.197321 
L 297.474545 494.684054 
L 305.337273 490.808071 
L 313.707273 486.431126 
L 322.584545 481.536918 
L 332.476364 475.821781 
L 343.636364 469.109063 
L 357.84 460.28677 
L 398.421818 434.910609 
L 409.581818 428.291732 
L 419.22 422.824346 
L 428.097273 418.037295 
L 436.467273 413.77488 
L 444.33 410.017304 
L 451.939091 406.627525 
L 459.294545 403.596392 
L 466.396364 400.910608 
L 473.244545 398.553561 
L 480.092727 396.431763 
L 486.687273 394.615456 
L 493.281818 393.024669 
L 499.876364 391.660738 
L 506.470909 390.523489 
L 513.065455 389.611236 
L 519.66 388.920792 
L 526.254545 388.447492 
L 533.102727 388.179251 
L 539.950909 388.130124 
L 547.052727 388.299879 
L 554.408182 388.698971 
L 562.017273 389.333853 
L 570.133636 390.237733 
L 578.757273 391.425474 
L 588.141818 392.944781 
L 598.794545 394.897389 
L 612.490909 397.65036 
L 622.636364 399.777766 
L 622.636364 399.777766 
" style="fill:none;stroke:#1f77b4;stroke-linecap:square;stroke-width:1.5;"/>
   </g>
   <g id="line2d_30">
    <path clip-path="url(#p568f4188c0)" d="M 115.363636 506.710588 
L 121.958182 506.597104 
L 128.552727 506.257408 
L 135.147273 505.693764 
L 141.741818 504.909933 
L 148.59 503.868518 
L 155.438182 502.602786 
L 162.54 501.062989 
L 169.895455 499.236931 
L 177.504545 497.116238 
L 185.620909 494.615524 
L 194.244545 491.71635 
L 203.629091 488.315896 
L 214.028182 484.303261 
L 226.456364 479.260817 
L 247.254545 470.535578 
L 265.516364 462.971408 
L 277.183636 458.374048 
L 287.075455 454.706146 
L 295.952727 451.642268 
L 304.322727 448.985512 
L 312.185455 446.720989 
L 319.794545 444.763491 
L 327.15 443.106553 
L 334.251818 441.739319 
L 341.1 440.64735 
L 347.948182 439.785665 
L 354.542727 439.179341 
L 361.137273 438.796355 
L 367.731818 438.639263 
L 374.326364 438.709112 
L 380.920909 439.005435 
L 387.515455 439.526258 
L 394.11 440.268106 
L 400.958182 441.267111 
L 407.806364 442.491942 
L 414.908182 443.991232 
L 422.263636 445.777718 
L 429.872727 447.860365 
L 437.735455 450.243572 
L 446.105455 453.013543 
L 455.236364 456.275009 
L 465.381818 460.142689 
L 477.302727 464.934979 
L 494.55 472.138183 
L 518.138182 481.963497 
L 530.059091 486.679851 
L 540.204545 490.457504 
L 549.335455 493.619197 
L 557.705455 496.283228 
L 565.568182 498.555338 
L 573.177273 500.520806 
L 580.532727 502.185966 
L 587.634545 503.561558 
L 594.482727 504.661914 
L 601.330909 505.532249 
L 607.925455 506.147092 
L 614.52 506.538723 
L 621.114545 506.704532 
L 622.636364 506.710579 
L 622.636364 506.710579 
" style="fill:none;stroke:#ff7f0e;stroke-linecap:square;stroke-width:1.5;"/>
   </g>
   <g id="patch_14">
    <path d="M 90 512.64 
L 90 382.192941 
" style="fill:none;stroke:#000000;stroke-linecap:square;stroke-linejoin:miter;stroke-width:0.8;"/>
   </g>
   <g id="patch_15">
    <path d="M 648 512.64 
L 648 382.192941 
" style="fill:none;stroke:#000000;stroke-linecap:square;stroke-linejoin:miter;stroke-width:0.8;"/>
   </g>
   <g id="patch_16">
    <path d="M 90 512.64 
L 648 512.64 
" style="fill:none;stroke:#000000;stroke-linecap:square;stroke-linejoin:miter;stroke-width:0.8;"/>
   </g>
   <g id="patch_17">
    <path d="M 90 382.192941 
L 648 382.192941 
" style="fill:none;stroke:#000000;stroke-linecap:square;stroke-linejoin:miter;stroke-width:0.8;"/>
   </g>
   <g id="legend_2">
    <g id="patch_18">
     <path d="M 105.4 465.600441 
L 242.147188 465.600441 
Q 246.547188 465.600441 246.547188 461.200441 
L 246.547188 397.592941 
Q 246.547188 393.192941 242.147188 393.192941 
L 105.4 393.192941 
Q 101 393.192941 101 397.592941 
L 101 461.200441 
Q 101 465.600441 105.4 465.600441 
z
" style="fill:#ffffff;opacity:0.8;stroke:#cccccc;stroke-linejoin:miter;"/>
    </g>
    <g id="line2d_31">
     <path d="M 109.8 411.009504 
L 153.8 411.009504 
" style="fill:none;stroke:#1f77b4;stroke-linecap:square;stroke-width:1.5;"/>
    </g>
    <g id="line2d_32"/>
    <g id="text_30">
     <!-- pos_E -->
     <g transform="translate(171.4 418.709504)scale(0.22 -0.22)">
      <use xlink:href="#DejaVuSans-70"/>
      <use x="63.476562" xlink:href="#DejaVuSans-6f"/>
      <use x="124.658203" xlink:href="#DejaVuSans-73"/>
      <use x="176.757812" xlink:href="#DejaVuSans-5f"/>
      <use x="226.757812" xlink:href="#DejaVuSans-45"/>
     </g>
    </g>
    <g id="line2d_33">
     <path d="M 109.8 443.913254 
L 153.8 443.913254 
" style="fill:none;stroke:#ff7f0e;stroke-linecap:square;stroke-width:1.5;"/>
    </g>
    <g id="line2d_34"/>
    <g id="text_31">
     <!-- pos_N -->
     <g transform="translate(171.4 451.613254)scale(0.22 -0.22)">
      <use xlink:href="#DejaVuSans-70"/>
      <use x="63.476562" xlink:href="#DejaVuSans-6f"/>
      <use x="124.658203" xlink:href="#DejaVuSans-73"/>
      <use x="176.757812" xlink:href="#DejaVuSans-5f"/>
      <use x="226.757812" xlink:href="#DejaVuSans-4e"/>
     </g>
    </g>
   </g>
  </g>
 </g>
 <defs>
  <clipPath id="pa88cc57753">
   <rect height="130.447059" width="558" x="90" y="69.12"/>
  </clipPath>
  <clipPath id="p4bbd21fb67">
   <rect height="130.447059" width="558" x="90" y="225.656471"/>
  </clipPath>
  <clipPath id="p568f4188c0">
   <rect height="130.447059" width="558" x="90" y="382.192941"/>
  </clipPath>
 </defs>
</svg>
