<?xml version="1.0" encoding="utf-8" standalone="no"?>
<!DOCTYPE svg PUBLIC "-//W3C//DTD SVG 1.1//EN"
  "http://www.w3.org/Graphics/SVG/1.1/DTD/svg11.dtd">
<svg height="576pt" version="1.1" viewBox="0 0 720 576" width="720pt" xmlns="http://www.w3.org/2000/svg" xmlns:xlink="http://www.w3.org/1999/xlink">
 <metadata>
  <rdf:RDF xmlns:cc="http://creativecommons.org/ns#" xmlns:dc="http://purl.org/dc/elements/1.1/" xmlns:rdf="http://www.w3.org/1999/02/22-rdf-syntax-ns#">
   <cc:Work>
    <dc:type rdf:resource="http://purl.org/dc/dcmitype/StillImage"/>
    <dc:date>2024-04-04T01:33:57.659459</dc:date>
    <dc:format>image/svg+xml</dc:format>
    <dc:creator>
     <cc:Agent>
      <dc:title>Matplotlib v3.4.2, https://matplotlib.org/</dc:title>
     </cc:Agent>
    </dc:creator>
   </cc:Work>
  </rdf:RDF>
 </metadata>
 <defs>
  <style type="text/css">*{stroke-linecap:butt;stroke-linejoin:round;}</style>
 </defs>
 <g id="figure_1">
  <g id="patch_1">
   <path d="M 0 576 
L 720 576 
L 720 0 
L 0 0 
z
" style="fill:#ffffff;"/>
  </g>
  <g id="axes_1">
   <g id="patch_2">
    <path d="M 88.76 158.706667 
L 702.72 158.706667 
L 702.72 31.8 
L 88.76 31.8 
z
" style="fill:#ffffff;"/>
   </g>
   <g id="matplotlib.axis_1">
    <g id="xtick_1">
     <g id="line2d_1">
      <defs>
       <path d="M 0 0 
L 0 3.5 
" id="m9d1632187a" style="stroke:#000000;stroke-width:0.8;"/>
      </defs>
      <g>
       <use style="stroke:#000000;stroke-width:0.8;" x="116.667273" xlink:href="#m9d1632187a" y="158.706667"/>
      </g>
     </g>
     <g id="text_1">
      <!-- 0 -->
      <g transform="translate(111.577273 177.864167)scale(0.16 -0.16)">
       <defs>
        <path d="M 2034 4250 
Q 1547 4250 1301 3770 
Q 1056 3291 1056 2328 
Q 1056 1369 1301 889 
Q 1547 409 2034 409 
Q 2525 409 2770 889 
Q 3016 1369 3016 2328 
Q 3016 3291 2770 3770 
Q 2525 4250 2034 4250 
z
M 2034 4750 
Q 2819 4750 3233 4129 
Q 3647 3509 3647 2328 
Q 3647 1150 3233 529 
Q 2819 -91 2034 -91 
Q 1250 -91 836 529 
Q 422 1150 422 2328 
Q 422 3509 836 4129 
Q 1250 4750 2034 4750 
z
" id="DejaVuSans-30" transform="scale(0.015625)"/>
       </defs>
       <use xlink:href="#DejaVuSans-30"/>
      </g>
     </g>
    </g>
    <g id="xtick_2">
     <g id="line2d_2">
      <g>
       <use style="stroke:#000000;stroke-width:0.8;" x="186.435455" xlink:href="#m9d1632187a" y="158.706667"/>
      </g>
     </g>
     <g id="text_2">
      <!-- 25 -->
      <g transform="translate(176.255455 177.864167)scale(0.16 -0.16)">
       <defs>
        <path d="M 1228 531 
L 3431 531 
L 3431 0 
L 469 0 
L 469 531 
Q 828 903 1448 1529 
Q 2069 2156 2228 2338 
Q 2531 2678 2651 2914 
Q 2772 3150 2772 3378 
Q 2772 3750 2511 3984 
Q 2250 4219 1831 4219 
Q 1534 4219 1204 4116 
Q 875 4013 500 3803 
L 500 4441 
Q 881 4594 1212 4672 
Q 1544 4750 1819 4750 
Q 2544 4750 2975 4387 
Q 3406 4025 3406 3419 
Q 3406 3131 3298 2873 
Q 3191 2616 2906 2266 
Q 2828 2175 2409 1742 
Q 1991 1309 1228 531 
z
" id="DejaVuSans-32" transform="scale(0.015625)"/>
        <path d="M 691 4666 
L 3169 4666 
L 3169 4134 
L 1269 4134 
L 1269 2991 
Q 1406 3038 1543 3061 
Q 1681 3084 1819 3084 
Q 2600 3084 3056 2656 
Q 3513 2228 3513 1497 
Q 3513 744 3044 326 
Q 2575 -91 1722 -91 
Q 1428 -91 1123 -41 
Q 819 9 494 109 
L 494 744 
Q 775 591 1075 516 
Q 1375 441 1709 441 
Q 2250 441 2565 725 
Q 2881 1009 2881 1497 
Q 2881 1984 2565 2268 
Q 2250 2553 1709 2553 
Q 1456 2553 1204 2497 
Q 953 2441 691 2322 
L 691 4666 
z
" id="DejaVuSans-35" transform="scale(0.015625)"/>
       </defs>
       <use xlink:href="#DejaVuSans-32"/>
       <use x="63.623047" xlink:href="#DejaVuSans-35"/>
      </g>
     </g>
    </g>
    <g id="xtick_3">
     <g id="line2d_3">
      <g>
       <use style="stroke:#000000;stroke-width:0.8;" x="256.203636" xlink:href="#m9d1632187a" y="158.706667"/>
      </g>
     </g>
     <g id="text_3">
      <!-- 50 -->
      <g transform="translate(246.023636 177.864167)scale(0.16 -0.16)">
       <use xlink:href="#DejaVuSans-35"/>
       <use x="63.623047" xlink:href="#DejaVuSans-30"/>
      </g>
     </g>
    </g>
    <g id="xtick_4">
     <g id="line2d_4">
      <g>
       <use style="stroke:#000000;stroke-width:0.8;" x="325.971818" xlink:href="#m9d1632187a" y="158.706667"/>
      </g>
     </g>
     <g id="text_4">
      <!-- 75 -->
      <g transform="translate(315.791818 177.864167)scale(0.16 -0.16)">
       <defs>
        <path d="M 525 4666 
L 3525 4666 
L 3525 4397 
L 1831 0 
L 1172 0 
L 2766 4134 
L 525 4134 
L 525 4666 
z
" id="DejaVuSans-37" transform="scale(0.015625)"/>
       </defs>
       <use xlink:href="#DejaVuSans-37"/>
       <use x="63.623047" xlink:href="#DejaVuSans-35"/>
      </g>
     </g>
    </g>
    <g id="xtick_5">
     <g id="line2d_5">
      <g>
       <use style="stroke:#000000;stroke-width:0.8;" x="395.74" xlink:href="#m9d1632187a" y="158.706667"/>
      </g>
     </g>
     <g id="text_5">
      <!-- 100 -->
      <g transform="translate(380.47 177.864167)scale(0.16 -0.16)">
       <defs>
        <path d="M 794 531 
L 1825 531 
L 1825 4091 
L 703 3866 
L 703 4441 
L 1819 4666 
L 2450 4666 
L 2450 531 
L 3481 531 
L 3481 0 
L 794 0 
L 794 531 
z
" id="DejaVuSans-31" transform="scale(0.015625)"/>
       </defs>
       <use xlink:href="#DejaVuSans-31"/>
       <use x="63.623047" xlink:href="#DejaVuSans-30"/>
       <use x="127.246094" xlink:href="#DejaVuSans-30"/>
      </g>
     </g>
    </g>
    <g id="xtick_6">
     <g id="line2d_6">
      <g>
       <use style="stroke:#000000;stroke-width:0.8;" x="465.508182" xlink:href="#m9d1632187a" y="158.706667"/>
      </g>
     </g>
     <g id="text_6">
      <!-- 125 -->
      <g transform="translate(450.238182 177.864167)scale(0.16 -0.16)">
       <use xlink:href="#DejaVuSans-31"/>
       <use x="63.623047" xlink:href="#DejaVuSans-32"/>
       <use x="127.246094" xlink:href="#DejaVuSans-35"/>
      </g>
     </g>
    </g>
    <g id="xtick_7">
     <g id="line2d_7">
      <g>
       <use style="stroke:#000000;stroke-width:0.8;" x="535.276364" xlink:href="#m9d1632187a" y="158.706667"/>
      </g>
     </g>
     <g id="text_7">
      <!-- 150 -->
      <g transform="translate(520.006364 177.864167)scale(0.16 -0.16)">
       <use xlink:href="#DejaVuSans-31"/>
       <use x="63.623047" xlink:href="#DejaVuSans-35"/>
       <use x="127.246094" xlink:href="#DejaVuSans-30"/>
      </g>
     </g>
    </g>
    <g id="xtick_8">
     <g id="line2d_8">
      <g>
       <use style="stroke:#000000;stroke-width:0.8;" x="605.044545" xlink:href="#m9d1632187a" y="158.706667"/>
      </g>
     </g>
     <g id="text_8">
      <!-- 175 -->
      <g transform="translate(589.774545 177.864167)scale(0.16 -0.16)">
       <use xlink:href="#DejaVuSans-31"/>
       <use x="63.623047" xlink:href="#DejaVuSans-37"/>
       <use x="127.246094" xlink:href="#DejaVuSans-35"/>
      </g>
     </g>
    </g>
    <g id="xtick_9">
     <g id="line2d_9">
      <g>
       <use style="stroke:#000000;stroke-width:0.8;" x="674.812727" xlink:href="#m9d1632187a" y="158.706667"/>
      </g>
     </g>
     <g id="text_9">
      <!-- 200 -->
      <g transform="translate(659.542727 177.864167)scale(0.16 -0.16)">
       <use xlink:href="#DejaVuSans-32"/>
       <use x="63.623047" xlink:href="#DejaVuSans-30"/>
       <use x="127.246094" xlink:href="#DejaVuSans-30"/>
      </g>
     </g>
    </g>
   </g>
   <g id="matplotlib.axis_2">
    <g id="ytick_1">
     <g id="line2d_10">
      <defs>
       <path d="M 0 0 
L -3.5 0 
" id="m8284ec97a0" style="stroke:#000000;stroke-width:0.8;"/>
      </defs>
      <g>
       <use style="stroke:#000000;stroke-width:0.8;" x="88.76" xlink:href="#m8284ec97a0" y="152.938182"/>
      </g>
     </g>
     <g id="text_10">
      <!-- 0 -->
      <g transform="translate(71.58 159.016932)scale(0.16 -0.16)">
       <use xlink:href="#DejaVuSans-30"/>
      </g>
     </g>
    </g>
    <g id="ytick_2">
     <g id="line2d_11">
      <g>
       <use style="stroke:#000000;stroke-width:0.8;" x="88.76" xlink:href="#m8284ec97a0" y="107.2006"/>
      </g>
     </g>
     <g id="text_11">
      <!-- 1 -->
      <g transform="translate(71.58 113.27935)scale(0.16 -0.16)">
       <use xlink:href="#DejaVuSans-31"/>
      </g>
     </g>
    </g>
    <g id="ytick_3">
     <g id="line2d_12">
      <g>
       <use style="stroke:#000000;stroke-width:0.8;" x="88.76" xlink:href="#m8284ec97a0" y="61.463019"/>
      </g>
     </g>
     <g id="text_12">
      <!-- 2 -->
      <g transform="translate(71.58 67.541769)scale(0.16 -0.16)">
       <use xlink:href="#DejaVuSans-32"/>
      </g>
     </g>
    </g>
    <g id="text_13">
     <!-- Azimuth [rad] -->
     <g transform="translate(64.2525 150.270833)rotate(-90)scale(0.16 -0.16)">
      <defs>
       <path d="M 2188 4044 
L 1331 1722 
L 3047 1722 
L 2188 4044 
z
M 1831 4666 
L 2547 4666 
L 4325 0 
L 3669 0 
L 3244 1197 
L 1141 1197 
L 716 0 
L 50 0 
L 1831 4666 
z
" id="DejaVuSans-41" transform="scale(0.015625)"/>
       <path d="M 353 3500 
L 3084 3500 
L 3084 2975 
L 922 459 
L 3084 459 
L 3084 0 
L 275 0 
L 275 525 
L 2438 3041 
L 353 3041 
L 353 3500 
z
" id="DejaVuSans-7a" transform="scale(0.015625)"/>
       <path d="M 603 3500 
L 1178 3500 
L 1178 0 
L 603 0 
L 603 3500 
z
M 603 4863 
L 1178 4863 
L 1178 4134 
L 603 4134 
L 603 4863 
z
" id="DejaVuSans-69" transform="scale(0.015625)"/>
       <path d="M 3328 2828 
Q 3544 3216 3844 3400 
Q 4144 3584 4550 3584 
Q 5097 3584 5394 3201 
Q 5691 2819 5691 2113 
L 5691 0 
L 5113 0 
L 5113 2094 
Q 5113 2597 4934 2840 
Q 4756 3084 4391 3084 
Q 3944 3084 3684 2787 
Q 3425 2491 3425 1978 
L 3425 0 
L 2847 0 
L 2847 2094 
Q 2847 2600 2669 2842 
Q 2491 3084 2119 3084 
Q 1678 3084 1418 2786 
Q 1159 2488 1159 1978 
L 1159 0 
L 581 0 
L 581 3500 
L 1159 3500 
L 1159 2956 
Q 1356 3278 1631 3431 
Q 1906 3584 2284 3584 
Q 2666 3584 2933 3390 
Q 3200 3197 3328 2828 
z
" id="DejaVuSans-6d" transform="scale(0.015625)"/>
       <path d="M 544 1381 
L 544 3500 
L 1119 3500 
L 1119 1403 
Q 1119 906 1312 657 
Q 1506 409 1894 409 
Q 2359 409 2629 706 
Q 2900 1003 2900 1516 
L 2900 3500 
L 3475 3500 
L 3475 0 
L 2900 0 
L 2900 538 
Q 2691 219 2414 64 
Q 2138 -91 1772 -91 
Q 1169 -91 856 284 
Q 544 659 544 1381 
z
M 1991 3584 
L 1991 3584 
z
" id="DejaVuSans-75" transform="scale(0.015625)"/>
       <path d="M 1172 4494 
L 1172 3500 
L 2356 3500 
L 2356 3053 
L 1172 3053 
L 1172 1153 
Q 1172 725 1289 603 
Q 1406 481 1766 481 
L 2356 481 
L 2356 0 
L 1766 0 
Q 1100 0 847 248 
Q 594 497 594 1153 
L 594 3053 
L 172 3053 
L 172 3500 
L 594 3500 
L 594 4494 
L 1172 4494 
z
" id="DejaVuSans-74" transform="scale(0.015625)"/>
       <path d="M 3513 2113 
L 3513 0 
L 2938 0 
L 2938 2094 
Q 2938 2591 2744 2837 
Q 2550 3084 2163 3084 
Q 1697 3084 1428 2787 
Q 1159 2491 1159 1978 
L 1159 0 
L 581 0 
L 581 4863 
L 1159 4863 
L 1159 2956 
Q 1366 3272 1645 3428 
Q 1925 3584 2291 3584 
Q 2894 3584 3203 3211 
Q 3513 2838 3513 2113 
z
" id="DejaVuSans-68" transform="scale(0.015625)"/>
       <path id="DejaVuSans-20" transform="scale(0.015625)"/>
       <path d="M 550 4863 
L 1875 4863 
L 1875 4416 
L 1125 4416 
L 1125 -397 
L 1875 -397 
L 1875 -844 
L 550 -844 
L 550 4863 
z
" id="DejaVuSans-5b" transform="scale(0.015625)"/>
       <path d="M 2631 2963 
Q 2534 3019 2420 3045 
Q 2306 3072 2169 3072 
Q 1681 3072 1420 2755 
Q 1159 2438 1159 1844 
L 1159 0 
L 581 0 
L 581 3500 
L 1159 3500 
L 1159 2956 
Q 1341 3275 1631 3429 
Q 1922 3584 2338 3584 
Q 2397 3584 2469 3576 
Q 2541 3569 2628 3553 
L 2631 2963 
z
" id="DejaVuSans-72" transform="scale(0.015625)"/>
       <path d="M 2194 1759 
Q 1497 1759 1228 1600 
Q 959 1441 959 1056 
Q 959 750 1161 570 
Q 1363 391 1709 391 
Q 2188 391 2477 730 
Q 2766 1069 2766 1631 
L 2766 1759 
L 2194 1759 
z
M 3341 1997 
L 3341 0 
L 2766 0 
L 2766 531 
Q 2569 213 2275 61 
Q 1981 -91 1556 -91 
Q 1019 -91 701 211 
Q 384 513 384 1019 
Q 384 1609 779 1909 
Q 1175 2209 1959 2209 
L 2766 2209 
L 2766 2266 
Q 2766 2663 2505 2880 
Q 2244 3097 1772 3097 
Q 1472 3097 1187 3025 
Q 903 2953 641 2809 
L 641 3341 
Q 956 3463 1253 3523 
Q 1550 3584 1831 3584 
Q 2591 3584 2966 3190 
Q 3341 2797 3341 1997 
z
" id="DejaVuSans-61" transform="scale(0.015625)"/>
       <path d="M 2906 2969 
L 2906 4863 
L 3481 4863 
L 3481 0 
L 2906 0 
L 2906 525 
Q 2725 213 2448 61 
Q 2172 -91 1784 -91 
Q 1150 -91 751 415 
Q 353 922 353 1747 
Q 353 2572 751 3078 
Q 1150 3584 1784 3584 
Q 2172 3584 2448 3432 
Q 2725 3281 2906 2969 
z
M 947 1747 
Q 947 1113 1208 752 
Q 1469 391 1925 391 
Q 2381 391 2643 752 
Q 2906 1113 2906 1747 
Q 2906 2381 2643 2742 
Q 2381 3103 1925 3103 
Q 1469 3103 1208 2742 
Q 947 2381 947 1747 
z
" id="DejaVuSans-64" transform="scale(0.015625)"/>
       <path d="M 1947 4863 
L 1947 -844 
L 622 -844 
L 622 -397 
L 1369 -397 
L 1369 4416 
L 622 4416 
L 622 4863 
L 1947 4863 
z
" id="DejaVuSans-5d" transform="scale(0.015625)"/>
      </defs>
      <use xlink:href="#DejaVuSans-41"/>
      <use x="68.408203" xlink:href="#DejaVuSans-7a"/>
      <use x="120.898438" xlink:href="#DejaVuSans-69"/>
      <use x="148.681641" xlink:href="#DejaVuSans-6d"/>
      <use x="246.09375" xlink:href="#DejaVuSans-75"/>
      <use x="309.472656" xlink:href="#DejaVuSans-74"/>
      <use x="348.681641" xlink:href="#DejaVuSans-68"/>
      <use x="412.060547" xlink:href="#DejaVuSans-20"/>
      <use x="443.847656" xlink:href="#DejaVuSans-5b"/>
      <use x="482.861328" xlink:href="#DejaVuSans-72"/>
      <use x="523.974609" xlink:href="#DejaVuSans-61"/>
      <use x="585.253906" xlink:href="#DejaVuSans-64"/>
      <use x="648.730469" xlink:href="#DejaVuSans-5d"/>
     </g>
    </g>
    <g id="text_14">
     <!-- 1e−13 -->
     <g transform="translate(88.76 28.8)scale(0.16 -0.16)">
      <defs>
       <path d="M 3597 1894 
L 3597 1613 
L 953 1613 
Q 991 1019 1311 708 
Q 1631 397 2203 397 
Q 2534 397 2845 478 
Q 3156 559 3463 722 
L 3463 178 
Q 3153 47 2828 -22 
Q 2503 -91 2169 -91 
Q 1331 -91 842 396 
Q 353 884 353 1716 
Q 353 2575 817 3079 
Q 1281 3584 2069 3584 
Q 2775 3584 3186 3129 
Q 3597 2675 3597 1894 
z
M 3022 2063 
Q 3016 2534 2758 2815 
Q 2500 3097 2075 3097 
Q 1594 3097 1305 2825 
Q 1016 2553 972 2059 
L 3022 2063 
z
" id="DejaVuSans-65" transform="scale(0.015625)"/>
       <path d="M 678 2272 
L 4684 2272 
L 4684 1741 
L 678 1741 
L 678 2272 
z
" id="DejaVuSans-2212" transform="scale(0.015625)"/>
       <path d="M 2597 2516 
Q 3050 2419 3304 2112 
Q 3559 1806 3559 1356 
Q 3559 666 3084 287 
Q 2609 -91 1734 -91 
Q 1441 -91 1130 -33 
Q 819 25 488 141 
L 488 750 
Q 750 597 1062 519 
Q 1375 441 1716 441 
Q 2309 441 2620 675 
Q 2931 909 2931 1356 
Q 2931 1769 2642 2001 
Q 2353 2234 1838 2234 
L 1294 2234 
L 1294 2753 
L 1863 2753 
Q 2328 2753 2575 2939 
Q 2822 3125 2822 3475 
Q 2822 3834 2567 4026 
Q 2313 4219 1838 4219 
Q 1578 4219 1281 4162 
Q 984 4106 628 3988 
L 628 4550 
Q 988 4650 1302 4700 
Q 1616 4750 1894 4750 
Q 2613 4750 3031 4423 
Q 3450 4097 3450 3541 
Q 3450 3153 3228 2886 
Q 3006 2619 2597 2516 
z
" id="DejaVuSans-33" transform="scale(0.015625)"/>
      </defs>
      <use xlink:href="#DejaVuSans-31"/>
      <use x="63.623047" xlink:href="#DejaVuSans-65"/>
      <use x="125.146484" xlink:href="#DejaVuSans-2212"/>
      <use x="208.935547" xlink:href="#DejaVuSans-31"/>
      <use x="272.558594" xlink:href="#DejaVuSans-33"/>
     </g>
    </g>
   </g>
   <g id="line2d_13">
    <path clip-path="url(#p5ecd971dc9)" d="M 116.667273 152.938182 
L 120.295218 152.890577 
L 123.644091 152.938182 
L 130.062764 152.900098 
L 132.574418 152.912792 
L 143.737327 152.811235 
L 146.248982 152.684287 
L 148.481564 152.582729 
L 150.435073 152.506561 
L 152.667655 152.405003 
L 154.900236 152.227277 
L 155.179309 152.303445 
L 155.458382 152.176498 
L 155.737455 152.278056 
L 156.016527 152.176498 
L 156.2956 152.252666 
L 156.574673 152.125719 
L 156.853745 152.227277 
L 157.132818 152.10033 
L 157.411891 152.201888 
L 157.690964 152.10033 
L 157.970036 152.176498 
L 158.249109 152.049551 
L 158.528182 152.151109 
L 158.807255 152.049551 
L 159.086327 152.125719 
L 159.3654 152.024161 
L 159.644473 152.10033 
L 159.923545 151.973382 
L 160.202618 152.10033 
L 160.481691 151.973382 
L 161.039836 152.151109 
L 161.597982 151.922603 
L 162.4352 152.024161 
L 162.714273 151.871825 
L 163.272418 152.024161 
L 163.830564 151.821046 
L 164.388709 152.024161 
L 164.946855 151.770267 
L 165.505 151.922603 
L 166.342218 151.821046 
L 166.621291 151.922603 
L 167.179436 151.668709 
L 167.737582 151.871825 
L 168.295727 151.61793 
L 168.853873 151.770267 
L 169.691091 151.668709 
L 169.970164 151.770267 
L 170.528309 151.516372 
L 171.086455 151.719488 
L 171.6446 151.516372 
L 172.202745 151.668709 
L 172.760891 151.465593 
L 173.319036 151.61793 
L 173.877182 151.364035 
L 174.435327 151.61793 
L 174.993473 151.364035 
L 175.830691 151.414814 
L 176.109764 151.313257 
L 176.667909 151.465593 
L 177.226055 151.262478 
L 178.063273 151.313257 
L 178.342345 151.211699 
L 178.900491 151.364035 
L 179.458636 151.16092 
L 180.016782 151.364035 
L 180.574927 151.110141 
L 181.412145 151.211699 
L 181.691218 151.059362 
L 182.249364 151.211699 
L 182.807509 151.059362 
L 183.365655 151.211699 
L 183.9238 150.957804 
L 184.481945 151.110141 
L 185.319164 151.008583 
L 185.598236 151.110141 
L 186.156382 150.856246 
L 186.714527 151.059362 
L 187.272673 150.805467 
L 187.830818 150.957804 
L 188.668036 150.856246 
L 188.947109 150.957804 
L 189.505255 150.70391 
L 190.0634 150.907025 
L 190.621545 150.653131 
L 191.179691 150.856246 
L 191.737836 150.653131 
L 192.575055 150.70391 
L 192.854127 150.551573 
L 193.412273 150.754688 
L 193.970418 150.551573 
L 194.807636 150.602352 
L 195.086709 150.500794 
L 195.644855 150.653131 
L 196.203 150.399236 
L 196.761145 150.653131 
L 197.319291 150.399236 
L 198.156509 150.450015 
L 198.435582 150.348457 
L 198.993727 150.500794 
L 199.551873 150.297678 
L 200.389091 150.348457 
L 200.668164 150.246899 
L 201.226309 150.399236 
L 201.784455 150.19612 
L 202.3426 150.399236 
L 202.900745 150.145341 
L 203.737964 150.246899 
L 204.017036 150.094563 
L 204.575182 150.246899 
L 205.133327 150.094563 
L 205.691473 150.19612 
L 206.249618 149.993005 
L 206.807764 150.19612 
L 207.365909 149.891447 
L 208.203127 150.094563 
L 208.4822 149.891447 
L 209.040345 150.094563 
L 209.877564 149.891447 
L 210.156636 149.993005 
L 210.714782 149.789889 
L 211.272927 149.993005 
L 211.831073 149.789889 
L 212.389218 149.993005 
L 212.947364 149.688331 
L 213.505509 149.891447 
L 214.342727 149.688331 
L 214.6218 149.891447 
L 215.459018 149.688331 
L 215.738091 149.789889 
L 216.296236 149.586773 
L 216.854382 149.688331 
L 217.412527 149.485216 
L 217.970673 149.688331 
L 218.528818 149.485216 
L 219.086964 149.688331 
L 219.924182 149.485216 
L 220.203255 149.586773 
L 221.040473 149.383658 
L 221.598618 149.485216 
L 221.877691 149.383658 
L 222.435836 149.485216 
L 222.993982 149.2821 
L 223.552127 149.485216 
L 224.389345 149.2821 
L 224.947491 149.383658 
L 225.505636 149.2821 
L 225.784709 149.383658 
L 226.342855 149.180542 
L 226.901 149.2821 
L 227.459145 149.078984 
L 228.017291 149.2821 
L 228.296364 149.078984 
L 228.854509 149.180542 
L 229.133582 149.2821 
L 229.9708 149.078984 
L 230.249873 149.180542 
L 231.087091 148.977426 
L 231.366164 149.078984 
L 231.924309 148.977426 
L 232.482455 149.078984 
L 233.0406 148.875869 
L 233.598745 149.078984 
L 234.156891 148.774311 
L 234.715036 148.977426 
L 235.273182 148.774311 
L 235.831327 148.977426 
L 236.668545 148.774311 
L 236.947618 148.875869 
L 237.505764 148.672753 
L 238.063909 148.774311 
L 238.622055 148.672753 
L 239.1802 148.875869 
L 239.738345 148.571195 
L 240.296491 148.774311 
L 241.133709 148.571195 
L 241.412782 148.672753 
L 241.970927 148.469637 
L 242.529073 148.672753 
L 243.087218 148.469637 
L 243.645364 148.571195 
L 244.203509 148.368079 
L 244.761655 148.571195 
L 245.3198 148.266522 
L 245.877945 148.571195 
L 246.715164 148.368079 
L 246.994236 148.469637 
L 247.831455 148.266522 
L 248.110527 148.368079 
L 248.668673 148.164964 
L 248.947745 148.368079 
L 249.505891 148.266522 
L 249.784964 148.164964 
L 250.343109 148.368079 
L 250.901255 148.063406 
L 251.4594 148.266522 
L 252.296618 148.063406 
L 252.575691 148.266522 
L 253.412909 148.063406 
L 253.691982 148.164964 
L 254.250127 147.961848 
L 254.808273 148.063406 
L 255.366418 147.86029 
L 255.924564 148.164964 
L 256.482709 147.86029 
L 257.040855 148.063406 
L 257.878073 147.86029 
L 258.157145 147.961848 
L 258.994364 147.758732 
L 259.273436 147.961848 
L 259.831582 147.758732 
L 260.389727 147.86029 
L 260.947873 147.657175 
L 261.506018 147.86029 
L 262.064164 147.555617 
L 262.901382 147.758732 
L 263.180455 147.555617 
L 263.7386 147.758732 
L 264.575818 147.555617 
L 264.854891 147.657175 
L 265.413036 147.454059 
L 265.971182 147.555617 
L 267.366545 147.454059 
L 267.645618 147.352501 
L 268.203764 147.555617 
L 269.040982 147.352501 
L 269.599127 147.454059 
L 270.157273 147.352501 
L 270.436345 147.454059 
L 270.994491 147.250943 
L 271.552636 147.352501 
L 272.110782 147.149385 
L 272.668927 147.352501 
L 273.227073 147.149385 
L 273.785218 147.352501 
L 274.622436 147.149385 
L 274.901509 147.250943 
L 275.738727 147.047828 
L 276.0178 147.149385 
L 276.575945 147.047828 
L 277.134091 147.149385 
L 277.692236 146.94627 
L 278.250382 147.149385 
L 278.808527 146.844712 
L 279.366673 147.047828 
L 279.924818 146.844712 
L 280.482964 147.047828 
L 281.320182 146.844712 
L 281.599255 146.94627 
L 282.1574 146.743154 
L 282.715545 146.844712 
L 283.273691 146.743154 
L 283.831836 146.94627 
L 284.389982 146.641596 
L 284.948127 146.844712 
L 285.785345 146.641596 
L 286.064418 146.743154 
L 286.622564 146.540038 
L 287.180709 146.743154 
L 287.738855 146.540038 
L 288.297 146.641596 
L 288.855145 146.438481 
L 289.413291 146.641596 
L 289.971436 146.336923 
L 290.529582 146.641596 
L 291.3668 146.438481 
L 291.645873 146.540038 
L 292.483091 146.336923 
L 292.762164 146.438481 
L 293.320309 146.235365 
L 293.599382 146.438481 
L 294.715673 146.438481 
L 294.994745 146.641596 
L 295.273818 146.641596 
L 295.552891 146.844712 
L 296.111036 146.844712 
L 296.390109 147.047828 
L 296.669182 147.047828 
L 296.948255 147.250943 
L 297.5064 147.250943 
L 297.785473 147.454059 
L 298.064545 147.454059 
L 298.343618 147.657175 
L 298.622691 147.657175 
L 299.180836 148.063406 
L 299.459909 148.063406 
L 299.738982 148.266522 
L 300.297127 148.266522 
L 300.5762 148.469637 
L 300.855273 148.469637 
L 301.134345 148.672753 
L 301.692491 148.672753 
L 301.971564 148.875869 
L 302.250636 148.875869 
L 302.529709 149.078984 
L 303.087855 149.078984 
L 303.366927 149.2821 
L 303.646 149.2821 
L 303.925073 149.485216 
L 304.483218 149.485216 
L 304.762291 149.688331 
L 305.041364 149.688331 
L 305.599509 150.094563 
L 305.878582 150.094563 
L 306.157655 150.297678 
L 306.436727 150.297678 
L 306.7158 150.500794 
L 307.273945 150.500794 
L 307.553018 150.70391 
L 307.832091 150.70391 
L 308.111164 150.907025 
L 308.669309 150.907025 
L 308.948382 151.110141 
L 309.227455 151.110141 
L 309.506527 151.313257 
L 310.064673 151.313257 
L 310.343745 151.516372 
L 310.622818 151.516372 
L 310.901891 151.719488 
L 311.460036 151.719488 
L 311.739109 151.922603 
L 312.018182 151.922603 
L 312.576327 152.328835 
L 312.8554 152.328835 
L 313.134473 152.53195 
L 313.413545 152.53195 
L 313.692618 152.735066 
L 314.250764 152.735066 
L 314.529836 152.938182 
L 314.808909 152.938182 
L 315.087982 152.735066 
L 315.646127 152.735066 
L 315.9252 152.53195 
L 316.204273 152.53195 
L 316.483345 152.328835 
L 317.041491 152.328835 
L 317.320564 152.125719 
L 317.599636 152.125719 
L 317.878709 151.922603 
L 318.436855 151.922603 
L 318.715927 151.719488 
L 318.995 151.719488 
L 319.553145 151.313257 
L 319.832218 151.313257 
L 320.111291 151.110141 
L 320.390364 151.110141 
L 320.669436 150.907025 
L 321.227582 150.907025 
L 321.506655 150.70391 
L 321.785727 150.70391 
L 322.0648 150.500794 
L 322.622945 150.500794 
L 322.902018 150.297678 
L 323.181091 150.297678 
L 323.460164 150.094563 
L 324.018309 150.094563 
L 324.297382 149.891447 
L 324.576455 149.891447 
L 324.855527 149.688331 
L 325.413673 149.688331 
L 325.692745 149.485216 
L 325.971818 149.485216 
L 326.250891 149.078984 
L 326.809036 149.078984 
L 327.088109 148.875869 
L 327.367182 148.875869 
L 327.646255 148.672753 
L 328.2044 148.672753 
L 328.483473 148.469637 
L 328.762545 148.469637 
L 329.041618 148.266522 
L 329.599764 148.266522 
L 329.878836 148.063406 
L 330.157909 148.063406 
L 330.436982 147.86029 
L 330.716055 147.86029 
L 330.995127 147.657175 
L 331.553273 147.657175 
L 331.832345 147.454059 
L 332.111418 147.454059 
L 332.669564 147.047828 
L 332.948636 147.047828 
L 333.227709 146.641596 
L 333.506782 146.641596 
L 333.785855 146.438481 
L 334.344 146.438481 
L 334.623073 146.235365 
L 334.902145 146.235365 
L 335.181218 146.032249 
L 335.739364 146.032249 
L 336.018436 145.829134 
L 336.297509 145.829134 
L 336.576582 145.626018 
L 337.134727 145.626018 
L 337.4138 145.422902 
L 337.692873 145.422902 
L 337.971945 145.219787 
L 338.530091 145.219787 
L 338.809164 145.016671 
L 339.088236 145.016671 
L 339.367309 144.813555 
L 339.925455 144.813555 
L 340.204527 144.407324 
L 340.4836 144.407324 
L 340.762673 144.204208 
L 341.320818 144.204208 
L 341.599891 144.001093 
L 341.878964 144.001093 
L 342.158036 143.797977 
L 342.716182 143.797977 
L 342.995255 143.594861 
L 343.274327 143.594861 
L 343.5534 143.391746 
L 344.111545 143.391746 
L 344.390618 143.18863 
L 344.669691 143.18863 
L 344.948764 142.985514 
L 345.506909 142.985514 
L 345.785982 142.782399 
L 346.065055 142.782399 
L 346.344127 142.579283 
L 346.6232 142.579283 
L 347.181345 142.173052 
L 347.460418 142.173052 
L 347.739491 141.969936 
L 348.297636 141.969936 
L 348.576709 141.76682 
L 348.855782 141.76682 
L 349.134855 141.563705 
L 349.693 141.563705 
L 349.972073 141.360589 
L 350.251145 141.360589 
L 350.530218 141.157473 
L 351.088364 141.157473 
L 351.367436 140.954358 
L 351.646509 140.954358 
L 351.925582 140.751242 
L 352.483727 140.751242 
L 352.7628 140.548126 
L 353.041873 140.548126 
L 353.320945 140.345011 
L 353.600018 140.345011 
L 354.158164 139.938779 
L 354.437236 139.938779 
L 354.716309 139.735664 
L 355.274455 139.735664 
L 355.553527 139.532548 
L 355.8326 139.532548 
L 356.111673 139.329432 
L 356.669818 139.329432 
L 356.948891 139.126317 
L 357.227964 139.126317 
L 357.507036 138.923201 
L 358.065182 138.923201 
L 358.344255 138.720085 
L 358.623327 138.720085 
L 358.9024 138.51697 
L 359.460545 138.51697 
L 359.739618 138.313854 
L 360.018691 138.313854 
L 360.576836 137.907623 
L 360.855909 137.907623 
L 361.134982 137.704507 
L 361.414055 137.704507 
L 361.693127 137.501391 
L 362.251273 137.501391 
L 362.530345 137.298276 
L 362.809418 137.298276 
L 363.088491 137.09516 
L 363.646636 137.09516 
L 363.925709 136.892044 
L 364.204782 136.892044 
L 364.483855 136.688929 
L 365.042 136.688929 
L 365.321073 136.485813 
L 365.600145 136.485813 
L 365.879218 136.282697 
L 366.437364 136.282697 
L 366.716436 136.079582 
L 366.995509 136.079582 
L 367.553655 135.67335 
L 367.832727 135.67335 
L 368.1118 135.470235 
L 368.390873 135.470235 
L 368.669945 135.267119 
L 369.228091 135.267119 
L 369.507164 135.064003 
L 369.786236 135.064003 
L 370.065309 134.860888 
L 370.623455 134.860888 
L 370.902527 134.657772 
L 371.1816 134.657772 
L 371.460673 134.454656 
L 372.018818 134.454656 
L 372.297891 134.251541 
L 372.576964 134.251541 
L 372.856036 134.048425 
L 373.414182 134.048425 
L 373.693255 133.845309 
L 373.972327 133.845309 
L 374.2514 133.439078 
L 374.809545 133.439078 
L 375.088618 133.235962 
L 375.367691 133.235962 
L 375.646764 133.032847 
L 376.204909 133.032847 
L 376.483982 132.829731 
L 376.763055 132.829731 
L 377.042127 132.626615 
L 377.600273 132.626615 
L 377.879345 132.4235 
L 378.158418 132.4235 
L 378.437491 132.220384 
L 378.995636 132.220384 
L 379.274709 132.017268 
L 379.553782 132.017268 
L 379.832855 131.814153 
L 380.391 131.814153 
L 380.670073 131.611037 
L 380.949145 131.611037 
L 381.228218 131.204806 
L 381.786364 131.204806 
L 382.065436 131.00169 
L 382.344509 131.00169 
L 382.623582 130.798574 
L 383.181727 130.798574 
L 383.4608 130.595459 
L 383.739873 130.595459 
L 384.018945 130.392343 
L 384.577091 130.392343 
L 384.856164 130.189227 
L 385.135236 130.189227 
L 385.414309 129.986112 
L 385.972455 129.986112 
L 386.251527 129.782996 
L 386.5306 129.782996 
L 386.809673 129.57988 
L 387.367818 129.57988 
L 387.646891 129.376765 
L 387.925964 129.376765 
L 388.205036 128.970534 
L 388.763182 128.970534 
L 389.042255 128.767418 
L 389.321327 128.767418 
L 389.6004 128.564302 
L 390.158545 128.564302 
L 390.437618 128.361187 
L 390.716691 128.361187 
L 390.995764 128.158071 
L 391.553909 128.158071 
L 391.832982 127.954955 
L 392.112055 127.954955 
L 392.391127 127.75184 
L 392.949273 127.75184 
L 393.228345 127.548724 
L 393.507418 127.548724 
L 393.786491 127.345608 
L 394.344636 127.345608 
L 395.181855 126.736261 
L 395.74 126.736261 
L 396.019073 126.533146 
L 396.298145 126.533146 
L 396.577218 126.33003 
L 397.135364 126.33003 
L 397.414436 126.126914 
L 397.693509 126.126914 
L 397.972582 125.923799 
L 398.530727 125.923799 
L 398.8098 125.720683 
L 399.088873 125.720683 
L 399.367945 125.517567 
L 399.926091 125.517567 
L 400.205164 125.314452 
L 400.484236 125.314452 
L 400.763309 125.111336 
L 401.321455 125.111336 
L 402.158673 124.501989 
L 402.716818 124.501989 
L 402.995891 124.298873 
L 403.274964 124.298873 
L 403.554036 124.095758 
L 404.112182 124.095758 
L 404.391255 123.892642 
L 404.670327 123.892642 
L 404.9494 123.689526 
L 405.507545 123.689526 
L 405.786618 123.486411 
L 406.065691 123.486411 
L 406.344764 123.283295 
L 406.902909 123.283295 
L 407.181982 123.080179 
L 407.461055 123.080179 
L 407.740127 122.877064 
L 408.298273 122.877064 
L 409.135491 122.267717 
L 409.693636 122.267717 
L 409.972709 122.064601 
L 410.251782 122.064601 
L 410.530855 121.861485 
L 411.089 121.861485 
L 411.368073 121.65837 
L 411.647145 121.65837 
L 411.926218 121.455254 
L 412.484364 121.455254 
L 412.763436 121.252138 
L 413.042509 121.252138 
L 413.321582 121.049023 
L 413.879727 121.049023 
L 414.1588 120.845907 
L 414.437873 120.845907 
L 414.716945 120.642791 
L 415.275091 120.642791 
L 415.554164 120.23656 
L 415.833236 120.23656 
L 416.112309 120.033444 
L 416.670455 120.033444 
L 416.949527 119.830329 
L 417.2286 119.830329 
L 417.507673 119.627213 
L 418.065818 119.627213 
L 418.344891 119.424097 
L 418.623964 119.424097 
L 418.903036 119.220982 
L 419.461182 119.220982 
L 419.740255 119.017866 
L 420.019327 119.017866 
L 420.2984 118.81475 
L 420.856545 118.81475 
L 421.135618 118.611635 
L 421.414691 118.611635 
L 421.693764 118.408519 
L 422.251909 118.408519 
L 422.530982 118.002288 
L 422.810055 118.002288 
L 423.089127 117.799172 
L 423.647273 117.799172 
L 423.926345 117.596056 
L 424.205418 117.596056 
L 424.484491 117.392941 
L 425.042636 117.392941 
L 425.321709 117.189825 
L 425.600782 117.189825 
L 425.879855 116.986709 
L 426.438 116.986709 
L 426.717073 116.783594 
L 426.996145 116.783594 
L 427.275218 116.580478 
L 427.833364 116.580478 
L 428.112436 116.377362 
L 428.391509 116.377362 
L 428.670582 116.174247 
L 428.949655 116.174247 
L 429.5078 115.768015 
L 429.786873 115.768015 
L 430.065945 115.5649 
L 430.624091 115.5649 
L 430.903164 115.361784 
L 431.182236 115.361784 
L 431.461309 115.158668 
L 432.019455 115.158668 
L 432.298527 114.955553 
L 432.5776 114.955553 
L 432.856673 114.752437 
L 433.414818 114.752437 
L 433.693891 114.549321 
L 433.972964 114.549321 
L 434.252036 114.346206 
L 434.810182 114.346206 
L 435.089255 114.14309 
L 435.368327 114.14309 
L 435.6474 113.939974 
L 435.926473 113.939974 
L 436.484618 113.533743 
L 436.763691 113.533743 
L 437.042764 113.330627 
L 437.600909 113.330627 
L 437.879982 113.127512 
L 438.159055 113.127512 
L 438.438127 112.924396 
L 438.996273 112.924396 
L 439.275345 112.72128 
L 439.554418 112.72128 
L 439.833491 112.518165 
L 440.391636 112.518165 
L 440.670709 112.315049 
L 440.949782 112.315049 
L 441.228855 112.111933 
L 441.787 112.111933 
L 442.066073 111.908818 
L 442.345145 111.908818 
L 442.624218 111.705702 
L 442.903291 111.705702 
L 443.461436 111.299471 
L 443.740509 111.299471 
L 444.019582 111.096355 
L 444.577727 111.096355 
L 444.8568 110.893239 
L 445.135873 110.893239 
L 445.414945 110.690124 
L 445.973091 110.690124 
L 446.252164 110.487008 
L 446.531236 110.487008 
L 446.810309 110.283892 
L 447.368455 110.283892 
L 447.647527 110.080777 
L 447.9266 110.080777 
L 448.205673 109.877661 
L 448.763818 109.877661 
L 449.042891 109.674545 
L 449.321964 109.674545 
L 449.880109 109.268314 
L 450.159182 109.268314 
L 450.438255 109.065198 
L 450.717327 109.065198 
L 450.9964 108.862083 
L 451.554545 108.862083 
L 451.833618 108.658967 
L 452.112691 108.658967 
L 452.391764 108.455851 
L 452.949909 108.455851 
L 453.228982 108.252736 
L 453.508055 108.252736 
L 453.787127 108.04962 
L 454.345273 108.04962 
L 454.624345 107.846504 
L 454.903418 107.846504 
L 455.182491 107.643389 
L 455.740636 107.643389 
L 456.019709 107.440273 
L 456.298782 107.440273 
L 456.856927 107.034042 
L 457.136 107.034042 
L 457.415073 106.830926 
L 457.694145 106.830926 
L 457.973218 106.62781 
L 458.531364 106.62781 
L 458.810436 106.424695 
L 459.089509 106.424695 
L 459.368582 106.221579 
L 459.926727 106.221579 
L 460.2058 106.018464 
L 460.484873 106.018464 
L 460.763945 105.815348 
L 461.322091 105.815348 
L 461.601164 105.612232 
L 461.880236 105.612232 
L 462.159309 105.409117 
L 462.717455 105.409117 
L 462.996527 105.206001 
L 463.2756 105.206001 
L 463.554673 104.79977 
L 464.112818 104.79977 
L 464.391891 104.596654 
L 464.670964 104.596654 
L 464.950036 104.393538 
L 465.508182 104.393538 
L 465.787255 104.190423 
L 466.066327 104.190423 
L 466.3454 103.987307 
L 466.903545 103.987307 
L 467.182618 103.784191 
L 467.461691 103.784191 
L 467.740764 103.581076 
L 468.298909 103.581076 
L 468.577982 103.37796 
L 468.857055 103.37796 
L 469.136127 103.174844 
L 469.694273 103.174844 
L 469.973345 102.971729 
L 470.252418 102.971729 
L 470.531491 102.565497 
L 471.089636 102.565497 
L 471.368709 102.362382 
L 471.647782 102.362382 
L 471.926855 102.565497 
L 473.043145 102.565497 
L 473.322218 102.159266 
L 474.159436 102.159266 
L 474.438509 101.753035 
L 475.5548 101.753035 
L 475.833873 101.346803 
L 476.950164 101.346803 
L 477.229236 100.940572 
L 478.345527 100.940572 
L 478.6246 100.534341 
L 479.740891 100.534341 
L 480.019964 100.128109 
L 480.578109 100.128109 
L 480.857182 99.721878 
L 481.136255 99.721878 
L 481.415327 99.315647 
L 482.531618 99.315647 
L 482.810691 98.909415 
L 483.926982 98.909415 
L 484.206055 98.503184 
L 485.322345 98.503184 
L 485.601418 98.096953 
L 486.717709 98.096953 
L 486.996782 97.690721 
L 488.113073 97.690721 
L 488.392145 97.28449 
L 489.508436 97.28449 
L 489.787509 96.878259 
L 490.9038 96.878259 
L 491.182873 96.472027 
L 492.299164 96.472027 
L 492.578236 96.065796 
L 493.694527 96.065796 
L 493.9736 95.659565 
L 494.252673 95.659565 
L 494.531745 95.253333 
L 495.089891 95.253333 
L 495.368964 94.847102 
L 496.485255 94.847102 
L 496.764327 94.440871 
L 497.880618 94.440871 
L 498.159691 94.034639 
L 499.275982 94.034639 
L 499.555055 93.628408 
L 500.671345 93.628408 
L 500.950418 93.222177 
L 502.066709 93.222177 
L 502.345782 92.815945 
L 503.462073 92.815945 
L 503.741145 92.409714 
L 504.857436 92.409714 
L 505.136509 92.003483 
L 506.2528 92.003483 
L 506.531873 91.597251 
L 507.648164 91.597251 
L 508.206309 90.784789 
L 509.043527 90.784789 
L 509.3226 90.378557 
L 510.438891 90.378557 
L 510.717964 89.972326 
L 511.834255 89.972326 
L 512.113327 89.566095 
L 513.229618 89.566095 
L 513.508691 89.159863 
L 514.624982 89.159863 
L 514.904055 88.753632 
L 516.020345 88.753632 
L 516.299418 88.347401 
L 517.415709 88.347401 
L 517.694782 87.941169 
L 518.811073 87.941169 
L 519.090145 87.534938 
L 520.206436 87.534938 
L 520.485509 87.128707 
L 521.6018 87.128707 
L 522.159945 86.316244 
L 522.997164 86.316244 
L 523.276236 85.910013 
L 524.392527 85.910013 
L 524.6716 85.503781 
L 525.787891 85.503781 
L 526.066964 85.09755 
L 527.183255 85.09755 
L 527.462327 84.691319 
L 528.578618 84.691319 
L 528.857691 84.285087 
L 529.973982 84.285087 
L 530.253055 83.878856 
L 531.369345 83.878856 
L 531.648418 83.472625 
L 532.764709 83.472625 
L 533.043782 83.066394 
L 534.160073 83.066394 
L 534.439145 82.660162 
L 535.555436 82.660162 
L 535.834509 81.8477 
L 536.9508 81.8477 
L 537.229873 81.441468 
L 538.346164 81.441468 
L 538.625236 81.035237 
L 539.741527 81.035237 
L 540.0206 80.629006 
L 541.136891 80.629006 
L 541.415964 80.222774 
L 542.532255 80.222774 
L 542.811327 79.816543 
L 543.927618 79.816543 
L 544.206691 79.410312 
L 545.043909 79.410312 
L 545.322982 79.00408 
L 546.439273 79.00408 
L 546.718345 78.597849 
L 547.834636 78.597849 
L 548.113709 78.191618 
L 549.23 78.191618 
L 549.509073 77.379155 
L 550.625364 77.379155 
L 550.904436 76.972924 
L 552.020727 76.972924 
L 552.2998 76.566692 
L 553.416091 76.566692 
L 553.695164 76.160461 
L 554.811455 76.160461 
L 555.090527 75.75423 
L 556.206818 75.75423 
L 556.485891 75.347998 
L 557.602182 75.347998 
L 557.881255 74.941767 
L 558.997545 74.941767 
L 559.276618 74.535536 
L 560.392909 74.535536 
L 560.671982 74.129304 
L 561.788273 74.129304 
L 562.067345 73.723073 
L 563.183636 73.723073 
L 563.462709 72.91061 
L 564.579 72.91061 
L 564.858073 72.504379 
L 565.974364 72.504379 
L 566.253436 72.098148 
L 567.369727 72.098148 
L 567.6488 71.691916 
L 568.765091 71.691916 
L 569.044164 71.285685 
L 570.160455 71.285685 
L 570.439527 70.879454 
L 571.555818 70.879454 
L 571.834891 70.473222 
L 572.951182 70.473222 
L 573.230255 70.066991 
L 574.346545 70.066991 
L 574.625618 69.66076 
L 575.741909 69.66076 
L 576.020982 69.254528 
L 576.8582 69.254528 
L 577.416345 68.442066 
L 578.532636 68.442066 
L 578.811709 68.035834 
L 579.928 68.035834 
L 580.207073 67.629603 
L 581.323364 67.629603 
L 581.602436 67.223372 
L 582.718727 67.223372 
L 582.9978 66.81714 
L 584.114091 66.81714 
L 584.393164 66.410909 
L 585.509455 66.410909 
L 585.788527 66.004678 
L 586.904818 66.004678 
L 587.183891 65.598446 
L 588.300182 65.598446 
L 588.579255 65.192215 
L 589.695545 65.192215 
L 589.974618 64.785984 
L 590.532764 64.785984 
L 590.811836 64.379752 
L 591.090909 64.379752 
L 591.369982 63.973521 
L 592.486273 63.973521 
L 592.765345 63.56729 
L 593.881636 63.56729 
L 594.160709 63.161058 
L 595.277 63.161058 
L 595.556073 62.754827 
L 596.672364 62.754827 
L 596.951436 62.348596 
L 598.067727 62.348596 
L 598.3468 61.942364 
L 599.463091 61.942364 
L 599.742164 61.536133 
L 600.858455 61.536133 
L 601.137527 61.129902 
L 602.253818 61.129902 
L 602.532891 60.723671 
L 603.649182 60.723671 
L 603.928255 60.317439 
L 604.207327 60.317439 
L 604.4864 59.911208 
L 605.044545 59.911208 
L 605.323618 59.504977 
L 606.439909 59.504977 
L 606.718982 59.098745 
L 607.835273 59.098745 
L 608.114345 58.692514 
L 609.230636 58.692514 
L 609.509709 58.286283 
L 610.626 58.286283 
L 610.905073 57.880051 
L 612.021364 57.880051 
L 612.300436 57.47382 
L 613.416727 57.47382 
L 613.6958 57.067589 
L 614.812091 57.067589 
L 615.091164 56.661357 
L 616.207455 56.661357 
L 616.486527 56.255126 
L 617.602818 56.255126 
L 618.160964 55.442663 
L 618.998182 55.442663 
L 619.277255 55.036432 
L 620.393545 55.036432 
L 620.672618 54.630201 
L 621.788909 54.630201 
L 622.067982 54.223969 
L 623.184273 54.223969 
L 623.463345 53.817738 
L 624.579636 53.817738 
L 624.858709 53.411507 
L 625.975 53.411507 
L 626.254073 53.005275 
L 627.370364 53.005275 
L 627.649436 52.599044 
L 628.765727 52.599044 
L 629.0448 52.192813 
L 630.161091 52.192813 
L 630.440164 51.786581 
L 631.556455 51.786581 
L 631.835527 50.974119 
L 632.951818 50.974119 
L 633.230891 50.567887 
L 634.347182 50.567887 
L 634.626255 50.161656 
L 635.742545 50.161656 
L 636.021618 49.755425 
L 637.137909 49.755425 
L 637.416982 49.349193 
L 638.533273 49.349193 
L 638.812345 48.942962 
L 639.928636 48.942962 
L 640.207709 48.536731 
L 641.324 48.536731 
L 641.603073 48.130499 
L 642.719364 48.130499 
L 642.998436 47.724268 
L 644.114727 47.724268 
L 644.3938 47.318037 
L 645.510091 47.318037 
L 645.789164 46.505574 
L 646.905455 46.505574 
L 647.184527 46.099343 
L 648.300818 46.099343 
L 648.579891 45.693111 
L 649.696182 45.693111 
L 649.975255 45.28688 
L 651.091545 45.28688 
L 651.370618 44.880649 
L 652.486909 44.880649 
L 652.765982 44.474417 
L 653.882273 44.474417 
L 654.161345 44.068186 
L 655.277636 44.068186 
L 655.556709 43.661955 
L 656.673 43.661955 
L 656.952073 43.255723 
L 658.068364 43.255723 
L 658.347436 42.849492 
L 659.184655 42.849492 
L 659.7428 42.037029 
L 660.859091 42.037029 
L 661.138164 41.630798 
L 662.254455 41.630798 
L 662.533527 41.224567 
L 663.649818 41.224567 
L 663.928891 40.818335 
L 665.045182 40.818335 
L 665.324255 40.412104 
L 666.440545 40.412104 
L 666.719618 40.005873 
L 667.835909 40.005873 
L 668.114982 39.599641 
L 669.231273 39.599641 
L 669.510345 39.19341 
L 670.626636 39.19341 
L 670.905709 38.787179 
L 672.022 38.787179 
L 672.301073 38.380948 
L 672.859218 38.380948 
L 673.138291 37.974716 
L 673.417364 37.974716 
L 673.696436 37.568485 
L 674.812727 37.568485 
L 674.812727 37.568485 
" style="fill:none;stroke:#1f77b4;stroke-linecap:square;stroke-width:1.5;"/>
   </g>
   <g id="patch_3">
    <path d="M 88.76 158.706667 
L 88.76 31.8 
" style="fill:none;stroke:#000000;stroke-linecap:square;stroke-linejoin:miter;stroke-width:0.8;"/>
   </g>
   <g id="patch_4">
    <path d="M 702.72 158.706667 
L 702.72 31.8 
" style="fill:none;stroke:#000000;stroke-linecap:square;stroke-linejoin:miter;stroke-width:0.8;"/>
   </g>
   <g id="patch_5">
    <path d="M 88.76 158.706667 
L 702.72 158.706667 
" style="fill:none;stroke:#000000;stroke-linecap:square;stroke-linejoin:miter;stroke-width:0.8;"/>
   </g>
   <g id="patch_6">
    <path d="M 88.76 31.8 
L 702.72 31.8 
" style="fill:none;stroke:#000000;stroke-linecap:square;stroke-linejoin:miter;stroke-width:0.8;"/>
   </g>
  </g>
  <g id="axes_2">
   <g id="patch_7">
    <path d="M 88.76 338.813333 
L 702.72 338.813333 
L 702.72 211.906667 
L 88.76 211.906667 
z
" style="fill:#ffffff;"/>
   </g>
   <g id="matplotlib.axis_3">
    <g id="xtick_10">
     <g id="line2d_14">
      <g>
       <use style="stroke:#000000;stroke-width:0.8;" x="116.667273" xlink:href="#m9d1632187a" y="338.813333"/>
      </g>
     </g>
     <g id="text_15">
      <!-- 0 -->
      <g transform="translate(111.577273 357.970833)scale(0.16 -0.16)">
       <use xlink:href="#DejaVuSans-30"/>
      </g>
     </g>
    </g>
    <g id="xtick_11">
     <g id="line2d_15">
      <g>
       <use style="stroke:#000000;stroke-width:0.8;" x="186.435455" xlink:href="#m9d1632187a" y="338.813333"/>
      </g>
     </g>
     <g id="text_16">
      <!-- 25 -->
      <g transform="translate(176.255455 357.970833)scale(0.16 -0.16)">
       <use xlink:href="#DejaVuSans-32"/>
       <use x="63.623047" xlink:href="#DejaVuSans-35"/>
      </g>
     </g>
    </g>
    <g id="xtick_12">
     <g id="line2d_16">
      <g>
       <use style="stroke:#000000;stroke-width:0.8;" x="256.203636" xlink:href="#m9d1632187a" y="338.813333"/>
      </g>
     </g>
     <g id="text_17">
      <!-- 50 -->
      <g transform="translate(246.023636 357.970833)scale(0.16 -0.16)">
       <use xlink:href="#DejaVuSans-35"/>
       <use x="63.623047" xlink:href="#DejaVuSans-30"/>
      </g>
     </g>
    </g>
    <g id="xtick_13">
     <g id="line2d_17">
      <g>
       <use style="stroke:#000000;stroke-width:0.8;" x="325.971818" xlink:href="#m9d1632187a" y="338.813333"/>
      </g>
     </g>
     <g id="text_18">
      <!-- 75 -->
      <g transform="translate(315.791818 357.970833)scale(0.16 -0.16)">
       <use xlink:href="#DejaVuSans-37"/>
       <use x="63.623047" xlink:href="#DejaVuSans-35"/>
      </g>
     </g>
    </g>
    <g id="xtick_14">
     <g id="line2d_18">
      <g>
       <use style="stroke:#000000;stroke-width:0.8;" x="395.74" xlink:href="#m9d1632187a" y="338.813333"/>
      </g>
     </g>
     <g id="text_19">
      <!-- 100 -->
      <g transform="translate(380.47 357.970833)scale(0.16 -0.16)">
       <use xlink:href="#DejaVuSans-31"/>
       <use x="63.623047" xlink:href="#DejaVuSans-30"/>
       <use x="127.246094" xlink:href="#DejaVuSans-30"/>
      </g>
     </g>
    </g>
    <g id="xtick_15">
     <g id="line2d_19">
      <g>
       <use style="stroke:#000000;stroke-width:0.8;" x="465.508182" xlink:href="#m9d1632187a" y="338.813333"/>
      </g>
     </g>
     <g id="text_20">
      <!-- 125 -->
      <g transform="translate(450.238182 357.970833)scale(0.16 -0.16)">
       <use xlink:href="#DejaVuSans-31"/>
       <use x="63.623047" xlink:href="#DejaVuSans-32"/>
       <use x="127.246094" xlink:href="#DejaVuSans-35"/>
      </g>
     </g>
    </g>
    <g id="xtick_16">
     <g id="line2d_20">
      <g>
       <use style="stroke:#000000;stroke-width:0.8;" x="535.276364" xlink:href="#m9d1632187a" y="338.813333"/>
      </g>
     </g>
     <g id="text_21">
      <!-- 150 -->
      <g transform="translate(520.006364 357.970833)scale(0.16 -0.16)">
       <use xlink:href="#DejaVuSans-31"/>
       <use x="63.623047" xlink:href="#DejaVuSans-35"/>
       <use x="127.246094" xlink:href="#DejaVuSans-30"/>
      </g>
     </g>
    </g>
    <g id="xtick_17">
     <g id="line2d_21">
      <g>
       <use style="stroke:#000000;stroke-width:0.8;" x="605.044545" xlink:href="#m9d1632187a" y="338.813333"/>
      </g>
     </g>
     <g id="text_22">
      <!-- 175 -->
      <g transform="translate(589.774545 357.970833)scale(0.16 -0.16)">
       <use xlink:href="#DejaVuSans-31"/>
       <use x="63.623047" xlink:href="#DejaVuSans-37"/>
       <use x="127.246094" xlink:href="#DejaVuSans-35"/>
      </g>
     </g>
    </g>
    <g id="xtick_18">
     <g id="line2d_22">
      <g>
       <use style="stroke:#000000;stroke-width:0.8;" x="674.812727" xlink:href="#m9d1632187a" y="338.813333"/>
      </g>
     </g>
     <g id="text_23">
      <!-- 200 -->
      <g transform="translate(659.542727 357.970833)scale(0.16 -0.16)">
       <use xlink:href="#DejaVuSans-32"/>
       <use x="63.623047" xlink:href="#DejaVuSans-30"/>
       <use x="127.246094" xlink:href="#DejaVuSans-30"/>
      </g>
     </g>
    </g>
   </g>
   <g id="matplotlib.axis_4">
    <g id="ytick_4">
     <g id="line2d_23">
      <g>
       <use style="stroke:#000000;stroke-width:0.8;" x="88.76" xlink:href="#m8284ec97a0" y="333.044848"/>
      </g>
     </g>
     <g id="text_24">
      <!-- 0 -->
      <g transform="translate(71.58 339.123598)scale(0.16 -0.16)">
       <use xlink:href="#DejaVuSans-30"/>
      </g>
     </g>
    </g>
    <g id="ytick_5">
     <g id="line2d_24">
      <g>
       <use style="stroke:#000000;stroke-width:0.8;" x="88.76" xlink:href="#m8284ec97a0" y="288.394658"/>
      </g>
     </g>
     <g id="text_25">
      <!-- 1 -->
      <g transform="translate(71.58 294.473408)scale(0.16 -0.16)">
       <use xlink:href="#DejaVuSans-31"/>
      </g>
     </g>
    </g>
    <g id="ytick_6">
     <g id="line2d_25">
      <g>
       <use style="stroke:#000000;stroke-width:0.8;" x="88.76" xlink:href="#m8284ec97a0" y="243.744468"/>
      </g>
     </g>
     <g id="text_26">
      <!-- 2 -->
      <g transform="translate(71.58 249.823218)scale(0.16 -0.16)">
       <use xlink:href="#DejaVuSans-32"/>
      </g>
     </g>
    </g>
    <g id="text_27">
     <!-- velocity [m/s] -->
     <g transform="translate(64.2525 330.0675)rotate(-90)scale(0.16 -0.16)">
      <defs>
       <path d="M 191 3500 
L 800 3500 
L 1894 563 
L 2988 3500 
L 3597 3500 
L 2284 0 
L 1503 0 
L 191 3500 
z
" id="DejaVuSans-76" transform="scale(0.015625)"/>
       <path d="M 603 4863 
L 1178 4863 
L 1178 0 
L 603 0 
L 603 4863 
z
" id="DejaVuSans-6c" transform="scale(0.015625)"/>
       <path d="M 1959 3097 
Q 1497 3097 1228 2736 
Q 959 2375 959 1747 
Q 959 1119 1226 758 
Q 1494 397 1959 397 
Q 2419 397 2687 759 
Q 2956 1122 2956 1747 
Q 2956 2369 2687 2733 
Q 2419 3097 1959 3097 
z
M 1959 3584 
Q 2709 3584 3137 3096 
Q 3566 2609 3566 1747 
Q 3566 888 3137 398 
Q 2709 -91 1959 -91 
Q 1206 -91 779 398 
Q 353 888 353 1747 
Q 353 2609 779 3096 
Q 1206 3584 1959 3584 
z
" id="DejaVuSans-6f" transform="scale(0.015625)"/>
       <path d="M 3122 3366 
L 3122 2828 
Q 2878 2963 2633 3030 
Q 2388 3097 2138 3097 
Q 1578 3097 1268 2742 
Q 959 2388 959 1747 
Q 959 1106 1268 751 
Q 1578 397 2138 397 
Q 2388 397 2633 464 
Q 2878 531 3122 666 
L 3122 134 
Q 2881 22 2623 -34 
Q 2366 -91 2075 -91 
Q 1284 -91 818 406 
Q 353 903 353 1747 
Q 353 2603 823 3093 
Q 1294 3584 2113 3584 
Q 2378 3584 2631 3529 
Q 2884 3475 3122 3366 
z
" id="DejaVuSans-63" transform="scale(0.015625)"/>
       <path d="M 2059 -325 
Q 1816 -950 1584 -1140 
Q 1353 -1331 966 -1331 
L 506 -1331 
L 506 -850 
L 844 -850 
Q 1081 -850 1212 -737 
Q 1344 -625 1503 -206 
L 1606 56 
L 191 3500 
L 800 3500 
L 1894 763 
L 2988 3500 
L 3597 3500 
L 2059 -325 
z
" id="DejaVuSans-79" transform="scale(0.015625)"/>
       <path d="M 1625 4666 
L 2156 4666 
L 531 -594 
L 0 -594 
L 1625 4666 
z
" id="DejaVuSans-2f" transform="scale(0.015625)"/>
       <path d="M 2834 3397 
L 2834 2853 
Q 2591 2978 2328 3040 
Q 2066 3103 1784 3103 
Q 1356 3103 1142 2972 
Q 928 2841 928 2578 
Q 928 2378 1081 2264 
Q 1234 2150 1697 2047 
L 1894 2003 
Q 2506 1872 2764 1633 
Q 3022 1394 3022 966 
Q 3022 478 2636 193 
Q 2250 -91 1575 -91 
Q 1294 -91 989 -36 
Q 684 19 347 128 
L 347 722 
Q 666 556 975 473 
Q 1284 391 1588 391 
Q 1994 391 2212 530 
Q 2431 669 2431 922 
Q 2431 1156 2273 1281 
Q 2116 1406 1581 1522 
L 1381 1569 
Q 847 1681 609 1914 
Q 372 2147 372 2553 
Q 372 3047 722 3315 
Q 1072 3584 1716 3584 
Q 2034 3584 2315 3537 
Q 2597 3491 2834 3397 
z
" id="DejaVuSans-73" transform="scale(0.015625)"/>
      </defs>
      <use xlink:href="#DejaVuSans-76"/>
      <use x="59.179688" xlink:href="#DejaVuSans-65"/>
      <use x="120.703125" xlink:href="#DejaVuSans-6c"/>
      <use x="148.486328" xlink:href="#DejaVuSans-6f"/>
      <use x="209.667969" xlink:href="#DejaVuSans-63"/>
      <use x="264.648438" xlink:href="#DejaVuSans-69"/>
      <use x="292.431641" xlink:href="#DejaVuSans-74"/>
      <use x="331.640625" xlink:href="#DejaVuSans-79"/>
      <use x="390.820312" xlink:href="#DejaVuSans-20"/>
      <use x="422.607422" xlink:href="#DejaVuSans-5b"/>
      <use x="461.621094" xlink:href="#DejaVuSans-6d"/>
      <use x="559.033203" xlink:href="#DejaVuSans-2f"/>
      <use x="592.724609" xlink:href="#DejaVuSans-73"/>
      <use x="644.824219" xlink:href="#DejaVuSans-5d"/>
     </g>
    </g>
    <g id="text_28">
     <!-- 1e−5 -->
     <g transform="translate(88.76 208.906667)scale(0.16 -0.16)">
      <use xlink:href="#DejaVuSans-31"/>
      <use x="63.623047" xlink:href="#DejaVuSans-65"/>
      <use x="125.146484" xlink:href="#DejaVuSans-2212"/>
      <use x="208.935547" xlink:href="#DejaVuSans-35"/>
     </g>
    </g>
   </g>
   <g id="line2d_26">
    <path clip-path="url(#pfb199758ed)" d="M 116.667273 333.044848 
L 122.248727 332.931021 
L 127.830182 332.589986 
L 133.411636 332.023091 
L 138.993091 331.232573 
L 144.574545 330.221551 
L 150.435073 328.927039 
L 156.2956 327.399461 
L 162.156127 325.645463 
L 168.295727 323.573421 
L 174.435327 321.27116 
L 180.854 318.630043 
L 187.551745 315.633566 
L 194.528564 312.269159 
L 202.063527 308.38066 
L 209.877564 304.097732 
L 218.528818 299.098143 
L 228.296364 293.185598 
L 240.017418 285.812826 
L 257.878073 274.27273 
L 277.413164 261.71759 
L 288.855145 254.631214 
L 298.343618 249.010285 
L 306.7158 244.298053 
L 314.529836 240.147916 
L 321.785727 236.537374 
L 328.762545 233.309554 
L 335.460291 230.454519 
L 341.878964 227.957682 
L 348.018564 225.80072 
L 354.158164 223.880403 
L 360.018691 222.276564 
L 365.879218 220.903687 
L 371.460673 219.816388 
L 377.042127 218.948293 
L 382.623582 218.302831 
L 388.205036 217.882546 
L 393.786491 217.689099 
L 399.367945 217.723253 
L 404.9494 217.984873 
L 410.530855 218.472926 
L 416.112309 219.185486 
L 421.693764 220.119742 
L 427.275218 221.272006 
L 433.135745 222.711526 
L 438.996273 224.380116 
L 445.135873 226.365931 
L 451.275473 228.585691 
L 457.694145 231.144971 
L 464.391891 234.061317 
L 471.368709 237.348455 
L 478.6246 241.015379 
L 486.438636 245.219755 
L 494.810818 249.982182 
L 504.020218 255.479332 
L 514.904055 262.24644 
L 529.415836 271.557099 
L 558.160327 290.056418 
L 569.044164 296.763607 
L 578.532636 302.352467 
L 586.904818 307.030304 
L 594.718855 311.14346 
L 601.974745 314.715701 
L 608.951564 317.903336 
L 615.649309 320.716932 
L 622.067982 323.171646 
L 628.207582 325.286315 
L 634.347182 327.162585 
L 640.207709 328.722938 
L 646.068236 330.051113 
L 651.649691 331.094887 
L 657.231145 331.9187 
L 662.8126 332.519302 
L 668.394055 332.894322 
L 673.975509 333.04228 
L 674.812727 333.044842 
L 674.812727 333.044842 
" style="fill:none;stroke:#1f77b4;stroke-linecap:square;stroke-width:1.5;"/>
   </g>
   <g id="line2d_27">
    <path clip-path="url(#pfb199758ed)" d="M 116.667273 333.044848 
L 137.8768 319.402439 
L 149.318782 312.316063 
L 158.807255 306.695134 
L 167.179436 301.982902 
L 174.993473 297.832765 
L 182.249364 294.222223 
L 189.226182 290.994403 
L 195.923927 288.139368 
L 202.3426 285.642531 
L 208.4822 283.485569 
L 214.6218 281.565252 
L 220.482327 279.961413 
L 226.342855 278.588535 
L 231.924309 277.501236 
L 237.505764 276.633141 
L 243.087218 275.987678 
L 248.668673 275.567394 
L 254.250127 275.373947 
L 259.831582 275.4081 
L 265.413036 275.669719 
L 270.994491 276.157772 
L 276.575945 276.870332 
L 282.1574 277.804587 
L 287.738855 278.956851 
L 293.599382 280.396371 
L 299.459909 282.06496 
L 305.599509 284.050774 
L 311.739109 286.270535 
L 318.157782 288.829814 
L 324.855527 291.746159 
L 331.832345 295.033297 
L 339.088236 298.700221 
L 346.902273 302.904597 
L 355.274455 307.667023 
L 364.483855 313.164173 
L 375.367691 319.931281 
L 389.879473 329.24194 
L 395.74 333.044848 
L 416.949527 319.40244 
L 428.391509 312.316064 
L 437.879982 306.695135 
L 446.252164 301.982904 
L 454.0662 297.832767 
L 461.322091 294.222225 
L 468.298909 290.994405 
L 474.996655 288.139371 
L 481.415327 285.642534 
L 487.554927 283.485573 
L 493.694527 281.565256 
L 499.555055 279.961418 
L 505.415582 278.588541 
L 510.997036 277.501242 
L 516.578491 276.633148 
L 522.159945 275.987686 
L 527.7414 275.567402 
L 533.322855 275.373956 
L 538.904309 275.40811 
L 544.485764 275.66973 
L 550.067218 276.157783 
L 555.648673 276.870344 
L 561.230127 277.8046 
L 566.811582 278.956864 
L 572.672109 280.396385 
L 578.532636 282.064976 
L 584.672236 284.05079 
L 590.811836 286.270552 
L 597.230509 288.829831 
L 603.928255 291.746178 
L 610.905073 295.033316 
L 618.160964 298.70024 
L 625.975 302.904617 
L 634.347182 307.667044 
L 643.556582 313.164194 
L 654.440418 319.931303 
L 668.9522 329.241962 
L 674.812727 333.044826 
L 674.812727 333.044826 
" style="fill:none;stroke:#ff7f0e;stroke-linecap:square;stroke-width:1.5;"/>
   </g>
   <g id="patch_8">
    <path d="M 88.76 338.813333 
L 88.76 211.906667 
" style="fill:none;stroke:#000000;stroke-linecap:square;stroke-linejoin:miter;stroke-width:0.8;"/>
   </g>
   <g id="patch_9">
    <path d="M 702.72 338.813333 
L 702.72 211.906667 
" style="fill:none;stroke:#000000;stroke-linecap:square;stroke-linejoin:miter;stroke-width:0.8;"/>
   </g>
   <g id="patch_10">
    <path d="M 88.76 338.813333 
L 702.72 338.813333 
" style="fill:none;stroke:#000000;stroke-linecap:square;stroke-linejoin:miter;stroke-width:0.8;"/>
   </g>
   <g id="patch_11">
    <path d="M 88.76 211.906667 
L 702.72 211.906667 
" style="fill:none;stroke:#000000;stroke-linecap:square;stroke-linejoin:miter;stroke-width:0.8;"/>
   </g>
   <g id="legend_1">
    <g id="patch_12">
     <path d="M 596.59 272.566667 
L 691.52 272.566667 
Q 694.72 272.566667 694.72 269.366667 
L 694.72 223.106667 
Q 694.72 219.906667 691.52 219.906667 
L 596.59 219.906667 
Q 593.39 219.906667 593.39 223.106667 
L 593.39 269.366667 
Q 593.39 272.566667 596.59 272.566667 
z
" style="fill:#ffffff;opacity:0.8;stroke:#cccccc;stroke-linejoin:miter;"/>
    </g>
    <g id="line2d_28">
     <path d="M 599.79 232.864167 
L 631.79 232.864167 
" style="fill:none;stroke:#1f77b4;stroke-linecap:square;stroke-width:1.5;"/>
    </g>
    <g id="line2d_29"/>
    <g id="text_29">
     <!-- vel_E -->
     <g transform="translate(644.59 238.464167)scale(0.16 -0.16)">
      <defs>
       <path d="M 3263 -1063 
L 3263 -1509 
L -63 -1509 
L -63 -1063 
L 3263 -1063 
z
" id="DejaVuSans-5f" transform="scale(0.015625)"/>
       <path d="M 628 4666 
L 3578 4666 
L 3578 4134 
L 1259 4134 
L 1259 2753 
L 3481 2753 
L 3481 2222 
L 1259 2222 
L 1259 531 
L 3634 531 
L 3634 0 
L 628 0 
L 628 4666 
z
" id="DejaVuSans-45" transform="scale(0.015625)"/>
      </defs>
      <use xlink:href="#DejaVuSans-76"/>
      <use x="59.179688" xlink:href="#DejaVuSans-65"/>
      <use x="120.703125" xlink:href="#DejaVuSans-6c"/>
      <use x="148.486328" xlink:href="#DejaVuSans-5f"/>
      <use x="198.486328" xlink:href="#DejaVuSans-45"/>
     </g>
    </g>
    <g id="line2d_30">
     <path d="M 599.79 256.794167 
L 631.79 256.794167 
" style="fill:none;stroke:#ff7f0e;stroke-linecap:square;stroke-width:1.5;"/>
    </g>
    <g id="line2d_31"/>
    <g id="text_30">
     <!-- vel_N -->
     <g transform="translate(644.59 262.394167)scale(0.16 -0.16)">
      <defs>
       <path d="M 628 4666 
L 1478 4666 
L 3547 763 
L 3547 4666 
L 4159 4666 
L 4159 0 
L 3309 0 
L 1241 3903 
L 1241 0 
L 628 0 
L 628 4666 
z
" id="DejaVuSans-4e" transform="scale(0.015625)"/>
      </defs>
      <use xlink:href="#DejaVuSans-76"/>
      <use x="59.179688" xlink:href="#DejaVuSans-65"/>
      <use x="120.703125" xlink:href="#DejaVuSans-6c"/>
      <use x="148.486328" xlink:href="#DejaVuSans-5f"/>
      <use x="198.486328" xlink:href="#DejaVuSans-4e"/>
     </g>
    </g>
   </g>
  </g>
  <g id="axes_3">
   <g id="patch_13">
    <path d="M 88.76 518.92 
L 702.72 518.92 
L 702.72 392.013333 
L 88.76 392.013333 
z
" style="fill:#ffffff;"/>
   </g>
   <g id="matplotlib.axis_5">
    <g id="xtick_19">
     <g id="line2d_32">
      <g>
       <use style="stroke:#000000;stroke-width:0.8;" x="116.667273" xlink:href="#m9d1632187a" y="518.92"/>
      </g>
     </g>
     <g id="text_31">
      <!-- 0 -->
      <g transform="translate(111.577273 538.0775)scale(0.16 -0.16)">
       <use xlink:href="#DejaVuSans-30"/>
      </g>
     </g>
    </g>
    <g id="xtick_20">
     <g id="line2d_33">
      <g>
       <use style="stroke:#000000;stroke-width:0.8;" x="186.435455" xlink:href="#m9d1632187a" y="518.92"/>
      </g>
     </g>
     <g id="text_32">
      <!-- 25 -->
      <g transform="translate(176.255455 538.0775)scale(0.16 -0.16)">
       <use xlink:href="#DejaVuSans-32"/>
       <use x="63.623047" xlink:href="#DejaVuSans-35"/>
      </g>
     </g>
    </g>
    <g id="xtick_21">
     <g id="line2d_34">
      <g>
       <use style="stroke:#000000;stroke-width:0.8;" x="256.203636" xlink:href="#m9d1632187a" y="518.92"/>
      </g>
     </g>
     <g id="text_33">
      <!-- 50 -->
      <g transform="translate(246.023636 538.0775)scale(0.16 -0.16)">
       <use xlink:href="#DejaVuSans-35"/>
       <use x="63.623047" xlink:href="#DejaVuSans-30"/>
      </g>
     </g>
    </g>
    <g id="xtick_22">
     <g id="line2d_35">
      <g>
       <use style="stroke:#000000;stroke-width:0.8;" x="325.971818" xlink:href="#m9d1632187a" y="518.92"/>
      </g>
     </g>
     <g id="text_34">
      <!-- 75 -->
      <g transform="translate(315.791818 538.0775)scale(0.16 -0.16)">
       <use xlink:href="#DejaVuSans-37"/>
       <use x="63.623047" xlink:href="#DejaVuSans-35"/>
      </g>
     </g>
    </g>
    <g id="xtick_23">
     <g id="line2d_36">
      <g>
       <use style="stroke:#000000;stroke-width:0.8;" x="395.74" xlink:href="#m9d1632187a" y="518.92"/>
      </g>
     </g>
     <g id="text_35">
      <!-- 100 -->
      <g transform="translate(380.47 538.0775)scale(0.16 -0.16)">
       <use xlink:href="#DejaVuSans-31"/>
       <use x="63.623047" xlink:href="#DejaVuSans-30"/>
       <use x="127.246094" xlink:href="#DejaVuSans-30"/>
      </g>
     </g>
    </g>
    <g id="xtick_24">
     <g id="line2d_37">
      <g>
       <use style="stroke:#000000;stroke-width:0.8;" x="465.508182" xlink:href="#m9d1632187a" y="518.92"/>
      </g>
     </g>
     <g id="text_36">
      <!-- 125 -->
      <g transform="translate(450.238182 538.0775)scale(0.16 -0.16)">
       <use xlink:href="#DejaVuSans-31"/>
       <use x="63.623047" xlink:href="#DejaVuSans-32"/>
       <use x="127.246094" xlink:href="#DejaVuSans-35"/>
      </g>
     </g>
    </g>
    <g id="xtick_25">
     <g id="line2d_38">
      <g>
       <use style="stroke:#000000;stroke-width:0.8;" x="535.276364" xlink:href="#m9d1632187a" y="518.92"/>
      </g>
     </g>
     <g id="text_37">
      <!-- 150 -->
      <g transform="translate(520.006364 538.0775)scale(0.16 -0.16)">
       <use xlink:href="#DejaVuSans-31"/>
       <use x="63.623047" xlink:href="#DejaVuSans-35"/>
       <use x="127.246094" xlink:href="#DejaVuSans-30"/>
      </g>
     </g>
    </g>
    <g id="xtick_26">
     <g id="line2d_39">
      <g>
       <use style="stroke:#000000;stroke-width:0.8;" x="605.044545" xlink:href="#m9d1632187a" y="518.92"/>
      </g>
     </g>
     <g id="text_38">
      <!-- 175 -->
      <g transform="translate(589.774545 538.0775)scale(0.16 -0.16)">
       <use xlink:href="#DejaVuSans-31"/>
       <use x="63.623047" xlink:href="#DejaVuSans-37"/>
       <use x="127.246094" xlink:href="#DejaVuSans-35"/>
      </g>
     </g>
    </g>
    <g id="xtick_27">
     <g id="line2d_40">
      <g>
       <use style="stroke:#000000;stroke-width:0.8;" x="674.812727" xlink:href="#m9d1632187a" y="518.92"/>
      </g>
     </g>
     <g id="text_39">
      <!-- 200 -->
      <g transform="translate(659.542727 538.0775)scale(0.16 -0.16)">
       <use xlink:href="#DejaVuSans-32"/>
       <use x="63.623047" xlink:href="#DejaVuSans-30"/>
       <use x="127.246094" xlink:href="#DejaVuSans-30"/>
      </g>
     </g>
    </g>
    <g id="text_40">
     <!-- steps [-] -->
     <g transform="translate(362.59625 557.5625)scale(0.16 -0.16)">
      <defs>
       <path d="M 1159 525 
L 1159 -1331 
L 581 -1331 
L 581 3500 
L 1159 3500 
L 1159 2969 
Q 1341 3281 1617 3432 
Q 1894 3584 2278 3584 
Q 2916 3584 3314 3078 
Q 3713 2572 3713 1747 
Q 3713 922 3314 415 
Q 2916 -91 2278 -91 
Q 1894 -91 1617 61 
Q 1341 213 1159 525 
z
M 3116 1747 
Q 3116 2381 2855 2742 
Q 2594 3103 2138 3103 
Q 1681 3103 1420 2742 
Q 1159 2381 1159 1747 
Q 1159 1113 1420 752 
Q 1681 391 2138 391 
Q 2594 391 2855 752 
Q 3116 1113 3116 1747 
z
" id="DejaVuSans-70" transform="scale(0.015625)"/>
       <path d="M 313 2009 
L 1997 2009 
L 1997 1497 
L 313 1497 
L 313 2009 
z
" id="DejaVuSans-2d" transform="scale(0.015625)"/>
      </defs>
      <use xlink:href="#DejaVuSans-73"/>
      <use x="52.099609" xlink:href="#DejaVuSans-74"/>
      <use x="91.308594" xlink:href="#DejaVuSans-65"/>
      <use x="152.832031" xlink:href="#DejaVuSans-70"/>
      <use x="216.308594" xlink:href="#DejaVuSans-73"/>
      <use x="268.408203" xlink:href="#DejaVuSans-20"/>
      <use x="300.195312" xlink:href="#DejaVuSans-5b"/>
      <use x="339.208984" xlink:href="#DejaVuSans-2d"/>
      <use x="375.292969" xlink:href="#DejaVuSans-5d"/>
     </g>
    </g>
   </g>
   <g id="matplotlib.axis_6">
    <g id="ytick_7">
     <g id="line2d_41">
      <g>
       <use style="stroke:#000000;stroke-width:0.8;" x="88.76" xlink:href="#m8284ec97a0" y="513.151515"/>
      </g>
     </g>
     <g id="text_41">
      <!-- 0.000 -->
      <g transform="translate(35.955 519.230265)scale(0.16 -0.16)">
       <defs>
        <path d="M 684 794 
L 1344 794 
L 1344 0 
L 684 0 
L 684 794 
z
" id="DejaVuSans-2e" transform="scale(0.015625)"/>
       </defs>
       <use xlink:href="#DejaVuSans-30"/>
       <use x="63.623047" xlink:href="#DejaVuSans-2e"/>
       <use x="95.410156" xlink:href="#DejaVuSans-30"/>
       <use x="159.033203" xlink:href="#DejaVuSans-30"/>
       <use x="222.65625" xlink:href="#DejaVuSans-30"/>
      </g>
     </g>
    </g>
    <g id="ytick_8">
     <g id="line2d_42">
      <g>
       <use style="stroke:#000000;stroke-width:0.8;" x="88.76" xlink:href="#m8284ec97a0" y="432.627996"/>
      </g>
     </g>
     <g id="text_42">
      <!-- 0.002 -->
      <g transform="translate(35.955 438.706746)scale(0.16 -0.16)">
       <use xlink:href="#DejaVuSans-30"/>
       <use x="63.623047" xlink:href="#DejaVuSans-2e"/>
       <use x="95.410156" xlink:href="#DejaVuSans-30"/>
       <use x="159.033203" xlink:href="#DejaVuSans-30"/>
       <use x="222.65625" xlink:href="#DejaVuSans-32"/>
      </g>
     </g>
    </g>
    <g id="text_43">
     <!-- Position [m] -->
     <g transform="translate(28.6275 503.186667)rotate(-90)scale(0.16 -0.16)">
      <defs>
       <path d="M 1259 4147 
L 1259 2394 
L 2053 2394 
Q 2494 2394 2734 2622 
Q 2975 2850 2975 3272 
Q 2975 3691 2734 3919 
Q 2494 4147 2053 4147 
L 1259 4147 
z
M 628 4666 
L 2053 4666 
Q 2838 4666 3239 4311 
Q 3641 3956 3641 3272 
Q 3641 2581 3239 2228 
Q 2838 1875 2053 1875 
L 1259 1875 
L 1259 0 
L 628 0 
L 628 4666 
z
" id="DejaVuSans-50" transform="scale(0.015625)"/>
       <path d="M 3513 2113 
L 3513 0 
L 2938 0 
L 2938 2094 
Q 2938 2591 2744 2837 
Q 2550 3084 2163 3084 
Q 1697 3084 1428 2787 
Q 1159 2491 1159 1978 
L 1159 0 
L 581 0 
L 581 3500 
L 1159 3500 
L 1159 2956 
Q 1366 3272 1645 3428 
Q 1925 3584 2291 3584 
Q 2894 3584 3203 3211 
Q 3513 2838 3513 2113 
z
" id="DejaVuSans-6e" transform="scale(0.015625)"/>
      </defs>
      <use xlink:href="#DejaVuSans-50"/>
      <use x="56.677734" xlink:href="#DejaVuSans-6f"/>
      <use x="117.859375" xlink:href="#DejaVuSans-73"/>
      <use x="169.958984" xlink:href="#DejaVuSans-69"/>
      <use x="197.742188" xlink:href="#DejaVuSans-74"/>
      <use x="236.951172" xlink:href="#DejaVuSans-69"/>
      <use x="264.734375" xlink:href="#DejaVuSans-6f"/>
      <use x="325.916016" xlink:href="#DejaVuSans-6e"/>
      <use x="389.294922" xlink:href="#DejaVuSans-20"/>
      <use x="421.082031" xlink:href="#DejaVuSans-5b"/>
      <use x="460.095703" xlink:href="#DejaVuSans-6d"/>
      <use x="557.507812" xlink:href="#DejaVuSans-5d"/>
     </g>
    </g>
   </g>
   <g id="line2d_43">
    <path clip-path="url(#p86d6eecbdd)" d="M 116.667273 513.151515 
L 140.9466 508.738452 
L 154.063018 506.589577 
L 164.946855 505.025908 
L 174.7144 503.839719 
L 183.9238 502.943415 
L 192.575055 502.323428 
L 200.947236 501.948616 
L 209.040345 501.813189 
L 216.854382 501.907045 
L 224.389345 502.216548 
L 231.924309 502.749053 
L 239.459273 503.510829 
L 246.715164 504.465412 
L 253.971055 505.639544 
L 261.226945 507.034415 
L 268.482836 508.649742 
L 276.0178 510.55864 
L 283.552764 512.69975 
L 285.2272 513.096444 
L 293.041236 510.5851 
L 300.855273 507.839396 
L 308.948382 504.759219 
L 317.320564 501.333438 
L 325.971818 497.555139 
L 335.181218 493.289756 
L 344.948764 488.521659 
L 355.8326 482.955392 
L 368.1118 476.419508 
L 383.739873 467.832585 
L 427.833364 443.449492 
L 440.112564 437.004239 
L 450.9964 431.541983 
L 460.763945 426.884855 
L 469.973345 422.738124 
L 478.6246 419.082531 
L 486.996782 415.784752 
L 495.089891 412.835884 
L 502.903927 410.222994 
L 510.438891 407.929919 
L 517.973855 405.865707 
L 525.508818 404.035102 
L 532.764709 402.495963 
L 540.0206 401.177544 
L 547.276491 400.07962 
L 554.532382 399.200492 
L 562.067345 398.515735 
L 569.602309 398.058341 
L 577.137273 397.8215 
L 584.951309 397.799853 
L 593.044418 398.006103 
L 601.4166 398.449319 
L 610.067855 399.134159 
L 619.277255 400.092305 
L 629.0448 401.335255 
L 639.928636 402.950648 
L 652.486909 405.047016 
L 669.510345 408.133781 
L 674.812727 409.120898 
L 674.812727 409.120898 
" style="fill:none;stroke:#1f77b4;stroke-linecap:square;stroke-width:1.5;"/>
   </g>
   <g id="line2d_44">
    <path clip-path="url(#p86d6eecbdd)" d="M 116.667273 513.151515 
L 123.923164 513.041111 
L 131.179055 512.710634 
L 138.434945 512.162288 
L 145.969909 511.366188 
L 153.504873 510.344815 
L 161.318909 509.055539 
L 169.132945 507.541874 
L 177.226055 505.750098 
L 185.598236 503.672299 
L 194.528564 501.22524 
L 204.017036 498.391413 
L 214.342727 495.070977 
L 226.063782 491.058527 
L 240.296491 485.935656 
L 268.203764 475.577832 
L 284.948127 469.508418 
L 297.5064 465.189809 
L 308.111164 461.770373 
L 317.878709 458.849867 
L 327.088109 456.33006 
L 335.739364 454.194411 
L 344.111545 452.36066 
L 352.204655 450.821395 
L 360.018691 449.565031 
L 367.553655 448.576607 
L 375.088618 447.814406 
L 382.344509 447.299377 
L 389.6004 447.002651 
L 396.856291 446.926206 
L 404.112182 447.070552 
L 411.368073 447.434727 
L 418.623964 448.016303 
L 426.158927 448.846178 
L 433.693891 449.900339 
L 441.507927 451.222322 
L 449.321964 452.767126 
L 457.415073 454.589244 
L 466.066327 456.770029 
L 474.996655 459.252205 
L 484.485127 462.118884 
L 495.089891 465.562918 
L 507.090018 469.705887 
L 521.880873 475.062988 
L 568.765091 492.227613 
L 580.486145 496.172332 
L 590.811836 499.417189 
L 600.300309 502.169332 
L 609.230636 504.529664 
L 617.602818 506.518275 
L 625.695927 508.217346 
L 633.509964 509.636178 
L 641.324 510.826129 
L 648.858964 511.748192 
L 656.393927 512.442236 
L 663.649818 512.890393 
L 670.905709 513.119483 
L 674.812727 513.151506 
L 674.812727 513.151506 
" style="fill:none;stroke:#ff7f0e;stroke-linecap:square;stroke-width:1.5;"/>
   </g>
   <g id="patch_14">
    <path d="M 88.76 518.92 
L 88.76 392.013333 
" style="fill:none;stroke:#000000;stroke-linecap:square;stroke-linejoin:miter;stroke-width:0.8;"/>
   </g>
   <g id="patch_15">
    <path d="M 702.72 518.92 
L 702.72 392.013333 
" style="fill:none;stroke:#000000;stroke-linecap:square;stroke-linejoin:miter;stroke-width:0.8;"/>
   </g>
   <g id="patch_16">
    <path d="M 88.76 518.92 
L 702.72 518.92 
" style="fill:none;stroke:#000000;stroke-linecap:square;stroke-linejoin:miter;stroke-width:0.8;"/>
   </g>
   <g id="patch_17">
    <path d="M 88.76 392.013333 
L 702.72 392.013333 
" style="fill:none;stroke:#000000;stroke-linecap:square;stroke-linejoin:miter;stroke-width:0.8;"/>
   </g>
   <g id="legend_2">
    <g id="patch_18">
     <path d="M 99.96 452.673333 
L 199.4125 452.673333 
Q 202.6125 452.673333 202.6125 449.473333 
L 202.6125 403.213333 
Q 202.6125 400.013333 199.4125 400.013333 
L 99.96 400.013333 
Q 96.76 400.013333 96.76 403.213333 
L 96.76 449.473333 
Q 96.76 452.673333 99.96 452.673333 
z
" style="fill:#ffffff;opacity:0.8;stroke:#cccccc;stroke-linejoin:miter;"/>
    </g>
    <g id="line2d_45">
     <path d="M 103.16 412.970833 
L 135.16 412.970833 
" style="fill:none;stroke:#1f77b4;stroke-linecap:square;stroke-width:1.5;"/>
    </g>
    <g id="line2d_46"/>
    <g id="text_44">
     <!-- pos_E -->
     <g transform="translate(147.96 418.570833)scale(0.16 -0.16)">
      <use xlink:href="#DejaVuSans-70"/>
      <use x="63.476562" xlink:href="#DejaVuSans-6f"/>
      <use x="124.658203" xlink:href="#DejaVuSans-73"/>
      <use x="176.757812" xlink:href="#DejaVuSans-5f"/>
      <use x="226.757812" xlink:href="#DejaVuSans-45"/>
     </g>
    </g>
    <g id="line2d_47">
     <path d="M 103.16 436.900833 
L 135.16 436.900833 
" style="fill:none;stroke:#ff7f0e;stroke-linecap:square;stroke-width:1.5;"/>
    </g>
    <g id="line2d_48"/>
    <g id="text_45">
     <!-- pos_N -->
     <g transform="translate(147.96 442.500833)scale(0.16 -0.16)">
      <use xlink:href="#DejaVuSans-70"/>
      <use x="63.476562" xlink:href="#DejaVuSans-6f"/>
      <use x="124.658203" xlink:href="#DejaVuSans-73"/>
      <use x="176.757812" xlink:href="#DejaVuSans-5f"/>
      <use x="226.757812" xlink:href="#DejaVuSans-4e"/>
     </g>
    </g>
   </g>
  </g>
 </g>
 <defs>
  <clipPath id="p5ecd971dc9">
   <rect height="126.906667" width="613.96" x="88.76" y="31.8"/>
  </clipPath>
  <clipPath id="pfb199758ed">
   <rect height="126.906667" width="613.96" x="88.76" y="211.906667"/>
  </clipPath>
  <clipPath id="p86d6eecbdd">
   <rect height="126.906667" width="613.96" x="88.76" y="392.013333"/>
  </clipPath>
 </defs>
</svg>
