<?xml version="1.0" encoding="utf-8" standalone="no"?>
<!DOCTYPE svg PUBLIC "-//W3C//DTD SVG 1.1//EN"
  "http://www.w3.org/Graphics/SVG/1.1/DTD/svg11.dtd">
<svg xmlns:xlink="http://www.w3.org/1999/xlink" width="720pt" height="576pt" viewBox="0 0 720 576" xmlns="http://www.w3.org/2000/svg" version="1.1">
 <metadata>
  <rdf:RDF xmlns:dc="http://purl.org/dc/elements/1.1/" xmlns:cc="http://creativecommons.org/ns#" xmlns:rdf="http://www.w3.org/1999/02/22-rdf-syntax-ns#">
   <cc:Work>
    <dc:type rdf:resource="http://purl.org/dc/dcmitype/StillImage"/>
    <dc:date>2024-04-15T11:31:22.352065</dc:date>
    <dc:format>image/svg+xml</dc:format>
    <dc:creator>
     <cc:Agent>
      <dc:title>Matplotlib v3.7.1, https://matplotlib.org/</dc:title>
     </cc:Agent>
    </dc:creator>
   </cc:Work>
  </rdf:RDF>
 </metadata>
 <defs>
  <style type="text/css">*{stroke-linejoin: round; stroke-linecap: butt}</style>
 </defs>
 <g id="figure_1">
  <g id="patch_1">
   <path d="M 0 576 
L 720 576 
L 720 0 
L 0 0 
z
" style="fill: #ffffff"/>
  </g>
  <g id="axes_1">
   <g id="patch_2">
    <path d="M 65.18 189.746667 
L 709.2 189.746667 
L 709.2 46.92 
L 65.18 46.92 
z
" style="fill: #ffffff"/>
   </g>
   <g id="matplotlib.axis_1">
    <g id="xtick_1">
     <g id="line2d_1">
      <defs>
       <path id="m214c6f771a" d="M 0 0 
L 0 3.5 
" style="stroke: #000000; stroke-width: 0.8"/>
      </defs>
      <g>
       <use xlink:href="#m214c6f771a" x="94.453636" y="189.746667" style="stroke: #000000; stroke-width: 0.8"/>
      </g>
     </g>
     <g id="text_1">
      <!-- 0 -->
      <g transform="translate(91.272386 204.345104) scale(0.1 -0.1)">
       <defs>
        <path id="DejaVuSans-30" d="M 2034 4250 
Q 1547 4250 1301 3770 
Q 1056 3291 1056 2328 
Q 1056 1369 1301 889 
Q 1547 409 2034 409 
Q 2525 409 2770 889 
Q 3016 1369 3016 2328 
Q 3016 3291 2770 3770 
Q 2525 4250 2034 4250 
z
M 2034 4750 
Q 2819 4750 3233 4129 
Q 3647 3509 3647 2328 
Q 3647 1150 3233 529 
Q 2819 -91 2034 -91 
Q 1250 -91 836 529 
Q 422 1150 422 2328 
Q 422 3509 836 4129 
Q 1250 4750 2034 4750 
z
" transform="scale(0.015625)"/>
       </defs>
       <use xlink:href="#DejaVuSans-30"/>
      </g>
     </g>
    </g>
    <g id="xtick_2">
     <g id="line2d_2">
      <g>
       <use xlink:href="#m214c6f771a" x="167.637727" y="189.746667" style="stroke: #000000; stroke-width: 0.8"/>
      </g>
     </g>
     <g id="text_2">
      <!-- 25 -->
      <g transform="translate(161.275227 204.345104) scale(0.1 -0.1)">
       <defs>
        <path id="DejaVuSans-32" d="M 1228 531 
L 3431 531 
L 3431 0 
L 469 0 
L 469 531 
Q 828 903 1448 1529 
Q 2069 2156 2228 2338 
Q 2531 2678 2651 2914 
Q 2772 3150 2772 3378 
Q 2772 3750 2511 3984 
Q 2250 4219 1831 4219 
Q 1534 4219 1204 4116 
Q 875 4013 500 3803 
L 500 4441 
Q 881 4594 1212 4672 
Q 1544 4750 1819 4750 
Q 2544 4750 2975 4387 
Q 3406 4025 3406 3419 
Q 3406 3131 3298 2873 
Q 3191 2616 2906 2266 
Q 2828 2175 2409 1742 
Q 1991 1309 1228 531 
z
" transform="scale(0.015625)"/>
        <path id="DejaVuSans-35" d="M 691 4666 
L 3169 4666 
L 3169 4134 
L 1269 4134 
L 1269 2991 
Q 1406 3038 1543 3061 
Q 1681 3084 1819 3084 
Q 2600 3084 3056 2656 
Q 3513 2228 3513 1497 
Q 3513 744 3044 326 
Q 2575 -91 1722 -91 
Q 1428 -91 1123 -41 
Q 819 9 494 109 
L 494 744 
Q 775 591 1075 516 
Q 1375 441 1709 441 
Q 2250 441 2565 725 
Q 2881 1009 2881 1497 
Q 2881 1984 2565 2268 
Q 2250 2553 1709 2553 
Q 1456 2553 1204 2497 
Q 953 2441 691 2322 
L 691 4666 
z
" transform="scale(0.015625)"/>
       </defs>
       <use xlink:href="#DejaVuSans-32"/>
       <use xlink:href="#DejaVuSans-35" x="63.623047"/>
      </g>
     </g>
    </g>
    <g id="xtick_3">
     <g id="line2d_3">
      <g>
       <use xlink:href="#m214c6f771a" x="240.821818" y="189.746667" style="stroke: #000000; stroke-width: 0.8"/>
      </g>
     </g>
     <g id="text_3">
      <!-- 50 -->
      <g transform="translate(234.459318 204.345104) scale(0.1 -0.1)">
       <use xlink:href="#DejaVuSans-35"/>
       <use xlink:href="#DejaVuSans-30" x="63.623047"/>
      </g>
     </g>
    </g>
    <g id="xtick_4">
     <g id="line2d_4">
      <g>
       <use xlink:href="#m214c6f771a" x="314.005909" y="189.746667" style="stroke: #000000; stroke-width: 0.8"/>
      </g>
     </g>
     <g id="text_4">
      <!-- 75 -->
      <g transform="translate(307.643409 204.345104) scale(0.1 -0.1)">
       <defs>
        <path id="DejaVuSans-37" d="M 525 4666 
L 3525 4666 
L 3525 4397 
L 1831 0 
L 1172 0 
L 2766 4134 
L 525 4134 
L 525 4666 
z
" transform="scale(0.015625)"/>
       </defs>
       <use xlink:href="#DejaVuSans-37"/>
       <use xlink:href="#DejaVuSans-35" x="63.623047"/>
      </g>
     </g>
    </g>
    <g id="xtick_5">
     <g id="line2d_5">
      <g>
       <use xlink:href="#m214c6f771a" x="387.19" y="189.746667" style="stroke: #000000; stroke-width: 0.8"/>
      </g>
     </g>
     <g id="text_5">
      <!-- 100 -->
      <g transform="translate(377.64625 204.345104) scale(0.1 -0.1)">
       <defs>
        <path id="DejaVuSans-31" d="M 794 531 
L 1825 531 
L 1825 4091 
L 703 3866 
L 703 4441 
L 1819 4666 
L 2450 4666 
L 2450 531 
L 3481 531 
L 3481 0 
L 794 0 
L 794 531 
z
" transform="scale(0.015625)"/>
       </defs>
       <use xlink:href="#DejaVuSans-31"/>
       <use xlink:href="#DejaVuSans-30" x="63.623047"/>
       <use xlink:href="#DejaVuSans-30" x="127.246094"/>
      </g>
     </g>
    </g>
    <g id="xtick_6">
     <g id="line2d_6">
      <g>
       <use xlink:href="#m214c6f771a" x="460.374091" y="189.746667" style="stroke: #000000; stroke-width: 0.8"/>
      </g>
     </g>
     <g id="text_6">
      <!-- 125 -->
      <g transform="translate(450.830341 204.345104) scale(0.1 -0.1)">
       <use xlink:href="#DejaVuSans-31"/>
       <use xlink:href="#DejaVuSans-32" x="63.623047"/>
       <use xlink:href="#DejaVuSans-35" x="127.246094"/>
      </g>
     </g>
    </g>
    <g id="xtick_7">
     <g id="line2d_7">
      <g>
       <use xlink:href="#m214c6f771a" x="533.558182" y="189.746667" style="stroke: #000000; stroke-width: 0.8"/>
      </g>
     </g>
     <g id="text_7">
      <!-- 150 -->
      <g transform="translate(524.014432 204.345104) scale(0.1 -0.1)">
       <use xlink:href="#DejaVuSans-31"/>
       <use xlink:href="#DejaVuSans-35" x="63.623047"/>
       <use xlink:href="#DejaVuSans-30" x="127.246094"/>
      </g>
     </g>
    </g>
    <g id="xtick_8">
     <g id="line2d_8">
      <g>
       <use xlink:href="#m214c6f771a" x="606.742273" y="189.746667" style="stroke: #000000; stroke-width: 0.8"/>
      </g>
     </g>
     <g id="text_8">
      <!-- 175 -->
      <g transform="translate(597.198523 204.345104) scale(0.1 -0.1)">
       <use xlink:href="#DejaVuSans-31"/>
       <use xlink:href="#DejaVuSans-37" x="63.623047"/>
       <use xlink:href="#DejaVuSans-35" x="127.246094"/>
      </g>
     </g>
    </g>
    <g id="xtick_9">
     <g id="line2d_9">
      <g>
       <use xlink:href="#m214c6f771a" x="679.926364" y="189.746667" style="stroke: #000000; stroke-width: 0.8"/>
      </g>
     </g>
     <g id="text_9">
      <!-- 200 -->
      <g transform="translate(670.382614 204.345104) scale(0.1 -0.1)">
       <use xlink:href="#DejaVuSans-32"/>
       <use xlink:href="#DejaVuSans-30" x="63.623047"/>
       <use xlink:href="#DejaVuSans-30" x="127.246094"/>
      </g>
     </g>
    </g>
   </g>
   <g id="matplotlib.axis_2">
    <g id="ytick_1">
     <g id="line2d_10">
      <defs>
       <path id="m0fdf601106" d="M 0 0 
L -3.5 0 
" style="stroke: #000000; stroke-width: 0.8"/>
      </defs>
      <g>
       <use xlink:href="#m0fdf601106" x="65.18" y="182.163513" style="stroke: #000000; stroke-width: 0.8"/>
      </g>
     </g>
     <g id="text_10">
      <!-- −2.5 -->
      <g transform="translate(33.897187 185.962732) scale(0.1 -0.1)">
       <defs>
        <path id="DejaVuSans-2212" d="M 678 2272 
L 4684 2272 
L 4684 1741 
L 678 1741 
L 678 2272 
z
" transform="scale(0.015625)"/>
        <path id="DejaVuSans-2e" d="M 684 794 
L 1344 794 
L 1344 0 
L 684 0 
L 684 794 
z
" transform="scale(0.015625)"/>
       </defs>
       <use xlink:href="#DejaVuSans-2212"/>
       <use xlink:href="#DejaVuSans-32" x="83.789062"/>
       <use xlink:href="#DejaVuSans-2e" x="147.412109"/>
       <use xlink:href="#DejaVuSans-35" x="179.199219"/>
      </g>
     </g>
    </g>
    <g id="ytick_2">
     <g id="line2d_11">
      <g>
       <use xlink:href="#m0fdf601106" x="65.18" y="157.839125" style="stroke: #000000; stroke-width: 0.8"/>
      </g>
     </g>
     <g id="text_11">
      <!-- −2.0 -->
      <g transform="translate(33.897187 161.638344) scale(0.1 -0.1)">
       <use xlink:href="#DejaVuSans-2212"/>
       <use xlink:href="#DejaVuSans-32" x="83.789062"/>
       <use xlink:href="#DejaVuSans-2e" x="147.412109"/>
       <use xlink:href="#DejaVuSans-30" x="179.199219"/>
      </g>
     </g>
    </g>
    <g id="ytick_3">
     <g id="line2d_12">
      <g>
       <use xlink:href="#m0fdf601106" x="65.18" y="133.514737" style="stroke: #000000; stroke-width: 0.8"/>
      </g>
     </g>
     <g id="text_12">
      <!-- −1.5 -->
      <g transform="translate(33.897187 137.313956) scale(0.1 -0.1)">
       <use xlink:href="#DejaVuSans-2212"/>
       <use xlink:href="#DejaVuSans-31" x="83.789062"/>
       <use xlink:href="#DejaVuSans-2e" x="147.412109"/>
       <use xlink:href="#DejaVuSans-35" x="179.199219"/>
      </g>
     </g>
    </g>
    <g id="ytick_4">
     <g id="line2d_13">
      <g>
       <use xlink:href="#m0fdf601106" x="65.18" y="109.190349" style="stroke: #000000; stroke-width: 0.8"/>
      </g>
     </g>
     <g id="text_13">
      <!-- −1.0 -->
      <g transform="translate(33.897187 112.989567) scale(0.1 -0.1)">
       <use xlink:href="#DejaVuSans-2212"/>
       <use xlink:href="#DejaVuSans-31" x="83.789062"/>
       <use xlink:href="#DejaVuSans-2e" x="147.412109"/>
       <use xlink:href="#DejaVuSans-30" x="179.199219"/>
      </g>
     </g>
    </g>
    <g id="ytick_5">
     <g id="line2d_14">
      <g>
       <use xlink:href="#m0fdf601106" x="65.18" y="84.86596" style="stroke: #000000; stroke-width: 0.8"/>
      </g>
     </g>
     <g id="text_14">
      <!-- −0.5 -->
      <g transform="translate(33.897187 88.665179) scale(0.1 -0.1)">
       <use xlink:href="#DejaVuSans-2212"/>
       <use xlink:href="#DejaVuSans-30" x="83.789062"/>
       <use xlink:href="#DejaVuSans-2e" x="147.412109"/>
       <use xlink:href="#DejaVuSans-35" x="179.199219"/>
      </g>
     </g>
    </g>
    <g id="ytick_6">
     <g id="line2d_15">
      <g>
       <use xlink:href="#m0fdf601106" x="65.18" y="60.541572" style="stroke: #000000; stroke-width: 0.8"/>
      </g>
     </g>
     <g id="text_15">
      <!-- 0.0 -->
      <g transform="translate(42.276875 64.340791) scale(0.1 -0.1)">
       <use xlink:href="#DejaVuSans-30"/>
       <use xlink:href="#DejaVuSans-2e" x="63.623047"/>
       <use xlink:href="#DejaVuSans-30" x="95.410156"/>
      </g>
     </g>
    </g>
    <g id="text_16">
     <!-- Azimuth [rad] -->
     <g transform="translate(21.039062 159.596458) rotate(-90) scale(0.12 -0.12)">
      <defs>
       <path id="DejaVuSans-41" d="M 2188 4044 
L 1331 1722 
L 3047 1722 
L 2188 4044 
z
M 1831 4666 
L 2547 4666 
L 4325 0 
L 3669 0 
L 3244 1197 
L 1141 1197 
L 716 0 
L 50 0 
L 1831 4666 
z
" transform="scale(0.015625)"/>
       <path id="DejaVuSans-7a" d="M 353 3500 
L 3084 3500 
L 3084 2975 
L 922 459 
L 3084 459 
L 3084 0 
L 275 0 
L 275 525 
L 2438 3041 
L 353 3041 
L 353 3500 
z
" transform="scale(0.015625)"/>
       <path id="DejaVuSans-69" d="M 603 3500 
L 1178 3500 
L 1178 0 
L 603 0 
L 603 3500 
z
M 603 4863 
L 1178 4863 
L 1178 4134 
L 603 4134 
L 603 4863 
z
" transform="scale(0.015625)"/>
       <path id="DejaVuSans-6d" d="M 3328 2828 
Q 3544 3216 3844 3400 
Q 4144 3584 4550 3584 
Q 5097 3584 5394 3201 
Q 5691 2819 5691 2113 
L 5691 0 
L 5113 0 
L 5113 2094 
Q 5113 2597 4934 2840 
Q 4756 3084 4391 3084 
Q 3944 3084 3684 2787 
Q 3425 2491 3425 1978 
L 3425 0 
L 2847 0 
L 2847 2094 
Q 2847 2600 2669 2842 
Q 2491 3084 2119 3084 
Q 1678 3084 1418 2786 
Q 1159 2488 1159 1978 
L 1159 0 
L 581 0 
L 581 3500 
L 1159 3500 
L 1159 2956 
Q 1356 3278 1631 3431 
Q 1906 3584 2284 3584 
Q 2666 3584 2933 3390 
Q 3200 3197 3328 2828 
z
" transform="scale(0.015625)"/>
       <path id="DejaVuSans-75" d="M 544 1381 
L 544 3500 
L 1119 3500 
L 1119 1403 
Q 1119 906 1312 657 
Q 1506 409 1894 409 
Q 2359 409 2629 706 
Q 2900 1003 2900 1516 
L 2900 3500 
L 3475 3500 
L 3475 0 
L 2900 0 
L 2900 538 
Q 2691 219 2414 64 
Q 2138 -91 1772 -91 
Q 1169 -91 856 284 
Q 544 659 544 1381 
z
M 1991 3584 
L 1991 3584 
z
" transform="scale(0.015625)"/>
       <path id="DejaVuSans-74" d="M 1172 4494 
L 1172 3500 
L 2356 3500 
L 2356 3053 
L 1172 3053 
L 1172 1153 
Q 1172 725 1289 603 
Q 1406 481 1766 481 
L 2356 481 
L 2356 0 
L 1766 0 
Q 1100 0 847 248 
Q 594 497 594 1153 
L 594 3053 
L 172 3053 
L 172 3500 
L 594 3500 
L 594 4494 
L 1172 4494 
z
" transform="scale(0.015625)"/>
       <path id="DejaVuSans-68" d="M 3513 2113 
L 3513 0 
L 2938 0 
L 2938 2094 
Q 2938 2591 2744 2837 
Q 2550 3084 2163 3084 
Q 1697 3084 1428 2787 
Q 1159 2491 1159 1978 
L 1159 0 
L 581 0 
L 581 4863 
L 1159 4863 
L 1159 2956 
Q 1366 3272 1645 3428 
Q 1925 3584 2291 3584 
Q 2894 3584 3203 3211 
Q 3513 2838 3513 2113 
z
" transform="scale(0.015625)"/>
       <path id="DejaVuSans-20" transform="scale(0.015625)"/>
       <path id="DejaVuSans-5b" d="M 550 4863 
L 1875 4863 
L 1875 4416 
L 1125 4416 
L 1125 -397 
L 1875 -397 
L 1875 -844 
L 550 -844 
L 550 4863 
z
" transform="scale(0.015625)"/>
       <path id="DejaVuSans-72" d="M 2631 2963 
Q 2534 3019 2420 3045 
Q 2306 3072 2169 3072 
Q 1681 3072 1420 2755 
Q 1159 2438 1159 1844 
L 1159 0 
L 581 0 
L 581 3500 
L 1159 3500 
L 1159 2956 
Q 1341 3275 1631 3429 
Q 1922 3584 2338 3584 
Q 2397 3584 2469 3576 
Q 2541 3569 2628 3553 
L 2631 2963 
z
" transform="scale(0.015625)"/>
       <path id="DejaVuSans-61" d="M 2194 1759 
Q 1497 1759 1228 1600 
Q 959 1441 959 1056 
Q 959 750 1161 570 
Q 1363 391 1709 391 
Q 2188 391 2477 730 
Q 2766 1069 2766 1631 
L 2766 1759 
L 2194 1759 
z
M 3341 1997 
L 3341 0 
L 2766 0 
L 2766 531 
Q 2569 213 2275 61 
Q 1981 -91 1556 -91 
Q 1019 -91 701 211 
Q 384 513 384 1019 
Q 384 1609 779 1909 
Q 1175 2209 1959 2209 
L 2766 2209 
L 2766 2266 
Q 2766 2663 2505 2880 
Q 2244 3097 1772 3097 
Q 1472 3097 1187 3025 
Q 903 2953 641 2809 
L 641 3341 
Q 956 3463 1253 3523 
Q 1550 3584 1831 3584 
Q 2591 3584 2966 3190 
Q 3341 2797 3341 1997 
z
" transform="scale(0.015625)"/>
       <path id="DejaVuSans-64" d="M 2906 2969 
L 2906 4863 
L 3481 4863 
L 3481 0 
L 2906 0 
L 2906 525 
Q 2725 213 2448 61 
Q 2172 -91 1784 -91 
Q 1150 -91 751 415 
Q 353 922 353 1747 
Q 353 2572 751 3078 
Q 1150 3584 1784 3584 
Q 2172 3584 2448 3432 
Q 2725 3281 2906 2969 
z
M 947 1747 
Q 947 1113 1208 752 
Q 1469 391 1925 391 
Q 2381 391 2643 752 
Q 2906 1113 2906 1747 
Q 2906 2381 2643 2742 
Q 2381 3103 1925 3103 
Q 1469 3103 1208 2742 
Q 947 2381 947 1747 
z
" transform="scale(0.015625)"/>
       <path id="DejaVuSans-5d" d="M 1947 4863 
L 1947 -844 
L 622 -844 
L 622 -397 
L 1369 -397 
L 1369 4416 
L 622 4416 
L 622 4863 
L 1947 4863 
z
" transform="scale(0.015625)"/>
      </defs>
      <use xlink:href="#DejaVuSans-41"/>
      <use xlink:href="#DejaVuSans-7a" x="68.408203"/>
      <use xlink:href="#DejaVuSans-69" x="120.898438"/>
      <use xlink:href="#DejaVuSans-6d" x="148.681641"/>
      <use xlink:href="#DejaVuSans-75" x="246.09375"/>
      <use xlink:href="#DejaVuSans-74" x="309.472656"/>
      <use xlink:href="#DejaVuSans-68" x="348.681641"/>
      <use xlink:href="#DejaVuSans-20" x="412.060547"/>
      <use xlink:href="#DejaVuSans-5b" x="443.847656"/>
      <use xlink:href="#DejaVuSans-72" x="482.861328"/>
      <use xlink:href="#DejaVuSans-61" x="523.974609"/>
      <use xlink:href="#DejaVuSans-64" x="585.253906"/>
      <use xlink:href="#DejaVuSans-5d" x="648.730469"/>
     </g>
    </g>
    <g id="text_17">
     <!-- 1e−13 -->
     <g transform="translate(65.18 43.92) scale(0.1 -0.1)">
      <defs>
       <path id="DejaVuSans-65" d="M 3597 1894 
L 3597 1613 
L 953 1613 
Q 991 1019 1311 708 
Q 1631 397 2203 397 
Q 2534 397 2845 478 
Q 3156 559 3463 722 
L 3463 178 
Q 3153 47 2828 -22 
Q 2503 -91 2169 -91 
Q 1331 -91 842 396 
Q 353 884 353 1716 
Q 353 2575 817 3079 
Q 1281 3584 2069 3584 
Q 2775 3584 3186 3129 
Q 3597 2675 3597 1894 
z
M 3022 2063 
Q 3016 2534 2758 2815 
Q 2500 3097 2075 3097 
Q 1594 3097 1305 2825 
Q 1016 2553 972 2059 
L 3022 2063 
z
" transform="scale(0.015625)"/>
       <path id="DejaVuSans-33" d="M 2597 2516 
Q 3050 2419 3304 2112 
Q 3559 1806 3559 1356 
Q 3559 666 3084 287 
Q 2609 -91 1734 -91 
Q 1441 -91 1130 -33 
Q 819 25 488 141 
L 488 750 
Q 750 597 1062 519 
Q 1375 441 1716 441 
Q 2309 441 2620 675 
Q 2931 909 2931 1356 
Q 2931 1769 2642 2001 
Q 2353 2234 1838 2234 
L 1294 2234 
L 1294 2753 
L 1863 2753 
Q 2328 2753 2575 2939 
Q 2822 3125 2822 3475 
Q 2822 3834 2567 4026 
Q 2313 4219 1838 4219 
Q 1578 4219 1281 4162 
Q 984 4106 628 3988 
L 628 4550 
Q 988 4650 1302 4700 
Q 1616 4750 1894 4750 
Q 2613 4750 3031 4423 
Q 3450 4097 3450 3541 
Q 3450 3153 3228 2886 
Q 3006 2619 2597 2516 
z
" transform="scale(0.015625)"/>
      </defs>
      <use xlink:href="#DejaVuSans-31"/>
      <use xlink:href="#DejaVuSans-65" x="63.623047"/>
      <use xlink:href="#DejaVuSans-2212" x="125.146484"/>
      <use xlink:href="#DejaVuSans-31" x="208.935547"/>
      <use xlink:href="#DejaVuSans-33" x="272.558594"/>
     </g>
    </g>
   </g>
   <g id="line2d_16">
    <path d="M 94.453636 60.541572 
L 122.849064 60.43355 
L 123.434536 60.325528 
L 127.532845 60.217506 
L 128.118318 60.109484 
L 132.216627 60.001462 
L 132.509364 59.89344 
L 132.8021 60.001462 
L 133.387573 59.89344 
L 134.265782 59.89344 
L 134.558518 59.677396 
L 134.851255 59.89344 
L 135.143991 59.677396 
L 135.436727 59.89344 
L 135.729464 59.677396 
L 136.0222 59.89344 
L 136.314936 59.677396 
L 136.607673 59.89344 
L 136.900409 59.677396 
L 139.535036 59.677396 
L 139.827773 59.461352 
L 140.120509 59.677396 
L 140.413245 59.461352 
L 140.705982 59.677396 
L 140.998718 59.461352 
L 141.876927 59.461352 
L 142.169664 59.677396 
L 142.4624 59.461352 
L 143.047873 59.461352 
L 143.340609 59.677396 
L 143.926082 59.245308 
L 144.511555 59.677396 
L 145.097027 59.245308 
L 145.389764 59.461352 
L 145.975236 59.461352 
L 146.267973 59.245308 
L 146.560709 59.245308 
L 146.853445 59.461352 
L 147.146182 59.245308 
L 147.731655 59.245308 
L 148.024391 59.461352 
L 148.317127 59.245308 
L 150.659018 59.245308 
L 150.951755 59.029264 
L 151.244491 59.245308 
L 151.537227 59.245308 
L 151.829964 59.029264 
L 152.415436 59.029264 
L 152.708173 59.245308 
L 153.000909 59.029264 
L 153.586382 59.029264 
L 153.879118 59.245308 
L 154.464591 58.81322 
L 155.050064 59.245308 
L 155.635536 58.81322 
L 155.928273 58.81322 
L 156.221009 59.029264 
L 156.513745 59.029264 
L 156.806482 58.81322 
L 157.099218 58.81322 
L 157.391955 59.029264 
L 157.684691 58.81322 
L 158.270164 58.81322 
L 158.5629 59.029264 
L 158.855636 58.81322 
L 160.026582 58.81322 
L 160.319318 58.597176 
L 160.612055 58.81322 
L 160.904791 58.81322 
L 161.197527 58.597176 
L 161.783 58.597176 
L 162.075736 58.81322 
L 162.368473 58.597176 
L 162.953945 58.597176 
L 163.246682 58.81322 
L 163.539418 58.597176 
L 164.124891 58.597176 
L 164.417627 58.81322 
L 165.0031 58.381132 
L 165.295836 58.597176 
L 165.881309 58.597176 
L 166.174045 58.381132 
L 166.466782 58.381132 
L 166.759518 58.597176 
L 167.052255 58.381132 
L 167.637727 58.381132 
L 167.930464 58.597176 
L 168.2232 58.381132 
L 170.272355 58.381132 
L 170.565091 58.165088 
L 170.857827 58.165088 
L 171.150564 58.381132 
L 171.4433 58.381132 
L 171.736036 58.165088 
L 172.321509 58.165088 
L 172.614245 58.381132 
L 172.906982 58.165088 
L 173.492455 58.165088 
L 173.785191 58.381132 
L 174.370664 57.949045 
L 174.6634 58.165088 
L 175.248873 58.165088 
L 175.541609 57.949045 
L 175.834345 57.949045 
L 176.127082 58.165088 
L 176.419818 58.165088 
L 176.712555 57.949045 
L 177.005291 57.949045 
L 177.298027 58.165088 
L 177.590764 57.949045 
L 178.176236 57.949045 
L 178.468973 58.165088 
L 178.761709 57.949045 
L 179.932655 57.949045 
L 180.225391 57.733001 
L 180.518127 57.949045 
L 180.810864 57.949045 
L 181.1036 57.733001 
L 181.689073 57.733001 
L 181.981809 57.949045 
L 182.274545 57.733001 
L 182.860018 57.733001 
L 183.152755 57.949045 
L 183.738227 57.516957 
L 184.3237 57.949045 
L 184.909173 57.516957 
L 185.201909 57.516957 
L 185.494645 57.733001 
L 185.787382 57.733001 
L 186.080118 57.516957 
L 186.372855 57.516957 
L 186.665591 57.733001 
L 186.958327 57.516957 
L 189.007482 57.516957 
L 189.300218 57.300913 
L 189.592955 57.300913 
L 189.885691 57.516957 
L 190.471164 57.516957 
L 190.7639 57.300913 
L 191.056636 57.516957 
L 191.349373 57.516957 
L 191.642109 57.300913 
L 192.227582 57.300913 
L 192.520318 57.516957 
L 193.105791 57.084869 
L 193.691264 57.516957 
L 194.276736 57.084869 
L 194.862209 57.516957 
L 195.447682 57.084869 
L 195.740418 57.084869 
L 196.033155 57.300913 
L 196.325891 57.300913 
L 196.618627 57.084869 
L 196.911364 57.084869 
L 197.2041 57.300913 
L 197.496836 57.300913 
L 197.789573 57.084869 
L 199.545991 57.084869 
L 199.838727 56.868825 
L 200.131464 56.868825 
L 200.4242 57.084869 
L 200.716936 57.084869 
L 201.009673 56.868825 
L 201.302409 56.868825 
L 201.595145 57.084869 
L 201.887882 57.084869 
L 202.473355 56.652781 
L 203.058827 57.084869 
L 203.6443 56.652781 
L 203.937036 56.652781 
L 204.229773 56.868825 
L 204.522509 56.868825 
L 204.815245 56.652781 
L 205.107982 56.868825 
L 205.693455 56.868825 
L 205.986191 56.652781 
L 206.278927 56.652781 
L 206.571664 56.868825 
L 206.8644 56.868825 
L 207.157136 56.652781 
L 207.742609 56.652781 
L 208.035345 56.868825 
L 208.328082 56.652781 
L 210.0845 56.652781 
L 210.377236 56.436737 
L 210.669973 56.436737 
L 210.962709 56.652781 
L 211.255445 56.652781 
L 211.548182 56.436737 
L 211.840918 56.436737 
L 212.133655 56.652781 
L 212.426391 56.652781 
L 213.011864 56.220693 
L 213.597336 56.652781 
L 214.182809 56.220693 
L 214.475545 56.220693 
L 214.768282 56.436737 
L 215.061018 56.436737 
L 215.353755 56.220693 
L 215.646491 56.436737 
L 216.231964 56.436737 
L 216.5247 56.220693 
L 216.817436 56.220693 
L 217.110173 56.436737 
L 217.402909 56.220693 
L 220.623009 56.220693 
L 220.915745 56.004649 
L 221.208482 56.004649 
L 221.501218 56.220693 
L 221.793955 56.220693 
L 222.086691 56.004649 
L 222.379427 56.004649 
L 222.672164 56.220693 
L 222.9649 56.220693 
L 223.550373 55.788605 
L 224.135845 56.220693 
L 224.721318 55.788605 
L 225.014055 55.788605 
L 225.306791 56.004649 
L 225.599527 56.004649 
L 225.892264 55.788605 
L 226.185 55.788605 
L 226.477736 56.004649 
L 226.770473 56.004649 
L 227.063209 55.788605 
L 228.819627 55.788605 
L 229.112364 55.572561 
L 229.4051 55.572561 
L 229.697836 55.788605 
L 230.283309 55.788605 
L 230.576045 55.572561 
L 230.868782 55.788605 
L 231.161518 55.788605 
L 231.454255 55.572561 
L 232.039727 55.572561 
L 232.332464 55.788605 
L 232.917936 55.356517 
L 233.210673 55.788605 
L 233.503409 55.788605 
L 234.088882 55.356517 
L 234.674355 55.788605 
L 235.259827 55.356517 
L 235.552564 55.356517 
L 235.8453 55.572561 
L 236.138036 55.572561 
L 236.430773 55.356517 
L 236.723509 55.356517 
L 237.016245 55.572561 
L 237.308982 55.572561 
L 237.601718 55.356517 
L 239.358136 55.356517 
L 239.650873 55.140473 
L 239.943609 55.140473 
L 240.236345 55.356517 
L 240.529082 55.356517 
L 240.821818 55.140473 
L 241.114555 55.140473 
L 241.407291 55.356517 
L 241.700027 55.356517 
L 242.2855 54.924429 
L 242.870973 55.356517 
L 243.456445 54.924429 
L 243.749182 54.924429 
L 244.041918 55.356517 
L 244.627391 54.924429 
L 244.920127 55.140473 
L 245.5056 55.140473 
L 245.798336 54.924429 
L 246.091073 54.924429 
L 246.383809 55.140473 
L 246.676545 54.924429 
L 247.554755 54.924429 
L 247.847491 55.140473 
L 248.140227 54.924429 
L 249.896645 54.924429 
L 250.189382 54.708385 
L 250.482118 54.708385 
L 250.774855 54.924429 
L 251.067591 54.924429 
L 251.360327 54.708385 
L 251.653064 54.708385 
L 251.9458 54.924429 
L 252.238536 54.924429 
L 252.824009 54.492341 
L 253.409482 54.924429 
L 253.994955 54.492341 
L 254.287691 54.492341 
L 254.580427 54.708385 
L 254.873164 54.708385 
L 255.1659 54.492341 
L 255.458636 54.492341 
L 255.751373 54.708385 
L 256.044109 54.708385 
L 256.336845 54.492341 
L 259.556945 54.492341 
L 259.849682 54.276297 
L 260.142418 54.492341 
L 260.435155 54.492341 
L 260.727891 54.276297 
L 261.313364 54.276297 
L 261.6061 54.492341 
L 261.898836 54.276297 
L 262.191573 54.276297 
L 262.484309 54.492341 
L 262.777045 54.492341 
L 263.362518 54.060253 
L 263.947991 54.492341 
L 264.533464 54.060253 
L 264.8262 54.060253 
L 265.118936 54.276297 
L 265.411673 54.276297 
L 265.704409 54.060253 
L 265.997145 54.060253 
L 266.289882 54.276297 
L 266.582618 54.276297 
L 266.875355 54.060253 
L 268.631773 54.060253 
L 268.924509 53.844209 
L 269.217245 54.060253 
L 269.802718 54.060253 
L 270.095455 53.844209 
L 270.388191 53.844209 
L 270.680927 54.060253 
L 270.973664 54.060253 
L 271.559136 53.628165 
L 272.144609 54.060253 
L 272.730082 53.628165 
L 273.315555 54.060253 
L 273.901027 53.628165 
L 274.193764 53.844209 
L 274.779236 53.844209 
L 275.071973 53.628165 
L 275.364709 53.628165 
L 275.657445 53.844209 
L 275.950182 53.628165 
L 276.535655 53.628165 
L 276.828391 53.844209 
L 277.121127 53.844209 
L 277.413864 53.628165 
L 279.170282 53.628165 
L 279.463018 53.412121 
L 279.755755 53.412121 
L 280.048491 53.628165 
L 280.341227 53.628165 
L 280.633964 53.412121 
L 280.9267 53.628165 
L 281.219436 53.628165 
L 281.512173 53.844209 
L 281.804909 53.844209 
L 282.097645 54.060253 
L 282.683118 54.060253 
L 282.975855 54.276297 
L 283.268591 54.276297 
L 283.561327 54.492341 
L 284.1468 54.492341 
L 284.439536 54.708385 
L 284.732273 54.708385 
L 285.025009 54.924429 
L 285.317745 54.924429 
L 285.903218 55.356517 
L 286.195955 55.356517 
L 286.488691 55.572561 
L 287.074164 55.572561 
L 287.3669 55.788605 
L 287.659636 55.788605 
L 287.952373 56.004649 
L 288.537845 56.004649 
L 288.830582 56.220693 
L 289.123318 56.220693 
L 289.416055 56.436737 
L 290.001527 56.436737 
L 290.294264 56.652781 
L 290.587 56.652781 
L 290.879736 56.868825 
L 291.465209 56.868825 
L 291.757945 57.084869 
L 292.050682 57.084869 
L 292.636155 57.516957 
L 292.928891 57.516957 
L 293.221627 57.733001 
L 293.514364 57.733001 
L 293.8071 57.949045 
L 294.392573 57.949045 
L 294.685309 58.165088 
L 294.978045 58.165088 
L 295.270782 58.381132 
L 295.856255 58.381132 
L 296.148991 58.597176 
L 296.441727 58.597176 
L 296.734464 58.81322 
L 297.319936 58.81322 
L 297.612673 59.029264 
L 297.905409 59.029264 
L 298.198145 59.245308 
L 298.783618 59.245308 
L 299.076355 59.461352 
L 299.369091 59.461352 
L 299.954564 59.89344 
L 300.2473 59.89344 
L 300.540036 60.109484 
L 300.832773 60.109484 
L 301.125509 60.325528 
L 301.710982 60.325528 
L 302.003718 60.541572 
L 302.296455 60.541572 
L 302.589191 60.757616 
L 303.174664 60.757616 
L 303.4674 60.97366 
L 303.760136 60.97366 
L 304.052873 61.189704 
L 304.638345 61.189704 
L 304.931082 61.405748 
L 305.223818 61.405748 
L 305.516555 61.621792 
L 306.102027 61.621792 
L 306.394764 61.837836 
L 306.6875 61.837836 
L 307.272973 62.269924 
L 307.565709 62.269924 
L 307.858445 62.485968 
L 308.151182 62.485968 
L 308.443918 62.702012 
L 309.029391 62.702012 
L 309.322127 62.918056 
L 309.614864 62.918056 
L 309.9076 63.1341 
L 310.493073 63.1341 
L 310.785809 63.350144 
L 311.078545 63.350144 
L 311.371282 63.566188 
L 311.956755 63.566188 
L 312.249491 63.782232 
L 312.542227 63.782232 
L 312.834964 63.998276 
L 313.420436 63.998276 
L 313.713173 64.21432 
L 314.005909 64.21432 
L 314.298645 64.646408 
L 314.884118 64.646408 
L 315.176855 64.862451 
L 315.469591 64.862451 
L 315.762327 65.078495 
L 316.3478 65.078495 
L 316.640536 65.294539 
L 316.933273 65.294539 
L 317.226009 65.510583 
L 317.811482 65.510583 
L 318.104218 65.726627 
L 318.396955 65.726627 
L 318.689691 65.942671 
L 318.982427 65.942671 
L 319.275164 66.158715 
L 319.860636 66.158715 
L 320.153373 66.374759 
L 320.446109 66.374759 
L 320.738845 66.590803 
L 321.324318 66.590803 
L 321.617055 67.454979 
L 323.373473 67.454979 
L 323.666209 67.887067 
L 324.251682 67.887067 
L 324.544418 68.319155 
L 326.300836 68.319155 
L 326.593573 68.751243 
L 327.179045 68.751243 
L 327.471782 69.183331 
L 328.642727 69.183331 
L 328.935464 69.615419 
L 329.2282 69.615419 
L 329.520936 70.047507 
L 331.570091 70.047507 
L 331.862827 70.479595 
L 332.155564 70.479595 
L 332.4483 70.911683 
L 334.497455 70.911683 
L 334.790191 71.34377 
L 335.082927 71.34377 
L 335.375664 71.775858 
L 336.546609 71.775858 
L 336.839345 72.207946 
L 337.424818 72.207946 
L 337.717555 72.640034 
L 339.473973 72.640034 
L 339.766709 73.072122 
L 340.352182 73.072122 
L 340.644918 73.50421 
L 342.401336 73.50421 
L 342.694073 73.936298 
L 342.986809 73.936298 
L 343.279545 74.368386 
L 344.743227 74.368386 
L 345.035964 74.800474 
L 345.3287 74.800474 
L 345.621436 75.232562 
L 347.670591 75.232562 
L 347.963327 75.66465 
L 348.256064 75.66465 
L 348.5488 76.096738 
L 350.012482 76.096738 
L 350.305218 76.528826 
L 350.597955 76.528826 
L 350.890691 76.960914 
L 352.647109 76.960914 
L 352.939845 77.393002 
L 353.525318 77.393002 
L 353.818055 77.825089 
L 355.574473 77.825089 
L 355.867209 78.257177 
L 356.452682 78.257177 
L 356.745418 78.689265 
L 357.916364 78.689265 
L 358.2091 79.121353 
L 358.501836 79.121353 
L 358.794573 79.553441 
L 360.843727 79.553441 
L 361.136464 79.985529 
L 361.4292 79.985529 
L 361.721936 80.417617 
L 363.771091 80.417617 
L 364.063827 80.849705 
L 364.356564 80.849705 
L 364.6493 81.281793 
L 365.820245 81.281793 
L 366.112982 81.713881 
L 366.698455 81.713881 
L 366.991191 82.145969 
L 368.747609 82.145969 
L 369.040345 82.578057 
L 369.625818 82.578057 
L 369.918555 83.010145 
L 371.674973 83.010145 
L 371.967709 83.874321 
L 374.016864 83.874321 
L 374.3096 84.306409 
L 374.602336 84.306409 
L 374.895073 84.738496 
L 376.944227 84.738496 
L 377.236964 85.170584 
L 377.5297 85.170584 
L 377.822436 85.602672 
L 378.993382 85.602672 
L 379.286118 86.03476 
L 379.871591 86.03476 
L 380.164327 86.466848 
L 381.920745 86.466848 
L 382.213482 86.898936 
L 382.798955 86.898936 
L 383.091691 87.331024 
L 384.848109 87.331024 
L 385.140845 87.763112 
L 385.726318 87.763112 
L 386.019055 88.1952 
L 387.19 88.1952 
L 387.482736 88.627288 
L 387.775473 88.627288 
L 388.068209 89.059376 
L 390.117364 89.059376 
L 390.4101 89.491464 
L 390.702836 89.491464 
L 390.995573 89.923552 
L 393.044727 89.923552 
L 393.6302 90.787728 
L 395.093882 90.787728 
L 395.386618 91.219815 
L 395.972091 91.219815 
L 396.264827 91.651903 
L 398.021245 91.651903 
L 398.313982 92.083991 
L 398.899455 92.083991 
L 399.192191 92.516079 
L 400.655873 92.516079 
L 401.241345 93.380255 
L 403.2905 93.380255 
L 403.583236 93.812343 
L 403.875973 93.812343 
L 404.168709 94.244431 
L 406.217864 94.244431 
L 406.5106 94.676519 
L 406.803336 94.676519 
L 407.096073 95.108607 
L 408.267018 95.108607 
L 408.559755 95.540695 
L 409.145227 95.540695 
L 409.437964 95.972783 
L 411.194382 95.972783 
L 411.487118 96.404871 
L 412.072591 96.404871 
L 412.365327 96.836959 
L 414.121745 96.836959 
L 414.414482 97.269047 
L 414.999955 97.269047 
L 415.292691 97.701134 
L 416.463636 97.701134 
L 416.756373 98.133222 
L 417.049109 98.133222 
L 417.341845 98.56531 
L 419.391 98.56531 
L 419.683736 98.997398 
L 419.976473 98.997398 
L 420.269209 99.429486 
L 422.025627 99.429486 
L 422.6111 100.293662 
L 424.367518 100.293662 
L 424.660255 100.72575 
L 425.245727 100.72575 
L 425.538464 101.157838 
L 427.294882 101.157838 
L 427.587618 101.589926 
L 428.173091 101.589926 
L 428.465827 102.022014 
L 429.636773 102.022014 
L 429.929509 102.454102 
L 430.222245 102.454102 
L 430.514982 102.88619 
L 432.564136 102.88619 
L 432.856873 103.318278 
L 433.149609 103.318278 
L 433.442345 103.750366 
L 435.4915 103.750366 
L 435.784236 104.182453 
L 436.076973 104.182453 
L 436.369709 104.614541 
L 437.540655 104.614541 
L 437.833391 105.046629 
L 438.418864 105.046629 
L 438.7116 105.478717 
L 440.468018 105.478717 
L 440.760755 105.910805 
L 441.346227 105.910805 
L 441.638964 106.342893 
L 443.395382 106.342893 
L 443.980855 107.207069 
L 445.737273 107.207069 
L 446.030009 107.639157 
L 446.322745 107.639157 
L 446.615482 108.071245 
L 448.664636 108.071245 
L 448.957373 108.503333 
L 449.250109 108.503333 
L 449.542845 108.935421 
L 451.006527 108.935421 
L 451.299264 109.367509 
L 451.592 109.367509 
L 451.884736 109.799597 
L 453.641155 109.799597 
L 453.933891 110.231685 
L 454.519364 110.231685 
L 454.8121 110.663773 
L 456.568518 110.663773 
L 456.861255 111.09586 
L 457.446727 111.09586 
L 457.739464 111.527948 
L 458.910409 111.527948 
L 459.203145 111.960036 
L 459.495882 111.960036 
L 459.788618 112.392124 
L 461.837773 112.392124 
L 462.130509 112.824212 
L 462.423245 112.824212 
L 462.715982 113.2563 
L 464.765136 113.2563 
L 465.057873 113.688388 
L 465.350609 113.688388 
L 465.643345 114.120476 
L 466.814291 114.120476 
L 467.107027 114.552564 
L 467.399764 114.120476 
L 468.277973 114.120476 
L 468.570709 114.552564 
L 469.448918 114.552564 
L 469.741655 114.984652 
L 470.9126 114.984652 
L 471.205336 115.41674 
L 472.376282 115.41674 
L 472.669018 115.848828 
L 473.839964 115.848828 
L 474.1327 116.280916 
L 475.303645 116.280916 
L 475.596382 116.713004 
L 476.181855 116.713004 
L 476.474591 117.145092 
L 476.767327 117.145092 
L 477.060064 117.577179 
L 478.231009 117.577179 
L 478.523745 118.009267 
L 479.694691 118.009267 
L 479.987427 118.441355 
L 481.158373 118.441355 
L 481.451109 118.873443 
L 482.622055 118.873443 
L 482.914791 119.305531 
L 484.085736 119.305531 
L 484.378473 119.737619 
L 485.549418 119.737619 
L 485.842155 120.169707 
L 487.0131 120.169707 
L 487.305836 120.601795 
L 488.476782 120.601795 
L 488.769518 121.033883 
L 489.940464 121.033883 
L 490.2332 121.465971 
L 490.525936 121.465971 
L 490.818673 121.898059 
L 491.404145 121.898059 
L 491.696882 122.330147 
L 492.867827 122.330147 
L 493.160564 122.762235 
L 494.331509 122.762235 
L 494.624245 123.194323 
L 495.795191 123.194323 
L 496.087927 123.626411 
L 497.258873 123.626411 
L 497.551609 124.058498 
L 498.722555 124.058498 
L 499.015291 124.490586 
L 500.186236 124.490586 
L 500.478973 124.922674 
L 501.649918 124.922674 
L 501.942655 125.354762 
L 503.1136 125.354762 
L 503.406336 125.78685 
L 504.577282 125.78685 
L 505.162755 126.651026 
L 506.040964 126.651026 
L 506.3337 127.083114 
L 507.504645 127.083114 
L 507.797382 127.515202 
L 508.968327 127.515202 
L 509.261064 127.94729 
L 510.432009 127.94729 
L 510.724745 128.379378 
L 511.895691 128.379378 
L 512.188427 128.811466 
L 513.359373 128.811466 
L 513.652109 129.243554 
L 514.823055 129.243554 
L 515.115791 129.675642 
L 516.286736 129.675642 
L 516.579473 130.10773 
L 517.750418 130.10773 
L 518.043155 130.539817 
L 519.2141 130.539817 
L 519.799573 131.403993 
L 520.677782 131.403993 
L 520.970518 131.836081 
L 522.141464 131.836081 
L 522.4342 132.268169 
L 523.605145 132.268169 
L 523.897882 132.700257 
L 525.068827 132.700257 
L 525.361564 133.132345 
L 526.532509 133.132345 
L 526.825245 133.564433 
L 527.996191 133.564433 
L 528.288927 133.996521 
L 529.459873 133.996521 
L 529.752609 134.428609 
L 530.923555 134.428609 
L 531.216291 134.860697 
L 532.387236 134.860697 
L 532.679973 135.292785 
L 533.850918 135.292785 
L 534.143655 136.156961 
L 535.3146 136.156961 
L 535.607336 136.589049 
L 536.778282 136.589049 
L 537.071018 137.021136 
L 538.241964 137.021136 
L 538.5347 137.453224 
L 539.705645 137.453224 
L 539.998382 137.885312 
L 541.169327 137.885312 
L 541.462064 138.3174 
L 542.633009 138.3174 
L 542.925745 138.749488 
L 543.803955 138.749488 
L 544.096691 139.181576 
L 545.267636 139.181576 
L 545.560373 139.613664 
L 546.731318 139.613664 
L 547.024055 140.045752 
L 548.195 140.045752 
L 548.487736 140.909928 
L 549.658682 140.909928 
L 549.951418 141.342016 
L 551.122364 141.342016 
L 551.4151 141.774104 
L 552.586045 141.774104 
L 552.878782 142.206192 
L 554.049727 142.206192 
L 554.342464 142.63828 
L 555.513409 142.63828 
L 555.806145 143.070368 
L 556.977091 143.070368 
L 557.269827 143.502456 
L 558.440773 143.502456 
L 558.733509 143.934543 
L 559.904455 143.934543 
L 560.197191 144.366631 
L 561.368136 144.366631 
L 561.660873 144.798719 
L 562.831818 144.798719 
L 563.124555 145.662895 
L 564.2955 145.662895 
L 564.588236 146.094983 
L 565.759182 146.094983 
L 566.051918 146.527071 
L 567.222864 146.527071 
L 567.5156 146.959159 
L 568.686545 146.959159 
L 568.979282 147.391247 
L 570.150227 147.391247 
L 570.442964 147.823335 
L 571.613909 147.823335 
L 571.906645 148.255423 
L 573.077591 148.255423 
L 573.370327 148.687511 
L 574.541273 148.687511 
L 574.834009 149.119599 
L 576.004955 149.119599 
L 576.297691 149.551687 
L 577.1759 149.551687 
L 577.761373 150.415862 
L 578.932318 150.415862 
L 579.225055 150.84795 
L 580.396 150.84795 
L 580.688736 151.280038 
L 581.859682 151.280038 
L 582.152418 151.712126 
L 583.323364 151.712126 
L 583.6161 152.144214 
L 584.787045 152.144214 
L 585.079782 152.576302 
L 586.250727 152.576302 
L 586.543464 153.00839 
L 587.714409 153.00839 
L 588.007145 153.440478 
L 589.178091 153.440478 
L 589.470827 153.872566 
L 590.641773 153.872566 
L 590.934509 154.304654 
L 591.519982 154.304654 
L 591.812718 154.736742 
L 592.105455 154.736742 
L 592.398191 155.16883 
L 593.569136 155.16883 
L 593.861873 155.600918 
L 595.032818 155.600918 
L 595.325555 156.033006 
L 596.4965 156.033006 
L 596.789236 156.465094 
L 597.960182 156.465094 
L 598.252918 156.897181 
L 599.423864 156.897181 
L 599.7166 157.329269 
L 600.887545 157.329269 
L 601.180282 157.761357 
L 602.351227 157.761357 
L 602.643964 158.193445 
L 603.814909 158.193445 
L 604.107645 158.625533 
L 605.278591 158.625533 
L 605.571327 159.057621 
L 605.864064 159.057621 
L 606.1568 159.489709 
L 606.742273 159.489709 
L 607.035009 159.921797 
L 608.205955 159.921797 
L 608.498691 160.353885 
L 609.669636 160.353885 
L 609.962373 160.785973 
L 611.133318 160.785973 
L 611.426055 161.218061 
L 612.597 161.218061 
L 612.889736 161.650149 
L 614.060682 161.650149 
L 614.353418 162.082237 
L 615.524364 162.082237 
L 615.8171 162.514325 
L 616.988045 162.514325 
L 617.280782 162.946413 
L 618.451727 162.946413 
L 618.744464 163.3785 
L 619.915409 163.3785 
L 620.500882 164.242676 
L 621.379091 164.242676 
L 621.671827 164.674764 
L 622.842773 164.674764 
L 623.135509 165.106852 
L 624.306455 165.106852 
L 624.599191 165.53894 
L 625.770136 165.53894 
L 626.062873 165.971028 
L 627.233818 165.971028 
L 627.526555 166.403116 
L 628.6975 166.403116 
L 628.990236 166.835204 
L 630.161182 166.835204 
L 630.453918 167.267292 
L 631.624864 167.267292 
L 631.9176 167.69938 
L 633.088545 167.69938 
L 633.381282 168.131468 
L 634.552227 168.131468 
L 634.844964 168.995644 
L 636.015909 168.995644 
L 636.308645 169.427732 
L 637.479591 169.427732 
L 637.772327 169.859819 
L 638.943273 169.859819 
L 639.236009 170.291907 
L 640.406955 170.291907 
L 640.699691 170.723995 
L 641.870636 170.723995 
L 642.163373 171.156083 
L 643.334318 171.156083 
L 643.627055 171.588171 
L 644.798 171.588171 
L 645.090736 172.020259 
L 646.261682 172.020259 
L 646.554418 172.452347 
L 647.725364 172.452347 
L 648.0181 172.884435 
L 649.189045 172.884435 
L 649.481782 173.748611 
L 650.652727 173.748611 
L 650.945464 174.180699 
L 652.116409 174.180699 
L 652.409145 174.612787 
L 653.580091 174.612787 
L 653.872827 175.044875 
L 655.043773 175.044875 
L 655.336509 175.476963 
L 656.507455 175.476963 
L 656.800191 175.909051 
L 657.971136 175.909051 
L 658.263873 176.341139 
L 659.434818 176.341139 
L 659.727555 176.773226 
L 660.8985 176.773226 
L 661.191236 177.205314 
L 662.362182 177.205314 
L 662.654918 177.637402 
L 663.533127 177.637402 
L 664.1186 178.501578 
L 665.289545 178.501578 
L 665.582282 178.933666 
L 666.753227 178.933666 
L 667.045964 179.365754 
L 668.216909 179.365754 
L 668.509645 179.797842 
L 669.680591 179.797842 
L 669.973327 180.22993 
L 671.144273 180.22993 
L 671.437009 180.662018 
L 672.607955 180.662018 
L 672.900691 181.094106 
L 674.071636 181.094106 
L 674.364373 181.526194 
L 675.535318 181.526194 
L 675.828055 181.958282 
L 676.999 181.958282 
L 677.291736 182.39037 
L 677.877209 182.39037 
L 678.169945 182.822458 
L 678.462682 182.822458 
L 678.755418 183.254545 
L 679.926364 183.254545 
L 679.926364 183.254545 
" clip-path="url(#p88fbd1b79c)" style="fill: none; stroke: #1f77b4; stroke-width: 1.5; stroke-linecap: square"/>
   </g>
   <g id="patch_3">
    <path d="M 65.18 189.746667 
L 65.18 46.92 
" style="fill: none; stroke: #000000; stroke-width: 0.8; stroke-linejoin: miter; stroke-linecap: square"/>
   </g>
   <g id="patch_4">
    <path d="M 709.2 189.746667 
L 709.2 46.92 
" style="fill: none; stroke: #000000; stroke-width: 0.8; stroke-linejoin: miter; stroke-linecap: square"/>
   </g>
   <g id="patch_5">
    <path d="M 65.18 189.746667 
L 709.2 189.746667 
" style="fill: none; stroke: #000000; stroke-width: 0.8; stroke-linejoin: miter; stroke-linecap: square"/>
   </g>
   <g id="patch_6">
    <path d="M 65.18 46.92 
L 709.2 46.92 
" style="fill: none; stroke: #000000; stroke-width: 0.8; stroke-linejoin: miter; stroke-linecap: square"/>
   </g>
  </g>
  <g id="axes_2">
   <g id="patch_7">
    <path d="M 65.18 360.453333 
L 709.2 360.453333 
L 709.2 217.626667 
L 65.18 217.626667 
z
" style="fill: #ffffff"/>
   </g>
   <g id="matplotlib.axis_3">
    <g id="xtick_10">
     <g id="line2d_17">
      <g>
       <use xlink:href="#m214c6f771a" x="94.453636" y="360.453333" style="stroke: #000000; stroke-width: 0.8"/>
      </g>
     </g>
     <g id="text_18">
      <!-- 0 -->
      <g transform="translate(91.272386 375.051771) scale(0.1 -0.1)">
       <use xlink:href="#DejaVuSans-30"/>
      </g>
     </g>
    </g>
    <g id="xtick_11">
     <g id="line2d_18">
      <g>
       <use xlink:href="#m214c6f771a" x="167.637727" y="360.453333" style="stroke: #000000; stroke-width: 0.8"/>
      </g>
     </g>
     <g id="text_19">
      <!-- 25 -->
      <g transform="translate(161.275227 375.051771) scale(0.1 -0.1)">
       <use xlink:href="#DejaVuSans-32"/>
       <use xlink:href="#DejaVuSans-35" x="63.623047"/>
      </g>
     </g>
    </g>
    <g id="xtick_12">
     <g id="line2d_19">
      <g>
       <use xlink:href="#m214c6f771a" x="240.821818" y="360.453333" style="stroke: #000000; stroke-width: 0.8"/>
      </g>
     </g>
     <g id="text_20">
      <!-- 50 -->
      <g transform="translate(234.459318 375.051771) scale(0.1 -0.1)">
       <use xlink:href="#DejaVuSans-35"/>
       <use xlink:href="#DejaVuSans-30" x="63.623047"/>
      </g>
     </g>
    </g>
    <g id="xtick_13">
     <g id="line2d_20">
      <g>
       <use xlink:href="#m214c6f771a" x="314.005909" y="360.453333" style="stroke: #000000; stroke-width: 0.8"/>
      </g>
     </g>
     <g id="text_21">
      <!-- 75 -->
      <g transform="translate(307.643409 375.051771) scale(0.1 -0.1)">
       <use xlink:href="#DejaVuSans-37"/>
       <use xlink:href="#DejaVuSans-35" x="63.623047"/>
      </g>
     </g>
    </g>
    <g id="xtick_14">
     <g id="line2d_21">
      <g>
       <use xlink:href="#m214c6f771a" x="387.19" y="360.453333" style="stroke: #000000; stroke-width: 0.8"/>
      </g>
     </g>
     <g id="text_22">
      <!-- 100 -->
      <g transform="translate(377.64625 375.051771) scale(0.1 -0.1)">
       <use xlink:href="#DejaVuSans-31"/>
       <use xlink:href="#DejaVuSans-30" x="63.623047"/>
       <use xlink:href="#DejaVuSans-30" x="127.246094"/>
      </g>
     </g>
    </g>
    <g id="xtick_15">
     <g id="line2d_22">
      <g>
       <use xlink:href="#m214c6f771a" x="460.374091" y="360.453333" style="stroke: #000000; stroke-width: 0.8"/>
      </g>
     </g>
     <g id="text_23">
      <!-- 125 -->
      <g transform="translate(450.830341 375.051771) scale(0.1 -0.1)">
       <use xlink:href="#DejaVuSans-31"/>
       <use xlink:href="#DejaVuSans-32" x="63.623047"/>
       <use xlink:href="#DejaVuSans-35" x="127.246094"/>
      </g>
     </g>
    </g>
    <g id="xtick_16">
     <g id="line2d_23">
      <g>
       <use xlink:href="#m214c6f771a" x="533.558182" y="360.453333" style="stroke: #000000; stroke-width: 0.8"/>
      </g>
     </g>
     <g id="text_24">
      <!-- 150 -->
      <g transform="translate(524.014432 375.051771) scale(0.1 -0.1)">
       <use xlink:href="#DejaVuSans-31"/>
       <use xlink:href="#DejaVuSans-35" x="63.623047"/>
       <use xlink:href="#DejaVuSans-30" x="127.246094"/>
      </g>
     </g>
    </g>
    <g id="xtick_17">
     <g id="line2d_24">
      <g>
       <use xlink:href="#m214c6f771a" x="606.742273" y="360.453333" style="stroke: #000000; stroke-width: 0.8"/>
      </g>
     </g>
     <g id="text_25">
      <!-- 175 -->
      <g transform="translate(597.198523 375.051771) scale(0.1 -0.1)">
       <use xlink:href="#DejaVuSans-31"/>
       <use xlink:href="#DejaVuSans-37" x="63.623047"/>
       <use xlink:href="#DejaVuSans-35" x="127.246094"/>
      </g>
     </g>
    </g>
    <g id="xtick_18">
     <g id="line2d_25">
      <g>
       <use xlink:href="#m214c6f771a" x="679.926364" y="360.453333" style="stroke: #000000; stroke-width: 0.8"/>
      </g>
     </g>
     <g id="text_26">
      <!-- 200 -->
      <g transform="translate(670.382614 375.051771) scale(0.1 -0.1)">
       <use xlink:href="#DejaVuSans-32"/>
       <use xlink:href="#DejaVuSans-30" x="63.623047"/>
       <use xlink:href="#DejaVuSans-30" x="127.246094"/>
      </g>
     </g>
    </g>
   </g>
   <g id="matplotlib.axis_4">
    <g id="ytick_7">
     <g id="line2d_26">
      <g>
       <use xlink:href="#m0fdf601106" x="65.18" y="331.779704" style="stroke: #000000; stroke-width: 0.8"/>
      </g>
     </g>
     <g id="text_27">
      <!-- −4 -->
      <g transform="translate(43.437812 335.578922) scale(0.1 -0.1)">
       <defs>
        <path id="DejaVuSans-34" d="M 2419 4116 
L 825 1625 
L 2419 1625 
L 2419 4116 
z
M 2253 4666 
L 3047 4666 
L 3047 1625 
L 3713 1625 
L 3713 1100 
L 3047 1100 
L 3047 0 
L 2419 0 
L 2419 1100 
L 313 1100 
L 313 1709 
L 2253 4666 
z
" transform="scale(0.015625)"/>
       </defs>
       <use xlink:href="#DejaVuSans-2212"/>
       <use xlink:href="#DejaVuSans-34" x="83.789062"/>
      </g>
     </g>
    </g>
    <g id="ytick_8">
     <g id="line2d_27">
      <g>
       <use xlink:href="#m0fdf601106" x="65.18" y="301.634752" style="stroke: #000000; stroke-width: 0.8"/>
      </g>
     </g>
     <g id="text_28">
      <!-- −2 -->
      <g transform="translate(43.437812 305.433971) scale(0.1 -0.1)">
       <use xlink:href="#DejaVuSans-2212"/>
       <use xlink:href="#DejaVuSans-32" x="83.789062"/>
      </g>
     </g>
    </g>
    <g id="ytick_9">
     <g id="line2d_28">
      <g>
       <use xlink:href="#m0fdf601106" x="65.18" y="271.489801" style="stroke: #000000; stroke-width: 0.8"/>
      </g>
     </g>
     <g id="text_29">
      <!-- 0 -->
      <g transform="translate(51.8175 275.289019) scale(0.1 -0.1)">
       <use xlink:href="#DejaVuSans-30"/>
      </g>
     </g>
    </g>
    <g id="ytick_10">
     <g id="line2d_29">
      <g>
       <use xlink:href="#m0fdf601106" x="65.18" y="241.344849" style="stroke: #000000; stroke-width: 0.8"/>
      </g>
     </g>
     <g id="text_30">
      <!-- 2 -->
      <g transform="translate(51.8175 245.144068) scale(0.1 -0.1)">
       <use xlink:href="#DejaVuSans-32"/>
      </g>
     </g>
    </g>
    <g id="text_31">
     <!-- Position [m] -->
     <g transform="translate(21.039062 324.83) rotate(-90) scale(0.12 -0.12)">
      <defs>
       <path id="DejaVuSans-50" d="M 1259 4147 
L 1259 2394 
L 2053 2394 
Q 2494 2394 2734 2622 
Q 2975 2850 2975 3272 
Q 2975 3691 2734 3919 
Q 2494 4147 2053 4147 
L 1259 4147 
z
M 628 4666 
L 2053 4666 
Q 2838 4666 3239 4311 
Q 3641 3956 3641 3272 
Q 3641 2581 3239 2228 
Q 2838 1875 2053 1875 
L 1259 1875 
L 1259 0 
L 628 0 
L 628 4666 
z
" transform="scale(0.015625)"/>
       <path id="DejaVuSans-6f" d="M 1959 3097 
Q 1497 3097 1228 2736 
Q 959 2375 959 1747 
Q 959 1119 1226 758 
Q 1494 397 1959 397 
Q 2419 397 2687 759 
Q 2956 1122 2956 1747 
Q 2956 2369 2687 2733 
Q 2419 3097 1959 3097 
z
M 1959 3584 
Q 2709 3584 3137 3096 
Q 3566 2609 3566 1747 
Q 3566 888 3137 398 
Q 2709 -91 1959 -91 
Q 1206 -91 779 398 
Q 353 888 353 1747 
Q 353 2609 779 3096 
Q 1206 3584 1959 3584 
z
" transform="scale(0.015625)"/>
       <path id="DejaVuSans-73" d="M 2834 3397 
L 2834 2853 
Q 2591 2978 2328 3040 
Q 2066 3103 1784 3103 
Q 1356 3103 1142 2972 
Q 928 2841 928 2578 
Q 928 2378 1081 2264 
Q 1234 2150 1697 2047 
L 1894 2003 
Q 2506 1872 2764 1633 
Q 3022 1394 3022 966 
Q 3022 478 2636 193 
Q 2250 -91 1575 -91 
Q 1294 -91 989 -36 
Q 684 19 347 128 
L 347 722 
Q 666 556 975 473 
Q 1284 391 1588 391 
Q 1994 391 2212 530 
Q 2431 669 2431 922 
Q 2431 1156 2273 1281 
Q 2116 1406 1581 1522 
L 1381 1569 
Q 847 1681 609 1914 
Q 372 2147 372 2553 
Q 372 3047 722 3315 
Q 1072 3584 1716 3584 
Q 2034 3584 2315 3537 
Q 2597 3491 2834 3397 
z
" transform="scale(0.015625)"/>
       <path id="DejaVuSans-6e" d="M 3513 2113 
L 3513 0 
L 2938 0 
L 2938 2094 
Q 2938 2591 2744 2837 
Q 2550 3084 2163 3084 
Q 1697 3084 1428 2787 
Q 1159 2491 1159 1978 
L 1159 0 
L 581 0 
L 581 3500 
L 1159 3500 
L 1159 2956 
Q 1366 3272 1645 3428 
Q 1925 3584 2291 3584 
Q 2894 3584 3203 3211 
Q 3513 2838 3513 2113 
z
" transform="scale(0.015625)"/>
      </defs>
      <use xlink:href="#DejaVuSans-50"/>
      <use xlink:href="#DejaVuSans-6f" x="56.677734"/>
      <use xlink:href="#DejaVuSans-73" x="117.859375"/>
      <use xlink:href="#DejaVuSans-69" x="169.958984"/>
      <use xlink:href="#DejaVuSans-74" x="197.742188"/>
      <use xlink:href="#DejaVuSans-69" x="236.951172"/>
      <use xlink:href="#DejaVuSans-6f" x="264.734375"/>
      <use xlink:href="#DejaVuSans-6e" x="325.916016"/>
      <use xlink:href="#DejaVuSans-20" x="389.294922"/>
      <use xlink:href="#DejaVuSans-5b" x="421.082031"/>
      <use xlink:href="#DejaVuSans-6d" x="460.095703"/>
      <use xlink:href="#DejaVuSans-5d" x="557.507812"/>
     </g>
    </g>
   </g>
   <g id="line2d_30">
    <path d="M 94.453636 271.489801 
L 122.849064 267.992112 
L 138.071355 266.345504 
L 150.951755 265.170199 
L 162.661209 264.323347 
L 173.492455 263.761105 
L 183.738227 263.449207 
L 193.691264 263.369881 
L 203.351564 263.518362 
L 212.719127 263.885558 
L 221.793955 264.458821 
L 230.868782 265.251743 
L 239.943609 266.267735 
L 249.018436 267.508093 
L 258.093264 268.97199 
L 267.168091 270.656478 
L 276.535655 272.621324 
L 286.195955 274.879823 
L 296.148991 277.441791 
L 306.394764 280.312789 
L 317.226009 283.584742 
L 328.642727 287.269342 
L 341.230391 291.572702 
L 355.574473 296.723166 
L 373.431391 303.386922 
L 424.074782 322.434975 
L 438.126127 327.400286 
L 450.421055 331.518609 
L 461.837773 335.112688 
L 472.669018 338.28758 
L 482.914791 341.057944 
L 492.867827 343.515119 
L 502.528127 345.666416 
L 511.895691 347.523242 
L 520.970518 349.100307 
L 530.045345 350.455076 
L 539.120173 351.585635 
L 548.195 352.492196 
L 557.269827 353.177094 
L 566.637391 353.656302 
L 576.004955 353.91123 
L 585.665255 353.949235 
L 595.618291 353.762953 
L 605.864064 353.349507 
L 616.695309 352.690692 
L 628.404764 351.753371 
L 641.285164 350.496921 
L 656.507455 348.781251 
L 678.462682 346.055417 
L 679.926364 345.869487 
L 679.926364 345.869487 
" clip-path="url(#p7b959efd1a)" style="fill: none; stroke: #1f77b4; stroke-width: 1.5; stroke-linecap: square"/>
   </g>
   <g id="line2d_31">
    <path d="M 94.453636 271.489801 
L 103.528464 271.38002 
L 112.603291 271.046895 
L 121.678118 270.493576 
L 131.045682 269.697016 
L 140.413245 268.679457 
L 150.073545 267.40952 
L 160.319318 265.832973 
L 170.857827 263.984486 
L 182.274545 261.74953 
L 194.569473 259.109928 
L 208.620818 255.855477 
L 225.892264 251.613034 
L 279.170282 238.359149 
L 292.928891 235.266838 
L 304.931082 232.789852 
L 316.055064 230.715337 
L 326.593573 228.973893 
L 336.546609 227.549713 
L 346.206909 226.388002 
L 355.574473 225.480948 
L 364.942036 224.799238 
L 374.016864 224.360228 
L 383.091691 224.143319 
L 392.166518 224.15056 
L 401.241345 224.381876 
L 410.316173 224.83507 
L 419.683736 225.531035 
L 429.0513 226.451795 
L 438.7116 227.626905 
L 448.664636 229.063945 
L 458.910409 230.766027 
L 469.741655 232.788478 
L 481.451109 235.201756 
L 494.624245 238.151938 
L 509.846536 241.796467 
L 531.801764 247.307701 
L 562.246345 254.927972 
L 577.761373 258.569106 
L 590.641773 261.369361 
L 602.351227 263.691413 
L 613.182473 265.616659 
L 623.428245 267.216662 
L 633.381282 268.546302 
L 643.041582 269.610577 
L 652.409145 270.418791 
L 661.483973 270.983781 
L 670.5588 271.32883 
L 679.633627 271.450661 
L 679.926364 271.450855 
L 679.926364 271.450855 
" clip-path="url(#p7b959efd1a)" style="fill: none; stroke: #ff7f0e; stroke-width: 1.5; stroke-linecap: square"/>
   </g>
   <g id="patch_8">
    <path d="M 65.18 360.453333 
L 65.18 217.626667 
" style="fill: none; stroke: #000000; stroke-width: 0.8; stroke-linejoin: miter; stroke-linecap: square"/>
   </g>
   <g id="patch_9">
    <path d="M 709.2 360.453333 
L 709.2 217.626667 
" style="fill: none; stroke: #000000; stroke-width: 0.8; stroke-linejoin: miter; stroke-linecap: square"/>
   </g>
   <g id="patch_10">
    <path d="M 65.18 360.453333 
L 709.2 360.453333 
" style="fill: none; stroke: #000000; stroke-width: 0.8; stroke-linejoin: miter; stroke-linecap: square"/>
   </g>
   <g id="patch_11">
    <path d="M 65.18 217.626667 
L 709.2 217.626667 
" style="fill: none; stroke: #000000; stroke-width: 0.8; stroke-linejoin: miter; stroke-linecap: square"/>
   </g>
   <g id="legend_1">
    <g id="patch_12">
     <path d="M 642.23125 254.982917 
L 702.2 254.982917 
Q 704.2 254.982917 704.2 252.982917 
L 704.2 224.626667 
Q 704.2 222.626667 702.2 222.626667 
L 642.23125 222.626667 
Q 640.23125 222.626667 640.23125 224.626667 
L 640.23125 252.982917 
Q 640.23125 254.982917 642.23125 254.982917 
z
" style="fill: #ffffff; opacity: 0.8; stroke: #cccccc; stroke-linejoin: miter"/>
    </g>
    <g id="line2d_32">
     <path d="M 644.23125 230.725104 
L 654.23125 230.725104 
L 664.23125 230.725104 
" style="fill: none; stroke: #1f77b4; stroke-width: 1.5; stroke-linecap: square"/>
    </g>
    <g id="text_32">
     <!-- North -->
     <g transform="translate(672.23125 234.225104) scale(0.1 -0.1)">
      <defs>
       <path id="DejaVuSans-4e" d="M 628 4666 
L 1478 4666 
L 3547 763 
L 3547 4666 
L 4159 4666 
L 4159 0 
L 3309 0 
L 1241 3903 
L 1241 0 
L 628 0 
L 628 4666 
z
" transform="scale(0.015625)"/>
      </defs>
      <use xlink:href="#DejaVuSans-4e"/>
      <use xlink:href="#DejaVuSans-6f" x="74.804688"/>
      <use xlink:href="#DejaVuSans-72" x="135.986328"/>
      <use xlink:href="#DejaVuSans-74" x="177.099609"/>
      <use xlink:href="#DejaVuSans-68" x="216.308594"/>
     </g>
    </g>
    <g id="line2d_33">
     <path d="M 644.23125 245.403229 
L 654.23125 245.403229 
L 664.23125 245.403229 
" style="fill: none; stroke: #ff7f0e; stroke-width: 1.5; stroke-linecap: square"/>
    </g>
    <g id="text_33">
     <!-- East -->
     <g transform="translate(672.23125 248.903229) scale(0.1 -0.1)">
      <defs>
       <path id="DejaVuSans-45" d="M 628 4666 
L 3578 4666 
L 3578 4134 
L 1259 4134 
L 1259 2753 
L 3481 2753 
L 3481 2222 
L 1259 2222 
L 1259 531 
L 3634 531 
L 3634 0 
L 628 0 
L 628 4666 
z
" transform="scale(0.015625)"/>
      </defs>
      <use xlink:href="#DejaVuSans-45"/>
      <use xlink:href="#DejaVuSans-61" x="63.183594"/>
      <use xlink:href="#DejaVuSans-73" x="124.462891"/>
      <use xlink:href="#DejaVuSans-74" x="176.5625"/>
     </g>
    </g>
   </g>
  </g>
  <g id="axes_3">
   <g id="patch_13">
    <path d="M 65.18 531.16 
L 709.2 531.16 
L 709.2 388.333333 
L 65.18 388.333333 
z
" style="fill: #ffffff"/>
   </g>
   <g id="matplotlib.axis_5">
    <g id="xtick_19">
     <g id="line2d_34">
      <g>
       <use xlink:href="#m214c6f771a" x="94.453636" y="531.16" style="stroke: #000000; stroke-width: 0.8"/>
      </g>
     </g>
     <g id="text_34">
      <!-- 0 -->
      <g transform="translate(91.272386 545.758438) scale(0.1 -0.1)">
       <use xlink:href="#DejaVuSans-30"/>
      </g>
     </g>
    </g>
    <g id="xtick_20">
     <g id="line2d_35">
      <g>
       <use xlink:href="#m214c6f771a" x="167.637727" y="531.16" style="stroke: #000000; stroke-width: 0.8"/>
      </g>
     </g>
     <g id="text_35">
      <!-- 25 -->
      <g transform="translate(161.275227 545.758438) scale(0.1 -0.1)">
       <use xlink:href="#DejaVuSans-32"/>
       <use xlink:href="#DejaVuSans-35" x="63.623047"/>
      </g>
     </g>
    </g>
    <g id="xtick_21">
     <g id="line2d_36">
      <g>
       <use xlink:href="#m214c6f771a" x="240.821818" y="531.16" style="stroke: #000000; stroke-width: 0.8"/>
      </g>
     </g>
     <g id="text_36">
      <!-- 50 -->
      <g transform="translate(234.459318 545.758438) scale(0.1 -0.1)">
       <use xlink:href="#DejaVuSans-35"/>
       <use xlink:href="#DejaVuSans-30" x="63.623047"/>
      </g>
     </g>
    </g>
    <g id="xtick_22">
     <g id="line2d_37">
      <g>
       <use xlink:href="#m214c6f771a" x="314.005909" y="531.16" style="stroke: #000000; stroke-width: 0.8"/>
      </g>
     </g>
     <g id="text_37">
      <!-- 75 -->
      <g transform="translate(307.643409 545.758438) scale(0.1 -0.1)">
       <use xlink:href="#DejaVuSans-37"/>
       <use xlink:href="#DejaVuSans-35" x="63.623047"/>
      </g>
     </g>
    </g>
    <g id="xtick_23">
     <g id="line2d_38">
      <g>
       <use xlink:href="#m214c6f771a" x="387.19" y="531.16" style="stroke: #000000; stroke-width: 0.8"/>
      </g>
     </g>
     <g id="text_38">
      <!-- 100 -->
      <g transform="translate(377.64625 545.758438) scale(0.1 -0.1)">
       <use xlink:href="#DejaVuSans-31"/>
       <use xlink:href="#DejaVuSans-30" x="63.623047"/>
       <use xlink:href="#DejaVuSans-30" x="127.246094"/>
      </g>
     </g>
    </g>
    <g id="xtick_24">
     <g id="line2d_39">
      <g>
       <use xlink:href="#m214c6f771a" x="460.374091" y="531.16" style="stroke: #000000; stroke-width: 0.8"/>
      </g>
     </g>
     <g id="text_39">
      <!-- 125 -->
      <g transform="translate(450.830341 545.758438) scale(0.1 -0.1)">
       <use xlink:href="#DejaVuSans-31"/>
       <use xlink:href="#DejaVuSans-32" x="63.623047"/>
       <use xlink:href="#DejaVuSans-35" x="127.246094"/>
      </g>
     </g>
    </g>
    <g id="xtick_25">
     <g id="line2d_40">
      <g>
       <use xlink:href="#m214c6f771a" x="533.558182" y="531.16" style="stroke: #000000; stroke-width: 0.8"/>
      </g>
     </g>
     <g id="text_40">
      <!-- 150 -->
      <g transform="translate(524.014432 545.758438) scale(0.1 -0.1)">
       <use xlink:href="#DejaVuSans-31"/>
       <use xlink:href="#DejaVuSans-35" x="63.623047"/>
       <use xlink:href="#DejaVuSans-30" x="127.246094"/>
      </g>
     </g>
    </g>
    <g id="xtick_26">
     <g id="line2d_41">
      <g>
       <use xlink:href="#m214c6f771a" x="606.742273" y="531.16" style="stroke: #000000; stroke-width: 0.8"/>
      </g>
     </g>
     <g id="text_41">
      <!-- 175 -->
      <g transform="translate(597.198523 545.758438) scale(0.1 -0.1)">
       <use xlink:href="#DejaVuSans-31"/>
       <use xlink:href="#DejaVuSans-37" x="63.623047"/>
       <use xlink:href="#DejaVuSans-35" x="127.246094"/>
      </g>
     </g>
    </g>
    <g id="xtick_27">
     <g id="line2d_42">
      <g>
       <use xlink:href="#m214c6f771a" x="679.926364" y="531.16" style="stroke: #000000; stroke-width: 0.8"/>
      </g>
     </g>
     <g id="text_42">
      <!-- 200 -->
      <g transform="translate(670.382614 545.758438) scale(0.1 -0.1)">
       <use xlink:href="#DejaVuSans-32"/>
       <use xlink:href="#DejaVuSans-30" x="63.623047"/>
       <use xlink:href="#DejaVuSans-30" x="127.246094"/>
      </g>
     </g>
    </g>
    <g id="text_43">
     <!-- Time [s] -->
     <g transform="translate(362.795313 560.95625) scale(0.12 -0.12)">
      <defs>
       <path id="DejaVuSans-54" d="M -19 4666 
L 3928 4666 
L 3928 4134 
L 2272 4134 
L 2272 0 
L 1638 0 
L 1638 4134 
L -19 4134 
L -19 4666 
z
" transform="scale(0.015625)"/>
      </defs>
      <use xlink:href="#DejaVuSans-54"/>
      <use xlink:href="#DejaVuSans-69" x="57.958984"/>
      <use xlink:href="#DejaVuSans-6d" x="85.742188"/>
      <use xlink:href="#DejaVuSans-65" x="183.154297"/>
      <use xlink:href="#DejaVuSans-20" x="244.677734"/>
      <use xlink:href="#DejaVuSans-5b" x="276.464844"/>
      <use xlink:href="#DejaVuSans-73" x="315.478516"/>
      <use xlink:href="#DejaVuSans-5d" x="367.578125"/>
     </g>
    </g>
   </g>
   <g id="matplotlib.axis_6">
    <g id="ytick_11">
     <g id="line2d_43">
      <g>
       <use xlink:href="#m0fdf601106" x="65.18" y="508.273327" style="stroke: #000000; stroke-width: 0.8"/>
      </g>
     </g>
     <g id="text_44">
      <!-- −0.04 -->
      <g transform="translate(27.534687 512.072546) scale(0.1 -0.1)">
       <use xlink:href="#DejaVuSans-2212"/>
       <use xlink:href="#DejaVuSans-30" x="83.789062"/>
       <use xlink:href="#DejaVuSans-2e" x="147.412109"/>
       <use xlink:href="#DejaVuSans-30" x="179.199219"/>
       <use xlink:href="#DejaVuSans-34" x="242.822266"/>
      </g>
     </g>
    </g>
    <g id="ytick_12">
     <g id="line2d_44">
      <g>
       <use xlink:href="#m0fdf601106" x="65.18" y="473.197348" style="stroke: #000000; stroke-width: 0.8"/>
      </g>
     </g>
     <g id="text_45">
      <!-- −0.02 -->
      <g transform="translate(27.534687 476.996566) scale(0.1 -0.1)">
       <use xlink:href="#DejaVuSans-2212"/>
       <use xlink:href="#DejaVuSans-30" x="83.789062"/>
       <use xlink:href="#DejaVuSans-2e" x="147.412109"/>
       <use xlink:href="#DejaVuSans-30" x="179.199219"/>
       <use xlink:href="#DejaVuSans-32" x="242.822266"/>
      </g>
     </g>
    </g>
    <g id="ytick_13">
     <g id="line2d_45">
      <g>
       <use xlink:href="#m0fdf601106" x="65.18" y="438.121368" style="stroke: #000000; stroke-width: 0.8"/>
      </g>
     </g>
     <g id="text_46">
      <!-- 0.00 -->
      <g transform="translate(35.914375 441.920587) scale(0.1 -0.1)">
       <use xlink:href="#DejaVuSans-30"/>
       <use xlink:href="#DejaVuSans-2e" x="63.623047"/>
       <use xlink:href="#DejaVuSans-30" x="95.410156"/>
       <use xlink:href="#DejaVuSans-30" x="159.033203"/>
      </g>
     </g>
    </g>
    <g id="ytick_14">
     <g id="line2d_46">
      <g>
       <use xlink:href="#m0fdf601106" x="65.18" y="403.045388" style="stroke: #000000; stroke-width: 0.8"/>
      </g>
     </g>
     <g id="text_47">
      <!-- 0.02 -->
      <g transform="translate(35.914375 406.844607) scale(0.1 -0.1)">
       <use xlink:href="#DejaVuSans-30"/>
       <use xlink:href="#DejaVuSans-2e" x="63.623047"/>
       <use xlink:href="#DejaVuSans-30" x="95.410156"/>
       <use xlink:href="#DejaVuSans-32" x="159.033203"/>
      </g>
     </g>
    </g>
    <g id="text_48">
     <!-- Velocity [m/s] -->
     <g transform="translate(21.039062 500.865417) rotate(-90) scale(0.12 -0.12)">
      <defs>
       <path id="DejaVuSans-56" d="M 1831 0 
L 50 4666 
L 709 4666 
L 2188 738 
L 3669 4666 
L 4325 4666 
L 2547 0 
L 1831 0 
z
" transform="scale(0.015625)"/>
       <path id="DejaVuSans-6c" d="M 603 4863 
L 1178 4863 
L 1178 0 
L 603 0 
L 603 4863 
z
" transform="scale(0.015625)"/>
       <path id="DejaVuSans-63" d="M 3122 3366 
L 3122 2828 
Q 2878 2963 2633 3030 
Q 2388 3097 2138 3097 
Q 1578 3097 1268 2742 
Q 959 2388 959 1747 
Q 959 1106 1268 751 
Q 1578 397 2138 397 
Q 2388 397 2633 464 
Q 2878 531 3122 666 
L 3122 134 
Q 2881 22 2623 -34 
Q 2366 -91 2075 -91 
Q 1284 -91 818 406 
Q 353 903 353 1747 
Q 353 2603 823 3093 
Q 1294 3584 2113 3584 
Q 2378 3584 2631 3529 
Q 2884 3475 3122 3366 
z
" transform="scale(0.015625)"/>
       <path id="DejaVuSans-79" d="M 2059 -325 
Q 1816 -950 1584 -1140 
Q 1353 -1331 966 -1331 
L 506 -1331 
L 506 -850 
L 844 -850 
Q 1081 -850 1212 -737 
Q 1344 -625 1503 -206 
L 1606 56 
L 191 3500 
L 800 3500 
L 1894 763 
L 2988 3500 
L 3597 3500 
L 2059 -325 
z
" transform="scale(0.015625)"/>
       <path id="DejaVuSans-2f" d="M 1625 4666 
L 2156 4666 
L 531 -594 
L 0 -594 
L 1625 4666 
z
" transform="scale(0.015625)"/>
      </defs>
      <use xlink:href="#DejaVuSans-56"/>
      <use xlink:href="#DejaVuSans-65" x="60.658203"/>
      <use xlink:href="#DejaVuSans-6c" x="122.181641"/>
      <use xlink:href="#DejaVuSans-6f" x="149.964844"/>
      <use xlink:href="#DejaVuSans-63" x="211.146484"/>
      <use xlink:href="#DejaVuSans-69" x="266.126953"/>
      <use xlink:href="#DejaVuSans-74" x="293.910156"/>
      <use xlink:href="#DejaVuSans-79" x="333.119141"/>
      <use xlink:href="#DejaVuSans-20" x="392.298828"/>
      <use xlink:href="#DejaVuSans-5b" x="424.085938"/>
      <use xlink:href="#DejaVuSans-6d" x="463.099609"/>
      <use xlink:href="#DejaVuSans-2f" x="560.511719"/>
      <use xlink:href="#DejaVuSans-73" x="594.203125"/>
      <use xlink:href="#DejaVuSans-5d" x="646.302734"/>
     </g>
    </g>
   </g>
   <g id="line2d_47">
    <path d="M 94.453636 438.121368 
L 101.186573 438.232648 
L 107.919509 438.56918 
L 114.652445 439.129207 
L 121.385382 439.909807 
L 128.411055 440.955093 
L 135.436727 442.230164 
L 142.4624 443.727775 
L 149.780809 445.515241 
L 157.391955 447.608692 
L 165.295836 450.020909 
L 173.492455 452.76051 
L 181.981809 455.831096 
L 191.056636 459.347242 
L 201.009673 463.442622 
L 212.426391 468.389306 
L 226.477736 474.737111 
L 275.071973 496.923524 
L 286.195955 501.623446 
L 296.148991 505.586462 
L 305.223818 508.960576 
L 313.713173 511.881084 
L 321.617055 514.373332 
L 329.2282 516.549343 
L 336.839345 518.490937 
L 344.157755 520.124721 
L 351.183427 521.468619 
L 358.2091 522.584808 
L 364.942036 523.434933 
L 371.674973 524.06566 
L 378.407909 524.473698 
L 385.140845 524.656917 
L 391.873782 524.614361 
L 398.606718 524.346252 
L 405.339655 523.853989 
L 412.072591 523.140142 
L 418.805527 522.208435 
L 425.8312 521.009217 
L 432.856873 519.584902 
L 440.175282 517.870618 
L 447.493691 515.931447 
L 455.104836 513.689015 
L 463.008718 511.132628 
L 471.498073 508.149236 
L 480.5729 504.715355 
L 490.2332 500.817877 
L 501.064445 496.202047 
L 513.944845 490.458117 
L 532.387236 481.961053 
L 557.562564 470.391775 
L 570.442964 464.730054 
L 581.274209 460.210862 
L 590.934509 456.419669 
L 599.7166 453.204839 
L 608.205955 450.334728 
L 616.109836 447.893687 
L 623.720982 445.77054 
L 631.039391 443.952913 
L 638.3578 442.366126 
L 645.383473 441.06908 
L 652.409145 440.001173 
L 659.142082 439.198404 
L 665.875018 438.615848 
L 672.607955 438.256543 
L 679.340891 438.122364 
L 679.926364 438.121368 
L 679.926364 438.121368 
" clip-path="url(#p6fb33fc416)" style="fill: none; stroke: #1f77b4; stroke-width: 1.5; stroke-linecap: square"/>
   </g>
   <g id="line2d_48">
    <path d="M 94.453636 438.121368 
L 118.458018 427.095861 
L 131.338418 421.434141 
L 142.169664 416.914949 
L 151.829964 413.123755 
L 160.612055 409.908926 
L 169.101409 407.038815 
L 177.005291 404.597774 
L 184.616436 402.474627 
L 191.934845 400.656999 
L 199.253255 399.070213 
L 206.278927 397.773167 
L 213.3046 396.705259 
L 220.037536 395.902491 
L 226.770473 395.319934 
L 233.503409 394.960629 
L 240.236345 394.826451 
L 246.969282 394.9181 
L 253.702218 395.235098 
L 260.435155 395.77579 
L 267.168091 396.537355 
L 273.901027 397.515818 
L 280.9267 398.762536 
L 287.952373 400.232769 
L 295.270782 401.992922 
L 302.881927 404.05945 
L 310.785809 406.4455 
L 318.982427 409.160088 
L 327.471782 412.207253 
L 336.546609 415.701376 
L 346.499645 419.776422 
L 357.623627 424.575785 
L 371.0895 430.636458 
L 394.801145 441.606819 
L 412.9508 449.888431 
L 425.245727 455.263798 
L 435.784236 459.637155 
L 445.444536 463.40561 
L 454.226627 466.596668 
L 462.423245 469.347307 
L 470.327127 471.771086 
L 477.938273 473.876443 
L 485.256682 475.675997 
L 492.575091 477.243875 
L 499.600764 478.52209 
L 506.626436 479.57061 
L 513.359373 480.35438 
L 520.092309 480.917627 
L 526.825245 481.257414 
L 533.558182 481.371965 
L 540.291118 481.260685 
L 547.024055 480.924153 
L 553.756991 480.364126 
L 560.489927 479.583526 
L 567.5156 478.538241 
L 574.541273 477.263169 
L 581.566945 475.765558 
L 588.885355 473.978092 
L 596.4965 471.884641 
L 604.400382 469.472424 
L 612.597 466.732823 
L 621.086355 463.662238 
L 630.161182 460.146092 
L 640.114218 456.050711 
L 651.530936 451.104027 
L 665.582282 444.756222 
L 679.926364 438.121368 
L 679.926364 438.121368 
" clip-path="url(#p6fb33fc416)" style="fill: none; stroke: #ff7f0e; stroke-width: 1.5; stroke-linecap: square"/>
   </g>
   <g id="patch_14">
    <path d="M 65.18 531.16 
L 65.18 388.333333 
" style="fill: none; stroke: #000000; stroke-width: 0.8; stroke-linejoin: miter; stroke-linecap: square"/>
   </g>
   <g id="patch_15">
    <path d="M 709.2 531.16 
L 709.2 388.333333 
" style="fill: none; stroke: #000000; stroke-width: 0.8; stroke-linejoin: miter; stroke-linecap: square"/>
   </g>
   <g id="patch_16">
    <path d="M 65.18 531.16 
L 709.2 531.16 
" style="fill: none; stroke: #000000; stroke-width: 0.8; stroke-linejoin: miter; stroke-linecap: square"/>
   </g>
   <g id="patch_17">
    <path d="M 65.18 388.333333 
L 709.2 388.333333 
" style="fill: none; stroke: #000000; stroke-width: 0.8; stroke-linejoin: miter; stroke-linecap: square"/>
   </g>
   <g id="legend_2">
    <g id="patch_18">
     <path d="M 642.23125 425.689583 
L 702.2 425.689583 
Q 704.2 425.689583 704.2 423.689583 
L 704.2 395.333333 
Q 704.2 393.333333 702.2 393.333333 
L 642.23125 393.333333 
Q 640.23125 393.333333 640.23125 395.333333 
L 640.23125 423.689583 
Q 640.23125 425.689583 642.23125 425.689583 
z
" style="fill: #ffffff; opacity: 0.8; stroke: #cccccc; stroke-linejoin: miter"/>
    </g>
    <g id="line2d_49">
     <path d="M 644.23125 401.431771 
L 654.23125 401.431771 
L 664.23125 401.431771 
" style="fill: none; stroke: #1f77b4; stroke-width: 1.5; stroke-linecap: square"/>
    </g>
    <g id="text_49">
     <!-- North -->
     <g transform="translate(672.23125 404.931771) scale(0.1 -0.1)">
      <use xlink:href="#DejaVuSans-4e"/>
      <use xlink:href="#DejaVuSans-6f" x="74.804688"/>
      <use xlink:href="#DejaVuSans-72" x="135.986328"/>
      <use xlink:href="#DejaVuSans-74" x="177.099609"/>
      <use xlink:href="#DejaVuSans-68" x="216.308594"/>
     </g>
    </g>
    <g id="line2d_50">
     <path d="M 644.23125 416.109896 
L 654.23125 416.109896 
L 664.23125 416.109896 
" style="fill: none; stroke: #ff7f0e; stroke-width: 1.5; stroke-linecap: square"/>
    </g>
    <g id="text_50">
     <!-- East -->
     <g transform="translate(672.23125 419.609896) scale(0.1 -0.1)">
      <use xlink:href="#DejaVuSans-45"/>
      <use xlink:href="#DejaVuSans-61" x="63.183594"/>
      <use xlink:href="#DejaVuSans-73" x="124.462891"/>
      <use xlink:href="#DejaVuSans-74" x="176.5625"/>
     </g>
    </g>
   </g>
  </g>
  <g id="text_51">
   <!-- Deviation from true trajectory (PVA) -->
   <g transform="translate(216.10625 23.6775) scale(0.16 -0.16)">
    <defs>
     <path id="DejaVuSans-44" d="M 1259 4147 
L 1259 519 
L 2022 519 
Q 2988 519 3436 956 
Q 3884 1394 3884 2338 
Q 3884 3275 3436 3711 
Q 2988 4147 2022 4147 
L 1259 4147 
z
M 628 4666 
L 1925 4666 
Q 3281 4666 3915 4102 
Q 4550 3538 4550 2338 
Q 4550 1131 3912 565 
Q 3275 0 1925 0 
L 628 0 
L 628 4666 
z
" transform="scale(0.015625)"/>
     <path id="DejaVuSans-76" d="M 191 3500 
L 800 3500 
L 1894 563 
L 2988 3500 
L 3597 3500 
L 2284 0 
L 1503 0 
L 191 3500 
z
" transform="scale(0.015625)"/>
     <path id="DejaVuSans-66" d="M 2375 4863 
L 2375 4384 
L 1825 4384 
Q 1516 4384 1395 4259 
Q 1275 4134 1275 3809 
L 1275 3500 
L 2222 3500 
L 2222 3053 
L 1275 3053 
L 1275 0 
L 697 0 
L 697 3053 
L 147 3053 
L 147 3500 
L 697 3500 
L 697 3744 
Q 697 4328 969 4595 
Q 1241 4863 1831 4863 
L 2375 4863 
z
" transform="scale(0.015625)"/>
     <path id="DejaVuSans-6a" d="M 603 3500 
L 1178 3500 
L 1178 -63 
Q 1178 -731 923 -1031 
Q 669 -1331 103 -1331 
L -116 -1331 
L -116 -844 
L 38 -844 
Q 366 -844 484 -692 
Q 603 -541 603 -63 
L 603 3500 
z
M 603 4863 
L 1178 4863 
L 1178 4134 
L 603 4134 
L 603 4863 
z
" transform="scale(0.015625)"/>
     <path id="DejaVuSans-28" d="M 1984 4856 
Q 1566 4138 1362 3434 
Q 1159 2731 1159 2009 
Q 1159 1288 1364 580 
Q 1569 -128 1984 -844 
L 1484 -844 
Q 1016 -109 783 600 
Q 550 1309 550 2009 
Q 550 2706 781 3412 
Q 1013 4119 1484 4856 
L 1984 4856 
z
" transform="scale(0.015625)"/>
     <path id="DejaVuSans-29" d="M 513 4856 
L 1013 4856 
Q 1481 4119 1714 3412 
Q 1947 2706 1947 2009 
Q 1947 1309 1714 600 
Q 1481 -109 1013 -844 
L 513 -844 
Q 928 -128 1133 580 
Q 1338 1288 1338 2009 
Q 1338 2731 1133 3434 
Q 928 4138 513 4856 
z
" transform="scale(0.015625)"/>
    </defs>
    <use xlink:href="#DejaVuSans-44"/>
    <use xlink:href="#DejaVuSans-65" x="77.001953"/>
    <use xlink:href="#DejaVuSans-76" x="138.525391"/>
    <use xlink:href="#DejaVuSans-69" x="197.705078"/>
    <use xlink:href="#DejaVuSans-61" x="225.488281"/>
    <use xlink:href="#DejaVuSans-74" x="286.767578"/>
    <use xlink:href="#DejaVuSans-69" x="325.976562"/>
    <use xlink:href="#DejaVuSans-6f" x="353.759766"/>
    <use xlink:href="#DejaVuSans-6e" x="414.941406"/>
    <use xlink:href="#DejaVuSans-20" x="478.320312"/>
    <use xlink:href="#DejaVuSans-66" x="510.107422"/>
    <use xlink:href="#DejaVuSans-72" x="545.3125"/>
    <use xlink:href="#DejaVuSans-6f" x="584.175781"/>
    <use xlink:href="#DejaVuSans-6d" x="645.357422"/>
    <use xlink:href="#DejaVuSans-20" x="742.769531"/>
    <use xlink:href="#DejaVuSans-74" x="774.556641"/>
    <use xlink:href="#DejaVuSans-72" x="813.765625"/>
    <use xlink:href="#DejaVuSans-75" x="854.878906"/>
    <use xlink:href="#DejaVuSans-65" x="918.257812"/>
    <use xlink:href="#DejaVuSans-20" x="979.78125"/>
    <use xlink:href="#DejaVuSans-74" x="1011.568359"/>
    <use xlink:href="#DejaVuSans-72" x="1050.777344"/>
    <use xlink:href="#DejaVuSans-61" x="1091.890625"/>
    <use xlink:href="#DejaVuSans-6a" x="1153.169922"/>
    <use xlink:href="#DejaVuSans-65" x="1180.953125"/>
    <use xlink:href="#DejaVuSans-63" x="1242.476562"/>
    <use xlink:href="#DejaVuSans-74" x="1297.457031"/>
    <use xlink:href="#DejaVuSans-6f" x="1336.666016"/>
    <use xlink:href="#DejaVuSans-72" x="1397.847656"/>
    <use xlink:href="#DejaVuSans-79" x="1438.960938"/>
    <use xlink:href="#DejaVuSans-20" x="1498.140625"/>
    <use xlink:href="#DejaVuSans-28" x="1529.927734"/>
    <use xlink:href="#DejaVuSans-50" x="1568.941406"/>
    <use xlink:href="#DejaVuSans-56" x="1629.244141"/>
    <use xlink:href="#DejaVuSans-41" x="1691.277344"/>
    <use xlink:href="#DejaVuSans-29" x="1759.685547"/>
   </g>
  </g>
 </g>
 <defs>
  <clipPath id="p88fbd1b79c">
   <rect x="65.18" y="46.92" width="644.02" height="142.826667"/>
  </clipPath>
  <clipPath id="p7b959efd1a">
   <rect x="65.18" y="217.626667" width="644.02" height="142.826667"/>
  </clipPath>
  <clipPath id="p6fb33fc416">
   <rect x="65.18" y="388.333333" width="644.02" height="142.826667"/>
  </clipPath>
 </defs>
</svg>
