<?xml version="1.0" encoding="utf-8" standalone="no"?>
<!DOCTYPE svg PUBLIC "-//W3C//DTD SVG 1.1//EN"
  "http://www.w3.org/Graphics/SVG/1.1/DTD/svg11.dtd">
<svg xmlns:xlink="http://www.w3.org/1999/xlink" width="720pt" height="720pt" viewBox="0 0 720 720" xmlns="http://www.w3.org/2000/svg" version="1.1">
 <metadata>
  <rdf:RDF xmlns:dc="http://purl.org/dc/elements/1.1/" xmlns:cc="http://creativecommons.org/ns#" xmlns:rdf="http://www.w3.org/1999/02/22-rdf-syntax-ns#">
   <cc:Work>
    <dc:type rdf:resource="http://purl.org/dc/dcmitype/StillImage"/>
    <dc:date>2024-06-03T16:56:46.905694</dc:date>
    <dc:format>image/svg+xml</dc:format>
    <dc:creator>
     <cc:Agent>
      <dc:title>Matplotlib v3.9.0, https://matplotlib.org/</dc:title>
     </cc:Agent>
    </dc:creator>
   </cc:Work>
  </rdf:RDF>
 </metadata>
 <defs>
  <style type="text/css">*{stroke-linejoin: round; stroke-linecap: butt}</style>
 </defs>
 <g id="figure_1">
  <g id="patch_1">
   <path d="M 0 720 
L 720 720 
L 720 0 
L 0 0 
z
" style="fill: #ffffff"/>
  </g>
  <g id="axes_1">
   <g id="patch_2">
    <path d="M 91.55 187.765 
L 704.88 187.765 
L 704.88 46.8 
L 91.55 46.8 
z
" style="fill: #ffffff"/>
   </g>
   <g id="matplotlib.axis_1">
    <g id="xtick_1">
     <g id="line2d_1">
      <defs>
       <path id="m3d3e8ab999" d="M 0 0 
L 0 3.5 
" style="stroke: #000000; stroke-width: 0.8"/>
      </defs>
      <g>
       <use xlink:href="#m3d3e8ab999" x="91.55" y="187.765" style="stroke: #000000; stroke-width: 0.8"/>
      </g>
     </g>
    </g>
    <g id="xtick_2">
     <g id="line2d_2">
      <g>
       <use xlink:href="#m3d3e8ab999" x="168.220084" y="187.765" style="stroke: #000000; stroke-width: 0.8"/>
      </g>
     </g>
    </g>
    <g id="xtick_3">
     <g id="line2d_3">
      <g>
       <use xlink:href="#m3d3e8ab999" x="244.890167" y="187.765" style="stroke: #000000; stroke-width: 0.8"/>
      </g>
     </g>
    </g>
    <g id="xtick_4">
     <g id="line2d_4">
      <g>
       <use xlink:href="#m3d3e8ab999" x="321.560251" y="187.765" style="stroke: #000000; stroke-width: 0.8"/>
      </g>
     </g>
    </g>
    <g id="xtick_5">
     <g id="line2d_5">
      <g>
       <use xlink:href="#m3d3e8ab999" x="398.230334" y="187.765" style="stroke: #000000; stroke-width: 0.8"/>
      </g>
     </g>
    </g>
    <g id="xtick_6">
     <g id="line2d_6">
      <g>
       <use xlink:href="#m3d3e8ab999" x="474.900418" y="187.765" style="stroke: #000000; stroke-width: 0.8"/>
      </g>
     </g>
    </g>
    <g id="xtick_7">
     <g id="line2d_7">
      <g>
       <use xlink:href="#m3d3e8ab999" x="551.570501" y="187.765" style="stroke: #000000; stroke-width: 0.8"/>
      </g>
     </g>
    </g>
    <g id="xtick_8">
     <g id="line2d_8">
      <g>
       <use xlink:href="#m3d3e8ab999" x="628.240585" y="187.765" style="stroke: #000000; stroke-width: 0.8"/>
      </g>
     </g>
    </g>
   </g>
   <g id="matplotlib.axis_2">
    <g id="ytick_1">
     <g id="line2d_9">
      <defs>
       <path id="m403d747eee" d="M 0 0 
L -3.5 0 
" style="stroke: #000000; stroke-width: 0.8"/>
      </defs>
      <g>
       <use xlink:href="#m403d747eee" x="91.55" y="153.671514" style="stroke: #000000; stroke-width: 0.8"/>
      </g>
     </g>
     <g id="text_1">
      <!-- −0.002 -->
      <g transform="translate(32.739062 158.990421) scale(0.14 -0.14)">
       <defs>
        <path id="DejaVuSans-2212" d="M 678 2272 
L 4684 2272 
L 4684 1741 
L 678 1741 
L 678 2272 
z
" transform="scale(0.015625)"/>
        <path id="DejaVuSans-30" d="M 2034 4250 
Q 1547 4250 1301 3770 
Q 1056 3291 1056 2328 
Q 1056 1369 1301 889 
Q 1547 409 2034 409 
Q 2525 409 2770 889 
Q 3016 1369 3016 2328 
Q 3016 3291 2770 3770 
Q 2525 4250 2034 4250 
z
M 2034 4750 
Q 2819 4750 3233 4129 
Q 3647 3509 3647 2328 
Q 3647 1150 3233 529 
Q 2819 -91 2034 -91 
Q 1250 -91 836 529 
Q 422 1150 422 2328 
Q 422 3509 836 4129 
Q 1250 4750 2034 4750 
z
" transform="scale(0.015625)"/>
        <path id="DejaVuSans-2e" d="M 684 794 
L 1344 794 
L 1344 0 
L 684 0 
L 684 794 
z
" transform="scale(0.015625)"/>
        <path id="DejaVuSans-32" d="M 1228 531 
L 3431 531 
L 3431 0 
L 469 0 
L 469 531 
Q 828 903 1448 1529 
Q 2069 2156 2228 2338 
Q 2531 2678 2651 2914 
Q 2772 3150 2772 3378 
Q 2772 3750 2511 3984 
Q 2250 4219 1831 4219 
Q 1534 4219 1204 4116 
Q 875 4013 500 3803 
L 500 4441 
Q 881 4594 1212 4672 
Q 1544 4750 1819 4750 
Q 2544 4750 2975 4387 
Q 3406 4025 3406 3419 
Q 3406 3131 3298 2873 
Q 3191 2616 2906 2266 
Q 2828 2175 2409 1742 
Q 1991 1309 1228 531 
z
" transform="scale(0.015625)"/>
       </defs>
       <use xlink:href="#DejaVuSans-2212"/>
       <use xlink:href="#DejaVuSans-30" x="83.789062"/>
       <use xlink:href="#DejaVuSans-2e" x="147.412109"/>
       <use xlink:href="#DejaVuSans-30" x="179.199219"/>
       <use xlink:href="#DejaVuSans-30" x="242.822266"/>
       <use xlink:href="#DejaVuSans-32" x="306.445312"/>
      </g>
     </g>
    </g>
    <g id="ytick_2">
     <g id="line2d_10">
      <g>
       <use xlink:href="#m403d747eee" x="91.55" y="117.2825" style="stroke: #000000; stroke-width: 0.8"/>
      </g>
     </g>
     <g id="text_2">
      <!-- 0.000 -->
      <g transform="translate(44.470625 122.601406) scale(0.14 -0.14)">
       <use xlink:href="#DejaVuSans-30"/>
       <use xlink:href="#DejaVuSans-2e" x="63.623047"/>
       <use xlink:href="#DejaVuSans-30" x="95.410156"/>
       <use xlink:href="#DejaVuSans-30" x="159.033203"/>
       <use xlink:href="#DejaVuSans-30" x="222.65625"/>
      </g>
     </g>
    </g>
    <g id="ytick_3">
     <g id="line2d_11">
      <g>
       <use xlink:href="#m403d747eee" x="91.55" y="80.893486" style="stroke: #000000; stroke-width: 0.8"/>
      </g>
     </g>
     <g id="text_3">
      <!-- 0.002 -->
      <g transform="translate(44.470625 86.212392) scale(0.14 -0.14)">
       <use xlink:href="#DejaVuSans-30"/>
       <use xlink:href="#DejaVuSans-2e" x="63.623047"/>
       <use xlink:href="#DejaVuSans-30" x="95.410156"/>
       <use xlink:href="#DejaVuSans-30" x="159.033203"/>
       <use xlink:href="#DejaVuSans-32" x="222.65625"/>
      </g>
     </g>
    </g>
    <g id="text_4">
     <!-- Gyro bias [rad/s] -->
     <g transform="translate(25.8275 175.705156) rotate(-90) scale(0.14 -0.14)">
      <defs>
       <path id="DejaVuSans-47" d="M 3809 666 
L 3809 1919 
L 2778 1919 
L 2778 2438 
L 4434 2438 
L 4434 434 
Q 4069 175 3628 42 
Q 3188 -91 2688 -91 
Q 1594 -91 976 548 
Q 359 1188 359 2328 
Q 359 3472 976 4111 
Q 1594 4750 2688 4750 
Q 3144 4750 3555 4637 
Q 3966 4525 4313 4306 
L 4313 3634 
Q 3963 3931 3569 4081 
Q 3175 4231 2741 4231 
Q 1884 4231 1454 3753 
Q 1025 3275 1025 2328 
Q 1025 1384 1454 906 
Q 1884 428 2741 428 
Q 3075 428 3337 486 
Q 3600 544 3809 666 
z
" transform="scale(0.015625)"/>
       <path id="DejaVuSans-79" d="M 2059 -325 
Q 1816 -950 1584 -1140 
Q 1353 -1331 966 -1331 
L 506 -1331 
L 506 -850 
L 844 -850 
Q 1081 -850 1212 -737 
Q 1344 -625 1503 -206 
L 1606 56 
L 191 3500 
L 800 3500 
L 1894 763 
L 2988 3500 
L 3597 3500 
L 2059 -325 
z
" transform="scale(0.015625)"/>
       <path id="DejaVuSans-72" d="M 2631 2963 
Q 2534 3019 2420 3045 
Q 2306 3072 2169 3072 
Q 1681 3072 1420 2755 
Q 1159 2438 1159 1844 
L 1159 0 
L 581 0 
L 581 3500 
L 1159 3500 
L 1159 2956 
Q 1341 3275 1631 3429 
Q 1922 3584 2338 3584 
Q 2397 3584 2469 3576 
Q 2541 3569 2628 3553 
L 2631 2963 
z
" transform="scale(0.015625)"/>
       <path id="DejaVuSans-6f" d="M 1959 3097 
Q 1497 3097 1228 2736 
Q 959 2375 959 1747 
Q 959 1119 1226 758 
Q 1494 397 1959 397 
Q 2419 397 2687 759 
Q 2956 1122 2956 1747 
Q 2956 2369 2687 2733 
Q 2419 3097 1959 3097 
z
M 1959 3584 
Q 2709 3584 3137 3096 
Q 3566 2609 3566 1747 
Q 3566 888 3137 398 
Q 2709 -91 1959 -91 
Q 1206 -91 779 398 
Q 353 888 353 1747 
Q 353 2609 779 3096 
Q 1206 3584 1959 3584 
z
" transform="scale(0.015625)"/>
       <path id="DejaVuSans-20" transform="scale(0.015625)"/>
       <path id="DejaVuSans-62" d="M 3116 1747 
Q 3116 2381 2855 2742 
Q 2594 3103 2138 3103 
Q 1681 3103 1420 2742 
Q 1159 2381 1159 1747 
Q 1159 1113 1420 752 
Q 1681 391 2138 391 
Q 2594 391 2855 752 
Q 3116 1113 3116 1747 
z
M 1159 2969 
Q 1341 3281 1617 3432 
Q 1894 3584 2278 3584 
Q 2916 3584 3314 3078 
Q 3713 2572 3713 1747 
Q 3713 922 3314 415 
Q 2916 -91 2278 -91 
Q 1894 -91 1617 61 
Q 1341 213 1159 525 
L 1159 0 
L 581 0 
L 581 4863 
L 1159 4863 
L 1159 2969 
z
" transform="scale(0.015625)"/>
       <path id="DejaVuSans-69" d="M 603 3500 
L 1178 3500 
L 1178 0 
L 603 0 
L 603 3500 
z
M 603 4863 
L 1178 4863 
L 1178 4134 
L 603 4134 
L 603 4863 
z
" transform="scale(0.015625)"/>
       <path id="DejaVuSans-61" d="M 2194 1759 
Q 1497 1759 1228 1600 
Q 959 1441 959 1056 
Q 959 750 1161 570 
Q 1363 391 1709 391 
Q 2188 391 2477 730 
Q 2766 1069 2766 1631 
L 2766 1759 
L 2194 1759 
z
M 3341 1997 
L 3341 0 
L 2766 0 
L 2766 531 
Q 2569 213 2275 61 
Q 1981 -91 1556 -91 
Q 1019 -91 701 211 
Q 384 513 384 1019 
Q 384 1609 779 1909 
Q 1175 2209 1959 2209 
L 2766 2209 
L 2766 2266 
Q 2766 2663 2505 2880 
Q 2244 3097 1772 3097 
Q 1472 3097 1187 3025 
Q 903 2953 641 2809 
L 641 3341 
Q 956 3463 1253 3523 
Q 1550 3584 1831 3584 
Q 2591 3584 2966 3190 
Q 3341 2797 3341 1997 
z
" transform="scale(0.015625)"/>
       <path id="DejaVuSans-73" d="M 2834 3397 
L 2834 2853 
Q 2591 2978 2328 3040 
Q 2066 3103 1784 3103 
Q 1356 3103 1142 2972 
Q 928 2841 928 2578 
Q 928 2378 1081 2264 
Q 1234 2150 1697 2047 
L 1894 2003 
Q 2506 1872 2764 1633 
Q 3022 1394 3022 966 
Q 3022 478 2636 193 
Q 2250 -91 1575 -91 
Q 1294 -91 989 -36 
Q 684 19 347 128 
L 347 722 
Q 666 556 975 473 
Q 1284 391 1588 391 
Q 1994 391 2212 530 
Q 2431 669 2431 922 
Q 2431 1156 2273 1281 
Q 2116 1406 1581 1522 
L 1381 1569 
Q 847 1681 609 1914 
Q 372 2147 372 2553 
Q 372 3047 722 3315 
Q 1072 3584 1716 3584 
Q 2034 3584 2315 3537 
Q 2597 3491 2834 3397 
z
" transform="scale(0.015625)"/>
       <path id="DejaVuSans-5b" d="M 550 4863 
L 1875 4863 
L 1875 4416 
L 1125 4416 
L 1125 -397 
L 1875 -397 
L 1875 -844 
L 550 -844 
L 550 4863 
z
" transform="scale(0.015625)"/>
       <path id="DejaVuSans-64" d="M 2906 2969 
L 2906 4863 
L 3481 4863 
L 3481 0 
L 2906 0 
L 2906 525 
Q 2725 213 2448 61 
Q 2172 -91 1784 -91 
Q 1150 -91 751 415 
Q 353 922 353 1747 
Q 353 2572 751 3078 
Q 1150 3584 1784 3584 
Q 2172 3584 2448 3432 
Q 2725 3281 2906 2969 
z
M 947 1747 
Q 947 1113 1208 752 
Q 1469 391 1925 391 
Q 2381 391 2643 752 
Q 2906 1113 2906 1747 
Q 2906 2381 2643 2742 
Q 2381 3103 1925 3103 
Q 1469 3103 1208 2742 
Q 947 2381 947 1747 
z
" transform="scale(0.015625)"/>
       <path id="DejaVuSans-2f" d="M 1625 4666 
L 2156 4666 
L 531 -594 
L 0 -594 
L 1625 4666 
z
" transform="scale(0.015625)"/>
       <path id="DejaVuSans-5d" d="M 1947 4863 
L 1947 -844 
L 622 -844 
L 622 -397 
L 1369 -397 
L 1369 4416 
L 622 4416 
L 622 4863 
L 1947 4863 
z
" transform="scale(0.015625)"/>
      </defs>
      <use xlink:href="#DejaVuSans-47"/>
      <use xlink:href="#DejaVuSans-79" x="77.490234"/>
      <use xlink:href="#DejaVuSans-72" x="136.669922"/>
      <use xlink:href="#DejaVuSans-6f" x="175.533203"/>
      <use xlink:href="#DejaVuSans-20" x="236.714844"/>
      <use xlink:href="#DejaVuSans-62" x="268.501953"/>
      <use xlink:href="#DejaVuSans-69" x="331.978516"/>
      <use xlink:href="#DejaVuSans-61" x="359.761719"/>
      <use xlink:href="#DejaVuSans-73" x="421.041016"/>
      <use xlink:href="#DejaVuSans-20" x="473.140625"/>
      <use xlink:href="#DejaVuSans-5b" x="504.927734"/>
      <use xlink:href="#DejaVuSans-72" x="543.941406"/>
      <use xlink:href="#DejaVuSans-61" x="585.054688"/>
      <use xlink:href="#DejaVuSans-64" x="646.333984"/>
      <use xlink:href="#DejaVuSans-2f" x="709.810547"/>
      <use xlink:href="#DejaVuSans-73" x="743.501953"/>
      <use xlink:href="#DejaVuSans-5d" x="795.601562"/>
     </g>
    </g>
   </g>
   <g id="line2d_12">
    <path d="M 91.55 117.2825 
L 122.187365 117.38267 
L 122.310038 117.584813 
L 128.320972 117.584813 
L 128.443644 118.023629 
L 134.454579 118.023629 
L 134.577251 117.450265 
L 146.721792 117.393917 
L 146.844464 116.603506 
L 152.855399 116.603506 
L 152.978071 114.631278 
L 158.989005 114.631278 
L 159.111678 116.488657 
L 165.122612 116.488657 
L 165.245284 117.698757 
L 171.256219 117.698757 
L 171.378891 124.031328 
L 177.389825 124.031328 
L 177.512498 123.437511 
L 183.523432 123.437511 
L 183.646104 121.834845 
L 189.657039 121.834845 
L 189.779711 120.559926 
L 195.790646 120.559926 
L 195.913318 115.763333 
L 201.924252 115.763333 
L 202.046924 117.503711 
L 208.057859 117.503711 
L 208.180531 118.300933 
L 214.191466 118.300933 
L 214.314138 112.515073 
L 220.325072 112.515073 
L 220.447744 109.936365 
L 226.458679 109.936365 
L 226.581351 110.171423 
L 232.592286 110.171423 
L 232.714958 110.526798 
L 238.725892 110.526798 
L 238.848564 110.341075 
L 244.859499 110.341075 
L 244.982171 109.347114 
L 250.993106 109.347114 
L 251.115778 109.159843 
L 257.126712 109.159843 
L 257.249384 105.27658 
L 263.260319 105.27658 
L 263.382991 104.94031 
L 269.393926 104.94031 
L 269.516598 103.122161 
L 275.527532 103.122161 
L 275.650205 101.795325 
L 281.661139 101.795325 
L 281.783811 95.118376 
L 287.794746 95.118376 
L 287.917418 94.59181 
L 293.928352 94.59181 
L 294.051025 95.434895 
L 300.061959 95.434895 
L 300.184631 92.203553 
L 306.195566 92.203553 
L 306.318238 92.457763 
L 312.329172 92.457763 
L 312.451845 91.090481 
L 318.462779 91.090481 
L 318.585451 93.166927 
L 324.596386 93.166927 
L 324.719058 92.485632 
L 330.729992 92.485632 
L 330.852665 91.323895 
L 336.863599 91.323895 
L 336.986271 88.874183 
L 342.997206 88.874183 
L 343.119878 87.305499 
L 349.130813 87.305499 
L 349.253485 89.280565 
L 361.398026 89.370094 
L 361.520698 90.492376 
L 373.665239 90.428303 
L 373.787911 92.228763 
L 379.798846 92.228763 
L 379.921518 92.726456 
L 385.932453 92.726456 
L 386.055125 91.84051 
L 392.066059 91.84051 
L 392.188731 92.28012 
L 398.199666 92.28012 
L 398.322338 91.870152 
L 404.333273 91.870152 
L 404.455945 91.7107 
L 410.466879 91.7107 
L 410.589551 92.418012 
L 416.600486 92.418012 
L 416.723158 91.790546 
L 422.734093 91.790546 
L 422.856765 91.179925 
L 428.867699 91.179925 
L 428.990372 91.418533 
L 435.001306 91.418533 
L 435.123978 89.562501 
L 441.134913 89.562501 
L 441.257585 89.264889 
L 447.268519 89.264889 
L 447.391192 90.168231 
L 453.402126 90.168231 
L 453.524798 89.570689 
L 459.535733 89.570689 
L 459.658405 89.934641 
L 465.669339 89.934641 
L 465.792012 89.239791 
L 471.802946 89.239791 
L 471.925618 88.489687 
L 477.936553 88.489687 
L 478.059225 89.097363 
L 484.07016 89.097363 
L 484.192832 89.245814 
L 490.203766 89.245814 
L 490.326438 89.835313 
L 496.337373 89.835313 
L 496.460045 89.571772 
L 502.47098 89.571772 
L 502.593652 89.27407 
L 508.604586 89.27407 
L 508.727258 89.555865 
L 514.738193 89.555865 
L 514.860865 89.389483 
L 520.8718 89.389483 
L 520.994472 89.523961 
L 527.005406 89.523961 
L 527.128078 89.879049 
L 533.139013 89.879049 
L 533.261685 89.244642 
L 545.406226 89.289076 
L 545.528898 87.716716 
L 551.539833 87.716716 
L 551.662505 87.973425 
L 569.940653 87.914188 
L 570.063325 88.177844 
L 576.07426 88.177844 
L 576.196932 87.561197 
L 582.207866 87.561197 
L 582.330539 87.94854 
L 588.341473 87.94854 
L 588.464145 88.428291 
L 594.47508 88.428291 
L 594.597752 89.09141 
L 600.608686 89.09141 
L 600.731359 88.833478 
L 606.742293 88.833478 
L 606.864965 88.459242 
L 612.8759 88.459242 
L 612.998572 88.3399 
L 619.009506 88.3399 
L 619.132179 88.620252 
L 625.143113 88.620252 
L 625.265785 88.48427 
L 631.27672 88.48427 
L 631.399392 87.990289 
L 637.410327 87.990289 
L 637.532999 87.823656 
L 649.67754 87.805645 
L 649.800212 88.260546 
L 655.811147 88.260546 
L 655.933819 88.098269 
L 661.944753 88.098269 
L 662.067425 87.78688 
L 680.345573 87.716908 
L 680.468245 87.601688 
L 698.746393 87.639767 
L 698.869065 87.219865 
L 704.88 87.219865 
L 704.88 87.219865 
" clip-path="url(#p02fb57bdf4)" style="fill: none; stroke: #1f77b4; stroke-width: 1.5; stroke-linecap: square"/>
   </g>
   <g id="line2d_13">
    <path d="M 91.55 69.649392 
L 97.683607 69.649392 
L 103.817213 69.649398 
L 109.95082 69.649609 
L 116.084427 69.651229 
L 122.218033 69.658608 
L 128.35164 69.682004 
L 134.485247 69.738111 
L 140.618853 69.850252 
L 146.75246 70.041308 
L 152.886067 70.322262 
L 159.019673 70.685833 
L 165.15328 71.11786 
L 171.286887 71.60257 
L 177.420494 72.134106 
L 183.5541 72.715758 
L 189.687707 73.354192 
L 195.821314 74.053276 
L 201.95492 74.819932 
L 208.088527 75.668195 
L 214.222134 76.607708 
L 220.35574 77.641084 
L 226.489347 78.762559 
L 232.622954 79.953921 
L 238.75656 81.200585 
L 244.890167 82.486207 
L 251.023774 83.790314 
L 257.15738 85.091689 
L 263.290987 86.374169 
L 269.424594 87.624267 
L 275.5582 88.833542 
L 281.691807 89.9943 
L 287.825414 91.103352 
L 293.95902 92.153824 
L 300.092627 93.144985 
L 306.226234 94.078244 
L 312.35984 94.951394 
L 318.493447 95.768415 
L 324.627054 96.537202 
L 330.760661 97.265594 
L 336.894267 97.951998 
L 343.027874 98.596555 
L 349.161481 99.201858 
L 355.295087 99.771063 
L 361.428694 100.30712 
L 367.562301 100.813183 
L 373.695907 101.291534 
L 379.829514 101.743225 
L 385.963121 102.171659 
L 392.096727 102.575606 
L 398.230334 102.95488 
L 404.363941 103.312271 
L 410.497547 103.650761 
L 416.631154 103.97127 
L 422.764761 104.273732 
L 428.898367 104.559933 
L 435.031974 104.83208 
L 441.165581 105.091266 
L 447.299187 105.337144 
L 453.432794 105.570177 
L 459.566401 105.792012 
L 465.700008 106.005457 
L 471.833614 106.210809 
L 477.967221 106.408223 
L 484.100828 106.598931 
L 490.234434 106.784017 
L 496.368041 106.963382 
L 502.501648 107.136417 
L 508.635254 107.302009 
L 514.768861 107.459176 
L 520.902468 107.60872 
L 527.036074 107.751445 
L 533.169681 107.888115 
L 539.303288 108.018789 
L 545.436894 108.144125 
L 551.570501 108.264465 
L 557.704108 108.379936 
L 563.837714 108.490974 
L 569.971321 108.5981 
L 576.104928 108.702619 
L 582.238534 108.805064 
L 588.372141 108.905567 
L 594.505748 109.003967 
L 600.639354 109.099894 
L 606.772961 109.192894 
L 612.906568 109.282252 
L 619.040175 109.368003 
L 625.173781 109.450477 
L 631.307388 109.530236 
L 637.440995 109.607326 
L 643.574601 109.682131 
L 649.708208 109.755029 
L 655.841815 109.826055 
L 661.975421 109.895192 
L 668.109028 109.962995 
L 674.242635 110.029475 
L 680.376241 110.094446 
L 686.509848 110.157947 
L 692.643455 110.220124 
L 698.777061 110.281053 
" clip-path="url(#p02fb57bdf4)" style="fill: none; stroke-dasharray: 5.55,2.4; stroke-dashoffset: 0; stroke: #ff0000; stroke-width: 1.5"/>
   </g>
   <g id="line2d_14">
    <path d="M 91.55 164.915608 
L 97.683607 164.915608 
L 103.817213 164.915602 
L 109.95082 164.915391 
L 116.084427 164.913771 
L 122.218033 164.906392 
L 128.35164 164.882996 
L 134.485247 164.826889 
L 140.618853 164.714748 
L 146.75246 164.523692 
L 152.886067 164.242738 
L 159.019673 163.879167 
L 165.15328 163.44714 
L 171.286887 162.96243 
L 177.420494 162.430894 
L 183.5541 161.849242 
L 189.687707 161.210808 
L 195.821314 160.511724 
L 201.95492 159.745068 
L 208.088527 158.896805 
L 214.222134 157.957292 
L 220.35574 156.923916 
L 226.489347 155.802441 
L 232.622954 154.611079 
L 238.75656 153.364415 
L 244.890167 152.078793 
L 251.023774 150.774686 
L 257.15738 149.473311 
L 263.290987 148.190831 
L 269.424594 146.940733 
L 275.5582 145.731458 
L 281.691807 144.5707 
L 287.825414 143.461648 
L 293.95902 142.411176 
L 300.092627 141.420015 
L 306.226234 140.486756 
L 312.35984 139.613606 
L 318.493447 138.796585 
L 324.627054 138.027798 
L 330.760661 137.299406 
L 336.894267 136.613002 
L 343.027874 135.968445 
L 349.161481 135.363142 
L 355.295087 134.793937 
L 361.428694 134.25788 
L 367.562301 133.751817 
L 373.695907 133.273466 
L 379.829514 132.821775 
L 385.963121 132.393341 
L 392.096727 131.989394 
L 398.230334 131.61012 
L 404.363941 131.252729 
L 410.497547 130.914239 
L 416.631154 130.59373 
L 422.764761 130.291268 
L 428.898367 130.005067 
L 435.031974 129.73292 
L 441.165581 129.473734 
L 447.299187 129.227856 
L 453.432794 128.994823 
L 459.566401 128.772988 
L 465.700008 128.559543 
L 471.833614 128.354191 
L 477.967221 128.156777 
L 484.100828 127.966069 
L 490.234434 127.780983 
L 496.368041 127.601618 
L 502.501648 127.428583 
L 508.635254 127.262991 
L 514.768861 127.105824 
L 520.902468 126.95628 
L 527.036074 126.813555 
L 533.169681 126.676885 
L 539.303288 126.546211 
L 545.436894 126.420875 
L 551.570501 126.300535 
L 557.704108 126.185064 
L 563.837714 126.074026 
L 569.971321 125.9669 
L 576.104928 125.862381 
L 582.238534 125.759936 
L 588.372141 125.659433 
L 594.505748 125.561033 
L 600.639354 125.465106 
L 606.772961 125.372106 
L 612.906568 125.282748 
L 619.040175 125.196997 
L 625.173781 125.114523 
L 631.307388 125.034764 
L 637.440995 124.957674 
L 643.574601 124.882869 
L 649.708208 124.809971 
L 655.841815 124.738945 
L 661.975421 124.669808 
L 668.109028 124.602005 
L 674.242635 124.535525 
L 680.376241 124.470554 
L 686.509848 124.407053 
L 692.643455 124.344876 
L 698.777061 124.283947 
" clip-path="url(#p02fb57bdf4)" style="fill: none; stroke-dasharray: 5.55,2.4; stroke-dashoffset: 0; stroke: #ff0000; stroke-width: 1.5"/>
   </g>
   <g id="patch_3">
    <path d="M 91.55 187.765 
L 91.55 46.8 
" style="fill: none; stroke: #000000; stroke-width: 0.8; stroke-linejoin: miter; stroke-linecap: square"/>
   </g>
   <g id="patch_4">
    <path d="M 704.88 187.765 
L 704.88 46.8 
" style="fill: none; stroke: #000000; stroke-width: 0.8; stroke-linejoin: miter; stroke-linecap: square"/>
   </g>
   <g id="patch_5">
    <path d="M 91.55 187.765 
L 704.88 187.765 
" style="fill: none; stroke: #000000; stroke-width: 0.8; stroke-linejoin: miter; stroke-linecap: square"/>
   </g>
   <g id="patch_6">
    <path d="M 91.55 46.8 
L 704.88 46.8 
" style="fill: none; stroke: #000000; stroke-width: 0.8; stroke-linejoin: miter; stroke-linecap: square"/>
   </g>
  </g>
  <g id="axes_2">
   <g id="patch_7">
    <path d="M 91.55 347.35 
L 704.88 347.35 
L 704.88 206.385 
L 91.55 206.385 
z
" style="fill: #ffffff"/>
   </g>
   <g id="matplotlib.axis_3">
    <g id="xtick_9">
     <g id="line2d_15">
      <g>
       <use xlink:href="#m3d3e8ab999" x="91.55" y="347.35" style="stroke: #000000; stroke-width: 0.8"/>
      </g>
     </g>
    </g>
    <g id="xtick_10">
     <g id="line2d_16">
      <g>
       <use xlink:href="#m3d3e8ab999" x="168.220084" y="347.35" style="stroke: #000000; stroke-width: 0.8"/>
      </g>
     </g>
    </g>
    <g id="xtick_11">
     <g id="line2d_17">
      <g>
       <use xlink:href="#m3d3e8ab999" x="244.890167" y="347.35" style="stroke: #000000; stroke-width: 0.8"/>
      </g>
     </g>
    </g>
    <g id="xtick_12">
     <g id="line2d_18">
      <g>
       <use xlink:href="#m3d3e8ab999" x="321.560251" y="347.35" style="stroke: #000000; stroke-width: 0.8"/>
      </g>
     </g>
    </g>
    <g id="xtick_13">
     <g id="line2d_19">
      <g>
       <use xlink:href="#m3d3e8ab999" x="398.230334" y="347.35" style="stroke: #000000; stroke-width: 0.8"/>
      </g>
     </g>
    </g>
    <g id="xtick_14">
     <g id="line2d_20">
      <g>
       <use xlink:href="#m3d3e8ab999" x="474.900418" y="347.35" style="stroke: #000000; stroke-width: 0.8"/>
      </g>
     </g>
    </g>
    <g id="xtick_15">
     <g id="line2d_21">
      <g>
       <use xlink:href="#m3d3e8ab999" x="551.570501" y="347.35" style="stroke: #000000; stroke-width: 0.8"/>
      </g>
     </g>
    </g>
    <g id="xtick_16">
     <g id="line2d_22">
      <g>
       <use xlink:href="#m3d3e8ab999" x="628.240585" y="347.35" style="stroke: #000000; stroke-width: 0.8"/>
      </g>
     </g>
    </g>
   </g>
   <g id="matplotlib.axis_4">
    <g id="ytick_4">
     <g id="line2d_23">
      <g>
       <use xlink:href="#m403d747eee" x="91.55" y="344.17333" style="stroke: #000000; stroke-width: 0.8"/>
      </g>
     </g>
     <g id="text_5">
      <!-- −0.0075 -->
      <g transform="translate(23.831562 349.492236) scale(0.14 -0.14)">
       <defs>
        <path id="DejaVuSans-37" d="M 525 4666 
L 3525 4666 
L 3525 4397 
L 1831 0 
L 1172 0 
L 2766 4134 
L 525 4134 
L 525 4666 
z
" transform="scale(0.015625)"/>
        <path id="DejaVuSans-35" d="M 691 4666 
L 3169 4666 
L 3169 4134 
L 1269 4134 
L 1269 2991 
Q 1406 3038 1543 3061 
Q 1681 3084 1819 3084 
Q 2600 3084 3056 2656 
Q 3513 2228 3513 1497 
Q 3513 744 3044 326 
Q 2575 -91 1722 -91 
Q 1428 -91 1123 -41 
Q 819 9 494 109 
L 494 744 
Q 775 591 1075 516 
Q 1375 441 1709 441 
Q 2250 441 2565 725 
Q 2881 1009 2881 1497 
Q 2881 1984 2565 2268 
Q 2250 2553 1709 2553 
Q 1456 2553 1204 2497 
Q 953 2441 691 2322 
L 691 4666 
z
" transform="scale(0.015625)"/>
       </defs>
       <use xlink:href="#DejaVuSans-2212"/>
       <use xlink:href="#DejaVuSans-30" x="83.789062"/>
       <use xlink:href="#DejaVuSans-2e" x="147.412109"/>
       <use xlink:href="#DejaVuSans-30" x="179.199219"/>
       <use xlink:href="#DejaVuSans-30" x="242.822266"/>
       <use xlink:href="#DejaVuSans-37" x="306.445312"/>
       <use xlink:href="#DejaVuSans-35" x="370.068359"/>
      </g>
     </g>
    </g>
    <g id="ytick_5">
     <g id="line2d_24">
      <g>
       <use xlink:href="#m403d747eee" x="91.55" y="321.738053" style="stroke: #000000; stroke-width: 0.8"/>
      </g>
     </g>
     <g id="text_6">
      <!-- −0.0050 -->
      <g transform="translate(23.831562 327.056959) scale(0.14 -0.14)">
       <use xlink:href="#DejaVuSans-2212"/>
       <use xlink:href="#DejaVuSans-30" x="83.789062"/>
       <use xlink:href="#DejaVuSans-2e" x="147.412109"/>
       <use xlink:href="#DejaVuSans-30" x="179.199219"/>
       <use xlink:href="#DejaVuSans-30" x="242.822266"/>
       <use xlink:href="#DejaVuSans-35" x="306.445312"/>
       <use xlink:href="#DejaVuSans-30" x="370.068359"/>
      </g>
     </g>
    </g>
    <g id="ytick_6">
     <g id="line2d_25">
      <g>
       <use xlink:href="#m403d747eee" x="91.55" y="299.302777" style="stroke: #000000; stroke-width: 0.8"/>
      </g>
     </g>
     <g id="text_7">
      <!-- −0.0025 -->
      <g transform="translate(23.831562 304.621683) scale(0.14 -0.14)">
       <use xlink:href="#DejaVuSans-2212"/>
       <use xlink:href="#DejaVuSans-30" x="83.789062"/>
       <use xlink:href="#DejaVuSans-2e" x="147.412109"/>
       <use xlink:href="#DejaVuSans-30" x="179.199219"/>
       <use xlink:href="#DejaVuSans-30" x="242.822266"/>
       <use xlink:href="#DejaVuSans-32" x="306.445312"/>
       <use xlink:href="#DejaVuSans-35" x="370.068359"/>
      </g>
     </g>
    </g>
    <g id="ytick_7">
     <g id="line2d_26">
      <g>
       <use xlink:href="#m403d747eee" x="91.55" y="276.8675" style="stroke: #000000; stroke-width: 0.8"/>
      </g>
     </g>
     <g id="text_8">
      <!-- 0.0000 -->
      <g transform="translate(35.563125 282.186406) scale(0.14 -0.14)">
       <use xlink:href="#DejaVuSans-30"/>
       <use xlink:href="#DejaVuSans-2e" x="63.623047"/>
       <use xlink:href="#DejaVuSans-30" x="95.410156"/>
       <use xlink:href="#DejaVuSans-30" x="159.033203"/>
       <use xlink:href="#DejaVuSans-30" x="222.65625"/>
       <use xlink:href="#DejaVuSans-30" x="286.279297"/>
      </g>
     </g>
    </g>
    <g id="ytick_8">
     <g id="line2d_27">
      <g>
       <use xlink:href="#m403d747eee" x="91.55" y="254.432223" style="stroke: #000000; stroke-width: 0.8"/>
      </g>
     </g>
     <g id="text_9">
      <!-- 0.0025 -->
      <g transform="translate(35.563125 259.75113) scale(0.14 -0.14)">
       <use xlink:href="#DejaVuSans-30"/>
       <use xlink:href="#DejaVuSans-2e" x="63.623047"/>
       <use xlink:href="#DejaVuSans-30" x="95.410156"/>
       <use xlink:href="#DejaVuSans-30" x="159.033203"/>
       <use xlink:href="#DejaVuSans-32" x="222.65625"/>
       <use xlink:href="#DejaVuSans-35" x="286.279297"/>
      </g>
     </g>
    </g>
    <g id="ytick_9">
     <g id="line2d_28">
      <g>
       <use xlink:href="#m403d747eee" x="91.55" y="231.996947" style="stroke: #000000; stroke-width: 0.8"/>
      </g>
     </g>
     <g id="text_10">
      <!-- 0.0050 -->
      <g transform="translate(35.563125 237.315853) scale(0.14 -0.14)">
       <use xlink:href="#DejaVuSans-30"/>
       <use xlink:href="#DejaVuSans-2e" x="63.623047"/>
       <use xlink:href="#DejaVuSans-30" x="95.410156"/>
       <use xlink:href="#DejaVuSans-30" x="159.033203"/>
       <use xlink:href="#DejaVuSans-35" x="222.65625"/>
       <use xlink:href="#DejaVuSans-30" x="286.279297"/>
      </g>
     </g>
    </g>
    <g id="ytick_10">
     <g id="line2d_29">
      <g>
       <use xlink:href="#m403d747eee" x="91.55" y="209.56167" style="stroke: #000000; stroke-width: 0.8"/>
      </g>
     </g>
     <g id="text_11">
      <!-- 0.0075 -->
      <g transform="translate(35.563125 214.880577) scale(0.14 -0.14)">
       <use xlink:href="#DejaVuSans-30"/>
       <use xlink:href="#DejaVuSans-2e" x="63.623047"/>
       <use xlink:href="#DejaVuSans-30" x="95.410156"/>
       <use xlink:href="#DejaVuSans-30" x="159.033203"/>
       <use xlink:href="#DejaVuSans-37" x="222.65625"/>
       <use xlink:href="#DejaVuSans-35" x="286.279297"/>
      </g>
     </g>
    </g>
    <g id="text_12">
     <!-- Gyro [rad/s] -->
     <g transform="translate(16.92 318.740625) rotate(-90) scale(0.14 -0.14)">
      <use xlink:href="#DejaVuSans-47"/>
      <use xlink:href="#DejaVuSans-79" x="77.490234"/>
      <use xlink:href="#DejaVuSans-72" x="136.669922"/>
      <use xlink:href="#DejaVuSans-6f" x="175.533203"/>
      <use xlink:href="#DejaVuSans-20" x="236.714844"/>
      <use xlink:href="#DejaVuSans-5b" x="268.501953"/>
      <use xlink:href="#DejaVuSans-72" x="307.515625"/>
      <use xlink:href="#DejaVuSans-61" x="348.628906"/>
      <use xlink:href="#DejaVuSans-64" x="409.908203"/>
      <use xlink:href="#DejaVuSans-2f" x="473.384766"/>
      <use xlink:href="#DejaVuSans-73" x="507.076172"/>
      <use xlink:href="#DejaVuSans-5d" x="559.175781"/>
     </g>
    </g>
   </g>
   <g id="line2d_30">
    <path d="M 91.55 276.8675 
L 704.88 276.867499 
L 704.88 276.867499 
" clip-path="url(#pae25a5fb72)" style="fill: none; stroke: #1f77b4; stroke-width: 1.5; stroke-linecap: square"/>
   </g>
   <g id="line2d_31">
    <path d="M 91.55 272.168667 
L 97.683607 229.879204 
L 103.817213 229.879167 
L 109.95082 229.879167 
L 116.084427 229.879167 
L 122.218033 229.879167 
L 128.35164 229.879167 
L 134.485247 229.879167 
L 140.618853 229.879167 
L 146.75246 229.879167 
L 152.886067 229.879167 
L 159.019673 229.879167 
L 165.15328 229.879167 
L 171.286887 229.879167 
L 177.420494 229.879167 
L 183.5541 229.879167 
L 189.687707 229.879167 
L 195.821314 229.879167 
L 201.95492 229.879167 
L 208.088527 229.879167 
L 214.222134 229.879167 
L 220.35574 229.879167 
L 226.489347 229.879167 
L 232.622954 229.879167 
L 238.75656 229.879167 
L 244.890167 229.879167 
L 251.023774 229.879167 
L 257.15738 229.879167 
L 263.290987 229.879167 
L 269.424594 229.879167 
L 275.5582 229.879167 
L 281.691807 229.879167 
L 287.825414 229.879167 
L 293.95902 229.879167 
L 300.092627 229.879167 
L 306.226234 229.879167 
L 312.35984 229.879167 
L 318.493447 229.879167 
L 324.627054 229.879167 
L 330.760661 229.879167 
L 336.894267 229.879167 
L 343.027874 229.879167 
L 349.161481 229.879167 
L 355.295087 229.879167 
L 361.428694 229.879167 
L 367.562301 229.879167 
L 373.695907 229.879167 
L 379.829514 229.879167 
L 385.963121 229.879167 
L 392.096727 229.879167 
L 398.230334 229.879167 
L 404.363941 229.879167 
L 410.497547 229.879167 
L 416.631154 229.879167 
L 422.764761 229.879167 
L 428.898367 229.879167 
L 435.031974 229.879167 
L 441.165581 229.879167 
L 447.299187 229.879167 
L 453.432794 229.879167 
L 459.566401 229.879167 
L 465.700008 229.879167 
L 471.833614 229.879167 
L 477.967221 229.879167 
L 484.100828 229.879167 
L 490.234434 229.879167 
L 496.368041 229.879167 
L 502.501648 229.879167 
L 508.635254 229.879167 
L 514.768861 229.879167 
L 520.902468 229.879167 
L 527.036074 229.879167 
L 533.169681 229.879167 
L 539.303288 229.879167 
L 545.436894 229.879167 
L 551.570501 229.879167 
L 557.704108 229.879167 
L 563.837714 229.879167 
L 569.971321 229.879167 
L 576.104928 229.879167 
L 582.238534 229.879167 
L 588.372141 229.879167 
L 594.505748 229.879167 
L 600.639354 229.879167 
L 606.772961 229.879167 
L 612.906568 229.879167 
L 619.040175 229.879167 
L 625.173781 229.879167 
L 631.307388 229.879167 
L 637.440995 229.879167 
L 643.574601 229.879167 
L 649.708208 229.879167 
L 655.841815 229.879167 
L 661.975421 229.879167 
L 668.109028 229.879167 
L 674.242635 229.879167 
L 680.376241 229.879167 
L 686.509848 229.879167 
L 692.643455 229.879167 
L 698.777061 229.879167 
" clip-path="url(#pae25a5fb72)" style="fill: none; stroke-dasharray: 5.55,2.4; stroke-dashoffset: 0; stroke: #ff0000; stroke-width: 1.5"/>
   </g>
   <g id="line2d_32">
    <path d="M 91.55 281.566333 
L 97.683607 323.855796 
L 103.817213 323.855833 
L 109.95082 323.855833 
L 116.084427 323.855833 
L 122.218033 323.855833 
L 128.35164 323.855833 
L 134.485247 323.855833 
L 140.618853 323.855833 
L 146.75246 323.855833 
L 152.886067 323.855833 
L 159.019673 323.855833 
L 165.15328 323.855833 
L 171.286887 323.855833 
L 177.420494 323.855833 
L 183.5541 323.855833 
L 189.687707 323.855833 
L 195.821314 323.855833 
L 201.95492 323.855833 
L 208.088527 323.855833 
L 214.222134 323.855833 
L 220.35574 323.855833 
L 226.489347 323.855833 
L 232.622954 323.855833 
L 238.75656 323.855833 
L 244.890167 323.855833 
L 251.023774 323.855833 
L 257.15738 323.855833 
L 263.290987 323.855833 
L 269.424594 323.855833 
L 275.5582 323.855833 
L 281.691807 323.855833 
L 287.825414 323.855833 
L 293.95902 323.855833 
L 300.092627 323.855833 
L 306.226234 323.855833 
L 312.35984 323.855833 
L 318.493447 323.855833 
L 324.627054 323.855833 
L 330.760661 323.855833 
L 336.894267 323.855833 
L 343.027874 323.855833 
L 349.161481 323.855833 
L 355.295087 323.855833 
L 361.428694 323.855833 
L 367.562301 323.855833 
L 373.695907 323.855833 
L 379.829514 323.855833 
L 385.963121 323.855833 
L 392.096727 323.855833 
L 398.230334 323.855833 
L 404.363941 323.855833 
L 410.497547 323.855833 
L 416.631154 323.855833 
L 422.764761 323.855833 
L 428.898367 323.855833 
L 435.031974 323.855833 
L 441.165581 323.855833 
L 447.299187 323.855833 
L 453.432794 323.855833 
L 459.566401 323.855833 
L 465.700008 323.855833 
L 471.833614 323.855833 
L 477.967221 323.855833 
L 484.100828 323.855833 
L 490.234434 323.855833 
L 496.368041 323.855833 
L 502.501648 323.855833 
L 508.635254 323.855833 
L 514.768861 323.855833 
L 520.902468 323.855833 
L 527.036074 323.855833 
L 533.169681 323.855833 
L 539.303288 323.855833 
L 545.436894 323.855833 
L 551.570501 323.855833 
L 557.704108 323.855833 
L 563.837714 323.855833 
L 569.971321 323.855833 
L 576.104928 323.855833 
L 582.238534 323.855833 
L 588.372141 323.855833 
L 594.505748 323.855833 
L 600.639354 323.855833 
L 606.772961 323.855833 
L 612.906568 323.855833 
L 619.040175 323.855833 
L 625.173781 323.855833 
L 631.307388 323.855833 
L 637.440995 323.855833 
L 643.574601 323.855833 
L 649.708208 323.855833 
L 655.841815 323.855833 
L 661.975421 323.855833 
L 668.109028 323.855833 
L 674.242635 323.855833 
L 680.376241 323.855833 
L 686.509848 323.855833 
L 692.643455 323.855833 
L 698.777061 323.855833 
" clip-path="url(#pae25a5fb72)" style="fill: none; stroke-dasharray: 5.55,2.4; stroke-dashoffset: 0; stroke: #ff0000; stroke-width: 1.5"/>
   </g>
   <g id="patch_8">
    <path d="M 91.55 347.35 
L 91.55 206.385 
" style="fill: none; stroke: #000000; stroke-width: 0.8; stroke-linejoin: miter; stroke-linecap: square"/>
   </g>
   <g id="patch_9">
    <path d="M 704.88 347.35 
L 704.88 206.385 
" style="fill: none; stroke: #000000; stroke-width: 0.8; stroke-linejoin: miter; stroke-linecap: square"/>
   </g>
   <g id="patch_10">
    <path d="M 91.55 347.35 
L 704.88 347.35 
" style="fill: none; stroke: #000000; stroke-width: 0.8; stroke-linejoin: miter; stroke-linecap: square"/>
   </g>
   <g id="patch_11">
    <path d="M 91.55 206.385 
L 704.88 206.385 
" style="fill: none; stroke: #000000; stroke-width: 0.8; stroke-linejoin: miter; stroke-linecap: square"/>
   </g>
  </g>
  <g id="axes_3">
   <g id="patch_12">
    <path d="M 91.55 506.935 
L 704.88 506.935 
L 704.88 365.97 
L 91.55 365.97 
z
" style="fill: #ffffff"/>
   </g>
   <g id="matplotlib.axis_5">
    <g id="xtick_17">
     <g id="line2d_33">
      <g>
       <use xlink:href="#m3d3e8ab999" x="91.55" y="506.935" style="stroke: #000000; stroke-width: 0.8"/>
      </g>
     </g>
    </g>
    <g id="xtick_18">
     <g id="line2d_34">
      <g>
       <use xlink:href="#m3d3e8ab999" x="168.220084" y="506.935" style="stroke: #000000; stroke-width: 0.8"/>
      </g>
     </g>
    </g>
    <g id="xtick_19">
     <g id="line2d_35">
      <g>
       <use xlink:href="#m3d3e8ab999" x="244.890167" y="506.935" style="stroke: #000000; stroke-width: 0.8"/>
      </g>
     </g>
    </g>
    <g id="xtick_20">
     <g id="line2d_36">
      <g>
       <use xlink:href="#m3d3e8ab999" x="321.560251" y="506.935" style="stroke: #000000; stroke-width: 0.8"/>
      </g>
     </g>
    </g>
    <g id="xtick_21">
     <g id="line2d_37">
      <g>
       <use xlink:href="#m3d3e8ab999" x="398.230334" y="506.935" style="stroke: #000000; stroke-width: 0.8"/>
      </g>
     </g>
    </g>
    <g id="xtick_22">
     <g id="line2d_38">
      <g>
       <use xlink:href="#m3d3e8ab999" x="474.900418" y="506.935" style="stroke: #000000; stroke-width: 0.8"/>
      </g>
     </g>
    </g>
    <g id="xtick_23">
     <g id="line2d_39">
      <g>
       <use xlink:href="#m3d3e8ab999" x="551.570501" y="506.935" style="stroke: #000000; stroke-width: 0.8"/>
      </g>
     </g>
    </g>
    <g id="xtick_24">
     <g id="line2d_40">
      <g>
       <use xlink:href="#m3d3e8ab999" x="628.240585" y="506.935" style="stroke: #000000; stroke-width: 0.8"/>
      </g>
     </g>
    </g>
   </g>
   <g id="matplotlib.axis_6">
    <g id="ytick_11">
     <g id="line2d_41">
      <g>
       <use xlink:href="#m403d747eee" x="91.55" y="476.367837" style="stroke: #000000; stroke-width: 0.8"/>
      </g>
     </g>
     <g id="text_13">
      <!-- −0.05 -->
      <g transform="translate(41.646562 481.686744) scale(0.14 -0.14)">
       <use xlink:href="#DejaVuSans-2212"/>
       <use xlink:href="#DejaVuSans-30" x="83.789062"/>
       <use xlink:href="#DejaVuSans-2e" x="147.412109"/>
       <use xlink:href="#DejaVuSans-30" x="179.199219"/>
       <use xlink:href="#DejaVuSans-35" x="242.822266"/>
      </g>
     </g>
    </g>
    <g id="ytick_12">
     <g id="line2d_42">
      <g>
       <use xlink:href="#m403d747eee" x="91.55" y="436.4525" style="stroke: #000000; stroke-width: 0.8"/>
      </g>
     </g>
     <g id="text_14">
      <!-- 0.00 -->
      <g transform="translate(53.378125 441.771406) scale(0.14 -0.14)">
       <use xlink:href="#DejaVuSans-30"/>
       <use xlink:href="#DejaVuSans-2e" x="63.623047"/>
       <use xlink:href="#DejaVuSans-30" x="95.410156"/>
       <use xlink:href="#DejaVuSans-30" x="159.033203"/>
      </g>
     </g>
    </g>
    <g id="ytick_13">
     <g id="line2d_43">
      <g>
       <use xlink:href="#m403d747eee" x="91.55" y="396.537163" style="stroke: #000000; stroke-width: 0.8"/>
      </g>
     </g>
     <g id="text_15">
      <!-- 0.05 -->
      <g transform="translate(53.378125 401.856069) scale(0.14 -0.14)">
       <use xlink:href="#DejaVuSans-30"/>
       <use xlink:href="#DejaVuSans-2e" x="63.623047"/>
       <use xlink:href="#DejaVuSans-30" x="95.410156"/>
       <use xlink:href="#DejaVuSans-35" x="159.033203"/>
      </g>
     </g>
    </g>
    <g id="text_16">
     <!-- Acc N [m/s²] -->
     <g transform="translate(34.735 479.594375) rotate(-90) scale(0.14 -0.14)">
      <defs>
       <path id="DejaVuSans-41" d="M 2188 4044 
L 1331 1722 
L 3047 1722 
L 2188 4044 
z
M 1831 4666 
L 2547 4666 
L 4325 0 
L 3669 0 
L 3244 1197 
L 1141 1197 
L 716 0 
L 50 0 
L 1831 4666 
z
" transform="scale(0.015625)"/>
       <path id="DejaVuSans-63" d="M 3122 3366 
L 3122 2828 
Q 2878 2963 2633 3030 
Q 2388 3097 2138 3097 
Q 1578 3097 1268 2742 
Q 959 2388 959 1747 
Q 959 1106 1268 751 
Q 1578 397 2138 397 
Q 2388 397 2633 464 
Q 2878 531 3122 666 
L 3122 134 
Q 2881 22 2623 -34 
Q 2366 -91 2075 -91 
Q 1284 -91 818 406 
Q 353 903 353 1747 
Q 353 2603 823 3093 
Q 1294 3584 2113 3584 
Q 2378 3584 2631 3529 
Q 2884 3475 3122 3366 
z
" transform="scale(0.015625)"/>
       <path id="DejaVuSans-4e" d="M 628 4666 
L 1478 4666 
L 3547 763 
L 3547 4666 
L 4159 4666 
L 4159 0 
L 3309 0 
L 1241 3903 
L 1241 0 
L 628 0 
L 628 4666 
z
" transform="scale(0.015625)"/>
       <path id="DejaVuSans-6d" d="M 3328 2828 
Q 3544 3216 3844 3400 
Q 4144 3584 4550 3584 
Q 5097 3584 5394 3201 
Q 5691 2819 5691 2113 
L 5691 0 
L 5113 0 
L 5113 2094 
Q 5113 2597 4934 2840 
Q 4756 3084 4391 3084 
Q 3944 3084 3684 2787 
Q 3425 2491 3425 1978 
L 3425 0 
L 2847 0 
L 2847 2094 
Q 2847 2600 2669 2842 
Q 2491 3084 2119 3084 
Q 1678 3084 1418 2786 
Q 1159 2488 1159 1978 
L 1159 0 
L 581 0 
L 581 3500 
L 1159 3500 
L 1159 2956 
Q 1356 3278 1631 3431 
Q 1906 3584 2284 3584 
Q 2666 3584 2933 3390 
Q 3200 3197 3328 2828 
z
" transform="scale(0.015625)"/>
       <path id="DejaVuSans-b2" d="M 838 2444 
L 2163 2444 
L 2163 2088 
L 294 2088 
L 294 2431 
Q 400 2528 597 2703 
Q 1672 3656 1672 3950 
Q 1672 4156 1509 4282 
Q 1347 4409 1081 4409 
Q 919 4409 728 4354 
Q 538 4300 313 4191 
L 313 4575 
Q 553 4663 761 4706 
Q 969 4750 1147 4750 
Q 1600 4750 1872 4544 
Q 2144 4338 2144 4000 
Q 2144 3566 1109 2678 
Q 934 2528 838 2444 
z
" transform="scale(0.015625)"/>
      </defs>
      <use xlink:href="#DejaVuSans-41"/>
      <use xlink:href="#DejaVuSans-63" x="66.658203"/>
      <use xlink:href="#DejaVuSans-63" x="121.638672"/>
      <use xlink:href="#DejaVuSans-20" x="176.619141"/>
      <use xlink:href="#DejaVuSans-4e" x="208.40625"/>
      <use xlink:href="#DejaVuSans-20" x="283.210938"/>
      <use xlink:href="#DejaVuSans-5b" x="314.998047"/>
      <use xlink:href="#DejaVuSans-6d" x="354.011719"/>
      <use xlink:href="#DejaVuSans-2f" x="451.423828"/>
      <use xlink:href="#DejaVuSans-73" x="485.115234"/>
      <use xlink:href="#DejaVuSans-b2" x="537.214844"/>
      <use xlink:href="#DejaVuSans-5d" x="577.302734"/>
     </g>
    </g>
   </g>
   <g id="line2d_44">
    <path d="M 91.55 436.4525 
L 171.256219 436.451169 
L 171.378891 436.24405 
L 173.678993 436.392778 
L 179.015231 436.454266 
L 195.790646 436.454152 
L 195.913318 436.600401 
L 198.765445 436.483892 
L 207.26049 436.450967 
L 214.191466 436.451894 
L 214.314138 436.634262 
L 216.828916 436.498841 
L 222.165154 436.476546 
L 232.500282 436.4535 
L 281.661139 436.453144 
L 281.783811 436.669077 
L 284.053246 436.515593 
L 288.776123 436.465474 
L 300.061959 436.453159 
L 300.184631 436.550875 
L 303.864795 436.465814 
L 322.357619 436.444023 
L 349.130813 436.456118 
L 349.253485 436.321242 
L 352.320288 436.427709 
L 361.398026 436.452427 
L 361.551366 436.417279 
L 369.494387 436.4573 
L 373.665239 436.452998 
L 373.787911 436.32364 
L 376.885383 436.428564 
L 388.539235 436.467878 
L 403.658576 436.453475 
L 435.001306 436.451062 
L 435.123978 436.646468 
L 437.546753 436.504489 
L 442.668314 436.472026 
L 453.402126 436.448942 
L 453.586134 436.47752 
L 463.829257 436.450248 
L 490.203766 436.450111 
L 490.326438 436.348788 
L 493.88393 436.437496 
L 509.371287 436.45167 
L 545.406226 436.451485 
L 545.436894 436.732955 
L 545.528898 436.719277 
L 547.522321 436.542795 
L 551.417161 436.463374 
L 573.344805 436.445889 
L 594.47508 436.450622 
L 594.597752 436.367009 
L 598.645932 436.443027 
L 619.009506 436.45311 
L 619.162847 436.403117 
L 625.112445 436.450553 
L 631.27672 436.4539 
L 631.399392 436.571478 
L 634.650204 436.472833 
L 646.733409 436.451506 
L 649.67754 436.452299 
L 649.800212 436.325065 
L 652.928351 436.42922 
L 664.919552 436.468582 
L 679.640209 436.452075 
L 698.746393 436.453077 
L 698.869065 436.5726 
L 702.119877 436.473025 
L 704.88 436.45708 
L 704.88 436.45708 
" clip-path="url(#p666ffb36e7)" style="fill: none; stroke: #1f77b4; stroke-width: 1.5; stroke-linecap: square"/>
   </g>
   <g id="line2d_45">
    <path d="M 91.55 429.40425 
L 97.683607 389.493404 
L 103.817213 389.464222 
L 109.95082 389.464341 
L 116.084427 389.464486 
L 122.218033 389.464596 
L 128.35164 389.464674 
L 134.485247 389.464726 
L 140.618853 389.464754 
L 146.75246 389.464766 
L 152.886067 389.464768 
L 159.019673 389.464769 
L 165.15328 389.464769 
L 171.286887 389.464774 
L 177.420494 389.46478 
L 183.5541 389.464789 
L 189.687707 389.4648 
L 195.821314 389.464811 
L 201.95492 389.464822 
L 208.088527 389.46483 
L 214.222134 389.464836 
L 220.35574 389.464841 
L 226.489347 389.464845 
L 232.622954 389.464847 
L 238.75656 389.464849 
L 244.890167 389.46485 
L 251.023774 389.464851 
L 257.15738 389.464852 
L 263.290987 389.464854 
L 269.424594 389.464856 
L 275.5582 389.464857 
L 281.691807 389.464859 
L 287.825414 389.464862 
L 293.95902 389.464864 
L 300.092627 389.464866 
L 306.226234 389.464868 
L 312.35984 389.46487 
L 318.493447 389.464872 
L 324.627054 389.464873 
L 330.760661 389.464874 
L 336.894267 389.464875 
L 343.027874 389.464877 
L 349.161481 389.464878 
L 355.295087 389.464879 
L 361.428694 389.46488 
L 367.562301 389.464881 
L 373.695907 389.464882 
L 379.829514 389.464883 
L 385.963121 389.464883 
L 392.096727 389.464885 
L 398.230334 389.464887 
L 404.363941 389.464888 
L 410.497547 389.46489 
L 416.631154 389.464891 
L 422.764761 389.464893 
L 428.898367 389.464894 
L 435.031974 389.464895 
L 441.165581 389.464896 
L 447.299187 389.464898 
L 453.432794 389.464899 
L 459.566401 389.464899 
L 465.700008 389.464899 
L 471.833614 389.4649 
L 477.967221 389.4649 
L 484.100828 389.4649 
L 490.234434 389.4649 
L 496.368041 389.4649 
L 502.501648 389.4649 
L 508.635254 389.464901 
L 514.768861 389.464902 
L 520.902468 389.464903 
L 527.036074 389.464904 
L 533.169681 389.464905 
L 539.303288 389.464905 
L 545.436894 389.464906 
L 551.570501 389.464907 
L 557.704108 389.464908 
L 563.837714 389.464908 
L 569.971321 389.464909 
L 576.104928 389.464909 
L 582.238534 389.464908 
L 588.372141 389.464908 
L 594.505748 389.464908 
L 600.639354 389.464908 
L 606.772961 389.464908 
L 612.906568 389.464909 
L 619.040175 389.46491 
L 625.173781 389.464911 
L 631.307388 389.464911 
L 637.440995 389.464912 
L 643.574601 389.464912 
L 649.708208 389.464912 
L 655.841815 389.464912 
L 661.975421 389.464912 
L 668.109028 389.464912 
L 674.242635 389.464913 
L 680.376241 389.464913 
L 686.509848 389.464913 
L 692.643455 389.464913 
L 698.777061 389.464913 
" clip-path="url(#p666ffb36e7)" style="fill: none; stroke-dasharray: 5.55,2.4; stroke-dashoffset: 0; stroke: #ff0000; stroke-width: 1.5"/>
   </g>
   <g id="line2d_46">
    <path d="M 91.55 443.50075 
L 97.683607 483.411596 
L 103.817213 483.440778 
L 109.95082 483.440659 
L 116.084427 483.440514 
L 122.218033 483.440404 
L 128.35164 483.440326 
L 134.485247 483.440274 
L 140.618853 483.440246 
L 146.75246 483.440234 
L 152.886067 483.440232 
L 159.019673 483.440231 
L 165.15328 483.440231 
L 171.286887 483.440226 
L 177.420494 483.44022 
L 183.5541 483.440211 
L 189.687707 483.4402 
L 195.821314 483.440189 
L 201.95492 483.440178 
L 208.088527 483.44017 
L 214.222134 483.440164 
L 220.35574 483.440159 
L 226.489347 483.440155 
L 232.622954 483.440153 
L 238.75656 483.440151 
L 244.890167 483.44015 
L 251.023774 483.440149 
L 257.15738 483.440148 
L 263.290987 483.440146 
L 269.424594 483.440144 
L 275.5582 483.440143 
L 281.691807 483.440141 
L 287.825414 483.440138 
L 293.95902 483.440136 
L 300.092627 483.440134 
L 306.226234 483.440132 
L 312.35984 483.44013 
L 318.493447 483.440128 
L 324.627054 483.440127 
L 330.760661 483.440126 
L 336.894267 483.440125 
L 343.027874 483.440123 
L 349.161481 483.440122 
L 355.295087 483.440121 
L 361.428694 483.44012 
L 367.562301 483.440119 
L 373.695907 483.440118 
L 379.829514 483.440117 
L 385.963121 483.440117 
L 392.096727 483.440115 
L 398.230334 483.440113 
L 404.363941 483.440112 
L 410.497547 483.44011 
L 416.631154 483.440109 
L 422.764761 483.440107 
L 428.898367 483.440106 
L 435.031974 483.440105 
L 441.165581 483.440104 
L 447.299187 483.440102 
L 453.432794 483.440101 
L 459.566401 483.440101 
L 465.700008 483.440101 
L 471.833614 483.4401 
L 477.967221 483.4401 
L 484.100828 483.4401 
L 490.234434 483.4401 
L 496.368041 483.4401 
L 502.501648 483.4401 
L 508.635254 483.440099 
L 514.768861 483.440098 
L 520.902468 483.440097 
L 527.036074 483.440096 
L 533.169681 483.440095 
L 539.303288 483.440095 
L 545.436894 483.440094 
L 551.570501 483.440093 
L 557.704108 483.440092 
L 563.837714 483.440092 
L 569.971321 483.440091 
L 576.104928 483.440091 
L 582.238534 483.440092 
L 588.372141 483.440092 
L 594.505748 483.440092 
L 600.639354 483.440092 
L 606.772961 483.440092 
L 612.906568 483.440091 
L 619.040175 483.44009 
L 625.173781 483.440089 
L 631.307388 483.440089 
L 637.440995 483.440088 
L 643.574601 483.440088 
L 649.708208 483.440088 
L 655.841815 483.440088 
L 661.975421 483.440088 
L 668.109028 483.440088 
L 674.242635 483.440087 
L 680.376241 483.440087 
L 686.509848 483.440087 
L 692.643455 483.440087 
L 698.777061 483.440087 
" clip-path="url(#p666ffb36e7)" style="fill: none; stroke-dasharray: 5.55,2.4; stroke-dashoffset: 0; stroke: #ff0000; stroke-width: 1.5"/>
   </g>
   <g id="patch_13">
    <path d="M 91.55 506.935 
L 91.55 365.97 
" style="fill: none; stroke: #000000; stroke-width: 0.8; stroke-linejoin: miter; stroke-linecap: square"/>
   </g>
   <g id="patch_14">
    <path d="M 704.88 506.935 
L 704.88 365.97 
" style="fill: none; stroke: #000000; stroke-width: 0.8; stroke-linejoin: miter; stroke-linecap: square"/>
   </g>
   <g id="patch_15">
    <path d="M 91.55 506.935 
L 704.88 506.935 
" style="fill: none; stroke: #000000; stroke-width: 0.8; stroke-linejoin: miter; stroke-linecap: square"/>
   </g>
   <g id="patch_16">
    <path d="M 91.55 365.97 
L 704.88 365.97 
" style="fill: none; stroke: #000000; stroke-width: 0.8; stroke-linejoin: miter; stroke-linecap: square"/>
   </g>
  </g>
  <g id="axes_4">
   <g id="patch_17">
    <path d="M 91.55 666.52 
L 704.88 666.52 
L 704.88 525.555 
L 91.55 525.555 
z
" style="fill: #ffffff"/>
   </g>
   <g id="matplotlib.axis_7">
    <g id="xtick_25">
     <g id="line2d_47">
      <g>
       <use xlink:href="#m3d3e8ab999" x="91.55" y="666.52" style="stroke: #000000; stroke-width: 0.8"/>
      </g>
     </g>
     <g id="text_17">
      <!-- 0 -->
      <g transform="translate(87.09625 684.157812) scale(0.14 -0.14)">
       <use xlink:href="#DejaVuSans-30"/>
      </g>
     </g>
    </g>
    <g id="xtick_26">
     <g id="line2d_48">
      <g>
       <use xlink:href="#m3d3e8ab999" x="168.220084" y="666.52" style="stroke: #000000; stroke-width: 0.8"/>
      </g>
     </g>
     <g id="text_18">
      <!-- 25 -->
      <g transform="translate(159.312584 684.157812) scale(0.14 -0.14)">
       <use xlink:href="#DejaVuSans-32"/>
       <use xlink:href="#DejaVuSans-35" x="63.623047"/>
      </g>
     </g>
    </g>
    <g id="xtick_27">
     <g id="line2d_49">
      <g>
       <use xlink:href="#m3d3e8ab999" x="244.890167" y="666.52" style="stroke: #000000; stroke-width: 0.8"/>
      </g>
     </g>
     <g id="text_19">
      <!-- 50 -->
      <g transform="translate(235.982667 684.157812) scale(0.14 -0.14)">
       <use xlink:href="#DejaVuSans-35"/>
       <use xlink:href="#DejaVuSans-30" x="63.623047"/>
      </g>
     </g>
    </g>
    <g id="xtick_28">
     <g id="line2d_50">
      <g>
       <use xlink:href="#m3d3e8ab999" x="321.560251" y="666.52" style="stroke: #000000; stroke-width: 0.8"/>
      </g>
     </g>
     <g id="text_20">
      <!-- 75 -->
      <g transform="translate(312.652751 684.157812) scale(0.14 -0.14)">
       <use xlink:href="#DejaVuSans-37"/>
       <use xlink:href="#DejaVuSans-35" x="63.623047"/>
      </g>
     </g>
    </g>
    <g id="xtick_29">
     <g id="line2d_51">
      <g>
       <use xlink:href="#m3d3e8ab999" x="398.230334" y="666.52" style="stroke: #000000; stroke-width: 0.8"/>
      </g>
     </g>
     <g id="text_21">
      <!-- 100 -->
      <g transform="translate(384.869084 684.157812) scale(0.14 -0.14)">
       <defs>
        <path id="DejaVuSans-31" d="M 794 531 
L 1825 531 
L 1825 4091 
L 703 3866 
L 703 4441 
L 1819 4666 
L 2450 4666 
L 2450 531 
L 3481 531 
L 3481 0 
L 794 0 
L 794 531 
z
" transform="scale(0.015625)"/>
       </defs>
       <use xlink:href="#DejaVuSans-31"/>
       <use xlink:href="#DejaVuSans-30" x="63.623047"/>
       <use xlink:href="#DejaVuSans-30" x="127.246094"/>
      </g>
     </g>
    </g>
    <g id="xtick_30">
     <g id="line2d_52">
      <g>
       <use xlink:href="#m3d3e8ab999" x="474.900418" y="666.52" style="stroke: #000000; stroke-width: 0.8"/>
      </g>
     </g>
     <g id="text_22">
      <!-- 125 -->
      <g transform="translate(461.539168 684.157812) scale(0.14 -0.14)">
       <use xlink:href="#DejaVuSans-31"/>
       <use xlink:href="#DejaVuSans-32" x="63.623047"/>
       <use xlink:href="#DejaVuSans-35" x="127.246094"/>
      </g>
     </g>
    </g>
    <g id="xtick_31">
     <g id="line2d_53">
      <g>
       <use xlink:href="#m3d3e8ab999" x="551.570501" y="666.52" style="stroke: #000000; stroke-width: 0.8"/>
      </g>
     </g>
     <g id="text_23">
      <!-- 150 -->
      <g transform="translate(538.209251 684.157812) scale(0.14 -0.14)">
       <use xlink:href="#DejaVuSans-31"/>
       <use xlink:href="#DejaVuSans-35" x="63.623047"/>
       <use xlink:href="#DejaVuSans-30" x="127.246094"/>
      </g>
     </g>
    </g>
    <g id="xtick_32">
     <g id="line2d_54">
      <g>
       <use xlink:href="#m3d3e8ab999" x="628.240585" y="666.52" style="stroke: #000000; stroke-width: 0.8"/>
      </g>
     </g>
     <g id="text_24">
      <!-- 175 -->
      <g transform="translate(614.879335 684.157812) scale(0.14 -0.14)">
       <use xlink:href="#DejaVuSans-31"/>
       <use xlink:href="#DejaVuSans-37" x="63.623047"/>
       <use xlink:href="#DejaVuSans-35" x="127.246094"/>
      </g>
     </g>
    </g>
    <g id="text_25">
     <!-- Timestamp [s] -->
     <g transform="translate(347.811719 701.707188) scale(0.14 -0.14)">
      <defs>
       <path id="DejaVuSans-54" d="M -19 4666 
L 3928 4666 
L 3928 4134 
L 2272 4134 
L 2272 0 
L 1638 0 
L 1638 4134 
L -19 4134 
L -19 4666 
z
" transform="scale(0.015625)"/>
       <path id="DejaVuSans-65" d="M 3597 1894 
L 3597 1613 
L 953 1613 
Q 991 1019 1311 708 
Q 1631 397 2203 397 
Q 2534 397 2845 478 
Q 3156 559 3463 722 
L 3463 178 
Q 3153 47 2828 -22 
Q 2503 -91 2169 -91 
Q 1331 -91 842 396 
Q 353 884 353 1716 
Q 353 2575 817 3079 
Q 1281 3584 2069 3584 
Q 2775 3584 3186 3129 
Q 3597 2675 3597 1894 
z
M 3022 2063 
Q 3016 2534 2758 2815 
Q 2500 3097 2075 3097 
Q 1594 3097 1305 2825 
Q 1016 2553 972 2059 
L 3022 2063 
z
" transform="scale(0.015625)"/>
       <path id="DejaVuSans-74" d="M 1172 4494 
L 1172 3500 
L 2356 3500 
L 2356 3053 
L 1172 3053 
L 1172 1153 
Q 1172 725 1289 603 
Q 1406 481 1766 481 
L 2356 481 
L 2356 0 
L 1766 0 
Q 1100 0 847 248 
Q 594 497 594 1153 
L 594 3053 
L 172 3053 
L 172 3500 
L 594 3500 
L 594 4494 
L 1172 4494 
z
" transform="scale(0.015625)"/>
       <path id="DejaVuSans-70" d="M 1159 525 
L 1159 -1331 
L 581 -1331 
L 581 3500 
L 1159 3500 
L 1159 2969 
Q 1341 3281 1617 3432 
Q 1894 3584 2278 3584 
Q 2916 3584 3314 3078 
Q 3713 2572 3713 1747 
Q 3713 922 3314 415 
Q 2916 -91 2278 -91 
Q 1894 -91 1617 61 
Q 1341 213 1159 525 
z
M 3116 1747 
Q 3116 2381 2855 2742 
Q 2594 3103 2138 3103 
Q 1681 3103 1420 2742 
Q 1159 2381 1159 1747 
Q 1159 1113 1420 752 
Q 1681 391 2138 391 
Q 2594 391 2855 752 
Q 3116 1113 3116 1747 
z
" transform="scale(0.015625)"/>
      </defs>
      <use xlink:href="#DejaVuSans-54"/>
      <use xlink:href="#DejaVuSans-69" x="57.958984"/>
      <use xlink:href="#DejaVuSans-6d" x="85.742188"/>
      <use xlink:href="#DejaVuSans-65" x="183.154297"/>
      <use xlink:href="#DejaVuSans-73" x="244.677734"/>
      <use xlink:href="#DejaVuSans-74" x="296.777344"/>
      <use xlink:href="#DejaVuSans-61" x="335.986328"/>
      <use xlink:href="#DejaVuSans-6d" x="397.265625"/>
      <use xlink:href="#DejaVuSans-70" x="494.677734"/>
      <use xlink:href="#DejaVuSans-20" x="558.154297"/>
      <use xlink:href="#DejaVuSans-5b" x="589.941406"/>
      <use xlink:href="#DejaVuSans-73" x="628.955078"/>
      <use xlink:href="#DejaVuSans-5d" x="681.054688"/>
     </g>
    </g>
   </g>
   <g id="matplotlib.axis_8">
    <g id="ytick_14">
     <g id="line2d_55">
      <g>
       <use xlink:href="#m403d747eee" x="91.55" y="635.952837" style="stroke: #000000; stroke-width: 0.8"/>
      </g>
     </g>
     <g id="text_26">
      <!-- −0.05 -->
      <g transform="translate(41.646562 641.271744) scale(0.14 -0.14)">
       <use xlink:href="#DejaVuSans-2212"/>
       <use xlink:href="#DejaVuSans-30" x="83.789062"/>
       <use xlink:href="#DejaVuSans-2e" x="147.412109"/>
       <use xlink:href="#DejaVuSans-30" x="179.199219"/>
       <use xlink:href="#DejaVuSans-35" x="242.822266"/>
      </g>
     </g>
    </g>
    <g id="ytick_15">
     <g id="line2d_56">
      <g>
       <use xlink:href="#m403d747eee" x="91.55" y="596.0375" style="stroke: #000000; stroke-width: 0.8"/>
      </g>
     </g>
     <g id="text_27">
      <!-- 0.00 -->
      <g transform="translate(53.378125 601.356406) scale(0.14 -0.14)">
       <use xlink:href="#DejaVuSans-30"/>
       <use xlink:href="#DejaVuSans-2e" x="63.623047"/>
       <use xlink:href="#DejaVuSans-30" x="95.410156"/>
       <use xlink:href="#DejaVuSans-30" x="159.033203"/>
      </g>
     </g>
    </g>
    <g id="ytick_16">
     <g id="line2d_57">
      <g>
       <use xlink:href="#m403d747eee" x="91.55" y="556.122163" style="stroke: #000000; stroke-width: 0.8"/>
      </g>
     </g>
     <g id="text_28">
      <!-- 0.05 -->
      <g transform="translate(53.378125 561.441069) scale(0.14 -0.14)">
       <use xlink:href="#DejaVuSans-30"/>
       <use xlink:href="#DejaVuSans-2e" x="63.623047"/>
       <use xlink:href="#DejaVuSans-30" x="95.410156"/>
       <use xlink:href="#DejaVuSans-35" x="159.033203"/>
      </g>
     </g>
    </g>
    <g id="text_29">
     <!-- Acc E [m/s²] -->
     <g transform="translate(34.735 638.365625) rotate(-90) scale(0.14 -0.14)">
      <defs>
       <path id="DejaVuSans-45" d="M 628 4666 
L 3578 4666 
L 3578 4134 
L 1259 4134 
L 1259 2753 
L 3481 2753 
L 3481 2222 
L 1259 2222 
L 1259 531 
L 3634 531 
L 3634 0 
L 628 0 
L 628 4666 
z
" transform="scale(0.015625)"/>
      </defs>
      <use xlink:href="#DejaVuSans-41"/>
      <use xlink:href="#DejaVuSans-63" x="66.658203"/>
      <use xlink:href="#DejaVuSans-63" x="121.638672"/>
      <use xlink:href="#DejaVuSans-20" x="176.619141"/>
      <use xlink:href="#DejaVuSans-45" x="208.40625"/>
      <use xlink:href="#DejaVuSans-20" x="271.589844"/>
      <use xlink:href="#DejaVuSans-5b" x="303.376953"/>
      <use xlink:href="#DejaVuSans-6d" x="342.390625"/>
      <use xlink:href="#DejaVuSans-2f" x="439.802734"/>
      <use xlink:href="#DejaVuSans-73" x="473.494141"/>
      <use xlink:href="#DejaVuSans-b2" x="525.59375"/>
      <use xlink:href="#DejaVuSans-5d" x="565.681641"/>
     </g>
    </g>
   </g>
   <g id="line2d_58">
    <path d="M 91.55 596.0375 
L 128.320972 596.036688 
L 128.443644 596.144222 
L 131.9398 596.053462 
L 147.795173 596.027966 
L 152.855399 596.036891 
L 152.978071 595.911066 
L 156.10621 596.014403 
L 168.066743 596.052444 
L 183.523432 596.034984 
L 183.676772 596.086635 
L 189.657039 596.039405 
L 189.933051 596.051131 
L 201.924252 596.037957 
L 202.046924 596.149021 
L 205.451076 596.055035 
L 214.191466 596.039259 
L 214.314138 596.16638 
L 217.411609 596.06144 
L 226.458679 596.035082 
L 226.581351 596.165151 
L 229.70949 596.06082 
L 232.592286 596.042368 
L 232.714958 595.915325 
L 235.935101 596.016269 
L 244.859499 596.040302 
L 244.982171 596.224755 
L 247.435614 596.08686 
L 254.151913 596.018558 
L 267.247163 596.04116 
L 293.928352 596.037025 
L 294.051025 596.167785 
L 297.117828 596.062108 
L 306.195566 596.035434 
L 306.318238 596.225784 
L 308.771681 596.087131 
L 315.303972 596.023203 
L 330.729992 596.040078 
L 330.852665 595.893684 
L 333.73546 596.00748 
L 342.169169 596.033182 
L 379.798846 596.03598 
L 379.921518 595.902506 
L 382.926985 596.011139 
L 394.979522 596.071267 
L 403.106551 596.03429 
L 422.734093 596.034407 
L 422.856765 595.937927 
L 426.506261 596.023798 
L 443.864368 596.040921 
L 477.936553 596.036988 
L 478.059225 596.12321 
L 482.107405 596.046997 
L 484.07016 596.040768 
L 484.192832 595.903055 
L 487.228967 596.01168 
L 497.134742 596.038429 
L 508.604586 596.034235 
L 508.727258 596.153988 
L 512.039406 596.056755 
L 514.738193 596.041942 
L 514.860865 596.198376 
L 517.559652 596.074613 
L 520.8718 596.043635 
L 520.994472 596.13162 
L 524.797308 596.049416 
L 544.608857 596.033251 
L 563.807046 596.037247 
L 563.929718 595.91936 
L 567.211198 596.017643 
L 576.07426 596.038792 
L 576.196932 595.824474 
L 578.466366 595.975441 
L 584.047948 596.05112 
L 588.341473 596.038821 
L 588.464145 596.20319 
L 591.132264 596.076366 
L 594.47508 596.043818 
L 594.597752 596.216059 
L 597.143199 596.082272 
L 603.798162 596.032113 
L 643.543933 596.040301 
L 643.697273 596.002044 
L 649.67754 596.036125 
L 649.83088 595.992584 
L 655.811147 596.035758 
L 655.933819 595.919961 
L 659.215298 596.017744 
L 668.07836 596.036723 
L 668.201032 595.967697 
L 672.862573 596.031958 
L 674.211967 596.034838 
L 674.334639 595.90907 
L 677.43211 596.013644 
L 688.595274 596.046076 
L 704.88 596.037488 
L 704.88 596.037488 
" clip-path="url(#pc9075ef2b0)" style="fill: none; stroke: #1f77b4; stroke-width: 1.5; stroke-linecap: square"/>
   </g>
   <g id="line2d_59">
    <path d="M 91.55 588.98925 
L 97.683607 549.078404 
L 103.817213 549.049222 
L 109.95082 549.049341 
L 116.084427 549.049487 
L 122.218033 549.049601 
L 128.35164 549.049689 
L 134.485247 549.049758 
L 140.618853 549.04981 
L 146.75246 549.04985 
L 152.886067 549.04988 
L 159.019673 549.049902 
L 165.15328 549.04992 
L 171.286887 549.049933 
L 177.420494 549.049944 
L 183.5541 549.049949 
L 189.687707 549.049952 
L 195.821314 549.049953 
L 201.95492 549.049953 
L 208.088527 549.049954 
L 214.222134 549.049955 
L 220.35574 549.049955 
L 226.489347 549.049955 
L 232.622954 549.049955 
L 238.75656 549.049956 
L 244.890167 549.049957 
L 251.023774 549.049957 
L 257.15738 549.049957 
L 263.290987 549.049957 
L 269.424594 549.049957 
L 275.5582 549.049956 
L 281.691807 549.049956 
L 287.825414 549.049955 
L 293.95902 549.049954 
L 300.092627 549.049955 
L 306.226234 549.049954 
L 312.35984 549.049955 
L 318.493447 549.049956 
L 324.627054 549.049957 
L 330.760661 549.049957 
L 336.894267 549.049957 
L 343.027874 549.049957 
L 349.161481 549.049957 
L 355.295087 549.049958 
L 361.428694 549.049959 
L 367.562301 549.049959 
L 373.695907 549.04996 
L 379.829514 549.04996 
L 385.963121 549.04996 
L 392.096727 549.04996 
L 398.230334 549.04996 
L 404.363941 549.04996 
L 410.497547 549.04996 
L 416.631154 549.04996 
L 422.764761 549.04996 
L 428.898367 549.04996 
L 435.031974 549.04996 
L 441.165581 549.049959 
L 447.299187 549.049959 
L 453.432794 549.04996 
L 459.566401 549.04996 
L 465.700008 549.049961 
L 471.833614 549.049961 
L 477.967221 549.049961 
L 484.100828 549.049961 
L 490.234434 549.049961 
L 496.368041 549.049961 
L 502.501648 549.049961 
L 508.635254 549.04996 
L 514.768861 549.049961 
L 520.902468 549.049961 
L 527.036074 549.049961 
L 533.169681 549.049961 
L 539.303288 549.049961 
L 545.436894 549.049962 
L 551.570501 549.049961 
L 557.704108 549.049962 
L 563.837714 549.049962 
L 569.971321 549.049962 
L 576.104928 549.049962 
L 582.238534 549.049962 
L 588.372141 549.049962 
L 594.505748 549.049962 
L 600.639354 549.049962 
L 606.772961 549.049962 
L 612.906568 549.049962 
L 619.040175 549.049962 
L 625.173781 549.049962 
L 631.307388 549.049962 
L 637.440995 549.049962 
L 643.574601 549.049962 
L 649.708208 549.049962 
L 655.841815 549.049962 
L 661.975421 549.049963 
L 668.109028 549.049962 
L 674.242635 549.049962 
L 680.376241 549.049962 
L 686.509848 549.049962 
L 692.643455 549.049962 
L 698.777061 549.049962 
" clip-path="url(#pc9075ef2b0)" style="fill: none; stroke-dasharray: 5.55,2.4; stroke-dashoffset: 0; stroke: #ff0000; stroke-width: 1.5"/>
   </g>
   <g id="line2d_60">
    <path d="M 91.55 603.08575 
L 97.683607 642.996596 
L 103.817213 643.025778 
L 109.95082 643.025659 
L 116.084427 643.025513 
L 122.218033 643.025399 
L 128.35164 643.025311 
L 134.485247 643.025242 
L 140.618853 643.02519 
L 146.75246 643.02515 
L 152.886067 643.02512 
L 159.019673 643.025098 
L 165.15328 643.02508 
L 171.286887 643.025067 
L 177.420494 643.025056 
L 183.5541 643.025051 
L 189.687707 643.025048 
L 195.821314 643.025047 
L 201.95492 643.025047 
L 208.088527 643.025046 
L 214.222134 643.025045 
L 220.35574 643.025045 
L 226.489347 643.025045 
L 232.622954 643.025045 
L 238.75656 643.025044 
L 244.890167 643.025043 
L 251.023774 643.025043 
L 257.15738 643.025043 
L 263.290987 643.025043 
L 269.424594 643.025043 
L 275.5582 643.025044 
L 281.691807 643.025044 
L 287.825414 643.025045 
L 293.95902 643.025046 
L 300.092627 643.025045 
L 306.226234 643.025046 
L 312.35984 643.025045 
L 318.493447 643.025044 
L 324.627054 643.025043 
L 330.760661 643.025043 
L 336.894267 643.025043 
L 343.027874 643.025043 
L 349.161481 643.025043 
L 355.295087 643.025042 
L 361.428694 643.025041 
L 367.562301 643.025041 
L 373.695907 643.02504 
L 379.829514 643.02504 
L 385.963121 643.02504 
L 392.096727 643.02504 
L 398.230334 643.02504 
L 404.363941 643.02504 
L 410.497547 643.02504 
L 416.631154 643.02504 
L 422.764761 643.02504 
L 428.898367 643.02504 
L 435.031974 643.02504 
L 441.165581 643.025041 
L 447.299187 643.025041 
L 453.432794 643.02504 
L 459.566401 643.02504 
L 465.700008 643.025039 
L 471.833614 643.025039 
L 477.967221 643.025039 
L 484.100828 643.025039 
L 490.234434 643.025039 
L 496.368041 643.025039 
L 502.501648 643.025039 
L 508.635254 643.02504 
L 514.768861 643.025039 
L 520.902468 643.025039 
L 527.036074 643.025039 
L 533.169681 643.025039 
L 539.303288 643.025039 
L 545.436894 643.025038 
L 551.570501 643.025039 
L 557.704108 643.025038 
L 563.837714 643.025038 
L 569.971321 643.025038 
L 576.104928 643.025038 
L 582.238534 643.025038 
L 588.372141 643.025038 
L 594.505748 643.025038 
L 600.639354 643.025038 
L 606.772961 643.025038 
L 612.906568 643.025038 
L 619.040175 643.025038 
L 625.173781 643.025038 
L 631.307388 643.025038 
L 637.440995 643.025038 
L 643.574601 643.025038 
L 649.708208 643.025038 
L 655.841815 643.025038 
L 661.975421 643.025037 
L 668.109028 643.025038 
L 674.242635 643.025038 
L 680.376241 643.025038 
L 686.509848 643.025038 
L 692.643455 643.025038 
L 698.777061 643.025038 
" clip-path="url(#pc9075ef2b0)" style="fill: none; stroke-dasharray: 5.55,2.4; stroke-dashoffset: 0; stroke: #ff0000; stroke-width: 1.5"/>
   </g>
   <g id="patch_18">
    <path d="M 91.55 666.52 
L 91.55 525.555 
" style="fill: none; stroke: #000000; stroke-width: 0.8; stroke-linejoin: miter; stroke-linecap: square"/>
   </g>
   <g id="patch_19">
    <path d="M 704.88 666.52 
L 704.88 525.555 
" style="fill: none; stroke: #000000; stroke-width: 0.8; stroke-linejoin: miter; stroke-linecap: square"/>
   </g>
   <g id="patch_20">
    <path d="M 91.55 666.52 
L 704.88 666.52 
" style="fill: none; stroke: #000000; stroke-width: 0.8; stroke-linejoin: miter; stroke-linecap: square"/>
   </g>
   <g id="patch_21">
    <path d="M 91.55 525.555 
L 704.88 525.555 
" style="fill: none; stroke: #000000; stroke-width: 0.8; stroke-linejoin: miter; stroke-linecap: square"/>
   </g>
  </g>
  <g id="text_30">
   <!-- Errors on imu states at 100Hz -->
   <g transform="translate(234.648375 27.165375) scale(0.168 -0.168)">
    <defs>
     <path id="DejaVuSans-6e" d="M 3513 2113 
L 3513 0 
L 2938 0 
L 2938 2094 
Q 2938 2591 2744 2837 
Q 2550 3084 2163 3084 
Q 1697 3084 1428 2787 
Q 1159 2491 1159 1978 
L 1159 0 
L 581 0 
L 581 3500 
L 1159 3500 
L 1159 2956 
Q 1366 3272 1645 3428 
Q 1925 3584 2291 3584 
Q 2894 3584 3203 3211 
Q 3513 2838 3513 2113 
z
" transform="scale(0.015625)"/>
     <path id="DejaVuSans-75" d="M 544 1381 
L 544 3500 
L 1119 3500 
L 1119 1403 
Q 1119 906 1312 657 
Q 1506 409 1894 409 
Q 2359 409 2629 706 
Q 2900 1003 2900 1516 
L 2900 3500 
L 3475 3500 
L 3475 0 
L 2900 0 
L 2900 538 
Q 2691 219 2414 64 
Q 2138 -91 1772 -91 
Q 1169 -91 856 284 
Q 544 659 544 1381 
z
M 1991 3584 
L 1991 3584 
z
" transform="scale(0.015625)"/>
     <path id="DejaVuSans-48" d="M 628 4666 
L 1259 4666 
L 1259 2753 
L 3553 2753 
L 3553 4666 
L 4184 4666 
L 4184 0 
L 3553 0 
L 3553 2222 
L 1259 2222 
L 1259 0 
L 628 0 
L 628 4666 
z
" transform="scale(0.015625)"/>
     <path id="DejaVuSans-7a" d="M 353 3500 
L 3084 3500 
L 3084 2975 
L 922 459 
L 3084 459 
L 3084 0 
L 275 0 
L 275 525 
L 2438 3041 
L 353 3041 
L 353 3500 
z
" transform="scale(0.015625)"/>
    </defs>
    <use xlink:href="#DejaVuSans-45"/>
    <use xlink:href="#DejaVuSans-72" x="63.183594"/>
    <use xlink:href="#DejaVuSans-72" x="102.546875"/>
    <use xlink:href="#DejaVuSans-6f" x="141.410156"/>
    <use xlink:href="#DejaVuSans-72" x="202.591797"/>
    <use xlink:href="#DejaVuSans-73" x="243.705078"/>
    <use xlink:href="#DejaVuSans-20" x="295.804688"/>
    <use xlink:href="#DejaVuSans-6f" x="327.591797"/>
    <use xlink:href="#DejaVuSans-6e" x="388.773438"/>
    <use xlink:href="#DejaVuSans-20" x="452.152344"/>
    <use xlink:href="#DejaVuSans-69" x="483.939453"/>
    <use xlink:href="#DejaVuSans-6d" x="511.722656"/>
    <use xlink:href="#DejaVuSans-75" x="609.134766"/>
    <use xlink:href="#DejaVuSans-20" x="672.513672"/>
    <use xlink:href="#DejaVuSans-73" x="704.300781"/>
    <use xlink:href="#DejaVuSans-74" x="756.400391"/>
    <use xlink:href="#DejaVuSans-61" x="795.609375"/>
    <use xlink:href="#DejaVuSans-74" x="856.888672"/>
    <use xlink:href="#DejaVuSans-65" x="896.097656"/>
    <use xlink:href="#DejaVuSans-73" x="957.621094"/>
    <use xlink:href="#DejaVuSans-20" x="1009.720703"/>
    <use xlink:href="#DejaVuSans-61" x="1041.507812"/>
    <use xlink:href="#DejaVuSans-74" x="1102.787109"/>
    <use xlink:href="#DejaVuSans-20" x="1141.996094"/>
    <use xlink:href="#DejaVuSans-31" x="1173.783203"/>
    <use xlink:href="#DejaVuSans-30" x="1237.40625"/>
    <use xlink:href="#DejaVuSans-30" x="1301.029297"/>
    <use xlink:href="#DejaVuSans-48" x="1364.652344"/>
    <use xlink:href="#DejaVuSans-7a" x="1439.847656"/>
   </g>
  </g>
 </g>
 <defs>
  <clipPath id="p02fb57bdf4">
   <rect x="91.55" y="46.8" width="613.33" height="140.965"/>
  </clipPath>
  <clipPath id="pae25a5fb72">
   <rect x="91.55" y="206.385" width="613.33" height="140.965"/>
  </clipPath>
  <clipPath id="p666ffb36e7">
   <rect x="91.55" y="365.97" width="613.33" height="140.965"/>
  </clipPath>
  <clipPath id="pc9075ef2b0">
   <rect x="91.55" y="525.555" width="613.33" height="140.965"/>
  </clipPath>
 </defs>
</svg>
