<?xml version="1.0" encoding="utf-8" standalone="no"?>
<!DOCTYPE svg PUBLIC "-//W3C//DTD SVG 1.1//EN"
  "http://www.w3.org/Graphics/SVG/1.1/DTD/svg11.dtd">
<svg xmlns:xlink="http://www.w3.org/1999/xlink" width="720pt" height="576pt" viewBox="0 0 720 576" xmlns="http://www.w3.org/2000/svg" version="1.1">
 <metadata>
  <rdf:RDF xmlns:dc="http://purl.org/dc/elements/1.1/" xmlns:cc="http://creativecommons.org/ns#" xmlns:rdf="http://www.w3.org/1999/02/22-rdf-syntax-ns#">
   <cc:Work>
    <dc:type rdf:resource="http://purl.org/dc/dcmitype/StillImage"/>
    <dc:date>2024-04-14T18:44:58.763399</dc:date>
    <dc:format>image/svg+xml</dc:format>
    <dc:creator>
     <cc:Agent>
      <dc:title>Matplotlib v3.8.4, https://matplotlib.org/</dc:title>
     </cc:Agent>
    </dc:creator>
   </cc:Work>
  </rdf:RDF>
 </metadata>
 <defs>
  <style type="text/css">*{stroke-linejoin: round; stroke-linecap: butt}</style>
 </defs>
 <g id="figure_1">
  <g id="patch_1">
   <path d="M 0 576 
L 720 576 
L 720 0 
L 0 0 
z
" style="fill: #ffffff"/>
  </g>
  <g id="axes_1">
   <g id="patch_2">
    <path d="M 90 199.567059 
L 343.636364 199.567059 
L 343.636364 69.12 
L 90 69.12 
z
" style="fill: #ffffff"/>
   </g>
   <g id="matplotlib.axis_1">
    <g id="xtick_1">
     <g id="line2d_1">
      <defs>
       <path id="m15af0f1692" d="M 0 0 
L 0 3.5 
" style="stroke: #000000; stroke-width: 0.8"/>
      </defs>
      <g>
       <use xlink:href="#m15af0f1692" x="101.528926" y="199.567059" style="stroke: #000000; stroke-width: 0.8"/>
      </g>
     </g>
     <g id="text_1">
      <!-- 0 -->
      <g transform="translate(98.347676 214.165496) scale(0.1 -0.1)">
       <defs>
        <path id="DejaVuSans-30" d="M 2034 4250 
Q 1547 4250 1301 3770 
Q 1056 3291 1056 2328 
Q 1056 1369 1301 889 
Q 1547 409 2034 409 
Q 2525 409 2770 889 
Q 3016 1369 3016 2328 
Q 3016 3291 2770 3770 
Q 2525 4250 2034 4250 
z
M 2034 4750 
Q 2819 4750 3233 4129 
Q 3647 3509 3647 2328 
Q 3647 1150 3233 529 
Q 2819 -91 2034 -91 
Q 1250 -91 836 529 
Q 422 1150 422 2328 
Q 422 3509 836 4129 
Q 1250 4750 2034 4750 
z
" transform="scale(0.015625)"/>
       </defs>
       <use xlink:href="#DejaVuSans-30"/>
      </g>
     </g>
    </g>
    <g id="xtick_2">
     <g id="line2d_2">
      <g>
       <use xlink:href="#m15af0f1692" x="159.173554" y="199.567059" style="stroke: #000000; stroke-width: 0.8"/>
      </g>
     </g>
     <g id="text_2">
      <!-- 50 -->
      <g transform="translate(152.811054 214.165496) scale(0.1 -0.1)">
       <defs>
        <path id="DejaVuSans-35" d="M 691 4666 
L 3169 4666 
L 3169 4134 
L 1269 4134 
L 1269 2991 
Q 1406 3038 1543 3061 
Q 1681 3084 1819 3084 
Q 2600 3084 3056 2656 
Q 3513 2228 3513 1497 
Q 3513 744 3044 326 
Q 2575 -91 1722 -91 
Q 1428 -91 1123 -41 
Q 819 9 494 109 
L 494 744 
Q 775 591 1075 516 
Q 1375 441 1709 441 
Q 2250 441 2565 725 
Q 2881 1009 2881 1497 
Q 2881 1984 2565 2268 
Q 2250 2553 1709 2553 
Q 1456 2553 1204 2497 
Q 953 2441 691 2322 
L 691 4666 
z
" transform="scale(0.015625)"/>
       </defs>
       <use xlink:href="#DejaVuSans-35"/>
       <use xlink:href="#DejaVuSans-30" x="63.623047"/>
      </g>
     </g>
    </g>
    <g id="xtick_3">
     <g id="line2d_3">
      <g>
       <use xlink:href="#m15af0f1692" x="216.818182" y="199.567059" style="stroke: #000000; stroke-width: 0.8"/>
      </g>
     </g>
     <g id="text_3">
      <!-- 100 -->
      <g transform="translate(207.274432 214.165496) scale(0.1 -0.1)">
       <defs>
        <path id="DejaVuSans-31" d="M 794 531 
L 1825 531 
L 1825 4091 
L 703 3866 
L 703 4441 
L 1819 4666 
L 2450 4666 
L 2450 531 
L 3481 531 
L 3481 0 
L 794 0 
L 794 531 
z
" transform="scale(0.015625)"/>
       </defs>
       <use xlink:href="#DejaVuSans-31"/>
       <use xlink:href="#DejaVuSans-30" x="63.623047"/>
       <use xlink:href="#DejaVuSans-30" x="127.246094"/>
      </g>
     </g>
    </g>
    <g id="xtick_4">
     <g id="line2d_4">
      <g>
       <use xlink:href="#m15af0f1692" x="274.46281" y="199.567059" style="stroke: #000000; stroke-width: 0.8"/>
      </g>
     </g>
     <g id="text_4">
      <!-- 150 -->
      <g transform="translate(264.91906 214.165496) scale(0.1 -0.1)">
       <use xlink:href="#DejaVuSans-31"/>
       <use xlink:href="#DejaVuSans-35" x="63.623047"/>
       <use xlink:href="#DejaVuSans-30" x="127.246094"/>
      </g>
     </g>
    </g>
    <g id="xtick_5">
     <g id="line2d_5">
      <g>
       <use xlink:href="#m15af0f1692" x="332.107438" y="199.567059" style="stroke: #000000; stroke-width: 0.8"/>
      </g>
     </g>
     <g id="text_5">
      <!-- 200 -->
      <g transform="translate(322.563688 214.165496) scale(0.1 -0.1)">
       <defs>
        <path id="DejaVuSans-32" d="M 1228 531 
L 3431 531 
L 3431 0 
L 469 0 
L 469 531 
Q 828 903 1448 1529 
Q 2069 2156 2228 2338 
Q 2531 2678 2651 2914 
Q 2772 3150 2772 3378 
Q 2772 3750 2511 3984 
Q 2250 4219 1831 4219 
Q 1534 4219 1204 4116 
Q 875 4013 500 3803 
L 500 4441 
Q 881 4594 1212 4672 
Q 1544 4750 1819 4750 
Q 2544 4750 2975 4387 
Q 3406 4025 3406 3419 
Q 3406 3131 3298 2873 
Q 3191 2616 2906 2266 
Q 2828 2175 2409 1742 
Q 1991 1309 1228 531 
z
" transform="scale(0.015625)"/>
       </defs>
       <use xlink:href="#DejaVuSans-32"/>
       <use xlink:href="#DejaVuSans-30" x="63.623047"/>
       <use xlink:href="#DejaVuSans-30" x="127.246094"/>
      </g>
     </g>
    </g>
   </g>
   <g id="matplotlib.axis_2">
    <g id="ytick_1">
     <g id="line2d_6">
      <defs>
       <path id="m60e5645051" d="M 0 0 
L -3.5 0 
" style="stroke: #000000; stroke-width: 0.8"/>
      </defs>
      <g>
       <use xlink:href="#m60e5645051" x="90" y="185.536898" style="stroke: #000000; stroke-width: 0.8"/>
      </g>
     </g>
     <g id="text_6">
      <!-- 2 -->
      <g transform="translate(76.6375 189.336117) scale(0.1 -0.1)">
       <use xlink:href="#DejaVuSans-32"/>
      </g>
     </g>
    </g>
    <g id="ytick_2">
     <g id="line2d_7">
      <g>
       <use xlink:href="#m60e5645051" x="90" y="147.789091" style="stroke: #000000; stroke-width: 0.8"/>
      </g>
     </g>
     <g id="text_7">
      <!-- 4 -->
      <g transform="translate(76.6375 151.588309) scale(0.1 -0.1)">
       <defs>
        <path id="DejaVuSans-34" d="M 2419 4116 
L 825 1625 
L 2419 1625 
L 2419 4116 
z
M 2253 4666 
L 3047 4666 
L 3047 1625 
L 3713 1625 
L 3713 1100 
L 3047 1100 
L 3047 0 
L 2419 0 
L 2419 1100 
L 313 1100 
L 313 1709 
L 2253 4666 
z
" transform="scale(0.015625)"/>
       </defs>
       <use xlink:href="#DejaVuSans-34"/>
      </g>
     </g>
    </g>
    <g id="ytick_3">
     <g id="line2d_8">
      <g>
       <use xlink:href="#m60e5645051" x="90" y="110.041283" style="stroke: #000000; stroke-width: 0.8"/>
      </g>
     </g>
     <g id="text_8">
      <!-- 6 -->
      <g transform="translate(76.6375 113.840502) scale(0.1 -0.1)">
       <defs>
        <path id="DejaVuSans-36" d="M 2113 2584 
Q 1688 2584 1439 2293 
Q 1191 2003 1191 1497 
Q 1191 994 1439 701 
Q 1688 409 2113 409 
Q 2538 409 2786 701 
Q 3034 994 3034 1497 
Q 3034 2003 2786 2293 
Q 2538 2584 2113 2584 
z
M 3366 4563 
L 3366 3988 
Q 3128 4100 2886 4159 
Q 2644 4219 2406 4219 
Q 1781 4219 1451 3797 
Q 1122 3375 1075 2522 
Q 1259 2794 1537 2939 
Q 1816 3084 2150 3084 
Q 2853 3084 3261 2657 
Q 3669 2231 3669 1497 
Q 3669 778 3244 343 
Q 2819 -91 2113 -91 
Q 1303 -91 875 529 
Q 447 1150 447 2328 
Q 447 3434 972 4092 
Q 1497 4750 2381 4750 
Q 2619 4750 2861 4703 
Q 3103 4656 3366 4563 
z
" transform="scale(0.015625)"/>
       </defs>
       <use xlink:href="#DejaVuSans-36"/>
      </g>
     </g>
    </g>
    <g id="ytick_4">
     <g id="line2d_9">
      <g>
       <use xlink:href="#m60e5645051" x="90" y="72.293475" style="stroke: #000000; stroke-width: 0.8"/>
      </g>
     </g>
     <g id="text_9">
      <!-- 8 -->
      <g transform="translate(76.6375 76.092694) scale(0.1 -0.1)">
       <defs>
        <path id="DejaVuSans-38" d="M 2034 2216 
Q 1584 2216 1326 1975 
Q 1069 1734 1069 1313 
Q 1069 891 1326 650 
Q 1584 409 2034 409 
Q 2484 409 2743 651 
Q 3003 894 3003 1313 
Q 3003 1734 2745 1975 
Q 2488 2216 2034 2216 
z
M 1403 2484 
Q 997 2584 770 2862 
Q 544 3141 544 3541 
Q 544 4100 942 4425 
Q 1341 4750 2034 4750 
Q 2731 4750 3128 4425 
Q 3525 4100 3525 3541 
Q 3525 3141 3298 2862 
Q 3072 2584 2669 2484 
Q 3125 2378 3379 2068 
Q 3634 1759 3634 1313 
Q 3634 634 3220 271 
Q 2806 -91 2034 -91 
Q 1263 -91 848 271 
Q 434 634 434 1313 
Q 434 1759 690 2068 
Q 947 2378 1403 2484 
z
M 1172 3481 
Q 1172 3119 1398 2916 
Q 1625 2713 2034 2713 
Q 2441 2713 2670 2916 
Q 2900 3119 2900 3481 
Q 2900 3844 2670 4047 
Q 2441 4250 2034 4250 
Q 1625 4250 1398 4047 
Q 1172 3844 1172 3481 
z
" transform="scale(0.015625)"/>
       </defs>
       <use xlink:href="#DejaVuSans-38"/>
      </g>
     </g>
    </g>
    <g id="text_10">
     <!-- Azimuth rad -->
     <g transform="translate(14.951563 131.847904) scale(0.12 -0.12)">
      <defs>
       <path id="DejaVuSans-41" d="M 2188 4044 
L 1331 1722 
L 3047 1722 
L 2188 4044 
z
M 1831 4666 
L 2547 4666 
L 4325 0 
L 3669 0 
L 3244 1197 
L 1141 1197 
L 716 0 
L 50 0 
L 1831 4666 
z
" transform="scale(0.015625)"/>
       <path id="DejaVuSans-7a" d="M 353 3500 
L 3084 3500 
L 3084 2975 
L 922 459 
L 3084 459 
L 3084 0 
L 275 0 
L 275 525 
L 2438 3041 
L 353 3041 
L 353 3500 
z
" transform="scale(0.015625)"/>
       <path id="DejaVuSans-69" d="M 603 3500 
L 1178 3500 
L 1178 0 
L 603 0 
L 603 3500 
z
M 603 4863 
L 1178 4863 
L 1178 4134 
L 603 4134 
L 603 4863 
z
" transform="scale(0.015625)"/>
       <path id="DejaVuSans-6d" d="M 3328 2828 
Q 3544 3216 3844 3400 
Q 4144 3584 4550 3584 
Q 5097 3584 5394 3201 
Q 5691 2819 5691 2113 
L 5691 0 
L 5113 0 
L 5113 2094 
Q 5113 2597 4934 2840 
Q 4756 3084 4391 3084 
Q 3944 3084 3684 2787 
Q 3425 2491 3425 1978 
L 3425 0 
L 2847 0 
L 2847 2094 
Q 2847 2600 2669 2842 
Q 2491 3084 2119 3084 
Q 1678 3084 1418 2786 
Q 1159 2488 1159 1978 
L 1159 0 
L 581 0 
L 581 3500 
L 1159 3500 
L 1159 2956 
Q 1356 3278 1631 3431 
Q 1906 3584 2284 3584 
Q 2666 3584 2933 3390 
Q 3200 3197 3328 2828 
z
" transform="scale(0.015625)"/>
       <path id="DejaVuSans-75" d="M 544 1381 
L 544 3500 
L 1119 3500 
L 1119 1403 
Q 1119 906 1312 657 
Q 1506 409 1894 409 
Q 2359 409 2629 706 
Q 2900 1003 2900 1516 
L 2900 3500 
L 3475 3500 
L 3475 0 
L 2900 0 
L 2900 538 
Q 2691 219 2414 64 
Q 2138 -91 1772 -91 
Q 1169 -91 856 284 
Q 544 659 544 1381 
z
M 1991 3584 
L 1991 3584 
z
" transform="scale(0.015625)"/>
       <path id="DejaVuSans-74" d="M 1172 4494 
L 1172 3500 
L 2356 3500 
L 2356 3053 
L 1172 3053 
L 1172 1153 
Q 1172 725 1289 603 
Q 1406 481 1766 481 
L 2356 481 
L 2356 0 
L 1766 0 
Q 1100 0 847 248 
Q 594 497 594 1153 
L 594 3053 
L 172 3053 
L 172 3500 
L 594 3500 
L 594 4494 
L 1172 4494 
z
" transform="scale(0.015625)"/>
       <path id="DejaVuSans-68" d="M 3513 2113 
L 3513 0 
L 2938 0 
L 2938 2094 
Q 2938 2591 2744 2837 
Q 2550 3084 2163 3084 
Q 1697 3084 1428 2787 
Q 1159 2491 1159 1978 
L 1159 0 
L 581 0 
L 581 4863 
L 1159 4863 
L 1159 2956 
Q 1366 3272 1645 3428 
Q 1925 3584 2291 3584 
Q 2894 3584 3203 3211 
Q 3513 2838 3513 2113 
z
" transform="scale(0.015625)"/>
       <path id="DejaVuSans-20" transform="scale(0.015625)"/>
       <path id="DejaVuSans-72" d="M 2631 2963 
Q 2534 3019 2420 3045 
Q 2306 3072 2169 3072 
Q 1681 3072 1420 2755 
Q 1159 2438 1159 1844 
L 1159 0 
L 581 0 
L 581 3500 
L 1159 3500 
L 1159 2956 
Q 1341 3275 1631 3429 
Q 1922 3584 2338 3584 
Q 2397 3584 2469 3576 
Q 2541 3569 2628 3553 
L 2631 2963 
z
" transform="scale(0.015625)"/>
       <path id="DejaVuSans-61" d="M 2194 1759 
Q 1497 1759 1228 1600 
Q 959 1441 959 1056 
Q 959 750 1161 570 
Q 1363 391 1709 391 
Q 2188 391 2477 730 
Q 2766 1069 2766 1631 
L 2766 1759 
L 2194 1759 
z
M 3341 1997 
L 3341 0 
L 2766 0 
L 2766 531 
Q 2569 213 2275 61 
Q 1981 -91 1556 -91 
Q 1019 -91 701 211 
Q 384 513 384 1019 
Q 384 1609 779 1909 
Q 1175 2209 1959 2209 
L 2766 2209 
L 2766 2266 
Q 2766 2663 2505 2880 
Q 2244 3097 1772 3097 
Q 1472 3097 1187 3025 
Q 903 2953 641 2809 
L 641 3341 
Q 956 3463 1253 3523 
Q 1550 3584 1831 3584 
Q 2591 3584 2966 3190 
Q 3341 2797 3341 1997 
z
" transform="scale(0.015625)"/>
       <path id="DejaVuSans-64" d="M 2906 2969 
L 2906 4863 
L 3481 4863 
L 3481 0 
L 2906 0 
L 2906 525 
Q 2725 213 2448 61 
Q 2172 -91 1784 -91 
Q 1150 -91 751 415 
Q 353 922 353 1747 
Q 353 2572 751 3078 
Q 1150 3584 1784 3584 
Q 2172 3584 2448 3432 
Q 2725 3281 2906 2969 
z
M 947 1747 
Q 947 1113 1208 752 
Q 1469 391 1925 391 
Q 2381 391 2643 752 
Q 2906 1113 2906 1747 
Q 2906 2381 2643 2742 
Q 2381 3103 1925 3103 
Q 1469 3103 1208 2742 
Q 947 2381 947 1747 
z
" transform="scale(0.015625)"/>
      </defs>
      <use xlink:href="#DejaVuSans-41"/>
      <use xlink:href="#DejaVuSans-7a" x="68.408203"/>
      <use xlink:href="#DejaVuSans-69" x="120.898438"/>
      <use xlink:href="#DejaVuSans-6d" x="148.681641"/>
      <use xlink:href="#DejaVuSans-75" x="246.09375"/>
      <use xlink:href="#DejaVuSans-74" x="309.472656"/>
      <use xlink:href="#DejaVuSans-68" x="348.681641"/>
      <use xlink:href="#DejaVuSans-20" x="412.060547"/>
      <use xlink:href="#DejaVuSans-72" x="443.847656"/>
      <use xlink:href="#DejaVuSans-61" x="484.960938"/>
      <use xlink:href="#DejaVuSans-64" x="546.240234"/>
     </g>
    </g>
   </g>
   <g id="line2d_10">
    <path d="M 101.528926 193.637647 
L 332.107438 75.049412 
L 332.107438 75.049412 
" clip-path="url(#p54b271e7b5)" style="fill: none; stroke: #1f77b4; stroke-width: 1.5; stroke-linecap: square"/>
   </g>
   <g id="patch_3">
    <path d="M 90 199.567059 
L 90 69.12 
" style="fill: none; stroke: #000000; stroke-width: 0.8; stroke-linejoin: miter; stroke-linecap: square"/>
   </g>
   <g id="patch_4">
    <path d="M 343.636364 199.567059 
L 343.636364 69.12 
" style="fill: none; stroke: #000000; stroke-width: 0.8; stroke-linejoin: miter; stroke-linecap: square"/>
   </g>
   <g id="patch_5">
    <path d="M 90 199.567059 
L 343.636364 199.567059 
" style="fill: none; stroke: #000000; stroke-width: 0.8; stroke-linejoin: miter; stroke-linecap: square"/>
   </g>
   <g id="patch_6">
    <path d="M 90 69.12 
L 343.636364 69.12 
" style="fill: none; stroke: #000000; stroke-width: 0.8; stroke-linejoin: miter; stroke-linecap: square"/>
   </g>
   <g id="text_11">
    <!-- Estimated -->
    <g transform="translate(186.507869 63.12) scale(0.12 -0.12)">
     <defs>
      <path id="DejaVuSans-45" d="M 628 4666 
L 3578 4666 
L 3578 4134 
L 1259 4134 
L 1259 2753 
L 3481 2753 
L 3481 2222 
L 1259 2222 
L 1259 531 
L 3634 531 
L 3634 0 
L 628 0 
L 628 4666 
z
" transform="scale(0.015625)"/>
      <path id="DejaVuSans-73" d="M 2834 3397 
L 2834 2853 
Q 2591 2978 2328 3040 
Q 2066 3103 1784 3103 
Q 1356 3103 1142 2972 
Q 928 2841 928 2578 
Q 928 2378 1081 2264 
Q 1234 2150 1697 2047 
L 1894 2003 
Q 2506 1872 2764 1633 
Q 3022 1394 3022 966 
Q 3022 478 2636 193 
Q 2250 -91 1575 -91 
Q 1294 -91 989 -36 
Q 684 19 347 128 
L 347 722 
Q 666 556 975 473 
Q 1284 391 1588 391 
Q 1994 391 2212 530 
Q 2431 669 2431 922 
Q 2431 1156 2273 1281 
Q 2116 1406 1581 1522 
L 1381 1569 
Q 847 1681 609 1914 
Q 372 2147 372 2553 
Q 372 3047 722 3315 
Q 1072 3584 1716 3584 
Q 2034 3584 2315 3537 
Q 2597 3491 2834 3397 
z
" transform="scale(0.015625)"/>
      <path id="DejaVuSans-65" d="M 3597 1894 
L 3597 1613 
L 953 1613 
Q 991 1019 1311 708 
Q 1631 397 2203 397 
Q 2534 397 2845 478 
Q 3156 559 3463 722 
L 3463 178 
Q 3153 47 2828 -22 
Q 2503 -91 2169 -91 
Q 1331 -91 842 396 
Q 353 884 353 1716 
Q 353 2575 817 3079 
Q 1281 3584 2069 3584 
Q 2775 3584 3186 3129 
Q 3597 2675 3597 1894 
z
M 3022 2063 
Q 3016 2534 2758 2815 
Q 2500 3097 2075 3097 
Q 1594 3097 1305 2825 
Q 1016 2553 972 2059 
L 3022 2063 
z
" transform="scale(0.015625)"/>
     </defs>
     <use xlink:href="#DejaVuSans-45"/>
     <use xlink:href="#DejaVuSans-73" x="63.183594"/>
     <use xlink:href="#DejaVuSans-74" x="115.283203"/>
     <use xlink:href="#DejaVuSans-69" x="154.492188"/>
     <use xlink:href="#DejaVuSans-6d" x="182.275391"/>
     <use xlink:href="#DejaVuSans-61" x="279.6875"/>
     <use xlink:href="#DejaVuSans-74" x="340.966797"/>
     <use xlink:href="#DejaVuSans-65" x="380.175781"/>
     <use xlink:href="#DejaVuSans-64" x="441.699219"/>
    </g>
   </g>
  </g>
  <g id="axes_2">
   <g id="patch_7">
    <path d="M 394.363636 199.567059 
L 648 199.567059 
L 648 69.12 
L 394.363636 69.12 
z
" style="fill: #ffffff"/>
   </g>
   <g id="matplotlib.axis_3">
    <g id="xtick_6">
     <g id="line2d_11">
      <g>
       <use xlink:href="#m15af0f1692" x="405.892562" y="199.567059" style="stroke: #000000; stroke-width: 0.8"/>
      </g>
     </g>
     <g id="text_12">
      <!-- 0 -->
      <g transform="translate(402.711312 214.165496) scale(0.1 -0.1)">
       <use xlink:href="#DejaVuSans-30"/>
      </g>
     </g>
    </g>
    <g id="xtick_7">
     <g id="line2d_12">
      <g>
       <use xlink:href="#m15af0f1692" x="463.53719" y="199.567059" style="stroke: #000000; stroke-width: 0.8"/>
      </g>
     </g>
     <g id="text_13">
      <!-- 50 -->
      <g transform="translate(457.17469 214.165496) scale(0.1 -0.1)">
       <use xlink:href="#DejaVuSans-35"/>
       <use xlink:href="#DejaVuSans-30" x="63.623047"/>
      </g>
     </g>
    </g>
    <g id="xtick_8">
     <g id="line2d_13">
      <g>
       <use xlink:href="#m15af0f1692" x="521.181818" y="199.567059" style="stroke: #000000; stroke-width: 0.8"/>
      </g>
     </g>
     <g id="text_14">
      <!-- 100 -->
      <g transform="translate(511.638068 214.165496) scale(0.1 -0.1)">
       <use xlink:href="#DejaVuSans-31"/>
       <use xlink:href="#DejaVuSans-30" x="63.623047"/>
       <use xlink:href="#DejaVuSans-30" x="127.246094"/>
      </g>
     </g>
    </g>
    <g id="xtick_9">
     <g id="line2d_14">
      <g>
       <use xlink:href="#m15af0f1692" x="578.826446" y="199.567059" style="stroke: #000000; stroke-width: 0.8"/>
      </g>
     </g>
     <g id="text_15">
      <!-- 150 -->
      <g transform="translate(569.282696 214.165496) scale(0.1 -0.1)">
       <use xlink:href="#DejaVuSans-31"/>
       <use xlink:href="#DejaVuSans-35" x="63.623047"/>
       <use xlink:href="#DejaVuSans-30" x="127.246094"/>
      </g>
     </g>
    </g>
    <g id="xtick_10">
     <g id="line2d_15">
      <g>
       <use xlink:href="#m15af0f1692" x="636.471074" y="199.567059" style="stroke: #000000; stroke-width: 0.8"/>
      </g>
     </g>
     <g id="text_16">
      <!-- 200 -->
      <g transform="translate(626.927324 214.165496) scale(0.1 -0.1)">
       <use xlink:href="#DejaVuSans-32"/>
       <use xlink:href="#DejaVuSans-30" x="63.623047"/>
       <use xlink:href="#DejaVuSans-30" x="127.246094"/>
      </g>
     </g>
    </g>
   </g>
   <g id="matplotlib.axis_4">
    <g id="ytick_5">
     <g id="line2d_16">
      <g>
       <use xlink:href="#m60e5645051" x="394.363636" y="185.536898" style="stroke: #000000; stroke-width: 0.8"/>
      </g>
     </g>
     <g id="text_17">
      <!-- 2 -->
      <g transform="translate(381.001136 189.336117) scale(0.1 -0.1)">
       <use xlink:href="#DejaVuSans-32"/>
      </g>
     </g>
    </g>
    <g id="ytick_6">
     <g id="line2d_17">
      <g>
       <use xlink:href="#m60e5645051" x="394.363636" y="147.789091" style="stroke: #000000; stroke-width: 0.8"/>
      </g>
     </g>
     <g id="text_18">
      <!-- 4 -->
      <g transform="translate(381.001136 151.588309) scale(0.1 -0.1)">
       <use xlink:href="#DejaVuSans-34"/>
      </g>
     </g>
    </g>
    <g id="ytick_7">
     <g id="line2d_18">
      <g>
       <use xlink:href="#m60e5645051" x="394.363636" y="110.041283" style="stroke: #000000; stroke-width: 0.8"/>
      </g>
     </g>
     <g id="text_19">
      <!-- 6 -->
      <g transform="translate(381.001136 113.840502) scale(0.1 -0.1)">
       <use xlink:href="#DejaVuSans-36"/>
      </g>
     </g>
    </g>
    <g id="ytick_8">
     <g id="line2d_19">
      <g>
       <use xlink:href="#m60e5645051" x="394.363636" y="72.293475" style="stroke: #000000; stroke-width: 0.8"/>
      </g>
     </g>
     <g id="text_20">
      <!-- 8 -->
      <g transform="translate(381.001136 76.092694) scale(0.1 -0.1)">
       <use xlink:href="#DejaVuSans-38"/>
      </g>
     </g>
    </g>
   </g>
   <g id="line2d_20">
    <path d="M 405.892562 193.637647 
L 636.471074 75.049412 
L 636.471074 75.049412 
" clip-path="url(#pe1e5bfefd5)" style="fill: none; stroke: #1f77b4; stroke-width: 1.5; stroke-linecap: square"/>
   </g>
   <g id="patch_8">
    <path d="M 394.363636 199.567059 
L 394.363636 69.12 
" style="fill: none; stroke: #000000; stroke-width: 0.8; stroke-linejoin: miter; stroke-linecap: square"/>
   </g>
   <g id="patch_9">
    <path d="M 648 199.567059 
L 648 69.12 
" style="fill: none; stroke: #000000; stroke-width: 0.8; stroke-linejoin: miter; stroke-linecap: square"/>
   </g>
   <g id="patch_10">
    <path d="M 394.363636 199.567059 
L 648 199.567059 
" style="fill: none; stroke: #000000; stroke-width: 0.8; stroke-linejoin: miter; stroke-linecap: square"/>
   </g>
   <g id="patch_11">
    <path d="M 394.363636 69.12 
L 648 69.12 
" style="fill: none; stroke: #000000; stroke-width: 0.8; stroke-linejoin: miter; stroke-linecap: square"/>
   </g>
   <g id="text_21">
    <!-- True -->
    <g transform="translate(508.441193 63.12) scale(0.12 -0.12)">
     <defs>
      <path id="DejaVuSans-54" d="M -19 4666 
L 3928 4666 
L 3928 4134 
L 2272 4134 
L 2272 0 
L 1638 0 
L 1638 4134 
L -19 4134 
L -19 4666 
z
" transform="scale(0.015625)"/>
     </defs>
     <use xlink:href="#DejaVuSans-54"/>
     <use xlink:href="#DejaVuSans-72" x="46.333984"/>
     <use xlink:href="#DejaVuSans-75" x="87.447266"/>
     <use xlink:href="#DejaVuSans-65" x="150.826172"/>
    </g>
   </g>
  </g>
  <g id="axes_3">
   <g id="patch_12">
    <path d="M 90 356.103529 
L 343.636364 356.103529 
L 343.636364 225.656471 
L 90 225.656471 
z
" style="fill: #ffffff"/>
   </g>
   <g id="matplotlib.axis_5">
    <g id="xtick_11">
     <g id="line2d_21">
      <g>
       <use xlink:href="#m15af0f1692" x="101.528926" y="356.103529" style="stroke: #000000; stroke-width: 0.8"/>
      </g>
     </g>
     <g id="text_22">
      <!-- 0 -->
      <g transform="translate(98.347676 370.701967) scale(0.1 -0.1)">
       <use xlink:href="#DejaVuSans-30"/>
      </g>
     </g>
    </g>
    <g id="xtick_12">
     <g id="line2d_22">
      <g>
       <use xlink:href="#m15af0f1692" x="159.173554" y="356.103529" style="stroke: #000000; stroke-width: 0.8"/>
      </g>
     </g>
     <g id="text_23">
      <!-- 50 -->
      <g transform="translate(152.811054 370.701967) scale(0.1 -0.1)">
       <use xlink:href="#DejaVuSans-35"/>
       <use xlink:href="#DejaVuSans-30" x="63.623047"/>
      </g>
     </g>
    </g>
    <g id="xtick_13">
     <g id="line2d_23">
      <g>
       <use xlink:href="#m15af0f1692" x="216.818182" y="356.103529" style="stroke: #000000; stroke-width: 0.8"/>
      </g>
     </g>
     <g id="text_24">
      <!-- 100 -->
      <g transform="translate(207.274432 370.701967) scale(0.1 -0.1)">
       <use xlink:href="#DejaVuSans-31"/>
       <use xlink:href="#DejaVuSans-30" x="63.623047"/>
       <use xlink:href="#DejaVuSans-30" x="127.246094"/>
      </g>
     </g>
    </g>
    <g id="xtick_14">
     <g id="line2d_24">
      <g>
       <use xlink:href="#m15af0f1692" x="274.46281" y="356.103529" style="stroke: #000000; stroke-width: 0.8"/>
      </g>
     </g>
     <g id="text_25">
      <!-- 150 -->
      <g transform="translate(264.91906 370.701967) scale(0.1 -0.1)">
       <use xlink:href="#DejaVuSans-31"/>
       <use xlink:href="#DejaVuSans-35" x="63.623047"/>
       <use xlink:href="#DejaVuSans-30" x="127.246094"/>
      </g>
     </g>
    </g>
    <g id="xtick_15">
     <g id="line2d_25">
      <g>
       <use xlink:href="#m15af0f1692" x="332.107438" y="356.103529" style="stroke: #000000; stroke-width: 0.8"/>
      </g>
     </g>
     <g id="text_26">
      <!-- 200 -->
      <g transform="translate(322.563688 370.701967) scale(0.1 -0.1)">
       <use xlink:href="#DejaVuSans-32"/>
       <use xlink:href="#DejaVuSans-30" x="63.623047"/>
       <use xlink:href="#DejaVuSans-30" x="127.246094"/>
      </g>
     </g>
    </g>
   </g>
   <g id="matplotlib.axis_6">
    <g id="ytick_9">
     <g id="line2d_26">
      <g>
       <use xlink:href="#m60e5645051" x="90" y="338.32068" style="stroke: #000000; stroke-width: 0.8"/>
      </g>
     </g>
     <g id="text_27">
      <!-- −400 -->
      <g transform="translate(55.532812 342.119899) scale(0.1 -0.1)">
       <defs>
        <path id="DejaVuSans-2212" d="M 678 2272 
L 4684 2272 
L 4684 1741 
L 678 1741 
L 678 2272 
z
" transform="scale(0.015625)"/>
       </defs>
       <use xlink:href="#DejaVuSans-2212"/>
       <use xlink:href="#DejaVuSans-34" x="83.789062"/>
       <use xlink:href="#DejaVuSans-30" x="147.412109"/>
       <use xlink:href="#DejaVuSans-30" x="211.035156"/>
      </g>
     </g>
    </g>
    <g id="ytick_10">
     <g id="line2d_27">
      <g>
       <use xlink:href="#m60e5645051" x="90" y="314.602639" style="stroke: #000000; stroke-width: 0.8"/>
      </g>
     </g>
     <g id="text_28">
      <!-- −200 -->
      <g transform="translate(55.532812 318.401858) scale(0.1 -0.1)">
       <use xlink:href="#DejaVuSans-2212"/>
       <use xlink:href="#DejaVuSans-32" x="83.789062"/>
       <use xlink:href="#DejaVuSans-30" x="147.412109"/>
       <use xlink:href="#DejaVuSans-30" x="211.035156"/>
      </g>
     </g>
    </g>
    <g id="ytick_11">
     <g id="line2d_28">
      <g>
       <use xlink:href="#m60e5645051" x="90" y="290.884598" style="stroke: #000000; stroke-width: 0.8"/>
      </g>
     </g>
     <g id="text_29">
      <!-- 0 -->
      <g transform="translate(76.6375 294.683816) scale(0.1 -0.1)">
       <use xlink:href="#DejaVuSans-30"/>
      </g>
     </g>
    </g>
    <g id="ytick_12">
     <g id="line2d_29">
      <g>
       <use xlink:href="#m60e5645051" x="90" y="267.166556" style="stroke: #000000; stroke-width: 0.8"/>
      </g>
     </g>
     <g id="text_30">
      <!-- 200 -->
      <g transform="translate(63.9125 270.965775) scale(0.1 -0.1)">
       <use xlink:href="#DejaVuSans-32"/>
       <use xlink:href="#DejaVuSans-30" x="63.623047"/>
       <use xlink:href="#DejaVuSans-30" x="127.246094"/>
      </g>
     </g>
    </g>
    <g id="ytick_13">
     <g id="line2d_30">
      <g>
       <use xlink:href="#m60e5645051" x="90" y="243.448515" style="stroke: #000000; stroke-width: 0.8"/>
      </g>
     </g>
     <g id="text_31">
      <!-- 400 -->
      <g transform="translate(63.9125 247.247734) scale(0.1 -0.1)">
       <use xlink:href="#DejaVuSans-34"/>
       <use xlink:href="#DejaVuSans-30" x="63.623047"/>
       <use xlink:href="#DejaVuSans-30" x="127.246094"/>
      </g>
     </g>
    </g>
    <g id="text_32">
     <!-- Position m -->
     <g transform="translate(20.424688 288.384375) scale(0.12 -0.12)">
      <defs>
       <path id="DejaVuSans-50" d="M 1259 4147 
L 1259 2394 
L 2053 2394 
Q 2494 2394 2734 2622 
Q 2975 2850 2975 3272 
Q 2975 3691 2734 3919 
Q 2494 4147 2053 4147 
L 1259 4147 
z
M 628 4666 
L 2053 4666 
Q 2838 4666 3239 4311 
Q 3641 3956 3641 3272 
Q 3641 2581 3239 2228 
Q 2838 1875 2053 1875 
L 1259 1875 
L 1259 0 
L 628 0 
L 628 4666 
z
" transform="scale(0.015625)"/>
       <path id="DejaVuSans-6f" d="M 1959 3097 
Q 1497 3097 1228 2736 
Q 959 2375 959 1747 
Q 959 1119 1226 758 
Q 1494 397 1959 397 
Q 2419 397 2687 759 
Q 2956 1122 2956 1747 
Q 2956 2369 2687 2733 
Q 2419 3097 1959 3097 
z
M 1959 3584 
Q 2709 3584 3137 3096 
Q 3566 2609 3566 1747 
Q 3566 888 3137 398 
Q 2709 -91 1959 -91 
Q 1206 -91 779 398 
Q 353 888 353 1747 
Q 353 2609 779 3096 
Q 1206 3584 1959 3584 
z
" transform="scale(0.015625)"/>
       <path id="DejaVuSans-6e" d="M 3513 2113 
L 3513 0 
L 2938 0 
L 2938 2094 
Q 2938 2591 2744 2837 
Q 2550 3084 2163 3084 
Q 1697 3084 1428 2787 
Q 1159 2491 1159 1978 
L 1159 0 
L 581 0 
L 581 3500 
L 1159 3500 
L 1159 2956 
Q 1366 3272 1645 3428 
Q 1925 3584 2291 3584 
Q 2894 3584 3203 3211 
Q 3513 2838 3513 2113 
z
" transform="scale(0.015625)"/>
      </defs>
      <use xlink:href="#DejaVuSans-50"/>
      <use xlink:href="#DejaVuSans-6f" x="56.677734"/>
      <use xlink:href="#DejaVuSans-73" x="117.859375"/>
      <use xlink:href="#DejaVuSans-69" x="169.958984"/>
      <use xlink:href="#DejaVuSans-74" x="197.742188"/>
      <use xlink:href="#DejaVuSans-69" x="236.951172"/>
      <use xlink:href="#DejaVuSans-6f" x="264.734375"/>
      <use xlink:href="#DejaVuSans-6e" x="325.916016"/>
      <use xlink:href="#DejaVuSans-20" x="389.294922"/>
      <use xlink:href="#DejaVuSans-6d" x="421.082031"/>
     </g>
    </g>
   </g>
   <g id="line2d_31">
    <path d="M 101.528926 231.589494 
L 103.777066 231.700973 
L 106.036736 232.036856 
L 108.319463 232.602551 
L 110.636777 233.407385 
L 113.011736 234.469898 
L 115.455868 235.80991 
L 117.980702 237.450458 
L 120.609298 239.426694 
L 123.364711 241.78107 
L 126.258471 244.551105 
L 129.325165 247.800523 
L 132.59938 251.601251 
L 136.127231 256.045176 
L 139.977893 261.261497 
L 144.30124 267.503515 
L 149.373967 275.234284 
L 156.141446 285.986272 
L 170.414256 308.757933 
L 175.590744 316.528119 
L 179.960207 322.6963 
L 183.845455 327.805208 
L 187.396364 332.114148 
L 190.682107 335.758627 
L 193.760331 338.847388 
L 196.66562 341.453588 
L 199.421033 343.632838 
L 202.061157 345.442196 
L 204.597521 346.914679 
L 207.041653 348.08072 
L 209.416612 348.970872 
L 211.733926 349.605021 
L 214.016653 350.000899 
L 216.276322 350.16753 
L 218.524463 350.110398 
L 220.772603 349.831004 
L 223.043802 349.324126 
L 225.349587 348.58062 
L 227.713017 347.582181 
L 230.134091 346.315844 
L 232.635868 344.753997 
L 235.241405 342.861589 
L 237.962231 340.606064 
L 240.821405 337.941668 
L 243.841983 334.817351 
L 247.058554 331.164155 
L 250.517231 326.89196 
L 254.275661 321.888436 
L 258.460661 315.936796 
L 263.30281 308.649989 
L 269.447727 298.975771 
L 287.674959 270.017167 
L 292.49405 262.932941 
L 296.667521 257.182805 
L 300.414421 252.389617 
L 303.86157 248.333251 
L 307.066612 244.897667 
L 310.075661 241.99099 
L 312.923306 239.54303 
L 315.644132 237.492947 
L 318.249669 235.804556 
L 320.751446 234.444776 
L 323.172521 233.378766 
L 325.524421 232.583004 
L 327.830207 232.035322 
L 330.101405 231.722992 
L 332.107438 231.635658 
L 332.107438 231.635658 
" clip-path="url(#p7311357955)" style="fill: none; stroke: #1f77b4; stroke-width: 1.5; stroke-linecap: square"/>
   </g>
   <g id="line2d_32">
    <path d="M 101.528926 290.884598 
L 111.720496 274.628196 
L 117.116033 266.449783 
L 121.589256 260.061591 
L 125.543678 254.791901 
L 129.140702 250.360542 
L 132.472562 246.602139 
L 135.585372 243.419806 
L 138.525248 240.727274 
L 141.315248 238.469406 
L 143.966901 236.603937 
L 146.514793 235.078466 
L 148.970455 233.862615 
L 151.356942 232.92574 
L 153.685785 232.2476 
L 155.968512 231.811953 
L 158.228182 231.605643 
L 160.476322 231.622996 
L 162.724463 231.862528 
L 164.995661 232.329285 
L 167.301446 233.032462 
L 169.653347 233.984827 
L 172.062893 235.202622 
L 174.55314 236.713255 
L 177.13562 238.543221 
L 179.833388 240.731245 
L 182.669504 243.323192 
L 185.655496 246.358596 
L 188.837479 249.916775 
L 192.250041 254.07389 
L 195.950826 258.940185 
L 200.055124 264.714229 
L 204.758926 271.729026 
L 210.581033 280.833061 
L 231.667438 314.195694 
L 236.244421 320.792812 
L 240.268017 326.211379 
L 243.911157 330.753103 
L 247.277603 334.60185 
L 250.413471 337.856741 
L 253.376405 340.617238 
L 256.177934 342.92905 
L 258.852645 344.852918 
L 261.423595 346.432144 
L 263.902314 347.696959 
L 266.300331 348.674096 
L 268.640702 349.390116 
L 270.934959 349.860809 
L 273.194628 350.098733 
L 275.442769 350.11258 
L 277.690909 349.904177 
L 279.962107 349.468905 
L 282.256364 348.801272 
L 284.596736 347.887058 
L 286.994752 346.709637 
L 289.473471 345.242148 
L 292.044421 343.45794 
L 294.730661 341.318136 
L 297.543719 338.787834 
L 300.506653 335.818371 
L 303.65405 332.343461 
L 307.032025 328.27549 
L 310.686694 323.518436 
L 314.721818 317.891661 
L 319.32186 311.082651 
L 324.913388 302.388924 
L 332.107438 290.839019 
L 332.107438 290.839019 
" clip-path="url(#p7311357955)" style="fill: none; stroke: #ff7f0e; stroke-width: 1.5; stroke-linecap: square"/>
   </g>
   <g id="patch_13">
    <path d="M 90 356.103529 
L 90 225.656471 
" style="fill: none; stroke: #000000; stroke-width: 0.8; stroke-linejoin: miter; stroke-linecap: square"/>
   </g>
   <g id="patch_14">
    <path d="M 343.636364 356.103529 
L 343.636364 225.656471 
" style="fill: none; stroke: #000000; stroke-width: 0.8; stroke-linejoin: miter; stroke-linecap: square"/>
   </g>
   <g id="patch_15">
    <path d="M 90 356.103529 
L 343.636364 356.103529 
" style="fill: none; stroke: #000000; stroke-width: 0.8; stroke-linejoin: miter; stroke-linecap: square"/>
   </g>
   <g id="patch_16">
    <path d="M 90 225.656471 
L 343.636364 225.656471 
" style="fill: none; stroke: #000000; stroke-width: 0.8; stroke-linejoin: miter; stroke-linecap: square"/>
   </g>
   <g id="legend_1">
    <g id="patch_17">
     <path d="M 97 351.103529 
L 156.96875 351.103529 
Q 158.96875 351.103529 158.96875 349.103529 
L 158.96875 320.747279 
Q 158.96875 318.747279 156.96875 318.747279 
L 97 318.747279 
Q 95 318.747279 95 320.747279 
L 95 349.103529 
Q 95 351.103529 97 351.103529 
z
" style="fill: #ffffff; opacity: 0.8; stroke: #cccccc; stroke-linejoin: miter"/>
    </g>
    <g id="line2d_33">
     <path d="M 99 326.845717 
L 109 326.845717 
L 119 326.845717 
" style="fill: none; stroke: #1f77b4; stroke-width: 1.5; stroke-linecap: square"/>
    </g>
    <g id="text_33">
     <!-- North -->
     <g transform="translate(127 330.345717) scale(0.1 -0.1)">
      <defs>
       <path id="DejaVuSans-4e" d="M 628 4666 
L 1478 4666 
L 3547 763 
L 3547 4666 
L 4159 4666 
L 4159 0 
L 3309 0 
L 1241 3903 
L 1241 0 
L 628 0 
L 628 4666 
z
" transform="scale(0.015625)"/>
      </defs>
      <use xlink:href="#DejaVuSans-4e"/>
      <use xlink:href="#DejaVuSans-6f" x="74.804688"/>
      <use xlink:href="#DejaVuSans-72" x="135.986328"/>
      <use xlink:href="#DejaVuSans-74" x="177.099609"/>
      <use xlink:href="#DejaVuSans-68" x="216.308594"/>
     </g>
    </g>
    <g id="line2d_34">
     <path d="M 99 341.523842 
L 109 341.523842 
L 119 341.523842 
" style="fill: none; stroke: #ff7f0e; stroke-width: 1.5; stroke-linecap: square"/>
    </g>
    <g id="text_34">
     <!-- East -->
     <g transform="translate(127 345.023842) scale(0.1 -0.1)">
      <use xlink:href="#DejaVuSans-45"/>
      <use xlink:href="#DejaVuSans-61" x="63.183594"/>
      <use xlink:href="#DejaVuSans-73" x="124.462891"/>
      <use xlink:href="#DejaVuSans-74" x="176.5625"/>
     </g>
    </g>
   </g>
  </g>
  <g id="axes_4">
   <g id="patch_18">
    <path d="M 394.363636 356.103529 
L 648 356.103529 
L 648 225.656471 
L 394.363636 225.656471 
z
" style="fill: #ffffff"/>
   </g>
   <g id="matplotlib.axis_7">
    <g id="xtick_16">
     <g id="line2d_35">
      <g>
       <use xlink:href="#m15af0f1692" x="405.892562" y="356.103529" style="stroke: #000000; stroke-width: 0.8"/>
      </g>
     </g>
     <g id="text_35">
      <!-- 0 -->
      <g transform="translate(402.711312 370.701967) scale(0.1 -0.1)">
       <use xlink:href="#DejaVuSans-30"/>
      </g>
     </g>
    </g>
    <g id="xtick_17">
     <g id="line2d_36">
      <g>
       <use xlink:href="#m15af0f1692" x="463.53719" y="356.103529" style="stroke: #000000; stroke-width: 0.8"/>
      </g>
     </g>
     <g id="text_36">
      <!-- 50 -->
      <g transform="translate(457.17469 370.701967) scale(0.1 -0.1)">
       <use xlink:href="#DejaVuSans-35"/>
       <use xlink:href="#DejaVuSans-30" x="63.623047"/>
      </g>
     </g>
    </g>
    <g id="xtick_18">
     <g id="line2d_37">
      <g>
       <use xlink:href="#m15af0f1692" x="521.181818" y="356.103529" style="stroke: #000000; stroke-width: 0.8"/>
      </g>
     </g>
     <g id="text_37">
      <!-- 100 -->
      <g transform="translate(511.638068 370.701967) scale(0.1 -0.1)">
       <use xlink:href="#DejaVuSans-31"/>
       <use xlink:href="#DejaVuSans-30" x="63.623047"/>
       <use xlink:href="#DejaVuSans-30" x="127.246094"/>
      </g>
     </g>
    </g>
    <g id="xtick_19">
     <g id="line2d_38">
      <g>
       <use xlink:href="#m15af0f1692" x="578.826446" y="356.103529" style="stroke: #000000; stroke-width: 0.8"/>
      </g>
     </g>
     <g id="text_38">
      <!-- 150 -->
      <g transform="translate(569.282696 370.701967) scale(0.1 -0.1)">
       <use xlink:href="#DejaVuSans-31"/>
       <use xlink:href="#DejaVuSans-35" x="63.623047"/>
       <use xlink:href="#DejaVuSans-30" x="127.246094"/>
      </g>
     </g>
    </g>
    <g id="xtick_20">
     <g id="line2d_39">
      <g>
       <use xlink:href="#m15af0f1692" x="636.471074" y="356.103529" style="stroke: #000000; stroke-width: 0.8"/>
      </g>
     </g>
     <g id="text_39">
      <!-- 200 -->
      <g transform="translate(626.927324 370.701967) scale(0.1 -0.1)">
       <use xlink:href="#DejaVuSans-32"/>
       <use xlink:href="#DejaVuSans-30" x="63.623047"/>
       <use xlink:href="#DejaVuSans-30" x="127.246094"/>
      </g>
     </g>
    </g>
   </g>
   <g id="matplotlib.axis_8">
    <g id="ytick_14">
     <g id="line2d_40">
      <g>
       <use xlink:href="#m60e5645051" x="394.363636" y="338.315294" style="stroke: #000000; stroke-width: 0.8"/>
      </g>
     </g>
     <g id="text_40">
      <!-- −400 -->
      <g transform="translate(359.896449 342.114513) scale(0.1 -0.1)">
       <use xlink:href="#DejaVuSans-2212"/>
       <use xlink:href="#DejaVuSans-34" x="83.789062"/>
       <use xlink:href="#DejaVuSans-30" x="147.412109"/>
       <use xlink:href="#DejaVuSans-30" x="211.035156"/>
      </g>
     </g>
    </g>
    <g id="ytick_15">
     <g id="line2d_41">
      <g>
       <use xlink:href="#m60e5645051" x="394.363636" y="314.597647" style="stroke: #000000; stroke-width: 0.8"/>
      </g>
     </g>
     <g id="text_41">
      <!-- −200 -->
      <g transform="translate(359.896449 318.396866) scale(0.1 -0.1)">
       <use xlink:href="#DejaVuSans-2212"/>
       <use xlink:href="#DejaVuSans-32" x="83.789062"/>
       <use xlink:href="#DejaVuSans-30" x="147.412109"/>
       <use xlink:href="#DejaVuSans-30" x="211.035156"/>
      </g>
     </g>
    </g>
    <g id="ytick_16">
     <g id="line2d_42">
      <g>
       <use xlink:href="#m60e5645051" x="394.363636" y="290.88" style="stroke: #000000; stroke-width: 0.8"/>
      </g>
     </g>
     <g id="text_42">
      <!-- 0 -->
      <g transform="translate(381.001136 294.679219) scale(0.1 -0.1)">
       <use xlink:href="#DejaVuSans-30"/>
      </g>
     </g>
    </g>
    <g id="ytick_17">
     <g id="line2d_43">
      <g>
       <use xlink:href="#m60e5645051" x="394.363636" y="267.162353" style="stroke: #000000; stroke-width: 0.8"/>
      </g>
     </g>
     <g id="text_43">
      <!-- 200 -->
      <g transform="translate(368.276136 270.961572) scale(0.1 -0.1)">
       <use xlink:href="#DejaVuSans-32"/>
       <use xlink:href="#DejaVuSans-30" x="63.623047"/>
       <use xlink:href="#DejaVuSans-30" x="127.246094"/>
      </g>
     </g>
    </g>
    <g id="ytick_18">
     <g id="line2d_44">
      <g>
       <use xlink:href="#m60e5645051" x="394.363636" y="243.444706" style="stroke: #000000; stroke-width: 0.8"/>
      </g>
     </g>
     <g id="text_44">
      <!-- 400 -->
      <g transform="translate(368.276136 247.243925) scale(0.1 -0.1)">
       <use xlink:href="#DejaVuSans-34"/>
       <use xlink:href="#DejaVuSans-30" x="63.623047"/>
       <use xlink:href="#DejaVuSans-30" x="127.246094"/>
      </g>
     </g>
    </g>
   </g>
   <g id="line2d_45">
    <path d="M 405.892562 231.585882 
L 408.140702 231.697111 
L 410.400372 232.032657 
L 412.683099 232.598097 
L 415.000413 233.402674 
L 417.375372 234.464962 
L 419.819504 235.804757 
L 422.344339 237.445152 
L 424.972934 239.421471 
L 427.728347 241.776252 
L 430.622107 244.54689 
L 433.688802 247.796974 
L 436.963017 251.59828 
L 440.490868 256.042864 
L 444.353058 261.275971 
L 448.676405 267.51966 
L 453.749132 275.251849 
L 460.52814 286.023591 
L 474.766364 308.741666 
L 479.942851 316.513208 
L 484.312314 322.682827 
L 488.197562 327.793076 
L 491.736942 332.089994 
L 495.022686 335.736941 
L 498.100909 338.828041 
L 501.006198 341.436546 
L 503.77314 343.626617 
L 506.413264 345.437042 
L 508.949628 346.910589 
L 511.39376 348.077494 
L 513.768719 348.968454 
L 516.086033 349.603391 
L 518.36876 349.999998 
L 520.62843 350.167376 
L 522.87657 350.1109 
L 525.124711 349.832205 
L 527.395909 349.326069 
L 529.701694 348.583306 
L 532.065124 347.585667 
L 534.486198 346.319947 
L 536.987975 344.7587 
L 539.593512 342.86673 
L 542.314339 340.611613 
L 545.173512 337.947633 
L 548.194091 334.823424 
L 551.410661 331.16991 
L 554.869339 326.897103 
L 558.639298 321.876973 
L 562.824298 315.923769 
L 567.666446 308.635059 
L 573.811364 298.957893 
L 592.038595 269.990739 
L 596.869215 262.887884 
L 601.042686 257.136985 
L 604.789587 252.343229 
L 608.236736 248.286374 
L 611.441777 244.850658 
L 614.450826 241.943933 
L 617.298471 239.495671 
L 620.019298 237.445152 
L 622.624835 235.756584 
L 625.126612 234.396555 
L 627.547686 233.330187 
L 629.899587 232.534017 
L 632.205372 231.986007 
L 634.47657 231.673434 
L 636.471074 231.585882 
L 636.471074 231.585882 
" clip-path="url(#pf37df103cd)" style="fill: none; stroke: #1f77b4; stroke-width: 1.5; stroke-linecap: square"/>
   </g>
   <g id="line2d_46">
    <path d="M 405.892562 290.88 
L 416.084132 274.623887 
L 421.479669 266.445669 
L 425.952893 260.057889 
L 429.907314 254.788955 
L 433.504339 250.358329 
L 436.836198 246.600488 
L 439.949008 243.418703 
L 442.888884 240.726689 
L 445.678884 238.469183 
L 448.342066 236.596582 
L 450.889959 235.0724 
L 453.357149 233.852697 
L 455.743636 232.917998 
L 458.072479 232.242081 
L 460.355207 231.808637 
L 462.614876 231.604608 
L 464.863017 231.624575 
L 467.111157 231.866853 
L 469.382355 232.336431 
L 471.68814 233.042461 
L 474.040041 233.99774 
L 476.449587 235.218604 
L 478.939835 236.732351 
L 481.522314 238.56532 
L 484.220083 240.756522 
L 487.056198 243.351793 
L 490.04219 246.390509 
L 493.224174 249.952162 
L 496.636736 254.112885 
L 500.34905 258.998604 
L 504.453347 264.777468 
L 509.157149 271.797013 
L 514.990785 280.924255 
L 535.97343 314.137572 
L 540.561942 320.757985 
L 544.585537 326.182759 
L 548.228678 330.730541 
L 551.595124 334.585021 
L 554.742521 337.856852 
L 557.705455 340.621754 
L 560.518512 342.94715 
L 563.193223 344.874763 
L 565.764174 346.457473 
L 568.242893 347.725311 
L 570.640909 348.705203 
L 572.981281 349.423569 
L 575.275537 349.896758 
L 577.535207 350.137417 
L 579.783347 350.153961 
L 582.031488 349.948125 
L 584.291157 349.517919 
L 586.585413 348.853756 
L 588.925785 347.942875 
L 591.323802 346.768949 
L 593.802521 345.304846 
L 596.373471 343.524135 
L 599.048182 341.397574 
L 601.86124 338.871838 
L 604.824174 335.907056 
L 607.97157 332.436844 
L 611.338017 328.38769 
L 614.992686 323.635952 
L 619.02781 318.014508 
L 623.616322 311.22784 
L 629.196322 302.557307 
L 636.471074 290.88 
L 636.471074 290.88 
" clip-path="url(#pf37df103cd)" style="fill: none; stroke: #ff7f0e; stroke-width: 1.5; stroke-linecap: square"/>
   </g>
   <g id="patch_19">
    <path d="M 394.363636 356.103529 
L 394.363636 225.656471 
" style="fill: none; stroke: #000000; stroke-width: 0.8; stroke-linejoin: miter; stroke-linecap: square"/>
   </g>
   <g id="patch_20">
    <path d="M 648 356.103529 
L 648 225.656471 
" style="fill: none; stroke: #000000; stroke-width: 0.8; stroke-linejoin: miter; stroke-linecap: square"/>
   </g>
   <g id="patch_21">
    <path d="M 394.363636 356.103529 
L 648 356.103529 
" style="fill: none; stroke: #000000; stroke-width: 0.8; stroke-linejoin: miter; stroke-linecap: square"/>
   </g>
   <g id="patch_22">
    <path d="M 394.363636 225.656471 
L 648 225.656471 
" style="fill: none; stroke: #000000; stroke-width: 0.8; stroke-linejoin: miter; stroke-linecap: square"/>
   </g>
   <g id="legend_2">
    <g id="patch_23">
     <path d="M 401.363636 351.103529 
L 461.332386 351.103529 
Q 463.332386 351.103529 463.332386 349.103529 
L 463.332386 320.747279 
Q 463.332386 318.747279 461.332386 318.747279 
L 401.363636 318.747279 
Q 399.363636 318.747279 399.363636 320.747279 
L 399.363636 349.103529 
Q 399.363636 351.103529 401.363636 351.103529 
z
" style="fill: #ffffff; opacity: 0.8; stroke: #cccccc; stroke-linejoin: miter"/>
    </g>
    <g id="line2d_47">
     <path d="M 403.363636 326.845717 
L 413.363636 326.845717 
L 423.363636 326.845717 
" style="fill: none; stroke: #1f77b4; stroke-width: 1.5; stroke-linecap: square"/>
    </g>
    <g id="text_45">
     <!-- North -->
     <g transform="translate(431.363636 330.345717) scale(0.1 -0.1)">
      <use xlink:href="#DejaVuSans-4e"/>
      <use xlink:href="#DejaVuSans-6f" x="74.804688"/>
      <use xlink:href="#DejaVuSans-72" x="135.986328"/>
      <use xlink:href="#DejaVuSans-74" x="177.099609"/>
      <use xlink:href="#DejaVuSans-68" x="216.308594"/>
     </g>
    </g>
    <g id="line2d_48">
     <path d="M 403.363636 341.523842 
L 413.363636 341.523842 
L 423.363636 341.523842 
" style="fill: none; stroke: #ff7f0e; stroke-width: 1.5; stroke-linecap: square"/>
    </g>
    <g id="text_46">
     <!-- East -->
     <g transform="translate(431.363636 345.023842) scale(0.1 -0.1)">
      <use xlink:href="#DejaVuSans-45"/>
      <use xlink:href="#DejaVuSans-61" x="63.183594"/>
      <use xlink:href="#DejaVuSans-73" x="124.462891"/>
      <use xlink:href="#DejaVuSans-74" x="176.5625"/>
     </g>
    </g>
   </g>
  </g>
  <g id="axes_5">
   <g id="patch_24">
    <path d="M 90 512.64 
L 343.636364 512.64 
L 343.636364 382.192941 
L 90 382.192941 
z
" style="fill: #ffffff"/>
   </g>
   <g id="matplotlib.axis_9">
    <g id="xtick_21">
     <g id="line2d_49">
      <g>
       <use xlink:href="#m15af0f1692" x="101.528926" y="512.64" style="stroke: #000000; stroke-width: 0.8"/>
      </g>
     </g>
     <g id="text_47">
      <!-- 0 -->
      <g transform="translate(98.347676 527.238438) scale(0.1 -0.1)">
       <use xlink:href="#DejaVuSans-30"/>
      </g>
     </g>
    </g>
    <g id="xtick_22">
     <g id="line2d_50">
      <g>
       <use xlink:href="#m15af0f1692" x="159.173554" y="512.64" style="stroke: #000000; stroke-width: 0.8"/>
      </g>
     </g>
     <g id="text_48">
      <!-- 50 -->
      <g transform="translate(152.811054 527.238438) scale(0.1 -0.1)">
       <use xlink:href="#DejaVuSans-35"/>
       <use xlink:href="#DejaVuSans-30" x="63.623047"/>
      </g>
     </g>
    </g>
    <g id="xtick_23">
     <g id="line2d_51">
      <g>
       <use xlink:href="#m15af0f1692" x="216.818182" y="512.64" style="stroke: #000000; stroke-width: 0.8"/>
      </g>
     </g>
     <g id="text_49">
      <!-- 100 -->
      <g transform="translate(207.274432 527.238438) scale(0.1 -0.1)">
       <use xlink:href="#DejaVuSans-31"/>
       <use xlink:href="#DejaVuSans-30" x="63.623047"/>
       <use xlink:href="#DejaVuSans-30" x="127.246094"/>
      </g>
     </g>
    </g>
    <g id="xtick_24">
     <g id="line2d_52">
      <g>
       <use xlink:href="#m15af0f1692" x="274.46281" y="512.64" style="stroke: #000000; stroke-width: 0.8"/>
      </g>
     </g>
     <g id="text_50">
      <!-- 150 -->
      <g transform="translate(264.91906 527.238438) scale(0.1 -0.1)">
       <use xlink:href="#DejaVuSans-31"/>
       <use xlink:href="#DejaVuSans-35" x="63.623047"/>
       <use xlink:href="#DejaVuSans-30" x="127.246094"/>
      </g>
     </g>
    </g>
    <g id="xtick_25">
     <g id="line2d_53">
      <g>
       <use xlink:href="#m15af0f1692" x="332.107438" y="512.64" style="stroke: #000000; stroke-width: 0.8"/>
      </g>
     </g>
     <g id="text_51">
      <!-- 200 -->
      <g transform="translate(322.563688 527.238438) scale(0.1 -0.1)">
       <use xlink:href="#DejaVuSans-32"/>
       <use xlink:href="#DejaVuSans-30" x="63.623047"/>
       <use xlink:href="#DejaVuSans-30" x="127.246094"/>
      </g>
     </g>
    </g>
   </g>
   <g id="matplotlib.axis_10">
    <g id="ytick_19">
     <g id="line2d_54">
      <g>
       <use xlink:href="#m60e5645051" x="90" y="485.168193" style="stroke: #000000; stroke-width: 0.8"/>
      </g>
     </g>
     <g id="text_52">
      <!-- −10 -->
      <g transform="translate(61.895313 488.967412) scale(0.1 -0.1)">
       <use xlink:href="#DejaVuSans-2212"/>
       <use xlink:href="#DejaVuSans-31" x="83.789062"/>
       <use xlink:href="#DejaVuSans-30" x="147.412109"/>
      </g>
     </g>
    </g>
    <g id="ytick_20">
     <g id="line2d_55">
      <g>
       <use xlink:href="#m60e5645051" x="90" y="447.419372" style="stroke: #000000; stroke-width: 0.8"/>
      </g>
     </g>
     <g id="text_53">
      <!-- 0 -->
      <g transform="translate(76.6375 451.218591) scale(0.1 -0.1)">
       <use xlink:href="#DejaVuSans-30"/>
      </g>
     </g>
    </g>
    <g id="ytick_21">
     <g id="line2d_56">
      <g>
       <use xlink:href="#m60e5645051" x="90" y="409.670551" style="stroke: #000000; stroke-width: 0.8"/>
      </g>
     </g>
     <g id="text_54">
      <!-- 10 -->
      <g transform="translate(70.275 413.46977) scale(0.1 -0.1)">
       <use xlink:href="#DejaVuSans-31"/>
       <use xlink:href="#DejaVuSans-30" x="63.623047"/>
      </g>
     </g>
    </g>
    <g id="text_55">
     <!-- Velocity m/s -->
     <g transform="translate(15.095937 444.920846) scale(0.12 -0.12)">
      <defs>
       <path id="DejaVuSans-56" d="M 1831 0 
L 50 4666 
L 709 4666 
L 2188 738 
L 3669 4666 
L 4325 4666 
L 2547 0 
L 1831 0 
z
" transform="scale(0.015625)"/>
       <path id="DejaVuSans-6c" d="M 603 4863 
L 1178 4863 
L 1178 0 
L 603 0 
L 603 4863 
z
" transform="scale(0.015625)"/>
       <path id="DejaVuSans-63" d="M 3122 3366 
L 3122 2828 
Q 2878 2963 2633 3030 
Q 2388 3097 2138 3097 
Q 1578 3097 1268 2742 
Q 959 2388 959 1747 
Q 959 1106 1268 751 
Q 1578 397 2138 397 
Q 2388 397 2633 464 
Q 2878 531 3122 666 
L 3122 134 
Q 2881 22 2623 -34 
Q 2366 -91 2075 -91 
Q 1284 -91 818 406 
Q 353 903 353 1747 
Q 353 2603 823 3093 
Q 1294 3584 2113 3584 
Q 2378 3584 2631 3529 
Q 2884 3475 3122 3366 
z
" transform="scale(0.015625)"/>
       <path id="DejaVuSans-79" d="M 2059 -325 
Q 1816 -950 1584 -1140 
Q 1353 -1331 966 -1331 
L 506 -1331 
L 506 -850 
L 844 -850 
Q 1081 -850 1212 -737 
Q 1344 -625 1503 -206 
L 1606 56 
L 191 3500 
L 800 3500 
L 1894 763 
L 2988 3500 
L 3597 3500 
L 2059 -325 
z
" transform="scale(0.015625)"/>
       <path id="DejaVuSans-2f" d="M 1625 4666 
L 2156 4666 
L 531 -594 
L 0 -594 
L 1625 4666 
z
" transform="scale(0.015625)"/>
      </defs>
      <use xlink:href="#DejaVuSans-56"/>
      <use xlink:href="#DejaVuSans-65" x="60.658203"/>
      <use xlink:href="#DejaVuSans-6c" x="122.181641"/>
      <use xlink:href="#DejaVuSans-6f" x="149.964844"/>
      <use xlink:href="#DejaVuSans-63" x="211.146484"/>
      <use xlink:href="#DejaVuSans-69" x="266.126953"/>
      <use xlink:href="#DejaVuSans-74" x="293.910156"/>
      <use xlink:href="#DejaVuSans-79" x="333.119141"/>
      <use xlink:href="#DejaVuSans-20" x="392.298828"/>
      <use xlink:href="#DejaVuSans-6d" x="424.085938"/>
      <use xlink:href="#DejaVuSans-2f" x="521.498047"/>
      <use xlink:href="#DejaVuSans-73" x="555.189453"/>
     </g>
    </g>
   </g>
   <g id="line2d_57">
    <path d="M 101.528926 447.419372 
L 111.086405 462.69047 
L 116.447355 470.868034 
L 120.620826 476.892657 
L 125.486033 483.428462 
L 129.555744 488.421821 
L 133.083595 492.343516 
L 136.219463 495.480444 
L 139.216983 498.155462 
L 141.972397 500.311375 
L 144.796983 502.218748 
L 147.229587 503.596488 
L 149.604545 504.706261 
L 151.944917 505.563995 
L 154.296818 506.18789 
L 156.568017 506.561283 
L 158.804628 506.707596 
L 161.052769 506.63288 
L 163.300909 506.335924 
L 165.54905 505.81809 
L 167.877893 505.050997 
L 170.287438 504.012884 
L 172.777686 502.683495 
L 175.141116 501.185899 
L 177.746653 499.27817 
L 180.040909 497.381604 
L 183.049959 494.599174 
L 185.886074 491.683902 
L 188.653017 488.590107 
L 191.846529 484.727011 
L 195.143802 480.440301 
L 198.948347 475.166143 
L 203.237107 468.867254 
L 207.341405 462.56656 
L 214.731446 450.794202 
L 229.142603 427.886369 
L 235.379752 418.698366 
L 239.518636 413.044427 
L 243.265537 408.304665 
L 246.689628 404.327484 
L 250.079132 400.757426 
L 252.938306 398.052342 
L 255.90124 395.562925 
L 258.333843 393.77151 
L 261.031612 392.066247 
L 263.544917 390.745941 
L 265.850702 389.767407 
L 268.329421 388.968952 
L 270.669793 388.458846 
L 272.917934 388.194667 
L 275.166074 388.152976 
L 277.414215 388.333671 
L 279.650826 388.733338 
L 281.887438 389.350865 
L 284.250868 390.238021 
L 286.441364 391.272524 
L 288.94314 392.697483 
L 291.767727 394.61338 
L 294.200331 396.512091 
L 297.036446 399.008474 
L 299.89562 401.821676 
L 303.550289 405.814414 
L 306.743802 409.63898 
L 310.19095 414.092998 
L 314.133843 419.54801 
L 319.218099 427.039551 
L 323.910372 434.30806 
L 331.738512 446.845635 
L 332.107438 447.443574 
L 332.107438 447.443574 
" clip-path="url(#p5eb077a3db)" style="fill: none; stroke: #1f77b4; stroke-width: 1.5; stroke-linecap: square"/>
   </g>
   <g id="line2d_58">
    <path d="M 101.528926 388.123663 
L 103.777066 388.235012 
L 106.059793 388.574778 
L 108.296405 389.128894 
L 110.648306 389.944774 
L 112.931033 390.962313 
L 115.525041 392.384097 
L 118.107521 394.069886 
L 120.90905 396.19838 
L 123.975744 398.86776 
L 126.638926 401.463515 
L 129.786322 404.84464 
L 132.657025 408.201931 
L 135.400909 411.632443 
L 139.632025 417.312825 
L 144.070661 423.70021 
L 149.500785 431.971424 
L 157.651736 444.962053 
L 170.402727 465.270044 
L 177.331612 475.566872 
L 181.827893 481.730085 
L 186.116653 487.133758 
L 189.390868 490.896957 
L 192.549793 494.198545 
L 195.754835 497.196569 
L 198.856116 499.737237 
L 201.749876 501.769901 
L 204.240124 503.249281 
L 206.834132 504.51665 
L 209.174504 505.415466 
L 211.46876 506.068442 
L 213.72843 506.487108 
L 215.965041 506.680999 
L 218.213182 506.654178 
L 220.449793 506.406887 
L 222.651818 505.949411 
L 224.88843 505.268838 
L 227.205744 504.336805 
L 229.511529 503.186568 
L 231.898017 501.761695 
L 234.53814 499.919526 
L 237.270496 497.726599 
L 239.887562 495.362143 
L 243.12719 492.105159 
L 246.689628 488.121738 
L 249.848554 484.265741 
L 253.526281 479.432043 
L 258.218554 472.796565 
L 263.925372 464.205898 
L 272.09938 451.227775 
L 281.403223 436.271588 
L 289.26595 424.146714 
L 295.180289 415.696741 
L 299.607397 409.897443 
L 303.11219 405.690751 
L 306.190413 402.309098 
L 309.326281 399.190299 
L 312.139339 396.687587 
L 314.986983 394.458004 
L 317.615579 392.688293 
L 320.117355 391.259455 
L 322.480785 390.150823 
L 324.959504 389.243201 
L 327.299876 388.630479 
L 329.571074 388.263826 
L 331.830744 388.124046 
L 332.107438 388.122353 
L 332.107438 388.122353 
" clip-path="url(#p5eb077a3db)" style="fill: none; stroke: #ff7f0e; stroke-width: 1.5; stroke-linecap: square"/>
   </g>
   <g id="patch_25">
    <path d="M 90 512.64 
L 90 382.192941 
" style="fill: none; stroke: #000000; stroke-width: 0.8; stroke-linejoin: miter; stroke-linecap: square"/>
   </g>
   <g id="patch_26">
    <path d="M 343.636364 512.64 
L 343.636364 382.192941 
" style="fill: none; stroke: #000000; stroke-width: 0.8; stroke-linejoin: miter; stroke-linecap: square"/>
   </g>
   <g id="patch_27">
    <path d="M 90 512.64 
L 343.636364 512.64 
" style="fill: none; stroke: #000000; stroke-width: 0.8; stroke-linejoin: miter; stroke-linecap: square"/>
   </g>
   <g id="patch_28">
    <path d="M 90 382.192941 
L 343.636364 382.192941 
" style="fill: none; stroke: #000000; stroke-width: 0.8; stroke-linejoin: miter; stroke-linecap: square"/>
   </g>
   <g id="text_56">
    <!-- Time s -->
    <g transform="translate(197.105369 376.192941) scale(0.12 -0.12)">
     <use xlink:href="#DejaVuSans-54"/>
     <use xlink:href="#DejaVuSans-69" x="57.958984"/>
     <use xlink:href="#DejaVuSans-6d" x="85.742188"/>
     <use xlink:href="#DejaVuSans-65" x="183.154297"/>
     <use xlink:href="#DejaVuSans-20" x="244.677734"/>
     <use xlink:href="#DejaVuSans-73" x="276.464844"/>
    </g>
   </g>
   <g id="legend_3">
    <g id="patch_29">
     <path d="M 276.667614 507.64 
L 336.636364 507.64 
Q 338.636364 507.64 338.636364 505.64 
L 338.636364 477.28375 
Q 338.636364 475.28375 336.636364 475.28375 
L 276.667614 475.28375 
Q 274.667614 475.28375 274.667614 477.28375 
L 274.667614 505.64 
Q 274.667614 507.64 276.667614 507.64 
z
" style="fill: #ffffff; opacity: 0.8; stroke: #cccccc; stroke-linejoin: miter"/>
    </g>
    <g id="line2d_59">
     <path d="M 278.667614 483.382187 
L 288.667614 483.382187 
L 298.667614 483.382187 
" style="fill: none; stroke: #1f77b4; stroke-width: 1.5; stroke-linecap: square"/>
    </g>
    <g id="text_57">
     <!-- North -->
     <g transform="translate(306.667614 486.882187) scale(0.1 -0.1)">
      <use xlink:href="#DejaVuSans-4e"/>
      <use xlink:href="#DejaVuSans-6f" x="74.804688"/>
      <use xlink:href="#DejaVuSans-72" x="135.986328"/>
      <use xlink:href="#DejaVuSans-74" x="177.099609"/>
      <use xlink:href="#DejaVuSans-68" x="216.308594"/>
     </g>
    </g>
    <g id="line2d_60">
     <path d="M 278.667614 498.060313 
L 288.667614 498.060313 
L 298.667614 498.060313 
" style="fill: none; stroke: #ff7f0e; stroke-width: 1.5; stroke-linecap: square"/>
    </g>
    <g id="text_58">
     <!-- East -->
     <g transform="translate(306.667614 501.560313) scale(0.1 -0.1)">
      <use xlink:href="#DejaVuSans-45"/>
      <use xlink:href="#DejaVuSans-61" x="63.183594"/>
      <use xlink:href="#DejaVuSans-73" x="124.462891"/>
      <use xlink:href="#DejaVuSans-74" x="176.5625"/>
     </g>
    </g>
   </g>
  </g>
  <g id="axes_6">
   <g id="patch_30">
    <path d="M 394.363636 512.64 
L 648 512.64 
L 648 382.192941 
L 394.363636 382.192941 
z
" style="fill: #ffffff"/>
   </g>
   <g id="matplotlib.axis_11">
    <g id="xtick_26">
     <g id="line2d_61">
      <g>
       <use xlink:href="#m15af0f1692" x="405.892562" y="512.64" style="stroke: #000000; stroke-width: 0.8"/>
      </g>
     </g>
     <g id="text_59">
      <!-- 0 -->
      <g transform="translate(402.711312 527.238438) scale(0.1 -0.1)">
       <use xlink:href="#DejaVuSans-30"/>
      </g>
     </g>
    </g>
    <g id="xtick_27">
     <g id="line2d_62">
      <g>
       <use xlink:href="#m15af0f1692" x="463.53719" y="512.64" style="stroke: #000000; stroke-width: 0.8"/>
      </g>
     </g>
     <g id="text_60">
      <!-- 50 -->
      <g transform="translate(457.17469 527.238438) scale(0.1 -0.1)">
       <use xlink:href="#DejaVuSans-35"/>
       <use xlink:href="#DejaVuSans-30" x="63.623047"/>
      </g>
     </g>
    </g>
    <g id="xtick_28">
     <g id="line2d_63">
      <g>
       <use xlink:href="#m15af0f1692" x="521.181818" y="512.64" style="stroke: #000000; stroke-width: 0.8"/>
      </g>
     </g>
     <g id="text_61">
      <!-- 100 -->
      <g transform="translate(511.638068 527.238438) scale(0.1 -0.1)">
       <use xlink:href="#DejaVuSans-31"/>
       <use xlink:href="#DejaVuSans-30" x="63.623047"/>
       <use xlink:href="#DejaVuSans-30" x="127.246094"/>
      </g>
     </g>
    </g>
    <g id="xtick_29">
     <g id="line2d_64">
      <g>
       <use xlink:href="#m15af0f1692" x="578.826446" y="512.64" style="stroke: #000000; stroke-width: 0.8"/>
      </g>
     </g>
     <g id="text_62">
      <!-- 150 -->
      <g transform="translate(569.282696 527.238438) scale(0.1 -0.1)">
       <use xlink:href="#DejaVuSans-31"/>
       <use xlink:href="#DejaVuSans-35" x="63.623047"/>
       <use xlink:href="#DejaVuSans-30" x="127.246094"/>
      </g>
     </g>
    </g>
    <g id="xtick_30">
     <g id="line2d_65">
      <g>
       <use xlink:href="#m15af0f1692" x="636.471074" y="512.64" style="stroke: #000000; stroke-width: 0.8"/>
      </g>
     </g>
     <g id="text_63">
      <!-- 200 -->
      <g transform="translate(626.927324 527.238438) scale(0.1 -0.1)">
       <use xlink:href="#DejaVuSans-32"/>
       <use xlink:href="#DejaVuSans-30" x="63.623047"/>
       <use xlink:href="#DejaVuSans-30" x="127.246094"/>
      </g>
     </g>
    </g>
   </g>
   <g id="matplotlib.axis_12">
    <g id="ytick_22">
     <g id="line2d_66">
      <g>
       <use xlink:href="#m60e5645051" x="394.363636" y="485.164278" style="stroke: #000000; stroke-width: 0.8"/>
      </g>
     </g>
     <g id="text_64">
      <!-- −10 -->
      <g transform="translate(366.258949 488.963497) scale(0.1 -0.1)">
       <use xlink:href="#DejaVuSans-2212"/>
       <use xlink:href="#DejaVuSans-31" x="83.789062"/>
       <use xlink:href="#DejaVuSans-30" x="147.412109"/>
      </g>
     </g>
    </g>
    <g id="ytick_23">
     <g id="line2d_67">
      <g>
       <use xlink:href="#m60e5645051" x="394.363636" y="447.416471" style="stroke: #000000; stroke-width: 0.8"/>
      </g>
     </g>
     <g id="text_65">
      <!-- 0 -->
      <g transform="translate(381.001136 451.215689) scale(0.1 -0.1)">
       <use xlink:href="#DejaVuSans-30"/>
      </g>
     </g>
    </g>
    <g id="ytick_24">
     <g id="line2d_68">
      <g>
       <use xlink:href="#m60e5645051" x="394.363636" y="409.668663" style="stroke: #000000; stroke-width: 0.8"/>
      </g>
     </g>
     <g id="text_66">
      <!-- 10 -->
      <g transform="translate(374.638636 413.467882) scale(0.1 -0.1)">
       <use xlink:href="#DejaVuSans-31"/>
       <use xlink:href="#DejaVuSans-30" x="63.623047"/>
      </g>
     </g>
    </g>
   </g>
   <g id="line2d_69">
    <path d="M 405.892562 447.416471 
L 416.084132 463.672584 
L 421.479669 471.850801 
L 425.952893 478.238581 
L 429.907314 483.507516 
L 433.504339 487.938142 
L 436.836198 491.695983 
L 439.949008 494.877767 
L 442.888884 497.569781 
L 445.678884 499.827288 
L 448.342066 501.699888 
L 450.889959 503.224071 
L 453.357149 504.443774 
L 455.743636 505.378473 
L 458.072479 506.05439 
L 460.355207 506.487833 
L 462.614876 506.691863 
L 464.863017 506.671895 
L 467.111157 506.429617 
L 469.382355 505.960039 
L 471.68814 505.254009 
L 474.040041 504.298731 
L 476.449587 503.077866 
L 478.939835 501.564119 
L 481.522314 499.73115 
L 484.220083 497.539949 
L 487.056198 494.944678 
L 490.04219 491.905961 
L 493.224174 488.344309 
L 496.636736 484.183586 
L 500.34905 479.297866 
L 504.453347 473.519002 
L 509.157149 466.499457 
L 514.990785 457.372215 
L 535.97343 424.158899 
L 540.561942 417.538486 
L 544.585537 412.113711 
L 548.228678 407.56593 
L 551.595124 403.71145 
L 554.742521 400.439618 
L 557.705455 397.674716 
L 560.518512 395.349321 
L 563.193223 393.421707 
L 565.764174 391.838998 
L 568.242893 390.57116 
L 570.640909 389.591268 
L 572.981281 388.872902 
L 575.275537 388.399713 
L 577.535207 388.159053 
L 579.783347 388.142509 
L 582.031488 388.348346 
L 584.291157 388.778552 
L 586.585413 389.442715 
L 588.925785 390.353596 
L 591.323802 391.527522 
L 593.802521 392.991625 
L 596.373471 394.772336 
L 599.048182 396.898896 
L 601.86124 399.424633 
L 604.824174 402.389414 
L 607.97157 405.859627 
L 611.338017 409.908781 
L 614.992686 414.660519 
L 619.02781 420.281962 
L 623.616322 427.06863 
L 629.196322 435.739163 
L 636.471074 447.416471 
L 636.471074 447.416471 
" clip-path="url(#p643d6a6e8c)" style="fill: none; stroke: #1f77b4; stroke-width: 1.5; stroke-linecap: square"/>
   </g>
   <g id="line2d_70">
    <path d="M 405.892562 388.122353 
L 408.140702 388.233581 
L 410.400372 388.569128 
L 412.683099 389.134567 
L 415.000413 389.939145 
L 417.375372 391.001433 
L 419.819504 392.341227 
L 422.344339 393.981622 
L 424.972934 395.957941 
L 427.728347 398.312723 
L 430.622107 401.083361 
L 433.688802 404.333444 
L 436.963017 408.134751 
L 440.490868 412.579335 
L 444.353058 417.812441 
L 448.676405 424.05613 
L 453.749132 431.788319 
L 460.52814 442.560062 
L 474.766364 465.278136 
L 479.942851 473.049679 
L 484.312314 479.219297 
L 488.197562 484.329546 
L 491.736942 488.626465 
L 495.022686 492.273412 
L 498.100909 495.364512 
L 501.006198 497.973017 
L 503.77314 500.163087 
L 506.413264 501.973513 
L 508.949628 503.44706 
L 511.39376 504.613964 
L 513.768719 505.504925 
L 516.086033 506.139862 
L 518.36876 506.536468 
L 520.62843 506.703847 
L 522.87657 506.647371 
L 525.124711 506.368675 
L 527.395909 505.862539 
L 529.701694 505.119777 
L 532.065124 504.122137 
L 534.486198 502.856417 
L 536.987975 501.295171 
L 539.593512 499.403201 
L 542.314339 497.148083 
L 545.173512 494.484104 
L 548.194091 491.359895 
L 551.410661 487.70638 
L 554.869339 483.433573 
L 558.639298 478.413443 
L 562.824298 472.46024 
L 567.666446 465.171529 
L 573.811364 455.494364 
L 592.038595 426.527209 
L 596.869215 419.424355 
L 601.042686 413.673456 
L 604.789587 408.8797 
L 608.236736 404.822844 
L 611.441777 401.387128 
L 614.450826 398.480403 
L 617.298471 396.032142 
L 620.019298 393.981622 
L 622.624835 392.293054 
L 625.126612 390.933026 
L 627.547686 389.866658 
L 629.899587 389.070488 
L 632.205372 388.522478 
L 634.47657 388.209905 
L 636.471074 388.122353 
L 636.471074 388.122353 
" clip-path="url(#p643d6a6e8c)" style="fill: none; stroke: #ff7f0e; stroke-width: 1.5; stroke-linecap: square"/>
   </g>
   <g id="patch_31">
    <path d="M 394.363636 512.64 
L 394.363636 382.192941 
" style="fill: none; stroke: #000000; stroke-width: 0.8; stroke-linejoin: miter; stroke-linecap: square"/>
   </g>
   <g id="patch_32">
    <path d="M 648 512.64 
L 648 382.192941 
" style="fill: none; stroke: #000000; stroke-width: 0.8; stroke-linejoin: miter; stroke-linecap: square"/>
   </g>
   <g id="patch_33">
    <path d="M 394.363636 512.64 
L 648 512.64 
" style="fill: none; stroke: #000000; stroke-width: 0.8; stroke-linejoin: miter; stroke-linecap: square"/>
   </g>
   <g id="patch_34">
    <path d="M 394.363636 382.192941 
L 648 382.192941 
" style="fill: none; stroke: #000000; stroke-width: 0.8; stroke-linejoin: miter; stroke-linecap: square"/>
   </g>
   <g id="text_67">
    <!-- Time s -->
    <g transform="translate(501.469006 376.192941) scale(0.12 -0.12)">
     <use xlink:href="#DejaVuSans-54"/>
     <use xlink:href="#DejaVuSans-69" x="57.958984"/>
     <use xlink:href="#DejaVuSans-6d" x="85.742188"/>
     <use xlink:href="#DejaVuSans-65" x="183.154297"/>
     <use xlink:href="#DejaVuSans-20" x="244.677734"/>
     <use xlink:href="#DejaVuSans-73" x="276.464844"/>
    </g>
   </g>
   <g id="legend_4">
    <g id="patch_35">
     <path d="M 581.03125 507.64 
L 641 507.64 
Q 643 507.64 643 505.64 
L 643 477.28375 
Q 643 475.28375 641 475.28375 
L 581.03125 475.28375 
Q 579.03125 475.28375 579.03125 477.28375 
L 579.03125 505.64 
Q 579.03125 507.64 581.03125 507.64 
z
" style="fill: #ffffff; opacity: 0.8; stroke: #cccccc; stroke-linejoin: miter"/>
    </g>
    <g id="line2d_71">
     <path d="M 583.03125 483.382187 
L 593.03125 483.382187 
L 603.03125 483.382187 
" style="fill: none; stroke: #1f77b4; stroke-width: 1.5; stroke-linecap: square"/>
    </g>
    <g id="text_68">
     <!-- North -->
     <g transform="translate(611.03125 486.882187) scale(0.1 -0.1)">
      <use xlink:href="#DejaVuSans-4e"/>
      <use xlink:href="#DejaVuSans-6f" x="74.804688"/>
      <use xlink:href="#DejaVuSans-72" x="135.986328"/>
      <use xlink:href="#DejaVuSans-74" x="177.099609"/>
      <use xlink:href="#DejaVuSans-68" x="216.308594"/>
     </g>
    </g>
    <g id="line2d_72">
     <path d="M 583.03125 498.060313 
L 593.03125 498.060313 
L 603.03125 498.060313 
" style="fill: none; stroke: #ff7f0e; stroke-width: 1.5; stroke-linecap: square"/>
    </g>
    <g id="text_69">
     <!-- East -->
     <g transform="translate(611.03125 501.560313) scale(0.1 -0.1)">
      <use xlink:href="#DejaVuSans-45"/>
      <use xlink:href="#DejaVuSans-61" x="63.183594"/>
      <use xlink:href="#DejaVuSans-73" x="124.462891"/>
      <use xlink:href="#DejaVuSans-74" x="176.5625"/>
     </g>
    </g>
   </g>
  </g>
 </g>
 <defs>
  <clipPath id="p54b271e7b5">
   <rect x="90" y="69.12" width="253.636364" height="130.447059"/>
  </clipPath>
  <clipPath id="pe1e5bfefd5">
   <rect x="394.363636" y="69.12" width="253.636364" height="130.447059"/>
  </clipPath>
  <clipPath id="p7311357955">
   <rect x="90" y="225.656471" width="253.636364" height="130.447059"/>
  </clipPath>
  <clipPath id="pf37df103cd">
   <rect x="394.363636" y="225.656471" width="253.636364" height="130.447059"/>
  </clipPath>
  <clipPath id="p5eb077a3db">
   <rect x="90" y="382.192941" width="253.636364" height="130.447059"/>
  </clipPath>
  <clipPath id="p643d6a6e8c">
   <rect x="394.363636" y="382.192941" width="253.636364" height="130.447059"/>
  </clipPath>
 </defs>
</svg>
