<?xml version="1.0" encoding="utf-8" standalone="no"?>
<!DOCTYPE svg PUBLIC "-//W3C//DTD SVG 1.1//EN"
  "http://www.w3.org/Graphics/SVG/1.1/DTD/svg11.dtd">
<svg height="576pt" version="1.1" viewBox="0 0 720 576" width="720pt" xmlns="http://www.w3.org/2000/svg" xmlns:xlink="http://www.w3.org/1999/xlink">
 <metadata>
  <rdf:RDF xmlns:cc="http://creativecommons.org/ns#" xmlns:dc="http://purl.org/dc/elements/1.1/" xmlns:rdf="http://www.w3.org/1999/02/22-rdf-syntax-ns#">
   <cc:Work>
    <dc:type rdf:resource="http://purl.org/dc/dcmitype/StillImage"/>
    <dc:date>2024-04-14T16:01:30.222192</dc:date>
    <dc:format>image/svg+xml</dc:format>
    <dc:creator>
     <cc:Agent>
      <dc:title>Matplotlib v3.4.2, https://matplotlib.org/</dc:title>
     </cc:Agent>
    </dc:creator>
   </cc:Work>
  </rdf:RDF>
 </metadata>
 <defs>
  <style type="text/css">*{stroke-linecap:butt;stroke-linejoin:round;}</style>
 </defs>
 <g id="figure_1">
  <g id="patch_1">
   <path d="M 0 576 
L 720 576 
L 720 0 
L 0 0 
z
" style="fill:#ffffff;"/>
  </g>
  <g id="axes_1">
   <g id="patch_2">
    <path d="M 76.52 167.56 
L 702.72 167.56 
L 702.72 63.48 
L 76.52 63.48 
z
" style="fill:#ffffff;"/>
   </g>
   <g id="matplotlib.axis_1">
    <g id="xtick_1">
     <g id="line2d_1">
      <defs>
       <path d="M 0 0 
L 0 3.5 
" id="m06d07cc5d6" style="stroke:#000000;stroke-width:0.8;"/>
      </defs>
      <g>
       <use style="stroke:#000000;stroke-width:0.8;" x="104.983636" xlink:href="#m06d07cc5d6" y="167.56"/>
      </g>
     </g>
     <g id="text_1">
      <!-- 0 -->
      <g transform="translate(99.893636 186.7175)scale(0.16 -0.16)">
       <defs>
        <path d="M 2034 4250 
Q 1547 4250 1301 3770 
Q 1056 3291 1056 2328 
Q 1056 1369 1301 889 
Q 1547 409 2034 409 
Q 2525 409 2770 889 
Q 3016 1369 3016 2328 
Q 3016 3291 2770 3770 
Q 2525 4250 2034 4250 
z
M 2034 4750 
Q 2819 4750 3233 4129 
Q 3647 3509 3647 2328 
Q 3647 1150 3233 529 
Q 2819 -91 2034 -91 
Q 1250 -91 836 529 
Q 422 1150 422 2328 
Q 422 3509 836 4129 
Q 1250 4750 2034 4750 
z
" id="DejaVuSans-30" transform="scale(0.015625)"/>
       </defs>
       <use xlink:href="#DejaVuSans-30"/>
      </g>
     </g>
    </g>
    <g id="xtick_2">
     <g id="line2d_2">
      <g>
       <use style="stroke:#000000;stroke-width:0.8;" x="176.142727" xlink:href="#m06d07cc5d6" y="167.56"/>
      </g>
     </g>
     <g id="text_2">
      <!-- 25 -->
      <g transform="translate(165.962727 186.7175)scale(0.16 -0.16)">
       <defs>
        <path d="M 1228 531 
L 3431 531 
L 3431 0 
L 469 0 
L 469 531 
Q 828 903 1448 1529 
Q 2069 2156 2228 2338 
Q 2531 2678 2651 2914 
Q 2772 3150 2772 3378 
Q 2772 3750 2511 3984 
Q 2250 4219 1831 4219 
Q 1534 4219 1204 4116 
Q 875 4013 500 3803 
L 500 4441 
Q 881 4594 1212 4672 
Q 1544 4750 1819 4750 
Q 2544 4750 2975 4387 
Q 3406 4025 3406 3419 
Q 3406 3131 3298 2873 
Q 3191 2616 2906 2266 
Q 2828 2175 2409 1742 
Q 1991 1309 1228 531 
z
" id="DejaVuSans-32" transform="scale(0.015625)"/>
        <path d="M 691 4666 
L 3169 4666 
L 3169 4134 
L 1269 4134 
L 1269 2991 
Q 1406 3038 1543 3061 
Q 1681 3084 1819 3084 
Q 2600 3084 3056 2656 
Q 3513 2228 3513 1497 
Q 3513 744 3044 326 
Q 2575 -91 1722 -91 
Q 1428 -91 1123 -41 
Q 819 9 494 109 
L 494 744 
Q 775 591 1075 516 
Q 1375 441 1709 441 
Q 2250 441 2565 725 
Q 2881 1009 2881 1497 
Q 2881 1984 2565 2268 
Q 2250 2553 1709 2553 
Q 1456 2553 1204 2497 
Q 953 2441 691 2322 
L 691 4666 
z
" id="DejaVuSans-35" transform="scale(0.015625)"/>
       </defs>
       <use xlink:href="#DejaVuSans-32"/>
       <use x="63.623047" xlink:href="#DejaVuSans-35"/>
      </g>
     </g>
    </g>
    <g id="xtick_3">
     <g id="line2d_3">
      <g>
       <use style="stroke:#000000;stroke-width:0.8;" x="247.301818" xlink:href="#m06d07cc5d6" y="167.56"/>
      </g>
     </g>
     <g id="text_3">
      <!-- 50 -->
      <g transform="translate(237.121818 186.7175)scale(0.16 -0.16)">
       <use xlink:href="#DejaVuSans-35"/>
       <use x="63.623047" xlink:href="#DejaVuSans-30"/>
      </g>
     </g>
    </g>
    <g id="xtick_4">
     <g id="line2d_4">
      <g>
       <use style="stroke:#000000;stroke-width:0.8;" x="318.460909" xlink:href="#m06d07cc5d6" y="167.56"/>
      </g>
     </g>
     <g id="text_4">
      <!-- 75 -->
      <g transform="translate(308.280909 186.7175)scale(0.16 -0.16)">
       <defs>
        <path d="M 525 4666 
L 3525 4666 
L 3525 4397 
L 1831 0 
L 1172 0 
L 2766 4134 
L 525 4134 
L 525 4666 
z
" id="DejaVuSans-37" transform="scale(0.015625)"/>
       </defs>
       <use xlink:href="#DejaVuSans-37"/>
       <use x="63.623047" xlink:href="#DejaVuSans-35"/>
      </g>
     </g>
    </g>
    <g id="xtick_5">
     <g id="line2d_5">
      <g>
       <use style="stroke:#000000;stroke-width:0.8;" x="389.62" xlink:href="#m06d07cc5d6" y="167.56"/>
      </g>
     </g>
     <g id="text_5">
      <!-- 100 -->
      <g transform="translate(374.35 186.7175)scale(0.16 -0.16)">
       <defs>
        <path d="M 794 531 
L 1825 531 
L 1825 4091 
L 703 3866 
L 703 4441 
L 1819 4666 
L 2450 4666 
L 2450 531 
L 3481 531 
L 3481 0 
L 794 0 
L 794 531 
z
" id="DejaVuSans-31" transform="scale(0.015625)"/>
       </defs>
       <use xlink:href="#DejaVuSans-31"/>
       <use x="63.623047" xlink:href="#DejaVuSans-30"/>
       <use x="127.246094" xlink:href="#DejaVuSans-30"/>
      </g>
     </g>
    </g>
    <g id="xtick_6">
     <g id="line2d_6">
      <g>
       <use style="stroke:#000000;stroke-width:0.8;" x="460.779091" xlink:href="#m06d07cc5d6" y="167.56"/>
      </g>
     </g>
     <g id="text_6">
      <!-- 125 -->
      <g transform="translate(445.509091 186.7175)scale(0.16 -0.16)">
       <use xlink:href="#DejaVuSans-31"/>
       <use x="63.623047" xlink:href="#DejaVuSans-32"/>
       <use x="127.246094" xlink:href="#DejaVuSans-35"/>
      </g>
     </g>
    </g>
    <g id="xtick_7">
     <g id="line2d_7">
      <g>
       <use style="stroke:#000000;stroke-width:0.8;" x="531.938182" xlink:href="#m06d07cc5d6" y="167.56"/>
      </g>
     </g>
     <g id="text_7">
      <!-- 150 -->
      <g transform="translate(516.668182 186.7175)scale(0.16 -0.16)">
       <use xlink:href="#DejaVuSans-31"/>
       <use x="63.623047" xlink:href="#DejaVuSans-35"/>
       <use x="127.246094" xlink:href="#DejaVuSans-30"/>
      </g>
     </g>
    </g>
    <g id="xtick_8">
     <g id="line2d_8">
      <g>
       <use style="stroke:#000000;stroke-width:0.8;" x="603.097273" xlink:href="#m06d07cc5d6" y="167.56"/>
      </g>
     </g>
     <g id="text_8">
      <!-- 175 -->
      <g transform="translate(587.827273 186.7175)scale(0.16 -0.16)">
       <use xlink:href="#DejaVuSans-31"/>
       <use x="63.623047" xlink:href="#DejaVuSans-37"/>
       <use x="127.246094" xlink:href="#DejaVuSans-35"/>
      </g>
     </g>
    </g>
    <g id="xtick_9">
     <g id="line2d_9">
      <g>
       <use style="stroke:#000000;stroke-width:0.8;" x="674.256364" xlink:href="#m06d07cc5d6" y="167.56"/>
      </g>
     </g>
     <g id="text_9">
      <!-- 200 -->
      <g transform="translate(658.986364 186.7175)scale(0.16 -0.16)">
       <use xlink:href="#DejaVuSans-32"/>
       <use x="63.623047" xlink:href="#DejaVuSans-30"/>
       <use x="127.246094" xlink:href="#DejaVuSans-30"/>
      </g>
     </g>
    </g>
    <g id="text_10">
     <!-- Time [s] -->
     <g transform="translate(357.09375 206.2025)scale(0.16 -0.16)">
      <defs>
       <path d="M -19 4666 
L 3928 4666 
L 3928 4134 
L 2272 4134 
L 2272 0 
L 1638 0 
L 1638 4134 
L -19 4134 
L -19 4666 
z
" id="DejaVuSans-54" transform="scale(0.015625)"/>
       <path d="M 603 3500 
L 1178 3500 
L 1178 0 
L 603 0 
L 603 3500 
z
M 603 4863 
L 1178 4863 
L 1178 4134 
L 603 4134 
L 603 4863 
z
" id="DejaVuSans-69" transform="scale(0.015625)"/>
       <path d="M 3328 2828 
Q 3544 3216 3844 3400 
Q 4144 3584 4550 3584 
Q 5097 3584 5394 3201 
Q 5691 2819 5691 2113 
L 5691 0 
L 5113 0 
L 5113 2094 
Q 5113 2597 4934 2840 
Q 4756 3084 4391 3084 
Q 3944 3084 3684 2787 
Q 3425 2491 3425 1978 
L 3425 0 
L 2847 0 
L 2847 2094 
Q 2847 2600 2669 2842 
Q 2491 3084 2119 3084 
Q 1678 3084 1418 2786 
Q 1159 2488 1159 1978 
L 1159 0 
L 581 0 
L 581 3500 
L 1159 3500 
L 1159 2956 
Q 1356 3278 1631 3431 
Q 1906 3584 2284 3584 
Q 2666 3584 2933 3390 
Q 3200 3197 3328 2828 
z
" id="DejaVuSans-6d" transform="scale(0.015625)"/>
       <path d="M 3597 1894 
L 3597 1613 
L 953 1613 
Q 991 1019 1311 708 
Q 1631 397 2203 397 
Q 2534 397 2845 478 
Q 3156 559 3463 722 
L 3463 178 
Q 3153 47 2828 -22 
Q 2503 -91 2169 -91 
Q 1331 -91 842 396 
Q 353 884 353 1716 
Q 353 2575 817 3079 
Q 1281 3584 2069 3584 
Q 2775 3584 3186 3129 
Q 3597 2675 3597 1894 
z
M 3022 2063 
Q 3016 2534 2758 2815 
Q 2500 3097 2075 3097 
Q 1594 3097 1305 2825 
Q 1016 2553 972 2059 
L 3022 2063 
z
" id="DejaVuSans-65" transform="scale(0.015625)"/>
       <path id="DejaVuSans-20" transform="scale(0.015625)"/>
       <path d="M 550 4863 
L 1875 4863 
L 1875 4416 
L 1125 4416 
L 1125 -397 
L 1875 -397 
L 1875 -844 
L 550 -844 
L 550 4863 
z
" id="DejaVuSans-5b" transform="scale(0.015625)"/>
       <path d="M 2834 3397 
L 2834 2853 
Q 2591 2978 2328 3040 
Q 2066 3103 1784 3103 
Q 1356 3103 1142 2972 
Q 928 2841 928 2578 
Q 928 2378 1081 2264 
Q 1234 2150 1697 2047 
L 1894 2003 
Q 2506 1872 2764 1633 
Q 3022 1394 3022 966 
Q 3022 478 2636 193 
Q 2250 -91 1575 -91 
Q 1294 -91 989 -36 
Q 684 19 347 128 
L 347 722 
Q 666 556 975 473 
Q 1284 391 1588 391 
Q 1994 391 2212 530 
Q 2431 669 2431 922 
Q 2431 1156 2273 1281 
Q 2116 1406 1581 1522 
L 1381 1569 
Q 847 1681 609 1914 
Q 372 2147 372 2553 
Q 372 3047 722 3315 
Q 1072 3584 1716 3584 
Q 2034 3584 2315 3537 
Q 2597 3491 2834 3397 
z
" id="DejaVuSans-73" transform="scale(0.015625)"/>
       <path d="M 1947 4863 
L 1947 -844 
L 622 -844 
L 622 -397 
L 1369 -397 
L 1369 4416 
L 622 4416 
L 622 4863 
L 1947 4863 
z
" id="DejaVuSans-5d" transform="scale(0.015625)"/>
      </defs>
      <use xlink:href="#DejaVuSans-54"/>
      <use x="57.958984" xlink:href="#DejaVuSans-69"/>
      <use x="85.742188" xlink:href="#DejaVuSans-6d"/>
      <use x="183.154297" xlink:href="#DejaVuSans-65"/>
      <use x="244.677734" xlink:href="#DejaVuSans-20"/>
      <use x="276.464844" xlink:href="#DejaVuSans-5b"/>
      <use x="315.478516" xlink:href="#DejaVuSans-73"/>
      <use x="367.578125" xlink:href="#DejaVuSans-5d"/>
     </g>
    </g>
   </g>
   <g id="matplotlib.axis_2">
    <g id="ytick_1">
     <g id="line2d_10">
      <defs>
       <path d="M 0 0 
L -3.5 0 
" id="mffecb32edf" style="stroke:#000000;stroke-width:0.8;"/>
      </defs>
      <g>
       <use style="stroke:#000000;stroke-width:0.8;" x="76.52" xlink:href="#mffecb32edf" y="158.875353"/>
      </g>
     </g>
     <g id="text_11">
      <!-- −2 -->
      <g transform="translate(45.9325 164.954103)scale(0.16 -0.16)">
       <defs>
        <path d="M 678 2272 
L 4684 2272 
L 4684 1741 
L 678 1741 
L 678 2272 
z
" id="DejaVuSans-2212" transform="scale(0.015625)"/>
       </defs>
       <use xlink:href="#DejaVuSans-2212"/>
       <use x="83.789062" xlink:href="#DejaVuSans-32"/>
      </g>
     </g>
    </g>
    <g id="ytick_2">
     <g id="line2d_11">
      <g>
       <use style="stroke:#000000;stroke-width:0.8;" x="76.52" xlink:href="#mffecb32edf" y="124.15221"/>
      </g>
     </g>
     <g id="text_12">
      <!-- −1 -->
      <g transform="translate(45.9325 130.23096)scale(0.16 -0.16)">
       <use xlink:href="#DejaVuSans-2212"/>
       <use x="83.789062" xlink:href="#DejaVuSans-31"/>
      </g>
     </g>
    </g>
    <g id="ytick_3">
     <g id="line2d_12">
      <g>
       <use style="stroke:#000000;stroke-width:0.8;" x="76.52" xlink:href="#mffecb32edf" y="89.429067"/>
      </g>
     </g>
     <g id="text_13">
      <!-- 0 -->
      <g transform="translate(59.34 95.507817)scale(0.16 -0.16)">
       <use xlink:href="#DejaVuSans-30"/>
      </g>
     </g>
    </g>
    <g id="text_14">
     <!-- Azimuth [rad] -->
     <g transform="translate(28.425 170.5375)rotate(-90)scale(0.16 -0.16)">
      <defs>
       <path d="M 2188 4044 
L 1331 1722 
L 3047 1722 
L 2188 4044 
z
M 1831 4666 
L 2547 4666 
L 4325 0 
L 3669 0 
L 3244 1197 
L 1141 1197 
L 716 0 
L 50 0 
L 1831 4666 
z
" id="DejaVuSans-41" transform="scale(0.015625)"/>
       <path d="M 353 3500 
L 3084 3500 
L 3084 2975 
L 922 459 
L 3084 459 
L 3084 0 
L 275 0 
L 275 525 
L 2438 3041 
L 353 3041 
L 353 3500 
z
" id="DejaVuSans-7a" transform="scale(0.015625)"/>
       <path d="M 544 1381 
L 544 3500 
L 1119 3500 
L 1119 1403 
Q 1119 906 1312 657 
Q 1506 409 1894 409 
Q 2359 409 2629 706 
Q 2900 1003 2900 1516 
L 2900 3500 
L 3475 3500 
L 3475 0 
L 2900 0 
L 2900 538 
Q 2691 219 2414 64 
Q 2138 -91 1772 -91 
Q 1169 -91 856 284 
Q 544 659 544 1381 
z
M 1991 3584 
L 1991 3584 
z
" id="DejaVuSans-75" transform="scale(0.015625)"/>
       <path d="M 1172 4494 
L 1172 3500 
L 2356 3500 
L 2356 3053 
L 1172 3053 
L 1172 1153 
Q 1172 725 1289 603 
Q 1406 481 1766 481 
L 2356 481 
L 2356 0 
L 1766 0 
Q 1100 0 847 248 
Q 594 497 594 1153 
L 594 3053 
L 172 3053 
L 172 3500 
L 594 3500 
L 594 4494 
L 1172 4494 
z
" id="DejaVuSans-74" transform="scale(0.015625)"/>
       <path d="M 3513 2113 
L 3513 0 
L 2938 0 
L 2938 2094 
Q 2938 2591 2744 2837 
Q 2550 3084 2163 3084 
Q 1697 3084 1428 2787 
Q 1159 2491 1159 1978 
L 1159 0 
L 581 0 
L 581 4863 
L 1159 4863 
L 1159 2956 
Q 1366 3272 1645 3428 
Q 1925 3584 2291 3584 
Q 2894 3584 3203 3211 
Q 3513 2838 3513 2113 
z
" id="DejaVuSans-68" transform="scale(0.015625)"/>
       <path d="M 2631 2963 
Q 2534 3019 2420 3045 
Q 2306 3072 2169 3072 
Q 1681 3072 1420 2755 
Q 1159 2438 1159 1844 
L 1159 0 
L 581 0 
L 581 3500 
L 1159 3500 
L 1159 2956 
Q 1341 3275 1631 3429 
Q 1922 3584 2338 3584 
Q 2397 3584 2469 3576 
Q 2541 3569 2628 3553 
L 2631 2963 
z
" id="DejaVuSans-72" transform="scale(0.015625)"/>
       <path d="M 2194 1759 
Q 1497 1759 1228 1600 
Q 959 1441 959 1056 
Q 959 750 1161 570 
Q 1363 391 1709 391 
Q 2188 391 2477 730 
Q 2766 1069 2766 1631 
L 2766 1759 
L 2194 1759 
z
M 3341 1997 
L 3341 0 
L 2766 0 
L 2766 531 
Q 2569 213 2275 61 
Q 1981 -91 1556 -91 
Q 1019 -91 701 211 
Q 384 513 384 1019 
Q 384 1609 779 1909 
Q 1175 2209 1959 2209 
L 2766 2209 
L 2766 2266 
Q 2766 2663 2505 2880 
Q 2244 3097 1772 3097 
Q 1472 3097 1187 3025 
Q 903 2953 641 2809 
L 641 3341 
Q 956 3463 1253 3523 
Q 1550 3584 1831 3584 
Q 2591 3584 2966 3190 
Q 3341 2797 3341 1997 
z
" id="DejaVuSans-61" transform="scale(0.015625)"/>
       <path d="M 2906 2969 
L 2906 4863 
L 3481 4863 
L 3481 0 
L 2906 0 
L 2906 525 
Q 2725 213 2448 61 
Q 2172 -91 1784 -91 
Q 1150 -91 751 415 
Q 353 922 353 1747 
Q 353 2572 751 3078 
Q 1150 3584 1784 3584 
Q 2172 3584 2448 3432 
Q 2725 3281 2906 2969 
z
M 947 1747 
Q 947 1113 1208 752 
Q 1469 391 1925 391 
Q 2381 391 2643 752 
Q 2906 1113 2906 1747 
Q 2906 2381 2643 2742 
Q 2381 3103 1925 3103 
Q 1469 3103 1208 2742 
Q 947 2381 947 1747 
z
" id="DejaVuSans-64" transform="scale(0.015625)"/>
      </defs>
      <use xlink:href="#DejaVuSans-41"/>
      <use x="68.408203" xlink:href="#DejaVuSans-7a"/>
      <use x="120.898438" xlink:href="#DejaVuSans-69"/>
      <use x="148.681641" xlink:href="#DejaVuSans-6d"/>
      <use x="246.09375" xlink:href="#DejaVuSans-75"/>
      <use x="309.472656" xlink:href="#DejaVuSans-74"/>
      <use x="348.681641" xlink:href="#DejaVuSans-68"/>
      <use x="412.060547" xlink:href="#DejaVuSans-20"/>
      <use x="443.847656" xlink:href="#DejaVuSans-5b"/>
      <use x="482.861328" xlink:href="#DejaVuSans-72"/>
      <use x="523.974609" xlink:href="#DejaVuSans-61"/>
      <use x="585.253906" xlink:href="#DejaVuSans-64"/>
      <use x="648.730469" xlink:href="#DejaVuSans-5d"/>
     </g>
    </g>
    <g id="text_15">
     <!-- 1e−12 -->
     <g transform="translate(76.52 60.48)scale(0.16 -0.16)">
      <use xlink:href="#DejaVuSans-31"/>
      <use x="63.623047" xlink:href="#DejaVuSans-65"/>
      <use x="125.146484" xlink:href="#DejaVuSans-2212"/>
      <use x="208.935547" xlink:href="#DejaVuSans-31"/>
      <use x="272.558594" xlink:href="#DejaVuSans-32"/>
     </g>
    </g>
   </g>
   <g id="line2d_13">
    <path clip-path="url(#pd8e53a5a34)" d="M 104.983636 89.429067 
L 122.915727 89.321126 
L 123.371145 89.305706 
L 130.287809 89.197765 
L 130.714764 89.190055 
L 137.033691 89.082113 
L 137.460645 89.074403 
L 144.121136 88.966462 
L 144.377309 88.951042 
L 154.282655 89.058983 
L 154.538827 89.089823 
L 154.766536 89.089823 
L 156.872845 89.197765 
L 157.129018 89.213185 
L 159.377645 89.321126 
L 159.662282 89.351966 
L 159.889991 89.351966 
L 162.110155 89.459908 
L 162.366327 89.490748 
L 162.594036 89.490748 
L 164.757273 89.583269 
L 164.928055 89.614109 
L 165.155764 89.614109 
L 167.119755 89.72205 
L 167.375927 89.737471 
L 169.624555 89.845412 
L 169.880727 89.860832 
L 172.043964 89.953353 
L 172.214745 89.984193 
L 172.442455 89.984193 
L 174.406445 90.092135 
L 174.662618 90.107555 
L 176.911245 90.215496 
L 177.195882 90.246336 
L 177.423591 90.246336 
L 179.643755 90.354278 
L 179.899927 90.385118 
L 180.127636 90.385118 
L 182.290873 90.477639 
L 182.461655 90.508479 
L 182.689364 90.508479 
L 184.653355 90.616421 
L 184.909527 90.631841 
L 187.158155 90.739782 
L 187.414327 90.755202 
L 189.577564 90.847723 
L 189.748345 90.878563 
L 189.976055 90.878563 
L 191.940045 90.986505 
L 192.196218 91.001925 
L 194.444845 91.109866 
L 194.729482 91.140706 
L 194.957191 91.140706 
L 197.319673 91.032765 
L 197.632773 90.986505 
L 197.832018 90.986505 
L 198.088191 90.955664 
L 198.287436 90.955664 
L 198.543609 90.909404 
L 198.685927 90.924824 
L 198.9421 90.878563 
L 199.084418 90.878563 
L 200.336818 90.786042 
L 200.479136 90.755202 
L 200.678382 90.755202 
L 200.963018 90.724362 
L 202.158491 90.631841 
L 202.300809 90.601 
L 202.500055 90.601 
L 202.813155 90.55474 
L 203.0124 90.55474 
L 203.268573 90.508479 
L 203.410891 90.508479 
L 204.720218 90.415958 
L 204.862536 90.385118 
L 205.061782 90.385118 
L 205.232564 90.354278 
L 206.541891 90.261757 
L 206.684209 90.230916 
L 206.883455 90.230916 
L 207.025773 90.200076 
L 207.225018 90.200076 
L 207.367336 90.169236 
L 207.566582 90.169236 
L 207.879682 90.122975 
L 208.078927 90.122975 
L 208.3351 90.092135 
L 208.534345 90.092135 
L 208.790518 90.045874 
L 208.932836 90.045874 
L 210.185236 89.953353 
L 210.327555 89.922513 
L 210.5268 89.922513 
L 210.8399 89.876252 
L 211.039145 89.876252 
L 211.295318 89.829992 
L 211.437636 89.829992 
L 212.746964 89.737471 
L 212.889282 89.70663 
L 213.088527 89.70663 
L 213.230845 89.67579 
L 213.430091 89.67579 
L 213.572409 89.64495 
L 213.771655 89.64495 
L 214.084755 89.598689 
L 214.284 89.598689 
L 214.540173 89.567849 
L 214.739418 89.567849 
L 214.995591 89.521588 
L 215.137909 89.521588 
L 216.390309 89.429067 
L 216.532627 89.398227 
L 216.731873 89.398227 
L 217.044973 89.351966 
L 217.244218 89.351966 
L 217.500391 89.305706 
L 217.642709 89.305706 
L 219.008964 89.213185 
L 219.179745 89.182344 
L 220.432145 89.089823 
L 220.602927 89.058983 
L 221.855327 88.966462 
L 222.026109 88.935622 
L 223.335436 88.843101 
L 223.506218 88.81226 
L 224.815545 88.719739 
L 224.957864 88.688899 
L 225.157109 88.688899 
L 225.470209 88.642638 
L 225.669455 88.627218 
L 226.978782 88.534697 
L 227.1211 88.503857 
L 227.320345 88.503857 
L 227.604982 88.473016 
L 228.800455 88.380495 
L 228.942773 88.349655 
L 229.142018 88.349655 
L 229.426655 88.318815 
L 230.622127 88.226294 
L 230.764445 88.195453 
L 230.963691 88.195453 
L 231.276791 88.149193 
L 231.476036 88.149193 
L 231.732209 88.102932 
L 231.874527 88.102932 
L 233.240782 88.010411 
L 233.411564 87.979571 
L 234.663964 87.88705 
L 234.834745 87.85621 
L 236.087145 87.763689 
L 236.257927 87.732848 
L 237.567255 87.640327 
L 237.738036 87.609487 
L 239.047364 87.516966 
L 239.189682 87.486125 
L 239.388927 87.486125 
L 239.702027 87.439865 
L 239.901273 87.439865 
L 240.157445 87.393604 
L 240.299764 87.393604 
L 241.609091 87.301083 
L 241.779873 87.270243 
L 243.032273 87.177722 
L 243.174591 87.146882 
L 243.373836 87.146882 
L 243.658473 87.116041 
L 244.853945 87.02352 
L 244.996264 86.99268 
L 245.195509 86.99268 
L 245.480145 86.96184 
L 246.675618 86.869318 
L 246.817936 86.838478 
L 247.017182 86.838478 
L 247.330282 86.792218 
L 247.529527 86.792218 
L 247.7857 86.761377 
L 247.984945 86.745957 
L 249.237345 86.653436 
L 249.379664 86.622596 
L 249.578909 86.622596 
L 249.863545 86.591755 
L 251.059018 86.499234 
L 251.201336 86.468394 
L 251.400582 86.468394 
L 251.685218 86.437554 
L 252.880691 86.345033 
L 253.023009 86.314192 
L 253.222255 86.314192 
L 253.535355 86.267932 
L 253.7346 86.267932 
L 253.990773 86.237091 
L 254.190018 86.221671 
L 255.499345 86.12915 
L 255.670127 86.09831 
L 256.922527 86.005789 
L 257.093309 85.974948 
L 258.345709 85.882427 
L 258.516491 85.851587 
L 259.882745 85.759066 
L 260.053527 85.728226 
L 261.305927 85.635705 
L 261.448245 85.604864 
L 261.647491 85.604864 
L 261.960591 85.558604 
L 262.159836 85.558604 
L 262.416009 85.512343 
L 262.558327 85.512343 
L 263.867655 85.419822 
L 264.009973 85.388982 
L 264.209218 85.388982 
L 264.351536 85.358142 
L 264.550782 85.358142 
L 264.6931 85.327301 
L 264.892345 85.327301 
L 265.034664 85.296461 
L 265.233909 85.296461 
L 265.518545 85.26562 
L 266.714018 85.173099 
L 266.856336 85.142259 
L 267.055582 85.142259 
L 267.340218 85.111419 
L 268.535691 85.018898 
L 268.678009 84.988057 
L 268.820327 84.988057 
L 270.072727 84.895536 
L 270.215045 84.864696 
L 270.414291 84.864696 
L 270.585073 84.833856 
L 271.8944 84.741335 
L 272.036718 84.710494 
L 272.235964 84.710494 
L 272.5206 84.679654 
L 273.716073 84.587133 
L 273.858391 84.556293 
L 274.057636 84.556293 
L 274.370736 84.510032 
L 274.569982 84.510032 
L 274.826155 84.463771 
L 274.968473 84.463771 
L 276.2778 84.37125 
L 276.420118 84.34041 
L 276.619364 84.34041 
L 276.790145 84.30957 
L 278.099473 84.217049 
L 278.241791 84.186208 
L 278.441036 84.186208 
L 278.725673 84.155368 
L 279.921145 84.062847 
L 280.063464 84.032007 
L 280.262709 84.032007 
L 280.547345 84.001166 
L 281.742818 83.908645 
L 281.885136 83.877805 
L 282.084382 83.877805 
L 282.397482 83.831544 
L 282.596727 83.831544 
L 282.8529 83.785284 
L 282.995218 83.785284 
L 284.304545 83.692763 
L 284.446864 83.661922 
L 284.646109 83.661922 
L 284.788427 83.631082 
L 284.987673 83.631082 
L 285.129991 83.600242 
L 285.329236 83.600242 
L 285.642336 83.553981 
L 285.841582 83.553981 
L 286.097755 83.523141 
L 286.325464 83.523141 
L 286.6101 83.492301 
L 287.976355 83.384359 
L 288.260991 83.353519 
L 289.541855 83.245578 
L 289.826491 83.214737 
L 291.221209 83.106796 
L 291.505845 83.075956 
L 292.8721 82.968015 
L 293.156736 82.937174 
L 294.522991 82.829233 
L 294.807627 82.798393 
L 296.116955 82.690452 
L 296.401591 82.659611 
L 296.600836 82.659611 
L 296.885473 82.628771 
L 298.166336 82.52083 
L 298.450973 82.489989 
L 299.845691 82.382048 
L 300.130327 82.351208 
L 301.411191 82.243267 
L 301.695827 82.212426 
L 303.090545 82.104485 
L 303.375182 82.073645 
L 303.574427 82.058224 
L 304.883755 81.950283 
L 305.168391 81.919443 
L 306.563109 81.811502 
L 306.847745 81.780661 
L 308.214 81.67272 
L 308.498636 81.64188 
L 309.864891 81.533939 
L 310.149527 81.503098 
L 311.458855 81.395157 
L 311.743491 81.364317 
L 311.942736 81.364317 
L 312.227373 81.333476 
L 313.508236 81.225535 
L 313.792873 81.194695 
L 315.187591 81.086754 
L 315.472227 81.055913 
L 316.753091 80.947972 
L 317.037727 80.917132 
L 318.403982 80.80919 
L 318.688618 80.77835 
L 320.083336 80.670409 
L 320.367973 80.639569 
L 321.734227 80.531627 
L 322.018864 80.500787 
L 323.385118 80.392846 
L 323.669755 80.362005 
L 324.979082 80.254064 
L 325.292182 80.207804 
L 325.462964 80.238644 
L 325.605282 80.176963 
L 325.776064 80.207804 
L 325.975309 80.146123 
L 326.146091 80.176963 
L 326.288409 80.115283 
L 326.316873 80.146123 
L 327.426955 80.053602 
L 327.569273 80.022762 
L 327.711591 80.053602 
L 327.882373 79.991921 
L 328.024691 79.991921 
L 329.106309 79.8994 
L 329.248627 79.86856 
L 329.419409 79.8994 
L 329.618655 79.83772 
L 329.789436 79.86856 
L 329.931755 79.806879 
L 330.102536 79.83772 
L 330.301782 79.776039 
L 330.472564 79.806879 
L 330.614882 79.745199 
L 330.643345 79.776039 
L 330.785664 79.776039 
L 330.956445 79.745199 
L 331.952673 79.652677 
L 332.094991 79.621837 
L 332.265773 79.652677 
L 332.436555 79.621837 
L 333.432782 79.560156 
L 333.5751 79.498476 
L 333.745882 79.529316 
L 333.945127 79.467635 
L 334.115909 79.498476 
L 334.258227 79.436795 
L 334.286691 79.467635 
L 334.429009 79.467635 
L 334.599791 79.436795 
L 335.709873 79.344274 
L 335.852191 79.313434 
L 335.994509 79.313434 
L 337.076127 79.251753 
L 337.218445 79.190072 
L 337.389227 79.220913 
L 337.560009 79.190072 
L 338.670091 79.097551 
L 338.812409 79.066711 
L 338.983191 79.097551 
L 339.182436 79.035871 
L 339.324755 79.066711 
L 339.495536 79.00503 
L 339.637855 79.00503 
L 340.719473 78.94335 
L 340.861791 78.881669 
L 341.032573 78.912509 
L 341.203355 78.881669 
L 342.284973 78.819988 
L 342.427291 78.758307 
L 343.679691 78.665786 
L 343.822009 78.634946 
L 343.992791 78.665786 
L 344.163573 78.634946 
L 345.1598 78.542425 
L 345.302118 78.511585 
L 345.444436 78.542425 
L 345.643682 78.480744 
L 345.814464 78.511585 
L 346.639909 78.419064 
L 346.782227 78.388223 
L 346.953009 78.419064 
L 347.152255 78.357383 
L 347.294573 78.388223 
L 347.465355 78.326543 
L 347.636136 78.357383 
L 347.806918 78.326543 
L 348.689291 78.264862 
L 348.831609 78.203181 
L 349.002391 78.234022 
L 349.173173 78.203181 
L 350.283255 78.141501 
L 350.425573 78.07982 
L 350.596355 78.11066 
L 350.7956 78.048979 
L 350.966382 78.07982 
L 351.1087 78.018139 
L 351.137164 78.048979 
L 352.247245 77.956458 
L 352.389564 77.925618 
L 352.531882 77.956458 
L 352.702664 77.894778 
L 352.844982 77.894778 
L 353.9266 77.833097 
L 354.068918 77.771416 
L 354.2397 77.802257 
L 354.438945 77.740576 
L 354.609727 77.771416 
L 354.752045 77.709736 
L 354.780509 77.740576 
L 355.890591 77.648055 
L 356.032909 77.617215 
L 356.175227 77.648055 
L 356.346009 77.586374 
L 356.488327 77.586374 
L 357.569945 77.493853 
L 357.712264 77.463013 
L 357.883045 77.493853 
L 358.053827 77.432173 
L 358.224609 77.463013 
L 359.050055 77.370492 
L 359.192373 77.339652 
L 359.363155 77.370492 
L 359.5624 77.308811 
L 359.704718 77.339652 
L 359.8755 77.277971 
L 360.046282 77.308811 
L 360.217064 77.277971 
L 361.099436 77.21629 
L 361.241755 77.154609 
L 361.412536 77.18545 
L 362.465691 77.092929 
L 362.636473 77.062088 
L 362.778791 77.092929 
L 362.921109 77.031248 
L 364.173509 76.938727 
L 364.315827 76.907887 
L 364.458145 76.907887 
L 365.539764 76.846206 
L 365.682082 76.784525 
L 365.852864 76.815366 
L 366.023645 76.784525 
L 367.133727 76.692004 
L 367.276045 76.661164 
L 367.446827 76.692004 
L 367.646073 76.630324 
L 367.788391 76.661164 
L 367.959173 76.599483 
L 368.129955 76.630324 
L 368.3292 76.568643 
L 368.471518 76.599483 
L 368.6423 76.537803 
L 368.784618 76.568643 
L 368.9554 76.537803 
L 369.980091 76.476122 
L 370.122409 76.414441 
L 370.293191 76.445281 
L 370.492436 76.383601 
L 370.663218 76.414441 
L 370.805536 76.35276 
L 370.834 76.383601 
L 371.944082 76.29108 
L 372.0864 76.260239 
L 372.228718 76.29108 
L 372.3995 76.229399 
L 372.541818 76.229399 
L 373.623436 76.136878 
L 373.765755 76.106038 
L 373.908073 76.136878 
L 374.107318 76.075197 
L 374.2781 76.106038 
L 375.103545 76.044357 
L 375.245864 75.982676 
L 375.416645 76.013517 
L 375.615891 75.951836 
L 375.758209 75.982676 
L 375.928991 75.920996 
L 376.099773 75.951836 
L 376.270555 75.920996 
L 377.152927 75.859315 
L 377.295245 75.797634 
L 377.466027 75.828475 
L 378.519182 75.735954 
L 378.689964 75.705113 
L 378.832282 75.735954 
L 378.9746 75.674273 
L 380.227 75.581752 
L 380.369318 75.550911 
L 380.5401 75.581752 
L 380.739345 75.520071 
L 380.881664 75.550911 
L 381.052445 75.489231 
L 381.194764 75.520071 
L 381.365545 75.489231 
L 382.390236 75.42755 
L 382.532555 75.365869 
L 382.703336 75.39671 
L 382.902582 75.335029 
L 383.073364 75.365869 
L 383.215682 75.304189 
L 383.244145 75.335029 
L 384.354227 75.242508 
L 384.496545 75.211668 
L 384.638864 75.242508 
L 384.809645 75.180827 
L 384.951964 75.180827 
L 386.033582 75.119147 
L 386.1759 75.057466 
L 386.346682 75.088306 
L 386.517464 75.026626 
L 386.688245 75.057466 
L 387.513691 74.995785 
L 387.656009 74.934105 
L 387.826791 74.964945 
L 388.026036 74.903264 
L 388.168355 74.934105 
L 388.339136 74.872424 
L 388.509918 74.903264 
L 388.6807 74.872424 
L 389.676927 74.779903 
L 389.819245 74.749062 
L 389.961564 74.779903 
L 390.132345 74.749062 
L 391.157036 74.687382 
L 391.299355 74.625701 
L 391.470136 74.656541 
L 391.669382 74.594861 
L 391.840164 74.625701 
L 391.982482 74.56402 
L 392.010945 74.594861 
L 392.153264 74.594861 
L 392.324045 74.56402 
L 393.320273 74.471499 
L 393.462591 74.440659 
L 393.604909 74.471499 
L 393.775691 74.440659 
L 394.800382 74.378978 
L 394.9427 74.317298 
L 395.113482 74.348138 
L 395.312727 74.286457 
L 395.483509 74.317298 
L 395.625827 74.255617 
L 395.654291 74.286457 
L 396.764373 74.193936 
L 396.906691 74.163096 
L 397.049009 74.193936 
L 397.219791 74.132256 
L 397.362109 74.132256 
L 398.443727 74.070575 
L 398.586045 74.008894 
L 398.756827 74.039735 
L 398.927609 73.978054 
L 399.098391 74.008894 
L 399.923836 73.916373 
L 400.066155 73.885533 
L 400.236936 73.916373 
L 400.436182 73.854692 
L 400.5785 73.885533 
L 400.749282 73.823852 
L 400.920064 73.854692 
L 401.090845 73.823852 
L 402.087073 73.731331 
L 402.229391 73.700491 
L 402.400173 73.731331 
L 402.570955 73.66965 
L 402.741736 73.700491 
L 403.567182 73.63881 
L 403.7095 73.577129 
L 403.880282 73.60797 
L 404.079527 73.546289 
L 404.250309 73.577129 
L 404.392627 73.515449 
L 404.421091 73.546289 
L 404.563409 73.546289 
L 404.734191 73.515449 
L 405.730418 73.422928 
L 405.872736 73.392087 
L 406.015055 73.422928 
L 406.185836 73.392087 
L 407.210527 73.330407 
L 407.352845 73.268726 
L 407.523627 73.299566 
L 407.722873 73.237886 
L 407.893655 73.268726 
L 408.035973 73.207045 
L 408.064436 73.237886 
L 408.206755 73.237886 
L 408.377536 73.207045 
L 409.373764 73.114524 
L 409.516082 73.083684 
L 409.6584 73.114524 
L 409.829182 73.083684 
L 410.853873 73.022003 
L 410.996191 72.960322 
L 411.166973 72.991163 
L 411.337755 72.929482 
L 411.508536 72.960322 
L 412.419373 72.898642 
L 412.561691 72.836961 
L 413.700236 72.77528 
L 413.842555 72.7136 
L 414.013336 72.77528 
L 414.155655 72.7136 
L 415.2942 72.621079 
L 415.436518 72.590238 
L 415.578836 72.621079 
L 415.778082 72.559398 
L 417.258191 72.466877 
L 417.400509 72.436037 
L 417.542827 72.466877 
L 417.742073 72.405196 
L 418.823691 72.343515 
L 418.966009 72.281835 
L 419.136791 72.312675 
L 419.307573 72.281835 
L 420.417655 72.189314 
L 420.559973 72.158473 
L 420.730755 72.189314 
L 420.93 72.127633 
L 421.072318 72.158473 
L 421.2431 72.096793 
L 421.413882 72.127633 
L 421.584664 72.096793 
L 422.467036 72.035112 
L 422.609355 71.973431 
L 422.780136 72.004272 
L 422.950918 71.973431 
L 424.061 71.911751 
L 424.203318 71.85007 
L 424.3741 71.88091 
L 424.573345 71.81923 
L 424.715664 71.85007 
L 424.886445 71.788389 
L 425.057227 71.81923 
L 425.256473 71.757549 
L 425.398791 71.788389 
L 425.569573 71.726709 
L 425.740355 71.757549 
L 425.911136 71.726709 
L 426.907364 71.665028 
L 427.049682 71.603347 
L 427.220464 71.634188 
L 427.391245 71.572507 
L 427.562027 71.603347 
L 428.387473 71.541666 
L 428.529791 71.479986 
L 428.700573 71.510826 
L 428.899818 71.449145 
L 429.042136 71.479986 
L 429.212918 71.418305 
L 429.3837 71.449145 
L 429.554482 71.418305 
L 430.550709 71.325784 
L 430.693027 71.294944 
L 430.863809 71.325784 
L 431.034591 71.294944 
L 432.030818 71.233263 
L 432.173136 71.171582 
L 432.343918 71.202423 
L 432.543164 71.140742 
L 432.713945 71.171582 
L 432.856264 71.109902 
L 432.884727 71.140742 
L 433.027045 71.140742 
L 433.197827 71.109902 
L 434.194055 71.017381 
L 434.336373 70.98654 
L 434.478691 71.017381 
L 434.649473 70.98654 
L 435.674164 70.92486 
L 435.816482 70.863179 
L 435.987264 70.894019 
L 436.186509 70.832339 
L 436.357291 70.863179 
L 436.499609 70.801498 
L 436.528073 70.832339 
L 436.670391 70.832339 
L 436.841173 70.801498 
L 437.951255 70.708977 
L 438.093573 70.678137 
L 438.235891 70.678137 
L 439.317509 70.616456 
L 439.459827 70.554775 
L 439.630609 70.585616 
L 439.801391 70.523935 
L 439.972173 70.554775 
L 440.883009 70.493095 
L 441.025327 70.431414 
L 442.277727 70.338893 
L 442.420045 70.308053 
L 442.562364 70.338893 
L 442.733145 70.308053 
L 443.757836 70.215532 
L 443.900155 70.184691 
L 444.042473 70.215532 
L 444.241718 70.153851 
L 445.721827 70.06133 
L 445.864145 70.03049 
L 446.006464 70.06133 
L 446.205709 69.999649 
L 446.348027 69.999649 
L 447.287327 69.937968 
L 447.429645 69.876288 
L 447.600427 69.907128 
L 447.771209 69.876288 
L 448.881291 69.783767 
L 449.023609 69.752926 
L 449.194391 69.783767 
L 449.393636 69.722086 
L 449.535955 69.752926 
L 449.706736 69.691246 
L 449.877518 69.722086 
L 450.0483 69.691246 
L 450.930673 69.629565 
L 451.072991 69.567884 
L 451.243773 69.598725 
L 451.414555 69.567884 
L 452.524636 69.506204 
L 452.666955 69.444523 
L 452.837736 69.475363 
L 453.036982 69.413683 
L 453.207764 69.444523 
L 453.350082 69.382842 
L 453.378545 69.413683 
L 454.488627 69.321162 
L 454.602482 69.259481 
L 454.630945 69.290321 
L 454.773264 69.321162 
L 454.944045 69.259481 
L 455.086364 69.259481 
L 456.167982 69.1978 
L 456.3103 69.136119 
L 456.481082 69.16696 
L 456.680327 69.105279 
L 456.851109 69.136119 
L 456.993427 69.074439 
L 457.021891 69.105279 
L 458.131973 69.012758 
L 458.274291 68.981918 
L 458.416609 69.012758 
L 458.587391 68.951077 
L 458.729709 68.951077 
L 459.811327 68.858556 
L 459.953645 68.827716 
L 460.095964 68.858556 
L 460.295209 68.796876 
L 460.465991 68.827716 
L 461.291436 68.735195 
L 461.433755 68.704355 
L 461.604536 68.735195 
L 461.803782 68.673514 
L 461.9461 68.704355 
L 462.116882 68.642674 
L 462.287664 68.673514 
L 462.458445 68.642674 
L 463.340818 68.580993 
L 463.483136 68.519313 
L 463.653918 68.550153 
L 463.8247 68.519313 
L 464.934782 68.457632 
L 465.0771 68.395951 
L 465.247882 68.426792 
L 465.447127 68.365111 
L 465.589445 68.395951 
L 465.760227 68.33427 
L 465.931009 68.365111 
L 466.101791 68.33427 
L 466.984164 68.27259 
L 467.126482 68.210909 
L 467.297264 68.27259 
L 467.354191 68.210909 
L 467.411118 68.241749 
L 467.638827 68.33427 
L 467.923464 68.488472 
L 468.179636 68.580993 
L 468.435809 68.704355 
L 468.663518 68.796876 
L 468.948155 68.951077 
L 469.175864 69.043598 
L 469.403573 69.136119 
L 469.602818 69.228641 
L 469.858991 69.352002 
L 470.058236 69.444523 
L 470.342873 69.598725 
L 470.599045 69.691246 
L 470.883682 69.845447 
L 471.111391 69.907128 
L 471.253709 69.999649 
L 471.481418 70.09217 
L 471.766055 70.246372 
L 472.022227 70.338893 
L 472.306864 70.493095 
L 472.534573 70.585616 
L 472.762282 70.678137 
L 472.989991 70.770658 
L 473.274627 70.92486 
L 473.5308 71.017381 
L 473.815436 71.171582 
L 474.043145 71.264103 
L 474.299318 71.387465 
L 474.498564 71.479986 
L 474.726273 71.572507 
L 474.953982 71.665028 
L 475.238618 71.81923 
L 475.466327 71.911751 
L 475.7225 72.035112 
L 475.921745 72.127633 
L 476.206382 72.281835 
L 476.462555 72.374356 
L 476.747191 72.528558 
L 477.003364 72.621079 
L 477.231073 72.7136 
L 477.430318 72.806121 
L 477.686491 72.929482 
L 477.885736 73.022003 
L 478.170373 73.176205 
L 478.426545 73.268726 
L 478.711182 73.422928 
L 478.938891 73.484608 
L 479.081209 73.577129 
L 479.308918 73.66965 
L 479.593555 73.823852 
L 479.849727 73.916373 
L 480.134364 74.070575 
L 480.362073 74.163096 
L 480.618245 74.286457 
L 480.874418 74.378978 
L 481.130591 74.50234 
L 481.3583 74.594861 
L 481.642936 74.749062 
L 481.870645 74.841584 
L 482.126818 74.964945 
L 482.326064 75.057466 
L 482.6107 75.211668 
L 482.866873 75.304189 
L 483.094582 75.39671 
L 483.293827 75.489231 
L 483.55 75.612592 
L 483.749245 75.705113 
L 484.033882 75.859315 
L 484.290055 75.951836 
L 484.574691 76.106038 
L 484.830864 76.198559 
L 485.1155 76.35276 
L 485.343209 76.414441 
L 485.485527 76.506962 
L 485.713236 76.599483 
L 485.997873 76.753685 
L 486.254045 76.846206 
L 486.538682 77.000408 
L 486.766391 77.092929 
L 486.9941 77.18545 
L 487.221809 77.277971 
L 487.506445 77.432173 
L 487.762618 77.524694 
L 488.047255 77.678895 
L 488.274964 77.771416 
L 488.531136 77.894778 
L 488.730382 77.987299 
L 489.015018 78.141501 
L 489.271191 78.234022 
L 489.4989 78.326543 
L 489.698145 78.419064 
L 489.954318 78.542425 
L 490.153564 78.634946 
L 490.4382 78.789148 
L 490.694373 78.881669 
L 490.979009 79.035871 
L 491.235182 79.128392 
L 491.462891 79.220913 
L 491.662136 79.313434 
L 491.918309 79.436795 
L 492.117555 79.529316 
L 492.402191 79.683518 
L 492.658364 79.776039 
L 492.943 79.930241 
L 493.170709 80.022762 
L 493.398418 80.115283 
L 493.626127 80.207804 
L 493.910764 80.362005 
L 494.166936 80.454526 
L 494.451573 80.608728 
L 494.679282 80.701249 
L 494.935455 80.824611 
L 495.1347 80.917132 
L 495.362409 81.009653 
L 495.590118 81.102174 
L 495.874755 81.256375 
L 496.102464 81.348897 
L 496.358636 81.472258 
L 496.557882 81.564779 
L 496.842518 81.718981 
L 497.098691 81.811502 
L 497.3264 81.904023 
L 497.525645 81.996544 
L 497.781818 82.119905 
L 497.981064 82.212426 
L 498.2657 82.366628 
L 498.521873 82.459149 
L 498.806509 82.613351 
L 499.034218 82.705872 
L 499.261927 82.798393 
L 499.489636 82.890914 
L 499.774273 83.045116 
L 500.030445 83.137637 
L 500.315082 83.291838 
L 500.571255 83.384359 
L 500.855891 83.538561 
L 501.0836 83.631082 
L 501.339773 83.754444 
L 501.539018 83.816124 
L 501.681336 83.908645 
L 501.880582 84.001166 
L 502.136755 84.124528 
L 502.364464 84.217049 
L 502.620636 84.34041 
L 502.876809 84.432931 
L 503.161445 84.587133 
L 503.417618 84.679654 
L 503.702255 84.833856 
L 503.929964 84.926377 
L 504.186136 85.049738 
L 504.385382 85.142259 
L 504.670018 85.296461 
L 504.926191 85.388982 
L 505.210827 85.543184 
L 505.438536 85.604864 
L 505.580855 85.697385 
L 505.808564 85.789906 
L 506.0932 85.944108 
L 506.349373 86.036629 
L 506.634009 86.190831 
L 506.861718 86.283352 
L 507.089427 86.375873 
L 507.317136 86.468394 
L 507.601773 86.622596 
L 507.857945 86.715117 
L 508.142582 86.869318 
L 508.398755 86.96184 
L 508.683391 87.116041 
L 508.9111 87.208562 
L 509.167273 87.331924 
L 509.366518 87.424445 
L 509.594227 87.516966 
L 509.821936 87.609487 
L 510.106573 87.763689 
L 510.334282 87.85621 
L 510.590455 87.979571 
L 510.7897 88.072092 
L 511.074336 88.226294 
L 511.330509 88.318815 
L 511.615145 88.473016 
L 511.842855 88.534697 
L 511.985173 88.627218 
L 512.212882 88.719739 
L 512.497518 88.873941 
L 512.753691 88.966462 
L 513.038327 89.120664 
L 513.266036 89.213185 
L 513.493745 89.305706 
L 513.721455 89.398227 
L 514.006091 89.552429 
L 514.262264 89.64495 
L 514.5469 89.799151 
L 514.803073 89.891672 
L 515.087709 90.045874 
L 515.315418 90.138395 
L 515.571591 90.261757 
L 515.770836 90.354278 
L 515.998545 90.446799 
L 516.226255 90.53932 
L 516.510891 90.693521 
L 516.7386 90.786042 
L 516.994773 90.909404 
L 517.194018 91.001925 
L 517.478655 91.156127 
L 517.734827 91.248648 
L 517.962536 91.341169 
L 518.161782 91.43369 
L 518.417955 91.557051 
L 518.6172 91.649572 
L 518.901836 91.803774 
L 519.158009 91.896295 
L 519.442645 92.050497 
L 519.670355 92.112177 
L 519.812673 92.204698 
L 520.040382 92.297219 
L 520.325018 92.451421 
L 520.581191 92.543942 
L 520.865827 92.698144 
L 521.093536 92.790665 
L 521.349709 92.914026 
L 521.605882 93.006547 
L 521.862055 93.129909 
L 522.089764 93.22243 
L 522.3744 93.376632 
L 522.630573 93.469153 
L 522.915209 93.623354 
L 523.142918 93.715875 
L 523.399091 93.839237 
L 523.598336 93.931758 
L 523.826045 94.024279 
L 524.053755 94.1168 
L 524.338391 94.271002 
L 524.5661 94.363523 
L 524.822273 94.486884 
L 525.021518 94.579405 
L 525.306155 94.733607 
L 525.562327 94.826128 
L 525.846964 94.98033 
L 526.074673 95.04201 
L 526.216991 95.134531 
L 526.4447 95.227052 
L 526.729336 95.381254 
L 526.985509 95.473775 
L 527.270145 95.627977 
L 527.497855 95.720498 
L 527.725564 95.813019 
L 527.953273 95.90554 
L 528.237909 96.059742 
L 528.494082 96.152263 
L 528.778718 96.306464 
L 529.034891 96.398985 
L 529.319527 96.553187 
L 529.547236 96.645708 
L 529.803409 96.76907 
L 530.002655 96.861591 
L 530.230364 96.954112 
L 530.458073 97.046633 
L 530.742709 97.200834 
L 530.970418 97.293355 
L 531.226591 97.416717 
L 531.425836 97.509238 
L 531.710473 97.66344 
L 531.966645 97.755961 
L 532.194355 97.848482 
L 532.3936 97.941003 
L 532.649773 98.064364 
L 532.849018 98.156885 
L 533.133655 98.311087 
L 533.389827 98.403608 
L 533.674464 98.55781 
L 533.902173 98.650331 
L 534.129882 98.742852 
L 534.357591 98.835373 
L 534.642227 98.989574 
L 534.8984 99.082096 
L 535.183036 99.236297 
L 535.439209 99.328818 
L 535.723845 99.48302 
L 535.951555 99.575541 
L 536.207727 99.698902 
L 536.406973 99.760583 
L 536.549291 99.853104 
L 536.748536 99.945625 
L 537.004709 100.068987 
L 537.232418 100.161508 
L 537.488591 100.284869 
L 537.744764 100.37739 
L 538.0294 100.531592 
L 538.285573 100.624113 
L 538.570209 100.778315 
L 538.797918 100.870836 
L 539.054091 100.994197 
L 539.253336 101.086718 
L 539.537973 101.24092 
L 539.794145 101.333441 
L 540.078782 101.487643 
L 540.306491 101.549323 
L 540.448809 101.641844 
L 540.676518 101.734365 
L 540.961155 101.888567 
L 541.217327 101.981088 
L 541.501964 102.13529 
L 541.729673 102.227811 
L 541.957382 102.320332 
L 542.185091 102.412853 
L 542.469727 102.567055 
L 542.7259 102.659576 
L 543.010536 102.813777 
L 543.266709 102.906298 
L 543.551345 103.0605 
L 543.779055 103.153021 
L 544.035227 103.276383 
L 544.234473 103.368904 
L 544.462182 103.461425 
L 544.689891 103.553946 
L 544.974527 103.708147 
L 545.202236 103.800668 
L 545.458409 103.92403 
L 545.657655 104.016551 
L 545.942291 104.170753 
L 546.198464 104.263274 
L 546.4831 104.417475 
L 546.710809 104.479156 
L 546.853127 104.571677 
L 547.080836 104.664198 
L 547.365473 104.8184 
L 547.621645 104.910921 
L 547.906282 105.065123 
L 548.133991 105.157644 
L 548.3617 105.250165 
L 548.589409 105.342686 
L 548.874045 105.496888 
L 549.130218 105.589409 
L 549.414855 105.74361 
L 549.671027 105.836131 
L 549.955664 105.990333 
L 550.183373 106.082854 
L 550.439545 106.206215 
L 550.638791 106.298737 
L 550.8665 106.391258 
L 551.094209 106.483779 
L 551.378845 106.63798 
L 551.606555 106.730501 
L 551.862727 106.853863 
L 552.061973 106.946384 
L 552.346609 107.100586 
L 552.602782 107.193107 
L 552.830491 107.285628 
L 553.029736 107.378149 
L 553.285909 107.50151 
L 553.485155 107.594031 
L 553.769791 107.748233 
L 554.025964 107.840754 
L 554.3106 107.994956 
L 554.538309 108.056636 
L 554.680627 108.149157 
L 554.908336 108.241678 
L 555.192973 108.39588 
L 555.449145 108.488401 
L 555.733782 108.642603 
L 555.961491 108.735124 
L 556.217664 108.858485 
L 556.473836 108.951006 
L 556.730009 109.074368 
L 556.957718 109.166889 
L 557.242355 109.32109 
L 557.498527 109.413611 
L 557.783164 109.567813 
L 558.010873 109.660334 
L 558.267045 109.783696 
L 558.466291 109.876217 
L 558.694 109.968738 
L 558.921709 110.061259 
L 559.206345 110.21546 
L 559.434055 110.307982 
L 559.690227 110.431343 
L 559.889473 110.523864 
L 560.174109 110.678066 
L 560.430282 110.770587 
L 560.714918 110.924788 
L 560.942627 110.986469 
L 561.084945 111.07899 
L 561.312655 111.171511 
L 561.597291 111.325713 
L 561.853464 111.418234 
L 562.1381 111.572436 
L 562.365809 111.664957 
L 562.593518 111.757478 
L 562.821227 111.849999 
L 563.105864 112.004201 
L 563.362036 112.096722 
L 563.646673 112.250923 
L 563.902845 112.343444 
L 564.187482 112.497646 
L 564.415191 112.590167 
L 564.671364 112.713529 
L 564.870609 112.80605 
L 565.098318 112.898571 
L 565.326027 112.991092 
L 565.610664 113.145293 
L 565.838373 113.237814 
L 566.094545 113.361176 
L 566.293791 113.453697 
L 566.578427 113.607899 
L 566.8346 113.70042 
L 567.062309 113.792941 
L 567.261555 113.885462 
L 567.517727 114.008823 
L 567.716973 114.101344 
L 568.001609 114.255546 
L 568.257782 114.348067 
L 568.542418 114.502269 
L 568.770127 114.563949 
L 568.912445 114.65647 
L 569.140155 114.748991 
L 569.424791 114.903193 
L 569.680964 114.995714 
L 569.9656 115.149916 
L 570.193309 115.242437 
L 570.449482 115.365798 
L 570.705655 115.458319 
L 570.961827 115.581681 
L 571.189536 115.674202 
L 571.474173 115.828403 
L 571.730345 115.920924 
L 572.014982 116.075126 
L 572.242691 116.167647 
L 572.498864 116.291009 
L 572.698109 116.38353 
L 572.925818 116.476051 
L 573.153527 116.568572 
L 573.438164 116.722773 
L 573.665873 116.815295 
L 573.922045 116.938656 
L 574.121291 117.031177 
L 574.405927 117.185379 
L 574.6621 117.2779 
L 574.946736 117.432101 
L 575.174445 117.493782 
L 575.316764 117.586303 
L 575.544473 117.678824 
L 575.829109 117.833026 
L 576.085282 117.925547 
L 576.369918 118.079749 
L 576.597627 118.17227 
L 576.825336 118.264791 
L 577.053045 118.357312 
L 577.337682 118.511514 
L 577.593855 118.604035 
L 577.878491 118.758236 
L 578.134664 118.850757 
L 578.4193 119.004959 
L 578.647009 119.09748 
L 578.903182 119.220842 
L 579.102427 119.313363 
L 579.330136 119.405884 
L 579.557845 119.498405 
L 579.842482 119.652606 
L 580.070191 119.745127 
L 580.326364 119.868489 
L 580.525609 119.96101 
L 580.810245 120.115212 
L 581.066418 120.207733 
L 581.294127 120.300254 
L 581.493373 120.392775 
L 581.749545 120.516136 
L 581.948791 120.608657 
L 582.233427 120.762859 
L 582.4896 120.85538 
L 582.774236 121.009582 
L 583.001945 121.102103 
L 583.229655 121.194624 
L 583.457364 121.287145 
L 583.742 121.441346 
L 583.998173 121.533867 
L 584.282809 121.688069 
L 584.538982 121.78059 
L 584.823618 121.934792 
L 585.051327 122.027313 
L 585.3075 122.150674 
L 585.506745 122.212355 
L 585.649064 122.304876 
L 585.848309 122.397397 
L 586.104482 122.520759 
L 586.332191 122.61328 
L 586.588364 122.736641 
L 586.844536 122.829162 
L 587.129173 122.983364 
L 587.385345 123.075885 
L 587.669982 123.230087 
L 587.897691 123.322608 
L 588.153864 123.445969 
L 588.353109 123.53849 
L 588.637745 123.692692 
L 588.893918 123.785213 
L 589.178555 123.939414 
L 589.406264 124.001095 
L 589.548582 124.093616 
L 589.776291 124.186137 
L 590.060927 124.340339 
L 590.3171 124.43286 
L 590.601736 124.587062 
L 590.829445 124.679583 
L 591.057155 124.772104 
L 591.284864 124.864625 
L 591.5695 125.018827 
L 591.825673 125.111348 
L 592.110309 125.265549 
L 592.366482 125.35807 
L 592.651118 125.512272 
L 592.878827 125.604793 
L 593.135 125.728155 
L 593.334245 125.820676 
L 593.561955 125.913197 
L 593.789664 126.005718 
L 594.0743 126.159919 
L 594.302009 126.25244 
L 594.558182 126.375802 
L 594.757427 126.468323 
L 595.042064 126.622525 
L 595.298236 126.715046 
L 595.582873 126.869247 
L 595.810582 126.930928 
L 595.9529 127.023449 
L 596.180609 127.11597 
L 596.465245 127.270172 
L 596.721418 127.362693 
L 597.006055 127.516895 
L 597.233764 127.609416 
L 597.461473 127.701937 
L 597.689182 127.794458 
L 597.973818 127.948659 
L 598.229991 128.041181 
L 598.514627 128.195382 
L 598.7708 128.287903 
L 599.055436 128.442105 
L 599.283145 128.534626 
L 599.539318 128.657987 
L 599.738564 128.750508 
L 599.966273 128.84303 
L 600.193982 128.935551 
L 600.478618 129.089752 
L 600.706327 129.182273 
L 600.9625 129.305635 
L 601.161745 129.398156 
L 601.446382 129.552357 
L 601.702555 129.644879 
L 601.930264 129.7374 
L 602.129509 129.829921 
L 602.385682 129.953282 
L 602.584927 130.045803 
L 602.869564 130.200005 
L 603.125736 130.292526 
L 603.410373 130.446728 
L 603.638082 130.508408 
L 603.7804 130.600929 
L 604.008109 130.69345 
L 604.292745 130.847652 
L 604.548918 130.940173 
L 604.833555 131.094375 
L 605.061264 131.186896 
L 605.317436 131.310257 
L 605.573609 131.402778 
L 605.829782 131.52614 
L 606.057491 131.618661 
L 606.342127 131.772862 
L 606.5983 131.865383 
L 606.882936 132.019585 
L 607.110645 132.112106 
L 607.366818 132.235468 
L 607.566064 132.327989 
L 607.793773 132.42051 
L 608.021482 132.513031 
L 608.306118 132.667232 
L 608.533827 132.759753 
L 608.79 132.883115 
L 608.989245 132.975636 
L 609.273882 133.129838 
L 609.530055 133.222359 
L 609.814691 133.37656 
L 610.0424 133.438241 
L 610.184718 133.530762 
L 610.412427 133.623283 
L 610.697064 133.777485 
L 610.953236 133.870006 
L 611.237873 134.024208 
L 611.465582 134.116729 
L 611.693291 134.20925 
L 611.921 134.301771 
L 612.205636 134.455973 
L 612.461809 134.548494 
L 612.746445 134.702695 
L 613.002618 134.795216 
L 613.287255 134.949418 
L 613.514964 135.041939 
L 613.771136 135.1653 
L 613.970382 135.257822 
L 614.198091 135.350343 
L 614.4258 135.442864 
L 614.710436 135.597065 
L 614.938145 135.689586 
L 615.194318 135.812948 
L 615.393564 135.905469 
L 615.6782 136.05967 
L 615.934373 136.152192 
L 616.162082 136.244713 
L 616.361327 136.337234 
L 616.6175 136.460595 
L 616.816745 136.553116 
L 617.101382 136.707318 
L 617.357555 136.799839 
L 617.642191 136.954041 
L 617.8699 137.046562 
L 618.097609 137.139083 
L 618.325318 137.231604 
L 618.609955 137.385805 
L 618.866127 137.478326 
L 619.150764 137.632528 
L 619.406936 137.725049 
L 619.691573 137.879251 
L 619.919282 137.971772 
L 620.175455 138.095133 
L 620.3747 138.156814 
L 620.517018 138.249335 
L 620.716264 138.341856 
L 620.972436 138.465217 
L 621.200145 138.557739 
L 621.456318 138.6811 
L 621.712491 138.773621 
L 621.997127 138.927823 
L 622.2533 139.020344 
L 622.537936 139.174545 
L 622.765645 139.267066 
L 623.021818 139.390428 
L 623.221064 139.482949 
L 623.5057 139.637151 
L 623.761873 139.729672 
L 624.046509 139.883873 
L 624.274218 139.945554 
L 624.416536 140.038075 
L 624.644245 140.130596 
L 624.928882 140.284798 
L 625.185055 140.377319 
L 625.469691 140.531521 
L 625.6974 140.624042 
L 625.925109 140.716563 
L 626.152818 140.809084 
L 626.437455 140.963286 
L 626.693627 141.055807 
L 626.978264 141.210008 
L 627.234436 141.302529 
L 627.519073 141.456731 
L 627.746782 141.549252 
L 628.002955 141.672613 
L 628.2022 141.765135 
L 628.429909 141.857656 
L 628.657618 141.950177 
L 628.942255 142.104378 
L 629.169964 142.196899 
L 629.426136 142.320261 
L 629.625382 142.412782 
L 629.910018 142.566984 
L 630.166191 142.659505 
L 630.3939 142.752026 
L 630.593145 142.844547 
L 630.849318 142.967908 
L 631.048564 143.060429 
L 631.3332 143.214631 
L 631.589373 143.307152 
L 631.874009 143.461354 
L 632.101718 143.553875 
L 632.329427 143.646396 
L 632.557136 143.738917 
L 632.841773 143.893118 
L 633.097945 143.985639 
L 633.382582 144.139841 
L 633.638755 144.232362 
L 633.923391 144.386564 
L 634.1511 144.479085 
L 634.407273 144.602446 
L 634.606518 144.664127 
L 634.748836 144.756648 
L 634.948082 144.849169 
L 635.204255 144.972531 
L 635.431964 145.065052 
L 635.688136 145.188413 
L 635.944309 145.280934 
L 636.228945 145.435136 
L 636.485118 145.527657 
L 636.769755 145.681858 
L 636.997464 145.77438 
L 637.253636 145.897741 
L 637.452882 145.990262 
L 637.737518 146.144464 
L 637.993691 146.236985 
L 638.278327 146.391186 
L 638.506036 146.452867 
L 638.648355 146.545388 
L 638.876064 146.637909 
L 639.1607 146.792111 
L 639.416873 146.884632 
L 639.701509 147.038834 
L 639.929218 147.131355 
L 640.156927 147.223876 
L 640.384636 147.316397 
L 640.669273 147.470599 
L 640.925445 147.56312 
L 641.210082 147.717321 
L 641.466255 147.809842 
L 641.750891 147.964044 
L 641.9786 148.056565 
L 642.234773 148.179927 
L 642.434018 148.272448 
L 642.661727 148.364969 
L 642.889436 148.45749 
L 643.174073 148.611691 
L 643.401782 148.704212 
L 643.657955 148.827574 
L 643.8572 148.920095 
L 644.141836 149.074297 
L 644.398009 149.166818 
L 644.682645 149.321019 
L 644.910355 149.3827 
L 645.052673 149.475221 
L 645.280382 149.567742 
L 645.565018 149.721944 
L 645.821191 149.814465 
L 646.105827 149.968667 
L 646.333536 150.061188 
L 646.561245 150.153709 
L 646.788955 150.24623 
L 647.073591 150.400431 
L 647.329764 150.492952 
L 647.6144 150.647154 
L 647.870573 150.739675 
L 648.155209 150.893877 
L 648.382918 150.986398 
L 648.639091 151.109759 
L 648.838336 151.20228 
L 649.066045 151.294801 
L 649.265291 151.387323 
L 649.521464 151.510684 
L 649.720709 151.603205 
L 650.005345 151.757407 
L 650.261518 151.849928 
L 650.546155 152.004129 
L 650.802327 152.09665 
L 651.030036 152.189172 
L 651.229282 152.281693 
L 651.485455 152.405054 
L 651.6847 152.497575 
L 651.969336 152.651777 
L 652.225509 152.744298 
L 652.510145 152.898499 
L 652.737855 152.96018 
L 652.880173 153.052701 
L 653.107882 153.145222 
L 653.392518 153.299424 
L 653.648691 153.391945 
L 653.933327 153.546147 
L 654.161036 153.638668 
L 654.417209 153.762029 
L 654.673382 153.85455 
L 654.929555 153.977912 
L 655.157264 154.070433 
L 655.4419 154.224634 
L 655.669609 154.317155 
L 655.925782 154.440517 
L 656.125027 154.533038 
L 656.409664 154.68724 
L 656.665836 154.779761 
L 656.893545 154.872282 
L 657.092791 154.964803 
L 657.348964 155.088164 
L 657.548209 155.180685 
L 657.832845 155.334887 
L 658.089018 155.427408 
L 658.373655 155.58161 
L 658.629827 155.674131 
L 658.914464 155.828332 
L 659.142173 155.890013 
L 659.284491 155.982534 
L 659.5122 156.075055 
L 659.796836 156.229257 
L 660.053009 156.321778 
L 660.337645 156.47598 
L 660.565355 156.568501 
L 660.793064 156.661022 
L 661.020773 156.753543 
L 661.305409 156.907744 
L 661.561582 157.000265 
L 661.846218 157.154467 
L 662.073927 157.246988 
L 662.3301 157.37035 
L 662.529345 157.462871 
L 662.813982 157.617072 
L 663.070155 157.709593 
L 663.297864 157.802114 
L 663.497109 157.894636 
L 663.753282 158.017997 
L 663.952527 158.110518 
L 664.237164 158.26472 
L 664.493336 158.357241 
L 664.777973 158.511442 
L 665.034145 158.603963 
L 665.261855 158.696485 
L 665.4611 158.789006 
L 665.717273 158.912367 
L 665.916518 159.004888 
L 666.201155 159.15909 
L 666.457327 159.251611 
L 666.741964 159.405812 
L 666.969673 159.498334 
L 667.197382 159.590855 
L 667.425091 159.683376 
L 667.709727 159.837577 
L 667.9659 159.930098 
L 668.250536 160.0843 
L 668.478245 160.176821 
L 668.734418 160.300183 
L 668.933664 160.392704 
L 669.161373 160.485225 
L 669.389082 160.577746 
L 669.673718 160.731947 
L 669.901427 160.824468 
L 670.1576 160.94783 
L 670.356845 161.040351 
L 670.641482 161.194553 
L 670.897655 161.287074 
L 671.182291 161.441275 
L 671.438464 161.533796 
L 671.666173 161.626317 
L 671.865418 161.718838 
L 672.121591 161.8422 
L 672.320836 161.934721 
L 672.605473 162.088923 
L 672.861645 162.181444 
L 673.146282 162.335645 
L 673.373991 162.397326 
L 673.516309 162.489847 
L 673.744018 162.582368 
L 674.028655 162.73657 
L 674.256364 162.829091 
L 674.256364 162.829091 
" style="fill:none;stroke:#1f77b4;stroke-linecap:square;stroke-width:1.5;"/>
   </g>
   <g id="patch_3">
    <path d="M 76.52 167.56 
L 76.52 63.48 
" style="fill:none;stroke:#000000;stroke-linecap:square;stroke-linejoin:miter;stroke-width:0.8;"/>
   </g>
   <g id="patch_4">
    <path d="M 702.72 167.56 
L 702.72 63.48 
" style="fill:none;stroke:#000000;stroke-linecap:square;stroke-linejoin:miter;stroke-width:0.8;"/>
   </g>
   <g id="patch_5">
    <path d="M 76.52 167.56 
L 702.72 167.56 
" style="fill:none;stroke:#000000;stroke-linecap:square;stroke-linejoin:miter;stroke-width:0.8;"/>
   </g>
   <g id="patch_6">
    <path d="M 76.52 63.48 
L 702.72 63.48 
" style="fill:none;stroke:#000000;stroke-linecap:square;stroke-linejoin:miter;stroke-width:0.8;"/>
   </g>
  </g>
  <g id="axes_2">
   <g id="patch_7">
    <path d="M 76.52 343.24 
L 702.72 343.24 
L 702.72 239.16 
L 76.52 239.16 
z
" style="fill:#ffffff;"/>
   </g>
   <g id="matplotlib.axis_3">
    <g id="xtick_10">
     <g id="line2d_14">
      <g>
       <use style="stroke:#000000;stroke-width:0.8;" x="104.983636" xlink:href="#m06d07cc5d6" y="343.24"/>
      </g>
     </g>
     <g id="text_16">
      <!-- 0 -->
      <g transform="translate(99.893636 362.3975)scale(0.16 -0.16)">
       <use xlink:href="#DejaVuSans-30"/>
      </g>
     </g>
    </g>
    <g id="xtick_11">
     <g id="line2d_15">
      <g>
       <use style="stroke:#000000;stroke-width:0.8;" x="176.142727" xlink:href="#m06d07cc5d6" y="343.24"/>
      </g>
     </g>
     <g id="text_17">
      <!-- 25 -->
      <g transform="translate(165.962727 362.3975)scale(0.16 -0.16)">
       <use xlink:href="#DejaVuSans-32"/>
       <use x="63.623047" xlink:href="#DejaVuSans-35"/>
      </g>
     </g>
    </g>
    <g id="xtick_12">
     <g id="line2d_16">
      <g>
       <use style="stroke:#000000;stroke-width:0.8;" x="247.301818" xlink:href="#m06d07cc5d6" y="343.24"/>
      </g>
     </g>
     <g id="text_18">
      <!-- 50 -->
      <g transform="translate(237.121818 362.3975)scale(0.16 -0.16)">
       <use xlink:href="#DejaVuSans-35"/>
       <use x="63.623047" xlink:href="#DejaVuSans-30"/>
      </g>
     </g>
    </g>
    <g id="xtick_13">
     <g id="line2d_17">
      <g>
       <use style="stroke:#000000;stroke-width:0.8;" x="318.460909" xlink:href="#m06d07cc5d6" y="343.24"/>
      </g>
     </g>
     <g id="text_19">
      <!-- 75 -->
      <g transform="translate(308.280909 362.3975)scale(0.16 -0.16)">
       <use xlink:href="#DejaVuSans-37"/>
       <use x="63.623047" xlink:href="#DejaVuSans-35"/>
      </g>
     </g>
    </g>
    <g id="xtick_14">
     <g id="line2d_18">
      <g>
       <use style="stroke:#000000;stroke-width:0.8;" x="389.62" xlink:href="#m06d07cc5d6" y="343.24"/>
      </g>
     </g>
     <g id="text_20">
      <!-- 100 -->
      <g transform="translate(374.35 362.3975)scale(0.16 -0.16)">
       <use xlink:href="#DejaVuSans-31"/>
       <use x="63.623047" xlink:href="#DejaVuSans-30"/>
       <use x="127.246094" xlink:href="#DejaVuSans-30"/>
      </g>
     </g>
    </g>
    <g id="xtick_15">
     <g id="line2d_19">
      <g>
       <use style="stroke:#000000;stroke-width:0.8;" x="460.779091" xlink:href="#m06d07cc5d6" y="343.24"/>
      </g>
     </g>
     <g id="text_21">
      <!-- 125 -->
      <g transform="translate(445.509091 362.3975)scale(0.16 -0.16)">
       <use xlink:href="#DejaVuSans-31"/>
       <use x="63.623047" xlink:href="#DejaVuSans-32"/>
       <use x="127.246094" xlink:href="#DejaVuSans-35"/>
      </g>
     </g>
    </g>
    <g id="xtick_16">
     <g id="line2d_20">
      <g>
       <use style="stroke:#000000;stroke-width:0.8;" x="531.938182" xlink:href="#m06d07cc5d6" y="343.24"/>
      </g>
     </g>
     <g id="text_22">
      <!-- 150 -->
      <g transform="translate(516.668182 362.3975)scale(0.16 -0.16)">
       <use xlink:href="#DejaVuSans-31"/>
       <use x="63.623047" xlink:href="#DejaVuSans-35"/>
       <use x="127.246094" xlink:href="#DejaVuSans-30"/>
      </g>
     </g>
    </g>
    <g id="xtick_17">
     <g id="line2d_21">
      <g>
       <use style="stroke:#000000;stroke-width:0.8;" x="603.097273" xlink:href="#m06d07cc5d6" y="343.24"/>
      </g>
     </g>
     <g id="text_23">
      <!-- 175 -->
      <g transform="translate(587.827273 362.3975)scale(0.16 -0.16)">
       <use xlink:href="#DejaVuSans-31"/>
       <use x="63.623047" xlink:href="#DejaVuSans-37"/>
       <use x="127.246094" xlink:href="#DejaVuSans-35"/>
      </g>
     </g>
    </g>
    <g id="xtick_18">
     <g id="line2d_22">
      <g>
       <use style="stroke:#000000;stroke-width:0.8;" x="674.256364" xlink:href="#m06d07cc5d6" y="343.24"/>
      </g>
     </g>
     <g id="text_24">
      <!-- 200 -->
      <g transform="translate(658.986364 362.3975)scale(0.16 -0.16)">
       <use xlink:href="#DejaVuSans-32"/>
       <use x="63.623047" xlink:href="#DejaVuSans-30"/>
       <use x="127.246094" xlink:href="#DejaVuSans-30"/>
      </g>
     </g>
    </g>
    <g id="text_25">
     <!-- Time [s] -->
     <g transform="translate(357.09375 381.8825)scale(0.16 -0.16)">
      <use xlink:href="#DejaVuSans-54"/>
      <use x="57.958984" xlink:href="#DejaVuSans-69"/>
      <use x="85.742188" xlink:href="#DejaVuSans-6d"/>
      <use x="183.154297" xlink:href="#DejaVuSans-65"/>
      <use x="244.677734" xlink:href="#DejaVuSans-20"/>
      <use x="276.464844" xlink:href="#DejaVuSans-5b"/>
      <use x="315.478516" xlink:href="#DejaVuSans-73"/>
      <use x="367.578125" xlink:href="#DejaVuSans-5d"/>
     </g>
    </g>
   </g>
   <g id="matplotlib.axis_4">
    <g id="ytick_4">
     <g id="line2d_23">
      <g>
       <use style="stroke:#000000;stroke-width:0.8;" x="76.52" xlink:href="#mffecb32edf" y="330.041964"/>
      </g>
     </g>
     <g id="text_26">
      <!-- 0 -->
      <g transform="translate(59.34 336.120714)scale(0.16 -0.16)">
       <use xlink:href="#DejaVuSans-30"/>
      </g>
     </g>
    </g>
    <g id="ytick_5">
     <g id="line2d_24">
      <g>
       <use style="stroke:#000000;stroke-width:0.8;" x="76.52" xlink:href="#mffecb32edf" y="269.913513"/>
      </g>
     </g>
     <g id="text_27">
      <!-- 2 -->
      <g transform="translate(59.34 275.992263)scale(0.16 -0.16)">
       <use xlink:href="#DejaVuSans-32"/>
      </g>
     </g>
    </g>
    <g id="text_28">
     <!-- Position [m] -->
     <g transform="translate(28.425 338.92)rotate(-90)scale(0.16 -0.16)">
      <defs>
       <path d="M 1259 4147 
L 1259 2394 
L 2053 2394 
Q 2494 2394 2734 2622 
Q 2975 2850 2975 3272 
Q 2975 3691 2734 3919 
Q 2494 4147 2053 4147 
L 1259 4147 
z
M 628 4666 
L 2053 4666 
Q 2838 4666 3239 4311 
Q 3641 3956 3641 3272 
Q 3641 2581 3239 2228 
Q 2838 1875 2053 1875 
L 1259 1875 
L 1259 0 
L 628 0 
L 628 4666 
z
" id="DejaVuSans-50" transform="scale(0.015625)"/>
       <path d="M 1959 3097 
Q 1497 3097 1228 2736 
Q 959 2375 959 1747 
Q 959 1119 1226 758 
Q 1494 397 1959 397 
Q 2419 397 2687 759 
Q 2956 1122 2956 1747 
Q 2956 2369 2687 2733 
Q 2419 3097 1959 3097 
z
M 1959 3584 
Q 2709 3584 3137 3096 
Q 3566 2609 3566 1747 
Q 3566 888 3137 398 
Q 2709 -91 1959 -91 
Q 1206 -91 779 398 
Q 353 888 353 1747 
Q 353 2609 779 3096 
Q 1206 3584 1959 3584 
z
" id="DejaVuSans-6f" transform="scale(0.015625)"/>
       <path d="M 3513 2113 
L 3513 0 
L 2938 0 
L 2938 2094 
Q 2938 2591 2744 2837 
Q 2550 3084 2163 3084 
Q 1697 3084 1428 2787 
Q 1159 2491 1159 1978 
L 1159 0 
L 581 0 
L 581 3500 
L 1159 3500 
L 1159 2956 
Q 1366 3272 1645 3428 
Q 1925 3584 2291 3584 
Q 2894 3584 3203 3211 
Q 3513 2838 3513 2113 
z
" id="DejaVuSans-6e" transform="scale(0.015625)"/>
      </defs>
      <use xlink:href="#DejaVuSans-50"/>
      <use x="56.677734" xlink:href="#DejaVuSans-6f"/>
      <use x="117.859375" xlink:href="#DejaVuSans-73"/>
      <use x="169.958984" xlink:href="#DejaVuSans-69"/>
      <use x="197.742188" xlink:href="#DejaVuSans-74"/>
      <use x="236.951172" xlink:href="#DejaVuSans-69"/>
      <use x="264.734375" xlink:href="#DejaVuSans-6f"/>
      <use x="325.916016" xlink:href="#DejaVuSans-6e"/>
      <use x="389.294922" xlink:href="#DejaVuSans-20"/>
      <use x="421.082031" xlink:href="#DejaVuSans-5b"/>
      <use x="460.095703" xlink:href="#DejaVuSans-6d"/>
      <use x="557.507812" xlink:href="#DejaVuSans-5d"/>
     </g>
    </g>
    <g id="text_29">
     <!-- 1e−5 -->
     <g transform="translate(76.52 236.16)scale(0.16 -0.16)">
      <use xlink:href="#DejaVuSans-31"/>
      <use x="63.623047" xlink:href="#DejaVuSans-65"/>
      <use x="125.146484" xlink:href="#DejaVuSans-2212"/>
      <use x="208.935547" xlink:href="#DejaVuSans-35"/>
     </g>
    </g>
   </g>
   <g id="line2d_25">
    <path clip-path="url(#pfd91cde13d)" d="M 104.983636 330.041964 
L 132.2518 333.651075 
L 146.882109 335.356109 
L 159.235327 336.57597 
L 170.364609 337.454889 
L 180.725373 338.052558 
L 190.545327 338.398205 
L 199.995255 338.509069 
L 209.132082 338.394906 
L 218.069664 338.061465 
L 226.864927 337.510769 
L 235.546336 336.744673 
L 244.170818 335.760873 
L 252.7953 334.553322 
L 261.448245 333.117205 
L 270.186582 331.440997 
L 279.038773 329.516072 
L 288.061745 327.326082 
L 297.340891 324.843882 
L 306.933136 322.0462 
L 316.952336 318.89038 
L 327.540809 315.319763 
L 338.954727 311.232617 
L 351.649509 306.444469 
L 366.592918 300.560247 
L 388.026036 291.853435 
L 417.571291 279.878677 
L 432.5147 274.073153 
L 445.152555 269.398262 
L 456.509545 265.431344 
L 467.041091 261.98534 
L 477.003364 258.956856 
L 486.567145 256.280168 
L 495.817827 253.920704 
L 504.8408 251.8479 
L 513.692991 250.041838 
L 522.431327 248.485637 
L 531.084273 247.169867 
L 539.708755 246.082667 
L 548.3617 245.216045 
L 557.071573 244.567576 
L 565.866836 244.135573 
L 574.832882 243.918167 
L 584.026636 243.918749 
L 593.505027 244.142695 
L 603.410373 244.60116 
L 613.856527 245.309576 
L 625.099664 246.298005 
L 637.623664 247.628338 
L 652.367827 249.427662 
L 673.772482 252.28986 
L 674.256364 252.355871 
L 674.256364 252.355871 
" style="fill:none;stroke:#1f77b4;stroke-linecap:square;stroke-width:1.5;"/>
   </g>
   <g id="line2d_26">
    <path clip-path="url(#pfd91cde13d)" d="M 104.983636 330.041964 
L 113.579655 329.930758 
L 122.204136 329.596676 
L 130.914009 329.036171 
L 139.737736 328.245006 
L 148.732245 327.214928 
L 157.982927 325.930674 
L 167.546709 324.377381 
L 177.565909 322.52285 
L 188.182845 320.328811 
L 199.653691 317.72785 
L 212.490791 314.58357 
L 227.889618 310.572582 
L 253.1084 303.731513 
L 275.850845 297.651951 
L 290.395764 293.992571 
L 302.748982 291.109749 
L 313.906727 288.731144 
L 324.295955 286.741521 
L 334.115909 285.084775 
L 343.565836 283.714424 
L 352.731127 282.609492 
L 361.668709 281.755502 
L 370.435509 281.140339 
L 379.088455 280.754923 
L 387.684473 280.593673 
L 396.280491 280.654784 
L 404.904973 280.939013 
L 413.586382 281.448005 
L 422.381645 282.186932 
L 431.347691 283.164311 
L 440.541445 284.391491 
L 450.0483 285.886673 
L 459.953645 287.671593 
L 470.428264 289.787801 
L 481.6714 292.289128 
L 494.138473 295.29524 
L 508.768782 299.060124 
L 529.547236 304.662309 
L 559.604836 312.748637 
L 574.349 316.471236 
L 586.759145 319.379845 
L 597.945355 321.777236 
L 608.363045 323.785208 
L 618.211464 325.459546 
L 627.689855 326.846615 
L 636.855145 327.964091 
L 645.792727 328.830847 
L 654.587991 329.460606 
L 663.2694 329.859254 
L 671.893882 330.032316 
L 674.256364 330.040689 
L 674.256364 330.040689 
" style="fill:none;stroke:#ff7f0e;stroke-linecap:square;stroke-width:1.5;"/>
   </g>
   <g id="patch_8">
    <path d="M 76.52 343.24 
L 76.52 239.16 
" style="fill:none;stroke:#000000;stroke-linecap:square;stroke-linejoin:miter;stroke-width:0.8;"/>
   </g>
   <g id="patch_9">
    <path d="M 702.72 343.24 
L 702.72 239.16 
" style="fill:none;stroke:#000000;stroke-linecap:square;stroke-linejoin:miter;stroke-width:0.8;"/>
   </g>
   <g id="patch_10">
    <path d="M 76.52 343.24 
L 702.72 343.24 
" style="fill:none;stroke:#000000;stroke-linecap:square;stroke-linejoin:miter;stroke-width:0.8;"/>
   </g>
   <g id="patch_11">
    <path d="M 76.52 239.16 
L 702.72 239.16 
" style="fill:none;stroke:#000000;stroke-linecap:square;stroke-linejoin:miter;stroke-width:0.8;"/>
   </g>
   <g id="legend_1">
    <g id="patch_12">
     <path d="M 87.72 299.82 
L 187.1725 299.82 
Q 190.3725 299.82 190.3725 296.62 
L 190.3725 250.36 
Q 190.3725 247.16 187.1725 247.16 
L 87.72 247.16 
Q 84.52 247.16 84.52 250.36 
L 84.52 296.62 
Q 84.52 299.82 87.72 299.82 
z
" style="fill:#ffffff;opacity:0.8;stroke:#cccccc;stroke-linejoin:miter;"/>
    </g>
    <g id="line2d_27">
     <path d="M 90.92 260.1175 
L 122.92 260.1175 
" style="fill:none;stroke:#1f77b4;stroke-linecap:square;stroke-width:1.5;"/>
    </g>
    <g id="line2d_28"/>
    <g id="text_30">
     <!-- pos_E -->
     <g transform="translate(135.72 265.7175)scale(0.16 -0.16)">
      <defs>
       <path d="M 1159 525 
L 1159 -1331 
L 581 -1331 
L 581 3500 
L 1159 3500 
L 1159 2969 
Q 1341 3281 1617 3432 
Q 1894 3584 2278 3584 
Q 2916 3584 3314 3078 
Q 3713 2572 3713 1747 
Q 3713 922 3314 415 
Q 2916 -91 2278 -91 
Q 1894 -91 1617 61 
Q 1341 213 1159 525 
z
M 3116 1747 
Q 3116 2381 2855 2742 
Q 2594 3103 2138 3103 
Q 1681 3103 1420 2742 
Q 1159 2381 1159 1747 
Q 1159 1113 1420 752 
Q 1681 391 2138 391 
Q 2594 391 2855 752 
Q 3116 1113 3116 1747 
z
" id="DejaVuSans-70" transform="scale(0.015625)"/>
       <path d="M 3263 -1063 
L 3263 -1509 
L -63 -1509 
L -63 -1063 
L 3263 -1063 
z
" id="DejaVuSans-5f" transform="scale(0.015625)"/>
       <path d="M 628 4666 
L 3578 4666 
L 3578 4134 
L 1259 4134 
L 1259 2753 
L 3481 2753 
L 3481 2222 
L 1259 2222 
L 1259 531 
L 3634 531 
L 3634 0 
L 628 0 
L 628 4666 
z
" id="DejaVuSans-45" transform="scale(0.015625)"/>
      </defs>
      <use xlink:href="#DejaVuSans-70"/>
      <use x="63.476562" xlink:href="#DejaVuSans-6f"/>
      <use x="124.658203" xlink:href="#DejaVuSans-73"/>
      <use x="176.757812" xlink:href="#DejaVuSans-5f"/>
      <use x="226.757812" xlink:href="#DejaVuSans-45"/>
     </g>
    </g>
    <g id="line2d_29">
     <path d="M 90.92 284.0475 
L 122.92 284.0475 
" style="fill:none;stroke:#ff7f0e;stroke-linecap:square;stroke-width:1.5;"/>
    </g>
    <g id="line2d_30"/>
    <g id="text_31">
     <!-- pos_N -->
     <g transform="translate(135.72 289.6475)scale(0.16 -0.16)">
      <defs>
       <path d="M 628 4666 
L 1478 4666 
L 3547 763 
L 3547 4666 
L 4159 4666 
L 4159 0 
L 3309 0 
L 1241 3903 
L 1241 0 
L 628 0 
L 628 4666 
z
" id="DejaVuSans-4e" transform="scale(0.015625)"/>
      </defs>
      <use xlink:href="#DejaVuSans-70"/>
      <use x="63.476562" xlink:href="#DejaVuSans-6f"/>
      <use x="124.658203" xlink:href="#DejaVuSans-73"/>
      <use x="176.757812" xlink:href="#DejaVuSans-5f"/>
      <use x="226.757812" xlink:href="#DejaVuSans-4e"/>
     </g>
    </g>
   </g>
  </g>
  <g id="axes_3">
   <g id="patch_13">
    <path d="M 76.52 518.92 
L 702.72 518.92 
L 702.72 414.84 
L 76.52 414.84 
z
" style="fill:#ffffff;"/>
   </g>
   <g id="matplotlib.axis_5">
    <g id="xtick_19">
     <g id="line2d_31">
      <g>
       <use style="stroke:#000000;stroke-width:0.8;" x="104.983636" xlink:href="#m06d07cc5d6" y="518.92"/>
      </g>
     </g>
     <g id="text_32">
      <!-- 0 -->
      <g transform="translate(99.893636 538.0775)scale(0.16 -0.16)">
       <use xlink:href="#DejaVuSans-30"/>
      </g>
     </g>
    </g>
    <g id="xtick_20">
     <g id="line2d_32">
      <g>
       <use style="stroke:#000000;stroke-width:0.8;" x="176.142727" xlink:href="#m06d07cc5d6" y="518.92"/>
      </g>
     </g>
     <g id="text_33">
      <!-- 25 -->
      <g transform="translate(165.962727 538.0775)scale(0.16 -0.16)">
       <use xlink:href="#DejaVuSans-32"/>
       <use x="63.623047" xlink:href="#DejaVuSans-35"/>
      </g>
     </g>
    </g>
    <g id="xtick_21">
     <g id="line2d_33">
      <g>
       <use style="stroke:#000000;stroke-width:0.8;" x="247.301818" xlink:href="#m06d07cc5d6" y="518.92"/>
      </g>
     </g>
     <g id="text_34">
      <!-- 50 -->
      <g transform="translate(237.121818 538.0775)scale(0.16 -0.16)">
       <use xlink:href="#DejaVuSans-35"/>
       <use x="63.623047" xlink:href="#DejaVuSans-30"/>
      </g>
     </g>
    </g>
    <g id="xtick_22">
     <g id="line2d_34">
      <g>
       <use style="stroke:#000000;stroke-width:0.8;" x="318.460909" xlink:href="#m06d07cc5d6" y="518.92"/>
      </g>
     </g>
     <g id="text_35">
      <!-- 75 -->
      <g transform="translate(308.280909 538.0775)scale(0.16 -0.16)">
       <use xlink:href="#DejaVuSans-37"/>
       <use x="63.623047" xlink:href="#DejaVuSans-35"/>
      </g>
     </g>
    </g>
    <g id="xtick_23">
     <g id="line2d_35">
      <g>
       <use style="stroke:#000000;stroke-width:0.8;" x="389.62" xlink:href="#m06d07cc5d6" y="518.92"/>
      </g>
     </g>
     <g id="text_36">
      <!-- 100 -->
      <g transform="translate(374.35 538.0775)scale(0.16 -0.16)">
       <use xlink:href="#DejaVuSans-31"/>
       <use x="63.623047" xlink:href="#DejaVuSans-30"/>
       <use x="127.246094" xlink:href="#DejaVuSans-30"/>
      </g>
     </g>
    </g>
    <g id="xtick_24">
     <g id="line2d_36">
      <g>
       <use style="stroke:#000000;stroke-width:0.8;" x="460.779091" xlink:href="#m06d07cc5d6" y="518.92"/>
      </g>
     </g>
     <g id="text_37">
      <!-- 125 -->
      <g transform="translate(445.509091 538.0775)scale(0.16 -0.16)">
       <use xlink:href="#DejaVuSans-31"/>
       <use x="63.623047" xlink:href="#DejaVuSans-32"/>
       <use x="127.246094" xlink:href="#DejaVuSans-35"/>
      </g>
     </g>
    </g>
    <g id="xtick_25">
     <g id="line2d_37">
      <g>
       <use style="stroke:#000000;stroke-width:0.8;" x="531.938182" xlink:href="#m06d07cc5d6" y="518.92"/>
      </g>
     </g>
     <g id="text_38">
      <!-- 150 -->
      <g transform="translate(516.668182 538.0775)scale(0.16 -0.16)">
       <use xlink:href="#DejaVuSans-31"/>
       <use x="63.623047" xlink:href="#DejaVuSans-35"/>
       <use x="127.246094" xlink:href="#DejaVuSans-30"/>
      </g>
     </g>
    </g>
    <g id="xtick_26">
     <g id="line2d_38">
      <g>
       <use style="stroke:#000000;stroke-width:0.8;" x="603.097273" xlink:href="#m06d07cc5d6" y="518.92"/>
      </g>
     </g>
     <g id="text_39">
      <!-- 175 -->
      <g transform="translate(587.827273 538.0775)scale(0.16 -0.16)">
       <use xlink:href="#DejaVuSans-31"/>
       <use x="63.623047" xlink:href="#DejaVuSans-37"/>
       <use x="127.246094" xlink:href="#DejaVuSans-35"/>
      </g>
     </g>
    </g>
    <g id="xtick_27">
     <g id="line2d_39">
      <g>
       <use style="stroke:#000000;stroke-width:0.8;" x="674.256364" xlink:href="#m06d07cc5d6" y="518.92"/>
      </g>
     </g>
     <g id="text_40">
      <!-- 200 -->
      <g transform="translate(658.986364 538.0775)scale(0.16 -0.16)">
       <use xlink:href="#DejaVuSans-32"/>
       <use x="63.623047" xlink:href="#DejaVuSans-30"/>
       <use x="127.246094" xlink:href="#DejaVuSans-30"/>
      </g>
     </g>
    </g>
    <g id="text_41">
     <!-- Time [s] -->
     <g transform="translate(357.09375 557.5625)scale(0.16 -0.16)">
      <use xlink:href="#DejaVuSans-54"/>
      <use x="57.958984" xlink:href="#DejaVuSans-69"/>
      <use x="85.742188" xlink:href="#DejaVuSans-6d"/>
      <use x="183.154297" xlink:href="#DejaVuSans-65"/>
      <use x="244.677734" xlink:href="#DejaVuSans-20"/>
      <use x="276.464844" xlink:href="#DejaVuSans-5b"/>
      <use x="315.478516" xlink:href="#DejaVuSans-73"/>
      <use x="367.578125" xlink:href="#DejaVuSans-5d"/>
     </g>
    </g>
   </g>
   <g id="matplotlib.axis_6">
    <g id="ytick_6">
     <g id="line2d_40">
      <g>
       <use style="stroke:#000000;stroke-width:0.8;" x="76.52" xlink:href="#mffecb32edf" y="479.806715"/>
      </g>
     </g>
     <g id="text_42">
      <!-- −10 -->
      <g transform="translate(35.7525 485.885465)scale(0.16 -0.16)">
       <use xlink:href="#DejaVuSans-2212"/>
       <use x="83.789062" xlink:href="#DejaVuSans-31"/>
       <use x="147.412109" xlink:href="#DejaVuSans-30"/>
      </g>
     </g>
    </g>
    <g id="ytick_7">
     <g id="line2d_41">
      <g>
       <use style="stroke:#000000;stroke-width:0.8;" x="76.52" xlink:href="#mffecb32edf" y="419.57091"/>
      </g>
     </g>
     <g id="text_43">
      <!-- 0 -->
      <g transform="translate(59.34 425.64966)scale(0.16 -0.16)">
       <use xlink:href="#DejaVuSans-30"/>
      </g>
     </g>
    </g>
    <g id="text_44">
     <!-- Velocity [m/s] -->
     <g transform="translate(28.425 521.705)rotate(-90)scale(0.16 -0.16)">
      <defs>
       <path d="M 1831 0 
L 50 4666 
L 709 4666 
L 2188 738 
L 3669 4666 
L 4325 4666 
L 2547 0 
L 1831 0 
z
" id="DejaVuSans-56" transform="scale(0.015625)"/>
       <path d="M 603 4863 
L 1178 4863 
L 1178 0 
L 603 0 
L 603 4863 
z
" id="DejaVuSans-6c" transform="scale(0.015625)"/>
       <path d="M 3122 3366 
L 3122 2828 
Q 2878 2963 2633 3030 
Q 2388 3097 2138 3097 
Q 1578 3097 1268 2742 
Q 959 2388 959 1747 
Q 959 1106 1268 751 
Q 1578 397 2138 397 
Q 2388 397 2633 464 
Q 2878 531 3122 666 
L 3122 134 
Q 2881 22 2623 -34 
Q 2366 -91 2075 -91 
Q 1284 -91 818 406 
Q 353 903 353 1747 
Q 353 2603 823 3093 
Q 1294 3584 2113 3584 
Q 2378 3584 2631 3529 
Q 2884 3475 3122 3366 
z
" id="DejaVuSans-63" transform="scale(0.015625)"/>
       <path d="M 2059 -325 
Q 1816 -950 1584 -1140 
Q 1353 -1331 966 -1331 
L 506 -1331 
L 506 -850 
L 844 -850 
Q 1081 -850 1212 -737 
Q 1344 -625 1503 -206 
L 1606 56 
L 191 3500 
L 800 3500 
L 1894 763 
L 2988 3500 
L 3597 3500 
L 2059 -325 
z
" id="DejaVuSans-79" transform="scale(0.015625)"/>
       <path d="M 1625 4666 
L 2156 4666 
L 531 -594 
L 0 -594 
L 1625 4666 
z
" id="DejaVuSans-2f" transform="scale(0.015625)"/>
      </defs>
      <use xlink:href="#DejaVuSans-56"/>
      <use x="60.658203" xlink:href="#DejaVuSans-65"/>
      <use x="122.181641" xlink:href="#DejaVuSans-6c"/>
      <use x="149.964844" xlink:href="#DejaVuSans-6f"/>
      <use x="211.146484" xlink:href="#DejaVuSans-63"/>
      <use x="266.126953" xlink:href="#DejaVuSans-69"/>
      <use x="293.910156" xlink:href="#DejaVuSans-74"/>
      <use x="333.119141" xlink:href="#DejaVuSans-79"/>
      <use x="392.298828" xlink:href="#DejaVuSans-20"/>
      <use x="424.085938" xlink:href="#DejaVuSans-5b"/>
      <use x="463.099609" xlink:href="#DejaVuSans-6d"/>
      <use x="560.511719" xlink:href="#DejaVuSans-2f"/>
      <use x="594.203125" xlink:href="#DejaVuSans-73"/>
      <use x="646.302734" xlink:href="#DejaVuSans-5d"/>
     </g>
    </g>
   </g>
   <g id="line2d_42">
    <path clip-path="url(#p70922a3942)" d="M 104.983636 514.189091 
L 674.256364 514.189091 
L 674.256364 514.189091 
" style="fill:none;stroke:#1f77b4;stroke-linecap:square;stroke-width:1.5;"/>
   </g>
   <g id="line2d_43">
    <path clip-path="url(#p70922a3942)" d="M 104.983636 419.57091 
L 674.256364 419.57091 
L 674.256364 419.57091 
" style="fill:none;stroke:#ff7f0e;stroke-linecap:square;stroke-width:1.5;"/>
   </g>
   <g id="patch_14">
    <path d="M 76.52 518.92 
L 76.52 414.84 
" style="fill:none;stroke:#000000;stroke-linecap:square;stroke-linejoin:miter;stroke-width:0.8;"/>
   </g>
   <g id="patch_15">
    <path d="M 702.72 518.92 
L 702.72 414.84 
" style="fill:none;stroke:#000000;stroke-linecap:square;stroke-linejoin:miter;stroke-width:0.8;"/>
   </g>
   <g id="patch_16">
    <path d="M 76.52 518.92 
L 702.72 518.92 
" style="fill:none;stroke:#000000;stroke-linecap:square;stroke-linejoin:miter;stroke-width:0.8;"/>
   </g>
   <g id="patch_17">
    <path d="M 76.52 414.84 
L 702.72 414.84 
" style="fill:none;stroke:#000000;stroke-linecap:square;stroke-linejoin:miter;stroke-width:0.8;"/>
   </g>
   <g id="legend_2">
    <g id="patch_18">
     <path d="M 596.59 475.5 
L 691.52 475.5 
Q 694.72 475.5 694.72 472.3 
L 694.72 426.04 
Q 694.72 422.84 691.52 422.84 
L 596.59 422.84 
Q 593.39 422.84 593.39 426.04 
L 593.39 472.3 
Q 593.39 475.5 596.59 475.5 
z
" style="fill:#ffffff;opacity:0.8;stroke:#cccccc;stroke-linejoin:miter;"/>
    </g>
    <g id="line2d_44">
     <path d="M 599.79 435.7975 
L 631.79 435.7975 
" style="fill:none;stroke:#1f77b4;stroke-linecap:square;stroke-width:1.5;"/>
    </g>
    <g id="line2d_45"/>
    <g id="text_45">
     <!-- vel_E -->
     <g transform="translate(644.59 441.3975)scale(0.16 -0.16)">
      <defs>
       <path d="M 191 3500 
L 800 3500 
L 1894 563 
L 2988 3500 
L 3597 3500 
L 2284 0 
L 1503 0 
L 191 3500 
z
" id="DejaVuSans-76" transform="scale(0.015625)"/>
      </defs>
      <use xlink:href="#DejaVuSans-76"/>
      <use x="59.179688" xlink:href="#DejaVuSans-65"/>
      <use x="120.703125" xlink:href="#DejaVuSans-6c"/>
      <use x="148.486328" xlink:href="#DejaVuSans-5f"/>
      <use x="198.486328" xlink:href="#DejaVuSans-45"/>
     </g>
    </g>
    <g id="line2d_46">
     <path d="M 599.79 459.7275 
L 631.79 459.7275 
" style="fill:none;stroke:#ff7f0e;stroke-linecap:square;stroke-width:1.5;"/>
    </g>
    <g id="line2d_47"/>
    <g id="text_46">
     <!-- vel_N -->
     <g transform="translate(644.59 465.3275)scale(0.16 -0.16)">
      <use xlink:href="#DejaVuSans-76"/>
      <use x="59.179688" xlink:href="#DejaVuSans-65"/>
      <use x="120.703125" xlink:href="#DejaVuSans-6c"/>
      <use x="148.486328" xlink:href="#DejaVuSans-5f"/>
      <use x="198.486328" xlink:href="#DejaVuSans-4e"/>
     </g>
    </g>
   </g>
  </g>
  <g id="text_47">
   <!-- Deviation from true trajectory (PVA) -->
   <g transform="translate(216.10625 23.6775)scale(0.16 -0.16)">
    <defs>
     <path d="M 1259 4147 
L 1259 519 
L 2022 519 
Q 2988 519 3436 956 
Q 3884 1394 3884 2338 
Q 3884 3275 3436 3711 
Q 2988 4147 2022 4147 
L 1259 4147 
z
M 628 4666 
L 1925 4666 
Q 3281 4666 3915 4102 
Q 4550 3538 4550 2338 
Q 4550 1131 3912 565 
Q 3275 0 1925 0 
L 628 0 
L 628 4666 
z
" id="DejaVuSans-44" transform="scale(0.015625)"/>
     <path d="M 2375 4863 
L 2375 4384 
L 1825 4384 
Q 1516 4384 1395 4259 
Q 1275 4134 1275 3809 
L 1275 3500 
L 2222 3500 
L 2222 3053 
L 1275 3053 
L 1275 0 
L 697 0 
L 697 3053 
L 147 3053 
L 147 3500 
L 697 3500 
L 697 3744 
Q 697 4328 969 4595 
Q 1241 4863 1831 4863 
L 2375 4863 
z
" id="DejaVuSans-66" transform="scale(0.015625)"/>
     <path d="M 603 3500 
L 1178 3500 
L 1178 -63 
Q 1178 -731 923 -1031 
Q 669 -1331 103 -1331 
L -116 -1331 
L -116 -844 
L 38 -844 
Q 366 -844 484 -692 
Q 603 -541 603 -63 
L 603 3500 
z
M 603 4863 
L 1178 4863 
L 1178 4134 
L 603 4134 
L 603 4863 
z
" id="DejaVuSans-6a" transform="scale(0.015625)"/>
     <path d="M 1984 4856 
Q 1566 4138 1362 3434 
Q 1159 2731 1159 2009 
Q 1159 1288 1364 580 
Q 1569 -128 1984 -844 
L 1484 -844 
Q 1016 -109 783 600 
Q 550 1309 550 2009 
Q 550 2706 781 3412 
Q 1013 4119 1484 4856 
L 1984 4856 
z
" id="DejaVuSans-28" transform="scale(0.015625)"/>
     <path d="M 513 4856 
L 1013 4856 
Q 1481 4119 1714 3412 
Q 1947 2706 1947 2009 
Q 1947 1309 1714 600 
Q 1481 -109 1013 -844 
L 513 -844 
Q 928 -128 1133 580 
Q 1338 1288 1338 2009 
Q 1338 2731 1133 3434 
Q 928 4138 513 4856 
z
" id="DejaVuSans-29" transform="scale(0.015625)"/>
    </defs>
    <use xlink:href="#DejaVuSans-44"/>
    <use x="77.001953" xlink:href="#DejaVuSans-65"/>
    <use x="138.525391" xlink:href="#DejaVuSans-76"/>
    <use x="197.705078" xlink:href="#DejaVuSans-69"/>
    <use x="225.488281" xlink:href="#DejaVuSans-61"/>
    <use x="286.767578" xlink:href="#DejaVuSans-74"/>
    <use x="325.976562" xlink:href="#DejaVuSans-69"/>
    <use x="353.759766" xlink:href="#DejaVuSans-6f"/>
    <use x="414.941406" xlink:href="#DejaVuSans-6e"/>
    <use x="478.320312" xlink:href="#DejaVuSans-20"/>
    <use x="510.107422" xlink:href="#DejaVuSans-66"/>
    <use x="545.3125" xlink:href="#DejaVuSans-72"/>
    <use x="584.175781" xlink:href="#DejaVuSans-6f"/>
    <use x="645.357422" xlink:href="#DejaVuSans-6d"/>
    <use x="742.769531" xlink:href="#DejaVuSans-20"/>
    <use x="774.556641" xlink:href="#DejaVuSans-74"/>
    <use x="813.765625" xlink:href="#DejaVuSans-72"/>
    <use x="854.878906" xlink:href="#DejaVuSans-75"/>
    <use x="918.257812" xlink:href="#DejaVuSans-65"/>
    <use x="979.78125" xlink:href="#DejaVuSans-20"/>
    <use x="1011.568359" xlink:href="#DejaVuSans-74"/>
    <use x="1050.777344" xlink:href="#DejaVuSans-72"/>
    <use x="1091.890625" xlink:href="#DejaVuSans-61"/>
    <use x="1153.169922" xlink:href="#DejaVuSans-6a"/>
    <use x="1180.953125" xlink:href="#DejaVuSans-65"/>
    <use x="1242.476562" xlink:href="#DejaVuSans-63"/>
    <use x="1297.457031" xlink:href="#DejaVuSans-74"/>
    <use x="1336.666016" xlink:href="#DejaVuSans-6f"/>
    <use x="1397.847656" xlink:href="#DejaVuSans-72"/>
    <use x="1438.960938" xlink:href="#DejaVuSans-79"/>
    <use x="1498.140625" xlink:href="#DejaVuSans-20"/>
    <use x="1529.927734" xlink:href="#DejaVuSans-28"/>
    <use x="1568.941406" xlink:href="#DejaVuSans-50"/>
    <use x="1629.244141" xlink:href="#DejaVuSans-56"/>
    <use x="1691.277344" xlink:href="#DejaVuSans-41"/>
    <use x="1759.685547" xlink:href="#DejaVuSans-29"/>
   </g>
  </g>
 </g>
 <defs>
  <clipPath id="pd8e53a5a34">
   <rect height="104.08" width="626.2" x="76.52" y="63.48"/>
  </clipPath>
  <clipPath id="pfd91cde13d">
   <rect height="104.08" width="626.2" x="76.52" y="239.16"/>
  </clipPath>
  <clipPath id="p70922a3942">
   <rect height="104.08" width="626.2" x="76.52" y="414.84"/>
  </clipPath>
 </defs>
</svg>
