<?xml version="1.0" encoding="utf-8" standalone="no"?>
<!DOCTYPE svg PUBLIC "-//W3C//DTD SVG 1.1//EN"
  "http://www.w3.org/Graphics/SVG/1.1/DTD/svg11.dtd">
<svg height="576pt" version="1.1" viewBox="0 0 720 576" width="720pt" xmlns="http://www.w3.org/2000/svg" xmlns:xlink="http://www.w3.org/1999/xlink">
 <metadata>
  <rdf:RDF xmlns:cc="http://creativecommons.org/ns#" xmlns:dc="http://purl.org/dc/elements/1.1/" xmlns:rdf="http://www.w3.org/1999/02/22-rdf-syntax-ns#">
   <cc:Work>
    <dc:type rdf:resource="http://purl.org/dc/dcmitype/StillImage"/>
    <dc:date>2024-04-14T16:01:29.855934</dc:date>
    <dc:format>image/svg+xml</dc:format>
    <dc:creator>
     <cc:Agent>
      <dc:title>Matplotlib v3.4.2, https://matplotlib.org/</dc:title>
     </cc:Agent>
    </dc:creator>
   </cc:Work>
  </rdf:RDF>
 </metadata>
 <defs>
  <style type="text/css">*{stroke-linecap:butt;stroke-linejoin:round;}</style>
 </defs>
 <g id="figure_1">
  <g id="patch_1">
   <path d="M 0 576 
L 720 576 
L 720 0 
L 0 0 
z
" style="fill:#ffffff;"/>
  </g>
  <g id="axes_1">
   <g id="patch_2">
    <path d="M 90 199.567059 
L 343.636364 199.567059 
L 343.636364 69.12 
L 90 69.12 
z
" style="fill:#ffffff;"/>
   </g>
   <g id="matplotlib.axis_1">
    <g id="xtick_1">
     <g id="line2d_1">
      <defs>
       <path d="M 0 0 
L 0 3.5 
" id="m92566e75e0" style="stroke:#000000;stroke-width:0.8;"/>
      </defs>
      <g>
       <use style="stroke:#000000;stroke-width:0.8;" x="101.528926" xlink:href="#m92566e75e0" y="199.567059"/>
      </g>
     </g>
     <g id="text_1">
      <!-- 0 -->
      <g transform="translate(98.347676 214.165496)scale(0.1 -0.1)">
       <defs>
        <path d="M 2034 4250 
Q 1547 4250 1301 3770 
Q 1056 3291 1056 2328 
Q 1056 1369 1301 889 
Q 1547 409 2034 409 
Q 2525 409 2770 889 
Q 3016 1369 3016 2328 
Q 3016 3291 2770 3770 
Q 2525 4250 2034 4250 
z
M 2034 4750 
Q 2819 4750 3233 4129 
Q 3647 3509 3647 2328 
Q 3647 1150 3233 529 
Q 2819 -91 2034 -91 
Q 1250 -91 836 529 
Q 422 1150 422 2328 
Q 422 3509 836 4129 
Q 1250 4750 2034 4750 
z
" id="DejaVuSans-30" transform="scale(0.015625)"/>
       </defs>
       <use xlink:href="#DejaVuSans-30"/>
      </g>
     </g>
    </g>
    <g id="xtick_2">
     <g id="line2d_2">
      <g>
       <use style="stroke:#000000;stroke-width:0.8;" x="159.173554" xlink:href="#m92566e75e0" y="199.567059"/>
      </g>
     </g>
     <g id="text_2">
      <!-- 50 -->
      <g transform="translate(152.811054 214.165496)scale(0.1 -0.1)">
       <defs>
        <path d="M 691 4666 
L 3169 4666 
L 3169 4134 
L 1269 4134 
L 1269 2991 
Q 1406 3038 1543 3061 
Q 1681 3084 1819 3084 
Q 2600 3084 3056 2656 
Q 3513 2228 3513 1497 
Q 3513 744 3044 326 
Q 2575 -91 1722 -91 
Q 1428 -91 1123 -41 
Q 819 9 494 109 
L 494 744 
Q 775 591 1075 516 
Q 1375 441 1709 441 
Q 2250 441 2565 725 
Q 2881 1009 2881 1497 
Q 2881 1984 2565 2268 
Q 2250 2553 1709 2553 
Q 1456 2553 1204 2497 
Q 953 2441 691 2322 
L 691 4666 
z
" id="DejaVuSans-35" transform="scale(0.015625)"/>
       </defs>
       <use xlink:href="#DejaVuSans-35"/>
       <use x="63.623047" xlink:href="#DejaVuSans-30"/>
      </g>
     </g>
    </g>
    <g id="xtick_3">
     <g id="line2d_3">
      <g>
       <use style="stroke:#000000;stroke-width:0.8;" x="216.818182" xlink:href="#m92566e75e0" y="199.567059"/>
      </g>
     </g>
     <g id="text_3">
      <!-- 100 -->
      <g transform="translate(207.274432 214.165496)scale(0.1 -0.1)">
       <defs>
        <path d="M 794 531 
L 1825 531 
L 1825 4091 
L 703 3866 
L 703 4441 
L 1819 4666 
L 2450 4666 
L 2450 531 
L 3481 531 
L 3481 0 
L 794 0 
L 794 531 
z
" id="DejaVuSans-31" transform="scale(0.015625)"/>
       </defs>
       <use xlink:href="#DejaVuSans-31"/>
       <use x="63.623047" xlink:href="#DejaVuSans-30"/>
       <use x="127.246094" xlink:href="#DejaVuSans-30"/>
      </g>
     </g>
    </g>
    <g id="xtick_4">
     <g id="line2d_4">
      <g>
       <use style="stroke:#000000;stroke-width:0.8;" x="274.46281" xlink:href="#m92566e75e0" y="199.567059"/>
      </g>
     </g>
     <g id="text_4">
      <!-- 150 -->
      <g transform="translate(264.91906 214.165496)scale(0.1 -0.1)">
       <use xlink:href="#DejaVuSans-31"/>
       <use x="63.623047" xlink:href="#DejaVuSans-35"/>
       <use x="127.246094" xlink:href="#DejaVuSans-30"/>
      </g>
     </g>
    </g>
    <g id="xtick_5">
     <g id="line2d_5">
      <g>
       <use style="stroke:#000000;stroke-width:0.8;" x="332.107438" xlink:href="#m92566e75e0" y="199.567059"/>
      </g>
     </g>
     <g id="text_5">
      <!-- 200 -->
      <g transform="translate(322.563688 214.165496)scale(0.1 -0.1)">
       <defs>
        <path d="M 1228 531 
L 3431 531 
L 3431 0 
L 469 0 
L 469 531 
Q 828 903 1448 1529 
Q 2069 2156 2228 2338 
Q 2531 2678 2651 2914 
Q 2772 3150 2772 3378 
Q 2772 3750 2511 3984 
Q 2250 4219 1831 4219 
Q 1534 4219 1204 4116 
Q 875 4013 500 3803 
L 500 4441 
Q 881 4594 1212 4672 
Q 1544 4750 1819 4750 
Q 2544 4750 2975 4387 
Q 3406 4025 3406 3419 
Q 3406 3131 3298 2873 
Q 3191 2616 2906 2266 
Q 2828 2175 2409 1742 
Q 1991 1309 1228 531 
z
" id="DejaVuSans-32" transform="scale(0.015625)"/>
       </defs>
       <use xlink:href="#DejaVuSans-32"/>
       <use x="63.623047" xlink:href="#DejaVuSans-30"/>
       <use x="127.246094" xlink:href="#DejaVuSans-30"/>
      </g>
     </g>
    </g>
    <g id="text_6">
     <!-- Time [s] -->
     <g transform="translate(196.489276 227.843621)scale(0.1 -0.1)">
      <defs>
       <path d="M -19 4666 
L 3928 4666 
L 3928 4134 
L 2272 4134 
L 2272 0 
L 1638 0 
L 1638 4134 
L -19 4134 
L -19 4666 
z
" id="DejaVuSans-54" transform="scale(0.015625)"/>
       <path d="M 603 3500 
L 1178 3500 
L 1178 0 
L 603 0 
L 603 3500 
z
M 603 4863 
L 1178 4863 
L 1178 4134 
L 603 4134 
L 603 4863 
z
" id="DejaVuSans-69" transform="scale(0.015625)"/>
       <path d="M 3328 2828 
Q 3544 3216 3844 3400 
Q 4144 3584 4550 3584 
Q 5097 3584 5394 3201 
Q 5691 2819 5691 2113 
L 5691 0 
L 5113 0 
L 5113 2094 
Q 5113 2597 4934 2840 
Q 4756 3084 4391 3084 
Q 3944 3084 3684 2787 
Q 3425 2491 3425 1978 
L 3425 0 
L 2847 0 
L 2847 2094 
Q 2847 2600 2669 2842 
Q 2491 3084 2119 3084 
Q 1678 3084 1418 2786 
Q 1159 2488 1159 1978 
L 1159 0 
L 581 0 
L 581 3500 
L 1159 3500 
L 1159 2956 
Q 1356 3278 1631 3431 
Q 1906 3584 2284 3584 
Q 2666 3584 2933 3390 
Q 3200 3197 3328 2828 
z
" id="DejaVuSans-6d" transform="scale(0.015625)"/>
       <path d="M 3597 1894 
L 3597 1613 
L 953 1613 
Q 991 1019 1311 708 
Q 1631 397 2203 397 
Q 2534 397 2845 478 
Q 3156 559 3463 722 
L 3463 178 
Q 3153 47 2828 -22 
Q 2503 -91 2169 -91 
Q 1331 -91 842 396 
Q 353 884 353 1716 
Q 353 2575 817 3079 
Q 1281 3584 2069 3584 
Q 2775 3584 3186 3129 
Q 3597 2675 3597 1894 
z
M 3022 2063 
Q 3016 2534 2758 2815 
Q 2500 3097 2075 3097 
Q 1594 3097 1305 2825 
Q 1016 2553 972 2059 
L 3022 2063 
z
" id="DejaVuSans-65" transform="scale(0.015625)"/>
       <path id="DejaVuSans-20" transform="scale(0.015625)"/>
       <path d="M 550 4863 
L 1875 4863 
L 1875 4416 
L 1125 4416 
L 1125 -397 
L 1875 -397 
L 1875 -844 
L 550 -844 
L 550 4863 
z
" id="DejaVuSans-5b" transform="scale(0.015625)"/>
       <path d="M 2834 3397 
L 2834 2853 
Q 2591 2978 2328 3040 
Q 2066 3103 1784 3103 
Q 1356 3103 1142 2972 
Q 928 2841 928 2578 
Q 928 2378 1081 2264 
Q 1234 2150 1697 2047 
L 1894 2003 
Q 2506 1872 2764 1633 
Q 3022 1394 3022 966 
Q 3022 478 2636 193 
Q 2250 -91 1575 -91 
Q 1294 -91 989 -36 
Q 684 19 347 128 
L 347 722 
Q 666 556 975 473 
Q 1284 391 1588 391 
Q 1994 391 2212 530 
Q 2431 669 2431 922 
Q 2431 1156 2273 1281 
Q 2116 1406 1581 1522 
L 1381 1569 
Q 847 1681 609 1914 
Q 372 2147 372 2553 
Q 372 3047 722 3315 
Q 1072 3584 1716 3584 
Q 2034 3584 2315 3537 
Q 2597 3491 2834 3397 
z
" id="DejaVuSans-73" transform="scale(0.015625)"/>
       <path d="M 1947 4863 
L 1947 -844 
L 622 -844 
L 622 -397 
L 1369 -397 
L 1369 4416 
L 622 4416 
L 622 4863 
L 1947 4863 
z
" id="DejaVuSans-5d" transform="scale(0.015625)"/>
      </defs>
      <use xlink:href="#DejaVuSans-54"/>
      <use x="57.958984" xlink:href="#DejaVuSans-69"/>
      <use x="85.742188" xlink:href="#DejaVuSans-6d"/>
      <use x="183.154297" xlink:href="#DejaVuSans-65"/>
      <use x="244.677734" xlink:href="#DejaVuSans-20"/>
      <use x="276.464844" xlink:href="#DejaVuSans-5b"/>
      <use x="315.478516" xlink:href="#DejaVuSans-73"/>
      <use x="367.578125" xlink:href="#DejaVuSans-5d"/>
     </g>
    </g>
   </g>
   <g id="matplotlib.axis_2">
    <g id="ytick_1">
     <g id="line2d_6">
      <defs>
       <path d="M 0 0 
L -3.5 0 
" id="m72041d567e" style="stroke:#000000;stroke-width:0.8;"/>
      </defs>
      <g>
       <use style="stroke:#000000;stroke-width:0.8;" x="90" xlink:href="#m72041d567e" y="185.536898"/>
      </g>
     </g>
     <g id="text_7">
      <!-- 2 -->
      <g transform="translate(76.6375 189.336117)scale(0.1 -0.1)">
       <use xlink:href="#DejaVuSans-32"/>
      </g>
     </g>
    </g>
    <g id="ytick_2">
     <g id="line2d_7">
      <g>
       <use style="stroke:#000000;stroke-width:0.8;" x="90" xlink:href="#m72041d567e" y="147.789091"/>
      </g>
     </g>
     <g id="text_8">
      <!-- 4 -->
      <g transform="translate(76.6375 151.588309)scale(0.1 -0.1)">
       <defs>
        <path d="M 2419 4116 
L 825 1625 
L 2419 1625 
L 2419 4116 
z
M 2253 4666 
L 3047 4666 
L 3047 1625 
L 3713 1625 
L 3713 1100 
L 3047 1100 
L 3047 0 
L 2419 0 
L 2419 1100 
L 313 1100 
L 313 1709 
L 2253 4666 
z
" id="DejaVuSans-34" transform="scale(0.015625)"/>
       </defs>
       <use xlink:href="#DejaVuSans-34"/>
      </g>
     </g>
    </g>
    <g id="ytick_3">
     <g id="line2d_8">
      <g>
       <use style="stroke:#000000;stroke-width:0.8;" x="90" xlink:href="#m72041d567e" y="110.041283"/>
      </g>
     </g>
     <g id="text_9">
      <!-- 6 -->
      <g transform="translate(76.6375 113.840502)scale(0.1 -0.1)">
       <defs>
        <path d="M 2113 2584 
Q 1688 2584 1439 2293 
Q 1191 2003 1191 1497 
Q 1191 994 1439 701 
Q 1688 409 2113 409 
Q 2538 409 2786 701 
Q 3034 994 3034 1497 
Q 3034 2003 2786 2293 
Q 2538 2584 2113 2584 
z
M 3366 4563 
L 3366 3988 
Q 3128 4100 2886 4159 
Q 2644 4219 2406 4219 
Q 1781 4219 1451 3797 
Q 1122 3375 1075 2522 
Q 1259 2794 1537 2939 
Q 1816 3084 2150 3084 
Q 2853 3084 3261 2657 
Q 3669 2231 3669 1497 
Q 3669 778 3244 343 
Q 2819 -91 2113 -91 
Q 1303 -91 875 529 
Q 447 1150 447 2328 
Q 447 3434 972 4092 
Q 1497 4750 2381 4750 
Q 2619 4750 2861 4703 
Q 3103 4656 3366 4563 
z
" id="DejaVuSans-36" transform="scale(0.015625)"/>
       </defs>
       <use xlink:href="#DejaVuSans-36"/>
      </g>
     </g>
    </g>
    <g id="ytick_4">
     <g id="line2d_9">
      <g>
       <use style="stroke:#000000;stroke-width:0.8;" x="90" xlink:href="#m72041d567e" y="72.293475"/>
      </g>
     </g>
     <g id="text_10">
      <!-- 8 -->
      <g transform="translate(76.6375 76.092694)scale(0.1 -0.1)">
       <defs>
        <path d="M 2034 2216 
Q 1584 2216 1326 1975 
Q 1069 1734 1069 1313 
Q 1069 891 1326 650 
Q 1584 409 2034 409 
Q 2484 409 2743 651 
Q 3003 894 3003 1313 
Q 3003 1734 2745 1975 
Q 2488 2216 2034 2216 
z
M 1403 2484 
Q 997 2584 770 2862 
Q 544 3141 544 3541 
Q 544 4100 942 4425 
Q 1341 4750 2034 4750 
Q 2731 4750 3128 4425 
Q 3525 4100 3525 3541 
Q 3525 3141 3298 2862 
Q 3072 2584 2669 2484 
Q 3125 2378 3379 2068 
Q 3634 1759 3634 1313 
Q 3634 634 3220 271 
Q 2806 -91 2034 -91 
Q 1263 -91 848 271 
Q 434 634 434 1313 
Q 434 1759 690 2068 
Q 947 2378 1403 2484 
z
M 1172 3481 
Q 1172 3119 1398 2916 
Q 1625 2713 2034 2713 
Q 2441 2713 2670 2916 
Q 2900 3119 2900 3481 
Q 2900 3844 2670 4047 
Q 2441 4250 2034 4250 
Q 1625 4250 1398 4047 
Q 1172 3844 1172 3481 
z
" id="DejaVuSans-38" transform="scale(0.015625)"/>
       </defs>
       <use xlink:href="#DejaVuSans-38"/>
      </g>
     </g>
    </g>
    <g id="text_11">
     <!-- Orientation [rad] -->
     <g transform="translate(49.453125 176.355248)rotate(-90)scale(0.1 -0.1)">
      <defs>
       <path d="M 2522 4238 
Q 1834 4238 1429 3725 
Q 1025 3213 1025 2328 
Q 1025 1447 1429 934 
Q 1834 422 2522 422 
Q 3209 422 3611 934 
Q 4013 1447 4013 2328 
Q 4013 3213 3611 3725 
Q 3209 4238 2522 4238 
z
M 2522 4750 
Q 3503 4750 4090 4092 
Q 4678 3434 4678 2328 
Q 4678 1225 4090 567 
Q 3503 -91 2522 -91 
Q 1538 -91 948 565 
Q 359 1222 359 2328 
Q 359 3434 948 4092 
Q 1538 4750 2522 4750 
z
" id="DejaVuSans-4f" transform="scale(0.015625)"/>
       <path d="M 2631 2963 
Q 2534 3019 2420 3045 
Q 2306 3072 2169 3072 
Q 1681 3072 1420 2755 
Q 1159 2438 1159 1844 
L 1159 0 
L 581 0 
L 581 3500 
L 1159 3500 
L 1159 2956 
Q 1341 3275 1631 3429 
Q 1922 3584 2338 3584 
Q 2397 3584 2469 3576 
Q 2541 3569 2628 3553 
L 2631 2963 
z
" id="DejaVuSans-72" transform="scale(0.015625)"/>
       <path d="M 3513 2113 
L 3513 0 
L 2938 0 
L 2938 2094 
Q 2938 2591 2744 2837 
Q 2550 3084 2163 3084 
Q 1697 3084 1428 2787 
Q 1159 2491 1159 1978 
L 1159 0 
L 581 0 
L 581 3500 
L 1159 3500 
L 1159 2956 
Q 1366 3272 1645 3428 
Q 1925 3584 2291 3584 
Q 2894 3584 3203 3211 
Q 3513 2838 3513 2113 
z
" id="DejaVuSans-6e" transform="scale(0.015625)"/>
       <path d="M 1172 4494 
L 1172 3500 
L 2356 3500 
L 2356 3053 
L 1172 3053 
L 1172 1153 
Q 1172 725 1289 603 
Q 1406 481 1766 481 
L 2356 481 
L 2356 0 
L 1766 0 
Q 1100 0 847 248 
Q 594 497 594 1153 
L 594 3053 
L 172 3053 
L 172 3500 
L 594 3500 
L 594 4494 
L 1172 4494 
z
" id="DejaVuSans-74" transform="scale(0.015625)"/>
       <path d="M 2194 1759 
Q 1497 1759 1228 1600 
Q 959 1441 959 1056 
Q 959 750 1161 570 
Q 1363 391 1709 391 
Q 2188 391 2477 730 
Q 2766 1069 2766 1631 
L 2766 1759 
L 2194 1759 
z
M 3341 1997 
L 3341 0 
L 2766 0 
L 2766 531 
Q 2569 213 2275 61 
Q 1981 -91 1556 -91 
Q 1019 -91 701 211 
Q 384 513 384 1019 
Q 384 1609 779 1909 
Q 1175 2209 1959 2209 
L 2766 2209 
L 2766 2266 
Q 2766 2663 2505 2880 
Q 2244 3097 1772 3097 
Q 1472 3097 1187 3025 
Q 903 2953 641 2809 
L 641 3341 
Q 956 3463 1253 3523 
Q 1550 3584 1831 3584 
Q 2591 3584 2966 3190 
Q 3341 2797 3341 1997 
z
" id="DejaVuSans-61" transform="scale(0.015625)"/>
       <path d="M 1959 3097 
Q 1497 3097 1228 2736 
Q 959 2375 959 1747 
Q 959 1119 1226 758 
Q 1494 397 1959 397 
Q 2419 397 2687 759 
Q 2956 1122 2956 1747 
Q 2956 2369 2687 2733 
Q 2419 3097 1959 3097 
z
M 1959 3584 
Q 2709 3584 3137 3096 
Q 3566 2609 3566 1747 
Q 3566 888 3137 398 
Q 2709 -91 1959 -91 
Q 1206 -91 779 398 
Q 353 888 353 1747 
Q 353 2609 779 3096 
Q 1206 3584 1959 3584 
z
" id="DejaVuSans-6f" transform="scale(0.015625)"/>
       <path d="M 2906 2969 
L 2906 4863 
L 3481 4863 
L 3481 0 
L 2906 0 
L 2906 525 
Q 2725 213 2448 61 
Q 2172 -91 1784 -91 
Q 1150 -91 751 415 
Q 353 922 353 1747 
Q 353 2572 751 3078 
Q 1150 3584 1784 3584 
Q 2172 3584 2448 3432 
Q 2725 3281 2906 2969 
z
M 947 1747 
Q 947 1113 1208 752 
Q 1469 391 1925 391 
Q 2381 391 2643 752 
Q 2906 1113 2906 1747 
Q 2906 2381 2643 2742 
Q 2381 3103 1925 3103 
Q 1469 3103 1208 2742 
Q 947 2381 947 1747 
z
" id="DejaVuSans-64" transform="scale(0.015625)"/>
      </defs>
      <use xlink:href="#DejaVuSans-4f"/>
      <use x="78.710938" xlink:href="#DejaVuSans-72"/>
      <use x="119.824219" xlink:href="#DejaVuSans-69"/>
      <use x="147.607422" xlink:href="#DejaVuSans-65"/>
      <use x="209.130859" xlink:href="#DejaVuSans-6e"/>
      <use x="272.509766" xlink:href="#DejaVuSans-74"/>
      <use x="311.71875" xlink:href="#DejaVuSans-61"/>
      <use x="372.998047" xlink:href="#DejaVuSans-74"/>
      <use x="412.207031" xlink:href="#DejaVuSans-69"/>
      <use x="439.990234" xlink:href="#DejaVuSans-6f"/>
      <use x="501.171875" xlink:href="#DejaVuSans-6e"/>
      <use x="564.550781" xlink:href="#DejaVuSans-20"/>
      <use x="596.337891" xlink:href="#DejaVuSans-5b"/>
      <use x="635.351562" xlink:href="#DejaVuSans-72"/>
      <use x="676.464844" xlink:href="#DejaVuSans-61"/>
      <use x="737.744141" xlink:href="#DejaVuSans-64"/>
      <use x="801.220703" xlink:href="#DejaVuSans-5d"/>
     </g>
    </g>
   </g>
   <g id="line2d_10">
    <path clip-path="url(#pdd5dc0f1f0)" d="M 101.528926 193.637647 
L 332.107438 75.049412 
L 332.107438 75.049412 
" style="fill:none;stroke:#1f77b4;stroke-linecap:square;stroke-width:1.5;"/>
   </g>
   <g id="patch_3">
    <path d="M 90 199.567059 
L 90 69.12 
" style="fill:none;stroke:#000000;stroke-linecap:square;stroke-linejoin:miter;stroke-width:0.8;"/>
   </g>
   <g id="patch_4">
    <path d="M 343.636364 199.567059 
L 343.636364 69.12 
" style="fill:none;stroke:#000000;stroke-linecap:square;stroke-linejoin:miter;stroke-width:0.8;"/>
   </g>
   <g id="patch_5">
    <path d="M 90 199.567059 
L 343.636364 199.567059 
" style="fill:none;stroke:#000000;stroke-linecap:square;stroke-linejoin:miter;stroke-width:0.8;"/>
   </g>
   <g id="patch_6">
    <path d="M 90 69.12 
L 343.636364 69.12 
" style="fill:none;stroke:#000000;stroke-linecap:square;stroke-linejoin:miter;stroke-width:0.8;"/>
   </g>
   <g id="legend_1">
    <g id="patch_7">
     <path d="M 97 91.798125 
L 237.23125 91.798125 
Q 239.23125 91.798125 239.23125 89.798125 
L 239.23125 76.12 
Q 239.23125 74.12 237.23125 74.12 
L 97 74.12 
Q 95 74.12 95 76.12 
L 95 89.798125 
Q 95 91.798125 97 91.798125 
z
" style="fill:#ffffff;opacity:0.8;stroke:#cccccc;stroke-linejoin:miter;"/>
    </g>
    <g id="line2d_11">
     <path d="M 99 82.218438 
L 119 82.218438 
" style="fill:none;stroke:#1f77b4;stroke-linecap:square;stroke-width:1.5;"/>
    </g>
    <g id="line2d_12"/>
    <g id="text_12">
     <!-- estimated orientation -->
     <g transform="translate(127 85.718438)scale(0.1 -0.1)">
      <use xlink:href="#DejaVuSans-65"/>
      <use x="61.523438" xlink:href="#DejaVuSans-73"/>
      <use x="113.623047" xlink:href="#DejaVuSans-74"/>
      <use x="152.832031" xlink:href="#DejaVuSans-69"/>
      <use x="180.615234" xlink:href="#DejaVuSans-6d"/>
      <use x="278.027344" xlink:href="#DejaVuSans-61"/>
      <use x="339.306641" xlink:href="#DejaVuSans-74"/>
      <use x="378.515625" xlink:href="#DejaVuSans-65"/>
      <use x="440.039062" xlink:href="#DejaVuSans-64"/>
      <use x="503.515625" xlink:href="#DejaVuSans-20"/>
      <use x="535.302734" xlink:href="#DejaVuSans-6f"/>
      <use x="596.484375" xlink:href="#DejaVuSans-72"/>
      <use x="637.597656" xlink:href="#DejaVuSans-69"/>
      <use x="665.380859" xlink:href="#DejaVuSans-65"/>
      <use x="726.904297" xlink:href="#DejaVuSans-6e"/>
      <use x="790.283203" xlink:href="#DejaVuSans-74"/>
      <use x="829.492188" xlink:href="#DejaVuSans-61"/>
      <use x="890.771484" xlink:href="#DejaVuSans-74"/>
      <use x="929.980469" xlink:href="#DejaVuSans-69"/>
      <use x="957.763672" xlink:href="#DejaVuSans-6f"/>
      <use x="1018.945312" xlink:href="#DejaVuSans-6e"/>
     </g>
    </g>
   </g>
  </g>
  <g id="axes_2">
   <g id="patch_8">
    <path d="M 394.363636 199.567059 
L 648 199.567059 
L 648 69.12 
L 394.363636 69.12 
z
" style="fill:#ffffff;"/>
   </g>
   <g id="matplotlib.axis_3">
    <g id="xtick_6">
     <g id="line2d_13">
      <g>
       <use style="stroke:#000000;stroke-width:0.8;" x="405.892562" xlink:href="#m92566e75e0" y="199.567059"/>
      </g>
     </g>
     <g id="text_13">
      <!-- 0 -->
      <g transform="translate(402.711312 214.165496)scale(0.1 -0.1)">
       <use xlink:href="#DejaVuSans-30"/>
      </g>
     </g>
    </g>
    <g id="xtick_7">
     <g id="line2d_14">
      <g>
       <use style="stroke:#000000;stroke-width:0.8;" x="463.53719" xlink:href="#m92566e75e0" y="199.567059"/>
      </g>
     </g>
     <g id="text_14">
      <!-- 50 -->
      <g transform="translate(457.17469 214.165496)scale(0.1 -0.1)">
       <use xlink:href="#DejaVuSans-35"/>
       <use x="63.623047" xlink:href="#DejaVuSans-30"/>
      </g>
     </g>
    </g>
    <g id="xtick_8">
     <g id="line2d_15">
      <g>
       <use style="stroke:#000000;stroke-width:0.8;" x="521.181818" xlink:href="#m92566e75e0" y="199.567059"/>
      </g>
     </g>
     <g id="text_15">
      <!-- 100 -->
      <g transform="translate(511.638068 214.165496)scale(0.1 -0.1)">
       <use xlink:href="#DejaVuSans-31"/>
       <use x="63.623047" xlink:href="#DejaVuSans-30"/>
       <use x="127.246094" xlink:href="#DejaVuSans-30"/>
      </g>
     </g>
    </g>
    <g id="xtick_9">
     <g id="line2d_16">
      <g>
       <use style="stroke:#000000;stroke-width:0.8;" x="578.826446" xlink:href="#m92566e75e0" y="199.567059"/>
      </g>
     </g>
     <g id="text_16">
      <!-- 150 -->
      <g transform="translate(569.282696 214.165496)scale(0.1 -0.1)">
       <use xlink:href="#DejaVuSans-31"/>
       <use x="63.623047" xlink:href="#DejaVuSans-35"/>
       <use x="127.246094" xlink:href="#DejaVuSans-30"/>
      </g>
     </g>
    </g>
    <g id="xtick_10">
     <g id="line2d_17">
      <g>
       <use style="stroke:#000000;stroke-width:0.8;" x="636.471074" xlink:href="#m92566e75e0" y="199.567059"/>
      </g>
     </g>
     <g id="text_17">
      <!-- 200 -->
      <g transform="translate(626.927324 214.165496)scale(0.1 -0.1)">
       <use xlink:href="#DejaVuSans-32"/>
       <use x="63.623047" xlink:href="#DejaVuSans-30"/>
       <use x="127.246094" xlink:href="#DejaVuSans-30"/>
      </g>
     </g>
    </g>
    <g id="text_18">
     <!-- Time [s] -->
     <g transform="translate(500.852912 227.843621)scale(0.1 -0.1)">
      <use xlink:href="#DejaVuSans-54"/>
      <use x="57.958984" xlink:href="#DejaVuSans-69"/>
      <use x="85.742188" xlink:href="#DejaVuSans-6d"/>
      <use x="183.154297" xlink:href="#DejaVuSans-65"/>
      <use x="244.677734" xlink:href="#DejaVuSans-20"/>
      <use x="276.464844" xlink:href="#DejaVuSans-5b"/>
      <use x="315.478516" xlink:href="#DejaVuSans-73"/>
      <use x="367.578125" xlink:href="#DejaVuSans-5d"/>
     </g>
    </g>
   </g>
   <g id="matplotlib.axis_4">
    <g id="ytick_5">
     <g id="line2d_18">
      <g>
       <use style="stroke:#000000;stroke-width:0.8;" x="394.363636" xlink:href="#m72041d567e" y="185.536898"/>
      </g>
     </g>
     <g id="text_19">
      <!-- 2 -->
      <g transform="translate(381.001136 189.336117)scale(0.1 -0.1)">
       <use xlink:href="#DejaVuSans-32"/>
      </g>
     </g>
    </g>
    <g id="ytick_6">
     <g id="line2d_19">
      <g>
       <use style="stroke:#000000;stroke-width:0.8;" x="394.363636" xlink:href="#m72041d567e" y="147.789091"/>
      </g>
     </g>
     <g id="text_20">
      <!-- 4 -->
      <g transform="translate(381.001136 151.588309)scale(0.1 -0.1)">
       <use xlink:href="#DejaVuSans-34"/>
      </g>
     </g>
    </g>
    <g id="ytick_7">
     <g id="line2d_20">
      <g>
       <use style="stroke:#000000;stroke-width:0.8;" x="394.363636" xlink:href="#m72041d567e" y="110.041283"/>
      </g>
     </g>
     <g id="text_21">
      <!-- 6 -->
      <g transform="translate(381.001136 113.840502)scale(0.1 -0.1)">
       <use xlink:href="#DejaVuSans-36"/>
      </g>
     </g>
    </g>
    <g id="ytick_8">
     <g id="line2d_21">
      <g>
       <use style="stroke:#000000;stroke-width:0.8;" x="394.363636" xlink:href="#m72041d567e" y="72.293475"/>
      </g>
     </g>
     <g id="text_22">
      <!-- 8 -->
      <g transform="translate(381.001136 76.092694)scale(0.1 -0.1)">
       <use xlink:href="#DejaVuSans-38"/>
      </g>
     </g>
    </g>
    <g id="text_23">
     <!-- Orientation[rad] -->
     <g transform="translate(353.816761 174.766186)rotate(-90)scale(0.1 -0.1)">
      <use xlink:href="#DejaVuSans-4f"/>
      <use x="78.710938" xlink:href="#DejaVuSans-72"/>
      <use x="119.824219" xlink:href="#DejaVuSans-69"/>
      <use x="147.607422" xlink:href="#DejaVuSans-65"/>
      <use x="209.130859" xlink:href="#DejaVuSans-6e"/>
      <use x="272.509766" xlink:href="#DejaVuSans-74"/>
      <use x="311.71875" xlink:href="#DejaVuSans-61"/>
      <use x="372.998047" xlink:href="#DejaVuSans-74"/>
      <use x="412.207031" xlink:href="#DejaVuSans-69"/>
      <use x="439.990234" xlink:href="#DejaVuSans-6f"/>
      <use x="501.171875" xlink:href="#DejaVuSans-6e"/>
      <use x="564.550781" xlink:href="#DejaVuSans-5b"/>
      <use x="603.564453" xlink:href="#DejaVuSans-72"/>
      <use x="644.677734" xlink:href="#DejaVuSans-61"/>
      <use x="705.957031" xlink:href="#DejaVuSans-64"/>
      <use x="769.433594" xlink:href="#DejaVuSans-5d"/>
     </g>
    </g>
   </g>
   <g id="line2d_22">
    <path clip-path="url(#pef427bb36c)" d="M 405.892562 193.637647 
L 636.471074 75.049412 
L 636.471074 75.049412 
" style="fill:none;stroke:#1f77b4;stroke-linecap:square;stroke-width:1.5;"/>
   </g>
   <g id="patch_9">
    <path d="M 394.363636 199.567059 
L 394.363636 69.12 
" style="fill:none;stroke:#000000;stroke-linecap:square;stroke-linejoin:miter;stroke-width:0.8;"/>
   </g>
   <g id="patch_10">
    <path d="M 648 199.567059 
L 648 69.12 
" style="fill:none;stroke:#000000;stroke-linecap:square;stroke-linejoin:miter;stroke-width:0.8;"/>
   </g>
   <g id="patch_11">
    <path d="M 394.363636 199.567059 
L 648 199.567059 
" style="fill:none;stroke:#000000;stroke-linecap:square;stroke-linejoin:miter;stroke-width:0.8;"/>
   </g>
   <g id="patch_12">
    <path d="M 394.363636 69.12 
L 648 69.12 
" style="fill:none;stroke:#000000;stroke-linecap:square;stroke-linejoin:miter;stroke-width:0.8;"/>
   </g>
   <g id="legend_2">
    <g id="patch_13">
     <path d="M 401.363636 91.798125 
L 511.765199 91.798125 
Q 513.765199 91.798125 513.765199 89.798125 
L 513.765199 76.12 
Q 513.765199 74.12 511.765199 74.12 
L 401.363636 74.12 
Q 399.363636 74.12 399.363636 76.12 
L 399.363636 89.798125 
Q 399.363636 91.798125 401.363636 91.798125 
z
" style="fill:#ffffff;opacity:0.8;stroke:#cccccc;stroke-linejoin:miter;"/>
    </g>
    <g id="line2d_23">
     <path d="M 403.363636 82.218438 
L 423.363636 82.218438 
" style="fill:none;stroke:#1f77b4;stroke-linecap:square;stroke-width:1.5;"/>
    </g>
    <g id="line2d_24"/>
    <g id="text_24">
     <!-- true orientation -->
     <g transform="translate(431.363636 85.718438)scale(0.1 -0.1)">
      <defs>
       <path d="M 544 1381 
L 544 3500 
L 1119 3500 
L 1119 1403 
Q 1119 906 1312 657 
Q 1506 409 1894 409 
Q 2359 409 2629 706 
Q 2900 1003 2900 1516 
L 2900 3500 
L 3475 3500 
L 3475 0 
L 2900 0 
L 2900 538 
Q 2691 219 2414 64 
Q 2138 -91 1772 -91 
Q 1169 -91 856 284 
Q 544 659 544 1381 
z
M 1991 3584 
L 1991 3584 
z
" id="DejaVuSans-75" transform="scale(0.015625)"/>
      </defs>
      <use xlink:href="#DejaVuSans-74"/>
      <use x="39.208984" xlink:href="#DejaVuSans-72"/>
      <use x="80.322266" xlink:href="#DejaVuSans-75"/>
      <use x="143.701172" xlink:href="#DejaVuSans-65"/>
      <use x="205.224609" xlink:href="#DejaVuSans-20"/>
      <use x="237.011719" xlink:href="#DejaVuSans-6f"/>
      <use x="298.193359" xlink:href="#DejaVuSans-72"/>
      <use x="339.306641" xlink:href="#DejaVuSans-69"/>
      <use x="367.089844" xlink:href="#DejaVuSans-65"/>
      <use x="428.613281" xlink:href="#DejaVuSans-6e"/>
      <use x="491.992188" xlink:href="#DejaVuSans-74"/>
      <use x="531.201172" xlink:href="#DejaVuSans-61"/>
      <use x="592.480469" xlink:href="#DejaVuSans-74"/>
      <use x="631.689453" xlink:href="#DejaVuSans-69"/>
      <use x="659.472656" xlink:href="#DejaVuSans-6f"/>
      <use x="720.654297" xlink:href="#DejaVuSans-6e"/>
     </g>
    </g>
   </g>
  </g>
  <g id="axes_3">
   <g id="patch_14">
    <path d="M 90 356.103529 
L 343.636364 356.103529 
L 343.636364 225.656471 
L 90 225.656471 
z
" style="fill:#ffffff;"/>
   </g>
   <g id="matplotlib.axis_5">
    <g id="xtick_11">
     <g id="line2d_25">
      <g>
       <use style="stroke:#000000;stroke-width:0.8;" x="101.528926" xlink:href="#m92566e75e0" y="356.103529"/>
      </g>
     </g>
     <g id="text_25">
      <!-- 0 -->
      <g transform="translate(98.347676 370.701967)scale(0.1 -0.1)">
       <use xlink:href="#DejaVuSans-30"/>
      </g>
     </g>
    </g>
    <g id="xtick_12">
     <g id="line2d_26">
      <g>
       <use style="stroke:#000000;stroke-width:0.8;" x="159.173554" xlink:href="#m92566e75e0" y="356.103529"/>
      </g>
     </g>
     <g id="text_26">
      <!-- 50 -->
      <g transform="translate(152.811054 370.701967)scale(0.1 -0.1)">
       <use xlink:href="#DejaVuSans-35"/>
       <use x="63.623047" xlink:href="#DejaVuSans-30"/>
      </g>
     </g>
    </g>
    <g id="xtick_13">
     <g id="line2d_27">
      <g>
       <use style="stroke:#000000;stroke-width:0.8;" x="216.818182" xlink:href="#m92566e75e0" y="356.103529"/>
      </g>
     </g>
     <g id="text_27">
      <!-- 100 -->
      <g transform="translate(207.274432 370.701967)scale(0.1 -0.1)">
       <use xlink:href="#DejaVuSans-31"/>
       <use x="63.623047" xlink:href="#DejaVuSans-30"/>
       <use x="127.246094" xlink:href="#DejaVuSans-30"/>
      </g>
     </g>
    </g>
    <g id="xtick_14">
     <g id="line2d_28">
      <g>
       <use style="stroke:#000000;stroke-width:0.8;" x="274.46281" xlink:href="#m92566e75e0" y="356.103529"/>
      </g>
     </g>
     <g id="text_28">
      <!-- 150 -->
      <g transform="translate(264.91906 370.701967)scale(0.1 -0.1)">
       <use xlink:href="#DejaVuSans-31"/>
       <use x="63.623047" xlink:href="#DejaVuSans-35"/>
       <use x="127.246094" xlink:href="#DejaVuSans-30"/>
      </g>
     </g>
    </g>
    <g id="xtick_15">
     <g id="line2d_29">
      <g>
       <use style="stroke:#000000;stroke-width:0.8;" x="332.107438" xlink:href="#m92566e75e0" y="356.103529"/>
      </g>
     </g>
     <g id="text_29">
      <!-- 200 -->
      <g transform="translate(322.563688 370.701967)scale(0.1 -0.1)">
       <use xlink:href="#DejaVuSans-32"/>
       <use x="63.623047" xlink:href="#DejaVuSans-30"/>
       <use x="127.246094" xlink:href="#DejaVuSans-30"/>
      </g>
     </g>
    </g>
    <g id="text_30">
     <!-- Time [s] -->
     <g transform="translate(196.489276 384.380092)scale(0.1 -0.1)">
      <use xlink:href="#DejaVuSans-54"/>
      <use x="57.958984" xlink:href="#DejaVuSans-69"/>
      <use x="85.742188" xlink:href="#DejaVuSans-6d"/>
      <use x="183.154297" xlink:href="#DejaVuSans-65"/>
      <use x="244.677734" xlink:href="#DejaVuSans-20"/>
      <use x="276.464844" xlink:href="#DejaVuSans-5b"/>
      <use x="315.478516" xlink:href="#DejaVuSans-73"/>
      <use x="367.578125" xlink:href="#DejaVuSans-5d"/>
     </g>
    </g>
   </g>
   <g id="matplotlib.axis_6">
    <g id="ytick_9">
     <g id="line2d_30">
      <g>
       <use style="stroke:#000000;stroke-width:0.8;" x="90" xlink:href="#m72041d567e" y="338.315296"/>
      </g>
     </g>
     <g id="text_31">
      <!-- −400 -->
      <g transform="translate(55.532812 342.114515)scale(0.1 -0.1)">
       <defs>
        <path d="M 678 2272 
L 4684 2272 
L 4684 1741 
L 678 1741 
L 678 2272 
z
" id="DejaVuSans-2212" transform="scale(0.015625)"/>
       </defs>
       <use xlink:href="#DejaVuSans-2212"/>
       <use x="83.789062" xlink:href="#DejaVuSans-34"/>
       <use x="147.412109" xlink:href="#DejaVuSans-30"/>
       <use x="211.035156" xlink:href="#DejaVuSans-30"/>
      </g>
     </g>
    </g>
    <g id="ytick_10">
     <g id="line2d_31">
      <g>
       <use style="stroke:#000000;stroke-width:0.8;" x="90" xlink:href="#m72041d567e" y="314.597648"/>
      </g>
     </g>
     <g id="text_32">
      <!-- −200 -->
      <g transform="translate(55.532812 318.396867)scale(0.1 -0.1)">
       <use xlink:href="#DejaVuSans-2212"/>
       <use x="83.789062" xlink:href="#DejaVuSans-32"/>
       <use x="147.412109" xlink:href="#DejaVuSans-30"/>
       <use x="211.035156" xlink:href="#DejaVuSans-30"/>
      </g>
     </g>
    </g>
    <g id="ytick_11">
     <g id="line2d_32">
      <g>
       <use style="stroke:#000000;stroke-width:0.8;" x="90" xlink:href="#m72041d567e" y="290.880001"/>
      </g>
     </g>
     <g id="text_33">
      <!-- 0 -->
      <g transform="translate(76.6375 294.67922)scale(0.1 -0.1)">
       <use xlink:href="#DejaVuSans-30"/>
      </g>
     </g>
    </g>
    <g id="ytick_12">
     <g id="line2d_33">
      <g>
       <use style="stroke:#000000;stroke-width:0.8;" x="90" xlink:href="#m72041d567e" y="267.162354"/>
      </g>
     </g>
     <g id="text_34">
      <!-- 200 -->
      <g transform="translate(63.9125 270.961572)scale(0.1 -0.1)">
       <use xlink:href="#DejaVuSans-32"/>
       <use x="63.623047" xlink:href="#DejaVuSans-30"/>
       <use x="127.246094" xlink:href="#DejaVuSans-30"/>
      </g>
     </g>
    </g>
    <g id="ytick_13">
     <g id="line2d_34">
      <g>
       <use style="stroke:#000000;stroke-width:0.8;" x="90" xlink:href="#m72041d567e" y="243.444706"/>
      </g>
     </g>
     <g id="text_35">
      <!-- 400 -->
      <g transform="translate(63.9125 247.243925)scale(0.1 -0.1)">
       <use xlink:href="#DejaVuSans-34"/>
       <use x="63.623047" xlink:href="#DejaVuSans-30"/>
       <use x="127.246094" xlink:href="#DejaVuSans-30"/>
      </g>
     </g>
    </g>
    <g id="text_36">
     <!-- Position [m] -->
     <g transform="translate(49.453125 320.705)rotate(-90)scale(0.1 -0.1)">
      <defs>
       <path d="M 1259 4147 
L 1259 2394 
L 2053 2394 
Q 2494 2394 2734 2622 
Q 2975 2850 2975 3272 
Q 2975 3691 2734 3919 
Q 2494 4147 2053 4147 
L 1259 4147 
z
M 628 4666 
L 2053 4666 
Q 2838 4666 3239 4311 
Q 3641 3956 3641 3272 
Q 3641 2581 3239 2228 
Q 2838 1875 2053 1875 
L 1259 1875 
L 1259 0 
L 628 0 
L 628 4666 
z
" id="DejaVuSans-50" transform="scale(0.015625)"/>
      </defs>
      <use xlink:href="#DejaVuSans-50"/>
      <use x="56.677734" xlink:href="#DejaVuSans-6f"/>
      <use x="117.859375" xlink:href="#DejaVuSans-73"/>
      <use x="169.958984" xlink:href="#DejaVuSans-69"/>
      <use x="197.742188" xlink:href="#DejaVuSans-74"/>
      <use x="236.951172" xlink:href="#DejaVuSans-69"/>
      <use x="264.734375" xlink:href="#DejaVuSans-6f"/>
      <use x="325.916016" xlink:href="#DejaVuSans-6e"/>
      <use x="389.294922" xlink:href="#DejaVuSans-20"/>
      <use x="421.082031" xlink:href="#DejaVuSans-5b"/>
      <use x="460.095703" xlink:href="#DejaVuSans-6d"/>
      <use x="557.507812" xlink:href="#DejaVuSans-5d"/>
     </g>
    </g>
   </g>
   <g id="line2d_35">
    <path clip-path="url(#p763906a071)" d="M 101.528926 231.585882 
L 103.777066 231.697111 
L 106.036736 232.032657 
L 108.319463 232.598097 
L 110.636777 233.402674 
L 113.011736 234.464962 
L 115.455868 235.804757 
L 117.980702 237.445152 
L 120.609298 239.421471 
L 123.364711 241.776252 
L 126.258471 244.54689 
L 129.325165 247.796974 
L 132.59938 251.59828 
L 136.127231 256.042864 
L 139.989421 261.275971 
L 144.312769 267.51966 
L 149.385496 275.251849 
L 156.164504 286.023591 
L 170.402727 308.741666 
L 175.579215 316.513208 
L 179.948678 322.682827 
L 183.833926 327.793076 
L 187.373306 332.089994 
L 190.65905 335.736941 
L 193.737273 338.828041 
L 196.642562 341.436546 
L 199.409504 343.626617 
L 202.049628 345.437042 
L 204.585992 346.910589 
L 207.030124 348.077494 
L 209.405083 348.968454 
L 211.722397 349.603391 
L 214.005124 349.999998 
L 216.264793 350.167376 
L 218.512934 350.1109 
L 220.761074 349.832205 
L 223.032273 349.326069 
L 225.338058 348.583306 
L 227.701488 347.585667 
L 230.122562 346.319947 
L 232.624339 344.7587 
L 235.229876 342.86673 
L 237.950702 340.611613 
L 240.809876 337.947633 
L 243.830455 334.823424 
L 247.047025 331.16991 
L 250.505702 326.897103 
L 254.275661 321.876973 
L 258.460661 315.923769 
L 263.30281 308.635059 
L 269.447727 298.957893 
L 287.674959 269.990739 
L 292.505579 262.887884 
L 296.67905 257.136985 
L 300.42595 252.343229 
L 303.873099 248.286374 
L 307.07814 244.850658 
L 310.08719 241.943933 
L 312.934835 239.495671 
L 315.655661 237.445152 
L 318.261198 235.756584 
L 320.762975 234.396555 
L 323.18405 233.330187 
L 325.53595 232.534017 
L 327.841736 231.986007 
L 330.112934 231.673434 
L 332.107438 231.585882 
L 332.107438 231.585882 
" style="fill:none;stroke:#1f77b4;stroke-linecap:square;stroke-width:1.5;"/>
   </g>
   <g id="line2d_36">
    <path clip-path="url(#p763906a071)" d="M 101.528926 290.880001 
L 111.720496 274.623888 
L 117.116033 266.44567 
L 121.589256 260.05789 
L 125.543678 254.788955 
L 129.140702 250.358329 
L 132.472562 246.600488 
L 135.585372 243.418704 
L 138.525248 240.72669 
L 141.315248 238.469183 
L 143.97843 236.596583 
L 146.526322 235.0724 
L 148.993512 233.852697 
L 151.38 232.917998 
L 153.708843 232.242081 
L 155.99157 231.808638 
L 158.25124 231.604608 
L 160.49938 231.624575 
L 162.747521 231.866853 
L 165.018719 232.336431 
L 167.324504 233.042461 
L 169.676405 233.99774 
L 172.08595 235.218604 
L 174.576198 236.732351 
L 177.158678 238.56532 
L 179.856446 240.756522 
L 182.692562 243.351793 
L 185.678554 246.390509 
L 188.860537 249.952162 
L 192.273099 254.112884 
L 195.985413 258.998604 
L 200.089711 264.777468 
L 204.793512 271.797013 
L 210.627149 280.924255 
L 231.609793 314.137571 
L 236.198306 320.757984 
L 240.221901 326.182759 
L 243.865041 330.73054 
L 247.231488 334.58502 
L 250.378884 337.856851 
L 253.341818 340.621753 
L 256.154876 342.947149 
L 258.829587 344.874762 
L 261.400537 346.457471 
L 263.879256 347.72531 
L 266.277273 348.705201 
L 268.617645 349.423568 
L 270.911901 349.896756 
L 273.17157 350.137416 
L 275.419711 350.15396 
L 277.667851 349.948123 
L 279.927521 349.517918 
L 282.221777 348.853754 
L 284.562149 347.942873 
L 286.960165 346.768947 
L 289.438884 345.304845 
L 292.009835 343.524133 
L 294.684545 341.397573 
L 297.497603 338.871836 
L 300.460537 335.907055 
L 303.607934 332.436842 
L 306.97438 328.387688 
L 310.62905 323.63595 
L 314.664174 318.014506 
L 319.252686 311.227838 
L 324.832686 302.557305 
L 332.107438 290.879998 
L 332.107438 290.879998 
" style="fill:none;stroke:#ff7f0e;stroke-linecap:square;stroke-width:1.5;"/>
   </g>
   <g id="patch_15">
    <path d="M 90 356.103529 
L 90 225.656471 
" style="fill:none;stroke:#000000;stroke-linecap:square;stroke-linejoin:miter;stroke-width:0.8;"/>
   </g>
   <g id="patch_16">
    <path d="M 343.636364 356.103529 
L 343.636364 225.656471 
" style="fill:none;stroke:#000000;stroke-linecap:square;stroke-linejoin:miter;stroke-width:0.8;"/>
   </g>
   <g id="patch_17">
    <path d="M 90 356.103529 
L 343.636364 356.103529 
" style="fill:none;stroke:#000000;stroke-linecap:square;stroke-linejoin:miter;stroke-width:0.8;"/>
   </g>
   <g id="patch_18">
    <path d="M 90 225.656471 
L 343.636364 225.656471 
" style="fill:none;stroke:#000000;stroke-linecap:square;stroke-linejoin:miter;stroke-width:0.8;"/>
   </g>
   <g id="legend_3">
    <g id="patch_19">
     <path d="M 97 351.103529 
L 212.6875 351.103529 
Q 214.6875 351.103529 214.6875 349.103529 
L 214.6875 320.191029 
Q 214.6875 318.191029 212.6875 318.191029 
L 97 318.191029 
Q 95 318.191029 95 320.191029 
L 95 349.103529 
Q 95 351.103529 97 351.103529 
z
" style="fill:#ffffff;opacity:0.8;stroke:#cccccc;stroke-linejoin:miter;"/>
    </g>
    <g id="line2d_37">
     <path d="M 99 326.289467 
L 119 326.289467 
" style="fill:none;stroke:#1f77b4;stroke-linecap:square;stroke-width:1.5;"/>
    </g>
    <g id="line2d_38"/>
    <g id="text_37">
     <!-- estimated pos_N -->
     <g transform="translate(127 329.789467)scale(0.1 -0.1)">
      <defs>
       <path d="M 1159 525 
L 1159 -1331 
L 581 -1331 
L 581 3500 
L 1159 3500 
L 1159 2969 
Q 1341 3281 1617 3432 
Q 1894 3584 2278 3584 
Q 2916 3584 3314 3078 
Q 3713 2572 3713 1747 
Q 3713 922 3314 415 
Q 2916 -91 2278 -91 
Q 1894 -91 1617 61 
Q 1341 213 1159 525 
z
M 3116 1747 
Q 3116 2381 2855 2742 
Q 2594 3103 2138 3103 
Q 1681 3103 1420 2742 
Q 1159 2381 1159 1747 
Q 1159 1113 1420 752 
Q 1681 391 2138 391 
Q 2594 391 2855 752 
Q 3116 1113 3116 1747 
z
" id="DejaVuSans-70" transform="scale(0.015625)"/>
       <path d="M 3263 -1063 
L 3263 -1509 
L -63 -1509 
L -63 -1063 
L 3263 -1063 
z
" id="DejaVuSans-5f" transform="scale(0.015625)"/>
       <path d="M 628 4666 
L 1478 4666 
L 3547 763 
L 3547 4666 
L 4159 4666 
L 4159 0 
L 3309 0 
L 1241 3903 
L 1241 0 
L 628 0 
L 628 4666 
z
" id="DejaVuSans-4e" transform="scale(0.015625)"/>
      </defs>
      <use xlink:href="#DejaVuSans-65"/>
      <use x="61.523438" xlink:href="#DejaVuSans-73"/>
      <use x="113.623047" xlink:href="#DejaVuSans-74"/>
      <use x="152.832031" xlink:href="#DejaVuSans-69"/>
      <use x="180.615234" xlink:href="#DejaVuSans-6d"/>
      <use x="278.027344" xlink:href="#DejaVuSans-61"/>
      <use x="339.306641" xlink:href="#DejaVuSans-74"/>
      <use x="378.515625" xlink:href="#DejaVuSans-65"/>
      <use x="440.039062" xlink:href="#DejaVuSans-64"/>
      <use x="503.515625" xlink:href="#DejaVuSans-20"/>
      <use x="535.302734" xlink:href="#DejaVuSans-70"/>
      <use x="598.779297" xlink:href="#DejaVuSans-6f"/>
      <use x="659.960938" xlink:href="#DejaVuSans-73"/>
      <use x="712.060547" xlink:href="#DejaVuSans-5f"/>
      <use x="762.060547" xlink:href="#DejaVuSans-4e"/>
     </g>
    </g>
    <g id="line2d_39">
     <path d="M 99 341.245717 
L 119 341.245717 
" style="fill:none;stroke:#ff7f0e;stroke-linecap:square;stroke-width:1.5;"/>
    </g>
    <g id="line2d_40"/>
    <g id="text_38">
     <!-- estimated pos_E -->
     <g transform="translate(127 344.745717)scale(0.1 -0.1)">
      <defs>
       <path d="M 628 4666 
L 3578 4666 
L 3578 4134 
L 1259 4134 
L 1259 2753 
L 3481 2753 
L 3481 2222 
L 1259 2222 
L 1259 531 
L 3634 531 
L 3634 0 
L 628 0 
L 628 4666 
z
" id="DejaVuSans-45" transform="scale(0.015625)"/>
      </defs>
      <use xlink:href="#DejaVuSans-65"/>
      <use x="61.523438" xlink:href="#DejaVuSans-73"/>
      <use x="113.623047" xlink:href="#DejaVuSans-74"/>
      <use x="152.832031" xlink:href="#DejaVuSans-69"/>
      <use x="180.615234" xlink:href="#DejaVuSans-6d"/>
      <use x="278.027344" xlink:href="#DejaVuSans-61"/>
      <use x="339.306641" xlink:href="#DejaVuSans-74"/>
      <use x="378.515625" xlink:href="#DejaVuSans-65"/>
      <use x="440.039062" xlink:href="#DejaVuSans-64"/>
      <use x="503.515625" xlink:href="#DejaVuSans-20"/>
      <use x="535.302734" xlink:href="#DejaVuSans-70"/>
      <use x="598.779297" xlink:href="#DejaVuSans-6f"/>
      <use x="659.960938" xlink:href="#DejaVuSans-73"/>
      <use x="712.060547" xlink:href="#DejaVuSans-5f"/>
      <use x="762.060547" xlink:href="#DejaVuSans-45"/>
     </g>
    </g>
   </g>
  </g>
  <g id="axes_4">
   <g id="patch_20">
    <path d="M 394.363636 356.103529 
L 648 356.103529 
L 648 225.656471 
L 394.363636 225.656471 
z
" style="fill:#ffffff;"/>
   </g>
   <g id="matplotlib.axis_7">
    <g id="xtick_16">
     <g id="line2d_41">
      <g>
       <use style="stroke:#000000;stroke-width:0.8;" x="405.892562" xlink:href="#m92566e75e0" y="356.103529"/>
      </g>
     </g>
     <g id="text_39">
      <!-- 0 -->
      <g transform="translate(402.711312 370.701967)scale(0.1 -0.1)">
       <use xlink:href="#DejaVuSans-30"/>
      </g>
     </g>
    </g>
    <g id="xtick_17">
     <g id="line2d_42">
      <g>
       <use style="stroke:#000000;stroke-width:0.8;" x="463.53719" xlink:href="#m92566e75e0" y="356.103529"/>
      </g>
     </g>
     <g id="text_40">
      <!-- 50 -->
      <g transform="translate(457.17469 370.701967)scale(0.1 -0.1)">
       <use xlink:href="#DejaVuSans-35"/>
       <use x="63.623047" xlink:href="#DejaVuSans-30"/>
      </g>
     </g>
    </g>
    <g id="xtick_18">
     <g id="line2d_43">
      <g>
       <use style="stroke:#000000;stroke-width:0.8;" x="521.181818" xlink:href="#m92566e75e0" y="356.103529"/>
      </g>
     </g>
     <g id="text_41">
      <!-- 100 -->
      <g transform="translate(511.638068 370.701967)scale(0.1 -0.1)">
       <use xlink:href="#DejaVuSans-31"/>
       <use x="63.623047" xlink:href="#DejaVuSans-30"/>
       <use x="127.246094" xlink:href="#DejaVuSans-30"/>
      </g>
     </g>
    </g>
    <g id="xtick_19">
     <g id="line2d_44">
      <g>
       <use style="stroke:#000000;stroke-width:0.8;" x="578.826446" xlink:href="#m92566e75e0" y="356.103529"/>
      </g>
     </g>
     <g id="text_42">
      <!-- 150 -->
      <g transform="translate(569.282696 370.701967)scale(0.1 -0.1)">
       <use xlink:href="#DejaVuSans-31"/>
       <use x="63.623047" xlink:href="#DejaVuSans-35"/>
       <use x="127.246094" xlink:href="#DejaVuSans-30"/>
      </g>
     </g>
    </g>
    <g id="xtick_20">
     <g id="line2d_45">
      <g>
       <use style="stroke:#000000;stroke-width:0.8;" x="636.471074" xlink:href="#m92566e75e0" y="356.103529"/>
      </g>
     </g>
     <g id="text_43">
      <!-- 200 -->
      <g transform="translate(626.927324 370.701967)scale(0.1 -0.1)">
       <use xlink:href="#DejaVuSans-32"/>
       <use x="63.623047" xlink:href="#DejaVuSans-30"/>
       <use x="127.246094" xlink:href="#DejaVuSans-30"/>
      </g>
     </g>
    </g>
    <g id="text_44">
     <!-- Time [s] -->
     <g transform="translate(500.852912 384.380092)scale(0.1 -0.1)">
      <use xlink:href="#DejaVuSans-54"/>
      <use x="57.958984" xlink:href="#DejaVuSans-69"/>
      <use x="85.742188" xlink:href="#DejaVuSans-6d"/>
      <use x="183.154297" xlink:href="#DejaVuSans-65"/>
      <use x="244.677734" xlink:href="#DejaVuSans-20"/>
      <use x="276.464844" xlink:href="#DejaVuSans-5b"/>
      <use x="315.478516" xlink:href="#DejaVuSans-73"/>
      <use x="367.578125" xlink:href="#DejaVuSans-5d"/>
     </g>
    </g>
   </g>
   <g id="matplotlib.axis_8">
    <g id="ytick_14">
     <g id="line2d_46">
      <g>
       <use style="stroke:#000000;stroke-width:0.8;" x="394.363636" xlink:href="#m72041d567e" y="338.315294"/>
      </g>
     </g>
     <g id="text_45">
      <!-- −400 -->
      <g transform="translate(359.896449 342.114513)scale(0.1 -0.1)">
       <use xlink:href="#DejaVuSans-2212"/>
       <use x="83.789062" xlink:href="#DejaVuSans-34"/>
       <use x="147.412109" xlink:href="#DejaVuSans-30"/>
       <use x="211.035156" xlink:href="#DejaVuSans-30"/>
      </g>
     </g>
    </g>
    <g id="ytick_15">
     <g id="line2d_47">
      <g>
       <use style="stroke:#000000;stroke-width:0.8;" x="394.363636" xlink:href="#m72041d567e" y="314.597647"/>
      </g>
     </g>
     <g id="text_46">
      <!-- −200 -->
      <g transform="translate(359.896449 318.396866)scale(0.1 -0.1)">
       <use xlink:href="#DejaVuSans-2212"/>
       <use x="83.789062" xlink:href="#DejaVuSans-32"/>
       <use x="147.412109" xlink:href="#DejaVuSans-30"/>
       <use x="211.035156" xlink:href="#DejaVuSans-30"/>
      </g>
     </g>
    </g>
    <g id="ytick_16">
     <g id="line2d_48">
      <g>
       <use style="stroke:#000000;stroke-width:0.8;" x="394.363636" xlink:href="#m72041d567e" y="290.88"/>
      </g>
     </g>
     <g id="text_47">
      <!-- 0 -->
      <g transform="translate(381.001136 294.679219)scale(0.1 -0.1)">
       <use xlink:href="#DejaVuSans-30"/>
      </g>
     </g>
    </g>
    <g id="ytick_17">
     <g id="line2d_49">
      <g>
       <use style="stroke:#000000;stroke-width:0.8;" x="394.363636" xlink:href="#m72041d567e" y="267.162353"/>
      </g>
     </g>
     <g id="text_48">
      <!-- 200 -->
      <g transform="translate(368.276136 270.961572)scale(0.1 -0.1)">
       <use xlink:href="#DejaVuSans-32"/>
       <use x="63.623047" xlink:href="#DejaVuSans-30"/>
       <use x="127.246094" xlink:href="#DejaVuSans-30"/>
      </g>
     </g>
    </g>
    <g id="ytick_18">
     <g id="line2d_50">
      <g>
       <use style="stroke:#000000;stroke-width:0.8;" x="394.363636" xlink:href="#m72041d567e" y="243.444706"/>
      </g>
     </g>
     <g id="text_49">
      <!-- 400 -->
      <g transform="translate(368.276136 247.243925)scale(0.1 -0.1)">
       <use xlink:href="#DejaVuSans-34"/>
       <use x="63.623047" xlink:href="#DejaVuSans-30"/>
       <use x="127.246094" xlink:href="#DejaVuSans-30"/>
      </g>
     </g>
    </g>
    <g id="text_50">
     <!-- Position [m] -->
     <g transform="translate(353.816761 320.705)rotate(-90)scale(0.1 -0.1)">
      <use xlink:href="#DejaVuSans-50"/>
      <use x="56.677734" xlink:href="#DejaVuSans-6f"/>
      <use x="117.859375" xlink:href="#DejaVuSans-73"/>
      <use x="169.958984" xlink:href="#DejaVuSans-69"/>
      <use x="197.742188" xlink:href="#DejaVuSans-74"/>
      <use x="236.951172" xlink:href="#DejaVuSans-69"/>
      <use x="264.734375" xlink:href="#DejaVuSans-6f"/>
      <use x="325.916016" xlink:href="#DejaVuSans-6e"/>
      <use x="389.294922" xlink:href="#DejaVuSans-20"/>
      <use x="421.082031" xlink:href="#DejaVuSans-5b"/>
      <use x="460.095703" xlink:href="#DejaVuSans-6d"/>
      <use x="557.507812" xlink:href="#DejaVuSans-5d"/>
     </g>
    </g>
   </g>
   <g id="line2d_51">
    <path clip-path="url(#p36cc586a52)" d="M 405.892562 231.585882 
L 408.140702 231.697111 
L 410.400372 232.032657 
L 412.683099 232.598097 
L 415.000413 233.402674 
L 417.375372 234.464962 
L 419.819504 235.804757 
L 422.344339 237.445152 
L 424.972934 239.421471 
L 427.728347 241.776252 
L 430.622107 244.54689 
L 433.688802 247.796974 
L 436.963017 251.59828 
L 440.490868 256.042864 
L 444.353058 261.275971 
L 448.676405 267.51966 
L 453.749132 275.251849 
L 460.52814 286.023591 
L 474.766364 308.741666 
L 479.942851 316.513208 
L 484.312314 322.682827 
L 488.197562 327.793076 
L 491.736942 332.089994 
L 495.022686 335.736941 
L 498.100909 338.828041 
L 501.006198 341.436546 
L 503.77314 343.626617 
L 506.413264 345.437042 
L 508.949628 346.910589 
L 511.39376 348.077494 
L 513.768719 348.968454 
L 516.086033 349.603391 
L 518.36876 349.999998 
L 520.62843 350.167376 
L 522.87657 350.1109 
L 525.124711 349.832205 
L 527.395909 349.326069 
L 529.701694 348.583306 
L 532.065124 347.585667 
L 534.486198 346.319947 
L 536.987975 344.7587 
L 539.593512 342.86673 
L 542.314339 340.611613 
L 545.173512 337.947633 
L 548.194091 334.823424 
L 551.410661 331.16991 
L 554.869339 326.897103 
L 558.639298 321.876973 
L 562.824298 315.923769 
L 567.666446 308.635059 
L 573.811364 298.957893 
L 592.038595 269.990739 
L 596.869215 262.887884 
L 601.042686 257.136985 
L 604.789587 252.343229 
L 608.236736 248.286374 
L 611.441777 244.850658 
L 614.450826 241.943933 
L 617.298471 239.495671 
L 620.019298 237.445152 
L 622.624835 235.756584 
L 625.126612 234.396555 
L 627.547686 233.330187 
L 629.899587 232.534017 
L 632.205372 231.986007 
L 634.47657 231.673434 
L 636.471074 231.585882 
L 636.471074 231.585882 
" style="fill:none;stroke:#1f77b4;stroke-linecap:square;stroke-width:1.5;"/>
   </g>
   <g id="line2d_52">
    <path clip-path="url(#p36cc586a52)" d="M 405.892562 290.88 
L 416.084132 274.623887 
L 421.479669 266.445669 
L 425.952893 260.057889 
L 429.907314 254.788955 
L 433.504339 250.358329 
L 436.836198 246.600488 
L 439.949008 243.418703 
L 442.888884 240.726689 
L 445.678884 238.469183 
L 448.342066 236.596582 
L 450.889959 235.0724 
L 453.357149 233.852697 
L 455.743636 232.917998 
L 458.072479 232.242081 
L 460.355207 231.808637 
L 462.614876 231.604608 
L 464.863017 231.624575 
L 467.111157 231.866853 
L 469.382355 232.336431 
L 471.68814 233.042461 
L 474.040041 233.99774 
L 476.449587 235.218604 
L 478.939835 236.732351 
L 481.522314 238.56532 
L 484.220083 240.756522 
L 487.056198 243.351793 
L 490.04219 246.390509 
L 493.224174 249.952162 
L 496.636736 254.112885 
L 500.34905 258.998604 
L 504.453347 264.777468 
L 509.157149 271.797013 
L 514.990785 280.924255 
L 535.97343 314.137572 
L 540.561942 320.757985 
L 544.585537 326.182759 
L 548.228678 330.730541 
L 551.595124 334.585021 
L 554.742521 337.856852 
L 557.705455 340.621754 
L 560.518512 342.94715 
L 563.193223 344.874763 
L 565.764174 346.457473 
L 568.242893 347.725311 
L 570.640909 348.705203 
L 572.981281 349.423569 
L 575.275537 349.896758 
L 577.535207 350.137417 
L 579.783347 350.153961 
L 582.031488 349.948125 
L 584.291157 349.517919 
L 586.585413 348.853756 
L 588.925785 347.942875 
L 591.323802 346.768949 
L 593.802521 345.304846 
L 596.373471 343.524135 
L 599.048182 341.397574 
L 601.86124 338.871838 
L 604.824174 335.907056 
L 607.97157 332.436844 
L 611.338017 328.38769 
L 614.992686 323.635952 
L 619.02781 318.014508 
L 623.616322 311.22784 
L 629.196322 302.557307 
L 636.471074 290.88 
L 636.471074 290.88 
" style="fill:none;stroke:#ff7f0e;stroke-linecap:square;stroke-width:1.5;"/>
   </g>
   <g id="patch_21">
    <path d="M 394.363636 356.103529 
L 394.363636 225.656471 
" style="fill:none;stroke:#000000;stroke-linecap:square;stroke-linejoin:miter;stroke-width:0.8;"/>
   </g>
   <g id="patch_22">
    <path d="M 648 356.103529 
L 648 225.656471 
" style="fill:none;stroke:#000000;stroke-linecap:square;stroke-linejoin:miter;stroke-width:0.8;"/>
   </g>
   <g id="patch_23">
    <path d="M 394.363636 356.103529 
L 648 356.103529 
" style="fill:none;stroke:#000000;stroke-linecap:square;stroke-linejoin:miter;stroke-width:0.8;"/>
   </g>
   <g id="patch_24">
    <path d="M 394.363636 225.656471 
L 648 225.656471 
" style="fill:none;stroke:#000000;stroke-linecap:square;stroke-linejoin:miter;stroke-width:0.8;"/>
   </g>
   <g id="legend_4">
    <g id="patch_25">
     <path d="M 401.363636 351.103529 
L 487.221449 351.103529 
Q 489.221449 351.103529 489.221449 349.103529 
L 489.221449 320.191029 
Q 489.221449 318.191029 487.221449 318.191029 
L 401.363636 318.191029 
Q 399.363636 318.191029 399.363636 320.191029 
L 399.363636 349.103529 
Q 399.363636 351.103529 401.363636 351.103529 
z
" style="fill:#ffffff;opacity:0.8;stroke:#cccccc;stroke-linejoin:miter;"/>
    </g>
    <g id="line2d_53">
     <path d="M 403.363636 326.289467 
L 423.363636 326.289467 
" style="fill:none;stroke:#1f77b4;stroke-linecap:square;stroke-width:1.5;"/>
    </g>
    <g id="line2d_54"/>
    <g id="text_51">
     <!-- true pos_N -->
     <g transform="translate(431.363636 329.789467)scale(0.1 -0.1)">
      <use xlink:href="#DejaVuSans-74"/>
      <use x="39.208984" xlink:href="#DejaVuSans-72"/>
      <use x="80.322266" xlink:href="#DejaVuSans-75"/>
      <use x="143.701172" xlink:href="#DejaVuSans-65"/>
      <use x="205.224609" xlink:href="#DejaVuSans-20"/>
      <use x="237.011719" xlink:href="#DejaVuSans-70"/>
      <use x="300.488281" xlink:href="#DejaVuSans-6f"/>
      <use x="361.669922" xlink:href="#DejaVuSans-73"/>
      <use x="413.769531" xlink:href="#DejaVuSans-5f"/>
      <use x="463.769531" xlink:href="#DejaVuSans-4e"/>
     </g>
    </g>
    <g id="line2d_55">
     <path d="M 403.363636 341.245717 
L 423.363636 341.245717 
" style="fill:none;stroke:#ff7f0e;stroke-linecap:square;stroke-width:1.5;"/>
    </g>
    <g id="line2d_56"/>
    <g id="text_52">
     <!-- true pos_E -->
     <g transform="translate(431.363636 344.745717)scale(0.1 -0.1)">
      <use xlink:href="#DejaVuSans-74"/>
      <use x="39.208984" xlink:href="#DejaVuSans-72"/>
      <use x="80.322266" xlink:href="#DejaVuSans-75"/>
      <use x="143.701172" xlink:href="#DejaVuSans-65"/>
      <use x="205.224609" xlink:href="#DejaVuSans-20"/>
      <use x="237.011719" xlink:href="#DejaVuSans-70"/>
      <use x="300.488281" xlink:href="#DejaVuSans-6f"/>
      <use x="361.669922" xlink:href="#DejaVuSans-73"/>
      <use x="413.769531" xlink:href="#DejaVuSans-5f"/>
      <use x="463.769531" xlink:href="#DejaVuSans-45"/>
     </g>
    </g>
   </g>
  </g>
  <g id="axes_5">
   <g id="patch_26">
    <path d="M 90 512.64 
L 343.636364 512.64 
L 343.636364 382.192941 
L 90 382.192941 
z
" style="fill:#ffffff;"/>
   </g>
   <g id="matplotlib.axis_9">
    <g id="xtick_21">
     <g id="line2d_57">
      <g>
       <use style="stroke:#000000;stroke-width:0.8;" x="101.528926" xlink:href="#m92566e75e0" y="512.64"/>
      </g>
     </g>
     <g id="text_53">
      <!-- 0 -->
      <g transform="translate(98.347676 527.238438)scale(0.1 -0.1)">
       <use xlink:href="#DejaVuSans-30"/>
      </g>
     </g>
    </g>
    <g id="xtick_22">
     <g id="line2d_58">
      <g>
       <use style="stroke:#000000;stroke-width:0.8;" x="159.173554" xlink:href="#m92566e75e0" y="512.64"/>
      </g>
     </g>
     <g id="text_54">
      <!-- 50 -->
      <g transform="translate(152.811054 527.238438)scale(0.1 -0.1)">
       <use xlink:href="#DejaVuSans-35"/>
       <use x="63.623047" xlink:href="#DejaVuSans-30"/>
      </g>
     </g>
    </g>
    <g id="xtick_23">
     <g id="line2d_59">
      <g>
       <use style="stroke:#000000;stroke-width:0.8;" x="216.818182" xlink:href="#m92566e75e0" y="512.64"/>
      </g>
     </g>
     <g id="text_55">
      <!-- 100 -->
      <g transform="translate(207.274432 527.238438)scale(0.1 -0.1)">
       <use xlink:href="#DejaVuSans-31"/>
       <use x="63.623047" xlink:href="#DejaVuSans-30"/>
       <use x="127.246094" xlink:href="#DejaVuSans-30"/>
      </g>
     </g>
    </g>
    <g id="xtick_24">
     <g id="line2d_60">
      <g>
       <use style="stroke:#000000;stroke-width:0.8;" x="274.46281" xlink:href="#m92566e75e0" y="512.64"/>
      </g>
     </g>
     <g id="text_56">
      <!-- 150 -->
      <g transform="translate(264.91906 527.238438)scale(0.1 -0.1)">
       <use xlink:href="#DejaVuSans-31"/>
       <use x="63.623047" xlink:href="#DejaVuSans-35"/>
       <use x="127.246094" xlink:href="#DejaVuSans-30"/>
      </g>
     </g>
    </g>
    <g id="xtick_25">
     <g id="line2d_61">
      <g>
       <use style="stroke:#000000;stroke-width:0.8;" x="332.107438" xlink:href="#m92566e75e0" y="512.64"/>
      </g>
     </g>
     <g id="text_57">
      <!-- 200 -->
      <g transform="translate(322.563688 527.238438)scale(0.1 -0.1)">
       <use xlink:href="#DejaVuSans-32"/>
       <use x="63.623047" xlink:href="#DejaVuSans-30"/>
       <use x="127.246094" xlink:href="#DejaVuSans-30"/>
      </g>
     </g>
    </g>
    <g id="text_58">
     <!-- Time [s] -->
     <g transform="translate(196.489276 540.916563)scale(0.1 -0.1)">
      <use xlink:href="#DejaVuSans-54"/>
      <use x="57.958984" xlink:href="#DejaVuSans-69"/>
      <use x="85.742188" xlink:href="#DejaVuSans-6d"/>
      <use x="183.154297" xlink:href="#DejaVuSans-65"/>
      <use x="244.677734" xlink:href="#DejaVuSans-20"/>
      <use x="276.464844" xlink:href="#DejaVuSans-5b"/>
      <use x="315.478516" xlink:href="#DejaVuSans-73"/>
      <use x="367.578125" xlink:href="#DejaVuSans-5d"/>
     </g>
    </g>
   </g>
   <g id="matplotlib.axis_10">
    <g id="ytick_19">
     <g id="line2d_62">
      <g>
       <use style="stroke:#000000;stroke-width:0.8;" x="90" xlink:href="#m72041d567e" y="485.164279"/>
      </g>
     </g>
     <g id="text_59">
      <!-- −10 -->
      <g transform="translate(61.895313 488.963497)scale(0.1 -0.1)">
       <use xlink:href="#DejaVuSans-2212"/>
       <use x="83.789062" xlink:href="#DejaVuSans-31"/>
       <use x="147.412109" xlink:href="#DejaVuSans-30"/>
      </g>
     </g>
    </g>
    <g id="ytick_20">
     <g id="line2d_63">
      <g>
       <use style="stroke:#000000;stroke-width:0.8;" x="90" xlink:href="#m72041d567e" y="447.416471"/>
      </g>
     </g>
     <g id="text_60">
      <!-- 0 -->
      <g transform="translate(76.6375 451.21569)scale(0.1 -0.1)">
       <use xlink:href="#DejaVuSans-30"/>
      </g>
     </g>
    </g>
    <g id="ytick_21">
     <g id="line2d_64">
      <g>
       <use style="stroke:#000000;stroke-width:0.8;" x="90" xlink:href="#m72041d567e" y="409.668663"/>
      </g>
     </g>
     <g id="text_61">
      <!-- 10 -->
      <g transform="translate(70.275 413.467882)scale(0.1 -0.1)">
       <use xlink:href="#DejaVuSans-31"/>
       <use x="63.623047" xlink:href="#DejaVuSans-30"/>
      </g>
     </g>
    </g>
    <g id="text_62">
     <!-- Velocity [m/s] -->
     <g transform="translate(49.453125 481.682096)rotate(-90)scale(0.1 -0.1)">
      <defs>
       <path d="M 1831 0 
L 50 4666 
L 709 4666 
L 2188 738 
L 3669 4666 
L 4325 4666 
L 2547 0 
L 1831 0 
z
" id="DejaVuSans-56" transform="scale(0.015625)"/>
       <path d="M 603 4863 
L 1178 4863 
L 1178 0 
L 603 0 
L 603 4863 
z
" id="DejaVuSans-6c" transform="scale(0.015625)"/>
       <path d="M 3122 3366 
L 3122 2828 
Q 2878 2963 2633 3030 
Q 2388 3097 2138 3097 
Q 1578 3097 1268 2742 
Q 959 2388 959 1747 
Q 959 1106 1268 751 
Q 1578 397 2138 397 
Q 2388 397 2633 464 
Q 2878 531 3122 666 
L 3122 134 
Q 2881 22 2623 -34 
Q 2366 -91 2075 -91 
Q 1284 -91 818 406 
Q 353 903 353 1747 
Q 353 2603 823 3093 
Q 1294 3584 2113 3584 
Q 2378 3584 2631 3529 
Q 2884 3475 3122 3366 
z
" id="DejaVuSans-63" transform="scale(0.015625)"/>
       <path d="M 2059 -325 
Q 1816 -950 1584 -1140 
Q 1353 -1331 966 -1331 
L 506 -1331 
L 506 -850 
L 844 -850 
Q 1081 -850 1212 -737 
Q 1344 -625 1503 -206 
L 1606 56 
L 191 3500 
L 800 3500 
L 1894 763 
L 2988 3500 
L 3597 3500 
L 2059 -325 
z
" id="DejaVuSans-79" transform="scale(0.015625)"/>
       <path d="M 1625 4666 
L 2156 4666 
L 531 -594 
L 0 -594 
L 1625 4666 
z
" id="DejaVuSans-2f" transform="scale(0.015625)"/>
      </defs>
      <use xlink:href="#DejaVuSans-56"/>
      <use x="60.658203" xlink:href="#DejaVuSans-65"/>
      <use x="122.181641" xlink:href="#DejaVuSans-6c"/>
      <use x="149.964844" xlink:href="#DejaVuSans-6f"/>
      <use x="211.146484" xlink:href="#DejaVuSans-63"/>
      <use x="266.126953" xlink:href="#DejaVuSans-69"/>
      <use x="293.910156" xlink:href="#DejaVuSans-74"/>
      <use x="333.119141" xlink:href="#DejaVuSans-79"/>
      <use x="392.298828" xlink:href="#DejaVuSans-20"/>
      <use x="424.085938" xlink:href="#DejaVuSans-5b"/>
      <use x="463.099609" xlink:href="#DejaVuSans-6d"/>
      <use x="560.511719" xlink:href="#DejaVuSans-2f"/>
      <use x="594.203125" xlink:href="#DejaVuSans-73"/>
      <use x="646.302734" xlink:href="#DejaVuSans-5d"/>
     </g>
    </g>
   </g>
   <g id="line2d_65">
    <path clip-path="url(#p56596b0d90)" d="M 101.528926 447.416471 
L 111.720496 463.672584 
L 117.116033 471.850802 
L 121.589256 478.238581 
L 125.543678 483.507516 
L 129.140702 487.938142 
L 132.472562 491.695983 
L 135.585372 494.877767 
L 138.525248 497.569781 
L 141.315248 499.827288 
L 143.97843 501.699888 
L 146.526322 503.224071 
L 148.993512 504.443774 
L 151.38 505.378473 
L 153.708843 506.05439 
L 155.99157 506.487833 
L 158.25124 506.691863 
L 160.49938 506.671895 
L 162.747521 506.429617 
L 165.018719 505.960039 
L 167.324504 505.254009 
L 169.676405 504.298731 
L 172.08595 503.077866 
L 174.576198 501.564119 
L 177.158678 499.73115 
L 179.856446 497.539949 
L 182.692562 494.944678 
L 185.678554 491.905961 
L 188.860537 488.344309 
L 192.273099 484.183586 
L 195.985413 479.297867 
L 200.089711 473.519003 
L 204.793512 466.499458 
L 210.627149 457.372215 
L 231.609793 424.158899 
L 236.198306 417.538486 
L 240.221901 412.113712 
L 243.865041 407.56593 
L 247.231488 403.71145 
L 250.378884 400.439619 
L 253.341818 397.674717 
L 256.154876 395.349321 
L 258.829587 393.421708 
L 261.400537 391.838998 
L 263.879256 390.57116 
L 266.277273 389.591269 
L 268.617645 388.872902 
L 270.911901 388.399713 
L 273.17157 388.159054 
L 275.419711 388.14251 
L 277.667851 388.348346 
L 279.927521 388.778552 
L 282.221777 389.442716 
L 284.562149 390.353596 
L 286.960165 391.527522 
L 289.438884 392.991625 
L 292.009835 394.772336 
L 294.684545 396.898897 
L 297.497603 399.424633 
L 300.460537 402.389415 
L 303.607934 405.859627 
L 306.97438 409.908781 
L 310.62905 414.660519 
L 314.664174 420.281963 
L 319.252686 427.068631 
L 324.832686 435.739164 
L 332.107438 447.416471 
L 332.107438 447.416471 
" style="fill:none;stroke:#1f77b4;stroke-linecap:square;stroke-width:1.5;"/>
   </g>
   <g id="line2d_66">
    <path clip-path="url(#p56596b0d90)" d="M 101.528926 388.122353 
L 103.777066 388.233581 
L 106.036736 388.569128 
L 108.319463 389.134567 
L 110.636777 389.939145 
L 113.011736 391.001433 
L 115.455868 392.341227 
L 117.980702 393.981622 
L 120.609298 395.957941 
L 123.364711 398.312723 
L 126.258471 401.083361 
L 129.325165 404.333444 
L 132.59938 408.134751 
L 136.127231 412.579335 
L 139.989421 417.812441 
L 144.312769 424.05613 
L 149.385496 431.788319 
L 156.164504 442.560062 
L 170.402727 465.278136 
L 175.579215 473.049679 
L 179.948678 479.219297 
L 183.833926 484.329546 
L 187.373306 488.626464 
L 190.65905 492.273411 
L 193.737273 495.364511 
L 196.642562 497.973016 
L 199.409504 500.163087 
L 202.049628 501.973512 
L 204.585992 503.447059 
L 207.030124 504.613964 
L 209.405083 505.504925 
L 211.722397 506.139861 
L 214.005124 506.536468 
L 216.264793 506.703846 
L 218.512934 506.64737 
L 220.761074 506.368675 
L 223.032273 505.862539 
L 225.338058 505.119776 
L 227.701488 504.122137 
L 230.122562 502.856417 
L 232.624339 501.295171 
L 235.229876 499.4032 
L 237.950702 497.148083 
L 240.809876 494.484104 
L 243.830455 491.359894 
L 247.047025 487.70638 
L 250.505702 483.433573 
L 254.275661 478.413443 
L 258.460661 472.46024 
L 263.30281 465.171529 
L 269.447727 455.494363 
L 287.674959 426.527209 
L 292.505579 419.424355 
L 296.67905 413.673456 
L 300.42595 408.8797 
L 303.873099 404.822844 
L 307.07814 401.387128 
L 310.08719 398.480403 
L 312.934835 396.032141 
L 315.655661 393.981622 
L 318.261198 392.293054 
L 320.762975 390.933026 
L 323.18405 389.866658 
L 325.53595 389.070488 
L 327.841736 388.522478 
L 330.112934 388.209905 
L 332.107438 388.122353 
L 332.107438 388.122353 
" style="fill:none;stroke:#ff7f0e;stroke-linecap:square;stroke-width:1.5;"/>
   </g>
   <g id="patch_27">
    <path d="M 90 512.64 
L 90 382.192941 
" style="fill:none;stroke:#000000;stroke-linecap:square;stroke-linejoin:miter;stroke-width:0.8;"/>
   </g>
   <g id="patch_28">
    <path d="M 343.636364 512.64 
L 343.636364 382.192941 
" style="fill:none;stroke:#000000;stroke-linecap:square;stroke-linejoin:miter;stroke-width:0.8;"/>
   </g>
   <g id="patch_29">
    <path d="M 90 512.64 
L 343.636364 512.64 
" style="fill:none;stroke:#000000;stroke-linecap:square;stroke-linejoin:miter;stroke-width:0.8;"/>
   </g>
   <g id="patch_30">
    <path d="M 90 382.192941 
L 343.636364 382.192941 
" style="fill:none;stroke:#000000;stroke-linecap:square;stroke-linejoin:miter;stroke-width:0.8;"/>
   </g>
   <g id="legend_5">
    <g id="patch_31">
     <path d="M 223.775426 507.64 
L 336.636364 507.64 
Q 338.636364 507.64 338.636364 505.64 
L 338.636364 476.7275 
Q 338.636364 474.7275 336.636364 474.7275 
L 223.775426 474.7275 
Q 221.775426 474.7275 221.775426 476.7275 
L 221.775426 505.64 
Q 221.775426 507.64 223.775426 507.64 
z
" style="fill:#ffffff;opacity:0.8;stroke:#cccccc;stroke-linejoin:miter;"/>
    </g>
    <g id="line2d_67">
     <path d="M 225.775426 482.825938 
L 245.775426 482.825938 
" style="fill:none;stroke:#1f77b4;stroke-linecap:square;stroke-width:1.5;"/>
    </g>
    <g id="line2d_68"/>
    <g id="text_63">
     <!-- estimated vel_N -->
     <g transform="translate(253.775426 486.325938)scale(0.1 -0.1)">
      <defs>
       <path d="M 191 3500 
L 800 3500 
L 1894 563 
L 2988 3500 
L 3597 3500 
L 2284 0 
L 1503 0 
L 191 3500 
z
" id="DejaVuSans-76" transform="scale(0.015625)"/>
      </defs>
      <use xlink:href="#DejaVuSans-65"/>
      <use x="61.523438" xlink:href="#DejaVuSans-73"/>
      <use x="113.623047" xlink:href="#DejaVuSans-74"/>
      <use x="152.832031" xlink:href="#DejaVuSans-69"/>
      <use x="180.615234" xlink:href="#DejaVuSans-6d"/>
      <use x="278.027344" xlink:href="#DejaVuSans-61"/>
      <use x="339.306641" xlink:href="#DejaVuSans-74"/>
      <use x="378.515625" xlink:href="#DejaVuSans-65"/>
      <use x="440.039062" xlink:href="#DejaVuSans-64"/>
      <use x="503.515625" xlink:href="#DejaVuSans-20"/>
      <use x="535.302734" xlink:href="#DejaVuSans-76"/>
      <use x="594.482422" xlink:href="#DejaVuSans-65"/>
      <use x="656.005859" xlink:href="#DejaVuSans-6c"/>
      <use x="683.789062" xlink:href="#DejaVuSans-5f"/>
      <use x="733.789062" xlink:href="#DejaVuSans-4e"/>
     </g>
    </g>
    <g id="line2d_69">
     <path d="M 225.775426 497.782188 
L 245.775426 497.782188 
" style="fill:none;stroke:#ff7f0e;stroke-linecap:square;stroke-width:1.5;"/>
    </g>
    <g id="line2d_70"/>
    <g id="text_64">
     <!-- estimated vel_E -->
     <g transform="translate(253.775426 501.282188)scale(0.1 -0.1)">
      <use xlink:href="#DejaVuSans-65"/>
      <use x="61.523438" xlink:href="#DejaVuSans-73"/>
      <use x="113.623047" xlink:href="#DejaVuSans-74"/>
      <use x="152.832031" xlink:href="#DejaVuSans-69"/>
      <use x="180.615234" xlink:href="#DejaVuSans-6d"/>
      <use x="278.027344" xlink:href="#DejaVuSans-61"/>
      <use x="339.306641" xlink:href="#DejaVuSans-74"/>
      <use x="378.515625" xlink:href="#DejaVuSans-65"/>
      <use x="440.039062" xlink:href="#DejaVuSans-64"/>
      <use x="503.515625" xlink:href="#DejaVuSans-20"/>
      <use x="535.302734" xlink:href="#DejaVuSans-76"/>
      <use x="594.482422" xlink:href="#DejaVuSans-65"/>
      <use x="656.005859" xlink:href="#DejaVuSans-6c"/>
      <use x="683.789062" xlink:href="#DejaVuSans-5f"/>
      <use x="733.789062" xlink:href="#DejaVuSans-45"/>
     </g>
    </g>
   </g>
  </g>
  <g id="axes_6">
   <g id="patch_32">
    <path d="M 394.363636 512.64 
L 648 512.64 
L 648 382.192941 
L 394.363636 382.192941 
z
" style="fill:#ffffff;"/>
   </g>
   <g id="matplotlib.axis_11">
    <g id="xtick_26">
     <g id="line2d_71">
      <g>
       <use style="stroke:#000000;stroke-width:0.8;" x="405.892562" xlink:href="#m92566e75e0" y="512.64"/>
      </g>
     </g>
     <g id="text_65">
      <!-- 0 -->
      <g transform="translate(402.711312 527.238438)scale(0.1 -0.1)">
       <use xlink:href="#DejaVuSans-30"/>
      </g>
     </g>
    </g>
    <g id="xtick_27">
     <g id="line2d_72">
      <g>
       <use style="stroke:#000000;stroke-width:0.8;" x="463.53719" xlink:href="#m92566e75e0" y="512.64"/>
      </g>
     </g>
     <g id="text_66">
      <!-- 50 -->
      <g transform="translate(457.17469 527.238438)scale(0.1 -0.1)">
       <use xlink:href="#DejaVuSans-35"/>
       <use x="63.623047" xlink:href="#DejaVuSans-30"/>
      </g>
     </g>
    </g>
    <g id="xtick_28">
     <g id="line2d_73">
      <g>
       <use style="stroke:#000000;stroke-width:0.8;" x="521.181818" xlink:href="#m92566e75e0" y="512.64"/>
      </g>
     </g>
     <g id="text_67">
      <!-- 100 -->
      <g transform="translate(511.638068 527.238438)scale(0.1 -0.1)">
       <use xlink:href="#DejaVuSans-31"/>
       <use x="63.623047" xlink:href="#DejaVuSans-30"/>
       <use x="127.246094" xlink:href="#DejaVuSans-30"/>
      </g>
     </g>
    </g>
    <g id="xtick_29">
     <g id="line2d_74">
      <g>
       <use style="stroke:#000000;stroke-width:0.8;" x="578.826446" xlink:href="#m92566e75e0" y="512.64"/>
      </g>
     </g>
     <g id="text_68">
      <!-- 150 -->
      <g transform="translate(569.282696 527.238438)scale(0.1 -0.1)">
       <use xlink:href="#DejaVuSans-31"/>
       <use x="63.623047" xlink:href="#DejaVuSans-35"/>
       <use x="127.246094" xlink:href="#DejaVuSans-30"/>
      </g>
     </g>
    </g>
    <g id="xtick_30">
     <g id="line2d_75">
      <g>
       <use style="stroke:#000000;stroke-width:0.8;" x="636.471074" xlink:href="#m92566e75e0" y="512.64"/>
      </g>
     </g>
     <g id="text_69">
      <!-- 200 -->
      <g transform="translate(626.927324 527.238438)scale(0.1 -0.1)">
       <use xlink:href="#DejaVuSans-32"/>
       <use x="63.623047" xlink:href="#DejaVuSans-30"/>
       <use x="127.246094" xlink:href="#DejaVuSans-30"/>
      </g>
     </g>
    </g>
    <g id="text_70">
     <!-- Time [s] -->
     <g transform="translate(500.852912 540.916563)scale(0.1 -0.1)">
      <use xlink:href="#DejaVuSans-54"/>
      <use x="57.958984" xlink:href="#DejaVuSans-69"/>
      <use x="85.742188" xlink:href="#DejaVuSans-6d"/>
      <use x="183.154297" xlink:href="#DejaVuSans-65"/>
      <use x="244.677734" xlink:href="#DejaVuSans-20"/>
      <use x="276.464844" xlink:href="#DejaVuSans-5b"/>
      <use x="315.478516" xlink:href="#DejaVuSans-73"/>
      <use x="367.578125" xlink:href="#DejaVuSans-5d"/>
     </g>
    </g>
   </g>
   <g id="matplotlib.axis_12">
    <g id="ytick_22">
     <g id="line2d_76">
      <g>
       <use style="stroke:#000000;stroke-width:0.8;" x="394.363636" xlink:href="#m72041d567e" y="492.346382"/>
      </g>
     </g>
     <g id="text_71">
      <!-- −10 -->
      <g transform="translate(366.258949 496.1456)scale(0.1 -0.1)">
       <use xlink:href="#DejaVuSans-2212"/>
       <use x="83.789062" xlink:href="#DejaVuSans-31"/>
       <use x="147.412109" xlink:href="#DejaVuSans-30"/>
      </g>
     </g>
    </g>
    <g id="ytick_23">
     <g id="line2d_77">
      <g>
       <use style="stroke:#000000;stroke-width:0.8;" x="394.363636" xlink:href="#m72041d567e" y="467.181176"/>
      </g>
     </g>
     <g id="text_72">
      <!-- 0 -->
      <g transform="translate(381.001136 470.980395)scale(0.1 -0.1)">
       <use xlink:href="#DejaVuSans-30"/>
      </g>
     </g>
    </g>
    <g id="ytick_24">
     <g id="line2d_78">
      <g>
       <use style="stroke:#000000;stroke-width:0.8;" x="394.363636" xlink:href="#m72041d567e" y="442.015971"/>
      </g>
     </g>
     <g id="text_73">
      <!-- 10 -->
      <g transform="translate(374.638636 445.81519)scale(0.1 -0.1)">
       <use xlink:href="#DejaVuSans-31"/>
       <use x="63.623047" xlink:href="#DejaVuSans-30"/>
      </g>
     </g>
    </g>
    <g id="ytick_25">
     <g id="line2d_79">
      <g>
       <use style="stroke:#000000;stroke-width:0.8;" x="394.363636" xlink:href="#m72041d567e" y="416.850766"/>
      </g>
     </g>
     <g id="text_74">
      <!-- 20 -->
      <g transform="translate(374.638636 420.649985)scale(0.1 -0.1)">
       <use xlink:href="#DejaVuSans-32"/>
       <use x="63.623047" xlink:href="#DejaVuSans-30"/>
      </g>
     </g>
    </g>
    <g id="ytick_26">
     <g id="line2d_80">
      <g>
       <use style="stroke:#000000;stroke-width:0.8;" x="394.363636" xlink:href="#m72041d567e" y="391.685561"/>
      </g>
     </g>
     <g id="text_75">
      <!-- 30 -->
      <g transform="translate(374.638636 395.48478)scale(0.1 -0.1)">
       <defs>
        <path d="M 2597 2516 
Q 3050 2419 3304 2112 
Q 3559 1806 3559 1356 
Q 3559 666 3084 287 
Q 2609 -91 1734 -91 
Q 1441 -91 1130 -33 
Q 819 25 488 141 
L 488 750 
Q 750 597 1062 519 
Q 1375 441 1716 441 
Q 2309 441 2620 675 
Q 2931 909 2931 1356 
Q 2931 1769 2642 2001 
Q 2353 2234 1838 2234 
L 1294 2234 
L 1294 2753 
L 1863 2753 
Q 2328 2753 2575 2939 
Q 2822 3125 2822 3475 
Q 2822 3834 2567 4026 
Q 2313 4219 1838 4219 
Q 1578 4219 1281 4162 
Q 984 4106 628 3988 
L 628 4550 
Q 988 4650 1302 4700 
Q 1616 4750 1894 4750 
Q 2613 4750 3031 4423 
Q 3450 4097 3450 3541 
Q 3450 3153 3228 2886 
Q 3006 2619 2597 2516 
z
" id="DejaVuSans-33" transform="scale(0.015625)"/>
       </defs>
       <use xlink:href="#DejaVuSans-33"/>
       <use x="63.623047" xlink:href="#DejaVuSans-30"/>
      </g>
     </g>
    </g>
    <g id="text_76">
     <!-- Velocity [m/s] -->
     <g transform="translate(353.816761 481.682096)rotate(-90)scale(0.1 -0.1)">
      <use xlink:href="#DejaVuSans-56"/>
      <use x="60.658203" xlink:href="#DejaVuSans-65"/>
      <use x="122.181641" xlink:href="#DejaVuSans-6c"/>
      <use x="149.964844" xlink:href="#DejaVuSans-6f"/>
      <use x="211.146484" xlink:href="#DejaVuSans-63"/>
      <use x="266.126953" xlink:href="#DejaVuSans-69"/>
      <use x="293.910156" xlink:href="#DejaVuSans-74"/>
      <use x="333.119141" xlink:href="#DejaVuSans-79"/>
      <use x="392.298828" xlink:href="#DejaVuSans-20"/>
      <use x="424.085938" xlink:href="#DejaVuSans-5b"/>
      <use x="463.099609" xlink:href="#DejaVuSans-6d"/>
      <use x="560.511719" xlink:href="#DejaVuSans-2f"/>
      <use x="594.203125" xlink:href="#DejaVuSans-73"/>
      <use x="646.302734" xlink:href="#DejaVuSans-5d"/>
     </g>
    </g>
   </g>
   <g id="line2d_81">
    <path clip-path="url(#p408e4b1456)" d="M 405.892562 467.181176 
L 416.602934 478.554906 
L 422.286694 484.258783 
L 427.025083 488.706965 
L 431.23314 492.35903 
L 435.083802 495.412274 
L 438.669298 497.976705 
L 442.047273 500.124378 
L 445.263843 501.910419 
L 448.353595 503.375116 
L 451.339587 504.547075 
L 454.244876 505.450101 
L 457.080992 506.100425 
L 459.870992 506.51349 
L 462.637934 506.698721 
L 465.393347 506.660035 
L 468.14876 506.398887 
L 470.927231 505.911788 
L 473.751818 505.189159 
L 476.63405 504.219826 
L 479.585455 502.990645 
L 482.64062 501.474516 
L 485.811074 499.650169 
L 489.131405 497.480194 
L 492.647727 494.912301 
L 496.406157 491.886958 
L 500.487397 488.309642 
L 505.018264 484.034451 
L 510.275455 478.75693 
L 517.112107 471.555938 
L 533.748347 453.907975 
L 539.074711 448.66224 
L 543.628636 444.482048 
L 547.721405 441.021282 
L 551.479835 438.128563 
L 554.996157 435.69732 
L 558.328017 433.659797 
L 561.51 431.971495 
L 564.565165 430.599286 
L 567.51657 429.514229 
L 570.398802 428.689569 
L 573.223388 428.111617 
L 576.00186 427.768798 
L 578.757273 427.651835 
L 581.512686 427.757619 
L 584.279628 428.08739 
L 587.069628 428.644824 
L 589.905744 429.439633 
L 592.799504 430.482779 
L 595.785496 431.798178 
L 598.875248 433.405638 
L 602.091818 435.333111 
L 605.469793 437.620242 
L 609.055289 440.321237 
L 612.894421 443.496602 
L 617.09095 447.26252 
L 621.806281 451.801878 
L 627.39781 457.507062 
L 635.329711 465.95194 
L 636.471074 467.181176 
L 636.471074 467.181176 
" style="fill:none;stroke:#1f77b4;stroke-linecap:square;stroke-width:1.5;"/>
   </g>
   <g id="line2d_82">
    <path clip-path="url(#p408e4b1456)" d="M 405.892562 388.122353 
L 408.647975 388.233726 
L 411.414917 388.569079 
L 414.204917 389.132078 
L 417.041033 389.932444 
L 419.946322 390.985761 
L 422.932314 392.307609 
L 426.022066 393.921473 
L 429.238636 395.855269 
L 432.616612 398.148614 
L 436.202107 400.855669 
L 440.052769 404.046806 
L 444.260826 407.829728 
L 448.987686 412.386943 
L 454.602273 418.122209 
L 462.649463 426.695631 
L 474.328264 439.10872 
L 480.000496 444.79654 
L 484.727355 449.229606 
L 488.935413 452.877455 
L 492.786074 455.92629 
L 496.37157 458.486184 
L 499.749545 460.629244 
L 502.966116 462.410621 
L 506.055868 463.870624 
L 509.04186 465.037878 
L 511.947149 465.936197 
L 514.783264 466.581833 
L 517.573264 466.990222 
L 520.340207 467.170782 
L 523.09562 467.127435 
L 525.851033 466.861645 
L 528.629504 466.369909 
L 531.454091 465.642639 
L 534.336322 464.668676 
L 537.287727 463.434893 
L 540.342893 461.914179 
L 543.524876 460.0782 
L 546.856736 457.894878 
L 550.373058 455.320873 
L 554.131488 452.289627 
L 558.212727 448.706709 
L 562.755124 444.41512 
L 568.035372 439.10872 
L 574.929669 431.841345 
L 591.23157 414.542456 
L 596.580992 409.264616 
L 601.146446 405.064608 
L 605.250744 401.5851 
L 609.020702 398.675058 
L 612.548554 396.228082 
L 615.880413 394.183143 
L 619.062397 392.487354 
L 622.117562 391.107633 
L 625.080496 390.011277 
L 627.962727 389.180038 
L 630.787314 388.595521 
L 633.565785 388.246165 
L 636.321198 388.122683 
L 636.471074 388.122353 
L 636.471074 388.122353 
" style="fill:none;stroke:#ff7f0e;stroke-linecap:square;stroke-width:1.5;"/>
   </g>
   <g id="patch_33">
    <path d="M 394.363636 512.64 
L 394.363636 382.192941 
" style="fill:none;stroke:#000000;stroke-linecap:square;stroke-linejoin:miter;stroke-width:0.8;"/>
   </g>
   <g id="patch_34">
    <path d="M 648 512.64 
L 648 382.192941 
" style="fill:none;stroke:#000000;stroke-linecap:square;stroke-linejoin:miter;stroke-width:0.8;"/>
   </g>
   <g id="patch_35">
    <path d="M 394.363636 512.64 
L 648 512.64 
" style="fill:none;stroke:#000000;stroke-linecap:square;stroke-linejoin:miter;stroke-width:0.8;"/>
   </g>
   <g id="patch_36">
    <path d="M 394.363636 382.192941 
L 648 382.192941 
" style="fill:none;stroke:#000000;stroke-linecap:square;stroke-linejoin:miter;stroke-width:0.8;"/>
   </g>
   <g id="legend_6">
    <g id="patch_37">
     <path d="M 557.96875 507.64 
L 641 507.64 
Q 643 507.64 643 505.64 
L 643 476.7275 
Q 643 474.7275 641 474.7275 
L 557.96875 474.7275 
Q 555.96875 474.7275 555.96875 476.7275 
L 555.96875 505.64 
Q 555.96875 507.64 557.96875 507.64 
z
" style="fill:#ffffff;opacity:0.8;stroke:#cccccc;stroke-linejoin:miter;"/>
    </g>
    <g id="line2d_83">
     <path d="M 559.96875 482.825938 
L 579.96875 482.825938 
" style="fill:none;stroke:#1f77b4;stroke-linecap:square;stroke-width:1.5;"/>
    </g>
    <g id="line2d_84"/>
    <g id="text_77">
     <!-- true vel_N -->
     <g transform="translate(587.96875 486.325938)scale(0.1 -0.1)">
      <use xlink:href="#DejaVuSans-74"/>
      <use x="39.208984" xlink:href="#DejaVuSans-72"/>
      <use x="80.322266" xlink:href="#DejaVuSans-75"/>
      <use x="143.701172" xlink:href="#DejaVuSans-65"/>
      <use x="205.224609" xlink:href="#DejaVuSans-20"/>
      <use x="237.011719" xlink:href="#DejaVuSans-76"/>
      <use x="296.191406" xlink:href="#DejaVuSans-65"/>
      <use x="357.714844" xlink:href="#DejaVuSans-6c"/>
      <use x="385.498047" xlink:href="#DejaVuSans-5f"/>
      <use x="435.498047" xlink:href="#DejaVuSans-4e"/>
     </g>
    </g>
    <g id="line2d_85">
     <path d="M 559.96875 497.782188 
L 579.96875 497.782188 
" style="fill:none;stroke:#ff7f0e;stroke-linecap:square;stroke-width:1.5;"/>
    </g>
    <g id="line2d_86"/>
    <g id="text_78">
     <!-- true vel_E -->
     <g transform="translate(587.96875 501.282188)scale(0.1 -0.1)">
      <use xlink:href="#DejaVuSans-74"/>
      <use x="39.208984" xlink:href="#DejaVuSans-72"/>
      <use x="80.322266" xlink:href="#DejaVuSans-75"/>
      <use x="143.701172" xlink:href="#DejaVuSans-65"/>
      <use x="205.224609" xlink:href="#DejaVuSans-20"/>
      <use x="237.011719" xlink:href="#DejaVuSans-76"/>
      <use x="296.191406" xlink:href="#DejaVuSans-65"/>
      <use x="357.714844" xlink:href="#DejaVuSans-6c"/>
      <use x="385.498047" xlink:href="#DejaVuSans-5f"/>
      <use x="435.498047" xlink:href="#DejaVuSans-45"/>
     </g>
    </g>
   </g>
  </g>
 </g>
 <defs>
  <clipPath id="pdd5dc0f1f0">
   <rect height="130.447059" width="253.636364" x="90" y="69.12"/>
  </clipPath>
  <clipPath id="pef427bb36c">
   <rect height="130.447059" width="253.636364" x="394.363636" y="69.12"/>
  </clipPath>
  <clipPath id="p763906a071">
   <rect height="130.447059" width="253.636364" x="90" y="225.656471"/>
  </clipPath>
  <clipPath id="p36cc586a52">
   <rect height="130.447059" width="253.636364" x="394.363636" y="225.656471"/>
  </clipPath>
  <clipPath id="p56596b0d90">
   <rect height="130.447059" width="253.636364" x="90" y="382.192941"/>
  </clipPath>
  <clipPath id="p408e4b1456">
   <rect height="130.447059" width="253.636364" x="394.363636" y="382.192941"/>
  </clipPath>
 </defs>
</svg>
