<?xml version="1.0" encoding="utf-8" standalone="no"?>
<!DOCTYPE svg PUBLIC "-//W3C//DTD SVG 1.1//EN"
  "http://www.w3.org/Graphics/SVG/1.1/DTD/svg11.dtd">
<svg xmlns:xlink="http://www.w3.org/1999/xlink" width="720pt" height="720pt" viewBox="0 0 720 720" xmlns="http://www.w3.org/2000/svg" version="1.1">
 <metadata>
  <rdf:RDF xmlns:dc="http://purl.org/dc/elements/1.1/" xmlns:cc="http://creativecommons.org/ns#" xmlns:rdf="http://www.w3.org/1999/02/22-rdf-syntax-ns#">
   <cc:Work>
    <dc:type rdf:resource="http://purl.org/dc/dcmitype/StillImage"/>
    <dc:date>2024-03-07T12:33:03.323450</dc:date>
    <dc:format>image/svg+xml</dc:format>
    <dc:creator>
     <cc:Agent>
      <dc:title>Matplotlib v3.7.2, https://matplotlib.org/</dc:title>
     </cc:Agent>
    </dc:creator>
   </cc:Work>
  </rdf:RDF>
 </metadata>
 <defs>
  <style type="text/css">*{stroke-linejoin: round; stroke-linecap: butt}</style>
 </defs>
 <g id="figure_1">
  <g id="patch_1">
   <path d="M 0 720 
L 720 720 
L 720 0 
L 0 0 
z
" style="fill: #ffffff"/>
  </g>
  <g id="text_1">
   <!-- Power Spectral Density -->
   <g transform="translate(290.4675 12.118365) scale(0.12 -0.12)">
    <defs>
     <path id="DejaVuSans-50" d="M 1259 4147 
L 1259 2394 
L 2053 2394 
Q 2494 2394 2734 2622 
Q 2975 2850 2975 3272 
Q 2975 3691 2734 3919 
Q 2494 4147 2053 4147 
L 1259 4147 
z
M 628 4666 
L 2053 4666 
Q 2838 4666 3239 4311 
Q 3641 3956 3641 3272 
Q 3641 2581 3239 2228 
Q 2838 1875 2053 1875 
L 1259 1875 
L 1259 0 
L 628 0 
L 628 4666 
z
" transform="scale(0.015625)"/>
     <path id="DejaVuSans-6f" d="M 1959 3097 
Q 1497 3097 1228 2736 
Q 959 2375 959 1747 
Q 959 1119 1226 758 
Q 1494 397 1959 397 
Q 2419 397 2687 759 
Q 2956 1122 2956 1747 
Q 2956 2369 2687 2733 
Q 2419 3097 1959 3097 
z
M 1959 3584 
Q 2709 3584 3137 3096 
Q 3566 2609 3566 1747 
Q 3566 888 3137 398 
Q 2709 -91 1959 -91 
Q 1206 -91 779 398 
Q 353 888 353 1747 
Q 353 2609 779 3096 
Q 1206 3584 1959 3584 
z
" transform="scale(0.015625)"/>
     <path id="DejaVuSans-77" d="M 269 3500 
L 844 3500 
L 1563 769 
L 2278 3500 
L 2956 3500 
L 3675 769 
L 4391 3500 
L 4966 3500 
L 4050 0 
L 3372 0 
L 2619 2869 
L 1863 0 
L 1184 0 
L 269 3500 
z
" transform="scale(0.015625)"/>
     <path id="DejaVuSans-65" d="M 3597 1894 
L 3597 1613 
L 953 1613 
Q 991 1019 1311 708 
Q 1631 397 2203 397 
Q 2534 397 2845 478 
Q 3156 559 3463 722 
L 3463 178 
Q 3153 47 2828 -22 
Q 2503 -91 2169 -91 
Q 1331 -91 842 396 
Q 353 884 353 1716 
Q 353 2575 817 3079 
Q 1281 3584 2069 3584 
Q 2775 3584 3186 3129 
Q 3597 2675 3597 1894 
z
M 3022 2063 
Q 3016 2534 2758 2815 
Q 2500 3097 2075 3097 
Q 1594 3097 1305 2825 
Q 1016 2553 972 2059 
L 3022 2063 
z
" transform="scale(0.015625)"/>
     <path id="DejaVuSans-72" d="M 2631 2963 
Q 2534 3019 2420 3045 
Q 2306 3072 2169 3072 
Q 1681 3072 1420 2755 
Q 1159 2438 1159 1844 
L 1159 0 
L 581 0 
L 581 3500 
L 1159 3500 
L 1159 2956 
Q 1341 3275 1631 3429 
Q 1922 3584 2338 3584 
Q 2397 3584 2469 3576 
Q 2541 3569 2628 3553 
L 2631 2963 
z
" transform="scale(0.015625)"/>
     <path id="DejaVuSans-20" transform="scale(0.015625)"/>
     <path id="DejaVuSans-53" d="M 3425 4513 
L 3425 3897 
Q 3066 4069 2747 4153 
Q 2428 4238 2131 4238 
Q 1616 4238 1336 4038 
Q 1056 3838 1056 3469 
Q 1056 3159 1242 3001 
Q 1428 2844 1947 2747 
L 2328 2669 
Q 3034 2534 3370 2195 
Q 3706 1856 3706 1288 
Q 3706 609 3251 259 
Q 2797 -91 1919 -91 
Q 1588 -91 1214 -16 
Q 841 59 441 206 
L 441 856 
Q 825 641 1194 531 
Q 1563 422 1919 422 
Q 2459 422 2753 634 
Q 3047 847 3047 1241 
Q 3047 1584 2836 1778 
Q 2625 1972 2144 2069 
L 1759 2144 
Q 1053 2284 737 2584 
Q 422 2884 422 3419 
Q 422 4038 858 4394 
Q 1294 4750 2059 4750 
Q 2388 4750 2728 4690 
Q 3069 4631 3425 4513 
z
" transform="scale(0.015625)"/>
     <path id="DejaVuSans-70" d="M 1159 525 
L 1159 -1331 
L 581 -1331 
L 581 3500 
L 1159 3500 
L 1159 2969 
Q 1341 3281 1617 3432 
Q 1894 3584 2278 3584 
Q 2916 3584 3314 3078 
Q 3713 2572 3713 1747 
Q 3713 922 3314 415 
Q 2916 -91 2278 -91 
Q 1894 -91 1617 61 
Q 1341 213 1159 525 
z
M 3116 1747 
Q 3116 2381 2855 2742 
Q 2594 3103 2138 3103 
Q 1681 3103 1420 2742 
Q 1159 2381 1159 1747 
Q 1159 1113 1420 752 
Q 1681 391 2138 391 
Q 2594 391 2855 752 
Q 3116 1113 3116 1747 
z
" transform="scale(0.015625)"/>
     <path id="DejaVuSans-63" d="M 3122 3366 
L 3122 2828 
Q 2878 2963 2633 3030 
Q 2388 3097 2138 3097 
Q 1578 3097 1268 2742 
Q 959 2388 959 1747 
Q 959 1106 1268 751 
Q 1578 397 2138 397 
Q 2388 397 2633 464 
Q 2878 531 3122 666 
L 3122 134 
Q 2881 22 2623 -34 
Q 2366 -91 2075 -91 
Q 1284 -91 818 406 
Q 353 903 353 1747 
Q 353 2603 823 3093 
Q 1294 3584 2113 3584 
Q 2378 3584 2631 3529 
Q 2884 3475 3122 3366 
z
" transform="scale(0.015625)"/>
     <path id="DejaVuSans-74" d="M 1172 4494 
L 1172 3500 
L 2356 3500 
L 2356 3053 
L 1172 3053 
L 1172 1153 
Q 1172 725 1289 603 
Q 1406 481 1766 481 
L 2356 481 
L 2356 0 
L 1766 0 
Q 1100 0 847 248 
Q 594 497 594 1153 
L 594 3053 
L 172 3053 
L 172 3500 
L 594 3500 
L 594 4494 
L 1172 4494 
z
" transform="scale(0.015625)"/>
     <path id="DejaVuSans-61" d="M 2194 1759 
Q 1497 1759 1228 1600 
Q 959 1441 959 1056 
Q 959 750 1161 570 
Q 1363 391 1709 391 
Q 2188 391 2477 730 
Q 2766 1069 2766 1631 
L 2766 1759 
L 2194 1759 
z
M 3341 1997 
L 3341 0 
L 2766 0 
L 2766 531 
Q 2569 213 2275 61 
Q 1981 -91 1556 -91 
Q 1019 -91 701 211 
Q 384 513 384 1019 
Q 384 1609 779 1909 
Q 1175 2209 1959 2209 
L 2766 2209 
L 2766 2266 
Q 2766 2663 2505 2880 
Q 2244 3097 1772 3097 
Q 1472 3097 1187 3025 
Q 903 2953 641 2809 
L 641 3341 
Q 956 3463 1253 3523 
Q 1550 3584 1831 3584 
Q 2591 3584 2966 3190 
Q 3341 2797 3341 1997 
z
" transform="scale(0.015625)"/>
     <path id="DejaVuSans-6c" d="M 603 4863 
L 1178 4863 
L 1178 0 
L 603 0 
L 603 4863 
z
" transform="scale(0.015625)"/>
     <path id="DejaVuSans-44" d="M 1259 4147 
L 1259 519 
L 2022 519 
Q 2988 519 3436 956 
Q 3884 1394 3884 2338 
Q 3884 3275 3436 3711 
Q 2988 4147 2022 4147 
L 1259 4147 
z
M 628 4666 
L 1925 4666 
Q 3281 4666 3915 4102 
Q 4550 3538 4550 2338 
Q 4550 1131 3912 565 
Q 3275 0 1925 0 
L 628 0 
L 628 4666 
z
" transform="scale(0.015625)"/>
     <path id="DejaVuSans-6e" d="M 3513 2113 
L 3513 0 
L 2938 0 
L 2938 2094 
Q 2938 2591 2744 2837 
Q 2550 3084 2163 3084 
Q 1697 3084 1428 2787 
Q 1159 2491 1159 1978 
L 1159 0 
L 581 0 
L 581 3500 
L 1159 3500 
L 1159 2956 
Q 1366 3272 1645 3428 
Q 1925 3584 2291 3584 
Q 2894 3584 3203 3211 
Q 3513 2838 3513 2113 
z
" transform="scale(0.015625)"/>
     <path id="DejaVuSans-73" d="M 2834 3397 
L 2834 2853 
Q 2591 2978 2328 3040 
Q 2066 3103 1784 3103 
Q 1356 3103 1142 2972 
Q 928 2841 928 2578 
Q 928 2378 1081 2264 
Q 1234 2150 1697 2047 
L 1894 2003 
Q 2506 1872 2764 1633 
Q 3022 1394 3022 966 
Q 3022 478 2636 193 
Q 2250 -91 1575 -91 
Q 1294 -91 989 -36 
Q 684 19 347 128 
L 347 722 
Q 666 556 975 473 
Q 1284 391 1588 391 
Q 1994 391 2212 530 
Q 2431 669 2431 922 
Q 2431 1156 2273 1281 
Q 2116 1406 1581 1522 
L 1381 1569 
Q 847 1681 609 1914 
Q 372 2147 372 2553 
Q 372 3047 722 3315 
Q 1072 3584 1716 3584 
Q 2034 3584 2315 3537 
Q 2597 3491 2834 3397 
z
" transform="scale(0.015625)"/>
     <path id="DejaVuSans-69" d="M 603 3500 
L 1178 3500 
L 1178 0 
L 603 0 
L 603 3500 
z
M 603 4863 
L 1178 4863 
L 1178 4134 
L 603 4134 
L 603 4863 
z
" transform="scale(0.015625)"/>
     <path id="DejaVuSans-79" d="M 2059 -325 
Q 1816 -950 1584 -1140 
Q 1353 -1331 966 -1331 
L 506 -1331 
L 506 -850 
L 844 -850 
Q 1081 -850 1212 -737 
Q 1344 -625 1503 -206 
L 1606 56 
L 191 3500 
L 800 3500 
L 1894 763 
L 2988 3500 
L 3597 3500 
L 2059 -325 
z
" transform="scale(0.015625)"/>
    </defs>
    <use xlink:href="#DejaVuSans-50"/>
    <use xlink:href="#DejaVuSans-6f" x="56.677734"/>
    <use xlink:href="#DejaVuSans-77" x="117.859375"/>
    <use xlink:href="#DejaVuSans-65" x="199.646484"/>
    <use xlink:href="#DejaVuSans-72" x="261.169922"/>
    <use xlink:href="#DejaVuSans-20" x="302.283203"/>
    <use xlink:href="#DejaVuSans-53" x="334.070312"/>
    <use xlink:href="#DejaVuSans-70" x="397.546875"/>
    <use xlink:href="#DejaVuSans-65" x="461.023438"/>
    <use xlink:href="#DejaVuSans-63" x="522.546875"/>
    <use xlink:href="#DejaVuSans-74" x="577.527344"/>
    <use xlink:href="#DejaVuSans-72" x="616.736328"/>
    <use xlink:href="#DejaVuSans-61" x="657.849609"/>
    <use xlink:href="#DejaVuSans-6c" x="719.128906"/>
    <use xlink:href="#DejaVuSans-20" x="746.912109"/>
    <use xlink:href="#DejaVuSans-44" x="778.699219"/>
    <use xlink:href="#DejaVuSans-65" x="855.701172"/>
    <use xlink:href="#DejaVuSans-6e" x="917.224609"/>
    <use xlink:href="#DejaVuSans-73" x="980.603516"/>
    <use xlink:href="#DejaVuSans-69" x="1032.703125"/>
    <use xlink:href="#DejaVuSans-74" x="1060.486328"/>
    <use xlink:href="#DejaVuSans-79" x="1099.695312"/>
   </g>
  </g>
  <g id="subfigure_1">
   <g id="patch_2">
    <path d="M 0 179.710672 
L 720 179.710672 
L 720 17.61423 
L 0 17.61423 
z
" style="fill: #ffffff"/>
   </g>
   <g id="axes_1">
    <g id="patch_3">
     <path d="M 38.628365 133.119879 
L 716.99976 133.119879 
L 716.99976 35.732595 
L 38.628365 35.732595 
z
" style="fill: #ffffff"/>
    </g>
    <g id="matplotlib.axis_1">
     <g id="xtick_1">
      <g id="line2d_1">
       <defs>
        <path id="m6d7b1322ef" d="M 0 0 
L 0 3.5 
" style="stroke: #000000; stroke-width: 0.8"/>
       </defs>
       <g>
        <use xlink:href="#m6d7b1322ef" x="131.375399" y="133.119879" style="stroke: #000000; stroke-width: 0.8"/>
       </g>
      </g>
      <g id="text_2">
       <!-- −0.4 -->
       <g transform="translate(119.233993 147.718317) scale(0.1 -0.1)">
        <defs>
         <path id="DejaVuSans-2212" d="M 678 2272 
L 4684 2272 
L 4684 1741 
L 678 1741 
L 678 2272 
z
" transform="scale(0.015625)"/>
         <path id="DejaVuSans-30" d="M 2034 4250 
Q 1547 4250 1301 3770 
Q 1056 3291 1056 2328 
Q 1056 1369 1301 889 
Q 1547 409 2034 409 
Q 2525 409 2770 889 
Q 3016 1369 3016 2328 
Q 3016 3291 2770 3770 
Q 2525 4250 2034 4250 
z
M 2034 4750 
Q 2819 4750 3233 4129 
Q 3647 3509 3647 2328 
Q 3647 1150 3233 529 
Q 2819 -91 2034 -91 
Q 1250 -91 836 529 
Q 422 1150 422 2328 
Q 422 3509 836 4129 
Q 1250 4750 2034 4750 
z
" transform="scale(0.015625)"/>
         <path id="DejaVuSans-2e" d="M 684 794 
L 1344 794 
L 1344 0 
L 684 0 
L 684 794 
z
" transform="scale(0.015625)"/>
         <path id="DejaVuSans-34" d="M 2419 4116 
L 825 1625 
L 2419 1625 
L 2419 4116 
z
M 2253 4666 
L 3047 4666 
L 3047 1625 
L 3713 1625 
L 3713 1100 
L 3047 1100 
L 3047 0 
L 2419 0 
L 2419 1100 
L 313 1100 
L 313 1709 
L 2253 4666 
z
" transform="scale(0.015625)"/>
        </defs>
        <use xlink:href="#DejaVuSans-2212"/>
        <use xlink:href="#DejaVuSans-30" x="83.789062"/>
        <use xlink:href="#DejaVuSans-2e" x="147.412109"/>
        <use xlink:href="#DejaVuSans-34" x="179.199219"/>
       </g>
      </g>
     </g>
     <g id="xtick_2">
      <g id="line2d_2">
       <g>
        <use xlink:href="#m6d7b1322ef" x="255.19934" y="133.119879" style="stroke: #000000; stroke-width: 0.8"/>
       </g>
      </g>
      <g id="text_3">
       <!-- −0.2 -->
       <g transform="translate(243.057934 147.718317) scale(0.1 -0.1)">
        <defs>
         <path id="DejaVuSans-32" d="M 1228 531 
L 3431 531 
L 3431 0 
L 469 0 
L 469 531 
Q 828 903 1448 1529 
Q 2069 2156 2228 2338 
Q 2531 2678 2651 2914 
Q 2772 3150 2772 3378 
Q 2772 3750 2511 3984 
Q 2250 4219 1831 4219 
Q 1534 4219 1204 4116 
Q 875 4013 500 3803 
L 500 4441 
Q 881 4594 1212 4672 
Q 1544 4750 1819 4750 
Q 2544 4750 2975 4387 
Q 3406 4025 3406 3419 
Q 3406 3131 3298 2873 
Q 3191 2616 2906 2266 
Q 2828 2175 2409 1742 
Q 1991 1309 1228 531 
z
" transform="scale(0.015625)"/>
        </defs>
        <use xlink:href="#DejaVuSans-2212"/>
        <use xlink:href="#DejaVuSans-30" x="83.789062"/>
        <use xlink:href="#DejaVuSans-2e" x="147.412109"/>
        <use xlink:href="#DejaVuSans-32" x="179.199219"/>
       </g>
      </g>
     </g>
     <g id="xtick_3">
      <g id="line2d_3">
       <g>
        <use xlink:href="#m6d7b1322ef" x="379.023281" y="133.119879" style="stroke: #000000; stroke-width: 0.8"/>
       </g>
      </g>
      <g id="text_4">
       <!-- 0.0 -->
       <g transform="translate(371.071718 147.718317) scale(0.1 -0.1)">
        <use xlink:href="#DejaVuSans-30"/>
        <use xlink:href="#DejaVuSans-2e" x="63.623047"/>
        <use xlink:href="#DejaVuSans-30" x="95.410156"/>
       </g>
      </g>
     </g>
     <g id="xtick_4">
      <g id="line2d_4">
       <g>
        <use xlink:href="#m6d7b1322ef" x="502.847222" y="133.119879" style="stroke: #000000; stroke-width: 0.8"/>
       </g>
      </g>
      <g id="text_5">
       <!-- 0.2 -->
       <g transform="translate(494.895659 147.718317) scale(0.1 -0.1)">
        <use xlink:href="#DejaVuSans-30"/>
        <use xlink:href="#DejaVuSans-2e" x="63.623047"/>
        <use xlink:href="#DejaVuSans-32" x="95.410156"/>
       </g>
      </g>
     </g>
     <g id="xtick_5">
      <g id="line2d_5">
       <g>
        <use xlink:href="#m6d7b1322ef" x="626.671162" y="133.119879" style="stroke: #000000; stroke-width: 0.8"/>
       </g>
      </g>
      <g id="text_6">
       <!-- 0.4 -->
       <g transform="translate(618.7196 147.718317) scale(0.1 -0.1)">
        <use xlink:href="#DejaVuSans-30"/>
        <use xlink:href="#DejaVuSans-2e" x="63.623047"/>
        <use xlink:href="#DejaVuSans-34" x="95.410156"/>
       </g>
      </g>
     </g>
    </g>
    <g id="matplotlib.axis_2">
     <g id="ytick_1">
      <g id="line2d_6">
       <defs>
        <path id="m09106b19ee" d="M 0 0 
L -3.5 0 
" style="stroke: #000000; stroke-width: 0.8"/>
       </defs>
       <g>
        <use xlink:href="#m09106b19ee" x="38.628365" y="115.88257" style="stroke: #000000; stroke-width: 0.8"/>
       </g>
      </g>
      <g id="text_7">
       <!-- 0.010 -->
       <g transform="translate(3.00024 119.681789) scale(0.1 -0.1)">
        <defs>
         <path id="DejaVuSans-31" d="M 794 531 
L 1825 531 
L 1825 4091 
L 703 3866 
L 703 4441 
L 1819 4666 
L 2450 4666 
L 2450 531 
L 3481 531 
L 3481 0 
L 794 0 
L 794 531 
z
" transform="scale(0.015625)"/>
        </defs>
        <use xlink:href="#DejaVuSans-30"/>
        <use xlink:href="#DejaVuSans-2e" x="63.623047"/>
        <use xlink:href="#DejaVuSans-30" x="95.410156"/>
        <use xlink:href="#DejaVuSans-31" x="159.033203"/>
        <use xlink:href="#DejaVuSans-30" x="222.65625"/>
       </g>
      </g>
     </g>
     <g id="ytick_2">
      <g id="line2d_7">
       <g>
        <use xlink:href="#m09106b19ee" x="38.628365" y="91.324223" style="stroke: #000000; stroke-width: 0.8"/>
       </g>
      </g>
      <g id="text_8">
       <!-- 0.015 -->
       <g transform="translate(3.00024 95.123441) scale(0.1 -0.1)">
        <defs>
         <path id="DejaVuSans-35" d="M 691 4666 
L 3169 4666 
L 3169 4134 
L 1269 4134 
L 1269 2991 
Q 1406 3038 1543 3061 
Q 1681 3084 1819 3084 
Q 2600 3084 3056 2656 
Q 3513 2228 3513 1497 
Q 3513 744 3044 326 
Q 2575 -91 1722 -91 
Q 1428 -91 1123 -41 
Q 819 9 494 109 
L 494 744 
Q 775 591 1075 516 
Q 1375 441 1709 441 
Q 2250 441 2565 725 
Q 2881 1009 2881 1497 
Q 2881 1984 2565 2268 
Q 2250 2553 1709 2553 
Q 1456 2553 1204 2497 
Q 953 2441 691 2322 
L 691 4666 
z
" transform="scale(0.015625)"/>
        </defs>
        <use xlink:href="#DejaVuSans-30"/>
        <use xlink:href="#DejaVuSans-2e" x="63.623047"/>
        <use xlink:href="#DejaVuSans-30" x="95.410156"/>
        <use xlink:href="#DejaVuSans-31" x="159.033203"/>
        <use xlink:href="#DejaVuSans-35" x="222.65625"/>
       </g>
      </g>
     </g>
     <g id="ytick_3">
      <g id="line2d_8">
       <g>
        <use xlink:href="#m09106b19ee" x="38.628365" y="66.765875" style="stroke: #000000; stroke-width: 0.8"/>
       </g>
      </g>
      <g id="text_9">
       <!-- 0.020 -->
       <g transform="translate(3.00024 70.565094) scale(0.1 -0.1)">
        <use xlink:href="#DejaVuSans-30"/>
        <use xlink:href="#DejaVuSans-2e" x="63.623047"/>
        <use xlink:href="#DejaVuSans-30" x="95.410156"/>
        <use xlink:href="#DejaVuSans-32" x="159.033203"/>
        <use xlink:href="#DejaVuSans-30" x="222.65625"/>
       </g>
      </g>
     </g>
     <g id="ytick_4">
      <g id="line2d_9">
       <g>
        <use xlink:href="#m09106b19ee" x="38.628365" y="42.207528" style="stroke: #000000; stroke-width: 0.8"/>
       </g>
      </g>
      <g id="text_10">
       <!-- 0.025 -->
       <g transform="translate(3.00024 46.006747) scale(0.1 -0.1)">
        <use xlink:href="#DejaVuSans-30"/>
        <use xlink:href="#DejaVuSans-2e" x="63.623047"/>
        <use xlink:href="#DejaVuSans-30" x="95.410156"/>
        <use xlink:href="#DejaVuSans-32" x="159.033203"/>
        <use xlink:href="#DejaVuSans-35" x="222.65625"/>
       </g>
      </g>
     </g>
    </g>
    <g id="line2d_10">
     <path d="M 379.023281 126.910314 
L 381.441717 63.3764 
L 383.860153 48.525165 
L 386.27859 45.570943 
L 388.697026 48.730452 
L 391.115462 51.300867 
L 393.533899 49.807913 
L 395.952335 51.056416 
L 398.370771 54.202677 
L 400.789208 53.30508 
L 403.207644 50.736485 
L 405.62608 48.911666 
L 408.044517 50.251664 
L 410.462953 50.385629 
L 412.88139 50.698152 
L 415.299826 52.066473 
L 417.718262 50.08177 
L 420.136699 46.448229 
L 422.555135 50.011812 
L 424.973571 50.309663 
L 427.392008 50.436016 
L 429.810444 49.14941 
L 432.22888 49.229742 
L 434.647317 52.36451 
L 437.065753 53.117486 
L 439.484189 52.083017 
L 441.902626 46.398878 
L 444.321062 46.714361 
L 446.739498 50.117664 
L 449.157935 50.677307 
L 451.576371 50.330094 
L 453.994807 49.374078 
L 456.413244 50.539192 
L 458.83168 46.937387 
L 461.250116 47.071124 
L 463.668553 47.462114 
L 466.086989 50.858883 
L 468.505425 49.007515 
L 470.923862 46.349852 
L 473.342298 52.773788 
L 475.760735 52.045331 
L 478.179171 51.585127 
L 480.597607 53.033157 
L 483.016044 48.684127 
L 485.43448 43.21677 
L 487.852916 44.204201 
L 490.271353 47.040914 
L 492.689789 48.134869 
L 495.108225 48.015559 
L 497.526662 51.324674 
L 499.945098 53.424407 
L 504.781971 48.23266 
L 507.200407 52.840224 
L 509.618843 55.070062 
L 512.03728 53.555186 
L 514.455716 55.037914 
L 516.874152 47.592548 
L 519.292589 46.34675 
L 524.129461 50.258984 
L 526.547898 49.962139 
L 528.966334 48.737669 
L 531.38477 49.009305 
L 533.803207 47.789252 
L 536.221643 47.485387 
L 538.640079 46.955521 
L 541.058516 50.302335 
L 543.476952 54.415451 
L 545.895389 54.3126 
L 548.313825 52.108125 
L 550.732261 52.318656 
L 553.150698 54.900537 
L 555.569134 55.740022 
L 557.98757 53.956877 
L 560.406007 50.665507 
L 562.824443 50.941493 
L 565.242879 52.191803 
L 567.661316 46.959662 
L 570.079752 40.15929 
L 572.498188 47.698152 
L 574.916625 51.497753 
L 577.335061 51.952866 
L 579.753497 46.167424 
L 582.171934 46.608724 
L 584.59037 47.618266 
L 587.008806 46.172813 
L 589.427243 51.716217 
L 591.845679 52.417308 
L 594.264115 49.107384 
L 596.682552 49.708779 
L 599.100988 52.133332 
L 601.519424 46.069132 
L 603.937861 48.946941 
L 606.356297 52.753283 
L 608.774734 46.019936 
L 611.19317 47.379937 
L 613.611606 51.978626 
L 616.030043 47.942927 
L 618.448479 49.6095 
L 620.866915 50.458025 
L 623.285352 48.738433 
L 625.703788 48.434326 
L 628.122224 52.665804 
L 630.540661 50.469783 
L 632.959097 54.494481 
L 635.377533 55.112981 
L 637.79597 51.16156 
L 640.214406 49.570501 
L 642.632842 50.252218 
L 645.051279 52.041894 
L 647.469715 47.996921 
L 649.888151 45.508199 
L 652.306588 44.020433 
L 654.725024 45.122212 
L 657.14346 48.415386 
L 659.561897 48.166757 
L 661.980333 46.471338 
L 664.398769 44.283765 
L 666.817206 51.382884 
L 669.235642 53.401545 
L 671.654079 51.052031 
L 674.072515 53.941101 
L 676.490951 47.150807 
L 678.909388 47.863636 
L 681.327824 50.17267 
L 683.74626 47.42039 
L 686.164697 53.182123 
L 69.463428 57.75235 
L 71.881865 53.182123 
L 74.300301 47.42039 
L 76.718737 50.17267 
L 79.137174 47.863636 
L 81.55561 47.150807 
L 83.974046 53.941101 
L 86.392483 51.052031 
L 88.810919 53.401545 
L 91.229356 51.382884 
L 93.647792 44.283765 
L 96.066228 46.471338 
L 98.484665 48.166757 
L 100.903101 48.415386 
L 103.321537 45.122212 
L 105.739974 44.020433 
L 108.15841 45.508199 
L 110.576846 47.996921 
L 112.995283 52.041894 
L 115.413719 50.252218 
L 117.832155 49.570501 
L 120.250592 51.16156 
L 122.669028 55.112981 
L 125.087464 54.494481 
L 127.505901 50.469783 
L 129.924337 52.665804 
L 132.342773 48.434326 
L 134.76121 48.738433 
L 137.179646 50.458025 
L 139.598082 49.6095 
L 142.016519 47.942927 
L 144.434955 51.978626 
L 146.853391 47.379937 
L 149.271828 46.019936 
L 151.690264 52.753283 
L 154.108701 48.946941 
L 156.527137 46.069132 
L 158.945573 52.133332 
L 161.36401 49.708779 
L 163.782446 49.107384 
L 166.200882 52.417308 
L 168.619319 51.716217 
L 171.037755 46.172813 
L 173.456191 47.618266 
L 175.874628 46.608724 
L 178.293064 46.167424 
L 180.7115 51.952866 
L 183.129937 51.497753 
L 185.548373 47.698152 
L 187.966809 40.15929 
L 190.385246 46.959662 
L 192.803682 52.191803 
L 195.222118 50.941493 
L 197.640555 50.665507 
L 200.058991 53.956877 
L 202.477427 55.740022 
L 204.895864 54.900537 
L 207.3143 52.318656 
L 209.732736 52.108125 
L 212.151173 54.3126 
L 214.569609 54.415451 
L 216.988046 50.302335 
L 219.406482 46.955521 
L 221.824918 47.485387 
L 224.243355 47.789252 
L 226.661791 49.009305 
L 229.080227 48.737669 
L 231.498664 49.962139 
L 233.9171 50.258984 
L 238.753973 46.34675 
L 241.172409 47.592548 
L 243.590845 55.037914 
L 246.009282 53.555186 
L 248.427718 55.070062 
L 250.846154 52.840224 
L 253.264591 48.23266 
L 258.101463 53.424407 
L 260.5199 51.324674 
L 262.938336 48.015559 
L 265.356772 48.134869 
L 267.775209 47.040914 
L 270.193645 44.204201 
L 272.612081 43.21677 
L 275.030518 48.684127 
L 277.448954 53.033157 
L 279.86739 51.585127 
L 282.285827 52.045331 
L 284.704263 52.773788 
L 287.1227 46.349852 
L 289.541136 49.007515 
L 291.959572 50.858883 
L 294.378009 47.462114 
L 296.796445 47.071124 
L 299.214881 46.937387 
L 301.633318 50.539192 
L 304.051754 49.374078 
L 306.47019 50.330094 
L 308.888627 50.677307 
L 311.307063 50.117664 
L 313.725499 46.714361 
L 316.143936 46.398878 
L 318.562372 52.083017 
L 320.980808 53.117486 
L 323.399245 52.36451 
L 325.817681 49.229742 
L 328.236117 49.14941 
L 330.654554 50.436016 
L 333.07299 50.309663 
L 335.491426 50.011812 
L 337.909863 46.448229 
L 340.328299 50.08177 
L 342.746735 52.066473 
L 345.165172 50.698152 
L 347.583608 50.385629 
L 350.002045 50.251664 
L 352.420481 48.911666 
L 354.838917 50.736485 
L 357.257354 53.30508 
L 359.67579 54.202677 
L 362.094226 51.056416 
L 364.512663 49.807913 
L 366.931099 51.300867 
L 369.349535 48.730452 
L 371.767972 45.570943 
L 374.186408 48.525165 
L 376.604844 63.3764 
L 376.604844 63.3764 
" clip-path="url(#pfb9ac2d5c9)" style="fill: none; stroke: #1f77b4; stroke-width: 1.5; stroke-linecap: square"/>
    </g>
    <g id="line2d_11">
     <path d="M 379.023281 128.693185 
L 381.441717 70.379859 
L 383.860153 51.396605 
L 386.27859 50.992779 
L 388.697026 47.149338 
L 391.115462 52.386169 
L 395.952335 47.8089 
L 398.370771 51.53482 
L 400.789208 53.988009 
L 403.207644 53.472073 
L 405.62608 43.33014 
L 408.044517 44.365267 
L 410.462953 46.105191 
L 412.88139 46.353609 
L 415.299826 48.411883 
L 417.718262 51.09939 
L 420.136699 50.23545 
L 422.555135 49.091505 
L 424.973571 50.284313 
L 427.392008 49.368539 
L 429.810444 51.303315 
L 432.22888 50.155866 
L 434.647317 49.806455 
L 439.484189 44.102229 
L 441.902626 50.986925 
L 444.321062 54.931167 
L 446.739498 56.092048 
L 449.157935 54.432035 
L 451.576371 49.159643 
L 453.994807 50.150541 
L 456.413244 49.812886 
L 458.83168 54.777934 
L 461.250116 52.392892 
L 463.668553 46.254274 
L 466.086989 51.047642 
L 468.505425 48.946291 
L 473.342298 49.369808 
L 475.760735 47.204871 
L 478.179171 51.081494 
L 480.597607 52.868973 
L 483.016044 51.443803 
L 485.43448 49.760207 
L 487.852916 49.039581 
L 490.271353 52.633566 
L 492.689789 48.510808 
L 495.108225 46.722167 
L 497.526662 48.667275 
L 499.945098 46.71365 
L 502.363534 51.373982 
L 504.781971 52.637472 
L 507.200407 51.05321 
L 509.618843 49.865486 
L 512.03728 47.701728 
L 514.455716 49.755579 
L 516.874152 51.286237 
L 519.292589 55.499586 
L 521.711025 52.294385 
L 524.129461 52.650898 
L 526.547898 57.238326 
L 528.966334 52.595845 
L 531.38477 49.556965 
L 533.803207 51.661041 
L 536.221643 52.146606 
L 538.640079 53.738757 
L 541.058516 51.843034 
L 543.476952 46.912955 
L 545.895389 46.3657 
L 548.313825 49.528179 
L 550.732261 53.922645 
L 553.150698 55.443935 
L 555.569134 52.902042 
L 557.98757 50.655204 
L 560.406007 49.743868 
L 562.824443 47.218384 
L 565.242879 49.74 
L 567.661316 46.80248 
L 570.079752 49.375722 
L 572.498188 50.829493 
L 574.916625 48.458638 
L 577.335061 47.958777 
L 579.753497 52.495269 
L 584.59037 46.907983 
L 587.008806 46.263336 
L 589.427243 49.38419 
L 591.845679 49.462084 
L 594.264115 50.751767 
L 596.682552 49.212085 
L 599.100988 48.595012 
L 601.519424 49.303556 
L 603.937861 48.462027 
L 606.356297 45.913215 
L 608.774734 46.431726 
L 611.19317 51.4672 
L 613.611606 53.370393 
L 616.030043 48.969247 
L 618.448479 45.534187 
L 620.866915 47.900302 
L 623.285352 43.763019 
L 625.703788 45.900885 
L 628.122224 50.063809 
L 630.540661 49.676207 
L 632.959097 46.559119 
L 635.377533 45.488062 
L 637.79597 42.980257 
L 640.214406 49.661224 
L 642.632842 56.824248 
L 645.051279 49.695897 
L 647.469715 51.057505 
L 649.888151 53.758497 
L 652.306588 48.966721 
L 654.725024 46.560517 
L 657.14346 46.797306 
L 659.561897 41.363813 
L 661.980333 48.922601 
L 664.398769 50.02274 
L 666.817206 46.883868 
L 669.235642 48.611199 
L 674.072515 47.443936 
L 676.490951 50.169413 
L 678.909388 51.038876 
L 681.327824 50.732123 
L 683.74626 46.012161 
L 686.164697 43.490405 
L 69.463428 45.944309 
L 71.881865 43.490405 
L 74.300301 46.012161 
L 76.718737 50.732123 
L 79.137174 51.038876 
L 81.55561 50.169413 
L 83.974046 47.443936 
L 88.810919 48.611199 
L 91.229356 46.883868 
L 93.647792 50.02274 
L 96.066228 48.922601 
L 98.484665 41.363813 
L 100.903101 46.797306 
L 103.321537 46.560517 
L 105.739974 48.966721 
L 108.15841 53.758497 
L 110.576846 51.057505 
L 112.995283 49.695897 
L 115.413719 56.824248 
L 117.832155 49.661224 
L 120.250592 42.980257 
L 122.669028 45.488062 
L 125.087464 46.559119 
L 127.505901 49.676207 
L 129.924337 50.063809 
L 132.342773 45.900885 
L 134.76121 43.763019 
L 137.179646 47.900302 
L 139.598082 45.534187 
L 142.016519 48.969247 
L 144.434955 53.370393 
L 146.853391 51.4672 
L 149.271828 46.431726 
L 151.690264 45.913215 
L 154.108701 48.462027 
L 156.527137 49.303556 
L 158.945573 48.595012 
L 161.36401 49.212085 
L 163.782446 50.751767 
L 166.200882 49.462084 
L 168.619319 49.38419 
L 171.037755 46.263336 
L 173.456191 46.907983 
L 178.293064 52.495269 
L 180.7115 47.958777 
L 183.129937 48.458638 
L 185.548373 50.829493 
L 187.966809 49.375722 
L 190.385246 46.80248 
L 192.803682 49.74 
L 195.222118 47.218384 
L 197.640555 49.743868 
L 200.058991 50.655204 
L 202.477427 52.902042 
L 204.895864 55.443935 
L 207.3143 53.922645 
L 209.732736 49.528179 
L 212.151173 46.3657 
L 214.569609 46.912955 
L 216.988046 51.843034 
L 219.406482 53.738757 
L 221.824918 52.146606 
L 224.243355 51.661041 
L 226.661791 49.556965 
L 229.080227 52.595845 
L 231.498664 57.238326 
L 233.9171 52.650898 
L 236.335536 52.294385 
L 238.753973 55.499586 
L 241.172409 51.286237 
L 243.590845 49.755579 
L 246.009282 47.701728 
L 248.427718 49.865486 
L 250.846154 51.05321 
L 253.264591 52.637472 
L 255.683027 51.373982 
L 258.101463 46.71365 
L 260.5199 48.667275 
L 262.938336 46.722167 
L 265.356772 48.510808 
L 267.775209 52.633566 
L 270.193645 49.039581 
L 272.612081 49.760207 
L 275.030518 51.443803 
L 277.448954 52.868973 
L 279.86739 51.081494 
L 282.285827 47.204871 
L 284.704263 49.369808 
L 289.541136 48.946291 
L 291.959572 51.047642 
L 294.378009 46.254274 
L 296.796445 52.392892 
L 299.214881 54.777934 
L 301.633318 49.812886 
L 304.051754 50.150541 
L 306.47019 49.159643 
L 308.888627 54.432035 
L 311.307063 56.092048 
L 313.725499 54.931167 
L 316.143936 50.986925 
L 318.562372 44.102229 
L 323.399245 49.806455 
L 325.817681 50.155866 
L 328.236117 51.303315 
L 330.654554 49.368539 
L 333.07299 50.284313 
L 335.491426 49.091505 
L 337.909863 50.23545 
L 340.328299 51.09939 
L 342.746735 48.411883 
L 345.165172 46.353609 
L 347.583608 46.105191 
L 350.002045 44.365267 
L 352.420481 43.33014 
L 354.838917 53.472073 
L 357.257354 53.988009 
L 359.67579 51.53482 
L 362.094226 47.8089 
L 366.931099 52.386169 
L 369.349535 47.149338 
L 371.767972 50.992779 
L 374.186408 51.396605 
L 376.604844 70.379859 
L 376.604844 70.379859 
" clip-path="url(#pfb9ac2d5c9)" style="fill: none; stroke: #ff7f0e; stroke-width: 1.5; stroke-linecap: square"/>
    </g>
    <g id="line2d_12">
     <path d="M 379.023281 127.152036 
L 381.441717 69.204658 
L 383.860153 46.333436 
L 386.27859 45.198801 
L 388.697026 46.185902 
L 391.115462 45.105762 
L 393.533899 46.172394 
L 395.952335 46.917991 
L 398.370771 52.345113 
L 400.789208 47.825695 
L 403.207644 46.316223 
L 405.62608 48.897417 
L 408.044517 49.998831 
L 410.462953 51.299086 
L 412.88139 54.144937 
L 415.299826 54.847059 
L 417.718262 55.258245 
L 420.136699 51.300935 
L 422.555135 53.173112 
L 424.973571 49.499603 
L 427.392008 49.782565 
L 429.810444 50.687484 
L 432.22888 50.893573 
L 434.647317 46.804558 
L 437.065753 48.350166 
L 439.484189 51.809569 
L 441.902626 47.59313 
L 444.321062 48.159932 
L 446.739498 49.086803 
L 449.157935 48.122057 
L 451.576371 49.701934 
L 453.994807 46.382241 
L 456.413244 47.605119 
L 458.83168 51.088704 
L 461.250116 53.547373 
L 463.668553 50.212353 
L 466.086989 48.245026 
L 468.505425 46.846308 
L 470.923862 49.193876 
L 473.342298 43.325811 
L 475.760735 48.466386 
L 478.179171 48.356118 
L 480.597607 52.106917 
L 483.016044 48.506972 
L 485.43448 45.198518 
L 487.852916 51.00779 
L 490.271353 49.86926 
L 492.689789 48.857791 
L 497.526662 49.430315 
L 499.945098 51.08978 
L 502.363534 50.910634 
L 504.781971 45.967963 
L 507.200407 46.10546 
L 509.618843 50.268093 
L 512.03728 50.779703 
L 514.455716 44.481104 
L 516.874152 49.285733 
L 519.292589 51.223978 
L 521.711025 49.165794 
L 524.129461 45.928999 
L 526.547898 47.039866 
L 528.966334 51.689405 
L 531.38477 55.852885 
L 533.803207 51.700967 
L 536.221643 54.909231 
L 538.640079 48.326074 
L 541.058516 53.898808 
L 543.476952 55.249839 
L 545.895389 53.00388 
L 548.313825 49.692777 
L 550.732261 54.691753 
L 553.150698 51.953043 
L 555.569134 52.058876 
L 557.98757 51.880999 
L 560.406007 48.449632 
L 562.824443 53.554113 
L 565.242879 51.411974 
L 567.661316 53.072468 
L 570.079752 50.212755 
L 572.498188 49.75272 
L 574.916625 46.39178 
L 577.335061 55.78752 
L 579.753497 55.918854 
L 582.171934 54.657779 
L 584.59037 50.028898 
L 587.008806 50.30076 
L 589.427243 52.734216 
L 591.845679 55.907968 
L 594.264115 51.974054 
L 596.682552 50.253032 
L 599.100988 49.390814 
L 601.519424 43.927074 
L 603.937861 51.049488 
L 606.356297 47.243023 
L 608.774734 44.299408 
L 613.611606 50.474672 
L 616.030043 48.90723 
L 618.448479 51.586026 
L 620.866915 43.446417 
L 623.285352 41.406982 
L 625.703788 46.411965 
L 628.122224 50.71687 
L 630.540661 49.394308 
L 632.959097 50.78089 
L 635.377533 51.639775 
L 637.79597 47.939486 
L 640.214406 47.439666 
L 642.632842 51.400393 
L 645.051279 52.983831 
L 647.469715 50.379541 
L 649.888151 48.632933 
L 652.306588 51.593775 
L 654.725024 49.079538 
L 657.14346 46.380533 
L 659.561897 47.501518 
L 661.980333 51.792057 
L 664.398769 49.945836 
L 666.817206 49.85707 
L 669.235642 48.383619 
L 671.654079 45.918727 
L 674.072515 51.236098 
L 676.490951 51.029561 
L 678.909388 49.621944 
L 681.327824 52.565681 
L 683.74626 53.071176 
L 686.164697 43.279653 
L 69.463428 44.654791 
L 71.881865 43.279653 
L 74.300301 53.071176 
L 76.718737 52.565681 
L 79.137174 49.621944 
L 81.55561 51.029561 
L 83.974046 51.236098 
L 86.392483 45.918727 
L 88.810919 48.383619 
L 91.229356 49.85707 
L 93.647792 49.945836 
L 96.066228 51.792057 
L 98.484665 47.501518 
L 100.903101 46.380533 
L 103.321537 49.079538 
L 105.739974 51.593775 
L 108.15841 48.632933 
L 110.576846 50.379541 
L 112.995283 52.983831 
L 115.413719 51.400393 
L 117.832155 47.439666 
L 120.250592 47.939486 
L 122.669028 51.639775 
L 125.087464 50.78089 
L 127.505901 49.394308 
L 129.924337 50.71687 
L 132.342773 46.411965 
L 134.76121 41.406982 
L 137.179646 43.446417 
L 139.598082 51.586026 
L 142.016519 48.90723 
L 144.434955 50.474672 
L 149.271828 44.299408 
L 151.690264 47.243023 
L 154.108701 51.049488 
L 156.527137 43.927074 
L 158.945573 49.390814 
L 161.36401 50.253032 
L 163.782446 51.974054 
L 166.200882 55.907968 
L 168.619319 52.734216 
L 171.037755 50.30076 
L 173.456191 50.028898 
L 175.874628 54.657779 
L 178.293064 55.918854 
L 180.7115 55.78752 
L 183.129937 46.39178 
L 185.548373 49.75272 
L 187.966809 50.212755 
L 190.385246 53.072468 
L 192.803682 51.411974 
L 195.222118 53.554113 
L 197.640555 48.449632 
L 200.058991 51.880999 
L 202.477427 52.058876 
L 204.895864 51.953043 
L 207.3143 54.691753 
L 209.732736 49.692777 
L 212.151173 53.00388 
L 214.569609 55.249839 
L 216.988046 53.898808 
L 219.406482 48.326074 
L 221.824918 54.909231 
L 224.243355 51.700967 
L 226.661791 55.852885 
L 229.080227 51.689405 
L 231.498664 47.039866 
L 233.9171 45.928999 
L 236.335536 49.165794 
L 238.753973 51.223978 
L 241.172409 49.285733 
L 243.590845 44.481104 
L 246.009282 50.779703 
L 248.427718 50.268093 
L 250.846154 46.10546 
L 253.264591 45.967963 
L 255.683027 50.910634 
L 258.101463 51.08978 
L 260.5199 49.430315 
L 265.356772 48.857791 
L 267.775209 49.86926 
L 270.193645 51.00779 
L 272.612081 45.198518 
L 275.030518 48.506972 
L 277.448954 52.106917 
L 279.86739 48.356118 
L 282.285827 48.466386 
L 284.704263 43.325811 
L 287.1227 49.193876 
L 289.541136 46.846308 
L 291.959572 48.245026 
L 294.378009 50.212353 
L 296.796445 53.547373 
L 299.214881 51.088704 
L 301.633318 47.605119 
L 304.051754 46.382241 
L 306.47019 49.701934 
L 308.888627 48.122057 
L 311.307063 49.086803 
L 313.725499 48.159932 
L 316.143936 47.59313 
L 318.562372 51.809569 
L 320.980808 48.350166 
L 323.399245 46.804558 
L 325.817681 50.893573 
L 328.236117 50.687484 
L 330.654554 49.782565 
L 333.07299 49.499603 
L 335.491426 53.173112 
L 337.909863 51.300935 
L 340.328299 55.258245 
L 342.746735 54.847059 
L 345.165172 54.144937 
L 347.583608 51.299086 
L 350.002045 49.998831 
L 352.420481 48.897417 
L 354.838917 46.316223 
L 357.257354 47.825695 
L 359.67579 52.345113 
L 362.094226 46.917991 
L 364.512663 46.172394 
L 366.931099 45.105762 
L 369.349535 46.185902 
L 371.767972 45.198801 
L 374.186408 46.333436 
L 376.604844 69.204658 
L 376.604844 69.204658 
" clip-path="url(#pfb9ac2d5c9)" style="fill: none; stroke: #2ca02c; stroke-width: 1.5; stroke-linecap: square"/>
    </g>
    <g id="patch_4">
     <path d="M 38.628365 133.119879 
L 38.628365 35.732595 
" style="fill: none; stroke: #000000; stroke-width: 0.8; stroke-linejoin: miter; stroke-linecap: square"/>
    </g>
    <g id="patch_5">
     <path d="M 716.99976 133.119879 
L 716.99976 35.732595 
" style="fill: none; stroke: #000000; stroke-width: 0.8; stroke-linejoin: miter; stroke-linecap: square"/>
    </g>
    <g id="patch_6">
     <path d="M 38.628365 133.119879 
L 716.99976 133.119879 
" style="fill: none; stroke: #000000; stroke-width: 0.8; stroke-linejoin: miter; stroke-linecap: square"/>
    </g>
    <g id="patch_7">
     <path d="M 38.628365 35.732595 
L 716.99976 35.732595 
" style="fill: none; stroke: #000000; stroke-width: 0.8; stroke-linejoin: miter; stroke-linecap: square"/>
    </g>
    <g id="text_11">
     <!-- White Noise -->
     <g transform="translate(341.816875 29.732595) scale(0.12 -0.12)">
      <defs>
       <path id="DejaVuSans-57" d="M 213 4666 
L 850 4666 
L 1831 722 
L 2809 4666 
L 3519 4666 
L 4500 722 
L 5478 4666 
L 6119 4666 
L 4947 0 
L 4153 0 
L 3169 4050 
L 2175 0 
L 1381 0 
L 213 4666 
z
" transform="scale(0.015625)"/>
       <path id="DejaVuSans-68" d="M 3513 2113 
L 3513 0 
L 2938 0 
L 2938 2094 
Q 2938 2591 2744 2837 
Q 2550 3084 2163 3084 
Q 1697 3084 1428 2787 
Q 1159 2491 1159 1978 
L 1159 0 
L 581 0 
L 581 4863 
L 1159 4863 
L 1159 2956 
Q 1366 3272 1645 3428 
Q 1925 3584 2291 3584 
Q 2894 3584 3203 3211 
Q 3513 2838 3513 2113 
z
" transform="scale(0.015625)"/>
       <path id="DejaVuSans-4e" d="M 628 4666 
L 1478 4666 
L 3547 763 
L 3547 4666 
L 4159 4666 
L 4159 0 
L 3309 0 
L 1241 3903 
L 1241 0 
L 628 0 
L 628 4666 
z
" transform="scale(0.015625)"/>
      </defs>
      <use xlink:href="#DejaVuSans-57"/>
      <use xlink:href="#DejaVuSans-68" x="98.876953"/>
      <use xlink:href="#DejaVuSans-69" x="162.255859"/>
      <use xlink:href="#DejaVuSans-74" x="190.039062"/>
      <use xlink:href="#DejaVuSans-65" x="229.248047"/>
      <use xlink:href="#DejaVuSans-20" x="290.771484"/>
      <use xlink:href="#DejaVuSans-4e" x="322.558594"/>
      <use xlink:href="#DejaVuSans-6f" x="397.363281"/>
      <use xlink:href="#DejaVuSans-69" x="458.544922"/>
      <use xlink:href="#DejaVuSans-73" x="486.328125"/>
      <use xlink:href="#DejaVuSans-65" x="538.427734"/>
     </g>
    </g>
    <g id="legend_1">
     <g id="patch_8">
      <path d="M 267.166406 180.144825 
L 488.461719 180.144825 
Q 490.461719 180.144825 490.461719 178.144825 
L 490.461719 164.4667 
Q 490.461719 162.4667 488.461719 162.4667 
L 267.166406 162.4667 
Q 265.166406 162.4667 265.166406 164.4667 
L 265.166406 178.144825 
Q 265.166406 180.144825 267.166406 180.144825 
z
" style="fill: #ffffff; opacity: 0.8; stroke: #cccccc; stroke-linejoin: miter"/>
     </g>
     <g id="line2d_13">
      <path d="M 269.166406 170.565138 
L 279.166406 170.565138 
L 289.166406 170.565138 
" style="fill: none; stroke: #1f77b4; stroke-width: 1.5; stroke-linecap: square"/>
     </g>
     <g id="text_12">
      <!-- Real 1 -->
      <g transform="translate(297.166406 174.065138) scale(0.1 -0.1)">
       <defs>
        <path id="DejaVuSans-52" d="M 2841 2188 
Q 3044 2119 3236 1894 
Q 3428 1669 3622 1275 
L 4263 0 
L 3584 0 
L 2988 1197 
Q 2756 1666 2539 1819 
Q 2322 1972 1947 1972 
L 1259 1972 
L 1259 0 
L 628 0 
L 628 4666 
L 2053 4666 
Q 2853 4666 3247 4331 
Q 3641 3997 3641 3322 
Q 3641 2881 3436 2590 
Q 3231 2300 2841 2188 
z
M 1259 4147 
L 1259 2491 
L 2053 2491 
Q 2509 2491 2742 2702 
Q 2975 2913 2975 3322 
Q 2975 3731 2742 3939 
Q 2509 4147 2053 4147 
L 1259 4147 
z
" transform="scale(0.015625)"/>
       </defs>
       <use xlink:href="#DejaVuSans-52"/>
       <use xlink:href="#DejaVuSans-65" x="64.982422"/>
       <use xlink:href="#DejaVuSans-61" x="126.505859"/>
       <use xlink:href="#DejaVuSans-6c" x="187.785156"/>
       <use xlink:href="#DejaVuSans-20" x="215.568359"/>
       <use xlink:href="#DejaVuSans-31" x="247.355469"/>
      </g>
     </g>
     <g id="line2d_14">
      <path d="M 348.264844 170.565138 
L 358.264844 170.565138 
L 368.264844 170.565138 
" style="fill: none; stroke: #ff7f0e; stroke-width: 1.5; stroke-linecap: square"/>
     </g>
     <g id="text_13">
      <!-- Real 2 -->
      <g transform="translate(376.264844 174.065138) scale(0.1 -0.1)">
       <use xlink:href="#DejaVuSans-52"/>
       <use xlink:href="#DejaVuSans-65" x="64.982422"/>
       <use xlink:href="#DejaVuSans-61" x="126.505859"/>
       <use xlink:href="#DejaVuSans-6c" x="187.785156"/>
       <use xlink:href="#DejaVuSans-20" x="215.568359"/>
       <use xlink:href="#DejaVuSans-32" x="247.355469"/>
      </g>
     </g>
     <g id="line2d_15">
      <path d="M 427.363281 170.565138 
L 437.363281 170.565138 
L 447.363281 170.565138 
" style="fill: none; stroke: #2ca02c; stroke-width: 1.5; stroke-linecap: square"/>
     </g>
     <g id="text_14">
      <!-- Real 3 -->
      <g transform="translate(455.363281 174.065138) scale(0.1 -0.1)">
       <defs>
        <path id="DejaVuSans-33" d="M 2597 2516 
Q 3050 2419 3304 2112 
Q 3559 1806 3559 1356 
Q 3559 666 3084 287 
Q 2609 -91 1734 -91 
Q 1441 -91 1130 -33 
Q 819 25 488 141 
L 488 750 
Q 750 597 1062 519 
Q 1375 441 1716 441 
Q 2309 441 2620 675 
Q 2931 909 2931 1356 
Q 2931 1769 2642 2001 
Q 2353 2234 1838 2234 
L 1294 2234 
L 1294 2753 
L 1863 2753 
Q 2328 2753 2575 2939 
Q 2822 3125 2822 3475 
Q 2822 3834 2567 4026 
Q 2313 4219 1838 4219 
Q 1578 4219 1281 4162 
Q 984 4106 628 3988 
L 628 4550 
Q 988 4650 1302 4700 
Q 1616 4750 1894 4750 
Q 2613 4750 3031 4423 
Q 3450 4097 3450 3541 
Q 3450 3153 3228 2886 
Q 3006 2619 2597 2516 
z
" transform="scale(0.015625)"/>
       </defs>
       <use xlink:href="#DejaVuSans-52"/>
       <use xlink:href="#DejaVuSans-65" x="64.982422"/>
       <use xlink:href="#DejaVuSans-61" x="126.505859"/>
       <use xlink:href="#DejaVuSans-6c" x="187.785156"/>
       <use xlink:href="#DejaVuSans-20" x="215.568359"/>
       <use xlink:href="#DejaVuSans-33" x="247.355469"/>
      </g>
     </g>
    </g>
   </g>
  </g>
  <g id="subfigure_2">
   <g id="patch_9">
    <path d="M 0 359.807115 
L 720 359.807115 
L 720 197.710672 
L 0 197.710672 
z
" style="fill: #ffffff"/>
   </g>
   <g id="axes_2">
    <g id="patch_10">
     <path d="M 22.72524 313.216322 
L 716.99976 313.216322 
L 716.99976 215.829038 
L 22.72524 215.829038 
z
" style="fill: #ffffff"/>
    </g>
    <g id="matplotlib.axis_3">
     <g id="xtick_6">
      <g id="line2d_16">
       <g>
        <use xlink:href="#m6d7b1322ef" x="117.646551" y="313.216322" style="stroke: #000000; stroke-width: 0.8"/>
       </g>
      </g>
      <g id="text_15">
       <!-- −0.4 -->
       <g transform="translate(105.505145 327.814759) scale(0.1 -0.1)">
        <use xlink:href="#DejaVuSans-2212"/>
        <use xlink:href="#DejaVuSans-30" x="83.789062"/>
        <use xlink:href="#DejaVuSans-2e" x="147.412109"/>
        <use xlink:href="#DejaVuSans-34" x="179.199219"/>
       </g>
      </g>
     </g>
     <g id="xtick_7">
      <g id="line2d_17">
       <g>
        <use xlink:href="#m6d7b1322ef" x="244.373309" y="313.216322" style="stroke: #000000; stroke-width: 0.8"/>
       </g>
      </g>
      <g id="text_16">
       <!-- −0.2 -->
       <g transform="translate(232.231902 327.814759) scale(0.1 -0.1)">
        <use xlink:href="#DejaVuSans-2212"/>
        <use xlink:href="#DejaVuSans-30" x="83.789062"/>
        <use xlink:href="#DejaVuSans-2e" x="147.412109"/>
        <use xlink:href="#DejaVuSans-32" x="179.199219"/>
       </g>
      </g>
     </g>
     <g id="xtick_8">
      <g id="line2d_18">
       <g>
        <use xlink:href="#m6d7b1322ef" x="371.100066" y="313.216322" style="stroke: #000000; stroke-width: 0.8"/>
       </g>
      </g>
      <g id="text_17">
       <!-- 0.0 -->
       <g transform="translate(363.148503 327.814759) scale(0.1 -0.1)">
        <use xlink:href="#DejaVuSans-30"/>
        <use xlink:href="#DejaVuSans-2e" x="63.623047"/>
        <use xlink:href="#DejaVuSans-30" x="95.410156"/>
       </g>
      </g>
     </g>
     <g id="xtick_9">
      <g id="line2d_19">
       <g>
        <use xlink:href="#m6d7b1322ef" x="497.826823" y="313.216322" style="stroke: #000000; stroke-width: 0.8"/>
       </g>
      </g>
      <g id="text_18">
       <!-- 0.2 -->
       <g transform="translate(489.875261 327.814759) scale(0.1 -0.1)">
        <use xlink:href="#DejaVuSans-30"/>
        <use xlink:href="#DejaVuSans-2e" x="63.623047"/>
        <use xlink:href="#DejaVuSans-32" x="95.410156"/>
       </g>
      </g>
     </g>
     <g id="xtick_10">
      <g id="line2d_20">
       <g>
        <use xlink:href="#m6d7b1322ef" x="624.553581" y="313.216322" style="stroke: #000000; stroke-width: 0.8"/>
       </g>
      </g>
      <g id="text_19">
       <!-- 0.4 -->
       <g transform="translate(616.602018 327.814759) scale(0.1 -0.1)">
        <use xlink:href="#DejaVuSans-30"/>
        <use xlink:href="#DejaVuSans-2e" x="63.623047"/>
        <use xlink:href="#DejaVuSans-34" x="95.410156"/>
       </g>
      </g>
     </g>
    </g>
    <g id="matplotlib.axis_4">
     <g id="ytick_5">
      <g id="line2d_21">
       <g>
        <use xlink:href="#m09106b19ee" x="22.72524" y="308.800913" style="stroke: #000000; stroke-width: 0.8"/>
       </g>
      </g>
      <g id="text_20">
       <!-- 0 -->
       <g transform="translate(9.36274 312.600132) scale(0.1 -0.1)">
        <use xlink:href="#DejaVuSans-30"/>
       </g>
      </g>
     </g>
     <g id="ytick_6">
      <g id="line2d_22">
       <g>
        <use xlink:href="#m09106b19ee" x="22.72524" y="267.45553" style="stroke: #000000; stroke-width: 0.8"/>
       </g>
      </g>
      <g id="text_21">
       <!-- 20 -->
       <g transform="translate(3.00024 271.254748) scale(0.1 -0.1)">
        <use xlink:href="#DejaVuSans-32"/>
        <use xlink:href="#DejaVuSans-30" x="63.623047"/>
       </g>
      </g>
     </g>
     <g id="ytick_7">
      <g id="line2d_23">
       <g>
        <use xlink:href="#m09106b19ee" x="22.72524" y="226.110147" style="stroke: #000000; stroke-width: 0.8"/>
       </g>
      </g>
      <g id="text_22">
       <!-- 40 -->
       <g transform="translate(3.00024 229.909365) scale(0.1 -0.1)">
        <use xlink:href="#DejaVuSans-34"/>
        <use xlink:href="#DejaVuSans-30" x="63.623047"/>
       </g>
      </g>
     </g>
    </g>
    <g id="line2d_24">
     <path d="M 371.100066 279.073329 
L 373.575198 220.255732 
L 376.05033 278.126601 
L 378.525462 298.311523 
L 381.000594 303.300136 
L 383.475726 305.482718 
L 385.950858 306.495794 
L 388.42599 307.13362 
L 390.901122 307.565783 
L 395.851386 307.992404 
L 403.276782 308.320402 
L 415.652442 308.547893 
L 437.928629 308.683019 
L 477.530741 308.752642 
L 685.441827 308.789146 
L 54.283173 308.789627 
L 311.696899 308.660985 
L 333.973086 308.444578 
L 343.873614 308.121406 
L 348.823878 307.821595 
L 351.29901 307.565783 
L 353.774142 307.13362 
L 356.249274 306.495794 
L 358.724406 305.482718 
L 361.199538 303.300136 
L 363.67467 298.311523 
L 366.149802 278.126601 
L 368.624934 220.255732 
L 368.624934 220.255732 
" clip-path="url(#p8d8002da33)" style="fill: none; stroke: #1f77b4; stroke-width: 1.5; stroke-linecap: square"/>
    </g>
    <g id="line2d_25">
     <path d="M 371.100066 282.055662 
L 373.575198 223.425258 
L 376.05033 279.103175 
L 378.525462 298.783829 
L 381.000594 303.287187 
L 383.475726 305.484801 
L 385.950858 306.518586 
L 388.42599 307.087173 
L 390.901122 307.537425 
L 395.851386 308.01288 
L 415.652442 308.546093 
L 437.928629 308.691347 
L 489.906401 308.760572 
L 653.265112 308.788081 
L 685.441827 308.788125 
L 54.283173 308.788383 
L 306.746635 308.678686 
L 336.448218 308.37156 
L 346.348746 308.01288 
L 351.29901 307.537425 
L 353.774142 307.087173 
L 356.249274 306.518586 
L 358.724406 305.484801 
L 361.199538 303.287187 
L 363.67467 298.783829 
L 366.149802 279.103175 
L 368.624934 223.425258 
L 368.624934 223.425258 
" clip-path="url(#p8d8002da33)" style="fill: none; stroke: #ff7f0e; stroke-width: 1.5; stroke-linecap: square"/>
    </g>
    <g id="line2d_26">
     <path d="M 371.100066 282.620934 
L 373.575198 221.27733 
L 376.05033 278.110194 
L 378.525462 298.221301 
L 381.000594 303.230956 
L 383.475726 305.305875 
L 385.950858 306.411709 
L 388.42599 307.074632 
L 390.901122 307.54307 
L 395.851386 307.957978 
L 400.80165 308.23481 
L 410.702178 308.496713 
L 440.403761 308.693386 
L 517.132853 308.773123 
L 685.441827 308.788101 
L 54.283173 308.788247 
L 309.221767 308.670105 
L 336.448218 308.399021 
L 343.873614 308.120293 
L 351.29901 307.54307 
L 353.774142 307.074632 
L 356.249274 306.411709 
L 358.724406 305.305875 
L 361.199538 303.230956 
L 363.67467 298.221301 
L 366.149802 278.110194 
L 368.624934 221.27733 
L 368.624934 221.27733 
" clip-path="url(#p8d8002da33)" style="fill: none; stroke: #2ca02c; stroke-width: 1.5; stroke-linecap: square"/>
    </g>
    <g id="patch_11">
     <path d="M 22.72524 313.216322 
L 22.72524 215.829038 
" style="fill: none; stroke: #000000; stroke-width: 0.8; stroke-linejoin: miter; stroke-linecap: square"/>
    </g>
    <g id="patch_12">
     <path d="M 716.99976 313.216322 
L 716.99976 215.829038 
" style="fill: none; stroke: #000000; stroke-width: 0.8; stroke-linejoin: miter; stroke-linecap: square"/>
    </g>
    <g id="patch_13">
     <path d="M 22.72524 313.216322 
L 716.99976 313.216322 
" style="fill: none; stroke: #000000; stroke-width: 0.8; stroke-linejoin: miter; stroke-linecap: square"/>
    </g>
    <g id="patch_14">
     <path d="M 22.72524 215.829038 
L 716.99976 215.829038 
" style="fill: none; stroke: #000000; stroke-width: 0.8; stroke-linejoin: miter; stroke-linecap: square"/>
    </g>
    <g id="text_23">
     <!-- Random Walk -->
     <g transform="translate(328.749375 209.829038) scale(0.12 -0.12)">
      <defs>
       <path id="DejaVuSans-64" d="M 2906 2969 
L 2906 4863 
L 3481 4863 
L 3481 0 
L 2906 0 
L 2906 525 
Q 2725 213 2448 61 
Q 2172 -91 1784 -91 
Q 1150 -91 751 415 
Q 353 922 353 1747 
Q 353 2572 751 3078 
Q 1150 3584 1784 3584 
Q 2172 3584 2448 3432 
Q 2725 3281 2906 2969 
z
M 947 1747 
Q 947 1113 1208 752 
Q 1469 391 1925 391 
Q 2381 391 2643 752 
Q 2906 1113 2906 1747 
Q 2906 2381 2643 2742 
Q 2381 3103 1925 3103 
Q 1469 3103 1208 2742 
Q 947 2381 947 1747 
z
" transform="scale(0.015625)"/>
       <path id="DejaVuSans-6d" d="M 3328 2828 
Q 3544 3216 3844 3400 
Q 4144 3584 4550 3584 
Q 5097 3584 5394 3201 
Q 5691 2819 5691 2113 
L 5691 0 
L 5113 0 
L 5113 2094 
Q 5113 2597 4934 2840 
Q 4756 3084 4391 3084 
Q 3944 3084 3684 2787 
Q 3425 2491 3425 1978 
L 3425 0 
L 2847 0 
L 2847 2094 
Q 2847 2600 2669 2842 
Q 2491 3084 2119 3084 
Q 1678 3084 1418 2786 
Q 1159 2488 1159 1978 
L 1159 0 
L 581 0 
L 581 3500 
L 1159 3500 
L 1159 2956 
Q 1356 3278 1631 3431 
Q 1906 3584 2284 3584 
Q 2666 3584 2933 3390 
Q 3200 3197 3328 2828 
z
" transform="scale(0.015625)"/>
       <path id="DejaVuSans-6b" d="M 581 4863 
L 1159 4863 
L 1159 1991 
L 2875 3500 
L 3609 3500 
L 1753 1863 
L 3688 0 
L 2938 0 
L 1159 1709 
L 1159 0 
L 581 0 
L 581 4863 
z
" transform="scale(0.015625)"/>
      </defs>
      <use xlink:href="#DejaVuSans-52"/>
      <use xlink:href="#DejaVuSans-61" x="67.232422"/>
      <use xlink:href="#DejaVuSans-6e" x="128.511719"/>
      <use xlink:href="#DejaVuSans-64" x="191.890625"/>
      <use xlink:href="#DejaVuSans-6f" x="255.367188"/>
      <use xlink:href="#DejaVuSans-6d" x="316.548828"/>
      <use xlink:href="#DejaVuSans-20" x="413.960938"/>
      <use xlink:href="#DejaVuSans-57" x="445.748047"/>
      <use xlink:href="#DejaVuSans-61" x="538.25"/>
      <use xlink:href="#DejaVuSans-6c" x="599.529297"/>
      <use xlink:href="#DejaVuSans-6b" x="627.3125"/>
     </g>
    </g>
    <g id="legend_2">
     <g id="patch_15">
      <path d="M 259.214844 360.241268 
L 480.510156 360.241268 
Q 482.510156 360.241268 482.510156 358.241268 
L 482.510156 344.563143 
Q 482.510156 342.563143 480.510156 342.563143 
L 259.214844 342.563143 
Q 257.214844 342.563143 257.214844 344.563143 
L 257.214844 358.241268 
Q 257.214844 360.241268 259.214844 360.241268 
z
" style="fill: #ffffff; opacity: 0.8; stroke: #cccccc; stroke-linejoin: miter"/>
     </g>
     <g id="line2d_27">
      <path d="M 261.214844 350.66158 
L 271.214844 350.66158 
L 281.214844 350.66158 
" style="fill: none; stroke: #1f77b4; stroke-width: 1.5; stroke-linecap: square"/>
     </g>
     <g id="text_24">
      <!-- Real 1 -->
      <g transform="translate(289.214844 354.16158) scale(0.1 -0.1)">
       <use xlink:href="#DejaVuSans-52"/>
       <use xlink:href="#DejaVuSans-65" x="64.982422"/>
       <use xlink:href="#DejaVuSans-61" x="126.505859"/>
       <use xlink:href="#DejaVuSans-6c" x="187.785156"/>
       <use xlink:href="#DejaVuSans-20" x="215.568359"/>
       <use xlink:href="#DejaVuSans-31" x="247.355469"/>
      </g>
     </g>
     <g id="line2d_28">
      <path d="M 340.313281 350.66158 
L 350.313281 350.66158 
L 360.313281 350.66158 
" style="fill: none; stroke: #ff7f0e; stroke-width: 1.5; stroke-linecap: square"/>
     </g>
     <g id="text_25">
      <!-- Real 2 -->
      <g transform="translate(368.313281 354.16158) scale(0.1 -0.1)">
       <use xlink:href="#DejaVuSans-52"/>
       <use xlink:href="#DejaVuSans-65" x="64.982422"/>
       <use xlink:href="#DejaVuSans-61" x="126.505859"/>
       <use xlink:href="#DejaVuSans-6c" x="187.785156"/>
       <use xlink:href="#DejaVuSans-20" x="215.568359"/>
       <use xlink:href="#DejaVuSans-32" x="247.355469"/>
      </g>
     </g>
     <g id="line2d_29">
      <path d="M 419.411719 350.66158 
L 429.411719 350.66158 
L 439.411719 350.66158 
" style="fill: none; stroke: #2ca02c; stroke-width: 1.5; stroke-linecap: square"/>
     </g>
     <g id="text_26">
      <!-- Real 3 -->
      <g transform="translate(447.411719 354.16158) scale(0.1 -0.1)">
       <use xlink:href="#DejaVuSans-52"/>
       <use xlink:href="#DejaVuSans-65" x="64.982422"/>
       <use xlink:href="#DejaVuSans-61" x="126.505859"/>
       <use xlink:href="#DejaVuSans-6c" x="187.785156"/>
       <use xlink:href="#DejaVuSans-20" x="215.568359"/>
       <use xlink:href="#DejaVuSans-33" x="247.355469"/>
      </g>
     </g>
    </g>
   </g>
  </g>
  <g id="subfigure_3">
   <g id="patch_16">
    <path d="M 0 539.903558 
L 720 539.903558 
L 720 377.807115 
L 0 377.807115 
z
" style="fill: #ffffff"/>
   </g>
   <g id="axes_3">
    <g id="patch_17">
     <path d="M 22.72524 493.312764 
L 716.99976 493.312764 
L 716.99976 395.92548 
L 22.72524 395.92548 
z
" style="fill: #ffffff"/>
    </g>
    <g id="matplotlib.axis_5">
     <g id="xtick_11">
      <g id="line2d_30">
       <g>
        <use xlink:href="#m6d7b1322ef" x="117.646551" y="493.312764" style="stroke: #000000; stroke-width: 0.8"/>
       </g>
      </g>
      <g id="text_27">
       <!-- −0.4 -->
       <g transform="translate(105.505145 507.911202) scale(0.1 -0.1)">
        <use xlink:href="#DejaVuSans-2212"/>
        <use xlink:href="#DejaVuSans-30" x="83.789062"/>
        <use xlink:href="#DejaVuSans-2e" x="147.412109"/>
        <use xlink:href="#DejaVuSans-34" x="179.199219"/>
       </g>
      </g>
     </g>
     <g id="xtick_12">
      <g id="line2d_31">
       <g>
        <use xlink:href="#m6d7b1322ef" x="244.373309" y="493.312764" style="stroke: #000000; stroke-width: 0.8"/>
       </g>
      </g>
      <g id="text_28">
       <!-- −0.2 -->
       <g transform="translate(232.231902 507.911202) scale(0.1 -0.1)">
        <use xlink:href="#DejaVuSans-2212"/>
        <use xlink:href="#DejaVuSans-30" x="83.789062"/>
        <use xlink:href="#DejaVuSans-2e" x="147.412109"/>
        <use xlink:href="#DejaVuSans-32" x="179.199219"/>
       </g>
      </g>
     </g>
     <g id="xtick_13">
      <g id="line2d_32">
       <g>
        <use xlink:href="#m6d7b1322ef" x="371.100066" y="493.312764" style="stroke: #000000; stroke-width: 0.8"/>
       </g>
      </g>
      <g id="text_29">
       <!-- 0.0 -->
       <g transform="translate(363.148503 507.911202) scale(0.1 -0.1)">
        <use xlink:href="#DejaVuSans-30"/>
        <use xlink:href="#DejaVuSans-2e" x="63.623047"/>
        <use xlink:href="#DejaVuSans-30" x="95.410156"/>
       </g>
      </g>
     </g>
     <g id="xtick_14">
      <g id="line2d_33">
       <g>
        <use xlink:href="#m6d7b1322ef" x="497.826823" y="493.312764" style="stroke: #000000; stroke-width: 0.8"/>
       </g>
      </g>
      <g id="text_30">
       <!-- 0.2 -->
       <g transform="translate(489.875261 507.911202) scale(0.1 -0.1)">
        <use xlink:href="#DejaVuSans-30"/>
        <use xlink:href="#DejaVuSans-2e" x="63.623047"/>
        <use xlink:href="#DejaVuSans-32" x="95.410156"/>
       </g>
      </g>
     </g>
     <g id="xtick_15">
      <g id="line2d_34">
       <g>
        <use xlink:href="#m6d7b1322ef" x="624.553581" y="493.312764" style="stroke: #000000; stroke-width: 0.8"/>
       </g>
      </g>
      <g id="text_31">
       <!-- 0.4 -->
       <g transform="translate(616.602018 507.911202) scale(0.1 -0.1)">
        <use xlink:href="#DejaVuSans-30"/>
        <use xlink:href="#DejaVuSans-2e" x="63.623047"/>
        <use xlink:href="#DejaVuSans-34" x="95.410156"/>
       </g>
      </g>
     </g>
    </g>
    <g id="matplotlib.axis_6">
     <g id="ytick_8">
      <g id="line2d_35">
       <g>
        <use xlink:href="#m09106b19ee" x="22.72524" y="488.8976" style="stroke: #000000; stroke-width: 0.8"/>
       </g>
      </g>
      <g id="text_32">
       <!-- 0 -->
       <g transform="translate(9.36274 492.696819) scale(0.1 -0.1)">
        <use xlink:href="#DejaVuSans-30"/>
       </g>
      </g>
     </g>
     <g id="ytick_9">
      <g id="line2d_36">
       <g>
        <use xlink:href="#m09106b19ee" x="22.72524" y="446.673017" style="stroke: #000000; stroke-width: 0.8"/>
       </g>
      </g>
      <g id="text_33">
       <!-- 20 -->
       <g transform="translate(3.00024 450.472236) scale(0.1 -0.1)">
        <use xlink:href="#DejaVuSans-32"/>
        <use xlink:href="#DejaVuSans-30" x="63.623047"/>
       </g>
      </g>
     </g>
     <g id="ytick_10">
      <g id="line2d_37">
       <g>
        <use xlink:href="#m09106b19ee" x="22.72524" y="404.448434" style="stroke: #000000; stroke-width: 0.8"/>
       </g>
      </g>
      <g id="text_34">
       <!-- 40 -->
       <g transform="translate(3.00024 408.247653) scale(0.1 -0.1)">
        <use xlink:href="#DejaVuSans-34"/>
        <use xlink:href="#DejaVuSans-30" x="63.623047"/>
       </g>
      </g>
     </g>
    </g>
    <g id="line2d_38">
     <path d="M 371.100066 458.559109 
L 373.575198 400.352175 
L 376.05033 457.668215 
L 378.525462 478.180806 
L 381.000594 483.278113 
L 383.475726 485.508339 
L 385.950858 486.542905 
L 388.42599 487.192432 
L 390.901122 487.636238 
L 395.851386 488.071655 
L 403.276782 488.406617 
L 415.652442 488.63913 
L 437.928629 488.777138 
L 475.055609 488.848033 
L 685.441827 488.885575 
L 54.283173 488.88607 
L 316.647162 488.722212 
L 333.973086 488.533532 
L 343.873614 488.203358 
L 348.823878 487.897888 
L 351.29901 487.636238 
L 353.774142 487.192432 
L 356.249274 486.542905 
L 358.724406 485.508339 
L 361.199538 483.278113 
L 363.67467 478.180806 
L 366.149802 457.668215 
L 368.624934 400.352175 
L 368.624934 400.352175 
" clip-path="url(#p0d71bdafc7)" style="fill: none; stroke: #1f77b4; stroke-width: 1.5; stroke-linecap: square"/>
    </g>
    <g id="line2d_39">
     <path d="M 371.100066 461.595771 
L 373.575198 403.811993 
L 376.05033 458.639984 
L 378.525462 478.682835 
L 381.000594 483.259402 
L 383.475726 485.512268 
L 385.950858 486.565516 
L 388.42599 487.145693 
L 390.901122 487.605259 
L 395.851386 488.092373 
L 415.652442 488.63715 
L 437.928629 488.785606 
L 489.906401 488.856381 
L 650.78998 488.884693 
L 685.441827 488.884534 
L 54.283173 488.884802 
L 294.370975 488.807894 
L 329.022822 488.608942 
L 338.92335 488.388679 
L 348.823878 487.8998 
L 351.29901 487.605259 
L 353.774142 487.145693 
L 356.249274 486.565516 
L 358.724406 485.512268 
L 361.199538 483.259402 
L 363.67467 478.682835 
L 366.149802 458.639984 
L 368.624934 403.811993 
L 368.624934 403.811993 
" clip-path="url(#p0d71bdafc7)" style="fill: none; stroke: #ff7f0e; stroke-width: 1.5; stroke-linecap: square"/>
    </g>
    <g id="line2d_40">
     <path d="M 371.100066 462.181934 
L 373.575198 401.051092 
L 376.05033 457.639108 
L 378.525462 478.094839 
L 381.000594 483.209205 
L 383.475726 485.325367 
L 385.950858 486.457997 
L 388.42599 487.134223 
L 390.901122 487.613003 
L 395.851386 488.036627 
L 400.80165 488.319066 
L 410.702178 488.586639 
L 440.403761 488.787767 
L 517.132853 488.869218 
L 685.441827 488.884513 
L 54.283173 488.884663 
L 309.221767 488.764013 
L 336.448218 488.487065 
L 343.873614 488.20226 
L 351.29901 487.613003 
L 353.774142 487.134223 
L 356.249274 486.457997 
L 358.724406 485.325367 
L 361.199538 483.209205 
L 363.67467 478.094839 
L 366.149802 457.639108 
L 368.624934 401.051092 
L 368.624934 401.051092 
" clip-path="url(#p0d71bdafc7)" style="fill: none; stroke: #2ca02c; stroke-width: 1.5; stroke-linecap: square"/>
    </g>
    <g id="patch_18">
     <path d="M 22.72524 493.312764 
L 22.72524 395.92548 
" style="fill: none; stroke: #000000; stroke-width: 0.8; stroke-linejoin: miter; stroke-linecap: square"/>
    </g>
    <g id="patch_19">
     <path d="M 716.99976 493.312764 
L 716.99976 395.92548 
" style="fill: none; stroke: #000000; stroke-width: 0.8; stroke-linejoin: miter; stroke-linecap: square"/>
    </g>
    <g id="patch_20">
     <path d="M 22.72524 493.312764 
L 716.99976 493.312764 
" style="fill: none; stroke: #000000; stroke-width: 0.8; stroke-linejoin: miter; stroke-linecap: square"/>
    </g>
    <g id="patch_21">
     <path d="M 22.72524 395.92548 
L 716.99976 395.92548 
" style="fill: none; stroke: #000000; stroke-width: 0.8; stroke-linejoin: miter; stroke-linecap: square"/>
    </g>
    <g id="text_35">
     <!-- Gauss Markov - tau=2000 -->
     <g transform="translate(291.668437 389.92548) scale(0.12 -0.12)">
      <defs>
       <path id="DejaVuSans-47" d="M 3809 666 
L 3809 1919 
L 2778 1919 
L 2778 2438 
L 4434 2438 
L 4434 434 
Q 4069 175 3628 42 
Q 3188 -91 2688 -91 
Q 1594 -91 976 548 
Q 359 1188 359 2328 
Q 359 3472 976 4111 
Q 1594 4750 2688 4750 
Q 3144 4750 3555 4637 
Q 3966 4525 4313 4306 
L 4313 3634 
Q 3963 3931 3569 4081 
Q 3175 4231 2741 4231 
Q 1884 4231 1454 3753 
Q 1025 3275 1025 2328 
Q 1025 1384 1454 906 
Q 1884 428 2741 428 
Q 3075 428 3337 486 
Q 3600 544 3809 666 
z
" transform="scale(0.015625)"/>
       <path id="DejaVuSans-75" d="M 544 1381 
L 544 3500 
L 1119 3500 
L 1119 1403 
Q 1119 906 1312 657 
Q 1506 409 1894 409 
Q 2359 409 2629 706 
Q 2900 1003 2900 1516 
L 2900 3500 
L 3475 3500 
L 3475 0 
L 2900 0 
L 2900 538 
Q 2691 219 2414 64 
Q 2138 -91 1772 -91 
Q 1169 -91 856 284 
Q 544 659 544 1381 
z
M 1991 3584 
L 1991 3584 
z
" transform="scale(0.015625)"/>
       <path id="DejaVuSans-4d" d="M 628 4666 
L 1569 4666 
L 2759 1491 
L 3956 4666 
L 4897 4666 
L 4897 0 
L 4281 0 
L 4281 4097 
L 3078 897 
L 2444 897 
L 1241 4097 
L 1241 0 
L 628 0 
L 628 4666 
z
" transform="scale(0.015625)"/>
       <path id="DejaVuSans-76" d="M 191 3500 
L 800 3500 
L 1894 563 
L 2988 3500 
L 3597 3500 
L 2284 0 
L 1503 0 
L 191 3500 
z
" transform="scale(0.015625)"/>
       <path id="DejaVuSans-2d" d="M 313 2009 
L 1997 2009 
L 1997 1497 
L 313 1497 
L 313 2009 
z
" transform="scale(0.015625)"/>
       <path id="DejaVuSans-3d" d="M 678 2906 
L 4684 2906 
L 4684 2381 
L 678 2381 
L 678 2906 
z
M 678 1631 
L 4684 1631 
L 4684 1100 
L 678 1100 
L 678 1631 
z
" transform="scale(0.015625)"/>
      </defs>
      <use xlink:href="#DejaVuSans-47"/>
      <use xlink:href="#DejaVuSans-61" x="77.490234"/>
      <use xlink:href="#DejaVuSans-75" x="138.769531"/>
      <use xlink:href="#DejaVuSans-73" x="202.148438"/>
      <use xlink:href="#DejaVuSans-73" x="254.248047"/>
      <use xlink:href="#DejaVuSans-20" x="306.347656"/>
      <use xlink:href="#DejaVuSans-4d" x="338.134766"/>
      <use xlink:href="#DejaVuSans-61" x="424.414062"/>
      <use xlink:href="#DejaVuSans-72" x="485.693359"/>
      <use xlink:href="#DejaVuSans-6b" x="526.806641"/>
      <use xlink:href="#DejaVuSans-6f" x="581.091797"/>
      <use xlink:href="#DejaVuSans-76" x="642.273438"/>
      <use xlink:href="#DejaVuSans-20" x="701.453125"/>
      <use xlink:href="#DejaVuSans-2d" x="733.240234"/>
      <use xlink:href="#DejaVuSans-20" x="769.324219"/>
      <use xlink:href="#DejaVuSans-74" x="801.111328"/>
      <use xlink:href="#DejaVuSans-61" x="840.320312"/>
      <use xlink:href="#DejaVuSans-75" x="901.599609"/>
      <use xlink:href="#DejaVuSans-3d" x="964.978516"/>
      <use xlink:href="#DejaVuSans-32" x="1048.767578"/>
      <use xlink:href="#DejaVuSans-30" x="1112.390625"/>
      <use xlink:href="#DejaVuSans-30" x="1176.013672"/>
      <use xlink:href="#DejaVuSans-30" x="1239.636719"/>
     </g>
    </g>
    <g id="legend_3">
     <g id="patch_22">
      <path d="M 259.214844 540.33771 
L 480.510156 540.33771 
Q 482.510156 540.33771 482.510156 538.33771 
L 482.510156 524.659585 
Q 482.510156 522.659585 480.510156 522.659585 
L 259.214844 522.659585 
Q 257.214844 522.659585 257.214844 524.659585 
L 257.214844 538.33771 
Q 257.214844 540.33771 259.214844 540.33771 
z
" style="fill: #ffffff; opacity: 0.8; stroke: #cccccc; stroke-linejoin: miter"/>
     </g>
     <g id="line2d_41">
      <path d="M 261.214844 530.758023 
L 271.214844 530.758023 
L 281.214844 530.758023 
" style="fill: none; stroke: #1f77b4; stroke-width: 1.5; stroke-linecap: square"/>
     </g>
     <g id="text_36">
      <!-- Real 1 -->
      <g transform="translate(289.214844 534.258023) scale(0.1 -0.1)">
       <use xlink:href="#DejaVuSans-52"/>
       <use xlink:href="#DejaVuSans-65" x="64.982422"/>
       <use xlink:href="#DejaVuSans-61" x="126.505859"/>
       <use xlink:href="#DejaVuSans-6c" x="187.785156"/>
       <use xlink:href="#DejaVuSans-20" x="215.568359"/>
       <use xlink:href="#DejaVuSans-31" x="247.355469"/>
      </g>
     </g>
     <g id="line2d_42">
      <path d="M 340.313281 530.758023 
L 350.313281 530.758023 
L 360.313281 530.758023 
" style="fill: none; stroke: #ff7f0e; stroke-width: 1.5; stroke-linecap: square"/>
     </g>
     <g id="text_37">
      <!-- Real 2 -->
      <g transform="translate(368.313281 534.258023) scale(0.1 -0.1)">
       <use xlink:href="#DejaVuSans-52"/>
       <use xlink:href="#DejaVuSans-65" x="64.982422"/>
       <use xlink:href="#DejaVuSans-61" x="126.505859"/>
       <use xlink:href="#DejaVuSans-6c" x="187.785156"/>
       <use xlink:href="#DejaVuSans-20" x="215.568359"/>
       <use xlink:href="#DejaVuSans-32" x="247.355469"/>
      </g>
     </g>
     <g id="line2d_43">
      <path d="M 419.411719 530.758023 
L 429.411719 530.758023 
L 439.411719 530.758023 
" style="fill: none; stroke: #2ca02c; stroke-width: 1.5; stroke-linecap: square"/>
     </g>
     <g id="text_38">
      <!-- Real 3 -->
      <g transform="translate(447.411719 534.258023) scale(0.1 -0.1)">
       <use xlink:href="#DejaVuSans-52"/>
       <use xlink:href="#DejaVuSans-65" x="64.982422"/>
       <use xlink:href="#DejaVuSans-61" x="126.505859"/>
       <use xlink:href="#DejaVuSans-6c" x="187.785156"/>
       <use xlink:href="#DejaVuSans-20" x="215.568359"/>
       <use xlink:href="#DejaVuSans-33" x="247.355469"/>
      </g>
     </g>
    </g>
   </g>
  </g>
  <g id="subfigure_4">
   <g id="patch_23">
    <path d="M 0 720 
L 720 720 
L 720 557.903558 
L 0 557.903558 
z
" style="fill: #ffffff"/>
   </g>
   <g id="axes_4">
    <g id="patch_24">
     <path d="M 22.72524 673.409207 
L 716.99976 673.409207 
L 716.99976 576.021923 
L 22.72524 576.021923 
z
" style="fill: #ffffff"/>
    </g>
    <g id="matplotlib.axis_7">
     <g id="xtick_16">
      <g id="line2d_44">
       <g>
        <use xlink:href="#m6d7b1322ef" x="117.646551" y="673.409207" style="stroke: #000000; stroke-width: 0.8"/>
       </g>
      </g>
      <g id="text_39">
       <!-- −0.4 -->
       <g transform="translate(105.505145 688.007644) scale(0.1 -0.1)">
        <use xlink:href="#DejaVuSans-2212"/>
        <use xlink:href="#DejaVuSans-30" x="83.789062"/>
        <use xlink:href="#DejaVuSans-2e" x="147.412109"/>
        <use xlink:href="#DejaVuSans-34" x="179.199219"/>
       </g>
      </g>
     </g>
     <g id="xtick_17">
      <g id="line2d_45">
       <g>
        <use xlink:href="#m6d7b1322ef" x="244.373309" y="673.409207" style="stroke: #000000; stroke-width: 0.8"/>
       </g>
      </g>
      <g id="text_40">
       <!-- −0.2 -->
       <g transform="translate(232.231902 688.007644) scale(0.1 -0.1)">
        <use xlink:href="#DejaVuSans-2212"/>
        <use xlink:href="#DejaVuSans-30" x="83.789062"/>
        <use xlink:href="#DejaVuSans-2e" x="147.412109"/>
        <use xlink:href="#DejaVuSans-32" x="179.199219"/>
       </g>
      </g>
     </g>
     <g id="xtick_18">
      <g id="line2d_46">
       <g>
        <use xlink:href="#m6d7b1322ef" x="371.100066" y="673.409207" style="stroke: #000000; stroke-width: 0.8"/>
       </g>
      </g>
      <g id="text_41">
       <!-- 0.0 -->
       <g transform="translate(363.148503 688.007644) scale(0.1 -0.1)">
        <use xlink:href="#DejaVuSans-30"/>
        <use xlink:href="#DejaVuSans-2e" x="63.623047"/>
        <use xlink:href="#DejaVuSans-30" x="95.410156"/>
       </g>
      </g>
     </g>
     <g id="xtick_19">
      <g id="line2d_47">
       <g>
        <use xlink:href="#m6d7b1322ef" x="497.826823" y="673.409207" style="stroke: #000000; stroke-width: 0.8"/>
       </g>
      </g>
      <g id="text_42">
       <!-- 0.2 -->
       <g transform="translate(489.875261 688.007644) scale(0.1 -0.1)">
        <use xlink:href="#DejaVuSans-30"/>
        <use xlink:href="#DejaVuSans-2e" x="63.623047"/>
        <use xlink:href="#DejaVuSans-32" x="95.410156"/>
       </g>
      </g>
     </g>
     <g id="xtick_20">
      <g id="line2d_48">
       <g>
        <use xlink:href="#m6d7b1322ef" x="624.553581" y="673.409207" style="stroke: #000000; stroke-width: 0.8"/>
       </g>
      </g>
      <g id="text_43">
       <!-- 0.4 -->
       <g transform="translate(616.602018 688.007644) scale(0.1 -0.1)">
        <use xlink:href="#DejaVuSans-30"/>
        <use xlink:href="#DejaVuSans-2e" x="63.623047"/>
        <use xlink:href="#DejaVuSans-34" x="95.410156"/>
       </g>
      </g>
     </g>
    </g>
    <g id="matplotlib.axis_8">
     <g id="ytick_11">
      <g id="line2d_49">
       <g>
        <use xlink:href="#m09106b19ee" x="22.72524" y="668.994822" style="stroke: #000000; stroke-width: 0.8"/>
       </g>
      </g>
      <g id="text_44">
       <!-- 0 -->
       <g transform="translate(9.36274 672.794041) scale(0.1 -0.1)">
        <use xlink:href="#DejaVuSans-30"/>
       </g>
      </g>
     </g>
     <g id="ytick_12">
      <g id="line2d_50">
       <g>
        <use xlink:href="#m09106b19ee" x="22.72524" y="623.984025" style="stroke: #000000; stroke-width: 0.8"/>
       </g>
      </g>
      <g id="text_45">
       <!-- 20 -->
       <g transform="translate(3.00024 627.783244) scale(0.1 -0.1)">
        <use xlink:href="#DejaVuSans-32"/>
        <use xlink:href="#DejaVuSans-30" x="63.623047"/>
       </g>
      </g>
     </g>
     <g id="ytick_13">
      <g id="line2d_51">
       <g>
        <use xlink:href="#m09106b19ee" x="22.72524" y="578.973228" style="stroke: #000000; stroke-width: 0.8"/>
       </g>
      </g>
      <g id="text_46">
       <!-- 40 -->
       <g transform="translate(3.00024 582.772447) scale(0.1 -0.1)">
        <use xlink:href="#DejaVuSans-34"/>
        <use xlink:href="#DejaVuSans-30" x="63.623047"/>
       </g>
      </g>
     </g>
    </g>
    <g id="line2d_52">
     <path d="M 371.100066 637.112428 
L 373.575198 580.448617 
L 376.05033 636.112278 
L 378.525462 657.567769 
L 381.000594 663.006841 
L 383.475726 665.376012 
L 385.950858 666.482452 
L 388.42599 667.174355 
L 390.901122 667.648508 
L 395.851386 668.113073 
L 403.276782 668.470688 
L 413.17731 668.676355 
L 428.028101 668.827637 
L 462.679949 668.925627 
L 685.441827 668.981984 
L 54.283173 668.982512 
L 301.796371 668.878538 
L 331.497954 668.647369 
L 341.398482 668.377538 
L 348.823878 667.927667 
L 351.29901 667.648508 
L 353.774142 667.174355 
L 356.249274 666.482452 
L 358.724406 665.376012 
L 361.199538 663.006841 
L 363.67467 657.567769 
L 366.149802 636.112278 
L 368.624934 580.448617 
L 368.624934 580.448617 
" clip-path="url(#p98fea32a04)" style="fill: none; stroke: #1f77b4; stroke-width: 1.5; stroke-linecap: square"/>
    </g>
    <g id="line2d_53">
     <path d="M 371.100066 640.354571 
L 373.575198 584.351678 
L 376.05033 637.159079 
L 378.525462 658.121776 
L 381.000594 662.974863 
L 383.475726 665.384313 
L 385.950858 666.505471 
L 388.42599 667.124731 
L 390.901122 667.615335 
L 395.851386 668.135061 
L 415.652442 668.716774 
L 435.453497 668.861463 
L 467.630213 668.932231 
L 685.441827 668.980872 
L 54.283173 668.981159 
L 304.271503 668.875262 
L 331.497954 668.649976 
L 341.398482 668.345728 
L 348.823878 667.929844 
L 351.29901 667.615335 
L 353.774142 667.124731 
L 356.249274 666.505471 
L 358.724406 665.384313 
L 361.199538 662.974863 
L 363.67467 658.121776 
L 366.149802 637.159079 
L 368.624934 584.351678 
L 368.624934 584.351678 
" clip-path="url(#p98fea32a04)" style="fill: none; stroke: #ff7f0e; stroke-width: 1.5; stroke-linecap: square"/>
    </g>
    <g id="line2d_54">
     <path d="M 371.100066 640.741979 
L 373.575198 581.033032 
L 376.05033 636.091685 
L 378.525462 657.486945 
L 381.000594 662.925595 
L 383.475726 665.181618 
L 385.950858 666.392649 
L 388.42599 667.11215 
L 390.901122 667.623725 
L 395.851386 668.0757 
L 400.80165 668.377221 
L 410.702178 668.662843 
L 440.403761 668.877568 
L 514.657721 668.96421 
L 685.441827 668.98085 
L 54.283173 668.981011 
L 311.696899 668.835501 
L 333.973086 668.615618 
L 341.398482 668.377221 
L 346.348746 668.0757 
L 351.29901 667.623725 
L 353.774142 667.11215 
L 356.249274 666.392649 
L 358.724406 665.181618 
L 361.199538 662.925595 
L 363.67467 657.486945 
L 366.149802 636.091685 
L 368.624934 581.033032 
L 368.624934 581.033032 
" clip-path="url(#p98fea32a04)" style="fill: none; stroke: #2ca02c; stroke-width: 1.5; stroke-linecap: square"/>
    </g>
    <g id="patch_25">
     <path d="M 22.72524 673.409207 
L 22.72524 576.021923 
" style="fill: none; stroke: #000000; stroke-width: 0.8; stroke-linejoin: miter; stroke-linecap: square"/>
    </g>
    <g id="patch_26">
     <path d="M 716.99976 673.409207 
L 716.99976 576.021923 
" style="fill: none; stroke: #000000; stroke-width: 0.8; stroke-linejoin: miter; stroke-linecap: square"/>
    </g>
    <g id="patch_27">
     <path d="M 22.72524 673.409207 
L 716.99976 673.409207 
" style="fill: none; stroke: #000000; stroke-width: 0.8; stroke-linejoin: miter; stroke-linecap: square"/>
    </g>
    <g id="patch_28">
     <path d="M 22.72524 576.021923 
L 716.99976 576.021923 
" style="fill: none; stroke: #000000; stroke-width: 0.8; stroke-linejoin: miter; stroke-linecap: square"/>
    </g>
    <g id="text_47">
     <!-- Gauss Markov - tau=500 -->
     <g transform="translate(295.485937 570.021923) scale(0.12 -0.12)">
      <use xlink:href="#DejaVuSans-47"/>
      <use xlink:href="#DejaVuSans-61" x="77.490234"/>
      <use xlink:href="#DejaVuSans-75" x="138.769531"/>
      <use xlink:href="#DejaVuSans-73" x="202.148438"/>
      <use xlink:href="#DejaVuSans-73" x="254.248047"/>
      <use xlink:href="#DejaVuSans-20" x="306.347656"/>
      <use xlink:href="#DejaVuSans-4d" x="338.134766"/>
      <use xlink:href="#DejaVuSans-61" x="424.414062"/>
      <use xlink:href="#DejaVuSans-72" x="485.693359"/>
      <use xlink:href="#DejaVuSans-6b" x="526.806641"/>
      <use xlink:href="#DejaVuSans-6f" x="581.091797"/>
      <use xlink:href="#DejaVuSans-76" x="642.273438"/>
      <use xlink:href="#DejaVuSans-20" x="701.453125"/>
      <use xlink:href="#DejaVuSans-2d" x="733.240234"/>
      <use xlink:href="#DejaVuSans-20" x="769.324219"/>
      <use xlink:href="#DejaVuSans-74" x="801.111328"/>
      <use xlink:href="#DejaVuSans-61" x="840.320312"/>
      <use xlink:href="#DejaVuSans-75" x="901.599609"/>
      <use xlink:href="#DejaVuSans-3d" x="964.978516"/>
      <use xlink:href="#DejaVuSans-35" x="1048.767578"/>
      <use xlink:href="#DejaVuSans-30" x="1112.390625"/>
      <use xlink:href="#DejaVuSans-30" x="1176.013672"/>
     </g>
    </g>
    <g id="legend_4">
     <g id="patch_29">
      <path d="M 259.214844 720.434153 
L 480.510156 720.434153 
Q 482.510156 720.434153 482.510156 718.434153 
L 482.510156 704.756028 
Q 482.510156 702.756028 480.510156 702.756028 
L 259.214844 702.756028 
Q 257.214844 702.756028 257.214844 704.756028 
L 257.214844 718.434153 
Q 257.214844 720.434153 259.214844 720.434153 
z
" style="fill: #ffffff; opacity: 0.8; stroke: #cccccc; stroke-linejoin: miter"/>
     </g>
     <g id="line2d_55">
      <path d="M 261.214844 710.854465 
L 271.214844 710.854465 
L 281.214844 710.854465 
" style="fill: none; stroke: #1f77b4; stroke-width: 1.5; stroke-linecap: square"/>
     </g>
     <g id="text_48">
      <!-- Real 1 -->
      <g transform="translate(289.214844 714.354465) scale(0.1 -0.1)">
       <use xlink:href="#DejaVuSans-52"/>
       <use xlink:href="#DejaVuSans-65" x="64.982422"/>
       <use xlink:href="#DejaVuSans-61" x="126.505859"/>
       <use xlink:href="#DejaVuSans-6c" x="187.785156"/>
       <use xlink:href="#DejaVuSans-20" x="215.568359"/>
       <use xlink:href="#DejaVuSans-31" x="247.355469"/>
      </g>
     </g>
     <g id="line2d_56">
      <path d="M 340.313281 710.854465 
L 350.313281 710.854465 
L 360.313281 710.854465 
" style="fill: none; stroke: #ff7f0e; stroke-width: 1.5; stroke-linecap: square"/>
     </g>
     <g id="text_49">
      <!-- Real 2 -->
      <g transform="translate(368.313281 714.354465) scale(0.1 -0.1)">
       <use xlink:href="#DejaVuSans-52"/>
       <use xlink:href="#DejaVuSans-65" x="64.982422"/>
       <use xlink:href="#DejaVuSans-61" x="126.505859"/>
       <use xlink:href="#DejaVuSans-6c" x="187.785156"/>
       <use xlink:href="#DejaVuSans-20" x="215.568359"/>
       <use xlink:href="#DejaVuSans-32" x="247.355469"/>
      </g>
     </g>
     <g id="line2d_57">
      <path d="M 419.411719 710.854465 
L 429.411719 710.854465 
L 439.411719 710.854465 
" style="fill: none; stroke: #2ca02c; stroke-width: 1.5; stroke-linecap: square"/>
     </g>
     <g id="text_50">
      <!-- Real 3 -->
      <g transform="translate(447.411719 714.354465) scale(0.1 -0.1)">
       <use xlink:href="#DejaVuSans-52"/>
       <use xlink:href="#DejaVuSans-65" x="64.982422"/>
       <use xlink:href="#DejaVuSans-61" x="126.505859"/>
       <use xlink:href="#DejaVuSans-6c" x="187.785156"/>
       <use xlink:href="#DejaVuSans-20" x="215.568359"/>
       <use xlink:href="#DejaVuSans-33" x="247.355469"/>
      </g>
     </g>
    </g>
   </g>
  </g>
 </g>
 <defs>
  <clipPath id="pfb9ac2d5c9">
   <rect x="38.628365" y="35.732595" width="678.371395" height="97.387284"/>
  </clipPath>
  <clipPath id="p8d8002da33">
   <rect x="22.72524" y="215.829038" width="694.27452" height="97.387284"/>
  </clipPath>
  <clipPath id="p0d71bdafc7">
   <rect x="22.72524" y="395.92548" width="694.27452" height="97.387284"/>
  </clipPath>
  <clipPath id="p98fea32a04">
   <rect x="22.72524" y="576.021923" width="694.27452" height="97.387284"/>
  </clipPath>
 </defs>
</svg>
