<?xml version="1.0" encoding="utf-8" standalone="no"?>
<!DOCTYPE svg PUBLIC "-//W3C//DTD SVG 1.1//EN"
  "http://www.w3.org/Graphics/SVG/1.1/DTD/svg11.dtd">
<svg xmlns:xlink="http://www.w3.org/1999/xlink" width="720pt" height="720pt" viewBox="0 0 720 720" xmlns="http://www.w3.org/2000/svg" version="1.1">
 <metadata>
  <rdf:RDF xmlns:dc="http://purl.org/dc/elements/1.1/" xmlns:cc="http://creativecommons.org/ns#" xmlns:rdf="http://www.w3.org/1999/02/22-rdf-syntax-ns#">
   <cc:Work>
    <dc:type rdf:resource="http://purl.org/dc/dcmitype/StillImage"/>
    <dc:date>2024-03-07T11:21:54.891737</dc:date>
    <dc:format>image/svg+xml</dc:format>
    <dc:creator>
     <cc:Agent>
      <dc:title>Matplotlib v3.7.2, https://matplotlib.org/</dc:title>
     </cc:Agent>
    </dc:creator>
   </cc:Work>
  </rdf:RDF>
 </metadata>
 <defs>
  <style type="text/css">*{stroke-linejoin: round; stroke-linecap: butt}</style>
 </defs>
 <g id="figure_1">
  <g id="patch_1">
   <path d="M 0 720 
L 720 720 
L 720 0 
L 0 0 
z
" style="fill: #ffffff"/>
  </g>
  <g id="axes_1">
   <g id="patch_2">
    <path d="M 38.628365 167.090552 
L 716.99976 167.090552 
L 716.99976 35.732595 
L 38.628365 35.732595 
z
" style="fill: #ffffff"/>
   </g>
   <g id="matplotlib.axis_1">
    <g id="xtick_1">
     <g id="line2d_1">
      <defs>
       <path id="ma0524bde89" d="M 0 0 
L 0 3.5 
" style="stroke: #000000; stroke-width: 0.8"/>
      </defs>
      <g>
       <use xlink:href="#ma0524bde89" x="131.375399" y="167.090552" style="stroke: #000000; stroke-width: 0.8"/>
      </g>
     </g>
     <g id="text_1">
      <!-- −0.4 -->
      <g transform="translate(119.233993 181.688989) scale(0.1 -0.1)">
       <defs>
        <path id="DejaVuSans-2212" d="M 678 2272 
L 4684 2272 
L 4684 1741 
L 678 1741 
L 678 2272 
z
" transform="scale(0.015625)"/>
        <path id="DejaVuSans-30" d="M 2034 4250 
Q 1547 4250 1301 3770 
Q 1056 3291 1056 2328 
Q 1056 1369 1301 889 
Q 1547 409 2034 409 
Q 2525 409 2770 889 
Q 3016 1369 3016 2328 
Q 3016 3291 2770 3770 
Q 2525 4250 2034 4250 
z
M 2034 4750 
Q 2819 4750 3233 4129 
Q 3647 3509 3647 2328 
Q 3647 1150 3233 529 
Q 2819 -91 2034 -91 
Q 1250 -91 836 529 
Q 422 1150 422 2328 
Q 422 3509 836 4129 
Q 1250 4750 2034 4750 
z
" transform="scale(0.015625)"/>
        <path id="DejaVuSans-2e" d="M 684 794 
L 1344 794 
L 1344 0 
L 684 0 
L 684 794 
z
" transform="scale(0.015625)"/>
        <path id="DejaVuSans-34" d="M 2419 4116 
L 825 1625 
L 2419 1625 
L 2419 4116 
z
M 2253 4666 
L 3047 4666 
L 3047 1625 
L 3713 1625 
L 3713 1100 
L 3047 1100 
L 3047 0 
L 2419 0 
L 2419 1100 
L 313 1100 
L 313 1709 
L 2253 4666 
z
" transform="scale(0.015625)"/>
       </defs>
       <use xlink:href="#DejaVuSans-2212"/>
       <use xlink:href="#DejaVuSans-30" x="83.789062"/>
       <use xlink:href="#DejaVuSans-2e" x="147.412109"/>
       <use xlink:href="#DejaVuSans-34" x="179.199219"/>
      </g>
     </g>
    </g>
    <g id="xtick_2">
     <g id="line2d_2">
      <g>
       <use xlink:href="#ma0524bde89" x="255.19934" y="167.090552" style="stroke: #000000; stroke-width: 0.8"/>
      </g>
     </g>
     <g id="text_2">
      <!-- −0.2 -->
      <g transform="translate(243.057934 181.688989) scale(0.1 -0.1)">
       <defs>
        <path id="DejaVuSans-32" d="M 1228 531 
L 3431 531 
L 3431 0 
L 469 0 
L 469 531 
Q 828 903 1448 1529 
Q 2069 2156 2228 2338 
Q 2531 2678 2651 2914 
Q 2772 3150 2772 3378 
Q 2772 3750 2511 3984 
Q 2250 4219 1831 4219 
Q 1534 4219 1204 4116 
Q 875 4013 500 3803 
L 500 4441 
Q 881 4594 1212 4672 
Q 1544 4750 1819 4750 
Q 2544 4750 2975 4387 
Q 3406 4025 3406 3419 
Q 3406 3131 3298 2873 
Q 3191 2616 2906 2266 
Q 2828 2175 2409 1742 
Q 1991 1309 1228 531 
z
" transform="scale(0.015625)"/>
       </defs>
       <use xlink:href="#DejaVuSans-2212"/>
       <use xlink:href="#DejaVuSans-30" x="83.789062"/>
       <use xlink:href="#DejaVuSans-2e" x="147.412109"/>
       <use xlink:href="#DejaVuSans-32" x="179.199219"/>
      </g>
     </g>
    </g>
    <g id="xtick_3">
     <g id="line2d_3">
      <g>
       <use xlink:href="#ma0524bde89" x="379.023281" y="167.090552" style="stroke: #000000; stroke-width: 0.8"/>
      </g>
     </g>
     <g id="text_3">
      <!-- 0.0 -->
      <g transform="translate(371.071718 181.688989) scale(0.1 -0.1)">
       <use xlink:href="#DejaVuSans-30"/>
       <use xlink:href="#DejaVuSans-2e" x="63.623047"/>
       <use xlink:href="#DejaVuSans-30" x="95.410156"/>
      </g>
     </g>
    </g>
    <g id="xtick_4">
     <g id="line2d_4">
      <g>
       <use xlink:href="#ma0524bde89" x="502.847222" y="167.090552" style="stroke: #000000; stroke-width: 0.8"/>
      </g>
     </g>
     <g id="text_4">
      <!-- 0.2 -->
      <g transform="translate(494.895659 181.688989) scale(0.1 -0.1)">
       <use xlink:href="#DejaVuSans-30"/>
       <use xlink:href="#DejaVuSans-2e" x="63.623047"/>
       <use xlink:href="#DejaVuSans-32" x="95.410156"/>
      </g>
     </g>
    </g>
    <g id="xtick_5">
     <g id="line2d_5">
      <g>
       <use xlink:href="#ma0524bde89" x="626.671162" y="167.090552" style="stroke: #000000; stroke-width: 0.8"/>
      </g>
     </g>
     <g id="text_5">
      <!-- 0.4 -->
      <g transform="translate(618.7196 181.688989) scale(0.1 -0.1)">
       <use xlink:href="#DejaVuSans-30"/>
       <use xlink:href="#DejaVuSans-2e" x="63.623047"/>
       <use xlink:href="#DejaVuSans-34" x="95.410156"/>
      </g>
     </g>
    </g>
   </g>
   <g id="matplotlib.axis_2">
    <g id="ytick_1">
     <g id="line2d_6">
      <defs>
       <path id="me9eb464c5d" d="M 0 0 
L -3.5 0 
" style="stroke: #000000; stroke-width: 0.8"/>
      </defs>
      <g>
       <use xlink:href="#me9eb464c5d" x="38.628365" y="144.857411" style="stroke: #000000; stroke-width: 0.8"/>
      </g>
     </g>
     <g id="text_6">
      <!-- 0.010 -->
      <g transform="translate(3.00024 148.65663) scale(0.1 -0.1)">
       <defs>
        <path id="DejaVuSans-31" d="M 794 531 
L 1825 531 
L 1825 4091 
L 703 3866 
L 703 4441 
L 1819 4666 
L 2450 4666 
L 2450 531 
L 3481 531 
L 3481 0 
L 794 0 
L 794 531 
z
" transform="scale(0.015625)"/>
       </defs>
       <use xlink:href="#DejaVuSans-30"/>
       <use xlink:href="#DejaVuSans-2e" x="63.623047"/>
       <use xlink:href="#DejaVuSans-30" x="95.410156"/>
       <use xlink:href="#DejaVuSans-31" x="159.033203"/>
       <use xlink:href="#DejaVuSans-30" x="222.65625"/>
      </g>
     </g>
    </g>
    <g id="ytick_2">
     <g id="line2d_7">
      <g>
       <use xlink:href="#me9eb464c5d" x="38.628365" y="111.854469" style="stroke: #000000; stroke-width: 0.8"/>
      </g>
     </g>
     <g id="text_7">
      <!-- 0.015 -->
      <g transform="translate(3.00024 115.653688) scale(0.1 -0.1)">
       <defs>
        <path id="DejaVuSans-35" d="M 691 4666 
L 3169 4666 
L 3169 4134 
L 1269 4134 
L 1269 2991 
Q 1406 3038 1543 3061 
Q 1681 3084 1819 3084 
Q 2600 3084 3056 2656 
Q 3513 2228 3513 1497 
Q 3513 744 3044 326 
Q 2575 -91 1722 -91 
Q 1428 -91 1123 -41 
Q 819 9 494 109 
L 494 744 
Q 775 591 1075 516 
Q 1375 441 1709 441 
Q 2250 441 2565 725 
Q 2881 1009 2881 1497 
Q 2881 1984 2565 2268 
Q 2250 2553 1709 2553 
Q 1456 2553 1204 2497 
Q 953 2441 691 2322 
L 691 4666 
z
" transform="scale(0.015625)"/>
       </defs>
       <use xlink:href="#DejaVuSans-30"/>
       <use xlink:href="#DejaVuSans-2e" x="63.623047"/>
       <use xlink:href="#DejaVuSans-30" x="95.410156"/>
       <use xlink:href="#DejaVuSans-31" x="159.033203"/>
       <use xlink:href="#DejaVuSans-35" x="222.65625"/>
      </g>
     </g>
    </g>
    <g id="ytick_3">
     <g id="line2d_8">
      <g>
       <use xlink:href="#me9eb464c5d" x="38.628365" y="78.851527" style="stroke: #000000; stroke-width: 0.8"/>
      </g>
     </g>
     <g id="text_8">
      <!-- 0.020 -->
      <g transform="translate(3.00024 82.650746) scale(0.1 -0.1)">
       <use xlink:href="#DejaVuSans-30"/>
       <use xlink:href="#DejaVuSans-2e" x="63.623047"/>
       <use xlink:href="#DejaVuSans-30" x="95.410156"/>
       <use xlink:href="#DejaVuSans-32" x="159.033203"/>
       <use xlink:href="#DejaVuSans-30" x="222.65625"/>
      </g>
     </g>
    </g>
    <g id="ytick_4">
     <g id="line2d_9">
      <g>
       <use xlink:href="#me9eb464c5d" x="38.628365" y="45.848585" style="stroke: #000000; stroke-width: 0.8"/>
      </g>
     </g>
     <g id="text_9">
      <!-- 0.025 -->
      <g transform="translate(3.00024 49.647804) scale(0.1 -0.1)">
       <use xlink:href="#DejaVuSans-30"/>
       <use xlink:href="#DejaVuSans-2e" x="63.623047"/>
       <use xlink:href="#DejaVuSans-30" x="95.410156"/>
       <use xlink:href="#DejaVuSans-32" x="159.033203"/>
       <use xlink:href="#DejaVuSans-35" x="222.65625"/>
      </g>
     </g>
    </g>
   </g>
   <g id="line2d_10">
    <path d="M 379.023281 156.973718 
L 381.441717 82.01345 
L 383.860153 53.543633 
L 386.27859 53.666284 
L 388.697026 60.439973 
L 391.115462 65.965801 
L 393.533899 62.408311 
L 395.952335 57.228752 
L 398.370771 56.065602 
L 400.789208 52.92132 
L 403.207644 52.301365 
L 405.62608 58.489086 
L 408.044517 57.110704 
L 410.462953 59.001098 
L 412.88139 54.74738 
L 415.299826 48.335107 
L 417.718262 49.075455 
L 420.136699 55.529053 
L 422.555135 53.990431 
L 424.973571 58.470408 
L 427.392008 60.27304 
L 429.810444 59.777432 
L 432.22888 55.496221 
L 434.647317 51.517793 
L 437.065753 55.279903 
L 439.484189 56.542614 
L 441.902626 57.948765 
L 446.739498 58.879529 
L 449.157935 52.929602 
L 451.576371 54.137011 
L 453.994807 59.988072 
L 456.413244 60.106871 
L 458.83168 54.049424 
L 461.250116 54.441221 
L 463.668553 52.562488 
L 466.086989 54.798669 
L 468.505425 59.956388 
L 470.923862 64.406607 
L 473.342298 61.73114 
L 475.760735 57.392299 
L 478.179171 58.997822 
L 480.597607 49.827016 
L 483.016044 48.561017 
L 485.43448 52.206501 
L 487.852916 46.147888 
L 490.271353 46.006759 
L 492.689789 58.695593 
L 495.108225 65.281929 
L 497.526662 60.609248 
L 499.945098 62.385414 
L 504.781971 60.072523 
L 507.200407 58.217169 
L 509.618843 56.802888 
L 514.455716 53.362761 
L 516.874152 55.419317 
L 519.292589 56.090158 
L 521.711025 56.111332 
L 524.129461 57.775721 
L 526.547898 61.414179 
L 528.966334 53.185563 
L 531.38477 50.534837 
L 533.803207 48.366773 
L 536.221643 52.894296 
L 538.640079 49.435086 
L 541.058516 56.00885 
L 543.476952 61.063732 
L 545.895389 63.359577 
L 548.313825 55.922645 
L 550.732261 55.398374 
L 553.150698 59.911317 
L 555.569134 63.034965 
L 557.98757 55.362462 
L 560.406007 49.819238 
L 562.824443 50.071999 
L 565.242879 60.365378 
L 567.661316 53.321158 
L 570.079752 57.010179 
L 572.498188 57.106072 
L 574.916625 54.589211 
L 579.753497 58.915255 
L 582.171934 57.926615 
L 584.59037 51.083694 
L 587.008806 52.787027 
L 589.427243 57.164831 
L 591.845679 58.999974 
L 594.264115 59.432688 
L 596.682552 55.824547 
L 599.100988 49.642643 
L 601.519424 53.692641 
L 603.937861 51.966848 
L 606.356297 60.223709 
L 608.774734 60.817352 
L 611.19317 55.562967 
L 616.030043 54.624384 
L 618.448479 48.946121 
L 620.866915 51.624911 
L 623.285352 58.610931 
L 625.703788 59.675361 
L 628.122224 55.702463 
L 630.540661 56.744808 
L 632.959097 52.619272 
L 635.377533 57.239983 
L 637.79597 60.535973 
L 640.214406 59.439641 
L 642.632842 59.516019 
L 645.051279 61.569921 
L 647.469715 54.448038 
L 649.888151 56.933732 
L 652.306588 55.340528 
L 654.725024 55.137086 
L 657.14346 55.767552 
L 659.561897 54.681421 
L 661.980333 54.135968 
L 664.398769 49.811728 
L 666.817206 55.969278 
L 669.235642 58.760746 
L 671.654079 55.04333 
L 674.072515 52.650018 
L 676.490951 59.090997 
L 678.909388 50.223539 
L 681.327824 56.173129 
L 683.74626 59.781962 
L 686.164697 60.134419 
L 69.463428 49.83647 
L 71.881865 60.134419 
L 74.300301 59.781962 
L 76.718737 56.173129 
L 79.137174 50.223539 
L 81.55561 59.090997 
L 83.974046 52.650018 
L 86.392483 55.04333 
L 88.810919 58.760746 
L 91.229356 55.969278 
L 93.647792 49.811728 
L 96.066228 54.135968 
L 98.484665 54.681421 
L 100.903101 55.767552 
L 103.321537 55.137086 
L 105.739974 55.340528 
L 108.15841 56.933732 
L 110.576846 54.448038 
L 112.995283 61.569921 
L 115.413719 59.516019 
L 117.832155 59.439641 
L 120.250592 60.535973 
L 122.669028 57.239983 
L 125.087464 52.619272 
L 127.505901 56.744808 
L 129.924337 55.702463 
L 132.342773 59.675361 
L 134.76121 58.610931 
L 137.179646 51.624911 
L 139.598082 48.946121 
L 142.016519 54.624384 
L 146.853391 55.562967 
L 149.271828 60.817352 
L 151.690264 60.223709 
L 154.108701 51.966848 
L 156.527137 53.692641 
L 158.945573 49.642643 
L 161.36401 55.824547 
L 163.782446 59.432688 
L 166.200882 58.999974 
L 168.619319 57.164831 
L 171.037755 52.787027 
L 173.456191 51.083694 
L 175.874628 57.926615 
L 178.293064 58.915255 
L 183.129937 54.589211 
L 185.548373 57.106072 
L 187.966809 57.010179 
L 190.385246 53.321158 
L 192.803682 60.365378 
L 195.222118 50.071999 
L 197.640555 49.819238 
L 200.058991 55.362462 
L 202.477427 63.034965 
L 204.895864 59.911317 
L 207.3143 55.398374 
L 209.732736 55.922645 
L 212.151173 63.359577 
L 214.569609 61.063732 
L 216.988046 56.00885 
L 219.406482 49.435086 
L 221.824918 52.894296 
L 224.243355 48.366773 
L 226.661791 50.534837 
L 229.080227 53.185563 
L 231.498664 61.414179 
L 233.9171 57.775721 
L 236.335536 56.111332 
L 238.753973 56.090158 
L 241.172409 55.419317 
L 243.590845 53.362761 
L 248.427718 56.802888 
L 250.846154 58.217169 
L 253.264591 60.072523 
L 258.101463 62.385414 
L 260.5199 60.609248 
L 262.938336 65.281929 
L 265.356772 58.695593 
L 267.775209 46.006759 
L 270.193645 46.147888 
L 272.612081 52.206501 
L 275.030518 48.561017 
L 277.448954 49.827016 
L 279.86739 58.997822 
L 282.285827 57.392299 
L 284.704263 61.73114 
L 287.1227 64.406607 
L 289.541136 59.956388 
L 291.959572 54.798669 
L 294.378009 52.562488 
L 296.796445 54.441221 
L 299.214881 54.049424 
L 301.633318 60.106871 
L 304.051754 59.988072 
L 306.47019 54.137011 
L 308.888627 52.929602 
L 311.307063 58.879529 
L 316.143936 57.948765 
L 318.562372 56.542614 
L 320.980808 55.279903 
L 323.399245 51.517793 
L 325.817681 55.496221 
L 328.236117 59.777432 
L 330.654554 60.27304 
L 333.07299 58.470408 
L 335.491426 53.990431 
L 337.909863 55.529053 
L 340.328299 49.075455 
L 342.746735 48.335107 
L 345.165172 54.74738 
L 347.583608 59.001098 
L 350.002045 57.110704 
L 352.420481 58.489086 
L 354.838917 52.301365 
L 357.257354 52.92132 
L 359.67579 56.065602 
L 362.094226 57.228752 
L 364.512663 62.408311 
L 366.931099 65.965801 
L 369.349535 60.439973 
L 371.767972 53.666284 
L 374.186408 53.543633 
L 376.604844 82.01345 
L 376.604844 82.01345 
" clip-path="url(#p399c849a6d)" style="fill: none; stroke: #1f77b4; stroke-width: 1.5; stroke-linecap: square"/>
   </g>
   <g id="line2d_11">
    <path d="M 379.023281 158.886834 
L 381.441717 84.372207 
L 383.860153 54.993243 
L 386.27859 56.307619 
L 388.697026 56.711561 
L 391.115462 58.73265 
L 393.533899 57.788331 
L 395.952335 50.64028 
L 398.370771 45.686295 
L 400.789208 52.881071 
L 403.207644 55.976703 
L 405.62608 52.564931 
L 408.044517 50.913808 
L 410.462953 51.825081 
L 412.88139 53.030599 
L 415.299826 56.904025 
L 417.718262 60.241317 
L 420.136699 57.065286 
L 422.555135 54.751797 
L 424.973571 56.152563 
L 427.392008 54.972252 
L 429.810444 57.213791 
L 432.22888 57.219417 
L 434.647317 59.975054 
L 437.065753 54.147032 
L 439.484189 53.243659 
L 441.902626 59.433025 
L 444.321062 64.00572 
L 446.739498 60.508277 
L 449.157935 56.572149 
L 451.576371 57.994272 
L 453.994807 58.625649 
L 456.413244 58.29678 
L 458.83168 56.628933 
L 461.250116 64.11582 
L 463.668553 59.92981 
L 466.086989 53.546946 
L 468.505425 52.047593 
L 470.923862 55.02774 
L 473.342298 61.204104 
L 478.179171 53.817862 
L 480.597607 53.036778 
L 483.016044 55.952322 
L 485.43448 64.131662 
L 487.852916 60.305279 
L 490.271353 51.910566 
L 492.689789 54.324218 
L 495.108225 51.928647 
L 497.526662 57.091629 
L 499.945098 57.983662 
L 502.363534 56.005486 
L 507.200407 52.513451 
L 509.618843 52.427864 
L 512.03728 41.703411 
L 514.455716 46.926928 
L 516.874152 59.843568 
L 519.292589 59.173712 
L 521.711025 55.518522 
L 524.129461 55.643779 
L 526.547898 54.337903 
L 528.966334 55.833168 
L 531.38477 52.654005 
L 533.803207 53.486146 
L 536.221643 60.683036 
L 538.640079 61.620315 
L 541.058516 61.485051 
L 543.476952 56.569112 
L 545.895389 52.606801 
L 548.313825 49.788562 
L 550.732261 50.874156 
L 553.150698 55.790592 
L 555.569134 56.969274 
L 557.98757 61.251928 
L 560.406007 56.224867 
L 562.824443 50.123761 
L 565.242879 48.146604 
L 567.661316 50.524683 
L 570.079752 56.53203 
L 572.498188 59.900627 
L 574.916625 60.604989 
L 577.335061 57.056282 
L 579.753497 59.328295 
L 582.171934 58.894758 
L 584.59037 55.683963 
L 587.008806 56.537729 
L 589.427243 50.087857 
L 591.845679 55.553815 
L 594.264115 56.443877 
L 596.682552 59.103116 
L 599.100988 61.271861 
L 601.519424 55.783435 
L 603.937861 47.953299 
L 606.356297 53.588581 
L 608.774734 60.704258 
L 611.19317 54.997245 
L 613.611606 46.763193 
L 616.030043 49.939792 
L 618.448479 60.079647 
L 620.866915 54.207751 
L 623.285352 58.05927 
L 625.703788 62.167188 
L 628.122224 51.944021 
L 630.540661 50.993409 
L 632.959097 52.87514 
L 635.377533 58.47645 
L 637.79597 67.458642 
L 640.214406 62.381353 
L 642.632842 51.977755 
L 645.051279 50.046225 
L 647.469715 57.049382 
L 649.888151 59.31467 
L 652.306588 56.798427 
L 654.725024 50.607294 
L 657.14346 59.832656 
L 659.561897 56.398239 
L 661.980333 56.787355 
L 664.398769 59.020004 
L 666.817206 56.856516 
L 669.235642 53.107085 
L 671.654079 54.732787 
L 674.072515 54.905768 
L 676.490951 52.352194 
L 678.909388 55.62688 
L 681.327824 55.913187 
L 683.74626 50.693729 
L 686.164697 52.579196 
L 69.463428 50.082844 
L 71.881865 52.579196 
L 74.300301 50.693729 
L 76.718737 55.913187 
L 79.137174 55.62688 
L 81.55561 52.352194 
L 83.974046 54.905768 
L 86.392483 54.732787 
L 88.810919 53.107085 
L 91.229356 56.856516 
L 93.647792 59.020004 
L 96.066228 56.787355 
L 98.484665 56.398239 
L 100.903101 59.832656 
L 103.321537 50.607294 
L 105.739974 56.798427 
L 108.15841 59.31467 
L 110.576846 57.049382 
L 112.995283 50.046225 
L 115.413719 51.977755 
L 117.832155 62.381353 
L 120.250592 67.458642 
L 122.669028 58.47645 
L 125.087464 52.87514 
L 127.505901 50.993409 
L 129.924337 51.944021 
L 132.342773 62.167188 
L 134.76121 58.05927 
L 137.179646 54.207751 
L 139.598082 60.079647 
L 142.016519 49.939792 
L 144.434955 46.763193 
L 146.853391 54.997245 
L 149.271828 60.704258 
L 151.690264 53.588581 
L 154.108701 47.953299 
L 156.527137 55.783435 
L 158.945573 61.271861 
L 161.36401 59.103116 
L 163.782446 56.443877 
L 166.200882 55.553815 
L 168.619319 50.087857 
L 171.037755 56.537729 
L 173.456191 55.683963 
L 175.874628 58.894758 
L 178.293064 59.328295 
L 180.7115 57.056282 
L 183.129937 60.604989 
L 185.548373 59.900627 
L 187.966809 56.53203 
L 190.385246 50.524683 
L 192.803682 48.146604 
L 195.222118 50.123761 
L 197.640555 56.224867 
L 200.058991 61.251928 
L 202.477427 56.969274 
L 204.895864 55.790592 
L 207.3143 50.874156 
L 209.732736 49.788562 
L 212.151173 52.606801 
L 214.569609 56.569112 
L 216.988046 61.485051 
L 219.406482 61.620315 
L 221.824918 60.683036 
L 224.243355 53.486146 
L 226.661791 52.654005 
L 229.080227 55.833168 
L 231.498664 54.337903 
L 233.9171 55.643779 
L 236.335536 55.518522 
L 238.753973 59.173712 
L 241.172409 59.843568 
L 243.590845 46.926928 
L 246.009282 41.703411 
L 248.427718 52.427864 
L 250.846154 52.513451 
L 258.101463 57.983662 
L 260.5199 57.091629 
L 262.938336 51.928647 
L 265.356772 54.324218 
L 267.775209 51.910566 
L 270.193645 60.305279 
L 272.612081 64.131662 
L 275.030518 55.952322 
L 277.448954 53.036778 
L 279.86739 53.817862 
L 284.704263 61.204104 
L 287.1227 55.02774 
L 289.541136 52.047593 
L 291.959572 53.546946 
L 294.378009 59.92981 
L 296.796445 64.11582 
L 299.214881 56.628933 
L 301.633318 58.29678 
L 304.051754 58.625649 
L 306.47019 57.994272 
L 308.888627 56.572149 
L 311.307063 60.508277 
L 313.725499 64.00572 
L 316.143936 59.433025 
L 318.562372 53.243659 
L 320.980808 54.147032 
L 323.399245 59.975054 
L 325.817681 57.219417 
L 328.236117 57.213791 
L 330.654554 54.972252 
L 333.07299 56.152563 
L 335.491426 54.751797 
L 337.909863 57.065286 
L 340.328299 60.241317 
L 342.746735 56.904025 
L 345.165172 53.030599 
L 347.583608 51.825081 
L 350.002045 50.913808 
L 352.420481 52.564931 
L 354.838917 55.976703 
L 357.257354 52.881071 
L 359.67579 45.686295 
L 362.094226 50.64028 
L 364.512663 57.788331 
L 366.931099 58.73265 
L 369.349535 56.711561 
L 371.767972 56.307619 
L 374.186408 54.993243 
L 376.604844 84.372207 
L 376.604844 84.372207 
" clip-path="url(#p399c849a6d)" style="fill: none; stroke: #ff7f0e; stroke-width: 1.5; stroke-linecap: square"/>
   </g>
   <g id="line2d_12">
    <path d="M 379.023281 161.119736 
L 381.441717 81.477369 
L 383.860153 55.622069 
L 386.27859 54.06614 
L 388.697026 57.057917 
L 391.115462 62.994842 
L 393.533899 59.140445 
L 395.952335 60.084182 
L 398.370771 57.041628 
L 400.789208 57.494937 
L 403.207644 57.351942 
L 405.62608 54.005796 
L 408.044517 53.527887 
L 410.462953 56.751539 
L 412.88139 55.80384 
L 415.299826 58.590152 
L 417.718262 53.983222 
L 420.136699 54.630404 
L 422.555135 54.390088 
L 424.973571 53.599015 
L 427.392008 59.279031 
L 429.810444 55.470563 
L 432.22888 52.926066 
L 434.647317 53.805087 
L 437.065753 52.608444 
L 439.484189 58.094341 
L 441.902626 56.08135 
L 444.321062 57.470917 
L 446.739498 53.564385 
L 449.157935 56.617241 
L 451.576371 53.788907 
L 453.994807 58.124317 
L 456.413244 55.085578 
L 458.83168 50.47072 
L 461.250116 59.026782 
L 463.668553 62.171146 
L 466.086989 61.942153 
L 468.505425 61.213903 
L 470.923862 52.704592 
L 473.342298 62.963392 
L 475.760735 63.231562 
L 478.179171 52.507873 
L 480.597607 54.722769 
L 483.016044 61.467642 
L 485.43448 51.529079 
L 487.852916 53.712329 
L 490.271353 53.349585 
L 492.689789 51.058512 
L 495.108225 53.996797 
L 497.526662 56.371735 
L 499.945098 54.322239 
L 502.363534 56.179552 
L 504.781971 60.143347 
L 507.200407 62.286093 
L 509.618843 59.764346 
L 512.03728 54.752521 
L 514.455716 55.263571 
L 516.874152 53.322773 
L 519.292589 57.518808 
L 521.711025 64.646632 
L 524.129461 65.063698 
L 526.547898 59.182116 
L 528.966334 47.8472 
L 531.38477 50.629092 
L 533.803207 60.445396 
L 536.221643 52.87789 
L 538.640079 56.912638 
L 541.058516 61.435403 
L 543.476952 55.933122 
L 545.895389 56.799101 
L 548.313825 53.92679 
L 550.732261 56.452369 
L 553.150698 60.813329 
L 555.569134 58.094743 
L 557.98757 56.997752 
L 560.406007 61.000406 
L 562.824443 67.962933 
L 565.242879 60.602443 
L 567.661316 51.483217 
L 570.079752 50.488346 
L 572.498188 53.866983 
L 574.916625 55.58856 
L 577.335061 59.126017 
L 579.753497 63.724532 
L 582.171934 57.536984 
L 584.59037 60.319784 
L 587.008806 65.907384 
L 589.427243 67.31416 
L 591.845679 61.435073 
L 594.264115 51.964847 
L 596.682552 51.579583 
L 599.100988 52.611805 
L 601.519424 50.978925 
L 603.937861 57.337562 
L 606.356297 54.818509 
L 608.774734 46.75123 
L 611.19317 48.018828 
L 613.611606 53.118117 
L 616.030043 53.585164 
L 618.448479 49.111787 
L 620.866915 52.296921 
L 623.285352 55.163549 
L 625.703788 56.346191 
L 628.122224 59.400372 
L 630.540661 56.435427 
L 632.959097 53.886032 
L 635.377533 53.063547 
L 637.79597 53.817955 
L 640.214406 54.251522 
L 642.632842 53.136053 
L 645.051279 50.487002 
L 647.469715 60.157184 
L 649.888151 58.892166 
L 652.306588 49.177362 
L 654.725024 48.726877 
L 657.14346 46.098605 
L 659.561897 56.81411 
L 661.980333 61.96336 
L 664.398769 58.860688 
L 666.817206 58.115421 
L 669.235642 58.993587 
L 671.654079 59.701776 
L 674.072515 56.457149 
L 676.490951 60.109885 
L 678.909388 60.1217 
L 683.74626 55.314859 
L 686.164697 55.655384 
L 69.463428 56.983196 
L 71.881865 55.655384 
L 74.300301 55.314859 
L 79.137174 60.1217 
L 81.55561 60.109885 
L 83.974046 56.457149 
L 86.392483 59.701776 
L 88.810919 58.993587 
L 91.229356 58.115421 
L 93.647792 58.860688 
L 96.066228 61.96336 
L 98.484665 56.81411 
L 100.903101 46.098605 
L 103.321537 48.726877 
L 105.739974 49.177362 
L 108.15841 58.892166 
L 110.576846 60.157184 
L 112.995283 50.487002 
L 115.413719 53.136053 
L 117.832155 54.251522 
L 120.250592 53.817955 
L 122.669028 53.063547 
L 125.087464 53.886032 
L 127.505901 56.435427 
L 129.924337 59.400372 
L 132.342773 56.346191 
L 134.76121 55.163549 
L 137.179646 52.296921 
L 139.598082 49.111787 
L 142.016519 53.585164 
L 144.434955 53.118117 
L 146.853391 48.018828 
L 149.271828 46.75123 
L 151.690264 54.818509 
L 154.108701 57.337562 
L 156.527137 50.978925 
L 158.945573 52.611805 
L 161.36401 51.579583 
L 163.782446 51.964847 
L 166.200882 61.435073 
L 168.619319 67.31416 
L 171.037755 65.907384 
L 173.456191 60.319784 
L 175.874628 57.536984 
L 178.293064 63.724532 
L 180.7115 59.126017 
L 183.129937 55.58856 
L 185.548373 53.866983 
L 187.966809 50.488346 
L 190.385246 51.483217 
L 192.803682 60.602443 
L 195.222118 67.962933 
L 197.640555 61.000406 
L 200.058991 56.997752 
L 202.477427 58.094743 
L 204.895864 60.813329 
L 207.3143 56.452369 
L 209.732736 53.92679 
L 212.151173 56.799101 
L 214.569609 55.933122 
L 216.988046 61.435403 
L 219.406482 56.912638 
L 221.824918 52.87789 
L 224.243355 60.445396 
L 226.661791 50.629092 
L 229.080227 47.8472 
L 231.498664 59.182116 
L 233.9171 65.063698 
L 236.335536 64.646632 
L 238.753973 57.518808 
L 241.172409 53.322773 
L 243.590845 55.263571 
L 246.009282 54.752521 
L 248.427718 59.764346 
L 250.846154 62.286093 
L 253.264591 60.143347 
L 255.683027 56.179552 
L 258.101463 54.322239 
L 260.5199 56.371735 
L 262.938336 53.996797 
L 265.356772 51.058512 
L 267.775209 53.349585 
L 270.193645 53.712329 
L 272.612081 51.529079 
L 275.030518 61.467642 
L 277.448954 54.722769 
L 279.86739 52.507873 
L 282.285827 63.231562 
L 284.704263 62.963392 
L 287.1227 52.704592 
L 289.541136 61.213903 
L 291.959572 61.942153 
L 294.378009 62.171146 
L 296.796445 59.026782 
L 299.214881 50.47072 
L 301.633318 55.085578 
L 304.051754 58.124317 
L 306.47019 53.788907 
L 308.888627 56.617241 
L 311.307063 53.564385 
L 313.725499 57.470917 
L 316.143936 56.08135 
L 318.562372 58.094341 
L 320.980808 52.608444 
L 323.399245 53.805087 
L 325.817681 52.926066 
L 328.236117 55.470563 
L 330.654554 59.279031 
L 333.07299 53.599015 
L 335.491426 54.390088 
L 337.909863 54.630404 
L 340.328299 53.983222 
L 342.746735 58.590152 
L 345.165172 55.80384 
L 347.583608 56.751539 
L 350.002045 53.527887 
L 352.420481 54.005796 
L 354.838917 57.351942 
L 357.257354 57.494937 
L 359.67579 57.041628 
L 362.094226 60.084182 
L 364.512663 59.140445 
L 366.931099 62.994842 
L 369.349535 57.057917 
L 371.767972 54.06614 
L 374.186408 55.622069 
L 376.604844 81.477369 
L 376.604844 81.477369 
" clip-path="url(#p399c849a6d)" style="fill: none; stroke: #2ca02c; stroke-width: 1.5; stroke-linecap: square"/>
   </g>
   <g id="patch_3">
    <path d="M 38.628365 167.090552 
L 38.628365 35.732595 
" style="fill: none; stroke: #000000; stroke-width: 0.8; stroke-linejoin: miter; stroke-linecap: square"/>
   </g>
   <g id="patch_4">
    <path d="M 716.99976 167.090552 
L 716.99976 35.732595 
" style="fill: none; stroke: #000000; stroke-width: 0.8; stroke-linejoin: miter; stroke-linecap: square"/>
   </g>
   <g id="patch_5">
    <path d="M 38.628365 167.090552 
L 716.99976 167.090552 
" style="fill: none; stroke: #000000; stroke-width: 0.8; stroke-linejoin: miter; stroke-linecap: square"/>
   </g>
   <g id="patch_6">
    <path d="M 38.628365 35.732595 
L 716.99976 35.732595 
" style="fill: none; stroke: #000000; stroke-width: 0.8; stroke-linejoin: miter; stroke-linecap: square"/>
   </g>
   <g id="text_10">
    <!-- White Noise -->
    <g transform="translate(341.816875 29.732595) scale(0.12 -0.12)">
     <defs>
      <path id="DejaVuSans-57" d="M 213 4666 
L 850 4666 
L 1831 722 
L 2809 4666 
L 3519 4666 
L 4500 722 
L 5478 4666 
L 6119 4666 
L 4947 0 
L 4153 0 
L 3169 4050 
L 2175 0 
L 1381 0 
L 213 4666 
z
" transform="scale(0.015625)"/>
      <path id="DejaVuSans-68" d="M 3513 2113 
L 3513 0 
L 2938 0 
L 2938 2094 
Q 2938 2591 2744 2837 
Q 2550 3084 2163 3084 
Q 1697 3084 1428 2787 
Q 1159 2491 1159 1978 
L 1159 0 
L 581 0 
L 581 4863 
L 1159 4863 
L 1159 2956 
Q 1366 3272 1645 3428 
Q 1925 3584 2291 3584 
Q 2894 3584 3203 3211 
Q 3513 2838 3513 2113 
z
" transform="scale(0.015625)"/>
      <path id="DejaVuSans-69" d="M 603 3500 
L 1178 3500 
L 1178 0 
L 603 0 
L 603 3500 
z
M 603 4863 
L 1178 4863 
L 1178 4134 
L 603 4134 
L 603 4863 
z
" transform="scale(0.015625)"/>
      <path id="DejaVuSans-74" d="M 1172 4494 
L 1172 3500 
L 2356 3500 
L 2356 3053 
L 1172 3053 
L 1172 1153 
Q 1172 725 1289 603 
Q 1406 481 1766 481 
L 2356 481 
L 2356 0 
L 1766 0 
Q 1100 0 847 248 
Q 594 497 594 1153 
L 594 3053 
L 172 3053 
L 172 3500 
L 594 3500 
L 594 4494 
L 1172 4494 
z
" transform="scale(0.015625)"/>
      <path id="DejaVuSans-65" d="M 3597 1894 
L 3597 1613 
L 953 1613 
Q 991 1019 1311 708 
Q 1631 397 2203 397 
Q 2534 397 2845 478 
Q 3156 559 3463 722 
L 3463 178 
Q 3153 47 2828 -22 
Q 2503 -91 2169 -91 
Q 1331 -91 842 396 
Q 353 884 353 1716 
Q 353 2575 817 3079 
Q 1281 3584 2069 3584 
Q 2775 3584 3186 3129 
Q 3597 2675 3597 1894 
z
M 3022 2063 
Q 3016 2534 2758 2815 
Q 2500 3097 2075 3097 
Q 1594 3097 1305 2825 
Q 1016 2553 972 2059 
L 3022 2063 
z
" transform="scale(0.015625)"/>
      <path id="DejaVuSans-20" transform="scale(0.015625)"/>
      <path id="DejaVuSans-4e" d="M 628 4666 
L 1478 4666 
L 3547 763 
L 3547 4666 
L 4159 4666 
L 4159 0 
L 3309 0 
L 1241 3903 
L 1241 0 
L 628 0 
L 628 4666 
z
" transform="scale(0.015625)"/>
      <path id="DejaVuSans-6f" d="M 1959 3097 
Q 1497 3097 1228 2736 
Q 959 2375 959 1747 
Q 959 1119 1226 758 
Q 1494 397 1959 397 
Q 2419 397 2687 759 
Q 2956 1122 2956 1747 
Q 2956 2369 2687 2733 
Q 2419 3097 1959 3097 
z
M 1959 3584 
Q 2709 3584 3137 3096 
Q 3566 2609 3566 1747 
Q 3566 888 3137 398 
Q 2709 -91 1959 -91 
Q 1206 -91 779 398 
Q 353 888 353 1747 
Q 353 2609 779 3096 
Q 1206 3584 1959 3584 
z
" transform="scale(0.015625)"/>
      <path id="DejaVuSans-73" d="M 2834 3397 
L 2834 2853 
Q 2591 2978 2328 3040 
Q 2066 3103 1784 3103 
Q 1356 3103 1142 2972 
Q 928 2841 928 2578 
Q 928 2378 1081 2264 
Q 1234 2150 1697 2047 
L 1894 2003 
Q 2506 1872 2764 1633 
Q 3022 1394 3022 966 
Q 3022 478 2636 193 
Q 2250 -91 1575 -91 
Q 1294 -91 989 -36 
Q 684 19 347 128 
L 347 722 
Q 666 556 975 473 
Q 1284 391 1588 391 
Q 1994 391 2212 530 
Q 2431 669 2431 922 
Q 2431 1156 2273 1281 
Q 2116 1406 1581 1522 
L 1381 1569 
Q 847 1681 609 1914 
Q 372 2147 372 2553 
Q 372 3047 722 3315 
Q 1072 3584 1716 3584 
Q 2034 3584 2315 3537 
Q 2597 3491 2834 3397 
z
" transform="scale(0.015625)"/>
     </defs>
     <use xlink:href="#DejaVuSans-57"/>
     <use xlink:href="#DejaVuSans-68" x="98.876953"/>
     <use xlink:href="#DejaVuSans-69" x="162.255859"/>
     <use xlink:href="#DejaVuSans-74" x="190.039062"/>
     <use xlink:href="#DejaVuSans-65" x="229.248047"/>
     <use xlink:href="#DejaVuSans-20" x="290.771484"/>
     <use xlink:href="#DejaVuSans-4e" x="322.558594"/>
     <use xlink:href="#DejaVuSans-6f" x="397.363281"/>
     <use xlink:href="#DejaVuSans-69" x="458.544922"/>
     <use xlink:href="#DejaVuSans-73" x="486.328125"/>
     <use xlink:href="#DejaVuSans-65" x="538.427734"/>
    </g>
   </g>
  </g>
  <g id="axes_2">
   <g id="patch_7">
    <path d="M 38.628365 336.245239 
L 716.99976 336.245239 
L 716.99976 204.887282 
L 38.628365 204.887282 
z
" style="fill: #ffffff"/>
   </g>
   <g id="matplotlib.axis_3">
    <g id="xtick_6">
     <g id="line2d_13">
      <g>
       <use xlink:href="#ma0524bde89" x="131.375399" y="336.245239" style="stroke: #000000; stroke-width: 0.8"/>
      </g>
     </g>
     <g id="text_11">
      <!-- −0.4 -->
      <g transform="translate(119.233993 350.843676) scale(0.1 -0.1)">
       <use xlink:href="#DejaVuSans-2212"/>
       <use xlink:href="#DejaVuSans-30" x="83.789062"/>
       <use xlink:href="#DejaVuSans-2e" x="147.412109"/>
       <use xlink:href="#DejaVuSans-34" x="179.199219"/>
      </g>
     </g>
    </g>
    <g id="xtick_7">
     <g id="line2d_14">
      <g>
       <use xlink:href="#ma0524bde89" x="255.19934" y="336.245239" style="stroke: #000000; stroke-width: 0.8"/>
      </g>
     </g>
     <g id="text_12">
      <!-- −0.2 -->
      <g transform="translate(243.057934 350.843676) scale(0.1 -0.1)">
       <use xlink:href="#DejaVuSans-2212"/>
       <use xlink:href="#DejaVuSans-30" x="83.789062"/>
       <use xlink:href="#DejaVuSans-2e" x="147.412109"/>
       <use xlink:href="#DejaVuSans-32" x="179.199219"/>
      </g>
     </g>
    </g>
    <g id="xtick_8">
     <g id="line2d_15">
      <g>
       <use xlink:href="#ma0524bde89" x="379.023281" y="336.245239" style="stroke: #000000; stroke-width: 0.8"/>
      </g>
     </g>
     <g id="text_13">
      <!-- 0.0 -->
      <g transform="translate(371.071718 350.843676) scale(0.1 -0.1)">
       <use xlink:href="#DejaVuSans-30"/>
       <use xlink:href="#DejaVuSans-2e" x="63.623047"/>
       <use xlink:href="#DejaVuSans-30" x="95.410156"/>
      </g>
     </g>
    </g>
    <g id="xtick_9">
     <g id="line2d_16">
      <g>
       <use xlink:href="#ma0524bde89" x="502.847222" y="336.245239" style="stroke: #000000; stroke-width: 0.8"/>
      </g>
     </g>
     <g id="text_14">
      <!-- 0.2 -->
      <g transform="translate(494.895659 350.843676) scale(0.1 -0.1)">
       <use xlink:href="#DejaVuSans-30"/>
       <use xlink:href="#DejaVuSans-2e" x="63.623047"/>
       <use xlink:href="#DejaVuSans-32" x="95.410156"/>
      </g>
     </g>
    </g>
    <g id="xtick_10">
     <g id="line2d_17">
      <g>
       <use xlink:href="#ma0524bde89" x="626.671162" y="336.245239" style="stroke: #000000; stroke-width: 0.8"/>
      </g>
     </g>
     <g id="text_15">
      <!-- 0.4 -->
      <g transform="translate(618.7196 350.843676) scale(0.1 -0.1)">
       <use xlink:href="#DejaVuSans-30"/>
       <use xlink:href="#DejaVuSans-2e" x="63.623047"/>
       <use xlink:href="#DejaVuSans-34" x="95.410156"/>
      </g>
     </g>
    </g>
   </g>
   <g id="matplotlib.axis_4">
    <g id="ytick_5">
     <g id="line2d_18">
      <g>
       <use xlink:href="#me9eb464c5d" x="38.628365" y="330.290851" style="stroke: #000000; stroke-width: 0.8"/>
      </g>
     </g>
     <g id="text_16">
      <!-- 0 -->
      <g transform="translate(25.265865 334.09007) scale(0.1 -0.1)">
       <use xlink:href="#DejaVuSans-30"/>
      </g>
     </g>
    </g>
    <g id="ytick_6">
     <g id="line2d_19">
      <g>
       <use xlink:href="#me9eb464c5d" x="38.628365" y="301.526539" style="stroke: #000000; stroke-width: 0.8"/>
      </g>
     </g>
     <g id="text_17">
      <!-- 10 -->
      <g transform="translate(18.903365 305.325758) scale(0.1 -0.1)">
       <use xlink:href="#DejaVuSans-31"/>
       <use xlink:href="#DejaVuSans-30" x="63.623047"/>
      </g>
     </g>
    </g>
    <g id="ytick_7">
     <g id="line2d_20">
      <g>
       <use xlink:href="#me9eb464c5d" x="38.628365" y="272.762228" style="stroke: #000000; stroke-width: 0.8"/>
      </g>
     </g>
     <g id="text_18">
      <!-- 20 -->
      <g transform="translate(18.903365 276.561447) scale(0.1 -0.1)">
       <use xlink:href="#DejaVuSans-32"/>
       <use xlink:href="#DejaVuSans-30" x="63.623047"/>
      </g>
     </g>
    </g>
    <g id="ytick_8">
     <g id="line2d_21">
      <g>
       <use xlink:href="#me9eb464c5d" x="38.628365" y="243.997916" style="stroke: #000000; stroke-width: 0.8"/>
      </g>
     </g>
     <g id="text_19">
      <!-- 30 -->
      <g transform="translate(18.903365 247.797135) scale(0.1 -0.1)">
       <defs>
        <path id="DejaVuSans-33" d="M 2597 2516 
Q 3050 2419 3304 2112 
Q 3559 1806 3559 1356 
Q 3559 666 3084 287 
Q 2609 -91 1734 -91 
Q 1441 -91 1130 -33 
Q 819 25 488 141 
L 488 750 
Q 750 597 1062 519 
Q 1375 441 1716 441 
Q 2309 441 2620 675 
Q 2931 909 2931 1356 
Q 2931 1769 2642 2001 
Q 2353 2234 1838 2234 
L 1294 2234 
L 1294 2753 
L 1863 2753 
Q 2328 2753 2575 2939 
Q 2822 3125 2822 3475 
Q 2822 3834 2567 4026 
Q 2313 4219 1838 4219 
Q 1578 4219 1281 4162 
Q 984 4106 628 3988 
L 628 4550 
Q 988 4650 1302 4700 
Q 1616 4750 1894 4750 
Q 2613 4750 3031 4423 
Q 3450 4097 3450 3541 
Q 3450 3153 3228 2886 
Q 3006 2619 2597 2516 
z
" transform="scale(0.015625)"/>
       </defs>
       <use xlink:href="#DejaVuSans-33"/>
       <use xlink:href="#DejaVuSans-30" x="63.623047"/>
      </g>
     </g>
    </g>
    <g id="ytick_9">
     <g id="line2d_22">
      <g>
       <use xlink:href="#me9eb464c5d" x="38.628365" y="215.233605" style="stroke: #000000; stroke-width: 0.8"/>
      </g>
     </g>
     <g id="text_20">
      <!-- 40 -->
      <g transform="translate(18.903365 219.032823) scale(0.1 -0.1)">
       <use xlink:href="#DejaVuSans-34"/>
       <use xlink:href="#DejaVuSans-30" x="63.623047"/>
      </g>
     </g>
    </g>
   </g>
   <g id="line2d_23">
    <path d="M 379.023281 295.226942 
L 381.441717 212.155311 
L 383.860153 288.595851 
L 386.27859 315.768014 
L 388.697026 322.912968 
L 391.115462 325.91723 
L 393.533899 327.222031 
L 395.952335 327.974092 
L 398.370771 328.508595 
L 403.207644 329.124816 
L 408.044517 329.507847 
L 412.88139 329.70661 
L 432.22888 330.052684 
L 478.179171 330.219634 
L 625.703788 330.272575 
L 686.164697 330.274423 
L 69.463428 330.273302 
L 287.1227 330.211854 
L 333.07299 329.978435 
L 347.583608 329.630816 
L 352.420481 329.365174 
L 357.257354 328.858219 
L 359.67579 328.508595 
L 362.094226 327.974092 
L 364.512663 327.222031 
L 366.931099 325.91723 
L 369.349535 322.912968 
L 371.767972 315.768014 
L 374.186408 288.595851 
L 376.604844 212.155311 
L 376.604844 212.155311 
" clip-path="url(#p272c07f778)" style="fill: none; stroke: #1f77b4; stroke-width: 1.5; stroke-linecap: square"/>
   </g>
   <g id="line2d_24">
    <path d="M 379.023281 295.159054 
L 381.441717 210.858098 
L 383.860153 288.366708 
L 386.27859 316.13235 
L 388.697026 322.802533 
L 391.115462 325.680445 
L 393.533899 327.130736 
L 395.952335 327.87428 
L 400.789208 328.851776 
L 403.207644 329.153354 
L 410.462953 329.599565 
L 420.136699 329.899122 
L 441.902626 330.122709 
L 468.505425 330.200841 
L 536.221643 330.258896 
L 686.164697 330.273604 
L 69.463428 330.273329 
L 304.051754 330.170394 
L 333.07299 329.974408 
L 345.165172 329.69866 
L 352.420481 329.331103 
L 354.838917 329.153354 
L 357.257354 328.851776 
L 362.094226 327.87428 
L 364.512663 327.130736 
L 366.931099 325.680445 
L 369.349535 322.802533 
L 371.767972 316.13235 
L 374.186408 288.366708 
L 376.604844 210.858098 
L 376.604844 210.858098 
" clip-path="url(#p272c07f778)" style="fill: none; stroke: #ff7f0e; stroke-width: 1.5; stroke-linecap: square"/>
   </g>
   <g id="line2d_25">
    <path d="M 379.023281 293.568276 
L 381.441717 210.87625 
L 383.860153 288.647354 
L 386.27859 316.009454 
L 388.697026 322.730734 
L 391.115462 325.826424 
L 393.533899 327.148145 
L 395.952335 328.013105 
L 398.370771 328.518743 
L 400.789208 328.898227 
L 405.62608 329.340808 
L 412.88139 329.710031 
L 422.555135 329.934768 
L 444.321062 330.132808 
L 524.129461 330.25563 
L 686.164697 330.273938 
L 69.463428 330.274087 
L 296.796445 330.189958 
L 337.909863 329.892368 
L 347.583608 329.621067 
L 354.838917 329.16335 
L 357.257354 328.898227 
L 359.67579 328.518743 
L 362.094226 328.013105 
L 364.512663 327.148145 
L 366.931099 325.826424 
L 369.349535 322.730734 
L 371.767972 316.009454 
L 374.186408 288.647354 
L 376.604844 210.87625 
L 376.604844 210.87625 
" clip-path="url(#p272c07f778)" style="fill: none; stroke: #2ca02c; stroke-width: 1.5; stroke-linecap: square"/>
   </g>
   <g id="patch_8">
    <path d="M 38.628365 336.245239 
L 38.628365 204.887282 
" style="fill: none; stroke: #000000; stroke-width: 0.8; stroke-linejoin: miter; stroke-linecap: square"/>
   </g>
   <g id="patch_9">
    <path d="M 716.99976 336.245239 
L 716.99976 204.887282 
" style="fill: none; stroke: #000000; stroke-width: 0.8; stroke-linejoin: miter; stroke-linecap: square"/>
   </g>
   <g id="patch_10">
    <path d="M 38.628365 336.245239 
L 716.99976 336.245239 
" style="fill: none; stroke: #000000; stroke-width: 0.8; stroke-linejoin: miter; stroke-linecap: square"/>
   </g>
   <g id="patch_11">
    <path d="M 38.628365 204.887282 
L 716.99976 204.887282 
" style="fill: none; stroke: #000000; stroke-width: 0.8; stroke-linejoin: miter; stroke-linecap: square"/>
   </g>
   <g id="text_21">
    <!-- Random Walk -->
    <g transform="translate(336.700937 198.887282) scale(0.12 -0.12)">
     <defs>
      <path id="DejaVuSans-52" d="M 2841 2188 
Q 3044 2119 3236 1894 
Q 3428 1669 3622 1275 
L 4263 0 
L 3584 0 
L 2988 1197 
Q 2756 1666 2539 1819 
Q 2322 1972 1947 1972 
L 1259 1972 
L 1259 0 
L 628 0 
L 628 4666 
L 2053 4666 
Q 2853 4666 3247 4331 
Q 3641 3997 3641 3322 
Q 3641 2881 3436 2590 
Q 3231 2300 2841 2188 
z
M 1259 4147 
L 1259 2491 
L 2053 2491 
Q 2509 2491 2742 2702 
Q 2975 2913 2975 3322 
Q 2975 3731 2742 3939 
Q 2509 4147 2053 4147 
L 1259 4147 
z
" transform="scale(0.015625)"/>
      <path id="DejaVuSans-61" d="M 2194 1759 
Q 1497 1759 1228 1600 
Q 959 1441 959 1056 
Q 959 750 1161 570 
Q 1363 391 1709 391 
Q 2188 391 2477 730 
Q 2766 1069 2766 1631 
L 2766 1759 
L 2194 1759 
z
M 3341 1997 
L 3341 0 
L 2766 0 
L 2766 531 
Q 2569 213 2275 61 
Q 1981 -91 1556 -91 
Q 1019 -91 701 211 
Q 384 513 384 1019 
Q 384 1609 779 1909 
Q 1175 2209 1959 2209 
L 2766 2209 
L 2766 2266 
Q 2766 2663 2505 2880 
Q 2244 3097 1772 3097 
Q 1472 3097 1187 3025 
Q 903 2953 641 2809 
L 641 3341 
Q 956 3463 1253 3523 
Q 1550 3584 1831 3584 
Q 2591 3584 2966 3190 
Q 3341 2797 3341 1997 
z
" transform="scale(0.015625)"/>
      <path id="DejaVuSans-6e" d="M 3513 2113 
L 3513 0 
L 2938 0 
L 2938 2094 
Q 2938 2591 2744 2837 
Q 2550 3084 2163 3084 
Q 1697 3084 1428 2787 
Q 1159 2491 1159 1978 
L 1159 0 
L 581 0 
L 581 3500 
L 1159 3500 
L 1159 2956 
Q 1366 3272 1645 3428 
Q 1925 3584 2291 3584 
Q 2894 3584 3203 3211 
Q 3513 2838 3513 2113 
z
" transform="scale(0.015625)"/>
      <path id="DejaVuSans-64" d="M 2906 2969 
L 2906 4863 
L 3481 4863 
L 3481 0 
L 2906 0 
L 2906 525 
Q 2725 213 2448 61 
Q 2172 -91 1784 -91 
Q 1150 -91 751 415 
Q 353 922 353 1747 
Q 353 2572 751 3078 
Q 1150 3584 1784 3584 
Q 2172 3584 2448 3432 
Q 2725 3281 2906 2969 
z
M 947 1747 
Q 947 1113 1208 752 
Q 1469 391 1925 391 
Q 2381 391 2643 752 
Q 2906 1113 2906 1747 
Q 2906 2381 2643 2742 
Q 2381 3103 1925 3103 
Q 1469 3103 1208 2742 
Q 947 2381 947 1747 
z
" transform="scale(0.015625)"/>
      <path id="DejaVuSans-6d" d="M 3328 2828 
Q 3544 3216 3844 3400 
Q 4144 3584 4550 3584 
Q 5097 3584 5394 3201 
Q 5691 2819 5691 2113 
L 5691 0 
L 5113 0 
L 5113 2094 
Q 5113 2597 4934 2840 
Q 4756 3084 4391 3084 
Q 3944 3084 3684 2787 
Q 3425 2491 3425 1978 
L 3425 0 
L 2847 0 
L 2847 2094 
Q 2847 2600 2669 2842 
Q 2491 3084 2119 3084 
Q 1678 3084 1418 2786 
Q 1159 2488 1159 1978 
L 1159 0 
L 581 0 
L 581 3500 
L 1159 3500 
L 1159 2956 
Q 1356 3278 1631 3431 
Q 1906 3584 2284 3584 
Q 2666 3584 2933 3390 
Q 3200 3197 3328 2828 
z
" transform="scale(0.015625)"/>
      <path id="DejaVuSans-6c" d="M 603 4863 
L 1178 4863 
L 1178 0 
L 603 0 
L 603 4863 
z
" transform="scale(0.015625)"/>
      <path id="DejaVuSans-6b" d="M 581 4863 
L 1159 4863 
L 1159 1991 
L 2875 3500 
L 3609 3500 
L 1753 1863 
L 3688 0 
L 2938 0 
L 1159 1709 
L 1159 0 
L 581 0 
L 581 4863 
z
" transform="scale(0.015625)"/>
     </defs>
     <use xlink:href="#DejaVuSans-52"/>
     <use xlink:href="#DejaVuSans-61" x="67.232422"/>
     <use xlink:href="#DejaVuSans-6e" x="128.511719"/>
     <use xlink:href="#DejaVuSans-64" x="191.890625"/>
     <use xlink:href="#DejaVuSans-6f" x="255.367188"/>
     <use xlink:href="#DejaVuSans-6d" x="316.548828"/>
     <use xlink:href="#DejaVuSans-20" x="413.960938"/>
     <use xlink:href="#DejaVuSans-57" x="445.748047"/>
     <use xlink:href="#DejaVuSans-61" x="538.25"/>
     <use xlink:href="#DejaVuSans-6c" x="599.529297"/>
     <use xlink:href="#DejaVuSans-6b" x="627.3125"/>
    </g>
   </g>
  </g>
  <g id="axes_3">
   <g id="patch_12">
    <path d="M 38.628365 505.399926 
L 716.99976 505.399926 
L 716.99976 374.041969 
L 38.628365 374.041969 
z
" style="fill: #ffffff"/>
   </g>
   <g id="matplotlib.axis_5">
    <g id="xtick_11">
     <g id="line2d_26">
      <g>
       <use xlink:href="#ma0524bde89" x="131.375399" y="505.399926" style="stroke: #000000; stroke-width: 0.8"/>
      </g>
     </g>
     <g id="text_22">
      <!-- −0.4 -->
      <g transform="translate(119.233993 519.998363) scale(0.1 -0.1)">
       <use xlink:href="#DejaVuSans-2212"/>
       <use xlink:href="#DejaVuSans-30" x="83.789062"/>
       <use xlink:href="#DejaVuSans-2e" x="147.412109"/>
       <use xlink:href="#DejaVuSans-34" x="179.199219"/>
      </g>
     </g>
    </g>
    <g id="xtick_12">
     <g id="line2d_27">
      <g>
       <use xlink:href="#ma0524bde89" x="255.19934" y="505.399926" style="stroke: #000000; stroke-width: 0.8"/>
      </g>
     </g>
     <g id="text_23">
      <!-- −0.2 -->
      <g transform="translate(243.057934 519.998363) scale(0.1 -0.1)">
       <use xlink:href="#DejaVuSans-2212"/>
       <use xlink:href="#DejaVuSans-30" x="83.789062"/>
       <use xlink:href="#DejaVuSans-2e" x="147.412109"/>
       <use xlink:href="#DejaVuSans-32" x="179.199219"/>
      </g>
     </g>
    </g>
    <g id="xtick_13">
     <g id="line2d_28">
      <g>
       <use xlink:href="#ma0524bde89" x="379.023281" y="505.399926" style="stroke: #000000; stroke-width: 0.8"/>
      </g>
     </g>
     <g id="text_24">
      <!-- 0.0 -->
      <g transform="translate(371.071718 519.998363) scale(0.1 -0.1)">
       <use xlink:href="#DejaVuSans-30"/>
       <use xlink:href="#DejaVuSans-2e" x="63.623047"/>
       <use xlink:href="#DejaVuSans-30" x="95.410156"/>
      </g>
     </g>
    </g>
    <g id="xtick_14">
     <g id="line2d_29">
      <g>
       <use xlink:href="#ma0524bde89" x="502.847222" y="505.399926" style="stroke: #000000; stroke-width: 0.8"/>
      </g>
     </g>
     <g id="text_25">
      <!-- 0.2 -->
      <g transform="translate(494.895659 519.998363) scale(0.1 -0.1)">
       <use xlink:href="#DejaVuSans-30"/>
       <use xlink:href="#DejaVuSans-2e" x="63.623047"/>
       <use xlink:href="#DejaVuSans-32" x="95.410156"/>
      </g>
     </g>
    </g>
    <g id="xtick_15">
     <g id="line2d_30">
      <g>
       <use xlink:href="#ma0524bde89" x="626.671162" y="505.399926" style="stroke: #000000; stroke-width: 0.8"/>
      </g>
     </g>
     <g id="text_26">
      <!-- 0.4 -->
      <g transform="translate(618.7196 519.998363) scale(0.1 -0.1)">
       <use xlink:href="#DejaVuSans-30"/>
       <use xlink:href="#DejaVuSans-2e" x="63.623047"/>
       <use xlink:href="#DejaVuSans-34" x="95.410156"/>
      </g>
     </g>
    </g>
   </g>
   <g id="matplotlib.axis_6">
    <g id="ytick_10">
     <g id="line2d_31">
      <g>
       <use xlink:href="#me9eb464c5d" x="38.628365" y="499.445937" style="stroke: #000000; stroke-width: 0.8"/>
      </g>
     </g>
     <g id="text_27">
      <!-- 0 -->
      <g transform="translate(25.265865 503.245156) scale(0.1 -0.1)">
       <use xlink:href="#DejaVuSans-30"/>
      </g>
     </g>
    </g>
    <g id="ytick_11">
     <g id="line2d_32">
      <g>
       <use xlink:href="#me9eb464c5d" x="38.628365" y="469.98469" style="stroke: #000000; stroke-width: 0.8"/>
      </g>
     </g>
     <g id="text_28">
      <!-- 10 -->
      <g transform="translate(18.903365 473.783909) scale(0.1 -0.1)">
       <use xlink:href="#DejaVuSans-31"/>
       <use xlink:href="#DejaVuSans-30" x="63.623047"/>
      </g>
     </g>
    </g>
    <g id="ytick_12">
     <g id="line2d_33">
      <g>
       <use xlink:href="#me9eb464c5d" x="38.628365" y="440.523443" style="stroke: #000000; stroke-width: 0.8"/>
      </g>
     </g>
     <g id="text_29">
      <!-- 20 -->
      <g transform="translate(18.903365 444.322662) scale(0.1 -0.1)">
       <use xlink:href="#DejaVuSans-32"/>
       <use xlink:href="#DejaVuSans-30" x="63.623047"/>
      </g>
     </g>
    </g>
    <g id="ytick_13">
     <g id="line2d_34">
      <g>
       <use xlink:href="#me9eb464c5d" x="38.628365" y="411.062196" style="stroke: #000000; stroke-width: 0.8"/>
      </g>
     </g>
     <g id="text_30">
      <!-- 30 -->
      <g transform="translate(18.903365 414.861415) scale(0.1 -0.1)">
       <use xlink:href="#DejaVuSans-33"/>
       <use xlink:href="#DejaVuSans-30" x="63.623047"/>
      </g>
     </g>
    </g>
    <g id="ytick_14">
     <g id="line2d_35">
      <g>
       <use xlink:href="#me9eb464c5d" x="38.628365" y="381.600949" style="stroke: #000000; stroke-width: 0.8"/>
      </g>
     </g>
     <g id="text_31">
      <!-- 40 -->
      <g transform="translate(18.903365 385.400168) scale(0.1 -0.1)">
       <use xlink:href="#DejaVuSans-34"/>
       <use xlink:href="#DejaVuSans-30" x="63.623047"/>
      </g>
     </g>
    </g>
   </g>
   <g id="line2d_36">
    <path d="M 379.023281 463.557946 
L 381.441717 380.69137 
L 383.860153 456.679989 
L 386.27859 484.593375 
L 388.697026 491.89774 
L 391.115462 494.961208 
L 393.533899 496.302552 
L 395.952335 497.071159 
L 398.370771 497.620518 
L 403.207644 498.251263 
L 408.044517 498.64407 
L 412.88139 498.84745 
L 432.22888 499.201818 
L 478.179171 499.372958 
L 623.285352 499.426924 
L 686.164697 499.42911 
L 69.463428 499.427964 
L 313.725499 499.284919 
L 335.491426 499.080038 
L 347.583608 498.769794 
L 352.420481 498.49711 
L 357.257354 497.977264 
L 359.67579 497.620518 
L 362.094226 497.071159 
L 364.512663 496.302552 
L 366.931099 494.961208 
L 369.349535 491.89774 
L 371.767972 484.593375 
L 374.186408 456.679989 
L 376.604844 380.69137 
L 376.604844 380.69137 
" clip-path="url(#p45065737ab)" style="fill: none; stroke: #1f77b4; stroke-width: 1.5; stroke-linecap: square"/>
   </g>
   <g id="line2d_37">
    <path d="M 379.023281 463.494365 
L 381.441717 380.084447 
L 383.860153 456.703223 
L 386.27859 484.913295 
L 388.697026 491.77594 
L 391.115462 494.722199 
L 393.533899 496.206424 
L 395.952335 496.969473 
L 400.789208 497.970571 
L 403.207644 498.280162 
L 410.462953 498.737994 
L 420.136699 499.044558 
L 441.902626 499.273642 
L 468.505425 499.353722 
L 536.221643 499.413187 
L 686.164697 499.428261 
L 69.463428 499.427991 
L 304.051754 499.32254 
L 333.07299 499.121664 
L 345.165172 498.83906 
L 352.420481 498.462476 
L 354.838917 498.280162 
L 357.257354 497.970571 
L 362.094226 496.969473 
L 364.512663 496.206424 
L 366.931099 494.722199 
L 369.349535 491.77594 
L 371.767972 484.913295 
L 374.186408 456.703223 
L 376.604844 380.084447 
L 376.604844 380.084447 
" clip-path="url(#p45065737ab)" style="fill: none; stroke: #ff7f0e; stroke-width: 1.5; stroke-linecap: square"/>
   </g>
   <g id="line2d_38">
    <path d="M 379.023281 461.835496 
L 381.441717 380.012785 
L 383.860153 456.996877 
L 386.27859 484.805502 
L 388.697026 491.714286 
L 391.115462 494.87235 
L 393.533899 496.225394 
L 395.952335 497.112331 
L 398.370771 497.630011 
L 400.789208 498.018873 
L 405.62608 498.471697 
L 412.88139 498.850555 
L 420.136699 499.037595 
L 437.065753 499.23591 
L 458.83168 499.330416 
L 490.271353 499.384486 
L 686.164697 499.428607 
L 69.463428 499.428755 
L 304.051754 499.321994 
L 335.491426 499.080939 
L 347.583608 498.75967 
L 354.838917 498.290898 
L 357.257354 498.018873 
L 359.67579 497.630011 
L 362.094226 497.112331 
L 364.512663 496.225394 
L 366.931099 494.87235 
L 369.349535 491.714286 
L 371.767972 484.805502 
L 374.186408 456.996877 
L 376.604844 380.012785 
L 376.604844 380.012785 
" clip-path="url(#p45065737ab)" style="fill: none; stroke: #2ca02c; stroke-width: 1.5; stroke-linecap: square"/>
   </g>
   <g id="patch_13">
    <path d="M 38.628365 505.399926 
L 38.628365 374.041969 
" style="fill: none; stroke: #000000; stroke-width: 0.8; stroke-linejoin: miter; stroke-linecap: square"/>
   </g>
   <g id="patch_14">
    <path d="M 716.99976 505.399926 
L 716.99976 374.041969 
" style="fill: none; stroke: #000000; stroke-width: 0.8; stroke-linejoin: miter; stroke-linecap: square"/>
   </g>
   <g id="patch_15">
    <path d="M 38.628365 505.399926 
L 716.99976 505.399926 
" style="fill: none; stroke: #000000; stroke-width: 0.8; stroke-linejoin: miter; stroke-linecap: square"/>
   </g>
   <g id="patch_16">
    <path d="M 38.628365 374.041969 
L 716.99976 374.041969 
" style="fill: none; stroke: #000000; stroke-width: 0.8; stroke-linejoin: miter; stroke-linecap: square"/>
   </g>
   <g id="text_32">
    <!-- Gauss Markov - tau=2000 -->
    <g transform="translate(299.62 368.041969) scale(0.12 -0.12)">
     <defs>
      <path id="DejaVuSans-47" d="M 3809 666 
L 3809 1919 
L 2778 1919 
L 2778 2438 
L 4434 2438 
L 4434 434 
Q 4069 175 3628 42 
Q 3188 -91 2688 -91 
Q 1594 -91 976 548 
Q 359 1188 359 2328 
Q 359 3472 976 4111 
Q 1594 4750 2688 4750 
Q 3144 4750 3555 4637 
Q 3966 4525 4313 4306 
L 4313 3634 
Q 3963 3931 3569 4081 
Q 3175 4231 2741 4231 
Q 1884 4231 1454 3753 
Q 1025 3275 1025 2328 
Q 1025 1384 1454 906 
Q 1884 428 2741 428 
Q 3075 428 3337 486 
Q 3600 544 3809 666 
z
" transform="scale(0.015625)"/>
      <path id="DejaVuSans-75" d="M 544 1381 
L 544 3500 
L 1119 3500 
L 1119 1403 
Q 1119 906 1312 657 
Q 1506 409 1894 409 
Q 2359 409 2629 706 
Q 2900 1003 2900 1516 
L 2900 3500 
L 3475 3500 
L 3475 0 
L 2900 0 
L 2900 538 
Q 2691 219 2414 64 
Q 2138 -91 1772 -91 
Q 1169 -91 856 284 
Q 544 659 544 1381 
z
M 1991 3584 
L 1991 3584 
z
" transform="scale(0.015625)"/>
      <path id="DejaVuSans-4d" d="M 628 4666 
L 1569 4666 
L 2759 1491 
L 3956 4666 
L 4897 4666 
L 4897 0 
L 4281 0 
L 4281 4097 
L 3078 897 
L 2444 897 
L 1241 4097 
L 1241 0 
L 628 0 
L 628 4666 
z
" transform="scale(0.015625)"/>
      <path id="DejaVuSans-72" d="M 2631 2963 
Q 2534 3019 2420 3045 
Q 2306 3072 2169 3072 
Q 1681 3072 1420 2755 
Q 1159 2438 1159 1844 
L 1159 0 
L 581 0 
L 581 3500 
L 1159 3500 
L 1159 2956 
Q 1341 3275 1631 3429 
Q 1922 3584 2338 3584 
Q 2397 3584 2469 3576 
Q 2541 3569 2628 3553 
L 2631 2963 
z
" transform="scale(0.015625)"/>
      <path id="DejaVuSans-76" d="M 191 3500 
L 800 3500 
L 1894 563 
L 2988 3500 
L 3597 3500 
L 2284 0 
L 1503 0 
L 191 3500 
z
" transform="scale(0.015625)"/>
      <path id="DejaVuSans-2d" d="M 313 2009 
L 1997 2009 
L 1997 1497 
L 313 1497 
L 313 2009 
z
" transform="scale(0.015625)"/>
      <path id="DejaVuSans-3d" d="M 678 2906 
L 4684 2906 
L 4684 2381 
L 678 2381 
L 678 2906 
z
M 678 1631 
L 4684 1631 
L 4684 1100 
L 678 1100 
L 678 1631 
z
" transform="scale(0.015625)"/>
     </defs>
     <use xlink:href="#DejaVuSans-47"/>
     <use xlink:href="#DejaVuSans-61" x="77.490234"/>
     <use xlink:href="#DejaVuSans-75" x="138.769531"/>
     <use xlink:href="#DejaVuSans-73" x="202.148438"/>
     <use xlink:href="#DejaVuSans-73" x="254.248047"/>
     <use xlink:href="#DejaVuSans-20" x="306.347656"/>
     <use xlink:href="#DejaVuSans-4d" x="338.134766"/>
     <use xlink:href="#DejaVuSans-61" x="424.414062"/>
     <use xlink:href="#DejaVuSans-72" x="485.693359"/>
     <use xlink:href="#DejaVuSans-6b" x="526.806641"/>
     <use xlink:href="#DejaVuSans-6f" x="581.091797"/>
     <use xlink:href="#DejaVuSans-76" x="642.273438"/>
     <use xlink:href="#DejaVuSans-20" x="701.453125"/>
     <use xlink:href="#DejaVuSans-2d" x="733.240234"/>
     <use xlink:href="#DejaVuSans-20" x="769.324219"/>
     <use xlink:href="#DejaVuSans-74" x="801.111328"/>
     <use xlink:href="#DejaVuSans-61" x="840.320312"/>
     <use xlink:href="#DejaVuSans-75" x="901.599609"/>
     <use xlink:href="#DejaVuSans-3d" x="964.978516"/>
     <use xlink:href="#DejaVuSans-32" x="1048.767578"/>
     <use xlink:href="#DejaVuSans-30" x="1112.390625"/>
     <use xlink:href="#DejaVuSans-30" x="1176.013672"/>
     <use xlink:href="#DejaVuSans-30" x="1239.636719"/>
    </g>
   </g>
  </g>
  <g id="axes_4">
   <g id="patch_17">
    <path d="M 38.628365 674.554613 
L 716.99976 674.554613 
L 716.99976 543.196656 
L 38.628365 543.196656 
z
" style="fill: #ffffff"/>
   </g>
   <g id="matplotlib.axis_7">
    <g id="xtick_16">
     <g id="line2d_39">
      <g>
       <use xlink:href="#ma0524bde89" x="131.375399" y="674.554613" style="stroke: #000000; stroke-width: 0.8"/>
      </g>
     </g>
     <g id="text_33">
      <!-- −0.4 -->
      <g transform="translate(119.233993 689.15305) scale(0.1 -0.1)">
       <use xlink:href="#DejaVuSans-2212"/>
       <use xlink:href="#DejaVuSans-30" x="83.789062"/>
       <use xlink:href="#DejaVuSans-2e" x="147.412109"/>
       <use xlink:href="#DejaVuSans-34" x="179.199219"/>
      </g>
     </g>
    </g>
    <g id="xtick_17">
     <g id="line2d_40">
      <g>
       <use xlink:href="#ma0524bde89" x="255.19934" y="674.554613" style="stroke: #000000; stroke-width: 0.8"/>
      </g>
     </g>
     <g id="text_34">
      <!-- −0.2 -->
      <g transform="translate(243.057934 689.15305) scale(0.1 -0.1)">
       <use xlink:href="#DejaVuSans-2212"/>
       <use xlink:href="#DejaVuSans-30" x="83.789062"/>
       <use xlink:href="#DejaVuSans-2e" x="147.412109"/>
       <use xlink:href="#DejaVuSans-32" x="179.199219"/>
      </g>
     </g>
    </g>
    <g id="xtick_18">
     <g id="line2d_41">
      <g>
       <use xlink:href="#ma0524bde89" x="379.023281" y="674.554613" style="stroke: #000000; stroke-width: 0.8"/>
      </g>
     </g>
     <g id="text_35">
      <!-- 0.0 -->
      <g transform="translate(371.071718 689.15305) scale(0.1 -0.1)">
       <use xlink:href="#DejaVuSans-30"/>
       <use xlink:href="#DejaVuSans-2e" x="63.623047"/>
       <use xlink:href="#DejaVuSans-30" x="95.410156"/>
      </g>
     </g>
    </g>
    <g id="xtick_19">
     <g id="line2d_42">
      <g>
       <use xlink:href="#ma0524bde89" x="502.847222" y="674.554613" style="stroke: #000000; stroke-width: 0.8"/>
      </g>
     </g>
     <g id="text_36">
      <!-- 0.2 -->
      <g transform="translate(494.895659 689.15305) scale(0.1 -0.1)">
       <use xlink:href="#DejaVuSans-30"/>
       <use xlink:href="#DejaVuSans-2e" x="63.623047"/>
       <use xlink:href="#DejaVuSans-32" x="95.410156"/>
      </g>
     </g>
    </g>
    <g id="xtick_20">
     <g id="line2d_43">
      <g>
       <use xlink:href="#ma0524bde89" x="626.671162" y="674.554613" style="stroke: #000000; stroke-width: 0.8"/>
      </g>
     </g>
     <g id="text_37">
      <!-- 0.4 -->
      <g transform="translate(618.7196 689.15305) scale(0.1 -0.1)">
       <use xlink:href="#DejaVuSans-30"/>
       <use xlink:href="#DejaVuSans-2e" x="63.623047"/>
       <use xlink:href="#DejaVuSans-34" x="95.410156"/>
      </g>
     </g>
    </g>
   </g>
   <g id="matplotlib.axis_8">
    <g id="ytick_15">
     <g id="line2d_44">
      <g>
       <use xlink:href="#me9eb464c5d" x="38.628365" y="668.601772" style="stroke: #000000; stroke-width: 0.8"/>
      </g>
     </g>
     <g id="text_38">
      <!-- 0 -->
      <g transform="translate(25.265865 672.400991) scale(0.1 -0.1)">
       <use xlink:href="#DejaVuSans-30"/>
      </g>
     </g>
    </g>
    <g id="ytick_16">
     <g id="line2d_45">
      <g>
       <use xlink:href="#me9eb464c5d" x="38.628365" y="637.176778" style="stroke: #000000; stroke-width: 0.8"/>
      </g>
     </g>
     <g id="text_39">
      <!-- 10 -->
      <g transform="translate(18.903365 640.975996) scale(0.1 -0.1)">
       <use xlink:href="#DejaVuSans-31"/>
       <use xlink:href="#DejaVuSans-30" x="63.623047"/>
      </g>
     </g>
    </g>
    <g id="ytick_17">
     <g id="line2d_46">
      <g>
       <use xlink:href="#me9eb464c5d" x="38.628365" y="605.751783" style="stroke: #000000; stroke-width: 0.8"/>
      </g>
     </g>
     <g id="text_40">
      <!-- 20 -->
      <g transform="translate(18.903365 609.551002) scale(0.1 -0.1)">
       <use xlink:href="#DejaVuSans-32"/>
       <use xlink:href="#DejaVuSans-30" x="63.623047"/>
      </g>
     </g>
    </g>
    <g id="ytick_18">
     <g id="line2d_47">
      <g>
       <use xlink:href="#me9eb464c5d" x="38.628365" y="574.326788" style="stroke: #000000; stroke-width: 0.8"/>
      </g>
     </g>
     <g id="text_41">
      <!-- 30 -->
      <g transform="translate(18.903365 578.126007) scale(0.1 -0.1)">
       <use xlink:href="#DejaVuSans-33"/>
       <use xlink:href="#DejaVuSans-30" x="63.623047"/>
      </g>
     </g>
    </g>
   </g>
   <g id="line2d_48">
    <path d="M 379.023281 630.867344 
L 381.441717 549.765598 
L 383.860153 623.381961 
L 386.27859 652.781663 
L 388.697026 660.555207 
L 391.115462 663.808769 
L 393.533899 665.245987 
L 395.952335 666.065247 
L 398.370771 666.651777 
L 403.207644 667.3255 
L 408.044517 667.745103 
L 412.88139 667.962457 
L 432.22888 668.340995 
L 475.760735 668.519368 
L 565.242879 668.57445 
L 686.164697 668.583797 
L 69.463428 668.582573 
L 301.633318 668.479019 
L 330.654554 668.297115 
L 342.746735 668.021956 
L 350.002045 667.745103 
L 354.838917 667.3255 
L 359.67579 666.651777 
L 362.094226 666.065247 
L 364.512663 665.245987 
L 366.931099 663.808769 
L 369.349535 660.555207 
L 371.767972 652.781663 
L 374.186408 623.381961 
L 376.604844 549.765598 
L 376.604844 549.765598 
" clip-path="url(#p715ad592cf)" style="fill: none; stroke: #1f77b4; stroke-width: 1.5; stroke-linecap: square"/>
   </g>
   <g id="line2d_49">
    <path d="M 379.023281 630.778164 
L 381.441717 549.487075 
L 383.860153 623.640649 
L 386.27859 653.084267 
L 388.697026 660.422212 
L 391.115462 663.556619 
L 393.533899 665.140975 
L 395.952335 665.956973 
L 400.789208 667.025751 
L 403.207644 667.356472 
L 410.462953 667.845595 
L 420.136699 668.173019 
L 439.484189 668.395273 
L 461.250116 668.49499 
L 616.030043 668.579714 
L 686.164697 668.58289 
L 69.463428 668.582602 
L 301.633318 668.47747 
L 330.654554 668.28588 
L 342.746735 668.050796 
L 352.420481 667.551347 
L 354.838917 667.356472 
L 357.257354 667.025751 
L 362.094226 665.956973 
L 364.512663 665.140975 
L 366.931099 663.556619 
L 369.349535 660.422212 
L 371.767972 653.084267 
L 374.186408 623.640649 
L 376.604844 549.487075 
L 376.604844 549.487075 
" clip-path="url(#p715ad592cf)" style="fill: none; stroke: #ff7f0e; stroke-width: 1.5; stroke-linecap: square"/>
   </g>
   <g id="line2d_50">
    <path d="M 379.023281 629.107607 
L 381.441717 549.167472 
L 383.860153 623.748639 
L 386.27859 653.002287 
L 388.697026 660.361468 
L 391.115462 663.715328 
L 393.533899 665.162108 
L 395.952335 666.109681 
L 398.370771 666.662014 
L 400.789208 667.077357 
L 405.62608 667.561021 
L 412.88139 667.965732 
L 420.136699 668.165575 
L 434.647317 668.359843 
L 468.505425 668.509046 
L 613.611606 668.579948 
L 686.164697 668.583259 
L 69.463428 668.583418 
L 311.307063 668.436247 
L 330.654554 668.294818 
L 347.583608 667.868747 
L 354.838917 667.368185 
L 357.257354 667.077357 
L 359.67579 666.662014 
L 362.094226 666.109681 
L 364.512663 665.162108 
L 366.931099 663.715328 
L 369.349535 660.361468 
L 371.767972 653.002287 
L 374.186408 623.748639 
L 376.604844 549.167472 
L 376.604844 549.167472 
" clip-path="url(#p715ad592cf)" style="fill: none; stroke: #2ca02c; stroke-width: 1.5; stroke-linecap: square"/>
   </g>
   <g id="patch_18">
    <path d="M 38.628365 674.554613 
L 38.628365 543.196656 
" style="fill: none; stroke: #000000; stroke-width: 0.8; stroke-linejoin: miter; stroke-linecap: square"/>
   </g>
   <g id="patch_19">
    <path d="M 716.99976 674.554613 
L 716.99976 543.196656 
" style="fill: none; stroke: #000000; stroke-width: 0.8; stroke-linejoin: miter; stroke-linecap: square"/>
   </g>
   <g id="patch_20">
    <path d="M 38.628365 674.554613 
L 716.99976 674.554613 
" style="fill: none; stroke: #000000; stroke-width: 0.8; stroke-linejoin: miter; stroke-linecap: square"/>
   </g>
   <g id="patch_21">
    <path d="M 38.628365 543.196656 
L 716.99976 543.196656 
" style="fill: none; stroke: #000000; stroke-width: 0.8; stroke-linejoin: miter; stroke-linecap: square"/>
   </g>
   <g id="text_42">
    <!-- Gauss Markov - tau=500 -->
    <g transform="translate(303.4375 537.196656) scale(0.12 -0.12)">
     <use xlink:href="#DejaVuSans-47"/>
     <use xlink:href="#DejaVuSans-61" x="77.490234"/>
     <use xlink:href="#DejaVuSans-75" x="138.769531"/>
     <use xlink:href="#DejaVuSans-73" x="202.148438"/>
     <use xlink:href="#DejaVuSans-73" x="254.248047"/>
     <use xlink:href="#DejaVuSans-20" x="306.347656"/>
     <use xlink:href="#DejaVuSans-4d" x="338.134766"/>
     <use xlink:href="#DejaVuSans-61" x="424.414062"/>
     <use xlink:href="#DejaVuSans-72" x="485.693359"/>
     <use xlink:href="#DejaVuSans-6b" x="526.806641"/>
     <use xlink:href="#DejaVuSans-6f" x="581.091797"/>
     <use xlink:href="#DejaVuSans-76" x="642.273438"/>
     <use xlink:href="#DejaVuSans-20" x="701.453125"/>
     <use xlink:href="#DejaVuSans-2d" x="733.240234"/>
     <use xlink:href="#DejaVuSans-20" x="769.324219"/>
     <use xlink:href="#DejaVuSans-74" x="801.111328"/>
     <use xlink:href="#DejaVuSans-61" x="840.320312"/>
     <use xlink:href="#DejaVuSans-75" x="901.599609"/>
     <use xlink:href="#DejaVuSans-3d" x="964.978516"/>
     <use xlink:href="#DejaVuSans-35" x="1048.767578"/>
     <use xlink:href="#DejaVuSans-30" x="1112.390625"/>
     <use xlink:href="#DejaVuSans-30" x="1176.013672"/>
    </g>
   </g>
   <g id="legend_1">
    <g id="patch_22">
     <path d="M 267.166406 716.936431 
L 488.461719 716.936431 
Q 490.461719 716.936431 490.461719 714.936431 
L 490.461719 701.258306 
Q 490.461719 699.258306 488.461719 699.258306 
L 267.166406 699.258306 
Q 265.166406 699.258306 265.166406 701.258306 
L 265.166406 714.936431 
Q 265.166406 716.936431 267.166406 716.936431 
z
" style="fill: #ffffff; opacity: 0.8; stroke: #cccccc; stroke-linejoin: miter"/>
    </g>
    <g id="line2d_51">
     <path d="M 269.166406 707.356744 
L 279.166406 707.356744 
L 289.166406 707.356744 
" style="fill: none; stroke: #1f77b4; stroke-width: 1.5; stroke-linecap: square"/>
    </g>
    <g id="text_43">
     <!-- Real 1 -->
     <g transform="translate(297.166406 710.856744) scale(0.1 -0.1)">
      <use xlink:href="#DejaVuSans-52"/>
      <use xlink:href="#DejaVuSans-65" x="64.982422"/>
      <use xlink:href="#DejaVuSans-61" x="126.505859"/>
      <use xlink:href="#DejaVuSans-6c" x="187.785156"/>
      <use xlink:href="#DejaVuSans-20" x="215.568359"/>
      <use xlink:href="#DejaVuSans-31" x="247.355469"/>
     </g>
    </g>
    <g id="line2d_52">
     <path d="M 348.264844 707.356744 
L 358.264844 707.356744 
L 368.264844 707.356744 
" style="fill: none; stroke: #ff7f0e; stroke-width: 1.5; stroke-linecap: square"/>
    </g>
    <g id="text_44">
     <!-- Real 2 -->
     <g transform="translate(376.264844 710.856744) scale(0.1 -0.1)">
      <use xlink:href="#DejaVuSans-52"/>
      <use xlink:href="#DejaVuSans-65" x="64.982422"/>
      <use xlink:href="#DejaVuSans-61" x="126.505859"/>
      <use xlink:href="#DejaVuSans-6c" x="187.785156"/>
      <use xlink:href="#DejaVuSans-20" x="215.568359"/>
      <use xlink:href="#DejaVuSans-32" x="247.355469"/>
     </g>
    </g>
    <g id="line2d_53">
     <path d="M 427.363281 707.356744 
L 437.363281 707.356744 
L 447.363281 707.356744 
" style="fill: none; stroke: #2ca02c; stroke-width: 1.5; stroke-linecap: square"/>
    </g>
    <g id="text_45">
     <!-- Real 3 -->
     <g transform="translate(455.363281 710.856744) scale(0.1 -0.1)">
      <use xlink:href="#DejaVuSans-52"/>
      <use xlink:href="#DejaVuSans-65" x="64.982422"/>
      <use xlink:href="#DejaVuSans-61" x="126.505859"/>
      <use xlink:href="#DejaVuSans-6c" x="187.785156"/>
      <use xlink:href="#DejaVuSans-20" x="215.568359"/>
      <use xlink:href="#DejaVuSans-33" x="247.355469"/>
     </g>
    </g>
   </g>
  </g>
  <g id="text_46">
   <!-- Power Spectral Density -->
   <g transform="translate(290.4675 12.118365) scale(0.12 -0.12)">
    <defs>
     <path id="DejaVuSans-50" d="M 1259 4147 
L 1259 2394 
L 2053 2394 
Q 2494 2394 2734 2622 
Q 2975 2850 2975 3272 
Q 2975 3691 2734 3919 
Q 2494 4147 2053 4147 
L 1259 4147 
z
M 628 4666 
L 2053 4666 
Q 2838 4666 3239 4311 
Q 3641 3956 3641 3272 
Q 3641 2581 3239 2228 
Q 2838 1875 2053 1875 
L 1259 1875 
L 1259 0 
L 628 0 
L 628 4666 
z
" transform="scale(0.015625)"/>
     <path id="DejaVuSans-77" d="M 269 3500 
L 844 3500 
L 1563 769 
L 2278 3500 
L 2956 3500 
L 3675 769 
L 4391 3500 
L 4966 3500 
L 4050 0 
L 3372 0 
L 2619 2869 
L 1863 0 
L 1184 0 
L 269 3500 
z
" transform="scale(0.015625)"/>
     <path id="DejaVuSans-53" d="M 3425 4513 
L 3425 3897 
Q 3066 4069 2747 4153 
Q 2428 4238 2131 4238 
Q 1616 4238 1336 4038 
Q 1056 3838 1056 3469 
Q 1056 3159 1242 3001 
Q 1428 2844 1947 2747 
L 2328 2669 
Q 3034 2534 3370 2195 
Q 3706 1856 3706 1288 
Q 3706 609 3251 259 
Q 2797 -91 1919 -91 
Q 1588 -91 1214 -16 
Q 841 59 441 206 
L 441 856 
Q 825 641 1194 531 
Q 1563 422 1919 422 
Q 2459 422 2753 634 
Q 3047 847 3047 1241 
Q 3047 1584 2836 1778 
Q 2625 1972 2144 2069 
L 1759 2144 
Q 1053 2284 737 2584 
Q 422 2884 422 3419 
Q 422 4038 858 4394 
Q 1294 4750 2059 4750 
Q 2388 4750 2728 4690 
Q 3069 4631 3425 4513 
z
" transform="scale(0.015625)"/>
     <path id="DejaVuSans-70" d="M 1159 525 
L 1159 -1331 
L 581 -1331 
L 581 3500 
L 1159 3500 
L 1159 2969 
Q 1341 3281 1617 3432 
Q 1894 3584 2278 3584 
Q 2916 3584 3314 3078 
Q 3713 2572 3713 1747 
Q 3713 922 3314 415 
Q 2916 -91 2278 -91 
Q 1894 -91 1617 61 
Q 1341 213 1159 525 
z
M 3116 1747 
Q 3116 2381 2855 2742 
Q 2594 3103 2138 3103 
Q 1681 3103 1420 2742 
Q 1159 2381 1159 1747 
Q 1159 1113 1420 752 
Q 1681 391 2138 391 
Q 2594 391 2855 752 
Q 3116 1113 3116 1747 
z
" transform="scale(0.015625)"/>
     <path id="DejaVuSans-63" d="M 3122 3366 
L 3122 2828 
Q 2878 2963 2633 3030 
Q 2388 3097 2138 3097 
Q 1578 3097 1268 2742 
Q 959 2388 959 1747 
Q 959 1106 1268 751 
Q 1578 397 2138 397 
Q 2388 397 2633 464 
Q 2878 531 3122 666 
L 3122 134 
Q 2881 22 2623 -34 
Q 2366 -91 2075 -91 
Q 1284 -91 818 406 
Q 353 903 353 1747 
Q 353 2603 823 3093 
Q 1294 3584 2113 3584 
Q 2378 3584 2631 3529 
Q 2884 3475 3122 3366 
z
" transform="scale(0.015625)"/>
     <path id="DejaVuSans-44" d="M 1259 4147 
L 1259 519 
L 2022 519 
Q 2988 519 3436 956 
Q 3884 1394 3884 2338 
Q 3884 3275 3436 3711 
Q 2988 4147 2022 4147 
L 1259 4147 
z
M 628 4666 
L 1925 4666 
Q 3281 4666 3915 4102 
Q 4550 3538 4550 2338 
Q 4550 1131 3912 565 
Q 3275 0 1925 0 
L 628 0 
L 628 4666 
z
" transform="scale(0.015625)"/>
     <path id="DejaVuSans-79" d="M 2059 -325 
Q 1816 -950 1584 -1140 
Q 1353 -1331 966 -1331 
L 506 -1331 
L 506 -850 
L 844 -850 
Q 1081 -850 1212 -737 
Q 1344 -625 1503 -206 
L 1606 56 
L 191 3500 
L 800 3500 
L 1894 763 
L 2988 3500 
L 3597 3500 
L 2059 -325 
z
" transform="scale(0.015625)"/>
    </defs>
    <use xlink:href="#DejaVuSans-50"/>
    <use xlink:href="#DejaVuSans-6f" x="56.677734"/>
    <use xlink:href="#DejaVuSans-77" x="117.859375"/>
    <use xlink:href="#DejaVuSans-65" x="199.646484"/>
    <use xlink:href="#DejaVuSans-72" x="261.169922"/>
    <use xlink:href="#DejaVuSans-20" x="302.283203"/>
    <use xlink:href="#DejaVuSans-53" x="334.070312"/>
    <use xlink:href="#DejaVuSans-70" x="397.546875"/>
    <use xlink:href="#DejaVuSans-65" x="461.023438"/>
    <use xlink:href="#DejaVuSans-63" x="522.546875"/>
    <use xlink:href="#DejaVuSans-74" x="577.527344"/>
    <use xlink:href="#DejaVuSans-72" x="616.736328"/>
    <use xlink:href="#DejaVuSans-61" x="657.849609"/>
    <use xlink:href="#DejaVuSans-6c" x="719.128906"/>
    <use xlink:href="#DejaVuSans-20" x="746.912109"/>
    <use xlink:href="#DejaVuSans-44" x="778.699219"/>
    <use xlink:href="#DejaVuSans-65" x="855.701172"/>
    <use xlink:href="#DejaVuSans-6e" x="917.224609"/>
    <use xlink:href="#DejaVuSans-73" x="980.603516"/>
    <use xlink:href="#DejaVuSans-69" x="1032.703125"/>
    <use xlink:href="#DejaVuSans-74" x="1060.486328"/>
    <use xlink:href="#DejaVuSans-79" x="1099.695312"/>
   </g>
  </g>
 </g>
 <defs>
  <clipPath id="p399c849a6d">
   <rect x="38.628365" y="35.732595" width="678.371395" height="131.357957"/>
  </clipPath>
  <clipPath id="p272c07f778">
   <rect x="38.628365" y="204.887282" width="678.371395" height="131.357957"/>
  </clipPath>
  <clipPath id="p45065737ab">
   <rect x="38.628365" y="374.041969" width="678.371395" height="131.357957"/>
  </clipPath>
  <clipPath id="p715ad592cf">
   <rect x="38.628365" y="543.196656" width="678.371395" height="131.357957"/>
  </clipPath>
 </defs>
</svg>
