<?xml version="1.0" encoding="utf-8" standalone="no"?>
<!DOCTYPE svg PUBLIC "-//W3C//DTD SVG 1.1//EN"
  "http://www.w3.org/Graphics/SVG/1.1/DTD/svg11.dtd">
<svg xmlns:xlink="http://www.w3.org/1999/xlink" width="720pt" height="720pt" viewBox="0 0 720 720" xmlns="http://www.w3.org/2000/svg" version="1.1">
 <metadata>
  <rdf:RDF xmlns:dc="http://purl.org/dc/elements/1.1/" xmlns:cc="http://creativecommons.org/ns#" xmlns:rdf="http://www.w3.org/1999/02/22-rdf-syntax-ns#">
   <cc:Work>
    <dc:type rdf:resource="http://purl.org/dc/dcmitype/StillImage"/>
    <dc:date>2024-05-31T14:39:28.521859</dc:date>
    <dc:format>image/svg+xml</dc:format>
    <dc:creator>
     <cc:Agent>
      <dc:title>Matplotlib v3.9.0, https://matplotlib.org/</dc:title>
     </cc:Agent>
    </dc:creator>
   </cc:Work>
  </rdf:RDF>
 </metadata>
 <defs>
  <style type="text/css">*{stroke-linejoin: round; stroke-linecap: butt}</style>
 </defs>
 <g id="figure_1">
  <g id="patch_1">
   <path d="M 0 720 
L 720 720 
L 720 0 
L 0 0 
z
" style="fill: #ffffff"/>
  </g>
  <g id="axes_1">
   <g id="patch_2">
    <path d="M 67.16 187.765 
L 691.605 187.765 
L 691.605 46.8 
L 67.16 46.8 
z
" style="fill: #ffffff"/>
   </g>
   <g id="matplotlib.axis_1">
    <g id="xtick_1">
     <g id="line2d_1">
      <defs>
       <path id="m9b17578322" d="M 0 0 
L 0 3.5 
" style="stroke: #000000; stroke-width: 0.8"/>
      </defs>
      <g>
       <use xlink:href="#m9b17578322" x="67.16" y="187.765" style="stroke: #000000; stroke-width: 0.8"/>
      </g>
     </g>
    </g>
    <g id="xtick_2">
     <g id="line2d_2">
      <g>
       <use xlink:href="#m9b17578322" x="145.215625" y="187.765" style="stroke: #000000; stroke-width: 0.8"/>
      </g>
     </g>
    </g>
    <g id="xtick_3">
     <g id="line2d_3">
      <g>
       <use xlink:href="#m9b17578322" x="223.27125" y="187.765" style="stroke: #000000; stroke-width: 0.8"/>
      </g>
     </g>
    </g>
    <g id="xtick_4">
     <g id="line2d_4">
      <g>
       <use xlink:href="#m9b17578322" x="301.326875" y="187.765" style="stroke: #000000; stroke-width: 0.8"/>
      </g>
     </g>
    </g>
    <g id="xtick_5">
     <g id="line2d_5">
      <g>
       <use xlink:href="#m9b17578322" x="379.3825" y="187.765" style="stroke: #000000; stroke-width: 0.8"/>
      </g>
     </g>
    </g>
    <g id="xtick_6">
     <g id="line2d_6">
      <g>
       <use xlink:href="#m9b17578322" x="457.438125" y="187.765" style="stroke: #000000; stroke-width: 0.8"/>
      </g>
     </g>
    </g>
    <g id="xtick_7">
     <g id="line2d_7">
      <g>
       <use xlink:href="#m9b17578322" x="535.49375" y="187.765" style="stroke: #000000; stroke-width: 0.8"/>
      </g>
     </g>
    </g>
    <g id="xtick_8">
     <g id="line2d_8">
      <g>
       <use xlink:href="#m9b17578322" x="613.549375" y="187.765" style="stroke: #000000; stroke-width: 0.8"/>
      </g>
     </g>
    </g>
    <g id="xtick_9">
     <g id="line2d_9">
      <g>
       <use xlink:href="#m9b17578322" x="691.605" y="187.765" style="stroke: #000000; stroke-width: 0.8"/>
      </g>
     </g>
    </g>
   </g>
   <g id="matplotlib.axis_2">
    <g id="ytick_1">
     <g id="line2d_10">
      <defs>
       <path id="m01f2bc12ab" d="M 0 0 
L -3.5 0 
" style="stroke: #000000; stroke-width: 0.8"/>
      </defs>
      <g>
       <use xlink:href="#m01f2bc12ab" x="67.16" y="157.103909" style="stroke: #000000; stroke-width: 0.8"/>
      </g>
     </g>
     <g id="text_1">
      <!-- -2.0 -->
      <g transform="translate(32.844688 162.422815) scale(0.14 -0.14)">
       <defs>
        <path id="DejaVuSans-2d" d="M 313 2009 
L 1997 2009 
L 1997 1497 
L 313 1497 
L 313 2009 
z
" transform="scale(0.015625)"/>
        <path id="DejaVuSans-32" d="M 1228 531 
L 3431 531 
L 3431 0 
L 469 0 
L 469 531 
Q 828 903 1448 1529 
Q 2069 2156 2228 2338 
Q 2531 2678 2651 2914 
Q 2772 3150 2772 3378 
Q 2772 3750 2511 3984 
Q 2250 4219 1831 4219 
Q 1534 4219 1204 4116 
Q 875 4013 500 3803 
L 500 4441 
Q 881 4594 1212 4672 
Q 1544 4750 1819 4750 
Q 2544 4750 2975 4387 
Q 3406 4025 3406 3419 
Q 3406 3131 3298 2873 
Q 3191 2616 2906 2266 
Q 2828 2175 2409 1742 
Q 1991 1309 1228 531 
z
" transform="scale(0.015625)"/>
        <path id="DejaVuSans-2e" d="M 684 794 
L 1344 794 
L 1344 0 
L 684 0 
L 684 794 
z
" transform="scale(0.015625)"/>
        <path id="DejaVuSans-30" d="M 2034 4250 
Q 1547 4250 1301 3770 
Q 1056 3291 1056 2328 
Q 1056 1369 1301 889 
Q 1547 409 2034 409 
Q 2525 409 2770 889 
Q 3016 1369 3016 2328 
Q 3016 3291 2770 3770 
Q 2525 4250 2034 4250 
z
M 2034 4750 
Q 2819 4750 3233 4129 
Q 3647 3509 3647 2328 
Q 3647 1150 3233 529 
Q 2819 -91 2034 -91 
Q 1250 -91 836 529 
Q 422 1150 422 2328 
Q 422 3509 836 4129 
Q 1250 4750 2034 4750 
z
" transform="scale(0.015625)"/>
       </defs>
       <use xlink:href="#DejaVuSans-2d"/>
       <use xlink:href="#DejaVuSans-32" x="36.083984"/>
       <use xlink:href="#DejaVuSans-2e" x="99.707031"/>
       <use xlink:href="#DejaVuSans-30" x="131.494141"/>
      </g>
     </g>
    </g>
    <g id="ytick_2">
     <g id="line2d_11">
      <g>
       <use xlink:href="#m01f2bc12ab" x="67.16" y="117.2825" style="stroke: #000000; stroke-width: 0.8"/>
      </g>
     </g>
     <g id="text_2">
      <!-- 0.0 -->
      <g transform="translate(37.895625 122.601406) scale(0.14 -0.14)">
       <use xlink:href="#DejaVuSans-30"/>
       <use xlink:href="#DejaVuSans-2e" x="63.623047"/>
       <use xlink:href="#DejaVuSans-30" x="95.410156"/>
      </g>
     </g>
    </g>
    <g id="ytick_3">
     <g id="line2d_12">
      <g>
       <use xlink:href="#m01f2bc12ab" x="67.16" y="77.461091" style="stroke: #000000; stroke-width: 0.8"/>
      </g>
     </g>
     <g id="text_3">
      <!-- 2.0 -->
      <g transform="translate(37.895625 82.779997) scale(0.14 -0.14)">
       <use xlink:href="#DejaVuSans-32"/>
       <use xlink:href="#DejaVuSans-2e" x="63.623047"/>
       <use xlink:href="#DejaVuSans-30" x="95.410156"/>
      </g>
     </g>
    </g>
    <g id="text_4">
     <!-- Pos N [m] -->
     <g transform="translate(25.933125 151.146094) rotate(-90) scale(0.14 -0.14)">
      <defs>
       <path id="DejaVuSans-50" d="M 1259 4147 
L 1259 2394 
L 2053 2394 
Q 2494 2394 2734 2622 
Q 2975 2850 2975 3272 
Q 2975 3691 2734 3919 
Q 2494 4147 2053 4147 
L 1259 4147 
z
M 628 4666 
L 2053 4666 
Q 2838 4666 3239 4311 
Q 3641 3956 3641 3272 
Q 3641 2581 3239 2228 
Q 2838 1875 2053 1875 
L 1259 1875 
L 1259 0 
L 628 0 
L 628 4666 
z
" transform="scale(0.015625)"/>
       <path id="DejaVuSans-6f" d="M 1959 3097 
Q 1497 3097 1228 2736 
Q 959 2375 959 1747 
Q 959 1119 1226 758 
Q 1494 397 1959 397 
Q 2419 397 2687 759 
Q 2956 1122 2956 1747 
Q 2956 2369 2687 2733 
Q 2419 3097 1959 3097 
z
M 1959 3584 
Q 2709 3584 3137 3096 
Q 3566 2609 3566 1747 
Q 3566 888 3137 398 
Q 2709 -91 1959 -91 
Q 1206 -91 779 398 
Q 353 888 353 1747 
Q 353 2609 779 3096 
Q 1206 3584 1959 3584 
z
" transform="scale(0.015625)"/>
       <path id="DejaVuSans-73" d="M 2834 3397 
L 2834 2853 
Q 2591 2978 2328 3040 
Q 2066 3103 1784 3103 
Q 1356 3103 1142 2972 
Q 928 2841 928 2578 
Q 928 2378 1081 2264 
Q 1234 2150 1697 2047 
L 1894 2003 
Q 2506 1872 2764 1633 
Q 3022 1394 3022 966 
Q 3022 478 2636 193 
Q 2250 -91 1575 -91 
Q 1294 -91 989 -36 
Q 684 19 347 128 
L 347 722 
Q 666 556 975 473 
Q 1284 391 1588 391 
Q 1994 391 2212 530 
Q 2431 669 2431 922 
Q 2431 1156 2273 1281 
Q 2116 1406 1581 1522 
L 1381 1569 
Q 847 1681 609 1914 
Q 372 2147 372 2553 
Q 372 3047 722 3315 
Q 1072 3584 1716 3584 
Q 2034 3584 2315 3537 
Q 2597 3491 2834 3397 
z
" transform="scale(0.015625)"/>
       <path id="DejaVuSans-20" transform="scale(0.015625)"/>
       <path id="DejaVuSans-4e" d="M 628 4666 
L 1478 4666 
L 3547 763 
L 3547 4666 
L 4159 4666 
L 4159 0 
L 3309 0 
L 1241 3903 
L 1241 0 
L 628 0 
L 628 4666 
z
" transform="scale(0.015625)"/>
       <path id="DejaVuSans-5b" d="M 550 4863 
L 1875 4863 
L 1875 4416 
L 1125 4416 
L 1125 -397 
L 1875 -397 
L 1875 -844 
L 550 -844 
L 550 4863 
z
" transform="scale(0.015625)"/>
       <path id="DejaVuSans-6d" d="M 3328 2828 
Q 3544 3216 3844 3400 
Q 4144 3584 4550 3584 
Q 5097 3584 5394 3201 
Q 5691 2819 5691 2113 
L 5691 0 
L 5113 0 
L 5113 2094 
Q 5113 2597 4934 2840 
Q 4756 3084 4391 3084 
Q 3944 3084 3684 2787 
Q 3425 2491 3425 1978 
L 3425 0 
L 2847 0 
L 2847 2094 
Q 2847 2600 2669 2842 
Q 2491 3084 2119 3084 
Q 1678 3084 1418 2786 
Q 1159 2488 1159 1978 
L 1159 0 
L 581 0 
L 581 3500 
L 1159 3500 
L 1159 2956 
Q 1356 3278 1631 3431 
Q 1906 3584 2284 3584 
Q 2666 3584 2933 3390 
Q 3200 3197 3328 2828 
z
" transform="scale(0.015625)"/>
       <path id="DejaVuSans-5d" d="M 1947 4863 
L 1947 -844 
L 622 -844 
L 622 -397 
L 1369 -397 
L 1369 4416 
L 622 4416 
L 622 4863 
L 1947 4863 
z
" transform="scale(0.015625)"/>
      </defs>
      <use xlink:href="#DejaVuSans-50"/>
      <use xlink:href="#DejaVuSans-6f" x="56.677734"/>
      <use xlink:href="#DejaVuSans-73" x="117.859375"/>
      <use xlink:href="#DejaVuSans-20" x="169.958984"/>
      <use xlink:href="#DejaVuSans-4e" x="201.746094"/>
      <use xlink:href="#DejaVuSans-20" x="276.550781"/>
      <use xlink:href="#DejaVuSans-5b" x="308.337891"/>
      <use xlink:href="#DejaVuSans-6d" x="347.351562"/>
      <use xlink:href="#DejaVuSans-5d" x="444.763672"/>
     </g>
    </g>
   </g>
   <g id="line2d_13">
    <path d="M 67.16 117.2825 
L 73.092228 117.26486 
L 73.40445 124.049384 
L 79.336678 123.926503 
L 79.6489 117.672868 
L 85.581128 113.694667 
L 85.89335 129.010968 
L 91.201133 134.036507 
L 91.825578 134.606814 
L 92.1378 116.064892 
L 96.821138 111.313603 
L 98.070028 109.993763 
L 98.38225 126.610288 
L 102.441143 128.944484 
L 104.314478 129.926405 
L 104.6267 120.606615 
L 108.061148 118.980047 
L 110.558928 117.648816 
L 110.87115 118.215106 
L 114.305598 116.396004 
L 116.803378 114.903526 
L 117.1156 122.530231 
L 120.237825 122.859681 
L 123.047828 122.942762 
L 123.36005 97.685878 
L 128.043388 85.534077 
L 129.292278 82.188027 
L 129.6045 112.232962 
L 132.414503 113.148809 
L 135.224505 113.821764 
L 135.536728 113.881158 
L 135.84895 112.935774 
L 138.34673 113.023188 
L 140.84451 112.904171 
L 141.781178 112.805112 
L 142.0934 108.050958 
L 144.903403 106.222151 
L 147.713405 104.112867 
L 148.025628 103.860845 
L 148.33785 122.610918 
L 151.147853 125.464559 
L 153.957855 128.020553 
L 154.270078 128.285857 
L 154.5823 110.386877 
L 157.392303 107.489149 
L 160.202305 104.277779 
L 160.514528 103.901302 
L 160.82675 114.565064 
L 163.32453 114.123783 
L 165.82231 113.423582 
L 166.758978 113.093351 
L 167.0712 108.718529 
L 169.56898 106.563396 
L 172.06676 104.138655 
L 173.003428 103.159052 
L 173.31565 120.193929 
L 175.81343 121.676349 
L 178.31121 122.879539 
L 179.247878 123.258018 
L 179.5601 126.440237 
L 182.05788 127.980076 
L 184.55566 129.232162 
L 185.492328 129.626872 
L 185.80455 111.675636 
L 188.614553 107.515803 
L 191.424555 102.982012 
L 191.736778 102.45501 
L 192.049 109.564666 
L 194.54678 107.0427 
L 197.04456 104.219373 
L 197.981228 103.082485 
L 198.29345 112.431984 
L 200.479008 111.697915 
L 202.664565 110.729431 
L 204.225678 109.893499 
L 204.5379 110.590545 
L 206.723458 109.374939 
L 208.909015 107.921946 
L 210.470128 106.738296 
L 210.78235 110.576275 
L 212.967908 109.570026 
L 215.153465 108.324353 
L 216.714578 107.287725 
L 217.0268 123.073322 
L 219.52458 125.100748 
L 222.02236 126.813997 
L 222.959028 127.37542 
L 223.27125 136.227448 
L 226.081253 140.028775 
L 228.891255 143.432353 
L 229.203478 143.785993 
L 229.5157 136.680029 
L 231.701258 137.362074 
L 233.886815 137.80427 
L 235.447928 137.973552 
L 235.76015 135.847621 
L 237.945708 135.3791 
L 240.131265 134.672483 
L 241.692378 134.022441 
L 242.0046 137.926772 
L 244.190158 137.661167 
L 246.375715 137.160158 
L 247.936828 136.65881 
L 248.24905 127.093763 
L 251.059053 123.205415 
L 253.869055 118.934613 
L 254.181278 118.436609 
L 254.4935 121.332517 
L 257.303503 117.549399 
L 260.113505 113.391476 
L 260.425728 112.906516 
L 260.73795 116.292533 
L 263.547953 112.765972 
L 266.357955 108.873735 
L 266.670178 108.418888 
L 266.9824 113.255985 
L 269.48018 110.739053 
L 272.290183 107.571771 
L 272.914628 106.820146 
L 273.22685 117.255972 
L 275.412408 116.813501 
L 277.597965 116.16269 
L 279.159078 115.571763 
L 279.4713 118.662772 
L 281.656858 118.333216 
L 283.842415 117.803303 
L 285.403528 117.303773 
L 285.71575 116.720969 
L 288.21353 115.566424 
L 290.71131 114.162249 
L 291.647978 113.572316 
L 291.9602 123.574806 
L 294.45798 124.34325 
L 296.95576 124.874556 
L 297.892428 125.013728 
L 298.20465 124.563502 
L 300.70243 124.627323 
L 303.20021 124.467437 
L 304.136878 124.350949 
L 304.4491 118.866875 
L 307.259103 116.785274 
L 310.069105 114.439594 
L 310.381328 114.16303 
L 310.69355 121.366495 
L 313.503553 120.802888 
L 316.313555 119.994414 
L 316.625778 119.889856 
L 316.938 122.137124 
L 319.748003 121.700241 
L 322.558005 121.038668 
L 322.870228 120.951696 
L 323.18245 118.999698 
L 326.304675 117.382058 
L 329.114678 115.712001 
L 329.4269 107.012007 
L 333.485793 100.79686 
L 335.359128 97.801733 
L 335.67135 109.694079 
L 339.105798 108.225145 
L 341.603578 107.008558 
L 341.9158 117.020434 
L 345.66247 118.752326 
L 347.848028 119.652261 
L 348.16025 122.233342 
L 352.219143 124.684097 
L 354.092478 125.737659 
L 354.4047 120.391582 
L 358.775815 120.265887 
L 360.336928 120.170811 
L 360.64915 101.578439 
L 366.581378 90.038578 
L 366.8936 133.070938 
L 372.825828 147.069274 
L 373.13805 121.369226 
L 379.070278 119.638077 
L 379.3825 116.170238 
L 385.314728 112.442724 
L 385.62695 109.591459 
L 391.559178 104.409104 
L 391.8714 122.260215 
L 397.803628 128.008616 
L 398.11585 104.65993 
L 404.048078 96.783487 
L 404.3603 104.445285 
L 408.731415 102.442401 
L 410.292528 101.792888 
L 410.60475 113.55906 
L 414.663643 116.876476 
L 416.536978 118.502991 
L 416.8492 116.502871 
L 420.59587 119.126002 
L 422.781428 120.786213 
L 423.09365 123.525079 
L 426.84032 127.566671 
L 429.025878 130.072878 
L 429.3381 120.367133 
L 432.460325 121.042076 
L 435.270328 121.862948 
L 435.58255 119.564995 
L 438.392553 119.950252 
L 441.202555 120.558131 
L 441.514778 120.639818 
L 441.827 111.25977 
L 444.949225 109.324591 
L 447.759228 107.84001 
L 448.07145 112.138009 
L 450.56923 112.161471 
L 453.06701 112.391364 
L 454.003678 112.532001 
L 454.3159 116.661567 
L 457.125903 118.436518 
L 459.935905 120.491948 
L 460.248128 120.737986 
L 460.56035 113.279869 
L 463.05813 113.490053 
L 465.55591 113.934762 
L 466.492578 114.163055 
L 466.8048 112.403271 
L 469.30258 112.751088 
L 471.80036 113.346115 
L 472.737028 113.633969 
L 473.04925 114.716641 
L 475.54703 115.934815 
L 478.04481 117.411907 
L 478.981478 118.033473 
L 479.2937 128.760361 
L 482.415925 134.411446 
L 485.225928 139.85872 
L 485.53815 115.820812 
L 487.723708 114.962099 
L 489.909265 114.316825 
L 491.470378 113.987925 
L 491.7826 124.964816 
L 494.28038 127.447871 
L 496.77816 130.218678 
L 497.714828 131.332554 
L 498.02705 128.483309 
L 500.52483 130.888445 
L 503.02261 133.588721 
L 503.959278 134.677957 
L 504.2715 122.721501 
L 506.457058 122.777109 
L 508.642615 123.063231 
L 510.203728 123.409554 
L 510.51595 115.154858 
L 512.701508 114.058787 
L 514.887065 113.19713 
L 516.448178 112.725819 
L 516.7604 105.730934 
L 519.25818 103.547043 
L 521.75596 101.673367 
L 522.692628 101.050965 
L 523.00485 125.35693 
L 526.127075 131.263968 
L 528.937078 136.998408 
L 529.2493 111.834002 
L 531.434858 110.984073 
L 533.620415 110.374659 
L 535.181528 110.086709 
L 535.49375 103.368438 
L 537.99153 101.542657 
L 540.177088 100.202932 
L 541.425978 99.545349 
L 541.7382 115.971399 
L 544.23598 119.052849 
L 547.045983 122.893797 
L 547.670428 123.80106 
L 547.98265 120.593647 
L 550.48043 123.544389 
L 553.290433 127.235454 
L 553.914878 128.108934 
L 554.2271 124.439989 
L 556.72488 127.142679 
L 559.22266 130.152622 
L 560.159328 131.36021 
L 560.47155 125.516571 
L 562.96933 127.428558 
L 565.46711 129.643008 
L 569.526003 133.64822 
L 572.336005 136.989952 
L 572.648228 137.384224 
L 572.96045 135.069905 
L 575.45823 137.750006 
L 578.268233 141.110793 
L 578.892678 141.906909 
L 579.2049 125.318955 
L 581.390458 124.579202 
L 583.576015 124.054949 
L 585.137128 123.81109 
L 585.44935 117.095383 
L 587.94713 115.302365 
L 590.44491 113.780964 
L 591.381578 113.279642 
L 591.6938 102.764458 
L 594.816025 98.184529 
L 597.626028 94.410222 
L 597.93825 118.51905 
L 600.748253 121.958416 
L 603.870477 126.149281 
L 604.1827 135.081496 
L 607.92937 143.822636 
L 610.114928 149.16645 
L 610.42715 124.784358 
L 612.92493 124.879295 
L 615.42271 125.19794 
L 616.359378 125.373963 
L 616.6716 122.848101 
L 619.16938 122.847406 
L 621.66716 123.056105 
L 622.603828 123.187139 
L 622.91605 116.231338 
L 625.726053 114.860944 
L 628.536055 113.735416 
L 628.848277 113.625085 
L 629.1605 119.214542 
L 631.970503 119.969674 
L 634.780505 120.949496 
L 635.092728 121.07183 
L 635.40495 127.554258 
L 638.839398 131.273418 
L 641.337178 134.168307 
L 641.6494 126.871935 
L 644.771625 128.343393 
L 647.581628 129.858777 
L 647.89385 114.740359 
L 651.64052 111.343088 
L 653.826077 109.49077 
L 654.1383 113.169083 
L 657.88497 111.687325 
L 660.070528 110.9333 
L 660.38275 122.702988 
L 664.753865 126.600618 
L 666.314978 128.057023 
L 666.6272 113.788634 
L 671.310538 111.562974 
L 672.559428 111.009422 
L 672.87165 126.216837 
L 678.803877 132.851024 
L 679.1161 125.402974 
L 685.048328 127.665184 
L 685.36055 118.588685 
L 691.292778 115.538254 
L 691.292778 115.538254 
" clip-path="url(#p2021908bef)" style="fill: none; stroke: #1f77b4; stroke-width: 1.5; stroke-linecap: square"/>
   </g>
   <g id="line2d_14">
    <path d="M 72.431143 -1 
L 73.40445 87.453666 
L 79.6489 92.473237 
L 85.89335 91.433341 
L 92.1378 91.420365 
L 98.38225 91.588181 
L 104.6267 91.636076 
L 110.87115 91.637205 
L 117.1156 91.635809 
L 123.36005 91.636027 
L 129.6045 91.636272 
L 135.84895 91.636318 
L 142.0934 91.636316 
L 148.33785 91.636314 
L 154.5823 91.636315 
L 160.82675 91.636315 
L 167.0712 91.636315 
L 173.31565 91.636315 
L 179.5601 91.636315 
L 185.80455 91.636315 
L 192.049 91.636315 
L 198.29345 91.636315 
L 204.5379 91.636315 
L 210.78235 91.636315 
L 217.0268 91.636315 
L 223.27125 91.636315 
L 229.5157 91.636315 
L 235.76015 91.636315 
L 242.0046 91.636315 
L 248.24905 91.636315 
L 254.4935 91.636315 
L 260.73795 91.636315 
L 266.9824 91.636315 
L 273.22685 91.636315 
L 279.4713 91.636315 
L 285.71575 91.636315 
L 291.9602 91.636315 
L 298.20465 91.636315 
L 304.4491 91.636315 
L 310.69355 91.636315 
L 316.938 91.636315 
L 323.18245 91.636315 
L 329.4269 91.636315 
L 335.67135 91.636315 
L 341.9158 91.636315 
L 348.16025 91.636315 
L 354.4047 91.636315 
L 360.64915 91.636315 
L 366.8936 91.636315 
L 373.13805 91.636315 
L 379.3825 91.636315 
L 385.62695 91.636315 
L 391.8714 91.636315 
L 398.11585 91.636315 
L 404.3603 91.636315 
L 410.60475 91.636315 
L 416.8492 91.636315 
L 423.09365 91.636315 
L 429.3381 91.636315 
L 435.58255 91.636315 
L 441.827 91.636315 
L 448.07145 91.636315 
L 454.3159 91.636315 
L 460.56035 91.636315 
L 466.8048 91.636315 
L 473.04925 91.636315 
L 479.2937 91.636315 
L 485.53815 91.636315 
L 491.7826 91.636315 
L 498.02705 91.636315 
L 504.2715 91.636315 
L 510.51595 91.636315 
L 516.7604 91.636315 
L 523.00485 91.636315 
L 529.2493 91.636315 
L 535.49375 91.636315 
L 541.7382 91.636315 
L 547.98265 91.636315 
L 554.2271 91.636315 
L 560.47155 91.636315 
L 566.716 91.636315 
L 572.96045 91.636315 
L 579.2049 91.636315 
L 585.44935 91.636315 
L 591.6938 91.636315 
L 597.93825 91.636315 
L 604.1827 91.636315 
L 610.42715 91.636315 
L 616.6716 91.636315 
L 622.91605 91.636315 
L 629.1605 91.636315 
L 635.40495 91.636315 
L 641.6494 91.636315 
L 647.89385 91.636315 
L 654.1383 91.636315 
L 660.38275 91.636315 
L 666.6272 91.636315 
L 672.87165 91.636315 
L 679.1161 91.636315 
L 685.36055 91.636315 
" clip-path="url(#p2021908bef)" style="fill: none; stroke-dasharray: 5.55,2.4; stroke-dashoffset: 0; stroke: #ff0000; stroke-width: 1.5"/>
   </g>
   <g id="line2d_15">
    <path d="M 67.16 714.603637 
L 73.40445 147.111334 
L 79.6489 142.091763 
L 85.89335 143.131659 
L 92.1378 143.144635 
L 98.38225 142.976819 
L 104.6267 142.928924 
L 110.87115 142.927795 
L 117.1156 142.929191 
L 123.36005 142.928973 
L 129.6045 142.928728 
L 135.84895 142.928682 
L 142.0934 142.928684 
L 148.33785 142.928686 
L 154.5823 142.928685 
L 160.82675 142.928685 
L 167.0712 142.928685 
L 173.31565 142.928685 
L 179.5601 142.928685 
L 185.80455 142.928685 
L 192.049 142.928685 
L 198.29345 142.928685 
L 204.5379 142.928685 
L 210.78235 142.928685 
L 217.0268 142.928685 
L 223.27125 142.928685 
L 229.5157 142.928685 
L 235.76015 142.928685 
L 242.0046 142.928685 
L 248.24905 142.928685 
L 254.4935 142.928685 
L 260.73795 142.928685 
L 266.9824 142.928685 
L 273.22685 142.928685 
L 279.4713 142.928685 
L 285.71575 142.928685 
L 291.9602 142.928685 
L 298.20465 142.928685 
L 304.4491 142.928685 
L 310.69355 142.928685 
L 316.938 142.928685 
L 323.18245 142.928685 
L 329.4269 142.928685 
L 335.67135 142.928685 
L 341.9158 142.928685 
L 348.16025 142.928685 
L 354.4047 142.928685 
L 360.64915 142.928685 
L 366.8936 142.928685 
L 373.13805 142.928685 
L 379.3825 142.928685 
L 385.62695 142.928685 
L 391.8714 142.928685 
L 398.11585 142.928685 
L 404.3603 142.928685 
L 410.60475 142.928685 
L 416.8492 142.928685 
L 423.09365 142.928685 
L 429.3381 142.928685 
L 435.58255 142.928685 
L 441.827 142.928685 
L 448.07145 142.928685 
L 454.3159 142.928685 
L 460.56035 142.928685 
L 466.8048 142.928685 
L 473.04925 142.928685 
L 479.2937 142.928685 
L 485.53815 142.928685 
L 491.7826 142.928685 
L 498.02705 142.928685 
L 504.2715 142.928685 
L 510.51595 142.928685 
L 516.7604 142.928685 
L 523.00485 142.928685 
L 529.2493 142.928685 
L 535.49375 142.928685 
L 541.7382 142.928685 
L 547.98265 142.928685 
L 554.2271 142.928685 
L 560.47155 142.928685 
L 566.716 142.928685 
L 572.96045 142.928685 
L 579.2049 142.928685 
L 585.44935 142.928685 
L 591.6938 142.928685 
L 597.93825 142.928685 
L 604.1827 142.928685 
L 610.42715 142.928685 
L 616.6716 142.928685 
L 622.91605 142.928685 
L 629.1605 142.928685 
L 635.40495 142.928685 
L 641.6494 142.928685 
L 647.89385 142.928685 
L 654.1383 142.928685 
L 660.38275 142.928685 
L 666.6272 142.928685 
L 672.87165 142.928685 
L 679.1161 142.928685 
L 685.36055 142.928685 
" clip-path="url(#p2021908bef)" style="fill: none; stroke-dasharray: 5.55,2.4; stroke-dashoffset: 0; stroke: #ff0000; stroke-width: 1.5"/>
   </g>
   <g id="patch_3">
    <path d="M 67.16 187.765 
L 67.16 46.8 
" style="fill: none; stroke: #000000; stroke-width: 0.8; stroke-linejoin: miter; stroke-linecap: square"/>
   </g>
   <g id="patch_4">
    <path d="M 691.605 187.765 
L 691.605 46.8 
" style="fill: none; stroke: #000000; stroke-width: 0.8; stroke-linejoin: miter; stroke-linecap: square"/>
   </g>
   <g id="patch_5">
    <path d="M 67.16 187.765 
L 691.605 187.765 
" style="fill: none; stroke: #000000; stroke-width: 0.8; stroke-linejoin: miter; stroke-linecap: square"/>
   </g>
   <g id="patch_6">
    <path d="M 67.16 46.8 
L 691.605 46.8 
" style="fill: none; stroke: #000000; stroke-width: 0.8; stroke-linejoin: miter; stroke-linecap: square"/>
   </g>
  </g>
  <g id="axes_2">
   <g id="patch_7">
    <path d="M 67.16 347.35 
L 691.605 347.35 
L 691.605 206.385 
L 67.16 206.385 
z
" style="fill: #ffffff"/>
   </g>
   <g id="matplotlib.axis_3">
    <g id="xtick_10">
     <g id="line2d_16">
      <g>
       <use xlink:href="#m9b17578322" x="67.16" y="347.35" style="stroke: #000000; stroke-width: 0.8"/>
      </g>
     </g>
    </g>
    <g id="xtick_11">
     <g id="line2d_17">
      <g>
       <use xlink:href="#m9b17578322" x="145.215625" y="347.35" style="stroke: #000000; stroke-width: 0.8"/>
      </g>
     </g>
    </g>
    <g id="xtick_12">
     <g id="line2d_18">
      <g>
       <use xlink:href="#m9b17578322" x="223.27125" y="347.35" style="stroke: #000000; stroke-width: 0.8"/>
      </g>
     </g>
    </g>
    <g id="xtick_13">
     <g id="line2d_19">
      <g>
       <use xlink:href="#m9b17578322" x="301.326875" y="347.35" style="stroke: #000000; stroke-width: 0.8"/>
      </g>
     </g>
    </g>
    <g id="xtick_14">
     <g id="line2d_20">
      <g>
       <use xlink:href="#m9b17578322" x="379.3825" y="347.35" style="stroke: #000000; stroke-width: 0.8"/>
      </g>
     </g>
    </g>
    <g id="xtick_15">
     <g id="line2d_21">
      <g>
       <use xlink:href="#m9b17578322" x="457.438125" y="347.35" style="stroke: #000000; stroke-width: 0.8"/>
      </g>
     </g>
    </g>
    <g id="xtick_16">
     <g id="line2d_22">
      <g>
       <use xlink:href="#m9b17578322" x="535.49375" y="347.35" style="stroke: #000000; stroke-width: 0.8"/>
      </g>
     </g>
    </g>
    <g id="xtick_17">
     <g id="line2d_23">
      <g>
       <use xlink:href="#m9b17578322" x="613.549375" y="347.35" style="stroke: #000000; stroke-width: 0.8"/>
      </g>
     </g>
    </g>
    <g id="xtick_18">
     <g id="line2d_24">
      <g>
       <use xlink:href="#m9b17578322" x="691.605" y="347.35" style="stroke: #000000; stroke-width: 0.8"/>
      </g>
     </g>
    </g>
   </g>
   <g id="matplotlib.axis_4">
    <g id="ytick_4">
     <g id="line2d_25">
      <g>
       <use xlink:href="#m01f2bc12ab" x="67.16" y="316.688909" style="stroke: #000000; stroke-width: 0.8"/>
      </g>
     </g>
     <g id="text_5">
      <!-- -2.0 -->
      <g transform="translate(32.844688 322.007815) scale(0.14 -0.14)">
       <use xlink:href="#DejaVuSans-2d"/>
       <use xlink:href="#DejaVuSans-32" x="36.083984"/>
       <use xlink:href="#DejaVuSans-2e" x="99.707031"/>
       <use xlink:href="#DejaVuSans-30" x="131.494141"/>
      </g>
     </g>
    </g>
    <g id="ytick_5">
     <g id="line2d_26">
      <g>
       <use xlink:href="#m01f2bc12ab" x="67.16" y="276.8675" style="stroke: #000000; stroke-width: 0.8"/>
      </g>
     </g>
     <g id="text_6">
      <!-- 0.0 -->
      <g transform="translate(37.895625 282.186406) scale(0.14 -0.14)">
       <use xlink:href="#DejaVuSans-30"/>
       <use xlink:href="#DejaVuSans-2e" x="63.623047"/>
       <use xlink:href="#DejaVuSans-30" x="95.410156"/>
      </g>
     </g>
    </g>
    <g id="ytick_6">
     <g id="line2d_27">
      <g>
       <use xlink:href="#m01f2bc12ab" x="67.16" y="237.046091" style="stroke: #000000; stroke-width: 0.8"/>
      </g>
     </g>
     <g id="text_7">
      <!-- 2.0 -->
      <g transform="translate(37.895625 242.364997) scale(0.14 -0.14)">
       <use xlink:href="#DejaVuSans-32"/>
       <use xlink:href="#DejaVuSans-2e" x="63.623047"/>
       <use xlink:href="#DejaVuSans-30" x="95.410156"/>
      </g>
     </g>
    </g>
    <g id="text_8">
     <!-- Pos E [m] -->
     <g transform="translate(25.933125 309.917344) rotate(-90) scale(0.14 -0.14)">
      <defs>
       <path id="DejaVuSans-45" d="M 628 4666 
L 3578 4666 
L 3578 4134 
L 1259 4134 
L 1259 2753 
L 3481 2753 
L 3481 2222 
L 1259 2222 
L 1259 531 
L 3634 531 
L 3634 0 
L 628 0 
L 628 4666 
z
" transform="scale(0.015625)"/>
      </defs>
      <use xlink:href="#DejaVuSans-50"/>
      <use xlink:href="#DejaVuSans-6f" x="56.677734"/>
      <use xlink:href="#DejaVuSans-73" x="117.859375"/>
      <use xlink:href="#DejaVuSans-20" x="169.958984"/>
      <use xlink:href="#DejaVuSans-45" x="201.746094"/>
      <use xlink:href="#DejaVuSans-20" x="264.929688"/>
      <use xlink:href="#DejaVuSans-5b" x="296.716797"/>
      <use xlink:href="#DejaVuSans-6d" x="335.730469"/>
      <use xlink:href="#DejaVuSans-5d" x="433.142578"/>
     </g>
    </g>
   </g>
   <g id="line2d_28">
    <path d="M 67.16 276.8675 
L 69.345558 276.747142 
L 71.531115 276.386126 
L 73.092228 275.981008 
L 73.40445 288.726546 
L 75.590008 287.925431 
L 77.775565 286.884465 
L 79.336678 285.994347 
L 79.6489 279.527311 
L 82.458903 275.848629 
L 85.268905 271.776746 
L 85.581128 271.300121 
L 85.89335 275.946744 
L 88.39113 273.300637 
L 90.88891 270.347276 
L 91.825578 269.160907 
L 92.1378 276.71061 
L 94.323358 275.48717 
L 96.508915 274.031949 
L 98.070028 272.851417 
L 98.38225 279.923126 
L 100.567808 279.626742 
L 102.753365 279.103114 
L 104.314478 278.590959 
L 104.6267 285.384288 
L 106.812258 285.944881 
L 108.997815 286.283665 
L 110.558928 286.391016 
L 110.87115 285.113424 
L 113.056708 284.766191 
L 115.242265 284.203458 
L 116.803378 283.670898 
L 117.1156 256.293209 
L 121.174493 243.336226 
L 123.047828 237.115366 
L 123.36005 270.748314 
L 125.545608 270.818909 
L 127.731165 270.689146 
L 129.292278 270.475439 
L 129.6045 264.119811 
L 132.414503 261.686988 
L 135.224505 258.938991 
L 135.536728 258.614504 
L 135.84895 276.299177 
L 138.658953 278.214188 
L 141.156733 279.664923 
L 141.781178 279.991271 
L 142.0934 267.702788 
L 144.903403 265.481387 
L 147.713405 262.977739 
L 148.025628 262.682481 
L 148.33785 264.019507 
L 151.147853 261.639373 
L 154.270078 258.685428 
L 154.5823 268.700396 
L 157.08008 268.653621 
L 159.890083 268.369115 
L 160.514528 268.2734 
L 160.82675 279.305276 
L 163.948975 282.071405 
L 166.758978 284.324477 
L 167.0712 289.000825 
L 170.81787 293.298307 
L 173.003428 295.639176 
L 173.31565 274.793264 
L 177.06232 270.613909 
L 179.247878 268.027949 
L 179.5601 283.872451 
L 182.994548 285.126221 
L 185.492328 285.889782 
L 185.80455 288.616272 
L 189.55122 290.508846 
L 191.736778 291.502513 
L 192.049 269.567672 
L 197.669005 259.417592 
L 197.981228 258.841007 
L 198.29345 261.250124 
L 204.225678 251.820387 
L 204.5379 269.880097 
L 209.845683 270.949952 
L 210.470128 271.061796 
L 210.78235 277.164523 
L 216.714578 281.680816 
L 217.0268 283.069428 
L 222.959028 288.147722 
L 223.27125 277.32075 
L 229.203478 275.845218 
L 229.5157 280.13236 
L 235.447928 281.347465 
L 235.76015 289.169519 
L 241.692378 295.194042 
L 242.0046 287.37084 
L 246.687938 288.569215 
L 247.936828 288.930265 
L 248.24905 278.23058 
L 252.932388 274.752385 
L 254.181278 273.877696 
L 254.4935 287.696406 
L 258.552393 290.715821 
L 260.425728 292.204797 
L 260.73795 288.152776 
L 264.172398 289.600925 
L 266.670178 290.802396 
L 266.9824 279.667804 
L 270.416848 277.700895 
L 272.914628 276.439909 
L 273.22685 264.315712 
L 277.285743 257.783375 
L 279.159078 254.91149 
L 279.4713 269.673202 
L 282.281303 269.827802 
L 285.091305 270.205024 
L 285.403528 270.261083 
L 285.71575 274.913031 
L 288.837975 277.090781 
L 291.647978 279.307835 
L 291.9602 263.385689 
L 294.770203 261.356949 
L 297.580205 259.590411 
L 297.892428 259.410679 
L 298.20465 280.0333 
L 301.639098 285.428467 
L 304.136878 289.616218 
L 304.4491 285.735389 
L 307.571325 289.954487 
L 310.381328 294.066439 
L 310.69355 275.322804 
L 313.19133 274.486131 
L 315.68911 273.896668 
L 316.625778 273.740338 
L 316.938 268.130443 
L 319.43578 266.536862 
L 321.93356 265.202199 
L 322.870228 264.769357 
L 323.18245 270.294695 
L 325.368008 270.690923 
L 327.553565 271.293181 
L 329.114678 271.850999 
L 329.4269 294.81204 
L 333.17357 305.16039 
L 335.359128 311.488152 
L 335.67135 280.776491 
L 337.856908 280.470678 
L 340.042465 280.384872 
L 341.603578 280.459445 
L 341.9158 272.918306 
L 344.41358 271.429657 
L 346.599138 270.369104 
L 347.848028 269.865215 
L 348.16025 274.657884 
L 350.345808 275.05635 
L 352.531365 275.685332 
L 354.092478 276.276554 
L 354.4047 271.857523 
L 356.590258 271.928163 
L 358.775815 272.233215 
L 360.336928 272.595268 
L 360.64915 265.432789 
L 362.834708 264.598931 
L 365.020265 264.00246 
L 366.581378 263.722207 
L 366.8936 273.028885 
L 369.39138 275.197336 
L 371.88916 277.678601 
L 372.825828 278.68987 
L 373.13805 284.308049 
L 375.948053 289.125343 
L 380.63139 297.725667 
L 383.753615 304.195098 
L 385.314728 307.613896 
L 385.62695 284.657447 
L 387.812508 284.537511 
L 389.998065 284.657425 
L 391.559178 284.889649 
L 391.8714 284.231473 
L 394.056958 284.638907 
L 396.242515 285.284439 
L 397.803628 285.890847 
L 398.11585 283.397606 
L 400.301408 283.911028 
L 402.486965 284.659853 
L 404.048078 285.338213 
L 404.3603 287.444773 
L 406.85808 289.302032 
L 409.35586 291.461753 
L 410.292528 292.349173 
L 410.60475 278.999954 
L 412.790308 278.295958 
L 414.975865 277.819205 
L 416.536978 277.616803 
L 416.8492 271.655041 
L 419.34698 270.129374 
L 421.84476 268.893029 
L 422.781428 268.503346 
L 423.09365 271.450842 
L 425.279208 271.395654 
L 427.464765 271.555967 
L 429.025878 271.801083 
L 429.3381 283.775278 
L 432.148103 287.858177 
L 435.270328 292.796917 
L 435.58255 274.659957 
L 437.768108 274.335281 
L 439.953665 274.210964 
L 441.514778 274.243186 
L 441.827 273.874387 
L 444.32478 274.067866 
L 446.82256 274.510975 
L 447.759228 274.740508 
L 448.07145 294.595063 
L 451.81812 303.270606 
L 454.003678 308.576155 
L 454.3159 281.023283 
L 456.81368 280.287446 
L 459.31146 279.775317 
L 460.248128 279.639799 
L 460.56035 292.530441 
L 463.682575 296.347893 
L 466.492578 300.061687 
L 466.8048 291.427314 
L 469.614803 292.888327 
L 472.424805 294.594206 
L 472.737028 294.798476 
L 473.04925 273.866995 
L 476.79592 268.690616 
L 478.981478 265.854397 
L 479.2937 269.079731 
L 482.728148 266.148784 
L 485.225928 264.207233 
L 485.53815 278.212674 
L 488.972598 280.683192 
L 491.470378 282.649427 
L 491.7826 284.938403 
L 495.841493 289.265523 
L 497.714828 291.37332 
L 498.02705 278.233338 
L 501.461498 277.670206 
L 503.959278 277.387121 
L 504.2715 290.186765 
L 509.26706 296.309109 
L 510.203728 297.495403 
L 510.51595 279.374402 
L 515.199288 276.847758 
L 516.448178 276.213943 
L 516.7604 278.797104 
L 522.068183 277.719587 
L 522.692628 277.606842 
L 523.00485 271.657845 
L 528.937078 267.224038 
L 529.2493 275.195961 
L 535.181528 275.725303 
L 535.49375 284.565777 
L 541.425978 290.301563 
L 541.7382 278.989798 
L 547.670428 277.754254 
L 547.98265 279.650051 
L 553.602655 279.367767 
L 553.914878 279.344447 
L 554.2271 287.945022 
L 559.534883 291.937108 
L 560.159328 292.385833 
L 560.47155 289.543144 
L 564.842665 291.190132 
L 566.403778 291.712539 
L 566.716 288.182275 
L 570.46267 287.906049 
L 572.648228 287.633938 
L 572.96045 279.315745 
L 577.019343 275.206419 
L 578.892678 273.198065 
L 579.2049 270.19512 
L 583.263793 264.479614 
L 585.137128 261.714046 
L 585.44935 272.97399 
L 588.571575 271.796217 
L 591.381578 270.522796 
L 591.6938 284.011149 
L 594.816025 286.560371 
L 597.626028 288.618953 
L 597.93825 282.810901 
L 600.748253 282.925501 
L 603.558255 282.79721 
L 603.870477 282.767577 
L 604.1827 274.247278 
L 607.304925 271.107581 
L 610.114928 268.004425 
L 610.42715 266.536375 
L 613.549375 262.391587 
L 616.359378 258.364598 
L 616.6716 278.789091 
L 619.16938 280.132176 
L 621.66716 281.240737 
L 622.603828 281.59492 
L 622.91605 276.056136 
L 625.41383 275.398553 
L 627.91161 274.49376 
L 628.848277 274.089743 
L 629.1605 278.965835 
L 631.346058 278.947799 
L 633.531615 278.731956 
L 635.092728 278.455027 
L 635.40495 293.079728 
L 638.214952 296.392022 
L 641.024955 299.362458 
L 641.337178 299.671157 
L 641.6494 292.440281 
L 643.834958 292.810724 
L 646.020515 292.967726 
L 647.581628 292.947862 
L 647.89385 285.242576 
L 650.39163 283.032313 
L 652.88941 280.534297 
L 653.826077 279.522718 
L 654.1383 281.274298 
L 656.63608 278.860544 
L 659.13386 276.151651 
L 660.070528 275.059183 
L 660.38275 279.200593 
L 662.88053 277.166731 
L 665.37831 274.831508 
L 666.314978 273.877659 
L 666.6272 280.42794 
L 668.812758 279.498674 
L 670.998315 278.334995 
L 672.559428 277.359638 
L 672.87165 274.244743 
L 675.36943 271.67215 
L 677.86721 268.789342 
L 678.803877 267.628063 
L 679.1161 281.376759 
L 681.301658 281.539917 
L 683.487215 281.463652 
L 685.048328 281.262314 
L 685.36055 289.718077 
L 687.546108 291.047595 
L 689.731665 292.136598 
L 691.292778 292.76711 
L 691.292778 292.76711 
" clip-path="url(#p0971c7ec20)" style="fill: none; stroke: #1f77b4; stroke-width: 1.5; stroke-linecap: square"/>
   </g>
   <g id="line2d_29">
    <path d="M 70.675135 -1 
L 73.40445 247.038666 
L 79.6489 252.058237 
L 85.89335 251.018341 
L 92.1378 251.005365 
L 98.38225 251.173181 
L 104.6267 251.221076 
L 110.87115 251.222205 
L 117.1156 251.220809 
L 123.36005 251.221027 
L 129.6045 251.221272 
L 135.84895 251.221318 
L 142.0934 251.221316 
L 148.33785 251.221314 
L 154.5823 251.221315 
L 160.82675 251.221315 
L 167.0712 251.221315 
L 173.31565 251.221315 
L 179.5601 251.221315 
L 185.80455 251.221315 
L 192.049 251.221315 
L 198.29345 251.221315 
L 204.5379 251.221315 
L 210.78235 251.221315 
L 217.0268 251.221315 
L 223.27125 251.221315 
L 229.5157 251.221315 
L 235.76015 251.221315 
L 242.0046 251.221315 
L 248.24905 251.221315 
L 254.4935 251.221315 
L 260.73795 251.221315 
L 266.9824 251.221315 
L 273.22685 251.221315 
L 279.4713 251.221315 
L 285.71575 251.221315 
L 291.9602 251.221315 
L 298.20465 251.221315 
L 304.4491 251.221315 
L 310.69355 251.221315 
L 316.938 251.221315 
L 323.18245 251.221315 
L 329.4269 251.221315 
L 335.67135 251.221315 
L 341.9158 251.221315 
L 348.16025 251.221315 
L 354.4047 251.221315 
L 360.64915 251.221315 
L 366.8936 251.221315 
L 373.13805 251.221315 
L 379.3825 251.221315 
L 385.62695 251.221315 
L 391.8714 251.221315 
L 398.11585 251.221315 
L 404.3603 251.221315 
L 410.60475 251.221315 
L 416.8492 251.221315 
L 423.09365 251.221315 
L 429.3381 251.221315 
L 435.58255 251.221315 
L 441.827 251.221315 
L 448.07145 251.221315 
L 454.3159 251.221315 
L 460.56035 251.221315 
L 466.8048 251.221315 
L 473.04925 251.221315 
L 479.2937 251.221315 
L 485.53815 251.221315 
L 491.7826 251.221315 
L 498.02705 251.221315 
L 504.2715 251.221315 
L 510.51595 251.221315 
L 516.7604 251.221315 
L 523.00485 251.221315 
L 529.2493 251.221315 
L 535.49375 251.221315 
L 541.7382 251.221315 
L 547.98265 251.221315 
L 554.2271 251.221315 
L 560.47155 251.221315 
L 566.716 251.221315 
L 572.96045 251.221315 
L 579.2049 251.221315 
L 585.44935 251.221315 
L 591.6938 251.221315 
L 597.93825 251.221315 
L 604.1827 251.221315 
L 610.42715 251.221315 
L 616.6716 251.221315 
L 622.91605 251.221315 
L 629.1605 251.221315 
L 635.40495 251.221315 
L 641.6494 251.221315 
L 647.89385 251.221315 
L 654.1383 251.221315 
L 660.38275 251.221315 
L 666.6272 251.221315 
L 672.87165 251.221315 
L 679.1161 251.221315 
L 685.36055 251.221315 
" clip-path="url(#p0971c7ec20)" style="fill: none; stroke-dasharray: 5.55,2.4; stroke-dashoffset: 0; stroke: #ff0000; stroke-width: 1.5"/>
   </g>
   <g id="line2d_30">
    <path d="M 68.845624 721 
L 73.40445 306.696334 
L 79.6489 301.676763 
L 85.89335 302.716659 
L 92.1378 302.729635 
L 98.38225 302.561819 
L 104.6267 302.513924 
L 110.87115 302.512795 
L 117.1156 302.514191 
L 123.36005 302.513973 
L 129.6045 302.513728 
L 135.84895 302.513682 
L 142.0934 302.513684 
L 148.33785 302.513686 
L 154.5823 302.513685 
L 160.82675 302.513685 
L 167.0712 302.513685 
L 173.31565 302.513685 
L 179.5601 302.513685 
L 185.80455 302.513685 
L 192.049 302.513685 
L 198.29345 302.513685 
L 204.5379 302.513685 
L 210.78235 302.513685 
L 217.0268 302.513685 
L 223.27125 302.513685 
L 229.5157 302.513685 
L 235.76015 302.513685 
L 242.0046 302.513685 
L 248.24905 302.513685 
L 254.4935 302.513685 
L 260.73795 302.513685 
L 266.9824 302.513685 
L 273.22685 302.513685 
L 279.4713 302.513685 
L 285.71575 302.513685 
L 291.9602 302.513685 
L 298.20465 302.513685 
L 304.4491 302.513685 
L 310.69355 302.513685 
L 316.938 302.513685 
L 323.18245 302.513685 
L 329.4269 302.513685 
L 335.67135 302.513685 
L 341.9158 302.513685 
L 348.16025 302.513685 
L 354.4047 302.513685 
L 360.64915 302.513685 
L 366.8936 302.513685 
L 373.13805 302.513685 
L 379.3825 302.513685 
L 385.62695 302.513685 
L 391.8714 302.513685 
L 398.11585 302.513685 
L 404.3603 302.513685 
L 410.60475 302.513685 
L 416.8492 302.513685 
L 423.09365 302.513685 
L 429.3381 302.513685 
L 435.58255 302.513685 
L 441.827 302.513685 
L 448.07145 302.513685 
L 454.3159 302.513685 
L 460.56035 302.513685 
L 466.8048 302.513685 
L 473.04925 302.513685 
L 479.2937 302.513685 
L 485.53815 302.513685 
L 491.7826 302.513685 
L 498.02705 302.513685 
L 504.2715 302.513685 
L 510.51595 302.513685 
L 516.7604 302.513685 
L 523.00485 302.513685 
L 529.2493 302.513685 
L 535.49375 302.513685 
L 541.7382 302.513685 
L 547.98265 302.513685 
L 554.2271 302.513685 
L 560.47155 302.513685 
L 566.716 302.513685 
L 572.96045 302.513685 
L 579.2049 302.513685 
L 585.44935 302.513685 
L 591.6938 302.513685 
L 597.93825 302.513685 
L 604.1827 302.513685 
L 610.42715 302.513685 
L 616.6716 302.513685 
L 622.91605 302.513685 
L 629.1605 302.513685 
L 635.40495 302.513685 
L 641.6494 302.513685 
L 647.89385 302.513685 
L 654.1383 302.513685 
L 660.38275 302.513685 
L 666.6272 302.513685 
L 672.87165 302.513685 
L 679.1161 302.513685 
L 685.36055 302.513685 
" clip-path="url(#p0971c7ec20)" style="fill: none; stroke-dasharray: 5.55,2.4; stroke-dashoffset: 0; stroke: #ff0000; stroke-width: 1.5"/>
   </g>
   <g id="patch_8">
    <path d="M 67.16 347.35 
L 67.16 206.385 
" style="fill: none; stroke: #000000; stroke-width: 0.8; stroke-linejoin: miter; stroke-linecap: square"/>
   </g>
   <g id="patch_9">
    <path d="M 691.605 347.35 
L 691.605 206.385 
" style="fill: none; stroke: #000000; stroke-width: 0.8; stroke-linejoin: miter; stroke-linecap: square"/>
   </g>
   <g id="patch_10">
    <path d="M 67.16 347.35 
L 691.605 347.35 
" style="fill: none; stroke: #000000; stroke-width: 0.8; stroke-linejoin: miter; stroke-linecap: square"/>
   </g>
   <g id="patch_11">
    <path d="M 67.16 206.385 
L 691.605 206.385 
" style="fill: none; stroke: #000000; stroke-width: 0.8; stroke-linejoin: miter; stroke-linecap: square"/>
   </g>
  </g>
  <g id="axes_3">
   <g id="patch_12">
    <path d="M 67.16 506.935 
L 691.605 506.935 
L 691.605 365.97 
L 67.16 365.97 
z
" style="fill: #ffffff"/>
   </g>
   <g id="matplotlib.axis_5">
    <g id="xtick_19">
     <g id="line2d_31">
      <g>
       <use xlink:href="#m9b17578322" x="67.16" y="506.935" style="stroke: #000000; stroke-width: 0.8"/>
      </g>
     </g>
    </g>
    <g id="xtick_20">
     <g id="line2d_32">
      <g>
       <use xlink:href="#m9b17578322" x="145.215625" y="506.935" style="stroke: #000000; stroke-width: 0.8"/>
      </g>
     </g>
    </g>
    <g id="xtick_21">
     <g id="line2d_33">
      <g>
       <use xlink:href="#m9b17578322" x="223.27125" y="506.935" style="stroke: #000000; stroke-width: 0.8"/>
      </g>
     </g>
    </g>
    <g id="xtick_22">
     <g id="line2d_34">
      <g>
       <use xlink:href="#m9b17578322" x="301.326875" y="506.935" style="stroke: #000000; stroke-width: 0.8"/>
      </g>
     </g>
    </g>
    <g id="xtick_23">
     <g id="line2d_35">
      <g>
       <use xlink:href="#m9b17578322" x="379.3825" y="506.935" style="stroke: #000000; stroke-width: 0.8"/>
      </g>
     </g>
    </g>
    <g id="xtick_24">
     <g id="line2d_36">
      <g>
       <use xlink:href="#m9b17578322" x="457.438125" y="506.935" style="stroke: #000000; stroke-width: 0.8"/>
      </g>
     </g>
    </g>
    <g id="xtick_25">
     <g id="line2d_37">
      <g>
       <use xlink:href="#m9b17578322" x="535.49375" y="506.935" style="stroke: #000000; stroke-width: 0.8"/>
      </g>
     </g>
    </g>
    <g id="xtick_26">
     <g id="line2d_38">
      <g>
       <use xlink:href="#m9b17578322" x="613.549375" y="506.935" style="stroke: #000000; stroke-width: 0.8"/>
      </g>
     </g>
    </g>
    <g id="xtick_27">
     <g id="line2d_39">
      <g>
       <use xlink:href="#m9b17578322" x="691.605" y="506.935" style="stroke: #000000; stroke-width: 0.8"/>
      </g>
     </g>
    </g>
   </g>
   <g id="matplotlib.axis_6">
    <g id="ytick_7">
     <g id="line2d_40">
      <g>
       <use xlink:href="#m01f2bc12ab" x="67.16" y="485.875012" style="stroke: #000000; stroke-width: 0.8"/>
      </g>
     </g>
     <g id="text_9">
      <!-- -1.0 -->
      <g transform="translate(32.844688 491.193918) scale(0.14 -0.14)">
       <defs>
        <path id="DejaVuSans-31" d="M 794 531 
L 1825 531 
L 1825 4091 
L 703 3866 
L 703 4441 
L 1819 4666 
L 2450 4666 
L 2450 531 
L 3481 531 
L 3481 0 
L 794 0 
L 794 531 
z
" transform="scale(0.015625)"/>
       </defs>
       <use xlink:href="#DejaVuSans-2d"/>
       <use xlink:href="#DejaVuSans-31" x="36.083984"/>
       <use xlink:href="#DejaVuSans-2e" x="99.707031"/>
       <use xlink:href="#DejaVuSans-30" x="131.494141"/>
      </g>
     </g>
    </g>
    <g id="ytick_8">
     <g id="line2d_41">
      <g>
       <use xlink:href="#m01f2bc12ab" x="67.16" y="461.163756" style="stroke: #000000; stroke-width: 0.8"/>
      </g>
     </g>
     <g id="text_10">
      <!-- -0.5 -->
      <g transform="translate(32.844688 466.482662) scale(0.14 -0.14)">
       <defs>
        <path id="DejaVuSans-35" d="M 691 4666 
L 3169 4666 
L 3169 4134 
L 1269 4134 
L 1269 2991 
Q 1406 3038 1543 3061 
Q 1681 3084 1819 3084 
Q 2600 3084 3056 2656 
Q 3513 2228 3513 1497 
Q 3513 744 3044 326 
Q 2575 -91 1722 -91 
Q 1428 -91 1123 -41 
Q 819 9 494 109 
L 494 744 
Q 775 591 1075 516 
Q 1375 441 1709 441 
Q 2250 441 2565 725 
Q 2881 1009 2881 1497 
Q 2881 1984 2565 2268 
Q 2250 2553 1709 2553 
Q 1456 2553 1204 2497 
Q 953 2441 691 2322 
L 691 4666 
z
" transform="scale(0.015625)"/>
       </defs>
       <use xlink:href="#DejaVuSans-2d"/>
       <use xlink:href="#DejaVuSans-30" x="36.083984"/>
       <use xlink:href="#DejaVuSans-2e" x="99.707031"/>
       <use xlink:href="#DejaVuSans-35" x="131.494141"/>
      </g>
     </g>
    </g>
    <g id="ytick_9">
     <g id="line2d_42">
      <g>
       <use xlink:href="#m01f2bc12ab" x="67.16" y="436.4525" style="stroke: #000000; stroke-width: 0.8"/>
      </g>
     </g>
     <g id="text_11">
      <!-- 0.0 -->
      <g transform="translate(37.895625 441.771406) scale(0.14 -0.14)">
       <use xlink:href="#DejaVuSans-30"/>
       <use xlink:href="#DejaVuSans-2e" x="63.623047"/>
       <use xlink:href="#DejaVuSans-30" x="95.410156"/>
      </g>
     </g>
    </g>
    <g id="ytick_10">
     <g id="line2d_43">
      <g>
       <use xlink:href="#m01f2bc12ab" x="67.16" y="411.741244" style="stroke: #000000; stroke-width: 0.8"/>
      </g>
     </g>
     <g id="text_12">
      <!-- 0.5 -->
      <g transform="translate(37.895625 417.06015) scale(0.14 -0.14)">
       <use xlink:href="#DejaVuSans-30"/>
       <use xlink:href="#DejaVuSans-2e" x="63.623047"/>
       <use xlink:href="#DejaVuSans-35" x="95.410156"/>
      </g>
     </g>
    </g>
    <g id="ytick_11">
     <g id="line2d_44">
      <g>
       <use xlink:href="#m01f2bc12ab" x="67.16" y="387.029988" style="stroke: #000000; stroke-width: 0.8"/>
      </g>
     </g>
     <g id="text_13">
      <!-- 1.0 -->
      <g transform="translate(37.895625 392.348894) scale(0.14 -0.14)">
       <use xlink:href="#DejaVuSans-31"/>
       <use xlink:href="#DejaVuSans-2e" x="63.623047"/>
       <use xlink:href="#DejaVuSans-30" x="95.410156"/>
      </g>
     </g>
    </g>
    <g id="text_14">
     <!-- Vel N [m/s] -->
     <g transform="translate(25.933125 474.921875) rotate(-90) scale(0.14 -0.14)">
      <defs>
       <path id="DejaVuSans-56" d="M 1831 0 
L 50 4666 
L 709 4666 
L 2188 738 
L 3669 4666 
L 4325 4666 
L 2547 0 
L 1831 0 
z
" transform="scale(0.015625)"/>
       <path id="DejaVuSans-65" d="M 3597 1894 
L 3597 1613 
L 953 1613 
Q 991 1019 1311 708 
Q 1631 397 2203 397 
Q 2534 397 2845 478 
Q 3156 559 3463 722 
L 3463 178 
Q 3153 47 2828 -22 
Q 2503 -91 2169 -91 
Q 1331 -91 842 396 
Q 353 884 353 1716 
Q 353 2575 817 3079 
Q 1281 3584 2069 3584 
Q 2775 3584 3186 3129 
Q 3597 2675 3597 1894 
z
M 3022 2063 
Q 3016 2534 2758 2815 
Q 2500 3097 2075 3097 
Q 1594 3097 1305 2825 
Q 1016 2553 972 2059 
L 3022 2063 
z
" transform="scale(0.015625)"/>
       <path id="DejaVuSans-6c" d="M 603 4863 
L 1178 4863 
L 1178 0 
L 603 0 
L 603 4863 
z
" transform="scale(0.015625)"/>
       <path id="DejaVuSans-2f" d="M 1625 4666 
L 2156 4666 
L 531 -594 
L 0 -594 
L 1625 4666 
z
" transform="scale(0.015625)"/>
      </defs>
      <use xlink:href="#DejaVuSans-56"/>
      <use xlink:href="#DejaVuSans-65" x="60.658203"/>
      <use xlink:href="#DejaVuSans-6c" x="122.181641"/>
      <use xlink:href="#DejaVuSans-20" x="149.964844"/>
      <use xlink:href="#DejaVuSans-4e" x="181.751953"/>
      <use xlink:href="#DejaVuSans-20" x="256.556641"/>
      <use xlink:href="#DejaVuSans-5b" x="288.34375"/>
      <use xlink:href="#DejaVuSans-6d" x="327.357422"/>
      <use xlink:href="#DejaVuSans-2f" x="424.769531"/>
      <use xlink:href="#DejaVuSans-73" x="458.460938"/>
      <use xlink:href="#DejaVuSans-5d" x="510.560547"/>
     </g>
    </g>
   </g>
   <g id="line2d_45">
    <path d="M 67.16 436.4525 
L 74.965563 436.344623 
L 79.336678 436.173296 
L 79.6489 431.423294 
L 85.581128 431.06449 
L 85.89335 444.002706 
L 91.825578 443.500904 
L 92.1378 428.831361 
L 98.070028 428.188542 
L 98.38225 441.16456 
L 104.314478 440.38326 
L 104.6267 433.036122 
L 110.558928 432.119424 
L 110.87115 432.64013 
L 116.803378 431.591653 
L 117.1156 437.569571 
L 123.047828 436.393452 
L 123.36005 416.845733 
L 129.292278 415.546614 
L 129.6045 439.305125 
L 135.536728 437.888133 
L 135.84895 437.037781 
L 141.781178 435.508508 
L 142.0934 431.788028 
L 148.025628 430.152509 
L 148.33785 444.726404 
L 154.270078 442.991095 
L 154.5823 428.886629 
L 160.514528 427.058378 
L 160.82675 435.480314 
L 166.758978 433.566335 
L 167.0712 430.179653 
L 173.003428 428.1875 
L 173.31565 441.481487 
L 179.247878 439.419024 
L 179.5601 441.673324 
L 185.492328 439.548688 
L 185.80455 425.491731 
L 191.736778 423.313309 
L 192.049 429.092588 
L 197.981228 426.868976 
L 198.29345 434.26364 
L 204.225678 432.003614 
L 204.5379 432.561764 
L 210.470128 430.274243 
L 210.78235 433.308146 
L 216.714578 431.002158 
L 217.0268 443.230167 
L 222.959028 440.914813 
L 223.27125 447.48531 
L 229.203478 445.169728 
L 229.5157 439.296794 
L 235.447928 436.990122 
L 235.76015 435.214153 
L 241.692378 432.925494 
L 242.0046 435.929305 
L 247.936828 433.667691 
L 248.24905 426.258595 
L 254.181278 424.032952 
L 254.4935 426.538889 
L 260.425728 424.358001 
L 260.73795 427.234493 
L 266.670178 425.106967 
L 266.9824 429.082657 
L 272.914628 427.016889 
L 273.22685 435.255985 
L 279.159078 433.260128 
L 279.4713 435.642566 
L 285.403528 433.724497 
L 285.71575 433.262426 
L 291.647978 431.429713 
L 291.9602 439.210013 
L 297.892428 437.469891 
L 298.20465 437.003284 
L 304.136878 435.362619 
L 304.4491 431.083276 
L 310.381328 429.548544 
L 310.69355 435.243848 
L 316.625778 433.821106 
L 316.938 435.565917 
L 322.870228 434.260779 
L 323.18245 432.758471 
L 329.114678 431.576087 
L 329.4269 424.957705 
L 335.359128 423.902743 
L 335.67135 433.416325 
L 341.603578 432.492948 
L 341.9158 440.295695 
L 347.848028 439.507547 
L 348.16025 441.366594 
L 354.092478 440.716785 
L 354.4047 436.429773 
L 360.336928 435.920869 
L 360.64915 421.570909 
L 366.581378 421.204917 
L 366.8936 454.862569 
L 372.825828 454.640934 
L 373.13805 434.240603 
L 379.070278 434.164199 
L 379.3825 431.559735 
L 385.314728 431.628865 
L 385.62695 429.586419 
L 391.559178 429.800809 
L 391.8714 443.794339 
L 397.803628 444.153143 
L 398.11585 425.922865 
L 404.048078 426.424667 
L 404.3603 432.677003 
L 410.292528 433.319823 
L 410.60475 442.531576 
L 416.536978 443.312876 
L 416.8492 441.6006 
L 422.781428 442.517297 
L 423.09365 444.492748 
L 429.025878 445.541226 
L 429.3381 437.828539 
L 435.270328 439.004658 
L 435.58255 437.216658 
L 441.514778 438.515777 
L 441.827 431.285459 
L 447.759228 432.702451 
L 448.07145 436.211242 
L 454.003678 437.740514 
L 454.3159 440.968439 
L 460.248128 442.603957 
L 460.56035 436.746296 
L 466.492578 438.481606 
L 466.8048 437.153267 
L 472.737028 438.981519 
L 473.04925 439.835196 
L 478.981478 441.749175 
L 479.2937 449.961484 
L 485.225928 451.953636 
L 485.53815 433.031985 
L 491.470378 435.094449 
L 491.7826 443.71375 
L 497.714828 445.838385 
L 498.02705 443.460055 
L 503.959278 445.638477 
L 504.2715 436.242816 
L 510.203728 438.466428 
L 510.51595 432.15166 
L 516.448178 434.411686 
L 516.7604 429.19653 
L 522.692628 431.484051 
L 523.00485 450.509331 
L 528.937078 452.815318 
L 529.2493 433.012496 
L 535.181528 435.32785 
L 535.49375 430.299785 
L 541.425978 432.615367 
L 541.7382 445.526964 
L 547.670428 447.833637 
L 547.98265 445.124547 
L 553.914878 447.413206 
L 554.2271 444.359948 
L 560.159328 446.621562 
L 560.47155 441.913524 
L 566.403778 444.139166 
L 566.716 444.115048 
L 572.648228 446.295936 
L 572.96045 444.316212 
L 578.892678 446.443738 
L 579.2049 433.444488 
L 585.137128 435.510256 
L 585.44935 430.46374 
L 591.381578 432.459597 
L 591.6938 424.572816 
L 597.626028 426.490886 
L 597.93825 445.497421 
L 603.870477 447.330134 
L 604.1827 453.975772 
L 610.114928 455.715894 
L 610.42715 436.394306 
L 616.359378 438.034971 
L 616.6716 436.119429 
L 622.603828 437.654161 
L 622.91605 432.327159 
L 628.848277 433.749901 
L 629.1605 438.216818 
L 635.092728 439.521956 
L 635.40495 444.49216 
L 641.337178 445.674543 
L 641.6494 439.816845 
L 647.581628 440.871807 
L 647.89385 429.122047 
L 653.826077 430.045424 
L 654.1383 433.126706 
L 660.070528 433.914854 
L 660.38275 443.111182 
L 666.314978 443.760991 
L 666.6272 432.555973 
L 672.559428 433.064877 
L 672.87165 444.925195 
L 678.803877 445.291187 
L 679.1161 439.28562 
L 685.048328 439.507255 
L 685.36055 432.41762 
L 691.292778 432.494024 
L 691.292778 432.494024 
" clip-path="url(#p53e4035ab5)" style="fill: none; stroke: #1f77b4; stroke-width: 1.5; stroke-linecap: square"/>
   </g>
   <g id="line2d_46">
    <path d="M 67.16 421.625746 
L 73.40445 400.149299 
L 79.6489 396.095662 
L 85.89335 399.85936 
L 92.1378 401.441376 
L 98.38225 401.57388 
L 104.6267 401.535834 
L 110.87115 401.535479 
L 117.1156 401.541558 
L 123.36005 401.54324 
L 129.6045 401.543267 
L 135.84895 401.543217 
L 142.0934 401.543226 
L 148.33785 401.543235 
L 154.5823 401.543237 
L 160.82675 401.543237 
L 167.0712 401.543237 
L 173.31565 401.543237 
L 179.5601 401.543237 
L 185.80455 401.543237 
L 192.049 401.543237 
L 198.29345 401.543237 
L 204.5379 401.543237 
L 210.78235 401.543237 
L 217.0268 401.543237 
L 223.27125 401.543237 
L 229.5157 401.543237 
L 235.76015 401.543237 
L 242.0046 401.543237 
L 248.24905 401.543237 
L 254.4935 401.543237 
L 260.73795 401.543237 
L 266.9824 401.543237 
L 273.22685 401.543237 
L 279.4713 401.543237 
L 285.71575 401.543237 
L 291.9602 401.543237 
L 298.20465 401.543237 
L 304.4491 401.543237 
L 310.69355 401.543237 
L 316.938 401.543237 
L 323.18245 401.543237 
L 329.4269 401.543237 
L 335.67135 401.543237 
L 341.9158 401.543237 
L 348.16025 401.543237 
L 354.4047 401.543237 
L 360.64915 401.543237 
L 366.8936 401.543237 
L 373.13805 401.543237 
L 379.3825 401.543237 
L 385.62695 401.543237 
L 391.8714 401.543237 
L 398.11585 401.543237 
L 404.3603 401.543237 
L 410.60475 401.543237 
L 416.8492 401.543237 
L 423.09365 401.543237 
L 429.3381 401.543237 
L 435.58255 401.543237 
L 441.827 401.543237 
L 448.07145 401.543237 
L 454.3159 401.543237 
L 460.56035 401.543237 
L 466.8048 401.543237 
L 473.04925 401.543237 
L 479.2937 401.543237 
L 485.53815 401.543237 
L 491.7826 401.543237 
L 498.02705 401.543237 
L 504.2715 401.543237 
L 510.51595 401.543237 
L 516.7604 401.543237 
L 523.00485 401.543237 
L 529.2493 401.543237 
L 535.49375 401.543237 
L 541.7382 401.543237 
L 547.98265 401.543237 
L 554.2271 401.543237 
L 560.47155 401.543237 
L 566.716 401.543237 
L 572.96045 401.543237 
L 579.2049 401.543237 
L 585.44935 401.543237 
L 591.6938 401.543237 
L 597.93825 401.543237 
L 604.1827 401.543237 
L 610.42715 401.543237 
L 616.6716 401.543237 
L 622.91605 401.543237 
L 629.1605 401.543237 
L 635.40495 401.543237 
L 641.6494 401.543237 
L 647.89385 401.543237 
L 654.1383 401.543237 
L 660.38275 401.543237 
L 666.6272 401.543237 
L 672.87165 401.543237 
L 679.1161 401.543237 
L 685.36055 401.543237 
" clip-path="url(#p53e4035ab5)" style="fill: none; stroke-dasharray: 5.55,2.4; stroke-dashoffset: 0; stroke: #ff0000; stroke-width: 1.5"/>
   </g>
   <g id="line2d_47">
    <path d="M 67.16 451.279254 
L 73.40445 472.755701 
L 79.6489 476.809338 
L 85.89335 473.04564 
L 92.1378 471.463624 
L 98.38225 471.33112 
L 104.6267 471.369166 
L 110.87115 471.369521 
L 117.1156 471.363442 
L 123.36005 471.36176 
L 129.6045 471.361733 
L 135.84895 471.361783 
L 142.0934 471.361774 
L 148.33785 471.361765 
L 154.5823 471.361763 
L 160.82675 471.361763 
L 167.0712 471.361763 
L 173.31565 471.361763 
L 179.5601 471.361763 
L 185.80455 471.361763 
L 192.049 471.361763 
L 198.29345 471.361763 
L 204.5379 471.361763 
L 210.78235 471.361763 
L 217.0268 471.361763 
L 223.27125 471.361763 
L 229.5157 471.361763 
L 235.76015 471.361763 
L 242.0046 471.361763 
L 248.24905 471.361763 
L 254.4935 471.361763 
L 260.73795 471.361763 
L 266.9824 471.361763 
L 273.22685 471.361763 
L 279.4713 471.361763 
L 285.71575 471.361763 
L 291.9602 471.361763 
L 298.20465 471.361763 
L 304.4491 471.361763 
L 310.69355 471.361763 
L 316.938 471.361763 
L 323.18245 471.361763 
L 329.4269 471.361763 
L 335.67135 471.361763 
L 341.9158 471.361763 
L 348.16025 471.361763 
L 354.4047 471.361763 
L 360.64915 471.361763 
L 366.8936 471.361763 
L 373.13805 471.361763 
L 379.3825 471.361763 
L 385.62695 471.361763 
L 391.8714 471.361763 
L 398.11585 471.361763 
L 404.3603 471.361763 
L 410.60475 471.361763 
L 416.8492 471.361763 
L 423.09365 471.361763 
L 429.3381 471.361763 
L 435.58255 471.361763 
L 441.827 471.361763 
L 448.07145 471.361763 
L 454.3159 471.361763 
L 460.56035 471.361763 
L 466.8048 471.361763 
L 473.04925 471.361763 
L 479.2937 471.361763 
L 485.53815 471.361763 
L 491.7826 471.361763 
L 498.02705 471.361763 
L 504.2715 471.361763 
L 510.51595 471.361763 
L 516.7604 471.361763 
L 523.00485 471.361763 
L 529.2493 471.361763 
L 535.49375 471.361763 
L 541.7382 471.361763 
L 547.98265 471.361763 
L 554.2271 471.361763 
L 560.47155 471.361763 
L 566.716 471.361763 
L 572.96045 471.361763 
L 579.2049 471.361763 
L 585.44935 471.361763 
L 591.6938 471.361763 
L 597.93825 471.361763 
L 604.1827 471.361763 
L 610.42715 471.361763 
L 616.6716 471.361763 
L 622.91605 471.361763 
L 629.1605 471.361763 
L 635.40495 471.361763 
L 641.6494 471.361763 
L 647.89385 471.361763 
L 654.1383 471.361763 
L 660.38275 471.361763 
L 666.6272 471.361763 
L 672.87165 471.361763 
L 679.1161 471.361763 
L 685.36055 471.361763 
" clip-path="url(#p53e4035ab5)" style="fill: none; stroke-dasharray: 5.55,2.4; stroke-dashoffset: 0; stroke: #ff0000; stroke-width: 1.5"/>
   </g>
   <g id="patch_13">
    <path d="M 67.16 506.935 
L 67.16 365.97 
" style="fill: none; stroke: #000000; stroke-width: 0.8; stroke-linejoin: miter; stroke-linecap: square"/>
   </g>
   <g id="patch_14">
    <path d="M 691.605 506.935 
L 691.605 365.97 
" style="fill: none; stroke: #000000; stroke-width: 0.8; stroke-linejoin: miter; stroke-linecap: square"/>
   </g>
   <g id="patch_15">
    <path d="M 67.16 506.935 
L 691.605 506.935 
" style="fill: none; stroke: #000000; stroke-width: 0.8; stroke-linejoin: miter; stroke-linecap: square"/>
   </g>
   <g id="patch_16">
    <path d="M 67.16 365.97 
L 691.605 365.97 
" style="fill: none; stroke: #000000; stroke-width: 0.8; stroke-linejoin: miter; stroke-linecap: square"/>
   </g>
  </g>
  <g id="axes_4">
   <g id="patch_17">
    <path d="M 67.16 666.52 
L 691.605 666.52 
L 691.605 525.555 
L 67.16 525.555 
z
" style="fill: #ffffff"/>
   </g>
   <g id="matplotlib.axis_7">
    <g id="xtick_28">
     <g id="line2d_48">
      <g>
       <use xlink:href="#m9b17578322" x="67.16" y="666.52" style="stroke: #000000; stroke-width: 0.8"/>
      </g>
     </g>
     <g id="text_15">
      <!-- 0 -->
      <g transform="translate(62.70625 684.157813) scale(0.14 -0.14)">
       <use xlink:href="#DejaVuSans-30"/>
      </g>
     </g>
    </g>
    <g id="xtick_29">
     <g id="line2d_49">
      <g>
       <use xlink:href="#m9b17578322" x="145.215625" y="666.52" style="stroke: #000000; stroke-width: 0.8"/>
      </g>
     </g>
     <g id="text_16">
      <!-- 25 -->
      <g transform="translate(136.308125 684.157813) scale(0.14 -0.14)">
       <use xlink:href="#DejaVuSans-32"/>
       <use xlink:href="#DejaVuSans-35" x="63.623047"/>
      </g>
     </g>
    </g>
    <g id="xtick_30">
     <g id="line2d_50">
      <g>
       <use xlink:href="#m9b17578322" x="223.27125" y="666.52" style="stroke: #000000; stroke-width: 0.8"/>
      </g>
     </g>
     <g id="text_17">
      <!-- 50 -->
      <g transform="translate(214.36375 684.157813) scale(0.14 -0.14)">
       <use xlink:href="#DejaVuSans-35"/>
       <use xlink:href="#DejaVuSans-30" x="63.623047"/>
      </g>
     </g>
    </g>
    <g id="xtick_31">
     <g id="line2d_51">
      <g>
       <use xlink:href="#m9b17578322" x="301.326875" y="666.52" style="stroke: #000000; stroke-width: 0.8"/>
      </g>
     </g>
     <g id="text_18">
      <!-- 75 -->
      <g transform="translate(292.419375 684.157813) scale(0.14 -0.14)">
       <defs>
        <path id="DejaVuSans-37" d="M 525 4666 
L 3525 4666 
L 3525 4397 
L 1831 0 
L 1172 0 
L 2766 4134 
L 525 4134 
L 525 4666 
z
" transform="scale(0.015625)"/>
       </defs>
       <use xlink:href="#DejaVuSans-37"/>
       <use xlink:href="#DejaVuSans-35" x="63.623047"/>
      </g>
     </g>
    </g>
    <g id="xtick_32">
     <g id="line2d_52">
      <g>
       <use xlink:href="#m9b17578322" x="379.3825" y="666.52" style="stroke: #000000; stroke-width: 0.8"/>
      </g>
     </g>
     <g id="text_19">
      <!-- 100 -->
      <g transform="translate(366.02125 684.157813) scale(0.14 -0.14)">
       <use xlink:href="#DejaVuSans-31"/>
       <use xlink:href="#DejaVuSans-30" x="63.623047"/>
       <use xlink:href="#DejaVuSans-30" x="127.246094"/>
      </g>
     </g>
    </g>
    <g id="xtick_33">
     <g id="line2d_53">
      <g>
       <use xlink:href="#m9b17578322" x="457.438125" y="666.52" style="stroke: #000000; stroke-width: 0.8"/>
      </g>
     </g>
     <g id="text_20">
      <!-- 125 -->
      <g transform="translate(444.076875 684.157813) scale(0.14 -0.14)">
       <use xlink:href="#DejaVuSans-31"/>
       <use xlink:href="#DejaVuSans-32" x="63.623047"/>
       <use xlink:href="#DejaVuSans-35" x="127.246094"/>
      </g>
     </g>
    </g>
    <g id="xtick_34">
     <g id="line2d_54">
      <g>
       <use xlink:href="#m9b17578322" x="535.49375" y="666.52" style="stroke: #000000; stroke-width: 0.8"/>
      </g>
     </g>
     <g id="text_21">
      <!-- 150 -->
      <g transform="translate(522.1325 684.157813) scale(0.14 -0.14)">
       <use xlink:href="#DejaVuSans-31"/>
       <use xlink:href="#DejaVuSans-35" x="63.623047"/>
       <use xlink:href="#DejaVuSans-30" x="127.246094"/>
      </g>
     </g>
    </g>
    <g id="xtick_35">
     <g id="line2d_55">
      <g>
       <use xlink:href="#m9b17578322" x="613.549375" y="666.52" style="stroke: #000000; stroke-width: 0.8"/>
      </g>
     </g>
     <g id="text_22">
      <!-- 175 -->
      <g transform="translate(600.188125 684.157813) scale(0.14 -0.14)">
       <use xlink:href="#DejaVuSans-31"/>
       <use xlink:href="#DejaVuSans-37" x="63.623047"/>
       <use xlink:href="#DejaVuSans-35" x="127.246094"/>
      </g>
     </g>
    </g>
    <g id="xtick_36">
     <g id="line2d_56">
      <g>
       <use xlink:href="#m9b17578322" x="691.605" y="666.52" style="stroke: #000000; stroke-width: 0.8"/>
      </g>
     </g>
     <g id="text_23">
      <!-- 200 -->
      <g transform="translate(678.24375 684.157813) scale(0.14 -0.14)">
       <use xlink:href="#DejaVuSans-32"/>
       <use xlink:href="#DejaVuSans-30" x="63.623047"/>
       <use xlink:href="#DejaVuSans-30" x="127.246094"/>
      </g>
     </g>
    </g>
    <g id="text_24">
     <!-- Timestamp [s] -->
     <g transform="translate(328.979219 701.707188) scale(0.14 -0.14)">
      <defs>
       <path id="DejaVuSans-54" d="M -19 4666 
L 3928 4666 
L 3928 4134 
L 2272 4134 
L 2272 0 
L 1638 0 
L 1638 4134 
L -19 4134 
L -19 4666 
z
" transform="scale(0.015625)"/>
       <path id="DejaVuSans-69" d="M 603 3500 
L 1178 3500 
L 1178 0 
L 603 0 
L 603 3500 
z
M 603 4863 
L 1178 4863 
L 1178 4134 
L 603 4134 
L 603 4863 
z
" transform="scale(0.015625)"/>
       <path id="DejaVuSans-74" d="M 1172 4494 
L 1172 3500 
L 2356 3500 
L 2356 3053 
L 1172 3053 
L 1172 1153 
Q 1172 725 1289 603 
Q 1406 481 1766 481 
L 2356 481 
L 2356 0 
L 1766 0 
Q 1100 0 847 248 
Q 594 497 594 1153 
L 594 3053 
L 172 3053 
L 172 3500 
L 594 3500 
L 594 4494 
L 1172 4494 
z
" transform="scale(0.015625)"/>
       <path id="DejaVuSans-61" d="M 2194 1759 
Q 1497 1759 1228 1600 
Q 959 1441 959 1056 
Q 959 750 1161 570 
Q 1363 391 1709 391 
Q 2188 391 2477 730 
Q 2766 1069 2766 1631 
L 2766 1759 
L 2194 1759 
z
M 3341 1997 
L 3341 0 
L 2766 0 
L 2766 531 
Q 2569 213 2275 61 
Q 1981 -91 1556 -91 
Q 1019 -91 701 211 
Q 384 513 384 1019 
Q 384 1609 779 1909 
Q 1175 2209 1959 2209 
L 2766 2209 
L 2766 2266 
Q 2766 2663 2505 2880 
Q 2244 3097 1772 3097 
Q 1472 3097 1187 3025 
Q 903 2953 641 2809 
L 641 3341 
Q 956 3463 1253 3523 
Q 1550 3584 1831 3584 
Q 2591 3584 2966 3190 
Q 3341 2797 3341 1997 
z
" transform="scale(0.015625)"/>
       <path id="DejaVuSans-70" d="M 1159 525 
L 1159 -1331 
L 581 -1331 
L 581 3500 
L 1159 3500 
L 1159 2969 
Q 1341 3281 1617 3432 
Q 1894 3584 2278 3584 
Q 2916 3584 3314 3078 
Q 3713 2572 3713 1747 
Q 3713 922 3314 415 
Q 2916 -91 2278 -91 
Q 1894 -91 1617 61 
Q 1341 213 1159 525 
z
M 3116 1747 
Q 3116 2381 2855 2742 
Q 2594 3103 2138 3103 
Q 1681 3103 1420 2742 
Q 1159 2381 1159 1747 
Q 1159 1113 1420 752 
Q 1681 391 2138 391 
Q 2594 391 2855 752 
Q 3116 1113 3116 1747 
z
" transform="scale(0.015625)"/>
      </defs>
      <use xlink:href="#DejaVuSans-54"/>
      <use xlink:href="#DejaVuSans-69" x="57.958984"/>
      <use xlink:href="#DejaVuSans-6d" x="85.742188"/>
      <use xlink:href="#DejaVuSans-65" x="183.154297"/>
      <use xlink:href="#DejaVuSans-73" x="244.677734"/>
      <use xlink:href="#DejaVuSans-74" x="296.777344"/>
      <use xlink:href="#DejaVuSans-61" x="335.986328"/>
      <use xlink:href="#DejaVuSans-6d" x="397.265625"/>
      <use xlink:href="#DejaVuSans-70" x="494.677734"/>
      <use xlink:href="#DejaVuSans-20" x="558.154297"/>
      <use xlink:href="#DejaVuSans-5b" x="589.941406"/>
      <use xlink:href="#DejaVuSans-73" x="628.955078"/>
      <use xlink:href="#DejaVuSans-5d" x="681.054688"/>
     </g>
    </g>
   </g>
   <g id="matplotlib.axis_8">
    <g id="ytick_12">
     <g id="line2d_57">
      <g>
       <use xlink:href="#m01f2bc12ab" x="67.16" y="645.460012" style="stroke: #000000; stroke-width: 0.8"/>
      </g>
     </g>
     <g id="text_25">
      <!-- -1.0 -->
      <g transform="translate(32.844688 650.778918) scale(0.14 -0.14)">
       <use xlink:href="#DejaVuSans-2d"/>
       <use xlink:href="#DejaVuSans-31" x="36.083984"/>
       <use xlink:href="#DejaVuSans-2e" x="99.707031"/>
       <use xlink:href="#DejaVuSans-30" x="131.494141"/>
      </g>
     </g>
    </g>
    <g id="ytick_13">
     <g id="line2d_58">
      <g>
       <use xlink:href="#m01f2bc12ab" x="67.16" y="620.748756" style="stroke: #000000; stroke-width: 0.8"/>
      </g>
     </g>
     <g id="text_26">
      <!-- -0.5 -->
      <g transform="translate(32.844688 626.067662) scale(0.14 -0.14)">
       <use xlink:href="#DejaVuSans-2d"/>
       <use xlink:href="#DejaVuSans-30" x="36.083984"/>
       <use xlink:href="#DejaVuSans-2e" x="99.707031"/>
       <use xlink:href="#DejaVuSans-35" x="131.494141"/>
      </g>
     </g>
    </g>
    <g id="ytick_14">
     <g id="line2d_59">
      <g>
       <use xlink:href="#m01f2bc12ab" x="67.16" y="596.0375" style="stroke: #000000; stroke-width: 0.8"/>
      </g>
     </g>
     <g id="text_27">
      <!-- 0.0 -->
      <g transform="translate(37.895625 601.356406) scale(0.14 -0.14)">
       <use xlink:href="#DejaVuSans-30"/>
       <use xlink:href="#DejaVuSans-2e" x="63.623047"/>
       <use xlink:href="#DejaVuSans-30" x="95.410156"/>
      </g>
     </g>
    </g>
    <g id="ytick_15">
     <g id="line2d_60">
      <g>
       <use xlink:href="#m01f2bc12ab" x="67.16" y="571.326244" style="stroke: #000000; stroke-width: 0.8"/>
      </g>
     </g>
     <g id="text_28">
      <!-- 0.5 -->
      <g transform="translate(37.895625 576.64515) scale(0.14 -0.14)">
       <use xlink:href="#DejaVuSans-30"/>
       <use xlink:href="#DejaVuSans-2e" x="63.623047"/>
       <use xlink:href="#DejaVuSans-35" x="95.410156"/>
      </g>
     </g>
    </g>
    <g id="ytick_16">
     <g id="line2d_61">
      <g>
       <use xlink:href="#m01f2bc12ab" x="67.16" y="546.614988" style="stroke: #000000; stroke-width: 0.8"/>
      </g>
     </g>
     <g id="text_29">
      <!-- 1.0 -->
      <g transform="translate(37.895625 551.933894) scale(0.14 -0.14)">
       <use xlink:href="#DejaVuSans-31"/>
       <use xlink:href="#DejaVuSans-2e" x="63.623047"/>
       <use xlink:href="#DejaVuSans-30" x="95.410156"/>
      </g>
     </g>
    </g>
    <g id="text_30">
     <!-- Vel E [m/s] -->
     <g transform="translate(25.933125 633.693125) rotate(-90) scale(0.14 -0.14)">
      <use xlink:href="#DejaVuSans-56"/>
      <use xlink:href="#DejaVuSans-65" x="60.658203"/>
      <use xlink:href="#DejaVuSans-6c" x="122.181641"/>
      <use xlink:href="#DejaVuSans-20" x="149.964844"/>
      <use xlink:href="#DejaVuSans-45" x="181.751953"/>
      <use xlink:href="#DejaVuSans-20" x="244.935547"/>
      <use xlink:href="#DejaVuSans-5b" x="276.722656"/>
      <use xlink:href="#DejaVuSans-6d" x="315.736328"/>
      <use xlink:href="#DejaVuSans-2f" x="413.148438"/>
      <use xlink:href="#DejaVuSans-73" x="446.839844"/>
      <use xlink:href="#DejaVuSans-5d" x="498.939453"/>
     </g>
    </g>
   </g>
   <g id="line2d_62">
    <path d="M 67.16 596.0375 
L 79.336678 591.315817 
L 79.6489 586.435406 
L 85.581128 584.146746 
L 85.89335 588.305613 
L 91.825578 586.044 
L 92.1378 592.111772 
L 98.070028 589.886129 
L 98.38225 595.391454 
L 104.314478 593.210567 
L 104.6267 598.421037 
L 110.558928 596.293511 
L 110.87115 595.191048 
L 116.803378 593.12528 
L 117.1156 571.98686 
L 123.047828 569.991003 
L 123.36005 596.646506 
L 129.292278 594.728437 
L 129.6045 589.768632 
L 135.536728 587.93592 
L 135.84895 601.738614 
L 141.781178 599.998492 
L 142.0934 590.307312 
L 148.025628 588.666647 
L 148.33785 589.844922 
L 154.270078 588.31019 
L 154.5823 596.200128 
L 160.514528 594.777386 
L 160.82675 603.256802 
L 166.758978 601.951664 
L 167.0712 605.311112 
L 173.003428 604.128729 
L 173.31565 587.736863 
L 179.247878 586.681901 
L 179.5601 599.145249 
L 185.492328 598.221872 
L 185.80455 600.213069 
L 191.736778 599.424921 
L 192.049 582.35988 
L 197.981228 581.710071 
L 198.29345 583.983948 
L 204.225678 583.475044 
L 204.5379 597.775676 
L 210.470128 597.409684 
L 210.78235 602.059988 
L 216.714578 601.838353 
L 217.0268 602.721631 
L 222.959028 602.645228 
L 223.27125 594.086781 
L 229.203478 594.155911 
L 229.5157 597.529224 
L 235.447928 597.743613 
L 235.76015 603.740072 
L 241.692378 604.098876 
L 242.0046 597.835122 
L 247.936828 598.336924 
L 248.24905 590.040443 
L 254.181278 590.683263 
L 254.4935 601.547575 
L 260.425728 602.328875 
L 260.73795 599.051265 
L 266.670178 599.967963 
L 266.9824 591.306534 
L 272.914628 592.355011 
L 273.22685 583.173455 
L 279.159078 584.349574 
L 279.4713 596.165505 
L 285.403528 597.464624 
L 285.71575 601.079605 
L 291.647978 602.496597 
L 291.9602 590.088466 
L 297.892428 591.617739 
L 298.20465 607.74727 
L 304.136878 609.382788 
L 304.4491 606.061375 
L 310.381328 607.796684 
L 310.69355 593.063078 
L 316.625778 594.89133 
L 316.938 590.695995 
L 322.870228 592.609974 
L 323.18245 597.080501 
L 329.114678 599.072653 
L 329.4269 616.797611 
L 335.359128 618.860075 
L 335.67135 594.565578 
L 341.603578 596.690214 
L 341.9158 590.963574 
L 347.848028 593.141996 
L 348.16025 597.043597 
L 354.092478 599.267209 
L 354.4047 595.873827 
L 360.336928 598.133853 
L 360.64915 592.660813 
L 366.581378 594.948334 
L 366.8936 602.281263 
L 372.825828 604.58725 
L 373.13805 608.775681 
L 379.070278 611.091034 
L 379.3825 610.99866 
L 385.314728 613.314242 
L 385.62695 595.186452 
L 391.559178 597.493125 
L 391.8714 597.059234 
L 397.803628 599.347893 
L 398.11585 597.439455 
L 404.048078 599.701068 
L 404.3603 601.328714 
L 410.292528 603.554357 
L 410.60475 593.136187 
L 416.536978 595.317075 
L 416.8492 590.851723 
L 422.781428 592.979249 
L 423.09365 595.456965 
L 429.025878 597.522733 
L 429.3381 606.819818 
L 435.270328 608.815675 
L 435.58255 594.527522 
L 441.514778 596.445592 
L 441.827 596.245617 
L 447.759228 598.078329 
L 448.07145 613.425083 
L 454.003678 615.165205 
L 454.3159 593.401614 
L 460.248128 595.042279 
L 460.56035 605.100512 
L 466.492578 606.635244 
L 466.8048 599.721205 
L 472.737028 601.143947 
L 473.04925 584.90755 
L 478.981478 586.212688 
L 479.2937 589.070843 
L 485.225928 590.253227 
L 485.53815 601.296045 
L 491.470378 602.351007 
L 491.7826 603.971982 
L 497.714828 604.895359 
L 498.02705 594.52707 
L 503.959278 595.315218 
L 504.2715 605.249723 
L 510.203728 605.899532 
L 510.51595 591.642902 
L 516.448178 592.151807 
L 516.7604 594.288136 
L 522.692628 594.654128 
L 523.00485 590.122773 
L 528.937078 590.344408 
L 529.2493 596.679327 
L 535.181528 596.755731 
L 535.49375 603.553921 
L 541.425978 603.484792 
L 541.7382 594.519075 
L 547.670428 594.304685 
L 547.98265 595.806268 
L 553.914878 595.447464 
L 554.2271 602.078739 
L 560.159328 601.576937 
L 560.47155 599.181991 
L 566.403778 598.539172 
L 566.716 595.70094 
L 572.648228 594.91964 
L 572.96045 588.492973 
L 578.892678 587.576276 
L 579.2049 585.471573 
L 585.137128 584.423096 
L 585.44935 593.41333 
L 591.381578 592.237211 
L 591.6938 602.69727 
L 597.626028 601.398151 
L 597.93825 596.68028 
L 603.870477 595.263288 
L 604.1827 588.637659 
L 610.114928 587.108386 
L 610.42715 586.171282 
L 616.359378 584.535764 
L 616.6716 600.563127 
L 622.603828 598.827818 
L 622.91605 594.375603 
L 628.848277 592.547351 
L 629.1605 596.320665 
L 635.092728 594.406686 
L 635.40495 605.638904 
L 641.337178 603.646751 
L 641.6494 597.726601 
L 647.581628 595.664137 
L 647.89385 589.622656 
L 653.826077 587.498021 
L 654.1383 589.003208 
L 660.070528 586.824785 
L 660.38275 590.192058 
L 666.314978 587.968446 
L 666.6272 593.156474 
L 672.559428 590.896448 
L 672.87165 588.535242 
L 678.803877 586.247721 
L 679.1161 597.039878 
L 685.048328 594.73389 
L 685.36055 601.178131 
L 691.292778 598.862778 
L 691.292778 598.862778 
" clip-path="url(#pa9e7e49ed1)" style="fill: none; stroke: #1f77b4; stroke-width: 1.5; stroke-linecap: square"/>
   </g>
   <g id="line2d_63">
    <path d="M 67.16 581.210746 
L 73.40445 559.734299 
L 79.6489 555.680662 
L 85.89335 559.44436 
L 92.1378 561.026376 
L 98.38225 561.15888 
L 104.6267 561.120834 
L 110.87115 561.120479 
L 117.1156 561.126558 
L 123.36005 561.12824 
L 129.6045 561.128267 
L 135.84895 561.128217 
L 142.0934 561.128226 
L 148.33785 561.128235 
L 154.5823 561.128237 
L 160.82675 561.128237 
L 167.0712 561.128237 
L 173.31565 561.128237 
L 179.5601 561.128237 
L 185.80455 561.128237 
L 192.049 561.128237 
L 198.29345 561.128237 
L 204.5379 561.128237 
L 210.78235 561.128237 
L 217.0268 561.128237 
L 223.27125 561.128237 
L 229.5157 561.128237 
L 235.76015 561.128237 
L 242.0046 561.128237 
L 248.24905 561.128237 
L 254.4935 561.128237 
L 260.73795 561.128237 
L 266.9824 561.128237 
L 273.22685 561.128237 
L 279.4713 561.128237 
L 285.71575 561.128237 
L 291.9602 561.128237 
L 298.20465 561.128237 
L 304.4491 561.128237 
L 310.69355 561.128237 
L 316.938 561.128237 
L 323.18245 561.128237 
L 329.4269 561.128237 
L 335.67135 561.128237 
L 341.9158 561.128237 
L 348.16025 561.128237 
L 354.4047 561.128237 
L 360.64915 561.128237 
L 366.8936 561.128237 
L 373.13805 561.128237 
L 379.3825 561.128237 
L 385.62695 561.128237 
L 391.8714 561.128237 
L 398.11585 561.128237 
L 404.3603 561.128237 
L 410.60475 561.128237 
L 416.8492 561.128237 
L 423.09365 561.128237 
L 429.3381 561.128237 
L 435.58255 561.128237 
L 441.827 561.128237 
L 448.07145 561.128237 
L 454.3159 561.128237 
L 460.56035 561.128237 
L 466.8048 561.128237 
L 473.04925 561.128237 
L 479.2937 561.128237 
L 485.53815 561.128237 
L 491.7826 561.128237 
L 498.02705 561.128237 
L 504.2715 561.128237 
L 510.51595 561.128237 
L 516.7604 561.128237 
L 523.00485 561.128237 
L 529.2493 561.128237 
L 535.49375 561.128237 
L 541.7382 561.128237 
L 547.98265 561.128237 
L 554.2271 561.128237 
L 560.47155 561.128237 
L 566.716 561.128237 
L 572.96045 561.128237 
L 579.2049 561.128237 
L 585.44935 561.128237 
L 591.6938 561.128237 
L 597.93825 561.128237 
L 604.1827 561.128237 
L 610.42715 561.128237 
L 616.6716 561.128237 
L 622.91605 561.128237 
L 629.1605 561.128237 
L 635.40495 561.128237 
L 641.6494 561.128237 
L 647.89385 561.128237 
L 654.1383 561.128237 
L 660.38275 561.128237 
L 666.6272 561.128237 
L 672.87165 561.128237 
L 679.1161 561.128237 
L 685.36055 561.128237 
" clip-path="url(#pa9e7e49ed1)" style="fill: none; stroke-dasharray: 5.55,2.4; stroke-dashoffset: 0; stroke: #ff0000; stroke-width: 1.5"/>
   </g>
   <g id="line2d_64">
    <path d="M 67.16 610.864254 
L 73.40445 632.340701 
L 79.6489 636.394338 
L 85.89335 632.63064 
L 92.1378 631.048624 
L 98.38225 630.91612 
L 104.6267 630.954166 
L 110.87115 630.954521 
L 117.1156 630.948442 
L 123.36005 630.94676 
L 129.6045 630.946733 
L 135.84895 630.946783 
L 142.0934 630.946774 
L 148.33785 630.946765 
L 154.5823 630.946763 
L 160.82675 630.946763 
L 167.0712 630.946763 
L 173.31565 630.946763 
L 179.5601 630.946763 
L 185.80455 630.946763 
L 192.049 630.946763 
L 198.29345 630.946763 
L 204.5379 630.946763 
L 210.78235 630.946763 
L 217.0268 630.946763 
L 223.27125 630.946763 
L 229.5157 630.946763 
L 235.76015 630.946763 
L 242.0046 630.946763 
L 248.24905 630.946763 
L 254.4935 630.946763 
L 260.73795 630.946763 
L 266.9824 630.946763 
L 273.22685 630.946763 
L 279.4713 630.946763 
L 285.71575 630.946763 
L 291.9602 630.946763 
L 298.20465 630.946763 
L 304.4491 630.946763 
L 310.69355 630.946763 
L 316.938 630.946763 
L 323.18245 630.946763 
L 329.4269 630.946763 
L 335.67135 630.946763 
L 341.9158 630.946763 
L 348.16025 630.946763 
L 354.4047 630.946763 
L 360.64915 630.946763 
L 366.8936 630.946763 
L 373.13805 630.946763 
L 379.3825 630.946763 
L 385.62695 630.946763 
L 391.8714 630.946763 
L 398.11585 630.946763 
L 404.3603 630.946763 
L 410.60475 630.946763 
L 416.8492 630.946763 
L 423.09365 630.946763 
L 429.3381 630.946763 
L 435.58255 630.946763 
L 441.827 630.946763 
L 448.07145 630.946763 
L 454.3159 630.946763 
L 460.56035 630.946763 
L 466.8048 630.946763 
L 473.04925 630.946763 
L 479.2937 630.946763 
L 485.53815 630.946763 
L 491.7826 630.946763 
L 498.02705 630.946763 
L 504.2715 630.946763 
L 510.51595 630.946763 
L 516.7604 630.946763 
L 523.00485 630.946763 
L 529.2493 630.946763 
L 535.49375 630.946763 
L 541.7382 630.946763 
L 547.98265 630.946763 
L 554.2271 630.946763 
L 560.47155 630.946763 
L 566.716 630.946763 
L 572.96045 630.946763 
L 579.2049 630.946763 
L 585.44935 630.946763 
L 591.6938 630.946763 
L 597.93825 630.946763 
L 604.1827 630.946763 
L 610.42715 630.946763 
L 616.6716 630.946763 
L 622.91605 630.946763 
L 629.1605 630.946763 
L 635.40495 630.946763 
L 641.6494 630.946763 
L 647.89385 630.946763 
L 654.1383 630.946763 
L 660.38275 630.946763 
L 666.6272 630.946763 
L 672.87165 630.946763 
L 679.1161 630.946763 
L 685.36055 630.946763 
" clip-path="url(#pa9e7e49ed1)" style="fill: none; stroke-dasharray: 5.55,2.4; stroke-dashoffset: 0; stroke: #ff0000; stroke-width: 1.5"/>
   </g>
   <g id="patch_18">
    <path d="M 67.16 666.52 
L 67.16 525.555 
" style="fill: none; stroke: #000000; stroke-width: 0.8; stroke-linejoin: miter; stroke-linecap: square"/>
   </g>
   <g id="patch_19">
    <path d="M 691.605 666.52 
L 691.605 525.555 
" style="fill: none; stroke: #000000; stroke-width: 0.8; stroke-linejoin: miter; stroke-linecap: square"/>
   </g>
   <g id="patch_20">
    <path d="M 67.16 666.52 
L 691.605 666.52 
" style="fill: none; stroke: #000000; stroke-width: 0.8; stroke-linejoin: miter; stroke-linecap: square"/>
   </g>
   <g id="patch_21">
    <path d="M 67.16 525.555 
L 691.605 525.555 
" style="fill: none; stroke: #000000; stroke-width: 0.8; stroke-linejoin: miter; stroke-linecap: square"/>
   </g>
  </g>
  <g id="text_31">
   <!-- Errors on positions and velocities at 10Hz -->
   <g transform="translate(185.627812 27.165375) scale(0.168 -0.168)">
    <defs>
     <path id="DejaVuSans-72" d="M 2631 2963 
Q 2534 3019 2420 3045 
Q 2306 3072 2169 3072 
Q 1681 3072 1420 2755 
Q 1159 2438 1159 1844 
L 1159 0 
L 581 0 
L 581 3500 
L 1159 3500 
L 1159 2956 
Q 1341 3275 1631 3429 
Q 1922 3584 2338 3584 
Q 2397 3584 2469 3576 
Q 2541 3569 2628 3553 
L 2631 2963 
z
" transform="scale(0.015625)"/>
     <path id="DejaVuSans-6e" d="M 3513 2113 
L 3513 0 
L 2938 0 
L 2938 2094 
Q 2938 2591 2744 2837 
Q 2550 3084 2163 3084 
Q 1697 3084 1428 2787 
Q 1159 2491 1159 1978 
L 1159 0 
L 581 0 
L 581 3500 
L 1159 3500 
L 1159 2956 
Q 1366 3272 1645 3428 
Q 1925 3584 2291 3584 
Q 2894 3584 3203 3211 
Q 3513 2838 3513 2113 
z
" transform="scale(0.015625)"/>
     <path id="DejaVuSans-64" d="M 2906 2969 
L 2906 4863 
L 3481 4863 
L 3481 0 
L 2906 0 
L 2906 525 
Q 2725 213 2448 61 
Q 2172 -91 1784 -91 
Q 1150 -91 751 415 
Q 353 922 353 1747 
Q 353 2572 751 3078 
Q 1150 3584 1784 3584 
Q 2172 3584 2448 3432 
Q 2725 3281 2906 2969 
z
M 947 1747 
Q 947 1113 1208 752 
Q 1469 391 1925 391 
Q 2381 391 2643 752 
Q 2906 1113 2906 1747 
Q 2906 2381 2643 2742 
Q 2381 3103 1925 3103 
Q 1469 3103 1208 2742 
Q 947 2381 947 1747 
z
" transform="scale(0.015625)"/>
     <path id="DejaVuSans-76" d="M 191 3500 
L 800 3500 
L 1894 563 
L 2988 3500 
L 3597 3500 
L 2284 0 
L 1503 0 
L 191 3500 
z
" transform="scale(0.015625)"/>
     <path id="DejaVuSans-63" d="M 3122 3366 
L 3122 2828 
Q 2878 2963 2633 3030 
Q 2388 3097 2138 3097 
Q 1578 3097 1268 2742 
Q 959 2388 959 1747 
Q 959 1106 1268 751 
Q 1578 397 2138 397 
Q 2388 397 2633 464 
Q 2878 531 3122 666 
L 3122 134 
Q 2881 22 2623 -34 
Q 2366 -91 2075 -91 
Q 1284 -91 818 406 
Q 353 903 353 1747 
Q 353 2603 823 3093 
Q 1294 3584 2113 3584 
Q 2378 3584 2631 3529 
Q 2884 3475 3122 3366 
z
" transform="scale(0.015625)"/>
     <path id="DejaVuSans-48" d="M 628 4666 
L 1259 4666 
L 1259 2753 
L 3553 2753 
L 3553 4666 
L 4184 4666 
L 4184 0 
L 3553 0 
L 3553 2222 
L 1259 2222 
L 1259 0 
L 628 0 
L 628 4666 
z
" transform="scale(0.015625)"/>
     <path id="DejaVuSans-7a" d="M 353 3500 
L 3084 3500 
L 3084 2975 
L 922 459 
L 3084 459 
L 3084 0 
L 275 0 
L 275 525 
L 2438 3041 
L 353 3041 
L 353 3500 
z
" transform="scale(0.015625)"/>
    </defs>
    <use xlink:href="#DejaVuSans-45"/>
    <use xlink:href="#DejaVuSans-72" x="63.183594"/>
    <use xlink:href="#DejaVuSans-72" x="102.546875"/>
    <use xlink:href="#DejaVuSans-6f" x="141.410156"/>
    <use xlink:href="#DejaVuSans-72" x="202.591797"/>
    <use xlink:href="#DejaVuSans-73" x="243.705078"/>
    <use xlink:href="#DejaVuSans-20" x="295.804688"/>
    <use xlink:href="#DejaVuSans-6f" x="327.591797"/>
    <use xlink:href="#DejaVuSans-6e" x="388.773438"/>
    <use xlink:href="#DejaVuSans-20" x="452.152344"/>
    <use xlink:href="#DejaVuSans-70" x="483.939453"/>
    <use xlink:href="#DejaVuSans-6f" x="547.416016"/>
    <use xlink:href="#DejaVuSans-73" x="608.597656"/>
    <use xlink:href="#DejaVuSans-69" x="660.697266"/>
    <use xlink:href="#DejaVuSans-74" x="688.480469"/>
    <use xlink:href="#DejaVuSans-69" x="727.689453"/>
    <use xlink:href="#DejaVuSans-6f" x="755.472656"/>
    <use xlink:href="#DejaVuSans-6e" x="816.654297"/>
    <use xlink:href="#DejaVuSans-73" x="880.033203"/>
    <use xlink:href="#DejaVuSans-20" x="932.132812"/>
    <use xlink:href="#DejaVuSans-61" x="963.919922"/>
    <use xlink:href="#DejaVuSans-6e" x="1025.199219"/>
    <use xlink:href="#DejaVuSans-64" x="1088.578125"/>
    <use xlink:href="#DejaVuSans-20" x="1152.054688"/>
    <use xlink:href="#DejaVuSans-76" x="1183.841797"/>
    <use xlink:href="#DejaVuSans-65" x="1243.021484"/>
    <use xlink:href="#DejaVuSans-6c" x="1304.544922"/>
    <use xlink:href="#DejaVuSans-6f" x="1332.328125"/>
    <use xlink:href="#DejaVuSans-63" x="1393.509766"/>
    <use xlink:href="#DejaVuSans-69" x="1448.490234"/>
    <use xlink:href="#DejaVuSans-74" x="1476.273438"/>
    <use xlink:href="#DejaVuSans-69" x="1515.482422"/>
    <use xlink:href="#DejaVuSans-65" x="1543.265625"/>
    <use xlink:href="#DejaVuSans-73" x="1604.789062"/>
    <use xlink:href="#DejaVuSans-20" x="1656.888672"/>
    <use xlink:href="#DejaVuSans-61" x="1688.675781"/>
    <use xlink:href="#DejaVuSans-74" x="1749.955078"/>
    <use xlink:href="#DejaVuSans-20" x="1789.164062"/>
    <use xlink:href="#DejaVuSans-31" x="1820.951172"/>
    <use xlink:href="#DejaVuSans-30" x="1884.574219"/>
    <use xlink:href="#DejaVuSans-48" x="1948.197266"/>
    <use xlink:href="#DejaVuSans-7a" x="2023.392578"/>
   </g>
  </g>
 </g>
 <defs>
  <clipPath id="p2021908bef">
   <rect x="67.16" y="46.8" width="624.445" height="140.965"/>
  </clipPath>
  <clipPath id="p0971c7ec20">
   <rect x="67.16" y="206.385" width="624.445" height="140.965"/>
  </clipPath>
  <clipPath id="p53e4035ab5">
   <rect x="67.16" y="365.97" width="624.445" height="140.965"/>
  </clipPath>
  <clipPath id="pa9e7e49ed1">
   <rect x="67.16" y="525.555" width="624.445" height="140.965"/>
  </clipPath>
 </defs>
</svg>
