<?xml version="1.0" encoding="utf-8" standalone="no"?>
<!DOCTYPE svg PUBLIC "-//W3C//DTD SVG 1.1//EN"
  "http://www.w3.org/Graphics/SVG/1.1/DTD/svg11.dtd">
<svg xmlns:xlink="http://www.w3.org/1999/xlink" width="720pt" height="720pt" viewBox="0 0 720 720" xmlns="http://www.w3.org/2000/svg" version="1.1">
 <metadata>
  <rdf:RDF xmlns:dc="http://purl.org/dc/elements/1.1/" xmlns:cc="http://creativecommons.org/ns#" xmlns:rdf="http://www.w3.org/1999/02/22-rdf-syntax-ns#">
   <cc:Work>
    <dc:type rdf:resource="http://purl.org/dc/dcmitype/StillImage"/>
    <dc:date>2024-05-31T14:39:10.088196</dc:date>
    <dc:format>image/svg+xml</dc:format>
    <dc:creator>
     <cc:Agent>
      <dc:title>Matplotlib v3.9.0, https://matplotlib.org/</dc:title>
     </cc:Agent>
    </dc:creator>
   </cc:Work>
  </rdf:RDF>
 </metadata>
 <defs>
  <style type="text/css">*{stroke-linejoin: round; stroke-linecap: butt}</style>
 </defs>
 <g id="figure_1">
  <g id="patch_1">
   <path d="M 0 720 
L 720 720 
L 720 0 
L 0 0 
z
" style="fill: #ffffff"/>
  </g>
  <g id="axes_1">
   <g id="patch_2">
    <path d="M 75.98 187.765 
L 691.605 187.765 
L 691.605 46.8 
L 75.98 46.8 
z
" style="fill: #ffffff"/>
   </g>
   <g id="matplotlib.axis_1">
    <g id="xtick_1">
     <g id="line2d_1">
      <defs>
       <path id="m1f5cea90fa" d="M 0 0 
L 0 3.5 
" style="stroke: #000000; stroke-width: 0.8"/>
      </defs>
      <g>
       <use xlink:href="#m1f5cea90fa" x="75.98" y="187.765" style="stroke: #000000; stroke-width: 0.8"/>
      </g>
     </g>
    </g>
    <g id="xtick_2">
     <g id="line2d_2">
      <g>
       <use xlink:href="#m1f5cea90fa" x="152.933125" y="187.765" style="stroke: #000000; stroke-width: 0.8"/>
      </g>
     </g>
    </g>
    <g id="xtick_3">
     <g id="line2d_3">
      <g>
       <use xlink:href="#m1f5cea90fa" x="229.88625" y="187.765" style="stroke: #000000; stroke-width: 0.8"/>
      </g>
     </g>
    </g>
    <g id="xtick_4">
     <g id="line2d_4">
      <g>
       <use xlink:href="#m1f5cea90fa" x="306.839375" y="187.765" style="stroke: #000000; stroke-width: 0.8"/>
      </g>
     </g>
    </g>
    <g id="xtick_5">
     <g id="line2d_5">
      <g>
       <use xlink:href="#m1f5cea90fa" x="383.7925" y="187.765" style="stroke: #000000; stroke-width: 0.8"/>
      </g>
     </g>
    </g>
    <g id="xtick_6">
     <g id="line2d_6">
      <g>
       <use xlink:href="#m1f5cea90fa" x="460.745625" y="187.765" style="stroke: #000000; stroke-width: 0.8"/>
      </g>
     </g>
    </g>
    <g id="xtick_7">
     <g id="line2d_7">
      <g>
       <use xlink:href="#m1f5cea90fa" x="537.69875" y="187.765" style="stroke: #000000; stroke-width: 0.8"/>
      </g>
     </g>
    </g>
    <g id="xtick_8">
     <g id="line2d_8">
      <g>
       <use xlink:href="#m1f5cea90fa" x="614.651875" y="187.765" style="stroke: #000000; stroke-width: 0.8"/>
      </g>
     </g>
    </g>
    <g id="xtick_9">
     <g id="line2d_9">
      <g>
       <use xlink:href="#m1f5cea90fa" x="691.605" y="187.765" style="stroke: #000000; stroke-width: 0.8"/>
      </g>
     </g>
    </g>
   </g>
   <g id="matplotlib.axis_2">
    <g id="ytick_1">
     <g id="line2d_10">
      <defs>
       <path id="m489c2d0aca" d="M 0 0 
L -3.5 0 
" style="stroke: #000000; stroke-width: 0.8"/>
      </defs>
      <g>
       <use xlink:href="#m489c2d0aca" x="75.98" y="178.199354" style="stroke: #000000; stroke-width: 0.8"/>
      </g>
     </g>
     <g id="text_1">
      <!-- -15.0 -->
      <g transform="translate(32.757188 183.51826) scale(0.14 -0.14)">
       <defs>
        <path id="DejaVuSans-2d" d="M 313 2009 
L 1997 2009 
L 1997 1497 
L 313 1497 
L 313 2009 
z
" transform="scale(0.015625)"/>
        <path id="DejaVuSans-31" d="M 794 531 
L 1825 531 
L 1825 4091 
L 703 3866 
L 703 4441 
L 1819 4666 
L 2450 4666 
L 2450 531 
L 3481 531 
L 3481 0 
L 794 0 
L 794 531 
z
" transform="scale(0.015625)"/>
        <path id="DejaVuSans-35" d="M 691 4666 
L 3169 4666 
L 3169 4134 
L 1269 4134 
L 1269 2991 
Q 1406 3038 1543 3061 
Q 1681 3084 1819 3084 
Q 2600 3084 3056 2656 
Q 3513 2228 3513 1497 
Q 3513 744 3044 326 
Q 2575 -91 1722 -91 
Q 1428 -91 1123 -41 
Q 819 9 494 109 
L 494 744 
Q 775 591 1075 516 
Q 1375 441 1709 441 
Q 2250 441 2565 725 
Q 2881 1009 2881 1497 
Q 2881 1984 2565 2268 
Q 2250 2553 1709 2553 
Q 1456 2553 1204 2497 
Q 953 2441 691 2322 
L 691 4666 
z
" transform="scale(0.015625)"/>
        <path id="DejaVuSans-2e" d="M 684 794 
L 1344 794 
L 1344 0 
L 684 0 
L 684 794 
z
" transform="scale(0.015625)"/>
        <path id="DejaVuSans-30" d="M 2034 4250 
Q 1547 4250 1301 3770 
Q 1056 3291 1056 2328 
Q 1056 1369 1301 889 
Q 1547 409 2034 409 
Q 2525 409 2770 889 
Q 3016 1369 3016 2328 
Q 3016 3291 2770 3770 
Q 2525 4250 2034 4250 
z
M 2034 4750 
Q 2819 4750 3233 4129 
Q 3647 3509 3647 2328 
Q 3647 1150 3233 529 
Q 2819 -91 2034 -91 
Q 1250 -91 836 529 
Q 422 1150 422 2328 
Q 422 3509 836 4129 
Q 1250 4750 2034 4750 
z
" transform="scale(0.015625)"/>
       </defs>
       <use xlink:href="#DejaVuSans-2d"/>
       <use xlink:href="#DejaVuSans-31" x="36.083984"/>
       <use xlink:href="#DejaVuSans-35" x="99.707031"/>
       <use xlink:href="#DejaVuSans-2e" x="163.330078"/>
       <use xlink:href="#DejaVuSans-30" x="195.117188"/>
      </g>
     </g>
    </g>
    <g id="ytick_2">
     <g id="line2d_11">
      <g>
       <use xlink:href="#m489c2d0aca" x="75.98" y="157.893736" style="stroke: #000000; stroke-width: 0.8"/>
      </g>
     </g>
     <g id="text_2">
      <!-- -10.0 -->
      <g transform="translate(32.757188 163.212642) scale(0.14 -0.14)">
       <use xlink:href="#DejaVuSans-2d"/>
       <use xlink:href="#DejaVuSans-31" x="36.083984"/>
       <use xlink:href="#DejaVuSans-30" x="99.707031"/>
       <use xlink:href="#DejaVuSans-2e" x="163.330078"/>
       <use xlink:href="#DejaVuSans-30" x="195.117188"/>
      </g>
     </g>
    </g>
    <g id="ytick_3">
     <g id="line2d_12">
      <g>
       <use xlink:href="#m489c2d0aca" x="75.98" y="137.588118" style="stroke: #000000; stroke-width: 0.8"/>
      </g>
     </g>
     <g id="text_3">
      <!-- -5.0 -->
      <g transform="translate(41.664687 142.907024) scale(0.14 -0.14)">
       <use xlink:href="#DejaVuSans-2d"/>
       <use xlink:href="#DejaVuSans-35" x="36.083984"/>
       <use xlink:href="#DejaVuSans-2e" x="99.707031"/>
       <use xlink:href="#DejaVuSans-30" x="131.494141"/>
      </g>
     </g>
    </g>
    <g id="ytick_4">
     <g id="line2d_13">
      <g>
       <use xlink:href="#m489c2d0aca" x="75.98" y="117.2825" style="stroke: #000000; stroke-width: 0.8"/>
      </g>
     </g>
     <g id="text_4">
      <!-- 0.0 -->
      <g transform="translate(46.715625 122.601406) scale(0.14 -0.14)">
       <use xlink:href="#DejaVuSans-30"/>
       <use xlink:href="#DejaVuSans-2e" x="63.623047"/>
       <use xlink:href="#DejaVuSans-30" x="95.410156"/>
      </g>
     </g>
    </g>
    <g id="ytick_5">
     <g id="line2d_14">
      <g>
       <use xlink:href="#m489c2d0aca" x="75.98" y="96.976882" style="stroke: #000000; stroke-width: 0.8"/>
      </g>
     </g>
     <g id="text_5">
      <!-- 5.0 -->
      <g transform="translate(46.715625 102.295788) scale(0.14 -0.14)">
       <use xlink:href="#DejaVuSans-35"/>
       <use xlink:href="#DejaVuSans-2e" x="63.623047"/>
       <use xlink:href="#DejaVuSans-30" x="95.410156"/>
      </g>
     </g>
    </g>
    <g id="ytick_6">
     <g id="line2d_15">
      <g>
       <use xlink:href="#m489c2d0aca" x="75.98" y="76.671264" style="stroke: #000000; stroke-width: 0.8"/>
      </g>
     </g>
     <g id="text_6">
      <!-- 10.0 -->
      <g transform="translate(37.808125 81.99017) scale(0.14 -0.14)">
       <use xlink:href="#DejaVuSans-31"/>
       <use xlink:href="#DejaVuSans-30" x="63.623047"/>
       <use xlink:href="#DejaVuSans-2e" x="127.246094"/>
       <use xlink:href="#DejaVuSans-30" x="159.033203"/>
      </g>
     </g>
    </g>
    <g id="ytick_7">
     <g id="line2d_16">
      <g>
       <use xlink:href="#m489c2d0aca" x="75.98" y="56.365646" style="stroke: #000000; stroke-width: 0.8"/>
      </g>
     </g>
     <g id="text_7">
      <!-- 15.0 -->
      <g transform="translate(37.808125 61.684552) scale(0.14 -0.14)">
       <use xlink:href="#DejaVuSans-31"/>
       <use xlink:href="#DejaVuSans-35" x="63.623047"/>
       <use xlink:href="#DejaVuSans-2e" x="127.246094"/>
       <use xlink:href="#DejaVuSans-30" x="159.033203"/>
      </g>
     </g>
    </g>
    <g id="text_8">
     <!-- Pos N [m] -->
     <g transform="translate(25.845625 151.146094) rotate(-90) scale(0.14 -0.14)">
      <defs>
       <path id="DejaVuSans-50" d="M 1259 4147 
L 1259 2394 
L 2053 2394 
Q 2494 2394 2734 2622 
Q 2975 2850 2975 3272 
Q 2975 3691 2734 3919 
Q 2494 4147 2053 4147 
L 1259 4147 
z
M 628 4666 
L 2053 4666 
Q 2838 4666 3239 4311 
Q 3641 3956 3641 3272 
Q 3641 2581 3239 2228 
Q 2838 1875 2053 1875 
L 1259 1875 
L 1259 0 
L 628 0 
L 628 4666 
z
" transform="scale(0.015625)"/>
       <path id="DejaVuSans-6f" d="M 1959 3097 
Q 1497 3097 1228 2736 
Q 959 2375 959 1747 
Q 959 1119 1226 758 
Q 1494 397 1959 397 
Q 2419 397 2687 759 
Q 2956 1122 2956 1747 
Q 2956 2369 2687 2733 
Q 2419 3097 1959 3097 
z
M 1959 3584 
Q 2709 3584 3137 3096 
Q 3566 2609 3566 1747 
Q 3566 888 3137 398 
Q 2709 -91 1959 -91 
Q 1206 -91 779 398 
Q 353 888 353 1747 
Q 353 2609 779 3096 
Q 1206 3584 1959 3584 
z
" transform="scale(0.015625)"/>
       <path id="DejaVuSans-73" d="M 2834 3397 
L 2834 2853 
Q 2591 2978 2328 3040 
Q 2066 3103 1784 3103 
Q 1356 3103 1142 2972 
Q 928 2841 928 2578 
Q 928 2378 1081 2264 
Q 1234 2150 1697 2047 
L 1894 2003 
Q 2506 1872 2764 1633 
Q 3022 1394 3022 966 
Q 3022 478 2636 193 
Q 2250 -91 1575 -91 
Q 1294 -91 989 -36 
Q 684 19 347 128 
L 347 722 
Q 666 556 975 473 
Q 1284 391 1588 391 
Q 1994 391 2212 530 
Q 2431 669 2431 922 
Q 2431 1156 2273 1281 
Q 2116 1406 1581 1522 
L 1381 1569 
Q 847 1681 609 1914 
Q 372 2147 372 2553 
Q 372 3047 722 3315 
Q 1072 3584 1716 3584 
Q 2034 3584 2315 3537 
Q 2597 3491 2834 3397 
z
" transform="scale(0.015625)"/>
       <path id="DejaVuSans-20" transform="scale(0.015625)"/>
       <path id="DejaVuSans-4e" d="M 628 4666 
L 1478 4666 
L 3547 763 
L 3547 4666 
L 4159 4666 
L 4159 0 
L 3309 0 
L 1241 3903 
L 1241 0 
L 628 0 
L 628 4666 
z
" transform="scale(0.015625)"/>
       <path id="DejaVuSans-5b" d="M 550 4863 
L 1875 4863 
L 1875 4416 
L 1125 4416 
L 1125 -397 
L 1875 -397 
L 1875 -844 
L 550 -844 
L 550 4863 
z
" transform="scale(0.015625)"/>
       <path id="DejaVuSans-6d" d="M 3328 2828 
Q 3544 3216 3844 3400 
Q 4144 3584 4550 3584 
Q 5097 3584 5394 3201 
Q 5691 2819 5691 2113 
L 5691 0 
L 5113 0 
L 5113 2094 
Q 5113 2597 4934 2840 
Q 4756 3084 4391 3084 
Q 3944 3084 3684 2787 
Q 3425 2491 3425 1978 
L 3425 0 
L 2847 0 
L 2847 2094 
Q 2847 2600 2669 2842 
Q 2491 3084 2119 3084 
Q 1678 3084 1418 2786 
Q 1159 2488 1159 1978 
L 1159 0 
L 581 0 
L 581 3500 
L 1159 3500 
L 1159 2956 
Q 1356 3278 1631 3431 
Q 1906 3584 2284 3584 
Q 2666 3584 2933 3390 
Q 3200 3197 3328 2828 
z
" transform="scale(0.015625)"/>
       <path id="DejaVuSans-5d" d="M 1947 4863 
L 1947 -844 
L 622 -844 
L 622 -397 
L 1369 -397 
L 1369 4416 
L 622 4416 
L 622 4863 
L 1947 4863 
z
" transform="scale(0.015625)"/>
      </defs>
      <use xlink:href="#DejaVuSans-50"/>
      <use xlink:href="#DejaVuSans-6f" x="56.677734"/>
      <use xlink:href="#DejaVuSans-73" x="117.859375"/>
      <use xlink:href="#DejaVuSans-20" x="169.958984"/>
      <use xlink:href="#DejaVuSans-4e" x="201.746094"/>
      <use xlink:href="#DejaVuSans-20" x="276.550781"/>
      <use xlink:href="#DejaVuSans-5b" x="308.337891"/>
      <use xlink:href="#DejaVuSans-6d" x="347.351562"/>
      <use xlink:href="#DejaVuSans-5d" x="444.763672"/>
     </g>
    </g>
   </g>
   <g id="line2d_17">
    <path d="M 75.98 117.2825 
L 81.828438 117.278902 
L 82.13625 118.66272 
L 87.984688 118.637656 
L 88.2925 117.362122 
L 94.140938 116.550701 
L 94.44875 119.674719 
L 100.297188 120.816086 
L 100.605 117.034148 
L 106.453438 115.795839 
L 106.76125 119.185059 
L 112.609688 119.861437 
L 112.9175 117.960509 
L 124.922188 116.797268 
L 125.23 118.352863 
L 131.078438 118.437006 
L 131.38625 113.285439 
L 137.234688 110.124391 
L 137.5425 116.252562 
L 143.390938 116.588739 
L 143.69875 116.395912 
L 149.239375 116.376677 
L 149.547188 116.369261 
L 149.855 115.399571 
L 155.395625 114.596331 
L 155.703438 114.544927 
L 156.01125 118.369321 
L 161.244063 119.417825 
L 161.859688 119.52682 
L 162.1675 115.876021 
L 167.400313 114.70595 
L 168.015938 114.553179 
L 168.32375 116.728233 
L 173.24875 116.495409 
L 174.172188 116.428052 
L 174.48 115.535734 
L 179.405 114.601591 
L 180.328438 114.401785 
L 180.63625 117.876335 
L 185.56125 118.42411 
L 186.484688 118.501307 
L 186.7925 119.150375 
L 191.7175 119.719835 
L 192.640938 119.800343 
L 192.94875 116.138886 
L 197.87375 114.577804 
L 198.797188 114.258184 
L 199.105 115.708318 
L 203.722188 114.693415 
L 204.953438 114.386168 
L 205.26125 116.293156 
L 209.878438 115.913754 
L 211.109688 115.775389 
L 211.4175 115.917563 
L 216.034688 115.326957 
L 217.265938 115.131832 
L 217.57375 115.914652 
L 222.190938 115.415046 
L 223.422188 115.243897 
L 223.73 118.463636 
L 228.347188 119.186435 
L 232.964375 119.683844 
L 237.581563 119.955947 
L 242.19875 120.003327 
L 246.815938 119.827067 
L 251.433125 119.428745 
L 256.050313 118.810435 
L 260.6675 117.974696 
L 265.284688 116.924573 
L 270.209688 115.572115 
L 275.134688 113.984603 
L 280.059687 112.167488 
L 285.2925 109.991984 
L 290.525313 107.572029 
L 296.065938 104.752882 
L 301.606562 101.680428 
L 307.455 98.175606 
L 309.609688 96.819483 
L 309.9175 117.188211 
L 315.765938 115.267089 
L 316.07375 118.022418 
L 321.922188 117.994489 
L 322.23 118.351144 
L 328.078438 118.328212 
L 328.38625 117.698081 
L 334.234688 117.105694 
L 334.5425 115.219295 
L 340.390938 113.357304 
L 340.69875 115.748244 
L 346.547188 115.195492 
L 346.855 117.231576 
L 352.703438 117.760399 
L 353.01125 118.290821 
L 358.859688 119.000209 
L 359.1675 117.91474 
L 365.015938 117.867439 
L 365.32375 114.07825 
L 371.172188 111.724111 
L 371.48 120.502413 
L 377.328438 123.357898 
L 377.63625 118.116028 
L 383.484688 117.763262 
L 383.7925 117.055719 
L 389.640938 116.295621 
L 389.94875 115.713858 
L 395.797188 114.656896 
L 396.105 118.297827 
L 401.953438 119.470314 
L 402.26125 114.707925 
L 408.109688 113.101377 
L 408.4175 114.664133 
L 414.265938 114.123119 
L 414.57375 116.523038 
L 420.422188 117.53143 
L 420.73 117.123479 
L 426.578438 117.997137 
L 426.88625 118.555778 
L 432.734688 119.891312 
L 433.0425 117.911663 
L 438.890938 118.21676 
L 439.19875 117.748053 
L 445.047188 117.967282 
L 445.355 116.054063 
L 451.203438 115.356545 
L 451.51125 116.233194 
L 457.051875 116.303313 
L 457.359688 116.313556 
L 457.6675 117.15585 
L 463.208125 117.937121 
L 463.515938 117.987305 
L 463.82375 116.466096 
L 469.056563 116.614427 
L 469.672188 116.646237 
L 469.98 116.287299 
L 475.212813 116.498373 
L 475.828438 116.538321 
L 476.13625 116.75915 
L 481.06125 117.308895 
L 481.984688 117.435674 
L 482.2925 119.623603 
L 487.525313 121.634301 
L 488.140938 121.8873 
L 488.44875 116.984364 
L 493.37375 116.648062 
L 494.297188 116.610516 
L 494.605 118.849438 
L 499.53 119.921051 
L 500.453438 120.148245 
L 500.76125 119.567094 
L 505.68625 120.608428 
L 506.609688 120.830596 
L 506.9175 118.391876 
L 511.534688 118.473771 
L 512.765938 118.532216 
L 513.07375 116.848531 
L 517.690938 116.42803 
L 518.922188 116.353088 
L 519.23 114.926363 
L 523.847188 114.143056 
L 525.078438 113.971805 
L 525.38625 118.929416 
L 530.003438 120.774065 
L 531.234688 121.303892 
L 531.5425 116.171187 
L 536.159688 115.859779 
L 537.390938 115.814797 
L 537.69875 114.444493 
L 542.315938 113.798834 
L 543.547188 113.664709 
L 543.855 117.015079 
L 548.472188 118.245948 
L 549.703438 118.61207 
L 550.01125 117.957864 
L 554.628438 119.138356 
L 555.859688 119.490734 
L 556.1675 118.74239 
L 560.784688 119.827422 
L 562.015938 120.153886 
L 562.32375 118.961977 
L 566.940938 119.743816 
L 572.789375 120.989844 
L 574.328438 121.382585 
L 574.63625 120.910541 
L 579.56125 122.062856 
L 580.484688 122.305063 
L 580.7925 118.92167 
L 585.7175 118.641309 
L 586.640938 118.614116 
L 586.94875 117.244334 
L 591.87375 116.568303 
L 592.797188 116.46605 
L 593.105 114.321301 
L 598.337813 112.782653 
L 598.953438 112.617314 
L 599.26125 117.534715 
L 604.494063 118.913814 
L 605.109688 119.091029 
L 605.4175 120.912905 
L 610.958125 123.627845 
L 611.265938 123.785769 
L 611.57375 118.81263 
L 617.114375 118.920231 
L 617.422188 118.93289 
L 617.73 118.417698 
L 623.270625 118.477297 
L 623.578438 118.486851 
L 623.88625 117.068098 
L 629.734688 116.536509 
L 630.0425 117.676572 
L 635.890938 118.055398 
L 636.19875 119.377598 
L 642.047188 120.726645 
L 642.355 119.238427 
L 648.203438 119.847644 
L 648.51125 116.763987 
L 654.359688 115.693245 
L 654.6675 116.443499 
L 660.515938 115.987474 
L 660.82375 118.3881 
L 666.672188 119.480146 
L 666.98 116.569867 
L 672.828438 116.003 
L 673.13625 119.104808 
L 678.984688 120.457963 
L 679.2925 118.938807 
L 685.140938 119.400223 
L 685.44875 117.548919 
L 691.297188 116.926732 
L 691.297188 116.926732 
" clip-path="url(#pff67d6504d)" style="fill: none; stroke: #1f77b4; stroke-width: 1.5; stroke-linecap: square"/>
   </g>
   <g id="line2d_18">
    <path d="M 76.168874 -1 
L 82.13625 111.198407 
L 88.2925 112.222233 
L 94.44875 112.010128 
L 100.605 112.007482 
L 106.76125 112.041711 
L 112.9175 112.05148 
L 119.07375 112.05171 
L 125.23 112.051425 
L 131.38625 112.05147 
L 137.5425 112.05152 
L 143.69875 112.051529 
L 149.855 112.051529 
L 156.01125 112.051528 
L 162.1675 112.051529 
L 168.32375 112.051529 
L 174.48 112.051529 
L 180.63625 112.051529 
L 186.7925 112.051529 
L 192.94875 112.051529 
L 199.105 112.051529 
L 205.26125 112.051529 
L 211.4175 112.051529 
L 217.57375 112.051529 
L 223.73 112.051529 
L 229.88625 107.075075 
L 236.0425 99.78329 
L 242.19875 90.960849 
L 248.355 80.904124 
L 254.51125 69.771797 
L 260.6675 57.668365 
L 266.82375 44.670553 
L 272.98 30.838358 
L 279.13625 16.22062 
L 285.2925 0.858232 
L 286.004277 -1 
M 305.615804 -1 
L 309.9175 111.194126 
L 316.07375 111.772734 
L 322.23 111.843173 
L 328.38625 111.984044 
L 334.5425 112.041408 
L 340.69875 112.050865 
L 346.855 112.051078 
L 353.01125 112.051239 
L 359.1675 112.051451 
L 365.32375 112.05152 
L 371.48 112.051528 
L 377.63625 112.051528 
L 383.7925 112.051528 
L 389.94875 112.051528 
L 396.105 112.051529 
L 402.26125 112.051529 
L 408.4175 112.051529 
L 414.57375 112.051529 
L 420.73 112.051529 
L 426.88625 112.051529 
L 433.0425 112.051529 
L 439.19875 112.051529 
L 445.355 112.051529 
L 451.51125 112.051529 
L 457.6675 112.051529 
L 463.82375 112.051529 
L 469.98 112.051529 
L 476.13625 112.051529 
L 482.2925 112.051529 
L 488.44875 112.051529 
L 494.605 112.051529 
L 500.76125 112.051529 
L 506.9175 112.051529 
L 513.07375 112.051529 
L 519.23 112.051529 
L 525.38625 112.051529 
L 531.5425 112.051529 
L 537.69875 112.051529 
L 543.855 112.051529 
L 550.01125 112.051529 
L 556.1675 112.051529 
L 562.32375 112.051529 
L 568.48 112.051529 
L 574.63625 112.051529 
L 580.7925 112.051529 
L 586.94875 112.051529 
L 593.105 112.051529 
L 599.26125 112.051529 
L 605.4175 112.051529 
L 611.57375 112.051529 
L 617.73 112.051529 
L 623.88625 112.051529 
L 630.0425 112.051529 
L 636.19875 112.051529 
L 642.355 112.051529 
L 648.51125 112.051529 
L 654.6675 112.051529 
L 660.82375 112.051529 
L 666.98 112.051529 
L 673.13625 112.051529 
L 679.2925 112.051529 
L 685.44875 112.051529 
" clip-path="url(#pff67d6504d)" style="fill: none; stroke-dasharray: 5.55,2.4; stroke-dashoffset: 0; stroke: #ff0000; stroke-width: 1.5"/>
   </g>
   <g id="line2d_19">
    <path d="M 75.98 239.116208 
L 82.13625 123.366593 
L 88.2925 122.342767 
L 94.44875 122.554872 
L 100.605 122.557518 
L 106.76125 122.523289 
L 112.9175 122.51352 
L 119.07375 122.51329 
L 125.23 122.513575 
L 131.38625 122.51353 
L 137.5425 122.51348 
L 143.69875 122.513471 
L 149.855 122.513471 
L 156.01125 122.513472 
L 162.1675 122.513471 
L 168.32375 122.513471 
L 174.48 122.513471 
L 180.63625 122.513471 
L 186.7925 122.513471 
L 192.94875 122.513471 
L 199.105 122.513471 
L 205.26125 122.513471 
L 211.4175 122.513471 
L 217.57375 122.513471 
L 223.73 122.513471 
L 229.88625 127.489925 
L 236.0425 134.78171 
L 242.19875 143.604151 
L 248.355 153.660876 
L 254.51125 164.793203 
L 260.6675 176.896635 
L 266.82375 189.894447 
L 272.98 203.726642 
L 279.13625 218.34438 
L 285.2925 233.706768 
L 291.44875 249.778853 
L 297.605 266.530271 
L 303.76125 283.934308 
L 309.9175 123.370874 
L 316.07375 122.792266 
L 322.23 122.721827 
L 328.38625 122.580956 
L 334.5425 122.523592 
L 340.69875 122.514135 
L 346.855 122.513922 
L 353.01125 122.513761 
L 359.1675 122.513549 
L 365.32375 122.51348 
L 371.48 122.513472 
L 377.63625 122.513472 
L 383.7925 122.513472 
L 389.94875 122.513472 
L 396.105 122.513471 
L 402.26125 122.513471 
L 408.4175 122.513471 
L 414.57375 122.513471 
L 420.73 122.513471 
L 426.88625 122.513471 
L 433.0425 122.513471 
L 439.19875 122.513471 
L 445.355 122.513471 
L 451.51125 122.513471 
L 457.6675 122.513471 
L 463.82375 122.513471 
L 469.98 122.513471 
L 476.13625 122.513471 
L 482.2925 122.513471 
L 488.44875 122.513471 
L 494.605 122.513471 
L 500.76125 122.513471 
L 506.9175 122.513471 
L 513.07375 122.513471 
L 519.23 122.513471 
L 525.38625 122.513471 
L 531.5425 122.513471 
L 537.69875 122.513471 
L 543.855 122.513471 
L 550.01125 122.513471 
L 556.1675 122.513471 
L 562.32375 122.513471 
L 568.48 122.513471 
L 574.63625 122.513471 
L 580.7925 122.513471 
L 586.94875 122.513471 
L 593.105 122.513471 
L 599.26125 122.513471 
L 605.4175 122.513471 
L 611.57375 122.513471 
L 617.73 122.513471 
L 623.88625 122.513471 
L 630.0425 122.513471 
L 636.19875 122.513471 
L 642.355 122.513471 
L 648.51125 122.513471 
L 654.6675 122.513471 
L 660.82375 122.513471 
L 666.98 122.513471 
L 673.13625 122.513471 
L 679.2925 122.513471 
L 685.44875 122.513471 
" clip-path="url(#pff67d6504d)" style="fill: none; stroke-dasharray: 5.55,2.4; stroke-dashoffset: 0; stroke: #ff0000; stroke-width: 1.5"/>
   </g>
   <g id="patch_3">
    <path d="M 75.98 187.765 
L 75.98 46.8 
" style="fill: none; stroke: #000000; stroke-width: 0.8; stroke-linejoin: miter; stroke-linecap: square"/>
   </g>
   <g id="patch_4">
    <path d="M 691.605 187.765 
L 691.605 46.8 
" style="fill: none; stroke: #000000; stroke-width: 0.8; stroke-linejoin: miter; stroke-linecap: square"/>
   </g>
   <g id="patch_5">
    <path d="M 75.98 187.765 
L 691.605 187.765 
" style="fill: none; stroke: #000000; stroke-width: 0.8; stroke-linejoin: miter; stroke-linecap: square"/>
   </g>
   <g id="patch_6">
    <path d="M 75.98 46.8 
L 691.605 46.8 
" style="fill: none; stroke: #000000; stroke-width: 0.8; stroke-linejoin: miter; stroke-linecap: square"/>
   </g>
  </g>
  <g id="axes_2">
   <g id="patch_7">
    <path d="M 75.98 347.35 
L 691.605 347.35 
L 691.605 206.385 
L 75.98 206.385 
z
" style="fill: #ffffff"/>
   </g>
   <g id="matplotlib.axis_3">
    <g id="xtick_10">
     <g id="line2d_20">
      <g>
       <use xlink:href="#m1f5cea90fa" x="75.98" y="347.35" style="stroke: #000000; stroke-width: 0.8"/>
      </g>
     </g>
    </g>
    <g id="xtick_11">
     <g id="line2d_21">
      <g>
       <use xlink:href="#m1f5cea90fa" x="152.933125" y="347.35" style="stroke: #000000; stroke-width: 0.8"/>
      </g>
     </g>
    </g>
    <g id="xtick_12">
     <g id="line2d_22">
      <g>
       <use xlink:href="#m1f5cea90fa" x="229.88625" y="347.35" style="stroke: #000000; stroke-width: 0.8"/>
      </g>
     </g>
    </g>
    <g id="xtick_13">
     <g id="line2d_23">
      <g>
       <use xlink:href="#m1f5cea90fa" x="306.839375" y="347.35" style="stroke: #000000; stroke-width: 0.8"/>
      </g>
     </g>
    </g>
    <g id="xtick_14">
     <g id="line2d_24">
      <g>
       <use xlink:href="#m1f5cea90fa" x="383.7925" y="347.35" style="stroke: #000000; stroke-width: 0.8"/>
      </g>
     </g>
    </g>
    <g id="xtick_15">
     <g id="line2d_25">
      <g>
       <use xlink:href="#m1f5cea90fa" x="460.745625" y="347.35" style="stroke: #000000; stroke-width: 0.8"/>
      </g>
     </g>
    </g>
    <g id="xtick_16">
     <g id="line2d_26">
      <g>
       <use xlink:href="#m1f5cea90fa" x="537.69875" y="347.35" style="stroke: #000000; stroke-width: 0.8"/>
      </g>
     </g>
    </g>
    <g id="xtick_17">
     <g id="line2d_27">
      <g>
       <use xlink:href="#m1f5cea90fa" x="614.651875" y="347.35" style="stroke: #000000; stroke-width: 0.8"/>
      </g>
     </g>
    </g>
    <g id="xtick_18">
     <g id="line2d_28">
      <g>
       <use xlink:href="#m1f5cea90fa" x="691.605" y="347.35" style="stroke: #000000; stroke-width: 0.8"/>
      </g>
     </g>
    </g>
   </g>
   <g id="matplotlib.axis_4">
    <g id="ytick_8">
     <g id="line2d_29">
      <g>
       <use xlink:href="#m489c2d0aca" x="75.98" y="337.784354" style="stroke: #000000; stroke-width: 0.8"/>
      </g>
     </g>
     <g id="text_9">
      <!-- -15.0 -->
      <g transform="translate(32.757188 343.10326) scale(0.14 -0.14)">
       <use xlink:href="#DejaVuSans-2d"/>
       <use xlink:href="#DejaVuSans-31" x="36.083984"/>
       <use xlink:href="#DejaVuSans-35" x="99.707031"/>
       <use xlink:href="#DejaVuSans-2e" x="163.330078"/>
       <use xlink:href="#DejaVuSans-30" x="195.117188"/>
      </g>
     </g>
    </g>
    <g id="ytick_9">
     <g id="line2d_30">
      <g>
       <use xlink:href="#m489c2d0aca" x="75.98" y="317.478736" style="stroke: #000000; stroke-width: 0.8"/>
      </g>
     </g>
     <g id="text_10">
      <!-- -10.0 -->
      <g transform="translate(32.757188 322.797642) scale(0.14 -0.14)">
       <use xlink:href="#DejaVuSans-2d"/>
       <use xlink:href="#DejaVuSans-31" x="36.083984"/>
       <use xlink:href="#DejaVuSans-30" x="99.707031"/>
       <use xlink:href="#DejaVuSans-2e" x="163.330078"/>
       <use xlink:href="#DejaVuSans-30" x="195.117188"/>
      </g>
     </g>
    </g>
    <g id="ytick_10">
     <g id="line2d_31">
      <g>
       <use xlink:href="#m489c2d0aca" x="75.98" y="297.173118" style="stroke: #000000; stroke-width: 0.8"/>
      </g>
     </g>
     <g id="text_11">
      <!-- -5.0 -->
      <g transform="translate(41.664687 302.492024) scale(0.14 -0.14)">
       <use xlink:href="#DejaVuSans-2d"/>
       <use xlink:href="#DejaVuSans-35" x="36.083984"/>
       <use xlink:href="#DejaVuSans-2e" x="99.707031"/>
       <use xlink:href="#DejaVuSans-30" x="131.494141"/>
      </g>
     </g>
    </g>
    <g id="ytick_11">
     <g id="line2d_32">
      <g>
       <use xlink:href="#m489c2d0aca" x="75.98" y="276.8675" style="stroke: #000000; stroke-width: 0.8"/>
      </g>
     </g>
     <g id="text_12">
      <!-- 0.0 -->
      <g transform="translate(46.715625 282.186406) scale(0.14 -0.14)">
       <use xlink:href="#DejaVuSans-30"/>
       <use xlink:href="#DejaVuSans-2e" x="63.623047"/>
       <use xlink:href="#DejaVuSans-30" x="95.410156"/>
      </g>
     </g>
    </g>
    <g id="ytick_12">
     <g id="line2d_33">
      <g>
       <use xlink:href="#m489c2d0aca" x="75.98" y="256.561882" style="stroke: #000000; stroke-width: 0.8"/>
      </g>
     </g>
     <g id="text_13">
      <!-- 5.0 -->
      <g transform="translate(46.715625 261.880788) scale(0.14 -0.14)">
       <use xlink:href="#DejaVuSans-35"/>
       <use xlink:href="#DejaVuSans-2e" x="63.623047"/>
       <use xlink:href="#DejaVuSans-30" x="95.410156"/>
      </g>
     </g>
    </g>
    <g id="ytick_13">
     <g id="line2d_34">
      <g>
       <use xlink:href="#m489c2d0aca" x="75.98" y="236.256264" style="stroke: #000000; stroke-width: 0.8"/>
      </g>
     </g>
     <g id="text_14">
      <!-- 10.0 -->
      <g transform="translate(37.808125 241.57517) scale(0.14 -0.14)">
       <use xlink:href="#DejaVuSans-31"/>
       <use xlink:href="#DejaVuSans-30" x="63.623047"/>
       <use xlink:href="#DejaVuSans-2e" x="127.246094"/>
       <use xlink:href="#DejaVuSans-30" x="159.033203"/>
      </g>
     </g>
    </g>
    <g id="ytick_14">
     <g id="line2d_35">
      <g>
       <use xlink:href="#m489c2d0aca" x="75.98" y="215.950646" style="stroke: #000000; stroke-width: 0.8"/>
      </g>
     </g>
     <g id="text_15">
      <!-- 15.0 -->
      <g transform="translate(37.808125 221.269552) scale(0.14 -0.14)">
       <use xlink:href="#DejaVuSans-31"/>
       <use xlink:href="#DejaVuSans-35" x="63.623047"/>
       <use xlink:href="#DejaVuSans-2e" x="127.246094"/>
       <use xlink:href="#DejaVuSans-30" x="159.033203"/>
      </g>
     </g>
    </g>
    <g id="text_16">
     <!-- Pos E [m] -->
     <g transform="translate(25.845625 309.917344) rotate(-90) scale(0.14 -0.14)">
      <defs>
       <path id="DejaVuSans-45" d="M 628 4666 
L 3578 4666 
L 3578 4134 
L 1259 4134 
L 1259 2753 
L 3481 2753 
L 3481 2222 
L 1259 2222 
L 1259 531 
L 3634 531 
L 3634 0 
L 628 0 
L 628 4666 
z
" transform="scale(0.015625)"/>
      </defs>
      <use xlink:href="#DejaVuSans-50"/>
      <use xlink:href="#DejaVuSans-6f" x="56.677734"/>
      <use xlink:href="#DejaVuSans-73" x="117.859375"/>
      <use xlink:href="#DejaVuSans-20" x="169.958984"/>
      <use xlink:href="#DejaVuSans-45" x="201.746094"/>
      <use xlink:href="#DejaVuSans-20" x="264.929688"/>
      <use xlink:href="#DejaVuSans-5b" x="296.716797"/>
      <use xlink:href="#DejaVuSans-6d" x="335.730469"/>
      <use xlink:href="#DejaVuSans-5d" x="433.142578"/>
     </g>
    </g>
   </g>
   <g id="line2d_36">
    <path d="M 75.98 276.8675 
L 80.597188 276.754791 
L 81.828438 276.686685 
L 82.13625 279.286352 
L 86.753438 278.876309 
L 87.984688 278.729074 
L 88.2925 277.410013 
L 92.909688 276.114887 
L 94.140938 275.731939 
L 94.44875 276.679696 
L 99.065938 275.616304 
L 100.297188 275.295611 
L 100.605 276.8355 
L 105.222188 276.242897 
L 106.453438 276.048352 
L 106.76125 277.490746 
L 111.378438 277.304471 
L 112.609688 277.219029 
L 112.9175 278.604642 
L 117.8425 278.799578 
L 118.765938 278.809981 
L 119.07375 278.549395 
L 123.99875 278.322993 
L 124.922188 278.255168 
L 125.23 272.671027 
L 130.462812 269.185741 
L 131.078438 268.759383 
L 131.38625 275.619389 
L 136.31125 275.592337 
L 137.234688 275.563731 
L 137.5425 274.267394 
L 142.775313 273.276087 
L 143.390938 273.144494 
L 143.69875 276.751581 
L 148.931563 277.438082 
L 149.547188 277.504646 
L 149.855 274.998203 
L 155.395625 274.034449 
L 155.703438 273.974226 
L 156.01125 274.246935 
L 161.551875 273.222136 
L 161.859688 273.15896 
L 162.1675 275.201682 
L 168.015938 275.114589 
L 168.32375 277.364725 
L 174.172188 278.388476 
L 174.48 279.342296 
L 180.328438 280.6963 
L 180.63625 276.444425 
L 186.484688 275.064525 
L 186.7925 278.296278 
L 192.640938 278.707746 
L 192.94875 279.26386 
L 198.797188 279.852557 
L 199.105 275.378577 
L 204.953438 273.190693 
L 205.26125 273.682073 
L 211.109688 271.758719 
L 211.4175 275.442301 
L 217.265938 275.683329 
L 217.57375 276.928083 
L 223.422188 277.849257 
L 223.73 278.132488 
L 250.509688 283.017813 
L 260.051875 285.034989 
L 268.055 286.947966 
L 275.4425 288.940841 
L 282.214375 290.993941 
L 288.678438 293.183524 
L 294.834688 295.500398 
L 300.683125 297.929516 
L 306.531563 300.597784 
L 309.609688 302.103558 
L 309.9175 278.381126 
L 315.150313 279.106489 
L 315.765938 279.206185 
L 316.07375 275.902336 
L 321.306563 274.649311 
L 321.922188 274.517012 
L 322.23 274.634684 
L 327.462813 273.7591 
L 328.078438 273.671902 
L 328.38625 275.376056 
L 333.31125 275.676023 
L 334.234688 275.756922 
L 334.5425 280.523801 
L 339.775313 283.635234 
L 340.390938 284.018301 
L 340.69875 277.687898 
L 345.62375 277.655652 
L 346.547188 277.675872 
L 346.855 276.082336 
L 351.472188 275.57658 
L 352.703438 275.477589 
L 353.01125 276.427232 
L 357.628438 276.659751 
L 358.859688 276.758362 
L 359.1675 275.848609 
L 363.784688 275.934874 
L 365.015938 275.99507 
L 365.32375 274.534865 
L 369.940938 274.22697 
L 371.172188 274.182495 
L 371.48 276.083504 
L 376.097188 276.963768 
L 377.328438 277.236425 
L 377.63625 278.384372 
L 382.253438 280.066662 
L 388.409688 282.578608 
L 389.640938 283.138481 
L 389.94875 278.456322 
L 394.565938 278.463942 
L 395.797188 278.503864 
L 396.105 278.369538 
L 400.722188 278.607173 
L 401.953438 278.708123 
L 402.26125 278.199469 
L 406.878438 278.482694 
L 408.109688 278.595343 
L 408.4175 279.02494 
L 413.034688 279.785857 
L 414.265938 280.025286 
L 414.57375 277.30246 
L 419.190938 277.051493 
L 420.422188 277.020337 
L 420.73 275.804332 
L 425.655 275.240967 
L 426.578438 275.161483 
L 426.88625 275.762679 
L 431.81125 275.801465 
L 432.734688 275.834113 
L 433.0425 278.276456 
L 437.9675 279.805391 
L 438.890938 280.11657 
L 439.19875 276.417233 
L 444.12375 276.32583 
L 451.203438 276.433664 
L 451.51125 280.483335 
L 457.051875 283.178206 
L 457.359688 283.335015 
L 457.6675 277.715142 
L 463.208125 277.44148 
L 463.515938 277.432957 
L 463.82375 280.062221 
L 469.364375 281.511583 
L 469.672188 281.598345 
L 469.98 279.837219 
L 475.828438 280.524825 
L 476.13625 276.255496 
L 481.984688 274.621192 
L 482.2925 275.279053 
L 488.140938 274.285225 
L 488.44875 277.141871 
L 494.297188 278.046821 
L 494.605 278.513697 
L 500.453438 279.826206 
L 500.76125 277.146086 
L 506.609688 276.973486 
L 506.9175 279.584189 
L 512.765938 281.074908 
L 513.07375 277.378825 
L 518.922188 276.734196 
L 519.23 277.261075 
L 525.078438 277.018301 
L 525.38625 275.804903 
L 531.234688 274.900553 
L 531.5425 276.526561 
L 537.390938 276.63453 
L 537.69875 278.437693 
L 543.547188 279.607603 
L 543.855 277.300378 
L 549.703438 277.048368 
L 550.01125 277.435048 
L 555.859688 277.372715 
L 556.1675 279.126947 
L 562.015938 280.032725 
L 562.32375 279.452911 
L 568.172188 279.895396 
L 568.48 279.175339 
L 574.328438 279.063496 
L 574.63625 277.366861 
L 580.484688 276.119057 
L 580.7925 275.506556 
L 586.640938 273.776698 
L 586.94875 276.073353 
L 592.797188 275.573391 
L 593.105 278.324568 
L 598.953438 279.264407 
L 599.26125 278.079757 
L 605.109688 278.07092 
L 605.4175 276.333062 
L 611.265938 275.059727 
L 611.57375 274.760293 
L 617.114375 273.187669 
L 617.422188 273.093521 
L 617.73 277.259441 
L 622.962813 277.784343 
L 623.578438 277.831737 
L 623.88625 276.702009 
L 629.119063 276.356673 
L 629.734688 276.30093 
L 630.0425 277.295491 
L 634.9675 277.227713 
L 635.890938 277.191303 
L 636.19875 280.174257 
L 641.12375 281.327173 
L 642.047188 281.51869 
L 642.355 280.043831 
L 647.28 280.152497 
L 648.203438 280.147361 
L 648.51125 278.575738 
L 653.43625 277.615405 
L 654.359688 277.409076 
L 654.6675 277.766341 
L 659.5925 276.721491 
L 660.515938 276.498663 
L 660.82375 277.343374 
L 665.440938 276.515141 
L 666.672188 276.257672 
L 666.98 277.593712 
L 671.597188 277.128996 
L 672.828438 276.96788 
L 673.13625 276.332545 
L 677.753438 275.296792 
L 678.984688 274.982961 
L 679.2925 277.787239 
L 683.909688 277.798748 
L 685.140938 277.763896 
L 685.44875 279.488592 
L 690.065938 280.009614 
L 691.297188 280.110493 
L 691.297188 280.110493 
" clip-path="url(#pc33cad2def)" style="fill: none; stroke: #1f77b4; stroke-width: 1.5; stroke-linecap: square"/>
   </g>
   <g id="line2d_37">
    <path d="M 75.98 155.033792 
L 82.13625 270.783407 
L 88.2925 271.807233 
L 94.44875 271.595128 
L 100.605 271.592482 
L 106.76125 271.626711 
L 112.9175 271.63648 
L 119.07375 271.63671 
L 125.23 271.636425 
L 131.38625 271.63647 
L 137.5425 271.63652 
L 143.69875 271.636529 
L 149.855 271.636529 
L 156.01125 271.636528 
L 162.1675 271.636529 
L 168.32375 271.636529 
L 174.48 271.636529 
L 180.63625 271.636529 
L 186.7925 271.636529 
L 192.94875 271.636529 
L 199.105 271.636529 
L 205.26125 271.636529 
L 211.4175 271.636529 
L 217.57375 271.636529 
L 223.73 271.636529 
L 229.88625 266.660075 
L 236.0425 259.36829 
L 242.19875 250.545849 
L 248.355 240.489124 
L 254.51125 229.356797 
L 260.6675 217.253365 
L 266.82375 204.255553 
L 272.98 190.423358 
L 279.13625 175.80562 
L 285.2925 160.443232 
L 291.44875 144.371147 
L 297.605 127.619729 
L 303.76125 110.215692 
L 309.9175 270.779126 
L 316.07375 271.357734 
L 322.23 271.428173 
L 328.38625 271.569044 
L 334.5425 271.626408 
L 340.69875 271.635865 
L 346.855 271.636078 
L 353.01125 271.636239 
L 359.1675 271.636451 
L 365.32375 271.63652 
L 371.48 271.636528 
L 377.63625 271.636528 
L 383.7925 271.636528 
L 389.94875 271.636528 
L 396.105 271.636529 
L 402.26125 271.636529 
L 408.4175 271.636529 
L 414.57375 271.636529 
L 420.73 271.636529 
L 426.88625 271.636529 
L 433.0425 271.636529 
L 439.19875 271.636529 
L 445.355 271.636529 
L 451.51125 271.636529 
L 457.6675 271.636529 
L 463.82375 271.636529 
L 469.98 271.636529 
L 476.13625 271.636529 
L 482.2925 271.636529 
L 488.44875 271.636529 
L 494.605 271.636529 
L 500.76125 271.636529 
L 506.9175 271.636529 
L 513.07375 271.636529 
L 519.23 271.636529 
L 525.38625 271.636529 
L 531.5425 271.636529 
L 537.69875 271.636529 
L 543.855 271.636529 
L 550.01125 271.636529 
L 556.1675 271.636529 
L 562.32375 271.636529 
L 568.48 271.636529 
L 574.63625 271.636529 
L 580.7925 271.636529 
L 586.94875 271.636529 
L 593.105 271.636529 
L 599.26125 271.636529 
L 605.4175 271.636529 
L 611.57375 271.636529 
L 617.73 271.636529 
L 623.88625 271.636529 
L 630.0425 271.636529 
L 636.19875 271.636529 
L 642.355 271.636529 
L 648.51125 271.636529 
L 654.6675 271.636529 
L 660.82375 271.636529 
L 666.98 271.636529 
L 673.13625 271.636529 
L 679.2925 271.636529 
L 685.44875 271.636529 
" clip-path="url(#pc33cad2def)" style="fill: none; stroke-dasharray: 5.55,2.4; stroke-dashoffset: 0; stroke: #ff0000; stroke-width: 1.5"/>
   </g>
   <g id="line2d_38">
    <path d="M 75.98 398.701208 
L 82.13625 282.951593 
L 88.2925 281.927767 
L 94.44875 282.139872 
L 100.605 282.142518 
L 106.76125 282.108289 
L 112.9175 282.09852 
L 119.07375 282.09829 
L 125.23 282.098575 
L 131.38625 282.09853 
L 137.5425 282.09848 
L 143.69875 282.098471 
L 149.855 282.098471 
L 156.01125 282.098472 
L 162.1675 282.098471 
L 168.32375 282.098471 
L 174.48 282.098471 
L 180.63625 282.098471 
L 186.7925 282.098471 
L 192.94875 282.098471 
L 199.105 282.098471 
L 205.26125 282.098471 
L 211.4175 282.098471 
L 217.57375 282.098471 
L 223.73 282.098471 
L 229.88625 287.074925 
L 236.0425 294.36671 
L 242.19875 303.189151 
L 248.355 313.245876 
L 254.51125 324.378203 
L 260.6675 336.481635 
L 266.82375 349.479447 
L 272.98 363.311642 
L 279.13625 377.92938 
L 285.2925 393.291768 
L 291.44875 409.363853 
L 297.605 426.115271 
L 303.76125 443.519308 
L 309.9175 282.955874 
L 316.07375 282.377266 
L 322.23 282.306827 
L 328.38625 282.165956 
L 334.5425 282.108592 
L 340.69875 282.099135 
L 346.855 282.098922 
L 353.01125 282.098761 
L 359.1675 282.098549 
L 365.32375 282.09848 
L 371.48 282.098472 
L 377.63625 282.098472 
L 383.7925 282.098472 
L 389.94875 282.098472 
L 396.105 282.098471 
L 402.26125 282.098471 
L 408.4175 282.098471 
L 414.57375 282.098471 
L 420.73 282.098471 
L 426.88625 282.098471 
L 433.0425 282.098471 
L 439.19875 282.098471 
L 445.355 282.098471 
L 451.51125 282.098471 
L 457.6675 282.098471 
L 463.82375 282.098471 
L 469.98 282.098471 
L 476.13625 282.098471 
L 482.2925 282.098471 
L 488.44875 282.098471 
L 494.605 282.098471 
L 500.76125 282.098471 
L 506.9175 282.098471 
L 513.07375 282.098471 
L 519.23 282.098471 
L 525.38625 282.098471 
L 531.5425 282.098471 
L 537.69875 282.098471 
L 543.855 282.098471 
L 550.01125 282.098471 
L 556.1675 282.098471 
L 562.32375 282.098471 
L 568.48 282.098471 
L 574.63625 282.098471 
L 580.7925 282.098471 
L 586.94875 282.098471 
L 593.105 282.098471 
L 599.26125 282.098471 
L 605.4175 282.098471 
L 611.57375 282.098471 
L 617.73 282.098471 
L 623.88625 282.098471 
L 630.0425 282.098471 
L 636.19875 282.098471 
L 642.355 282.098471 
L 648.51125 282.098471 
L 654.6675 282.098471 
L 660.82375 282.098471 
L 666.98 282.098471 
L 673.13625 282.098471 
L 679.2925 282.098471 
L 685.44875 282.098471 
" clip-path="url(#pc33cad2def)" style="fill: none; stroke-dasharray: 5.55,2.4; stroke-dashoffset: 0; stroke: #ff0000; stroke-width: 1.5"/>
   </g>
   <g id="patch_8">
    <path d="M 75.98 347.35 
L 75.98 206.385 
" style="fill: none; stroke: #000000; stroke-width: 0.8; stroke-linejoin: miter; stroke-linecap: square"/>
   </g>
   <g id="patch_9">
    <path d="M 691.605 347.35 
L 691.605 206.385 
" style="fill: none; stroke: #000000; stroke-width: 0.8; stroke-linejoin: miter; stroke-linecap: square"/>
   </g>
   <g id="patch_10">
    <path d="M 75.98 347.35 
L 691.605 347.35 
" style="fill: none; stroke: #000000; stroke-width: 0.8; stroke-linejoin: miter; stroke-linecap: square"/>
   </g>
   <g id="patch_11">
    <path d="M 75.98 206.385 
L 691.605 206.385 
" style="fill: none; stroke: #000000; stroke-width: 0.8; stroke-linejoin: miter; stroke-linecap: square"/>
   </g>
  </g>
  <g id="axes_3">
   <g id="patch_12">
    <path d="M 75.98 506.935 
L 691.605 506.935 
L 691.605 365.97 
L 75.98 365.97 
z
" style="fill: #ffffff"/>
   </g>
   <g id="matplotlib.axis_5">
    <g id="xtick_19">
     <g id="line2d_39">
      <g>
       <use xlink:href="#m1f5cea90fa" x="75.98" y="506.935" style="stroke: #000000; stroke-width: 0.8"/>
      </g>
     </g>
    </g>
    <g id="xtick_20">
     <g id="line2d_40">
      <g>
       <use xlink:href="#m1f5cea90fa" x="152.933125" y="506.935" style="stroke: #000000; stroke-width: 0.8"/>
      </g>
     </g>
    </g>
    <g id="xtick_21">
     <g id="line2d_41">
      <g>
       <use xlink:href="#m1f5cea90fa" x="229.88625" y="506.935" style="stroke: #000000; stroke-width: 0.8"/>
      </g>
     </g>
    </g>
    <g id="xtick_22">
     <g id="line2d_42">
      <g>
       <use xlink:href="#m1f5cea90fa" x="306.839375" y="506.935" style="stroke: #000000; stroke-width: 0.8"/>
      </g>
     </g>
    </g>
    <g id="xtick_23">
     <g id="line2d_43">
      <g>
       <use xlink:href="#m1f5cea90fa" x="383.7925" y="506.935" style="stroke: #000000; stroke-width: 0.8"/>
      </g>
     </g>
    </g>
    <g id="xtick_24">
     <g id="line2d_44">
      <g>
       <use xlink:href="#m1f5cea90fa" x="460.745625" y="506.935" style="stroke: #000000; stroke-width: 0.8"/>
      </g>
     </g>
    </g>
    <g id="xtick_25">
     <g id="line2d_45">
      <g>
       <use xlink:href="#m1f5cea90fa" x="537.69875" y="506.935" style="stroke: #000000; stroke-width: 0.8"/>
      </g>
     </g>
    </g>
    <g id="xtick_26">
     <g id="line2d_46">
      <g>
       <use xlink:href="#m1f5cea90fa" x="614.651875" y="506.935" style="stroke: #000000; stroke-width: 0.8"/>
      </g>
     </g>
    </g>
    <g id="xtick_27">
     <g id="line2d_47">
      <g>
       <use xlink:href="#m1f5cea90fa" x="691.605" y="506.935" style="stroke: #000000; stroke-width: 0.8"/>
      </g>
     </g>
    </g>
   </g>
   <g id="matplotlib.axis_6">
    <g id="ytick_15">
     <g id="line2d_48">
      <g>
       <use xlink:href="#m489c2d0aca" x="75.98" y="498.708284" style="stroke: #000000; stroke-width: 0.8"/>
      </g>
     </g>
     <g id="text_17">
      <!-- -2.0 -->
      <g transform="translate(41.664687 504.02719) scale(0.14 -0.14)">
       <defs>
        <path id="DejaVuSans-32" d="M 1228 531 
L 3431 531 
L 3431 0 
L 469 0 
L 469 531 
Q 828 903 1448 1529 
Q 2069 2156 2228 2338 
Q 2531 2678 2651 2914 
Q 2772 3150 2772 3378 
Q 2772 3750 2511 3984 
Q 2250 4219 1831 4219 
Q 1534 4219 1204 4116 
Q 875 4013 500 3803 
L 500 4441 
Q 881 4594 1212 4672 
Q 1544 4750 1819 4750 
Q 2544 4750 2975 4387 
Q 3406 4025 3406 3419 
Q 3406 3131 3298 2873 
Q 3191 2616 2906 2266 
Q 2828 2175 2409 1742 
Q 1991 1309 1228 531 
z
" transform="scale(0.015625)"/>
       </defs>
       <use xlink:href="#DejaVuSans-2d"/>
       <use xlink:href="#DejaVuSans-32" x="36.083984"/>
       <use xlink:href="#DejaVuSans-2e" x="99.707031"/>
       <use xlink:href="#DejaVuSans-30" x="131.494141"/>
      </g>
     </g>
    </g>
    <g id="ytick_16">
     <g id="line2d_49">
      <g>
       <use xlink:href="#m489c2d0aca" x="75.98" y="467.580392" style="stroke: #000000; stroke-width: 0.8"/>
      </g>
     </g>
     <g id="text_18">
      <!-- -1.0 -->
      <g transform="translate(41.664687 472.899298) scale(0.14 -0.14)">
       <use xlink:href="#DejaVuSans-2d"/>
       <use xlink:href="#DejaVuSans-31" x="36.083984"/>
       <use xlink:href="#DejaVuSans-2e" x="99.707031"/>
       <use xlink:href="#DejaVuSans-30" x="131.494141"/>
      </g>
     </g>
    </g>
    <g id="ytick_17">
     <g id="line2d_50">
      <g>
       <use xlink:href="#m489c2d0aca" x="75.98" y="436.4525" style="stroke: #000000; stroke-width: 0.8"/>
      </g>
     </g>
     <g id="text_19">
      <!-- 0.0 -->
      <g transform="translate(46.715625 441.771406) scale(0.14 -0.14)">
       <use xlink:href="#DejaVuSans-30"/>
       <use xlink:href="#DejaVuSans-2e" x="63.623047"/>
       <use xlink:href="#DejaVuSans-30" x="95.410156"/>
      </g>
     </g>
    </g>
    <g id="ytick_18">
     <g id="line2d_51">
      <g>
       <use xlink:href="#m489c2d0aca" x="75.98" y="405.324608" style="stroke: #000000; stroke-width: 0.8"/>
      </g>
     </g>
     <g id="text_20">
      <!-- 1.0 -->
      <g transform="translate(46.715625 410.643514) scale(0.14 -0.14)">
       <use xlink:href="#DejaVuSans-31"/>
       <use xlink:href="#DejaVuSans-2e" x="63.623047"/>
       <use xlink:href="#DejaVuSans-30" x="95.410156"/>
      </g>
     </g>
    </g>
    <g id="ytick_19">
     <g id="line2d_52">
      <g>
       <use xlink:href="#m489c2d0aca" x="75.98" y="374.196716" style="stroke: #000000; stroke-width: 0.8"/>
      </g>
     </g>
     <g id="text_21">
      <!-- 2.0 -->
      <g transform="translate(46.715625 379.515623) scale(0.14 -0.14)">
       <use xlink:href="#DejaVuSans-32"/>
       <use xlink:href="#DejaVuSans-2e" x="63.623047"/>
       <use xlink:href="#DejaVuSans-30" x="95.410156"/>
      </g>
     </g>
    </g>
    <g id="text_22">
     <!-- Vel N [m/s] -->
     <g transform="translate(34.753125 474.921875) rotate(-90) scale(0.14 -0.14)">
      <defs>
       <path id="DejaVuSans-56" d="M 1831 0 
L 50 4666 
L 709 4666 
L 2188 738 
L 3669 4666 
L 4325 4666 
L 2547 0 
L 1831 0 
z
" transform="scale(0.015625)"/>
       <path id="DejaVuSans-65" d="M 3597 1894 
L 3597 1613 
L 953 1613 
Q 991 1019 1311 708 
Q 1631 397 2203 397 
Q 2534 397 2845 478 
Q 3156 559 3463 722 
L 3463 178 
Q 3153 47 2828 -22 
Q 2503 -91 2169 -91 
Q 1331 -91 842 396 
Q 353 884 353 1716 
Q 353 2575 817 3079 
Q 1281 3584 2069 3584 
Q 2775 3584 3186 3129 
Q 3597 2675 3597 1894 
z
M 3022 2063 
Q 3016 2534 2758 2815 
Q 2500 3097 2075 3097 
Q 1594 3097 1305 2825 
Q 1016 2553 972 2059 
L 3022 2063 
z
" transform="scale(0.015625)"/>
       <path id="DejaVuSans-6c" d="M 603 4863 
L 1178 4863 
L 1178 0 
L 603 0 
L 603 4863 
z
" transform="scale(0.015625)"/>
       <path id="DejaVuSans-2f" d="M 1625 4666 
L 2156 4666 
L 531 -594 
L 0 -594 
L 1625 4666 
z
" transform="scale(0.015625)"/>
      </defs>
      <use xlink:href="#DejaVuSans-56"/>
      <use xlink:href="#DejaVuSans-65" x="60.658203"/>
      <use xlink:href="#DejaVuSans-6c" x="122.181641"/>
      <use xlink:href="#DejaVuSans-20" x="149.964844"/>
      <use xlink:href="#DejaVuSans-4e" x="181.751953"/>
      <use xlink:href="#DejaVuSans-20" x="256.556641"/>
      <use xlink:href="#DejaVuSans-5b" x="288.34375"/>
      <use xlink:href="#DejaVuSans-6d" x="327.357422"/>
      <use xlink:href="#DejaVuSans-2f" x="424.769531"/>
      <use xlink:href="#DejaVuSans-73" x="458.460938"/>
      <use xlink:href="#DejaVuSans-5d" x="510.560547"/>
     </g>
    </g>
   </g>
   <g id="line2d_53">
    <path d="M 75.98 436.4525 
L 85.522188 436.344072 
L 87.984688 436.276648 
L 88.2925 433.284944 
L 94.140938 433.058958 
L 94.44875 441.207863 
L 100.297188 440.891812 
L 100.605 431.652461 
L 106.453438 431.247593 
L 106.76125 439.420307 
L 112.609688 438.928219 
L 112.9175 434.300755 
L 118.765938 433.723389 
L 119.07375 434.051347 
L 124.922188 433.390982 
L 125.23 437.156067 
L 131.078438 436.41531 
L 131.38625 424.103526 
L 137.234688 423.285299 
L 137.5425 438.249175 
L 143.390938 437.356708 
L 143.69875 436.821129 
L 149.547188 435.857944 
L 149.855 433.514665 
L 155.703438 432.484563 
L 156.01125 441.663672 
L 161.859688 440.570718 
L 162.1675 431.687271 
L 168.015938 430.535779 
L 168.32375 435.840186 
L 174.172188 434.6347 
L 174.48 432.501658 
L 180.328438 431.246937 
L 180.63625 439.619918 
L 186.484688 438.320912 
L 186.7925 439.740743 
L 192.640938 438.402579 
L 192.94875 429.549054 
L 198.797188 428.177014 
L 199.105 431.81699 
L 204.953438 430.416487 
L 205.26125 435.073886 
L 211.109688 433.650448 
L 211.4175 434.001989 
L 217.265938 432.561235 
L 217.57375 434.472084 
L 223.422188 433.019699 
L 223.73 440.721293 
L 260.975313 431.558413 
L 276.67375 427.950492 
L 289.909688 425.128597 
L 301.914375 422.789424 
L 309.609688 421.417197 
L 309.9175 429.191194 
L 315.765938 428.22457 
L 316.07375 436.793604 
L 321.922188 435.897515 
L 322.23 436.776994 
L 328.078438 435.954976 
L 328.38625 434.441327 
L 334.234688 433.696624 
L 334.5425 429.279674 
L 340.390938 428.615225 
L 340.69875 434.520069 
L 346.547188 433.938497 
L 346.855 438.840863 
L 352.703438 438.344462 
L 353.01125 439.525864 
L 358.859688 439.116594 
L 359.1675 436.429025 
L 365.015938 436.1085 
L 365.32375 427.078021 
L 371.172188 426.847508 
L 371.48 448.048922 
L 377.328438 447.909329 
L 377.63625 435.060709 
L 383.484688 435.012588 
L 383.7925 433.37165 
L 389.640938 433.41519 
L 389.94875 432.128291 
L 395.797188 432.263321 
L 396.105 441.076642 
L 401.953438 441.302628 
L 402.26125 429.820537 
L 408.109688 430.136588 
L 408.4175 434.074519 
L 414.265938 434.479387 
L 414.57375 440.281272 
L 420.422188 440.77336 
L 420.73 439.694932 
L 426.578438 440.272298 
L 426.88625 441.516509 
L 432.734688 442.176873 
L 433.0425 437.319176 
L 438.890938 438.059934 
L 439.19875 436.933793 
L 445.047188 437.75202 
L 445.355 433.198132 
L 451.203438 434.090599 
L 451.51125 436.300548 
L 457.359688 437.263733 
L 457.6675 439.296784 
L 463.515938 440.326886 
L 463.82375 436.637542 
L 469.672188 437.730496 
L 469.98 436.893866 
L 475.828438 438.045357 
L 476.13625 438.583031 
L 481.984688 439.788517 
L 482.2925 444.960893 
L 488.140938 446.215615 
L 488.44875 434.298149 
L 494.297188 435.597156 
L 494.605 441.025869 
L 500.453438 442.364033 
L 500.76125 440.866084 
L 506.609688 442.238125 
L 506.9175 436.320434 
L 512.765938 437.720937 
L 513.07375 433.743693 
L 518.922188 435.16713 
L 519.23 431.882456 
L 525.078438 433.323211 
L 525.38625 445.305945 
L 531.234688 446.758331 
L 531.5425 434.285875 
L 537.390938 435.744159 
L 537.69875 432.577321 
L 543.547188 434.03575 
L 543.855 442.16789 
L 549.703438 443.620707 
L 550.01125 441.914435 
L 555.859688 443.355906 
L 556.1675 441.432866 
L 562.015938 442.857303 
L 562.32375 439.892029 
L 570.9425 441.86054 
L 574.328438 442.652213 
L 574.63625 441.405319 
L 580.484688 442.745304 
L 580.7925 434.557957 
L 586.640938 435.859044 
L 586.94875 432.680586 
L 592.797188 433.937641 
L 593.105 428.970292 
L 598.953438 430.178354 
L 599.26125 442.149283 
L 605.109688 443.303584 
L 605.4175 447.489222 
L 611.265938 448.585207 
L 611.57375 436.415848 
L 617.422188 437.449191 
L 617.73 436.242721 
L 623.578438 437.209345 
L 623.88625 433.854227 
L 629.734688 434.750316 
L 630.0425 437.563724 
L 635.890938 438.385743 
L 636.19875 441.516137 
L 642.047188 442.26084 
L 642.355 438.571473 
L 648.203438 439.235922 
L 648.51125 431.835545 
L 654.359688 432.417117 
L 654.6675 434.357808 
L 660.515938 434.854208 
L 660.82375 440.646353 
L 666.672188 441.055623 
L 666.98 433.998342 
L 672.828438 434.318866 
L 673.13625 441.788876 
L 678.984688 442.01939 
L 679.2925 438.23689 
L 685.140938 438.376483 
L 685.44875 433.911203 
L 691.297188 433.959324 
L 691.297188 433.959324 
" clip-path="url(#pfc3ebd543a)" style="fill: none; stroke: #1f77b4; stroke-width: 1.5; stroke-linecap: square"/>
   </g>
   <g id="line2d_54">
    <path d="M 75.98 427.114132 
L 82.13625 413.587574 
L 88.2925 411.034462 
L 94.44875 413.40496 
L 100.605 414.401365 
L 106.76125 414.48482 
L 112.9175 414.460858 
L 119.07375 414.460634 
L 125.23 414.464463 
L 131.38625 414.465523 
L 137.5425 414.465539 
L 143.69875 414.465508 
L 149.855 414.465514 
L 156.01125 414.465519 
L 162.1675 414.46552 
L 168.32375 414.46552 
L 174.48 414.46552 
L 180.63625 414.46552 
L 186.7925 414.46552 
L 192.94875 414.46552 
L 199.105 414.46552 
L 205.26125 414.46552 
L 211.4175 414.46552 
L 217.57375 414.46552 
L 223.73 414.46552 
L 229.88625 406.13002 
L 236.0425 399.635678 
L 242.19875 394.126339 
L 248.355 389.25579 
L 254.51125 384.84286 
L 260.6675 380.778623 
L 266.82375 376.991537 
L 272.98 373.431618 
L 279.13625 370.062311 
L 285.2925 366.855929 
L 291.44875 363.790899 
L 297.605 360.850028 
L 303.76125 358.019348 
L 309.9175 395.796417 
L 316.07375 407.262879 
L 322.23 413.261229 
L 328.38625 414.379847 
L 334.5425 414.439137 
L 340.69875 414.443366 
L 346.855 414.45813 
L 353.01125 414.464438 
L 359.1675 414.465449 
L 365.32375 414.465468 
L 371.48 414.465488 
L 377.63625 414.465512 
L 383.7925 414.465519 
L 389.94875 414.46552 
L 396.105 414.46552 
L 402.26125 414.46552 
L 408.4175 414.46552 
L 414.57375 414.46552 
L 420.73 414.46552 
L 426.88625 414.46552 
L 433.0425 414.46552 
L 439.19875 414.46552 
L 445.355 414.46552 
L 451.51125 414.46552 
L 457.6675 414.46552 
L 463.82375 414.46552 
L 469.98 414.46552 
L 476.13625 414.46552 
L 482.2925 414.46552 
L 488.44875 414.46552 
L 494.605 414.46552 
L 500.76125 414.46552 
L 506.9175 414.46552 
L 513.07375 414.46552 
L 519.23 414.46552 
L 525.38625 414.46552 
L 531.5425 414.46552 
L 537.69875 414.46552 
L 543.855 414.46552 
L 550.01125 414.46552 
L 556.1675 414.46552 
L 562.32375 414.46552 
L 568.48 414.46552 
L 574.63625 414.46552 
L 580.7925 414.46552 
L 586.94875 414.46552 
L 593.105 414.46552 
L 599.26125 414.46552 
L 605.4175 414.46552 
L 611.57375 414.46552 
L 617.73 414.46552 
L 623.88625 414.46552 
L 630.0425 414.46552 
L 636.19875 414.46552 
L 642.355 414.46552 
L 648.51125 414.46552 
L 654.6675 414.46552 
L 660.82375 414.46552 
L 666.98 414.46552 
L 673.13625 414.46552 
L 679.2925 414.46552 
L 685.44875 414.46552 
" clip-path="url(#pfc3ebd543a)" style="fill: none; stroke-dasharray: 5.55,2.4; stroke-dashoffset: 0; stroke: #ff0000; stroke-width: 1.5"/>
   </g>
   <g id="line2d_55">
    <path d="M 75.98 445.790868 
L 82.13625 459.317426 
L 88.2925 461.870538 
L 94.44875 459.50004 
L 100.605 458.503635 
L 106.76125 458.42018 
L 112.9175 458.444142 
L 119.07375 458.444366 
L 125.23 458.440537 
L 131.38625 458.439477 
L 137.5425 458.439461 
L 143.69875 458.439492 
L 149.855 458.439486 
L 156.01125 458.439481 
L 162.1675 458.43948 
L 168.32375 458.43948 
L 174.48 458.43948 
L 180.63625 458.43948 
L 186.7925 458.43948 
L 192.94875 458.43948 
L 199.105 458.43948 
L 205.26125 458.43948 
L 211.4175 458.43948 
L 217.57375 458.43948 
L 223.73 458.43948 
L 229.88625 466.77498 
L 236.0425 473.269322 
L 242.19875 478.778661 
L 248.355 483.64921 
L 254.51125 488.06214 
L 260.6675 492.126377 
L 266.82375 495.913463 
L 272.98 499.473382 
L 279.13625 502.842689 
L 285.2925 506.049071 
L 291.44875 509.114101 
L 297.605 512.054972 
L 303.76125 514.885652 
L 309.9175 477.108583 
L 316.07375 465.642121 
L 322.23 459.643771 
L 328.38625 458.525153 
L 334.5425 458.465863 
L 340.69875 458.461634 
L 346.855 458.44687 
L 353.01125 458.440562 
L 359.1675 458.439551 
L 365.32375 458.439532 
L 371.48 458.439512 
L 377.63625 458.439488 
L 383.7925 458.439481 
L 389.94875 458.43948 
L 396.105 458.43948 
L 402.26125 458.43948 
L 408.4175 458.43948 
L 414.57375 458.43948 
L 420.73 458.43948 
L 426.88625 458.43948 
L 433.0425 458.43948 
L 439.19875 458.43948 
L 445.355 458.43948 
L 451.51125 458.43948 
L 457.6675 458.43948 
L 463.82375 458.43948 
L 469.98 458.43948 
L 476.13625 458.43948 
L 482.2925 458.43948 
L 488.44875 458.43948 
L 494.605 458.43948 
L 500.76125 458.43948 
L 506.9175 458.43948 
L 513.07375 458.43948 
L 519.23 458.43948 
L 525.38625 458.43948 
L 531.5425 458.43948 
L 537.69875 458.43948 
L 543.855 458.43948 
L 550.01125 458.43948 
L 556.1675 458.43948 
L 562.32375 458.43948 
L 568.48 458.43948 
L 574.63625 458.43948 
L 580.7925 458.43948 
L 586.94875 458.43948 
L 593.105 458.43948 
L 599.26125 458.43948 
L 605.4175 458.43948 
L 611.57375 458.43948 
L 617.73 458.43948 
L 623.88625 458.43948 
L 630.0425 458.43948 
L 636.19875 458.43948 
L 642.355 458.43948 
L 648.51125 458.43948 
L 654.6675 458.43948 
L 660.82375 458.43948 
L 666.98 458.43948 
L 673.13625 458.43948 
L 679.2925 458.43948 
L 685.44875 458.43948 
" clip-path="url(#pfc3ebd543a)" style="fill: none; stroke-dasharray: 5.55,2.4; stroke-dashoffset: 0; stroke: #ff0000; stroke-width: 1.5"/>
   </g>
   <g id="patch_13">
    <path d="M 75.98 506.935 
L 75.98 365.97 
" style="fill: none; stroke: #000000; stroke-width: 0.8; stroke-linejoin: miter; stroke-linecap: square"/>
   </g>
   <g id="patch_14">
    <path d="M 691.605 506.935 
L 691.605 365.97 
" style="fill: none; stroke: #000000; stroke-width: 0.8; stroke-linejoin: miter; stroke-linecap: square"/>
   </g>
   <g id="patch_15">
    <path d="M 75.98 506.935 
L 691.605 506.935 
" style="fill: none; stroke: #000000; stroke-width: 0.8; stroke-linejoin: miter; stroke-linecap: square"/>
   </g>
   <g id="patch_16">
    <path d="M 75.98 365.97 
L 691.605 365.97 
" style="fill: none; stroke: #000000; stroke-width: 0.8; stroke-linejoin: miter; stroke-linecap: square"/>
   </g>
  </g>
  <g id="axes_4">
   <g id="patch_17">
    <path d="M 75.98 666.52 
L 691.605 666.52 
L 691.605 525.555 
L 75.98 525.555 
z
" style="fill: #ffffff"/>
   </g>
   <g id="matplotlib.axis_7">
    <g id="xtick_28">
     <g id="line2d_56">
      <g>
       <use xlink:href="#m1f5cea90fa" x="75.98" y="666.52" style="stroke: #000000; stroke-width: 0.8"/>
      </g>
     </g>
     <g id="text_23">
      <!-- 0 -->
      <g transform="translate(71.52625 684.157812) scale(0.14 -0.14)">
       <use xlink:href="#DejaVuSans-30"/>
      </g>
     </g>
    </g>
    <g id="xtick_29">
     <g id="line2d_57">
      <g>
       <use xlink:href="#m1f5cea90fa" x="152.933125" y="666.52" style="stroke: #000000; stroke-width: 0.8"/>
      </g>
     </g>
     <g id="text_24">
      <!-- 25 -->
      <g transform="translate(144.025625 684.157812) scale(0.14 -0.14)">
       <use xlink:href="#DejaVuSans-32"/>
       <use xlink:href="#DejaVuSans-35" x="63.623047"/>
      </g>
     </g>
    </g>
    <g id="xtick_30">
     <g id="line2d_58">
      <g>
       <use xlink:href="#m1f5cea90fa" x="229.88625" y="666.52" style="stroke: #000000; stroke-width: 0.8"/>
      </g>
     </g>
     <g id="text_25">
      <!-- 50 -->
      <g transform="translate(220.97875 684.157812) scale(0.14 -0.14)">
       <use xlink:href="#DejaVuSans-35"/>
       <use xlink:href="#DejaVuSans-30" x="63.623047"/>
      </g>
     </g>
    </g>
    <g id="xtick_31">
     <g id="line2d_59">
      <g>
       <use xlink:href="#m1f5cea90fa" x="306.839375" y="666.52" style="stroke: #000000; stroke-width: 0.8"/>
      </g>
     </g>
     <g id="text_26">
      <!-- 75 -->
      <g transform="translate(297.931875 684.157812) scale(0.14 -0.14)">
       <defs>
        <path id="DejaVuSans-37" d="M 525 4666 
L 3525 4666 
L 3525 4397 
L 1831 0 
L 1172 0 
L 2766 4134 
L 525 4134 
L 525 4666 
z
" transform="scale(0.015625)"/>
       </defs>
       <use xlink:href="#DejaVuSans-37"/>
       <use xlink:href="#DejaVuSans-35" x="63.623047"/>
      </g>
     </g>
    </g>
    <g id="xtick_32">
     <g id="line2d_60">
      <g>
       <use xlink:href="#m1f5cea90fa" x="383.7925" y="666.52" style="stroke: #000000; stroke-width: 0.8"/>
      </g>
     </g>
     <g id="text_27">
      <!-- 100 -->
      <g transform="translate(370.43125 684.157812) scale(0.14 -0.14)">
       <use xlink:href="#DejaVuSans-31"/>
       <use xlink:href="#DejaVuSans-30" x="63.623047"/>
       <use xlink:href="#DejaVuSans-30" x="127.246094"/>
      </g>
     </g>
    </g>
    <g id="xtick_33">
     <g id="line2d_61">
      <g>
       <use xlink:href="#m1f5cea90fa" x="460.745625" y="666.52" style="stroke: #000000; stroke-width: 0.8"/>
      </g>
     </g>
     <g id="text_28">
      <!-- 125 -->
      <g transform="translate(447.384375 684.157812) scale(0.14 -0.14)">
       <use xlink:href="#DejaVuSans-31"/>
       <use xlink:href="#DejaVuSans-32" x="63.623047"/>
       <use xlink:href="#DejaVuSans-35" x="127.246094"/>
      </g>
     </g>
    </g>
    <g id="xtick_34">
     <g id="line2d_62">
      <g>
       <use xlink:href="#m1f5cea90fa" x="537.69875" y="666.52" style="stroke: #000000; stroke-width: 0.8"/>
      </g>
     </g>
     <g id="text_29">
      <!-- 150 -->
      <g transform="translate(524.3375 684.157812) scale(0.14 -0.14)">
       <use xlink:href="#DejaVuSans-31"/>
       <use xlink:href="#DejaVuSans-35" x="63.623047"/>
       <use xlink:href="#DejaVuSans-30" x="127.246094"/>
      </g>
     </g>
    </g>
    <g id="xtick_35">
     <g id="line2d_63">
      <g>
       <use xlink:href="#m1f5cea90fa" x="614.651875" y="666.52" style="stroke: #000000; stroke-width: 0.8"/>
      </g>
     </g>
     <g id="text_30">
      <!-- 175 -->
      <g transform="translate(601.290625 684.157812) scale(0.14 -0.14)">
       <use xlink:href="#DejaVuSans-31"/>
       <use xlink:href="#DejaVuSans-37" x="63.623047"/>
       <use xlink:href="#DejaVuSans-35" x="127.246094"/>
      </g>
     </g>
    </g>
    <g id="xtick_36">
     <g id="line2d_64">
      <g>
       <use xlink:href="#m1f5cea90fa" x="691.605" y="666.52" style="stroke: #000000; stroke-width: 0.8"/>
      </g>
     </g>
     <g id="text_31">
      <!-- 200 -->
      <g transform="translate(678.24375 684.157812) scale(0.14 -0.14)">
       <use xlink:href="#DejaVuSans-32"/>
       <use xlink:href="#DejaVuSans-30" x="63.623047"/>
       <use xlink:href="#DejaVuSans-30" x="127.246094"/>
      </g>
     </g>
    </g>
    <g id="text_32">
     <!-- Timestamp [s] -->
     <g transform="translate(333.389219 701.707188) scale(0.14 -0.14)">
      <defs>
       <path id="DejaVuSans-54" d="M -19 4666 
L 3928 4666 
L 3928 4134 
L 2272 4134 
L 2272 0 
L 1638 0 
L 1638 4134 
L -19 4134 
L -19 4666 
z
" transform="scale(0.015625)"/>
       <path id="DejaVuSans-69" d="M 603 3500 
L 1178 3500 
L 1178 0 
L 603 0 
L 603 3500 
z
M 603 4863 
L 1178 4863 
L 1178 4134 
L 603 4134 
L 603 4863 
z
" transform="scale(0.015625)"/>
       <path id="DejaVuSans-74" d="M 1172 4494 
L 1172 3500 
L 2356 3500 
L 2356 3053 
L 1172 3053 
L 1172 1153 
Q 1172 725 1289 603 
Q 1406 481 1766 481 
L 2356 481 
L 2356 0 
L 1766 0 
Q 1100 0 847 248 
Q 594 497 594 1153 
L 594 3053 
L 172 3053 
L 172 3500 
L 594 3500 
L 594 4494 
L 1172 4494 
z
" transform="scale(0.015625)"/>
       <path id="DejaVuSans-61" d="M 2194 1759 
Q 1497 1759 1228 1600 
Q 959 1441 959 1056 
Q 959 750 1161 570 
Q 1363 391 1709 391 
Q 2188 391 2477 730 
Q 2766 1069 2766 1631 
L 2766 1759 
L 2194 1759 
z
M 3341 1997 
L 3341 0 
L 2766 0 
L 2766 531 
Q 2569 213 2275 61 
Q 1981 -91 1556 -91 
Q 1019 -91 701 211 
Q 384 513 384 1019 
Q 384 1609 779 1909 
Q 1175 2209 1959 2209 
L 2766 2209 
L 2766 2266 
Q 2766 2663 2505 2880 
Q 2244 3097 1772 3097 
Q 1472 3097 1187 3025 
Q 903 2953 641 2809 
L 641 3341 
Q 956 3463 1253 3523 
Q 1550 3584 1831 3584 
Q 2591 3584 2966 3190 
Q 3341 2797 3341 1997 
z
" transform="scale(0.015625)"/>
       <path id="DejaVuSans-70" d="M 1159 525 
L 1159 -1331 
L 581 -1331 
L 581 3500 
L 1159 3500 
L 1159 2969 
Q 1341 3281 1617 3432 
Q 1894 3584 2278 3584 
Q 2916 3584 3314 3078 
Q 3713 2572 3713 1747 
Q 3713 922 3314 415 
Q 2916 -91 2278 -91 
Q 1894 -91 1617 61 
Q 1341 213 1159 525 
z
M 3116 1747 
Q 3116 2381 2855 2742 
Q 2594 3103 2138 3103 
Q 1681 3103 1420 2742 
Q 1159 2381 1159 1747 
Q 1159 1113 1420 752 
Q 1681 391 2138 391 
Q 2594 391 2855 752 
Q 3116 1113 3116 1747 
z
" transform="scale(0.015625)"/>
      </defs>
      <use xlink:href="#DejaVuSans-54"/>
      <use xlink:href="#DejaVuSans-69" x="57.958984"/>
      <use xlink:href="#DejaVuSans-6d" x="85.742188"/>
      <use xlink:href="#DejaVuSans-65" x="183.154297"/>
      <use xlink:href="#DejaVuSans-73" x="244.677734"/>
      <use xlink:href="#DejaVuSans-74" x="296.777344"/>
      <use xlink:href="#DejaVuSans-61" x="335.986328"/>
      <use xlink:href="#DejaVuSans-6d" x="397.265625"/>
      <use xlink:href="#DejaVuSans-70" x="494.677734"/>
      <use xlink:href="#DejaVuSans-20" x="558.154297"/>
      <use xlink:href="#DejaVuSans-5b" x="589.941406"/>
      <use xlink:href="#DejaVuSans-73" x="628.955078"/>
      <use xlink:href="#DejaVuSans-5d" x="681.054688"/>
     </g>
    </g>
   </g>
   <g id="matplotlib.axis_8">
    <g id="ytick_20">
     <g id="line2d_65">
      <g>
       <use xlink:href="#m489c2d0aca" x="75.98" y="658.293284" style="stroke: #000000; stroke-width: 0.8"/>
      </g>
     </g>
     <g id="text_33">
      <!-- -2.0 -->
      <g transform="translate(41.664687 663.61219) scale(0.14 -0.14)">
       <use xlink:href="#DejaVuSans-2d"/>
       <use xlink:href="#DejaVuSans-32" x="36.083984"/>
       <use xlink:href="#DejaVuSans-2e" x="99.707031"/>
       <use xlink:href="#DejaVuSans-30" x="131.494141"/>
      </g>
     </g>
    </g>
    <g id="ytick_21">
     <g id="line2d_66">
      <g>
       <use xlink:href="#m489c2d0aca" x="75.98" y="627.165392" style="stroke: #000000; stroke-width: 0.8"/>
      </g>
     </g>
     <g id="text_34">
      <!-- -1.0 -->
      <g transform="translate(41.664687 632.484298) scale(0.14 -0.14)">
       <use xlink:href="#DejaVuSans-2d"/>
       <use xlink:href="#DejaVuSans-31" x="36.083984"/>
       <use xlink:href="#DejaVuSans-2e" x="99.707031"/>
       <use xlink:href="#DejaVuSans-30" x="131.494141"/>
      </g>
     </g>
    </g>
    <g id="ytick_22">
     <g id="line2d_67">
      <g>
       <use xlink:href="#m489c2d0aca" x="75.98" y="596.0375" style="stroke: #000000; stroke-width: 0.8"/>
      </g>
     </g>
     <g id="text_35">
      <!-- 0.0 -->
      <g transform="translate(46.715625 601.356406) scale(0.14 -0.14)">
       <use xlink:href="#DejaVuSans-30"/>
       <use xlink:href="#DejaVuSans-2e" x="63.623047"/>
       <use xlink:href="#DejaVuSans-30" x="95.410156"/>
      </g>
     </g>
    </g>
    <g id="ytick_23">
     <g id="line2d_68">
      <g>
       <use xlink:href="#m489c2d0aca" x="75.98" y="564.909608" style="stroke: #000000; stroke-width: 0.8"/>
      </g>
     </g>
     <g id="text_36">
      <!-- 1.0 -->
      <g transform="translate(46.715625 570.228514) scale(0.14 -0.14)">
       <use xlink:href="#DejaVuSans-31"/>
       <use xlink:href="#DejaVuSans-2e" x="63.623047"/>
       <use xlink:href="#DejaVuSans-30" x="95.410156"/>
      </g>
     </g>
    </g>
    <g id="ytick_24">
     <g id="line2d_69">
      <g>
       <use xlink:href="#m489c2d0aca" x="75.98" y="533.781716" style="stroke: #000000; stroke-width: 0.8"/>
      </g>
     </g>
     <g id="text_37">
      <!-- 2.0 -->
      <g transform="translate(46.715625 539.100623) scale(0.14 -0.14)">
       <use xlink:href="#DejaVuSans-32"/>
       <use xlink:href="#DejaVuSans-2e" x="63.623047"/>
       <use xlink:href="#DejaVuSans-30" x="95.410156"/>
      </g>
     </g>
    </g>
    <g id="text_38">
     <!-- Vel E [m/s] -->
     <g transform="translate(34.753125 633.693125) rotate(-90) scale(0.14 -0.14)">
      <use xlink:href="#DejaVuSans-56"/>
      <use xlink:href="#DejaVuSans-65" x="60.658203"/>
      <use xlink:href="#DejaVuSans-6c" x="122.181641"/>
      <use xlink:href="#DejaVuSans-20" x="149.964844"/>
      <use xlink:href="#DejaVuSans-45" x="181.751953"/>
      <use xlink:href="#DejaVuSans-20" x="244.935547"/>
      <use xlink:href="#DejaVuSans-5b" x="276.722656"/>
      <use xlink:href="#DejaVuSans-6d" x="315.736328"/>
      <use xlink:href="#DejaVuSans-2f" x="413.148438"/>
      <use xlink:href="#DejaVuSans-73" x="446.839844"/>
      <use xlink:href="#DejaVuSans-5d" x="498.939453"/>
     </g>
    </g>
   </g>
   <g id="line2d_70">
    <path d="M 75.98 596.0375 
L 87.984688 593.063632 
L 88.2925 589.989791 
L 94.140938 588.54832 
L 94.44875 591.167708 
L 100.297188 589.743271 
L 100.605 593.56495 
L 106.453438 592.163168 
L 106.76125 595.6306 
L 112.609688 594.257006 
L 112.9175 597.538728 
L 118.765938 596.198744 
L 119.07375 595.504377 
L 124.922188 594.20329 
L 125.23 580.889632 
L 131.078438 579.632577 
L 131.38625 596.421072 
L 137.234688 595.21301 
L 137.5425 592.089165 
L 143.390938 590.934863 
L 143.69875 599.628246 
L 149.547188 598.532261 
L 149.855 592.428443 
L 155.703438 591.395099 
L 156.01125 592.137215 
L 161.859688 591.170591 
L 162.1675 596.139928 
L 168.015938 595.243839 
L 168.32375 600.584449 
L 174.172188 599.762431 
L 174.48 601.87832 
L 180.328438 601.133617 
L 180.63625 590.809491 
L 186.484688 590.145042 
L 186.7925 597.994861 
L 192.640938 597.413288 
L 192.94875 598.667408 
L 198.797188 598.171007 
L 199.105 587.422894 
L 204.953438 587.013623 
L 205.26125 588.445784 
L 211.109688 588.12526 
L 211.4175 597.13226 
L 217.265938 596.901746 
L 217.57375 599.830657 
L 223.422188 599.691064 
L 223.73 600.247382 
L 232.964375 600.211203 
L 242.19875 600.391918 
L 251.740938 600.804794 
L 261.283125 601.443626 
L 270.825312 602.302361 
L 280.675313 603.410808 
L 290.833125 604.778353 
L 301.29875 606.410317 
L 309.609688 607.855359 
L 309.9175 598.824228 
L 315.765938 599.917181 
L 316.07375 589.877633 
L 321.922188 591.029125 
L 322.23 591.554858 
L 328.078438 592.760343 
L 328.38625 596.950306 
L 334.234688 598.205027 
L 334.5425 609.488569 
L 340.390938 610.787575 
L 340.69875 595.3228 
L 346.547188 596.660964 
L 346.855 592.914318 
L 352.703438 594.286358 
L 353.01125 596.675107 
L 358.859688 598.07561 
L 359.1675 595.918219 
L 365.015938 597.341656 
L 365.32375 593.896763 
L 371.172188 595.337518 
L 371.48 599.963032 
L 377.328438 601.415418 
L 377.63625 604.058469 
L 383.484688 605.516753 
L 383.7925 605.460789 
L 389.640938 606.919218 
L 389.94875 595.50221 
L 395.797188 596.955027 
L 396.105 596.681536 
L 401.953438 598.123007 
L 402.26125 596.920719 
L 408.109688 598.345157 
L 408.4175 599.370122 
L 414.265938 600.771903 
L 414.57375 594.210137 
L 420.422188 595.58373 
L 420.73 592.7713 
L 426.578438 594.111285 
L 426.88625 595.671842 
L 432.734688 596.972929 
L 433.0425 602.828545 
L 438.890938 604.0856 
L 439.19875 595.086467 
L 445.047188 596.294529 
L 445.355 596.16858 
L 451.203438 597.322881 
L 451.51125 606.988762 
L 457.359688 608.084747 
L 457.6675 594.377335 
L 463.515938 595.410678 
L 463.82375 601.745677 
L 469.672188 602.712301 
L 469.98 598.357616 
L 475.828438 599.253705 
L 476.13625 589.027498 
L 481.984688 589.849517 
L 482.2925 591.649675 
L 488.140938 592.394378 
L 488.44875 599.349501 
L 494.297188 600.01395 
L 494.605 601.034892 
L 500.453438 601.616465 
L 500.76125 595.086183 
L 506.609688 595.582584 
L 506.9175 601.839655 
L 512.765938 602.248926 
L 513.07375 593.269641 
L 518.922188 593.590165 
L 519.23 594.935694 
L 525.078438 595.166208 
L 525.38625 592.312214 
L 531.234688 592.451807 
L 531.5425 596.441743 
L 537.390938 596.489865 
L 537.69875 600.771584 
L 543.547188 600.728044 
L 543.855 595.081147 
L 549.703438 594.946117 
L 550.01125 595.891863 
L 555.859688 595.665876 
L 556.1675 599.842467 
L 562.015938 599.526416 
L 562.32375 598.018002 
L 568.172188 597.613134 
L 568.48 595.825524 
L 574.328438 595.333435 
L 574.63625 591.285714 
L 580.484688 590.708348 
L 580.7925 589.382739 
L 586.640938 588.722374 
L 586.94875 594.384713 
L 592.797188 593.643955 
L 593.105 600.232038 
L 598.953438 599.413811 
L 599.26125 596.442343 
L 605.109688 595.549876 
L 605.4175 591.376841 
L 611.265938 590.413656 
L 611.57375 589.823438 
L 617.422188 588.793335 
L 617.73 598.887886 
L 623.578438 597.794932 
L 623.88625 594.990784 
L 629.734688 593.839292 
L 630.0425 596.215846 
L 635.890938 595.010361 
L 636.19875 602.084774 
L 642.047188 600.830052 
L 642.355 597.10135 
L 648.203438 595.802344 
L 648.51125 591.997225 
L 654.359688 590.659061 
L 654.6675 591.607076 
L 660.515938 590.235035 
L 660.82375 592.355852 
L 666.672188 590.95535 
L 666.98 594.222937 
L 672.828438 592.7995 
L 673.13625 591.312336 
L 678.984688 589.871581 
L 679.2925 596.66883 
L 685.140938 595.216445 
L 685.44875 599.275235 
L 691.297188 597.816951 
L 691.297188 597.816951 
" clip-path="url(#p0676f758f7)" style="fill: none; stroke: #1f77b4; stroke-width: 1.5; stroke-linecap: square"/>
   </g>
   <g id="line2d_71">
    <path d="M 75.98 586.699132 
L 82.13625 573.172574 
L 88.2925 570.619462 
L 94.44875 572.98996 
L 100.605 573.986365 
L 106.76125 574.06982 
L 112.9175 574.045858 
L 119.07375 574.045634 
L 125.23 574.049463 
L 131.38625 574.050523 
L 137.5425 574.050539 
L 143.69875 574.050508 
L 149.855 574.050514 
L 156.01125 574.050519 
L 162.1675 574.05052 
L 168.32375 574.05052 
L 174.48 574.05052 
L 180.63625 574.05052 
L 186.7925 574.05052 
L 192.94875 574.05052 
L 199.105 574.05052 
L 205.26125 574.05052 
L 211.4175 574.05052 
L 217.57375 574.05052 
L 223.73 574.05052 
L 229.88625 565.71502 
L 236.0425 559.220678 
L 242.19875 553.711339 
L 248.355 548.84079 
L 254.51125 544.42786 
L 260.6675 540.363623 
L 266.82375 536.576537 
L 272.98 533.016618 
L 279.13625 529.647311 
L 285.2925 526.440929 
L 291.44875 523.375899 
L 297.605 520.435028 
L 303.76125 517.604348 
L 309.9175 555.381417 
L 316.07375 566.847879 
L 322.23 572.846229 
L 328.38625 573.964847 
L 334.5425 574.024137 
L 340.69875 574.028366 
L 346.855 574.04313 
L 353.01125 574.049438 
L 359.1675 574.050449 
L 365.32375 574.050468 
L 371.48 574.050488 
L 377.63625 574.050512 
L 383.7925 574.050519 
L 389.94875 574.05052 
L 396.105 574.05052 
L 402.26125 574.05052 
L 408.4175 574.05052 
L 414.57375 574.05052 
L 420.73 574.05052 
L 426.88625 574.05052 
L 433.0425 574.05052 
L 439.19875 574.05052 
L 445.355 574.05052 
L 451.51125 574.05052 
L 457.6675 574.05052 
L 463.82375 574.05052 
L 469.98 574.05052 
L 476.13625 574.05052 
L 482.2925 574.05052 
L 488.44875 574.05052 
L 494.605 574.05052 
L 500.76125 574.05052 
L 506.9175 574.05052 
L 513.07375 574.05052 
L 519.23 574.05052 
L 525.38625 574.05052 
L 531.5425 574.05052 
L 537.69875 574.05052 
L 543.855 574.05052 
L 550.01125 574.05052 
L 556.1675 574.05052 
L 562.32375 574.05052 
L 568.48 574.05052 
L 574.63625 574.05052 
L 580.7925 574.05052 
L 586.94875 574.05052 
L 593.105 574.05052 
L 599.26125 574.05052 
L 605.4175 574.05052 
L 611.57375 574.05052 
L 617.73 574.05052 
L 623.88625 574.05052 
L 630.0425 574.05052 
L 636.19875 574.05052 
L 642.355 574.05052 
L 648.51125 574.05052 
L 654.6675 574.05052 
L 660.82375 574.05052 
L 666.98 574.05052 
L 673.13625 574.05052 
L 679.2925 574.05052 
L 685.44875 574.05052 
" clip-path="url(#p0676f758f7)" style="fill: none; stroke-dasharray: 5.55,2.4; stroke-dashoffset: 0; stroke: #ff0000; stroke-width: 1.5"/>
   </g>
   <g id="line2d_72">
    <path d="M 75.98 605.375868 
L 82.13625 618.902426 
L 88.2925 621.455538 
L 94.44875 619.08504 
L 100.605 618.088635 
L 106.76125 618.00518 
L 112.9175 618.029142 
L 119.07375 618.029366 
L 125.23 618.025537 
L 131.38625 618.024477 
L 137.5425 618.024461 
L 143.69875 618.024492 
L 149.855 618.024486 
L 156.01125 618.024481 
L 162.1675 618.02448 
L 168.32375 618.02448 
L 174.48 618.02448 
L 180.63625 618.02448 
L 186.7925 618.02448 
L 192.94875 618.02448 
L 199.105 618.02448 
L 205.26125 618.02448 
L 211.4175 618.02448 
L 217.57375 618.02448 
L 223.73 618.02448 
L 229.88625 626.35998 
L 236.0425 632.854322 
L 242.19875 638.363661 
L 248.355 643.23421 
L 254.51125 647.64714 
L 260.6675 651.711377 
L 266.82375 655.498463 
L 272.98 659.058382 
L 279.13625 662.427689 
L 285.2925 665.634071 
L 291.44875 668.699101 
L 297.605 671.639972 
L 303.76125 674.470652 
L 309.9175 636.693583 
L 316.07375 625.227121 
L 322.23 619.228771 
L 328.38625 618.110153 
L 334.5425 618.050863 
L 340.69875 618.046634 
L 346.855 618.03187 
L 353.01125 618.025562 
L 359.1675 618.024551 
L 365.32375 618.024532 
L 371.48 618.024512 
L 377.63625 618.024488 
L 383.7925 618.024481 
L 389.94875 618.02448 
L 396.105 618.02448 
L 402.26125 618.02448 
L 408.4175 618.02448 
L 414.57375 618.02448 
L 420.73 618.02448 
L 426.88625 618.02448 
L 433.0425 618.02448 
L 439.19875 618.02448 
L 445.355 618.02448 
L 451.51125 618.02448 
L 457.6675 618.02448 
L 463.82375 618.02448 
L 469.98 618.02448 
L 476.13625 618.02448 
L 482.2925 618.02448 
L 488.44875 618.02448 
L 494.605 618.02448 
L 500.76125 618.02448 
L 506.9175 618.02448 
L 513.07375 618.02448 
L 519.23 618.02448 
L 525.38625 618.02448 
L 531.5425 618.02448 
L 537.69875 618.02448 
L 543.855 618.02448 
L 550.01125 618.02448 
L 556.1675 618.02448 
L 562.32375 618.02448 
L 568.48 618.02448 
L 574.63625 618.02448 
L 580.7925 618.02448 
L 586.94875 618.02448 
L 593.105 618.02448 
L 599.26125 618.02448 
L 605.4175 618.02448 
L 611.57375 618.02448 
L 617.73 618.02448 
L 623.88625 618.02448 
L 630.0425 618.02448 
L 636.19875 618.02448 
L 642.355 618.02448 
L 648.51125 618.02448 
L 654.6675 618.02448 
L 660.82375 618.02448 
L 666.98 618.02448 
L 673.13625 618.02448 
L 679.2925 618.02448 
L 685.44875 618.02448 
" clip-path="url(#p0676f758f7)" style="fill: none; stroke-dasharray: 5.55,2.4; stroke-dashoffset: 0; stroke: #ff0000; stroke-width: 1.5"/>
   </g>
   <g id="patch_18">
    <path d="M 75.98 666.52 
L 75.98 525.555 
" style="fill: none; stroke: #000000; stroke-width: 0.8; stroke-linejoin: miter; stroke-linecap: square"/>
   </g>
   <g id="patch_19">
    <path d="M 691.605 666.52 
L 691.605 525.555 
" style="fill: none; stroke: #000000; stroke-width: 0.8; stroke-linejoin: miter; stroke-linecap: square"/>
   </g>
   <g id="patch_20">
    <path d="M 75.98 666.52 
L 691.605 666.52 
" style="fill: none; stroke: #000000; stroke-width: 0.8; stroke-linejoin: miter; stroke-linecap: square"/>
   </g>
   <g id="patch_21">
    <path d="M 75.98 525.555 
L 691.605 525.555 
" style="fill: none; stroke: #000000; stroke-width: 0.8; stroke-linejoin: miter; stroke-linecap: square"/>
   </g>
  </g>
  <g id="text_39">
   <!-- Errors on positions and velocities at 10Hz -->
   <g transform="translate(185.627812 27.165375) scale(0.168 -0.168)">
    <defs>
     <path id="DejaVuSans-72" d="M 2631 2963 
Q 2534 3019 2420 3045 
Q 2306 3072 2169 3072 
Q 1681 3072 1420 2755 
Q 1159 2438 1159 1844 
L 1159 0 
L 581 0 
L 581 3500 
L 1159 3500 
L 1159 2956 
Q 1341 3275 1631 3429 
Q 1922 3584 2338 3584 
Q 2397 3584 2469 3576 
Q 2541 3569 2628 3553 
L 2631 2963 
z
" transform="scale(0.015625)"/>
     <path id="DejaVuSans-6e" d="M 3513 2113 
L 3513 0 
L 2938 0 
L 2938 2094 
Q 2938 2591 2744 2837 
Q 2550 3084 2163 3084 
Q 1697 3084 1428 2787 
Q 1159 2491 1159 1978 
L 1159 0 
L 581 0 
L 581 3500 
L 1159 3500 
L 1159 2956 
Q 1366 3272 1645 3428 
Q 1925 3584 2291 3584 
Q 2894 3584 3203 3211 
Q 3513 2838 3513 2113 
z
" transform="scale(0.015625)"/>
     <path id="DejaVuSans-64" d="M 2906 2969 
L 2906 4863 
L 3481 4863 
L 3481 0 
L 2906 0 
L 2906 525 
Q 2725 213 2448 61 
Q 2172 -91 1784 -91 
Q 1150 -91 751 415 
Q 353 922 353 1747 
Q 353 2572 751 3078 
Q 1150 3584 1784 3584 
Q 2172 3584 2448 3432 
Q 2725 3281 2906 2969 
z
M 947 1747 
Q 947 1113 1208 752 
Q 1469 391 1925 391 
Q 2381 391 2643 752 
Q 2906 1113 2906 1747 
Q 2906 2381 2643 2742 
Q 2381 3103 1925 3103 
Q 1469 3103 1208 2742 
Q 947 2381 947 1747 
z
" transform="scale(0.015625)"/>
     <path id="DejaVuSans-76" d="M 191 3500 
L 800 3500 
L 1894 563 
L 2988 3500 
L 3597 3500 
L 2284 0 
L 1503 0 
L 191 3500 
z
" transform="scale(0.015625)"/>
     <path id="DejaVuSans-63" d="M 3122 3366 
L 3122 2828 
Q 2878 2963 2633 3030 
Q 2388 3097 2138 3097 
Q 1578 3097 1268 2742 
Q 959 2388 959 1747 
Q 959 1106 1268 751 
Q 1578 397 2138 397 
Q 2388 397 2633 464 
Q 2878 531 3122 666 
L 3122 134 
Q 2881 22 2623 -34 
Q 2366 -91 2075 -91 
Q 1284 -91 818 406 
Q 353 903 353 1747 
Q 353 2603 823 3093 
Q 1294 3584 2113 3584 
Q 2378 3584 2631 3529 
Q 2884 3475 3122 3366 
z
" transform="scale(0.015625)"/>
     <path id="DejaVuSans-48" d="M 628 4666 
L 1259 4666 
L 1259 2753 
L 3553 2753 
L 3553 4666 
L 4184 4666 
L 4184 0 
L 3553 0 
L 3553 2222 
L 1259 2222 
L 1259 0 
L 628 0 
L 628 4666 
z
" transform="scale(0.015625)"/>
     <path id="DejaVuSans-7a" d="M 353 3500 
L 3084 3500 
L 3084 2975 
L 922 459 
L 3084 459 
L 3084 0 
L 275 0 
L 275 525 
L 2438 3041 
L 353 3041 
L 353 3500 
z
" transform="scale(0.015625)"/>
    </defs>
    <use xlink:href="#DejaVuSans-45"/>
    <use xlink:href="#DejaVuSans-72" x="63.183594"/>
    <use xlink:href="#DejaVuSans-72" x="102.546875"/>
    <use xlink:href="#DejaVuSans-6f" x="141.410156"/>
    <use xlink:href="#DejaVuSans-72" x="202.591797"/>
    <use xlink:href="#DejaVuSans-73" x="243.705078"/>
    <use xlink:href="#DejaVuSans-20" x="295.804688"/>
    <use xlink:href="#DejaVuSans-6f" x="327.591797"/>
    <use xlink:href="#DejaVuSans-6e" x="388.773438"/>
    <use xlink:href="#DejaVuSans-20" x="452.152344"/>
    <use xlink:href="#DejaVuSans-70" x="483.939453"/>
    <use xlink:href="#DejaVuSans-6f" x="547.416016"/>
    <use xlink:href="#DejaVuSans-73" x="608.597656"/>
    <use xlink:href="#DejaVuSans-69" x="660.697266"/>
    <use xlink:href="#DejaVuSans-74" x="688.480469"/>
    <use xlink:href="#DejaVuSans-69" x="727.689453"/>
    <use xlink:href="#DejaVuSans-6f" x="755.472656"/>
    <use xlink:href="#DejaVuSans-6e" x="816.654297"/>
    <use xlink:href="#DejaVuSans-73" x="880.033203"/>
    <use xlink:href="#DejaVuSans-20" x="932.132812"/>
    <use xlink:href="#DejaVuSans-61" x="963.919922"/>
    <use xlink:href="#DejaVuSans-6e" x="1025.199219"/>
    <use xlink:href="#DejaVuSans-64" x="1088.578125"/>
    <use xlink:href="#DejaVuSans-20" x="1152.054688"/>
    <use xlink:href="#DejaVuSans-76" x="1183.841797"/>
    <use xlink:href="#DejaVuSans-65" x="1243.021484"/>
    <use xlink:href="#DejaVuSans-6c" x="1304.544922"/>
    <use xlink:href="#DejaVuSans-6f" x="1332.328125"/>
    <use xlink:href="#DejaVuSans-63" x="1393.509766"/>
    <use xlink:href="#DejaVuSans-69" x="1448.490234"/>
    <use xlink:href="#DejaVuSans-74" x="1476.273438"/>
    <use xlink:href="#DejaVuSans-69" x="1515.482422"/>
    <use xlink:href="#DejaVuSans-65" x="1543.265625"/>
    <use xlink:href="#DejaVuSans-73" x="1604.789062"/>
    <use xlink:href="#DejaVuSans-20" x="1656.888672"/>
    <use xlink:href="#DejaVuSans-61" x="1688.675781"/>
    <use xlink:href="#DejaVuSans-74" x="1749.955078"/>
    <use xlink:href="#DejaVuSans-20" x="1789.164062"/>
    <use xlink:href="#DejaVuSans-31" x="1820.951172"/>
    <use xlink:href="#DejaVuSans-30" x="1884.574219"/>
    <use xlink:href="#DejaVuSans-48" x="1948.197266"/>
    <use xlink:href="#DejaVuSans-7a" x="2023.392578"/>
   </g>
  </g>
 </g>
 <defs>
  <clipPath id="pff67d6504d">
   <rect x="75.98" y="46.8" width="615.625" height="140.965"/>
  </clipPath>
  <clipPath id="pc33cad2def">
   <rect x="75.98" y="206.385" width="615.625" height="140.965"/>
  </clipPath>
  <clipPath id="pfc3ebd543a">
   <rect x="75.98" y="365.97" width="615.625" height="140.965"/>
  </clipPath>
  <clipPath id="p0676f758f7">
   <rect x="75.98" y="525.555" width="615.625" height="140.965"/>
  </clipPath>
 </defs>
</svg>
