<?xml version="1.0" encoding="utf-8" standalone="no"?>
<!DOCTYPE svg PUBLIC "-//W3C//DTD SVG 1.1//EN"
  "http://www.w3.org/Graphics/SVG/1.1/DTD/svg11.dtd">
<svg xmlns:xlink="http://www.w3.org/1999/xlink" width="720pt" height="720pt" viewBox="0 0 720 720" xmlns="http://www.w3.org/2000/svg" version="1.1">
 <metadata>
  <rdf:RDF xmlns:dc="http://purl.org/dc/elements/1.1/" xmlns:cc="http://creativecommons.org/ns#" xmlns:rdf="http://www.w3.org/1999/02/22-rdf-syntax-ns#">
   <cc:Work>
    <dc:type rdf:resource="http://purl.org/dc/dcmitype/StillImage"/>
    <dc:date>2024-05-17T17:48:06.758106</dc:date>
    <dc:format>image/svg+xml</dc:format>
    <dc:creator>
     <cc:Agent>
      <dc:title>Matplotlib v3.8.4, https://matplotlib.org/</dc:title>
     </cc:Agent>
    </dc:creator>
   </cc:Work>
  </rdf:RDF>
 </metadata>
 <defs>
  <style type="text/css">*{stroke-linejoin: round; stroke-linecap: butt}</style>
 </defs>
 <g id="figure_1">
  <g id="patch_1">
   <path d="M 0 720 
L 720 720 
L 720 0 
L 0 0 
z
" style="fill: #ffffff"/>
  </g>
  <g id="axes_1">
   <g id="patch_2">
    <path d="M 67.16 187.765 
L 691.605 187.765 
L 691.605 46.8 
L 67.16 46.8 
z
" style="fill: #ffffff"/>
   </g>
   <g id="matplotlib.axis_1">
    <g id="xtick_1">
     <g id="line2d_1">
      <defs>
       <path id="me8911a5f1c" d="M 0 0 
L 0 3.5 
" style="stroke: #000000; stroke-width: 0.8"/>
      </defs>
      <g>
       <use xlink:href="#me8911a5f1c" x="67.16" y="187.765" style="stroke: #000000; stroke-width: 0.8"/>
      </g>
     </g>
    </g>
    <g id="xtick_2">
     <g id="line2d_2">
      <g>
       <use xlink:href="#me8911a5f1c" x="145.215625" y="187.765" style="stroke: #000000; stroke-width: 0.8"/>
      </g>
     </g>
    </g>
    <g id="xtick_3">
     <g id="line2d_3">
      <g>
       <use xlink:href="#me8911a5f1c" x="223.27125" y="187.765" style="stroke: #000000; stroke-width: 0.8"/>
      </g>
     </g>
    </g>
    <g id="xtick_4">
     <g id="line2d_4">
      <g>
       <use xlink:href="#me8911a5f1c" x="301.326875" y="187.765" style="stroke: #000000; stroke-width: 0.8"/>
      </g>
     </g>
    </g>
    <g id="xtick_5">
     <g id="line2d_5">
      <g>
       <use xlink:href="#me8911a5f1c" x="379.3825" y="187.765" style="stroke: #000000; stroke-width: 0.8"/>
      </g>
     </g>
    </g>
    <g id="xtick_6">
     <g id="line2d_6">
      <g>
       <use xlink:href="#me8911a5f1c" x="457.438125" y="187.765" style="stroke: #000000; stroke-width: 0.8"/>
      </g>
     </g>
    </g>
    <g id="xtick_7">
     <g id="line2d_7">
      <g>
       <use xlink:href="#me8911a5f1c" x="535.49375" y="187.765" style="stroke: #000000; stroke-width: 0.8"/>
      </g>
     </g>
    </g>
    <g id="xtick_8">
     <g id="line2d_8">
      <g>
       <use xlink:href="#me8911a5f1c" x="613.549375" y="187.765" style="stroke: #000000; stroke-width: 0.8"/>
      </g>
     </g>
    </g>
    <g id="xtick_9">
     <g id="line2d_9">
      <g>
       <use xlink:href="#me8911a5f1c" x="691.605" y="187.765" style="stroke: #000000; stroke-width: 0.8"/>
      </g>
     </g>
    </g>
   </g>
   <g id="matplotlib.axis_2">
    <g id="ytick_1">
     <g id="line2d_10">
      <defs>
       <path id="m1c3cb36fa0" d="M 0 0 
L -3.5 0 
" style="stroke: #000000; stroke-width: 0.8"/>
      </defs>
      <g>
       <use xlink:href="#m1c3cb36fa0" x="67.16" y="174.374351" style="stroke: #000000; stroke-width: 0.8"/>
      </g>
     </g>
     <g id="text_1">
      <!-- -1.0 -->
      <g transform="translate(32.844688 179.693257) scale(0.14 -0.14)">
       <defs>
        <path id="DejaVuSans-2d" d="M 313 2009 
L 1997 2009 
L 1997 1497 
L 313 1497 
L 313 2009 
z
" transform="scale(0.015625)"/>
        <path id="DejaVuSans-31" d="M 794 531 
L 1825 531 
L 1825 4091 
L 703 3866 
L 703 4441 
L 1819 4666 
L 2450 4666 
L 2450 531 
L 3481 531 
L 3481 0 
L 794 0 
L 794 531 
z
" transform="scale(0.015625)"/>
        <path id="DejaVuSans-2e" d="M 684 794 
L 1344 794 
L 1344 0 
L 684 0 
L 684 794 
z
" transform="scale(0.015625)"/>
        <path id="DejaVuSans-30" d="M 2034 4250 
Q 1547 4250 1301 3770 
Q 1056 3291 1056 2328 
Q 1056 1369 1301 889 
Q 1547 409 2034 409 
Q 2525 409 2770 889 
Q 3016 1369 3016 2328 
Q 3016 3291 2770 3770 
Q 2525 4250 2034 4250 
z
M 2034 4750 
Q 2819 4750 3233 4129 
Q 3647 3509 3647 2328 
Q 3647 1150 3233 529 
Q 2819 -91 2034 -91 
Q 1250 -91 836 529 
Q 422 1150 422 2328 
Q 422 3509 836 4129 
Q 1250 4750 2034 4750 
z
" transform="scale(0.015625)"/>
       </defs>
       <use xlink:href="#DejaVuSans-2d"/>
       <use xlink:href="#DejaVuSans-31" x="36.083984"/>
       <use xlink:href="#DejaVuSans-2e" x="99.707031"/>
       <use xlink:href="#DejaVuSans-30" x="131.494141"/>
      </g>
     </g>
    </g>
    <g id="ytick_2">
     <g id="line2d_11">
      <g>
       <use xlink:href="#m1c3cb36fa0" x="67.16" y="145.828425" style="stroke: #000000; stroke-width: 0.8"/>
      </g>
     </g>
     <g id="text_2">
      <!-- -0.5 -->
      <g transform="translate(32.844688 151.147332) scale(0.14 -0.14)">
       <defs>
        <path id="DejaVuSans-35" d="M 691 4666 
L 3169 4666 
L 3169 4134 
L 1269 4134 
L 1269 2991 
Q 1406 3038 1543 3061 
Q 1681 3084 1819 3084 
Q 2600 3084 3056 2656 
Q 3513 2228 3513 1497 
Q 3513 744 3044 326 
Q 2575 -91 1722 -91 
Q 1428 -91 1123 -41 
Q 819 9 494 109 
L 494 744 
Q 775 591 1075 516 
Q 1375 441 1709 441 
Q 2250 441 2565 725 
Q 2881 1009 2881 1497 
Q 2881 1984 2565 2268 
Q 2250 2553 1709 2553 
Q 1456 2553 1204 2497 
Q 953 2441 691 2322 
L 691 4666 
z
" transform="scale(0.015625)"/>
       </defs>
       <use xlink:href="#DejaVuSans-2d"/>
       <use xlink:href="#DejaVuSans-30" x="36.083984"/>
       <use xlink:href="#DejaVuSans-2e" x="99.707031"/>
       <use xlink:href="#DejaVuSans-35" x="131.494141"/>
      </g>
     </g>
    </g>
    <g id="ytick_3">
     <g id="line2d_12">
      <g>
       <use xlink:href="#m1c3cb36fa0" x="67.16" y="117.2825" style="stroke: #000000; stroke-width: 0.8"/>
      </g>
     </g>
     <g id="text_3">
      <!-- 0.0 -->
      <g transform="translate(37.895625 122.601406) scale(0.14 -0.14)">
       <use xlink:href="#DejaVuSans-30"/>
       <use xlink:href="#DejaVuSans-2e" x="63.623047"/>
       <use xlink:href="#DejaVuSans-30" x="95.410156"/>
      </g>
     </g>
    </g>
    <g id="ytick_4">
     <g id="line2d_13">
      <g>
       <use xlink:href="#m1c3cb36fa0" x="67.16" y="88.736575" style="stroke: #000000; stroke-width: 0.8"/>
      </g>
     </g>
     <g id="text_4">
      <!-- 0.5 -->
      <g transform="translate(37.895625 94.055481) scale(0.14 -0.14)">
       <use xlink:href="#DejaVuSans-30"/>
       <use xlink:href="#DejaVuSans-2e" x="63.623047"/>
       <use xlink:href="#DejaVuSans-35" x="95.410156"/>
      </g>
     </g>
    </g>
    <g id="ytick_5">
     <g id="line2d_14">
      <g>
       <use xlink:href="#m1c3cb36fa0" x="67.16" y="60.190649" style="stroke: #000000; stroke-width: 0.8"/>
      </g>
     </g>
     <g id="text_5">
      <!-- 1.0 -->
      <g transform="translate(37.895625 65.509556) scale(0.14 -0.14)">
       <use xlink:href="#DejaVuSans-31"/>
       <use xlink:href="#DejaVuSans-2e" x="63.623047"/>
       <use xlink:href="#DejaVuSans-30" x="95.410156"/>
      </g>
     </g>
    </g>
    <g id="text_6">
     <!-- Pos N [m] -->
     <g transform="translate(25.933125 151.146094) rotate(-90) scale(0.14 -0.14)">
      <defs>
       <path id="DejaVuSans-50" d="M 1259 4147 
L 1259 2394 
L 2053 2394 
Q 2494 2394 2734 2622 
Q 2975 2850 2975 3272 
Q 2975 3691 2734 3919 
Q 2494 4147 2053 4147 
L 1259 4147 
z
M 628 4666 
L 2053 4666 
Q 2838 4666 3239 4311 
Q 3641 3956 3641 3272 
Q 3641 2581 3239 2228 
Q 2838 1875 2053 1875 
L 1259 1875 
L 1259 0 
L 628 0 
L 628 4666 
z
" transform="scale(0.015625)"/>
       <path id="DejaVuSans-6f" d="M 1959 3097 
Q 1497 3097 1228 2736 
Q 959 2375 959 1747 
Q 959 1119 1226 758 
Q 1494 397 1959 397 
Q 2419 397 2687 759 
Q 2956 1122 2956 1747 
Q 2956 2369 2687 2733 
Q 2419 3097 1959 3097 
z
M 1959 3584 
Q 2709 3584 3137 3096 
Q 3566 2609 3566 1747 
Q 3566 888 3137 398 
Q 2709 -91 1959 -91 
Q 1206 -91 779 398 
Q 353 888 353 1747 
Q 353 2609 779 3096 
Q 1206 3584 1959 3584 
z
" transform="scale(0.015625)"/>
       <path id="DejaVuSans-73" d="M 2834 3397 
L 2834 2853 
Q 2591 2978 2328 3040 
Q 2066 3103 1784 3103 
Q 1356 3103 1142 2972 
Q 928 2841 928 2578 
Q 928 2378 1081 2264 
Q 1234 2150 1697 2047 
L 1894 2003 
Q 2506 1872 2764 1633 
Q 3022 1394 3022 966 
Q 3022 478 2636 193 
Q 2250 -91 1575 -91 
Q 1294 -91 989 -36 
Q 684 19 347 128 
L 347 722 
Q 666 556 975 473 
Q 1284 391 1588 391 
Q 1994 391 2212 530 
Q 2431 669 2431 922 
Q 2431 1156 2273 1281 
Q 2116 1406 1581 1522 
L 1381 1569 
Q 847 1681 609 1914 
Q 372 2147 372 2553 
Q 372 3047 722 3315 
Q 1072 3584 1716 3584 
Q 2034 3584 2315 3537 
Q 2597 3491 2834 3397 
z
" transform="scale(0.015625)"/>
       <path id="DejaVuSans-20" transform="scale(0.015625)"/>
       <path id="DejaVuSans-4e" d="M 628 4666 
L 1478 4666 
L 3547 763 
L 3547 4666 
L 4159 4666 
L 4159 0 
L 3309 0 
L 1241 3903 
L 1241 0 
L 628 0 
L 628 4666 
z
" transform="scale(0.015625)"/>
       <path id="DejaVuSans-5b" d="M 550 4863 
L 1875 4863 
L 1875 4416 
L 1125 4416 
L 1125 -397 
L 1875 -397 
L 1875 -844 
L 550 -844 
L 550 4863 
z
" transform="scale(0.015625)"/>
       <path id="DejaVuSans-6d" d="M 3328 2828 
Q 3544 3216 3844 3400 
Q 4144 3584 4550 3584 
Q 5097 3584 5394 3201 
Q 5691 2819 5691 2113 
L 5691 0 
L 5113 0 
L 5113 2094 
Q 5113 2597 4934 2840 
Q 4756 3084 4391 3084 
Q 3944 3084 3684 2787 
Q 3425 2491 3425 1978 
L 3425 0 
L 2847 0 
L 2847 2094 
Q 2847 2600 2669 2842 
Q 2491 3084 2119 3084 
Q 1678 3084 1418 2786 
Q 1159 2488 1159 1978 
L 1159 0 
L 581 0 
L 581 3500 
L 1159 3500 
L 1159 2956 
Q 1356 3278 1631 3431 
Q 1906 3584 2284 3584 
Q 2666 3584 2933 3390 
Q 3200 3197 3328 2828 
z
" transform="scale(0.015625)"/>
       <path id="DejaVuSans-5d" d="M 1947 4863 
L 1947 -844 
L 622 -844 
L 622 -397 
L 1369 -397 
L 1369 4416 
L 622 4416 
L 622 4863 
L 1947 4863 
z
" transform="scale(0.015625)"/>
      </defs>
      <use xlink:href="#DejaVuSans-50"/>
      <use xlink:href="#DejaVuSans-6f" x="56.677734"/>
      <use xlink:href="#DejaVuSans-73" x="117.859375"/>
      <use xlink:href="#DejaVuSans-20" x="169.958984"/>
      <use xlink:href="#DejaVuSans-4e" x="201.746094"/>
      <use xlink:href="#DejaVuSans-20" x="276.550781"/>
      <use xlink:href="#DejaVuSans-5b" x="308.337891"/>
      <use xlink:href="#DejaVuSans-6d" x="347.351562"/>
      <use xlink:href="#DejaVuSans-5d" x="444.763672"/>
     </g>
    </g>
   </g>
   <g id="line2d_15">
    <path d="M 67.16 117.2825 
L 70.282225 131.976724 
L 73.40445 123.002623 
L 76.526675 125.531594 
L 79.6489 126.939216 
L 82.771125 126.616408 
L 85.89335 119.895968 
L 89.015575 123.179697 
L 92.1378 104.639514 
L 95.260025 117.208756 
L 98.38225 118.616989 
L 101.504475 122.656612 
L 104.6267 103.075698 
L 107.748925 103.110528 
L 110.87115 93.874908 
L 113.993375 117.283024 
L 117.1156 114.697726 
L 120.237825 104.824564 
L 123.36005 106.717364 
L 126.482275 96.66854 
L 129.6045 107.975861 
L 132.726725 94.025454 
L 135.84895 72.857364 
L 138.971175 89.086029 
L 142.0934 103.455737 
L 145.215625 91.830637 
L 148.33785 81.106745 
L 151.460075 98.147307 
L 154.5823 110.201895 
L 157.704525 117.172616 
L 160.82675 134.141628 
L 163.948975 140.826234 
L 167.0712 145.375602 
L 170.193425 144.602106 
L 173.31565 134.122493 
L 176.437875 122.257585 
L 179.5601 97.63099 
L 182.682325 109.885066 
L 185.80455 96.916764 
L 188.926775 101.892628 
L 192.049 104.55539 
L 195.171225 98.369289 
L 198.29345 115.243518 
L 201.415675 110.389393 
L 204.5379 108.846062 
L 207.660125 103.693734 
L 210.78235 102.22619 
L 213.904575 75.643578 
L 217.0268 92.691186 
L 220.149025 105.505423 
L 223.27125 116.373015 
L 226.393475 123.256489 
L 229.5157 128.568729 
L 232.637925 109.98585 
L 235.76015 92.4847 
L 238.882375 103.239768 
L 242.0046 115.315925 
L 245.126825 109.069749 
L 248.24905 116.151925 
L 251.371275 107.385914 
L 254.4935 105.629302 
L 257.615725 124.881176 
L 260.73795 103.140955 
L 263.860175 83.257294 
L 266.9824 97.460385 
L 270.104625 106.65261 
L 273.22685 105.805958 
L 276.349075 104.395926 
L 279.4713 99.404361 
L 282.593525 79.653236 
L 285.71575 91.090943 
L 288.837975 108.084842 
L 291.9602 127.949203 
L 295.082425 134.546957 
L 298.20465 129.924393 
L 301.326875 103.594409 
L 304.4491 110.716383 
L 307.571325 107.984095 
L 310.69355 109.027611 
L 313.815775 95.828776 
L 316.938 70.294167 
L 320.060225 88.253354 
L 323.18245 102.894048 
L 326.304675 96.09214 
L 329.4269 95.000206 
L 332.549125 80.474325 
L 335.67135 84.752921 
L 338.793575 99.920897 
L 341.9158 100.378545 
L 345.038025 94.203281 
L 348.16025 92.744884 
L 351.282475 95.481858 
L 357.526925 86.567823 
L 360.64915 80.929638 
L 363.771375 85.821546 
L 366.8936 99.722056 
L 370.015825 106.597721 
L 373.13805 98.71818 
L 376.260275 116.229534 
L 379.3825 115.188355 
L 382.504725 122.645489 
L 385.62695 122.700291 
L 388.749175 107.241251 
L 391.8714 108.128154 
L 394.993625 110.892413 
L 398.11585 129.901499 
L 401.238075 119.208356 
L 404.3603 111.653063 
L 407.482525 87.962827 
L 410.60475 99.913086 
L 413.726975 103.920119 
L 416.8492 107.00242 
L 419.971425 93.719354 
L 423.09365 103.646419 
L 426.215875 107.246595 
L 429.3381 106.062735 
L 432.460325 110.056709 
L 435.58255 120.537947 
L 438.704775 120.602679 
L 441.827 109.648532 
L 444.949225 125.984704 
L 448.07145 124.661691 
L 451.193675 133.005237 
L 454.3159 116.439359 
L 457.438125 135.722995 
L 460.56035 139.028082 
L 463.682575 129.788255 
L 466.8048 108.225144 
L 469.927025 111.493668 
L 473.04925 120.744529 
L 476.171475 99.348769 
L 479.2937 122.885288 
L 482.415925 150.365316 
L 485.53815 139.261223 
L 488.660375 140.68131 
L 491.7826 147.35677 
L 494.904825 131.382087 
L 498.02705 124.35091 
L 501.149275 128.970578 
L 504.2715 141.449911 
L 507.393725 125.4211 
L 510.51595 115.666646 
L 513.638175 117.696089 
L 516.7604 96.885066 
L 519.882625 116.396972 
L 523.00485 137.643332 
L 526.127075 143.666021 
L 529.2493 139.574471 
L 532.371525 132.155754 
L 535.49375 131.872546 
L 538.615975 124.604314 
L 541.7382 138.195153 
L 544.860425 116.700287 
L 547.98265 118.367468 
L 551.104875 106.077273 
L 554.2271 106.507138 
L 557.349325 106.329048 
L 560.47155 105.447374 
L 563.593775 106.666162 
L 566.716 105.606361 
L 569.838225 96.858356 
L 572.96045 103.932978 
L 576.082675 103.647859 
L 579.2049 112.948732 
L 582.327125 101.77968 
L 585.44935 118.134798 
L 588.571575 101.16105 
L 591.6938 109.714727 
L 594.816025 132.909163 
L 597.93825 131.566311 
L 601.060475 138.975005 
L 604.1827 125.647001 
L 607.304925 132.469286 
L 610.42715 135.023021 
L 613.549375 153.658357 
L 616.6716 150.111796 
L 619.793825 169.689468 
L 622.91605 173.650405 
L 626.038275 147.397027 
L 629.1605 126.276537 
L 632.282725 115.063957 
L 635.40495 124.343642 
L 638.527175 121.675271 
L 641.6494 119.661849 
L 644.771625 132.315808 
L 647.89385 110.594761 
L 651.016075 101.495072 
L 654.1383 108.462646 
L 657.260525 111.643822 
L 660.38275 112.191342 
L 663.504975 139.355867 
L 666.6272 138.3553 
L 669.749425 141.515255 
L 672.87165 146.783282 
L 675.993875 141.365614 
L 679.1161 111.818123 
L 682.238325 103.082172 
L 685.36055 111.957309 
L 688.482775 106.125769 
L 688.482775 106.125769 
" clip-path="url(#p456f56aa28)" style="fill: none; stroke: #1f77b4; stroke-width: 1.5; stroke-linecap: square"/>
   </g>
   <g id="line2d_16">
    <path d="M 67.16 142.443828 
L 691.605 142.443828 
" clip-path="url(#p456f56aa28)" style="fill: none; stroke-dasharray: 5.55,2.4; stroke-dashoffset: 0; stroke: #ff0000; stroke-width: 1.5"/>
   </g>
   <g id="line2d_17">
    <path d="M 67.16 92.121172 
L 691.605 92.121172 
" clip-path="url(#p456f56aa28)" style="fill: none; stroke-dasharray: 5.55,2.4; stroke-dashoffset: 0; stroke: #ff0000; stroke-width: 1.5"/>
   </g>
   <g id="patch_3">
    <path d="M 67.16 187.765 
L 67.16 46.8 
" style="fill: none; stroke: #000000; stroke-width: 0.8; stroke-linejoin: miter; stroke-linecap: square"/>
   </g>
   <g id="patch_4">
    <path d="M 691.605 187.765 
L 691.605 46.8 
" style="fill: none; stroke: #000000; stroke-width: 0.8; stroke-linejoin: miter; stroke-linecap: square"/>
   </g>
   <g id="patch_5">
    <path d="M 67.16 187.765 
L 691.605 187.765 
" style="fill: none; stroke: #000000; stroke-width: 0.8; stroke-linejoin: miter; stroke-linecap: square"/>
   </g>
   <g id="patch_6">
    <path d="M 67.16 46.8 
L 691.605 46.8 
" style="fill: none; stroke: #000000; stroke-width: 0.8; stroke-linejoin: miter; stroke-linecap: square"/>
   </g>
  </g>
  <g id="axes_2">
   <g id="patch_7">
    <path d="M 67.16 347.35 
L 691.605 347.35 
L 691.605 206.385 
L 67.16 206.385 
z
" style="fill: #ffffff"/>
   </g>
   <g id="matplotlib.axis_3">
    <g id="xtick_10">
     <g id="line2d_18">
      <g>
       <use xlink:href="#me8911a5f1c" x="67.16" y="347.35" style="stroke: #000000; stroke-width: 0.8"/>
      </g>
     </g>
    </g>
    <g id="xtick_11">
     <g id="line2d_19">
      <g>
       <use xlink:href="#me8911a5f1c" x="145.215625" y="347.35" style="stroke: #000000; stroke-width: 0.8"/>
      </g>
     </g>
    </g>
    <g id="xtick_12">
     <g id="line2d_20">
      <g>
       <use xlink:href="#me8911a5f1c" x="223.27125" y="347.35" style="stroke: #000000; stroke-width: 0.8"/>
      </g>
     </g>
    </g>
    <g id="xtick_13">
     <g id="line2d_21">
      <g>
       <use xlink:href="#me8911a5f1c" x="301.326875" y="347.35" style="stroke: #000000; stroke-width: 0.8"/>
      </g>
     </g>
    </g>
    <g id="xtick_14">
     <g id="line2d_22">
      <g>
       <use xlink:href="#me8911a5f1c" x="379.3825" y="347.35" style="stroke: #000000; stroke-width: 0.8"/>
      </g>
     </g>
    </g>
    <g id="xtick_15">
     <g id="line2d_23">
      <g>
       <use xlink:href="#me8911a5f1c" x="457.438125" y="347.35" style="stroke: #000000; stroke-width: 0.8"/>
      </g>
     </g>
    </g>
    <g id="xtick_16">
     <g id="line2d_24">
      <g>
       <use xlink:href="#me8911a5f1c" x="535.49375" y="347.35" style="stroke: #000000; stroke-width: 0.8"/>
      </g>
     </g>
    </g>
    <g id="xtick_17">
     <g id="line2d_25">
      <g>
       <use xlink:href="#me8911a5f1c" x="613.549375" y="347.35" style="stroke: #000000; stroke-width: 0.8"/>
      </g>
     </g>
    </g>
    <g id="xtick_18">
     <g id="line2d_26">
      <g>
       <use xlink:href="#me8911a5f1c" x="691.605" y="347.35" style="stroke: #000000; stroke-width: 0.8"/>
      </g>
     </g>
    </g>
   </g>
   <g id="matplotlib.axis_4">
    <g id="ytick_6">
     <g id="line2d_27">
      <g>
       <use xlink:href="#m1c3cb36fa0" x="67.16" y="339.537139" style="stroke: #000000; stroke-width: 0.8"/>
      </g>
     </g>
     <g id="text_7">
      <!-- -1.0 -->
      <g transform="translate(32.844688 344.856045) scale(0.14 -0.14)">
       <use xlink:href="#DejaVuSans-2d"/>
       <use xlink:href="#DejaVuSans-31" x="36.083984"/>
       <use xlink:href="#DejaVuSans-2e" x="99.707031"/>
       <use xlink:href="#DejaVuSans-30" x="131.494141"/>
      </g>
     </g>
    </g>
    <g id="ytick_7">
     <g id="line2d_28">
      <g>
       <use xlink:href="#m1c3cb36fa0" x="67.16" y="308.202319" style="stroke: #000000; stroke-width: 0.8"/>
      </g>
     </g>
     <g id="text_8">
      <!-- -0.5 -->
      <g transform="translate(32.844688 313.521226) scale(0.14 -0.14)">
       <use xlink:href="#DejaVuSans-2d"/>
       <use xlink:href="#DejaVuSans-30" x="36.083984"/>
       <use xlink:href="#DejaVuSans-2e" x="99.707031"/>
       <use xlink:href="#DejaVuSans-35" x="131.494141"/>
      </g>
     </g>
    </g>
    <g id="ytick_8">
     <g id="line2d_29">
      <g>
       <use xlink:href="#m1c3cb36fa0" x="67.16" y="276.8675" style="stroke: #000000; stroke-width: 0.8"/>
      </g>
     </g>
     <g id="text_9">
      <!-- 0.0 -->
      <g transform="translate(37.895625 282.186406) scale(0.14 -0.14)">
       <use xlink:href="#DejaVuSans-30"/>
       <use xlink:href="#DejaVuSans-2e" x="63.623047"/>
       <use xlink:href="#DejaVuSans-30" x="95.410156"/>
      </g>
     </g>
    </g>
    <g id="ytick_9">
     <g id="line2d_30">
      <g>
       <use xlink:href="#m1c3cb36fa0" x="67.16" y="245.532681" style="stroke: #000000; stroke-width: 0.8"/>
      </g>
     </g>
     <g id="text_10">
      <!-- 0.5 -->
      <g transform="translate(37.895625 250.851587) scale(0.14 -0.14)">
       <use xlink:href="#DejaVuSans-30"/>
       <use xlink:href="#DejaVuSans-2e" x="63.623047"/>
       <use xlink:href="#DejaVuSans-35" x="95.410156"/>
      </g>
     </g>
    </g>
    <g id="ytick_10">
     <g id="line2d_31">
      <g>
       <use xlink:href="#m1c3cb36fa0" x="67.16" y="214.197861" style="stroke: #000000; stroke-width: 0.8"/>
      </g>
     </g>
     <g id="text_11">
      <!-- 1.0 -->
      <g transform="translate(37.895625 219.516767) scale(0.14 -0.14)">
       <use xlink:href="#DejaVuSans-31"/>
       <use xlink:href="#DejaVuSans-2e" x="63.623047"/>
       <use xlink:href="#DejaVuSans-30" x="95.410156"/>
      </g>
     </g>
    </g>
    <g id="text_12">
     <!-- Pos E [m] -->
     <g transform="translate(25.933125 309.917344) rotate(-90) scale(0.14 -0.14)">
      <defs>
       <path id="DejaVuSans-45" d="M 628 4666 
L 3578 4666 
L 3578 4134 
L 1259 4134 
L 1259 2753 
L 3481 2753 
L 3481 2222 
L 1259 2222 
L 1259 531 
L 3634 531 
L 3634 0 
L 628 0 
L 628 4666 
z
" transform="scale(0.015625)"/>
      </defs>
      <use xlink:href="#DejaVuSans-50"/>
      <use xlink:href="#DejaVuSans-6f" x="56.677734"/>
      <use xlink:href="#DejaVuSans-73" x="117.859375"/>
      <use xlink:href="#DejaVuSans-20" x="169.958984"/>
      <use xlink:href="#DejaVuSans-45" x="201.746094"/>
      <use xlink:href="#DejaVuSans-20" x="264.929688"/>
      <use xlink:href="#DejaVuSans-5b" x="296.716797"/>
      <use xlink:href="#DejaVuSans-6d" x="335.730469"/>
      <use xlink:href="#DejaVuSans-5d" x="433.142578"/>
     </g>
    </g>
   </g>
   <g id="line2d_32">
    <path d="M 67.16 276.8675 
L 70.282225 247.964589 
L 76.526675 273.123208 
L 79.6489 265.085343 
L 82.771125 261.798043 
L 85.89335 252.842826 
L 89.015575 249.757838 
L 92.1378 242.487882 
L 95.260025 258.789614 
L 98.38225 246.788011 
L 101.504475 252.414656 
L 104.6267 232.360697 
L 107.748925 253.517684 
L 110.87115 238.617152 
L 113.993375 247.253435 
L 117.1156 265.251851 
L 120.237825 276.49552 
L 123.36005 281.953352 
L 126.482275 275.257946 
L 129.6045 267.96448 
L 132.726725 276.384865 
L 135.84895 275.569491 
L 138.971175 246.424626 
L 142.0934 229.879167 
L 145.215625 235.537185 
L 148.33785 246.582511 
L 151.460075 254.708632 
L 154.5823 254.558172 
L 157.704525 275.554836 
L 160.82675 281.15685 
L 163.948975 302.709483 
L 167.0712 290.926964 
L 170.193425 277.261809 
L 173.31565 281.146811 
L 176.437875 257.451002 
L 182.682325 294.379115 
L 185.80455 285.935054 
L 188.926775 268.098354 
L 192.049 246.301443 
L 195.171225 258.620103 
L 198.29345 249.313491 
L 201.415675 257.474221 
L 204.5379 266.169999 
L 207.660125 259.188813 
L 210.78235 256.823982 
L 213.904575 284.300533 
L 217.0268 265.367814 
L 220.149025 251.489373 
L 223.27125 267.401287 
L 226.393475 266.757358 
L 229.5157 264.865979 
L 232.637925 266.454141 
L 235.76015 278.285435 
L 238.882375 288.719512 
L 242.0046 287.608393 
L 245.126825 270.379768 
L 248.24905 265.206847 
L 251.371275 273.691201 
L 254.4935 265.735865 
L 257.615725 306.995151 
L 260.73795 286.194561 
L 263.860175 306.748024 
L 266.9824 304.030325 
L 273.22685 317.669844 
L 276.349075 290.086645 
L 279.4713 289.905877 
L 282.593525 279.870093 
L 285.71575 278.035434 
L 288.837975 270.707208 
L 291.9602 271.174754 
L 295.082425 290.107931 
L 298.20465 275.206782 
L 301.326875 283.10562 
L 304.4491 303.264785 
L 307.571325 303.595746 
L 310.69355 277.81706 
L 313.815775 266.380567 
L 316.938 274.155533 
L 320.060225 281.012367 
L 323.18245 286.192399 
L 326.304675 258.843143 
L 332.549125 261.808782 
L 335.67135 255.878969 
L 338.793575 262.232766 
L 341.9158 274.082882 
L 345.038025 282.290994 
L 348.16025 286.398738 
L 351.282475 288.370694 
L 354.4047 279.24009 
L 357.526925 280.671623 
L 360.64915 272.900942 
L 363.771375 277.645523 
L 366.8936 279.438575 
L 370.015825 307.842604 
L 373.13805 291.047485 
L 376.260275 284.603136 
L 379.3825 271.111713 
L 382.504725 311.888982 
L 385.62695 278.156749 
L 388.749175 280.651487 
L 391.8714 266.831453 
L 394.993625 284.769874 
L 398.11585 277.477352 
L 401.238075 293.510616 
L 404.3603 300.05811 
L 407.482525 271.29771 
L 410.60475 276.481339 
L 413.726975 275.790909 
L 416.8492 267.078468 
L 419.971425 265.684694 
L 423.09365 269.692939 
L 426.215875 270.344072 
L 429.3381 244.42242 
L 432.460325 257.160209 
L 435.58255 264.49684 
L 438.704775 259.187139 
L 441.827 254.358105 
L 444.949225 249.805724 
L 448.07145 253.828626 
L 451.193675 280.423413 
L 454.3159 264.218689 
L 457.438125 287.152498 
L 460.56035 285.288226 
L 463.682575 296.512435 
L 466.8048 295.145312 
L 469.927025 287.929715 
L 476.171475 275.85154 
L 479.2937 255.900355 
L 482.415925 256.413769 
L 485.53815 266.978056 
L 488.660375 259.880611 
L 491.7826 251.682395 
L 494.904825 277.351154 
L 498.02705 273.334135 
L 501.149275 268.215616 
L 504.2715 276.996766 
L 507.393725 261.683475 
L 510.51595 269.62872 
L 513.638175 272.286383 
L 516.7604 277.999853 
L 519.882625 279.5475 
L 526.127075 310.057885 
L 529.2493 280.983987 
L 535.49375 298.131149 
L 538.615975 319.380279 
L 541.7382 314.934228 
L 544.860425 319.104102 
L 547.98265 282.760939 
L 551.104875 263.020114 
L 554.2271 271.394748 
L 557.349325 240.953329 
L 560.47155 235.507892 
L 563.593775 250.334813 
L 566.716 291.297544 
L 569.838225 259.961784 
L 572.96045 282.928328 
L 576.082675 303.674795 
L 579.2049 283.560837 
L 582.327125 248.498658 
L 585.44935 235.789697 
L 588.571575 238.342043 
L 591.6938 241.378547 
L 594.816025 241.245796 
L 597.93825 242.915047 
L 601.060475 250.753243 
L 607.304925 267.220375 
L 610.42715 281.720821 
L 613.549375 285.581236 
L 616.6716 305.59582 
L 619.793825 298.679526 
L 622.91605 303.389041 
L 626.038275 307.456752 
L 629.1605 292.869812 
L 632.282725 265.334398 
L 635.40495 250.958185 
L 638.527175 273.866089 
L 641.6494 284.939035 
L 644.771625 268.131983 
L 647.89385 280.150627 
L 651.016075 279.66374 
L 654.1383 268.952889 
L 657.260525 280.546265 
L 660.38275 275.568883 
L 663.504975 290.309996 
L 666.6272 291.791059 
L 669.749425 280.240353 
L 672.87165 295.966124 
L 675.993875 281.349976 
L 679.1161 275.795358 
L 682.238325 264.397759 
L 685.36055 260.555605 
L 688.482775 243.634777 
L 688.482775 243.634777 
" clip-path="url(#p8ad2b5cee3)" style="fill: none; stroke: #1f77b4; stroke-width: 1.5; stroke-linecap: square"/>
   </g>
   <g id="line2d_33">
    <path d="M 67.16 304.487052 
L 691.605 304.487052 
" clip-path="url(#p8ad2b5cee3)" style="fill: none; stroke-dasharray: 5.55,2.4; stroke-dashoffset: 0; stroke: #ff0000; stroke-width: 1.5"/>
   </g>
   <g id="line2d_34">
    <path d="M 67.16 249.247948 
L 691.605 249.247948 
" clip-path="url(#p8ad2b5cee3)" style="fill: none; stroke-dasharray: 5.55,2.4; stroke-dashoffset: 0; stroke: #ff0000; stroke-width: 1.5"/>
   </g>
   <g id="patch_8">
    <path d="M 67.16 347.35 
L 67.16 206.385 
" style="fill: none; stroke: #000000; stroke-width: 0.8; stroke-linejoin: miter; stroke-linecap: square"/>
   </g>
   <g id="patch_9">
    <path d="M 691.605 347.35 
L 691.605 206.385 
" style="fill: none; stroke: #000000; stroke-width: 0.8; stroke-linejoin: miter; stroke-linecap: square"/>
   </g>
   <g id="patch_10">
    <path d="M 67.16 347.35 
L 691.605 347.35 
" style="fill: none; stroke: #000000; stroke-width: 0.8; stroke-linejoin: miter; stroke-linecap: square"/>
   </g>
   <g id="patch_11">
    <path d="M 67.16 206.385 
L 691.605 206.385 
" style="fill: none; stroke: #000000; stroke-width: 0.8; stroke-linejoin: miter; stroke-linecap: square"/>
   </g>
  </g>
  <g id="axes_3">
   <g id="patch_12">
    <path d="M 67.16 506.935 
L 691.605 506.935 
L 691.605 365.97 
L 67.16 365.97 
z
" style="fill: #ffffff"/>
   </g>
   <g id="matplotlib.axis_5">
    <g id="xtick_19">
     <g id="line2d_35">
      <g>
       <use xlink:href="#me8911a5f1c" x="67.16" y="506.935" style="stroke: #000000; stroke-width: 0.8"/>
      </g>
     </g>
    </g>
    <g id="xtick_20">
     <g id="line2d_36">
      <g>
       <use xlink:href="#me8911a5f1c" x="145.215625" y="506.935" style="stroke: #000000; stroke-width: 0.8"/>
      </g>
     </g>
    </g>
    <g id="xtick_21">
     <g id="line2d_37">
      <g>
       <use xlink:href="#me8911a5f1c" x="223.27125" y="506.935" style="stroke: #000000; stroke-width: 0.8"/>
      </g>
     </g>
    </g>
    <g id="xtick_22">
     <g id="line2d_38">
      <g>
       <use xlink:href="#me8911a5f1c" x="301.326875" y="506.935" style="stroke: #000000; stroke-width: 0.8"/>
      </g>
     </g>
    </g>
    <g id="xtick_23">
     <g id="line2d_39">
      <g>
       <use xlink:href="#me8911a5f1c" x="379.3825" y="506.935" style="stroke: #000000; stroke-width: 0.8"/>
      </g>
     </g>
    </g>
    <g id="xtick_24">
     <g id="line2d_40">
      <g>
       <use xlink:href="#me8911a5f1c" x="457.438125" y="506.935" style="stroke: #000000; stroke-width: 0.8"/>
      </g>
     </g>
    </g>
    <g id="xtick_25">
     <g id="line2d_41">
      <g>
       <use xlink:href="#me8911a5f1c" x="535.49375" y="506.935" style="stroke: #000000; stroke-width: 0.8"/>
      </g>
     </g>
    </g>
    <g id="xtick_26">
     <g id="line2d_42">
      <g>
       <use xlink:href="#me8911a5f1c" x="613.549375" y="506.935" style="stroke: #000000; stroke-width: 0.8"/>
      </g>
     </g>
    </g>
    <g id="xtick_27">
     <g id="line2d_43">
      <g>
       <use xlink:href="#me8911a5f1c" x="691.605" y="506.935" style="stroke: #000000; stroke-width: 0.8"/>
      </g>
     </g>
    </g>
   </g>
   <g id="matplotlib.axis_6">
    <g id="ytick_11">
     <g id="line2d_44">
      <g>
       <use xlink:href="#m1c3cb36fa0" x="67.16" y="498.157526" style="stroke: #000000; stroke-width: 0.8"/>
      </g>
     </g>
     <g id="text_13">
      <!-- -0.3 -->
      <g transform="translate(32.844688 503.476432) scale(0.14 -0.14)">
       <defs>
        <path id="DejaVuSans-33" d="M 2597 2516 
Q 3050 2419 3304 2112 
Q 3559 1806 3559 1356 
Q 3559 666 3084 287 
Q 2609 -91 1734 -91 
Q 1441 -91 1130 -33 
Q 819 25 488 141 
L 488 750 
Q 750 597 1062 519 
Q 1375 441 1716 441 
Q 2309 441 2620 675 
Q 2931 909 2931 1356 
Q 2931 1769 2642 2001 
Q 2353 2234 1838 2234 
L 1294 2234 
L 1294 2753 
L 1863 2753 
Q 2328 2753 2575 2939 
Q 2822 3125 2822 3475 
Q 2822 3834 2567 4026 
Q 2313 4219 1838 4219 
Q 1578 4219 1281 4162 
Q 984 4106 628 3988 
L 628 4550 
Q 988 4650 1302 4700 
Q 1616 4750 1894 4750 
Q 2613 4750 3031 4423 
Q 3450 4097 3450 3541 
Q 3450 3153 3228 2886 
Q 3006 2619 2597 2516 
z
" transform="scale(0.015625)"/>
       </defs>
       <use xlink:href="#DejaVuSans-2d"/>
       <use xlink:href="#DejaVuSans-30" x="36.083984"/>
       <use xlink:href="#DejaVuSans-2e" x="99.707031"/>
       <use xlink:href="#DejaVuSans-33" x="131.494141"/>
      </g>
     </g>
    </g>
    <g id="ytick_12">
     <g id="line2d_45">
      <g>
       <use xlink:href="#m1c3cb36fa0" x="67.16" y="477.589184" style="stroke: #000000; stroke-width: 0.8"/>
      </g>
     </g>
     <g id="text_14">
      <!-- -0.2 -->
      <g transform="translate(32.844688 482.90809) scale(0.14 -0.14)">
       <defs>
        <path id="DejaVuSans-32" d="M 1228 531 
L 3431 531 
L 3431 0 
L 469 0 
L 469 531 
Q 828 903 1448 1529 
Q 2069 2156 2228 2338 
Q 2531 2678 2651 2914 
Q 2772 3150 2772 3378 
Q 2772 3750 2511 3984 
Q 2250 4219 1831 4219 
Q 1534 4219 1204 4116 
Q 875 4013 500 3803 
L 500 4441 
Q 881 4594 1212 4672 
Q 1544 4750 1819 4750 
Q 2544 4750 2975 4387 
Q 3406 4025 3406 3419 
Q 3406 3131 3298 2873 
Q 3191 2616 2906 2266 
Q 2828 2175 2409 1742 
Q 1991 1309 1228 531 
z
" transform="scale(0.015625)"/>
       </defs>
       <use xlink:href="#DejaVuSans-2d"/>
       <use xlink:href="#DejaVuSans-30" x="36.083984"/>
       <use xlink:href="#DejaVuSans-2e" x="99.707031"/>
       <use xlink:href="#DejaVuSans-32" x="131.494141"/>
      </g>
     </g>
    </g>
    <g id="ytick_13">
     <g id="line2d_46">
      <g>
       <use xlink:href="#m1c3cb36fa0" x="67.16" y="457.020842" style="stroke: #000000; stroke-width: 0.8"/>
      </g>
     </g>
     <g id="text_15">
      <!-- -0.1 -->
      <g transform="translate(32.844688 462.339748) scale(0.14 -0.14)">
       <use xlink:href="#DejaVuSans-2d"/>
       <use xlink:href="#DejaVuSans-30" x="36.083984"/>
       <use xlink:href="#DejaVuSans-2e" x="99.707031"/>
       <use xlink:href="#DejaVuSans-31" x="131.494141"/>
      </g>
     </g>
    </g>
    <g id="ytick_14">
     <g id="line2d_47">
      <g>
       <use xlink:href="#m1c3cb36fa0" x="67.16" y="436.4525" style="stroke: #000000; stroke-width: 0.8"/>
      </g>
     </g>
     <g id="text_16">
      <!-- 0.0 -->
      <g transform="translate(37.895625 441.771406) scale(0.14 -0.14)">
       <use xlink:href="#DejaVuSans-30"/>
       <use xlink:href="#DejaVuSans-2e" x="63.623047"/>
       <use xlink:href="#DejaVuSans-30" x="95.410156"/>
      </g>
     </g>
    </g>
    <g id="ytick_15">
     <g id="line2d_48">
      <g>
       <use xlink:href="#m1c3cb36fa0" x="67.16" y="415.884158" style="stroke: #000000; stroke-width: 0.8"/>
      </g>
     </g>
     <g id="text_17">
      <!-- 0.1 -->
      <g transform="translate(37.895625 421.203064) scale(0.14 -0.14)">
       <use xlink:href="#DejaVuSans-30"/>
       <use xlink:href="#DejaVuSans-2e" x="63.623047"/>
       <use xlink:href="#DejaVuSans-31" x="95.410156"/>
      </g>
     </g>
    </g>
    <g id="ytick_16">
     <g id="line2d_49">
      <g>
       <use xlink:href="#m1c3cb36fa0" x="67.16" y="395.315816" style="stroke: #000000; stroke-width: 0.8"/>
      </g>
     </g>
     <g id="text_18">
      <!-- 0.2 -->
      <g transform="translate(37.895625 400.634722) scale(0.14 -0.14)">
       <use xlink:href="#DejaVuSans-30"/>
       <use xlink:href="#DejaVuSans-2e" x="63.623047"/>
       <use xlink:href="#DejaVuSans-32" x="95.410156"/>
      </g>
     </g>
    </g>
    <g id="ytick_17">
     <g id="line2d_50">
      <g>
       <use xlink:href="#m1c3cb36fa0" x="67.16" y="374.747474" style="stroke: #000000; stroke-width: 0.8"/>
      </g>
     </g>
     <g id="text_19">
      <!-- 0.3 -->
      <g transform="translate(37.895625 380.066381) scale(0.14 -0.14)">
       <use xlink:href="#DejaVuSans-30"/>
       <use xlink:href="#DejaVuSans-2e" x="63.623047"/>
       <use xlink:href="#DejaVuSans-33" x="95.410156"/>
      </g>
     </g>
    </g>
    <g id="text_20">
     <!-- Vel N [m/s] -->
     <g transform="translate(25.933125 474.921875) rotate(-90) scale(0.14 -0.14)">
      <defs>
       <path id="DejaVuSans-56" d="M 1831 0 
L 50 4666 
L 709 4666 
L 2188 738 
L 3669 4666 
L 4325 4666 
L 2547 0 
L 1831 0 
z
" transform="scale(0.015625)"/>
       <path id="DejaVuSans-65" d="M 3597 1894 
L 3597 1613 
L 953 1613 
Q 991 1019 1311 708 
Q 1631 397 2203 397 
Q 2534 397 2845 478 
Q 3156 559 3463 722 
L 3463 178 
Q 3153 47 2828 -22 
Q 2503 -91 2169 -91 
Q 1331 -91 842 396 
Q 353 884 353 1716 
Q 353 2575 817 3079 
Q 1281 3584 2069 3584 
Q 2775 3584 3186 3129 
Q 3597 2675 3597 1894 
z
M 3022 2063 
Q 3016 2534 2758 2815 
Q 2500 3097 2075 3097 
Q 1594 3097 1305 2825 
Q 1016 2553 972 2059 
L 3022 2063 
z
" transform="scale(0.015625)"/>
       <path id="DejaVuSans-6c" d="M 603 4863 
L 1178 4863 
L 1178 0 
L 603 0 
L 603 4863 
z
" transform="scale(0.015625)"/>
       <path id="DejaVuSans-2f" d="M 1625 4666 
L 2156 4666 
L 531 -594 
L 0 -594 
L 1625 4666 
z
" transform="scale(0.015625)"/>
      </defs>
      <use xlink:href="#DejaVuSans-56"/>
      <use xlink:href="#DejaVuSans-65" x="60.658203"/>
      <use xlink:href="#DejaVuSans-6c" x="122.181641"/>
      <use xlink:href="#DejaVuSans-20" x="149.964844"/>
      <use xlink:href="#DejaVuSans-4e" x="181.751953"/>
      <use xlink:href="#DejaVuSans-20" x="256.556641"/>
      <use xlink:href="#DejaVuSans-5b" x="288.34375"/>
      <use xlink:href="#DejaVuSans-6d" x="327.357422"/>
      <use xlink:href="#DejaVuSans-2f" x="424.769531"/>
      <use xlink:href="#DejaVuSans-73" x="458.460938"/>
      <use xlink:href="#DejaVuSans-5d" x="510.560547"/>
     </g>
    </g>
   </g>
   <g id="line2d_51">
    <path d="M 67.16 436.4525 
L 70.282225 436.378084 
L 73.40445 434.306499 
L 76.526675 435.829329 
L 79.6489 436.836488 
L 82.771125 435.759999 
L 85.89335 427.888659 
L 89.015575 433.010355 
L 92.1378 413.898415 
L 95.260025 431.725343 
L 98.38225 433.151049 
L 101.504475 436.661351 
L 104.6267 415.56354 
L 107.748925 419.702675 
L 110.87115 413.320323 
L 113.993375 441.213905 
L 117.1156 435.257731 
L 120.237825 423.543302 
L 123.36005 426.735546 
L 126.482275 416.977962 
L 129.6045 431.182256 
L 132.726725 416.062674 
L 135.84895 397.812715 
L 138.971175 421.936287 
L 142.0934 437.398643 
L 145.215625 422.462207 
L 148.33785 412.477917 
L 151.460075 432.947912 
L 154.5823 442.655028 
L 157.704525 444.493276 
L 160.82675 455.73938 
L 163.948975 453.493419 
L 167.0712 449.657948 
L 170.193425 441.489032 
L 173.31565 425.808643 
L 176.437875 413.030558 
L 179.5601 390.971644 
L 182.682325 411.875476 
L 185.80455 401.687579 
L 188.926775 412.22974 
L 192.049 417.484067 
L 195.171225 412.384571 
L 198.29345 431.732649 
L 201.415675 423.93684 
L 204.5379 421.588112 
L 207.660125 416.255512 
L 210.78235 416.068613 
L 213.904575 390.791231 
L 217.0268 416.168158 
L 220.149025 430.254708 
L 223.27125 438.478008 
L 226.393475 440.432202 
L 229.5157 440.276302 
L 232.637925 416.267585 
L 235.76015 400.02092 
L 238.882375 416.570741 
L 242.0046 429.868152 
L 245.126825 421.169128 
L 248.24905 428.249526 
L 251.371275 417.543425 
L 254.4935 416.860907 
L 257.615725 437.427485 
L 260.73795 411.32088 
L 263.860175 394.371636 
L 266.9824 416.284189 
L 270.104625 427.157621 
L 276.349075 422.997778 
L 279.4713 418.016046 
L 282.593525 399.725757 
L 288.837975 436.482815 
L 291.9602 452.938492 
L 295.082425 451.640277 
L 298.20465 439.568551 
L 301.326875 409.226765 
L 304.4491 420.873154 
L 307.571325 419.527408 
L 310.69355 422.435754 
L 313.815775 410.394207 
L 316.938 389.464167 
L 320.060225 417.968707 
L 323.18245 435.351751 
L 326.304675 426.572445 
L 329.4269 426.061543 
L 332.549125 412.373458 
L 335.67135 421.42085 
L 338.793575 438.974006 
L 341.9158 437.062653 
L 345.038025 429.174132 
L 348.16025 428.324129 
L 351.282475 432.037842 
L 354.4047 427.691788 
L 360.64915 421.37721 
L 363.771375 429.709548 
L 366.8936 444.876011 
L 370.015825 448.939499 
L 373.13805 437.2501 
L 376.260275 454.344918 
L 379.3825 448.269914 
L 382.504725 452.520904 
L 385.62695 448.323334 
L 388.749175 429.908219 
L 391.8714 433.095958 
L 394.993625 437.412825 
L 398.11585 456.917982 
L 401.238075 441.427381 
L 404.3603 433.511363 
L 407.482525 411.784937 
L 410.60475 431.878407 
L 413.726975 438.576307 
L 416.8492 442.618331 
L 419.971425 429.293525 
L 423.09365 443.014339 
L 426.215875 446.719807 
L 429.3381 444.732613 
L 432.460325 448.597425 
L 435.58255 457.997054 
L 438.704775 454.481663 
L 441.827 441.032561 
L 444.949225 458.730492 
L 448.07145 453.95602 
L 451.193675 460.283547 
L 454.3159 440.037361 
L 457.438125 461.377331 
L 460.56035 460.903467 
L 463.682575 448.105065 
L 466.8048 426.622984 
L 469.927025 436.035306 
L 473.04925 448.902798 
L 476.171475 427.618698 
L 479.2937 457.272497 
L 482.415925 482.710477 
L 485.53815 462.554689 
L 488.660375 460.591163 
L 491.7826 464.492616 
L 494.904825 444.709684 
L 498.02705 439.421728 
L 501.149275 447.308174 
L 504.2715 460.913936 
L 507.393725 442.264158 
L 510.51595 435.108235 
L 513.638175 441.762123 
L 516.7604 423.748404 
L 519.882625 451.101765 
L 523.00485 472.616046 
L 526.127075 472.943371 
L 529.2493 463.074252 
L 532.371525 452.625618 
L 535.49375 452.221017 
L 538.615975 444.940783 
L 541.7382 460.54529 
L 544.860425 436.707948 
L 547.98265 442.648303 
L 551.104875 432.958736 
L 554.2271 438.663456 
L 557.349325 442.150022 
L 560.47155 443.934491 
L 563.593775 447.290503 
L 566.716 447.396672 
L 569.838225 439.739493 
L 572.96045 449.991045 
L 576.082675 449.982517 
L 579.2049 459.51162 
L 582.327125 445.857824 
L 585.44935 463.468416 
L 588.571575 442.780148 
L 591.6938 453.30452 
L 594.816025 475.479493 
L 597.93825 466.872284 
L 601.060475 469.32948 
L 604.1827 450.274977 
L 607.304925 456.582501 
L 610.42715 456.77736 
L 613.549375 472.912189 
L 616.6716 462.278543 
L 619.793825 477.63118 
L 622.91605 472.99448 
L 626.038275 439.312851 
L 629.1605 420.010512 
L 632.282725 415.868937 
L 635.40495 433.264404 
L 638.527175 433.760523 
L 641.6494 434.655864 
L 644.771625 449.855569 
L 647.89385 426.323179 
L 651.016075 421.82759 
L 654.1383 434.528114 
L 657.260525 439.786271 
L 660.38275 440.820379 
L 663.504975 468.064564 
L 666.6272 459.435037 
L 669.749425 457.231007 
L 672.87165 457.613924 
L 675.993875 447.065587 
L 679.1161 415.171099 
L 682.238325 412.817004 
L 685.36055 428.598168 
L 688.482775 425.147462 
L 688.482775 425.147462 
" clip-path="url(#pc2e134b91e)" style="fill: none; stroke: #1f77b4; stroke-width: 1.5; stroke-linecap: square"/>
   </g>
   <g id="line2d_52">
    <path d="M 67.16 454.346917 
L 691.605 454.346917 
" clip-path="url(#pc2e134b91e)" style="fill: none; stroke-dasharray: 5.55,2.4; stroke-dashoffset: 0; stroke: #ff0000; stroke-width: 1.5"/>
   </g>
   <g id="line2d_53">
    <path d="M 67.16 418.558083 
L 691.605 418.558083 
" clip-path="url(#pc2e134b91e)" style="fill: none; stroke-dasharray: 5.55,2.4; stroke-dashoffset: 0; stroke: #ff0000; stroke-width: 1.5"/>
   </g>
   <g id="patch_13">
    <path d="M 67.16 506.935 
L 67.16 365.97 
" style="fill: none; stroke: #000000; stroke-width: 0.8; stroke-linejoin: miter; stroke-linecap: square"/>
   </g>
   <g id="patch_14">
    <path d="M 691.605 506.935 
L 691.605 365.97 
" style="fill: none; stroke: #000000; stroke-width: 0.8; stroke-linejoin: miter; stroke-linecap: square"/>
   </g>
   <g id="patch_15">
    <path d="M 67.16 506.935 
L 691.605 506.935 
" style="fill: none; stroke: #000000; stroke-width: 0.8; stroke-linejoin: miter; stroke-linecap: square"/>
   </g>
   <g id="patch_16">
    <path d="M 67.16 365.97 
L 691.605 365.97 
" style="fill: none; stroke: #000000; stroke-width: 0.8; stroke-linejoin: miter; stroke-linecap: square"/>
   </g>
  </g>
  <g id="axes_4">
   <g id="patch_17">
    <path d="M 67.16 666.52 
L 691.605 666.52 
L 691.605 525.555 
L 67.16 525.555 
z
" style="fill: #ffffff"/>
   </g>
   <g id="matplotlib.axis_7">
    <g id="xtick_28">
     <g id="line2d_54">
      <g>
       <use xlink:href="#me8911a5f1c" x="67.16" y="666.52" style="stroke: #000000; stroke-width: 0.8"/>
      </g>
     </g>
     <g id="text_21">
      <!-- 0 -->
      <g transform="translate(62.70625 684.157812) scale(0.14 -0.14)">
       <use xlink:href="#DejaVuSans-30"/>
      </g>
     </g>
    </g>
    <g id="xtick_29">
     <g id="line2d_55">
      <g>
       <use xlink:href="#me8911a5f1c" x="145.215625" y="666.52" style="stroke: #000000; stroke-width: 0.8"/>
      </g>
     </g>
     <g id="text_22">
      <!-- 25 -->
      <g transform="translate(136.308125 684.157812) scale(0.14 -0.14)">
       <use xlink:href="#DejaVuSans-32"/>
       <use xlink:href="#DejaVuSans-35" x="63.623047"/>
      </g>
     </g>
    </g>
    <g id="xtick_30">
     <g id="line2d_56">
      <g>
       <use xlink:href="#me8911a5f1c" x="223.27125" y="666.52" style="stroke: #000000; stroke-width: 0.8"/>
      </g>
     </g>
     <g id="text_23">
      <!-- 50 -->
      <g transform="translate(214.36375 684.157812) scale(0.14 -0.14)">
       <use xlink:href="#DejaVuSans-35"/>
       <use xlink:href="#DejaVuSans-30" x="63.623047"/>
      </g>
     </g>
    </g>
    <g id="xtick_31">
     <g id="line2d_57">
      <g>
       <use xlink:href="#me8911a5f1c" x="301.326875" y="666.52" style="stroke: #000000; stroke-width: 0.8"/>
      </g>
     </g>
     <g id="text_24">
      <!-- 75 -->
      <g transform="translate(292.419375 684.157812) scale(0.14 -0.14)">
       <defs>
        <path id="DejaVuSans-37" d="M 525 4666 
L 3525 4666 
L 3525 4397 
L 1831 0 
L 1172 0 
L 2766 4134 
L 525 4134 
L 525 4666 
z
" transform="scale(0.015625)"/>
       </defs>
       <use xlink:href="#DejaVuSans-37"/>
       <use xlink:href="#DejaVuSans-35" x="63.623047"/>
      </g>
     </g>
    </g>
    <g id="xtick_32">
     <g id="line2d_58">
      <g>
       <use xlink:href="#me8911a5f1c" x="379.3825" y="666.52" style="stroke: #000000; stroke-width: 0.8"/>
      </g>
     </g>
     <g id="text_25">
      <!-- 100 -->
      <g transform="translate(366.02125 684.157812) scale(0.14 -0.14)">
       <use xlink:href="#DejaVuSans-31"/>
       <use xlink:href="#DejaVuSans-30" x="63.623047"/>
       <use xlink:href="#DejaVuSans-30" x="127.246094"/>
      </g>
     </g>
    </g>
    <g id="xtick_33">
     <g id="line2d_59">
      <g>
       <use xlink:href="#me8911a5f1c" x="457.438125" y="666.52" style="stroke: #000000; stroke-width: 0.8"/>
      </g>
     </g>
     <g id="text_26">
      <!-- 125 -->
      <g transform="translate(444.076875 684.157812) scale(0.14 -0.14)">
       <use xlink:href="#DejaVuSans-31"/>
       <use xlink:href="#DejaVuSans-32" x="63.623047"/>
       <use xlink:href="#DejaVuSans-35" x="127.246094"/>
      </g>
     </g>
    </g>
    <g id="xtick_34">
     <g id="line2d_60">
      <g>
       <use xlink:href="#me8911a5f1c" x="535.49375" y="666.52" style="stroke: #000000; stroke-width: 0.8"/>
      </g>
     </g>
     <g id="text_27">
      <!-- 150 -->
      <g transform="translate(522.1325 684.157812) scale(0.14 -0.14)">
       <use xlink:href="#DejaVuSans-31"/>
       <use xlink:href="#DejaVuSans-35" x="63.623047"/>
       <use xlink:href="#DejaVuSans-30" x="127.246094"/>
      </g>
     </g>
    </g>
    <g id="xtick_35">
     <g id="line2d_61">
      <g>
       <use xlink:href="#me8911a5f1c" x="613.549375" y="666.52" style="stroke: #000000; stroke-width: 0.8"/>
      </g>
     </g>
     <g id="text_28">
      <!-- 175 -->
      <g transform="translate(600.188125 684.157812) scale(0.14 -0.14)">
       <use xlink:href="#DejaVuSans-31"/>
       <use xlink:href="#DejaVuSans-37" x="63.623047"/>
       <use xlink:href="#DejaVuSans-35" x="127.246094"/>
      </g>
     </g>
    </g>
    <g id="xtick_36">
     <g id="line2d_62">
      <g>
       <use xlink:href="#me8911a5f1c" x="691.605" y="666.52" style="stroke: #000000; stroke-width: 0.8"/>
      </g>
     </g>
     <g id="text_29">
      <!-- 200 -->
      <g transform="translate(678.24375 684.157812) scale(0.14 -0.14)">
       <use xlink:href="#DejaVuSans-32"/>
       <use xlink:href="#DejaVuSans-30" x="63.623047"/>
       <use xlink:href="#DejaVuSans-30" x="127.246094"/>
      </g>
     </g>
    </g>
    <g id="text_30">
     <!-- Timestamp [s] -->
     <g transform="translate(328.979219 701.707188) scale(0.14 -0.14)">
      <defs>
       <path id="DejaVuSans-54" d="M -19 4666 
L 3928 4666 
L 3928 4134 
L 2272 4134 
L 2272 0 
L 1638 0 
L 1638 4134 
L -19 4134 
L -19 4666 
z
" transform="scale(0.015625)"/>
       <path id="DejaVuSans-69" d="M 603 3500 
L 1178 3500 
L 1178 0 
L 603 0 
L 603 3500 
z
M 603 4863 
L 1178 4863 
L 1178 4134 
L 603 4134 
L 603 4863 
z
" transform="scale(0.015625)"/>
       <path id="DejaVuSans-74" d="M 1172 4494 
L 1172 3500 
L 2356 3500 
L 2356 3053 
L 1172 3053 
L 1172 1153 
Q 1172 725 1289 603 
Q 1406 481 1766 481 
L 2356 481 
L 2356 0 
L 1766 0 
Q 1100 0 847 248 
Q 594 497 594 1153 
L 594 3053 
L 172 3053 
L 172 3500 
L 594 3500 
L 594 4494 
L 1172 4494 
z
" transform="scale(0.015625)"/>
       <path id="DejaVuSans-61" d="M 2194 1759 
Q 1497 1759 1228 1600 
Q 959 1441 959 1056 
Q 959 750 1161 570 
Q 1363 391 1709 391 
Q 2188 391 2477 730 
Q 2766 1069 2766 1631 
L 2766 1759 
L 2194 1759 
z
M 3341 1997 
L 3341 0 
L 2766 0 
L 2766 531 
Q 2569 213 2275 61 
Q 1981 -91 1556 -91 
Q 1019 -91 701 211 
Q 384 513 384 1019 
Q 384 1609 779 1909 
Q 1175 2209 1959 2209 
L 2766 2209 
L 2766 2266 
Q 2766 2663 2505 2880 
Q 2244 3097 1772 3097 
Q 1472 3097 1187 3025 
Q 903 2953 641 2809 
L 641 3341 
Q 956 3463 1253 3523 
Q 1550 3584 1831 3584 
Q 2591 3584 2966 3190 
Q 3341 2797 3341 1997 
z
" transform="scale(0.015625)"/>
       <path id="DejaVuSans-70" d="M 1159 525 
L 1159 -1331 
L 581 -1331 
L 581 3500 
L 1159 3500 
L 1159 2969 
Q 1341 3281 1617 3432 
Q 1894 3584 2278 3584 
Q 2916 3584 3314 3078 
Q 3713 2572 3713 1747 
Q 3713 922 3314 415 
Q 2916 -91 2278 -91 
Q 1894 -91 1617 61 
Q 1341 213 1159 525 
z
M 3116 1747 
Q 3116 2381 2855 2742 
Q 2594 3103 2138 3103 
Q 1681 3103 1420 2742 
Q 1159 2381 1159 1747 
Q 1159 1113 1420 752 
Q 1681 391 2138 391 
Q 2594 391 2855 752 
Q 3116 1113 3116 1747 
z
" transform="scale(0.015625)"/>
      </defs>
      <use xlink:href="#DejaVuSans-54"/>
      <use xlink:href="#DejaVuSans-69" x="57.958984"/>
      <use xlink:href="#DejaVuSans-6d" x="85.742188"/>
      <use xlink:href="#DejaVuSans-65" x="183.154297"/>
      <use xlink:href="#DejaVuSans-73" x="244.677734"/>
      <use xlink:href="#DejaVuSans-74" x="296.777344"/>
      <use xlink:href="#DejaVuSans-61" x="335.986328"/>
      <use xlink:href="#DejaVuSans-6d" x="397.265625"/>
      <use xlink:href="#DejaVuSans-70" x="494.677734"/>
      <use xlink:href="#DejaVuSans-20" x="558.154297"/>
      <use xlink:href="#DejaVuSans-5b" x="589.941406"/>
      <use xlink:href="#DejaVuSans-73" x="628.955078"/>
      <use xlink:href="#DejaVuSans-5d" x="681.054688"/>
     </g>
    </g>
   </g>
   <g id="matplotlib.axis_8">
    <g id="ytick_18">
     <g id="line2d_63">
      <g>
       <use xlink:href="#m1c3cb36fa0" x="67.16" y="650.132917" style="stroke: #000000; stroke-width: 0.8"/>
      </g>
     </g>
     <g id="text_31">
      <!-- -2.0 -->
      <g transform="translate(32.844688 655.451824) scale(0.14 -0.14)">
       <use xlink:href="#DejaVuSans-2d"/>
       <use xlink:href="#DejaVuSans-32" x="36.083984"/>
       <use xlink:href="#DejaVuSans-2e" x="99.707031"/>
       <use xlink:href="#DejaVuSans-30" x="131.494141"/>
      </g>
     </g>
    </g>
    <g id="ytick_19">
     <g id="line2d_64">
      <g>
       <use xlink:href="#m1c3cb36fa0" x="67.16" y="623.085209" style="stroke: #000000; stroke-width: 0.8"/>
      </g>
     </g>
     <g id="text_32">
      <!-- -1.0 -->
      <g transform="translate(32.844688 628.404115) scale(0.14 -0.14)">
       <use xlink:href="#DejaVuSans-2d"/>
       <use xlink:href="#DejaVuSans-31" x="36.083984"/>
       <use xlink:href="#DejaVuSans-2e" x="99.707031"/>
       <use xlink:href="#DejaVuSans-30" x="131.494141"/>
      </g>
     </g>
    </g>
    <g id="ytick_20">
     <g id="line2d_65">
      <g>
       <use xlink:href="#m1c3cb36fa0" x="67.16" y="596.0375" style="stroke: #000000; stroke-width: 0.8"/>
      </g>
     </g>
     <g id="text_33">
      <!-- 0.0 -->
      <g transform="translate(37.895625 601.356406) scale(0.14 -0.14)">
       <use xlink:href="#DejaVuSans-30"/>
       <use xlink:href="#DejaVuSans-2e" x="63.623047"/>
       <use xlink:href="#DejaVuSans-30" x="95.410156"/>
      </g>
     </g>
    </g>
    <g id="ytick_21">
     <g id="line2d_66">
      <g>
       <use xlink:href="#m1c3cb36fa0" x="67.16" y="568.989791" style="stroke: #000000; stroke-width: 0.8"/>
      </g>
     </g>
     <g id="text_34">
      <!-- 1.0 -->
      <g transform="translate(37.895625 574.308698) scale(0.14 -0.14)">
       <use xlink:href="#DejaVuSans-31"/>
       <use xlink:href="#DejaVuSans-2e" x="63.623047"/>
       <use xlink:href="#DejaVuSans-30" x="95.410156"/>
      </g>
     </g>
    </g>
    <g id="ytick_22">
     <g id="line2d_67">
      <g>
       <use xlink:href="#m1c3cb36fa0" x="67.16" y="541.942083" style="stroke: #000000; stroke-width: 0.8"/>
      </g>
     </g>
     <g id="text_35">
      <!-- 2.0 -->
      <g transform="translate(37.895625 547.260989) scale(0.14 -0.14)">
       <use xlink:href="#DejaVuSans-32"/>
       <use xlink:href="#DejaVuSans-2e" x="63.623047"/>
       <use xlink:href="#DejaVuSans-30" x="95.410156"/>
      </g>
     </g>
    </g>
    <g id="text_36">
     <!-- Vel E [m/s] -->
     <g transform="translate(25.933125 633.693125) rotate(-90) scale(0.14 -0.14)">
      <use xlink:href="#DejaVuSans-56"/>
      <use xlink:href="#DejaVuSans-65" x="60.658203"/>
      <use xlink:href="#DejaVuSans-6c" x="122.181641"/>
      <use xlink:href="#DejaVuSans-20" x="149.964844"/>
      <use xlink:href="#DejaVuSans-45" x="181.751953"/>
      <use xlink:href="#DejaVuSans-20" x="244.935547"/>
      <use xlink:href="#DejaVuSans-5b" x="276.722656"/>
      <use xlink:href="#DejaVuSans-6d" x="315.736328"/>
      <use xlink:href="#DejaVuSans-2f" x="413.148438"/>
      <use xlink:href="#DejaVuSans-73" x="446.839844"/>
      <use xlink:href="#DejaVuSans-5d" x="498.939453"/>
     </g>
    </g>
   </g>
   <g id="line2d_68">
    <path d="M 67.16 596.0375 
L 70.282225 596.703552 
L 73.40445 597.740792 
L 76.526675 599.523291 
L 79.6489 599.497785 
L 82.771125 600.391852 
L 85.89335 600.672289 
L 89.015575 602.009277 
L 92.1378 602.796287 
L 95.260025 606.564239 
L 98.38225 606.223234 
L 101.504475 608.425332 
L 104.6267 607.298339 
L 107.748925 611.739526 
L 110.87115 610.974335 
L 113.993375 613.566197 
L 117.1156 616.883358 
L 120.237825 618.786428 
L 123.36005 619.777391 
L 126.482275 619.339778 
L 129.6045 619.24842 
L 132.726725 621.354908 
L 135.84895 622.05134 
L 138.971175 619.433275 
L 142.0934 619.318215 
L 148.33785 625.09707 
L 151.460075 627.113658 
L 154.5823 627.809891 
L 157.704525 631.069511 
L 160.82675 631.791867 
L 163.948975 634.428484 
L 167.0712 632.531229 
L 170.193425 631.118516 
L 173.31565 632.374522 
L 176.437875 630.139009 
L 179.5601 633.762458 
L 182.682325 636.45453 
L 185.80455 635.338157 
L 188.926775 633.525747 
L 192.049 631.850547 
L 195.171225 634.8265 
L 198.29345 634.470423 
L 201.415675 636.381297 
L 204.5379 637.888898 
L 207.660125 637.150743 
L 210.78235 637.210957 
L 213.904575 640.859368 
L 217.0268 637.949593 
L 220.149025 636.458805 
L 223.27125 638.945848 
L 226.393475 638.740066 
L 229.5157 638.412239 
L 232.637925 638.551166 
L 235.76015 639.826268 
L 238.882375 640.515484 
L 242.0046 639.55386 
L 245.126825 636.840464 
L 248.24905 636.226906 
L 251.371275 637.310849 
L 254.4935 636.002832 
L 257.615725 640.824534 
L 260.73795 636.727153 
L 263.860175 638.570474 
L 266.9824 636.949219 
L 270.104625 636.748501 
L 273.22685 636.416315 
L 276.349075 631.860383 
L 279.4713 631.649457 
L 282.593525 630.102196 
L 285.71575 629.744224 
L 288.837975 628.594836 
L 291.9602 628.457506 
L 295.082425 630.321212 
L 298.20465 627.353855 
L 301.326875 627.676133 
L 304.4491 629.103459 
L 307.571325 627.475591 
L 310.69355 622.880685 
L 313.815775 620.983517 
L 316.938 621.611695 
L 320.060225 621.644974 
L 323.18245 621.151395 
L 326.304675 616.573782 
L 329.4269 616.388248 
L 332.549125 615.933375 
L 335.67135 614.371742 
L 338.793575 614.372886 
L 341.9158 614.685142 
L 345.038025 614.122993 
L 348.16025 612.87073 
L 351.282475 611.3522 
L 354.4047 608.563825 
L 357.526925 607.452131 
L 360.64915 605.180678 
L 363.771375 604.672469 
L 366.8936 603.582796 
L 370.015825 605.615002 
L 373.13805 601.295295 
L 376.260275 599.044609 
L 379.3825 596.20336 
L 382.504725 600.284392 
L 385.62695 593.932649 
L 388.749175 593.317628 
L 391.8714 590.550872 
L 394.993625 591.993128 
L 398.11585 589.647848 
L 401.238075 590.38868 
L 404.3603 589.429229 
L 407.482525 584.150219 
L 410.60475 584.054334 
L 413.726975 582.934213 
L 416.8492 580.821154 
L 419.971425 579.834052 
L 423.09365 579.43552 
L 426.215875 578.41768 
L 429.3381 574.175822 
L 432.460325 575.428999 
L 435.58255 575.377083 
L 438.704775 573.520738 
L 441.827 571.941113 
L 444.949225 570.544077 
L 448.07145 570.280931 
L 451.193675 572.521975 
L 454.3159 568.745303 
L 457.438125 570.450173 
L 460.56035 568.460383 
L 463.682575 568.351205 
L 466.8048 566.531784 
L 469.927025 564.294354 
L 473.04925 562.607186 
L 476.171475 561.183622 
L 479.2937 558.295509 
L 482.415925 558.478656 
L 485.53815 559.6424 
L 491.7826 556.880216 
L 494.904825 559.841707 
L 498.02705 558.292494 
L 501.149275 556.921824 
L 504.2715 557.489044 
L 507.393725 554.913776 
L 510.51595 555.755014 
L 513.638175 555.654281 
L 516.7604 555.884523 
L 519.882625 555.499863 
L 523.00485 556.812874 
L 526.127075 557.756347 
L 529.2493 553.096449 
L 532.371525 554.24173 
L 535.49375 555.066317 
L 538.615975 557.203637 
L 541.7382 555.697667 
L 544.860425 555.683758 
L 547.98265 550.87122 
L 551.104875 549.449138 
L 554.2271 551.867287 
L 557.349325 549.049167 
L 560.47155 550.107734 
L 563.593775 553.411571 
L 566.716 559.050995 
L 569.838225 554.591417 
L 572.96045 558.020649 
L 576.082675 560.384779 
L 579.2049 557.359204 
L 582.327125 553.55642 
L 585.44935 553.672894 
L 588.571575 555.780393 
L 591.6938 557.564884 
L 594.816025 558.687843 
L 597.93825 559.938174 
L 601.060475 561.813068 
L 604.1827 563.467476 
L 607.304925 564.889909 
L 610.42715 566.938391 
L 613.549375 567.409722 
L 616.6716 569.961006 
L 619.793825 568.85878 
L 626.038275 570.606752 
L 629.1605 569.296786 
L 632.282725 567.109179 
L 635.40495 567.422777 
L 638.527175 572.440235 
L 641.6494 574.974223 
L 644.771625 573.796697 
L 647.89385 576.739204 
L 651.016075 577.70889 
L 654.1383 577.531289 
L 657.260525 580.427301 
L 660.38275 580.887991 
L 663.504975 583.941978 
L 666.6272 584.919668 
L 669.749425 584.4275 
L 672.87165 587.706592 
L 675.993875 586.806175 
L 679.1161 587.610637 
L 682.238325 587.861387 
L 685.36055 589.318648 
L 688.482775 589.174815 
L 688.482775 589.174815 
" clip-path="url(#pe787409bac)" style="fill: none; stroke: #1f77b4; stroke-width: 1.5; stroke-linecap: square"/>
   </g>
   <g id="line2d_69">
    <path d="M 67.16 598.390645 
L 691.605 598.390645 
" clip-path="url(#pe787409bac)" style="fill: none; stroke-dasharray: 5.55,2.4; stroke-dashoffset: 0; stroke: #ff0000; stroke-width: 1.5"/>
   </g>
   <g id="line2d_70">
    <path d="M 67.16 593.684355 
L 691.605 593.684355 
" clip-path="url(#pe787409bac)" style="fill: none; stroke-dasharray: 5.55,2.4; stroke-dashoffset: 0; stroke: #ff0000; stroke-width: 1.5"/>
   </g>
   <g id="patch_18">
    <path d="M 67.16 666.52 
L 67.16 525.555 
" style="fill: none; stroke: #000000; stroke-width: 0.8; stroke-linejoin: miter; stroke-linecap: square"/>
   </g>
   <g id="patch_19">
    <path d="M 691.605 666.52 
L 691.605 525.555 
" style="fill: none; stroke: #000000; stroke-width: 0.8; stroke-linejoin: miter; stroke-linecap: square"/>
   </g>
   <g id="patch_20">
    <path d="M 67.16 666.52 
L 691.605 666.52 
" style="fill: none; stroke: #000000; stroke-width: 0.8; stroke-linejoin: miter; stroke-linecap: square"/>
   </g>
   <g id="patch_21">
    <path d="M 67.16 525.555 
L 691.605 525.555 
" style="fill: none; stroke: #000000; stroke-width: 0.8; stroke-linejoin: miter; stroke-linecap: square"/>
   </g>
  </g>
  <g id="text_37">
   <!-- Errors on positions and velocities at 1Hz -->
   <g transform="translate(190.972312 27.165375) scale(0.168 -0.168)">
    <defs>
     <path id="DejaVuSans-72" d="M 2631 2963 
Q 2534 3019 2420 3045 
Q 2306 3072 2169 3072 
Q 1681 3072 1420 2755 
Q 1159 2438 1159 1844 
L 1159 0 
L 581 0 
L 581 3500 
L 1159 3500 
L 1159 2956 
Q 1341 3275 1631 3429 
Q 1922 3584 2338 3584 
Q 2397 3584 2469 3576 
Q 2541 3569 2628 3553 
L 2631 2963 
z
" transform="scale(0.015625)"/>
     <path id="DejaVuSans-6e" d="M 3513 2113 
L 3513 0 
L 2938 0 
L 2938 2094 
Q 2938 2591 2744 2837 
Q 2550 3084 2163 3084 
Q 1697 3084 1428 2787 
Q 1159 2491 1159 1978 
L 1159 0 
L 581 0 
L 581 3500 
L 1159 3500 
L 1159 2956 
Q 1366 3272 1645 3428 
Q 1925 3584 2291 3584 
Q 2894 3584 3203 3211 
Q 3513 2838 3513 2113 
z
" transform="scale(0.015625)"/>
     <path id="DejaVuSans-64" d="M 2906 2969 
L 2906 4863 
L 3481 4863 
L 3481 0 
L 2906 0 
L 2906 525 
Q 2725 213 2448 61 
Q 2172 -91 1784 -91 
Q 1150 -91 751 415 
Q 353 922 353 1747 
Q 353 2572 751 3078 
Q 1150 3584 1784 3584 
Q 2172 3584 2448 3432 
Q 2725 3281 2906 2969 
z
M 947 1747 
Q 947 1113 1208 752 
Q 1469 391 1925 391 
Q 2381 391 2643 752 
Q 2906 1113 2906 1747 
Q 2906 2381 2643 2742 
Q 2381 3103 1925 3103 
Q 1469 3103 1208 2742 
Q 947 2381 947 1747 
z
" transform="scale(0.015625)"/>
     <path id="DejaVuSans-76" d="M 191 3500 
L 800 3500 
L 1894 563 
L 2988 3500 
L 3597 3500 
L 2284 0 
L 1503 0 
L 191 3500 
z
" transform="scale(0.015625)"/>
     <path id="DejaVuSans-63" d="M 3122 3366 
L 3122 2828 
Q 2878 2963 2633 3030 
Q 2388 3097 2138 3097 
Q 1578 3097 1268 2742 
Q 959 2388 959 1747 
Q 959 1106 1268 751 
Q 1578 397 2138 397 
Q 2388 397 2633 464 
Q 2878 531 3122 666 
L 3122 134 
Q 2881 22 2623 -34 
Q 2366 -91 2075 -91 
Q 1284 -91 818 406 
Q 353 903 353 1747 
Q 353 2603 823 3093 
Q 1294 3584 2113 3584 
Q 2378 3584 2631 3529 
Q 2884 3475 3122 3366 
z
" transform="scale(0.015625)"/>
     <path id="DejaVuSans-48" d="M 628 4666 
L 1259 4666 
L 1259 2753 
L 3553 2753 
L 3553 4666 
L 4184 4666 
L 4184 0 
L 3553 0 
L 3553 2222 
L 1259 2222 
L 1259 0 
L 628 0 
L 628 4666 
z
" transform="scale(0.015625)"/>
     <path id="DejaVuSans-7a" d="M 353 3500 
L 3084 3500 
L 3084 2975 
L 922 459 
L 3084 459 
L 3084 0 
L 275 0 
L 275 525 
L 2438 3041 
L 353 3041 
L 353 3500 
z
" transform="scale(0.015625)"/>
    </defs>
    <use xlink:href="#DejaVuSans-45"/>
    <use xlink:href="#DejaVuSans-72" x="63.183594"/>
    <use xlink:href="#DejaVuSans-72" x="102.546875"/>
    <use xlink:href="#DejaVuSans-6f" x="141.410156"/>
    <use xlink:href="#DejaVuSans-72" x="202.591797"/>
    <use xlink:href="#DejaVuSans-73" x="243.705078"/>
    <use xlink:href="#DejaVuSans-20" x="295.804688"/>
    <use xlink:href="#DejaVuSans-6f" x="327.591797"/>
    <use xlink:href="#DejaVuSans-6e" x="388.773438"/>
    <use xlink:href="#DejaVuSans-20" x="452.152344"/>
    <use xlink:href="#DejaVuSans-70" x="483.939453"/>
    <use xlink:href="#DejaVuSans-6f" x="547.416016"/>
    <use xlink:href="#DejaVuSans-73" x="608.597656"/>
    <use xlink:href="#DejaVuSans-69" x="660.697266"/>
    <use xlink:href="#DejaVuSans-74" x="688.480469"/>
    <use xlink:href="#DejaVuSans-69" x="727.689453"/>
    <use xlink:href="#DejaVuSans-6f" x="755.472656"/>
    <use xlink:href="#DejaVuSans-6e" x="816.654297"/>
    <use xlink:href="#DejaVuSans-73" x="880.033203"/>
    <use xlink:href="#DejaVuSans-20" x="932.132812"/>
    <use xlink:href="#DejaVuSans-61" x="963.919922"/>
    <use xlink:href="#DejaVuSans-6e" x="1025.199219"/>
    <use xlink:href="#DejaVuSans-64" x="1088.578125"/>
    <use xlink:href="#DejaVuSans-20" x="1152.054688"/>
    <use xlink:href="#DejaVuSans-76" x="1183.841797"/>
    <use xlink:href="#DejaVuSans-65" x="1243.021484"/>
    <use xlink:href="#DejaVuSans-6c" x="1304.544922"/>
    <use xlink:href="#DejaVuSans-6f" x="1332.328125"/>
    <use xlink:href="#DejaVuSans-63" x="1393.509766"/>
    <use xlink:href="#DejaVuSans-69" x="1448.490234"/>
    <use xlink:href="#DejaVuSans-74" x="1476.273438"/>
    <use xlink:href="#DejaVuSans-69" x="1515.482422"/>
    <use xlink:href="#DejaVuSans-65" x="1543.265625"/>
    <use xlink:href="#DejaVuSans-73" x="1604.789062"/>
    <use xlink:href="#DejaVuSans-20" x="1656.888672"/>
    <use xlink:href="#DejaVuSans-61" x="1688.675781"/>
    <use xlink:href="#DejaVuSans-74" x="1749.955078"/>
    <use xlink:href="#DejaVuSans-20" x="1789.164062"/>
    <use xlink:href="#DejaVuSans-31" x="1820.951172"/>
    <use xlink:href="#DejaVuSans-48" x="1884.574219"/>
    <use xlink:href="#DejaVuSans-7a" x="1959.769531"/>
   </g>
  </g>
 </g>
 <defs>
  <clipPath id="p456f56aa28">
   <rect x="67.16" y="46.8" width="624.445" height="140.965"/>
  </clipPath>
  <clipPath id="p8ad2b5cee3">
   <rect x="67.16" y="206.385" width="624.445" height="140.965"/>
  </clipPath>
  <clipPath id="pc2e134b91e">
   <rect x="67.16" y="365.97" width="624.445" height="140.965"/>
  </clipPath>
  <clipPath id="pe787409bac">
   <rect x="67.16" y="525.555" width="624.445" height="140.965"/>
  </clipPath>
 </defs>
</svg>
