<?xml version="1.0" encoding="utf-8" standalone="no"?>
<!DOCTYPE svg PUBLIC "-//W3C//DTD SVG 1.1//EN"
  "http://www.w3.org/Graphics/SVG/1.1/DTD/svg11.dtd">
<svg xmlns:xlink="http://www.w3.org/1999/xlink" width="720pt" height="720pt" viewBox="0 0 720 720" xmlns="http://www.w3.org/2000/svg" version="1.1">
 <metadata>
  <rdf:RDF xmlns:dc="http://purl.org/dc/elements/1.1/" xmlns:cc="http://creativecommons.org/ns#" xmlns:rdf="http://www.w3.org/1999/02/22-rdf-syntax-ns#">
   <cc:Work>
    <dc:type rdf:resource="http://purl.org/dc/dcmitype/StillImage"/>
    <dc:date>2024-05-17T17:48:07.392971</dc:date>
    <dc:format>image/svg+xml</dc:format>
    <dc:creator>
     <cc:Agent>
      <dc:title>Matplotlib v3.8.4, https://matplotlib.org/</dc:title>
     </cc:Agent>
    </dc:creator>
   </cc:Work>
  </rdf:RDF>
 </metadata>
 <defs>
  <style type="text/css">*{stroke-linejoin: round; stroke-linecap: butt}</style>
 </defs>
 <g id="figure_1">
  <g id="patch_1">
   <path d="M 0 720 
L 720 720 
L 720 0 
L 0 0 
z
" style="fill: #ffffff"/>
  </g>
  <g id="axes_1">
   <g id="patch_2">
    <path d="M 67.16 187.765 
L 691.605 187.765 
L 691.605 46.8 
L 67.16 46.8 
z
" style="fill: #ffffff"/>
   </g>
   <g id="matplotlib.axis_1">
    <g id="xtick_1">
     <g id="line2d_1">
      <defs>
       <path id="me1f1fa900a" d="M 0 0 
L 0 3.5 
" style="stroke: #000000; stroke-width: 0.8"/>
      </defs>
      <g>
       <use xlink:href="#me1f1fa900a" x="67.16" y="187.765" style="stroke: #000000; stroke-width: 0.8"/>
      </g>
     </g>
    </g>
    <g id="xtick_2">
     <g id="line2d_2">
      <g>
       <use xlink:href="#me1f1fa900a" x="145.215625" y="187.765" style="stroke: #000000; stroke-width: 0.8"/>
      </g>
     </g>
    </g>
    <g id="xtick_3">
     <g id="line2d_3">
      <g>
       <use xlink:href="#me1f1fa900a" x="223.27125" y="187.765" style="stroke: #000000; stroke-width: 0.8"/>
      </g>
     </g>
    </g>
    <g id="xtick_4">
     <g id="line2d_4">
      <g>
       <use xlink:href="#me1f1fa900a" x="301.326875" y="187.765" style="stroke: #000000; stroke-width: 0.8"/>
      </g>
     </g>
    </g>
    <g id="xtick_5">
     <g id="line2d_5">
      <g>
       <use xlink:href="#me1f1fa900a" x="379.3825" y="187.765" style="stroke: #000000; stroke-width: 0.8"/>
      </g>
     </g>
    </g>
    <g id="xtick_6">
     <g id="line2d_6">
      <g>
       <use xlink:href="#me1f1fa900a" x="457.438125" y="187.765" style="stroke: #000000; stroke-width: 0.8"/>
      </g>
     </g>
    </g>
    <g id="xtick_7">
     <g id="line2d_7">
      <g>
       <use xlink:href="#me1f1fa900a" x="535.49375" y="187.765" style="stroke: #000000; stroke-width: 0.8"/>
      </g>
     </g>
    </g>
    <g id="xtick_8">
     <g id="line2d_8">
      <g>
       <use xlink:href="#me1f1fa900a" x="613.549375" y="187.765" style="stroke: #000000; stroke-width: 0.8"/>
      </g>
     </g>
    </g>
    <g id="xtick_9">
     <g id="line2d_9">
      <g>
       <use xlink:href="#me1f1fa900a" x="691.605" y="187.765" style="stroke: #000000; stroke-width: 0.8"/>
      </g>
     </g>
    </g>
   </g>
   <g id="matplotlib.axis_2">
    <g id="ytick_1">
     <g id="line2d_10">
      <defs>
       <path id="mb5b0e336fc" d="M 0 0 
L -3.5 0 
" style="stroke: #000000; stroke-width: 0.8"/>
      </defs>
      <g>
       <use xlink:href="#mb5b0e336fc" x="67.16" y="180.920976" style="stroke: #000000; stroke-width: 0.8"/>
      </g>
     </g>
     <g id="text_1">
      <!-- -1.0 -->
      <g transform="translate(32.844688 186.239882) scale(0.14 -0.14)">
       <defs>
        <path id="DejaVuSans-2d" d="M 313 2009 
L 1997 2009 
L 1997 1497 
L 313 1497 
L 313 2009 
z
" transform="scale(0.015625)"/>
        <path id="DejaVuSans-31" d="M 794 531 
L 1825 531 
L 1825 4091 
L 703 3866 
L 703 4441 
L 1819 4666 
L 2450 4666 
L 2450 531 
L 3481 531 
L 3481 0 
L 794 0 
L 794 531 
z
" transform="scale(0.015625)"/>
        <path id="DejaVuSans-2e" d="M 684 794 
L 1344 794 
L 1344 0 
L 684 0 
L 684 794 
z
" transform="scale(0.015625)"/>
        <path id="DejaVuSans-30" d="M 2034 4250 
Q 1547 4250 1301 3770 
Q 1056 3291 1056 2328 
Q 1056 1369 1301 889 
Q 1547 409 2034 409 
Q 2525 409 2770 889 
Q 3016 1369 3016 2328 
Q 3016 3291 2770 3770 
Q 2525 4250 2034 4250 
z
M 2034 4750 
Q 2819 4750 3233 4129 
Q 3647 3509 3647 2328 
Q 3647 1150 3233 529 
Q 2819 -91 2034 -91 
Q 1250 -91 836 529 
Q 422 1150 422 2328 
Q 422 3509 836 4129 
Q 1250 4750 2034 4750 
z
" transform="scale(0.015625)"/>
       </defs>
       <use xlink:href="#DejaVuSans-2d"/>
       <use xlink:href="#DejaVuSans-31" x="36.083984"/>
       <use xlink:href="#DejaVuSans-2e" x="99.707031"/>
       <use xlink:href="#DejaVuSans-30" x="131.494141"/>
      </g>
     </g>
    </g>
    <g id="ytick_2">
     <g id="line2d_11">
      <g>
       <use xlink:href="#mb5b0e336fc" x="67.16" y="149.101738" style="stroke: #000000; stroke-width: 0.8"/>
      </g>
     </g>
     <g id="text_2">
      <!-- -0.5 -->
      <g transform="translate(32.844688 154.420644) scale(0.14 -0.14)">
       <defs>
        <path id="DejaVuSans-35" d="M 691 4666 
L 3169 4666 
L 3169 4134 
L 1269 4134 
L 1269 2991 
Q 1406 3038 1543 3061 
Q 1681 3084 1819 3084 
Q 2600 3084 3056 2656 
Q 3513 2228 3513 1497 
Q 3513 744 3044 326 
Q 2575 -91 1722 -91 
Q 1428 -91 1123 -41 
Q 819 9 494 109 
L 494 744 
Q 775 591 1075 516 
Q 1375 441 1709 441 
Q 2250 441 2565 725 
Q 2881 1009 2881 1497 
Q 2881 1984 2565 2268 
Q 2250 2553 1709 2553 
Q 1456 2553 1204 2497 
Q 953 2441 691 2322 
L 691 4666 
z
" transform="scale(0.015625)"/>
       </defs>
       <use xlink:href="#DejaVuSans-2d"/>
       <use xlink:href="#DejaVuSans-30" x="36.083984"/>
       <use xlink:href="#DejaVuSans-2e" x="99.707031"/>
       <use xlink:href="#DejaVuSans-35" x="131.494141"/>
      </g>
     </g>
    </g>
    <g id="ytick_3">
     <g id="line2d_12">
      <g>
       <use xlink:href="#mb5b0e336fc" x="67.16" y="117.2825" style="stroke: #000000; stroke-width: 0.8"/>
      </g>
     </g>
     <g id="text_3">
      <!-- 0.0 -->
      <g transform="translate(37.895625 122.601406) scale(0.14 -0.14)">
       <use xlink:href="#DejaVuSans-30"/>
       <use xlink:href="#DejaVuSans-2e" x="63.623047"/>
       <use xlink:href="#DejaVuSans-30" x="95.410156"/>
      </g>
     </g>
    </g>
    <g id="ytick_4">
     <g id="line2d_13">
      <g>
       <use xlink:href="#mb5b0e336fc" x="67.16" y="85.463262" style="stroke: #000000; stroke-width: 0.8"/>
      </g>
     </g>
     <g id="text_4">
      <!-- 0.5 -->
      <g transform="translate(37.895625 90.782168) scale(0.14 -0.14)">
       <use xlink:href="#DejaVuSans-30"/>
       <use xlink:href="#DejaVuSans-2e" x="63.623047"/>
       <use xlink:href="#DejaVuSans-35" x="95.410156"/>
      </g>
     </g>
    </g>
    <g id="ytick_5">
     <g id="line2d_14">
      <g>
       <use xlink:href="#mb5b0e336fc" x="67.16" y="53.644024" style="stroke: #000000; stroke-width: 0.8"/>
      </g>
     </g>
     <g id="text_5">
      <!-- 1.0 -->
      <g transform="translate(37.895625 58.96293) scale(0.14 -0.14)">
       <use xlink:href="#DejaVuSans-31"/>
       <use xlink:href="#DejaVuSans-2e" x="63.623047"/>
       <use xlink:href="#DejaVuSans-30" x="95.410156"/>
      </g>
     </g>
    </g>
    <g id="text_6">
     <!-- Pos N [m] -->
     <g transform="translate(25.933125 151.146094) rotate(-90) scale(0.14 -0.14)">
      <defs>
       <path id="DejaVuSans-50" d="M 1259 4147 
L 1259 2394 
L 2053 2394 
Q 2494 2394 2734 2622 
Q 2975 2850 2975 3272 
Q 2975 3691 2734 3919 
Q 2494 4147 2053 4147 
L 1259 4147 
z
M 628 4666 
L 2053 4666 
Q 2838 4666 3239 4311 
Q 3641 3956 3641 3272 
Q 3641 2581 3239 2228 
Q 2838 1875 2053 1875 
L 1259 1875 
L 1259 0 
L 628 0 
L 628 4666 
z
" transform="scale(0.015625)"/>
       <path id="DejaVuSans-6f" d="M 1959 3097 
Q 1497 3097 1228 2736 
Q 959 2375 959 1747 
Q 959 1119 1226 758 
Q 1494 397 1959 397 
Q 2419 397 2687 759 
Q 2956 1122 2956 1747 
Q 2956 2369 2687 2733 
Q 2419 3097 1959 3097 
z
M 1959 3584 
Q 2709 3584 3137 3096 
Q 3566 2609 3566 1747 
Q 3566 888 3137 398 
Q 2709 -91 1959 -91 
Q 1206 -91 779 398 
Q 353 888 353 1747 
Q 353 2609 779 3096 
Q 1206 3584 1959 3584 
z
" transform="scale(0.015625)"/>
       <path id="DejaVuSans-73" d="M 2834 3397 
L 2834 2853 
Q 2591 2978 2328 3040 
Q 2066 3103 1784 3103 
Q 1356 3103 1142 2972 
Q 928 2841 928 2578 
Q 928 2378 1081 2264 
Q 1234 2150 1697 2047 
L 1894 2003 
Q 2506 1872 2764 1633 
Q 3022 1394 3022 966 
Q 3022 478 2636 193 
Q 2250 -91 1575 -91 
Q 1294 -91 989 -36 
Q 684 19 347 128 
L 347 722 
Q 666 556 975 473 
Q 1284 391 1588 391 
Q 1994 391 2212 530 
Q 2431 669 2431 922 
Q 2431 1156 2273 1281 
Q 2116 1406 1581 1522 
L 1381 1569 
Q 847 1681 609 1914 
Q 372 2147 372 2553 
Q 372 3047 722 3315 
Q 1072 3584 1716 3584 
Q 2034 3584 2315 3537 
Q 2597 3491 2834 3397 
z
" transform="scale(0.015625)"/>
       <path id="DejaVuSans-20" transform="scale(0.015625)"/>
       <path id="DejaVuSans-4e" d="M 628 4666 
L 1478 4666 
L 3547 763 
L 3547 4666 
L 4159 4666 
L 4159 0 
L 3309 0 
L 1241 3903 
L 1241 0 
L 628 0 
L 628 4666 
z
" transform="scale(0.015625)"/>
       <path id="DejaVuSans-5b" d="M 550 4863 
L 1875 4863 
L 1875 4416 
L 1125 4416 
L 1125 -397 
L 1875 -397 
L 1875 -844 
L 550 -844 
L 550 4863 
z
" transform="scale(0.015625)"/>
       <path id="DejaVuSans-6d" d="M 3328 2828 
Q 3544 3216 3844 3400 
Q 4144 3584 4550 3584 
Q 5097 3584 5394 3201 
Q 5691 2819 5691 2113 
L 5691 0 
L 5113 0 
L 5113 2094 
Q 5113 2597 4934 2840 
Q 4756 3084 4391 3084 
Q 3944 3084 3684 2787 
Q 3425 2491 3425 1978 
L 3425 0 
L 2847 0 
L 2847 2094 
Q 2847 2600 2669 2842 
Q 2491 3084 2119 3084 
Q 1678 3084 1418 2786 
Q 1159 2488 1159 1978 
L 1159 0 
L 581 0 
L 581 3500 
L 1159 3500 
L 1159 2956 
Q 1356 3278 1631 3431 
Q 1906 3584 2284 3584 
Q 2666 3584 2933 3390 
Q 3200 3197 3328 2828 
z
" transform="scale(0.015625)"/>
       <path id="DejaVuSans-5d" d="M 1947 4863 
L 1947 -844 
L 622 -844 
L 622 -397 
L 1369 -397 
L 1369 4416 
L 622 4416 
L 622 4863 
L 1947 4863 
z
" transform="scale(0.015625)"/>
      </defs>
      <use xlink:href="#DejaVuSans-50"/>
      <use xlink:href="#DejaVuSans-6f" x="56.677734"/>
      <use xlink:href="#DejaVuSans-73" x="117.859375"/>
      <use xlink:href="#DejaVuSans-20" x="169.958984"/>
      <use xlink:href="#DejaVuSans-4e" x="201.746094"/>
      <use xlink:href="#DejaVuSans-20" x="276.550781"/>
      <use xlink:href="#DejaVuSans-5b" x="308.337891"/>
      <use xlink:href="#DejaVuSans-6d" x="347.351562"/>
      <use xlink:href="#DejaVuSans-5d" x="444.763672"/>
     </g>
    </g>
   </g>
   <g id="line2d_15">
    <path d="M 67.16 117.2825 
L 70.282225 130.911767 
L 76.526675 112.925029 
L 79.6489 112.601198 
L 82.771125 112.792189 
L 85.89335 123.097057 
L 89.015575 130.639077 
L 92.1378 145.835406 
L 95.260025 113.499373 
L 98.38225 128.902399 
L 101.504475 133.355607 
L 104.6267 136.652724 
L 107.748925 117.279904 
L 110.87115 118.068626 
L 113.993375 98.735661 
L 117.1156 109.974818 
L 120.237825 106.826831 
L 123.36005 119.434838 
L 126.482275 89.724171 
L 129.6045 111.211957 
L 132.726725 108.493739 
L 135.84895 101.935938 
L 138.971175 99.870396 
L 142.0934 106.466771 
L 145.215625 110.888856 
L 148.33785 111.743273 
L 151.460075 114.574763 
L 154.5823 101.70623 
L 157.704525 75.253899 
L 160.82675 92.39807 
L 163.948975 117.333923 
L 167.0712 119.229381 
L 170.193425 84.387679 
L 173.31565 102.290272 
L 176.437875 84.333539 
L 179.5601 70.294167 
L 182.682325 90.020576 
L 185.80455 91.044323 
L 188.926775 77.721112 
L 192.049 94.198654 
L 195.171225 104.691192 
L 198.29345 117.141877 
L 201.415675 131.407874 
L 204.5379 136.114205 
L 207.660125 145.77222 
L 210.78235 135.084479 
L 213.904575 136.378659 
L 217.0268 123.574 
L 220.149025 137.251561 
L 223.27125 122.7913 
L 226.393475 104.925711 
L 229.5157 129.311819 
L 232.637925 117.275848 
L 235.76015 96.668983 
L 238.882375 113.809586 
L 242.0046 89.65688 
L 245.126825 88.258914 
L 248.24905 103.217743 
L 251.371275 106.699473 
L 254.4935 101.159949 
L 257.615725 103.236709 
L 260.73795 98.810537 
L 263.860175 114.819099 
L 266.9824 112.586399 
L 270.104625 131.30137 
L 273.22685 127.774549 
L 276.349075 134.586994 
L 279.4713 136.874662 
L 282.593525 111.809405 
L 285.71575 94.407634 
L 288.837975 88.501748 
L 291.9602 107.904436 
L 295.082425 113.37185 
L 298.20465 97.269969 
L 301.326875 99.210016 
L 304.4491 72.469184 
L 307.571325 78.331143 
L 310.69355 86.86178 
L 313.815775 100.693817 
L 316.938 105.412421 
L 320.060225 112.291713 
L 323.18245 105.554433 
L 326.304675 96.591612 
L 329.4269 112.801347 
L 332.549125 132.445126 
L 335.67135 153.324361 
L 338.793575 136.726836 
L 341.9158 143.856983 
L 345.038025 162.547316 
L 348.16025 142.240594 
L 351.282475 97.958567 
L 354.4047 97.938045 
L 357.526925 88.785929 
L 360.64915 93.450036 
L 363.771375 100.842919 
L 366.8936 93.82149 
L 370.015825 104.924393 
L 373.13805 106.446076 
L 376.260275 106.828502 
L 379.3825 120.134584 
L 382.504725 108.086491 
L 385.62695 113.921511 
L 388.749175 126.098482 
L 391.8714 117.974299 
L 394.993625 130.263516 
L 398.11585 127.139324 
L 401.238075 124.737631 
L 404.3603 108.229881 
L 407.482525 103.948126 
L 410.60475 108.104275 
L 413.726975 100.825164 
L 416.8492 88.20964 
L 419.971425 90.429718 
L 423.09365 100.380265 
L 426.215875 125.980178 
L 429.3381 141.91032 
L 432.460325 142.685523 
L 435.58255 145.818386 
L 438.704775 141.499934 
L 441.827 134.162892 
L 444.949225 122.004003 
L 448.07145 120.905573 
L 451.193675 113.325057 
L 454.3159 113.751453 
L 457.438125 141.770189 
L 460.56035 149.523953 
L 463.682575 143.939294 
L 466.8048 152.905478 
L 469.927025 135.258679 
L 473.04925 109.086156 
L 476.171475 93.98174 
L 479.2937 103.06193 
L 482.415925 89.037172 
L 485.53815 97.159493 
L 488.660375 110.90936 
L 491.7826 125.389824 
L 494.904825 131.889496 
L 498.02705 137.088954 
L 501.149275 132.735763 
L 504.2715 128.776274 
L 507.393725 127.501814 
L 510.51595 120.711265 
L 513.638175 105.666399 
L 516.7604 97.925001 
L 519.882625 125.235573 
L 523.00485 160.772451 
L 526.127075 140.693243 
L 529.2493 154.164194 
L 532.371525 148.616339 
L 535.49375 155.999474 
L 538.615975 169.415288 
L 541.7382 147.791184 
L 544.860425 127.681845 
L 547.98265 130.513977 
L 551.104875 160.304345 
L 554.2271 156.136745 
L 557.349325 139.722491 
L 560.47155 151.729774 
L 563.593775 139.11445 
L 566.716 132.056693 
L 569.838225 119.294463 
L 572.96045 116.417575 
L 576.082675 129.696302 
L 579.2049 111.754545 
L 582.327125 116.259104 
L 585.44935 118.674777 
L 588.571575 132.808477 
L 591.6938 137.01607 
L 594.816025 145.438214 
L 597.93825 141.707998 
L 601.060475 113.169352 
L 607.304925 150.50193 
L 610.42715 123.210046 
L 613.549375 124.060392 
L 616.6716 131.27124 
L 619.793825 114.36162 
L 622.91605 123.360056 
L 626.038275 98.577528 
L 629.1605 95.288309 
L 632.282725 109.367868 
L 635.40495 85.844373 
L 638.527175 104.824702 
L 641.6494 102.227054 
L 644.771625 106.017907 
L 647.89385 95.597521 
L 651.016075 84.18608 
L 654.1383 96.188567 
L 657.260525 116.242323 
L 660.38275 115.11789 
L 663.504975 128.346963 
L 666.6272 101.96695 
L 669.749425 105.966011 
L 672.87165 115.943229 
L 675.993875 116.170783 
L 679.1161 136.150011 
L 682.238325 145.746712 
L 685.36055 123.008174 
L 688.482775 129.263585 
L 688.482775 129.263585 
" clip-path="url(#p7b4ac76a73)" style="fill: none; stroke: #1f77b4; stroke-width: 1.5; stroke-linecap: square"/>
   </g>
   <g id="line2d_16">
    <path d="M 67.16 145.329034 
L 691.605 145.329034 
" clip-path="url(#p7b4ac76a73)" style="fill: none; stroke-dasharray: 5.55,2.4; stroke-dashoffset: 0; stroke: #ff0000; stroke-width: 1.5"/>
   </g>
   <g id="line2d_17">
    <path d="M 67.16 89.235966 
L 691.605 89.235966 
" clip-path="url(#p7b4ac76a73)" style="fill: none; stroke-dasharray: 5.55,2.4; stroke-dashoffset: 0; stroke: #ff0000; stroke-width: 1.5"/>
   </g>
   <g id="patch_3">
    <path d="M 67.16 187.765 
L 67.16 46.8 
" style="fill: none; stroke: #000000; stroke-width: 0.8; stroke-linejoin: miter; stroke-linecap: square"/>
   </g>
   <g id="patch_4">
    <path d="M 691.605 187.765 
L 691.605 46.8 
" style="fill: none; stroke: #000000; stroke-width: 0.8; stroke-linejoin: miter; stroke-linecap: square"/>
   </g>
   <g id="patch_5">
    <path d="M 67.16 187.765 
L 691.605 187.765 
" style="fill: none; stroke: #000000; stroke-width: 0.8; stroke-linejoin: miter; stroke-linecap: square"/>
   </g>
   <g id="patch_6">
    <path d="M 67.16 46.8 
L 691.605 46.8 
" style="fill: none; stroke: #000000; stroke-width: 0.8; stroke-linejoin: miter; stroke-linecap: square"/>
   </g>
  </g>
  <g id="axes_2">
   <g id="patch_7">
    <path d="M 67.16 347.35 
L 691.605 347.35 
L 691.605 206.385 
L 67.16 206.385 
z
" style="fill: #ffffff"/>
   </g>
   <g id="matplotlib.axis_3">
    <g id="xtick_10">
     <g id="line2d_18">
      <g>
       <use xlink:href="#me1f1fa900a" x="67.16" y="347.35" style="stroke: #000000; stroke-width: 0.8"/>
      </g>
     </g>
    </g>
    <g id="xtick_11">
     <g id="line2d_19">
      <g>
       <use xlink:href="#me1f1fa900a" x="145.215625" y="347.35" style="stroke: #000000; stroke-width: 0.8"/>
      </g>
     </g>
    </g>
    <g id="xtick_12">
     <g id="line2d_20">
      <g>
       <use xlink:href="#me1f1fa900a" x="223.27125" y="347.35" style="stroke: #000000; stroke-width: 0.8"/>
      </g>
     </g>
    </g>
    <g id="xtick_13">
     <g id="line2d_21">
      <g>
       <use xlink:href="#me1f1fa900a" x="301.326875" y="347.35" style="stroke: #000000; stroke-width: 0.8"/>
      </g>
     </g>
    </g>
    <g id="xtick_14">
     <g id="line2d_22">
      <g>
       <use xlink:href="#me1f1fa900a" x="379.3825" y="347.35" style="stroke: #000000; stroke-width: 0.8"/>
      </g>
     </g>
    </g>
    <g id="xtick_15">
     <g id="line2d_23">
      <g>
       <use xlink:href="#me1f1fa900a" x="457.438125" y="347.35" style="stroke: #000000; stroke-width: 0.8"/>
      </g>
     </g>
    </g>
    <g id="xtick_16">
     <g id="line2d_24">
      <g>
       <use xlink:href="#me1f1fa900a" x="535.49375" y="347.35" style="stroke: #000000; stroke-width: 0.8"/>
      </g>
     </g>
    </g>
    <g id="xtick_17">
     <g id="line2d_25">
      <g>
       <use xlink:href="#me1f1fa900a" x="613.549375" y="347.35" style="stroke: #000000; stroke-width: 0.8"/>
      </g>
     </g>
    </g>
    <g id="xtick_18">
     <g id="line2d_26">
      <g>
       <use xlink:href="#me1f1fa900a" x="691.605" y="347.35" style="stroke: #000000; stroke-width: 0.8"/>
      </g>
     </g>
    </g>
   </g>
   <g id="matplotlib.axis_4">
    <g id="ytick_6">
     <g id="line2d_27">
      <g>
       <use xlink:href="#mb5b0e336fc" x="67.16" y="332.558654" style="stroke: #000000; stroke-width: 0.8"/>
      </g>
     </g>
     <g id="text_7">
      <!-- -1.0 -->
      <g transform="translate(32.844688 337.87756) scale(0.14 -0.14)">
       <use xlink:href="#DejaVuSans-2d"/>
       <use xlink:href="#DejaVuSans-31" x="36.083984"/>
       <use xlink:href="#DejaVuSans-2e" x="99.707031"/>
       <use xlink:href="#DejaVuSans-30" x="131.494141"/>
      </g>
     </g>
    </g>
    <g id="ytick_7">
     <g id="line2d_28">
      <g>
       <use xlink:href="#mb5b0e336fc" x="67.16" y="304.713077" style="stroke: #000000; stroke-width: 0.8"/>
      </g>
     </g>
     <g id="text_8">
      <!-- -0.5 -->
      <g transform="translate(32.844688 310.031983) scale(0.14 -0.14)">
       <use xlink:href="#DejaVuSans-2d"/>
       <use xlink:href="#DejaVuSans-30" x="36.083984"/>
       <use xlink:href="#DejaVuSans-2e" x="99.707031"/>
       <use xlink:href="#DejaVuSans-35" x="131.494141"/>
      </g>
     </g>
    </g>
    <g id="ytick_8">
     <g id="line2d_29">
      <g>
       <use xlink:href="#mb5b0e336fc" x="67.16" y="276.8675" style="stroke: #000000; stroke-width: 0.8"/>
      </g>
     </g>
     <g id="text_9">
      <!-- 0.0 -->
      <g transform="translate(37.895625 282.186406) scale(0.14 -0.14)">
       <use xlink:href="#DejaVuSans-30"/>
       <use xlink:href="#DejaVuSans-2e" x="63.623047"/>
       <use xlink:href="#DejaVuSans-30" x="95.410156"/>
      </g>
     </g>
    </g>
    <g id="ytick_9">
     <g id="line2d_30">
      <g>
       <use xlink:href="#mb5b0e336fc" x="67.16" y="249.021923" style="stroke: #000000; stroke-width: 0.8"/>
      </g>
     </g>
     <g id="text_10">
      <!-- 0.5 -->
      <g transform="translate(37.895625 254.340829) scale(0.14 -0.14)">
       <use xlink:href="#DejaVuSans-30"/>
       <use xlink:href="#DejaVuSans-2e" x="63.623047"/>
       <use xlink:href="#DejaVuSans-35" x="95.410156"/>
      </g>
     </g>
    </g>
    <g id="ytick_10">
     <g id="line2d_31">
      <g>
       <use xlink:href="#mb5b0e336fc" x="67.16" y="221.176346" style="stroke: #000000; stroke-width: 0.8"/>
      </g>
     </g>
     <g id="text_11">
      <!-- 1.0 -->
      <g transform="translate(37.895625 226.495252) scale(0.14 -0.14)">
       <use xlink:href="#DejaVuSans-31"/>
       <use xlink:href="#DejaVuSans-2e" x="63.623047"/>
       <use xlink:href="#DejaVuSans-30" x="95.410156"/>
      </g>
     </g>
    </g>
    <g id="text_12">
     <!-- Pos E [m] -->
     <g transform="translate(25.933125 309.917344) rotate(-90) scale(0.14 -0.14)">
      <defs>
       <path id="DejaVuSans-45" d="M 628 4666 
L 3578 4666 
L 3578 4134 
L 1259 4134 
L 1259 2753 
L 3481 2753 
L 3481 2222 
L 1259 2222 
L 1259 531 
L 3634 531 
L 3634 0 
L 628 0 
L 628 4666 
z
" transform="scale(0.015625)"/>
      </defs>
      <use xlink:href="#DejaVuSans-50"/>
      <use xlink:href="#DejaVuSans-6f" x="56.677734"/>
      <use xlink:href="#DejaVuSans-73" x="117.859375"/>
      <use xlink:href="#DejaVuSans-20" x="169.958984"/>
      <use xlink:href="#DejaVuSans-45" x="201.746094"/>
      <use xlink:href="#DejaVuSans-20" x="264.929688"/>
      <use xlink:href="#DejaVuSans-5b" x="296.716797"/>
      <use xlink:href="#DejaVuSans-6d" x="335.730469"/>
      <use xlink:href="#DejaVuSans-5d" x="433.142578"/>
     </g>
    </g>
   </g>
   <g id="line2d_32">
    <path d="M 67.16 276.8675 
L 70.282225 261.959643 
L 73.40445 251.662133 
L 76.526675 251.31318 
L 79.6489 247.576336 
L 82.771125 264.044873 
L 85.89335 285.646258 
L 89.015575 266.816807 
L 92.1378 273.014801 
L 95.260025 276.472815 
L 98.38225 259.977506 
L 101.504475 256.393479 
L 104.6267 255.278052 
L 107.748925 235.091436 
L 110.87115 252.93727 
L 113.993375 249.277841 
L 117.1156 256.698797 
L 120.237825 260.029328 
L 123.36005 247.788149 
L 126.482275 250.208745 
L 129.6045 252.051394 
L 132.726725 247.431411 
L 135.84895 260.679174 
L 138.971175 276.331004 
L 142.0934 290.013758 
L 145.215625 309.928141 
L 148.33785 276.961302 
L 151.460075 287.080651 
L 154.5823 284.625885 
L 157.704525 283.13771 
L 160.82675 275.182045 
L 163.948975 263.385355 
L 167.0712 254.456056 
L 170.193425 265.330065 
L 173.31565 269.668859 
L 176.437875 267.982344 
L 179.5601 272.896182 
L 182.682325 255.208902 
L 185.80455 254.803361 
L 188.926775 252.417047 
L 192.049 252.043313 
L 195.171225 246.403564 
L 198.29345 254.110736 
L 201.415675 277.558875 
L 204.5379 275.546602 
L 207.660125 285.248992 
L 210.78235 290.49982 
L 213.904575 280.693163 
L 217.0268 265.017589 
L 220.149025 267.274824 
L 223.27125 266.280265 
L 226.393475 249.806635 
L 229.5157 254.765909 
L 232.637925 232.175236 
L 235.76015 239.403498 
L 238.882375 273.150072 
L 242.0046 269.997586 
L 245.126825 270.983981 
L 248.24905 260.677365 
L 251.371275 259.711068 
L 254.4935 268.577804 
L 257.615725 287.97316 
L 260.73795 290.486772 
L 263.860175 298.773967 
L 266.9824 301.01778 
L 270.104625 288.223157 
L 273.22685 265.397085 
L 276.349075 263.155364 
L 279.4713 280.970985 
L 282.593525 276.202376 
L 285.71575 263.81379 
L 288.837975 275.606907 
L 291.9602 279.591974 
L 295.082425 280.82879 
L 298.20465 290.829886 
L 301.326875 281.553825 
L 304.4491 282.976502 
L 307.571325 277.823749 
L 310.69355 289.078689 
L 313.815775 292.511343 
L 316.938 281.333212 
L 320.060225 285.285084 
L 323.18245 264.190769 
L 326.304675 273.05874 
L 329.4269 273.43316 
L 332.549125 265.839552 
L 335.67135 287.593822 
L 338.793575 308.317109 
L 341.9158 320.47445 
L 345.038025 295.936875 
L 348.16025 297.087207 
L 351.282475 261.979553 
L 354.4047 271.856623 
L 357.526925 272.134801 
L 360.64915 257.327101 
L 363.771375 241.392703 
L 366.8936 229.879167 
L 370.015825 232.615593 
L 373.13805 238.370485 
L 376.260275 248.680263 
L 379.3825 254.707347 
L 382.504725 274.472375 
L 385.62695 291.964117 
L 388.749175 294.448586 
L 391.8714 296.612595 
L 394.993625 300.217619 
L 398.11585 288.578677 
L 401.238075 275.980359 
L 404.3603 276.463798 
L 407.482525 261.214387 
L 410.60475 280.436262 
L 413.726975 284.722469 
L 416.8492 293.752286 
L 419.971425 313.434045 
L 423.09365 306.813168 
L 426.215875 300.932489 
L 429.3381 276.905878 
L 432.460325 268.911704 
L 435.58255 282.9703 
L 438.704775 261.149719 
L 441.827 252.241266 
L 444.949225 253.995087 
L 448.07145 265.779015 
L 451.193675 283.772849 
L 454.3159 290.383862 
L 457.438125 277.566176 
L 460.56035 257.855687 
L 463.682575 246.972986 
L 466.8048 263.145957 
L 469.927025 283.562678 
L 473.04925 284.228675 
L 476.171475 305.879206 
L 479.2937 297.1192 
L 482.415925 294.50133 
L 485.53815 295.50397 
L 488.660375 308.882759 
L 491.7826 294.103287 
L 494.904825 294.273862 
L 498.02705 301.768324 
L 501.149275 327.026485 
L 504.2715 312.588199 
L 507.393725 279.540679 
L 510.51595 255.730623 
L 513.638175 263.62477 
L 516.7604 273.089555 
L 519.882625 268.751335 
L 523.00485 282.74695 
L 526.127075 278.513906 
L 529.2493 269.583851 
L 532.371525 257.461713 
L 538.615975 270.904201 
L 541.7382 284.027471 
L 544.860425 293.050887 
L 547.98265 292.092038 
L 551.104875 283.531092 
L 554.2271 270.132699 
L 557.349325 279.856095 
L 560.47155 261.036231 
L 563.593775 267.274947 
L 566.716 269.785508 
L 569.838225 280.288646 
L 572.96045 307.565006 
L 576.082675 289.181504 
L 579.2049 275.559646 
L 582.327125 276.819825 
L 585.44935 274.071055 
L 588.571575 266.990557 
L 591.6938 285.973662 
L 594.816025 288.650617 
L 597.93825 274.793086 
L 601.060475 287.611066 
L 604.1827 279.492205 
L 607.304925 292.081297 
L 610.42715 280.418953 
L 613.549375 276.9534 
L 616.6716 292.739508 
L 619.793825 272.57517 
L 622.91605 278.915621 
L 626.038275 285.001975 
L 629.1605 277.894099 
L 632.282725 261.357762 
L 635.40495 274.170509 
L 638.527175 272.089338 
L 641.6494 266.286972 
L 644.771625 258.977002 
L 647.89385 259.804112 
L 651.016075 267.250828 
L 654.1383 278.483874 
L 657.260525 276.203138 
L 660.38275 287.315865 
L 663.504975 316.682094 
L 666.6272 299.015565 
L 669.749425 278.546146 
L 672.87165 300.498541 
L 675.993875 301.749011 
L 679.1161 283.21349 
L 682.238325 252.219634 
L 685.36055 253.102989 
L 688.482775 264.156657 
L 688.482775 264.156657 
" clip-path="url(#p835ad4d8bc)" style="fill: none; stroke: #1f77b4; stroke-width: 1.5; stroke-linecap: square"/>
   </g>
   <g id="line2d_33">
    <path d="M 67.16 301.411517 
L 691.605 301.411517 
" clip-path="url(#p835ad4d8bc)" style="fill: none; stroke-dasharray: 5.55,2.4; stroke-dashoffset: 0; stroke: #ff0000; stroke-width: 1.5"/>
   </g>
   <g id="line2d_34">
    <path d="M 67.16 252.323483 
L 691.605 252.323483 
" clip-path="url(#p835ad4d8bc)" style="fill: none; stroke-dasharray: 5.55,2.4; stroke-dashoffset: 0; stroke: #ff0000; stroke-width: 1.5"/>
   </g>
   <g id="patch_8">
    <path d="M 67.16 347.35 
L 67.16 206.385 
" style="fill: none; stroke: #000000; stroke-width: 0.8; stroke-linejoin: miter; stroke-linecap: square"/>
   </g>
   <g id="patch_9">
    <path d="M 691.605 347.35 
L 691.605 206.385 
" style="fill: none; stroke: #000000; stroke-width: 0.8; stroke-linejoin: miter; stroke-linecap: square"/>
   </g>
   <g id="patch_10">
    <path d="M 67.16 347.35 
L 691.605 347.35 
" style="fill: none; stroke: #000000; stroke-width: 0.8; stroke-linejoin: miter; stroke-linecap: square"/>
   </g>
   <g id="patch_11">
    <path d="M 67.16 206.385 
L 691.605 206.385 
" style="fill: none; stroke: #000000; stroke-width: 0.8; stroke-linejoin: miter; stroke-linecap: square"/>
   </g>
  </g>
  <g id="axes_3">
   <g id="patch_12">
    <path d="M 67.16 506.935 
L 691.605 506.935 
L 691.605 365.97 
L 67.16 365.97 
z
" style="fill: #ffffff"/>
   </g>
   <g id="matplotlib.axis_5">
    <g id="xtick_19">
     <g id="line2d_35">
      <g>
       <use xlink:href="#me1f1fa900a" x="67.16" y="506.935" style="stroke: #000000; stroke-width: 0.8"/>
      </g>
     </g>
    </g>
    <g id="xtick_20">
     <g id="line2d_36">
      <g>
       <use xlink:href="#me1f1fa900a" x="145.215625" y="506.935" style="stroke: #000000; stroke-width: 0.8"/>
      </g>
     </g>
    </g>
    <g id="xtick_21">
     <g id="line2d_37">
      <g>
       <use xlink:href="#me1f1fa900a" x="223.27125" y="506.935" style="stroke: #000000; stroke-width: 0.8"/>
      </g>
     </g>
    </g>
    <g id="xtick_22">
     <g id="line2d_38">
      <g>
       <use xlink:href="#me1f1fa900a" x="301.326875" y="506.935" style="stroke: #000000; stroke-width: 0.8"/>
      </g>
     </g>
    </g>
    <g id="xtick_23">
     <g id="line2d_39">
      <g>
       <use xlink:href="#me1f1fa900a" x="379.3825" y="506.935" style="stroke: #000000; stroke-width: 0.8"/>
      </g>
     </g>
    </g>
    <g id="xtick_24">
     <g id="line2d_40">
      <g>
       <use xlink:href="#me1f1fa900a" x="457.438125" y="506.935" style="stroke: #000000; stroke-width: 0.8"/>
      </g>
     </g>
    </g>
    <g id="xtick_25">
     <g id="line2d_41">
      <g>
       <use xlink:href="#me1f1fa900a" x="535.49375" y="506.935" style="stroke: #000000; stroke-width: 0.8"/>
      </g>
     </g>
    </g>
    <g id="xtick_26">
     <g id="line2d_42">
      <g>
       <use xlink:href="#me1f1fa900a" x="613.549375" y="506.935" style="stroke: #000000; stroke-width: 0.8"/>
      </g>
     </g>
    </g>
    <g id="xtick_27">
     <g id="line2d_43">
      <g>
       <use xlink:href="#me1f1fa900a" x="691.605" y="506.935" style="stroke: #000000; stroke-width: 0.8"/>
      </g>
     </g>
    </g>
   </g>
   <g id="matplotlib.axis_6">
    <g id="ytick_11">
     <g id="line2d_44">
      <g>
       <use xlink:href="#mb5b0e336fc" x="67.16" y="501.939202" style="stroke: #000000; stroke-width: 0.8"/>
      </g>
     </g>
     <g id="text_13">
      <!-- -0.3 -->
      <g transform="translate(32.844688 507.258108) scale(0.14 -0.14)">
       <defs>
        <path id="DejaVuSans-33" d="M 2597 2516 
Q 3050 2419 3304 2112 
Q 3559 1806 3559 1356 
Q 3559 666 3084 287 
Q 2609 -91 1734 -91 
Q 1441 -91 1130 -33 
Q 819 25 488 141 
L 488 750 
Q 750 597 1062 519 
Q 1375 441 1716 441 
Q 2309 441 2620 675 
Q 2931 909 2931 1356 
Q 2931 1769 2642 2001 
Q 2353 2234 1838 2234 
L 1294 2234 
L 1294 2753 
L 1863 2753 
Q 2328 2753 2575 2939 
Q 2822 3125 2822 3475 
Q 2822 3834 2567 4026 
Q 2313 4219 1838 4219 
Q 1578 4219 1281 4162 
Q 984 4106 628 3988 
L 628 4550 
Q 988 4650 1302 4700 
Q 1616 4750 1894 4750 
Q 2613 4750 3031 4423 
Q 3450 4097 3450 3541 
Q 3450 3153 3228 2886 
Q 3006 2619 2597 2516 
z
" transform="scale(0.015625)"/>
       </defs>
       <use xlink:href="#DejaVuSans-2d"/>
       <use xlink:href="#DejaVuSans-30" x="36.083984"/>
       <use xlink:href="#DejaVuSans-2e" x="99.707031"/>
       <use xlink:href="#DejaVuSans-33" x="131.494141"/>
      </g>
     </g>
    </g>
    <g id="ytick_12">
     <g id="line2d_45">
      <g>
       <use xlink:href="#mb5b0e336fc" x="67.16" y="480.110301" style="stroke: #000000; stroke-width: 0.8"/>
      </g>
     </g>
     <g id="text_14">
      <!-- -0.2 -->
      <g transform="translate(32.844688 485.429207) scale(0.14 -0.14)">
       <defs>
        <path id="DejaVuSans-32" d="M 1228 531 
L 3431 531 
L 3431 0 
L 469 0 
L 469 531 
Q 828 903 1448 1529 
Q 2069 2156 2228 2338 
Q 2531 2678 2651 2914 
Q 2772 3150 2772 3378 
Q 2772 3750 2511 3984 
Q 2250 4219 1831 4219 
Q 1534 4219 1204 4116 
Q 875 4013 500 3803 
L 500 4441 
Q 881 4594 1212 4672 
Q 1544 4750 1819 4750 
Q 2544 4750 2975 4387 
Q 3406 4025 3406 3419 
Q 3406 3131 3298 2873 
Q 3191 2616 2906 2266 
Q 2828 2175 2409 1742 
Q 1991 1309 1228 531 
z
" transform="scale(0.015625)"/>
       </defs>
       <use xlink:href="#DejaVuSans-2d"/>
       <use xlink:href="#DejaVuSans-30" x="36.083984"/>
       <use xlink:href="#DejaVuSans-2e" x="99.707031"/>
       <use xlink:href="#DejaVuSans-32" x="131.494141"/>
      </g>
     </g>
    </g>
    <g id="ytick_13">
     <g id="line2d_46">
      <g>
       <use xlink:href="#mb5b0e336fc" x="67.16" y="458.281401" style="stroke: #000000; stroke-width: 0.8"/>
      </g>
     </g>
     <g id="text_15">
      <!-- -0.1 -->
      <g transform="translate(32.844688 463.600307) scale(0.14 -0.14)">
       <use xlink:href="#DejaVuSans-2d"/>
       <use xlink:href="#DejaVuSans-30" x="36.083984"/>
       <use xlink:href="#DejaVuSans-2e" x="99.707031"/>
       <use xlink:href="#DejaVuSans-31" x="131.494141"/>
      </g>
     </g>
    </g>
    <g id="ytick_14">
     <g id="line2d_47">
      <g>
       <use xlink:href="#mb5b0e336fc" x="67.16" y="436.4525" style="stroke: #000000; stroke-width: 0.8"/>
      </g>
     </g>
     <g id="text_16">
      <!-- 0.0 -->
      <g transform="translate(37.895625 441.771406) scale(0.14 -0.14)">
       <use xlink:href="#DejaVuSans-30"/>
       <use xlink:href="#DejaVuSans-2e" x="63.623047"/>
       <use xlink:href="#DejaVuSans-30" x="95.410156"/>
      </g>
     </g>
    </g>
    <g id="ytick_15">
     <g id="line2d_48">
      <g>
       <use xlink:href="#mb5b0e336fc" x="67.16" y="414.623599" style="stroke: #000000; stroke-width: 0.8"/>
      </g>
     </g>
     <g id="text_17">
      <!-- 0.1 -->
      <g transform="translate(37.895625 419.942506) scale(0.14 -0.14)">
       <use xlink:href="#DejaVuSans-30"/>
       <use xlink:href="#DejaVuSans-2e" x="63.623047"/>
       <use xlink:href="#DejaVuSans-31" x="95.410156"/>
      </g>
     </g>
    </g>
    <g id="ytick_16">
     <g id="line2d_49">
      <g>
       <use xlink:href="#mb5b0e336fc" x="67.16" y="392.794699" style="stroke: #000000; stroke-width: 0.8"/>
      </g>
     </g>
     <g id="text_18">
      <!-- 0.2 -->
      <g transform="translate(37.895625 398.113605) scale(0.14 -0.14)">
       <use xlink:href="#DejaVuSans-30"/>
       <use xlink:href="#DejaVuSans-2e" x="63.623047"/>
       <use xlink:href="#DejaVuSans-32" x="95.410156"/>
      </g>
     </g>
    </g>
    <g id="ytick_17">
     <g id="line2d_50">
      <g>
       <use xlink:href="#mb5b0e336fc" x="67.16" y="370.965798" style="stroke: #000000; stroke-width: 0.8"/>
      </g>
     </g>
     <g id="text_19">
      <!-- 0.3 -->
      <g transform="translate(37.895625 376.284705) scale(0.14 -0.14)">
       <use xlink:href="#DejaVuSans-30"/>
       <use xlink:href="#DejaVuSans-2e" x="63.623047"/>
       <use xlink:href="#DejaVuSans-33" x="95.410156"/>
      </g>
     </g>
    </g>
    <g id="text_20">
     <!-- Vel N [m/s] -->
     <g transform="translate(25.933125 474.921875) rotate(-90) scale(0.14 -0.14)">
      <defs>
       <path id="DejaVuSans-56" d="M 1831 0 
L 50 4666 
L 709 4666 
L 2188 738 
L 3669 4666 
L 4325 4666 
L 2547 0 
L 1831 0 
z
" transform="scale(0.015625)"/>
       <path id="DejaVuSans-65" d="M 3597 1894 
L 3597 1613 
L 953 1613 
Q 991 1019 1311 708 
Q 1631 397 2203 397 
Q 2534 397 2845 478 
Q 3156 559 3463 722 
L 3463 178 
Q 3153 47 2828 -22 
Q 2503 -91 2169 -91 
Q 1331 -91 842 396 
Q 353 884 353 1716 
Q 353 2575 817 3079 
Q 1281 3584 2069 3584 
Q 2775 3584 3186 3129 
Q 3597 2675 3597 1894 
z
M 3022 2063 
Q 3016 2534 2758 2815 
Q 2500 3097 2075 3097 
Q 1594 3097 1305 2825 
Q 1016 2553 972 2059 
L 3022 2063 
z
" transform="scale(0.015625)"/>
       <path id="DejaVuSans-6c" d="M 603 4863 
L 1178 4863 
L 1178 0 
L 603 0 
L 603 4863 
z
" transform="scale(0.015625)"/>
       <path id="DejaVuSans-2f" d="M 1625 4666 
L 2156 4666 
L 531 -594 
L 0 -594 
L 1625 4666 
z
" transform="scale(0.015625)"/>
      </defs>
      <use xlink:href="#DejaVuSans-56"/>
      <use xlink:href="#DejaVuSans-65" x="60.658203"/>
      <use xlink:href="#DejaVuSans-6c" x="122.181641"/>
      <use xlink:href="#DejaVuSans-20" x="149.964844"/>
      <use xlink:href="#DejaVuSans-4e" x="181.751953"/>
      <use xlink:href="#DejaVuSans-20" x="256.556641"/>
      <use xlink:href="#DejaVuSans-5b" x="288.34375"/>
      <use xlink:href="#DejaVuSans-6d" x="327.357422"/>
      <use xlink:href="#DejaVuSans-2f" x="424.769531"/>
      <use xlink:href="#DejaVuSans-73" x="458.460938"/>
      <use xlink:href="#DejaVuSans-5d" x="510.560547"/>
     </g>
    </g>
   </g>
   <g id="line2d_51">
    <path d="M 67.16 436.4525 
L 70.282225 436.37258 
L 73.40445 434.366421 
L 76.526675 429.163421 
L 79.6489 430.267716 
L 82.771125 431.674428 
L 85.89335 443.043826 
L 89.015575 447.783238 
L 92.1378 458.352148 
L 95.260025 419.960958 
L 98.38225 437.796243 
L 101.504475 440.136023 
L 104.6267 440.598634 
L 107.748925 419.280921 
L 110.87115 422.877924 
L 113.993375 406.19904 
L 117.1156 423.128406 
L 120.237825 421.528547 
L 123.36005 435.256687 
L 126.482275 404.737849 
L 129.6045 431.342351 
L 132.726725 427.384346 
L 135.84895 420.753205 
L 138.971175 420.130042 
L 142.0934 427.821084 
L 145.215625 431.199375 
L 148.33785 430.138467 
L 151.460075 431.155666 
L 154.5823 416.839926 
L 157.704525 393.468133 
L 163.948975 443.094789 
L 167.0712 439.177072 
L 170.193425 401.277239 
L 173.31565 424.066322 
L 176.437875 406.301244 
L 179.5601 397.134489 
L 182.682325 422.61308 
L 185.80455 423.144679 
L 188.926775 409.809704 
L 192.049 428.513534 
L 195.171225 436.277995 
L 198.29345 443.710984 
L 201.415675 450.77291 
L 204.5379 446.736632 
L 207.660125 448.510449 
L 210.78235 430.38976 
L 213.904575 428.695509 
L 217.0268 414.029034 
L 220.149025 428.650422 
L 223.27125 412.406031 
L 226.393475 397.429013 
L 229.5157 426.860196 
L 232.637925 413.436146 
L 235.76015 395.589829 
L 238.882375 418.671892 
L 242.0046 396.035584 
L 245.126825 401.386273 
L 248.24905 420.862862 
L 251.371275 424.035557 
L 254.4935 417.775293 
L 257.615725 420.553037 
L 260.73795 416.414892 
L 263.860175 432.943621 
L 266.9824 427.565809 
L 270.104625 443.696075 
L 273.22685 434.228233 
L 276.349075 437.307885 
L 279.4713 435.296803 
L 282.593525 407.868763 
L 285.71575 395.438509 
L 288.837975 397.495482 
L 291.9602 423.177006 
L 295.082425 428.546833 
L 298.20465 411.977301 
L 301.326875 417.293583 
L 304.4491 393.918278 
L 307.571325 408.194291 
L 310.69355 421.15736 
L 313.815775 435.682699 
L 316.938 437.609262 
L 320.060225 441.176847 
L 323.18245 430.9046 
L 326.304675 421.488064 
L 329.4269 438.788613 
L 332.549125 454.683726 
L 335.67135 467.471659 
L 338.793575 441.143967 
L 341.9158 444.861372 
L 345.038025 458.693071 
L 348.16025 431.676473 
L 351.282475 389.464167 
L 354.4047 401.272466 
L 357.526925 401.245124 
L 360.64915 414.527507 
L 363.771375 426.863875 
L 366.8936 422.188965 
L 370.015825 436.220146 
L 373.13805 437.37407 
L 376.260275 437.267854 
L 379.3825 449.646509 
L 382.504725 434.583732 
L 385.62695 440.882892 
L 388.749175 451.618972 
L 391.8714 440.182065 
L 394.993625 451.50925 
L 398.11585 445.153716 
L 401.238075 441.394293 
L 404.3603 425.384992 
L 407.482525 425.607544 
L 410.60475 433.945258 
L 413.726975 429.214202 
L 416.8492 420.851016 
L 419.971425 429.07645 
L 423.09365 442.514728 
L 426.215875 467.259164 
L 429.3381 476.051793 
L 432.460325 468.095433 
L 435.58255 464.719445 
L 441.827 445.752651 
L 444.949225 434.376754 
L 448.07145 436.809874 
L 451.193675 432.505376 
L 454.3159 437.131941 
L 457.438125 466.861532 
L 460.56035 469.136293 
L 463.682575 458.17423 
L 466.8048 464.21206 
L 469.927025 443.31727 
L 473.04925 420.193117 
L 476.171475 414.118063 
L 479.2937 432.847518 
L 482.415925 424.446669 
L 485.53815 439.547693 
L 488.660375 455.885705 
L 491.7826 468.448836 
L 494.904825 469.983625 
L 498.02705 469.91153 
L 501.149275 460.814107 
L 504.2715 454.667136 
L 507.393725 452.829474 
L 510.51595 446.288575 
L 513.638175 433.737885 
L 516.7604 431.660522 
L 523.00485 494.483959 
L 526.127075 463.854622 
L 529.2493 473.700591 
L 532.371525 462.706157 
L 535.49375 467.08589 
L 538.615975 475.995424 
L 541.7382 449.050802 
L 544.860425 431.02182 
L 547.98265 439.837055 
L 551.104875 471.863694 
L 554.2271 462.629254 
L 557.349325 444.266749 
L 560.47155 458.042752 
L 563.593775 444.504059 
L 566.716 439.97765 
L 569.838225 431.229517 
L 572.96045 434.276894 
L 576.082675 451.812486 
L 579.2049 434.683319 
L 582.327125 443.628557 
L 585.44935 448.033926 
L 588.571575 462.307078 
L 591.6938 463.087935 
L 594.816025 467.588132 
L 597.93825 459.181609 
L 601.060475 429.393749 
L 604.1827 453.072485 
L 607.304925 469.439416 
L 610.42715 437.711843 
L 613.549375 441.500083 
L 616.6716 450.191634 
L 619.793825 433.388705 
L 622.91605 445.819659 
L 626.038275 422.510118 
L 629.1605 426.030384 
L 632.282725 444.998888 
L 635.40495 422.762758 
L 638.527175 447.062935 
L 641.6494 443.936898 
L 644.771625 447.6362 
L 647.89385 436.642222 
L 651.016075 427.625236 
L 654.1383 443.280055 
L 657.260525 462.121068 
L 660.38275 455.420931 
L 663.504975 464.114381 
L 666.6272 432.526305 
L 669.749425 438.504569 
L 672.87165 448.374718 
L 675.993875 446.074409 
L 679.1161 463.082342 
L 682.238325 465.333541 
L 685.36055 436.01533 
L 688.482775 442.309557 
L 688.482775 442.309557 
" clip-path="url(#p0479f9c380)" style="fill: none; stroke: #1f77b4; stroke-width: 1.5; stroke-linecap: square"/>
   </g>
   <g id="line2d_52">
    <path d="M 67.16 455.4436 
L 691.605 455.4436 
" clip-path="url(#p0479f9c380)" style="fill: none; stroke-dasharray: 5.55,2.4; stroke-dashoffset: 0; stroke: #ff0000; stroke-width: 1.5"/>
   </g>
   <g id="line2d_53">
    <path d="M 67.16 417.4614 
L 691.605 417.4614 
" clip-path="url(#p0479f9c380)" style="fill: none; stroke-dasharray: 5.55,2.4; stroke-dashoffset: 0; stroke: #ff0000; stroke-width: 1.5"/>
   </g>
   <g id="patch_13">
    <path d="M 67.16 506.935 
L 67.16 365.97 
" style="fill: none; stroke: #000000; stroke-width: 0.8; stroke-linejoin: miter; stroke-linecap: square"/>
   </g>
   <g id="patch_14">
    <path d="M 691.605 506.935 
L 691.605 365.97 
" style="fill: none; stroke: #000000; stroke-width: 0.8; stroke-linejoin: miter; stroke-linecap: square"/>
   </g>
   <g id="patch_15">
    <path d="M 67.16 506.935 
L 691.605 506.935 
" style="fill: none; stroke: #000000; stroke-width: 0.8; stroke-linejoin: miter; stroke-linecap: square"/>
   </g>
   <g id="patch_16">
    <path d="M 67.16 365.97 
L 691.605 365.97 
" style="fill: none; stroke: #000000; stroke-width: 0.8; stroke-linejoin: miter; stroke-linecap: square"/>
   </g>
  </g>
  <g id="axes_4">
   <g id="patch_17">
    <path d="M 67.16 666.52 
L 691.605 666.52 
L 691.605 525.555 
L 67.16 525.555 
z
" style="fill: #ffffff"/>
   </g>
   <g id="matplotlib.axis_7">
    <g id="xtick_28">
     <g id="line2d_54">
      <g>
       <use xlink:href="#me1f1fa900a" x="67.16" y="666.52" style="stroke: #000000; stroke-width: 0.8"/>
      </g>
     </g>
     <g id="text_21">
      <!-- 0 -->
      <g transform="translate(62.70625 684.157812) scale(0.14 -0.14)">
       <use xlink:href="#DejaVuSans-30"/>
      </g>
     </g>
    </g>
    <g id="xtick_29">
     <g id="line2d_55">
      <g>
       <use xlink:href="#me1f1fa900a" x="145.215625" y="666.52" style="stroke: #000000; stroke-width: 0.8"/>
      </g>
     </g>
     <g id="text_22">
      <!-- 25 -->
      <g transform="translate(136.308125 684.157812) scale(0.14 -0.14)">
       <use xlink:href="#DejaVuSans-32"/>
       <use xlink:href="#DejaVuSans-35" x="63.623047"/>
      </g>
     </g>
    </g>
    <g id="xtick_30">
     <g id="line2d_56">
      <g>
       <use xlink:href="#me1f1fa900a" x="223.27125" y="666.52" style="stroke: #000000; stroke-width: 0.8"/>
      </g>
     </g>
     <g id="text_23">
      <!-- 50 -->
      <g transform="translate(214.36375 684.157812) scale(0.14 -0.14)">
       <use xlink:href="#DejaVuSans-35"/>
       <use xlink:href="#DejaVuSans-30" x="63.623047"/>
      </g>
     </g>
    </g>
    <g id="xtick_31">
     <g id="line2d_57">
      <g>
       <use xlink:href="#me1f1fa900a" x="301.326875" y="666.52" style="stroke: #000000; stroke-width: 0.8"/>
      </g>
     </g>
     <g id="text_24">
      <!-- 75 -->
      <g transform="translate(292.419375 684.157812) scale(0.14 -0.14)">
       <defs>
        <path id="DejaVuSans-37" d="M 525 4666 
L 3525 4666 
L 3525 4397 
L 1831 0 
L 1172 0 
L 2766 4134 
L 525 4134 
L 525 4666 
z
" transform="scale(0.015625)"/>
       </defs>
       <use xlink:href="#DejaVuSans-37"/>
       <use xlink:href="#DejaVuSans-35" x="63.623047"/>
      </g>
     </g>
    </g>
    <g id="xtick_32">
     <g id="line2d_58">
      <g>
       <use xlink:href="#me1f1fa900a" x="379.3825" y="666.52" style="stroke: #000000; stroke-width: 0.8"/>
      </g>
     </g>
     <g id="text_25">
      <!-- 100 -->
      <g transform="translate(366.02125 684.157812) scale(0.14 -0.14)">
       <use xlink:href="#DejaVuSans-31"/>
       <use xlink:href="#DejaVuSans-30" x="63.623047"/>
       <use xlink:href="#DejaVuSans-30" x="127.246094"/>
      </g>
     </g>
    </g>
    <g id="xtick_33">
     <g id="line2d_59">
      <g>
       <use xlink:href="#me1f1fa900a" x="457.438125" y="666.52" style="stroke: #000000; stroke-width: 0.8"/>
      </g>
     </g>
     <g id="text_26">
      <!-- 125 -->
      <g transform="translate(444.076875 684.157812) scale(0.14 -0.14)">
       <use xlink:href="#DejaVuSans-31"/>
       <use xlink:href="#DejaVuSans-32" x="63.623047"/>
       <use xlink:href="#DejaVuSans-35" x="127.246094"/>
      </g>
     </g>
    </g>
    <g id="xtick_34">
     <g id="line2d_60">
      <g>
       <use xlink:href="#me1f1fa900a" x="535.49375" y="666.52" style="stroke: #000000; stroke-width: 0.8"/>
      </g>
     </g>
     <g id="text_27">
      <!-- 150 -->
      <g transform="translate(522.1325 684.157812) scale(0.14 -0.14)">
       <use xlink:href="#DejaVuSans-31"/>
       <use xlink:href="#DejaVuSans-35" x="63.623047"/>
       <use xlink:href="#DejaVuSans-30" x="127.246094"/>
      </g>
     </g>
    </g>
    <g id="xtick_35">
     <g id="line2d_61">
      <g>
       <use xlink:href="#me1f1fa900a" x="613.549375" y="666.52" style="stroke: #000000; stroke-width: 0.8"/>
      </g>
     </g>
     <g id="text_28">
      <!-- 175 -->
      <g transform="translate(600.188125 684.157812) scale(0.14 -0.14)">
       <use xlink:href="#DejaVuSans-31"/>
       <use xlink:href="#DejaVuSans-37" x="63.623047"/>
       <use xlink:href="#DejaVuSans-35" x="127.246094"/>
      </g>
     </g>
    </g>
    <g id="xtick_36">
     <g id="line2d_62">
      <g>
       <use xlink:href="#me1f1fa900a" x="691.605" y="666.52" style="stroke: #000000; stroke-width: 0.8"/>
      </g>
     </g>
     <g id="text_29">
      <!-- 200 -->
      <g transform="translate(678.24375 684.157812) scale(0.14 -0.14)">
       <use xlink:href="#DejaVuSans-32"/>
       <use xlink:href="#DejaVuSans-30" x="63.623047"/>
       <use xlink:href="#DejaVuSans-30" x="127.246094"/>
      </g>
     </g>
    </g>
    <g id="text_30">
     <!-- Timestamp [s] -->
     <g transform="translate(328.979219 701.707188) scale(0.14 -0.14)">
      <defs>
       <path id="DejaVuSans-54" d="M -19 4666 
L 3928 4666 
L 3928 4134 
L 2272 4134 
L 2272 0 
L 1638 0 
L 1638 4134 
L -19 4134 
L -19 4666 
z
" transform="scale(0.015625)"/>
       <path id="DejaVuSans-69" d="M 603 3500 
L 1178 3500 
L 1178 0 
L 603 0 
L 603 3500 
z
M 603 4863 
L 1178 4863 
L 1178 4134 
L 603 4134 
L 603 4863 
z
" transform="scale(0.015625)"/>
       <path id="DejaVuSans-74" d="M 1172 4494 
L 1172 3500 
L 2356 3500 
L 2356 3053 
L 1172 3053 
L 1172 1153 
Q 1172 725 1289 603 
Q 1406 481 1766 481 
L 2356 481 
L 2356 0 
L 1766 0 
Q 1100 0 847 248 
Q 594 497 594 1153 
L 594 3053 
L 172 3053 
L 172 3500 
L 594 3500 
L 594 4494 
L 1172 4494 
z
" transform="scale(0.015625)"/>
       <path id="DejaVuSans-61" d="M 2194 1759 
Q 1497 1759 1228 1600 
Q 959 1441 959 1056 
Q 959 750 1161 570 
Q 1363 391 1709 391 
Q 2188 391 2477 730 
Q 2766 1069 2766 1631 
L 2766 1759 
L 2194 1759 
z
M 3341 1997 
L 3341 0 
L 2766 0 
L 2766 531 
Q 2569 213 2275 61 
Q 1981 -91 1556 -91 
Q 1019 -91 701 211 
Q 384 513 384 1019 
Q 384 1609 779 1909 
Q 1175 2209 1959 2209 
L 2766 2209 
L 2766 2266 
Q 2766 2663 2505 2880 
Q 2244 3097 1772 3097 
Q 1472 3097 1187 3025 
Q 903 2953 641 2809 
L 641 3341 
Q 956 3463 1253 3523 
Q 1550 3584 1831 3584 
Q 2591 3584 2966 3190 
Q 3341 2797 3341 1997 
z
" transform="scale(0.015625)"/>
       <path id="DejaVuSans-70" d="M 1159 525 
L 1159 -1331 
L 581 -1331 
L 581 3500 
L 1159 3500 
L 1159 2969 
Q 1341 3281 1617 3432 
Q 1894 3584 2278 3584 
Q 2916 3584 3314 3078 
Q 3713 2572 3713 1747 
Q 3713 922 3314 415 
Q 2916 -91 2278 -91 
Q 1894 -91 1617 61 
Q 1341 213 1159 525 
z
M 3116 1747 
Q 3116 2381 2855 2742 
Q 2594 3103 2138 3103 
Q 1681 3103 1420 2742 
Q 1159 2381 1159 1747 
Q 1159 1113 1420 752 
Q 1681 391 2138 391 
Q 2594 391 2855 752 
Q 3116 1113 3116 1747 
z
" transform="scale(0.015625)"/>
      </defs>
      <use xlink:href="#DejaVuSans-54"/>
      <use xlink:href="#DejaVuSans-69" x="57.958984"/>
      <use xlink:href="#DejaVuSans-6d" x="85.742188"/>
      <use xlink:href="#DejaVuSans-65" x="183.154297"/>
      <use xlink:href="#DejaVuSans-73" x="244.677734"/>
      <use xlink:href="#DejaVuSans-74" x="296.777344"/>
      <use xlink:href="#DejaVuSans-61" x="335.986328"/>
      <use xlink:href="#DejaVuSans-6d" x="397.265625"/>
      <use xlink:href="#DejaVuSans-70" x="494.677734"/>
      <use xlink:href="#DejaVuSans-20" x="558.154297"/>
      <use xlink:href="#DejaVuSans-5b" x="589.941406"/>
      <use xlink:href="#DejaVuSans-73" x="628.955078"/>
      <use xlink:href="#DejaVuSans-5d" x="681.054688"/>
     </g>
    </g>
   </g>
   <g id="matplotlib.axis_8">
    <g id="ytick_18">
     <g id="line2d_63">
      <g>
       <use xlink:href="#mb5b0e336fc" x="67.16" y="650.861279" style="stroke: #000000; stroke-width: 0.8"/>
      </g>
     </g>
     <g id="text_31">
      <!-- -2.0 -->
      <g transform="translate(32.844688 656.180186) scale(0.14 -0.14)">
       <use xlink:href="#DejaVuSans-2d"/>
       <use xlink:href="#DejaVuSans-32" x="36.083984"/>
       <use xlink:href="#DejaVuSans-2e" x="99.707031"/>
       <use xlink:href="#DejaVuSans-30" x="131.494141"/>
      </g>
     </g>
    </g>
    <g id="ytick_19">
     <g id="line2d_64">
      <g>
       <use xlink:href="#mb5b0e336fc" x="67.16" y="623.44939" style="stroke: #000000; stroke-width: 0.8"/>
      </g>
     </g>
     <g id="text_32">
      <!-- -1.0 -->
      <g transform="translate(32.844688 628.768296) scale(0.14 -0.14)">
       <use xlink:href="#DejaVuSans-2d"/>
       <use xlink:href="#DejaVuSans-31" x="36.083984"/>
       <use xlink:href="#DejaVuSans-2e" x="99.707031"/>
       <use xlink:href="#DejaVuSans-30" x="131.494141"/>
      </g>
     </g>
    </g>
    <g id="ytick_20">
     <g id="line2d_65">
      <g>
       <use xlink:href="#mb5b0e336fc" x="67.16" y="596.0375" style="stroke: #000000; stroke-width: 0.8"/>
      </g>
     </g>
     <g id="text_33">
      <!-- 0.0 -->
      <g transform="translate(37.895625 601.356406) scale(0.14 -0.14)">
       <use xlink:href="#DejaVuSans-30"/>
       <use xlink:href="#DejaVuSans-2e" x="63.623047"/>
       <use xlink:href="#DejaVuSans-30" x="95.410156"/>
      </g>
     </g>
    </g>
    <g id="ytick_21">
     <g id="line2d_66">
      <g>
       <use xlink:href="#mb5b0e336fc" x="67.16" y="568.62561" style="stroke: #000000; stroke-width: 0.8"/>
      </g>
     </g>
     <g id="text_34">
      <!-- 1.0 -->
      <g transform="translate(37.895625 573.944517) scale(0.14 -0.14)">
       <use xlink:href="#DejaVuSans-31"/>
       <use xlink:href="#DejaVuSans-2e" x="63.623047"/>
       <use xlink:href="#DejaVuSans-30" x="95.410156"/>
      </g>
     </g>
    </g>
    <g id="ytick_22">
     <g id="line2d_67">
      <g>
       <use xlink:href="#mb5b0e336fc" x="67.16" y="541.213721" style="stroke: #000000; stroke-width: 0.8"/>
      </g>
     </g>
     <g id="text_35">
      <!-- 2.0 -->
      <g transform="translate(37.895625 546.532627) scale(0.14 -0.14)">
       <use xlink:href="#DejaVuSans-32"/>
       <use xlink:href="#DejaVuSans-2e" x="63.623047"/>
       <use xlink:href="#DejaVuSans-30" x="95.410156"/>
      </g>
     </g>
    </g>
    <g id="text_36">
     <!-- Vel E [m/s] -->
     <g transform="translate(25.933125 633.693125) rotate(-90) scale(0.14 -0.14)">
      <use xlink:href="#DejaVuSans-56"/>
      <use xlink:href="#DejaVuSans-65" x="60.658203"/>
      <use xlink:href="#DejaVuSans-6c" x="122.181641"/>
      <use xlink:href="#DejaVuSans-20" x="149.964844"/>
      <use xlink:href="#DejaVuSans-45" x="181.751953"/>
      <use xlink:href="#DejaVuSans-20" x="244.935547"/>
      <use xlink:href="#DejaVuSans-5b" x="276.722656"/>
      <use xlink:href="#DejaVuSans-6d" x="315.736328"/>
      <use xlink:href="#DejaVuSans-2f" x="413.148438"/>
      <use xlink:href="#DejaVuSans-73" x="446.839844"/>
      <use xlink:href="#DejaVuSans-5d" x="498.939453"/>
     </g>
    </g>
   </g>
   <g id="line2d_68">
    <path d="M 67.16 596.0375 
L 70.282225 596.71305 
L 73.40445 597.157573 
L 76.526675 598.125454 
L 79.6489 598.918742 
L 85.89335 606.837889 
L 89.015575 604.065405 
L 92.1378 606.07817 
L 95.260025 607.485007 
L 98.38225 606.128723 
L 101.504475 607.25765 
L 104.6267 608.756036 
L 107.748925 607.584568 
L 110.87115 612.260841 
L 113.993375 613.038395 
L 117.1156 615.440677 
L 120.237825 616.937454 
L 123.36005 616.204046 
L 126.482275 617.985787 
L 129.6045 619.494071 
L 132.726725 619.993286 
L 135.84895 623.081569 
L 138.971175 625.918596 
L 142.0934 627.968335 
L 145.215625 630.561896 
L 148.33785 625.460142 
L 151.460075 627.907823 
L 154.5823 628.19185 
L 157.704525 628.754429 
L 160.82675 628.492553 
L 163.948975 627.984366 
L 167.0712 628.205185 
L 170.193425 631.257198 
L 173.31565 632.743921 
L 176.437875 633.159171 
L 179.5601 634.515457 
L 182.682325 632.549368 
L 185.80455 633.623665 
L 188.926775 634.250165 
L 192.049 635.087784 
L 195.171225 635.071712 
L 198.29345 636.971571 
L 201.415675 640.571023 
L 204.5379 639.755114 
L 207.660125 640.819333 
L 210.78235 641.020279 
L 213.904575 639.136292 
L 217.0268 636.990426 
L 220.149025 637.896809 
L 223.27125 638.100558 
L 226.393475 636.113757 
L 229.5157 637.578019 
L 232.637925 634.828313 
L 235.76015 636.864243 
L 238.882375 641.894118 
L 242.0046 640.407093 
L 245.126825 639.810344 
L 248.24905 637.735989 
L 251.371275 637.403157 
L 254.4935 638.384369 
L 257.615725 640.398701 
L 260.73795 639.401851 
L 263.860175 639.315669 
L 266.9824 638.261457 
L 270.104625 635.268061 
L 273.22685 631.547974 
L 276.349075 631.47739 
L 279.4713 633.960903 
L 282.593525 632.451279 
L 285.71575 630.093115 
L 288.837975 631.459361 
L 291.9602 631.134364 
L 295.082425 630.27048 
L 298.20465 630.58228 
L 301.326875 627.902257 
L 304.4491 627.150221 
L 307.571325 625.421972 
L 310.69355 626.122401 
L 313.815775 625.258129 
L 316.938 622.328869 
L 320.060225 621.966376 
L 323.18245 617.960312 
L 326.304675 618.834989 
L 329.4269 617.97329 
L 332.549125 615.923863 
L 335.67135 618.111837 
L 338.793575 619.203702 
L 341.9158 618.469621 
L 345.038025 612.567984 
L 348.16025 611.456582 
L 351.282475 605.335209 
L 354.4047 606.696373 
L 357.526925 605.999254 
L 360.64915 603.063251 
L 363.771375 600.416173 
L 366.8936 598.734568 
L 376.260275 599.848368 
L 379.3825 599.219364 
L 382.504725 600.26714 
L 385.62695 600.338429 
L 388.749175 597.965038 
L 391.8714 595.834705 
L 394.993625 594.122561 
L 398.11585 590.434213 
L 401.238075 587.273433 
L 404.3603 586.415816 
L 407.482525 583.28675 
L 410.60475 585.382539 
L 413.726975 584.503409 
L 416.8492 584.169574 
L 419.971425 585.041871 
L 423.09365 581.739479 
L 426.215875 579.123232 
L 429.3381 574.426953 
L 432.460325 572.905756 
L 435.58255 574.507173 
L 438.704775 570.452631 
L 441.827 568.988446 
L 444.949225 569.09506 
L 448.07145 570.257428 
L 451.193675 571.668063 
L 454.3159 570.861555 
L 457.438125 567.362229 
L 460.56035 563.639863 
L 463.682575 561.913954 
L 466.8048 564.130614 
L 469.927025 566.086468 
L 473.04925 564.583947 
L 476.171475 566.160854 
L 479.2937 562.947396 
L 482.415925 561.279972 
L 485.53815 560.394978 
L 488.660375 561.282397 
L 491.7826 557.920519 
L 494.904825 557.392192 
L 498.02705 557.87923 
L 501.149275 560.537714 
L 504.2715 556.922267 
L 507.393725 551.668607 
L 510.51595 549.049167 
L 513.638175 551.414746 
L 516.7604 553.274041 
L 519.882625 552.678042 
L 523.00485 554.712725 
L 526.127075 553.661998 
L 532.371525 550.778013 
L 535.49375 552.283456 
L 538.615975 553.42457 
L 541.7382 555.136221 
L 544.860425 555.85405 
L 547.98265 555.061736 
L 551.104875 553.515608 
L 554.2271 551.81446 
L 557.349325 553.834326 
L 560.47155 551.491807 
L 563.593775 553.335897 
L 566.716 554.280702 
L 569.838225 556.189037 
L 572.96045 560.004457 
L 576.082675 556.674887 
L 579.2049 555.086662 
L 582.327125 556.150007 
L 585.44935 556.55695 
L 588.571575 556.455803 
L 591.6938 560.152048 
L 594.816025 560.809878 
L 597.93825 559.251351 
L 601.060475 562.007171 
L 604.1827 561.380755 
L 607.304925 564.012147 
L 610.42715 562.860265 
L 613.549375 563.41902 
L 616.6716 566.732446 
L 619.793825 564.4984 
L 622.91605 566.801212 
L 626.038275 568.730894 
L 629.1605 568.629332 
L 632.282725 567.5819 
L 635.40495 571.157673 
L 638.527175 572.031732 
L 644.771625 572.947833 
L 647.89385 574.735785 
L 651.016075 577.279645 
L 654.1383 579.98659 
L 657.260525 580.450742 
L 660.38275 582.976199 
L 663.504975 587.658116 
L 666.6272 584.977286 
L 669.749425 583.026116 
L 672.87165 587.78549 
L 675.993875 588.766085 
L 679.1161 587.14386 
L 682.238325 584.644215 
L 685.36055 587.571291 
L 688.482775 591.451632 
L 688.482775 591.451632 
" clip-path="url(#p410f08bfe0)" style="fill: none; stroke: #1f77b4; stroke-width: 1.5; stroke-linecap: square"/>
   </g>
   <g id="line2d_69">
    <path d="M 67.16 598.422329 
L 691.605 598.422329 
" clip-path="url(#p410f08bfe0)" style="fill: none; stroke-dasharray: 5.55,2.4; stroke-dashoffset: 0; stroke: #ff0000; stroke-width: 1.5"/>
   </g>
   <g id="line2d_70">
    <path d="M 67.16 593.652671 
L 691.605 593.652671 
" clip-path="url(#p410f08bfe0)" style="fill: none; stroke-dasharray: 5.55,2.4; stroke-dashoffset: 0; stroke: #ff0000; stroke-width: 1.5"/>
   </g>
   <g id="patch_18">
    <path d="M 67.16 666.52 
L 67.16 525.555 
" style="fill: none; stroke: #000000; stroke-width: 0.8; stroke-linejoin: miter; stroke-linecap: square"/>
   </g>
   <g id="patch_19">
    <path d="M 691.605 666.52 
L 691.605 525.555 
" style="fill: none; stroke: #000000; stroke-width: 0.8; stroke-linejoin: miter; stroke-linecap: square"/>
   </g>
   <g id="patch_20">
    <path d="M 67.16 666.52 
L 691.605 666.52 
" style="fill: none; stroke: #000000; stroke-width: 0.8; stroke-linejoin: miter; stroke-linecap: square"/>
   </g>
   <g id="patch_21">
    <path d="M 67.16 525.555 
L 691.605 525.555 
" style="fill: none; stroke: #000000; stroke-width: 0.8; stroke-linejoin: miter; stroke-linecap: square"/>
   </g>
  </g>
  <g id="text_37">
   <!-- Errors on positions and velocities at 1Hz -->
   <g transform="translate(190.972312 27.165375) scale(0.168 -0.168)">
    <defs>
     <path id="DejaVuSans-72" d="M 2631 2963 
Q 2534 3019 2420 3045 
Q 2306 3072 2169 3072 
Q 1681 3072 1420 2755 
Q 1159 2438 1159 1844 
L 1159 0 
L 581 0 
L 581 3500 
L 1159 3500 
L 1159 2956 
Q 1341 3275 1631 3429 
Q 1922 3584 2338 3584 
Q 2397 3584 2469 3576 
Q 2541 3569 2628 3553 
L 2631 2963 
z
" transform="scale(0.015625)"/>
     <path id="DejaVuSans-6e" d="M 3513 2113 
L 3513 0 
L 2938 0 
L 2938 2094 
Q 2938 2591 2744 2837 
Q 2550 3084 2163 3084 
Q 1697 3084 1428 2787 
Q 1159 2491 1159 1978 
L 1159 0 
L 581 0 
L 581 3500 
L 1159 3500 
L 1159 2956 
Q 1366 3272 1645 3428 
Q 1925 3584 2291 3584 
Q 2894 3584 3203 3211 
Q 3513 2838 3513 2113 
z
" transform="scale(0.015625)"/>
     <path id="DejaVuSans-64" d="M 2906 2969 
L 2906 4863 
L 3481 4863 
L 3481 0 
L 2906 0 
L 2906 525 
Q 2725 213 2448 61 
Q 2172 -91 1784 -91 
Q 1150 -91 751 415 
Q 353 922 353 1747 
Q 353 2572 751 3078 
Q 1150 3584 1784 3584 
Q 2172 3584 2448 3432 
Q 2725 3281 2906 2969 
z
M 947 1747 
Q 947 1113 1208 752 
Q 1469 391 1925 391 
Q 2381 391 2643 752 
Q 2906 1113 2906 1747 
Q 2906 2381 2643 2742 
Q 2381 3103 1925 3103 
Q 1469 3103 1208 2742 
Q 947 2381 947 1747 
z
" transform="scale(0.015625)"/>
     <path id="DejaVuSans-76" d="M 191 3500 
L 800 3500 
L 1894 563 
L 2988 3500 
L 3597 3500 
L 2284 0 
L 1503 0 
L 191 3500 
z
" transform="scale(0.015625)"/>
     <path id="DejaVuSans-63" d="M 3122 3366 
L 3122 2828 
Q 2878 2963 2633 3030 
Q 2388 3097 2138 3097 
Q 1578 3097 1268 2742 
Q 959 2388 959 1747 
Q 959 1106 1268 751 
Q 1578 397 2138 397 
Q 2388 397 2633 464 
Q 2878 531 3122 666 
L 3122 134 
Q 2881 22 2623 -34 
Q 2366 -91 2075 -91 
Q 1284 -91 818 406 
Q 353 903 353 1747 
Q 353 2603 823 3093 
Q 1294 3584 2113 3584 
Q 2378 3584 2631 3529 
Q 2884 3475 3122 3366 
z
" transform="scale(0.015625)"/>
     <path id="DejaVuSans-48" d="M 628 4666 
L 1259 4666 
L 1259 2753 
L 3553 2753 
L 3553 4666 
L 4184 4666 
L 4184 0 
L 3553 0 
L 3553 2222 
L 1259 2222 
L 1259 0 
L 628 0 
L 628 4666 
z
" transform="scale(0.015625)"/>
     <path id="DejaVuSans-7a" d="M 353 3500 
L 3084 3500 
L 3084 2975 
L 922 459 
L 3084 459 
L 3084 0 
L 275 0 
L 275 525 
L 2438 3041 
L 353 3041 
L 353 3500 
z
" transform="scale(0.015625)"/>
    </defs>
    <use xlink:href="#DejaVuSans-45"/>
    <use xlink:href="#DejaVuSans-72" x="63.183594"/>
    <use xlink:href="#DejaVuSans-72" x="102.546875"/>
    <use xlink:href="#DejaVuSans-6f" x="141.410156"/>
    <use xlink:href="#DejaVuSans-72" x="202.591797"/>
    <use xlink:href="#DejaVuSans-73" x="243.705078"/>
    <use xlink:href="#DejaVuSans-20" x="295.804688"/>
    <use xlink:href="#DejaVuSans-6f" x="327.591797"/>
    <use xlink:href="#DejaVuSans-6e" x="388.773438"/>
    <use xlink:href="#DejaVuSans-20" x="452.152344"/>
    <use xlink:href="#DejaVuSans-70" x="483.939453"/>
    <use xlink:href="#DejaVuSans-6f" x="547.416016"/>
    <use xlink:href="#DejaVuSans-73" x="608.597656"/>
    <use xlink:href="#DejaVuSans-69" x="660.697266"/>
    <use xlink:href="#DejaVuSans-74" x="688.480469"/>
    <use xlink:href="#DejaVuSans-69" x="727.689453"/>
    <use xlink:href="#DejaVuSans-6f" x="755.472656"/>
    <use xlink:href="#DejaVuSans-6e" x="816.654297"/>
    <use xlink:href="#DejaVuSans-73" x="880.033203"/>
    <use xlink:href="#DejaVuSans-20" x="932.132812"/>
    <use xlink:href="#DejaVuSans-61" x="963.919922"/>
    <use xlink:href="#DejaVuSans-6e" x="1025.199219"/>
    <use xlink:href="#DejaVuSans-64" x="1088.578125"/>
    <use xlink:href="#DejaVuSans-20" x="1152.054688"/>
    <use xlink:href="#DejaVuSans-76" x="1183.841797"/>
    <use xlink:href="#DejaVuSans-65" x="1243.021484"/>
    <use xlink:href="#DejaVuSans-6c" x="1304.544922"/>
    <use xlink:href="#DejaVuSans-6f" x="1332.328125"/>
    <use xlink:href="#DejaVuSans-63" x="1393.509766"/>
    <use xlink:href="#DejaVuSans-69" x="1448.490234"/>
    <use xlink:href="#DejaVuSans-74" x="1476.273438"/>
    <use xlink:href="#DejaVuSans-69" x="1515.482422"/>
    <use xlink:href="#DejaVuSans-65" x="1543.265625"/>
    <use xlink:href="#DejaVuSans-73" x="1604.789062"/>
    <use xlink:href="#DejaVuSans-20" x="1656.888672"/>
    <use xlink:href="#DejaVuSans-61" x="1688.675781"/>
    <use xlink:href="#DejaVuSans-74" x="1749.955078"/>
    <use xlink:href="#DejaVuSans-20" x="1789.164062"/>
    <use xlink:href="#DejaVuSans-31" x="1820.951172"/>
    <use xlink:href="#DejaVuSans-48" x="1884.574219"/>
    <use xlink:href="#DejaVuSans-7a" x="1959.769531"/>
   </g>
  </g>
 </g>
 <defs>
  <clipPath id="p7b4ac76a73">
   <rect x="67.16" y="46.8" width="624.445" height="140.965"/>
  </clipPath>
  <clipPath id="p835ad4d8bc">
   <rect x="67.16" y="206.385" width="624.445" height="140.965"/>
  </clipPath>
  <clipPath id="p0479f9c380">
   <rect x="67.16" y="365.97" width="624.445" height="140.965"/>
  </clipPath>
  <clipPath id="p410f08bfe0">
   <rect x="67.16" y="525.555" width="624.445" height="140.965"/>
  </clipPath>
 </defs>
</svg>
