<?xml version="1.0" encoding="utf-8" standalone="no"?>
<!DOCTYPE svg PUBLIC "-//W3C//DTD SVG 1.1//EN"
  "http://www.w3.org/Graphics/SVG/1.1/DTD/svg11.dtd">
<svg xmlns:xlink="http://www.w3.org/1999/xlink" width="720pt" height="720pt" viewBox="0 0 720 720" xmlns="http://www.w3.org/2000/svg" version="1.1">
 <metadata>
  <rdf:RDF xmlns:dc="http://purl.org/dc/elements/1.1/" xmlns:cc="http://creativecommons.org/ns#" xmlns:rdf="http://www.w3.org/1999/02/22-rdf-syntax-ns#">
   <cc:Work>
    <dc:type rdf:resource="http://purl.org/dc/dcmitype/StillImage"/>
    <dc:date>2024-05-31T14:37:18.134478</dc:date>
    <dc:format>image/svg+xml</dc:format>
    <dc:creator>
     <cc:Agent>
      <dc:title>Matplotlib v3.9.0, https://matplotlib.org/</dc:title>
     </cc:Agent>
    </dc:creator>
   </cc:Work>
  </rdf:RDF>
 </metadata>
 <defs>
  <style type="text/css">*{stroke-linejoin: round; stroke-linecap: butt}</style>
 </defs>
 <g id="figure_1">
  <g id="patch_1">
   <path d="M 0 720 
L 720 720 
L 720 0 
L 0 0 
z
" style="fill: #ffffff"/>
  </g>
  <g id="axes_1">
   <g id="patch_2">
    <path d="M 67.25 187.765 
L 691.605 187.765 
L 691.605 46.8 
L 67.25 46.8 
z
" style="fill: #ffffff"/>
   </g>
   <g id="matplotlib.axis_1">
    <g id="xtick_1">
     <g id="line2d_1">
      <defs>
       <path id="md5ffe6bba9" d="M 0 0 
L 0 3.5 
" style="stroke: #000000; stroke-width: 0.8"/>
      </defs>
      <g>
       <use xlink:href="#md5ffe6bba9" x="67.25" y="187.765" style="stroke: #000000; stroke-width: 0.8"/>
      </g>
     </g>
    </g>
    <g id="xtick_2">
     <g id="line2d_2">
      <g>
       <use xlink:href="#md5ffe6bba9" x="145.294375" y="187.765" style="stroke: #000000; stroke-width: 0.8"/>
      </g>
     </g>
    </g>
    <g id="xtick_3">
     <g id="line2d_3">
      <g>
       <use xlink:href="#md5ffe6bba9" x="223.33875" y="187.765" style="stroke: #000000; stroke-width: 0.8"/>
      </g>
     </g>
    </g>
    <g id="xtick_4">
     <g id="line2d_4">
      <g>
       <use xlink:href="#md5ffe6bba9" x="301.383125" y="187.765" style="stroke: #000000; stroke-width: 0.8"/>
      </g>
     </g>
    </g>
    <g id="xtick_5">
     <g id="line2d_5">
      <g>
       <use xlink:href="#md5ffe6bba9" x="379.4275" y="187.765" style="stroke: #000000; stroke-width: 0.8"/>
      </g>
     </g>
    </g>
    <g id="xtick_6">
     <g id="line2d_6">
      <g>
       <use xlink:href="#md5ffe6bba9" x="457.471875" y="187.765" style="stroke: #000000; stroke-width: 0.8"/>
      </g>
     </g>
    </g>
    <g id="xtick_7">
     <g id="line2d_7">
      <g>
       <use xlink:href="#md5ffe6bba9" x="535.51625" y="187.765" style="stroke: #000000; stroke-width: 0.8"/>
      </g>
     </g>
    </g>
    <g id="xtick_8">
     <g id="line2d_8">
      <g>
       <use xlink:href="#md5ffe6bba9" x="613.560625" y="187.765" style="stroke: #000000; stroke-width: 0.8"/>
      </g>
     </g>
    </g>
    <g id="xtick_9">
     <g id="line2d_9">
      <g>
       <use xlink:href="#md5ffe6bba9" x="691.605" y="187.765" style="stroke: #000000; stroke-width: 0.8"/>
      </g>
     </g>
    </g>
   </g>
   <g id="matplotlib.axis_2">
    <g id="ytick_1">
     <g id="line2d_10">
      <defs>
       <path id="m0967b23ae0" d="M 0 0 
L -3.5 0 
" style="stroke: #000000; stroke-width: 0.8"/>
      </defs>
      <g>
       <use xlink:href="#m0967b23ae0" x="67.25" y="181.782957" style="stroke: #000000; stroke-width: 0.8"/>
      </g>
     </g>
     <g id="text_1">
      <!-- -6.0 -->
      <g transform="translate(32.934688 187.101863) scale(0.14 -0.14)">
       <defs>
        <path id="DejaVuSans-2d" d="M 313 2009 
L 1997 2009 
L 1997 1497 
L 313 1497 
L 313 2009 
z
" transform="scale(0.015625)"/>
        <path id="DejaVuSans-36" d="M 2113 2584 
Q 1688 2584 1439 2293 
Q 1191 2003 1191 1497 
Q 1191 994 1439 701 
Q 1688 409 2113 409 
Q 2538 409 2786 701 
Q 3034 994 3034 1497 
Q 3034 2003 2786 2293 
Q 2538 2584 2113 2584 
z
M 3366 4563 
L 3366 3988 
Q 3128 4100 2886 4159 
Q 2644 4219 2406 4219 
Q 1781 4219 1451 3797 
Q 1122 3375 1075 2522 
Q 1259 2794 1537 2939 
Q 1816 3084 2150 3084 
Q 2853 3084 3261 2657 
Q 3669 2231 3669 1497 
Q 3669 778 3244 343 
Q 2819 -91 2113 -91 
Q 1303 -91 875 529 
Q 447 1150 447 2328 
Q 447 3434 972 4092 
Q 1497 4750 2381 4750 
Q 2619 4750 2861 4703 
Q 3103 4656 3366 4563 
z
" transform="scale(0.015625)"/>
        <path id="DejaVuSans-2e" d="M 684 794 
L 1344 794 
L 1344 0 
L 684 0 
L 684 794 
z
" transform="scale(0.015625)"/>
        <path id="DejaVuSans-30" d="M 2034 4250 
Q 1547 4250 1301 3770 
Q 1056 3291 1056 2328 
Q 1056 1369 1301 889 
Q 1547 409 2034 409 
Q 2525 409 2770 889 
Q 3016 1369 3016 2328 
Q 3016 3291 2770 3770 
Q 2525 4250 2034 4250 
z
M 2034 4750 
Q 2819 4750 3233 4129 
Q 3647 3509 3647 2328 
Q 3647 1150 3233 529 
Q 2819 -91 2034 -91 
Q 1250 -91 836 529 
Q 422 1150 422 2328 
Q 422 3509 836 4129 
Q 1250 4750 2034 4750 
z
" transform="scale(0.015625)"/>
       </defs>
       <use xlink:href="#DejaVuSans-2d"/>
       <use xlink:href="#DejaVuSans-36" x="36.083984"/>
       <use xlink:href="#DejaVuSans-2e" x="99.707031"/>
       <use xlink:href="#DejaVuSans-30" x="131.494141"/>
      </g>
     </g>
    </g>
    <g id="ytick_2">
     <g id="line2d_11">
      <g>
       <use xlink:href="#m0967b23ae0" x="67.25" y="160.282805" style="stroke: #000000; stroke-width: 0.8"/>
      </g>
     </g>
     <g id="text_2">
      <!-- -4.0 -->
      <g transform="translate(32.934688 165.601711) scale(0.14 -0.14)">
       <defs>
        <path id="DejaVuSans-34" d="M 2419 4116 
L 825 1625 
L 2419 1625 
L 2419 4116 
z
M 2253 4666 
L 3047 4666 
L 3047 1625 
L 3713 1625 
L 3713 1100 
L 3047 1100 
L 3047 0 
L 2419 0 
L 2419 1100 
L 313 1100 
L 313 1709 
L 2253 4666 
z
" transform="scale(0.015625)"/>
       </defs>
       <use xlink:href="#DejaVuSans-2d"/>
       <use xlink:href="#DejaVuSans-34" x="36.083984"/>
       <use xlink:href="#DejaVuSans-2e" x="99.707031"/>
       <use xlink:href="#DejaVuSans-30" x="131.494141"/>
      </g>
     </g>
    </g>
    <g id="ytick_3">
     <g id="line2d_12">
      <g>
       <use xlink:href="#m0967b23ae0" x="67.25" y="138.782652" style="stroke: #000000; stroke-width: 0.8"/>
      </g>
     </g>
     <g id="text_3">
      <!-- -2.0 -->
      <g transform="translate(32.934688 144.101559) scale(0.14 -0.14)">
       <defs>
        <path id="DejaVuSans-32" d="M 1228 531 
L 3431 531 
L 3431 0 
L 469 0 
L 469 531 
Q 828 903 1448 1529 
Q 2069 2156 2228 2338 
Q 2531 2678 2651 2914 
Q 2772 3150 2772 3378 
Q 2772 3750 2511 3984 
Q 2250 4219 1831 4219 
Q 1534 4219 1204 4116 
Q 875 4013 500 3803 
L 500 4441 
Q 881 4594 1212 4672 
Q 1544 4750 1819 4750 
Q 2544 4750 2975 4387 
Q 3406 4025 3406 3419 
Q 3406 3131 3298 2873 
Q 3191 2616 2906 2266 
Q 2828 2175 2409 1742 
Q 1991 1309 1228 531 
z
" transform="scale(0.015625)"/>
       </defs>
       <use xlink:href="#DejaVuSans-2d"/>
       <use xlink:href="#DejaVuSans-32" x="36.083984"/>
       <use xlink:href="#DejaVuSans-2e" x="99.707031"/>
       <use xlink:href="#DejaVuSans-30" x="131.494141"/>
      </g>
     </g>
    </g>
    <g id="ytick_4">
     <g id="line2d_13">
      <g>
       <use xlink:href="#m0967b23ae0" x="67.25" y="117.2825" style="stroke: #000000; stroke-width: 0.8"/>
      </g>
     </g>
     <g id="text_4">
      <!-- 0.0 -->
      <g transform="translate(37.985625 122.601406) scale(0.14 -0.14)">
       <use xlink:href="#DejaVuSans-30"/>
       <use xlink:href="#DejaVuSans-2e" x="63.623047"/>
       <use xlink:href="#DejaVuSans-30" x="95.410156"/>
      </g>
     </g>
    </g>
    <g id="ytick_5">
     <g id="line2d_14">
      <g>
       <use xlink:href="#m0967b23ae0" x="67.25" y="95.782348" style="stroke: #000000; stroke-width: 0.8"/>
      </g>
     </g>
     <g id="text_5">
      <!-- 2.0 -->
      <g transform="translate(37.985625 101.101254) scale(0.14 -0.14)">
       <use xlink:href="#DejaVuSans-32"/>
       <use xlink:href="#DejaVuSans-2e" x="63.623047"/>
       <use xlink:href="#DejaVuSans-30" x="95.410156"/>
      </g>
     </g>
    </g>
    <g id="ytick_6">
     <g id="line2d_15">
      <g>
       <use xlink:href="#m0967b23ae0" x="67.25" y="74.282195" style="stroke: #000000; stroke-width: 0.8"/>
      </g>
     </g>
     <g id="text_6">
      <!-- 4.0 -->
      <g transform="translate(37.985625 79.601102) scale(0.14 -0.14)">
       <use xlink:href="#DejaVuSans-34"/>
       <use xlink:href="#DejaVuSans-2e" x="63.623047"/>
       <use xlink:href="#DejaVuSans-30" x="95.410156"/>
      </g>
     </g>
    </g>
    <g id="ytick_7">
     <g id="line2d_16">
      <g>
       <use xlink:href="#m0967b23ae0" x="67.25" y="52.782043" style="stroke: #000000; stroke-width: 0.8"/>
      </g>
     </g>
     <g id="text_7">
      <!-- 6.0 -->
      <g transform="translate(37.985625 58.100949) scale(0.14 -0.14)">
       <use xlink:href="#DejaVuSans-36"/>
       <use xlink:href="#DejaVuSans-2e" x="63.623047"/>
       <use xlink:href="#DejaVuSans-30" x="95.410156"/>
      </g>
     </g>
    </g>
    <g id="text_8">
     <!-- Pos N [m] -->
     <g transform="translate(26.023125 151.146094) rotate(-90) scale(0.14 -0.14)">
      <defs>
       <path id="DejaVuSans-50" d="M 1259 4147 
L 1259 2394 
L 2053 2394 
Q 2494 2394 2734 2622 
Q 2975 2850 2975 3272 
Q 2975 3691 2734 3919 
Q 2494 4147 2053 4147 
L 1259 4147 
z
M 628 4666 
L 2053 4666 
Q 2838 4666 3239 4311 
Q 3641 3956 3641 3272 
Q 3641 2581 3239 2228 
Q 2838 1875 2053 1875 
L 1259 1875 
L 1259 0 
L 628 0 
L 628 4666 
z
" transform="scale(0.015625)"/>
       <path id="DejaVuSans-6f" d="M 1959 3097 
Q 1497 3097 1228 2736 
Q 959 2375 959 1747 
Q 959 1119 1226 758 
Q 1494 397 1959 397 
Q 2419 397 2687 759 
Q 2956 1122 2956 1747 
Q 2956 2369 2687 2733 
Q 2419 3097 1959 3097 
z
M 1959 3584 
Q 2709 3584 3137 3096 
Q 3566 2609 3566 1747 
Q 3566 888 3137 398 
Q 2709 -91 1959 -91 
Q 1206 -91 779 398 
Q 353 888 353 1747 
Q 353 2609 779 3096 
Q 1206 3584 1959 3584 
z
" transform="scale(0.015625)"/>
       <path id="DejaVuSans-73" d="M 2834 3397 
L 2834 2853 
Q 2591 2978 2328 3040 
Q 2066 3103 1784 3103 
Q 1356 3103 1142 2972 
Q 928 2841 928 2578 
Q 928 2378 1081 2264 
Q 1234 2150 1697 2047 
L 1894 2003 
Q 2506 1872 2764 1633 
Q 3022 1394 3022 966 
Q 3022 478 2636 193 
Q 2250 -91 1575 -91 
Q 1294 -91 989 -36 
Q 684 19 347 128 
L 347 722 
Q 666 556 975 473 
Q 1284 391 1588 391 
Q 1994 391 2212 530 
Q 2431 669 2431 922 
Q 2431 1156 2273 1281 
Q 2116 1406 1581 1522 
L 1381 1569 
Q 847 1681 609 1914 
Q 372 2147 372 2553 
Q 372 3047 722 3315 
Q 1072 3584 1716 3584 
Q 2034 3584 2315 3537 
Q 2597 3491 2834 3397 
z
" transform="scale(0.015625)"/>
       <path id="DejaVuSans-20" transform="scale(0.015625)"/>
       <path id="DejaVuSans-4e" d="M 628 4666 
L 1478 4666 
L 3547 763 
L 3547 4666 
L 4159 4666 
L 4159 0 
L 3309 0 
L 1241 3903 
L 1241 0 
L 628 0 
L 628 4666 
z
" transform="scale(0.015625)"/>
       <path id="DejaVuSans-5b" d="M 550 4863 
L 1875 4863 
L 1875 4416 
L 1125 4416 
L 1125 -397 
L 1875 -397 
L 1875 -844 
L 550 -844 
L 550 4863 
z
" transform="scale(0.015625)"/>
       <path id="DejaVuSans-6d" d="M 3328 2828 
Q 3544 3216 3844 3400 
Q 4144 3584 4550 3584 
Q 5097 3584 5394 3201 
Q 5691 2819 5691 2113 
L 5691 0 
L 5113 0 
L 5113 2094 
Q 5113 2597 4934 2840 
Q 4756 3084 4391 3084 
Q 3944 3084 3684 2787 
Q 3425 2491 3425 1978 
L 3425 0 
L 2847 0 
L 2847 2094 
Q 2847 2600 2669 2842 
Q 2491 3084 2119 3084 
Q 1678 3084 1418 2786 
Q 1159 2488 1159 1978 
L 1159 0 
L 581 0 
L 581 3500 
L 1159 3500 
L 1159 2956 
Q 1356 3278 1631 3431 
Q 1906 3584 2284 3584 
Q 2666 3584 2933 3390 
Q 3200 3197 3328 2828 
z
" transform="scale(0.015625)"/>
       <path id="DejaVuSans-5d" d="M 1947 4863 
L 1947 -844 
L 622 -844 
L 622 -397 
L 1369 -397 
L 1369 4416 
L 622 4416 
L 622 4863 
L 1947 4863 
z
" transform="scale(0.015625)"/>
      </defs>
      <use xlink:href="#DejaVuSans-50"/>
      <use xlink:href="#DejaVuSans-6f" x="56.677734"/>
      <use xlink:href="#DejaVuSans-73" x="117.859375"/>
      <use xlink:href="#DejaVuSans-20" x="169.958984"/>
      <use xlink:href="#DejaVuSans-4e" x="201.746094"/>
      <use xlink:href="#DejaVuSans-20" x="276.550781"/>
      <use xlink:href="#DejaVuSans-5b" x="308.337891"/>
      <use xlink:href="#DejaVuSans-6d" x="347.351562"/>
      <use xlink:href="#DejaVuSans-5d" x="444.763672"/>
     </g>
    </g>
   </g>
   <g id="line2d_17">
    <path d="M 67.25 117.2825 
L 70.371775 117.281111 
L 73.49355 120.936033 
L 76.615325 120.910575 
L 79.7371 118.13418 
L 82.858875 117.748419 
L 85.98065 122.126072 
L 89.102425 122.613971 
L 92.2242 117.597098 
L 95.345975 116.822502 
L 98.46775 121.330576 
L 101.589525 121.452362 
L 104.7113 119.154894 
L 107.833075 118.653435 
L 114.076625 117.251592 
L 117.1984 119.182046 
L 120.320175 118.710497 
L 123.44195 109.490917 
L 126.563725 107.165879 
L 129.6855 113.048463 
L 132.807275 111.95159 
L 135.92905 112.833495 
L 139.050825 111.798308 
L 142.1726 111.012745 
L 145.294375 109.698686 
L 148.41615 116.453448 
L 151.537925 116.275257 
L 154.6597 112.81553 
L 157.781475 111.667798 
L 160.90325 114.343342 
L 164.025025 113.512209 
L 170.268575 110.798373 
L 173.39035 116.08593 
L 176.512125 115.548723 
L 179.6339 119.025901 
L 182.755675 118.793143 
L 185.87745 114.332644 
L 188.999225 112.878048 
L 192.121 112.977047 
L 195.242775 111.351855 
L 198.36455 113.206287 
L 201.486325 111.755411 
L 204.6081 112.050602 
L 207.729875 110.448613 
L 210.85165 111.684198 
L 213.973425 110.126424 
L 217.0952 116.330498 
L 220.216975 115.718138 
L 223.33875 114.840684 
L 226.460525 113.698003 
L 229.5823 112.290228 
L 232.704075 110.61775 
L 235.82585 108.681224 
L 238.947625 106.481564 
L 242.0694 104.019943 
L 245.191175 101.297794 
L 248.31295 98.316807 
L 251.434725 95.078927 
L 254.5565 91.586353 
L 257.678275 87.841534 
L 260.80005 83.847169 
L 263.921825 79.606204 
L 267.0436 75.121826 
L 270.165375 70.397465 
L 273.28715 65.436786 
L 276.408925 60.243689 
L 279.5307 54.8223 
L 285.77425 43.312285 
L 292.0178 30.944193 
L 298.26135 17.758863 
L 301.383125 10.873383 
L 304.5049 116.106846 
L 307.626675 114.036386 
L 310.74845 117.323597 
L 313.870225 115.748592 
L 316.992 117.631933 
L 320.113775 116.491604 
L 323.23555 116.72406 
L 326.357325 115.605484 
L 329.4791 111.949817 
L 332.600875 110.103953 
L 335.72265 112.230686 
L 338.844425 110.911588 
L 341.9662 114.668633 
L 345.087975 114.09447 
L 348.20975 117.15753 
L 351.331525 117.0925 
L 354.4533 117.455008 
L 357.575075 117.341883 
L 360.69685 110.857211 
L 363.818625 109.47776 
L 366.9404 121.878625 
L 370.062175 122.963381 
L 373.18395 118.938674 
L 376.305725 119.047707 
L 379.4275 117.501236 
L 382.549275 117.299352 
L 385.67105 114.733781 
L 388.792825 114.12118 
L 391.9146 118.778084 
L 395.036375 119.186981 
L 398.15815 112.384743 
L 401.279925 111.552709 
L 404.4017 111.372636 
L 407.523475 110.77354 
L 410.64525 114.112905 
L 413.767025 114.379572 
L 416.8888 115.628162 
L 420.010575 116.246161 
L 423.13235 119.170128 
L 426.254125 120.410592 
L 429.3759 119.254938 
L 432.497675 120.281359 
L 435.61945 119.650838 
L 438.741225 120.625246 
L 441.863 116.706728 
L 444.984775 117.060016 
L 448.10655 116.404584 
L 451.228325 116.874356 
L 457.471875 118.478604 
L 460.59365 116.4082 
L 463.715425 117.065997 
L 466.8372 116.004321 
L 469.958975 116.713059 
L 473.08075 116.814118 
L 476.202525 117.796889 
L 479.3243 122.436044 
L 482.446075 124.493414 
L 485.56785 118.834589 
L 488.689625 119.893457 
L 491.8114 122.437539 
L 494.933175 124.2021 
L 498.05495 124.359288 
L 501.176725 126.273917 
L 504.2985 122.840088 
L 507.420275 124.228289 
L 510.54205 119.876158 
L 513.663825 120.674804 
L 516.7856 115.380147 
L 519.907375 115.531423 
L 523.02915 121.447247 
L 526.150925 123.134311 
L 529.2727 116.780291 
L 532.394475 117.470652 
L 535.51625 113.17177 
L 538.638025 113.427357 
L 541.7598 117.021708 
L 544.881575 118.371651 
L 548.00335 119.128842 
L 551.125125 120.848595 
L 554.2469 121.522349 
L 557.368675 123.524349 
L 560.49045 123.004663 
L 563.612225 125.011679 
L 566.734 125.797672 
L 569.855775 128.040574 
L 572.97755 128.329415 
L 576.099325 130.663713 
L 579.2211 125.371523 
L 582.342875 126.743705 
L 585.46465 121.76807 
L 588.586425 122.399641 
L 591.7082 114.903558 
L 594.829975 114.452572 
L 597.95175 118.683574 
L 601.073525 119.4862 
L 604.1953 124.74167 
L 607.317075 126.737613 
L 610.43885 122.357606 
L 613.560625 123.538188 
L 616.6824 122.201262 
L 619.804175 123.254094 
L 622.92595 119.664164 
L 626.047725 120.176474 
L 629.1695 120.095292 
L 632.291275 120.787188 
L 635.41305 122.908865 
L 638.534825 124.127189 
L 641.6566 123.104216 
L 644.778375 124.148853 
L 647.90015 118.787741 
L 651.021925 118.867018 
L 654.1437 117.342461 
L 657.265475 117.310774 
L 660.38725 120.077032 
L 663.509025 120.71456 
L 666.6308 116.758102 
L 669.752575 116.678188 
L 672.87435 121.09689 
L 675.996125 121.940192 
L 679.1179 121.41944 
L 682.239675 122.079309 
L 685.36145 119.304049 
L 688.483225 119.369997 
L 688.483225 119.369997 
" clip-path="url(#p1838efb4bb)" style="fill: none; stroke: #1f77b4; stroke-width: 1.5; stroke-linecap: square"/>
   </g>
   <g id="line2d_18">
    <path d="M 71.411448 -1 
L 73.49355 101.177495 
L 79.7371 105.231603 
L 85.98065 105.567118 
L 92.2242 105.266758 
L 98.46775 105.21071 
L 104.7113 105.315417 
L 110.95485 105.433844 
L 117.1984 105.51038 
L 123.44195 105.545621 
L 129.6855 105.556877 
L 135.92905 105.558623 
L 142.1726 105.558178 
L 148.41615 105.557888 
L 154.6597 105.557977 
L 160.90325 105.558192 
L 167.1468 105.558363 
L 173.39035 105.558452 
L 179.6339 105.558486 
L 185.87745 105.558493 
L 192.121 105.558493 
L 198.36455 105.558492 
L 204.6081 105.558492 
L 210.85165 105.558492 
L 217.0952 105.558492 
L 223.33875 100.206263 
L 229.5823 93.203542 
L 235.82585 84.97692 
L 242.0694 75.752223 
L 248.31295 65.661387 
L 254.5565 54.791061 
L 260.80005 43.203563 
L 267.0436 30.946706 
L 273.28715 18.058893 
L 279.5307 4.572001 
L 282.00523 -1 
M 299.960708 -1 
L 304.5049 101.227658 
L 310.74845 104.733507 
L 316.992 105.101486 
L 323.23555 105.061023 
L 329.4791 105.159071 
L 335.72265 105.315874 
L 341.9662 105.442016 
L 348.20975 105.514485 
L 354.4533 105.545945 
L 360.69685 105.55585 
L 366.9404 105.557682 
L 373.18395 105.557683 
L 379.4275 105.55772 
L 385.67105 105.557955 
L 391.9146 105.558206 
L 398.15815 105.558374 
L 404.4017 105.558455 
L 410.64525 105.558484 
L 416.8888 105.558491 
L 423.13235 105.558491 
L 429.3759 105.558491 
L 435.61945 105.558492 
L 441.863 105.558492 
L 448.10655 105.558493 
L 454.3501 105.558493 
L 460.59365 105.558493 
L 466.8372 105.558493 
L 473.08075 105.558493 
L 479.3243 105.558493 
L 485.56785 105.558493 
L 491.8114 105.558493 
L 498.05495 105.558493 
L 504.2985 105.558493 
L 510.54205 105.558493 
L 516.7856 105.558493 
L 523.02915 105.558493 
L 529.2727 105.558493 
L 535.51625 105.558493 
L 541.7598 105.558493 
L 548.00335 105.558493 
L 554.2469 105.558493 
L 560.49045 105.558493 
L 566.734 105.558493 
L 572.97755 105.558493 
L 579.2211 105.558493 
L 585.46465 105.558493 
L 591.7082 105.558493 
L 597.95175 105.558493 
L 604.1953 105.558493 
L 610.43885 105.558493 
L 616.6824 105.558493 
L 622.92595 105.558493 
L 629.1695 105.558493 
L 635.41305 105.558493 
L 641.6566 105.558493 
L 647.90015 105.558493 
L 654.1437 105.558493 
L 660.38725 105.558493 
L 666.6308 105.558493 
L 672.87435 105.558493 
L 679.1179 105.558493 
L 685.36145 105.558493 
" clip-path="url(#p1838efb4bb)" style="fill: none; stroke-dasharray: 5.55,2.4; stroke-dashoffset: 0; stroke: #ff0000; stroke-width: 1.5"/>
   </g>
   <g id="line2d_19">
    <path d="M 67.25 439.784785 
L 73.49355 133.387505 
L 79.7371 129.333397 
L 85.98065 128.997882 
L 92.2242 129.298242 
L 98.46775 129.35429 
L 104.7113 129.249583 
L 110.95485 129.131156 
L 117.1984 129.05462 
L 123.44195 129.019379 
L 129.6855 129.008123 
L 135.92905 129.006377 
L 142.1726 129.006822 
L 148.41615 129.007112 
L 154.6597 129.007023 
L 160.90325 129.006808 
L 167.1468 129.006637 
L 173.39035 129.006548 
L 179.6339 129.006514 
L 185.87745 129.006507 
L 192.121 129.006507 
L 198.36455 129.006508 
L 204.6081 129.006508 
L 210.85165 129.006508 
L 217.0952 129.006508 
L 223.33875 134.358737 
L 229.5823 141.361458 
L 235.82585 149.58808 
L 242.0694 158.812777 
L 248.31295 168.903613 
L 254.5565 179.773939 
L 260.80005 191.361437 
L 267.0436 203.618294 
L 273.28715 216.506107 
L 279.5307 229.992999 
L 285.77425 244.051856 
L 292.0178 258.659183 
L 298.26135 273.794321 
L 304.5049 133.337342 
L 310.74845 129.831493 
L 316.992 129.463514 
L 323.23555 129.503977 
L 329.4791 129.405929 
L 335.72265 129.249126 
L 341.9662 129.122984 
L 348.20975 129.050515 
L 354.4533 129.019055 
L 360.69685 129.00915 
L 366.9404 129.007318 
L 373.18395 129.007317 
L 379.4275 129.00728 
L 385.67105 129.007045 
L 391.9146 129.006794 
L 398.15815 129.006626 
L 404.4017 129.006545 
L 410.64525 129.006516 
L 416.8888 129.006509 
L 423.13235 129.006509 
L 429.3759 129.006509 
L 435.61945 129.006508 
L 441.863 129.006508 
L 448.10655 129.006507 
L 454.3501 129.006507 
L 460.59365 129.006507 
L 466.8372 129.006507 
L 473.08075 129.006507 
L 479.3243 129.006507 
L 485.56785 129.006507 
L 491.8114 129.006507 
L 498.05495 129.006507 
L 504.2985 129.006507 
L 510.54205 129.006507 
L 516.7856 129.006507 
L 523.02915 129.006507 
L 529.2727 129.006507 
L 535.51625 129.006507 
L 541.7598 129.006507 
L 548.00335 129.006507 
L 554.2469 129.006507 
L 560.49045 129.006507 
L 566.734 129.006507 
L 572.97755 129.006507 
L 579.2211 129.006507 
L 585.46465 129.006507 
L 591.7082 129.006507 
L 597.95175 129.006507 
L 604.1953 129.006507 
L 610.43885 129.006507 
L 616.6824 129.006507 
L 622.92595 129.006507 
L 629.1695 129.006507 
L 635.41305 129.006507 
L 641.6566 129.006507 
L 647.90015 129.006507 
L 654.1437 129.006507 
L 660.38725 129.006507 
L 666.6308 129.006507 
L 672.87435 129.006507 
L 679.1179 129.006507 
L 685.36145 129.006507 
" clip-path="url(#p1838efb4bb)" style="fill: none; stroke-dasharray: 5.55,2.4; stroke-dashoffset: 0; stroke: #ff0000; stroke-width: 1.5"/>
   </g>
   <g id="patch_3">
    <path d="M 67.25 187.765 
L 67.25 46.8 
" style="fill: none; stroke: #000000; stroke-width: 0.8; stroke-linejoin: miter; stroke-linecap: square"/>
   </g>
   <g id="patch_4">
    <path d="M 691.605 187.765 
L 691.605 46.8 
" style="fill: none; stroke: #000000; stroke-width: 0.8; stroke-linejoin: miter; stroke-linecap: square"/>
   </g>
   <g id="patch_5">
    <path d="M 67.25 187.765 
L 691.605 187.765 
" style="fill: none; stroke: #000000; stroke-width: 0.8; stroke-linejoin: miter; stroke-linecap: square"/>
   </g>
   <g id="patch_6">
    <path d="M 67.25 46.8 
L 691.605 46.8 
" style="fill: none; stroke: #000000; stroke-width: 0.8; stroke-linejoin: miter; stroke-linecap: square"/>
   </g>
  </g>
  <g id="axes_2">
   <g id="patch_7">
    <path d="M 67.25 347.35 
L 691.605 347.35 
L 691.605 206.385 
L 67.25 206.385 
z
" style="fill: #ffffff"/>
   </g>
   <g id="matplotlib.axis_3">
    <g id="xtick_10">
     <g id="line2d_20">
      <g>
       <use xlink:href="#md5ffe6bba9" x="67.25" y="347.35" style="stroke: #000000; stroke-width: 0.8"/>
      </g>
     </g>
    </g>
    <g id="xtick_11">
     <g id="line2d_21">
      <g>
       <use xlink:href="#md5ffe6bba9" x="145.294375" y="347.35" style="stroke: #000000; stroke-width: 0.8"/>
      </g>
     </g>
    </g>
    <g id="xtick_12">
     <g id="line2d_22">
      <g>
       <use xlink:href="#md5ffe6bba9" x="223.33875" y="347.35" style="stroke: #000000; stroke-width: 0.8"/>
      </g>
     </g>
    </g>
    <g id="xtick_13">
     <g id="line2d_23">
      <g>
       <use xlink:href="#md5ffe6bba9" x="301.383125" y="347.35" style="stroke: #000000; stroke-width: 0.8"/>
      </g>
     </g>
    </g>
    <g id="xtick_14">
     <g id="line2d_24">
      <g>
       <use xlink:href="#md5ffe6bba9" x="379.4275" y="347.35" style="stroke: #000000; stroke-width: 0.8"/>
      </g>
     </g>
    </g>
    <g id="xtick_15">
     <g id="line2d_25">
      <g>
       <use xlink:href="#md5ffe6bba9" x="457.471875" y="347.35" style="stroke: #000000; stroke-width: 0.8"/>
      </g>
     </g>
    </g>
    <g id="xtick_16">
     <g id="line2d_26">
      <g>
       <use xlink:href="#md5ffe6bba9" x="535.51625" y="347.35" style="stroke: #000000; stroke-width: 0.8"/>
      </g>
     </g>
    </g>
    <g id="xtick_17">
     <g id="line2d_27">
      <g>
       <use xlink:href="#md5ffe6bba9" x="613.560625" y="347.35" style="stroke: #000000; stroke-width: 0.8"/>
      </g>
     </g>
    </g>
    <g id="xtick_18">
     <g id="line2d_28">
      <g>
       <use xlink:href="#md5ffe6bba9" x="691.605" y="347.35" style="stroke: #000000; stroke-width: 0.8"/>
      </g>
     </g>
    </g>
   </g>
   <g id="matplotlib.axis_4">
    <g id="ytick_8">
     <g id="line2d_29">
      <g>
       <use xlink:href="#m0967b23ae0" x="67.25" y="341.367957" style="stroke: #000000; stroke-width: 0.8"/>
      </g>
     </g>
     <g id="text_9">
      <!-- -6.0 -->
      <g transform="translate(32.934688 346.686863) scale(0.14 -0.14)">
       <use xlink:href="#DejaVuSans-2d"/>
       <use xlink:href="#DejaVuSans-36" x="36.083984"/>
       <use xlink:href="#DejaVuSans-2e" x="99.707031"/>
       <use xlink:href="#DejaVuSans-30" x="131.494141"/>
      </g>
     </g>
    </g>
    <g id="ytick_9">
     <g id="line2d_30">
      <g>
       <use xlink:href="#m0967b23ae0" x="67.25" y="319.867805" style="stroke: #000000; stroke-width: 0.8"/>
      </g>
     </g>
     <g id="text_10">
      <!-- -4.0 -->
      <g transform="translate(32.934688 325.186711) scale(0.14 -0.14)">
       <use xlink:href="#DejaVuSans-2d"/>
       <use xlink:href="#DejaVuSans-34" x="36.083984"/>
       <use xlink:href="#DejaVuSans-2e" x="99.707031"/>
       <use xlink:href="#DejaVuSans-30" x="131.494141"/>
      </g>
     </g>
    </g>
    <g id="ytick_10">
     <g id="line2d_31">
      <g>
       <use xlink:href="#m0967b23ae0" x="67.25" y="298.367652" style="stroke: #000000; stroke-width: 0.8"/>
      </g>
     </g>
     <g id="text_11">
      <!-- -2.0 -->
      <g transform="translate(32.934688 303.686559) scale(0.14 -0.14)">
       <use xlink:href="#DejaVuSans-2d"/>
       <use xlink:href="#DejaVuSans-32" x="36.083984"/>
       <use xlink:href="#DejaVuSans-2e" x="99.707031"/>
       <use xlink:href="#DejaVuSans-30" x="131.494141"/>
      </g>
     </g>
    </g>
    <g id="ytick_11">
     <g id="line2d_32">
      <g>
       <use xlink:href="#m0967b23ae0" x="67.25" y="276.8675" style="stroke: #000000; stroke-width: 0.8"/>
      </g>
     </g>
     <g id="text_12">
      <!-- 0.0 -->
      <g transform="translate(37.985625 282.186406) scale(0.14 -0.14)">
       <use xlink:href="#DejaVuSans-30"/>
       <use xlink:href="#DejaVuSans-2e" x="63.623047"/>
       <use xlink:href="#DejaVuSans-30" x="95.410156"/>
      </g>
     </g>
    </g>
    <g id="ytick_12">
     <g id="line2d_33">
      <g>
       <use xlink:href="#m0967b23ae0" x="67.25" y="255.367348" style="stroke: #000000; stroke-width: 0.8"/>
      </g>
     </g>
     <g id="text_13">
      <!-- 2.0 -->
      <g transform="translate(37.985625 260.686254) scale(0.14 -0.14)">
       <use xlink:href="#DejaVuSans-32"/>
       <use xlink:href="#DejaVuSans-2e" x="63.623047"/>
       <use xlink:href="#DejaVuSans-30" x="95.410156"/>
      </g>
     </g>
    </g>
    <g id="ytick_13">
     <g id="line2d_34">
      <g>
       <use xlink:href="#m0967b23ae0" x="67.25" y="233.867195" style="stroke: #000000; stroke-width: 0.8"/>
      </g>
     </g>
     <g id="text_14">
      <!-- 4.0 -->
      <g transform="translate(37.985625 239.186102) scale(0.14 -0.14)">
       <use xlink:href="#DejaVuSans-34"/>
       <use xlink:href="#DejaVuSans-2e" x="63.623047"/>
       <use xlink:href="#DejaVuSans-30" x="95.410156"/>
      </g>
     </g>
    </g>
    <g id="ytick_14">
     <g id="line2d_35">
      <g>
       <use xlink:href="#m0967b23ae0" x="67.25" y="212.367043" style="stroke: #000000; stroke-width: 0.8"/>
      </g>
     </g>
     <g id="text_15">
      <!-- 6.0 -->
      <g transform="translate(37.985625 217.685949) scale(0.14 -0.14)">
       <use xlink:href="#DejaVuSans-36"/>
       <use xlink:href="#DejaVuSans-2e" x="63.623047"/>
       <use xlink:href="#DejaVuSans-30" x="95.410156"/>
      </g>
     </g>
    </g>
    <g id="text_16">
     <!-- Pos E [m] -->
     <g transform="translate(26.023125 309.917344) rotate(-90) scale(0.14 -0.14)">
      <defs>
       <path id="DejaVuSans-45" d="M 628 4666 
L 3578 4666 
L 3578 4134 
L 1259 4134 
L 1259 2753 
L 3481 2753 
L 3481 2222 
L 1259 2222 
L 1259 531 
L 3634 531 
L 3634 0 
L 628 0 
L 628 4666 
z
" transform="scale(0.015625)"/>
      </defs>
      <use xlink:href="#DejaVuSans-50"/>
      <use xlink:href="#DejaVuSans-6f" x="56.677734"/>
      <use xlink:href="#DejaVuSans-73" x="117.859375"/>
      <use xlink:href="#DejaVuSans-20" x="169.958984"/>
      <use xlink:href="#DejaVuSans-45" x="201.746094"/>
      <use xlink:href="#DejaVuSans-20" x="264.929688"/>
      <use xlink:href="#DejaVuSans-5b" x="296.716797"/>
      <use xlink:href="#DejaVuSans-6d" x="335.730469"/>
      <use xlink:href="#DejaVuSans-5d" x="433.142578"/>
     </g>
    </g>
   </g>
   <g id="line2d_36">
    <path d="M 67.25 276.8675 
L 70.371775 276.734887 
L 73.49355 283.270359 
L 76.615325 282.609682 
L 79.7371 278.946509 
L 82.858875 277.455165 
L 85.98065 276.544237 
L 89.102425 274.699559 
L 92.2242 275.716338 
L 95.345975 274.008227 
L 98.46775 276.450423 
L 101.589525 275.100752 
L 104.7113 278.619777 
L 107.833075 277.731436 
L 110.95485 279.014555 
L 114.076625 278.085284 
L 117.1984 268.178235 
L 120.320175 265.184094 
L 123.44195 271.64139 
L 126.563725 269.966614 
L 129.6855 268.44301 
L 132.807275 266.402279 
L 135.92905 272.542357 
L 139.050825 271.628783 
L 142.1726 269.992751 
L 145.294375 268.590707 
L 148.41615 268.7162 
L 151.537925 267.260126 
L 154.6597 270.28904 
L 157.781475 269.344561 
L 160.90325 274.622344 
L 164.025025 274.532153 
L 167.1468 279.568267 
L 170.268575 280.155833 
L 173.39035 275.886789 
L 176.512125 275.344334 
L 179.6339 279.485394 
L 182.755675 279.591964 
L 185.87745 281.773864 
L 188.999225 282.077999 
L 192.121 275.097659 
L 195.242775 273.908511 
L 198.36455 270.723534 
L 201.486325 269.041437 
L 204.6081 272.251312 
L 207.729875 271.370824 
L 210.85165 274.541436 
L 213.973425 274.337927 
L 217.0952 277.454941 
L 235.82585 279.712718 
L 242.0694 280.642643 
L 248.31295 281.771312 
L 254.5565 283.163752 
L 260.80005 284.883947 
L 267.0436 286.994591 
L 270.165375 288.215508 
L 273.28715 289.556834 
L 276.408925 291.025934 
L 279.5307 292.630045 
L 282.652475 294.37627 
L 285.77425 296.271575 
L 288.896025 298.322775 
L 292.0178 300.536535 
L 295.139575 302.919355 
L 298.26135 305.477572 
L 301.383125 308.217349 
L 304.5049 281.069268 
L 307.626675 282.801633 
L 310.74845 277.225951 
L 313.870225 278.222073 
L 316.992 274.664195 
L 320.113775 275.093659 
L 323.23555 274.975562 
L 326.357325 275.690621 
L 329.4791 284.724712 
L 332.600875 287.465031 
L 335.72265 280.778266 
L 338.844425 282.200319 
L 341.9662 278.157961 
L 345.087975 279.025831 
L 348.20975 278.265747 
L 351.331525 279.292388 
L 354.4533 276.713703 
L 357.575075 277.544936 
L 360.69685 273.69793 
L 363.818625 274.142412 
L 366.9404 275.770752 
L 370.062175 276.909672 
L 373.18395 280.20842 
L 376.305725 282.224379 
L 379.4275 285.693591 
L 382.549275 288.458135 
L 385.67105 283.577207 
L 388.792825 285.418507 
L 391.9146 283.919128 
L 395.036375 285.62551 
L 398.15815 283.52009 
L 401.279925 285.000716 
L 404.4017 284.739001 
L 407.523475 286.367792 
L 410.64525 281.454171 
L 413.767025 282.34144 
L 416.8888 277.892652 
L 420.010575 278.250126 
L 423.13235 276.568419 
L 426.254125 276.990031 
L 429.3759 280.417845 
L 432.497675 281.816955 
L 435.61945 277.441425 
L 438.741225 278.190169 
L 441.863 277.053686 
L 444.984775 277.849803 
L 448.10655 284.873938 
L 451.228325 287.189428 
L 454.3501 281.225062 
L 457.471875 282.37549 
L 460.59365 285.879165 
L 463.715425 287.796483 
L 466.8372 286.239903 
L 469.958975 287.831391 
L 473.08075 279.85728 
L 476.202525 279.980394 
L 479.3243 276.608392 
L 482.446075 276.353348 
L 485.56785 278.399731 
L 488.689625 278.80539 
L 491.8114 280.539197 
L 494.933175 281.400026 
L 498.05495 278.477211 
L 501.176725 278.826699 
L 504.2985 283.103565 
L 507.420275 284.329717 
L 510.54205 279.830893 
L 513.663825 280.131868 
L 516.7856 279.40457 
L 519.907375 279.613604 
L 523.02915 276.194053 
L 526.150925 275.803715 
L 529.2727 276.550406 
L 532.394475 276.405942 
L 535.51625 279.678645 
L 538.638025 280.168633 
L 541.7598 278.076005 
L 544.881575 278.068174 
L 548.00335 278.412022 
L 551.125125 278.415169 
L 554.2469 281.617337 
L 557.368675 282.124499 
L 560.49045 282.863505 
L 563.612225 283.300062 
L 566.734 282.930903 
L 569.855775 283.077105 
L 572.97755 279.678998 
L 576.099325 279.00322 
L 579.2211 275.331159 
L 582.342875 273.906121 
L 585.46465 274.82411 
L 588.586425 273.603363 
L 591.7082 278.115478 
L 594.829975 277.695393 
L 597.95175 278.073569 
L 601.073525 277.522513 
L 604.1953 275.229263 
L 607.317075 274.056445 
L 610.43885 271.845804 
L 613.560625 270.157624 
L 616.6824 275.49236 
L 619.804175 274.747683 
L 622.92595 274.617632 
L 626.047725 273.619081 
L 629.1695 275.875838 
L 632.291275 275.08956 
L 635.41305 281.676055 
L 638.534825 281.840969 
L 641.6566 282.86068 
L 644.778375 282.763822 
L 647.90015 281.098679 
L 654.1437 279.447251 
L 657.265475 278.181234 
L 660.38725 277.8972 
L 663.509025 276.355595 
L 666.6308 277.49479 
L 672.87435 274.569939 
L 675.996125 272.603054 
L 679.1179 276.531624 
L 682.239675 275.170614 
L 685.36145 279.834445 
L 688.483225 279.099801 
L 688.483225 279.099801 
" clip-path="url(#pa517ab3e6d)" style="fill: none; stroke: #1f77b4; stroke-width: 1.5; stroke-linecap: square"/>
   </g>
   <g id="line2d_37">
    <path d="M 68.159537 -1 
L 73.49355 260.762495 
L 79.7371 264.816603 
L 85.98065 265.152118 
L 92.2242 264.851758 
L 98.46775 264.79571 
L 104.7113 264.900417 
L 110.95485 265.018844 
L 117.1984 265.09538 
L 123.44195 265.130621 
L 129.6855 265.141877 
L 135.92905 265.143623 
L 142.1726 265.143178 
L 148.41615 265.142888 
L 154.6597 265.142977 
L 160.90325 265.143192 
L 167.1468 265.143363 
L 173.39035 265.143452 
L 179.6339 265.143486 
L 185.87745 265.143493 
L 192.121 265.143493 
L 198.36455 265.143492 
L 204.6081 265.143492 
L 210.85165 265.143492 
L 217.0952 265.143492 
L 223.33875 259.791263 
L 229.5823 252.788542 
L 235.82585 244.56192 
L 242.0694 235.337223 
L 248.31295 225.246387 
L 254.5565 214.376061 
L 260.80005 202.788563 
L 267.0436 190.531706 
L 273.28715 177.643893 
L 279.5307 164.157001 
L 285.77425 150.098144 
L 292.0178 135.490817 
L 298.26135 120.355679 
L 304.5049 260.812658 
L 310.74845 264.318507 
L 316.992 264.686486 
L 323.23555 264.646023 
L 329.4791 264.744071 
L 335.72265 264.900874 
L 341.9662 265.027016 
L 348.20975 265.099485 
L 354.4533 265.130945 
L 360.69685 265.14085 
L 366.9404 265.142682 
L 373.18395 265.142683 
L 379.4275 265.14272 
L 385.67105 265.142955 
L 391.9146 265.143206 
L 398.15815 265.143374 
L 404.4017 265.143455 
L 410.64525 265.143484 
L 416.8888 265.143491 
L 423.13235 265.143491 
L 429.3759 265.143491 
L 435.61945 265.143492 
L 441.863 265.143492 
L 448.10655 265.143493 
L 454.3501 265.143493 
L 460.59365 265.143493 
L 466.8372 265.143493 
L 473.08075 265.143493 
L 479.3243 265.143493 
L 485.56785 265.143493 
L 491.8114 265.143493 
L 498.05495 265.143493 
L 504.2985 265.143493 
L 510.54205 265.143493 
L 516.7856 265.143493 
L 523.02915 265.143493 
L 529.2727 265.143493 
L 535.51625 265.143493 
L 541.7598 265.143493 
L 548.00335 265.143493 
L 554.2469 265.143493 
L 560.49045 265.143493 
L 566.734 265.143493 
L 572.97755 265.143493 
L 579.2211 265.143493 
L 585.46465 265.143493 
L 591.7082 265.143493 
L 597.95175 265.143493 
L 604.1953 265.143493 
L 610.43885 265.143493 
L 616.6824 265.143493 
L 622.92595 265.143493 
L 629.1695 265.143493 
L 635.41305 265.143493 
L 641.6566 265.143493 
L 647.90015 265.143493 
L 654.1437 265.143493 
L 660.38725 265.143493 
L 666.6308 265.143493 
L 672.87435 265.143493 
L 679.1179 265.143493 
L 685.36145 265.143493 
" clip-path="url(#pa517ab3e6d)" style="fill: none; stroke-dasharray: 5.55,2.4; stroke-dashoffset: 0; stroke: #ff0000; stroke-width: 1.5"/>
   </g>
   <g id="line2d_38">
    <path d="M 67.25 599.369785 
L 73.49355 292.972505 
L 79.7371 288.918397 
L 85.98065 288.582882 
L 92.2242 288.883242 
L 98.46775 288.93929 
L 104.7113 288.834583 
L 110.95485 288.716156 
L 117.1984 288.63962 
L 123.44195 288.604379 
L 129.6855 288.593123 
L 135.92905 288.591377 
L 142.1726 288.591822 
L 148.41615 288.592112 
L 154.6597 288.592023 
L 160.90325 288.591808 
L 167.1468 288.591637 
L 173.39035 288.591548 
L 179.6339 288.591514 
L 185.87745 288.591507 
L 192.121 288.591507 
L 198.36455 288.591508 
L 204.6081 288.591508 
L 210.85165 288.591508 
L 217.0952 288.591508 
L 223.33875 293.943737 
L 229.5823 300.946458 
L 235.82585 309.17308 
L 242.0694 318.397777 
L 248.31295 328.488613 
L 254.5565 339.358939 
L 260.80005 350.946437 
L 267.0436 363.203294 
L 273.28715 376.091107 
L 279.5307 389.577999 
L 285.77425 403.636856 
L 292.0178 418.244183 
L 298.26135 433.379321 
L 304.5049 292.922342 
L 310.74845 289.416493 
L 316.992 289.048514 
L 323.23555 289.088977 
L 329.4791 288.990929 
L 335.72265 288.834126 
L 341.9662 288.707984 
L 348.20975 288.635515 
L 354.4533 288.604055 
L 360.69685 288.59415 
L 366.9404 288.592318 
L 373.18395 288.592317 
L 379.4275 288.59228 
L 385.67105 288.592045 
L 391.9146 288.591794 
L 398.15815 288.591626 
L 404.4017 288.591545 
L 410.64525 288.591516 
L 416.8888 288.591509 
L 423.13235 288.591509 
L 429.3759 288.591509 
L 435.61945 288.591508 
L 441.863 288.591508 
L 448.10655 288.591507 
L 454.3501 288.591507 
L 460.59365 288.591507 
L 466.8372 288.591507 
L 473.08075 288.591507 
L 479.3243 288.591507 
L 485.56785 288.591507 
L 491.8114 288.591507 
L 498.05495 288.591507 
L 504.2985 288.591507 
L 510.54205 288.591507 
L 516.7856 288.591507 
L 523.02915 288.591507 
L 529.2727 288.591507 
L 535.51625 288.591507 
L 541.7598 288.591507 
L 548.00335 288.591507 
L 554.2469 288.591507 
L 560.49045 288.591507 
L 566.734 288.591507 
L 572.97755 288.591507 
L 579.2211 288.591507 
L 585.46465 288.591507 
L 591.7082 288.591507 
L 597.95175 288.591507 
L 604.1953 288.591507 
L 610.43885 288.591507 
L 616.6824 288.591507 
L 622.92595 288.591507 
L 629.1695 288.591507 
L 635.41305 288.591507 
L 641.6566 288.591507 
L 647.90015 288.591507 
L 654.1437 288.591507 
L 660.38725 288.591507 
L 666.6308 288.591507 
L 672.87435 288.591507 
L 679.1179 288.591507 
L 685.36145 288.591507 
" clip-path="url(#pa517ab3e6d)" style="fill: none; stroke-dasharray: 5.55,2.4; stroke-dashoffset: 0; stroke: #ff0000; stroke-width: 1.5"/>
   </g>
   <g id="patch_8">
    <path d="M 67.25 347.35 
L 67.25 206.385 
" style="fill: none; stroke: #000000; stroke-width: 0.8; stroke-linejoin: miter; stroke-linecap: square"/>
   </g>
   <g id="patch_9">
    <path d="M 691.605 347.35 
L 691.605 206.385 
" style="fill: none; stroke: #000000; stroke-width: 0.8; stroke-linejoin: miter; stroke-linecap: square"/>
   </g>
   <g id="patch_10">
    <path d="M 67.25 347.35 
L 691.605 347.35 
" style="fill: none; stroke: #000000; stroke-width: 0.8; stroke-linejoin: miter; stroke-linecap: square"/>
   </g>
   <g id="patch_11">
    <path d="M 67.25 206.385 
L 691.605 206.385 
" style="fill: none; stroke: #000000; stroke-width: 0.8; stroke-linejoin: miter; stroke-linecap: square"/>
   </g>
  </g>
  <g id="axes_3">
   <g id="patch_12">
    <path d="M 67.25 506.935 
L 691.605 506.935 
L 691.605 365.97 
L 67.25 365.97 
z
" style="fill: #ffffff"/>
   </g>
   <g id="matplotlib.axis_5">
    <g id="xtick_19">
     <g id="line2d_39">
      <g>
       <use xlink:href="#md5ffe6bba9" x="67.25" y="506.935" style="stroke: #000000; stroke-width: 0.8"/>
      </g>
     </g>
    </g>
    <g id="xtick_20">
     <g id="line2d_40">
      <g>
       <use xlink:href="#md5ffe6bba9" x="145.294375" y="506.935" style="stroke: #000000; stroke-width: 0.8"/>
      </g>
     </g>
    </g>
    <g id="xtick_21">
     <g id="line2d_41">
      <g>
       <use xlink:href="#md5ffe6bba9" x="223.33875" y="506.935" style="stroke: #000000; stroke-width: 0.8"/>
      </g>
     </g>
    </g>
    <g id="xtick_22">
     <g id="line2d_42">
      <g>
       <use xlink:href="#md5ffe6bba9" x="301.383125" y="506.935" style="stroke: #000000; stroke-width: 0.8"/>
      </g>
     </g>
    </g>
    <g id="xtick_23">
     <g id="line2d_43">
      <g>
       <use xlink:href="#md5ffe6bba9" x="379.4275" y="506.935" style="stroke: #000000; stroke-width: 0.8"/>
      </g>
     </g>
    </g>
    <g id="xtick_24">
     <g id="line2d_44">
      <g>
       <use xlink:href="#md5ffe6bba9" x="457.471875" y="506.935" style="stroke: #000000; stroke-width: 0.8"/>
      </g>
     </g>
    </g>
    <g id="xtick_25">
     <g id="line2d_45">
      <g>
       <use xlink:href="#md5ffe6bba9" x="535.51625" y="506.935" style="stroke: #000000; stroke-width: 0.8"/>
      </g>
     </g>
    </g>
    <g id="xtick_26">
     <g id="line2d_46">
      <g>
       <use xlink:href="#md5ffe6bba9" x="613.560625" y="506.935" style="stroke: #000000; stroke-width: 0.8"/>
      </g>
     </g>
    </g>
    <g id="xtick_27">
     <g id="line2d_47">
      <g>
       <use xlink:href="#md5ffe6bba9" x="691.605" y="506.935" style="stroke: #000000; stroke-width: 0.8"/>
      </g>
     </g>
    </g>
   </g>
   <g id="matplotlib.axis_6">
    <g id="ytick_15">
     <g id="line2d_48">
      <g>
       <use xlink:href="#m0967b23ae0" x="67.25" y="505.605397" style="stroke: #000000; stroke-width: 0.8"/>
      </g>
     </g>
     <g id="text_17">
      <!-- -0.8 -->
      <g transform="translate(32.934688 510.924303) scale(0.14 -0.14)">
       <defs>
        <path id="DejaVuSans-38" d="M 2034 2216 
Q 1584 2216 1326 1975 
Q 1069 1734 1069 1313 
Q 1069 891 1326 650 
Q 1584 409 2034 409 
Q 2484 409 2743 651 
Q 3003 894 3003 1313 
Q 3003 1734 2745 1975 
Q 2488 2216 2034 2216 
z
M 1403 2484 
Q 997 2584 770 2862 
Q 544 3141 544 3541 
Q 544 4100 942 4425 
Q 1341 4750 2034 4750 
Q 2731 4750 3128 4425 
Q 3525 4100 3525 3541 
Q 3525 3141 3298 2862 
Q 3072 2584 2669 2484 
Q 3125 2378 3379 2068 
Q 3634 1759 3634 1313 
Q 3634 634 3220 271 
Q 2806 -91 2034 -91 
Q 1263 -91 848 271 
Q 434 634 434 1313 
Q 434 1759 690 2068 
Q 947 2378 1403 2484 
z
M 1172 3481 
Q 1172 3119 1398 2916 
Q 1625 2713 2034 2713 
Q 2441 2713 2670 2916 
Q 2900 3119 2900 3481 
Q 2900 3844 2670 4047 
Q 2441 4250 2034 4250 
Q 1625 4250 1398 4047 
Q 1172 3844 1172 3481 
z
" transform="scale(0.015625)"/>
       </defs>
       <use xlink:href="#DejaVuSans-2d"/>
       <use xlink:href="#DejaVuSans-30" x="36.083984"/>
       <use xlink:href="#DejaVuSans-2e" x="99.707031"/>
       <use xlink:href="#DejaVuSans-38" x="131.494141"/>
      </g>
     </g>
    </g>
    <g id="ytick_16">
     <g id="line2d_49">
      <g>
       <use xlink:href="#m0967b23ae0" x="67.25" y="482.554431" style="stroke: #000000; stroke-width: 0.8"/>
      </g>
     </g>
     <g id="text_18">
      <!-- -0.5 -->
      <g transform="translate(32.934688 487.873337) scale(0.14 -0.14)">
       <defs>
        <path id="DejaVuSans-35" d="M 691 4666 
L 3169 4666 
L 3169 4134 
L 1269 4134 
L 1269 2991 
Q 1406 3038 1543 3061 
Q 1681 3084 1819 3084 
Q 2600 3084 3056 2656 
Q 3513 2228 3513 1497 
Q 3513 744 3044 326 
Q 2575 -91 1722 -91 
Q 1428 -91 1123 -41 
Q 819 9 494 109 
L 494 744 
Q 775 591 1075 516 
Q 1375 441 1709 441 
Q 2250 441 2565 725 
Q 2881 1009 2881 1497 
Q 2881 1984 2565 2268 
Q 2250 2553 1709 2553 
Q 1456 2553 1204 2497 
Q 953 2441 691 2322 
L 691 4666 
z
" transform="scale(0.015625)"/>
       </defs>
       <use xlink:href="#DejaVuSans-2d"/>
       <use xlink:href="#DejaVuSans-30" x="36.083984"/>
       <use xlink:href="#DejaVuSans-2e" x="99.707031"/>
       <use xlink:href="#DejaVuSans-35" x="131.494141"/>
      </g>
     </g>
    </g>
    <g id="ytick_17">
     <g id="line2d_50">
      <g>
       <use xlink:href="#m0967b23ae0" x="67.25" y="459.503466" style="stroke: #000000; stroke-width: 0.8"/>
      </g>
     </g>
     <g id="text_19">
      <!-- -0.2 -->
      <g transform="translate(32.934688 464.822372) scale(0.14 -0.14)">
       <use xlink:href="#DejaVuSans-2d"/>
       <use xlink:href="#DejaVuSans-30" x="36.083984"/>
       <use xlink:href="#DejaVuSans-2e" x="99.707031"/>
       <use xlink:href="#DejaVuSans-32" x="131.494141"/>
      </g>
     </g>
    </g>
    <g id="ytick_18">
     <g id="line2d_51">
      <g>
       <use xlink:href="#m0967b23ae0" x="67.25" y="436.4525" style="stroke: #000000; stroke-width: 0.8"/>
      </g>
     </g>
     <g id="text_20">
      <!-- 0.0 -->
      <g transform="translate(37.985625 441.771406) scale(0.14 -0.14)">
       <use xlink:href="#DejaVuSans-30"/>
       <use xlink:href="#DejaVuSans-2e" x="63.623047"/>
       <use xlink:href="#DejaVuSans-30" x="95.410156"/>
      </g>
     </g>
    </g>
    <g id="ytick_19">
     <g id="line2d_52">
      <g>
       <use xlink:href="#m0967b23ae0" x="67.25" y="413.401534" style="stroke: #000000; stroke-width: 0.8"/>
      </g>
     </g>
     <g id="text_21">
      <!-- 0.2 -->
      <g transform="translate(37.985625 418.720441) scale(0.14 -0.14)">
       <use xlink:href="#DejaVuSans-30"/>
       <use xlink:href="#DejaVuSans-2e" x="63.623047"/>
       <use xlink:href="#DejaVuSans-32" x="95.410156"/>
      </g>
     </g>
    </g>
    <g id="ytick_20">
     <g id="line2d_53">
      <g>
       <use xlink:href="#m0967b23ae0" x="67.25" y="390.350569" style="stroke: #000000; stroke-width: 0.8"/>
      </g>
     </g>
     <g id="text_22">
      <!-- 0.5 -->
      <g transform="translate(37.985625 395.669475) scale(0.14 -0.14)">
       <use xlink:href="#DejaVuSans-30"/>
       <use xlink:href="#DejaVuSans-2e" x="63.623047"/>
       <use xlink:href="#DejaVuSans-35" x="95.410156"/>
      </g>
     </g>
    </g>
    <g id="ytick_21">
     <g id="line2d_54">
      <g>
       <use xlink:href="#m0967b23ae0" x="67.25" y="367.299603" style="stroke: #000000; stroke-width: 0.8"/>
      </g>
     </g>
     <g id="text_23">
      <!-- 0.8 -->
      <g transform="translate(37.985625 372.61851) scale(0.14 -0.14)">
       <use xlink:href="#DejaVuSans-30"/>
       <use xlink:href="#DejaVuSans-2e" x="63.623047"/>
       <use xlink:href="#DejaVuSans-38" x="95.410156"/>
      </g>
     </g>
    </g>
    <g id="text_24">
     <!-- Vel N [m/s] -->
     <g transform="translate(26.023125 474.921875) rotate(-90) scale(0.14 -0.14)">
      <defs>
       <path id="DejaVuSans-56" d="M 1831 0 
L 50 4666 
L 709 4666 
L 2188 738 
L 3669 4666 
L 4325 4666 
L 2547 0 
L 1831 0 
z
" transform="scale(0.015625)"/>
       <path id="DejaVuSans-65" d="M 3597 1894 
L 3597 1613 
L 953 1613 
Q 991 1019 1311 708 
Q 1631 397 2203 397 
Q 2534 397 2845 478 
Q 3156 559 3463 722 
L 3463 178 
Q 3153 47 2828 -22 
Q 2503 -91 2169 -91 
Q 1331 -91 842 396 
Q 353 884 353 1716 
Q 353 2575 817 3079 
Q 1281 3584 2069 3584 
Q 2775 3584 3186 3129 
Q 3597 2675 3597 1894 
z
M 3022 2063 
Q 3016 2534 2758 2815 
Q 2500 3097 2075 3097 
Q 1594 3097 1305 2825 
Q 1016 2553 972 2059 
L 3022 2063 
z
" transform="scale(0.015625)"/>
       <path id="DejaVuSans-6c" d="M 603 4863 
L 1178 4863 
L 1178 0 
L 603 0 
L 603 4863 
z
" transform="scale(0.015625)"/>
       <path id="DejaVuSans-2f" d="M 1625 4666 
L 2156 4666 
L 531 -594 
L 0 -594 
L 1625 4666 
z
" transform="scale(0.015625)"/>
      </defs>
      <use xlink:href="#DejaVuSans-56"/>
      <use xlink:href="#DejaVuSans-65" x="60.658203"/>
      <use xlink:href="#DejaVuSans-6c" x="122.181641"/>
      <use xlink:href="#DejaVuSans-20" x="149.964844"/>
      <use xlink:href="#DejaVuSans-4e" x="181.751953"/>
      <use xlink:href="#DejaVuSans-20" x="256.556641"/>
      <use xlink:href="#DejaVuSans-5b" x="288.34375"/>
      <use xlink:href="#DejaVuSans-6d" x="327.357422"/>
      <use xlink:href="#DejaVuSans-2f" x="424.769531"/>
      <use xlink:href="#DejaVuSans-73" x="458.460938"/>
      <use xlink:href="#DejaVuSans-5d" x="510.560547"/>
     </g>
    </g>
   </g>
   <g id="line2d_55">
    <path d="M 67.25 436.4525 
L 73.49355 436.317456 
L 76.615325 436.138966 
L 79.7371 433.298186 
L 82.858875 432.977643 
L 85.98065 440.862068 
L 89.102425 440.400738 
L 92.2242 430.103159 
L 95.345975 429.502862 
L 98.46775 437.85987 
L 101.589525 437.122975 
L 104.7113 432.581252 
L 107.833075 431.710669 
L 114.076625 429.673607 
L 117.1984 432.966406 
L 120.320175 431.839265 
L 123.44195 417.130065 
L 126.563725 415.881068 
L 129.6855 427.722776 
L 132.807275 426.356853 
L 135.92905 428.307859 
L 139.050825 426.8304 
L 142.1726 425.969071 
L 145.294375 424.385907 
L 148.41615 435.761449 
L 151.537925 434.078828 
L 154.6597 427.49235 
L 157.781475 425.716914 
L 160.90325 430.251033 
L 164.025025 428.389786 
L 167.1468 425.970766 
L 170.268575 424.031056 
L 173.39035 432.847333 
L 176.512125 430.836814 
L 179.6339 435.490369 
L 182.755675 433.416976 
L 185.87745 425.038305 
L 188.999225 422.910221 
L 192.121 423.598592 
L 195.242775 421.424215 
L 198.36455 425.112935 
L 201.486325 422.900846 
L 204.6081 423.831687 
L 207.729875 421.590617 
L 210.85165 424.221362 
L 213.973425 421.960155 
L 217.0952 432.336192 
L 245.191175 411.991884 
L 257.678275 403.25881 
L 267.0436 396.955557 
L 276.408925 390.925985 
L 285.77425 385.223613 
L 292.0178 381.628937 
L 298.26135 378.216434 
L 301.383125 376.582736 
L 304.5049 419.464015 
L 307.626675 417.932948 
L 310.74845 423.659459 
L 313.870225 422.237066 
L 316.992 427.330775 
L 320.113775 426.022669 
L 323.23555 427.457828 
L 326.357325 426.269172 
L 329.4791 421.157967 
L 332.600875 420.093453 
L 335.72265 425.612049 
L 338.844425 424.675877 
L 341.9662 431.935515 
L 345.087975 431.131379 
L 348.20975 436.234895 
L 351.331525 435.565969 
L 354.4533 435.753559 
L 357.575075 435.222483 
L 360.69685 424.82232 
L 363.818625 424.431191 
L 366.9404 445.887242 
L 370.062175 445.637602 
L 373.18395 437.44721 
L 376.305725 437.340045 
L 379.4275 434.709015 
L 382.549275 434.744749 
L 385.67105 431.114891 
L 388.792825 431.293381 
L 391.9146 439.805245 
L 395.036375 440.125787 
L 398.15815 429.091278 
L 401.279925 429.552608 
L 404.4017 431.019626 
L 407.523475 431.619923 
L 410.64525 438.376898 
L 413.767025 439.113793 
L 416.8888 441.323311 
L 420.010575 442.193895 
L 423.13235 446.596942 
L 426.254125 447.59778 
L 429.3759 444.697763 
L 432.497675 445.824905 
L 435.61945 444.190522 
L 438.741225 445.439519 
L 441.863 438.804466 
L 444.984775 440.170389 
L 448.10655 439.747554 
L 451.228325 441.225013 
L 457.471875 444.515394 
L 460.59365 441.257151 
L 463.715425 442.939771 
L 466.8372 441.647378 
L 469.958975 443.422815 
L 473.08075 443.954565 
L 476.202525 445.815811 
L 479.3243 453.131901 
L 482.446075 455.071611 
L 485.56785 444.531985 
L 488.689625 446.542504 
L 491.8114 450.552974 
L 494.933175 452.626366 
L 498.05495 451.81242 
L 501.176725 453.940504 
L 504.2985 447.27372 
L 507.420275 449.448097 
L 510.54205 442.197867 
L 513.663825 444.409956 
L 516.7856 436.630492 
L 519.907375 438.871562 
L 523.02915 449.79257 
L 526.150925 452.053777 
L 529.2727 441.237831 
L 532.394475 443.510251 
L 535.51625 437.507248 
L 538.638025 439.781913 
L 541.7598 446.896583 
L 544.881575 449.164516 
L 548.00335 450.075924 
L 551.125125 452.328174 
L 554.2469 452.508691 
L 557.368675 454.73637 
L 560.49045 452.56803 
L 563.612225 454.762346 
L 566.734 454.611883 
L 569.855775 456.764176 
L 572.97755 455.420708 
L 576.099325 457.522483 
L 579.2211 447.197661 
L 582.342875 449.240624 
L 585.46465 440.878519 
L 588.586425 442.854608 
L 591.7082 431.63039 
L 594.829975 433.531806 
L 597.95175 442.423459 
L 601.073525 444.242698 
L 604.1953 452.702976 
L 607.317075 454.432858 
L 610.43885 445.757406 
L 613.560625 447.391105 
L 616.6824 444.712741 
L 619.804175 446.243808 
L 622.92595 440.130757 
L 626.047725 441.55315 
L 629.1695 441.727995 
L 632.291275 443.0361 
L 635.41305 446.302712 
L 638.534825 447.491368 
L 641.6566 444.87488 
L 644.778375 445.939395 
L 647.90015 436.658942 
L 651.021925 437.595115 
L 654.1437 435.773083 
L 657.265475 436.577219 
L 660.38725 441.580449 
L 663.509025 442.249375 
L 666.6308 435.495748 
L 669.752575 436.026824 
L 672.87435 443.48411 
L 675.996125 443.875239 
L 679.1179 441.98149 
L 682.239675 442.231129 
L 685.36145 436.958606 
L 688.483225 437.065771 
L 688.483225 437.065771 
" clip-path="url(#pd5a32179ff)" style="fill: none; stroke: #1f77b4; stroke-width: 1.5; stroke-linecap: square"/>
   </g>
   <g id="line2d_56">
    <path d="M 67.25 408.791341 
L 73.49355 402.581676 
L 79.7371 399.522715 
L 85.98065 400.518924 
L 92.2242 403.372683 
L 98.46775 405.641989 
L 104.7113 406.790669 
L 110.95485 407.203648 
L 117.1984 407.294835 
L 123.44195 407.292949 
L 129.6855 407.283338 
L 135.92905 407.282669 
L 142.1726 407.28695 
L 148.41615 407.291275 
L 154.6597 407.29388 
L 160.90325 407.294986 
L 167.1468 407.295296 
L 173.39035 407.295325 
L 179.6339 407.295305 
L 185.87745 407.295298 
L 192.121 407.295304 
L 198.36455 407.295313 
L 204.6081 407.295319 
L 210.85165 407.295322 
L 217.0952 407.295323 
L 223.33875 401.342518 
L 229.5823 396.261945 
L 235.82585 391.755179 
L 242.0694 387.662948 
L 248.31295 383.888346 
L 254.5565 380.367207 
L 260.80005 377.054437 
L 267.0436 373.916912 
L 273.28715 370.929453 
L 279.5307 368.07239 
L 285.77425 365.330005 
L 292.0178 362.689507 
L 298.26135 360.140319 
L 304.5049 396.443705 
L 310.74845 396.787526 
L 316.992 400.006996 
L 323.23555 403.533349 
L 329.4791 405.784321 
L 335.72265 406.82564 
L 341.9662 407.187264 
L 348.20975 407.271605 
L 354.4533 407.278435 
L 360.69685 407.277463 
L 366.9404 407.281359 
L 373.18395 407.287123 
L 379.4275 407.291576 
L 385.67105 407.293998 
L 391.9146 407.294975 
L 398.15815 407.295252 
L 404.4017 407.295292 
L 410.64525 407.295289 
L 416.8888 407.295293 
L 423.13235 407.295304 
L 429.3759 407.295313 
L 435.61945 407.295319 
L 441.863 407.295322 
L 448.10655 407.295323 
L 454.3501 407.295323 
L 460.59365 407.295323 
L 466.8372 407.295323 
L 473.08075 407.295323 
L 479.3243 407.295323 
L 485.56785 407.295323 
L 491.8114 407.295323 
L 498.05495 407.295323 
L 504.2985 407.295323 
L 510.54205 407.295323 
L 516.7856 407.295323 
L 523.02915 407.295323 
L 529.2727 407.295323 
L 535.51625 407.295323 
L 541.7598 407.295323 
L 548.00335 407.295323 
L 554.2469 407.295323 
L 560.49045 407.295323 
L 566.734 407.295323 
L 572.97755 407.295323 
L 579.2211 407.295323 
L 585.46465 407.295323 
L 591.7082 407.295323 
L 597.95175 407.295323 
L 604.1953 407.295323 
L 610.43885 407.295323 
L 616.6824 407.295323 
L 622.92595 407.295323 
L 629.1695 407.295323 
L 635.41305 407.295323 
L 641.6566 407.295323 
L 647.90015 407.295323 
L 654.1437 407.295323 
L 660.38725 407.295323 
L 666.6308 407.295323 
L 672.87435 407.295323 
L 679.1179 407.295323 
L 685.36145 407.295323 
" clip-path="url(#pd5a32179ff)" style="fill: none; stroke-dasharray: 5.55,2.4; stroke-dashoffset: 0; stroke: #ff0000; stroke-width: 1.5"/>
   </g>
   <g id="line2d_57">
    <path d="M 67.25 464.113659 
L 73.49355 470.323324 
L 79.7371 473.382285 
L 85.98065 472.386076 
L 92.2242 469.532317 
L 98.46775 467.263011 
L 104.7113 466.114331 
L 110.95485 465.701352 
L 117.1984 465.610165 
L 123.44195 465.612051 
L 129.6855 465.621662 
L 135.92905 465.622331 
L 142.1726 465.61805 
L 148.41615 465.613725 
L 154.6597 465.61112 
L 160.90325 465.610014 
L 167.1468 465.609704 
L 173.39035 465.609675 
L 179.6339 465.609695 
L 185.87745 465.609702 
L 192.121 465.609696 
L 198.36455 465.609687 
L 204.6081 465.609681 
L 210.85165 465.609678 
L 217.0952 465.609677 
L 223.33875 471.562482 
L 229.5823 476.643055 
L 235.82585 481.149821 
L 242.0694 485.242052 
L 248.31295 489.016654 
L 254.5565 492.537793 
L 260.80005 495.850563 
L 267.0436 498.988088 
L 273.28715 501.975547 
L 279.5307 504.83261 
L 285.77425 507.574995 
L 292.0178 510.215493 
L 298.26135 512.764681 
L 304.5049 476.461295 
L 310.74845 476.117474 
L 316.992 472.898004 
L 323.23555 469.371651 
L 329.4791 467.120679 
L 335.72265 466.07936 
L 341.9662 465.717736 
L 348.20975 465.633395 
L 354.4533 465.626565 
L 360.69685 465.627537 
L 366.9404 465.623641 
L 373.18395 465.617877 
L 379.4275 465.613424 
L 385.67105 465.611002 
L 391.9146 465.610025 
L 398.15815 465.609748 
L 404.4017 465.609708 
L 410.64525 465.609711 
L 416.8888 465.609707 
L 423.13235 465.609696 
L 429.3759 465.609687 
L 435.61945 465.609681 
L 441.863 465.609678 
L 448.10655 465.609677 
L 454.3501 465.609677 
L 460.59365 465.609677 
L 466.8372 465.609677 
L 473.08075 465.609677 
L 479.3243 465.609677 
L 485.56785 465.609677 
L 491.8114 465.609677 
L 498.05495 465.609677 
L 504.2985 465.609677 
L 510.54205 465.609677 
L 516.7856 465.609677 
L 523.02915 465.609677 
L 529.2727 465.609677 
L 535.51625 465.609677 
L 541.7598 465.609677 
L 548.00335 465.609677 
L 554.2469 465.609677 
L 560.49045 465.609677 
L 566.734 465.609677 
L 572.97755 465.609677 
L 579.2211 465.609677 
L 585.46465 465.609677 
L 591.7082 465.609677 
L 597.95175 465.609677 
L 604.1953 465.609677 
L 610.43885 465.609677 
L 616.6824 465.609677 
L 622.92595 465.609677 
L 629.1695 465.609677 
L 635.41305 465.609677 
L 641.6566 465.609677 
L 647.90015 465.609677 
L 654.1437 465.609677 
L 660.38725 465.609677 
L 666.6308 465.609677 
L 672.87435 465.609677 
L 679.1179 465.609677 
L 685.36145 465.609677 
" clip-path="url(#pd5a32179ff)" style="fill: none; stroke-dasharray: 5.55,2.4; stroke-dashoffset: 0; stroke: #ff0000; stroke-width: 1.5"/>
   </g>
   <g id="patch_13">
    <path d="M 67.25 506.935 
L 67.25 365.97 
" style="fill: none; stroke: #000000; stroke-width: 0.8; stroke-linejoin: miter; stroke-linecap: square"/>
   </g>
   <g id="patch_14">
    <path d="M 691.605 506.935 
L 691.605 365.97 
" style="fill: none; stroke: #000000; stroke-width: 0.8; stroke-linejoin: miter; stroke-linecap: square"/>
   </g>
   <g id="patch_15">
    <path d="M 67.25 506.935 
L 691.605 506.935 
" style="fill: none; stroke: #000000; stroke-width: 0.8; stroke-linejoin: miter; stroke-linecap: square"/>
   </g>
   <g id="patch_16">
    <path d="M 67.25 365.97 
L 691.605 365.97 
" style="fill: none; stroke: #000000; stroke-width: 0.8; stroke-linejoin: miter; stroke-linecap: square"/>
   </g>
  </g>
  <g id="axes_4">
   <g id="patch_17">
    <path d="M 67.25 666.52 
L 691.605 666.52 
L 691.605 525.555 
L 67.25 525.555 
z
" style="fill: #ffffff"/>
   </g>
   <g id="matplotlib.axis_7">
    <g id="xtick_28">
     <g id="line2d_58">
      <g>
       <use xlink:href="#md5ffe6bba9" x="67.25" y="666.52" style="stroke: #000000; stroke-width: 0.8"/>
      </g>
     </g>
     <g id="text_25">
      <!-- 0 -->
      <g transform="translate(62.79625 684.157812) scale(0.14 -0.14)">
       <use xlink:href="#DejaVuSans-30"/>
      </g>
     </g>
    </g>
    <g id="xtick_29">
     <g id="line2d_59">
      <g>
       <use xlink:href="#md5ffe6bba9" x="145.294375" y="666.52" style="stroke: #000000; stroke-width: 0.8"/>
      </g>
     </g>
     <g id="text_26">
      <!-- 25 -->
      <g transform="translate(136.386875 684.157812) scale(0.14 -0.14)">
       <use xlink:href="#DejaVuSans-32"/>
       <use xlink:href="#DejaVuSans-35" x="63.623047"/>
      </g>
     </g>
    </g>
    <g id="xtick_30">
     <g id="line2d_60">
      <g>
       <use xlink:href="#md5ffe6bba9" x="223.33875" y="666.52" style="stroke: #000000; stroke-width: 0.8"/>
      </g>
     </g>
     <g id="text_27">
      <!-- 50 -->
      <g transform="translate(214.43125 684.157812) scale(0.14 -0.14)">
       <use xlink:href="#DejaVuSans-35"/>
       <use xlink:href="#DejaVuSans-30" x="63.623047"/>
      </g>
     </g>
    </g>
    <g id="xtick_31">
     <g id="line2d_61">
      <g>
       <use xlink:href="#md5ffe6bba9" x="301.383125" y="666.52" style="stroke: #000000; stroke-width: 0.8"/>
      </g>
     </g>
     <g id="text_28">
      <!-- 75 -->
      <g transform="translate(292.475625 684.157812) scale(0.14 -0.14)">
       <defs>
        <path id="DejaVuSans-37" d="M 525 4666 
L 3525 4666 
L 3525 4397 
L 1831 0 
L 1172 0 
L 2766 4134 
L 525 4134 
L 525 4666 
z
" transform="scale(0.015625)"/>
       </defs>
       <use xlink:href="#DejaVuSans-37"/>
       <use xlink:href="#DejaVuSans-35" x="63.623047"/>
      </g>
     </g>
    </g>
    <g id="xtick_32">
     <g id="line2d_62">
      <g>
       <use xlink:href="#md5ffe6bba9" x="379.4275" y="666.52" style="stroke: #000000; stroke-width: 0.8"/>
      </g>
     </g>
     <g id="text_29">
      <!-- 100 -->
      <g transform="translate(366.06625 684.157812) scale(0.14 -0.14)">
       <defs>
        <path id="DejaVuSans-31" d="M 794 531 
L 1825 531 
L 1825 4091 
L 703 3866 
L 703 4441 
L 1819 4666 
L 2450 4666 
L 2450 531 
L 3481 531 
L 3481 0 
L 794 0 
L 794 531 
z
" transform="scale(0.015625)"/>
       </defs>
       <use xlink:href="#DejaVuSans-31"/>
       <use xlink:href="#DejaVuSans-30" x="63.623047"/>
       <use xlink:href="#DejaVuSans-30" x="127.246094"/>
      </g>
     </g>
    </g>
    <g id="xtick_33">
     <g id="line2d_63">
      <g>
       <use xlink:href="#md5ffe6bba9" x="457.471875" y="666.52" style="stroke: #000000; stroke-width: 0.8"/>
      </g>
     </g>
     <g id="text_30">
      <!-- 125 -->
      <g transform="translate(444.110625 684.157812) scale(0.14 -0.14)">
       <use xlink:href="#DejaVuSans-31"/>
       <use xlink:href="#DejaVuSans-32" x="63.623047"/>
       <use xlink:href="#DejaVuSans-35" x="127.246094"/>
      </g>
     </g>
    </g>
    <g id="xtick_34">
     <g id="line2d_64">
      <g>
       <use xlink:href="#md5ffe6bba9" x="535.51625" y="666.52" style="stroke: #000000; stroke-width: 0.8"/>
      </g>
     </g>
     <g id="text_31">
      <!-- 150 -->
      <g transform="translate(522.155 684.157812) scale(0.14 -0.14)">
       <use xlink:href="#DejaVuSans-31"/>
       <use xlink:href="#DejaVuSans-35" x="63.623047"/>
       <use xlink:href="#DejaVuSans-30" x="127.246094"/>
      </g>
     </g>
    </g>
    <g id="xtick_35">
     <g id="line2d_65">
      <g>
       <use xlink:href="#md5ffe6bba9" x="613.560625" y="666.52" style="stroke: #000000; stroke-width: 0.8"/>
      </g>
     </g>
     <g id="text_32">
      <!-- 175 -->
      <g transform="translate(600.199375 684.157812) scale(0.14 -0.14)">
       <use xlink:href="#DejaVuSans-31"/>
       <use xlink:href="#DejaVuSans-37" x="63.623047"/>
       <use xlink:href="#DejaVuSans-35" x="127.246094"/>
      </g>
     </g>
    </g>
    <g id="xtick_36">
     <g id="line2d_66">
      <g>
       <use xlink:href="#md5ffe6bba9" x="691.605" y="666.52" style="stroke: #000000; stroke-width: 0.8"/>
      </g>
     </g>
     <g id="text_33">
      <!-- 200 -->
      <g transform="translate(678.24375 684.157812) scale(0.14 -0.14)">
       <use xlink:href="#DejaVuSans-32"/>
       <use xlink:href="#DejaVuSans-30" x="63.623047"/>
       <use xlink:href="#DejaVuSans-30" x="127.246094"/>
      </g>
     </g>
    </g>
    <g id="text_34">
     <!-- Timestamp [s] -->
     <g transform="translate(329.024219 701.707188) scale(0.14 -0.14)">
      <defs>
       <path id="DejaVuSans-54" d="M -19 4666 
L 3928 4666 
L 3928 4134 
L 2272 4134 
L 2272 0 
L 1638 0 
L 1638 4134 
L -19 4134 
L -19 4666 
z
" transform="scale(0.015625)"/>
       <path id="DejaVuSans-69" d="M 603 3500 
L 1178 3500 
L 1178 0 
L 603 0 
L 603 3500 
z
M 603 4863 
L 1178 4863 
L 1178 4134 
L 603 4134 
L 603 4863 
z
" transform="scale(0.015625)"/>
       <path id="DejaVuSans-74" d="M 1172 4494 
L 1172 3500 
L 2356 3500 
L 2356 3053 
L 1172 3053 
L 1172 1153 
Q 1172 725 1289 603 
Q 1406 481 1766 481 
L 2356 481 
L 2356 0 
L 1766 0 
Q 1100 0 847 248 
Q 594 497 594 1153 
L 594 3053 
L 172 3053 
L 172 3500 
L 594 3500 
L 594 4494 
L 1172 4494 
z
" transform="scale(0.015625)"/>
       <path id="DejaVuSans-61" d="M 2194 1759 
Q 1497 1759 1228 1600 
Q 959 1441 959 1056 
Q 959 750 1161 570 
Q 1363 391 1709 391 
Q 2188 391 2477 730 
Q 2766 1069 2766 1631 
L 2766 1759 
L 2194 1759 
z
M 3341 1997 
L 3341 0 
L 2766 0 
L 2766 531 
Q 2569 213 2275 61 
Q 1981 -91 1556 -91 
Q 1019 -91 701 211 
Q 384 513 384 1019 
Q 384 1609 779 1909 
Q 1175 2209 1959 2209 
L 2766 2209 
L 2766 2266 
Q 2766 2663 2505 2880 
Q 2244 3097 1772 3097 
Q 1472 3097 1187 3025 
Q 903 2953 641 2809 
L 641 3341 
Q 956 3463 1253 3523 
Q 1550 3584 1831 3584 
Q 2591 3584 2966 3190 
Q 3341 2797 3341 1997 
z
" transform="scale(0.015625)"/>
       <path id="DejaVuSans-70" d="M 1159 525 
L 1159 -1331 
L 581 -1331 
L 581 3500 
L 1159 3500 
L 1159 2969 
Q 1341 3281 1617 3432 
Q 1894 3584 2278 3584 
Q 2916 3584 3314 3078 
Q 3713 2572 3713 1747 
Q 3713 922 3314 415 
Q 2916 -91 2278 -91 
Q 1894 -91 1617 61 
Q 1341 213 1159 525 
z
M 3116 1747 
Q 3116 2381 2855 2742 
Q 2594 3103 2138 3103 
Q 1681 3103 1420 2742 
Q 1159 2381 1159 1747 
Q 1159 1113 1420 752 
Q 1681 391 2138 391 
Q 2594 391 2855 752 
Q 3116 1113 3116 1747 
z
" transform="scale(0.015625)"/>
      </defs>
      <use xlink:href="#DejaVuSans-54"/>
      <use xlink:href="#DejaVuSans-69" x="57.958984"/>
      <use xlink:href="#DejaVuSans-6d" x="85.742188"/>
      <use xlink:href="#DejaVuSans-65" x="183.154297"/>
      <use xlink:href="#DejaVuSans-73" x="244.677734"/>
      <use xlink:href="#DejaVuSans-74" x="296.777344"/>
      <use xlink:href="#DejaVuSans-61" x="335.986328"/>
      <use xlink:href="#DejaVuSans-6d" x="397.265625"/>
      <use xlink:href="#DejaVuSans-70" x="494.677734"/>
      <use xlink:href="#DejaVuSans-20" x="558.154297"/>
      <use xlink:href="#DejaVuSans-5b" x="589.941406"/>
      <use xlink:href="#DejaVuSans-73" x="628.955078"/>
      <use xlink:href="#DejaVuSans-5d" x="681.054688"/>
     </g>
    </g>
   </g>
   <g id="matplotlib.axis_8">
    <g id="ytick_22">
     <g id="line2d_67">
      <g>
       <use xlink:href="#m0967b23ae0" x="67.25" y="665.190397" style="stroke: #000000; stroke-width: 0.8"/>
      </g>
     </g>
     <g id="text_35">
      <!-- -0.8 -->
      <g transform="translate(32.934688 670.509303) scale(0.14 -0.14)">
       <use xlink:href="#DejaVuSans-2d"/>
       <use xlink:href="#DejaVuSans-30" x="36.083984"/>
       <use xlink:href="#DejaVuSans-2e" x="99.707031"/>
       <use xlink:href="#DejaVuSans-38" x="131.494141"/>
      </g>
     </g>
    </g>
    <g id="ytick_23">
     <g id="line2d_68">
      <g>
       <use xlink:href="#m0967b23ae0" x="67.25" y="642.139431" style="stroke: #000000; stroke-width: 0.8"/>
      </g>
     </g>
     <g id="text_36">
      <!-- -0.5 -->
      <g transform="translate(32.934688 647.458337) scale(0.14 -0.14)">
       <use xlink:href="#DejaVuSans-2d"/>
       <use xlink:href="#DejaVuSans-30" x="36.083984"/>
       <use xlink:href="#DejaVuSans-2e" x="99.707031"/>
       <use xlink:href="#DejaVuSans-35" x="131.494141"/>
      </g>
     </g>
    </g>
    <g id="ytick_24">
     <g id="line2d_69">
      <g>
       <use xlink:href="#m0967b23ae0" x="67.25" y="619.088466" style="stroke: #000000; stroke-width: 0.8"/>
      </g>
     </g>
     <g id="text_37">
      <!-- -0.2 -->
      <g transform="translate(32.934688 624.407372) scale(0.14 -0.14)">
       <use xlink:href="#DejaVuSans-2d"/>
       <use xlink:href="#DejaVuSans-30" x="36.083984"/>
       <use xlink:href="#DejaVuSans-2e" x="99.707031"/>
       <use xlink:href="#DejaVuSans-32" x="131.494141"/>
      </g>
     </g>
    </g>
    <g id="ytick_25">
     <g id="line2d_70">
      <g>
       <use xlink:href="#m0967b23ae0" x="67.25" y="596.0375" style="stroke: #000000; stroke-width: 0.8"/>
      </g>
     </g>
     <g id="text_38">
      <!-- 0.0 -->
      <g transform="translate(37.985625 601.356406) scale(0.14 -0.14)">
       <use xlink:href="#DejaVuSans-30"/>
       <use xlink:href="#DejaVuSans-2e" x="63.623047"/>
       <use xlink:href="#DejaVuSans-30" x="95.410156"/>
      </g>
     </g>
    </g>
    <g id="ytick_26">
     <g id="line2d_71">
      <g>
       <use xlink:href="#m0967b23ae0" x="67.25" y="572.986534" style="stroke: #000000; stroke-width: 0.8"/>
      </g>
     </g>
     <g id="text_39">
      <!-- 0.2 -->
      <g transform="translate(37.985625 578.305441) scale(0.14 -0.14)">
       <use xlink:href="#DejaVuSans-30"/>
       <use xlink:href="#DejaVuSans-2e" x="63.623047"/>
       <use xlink:href="#DejaVuSans-32" x="95.410156"/>
      </g>
     </g>
    </g>
    <g id="ytick_27">
     <g id="line2d_72">
      <g>
       <use xlink:href="#m0967b23ae0" x="67.25" y="549.935569" style="stroke: #000000; stroke-width: 0.8"/>
      </g>
     </g>
     <g id="text_40">
      <!-- 0.5 -->
      <g transform="translate(37.985625 555.254475) scale(0.14 -0.14)">
       <use xlink:href="#DejaVuSans-30"/>
       <use xlink:href="#DejaVuSans-2e" x="63.623047"/>
       <use xlink:href="#DejaVuSans-35" x="95.410156"/>
      </g>
     </g>
    </g>
    <g id="ytick_28">
     <g id="line2d_73">
      <g>
       <use xlink:href="#m0967b23ae0" x="67.25" y="526.884603" style="stroke: #000000; stroke-width: 0.8"/>
      </g>
     </g>
     <g id="text_41">
      <!-- 0.8 -->
      <g transform="translate(37.985625 532.20351) scale(0.14 -0.14)">
       <use xlink:href="#DejaVuSans-30"/>
       <use xlink:href="#DejaVuSans-2e" x="63.623047"/>
       <use xlink:href="#DejaVuSans-38" x="95.410156"/>
      </g>
     </g>
    </g>
    <g id="text_42">
     <!-- Vel E [m/s] -->
     <g transform="translate(26.023125 633.693125) rotate(-90) scale(0.14 -0.14)">
      <use xlink:href="#DejaVuSans-56"/>
      <use xlink:href="#DejaVuSans-65" x="60.658203"/>
      <use xlink:href="#DejaVuSans-6c" x="122.181641"/>
      <use xlink:href="#DejaVuSans-20" x="149.964844"/>
      <use xlink:href="#DejaVuSans-45" x="181.751953"/>
      <use xlink:href="#DejaVuSans-20" x="244.935547"/>
      <use xlink:href="#DejaVuSans-5b" x="276.722656"/>
      <use xlink:href="#DejaVuSans-6d" x="315.736328"/>
      <use xlink:href="#DejaVuSans-2f" x="413.148438"/>
      <use xlink:href="#DejaVuSans-73" x="446.839844"/>
      <use xlink:href="#DejaVuSans-5d" x="498.939453"/>
     </g>
    </g>
   </g>
   <g id="line2d_74">
    <path d="M 67.25 596.0375 
L 76.615325 589.237342 
L 79.7371 584.373142 
L 82.858875 582.120892 
L 85.98065 581.33066 
L 89.102425 579.102981 
L 92.2242 582.485688 
L 95.345975 580.291372 
L 98.46775 585.539383 
L 101.589525 583.38709 
L 104.7113 589.471331 
L 107.833075 587.369556 
L 110.95485 589.091205 
L 114.076625 587.048242 
L 117.1984 571.347617 
L 120.320175 569.371528 
L 123.44195 582.626857 
L 126.563725 580.725441 
L 129.6855 579.447256 
L 132.807275 577.628017 
L 135.92905 589.070539 
L 139.050825 587.340657 
L 142.1726 584.833103 
L 145.294375 583.199404 
L 148.41615 584.318629 
L 151.537925 582.787562 
L 154.6597 588.652507 
L 157.781475 587.230114 
L 160.90325 595.922858 
L 164.025025 594.614753 
L 167.1468 601.676485 
L 170.268575 600.487829 
L 173.39035 591.92236 
L 176.512125 590.857845 
L 179.6339 597.425069 
L 182.755675 596.488896 
L 185.87745 599.053722 
L 188.999225 598.249586 
L 192.121 586.178284 
L 195.242775 585.509358 
L 198.36455 581.88141 
L 201.486325 581.350335 
L 204.6081 588.68695 
L 207.729875 588.295821 
L 210.85165 594.422732 
L 213.973425 594.173092 
L 217.0952 599.265065 
L 223.33875 599.122167 
L 229.5823 599.265065 
L 235.82585 599.693195 
L 242.0694 600.404867 
L 248.31295 601.397272 
L 254.5565 602.666495 
L 260.80005 604.207525 
L 267.0436 606.014282 
L 273.28715 608.079635 
L 279.5307 610.395432 
L 285.77425 612.952535 
L 292.0178 615.740851 
L 298.26135 618.749377 
L 301.383125 620.33254 
L 304.5049 610.05877 
L 307.626675 611.741391 
L 310.74845 603.697279 
L 313.870225 605.472716 
L 316.992 598.793833 
L 320.113775 600.655079 
L 323.23555 601.203849 
L 326.357325 603.143558 
L 329.4791 618.538865 
L 332.600875 620.549383 
L 335.72265 607.20026 
L 338.844425 609.273653 
L 341.9662 602.419323 
L 345.087975 604.547407 
L 348.20975 603.757607 
L 351.331525 605.931984 
L 354.4533 602.062367 
L 357.575075 604.274455 
L 360.69685 598.730328 
L 363.818625 600.971398 
L 366.9404 604.67612 
L 370.062175 606.937327 
L 373.18395 612.192532 
L 376.305725 614.464952 
L 379.4275 618.611689 
L 382.549275 620.886354 
L 385.67105 610.695978 
L 388.792825 612.963911 
L 391.9146 609.54625 
L 395.036375 611.7985 
L 398.15815 607.621846 
L 401.279925 609.849525 
L 404.4017 608.908984 
L 407.523475 611.1033 
L 410.64525 602.569564 
L 413.767025 604.721857 
L 416.8888 598.050403 
L 420.010575 600.152179 
L 423.13235 598.629581 
L 426.254125 600.672545 
L 429.3759 607.046731 
L 432.497675 609.022821 
L 435.61945 601.505532 
L 438.741225 603.406948 
L 441.863 601.95263 
L 444.984775 603.771869 
L 448.10655 615.02875 
L 451.228325 616.758632 
L 454.3501 605.083772 
L 457.471875 606.71747 
L 460.59365 611.712479 
L 463.715425 613.243546 
L 466.8372 608.971917 
L 469.958975 610.39431 
L 473.08075 596.434526 
L 476.202525 597.742632 
L 479.3243 593.250576 
L 482.446075 594.439232 
L 485.56785 598.979336 
L 488.689625 600.043851 
L 491.8114 602.947354 
L 494.933175 603.883527 
L 498.05495 598.627429 
L 501.176725 599.431565 
L 504.2985 606.214102 
L 507.420275 606.883027 
L 510.54205 598.347644 
L 513.663825 598.878719 
L 516.7856 597.628964 
L 519.907375 598.020093 
L 523.02915 592.558812 
L 526.150925 592.808451 
L 529.2727 594.738892 
L 532.394475 594.846056 
L 535.51625 600.25206 
L 538.638025 600.216327 
L 541.7598 596.053641 
L 544.881575 595.875151 
L 548.00335 596.218867 
L 551.125125 595.898325 
L 554.2469 600.612286 
L 557.368675 600.150956 
L 560.49045 600.076273 
L 563.612225 599.475976 
L 566.734 597.6543 
L 569.855775 596.917406 
L 572.97755 590.671112 
L 576.099325 589.800528 
L 579.2211 584.309963 
L 582.342875 583.309125 
L 585.46465 586.1255 
L 588.586425 584.998358 
L 591.7082 593.05393 
L 594.829975 591.804933 
L 597.95175 591.989265 
L 601.073525 590.623342 
L 604.1953 586.712397 
L 607.317075 585.234938 
L 610.43885 582.345206 
L 613.560625 580.762043 
L 616.6824 590.487679 
L 619.804175 588.805059 
L 622.92595 588.356879 
L 626.047725 586.581442 
L 629.1695 590.22076 
L 632.291275 588.359514 
L 635.41305 598.418722 
L 638.534825 596.479012 
L 641.6566 596.209215 
L 644.778375 594.198696 
L 647.90015 590.057357 
L 651.021925 587.983964 
L 654.1437 586.240754 
L 657.265475 584.11267 
L 660.38725 583.900524 
L 663.509025 581.726147 
L 666.6308 584.156399 
L 669.752575 581.94431 
L 672.87435 580.286948 
L 675.996125 578.045878 
L 679.1179 585.494002 
L 682.239675 583.232795 
L 685.36145 590.87236 
L 688.483225 588.59994 
L 688.483225 588.59994 
" clip-path="url(#p55240dfe28)" style="fill: none; stroke: #1f77b4; stroke-width: 1.5; stroke-linecap: square"/>
   </g>
   <g id="line2d_75">
    <path d="M 67.25 568.376341 
L 73.49355 562.166676 
L 79.7371 559.107715 
L 85.98065 560.103924 
L 92.2242 562.957683 
L 98.46775 565.226989 
L 104.7113 566.375669 
L 110.95485 566.788648 
L 117.1984 566.879835 
L 123.44195 566.877949 
L 129.6855 566.868338 
L 135.92905 566.867669 
L 142.1726 566.87195 
L 148.41615 566.876275 
L 154.6597 566.87888 
L 160.90325 566.879986 
L 167.1468 566.880296 
L 173.39035 566.880325 
L 179.6339 566.880305 
L 185.87745 566.880298 
L 192.121 566.880304 
L 198.36455 566.880313 
L 204.6081 566.880319 
L 210.85165 566.880322 
L 217.0952 566.880323 
L 223.33875 560.927518 
L 229.5823 555.846945 
L 235.82585 551.340179 
L 242.0694 547.247948 
L 248.31295 543.473346 
L 254.5565 539.952207 
L 260.80005 536.639437 
L 267.0436 533.501912 
L 273.28715 530.514453 
L 279.5307 527.65739 
L 285.77425 524.915005 
L 292.0178 522.274507 
L 298.26135 519.725319 
L 304.5049 556.028705 
L 310.74845 556.372526 
L 316.992 559.591996 
L 323.23555 563.118349 
L 329.4791 565.369321 
L 335.72265 566.41064 
L 341.9662 566.772264 
L 348.20975 566.856605 
L 354.4533 566.863435 
L 360.69685 566.862463 
L 366.9404 566.866359 
L 373.18395 566.872123 
L 379.4275 566.876576 
L 385.67105 566.878998 
L 391.9146 566.879975 
L 398.15815 566.880252 
L 404.4017 566.880292 
L 410.64525 566.880289 
L 416.8888 566.880293 
L 423.13235 566.880304 
L 429.3759 566.880313 
L 435.61945 566.880319 
L 441.863 566.880322 
L 448.10655 566.880323 
L 454.3501 566.880323 
L 460.59365 566.880323 
L 466.8372 566.880323 
L 473.08075 566.880323 
L 479.3243 566.880323 
L 485.56785 566.880323 
L 491.8114 566.880323 
L 498.05495 566.880323 
L 504.2985 566.880323 
L 510.54205 566.880323 
L 516.7856 566.880323 
L 523.02915 566.880323 
L 529.2727 566.880323 
L 535.51625 566.880323 
L 541.7598 566.880323 
L 548.00335 566.880323 
L 554.2469 566.880323 
L 560.49045 566.880323 
L 566.734 566.880323 
L 572.97755 566.880323 
L 579.2211 566.880323 
L 585.46465 566.880323 
L 591.7082 566.880323 
L 597.95175 566.880323 
L 604.1953 566.880323 
L 610.43885 566.880323 
L 616.6824 566.880323 
L 622.92595 566.880323 
L 629.1695 566.880323 
L 635.41305 566.880323 
L 641.6566 566.880323 
L 647.90015 566.880323 
L 654.1437 566.880323 
L 660.38725 566.880323 
L 666.6308 566.880323 
L 672.87435 566.880323 
L 679.1179 566.880323 
L 685.36145 566.880323 
" clip-path="url(#p55240dfe28)" style="fill: none; stroke-dasharray: 5.55,2.4; stroke-dashoffset: 0; stroke: #ff0000; stroke-width: 1.5"/>
   </g>
   <g id="line2d_76">
    <path d="M 67.25 623.698659 
L 73.49355 629.908324 
L 79.7371 632.967285 
L 85.98065 631.971076 
L 92.2242 629.117317 
L 98.46775 626.848011 
L 104.7113 625.699331 
L 110.95485 625.286352 
L 117.1984 625.195165 
L 123.44195 625.197051 
L 129.6855 625.206662 
L 135.92905 625.207331 
L 142.1726 625.20305 
L 148.41615 625.198725 
L 154.6597 625.19612 
L 160.90325 625.195014 
L 167.1468 625.194704 
L 173.39035 625.194675 
L 179.6339 625.194695 
L 185.87745 625.194702 
L 192.121 625.194696 
L 198.36455 625.194687 
L 204.6081 625.194681 
L 210.85165 625.194678 
L 217.0952 625.194677 
L 223.33875 631.147482 
L 229.5823 636.228055 
L 235.82585 640.734821 
L 242.0694 644.827052 
L 248.31295 648.601654 
L 254.5565 652.122793 
L 260.80005 655.435563 
L 267.0436 658.573088 
L 273.28715 661.560547 
L 279.5307 664.41761 
L 285.77425 667.159995 
L 292.0178 669.800493 
L 298.26135 672.349681 
L 304.5049 636.046295 
L 310.74845 635.702474 
L 316.992 632.483004 
L 323.23555 628.956651 
L 329.4791 626.705679 
L 335.72265 625.66436 
L 341.9662 625.302736 
L 348.20975 625.218395 
L 354.4533 625.211565 
L 360.69685 625.212537 
L 366.9404 625.208641 
L 373.18395 625.202877 
L 379.4275 625.198424 
L 385.67105 625.196002 
L 391.9146 625.195025 
L 398.15815 625.194748 
L 404.4017 625.194708 
L 410.64525 625.194711 
L 416.8888 625.194707 
L 423.13235 625.194696 
L 429.3759 625.194687 
L 435.61945 625.194681 
L 441.863 625.194678 
L 448.10655 625.194677 
L 454.3501 625.194677 
L 460.59365 625.194677 
L 466.8372 625.194677 
L 473.08075 625.194677 
L 479.3243 625.194677 
L 485.56785 625.194677 
L 491.8114 625.194677 
L 498.05495 625.194677 
L 504.2985 625.194677 
L 510.54205 625.194677 
L 516.7856 625.194677 
L 523.02915 625.194677 
L 529.2727 625.194677 
L 535.51625 625.194677 
L 541.7598 625.194677 
L 548.00335 625.194677 
L 554.2469 625.194677 
L 560.49045 625.194677 
L 566.734 625.194677 
L 572.97755 625.194677 
L 579.2211 625.194677 
L 585.46465 625.194677 
L 591.7082 625.194677 
L 597.95175 625.194677 
L 604.1953 625.194677 
L 610.43885 625.194677 
L 616.6824 625.194677 
L 622.92595 625.194677 
L 629.1695 625.194677 
L 635.41305 625.194677 
L 641.6566 625.194677 
L 647.90015 625.194677 
L 654.1437 625.194677 
L 660.38725 625.194677 
L 666.6308 625.194677 
L 672.87435 625.194677 
L 679.1179 625.194677 
L 685.36145 625.194677 
" clip-path="url(#p55240dfe28)" style="fill: none; stroke-dasharray: 5.55,2.4; stroke-dashoffset: 0; stroke: #ff0000; stroke-width: 1.5"/>
   </g>
   <g id="patch_18">
    <path d="M 67.25 666.52 
L 67.25 525.555 
" style="fill: none; stroke: #000000; stroke-width: 0.8; stroke-linejoin: miter; stroke-linecap: square"/>
   </g>
   <g id="patch_19">
    <path d="M 691.605 666.52 
L 691.605 525.555 
" style="fill: none; stroke: #000000; stroke-width: 0.8; stroke-linejoin: miter; stroke-linecap: square"/>
   </g>
   <g id="patch_20">
    <path d="M 67.25 666.52 
L 691.605 666.52 
" style="fill: none; stroke: #000000; stroke-width: 0.8; stroke-linejoin: miter; stroke-linecap: square"/>
   </g>
   <g id="patch_21">
    <path d="M 67.25 525.555 
L 691.605 525.555 
" style="fill: none; stroke: #000000; stroke-width: 0.8; stroke-linejoin: miter; stroke-linecap: square"/>
   </g>
  </g>
  <g id="text_43">
   <!-- Errors on positions and velocities at 1Hz -->
   <g transform="translate(190.972312 27.165375) scale(0.168 -0.168)">
    <defs>
     <path id="DejaVuSans-72" d="M 2631 2963 
Q 2534 3019 2420 3045 
Q 2306 3072 2169 3072 
Q 1681 3072 1420 2755 
Q 1159 2438 1159 1844 
L 1159 0 
L 581 0 
L 581 3500 
L 1159 3500 
L 1159 2956 
Q 1341 3275 1631 3429 
Q 1922 3584 2338 3584 
Q 2397 3584 2469 3576 
Q 2541 3569 2628 3553 
L 2631 2963 
z
" transform="scale(0.015625)"/>
     <path id="DejaVuSans-6e" d="M 3513 2113 
L 3513 0 
L 2938 0 
L 2938 2094 
Q 2938 2591 2744 2837 
Q 2550 3084 2163 3084 
Q 1697 3084 1428 2787 
Q 1159 2491 1159 1978 
L 1159 0 
L 581 0 
L 581 3500 
L 1159 3500 
L 1159 2956 
Q 1366 3272 1645 3428 
Q 1925 3584 2291 3584 
Q 2894 3584 3203 3211 
Q 3513 2838 3513 2113 
z
" transform="scale(0.015625)"/>
     <path id="DejaVuSans-64" d="M 2906 2969 
L 2906 4863 
L 3481 4863 
L 3481 0 
L 2906 0 
L 2906 525 
Q 2725 213 2448 61 
Q 2172 -91 1784 -91 
Q 1150 -91 751 415 
Q 353 922 353 1747 
Q 353 2572 751 3078 
Q 1150 3584 1784 3584 
Q 2172 3584 2448 3432 
Q 2725 3281 2906 2969 
z
M 947 1747 
Q 947 1113 1208 752 
Q 1469 391 1925 391 
Q 2381 391 2643 752 
Q 2906 1113 2906 1747 
Q 2906 2381 2643 2742 
Q 2381 3103 1925 3103 
Q 1469 3103 1208 2742 
Q 947 2381 947 1747 
z
" transform="scale(0.015625)"/>
     <path id="DejaVuSans-76" d="M 191 3500 
L 800 3500 
L 1894 563 
L 2988 3500 
L 3597 3500 
L 2284 0 
L 1503 0 
L 191 3500 
z
" transform="scale(0.015625)"/>
     <path id="DejaVuSans-63" d="M 3122 3366 
L 3122 2828 
Q 2878 2963 2633 3030 
Q 2388 3097 2138 3097 
Q 1578 3097 1268 2742 
Q 959 2388 959 1747 
Q 959 1106 1268 751 
Q 1578 397 2138 397 
Q 2388 397 2633 464 
Q 2878 531 3122 666 
L 3122 134 
Q 2881 22 2623 -34 
Q 2366 -91 2075 -91 
Q 1284 -91 818 406 
Q 353 903 353 1747 
Q 353 2603 823 3093 
Q 1294 3584 2113 3584 
Q 2378 3584 2631 3529 
Q 2884 3475 3122 3366 
z
" transform="scale(0.015625)"/>
     <path id="DejaVuSans-48" d="M 628 4666 
L 1259 4666 
L 1259 2753 
L 3553 2753 
L 3553 4666 
L 4184 4666 
L 4184 0 
L 3553 0 
L 3553 2222 
L 1259 2222 
L 1259 0 
L 628 0 
L 628 4666 
z
" transform="scale(0.015625)"/>
     <path id="DejaVuSans-7a" d="M 353 3500 
L 3084 3500 
L 3084 2975 
L 922 459 
L 3084 459 
L 3084 0 
L 275 0 
L 275 525 
L 2438 3041 
L 353 3041 
L 353 3500 
z
" transform="scale(0.015625)"/>
    </defs>
    <use xlink:href="#DejaVuSans-45"/>
    <use xlink:href="#DejaVuSans-72" x="63.183594"/>
    <use xlink:href="#DejaVuSans-72" x="102.546875"/>
    <use xlink:href="#DejaVuSans-6f" x="141.410156"/>
    <use xlink:href="#DejaVuSans-72" x="202.591797"/>
    <use xlink:href="#DejaVuSans-73" x="243.705078"/>
    <use xlink:href="#DejaVuSans-20" x="295.804688"/>
    <use xlink:href="#DejaVuSans-6f" x="327.591797"/>
    <use xlink:href="#DejaVuSans-6e" x="388.773438"/>
    <use xlink:href="#DejaVuSans-20" x="452.152344"/>
    <use xlink:href="#DejaVuSans-70" x="483.939453"/>
    <use xlink:href="#DejaVuSans-6f" x="547.416016"/>
    <use xlink:href="#DejaVuSans-73" x="608.597656"/>
    <use xlink:href="#DejaVuSans-69" x="660.697266"/>
    <use xlink:href="#DejaVuSans-74" x="688.480469"/>
    <use xlink:href="#DejaVuSans-69" x="727.689453"/>
    <use xlink:href="#DejaVuSans-6f" x="755.472656"/>
    <use xlink:href="#DejaVuSans-6e" x="816.654297"/>
    <use xlink:href="#DejaVuSans-73" x="880.033203"/>
    <use xlink:href="#DejaVuSans-20" x="932.132812"/>
    <use xlink:href="#DejaVuSans-61" x="963.919922"/>
    <use xlink:href="#DejaVuSans-6e" x="1025.199219"/>
    <use xlink:href="#DejaVuSans-64" x="1088.578125"/>
    <use xlink:href="#DejaVuSans-20" x="1152.054688"/>
    <use xlink:href="#DejaVuSans-76" x="1183.841797"/>
    <use xlink:href="#DejaVuSans-65" x="1243.021484"/>
    <use xlink:href="#DejaVuSans-6c" x="1304.544922"/>
    <use xlink:href="#DejaVuSans-6f" x="1332.328125"/>
    <use xlink:href="#DejaVuSans-63" x="1393.509766"/>
    <use xlink:href="#DejaVuSans-69" x="1448.490234"/>
    <use xlink:href="#DejaVuSans-74" x="1476.273438"/>
    <use xlink:href="#DejaVuSans-69" x="1515.482422"/>
    <use xlink:href="#DejaVuSans-65" x="1543.265625"/>
    <use xlink:href="#DejaVuSans-73" x="1604.789062"/>
    <use xlink:href="#DejaVuSans-20" x="1656.888672"/>
    <use xlink:href="#DejaVuSans-61" x="1688.675781"/>
    <use xlink:href="#DejaVuSans-74" x="1749.955078"/>
    <use xlink:href="#DejaVuSans-20" x="1789.164062"/>
    <use xlink:href="#DejaVuSans-31" x="1820.951172"/>
    <use xlink:href="#DejaVuSans-48" x="1884.574219"/>
    <use xlink:href="#DejaVuSans-7a" x="1959.769531"/>
   </g>
  </g>
 </g>
 <defs>
  <clipPath id="p1838efb4bb">
   <rect x="67.25" y="46.8" width="624.355" height="140.965"/>
  </clipPath>
  <clipPath id="pa517ab3e6d">
   <rect x="67.25" y="206.385" width="624.355" height="140.965"/>
  </clipPath>
  <clipPath id="pd5a32179ff">
   <rect x="67.25" y="365.97" width="624.355" height="140.965"/>
  </clipPath>
  <clipPath id="p55240dfe28">
   <rect x="67.25" y="525.555" width="624.355" height="140.965"/>
  </clipPath>
 </defs>
</svg>
