<?xml version="1.0" encoding="utf-8" standalone="no"?>
<!DOCTYPE svg PUBLIC "-//W3C//DTD SVG 1.1//EN"
  "http://www.w3.org/Graphics/SVG/1.1/DTD/svg11.dtd">
<svg xmlns:xlink="http://www.w3.org/1999/xlink" width="720pt" height="720pt" viewBox="0 0 720 720" xmlns="http://www.w3.org/2000/svg" version="1.1">
 <metadata>
  <rdf:RDF xmlns:dc="http://purl.org/dc/elements/1.1/" xmlns:cc="http://creativecommons.org/ns#" xmlns:rdf="http://www.w3.org/1999/02/22-rdf-syntax-ns#">
   <cc:Work>
    <dc:type rdf:resource="http://purl.org/dc/dcmitype/StillImage"/>
    <dc:date>2024-05-24T16:20:42.643052</dc:date>
    <dc:format>image/svg+xml</dc:format>
    <dc:creator>
     <cc:Agent>
      <dc:title>Matplotlib v3.8.3, https://matplotlib.org/</dc:title>
     </cc:Agent>
    </dc:creator>
   </cc:Work>
  </rdf:RDF>
 </metadata>
 <defs>
  <style type="text/css">*{stroke-linejoin: round; stroke-linecap: butt}</style>
 </defs>
 <g id="figure_1">
  <g id="patch_1">
   <path d="M 0 720 
L 720 720 
L 720 0 
L 0 0 
z
" style="fill: #ffffff"/>
  </g>
  <g id="axes_1">
   <g id="patch_2">
    <path d="M 67.25 187.765 
L 691.605 187.765 
L 691.605 46.8 
L 67.25 46.8 
z
" style="fill: #ffffff"/>
   </g>
   <g id="matplotlib.axis_1">
    <g id="xtick_1">
     <g id="line2d_1">
      <defs>
       <path id="m219cb74cf4" d="M 0 0 
L 0 3.5 
" style="stroke: #000000; stroke-width: 0.8"/>
      </defs>
      <g>
       <use xlink:href="#m219cb74cf4" x="67.25" y="187.765" style="stroke: #000000; stroke-width: 0.8"/>
      </g>
     </g>
    </g>
    <g id="xtick_2">
     <g id="line2d_2">
      <g>
       <use xlink:href="#m219cb74cf4" x="145.294375" y="187.765" style="stroke: #000000; stroke-width: 0.8"/>
      </g>
     </g>
    </g>
    <g id="xtick_3">
     <g id="line2d_3">
      <g>
       <use xlink:href="#m219cb74cf4" x="223.33875" y="187.765" style="stroke: #000000; stroke-width: 0.8"/>
      </g>
     </g>
    </g>
    <g id="xtick_4">
     <g id="line2d_4">
      <g>
       <use xlink:href="#m219cb74cf4" x="301.383125" y="187.765" style="stroke: #000000; stroke-width: 0.8"/>
      </g>
     </g>
    </g>
    <g id="xtick_5">
     <g id="line2d_5">
      <g>
       <use xlink:href="#m219cb74cf4" x="379.4275" y="187.765" style="stroke: #000000; stroke-width: 0.8"/>
      </g>
     </g>
    </g>
    <g id="xtick_6">
     <g id="line2d_6">
      <g>
       <use xlink:href="#m219cb74cf4" x="457.471875" y="187.765" style="stroke: #000000; stroke-width: 0.8"/>
      </g>
     </g>
    </g>
    <g id="xtick_7">
     <g id="line2d_7">
      <g>
       <use xlink:href="#m219cb74cf4" x="535.51625" y="187.765" style="stroke: #000000; stroke-width: 0.8"/>
      </g>
     </g>
    </g>
    <g id="xtick_8">
     <g id="line2d_8">
      <g>
       <use xlink:href="#m219cb74cf4" x="613.560625" y="187.765" style="stroke: #000000; stroke-width: 0.8"/>
      </g>
     </g>
    </g>
    <g id="xtick_9">
     <g id="line2d_9">
      <g>
       <use xlink:href="#m219cb74cf4" x="691.605" y="187.765" style="stroke: #000000; stroke-width: 0.8"/>
      </g>
     </g>
    </g>
   </g>
   <g id="matplotlib.axis_2">
    <g id="ytick_1">
     <g id="line2d_10">
      <defs>
       <path id="m58958bc4cc" d="M 0 0 
L -3.5 0 
" style="stroke: #000000; stroke-width: 0.8"/>
      </defs>
      <g>
       <use xlink:href="#m58958bc4cc" x="67.25" y="173.440935" style="stroke: #000000; stroke-width: 0.8"/>
      </g>
     </g>
     <g id="text_1">
      <!-- -2.0 -->
      <g transform="translate(32.934688 178.759841) scale(0.14 -0.14)">
       <defs>
        <path id="DejaVuSans-2d" d="M 313 2009 
L 1997 2009 
L 1997 1497 
L 313 1497 
L 313 2009 
z
" transform="scale(0.015625)"/>
        <path id="DejaVuSans-32" d="M 1228 531 
L 3431 531 
L 3431 0 
L 469 0 
L 469 531 
Q 828 903 1448 1529 
Q 2069 2156 2228 2338 
Q 2531 2678 2651 2914 
Q 2772 3150 2772 3378 
Q 2772 3750 2511 3984 
Q 2250 4219 1831 4219 
Q 1534 4219 1204 4116 
Q 875 4013 500 3803 
L 500 4441 
Q 881 4594 1212 4672 
Q 1544 4750 1819 4750 
Q 2544 4750 2975 4387 
Q 3406 4025 3406 3419 
Q 3406 3131 3298 2873 
Q 3191 2616 2906 2266 
Q 2828 2175 2409 1742 
Q 1991 1309 1228 531 
z
" transform="scale(0.015625)"/>
        <path id="DejaVuSans-2e" d="M 684 794 
L 1344 794 
L 1344 0 
L 684 0 
L 684 794 
z
" transform="scale(0.015625)"/>
        <path id="DejaVuSans-30" d="M 2034 4250 
Q 1547 4250 1301 3770 
Q 1056 3291 1056 2328 
Q 1056 1369 1301 889 
Q 1547 409 2034 409 
Q 2525 409 2770 889 
Q 3016 1369 3016 2328 
Q 3016 3291 2770 3770 
Q 2525 4250 2034 4250 
z
M 2034 4750 
Q 2819 4750 3233 4129 
Q 3647 3509 3647 2328 
Q 3647 1150 3233 529 
Q 2819 -91 2034 -91 
Q 1250 -91 836 529 
Q 422 1150 422 2328 
Q 422 3509 836 4129 
Q 1250 4750 2034 4750 
z
" transform="scale(0.015625)"/>
       </defs>
       <use xlink:href="#DejaVuSans-2d"/>
       <use xlink:href="#DejaVuSans-32" x="36.083984"/>
       <use xlink:href="#DejaVuSans-2e" x="99.707031"/>
       <use xlink:href="#DejaVuSans-30" x="131.494141"/>
      </g>
     </g>
    </g>
    <g id="ytick_2">
     <g id="line2d_11">
      <g>
       <use xlink:href="#m58958bc4cc" x="67.25" y="145.361717" style="stroke: #000000; stroke-width: 0.8"/>
      </g>
     </g>
     <g id="text_2">
      <!-- -1.0 -->
      <g transform="translate(32.934688 150.680624) scale(0.14 -0.14)">
       <defs>
        <path id="DejaVuSans-31" d="M 794 531 
L 1825 531 
L 1825 4091 
L 703 3866 
L 703 4441 
L 1819 4666 
L 2450 4666 
L 2450 531 
L 3481 531 
L 3481 0 
L 794 0 
L 794 531 
z
" transform="scale(0.015625)"/>
       </defs>
       <use xlink:href="#DejaVuSans-2d"/>
       <use xlink:href="#DejaVuSans-31" x="36.083984"/>
       <use xlink:href="#DejaVuSans-2e" x="99.707031"/>
       <use xlink:href="#DejaVuSans-30" x="131.494141"/>
      </g>
     </g>
    </g>
    <g id="ytick_3">
     <g id="line2d_12">
      <g>
       <use xlink:href="#m58958bc4cc" x="67.25" y="117.2825" style="stroke: #000000; stroke-width: 0.8"/>
      </g>
     </g>
     <g id="text_3">
      <!-- 0.0 -->
      <g transform="translate(37.985625 122.601406) scale(0.14 -0.14)">
       <use xlink:href="#DejaVuSans-30"/>
       <use xlink:href="#DejaVuSans-2e" x="63.623047"/>
       <use xlink:href="#DejaVuSans-30" x="95.410156"/>
      </g>
     </g>
    </g>
    <g id="ytick_4">
     <g id="line2d_13">
      <g>
       <use xlink:href="#m58958bc4cc" x="67.25" y="89.203283" style="stroke: #000000; stroke-width: 0.8"/>
      </g>
     </g>
     <g id="text_4">
      <!-- 1.0 -->
      <g transform="translate(37.985625 94.522189) scale(0.14 -0.14)">
       <use xlink:href="#DejaVuSans-31"/>
       <use xlink:href="#DejaVuSans-2e" x="63.623047"/>
       <use xlink:href="#DejaVuSans-30" x="95.410156"/>
      </g>
     </g>
    </g>
    <g id="ytick_5">
     <g id="line2d_14">
      <g>
       <use xlink:href="#m58958bc4cc" x="67.25" y="61.124065" style="stroke: #000000; stroke-width: 0.8"/>
      </g>
     </g>
     <g id="text_5">
      <!-- 2.0 -->
      <g transform="translate(37.985625 66.442971) scale(0.14 -0.14)">
       <use xlink:href="#DejaVuSans-32"/>
       <use xlink:href="#DejaVuSans-2e" x="63.623047"/>
       <use xlink:href="#DejaVuSans-30" x="95.410156"/>
      </g>
     </g>
    </g>
    <g id="text_6">
     <!-- Pos N [m] -->
     <g transform="translate(26.023125 151.146094) rotate(-90) scale(0.14 -0.14)">
      <defs>
       <path id="DejaVuSans-50" d="M 1259 4147 
L 1259 2394 
L 2053 2394 
Q 2494 2394 2734 2622 
Q 2975 2850 2975 3272 
Q 2975 3691 2734 3919 
Q 2494 4147 2053 4147 
L 1259 4147 
z
M 628 4666 
L 2053 4666 
Q 2838 4666 3239 4311 
Q 3641 3956 3641 3272 
Q 3641 2581 3239 2228 
Q 2838 1875 2053 1875 
L 1259 1875 
L 1259 0 
L 628 0 
L 628 4666 
z
" transform="scale(0.015625)"/>
       <path id="DejaVuSans-6f" d="M 1959 3097 
Q 1497 3097 1228 2736 
Q 959 2375 959 1747 
Q 959 1119 1226 758 
Q 1494 397 1959 397 
Q 2419 397 2687 759 
Q 2956 1122 2956 1747 
Q 2956 2369 2687 2733 
Q 2419 3097 1959 3097 
z
M 1959 3584 
Q 2709 3584 3137 3096 
Q 3566 2609 3566 1747 
Q 3566 888 3137 398 
Q 2709 -91 1959 -91 
Q 1206 -91 779 398 
Q 353 888 353 1747 
Q 353 2609 779 3096 
Q 1206 3584 1959 3584 
z
" transform="scale(0.015625)"/>
       <path id="DejaVuSans-73" d="M 2834 3397 
L 2834 2853 
Q 2591 2978 2328 3040 
Q 2066 3103 1784 3103 
Q 1356 3103 1142 2972 
Q 928 2841 928 2578 
Q 928 2378 1081 2264 
Q 1234 2150 1697 2047 
L 1894 2003 
Q 2506 1872 2764 1633 
Q 3022 1394 3022 966 
Q 3022 478 2636 193 
Q 2250 -91 1575 -91 
Q 1294 -91 989 -36 
Q 684 19 347 128 
L 347 722 
Q 666 556 975 473 
Q 1284 391 1588 391 
Q 1994 391 2212 530 
Q 2431 669 2431 922 
Q 2431 1156 2273 1281 
Q 2116 1406 1581 1522 
L 1381 1569 
Q 847 1681 609 1914 
Q 372 2147 372 2553 
Q 372 3047 722 3315 
Q 1072 3584 1716 3584 
Q 2034 3584 2315 3537 
Q 2597 3491 2834 3397 
z
" transform="scale(0.015625)"/>
       <path id="DejaVuSans-20" transform="scale(0.015625)"/>
       <path id="DejaVuSans-4e" d="M 628 4666 
L 1478 4666 
L 3547 763 
L 3547 4666 
L 4159 4666 
L 4159 0 
L 3309 0 
L 1241 3903 
L 1241 0 
L 628 0 
L 628 4666 
z
" transform="scale(0.015625)"/>
       <path id="DejaVuSans-5b" d="M 550 4863 
L 1875 4863 
L 1875 4416 
L 1125 4416 
L 1125 -397 
L 1875 -397 
L 1875 -844 
L 550 -844 
L 550 4863 
z
" transform="scale(0.015625)"/>
       <path id="DejaVuSans-6d" d="M 3328 2828 
Q 3544 3216 3844 3400 
Q 4144 3584 4550 3584 
Q 5097 3584 5394 3201 
Q 5691 2819 5691 2113 
L 5691 0 
L 5113 0 
L 5113 2094 
Q 5113 2597 4934 2840 
Q 4756 3084 4391 3084 
Q 3944 3084 3684 2787 
Q 3425 2491 3425 1978 
L 3425 0 
L 2847 0 
L 2847 2094 
Q 2847 2600 2669 2842 
Q 2491 3084 2119 3084 
Q 1678 3084 1418 2786 
Q 1159 2488 1159 1978 
L 1159 0 
L 581 0 
L 581 3500 
L 1159 3500 
L 1159 2956 
Q 1356 3278 1631 3431 
Q 1906 3584 2284 3584 
Q 2666 3584 2933 3390 
Q 3200 3197 3328 2828 
z
" transform="scale(0.015625)"/>
       <path id="DejaVuSans-5d" d="M 1947 4863 
L 1947 -844 
L 622 -844 
L 622 -397 
L 1369 -397 
L 1369 4416 
L 622 4416 
L 622 4863 
L 1947 4863 
z
" transform="scale(0.015625)"/>
      </defs>
      <use xlink:href="#DejaVuSans-50"/>
      <use xlink:href="#DejaVuSans-6f" x="56.677734"/>
      <use xlink:href="#DejaVuSans-73" x="117.859375"/>
      <use xlink:href="#DejaVuSans-20" x="169.958984"/>
      <use xlink:href="#DejaVuSans-4e" x="201.746094"/>
      <use xlink:href="#DejaVuSans-20" x="276.550781"/>
      <use xlink:href="#DejaVuSans-5b" x="308.337891"/>
      <use xlink:href="#DejaVuSans-6d" x="347.351562"/>
      <use xlink:href="#DejaVuSans-5d" x="444.763672"/>
     </g>
    </g>
   </g>
   <g id="line2d_15">
    <path d="M 67.25 117.2825 
L 70.371775 125.676497 
L 73.49355 121.03945 
L 76.615325 118.247811 
L 79.7371 120.639964 
L 82.858875 113.203844 
L 85.98065 123.753359 
L 89.102425 122.166656 
L 92.2242 118.338206 
L 95.345975 112.54504 
L 98.46775 107.798643 
L 101.589525 121.811593 
L 104.7113 134.049414 
L 107.833075 115.473273 
L 110.95485 111.663263 
L 114.076625 119.848191 
L 117.1984 105.166735 
L 120.320175 109.072062 
L 123.44195 103.142396 
L 126.563725 109.734309 
L 129.6855 96.68795 
L 132.807275 91.716284 
L 135.92905 107.472218 
L 139.050825 106.675948 
L 142.1726 108.121053 
L 145.294375 102.199689 
L 148.41615 118.897922 
L 151.537925 114.251334 
L 154.6597 107.021149 
L 157.781475 127.290559 
L 160.90325 134.217746 
L 164.025025 144.001909 
L 167.1468 132.604686 
L 170.268575 115.91505 
L 173.39035 99.857591 
L 176.512125 104.916334 
L 179.6339 96.48787 
L 182.755675 118.718862 
L 185.87745 135.204943 
L 188.999225 128.630542 
L 192.121 118.817367 
L 195.242775 116.377548 
L 198.36455 133.400492 
L 201.486325 126.253492 
L 204.6081 131.548031 
L 207.729875 117.285483 
L 210.85165 111.401897 
L 213.973425 120.55964 
L 217.0952 123.079664 
L 220.216975 128.969853 
L 223.33875 123.203469 
L 226.460525 110.324423 
L 229.5823 120.175608 
L 232.704075 113.978405 
L 235.82585 119.256061 
L 238.947625 124.963138 
L 242.0694 121.927194 
L 245.191175 127.66891 
L 248.31295 126.6475 
L 251.434725 131.148246 
L 254.5565 105.87174 
L 257.678275 107.970211 
L 260.80005 117.643759 
L 263.921825 115.975077 
L 267.0436 117.43488 
L 270.165375 119.135851 
L 273.28715 112.632016 
L 276.408925 107.474939 
L 279.5307 116.301006 
L 282.652475 122.396359 
L 285.77425 122.765951 
L 288.896025 139.904537 
L 292.0178 142.272944 
L 295.139575 116.645 
L 298.26135 98.646102 
L 301.383125 106.836561 
L 304.5049 106.810455 
L 307.626675 109.668952 
L 310.74845 87.390712 
L 313.870225 91.835549 
L 316.992 107.238449 
L 320.113775 123.766415 
L 323.23555 137.675873 
L 326.357325 127.639468 
L 329.4791 128.046441 
L 332.600875 133.847445 
L 335.72265 130.186982 
L 338.844425 131.31897 
L 341.9662 107.805403 
L 345.087975 101.504986 
L 348.20975 107.85226 
L 351.331525 100.097305 
L 354.4533 108.246808 
L 357.575075 121.900061 
L 360.69685 108.46142 
L 363.818625 108.080323 
L 366.9404 122.168074 
L 370.062175 123.026517 
L 373.18395 128.370676 
L 376.305725 135.173718 
L 379.4275 118.029226 
L 382.549275 98.743976 
L 385.67105 117.831859 
L 388.792825 113.777091 
L 391.9146 121.523574 
L 395.036375 124.555323 
L 398.15815 126.527958 
L 401.279925 129.41003 
L 404.4017 122.584022 
L 407.523475 125.91877 
L 410.64525 118.558322 
L 413.767025 117.104262 
L 416.8888 118.563549 
L 420.010575 125.688954 
L 423.13235 126.924469 
L 426.254125 115.389796 
L 429.3759 110.701579 
L 432.497675 121.835375 
L 435.61945 119.57973 
L 438.741225 112.038209 
L 441.863 128.858933 
L 444.984775 119.673309 
L 448.10655 123.826099 
L 451.228325 115.633743 
L 454.3501 122.413817 
L 457.471875 135.967945 
L 460.59365 141.76502 
L 463.715425 129.004765 
L 466.8372 118.728107 
L 469.958975 123.655618 
L 473.08075 114.183759 
L 476.202525 129.113201 
L 479.3243 124.557299 
L 482.446075 131.112844 
L 485.56785 129.901999 
L 488.689625 122.500679 
L 491.8114 126.064215 
L 494.933175 124.501542 
L 498.05495 111.441384 
L 501.176725 118.040844 
L 504.2985 110.690894 
L 507.420275 123.757307 
L 510.54205 117.325162 
L 513.663825 104.887631 
L 516.7856 132.227166 
L 519.907375 134.24096 
L 523.02915 121.485214 
L 526.150925 119.966821 
L 529.2727 114.688272 
L 532.394475 120.672306 
L 535.51625 118.722521 
L 538.638025 119.54944 
L 541.7598 108.535552 
L 544.881575 110.269597 
L 548.00335 111.514208 
L 551.125125 119.107561 
L 554.2469 124.110092 
L 557.368675 125.781234 
L 560.49045 118.697975 
L 563.612225 121.266596 
L 566.734 116.869411 
L 569.855775 98.73511 
L 572.97755 99.403617 
L 576.099325 112.092015 
L 579.2211 106.778799 
L 582.342875 117.116858 
L 585.46465 137.30506 
L 588.586425 138.796815 
L 591.7082 144.863884 
L 597.95175 122.942971 
L 601.073525 102.790002 
L 604.1953 104.400028 
L 607.317075 112.524977 
L 610.43885 109.033336 
L 613.560625 133.427966 
L 616.6824 126.021815 
L 619.804175 115.030355 
L 622.92595 128.074918 
L 626.047725 113.316129 
L 629.1695 111.226991 
L 632.291275 117.577274 
L 635.41305 112.664803 
L 638.534825 95.330266 
L 641.6566 104.119453 
L 644.778375 110.241233 
L 647.90015 119.945557 
L 651.021925 128.295746 
L 654.1437 117.155927 
L 657.265475 124.240164 
L 660.38725 120.45301 
L 663.509025 122.620665 
L 666.6308 115.574222 
L 669.752575 112.708085 
L 672.87435 105.499196 
L 675.996125 115.491991 
L 679.1179 119.95589 
L 682.239675 128.210459 
L 685.36145 127.54666 
L 688.483225 118.898691 
L 688.483225 118.898691 
" clip-path="url(#p599404fab3)" style="fill: none; stroke: #1f77b4; stroke-width: 1.5; stroke-linecap: square"/>
   </g>
   <g id="line2d_16">
    <path d="M 67.25 164.270833 
L 691.605 164.270833 
" clip-path="url(#p599404fab3)" style="fill: none; stroke-dasharray: 5.55,2.4; stroke-dashoffset: 0; stroke: #ff0000; stroke-width: 1.5"/>
   </g>
   <g id="line2d_17">
    <path d="M 67.25 70.294167 
L 691.605 70.294167 
" clip-path="url(#p599404fab3)" style="fill: none; stroke-dasharray: 5.55,2.4; stroke-dashoffset: 0; stroke: #ff0000; stroke-width: 1.5"/>
   </g>
   <g id="patch_3">
    <path d="M 67.25 187.765 
L 67.25 46.8 
" style="fill: none; stroke: #000000; stroke-width: 0.8; stroke-linejoin: miter; stroke-linecap: square"/>
   </g>
   <g id="patch_4">
    <path d="M 691.605 187.765 
L 691.605 46.8 
" style="fill: none; stroke: #000000; stroke-width: 0.8; stroke-linejoin: miter; stroke-linecap: square"/>
   </g>
   <g id="patch_5">
    <path d="M 67.25 187.765 
L 691.605 187.765 
" style="fill: none; stroke: #000000; stroke-width: 0.8; stroke-linejoin: miter; stroke-linecap: square"/>
   </g>
   <g id="patch_6">
    <path d="M 67.25 46.8 
L 691.605 46.8 
" style="fill: none; stroke: #000000; stroke-width: 0.8; stroke-linejoin: miter; stroke-linecap: square"/>
   </g>
  </g>
  <g id="axes_2">
   <g id="patch_7">
    <path d="M 67.25 347.35 
L 691.605 347.35 
L 691.605 206.385 
L 67.25 206.385 
z
" style="fill: #ffffff"/>
   </g>
   <g id="matplotlib.axis_3">
    <g id="xtick_10">
     <g id="line2d_18">
      <g>
       <use xlink:href="#m219cb74cf4" x="67.25" y="347.35" style="stroke: #000000; stroke-width: 0.8"/>
      </g>
     </g>
    </g>
    <g id="xtick_11">
     <g id="line2d_19">
      <g>
       <use xlink:href="#m219cb74cf4" x="145.294375" y="347.35" style="stroke: #000000; stroke-width: 0.8"/>
      </g>
     </g>
    </g>
    <g id="xtick_12">
     <g id="line2d_20">
      <g>
       <use xlink:href="#m219cb74cf4" x="223.33875" y="347.35" style="stroke: #000000; stroke-width: 0.8"/>
      </g>
     </g>
    </g>
    <g id="xtick_13">
     <g id="line2d_21">
      <g>
       <use xlink:href="#m219cb74cf4" x="301.383125" y="347.35" style="stroke: #000000; stroke-width: 0.8"/>
      </g>
     </g>
    </g>
    <g id="xtick_14">
     <g id="line2d_22">
      <g>
       <use xlink:href="#m219cb74cf4" x="379.4275" y="347.35" style="stroke: #000000; stroke-width: 0.8"/>
      </g>
     </g>
    </g>
    <g id="xtick_15">
     <g id="line2d_23">
      <g>
       <use xlink:href="#m219cb74cf4" x="457.471875" y="347.35" style="stroke: #000000; stroke-width: 0.8"/>
      </g>
     </g>
    </g>
    <g id="xtick_16">
     <g id="line2d_24">
      <g>
       <use xlink:href="#m219cb74cf4" x="535.51625" y="347.35" style="stroke: #000000; stroke-width: 0.8"/>
      </g>
     </g>
    </g>
    <g id="xtick_17">
     <g id="line2d_25">
      <g>
       <use xlink:href="#m219cb74cf4" x="613.560625" y="347.35" style="stroke: #000000; stroke-width: 0.8"/>
      </g>
     </g>
    </g>
    <g id="xtick_18">
     <g id="line2d_26">
      <g>
       <use xlink:href="#m219cb74cf4" x="691.605" y="347.35" style="stroke: #000000; stroke-width: 0.8"/>
      </g>
     </g>
    </g>
   </g>
   <g id="matplotlib.axis_4">
    <g id="ytick_6">
     <g id="line2d_27">
      <g>
       <use xlink:href="#m58958bc4cc" x="67.25" y="333.025935" style="stroke: #000000; stroke-width: 0.8"/>
      </g>
     </g>
     <g id="text_7">
      <!-- -2.0 -->
      <g transform="translate(32.934688 338.344841) scale(0.14 -0.14)">
       <use xlink:href="#DejaVuSans-2d"/>
       <use xlink:href="#DejaVuSans-32" x="36.083984"/>
       <use xlink:href="#DejaVuSans-2e" x="99.707031"/>
       <use xlink:href="#DejaVuSans-30" x="131.494141"/>
      </g>
     </g>
    </g>
    <g id="ytick_7">
     <g id="line2d_28">
      <g>
       <use xlink:href="#m58958bc4cc" x="67.25" y="304.946717" style="stroke: #000000; stroke-width: 0.8"/>
      </g>
     </g>
     <g id="text_8">
      <!-- -1.0 -->
      <g transform="translate(32.934688 310.265624) scale(0.14 -0.14)">
       <use xlink:href="#DejaVuSans-2d"/>
       <use xlink:href="#DejaVuSans-31" x="36.083984"/>
       <use xlink:href="#DejaVuSans-2e" x="99.707031"/>
       <use xlink:href="#DejaVuSans-30" x="131.494141"/>
      </g>
     </g>
    </g>
    <g id="ytick_8">
     <g id="line2d_29">
      <g>
       <use xlink:href="#m58958bc4cc" x="67.25" y="276.8675" style="stroke: #000000; stroke-width: 0.8"/>
      </g>
     </g>
     <g id="text_9">
      <!-- 0.0 -->
      <g transform="translate(37.985625 282.186406) scale(0.14 -0.14)">
       <use xlink:href="#DejaVuSans-30"/>
       <use xlink:href="#DejaVuSans-2e" x="63.623047"/>
       <use xlink:href="#DejaVuSans-30" x="95.410156"/>
      </g>
     </g>
    </g>
    <g id="ytick_9">
     <g id="line2d_30">
      <g>
       <use xlink:href="#m58958bc4cc" x="67.25" y="248.788283" style="stroke: #000000; stroke-width: 0.8"/>
      </g>
     </g>
     <g id="text_10">
      <!-- 1.0 -->
      <g transform="translate(37.985625 254.107189) scale(0.14 -0.14)">
       <use xlink:href="#DejaVuSans-31"/>
       <use xlink:href="#DejaVuSans-2e" x="63.623047"/>
       <use xlink:href="#DejaVuSans-30" x="95.410156"/>
      </g>
     </g>
    </g>
    <g id="ytick_10">
     <g id="line2d_31">
      <g>
       <use xlink:href="#m58958bc4cc" x="67.25" y="220.709065" style="stroke: #000000; stroke-width: 0.8"/>
      </g>
     </g>
     <g id="text_11">
      <!-- 2.0 -->
      <g transform="translate(37.985625 226.027971) scale(0.14 -0.14)">
       <use xlink:href="#DejaVuSans-32"/>
       <use xlink:href="#DejaVuSans-2e" x="63.623047"/>
       <use xlink:href="#DejaVuSans-30" x="95.410156"/>
      </g>
     </g>
    </g>
    <g id="text_12">
     <!-- Pos E [m] -->
     <g transform="translate(26.023125 309.917344) rotate(-90) scale(0.14 -0.14)">
      <defs>
       <path id="DejaVuSans-45" d="M 628 4666 
L 3578 4666 
L 3578 4134 
L 1259 4134 
L 1259 2753 
L 3481 2753 
L 3481 2222 
L 1259 2222 
L 1259 531 
L 3634 531 
L 3634 0 
L 628 0 
L 628 4666 
z
" transform="scale(0.015625)"/>
      </defs>
      <use xlink:href="#DejaVuSans-50"/>
      <use xlink:href="#DejaVuSans-6f" x="56.677734"/>
      <use xlink:href="#DejaVuSans-73" x="117.859375"/>
      <use xlink:href="#DejaVuSans-20" x="169.958984"/>
      <use xlink:href="#DejaVuSans-45" x="201.746094"/>
      <use xlink:href="#DejaVuSans-20" x="264.929688"/>
      <use xlink:href="#DejaVuSans-5b" x="296.716797"/>
      <use xlink:href="#DejaVuSans-6d" x="335.730469"/>
      <use xlink:href="#DejaVuSans-5d" x="433.142578"/>
     </g>
    </g>
   </g>
   <g id="line2d_32">
    <path d="M 67.25 276.8675 
L 70.371775 289.781191 
L 73.49355 275.585851 
L 76.615325 264.184429 
L 79.7371 264.830079 
L 82.858875 254.299514 
L 85.98065 272.221132 
L 89.102425 287.573151 
L 92.2242 299.8377 
L 95.345975 276.228451 
L 98.46775 268.162806 
L 101.589525 270.921635 
L 104.7113 270.850324 
L 107.833075 283.499746 
L 110.95485 259.649648 
L 114.076625 265.390394 
L 117.1984 270.463955 
L 120.320175 268.259561 
L 123.44195 268.854809 
L 126.563725 271.49166 
L 129.6855 281.818547 
L 132.807275 276.368277 
L 135.92905 259.901174 
L 139.050825 255.266209 
L 142.1726 251.986858 
L 145.294375 269.71437 
L 148.41615 284.802167 
L 151.537925 284.603354 
L 154.6597 280.937452 
L 157.781475 268.824161 
L 160.90325 286.189182 
L 164.025025 268.875173 
L 167.1468 272.795271 
L 170.268575 278.415152 
L 173.39035 286.881778 
L 176.512125 296.856573 
L 179.6339 279.850868 
L 182.755675 275.405744 
L 185.87745 285.666276 
L 188.999225 292.347553 
L 192.121 287.230548 
L 195.242775 265.967979 
L 198.36455 270.868051 
L 201.486325 286.477822 
L 204.6081 284.857806 
L 207.729875 283.039397 
L 210.85165 302.77211 
L 213.973425 290.774294 
L 217.0952 283.727738 
L 220.216975 271.839316 
L 223.33875 255.812989 
L 226.460525 254.566286 
L 229.5823 268.285345 
L 232.704075 284.593779 
L 235.82585 261.023989 
L 238.947625 267.895074 
L 242.0694 273.425111 
L 245.191175 276.891663 
L 248.31295 276.413189 
L 251.434725 278.575429 
L 254.5565 283.313677 
L 257.678275 285.443394 
L 260.80005 281.569161 
L 263.921825 283.362149 
L 267.0436 285.971719 
L 270.165375 280.18828 
L 273.28715 279.802636 
L 276.408925 264.613075 
L 279.5307 292.591079 
L 282.652475 277.197433 
L 285.77425 265.376023 
L 288.896025 288.224314 
L 292.0178 287.341447 
L 295.139575 285.688291 
L 298.26135 293.182351 
L 301.383125 291.747953 
L 304.5049 293.083203 
L 307.626675 268.574771 
L 310.74845 261.64405 
L 313.870225 256.933813 
L 316.992 260.804468 
L 320.113775 280.467551 
L 323.23555 286.588619 
L 326.357325 279.539997 
L 329.4791 289.127547 
L 332.600875 277.574341 
L 335.72265 278.484119 
L 338.844425 280.778864 
L 341.9662 272.81405 
L 345.087975 270.559939 
L 348.20975 277.011444 
L 351.331525 267.925489 
L 354.4533 282.068136 
L 357.575075 275.898562 
L 360.69685 271.666877 
L 363.818625 277.252492 
L 366.9404 275.282295 
L 370.062175 287.659216 
L 373.18395 275.669267 
L 376.305725 277.477016 
L 379.4275 281.982382 
L 382.549275 270.896269 
L 385.67105 279.602198 
L 388.792825 291.49865 
L 391.9146 299.125224 
L 395.036375 283.247105 
L 398.15815 289.421258 
L 401.279925 267.156246 
L 404.4017 287.942675 
L 407.523475 268.607111 
L 410.64525 269.759317 
L 413.767025 274.404076 
L 416.8888 281.493098 
L 420.010575 277.094126 
L 423.13235 277.699618 
L 426.254125 268.103726 
L 429.3759 271.289799 
L 432.497675 273.626788 
L 435.61945 279.571586 
L 438.741225 280.095344 
L 441.863 276.577684 
L 444.984775 291.854195 
L 448.10655 297.437322 
L 451.228325 280.971298 
L 454.3501 275.487756 
L 457.471875 276.394854 
L 460.59365 276.091696 
L 463.715425 273.439261 
L 466.8372 279.917528 
L 469.958975 286.004779 
L 473.08075 280.502601 
L 476.202525 286.877889 
L 479.3243 278.461505 
L 482.446075 291.616776 
L 485.56785 275.661231 
L 488.689625 270.55966 
L 491.8114 270.543263 
L 494.933175 265.137425 
L 498.05495 256.600054 
L 501.176725 258.204423 
L 504.2985 285.20161 
L 507.420275 295.948965 
L 510.54205 294.018104 
L 513.663825 285.095983 
L 516.7856 274.85098 
L 519.907375 280.282397 
L 523.02915 276.481148 
L 526.150925 282.623494 
L 529.2727 285.199255 
L 532.394475 293.213425 
L 535.51625 293.069281 
L 538.638025 295.763908 
L 541.7598 293.514837 
L 544.881575 274.013288 
L 548.00335 280.459536 
L 551.125125 254.556179 
L 554.2469 258.925622 
L 557.368675 266.602473 
L 560.49045 280.912795 
L 563.612225 275.091672 
L 566.734 281.495542 
L 569.855775 278.79805 
L 572.97755 255.271517 
L 576.099325 265.092897 
L 579.2211 261.845371 
L 582.342875 276.350242 
L 585.46465 279.060353 
L 588.586425 263.65892 
L 591.7082 275.081558 
L 594.829975 261.192202 
L 597.95175 262.452287 
L 601.073525 275.246416 
L 604.1953 272.399745 
L 607.317075 266.832384 
L 610.43885 266.510326 
L 613.560625 285.860272 
L 616.6824 289.623265 
L 619.804175 285.881886 
L 622.92595 281.060448 
L 626.047725 271.998773 
L 629.1695 271.059572 
L 632.291275 284.72899 
L 638.534825 271.268909 
L 641.6566 268.022069 
L 644.778375 262.31727 
L 647.90015 261.894829 
L 651.021925 265.774391 
L 654.1437 273.050178 
L 657.265475 290.927137 
L 660.38725 282.009594 
L 663.509025 276.902686 
L 666.6308 273.258745 
L 669.752575 285.093776 
L 672.87435 290.575031 
L 675.996125 274.193239 
L 679.1179 273.577502 
L 682.239675 267.965612 
L 685.36145 271.087801 
L 688.483225 273.644937 
L 688.483225 273.644937 
" clip-path="url(#p70485e86e2)" style="fill: none; stroke: #1f77b4; stroke-width: 1.5; stroke-linecap: square"/>
   </g>
   <g id="line2d_33">
    <path d="M 67.25 323.855833 
L 691.605 323.855833 
" clip-path="url(#p70485e86e2)" style="fill: none; stroke-dasharray: 5.55,2.4; stroke-dashoffset: 0; stroke: #ff0000; stroke-width: 1.5"/>
   </g>
   <g id="line2d_34">
    <path d="M 67.25 229.879167 
L 691.605 229.879167 
" clip-path="url(#p70485e86e2)" style="fill: none; stroke-dasharray: 5.55,2.4; stroke-dashoffset: 0; stroke: #ff0000; stroke-width: 1.5"/>
   </g>
   <g id="patch_8">
    <path d="M 67.25 347.35 
L 67.25 206.385 
" style="fill: none; stroke: #000000; stroke-width: 0.8; stroke-linejoin: miter; stroke-linecap: square"/>
   </g>
   <g id="patch_9">
    <path d="M 691.605 347.35 
L 691.605 206.385 
" style="fill: none; stroke: #000000; stroke-width: 0.8; stroke-linejoin: miter; stroke-linecap: square"/>
   </g>
   <g id="patch_10">
    <path d="M 67.25 347.35 
L 691.605 347.35 
" style="fill: none; stroke: #000000; stroke-width: 0.8; stroke-linejoin: miter; stroke-linecap: square"/>
   </g>
   <g id="patch_11">
    <path d="M 67.25 206.385 
L 691.605 206.385 
" style="fill: none; stroke: #000000; stroke-width: 0.8; stroke-linejoin: miter; stroke-linecap: square"/>
   </g>
  </g>
  <g id="axes_3">
   <g id="patch_12">
    <path d="M 67.25 506.935 
L 691.605 506.935 
L 691.605 365.97 
L 67.25 365.97 
z
" style="fill: #ffffff"/>
   </g>
   <g id="matplotlib.axis_5">
    <g id="xtick_19">
     <g id="line2d_35">
      <g>
       <use xlink:href="#m219cb74cf4" x="67.25" y="506.935" style="stroke: #000000; stroke-width: 0.8"/>
      </g>
     </g>
    </g>
    <g id="xtick_20">
     <g id="line2d_36">
      <g>
       <use xlink:href="#m219cb74cf4" x="145.294375" y="506.935" style="stroke: #000000; stroke-width: 0.8"/>
      </g>
     </g>
    </g>
    <g id="xtick_21">
     <g id="line2d_37">
      <g>
       <use xlink:href="#m219cb74cf4" x="223.33875" y="506.935" style="stroke: #000000; stroke-width: 0.8"/>
      </g>
     </g>
    </g>
    <g id="xtick_22">
     <g id="line2d_38">
      <g>
       <use xlink:href="#m219cb74cf4" x="301.383125" y="506.935" style="stroke: #000000; stroke-width: 0.8"/>
      </g>
     </g>
    </g>
    <g id="xtick_23">
     <g id="line2d_39">
      <g>
       <use xlink:href="#m219cb74cf4" x="379.4275" y="506.935" style="stroke: #000000; stroke-width: 0.8"/>
      </g>
     </g>
    </g>
    <g id="xtick_24">
     <g id="line2d_40">
      <g>
       <use xlink:href="#m219cb74cf4" x="457.471875" y="506.935" style="stroke: #000000; stroke-width: 0.8"/>
      </g>
     </g>
    </g>
    <g id="xtick_25">
     <g id="line2d_41">
      <g>
       <use xlink:href="#m219cb74cf4" x="535.51625" y="506.935" style="stroke: #000000; stroke-width: 0.8"/>
      </g>
     </g>
    </g>
    <g id="xtick_26">
     <g id="line2d_42">
      <g>
       <use xlink:href="#m219cb74cf4" x="613.560625" y="506.935" style="stroke: #000000; stroke-width: 0.8"/>
      </g>
     </g>
    </g>
    <g id="xtick_27">
     <g id="line2d_43">
      <g>
       <use xlink:href="#m219cb74cf4" x="691.605" y="506.935" style="stroke: #000000; stroke-width: 0.8"/>
      </g>
     </g>
    </g>
   </g>
   <g id="matplotlib.axis_6">
    <g id="ytick_11">
     <g id="line2d_44">
      <g>
       <use xlink:href="#m58958bc4cc" x="67.25" y="502.170082" style="stroke: #000000; stroke-width: 0.8"/>
      </g>
     </g>
     <g id="text_13">
      <!-- -0.8 -->
      <g transform="translate(32.934688 507.488988) scale(0.14 -0.14)">
       <defs>
        <path id="DejaVuSans-38" d="M 2034 2216 
Q 1584 2216 1326 1975 
Q 1069 1734 1069 1313 
Q 1069 891 1326 650 
Q 1584 409 2034 409 
Q 2484 409 2743 651 
Q 3003 894 3003 1313 
Q 3003 1734 2745 1975 
Q 2488 2216 2034 2216 
z
M 1403 2484 
Q 997 2584 770 2862 
Q 544 3141 544 3541 
Q 544 4100 942 4425 
Q 1341 4750 2034 4750 
Q 2731 4750 3128 4425 
Q 3525 4100 3525 3541 
Q 3525 3141 3298 2862 
Q 3072 2584 2669 2484 
Q 3125 2378 3379 2068 
Q 3634 1759 3634 1313 
Q 3634 634 3220 271 
Q 2806 -91 2034 -91 
Q 1263 -91 848 271 
Q 434 634 434 1313 
Q 434 1759 690 2068 
Q 947 2378 1403 2484 
z
M 1172 3481 
Q 1172 3119 1398 2916 
Q 1625 2713 2034 2713 
Q 2441 2713 2670 2916 
Q 2900 3119 2900 3481 
Q 2900 3844 2670 4047 
Q 2441 4250 2034 4250 
Q 1625 4250 1398 4047 
Q 1172 3844 1172 3481 
z
" transform="scale(0.015625)"/>
       </defs>
       <use xlink:href="#DejaVuSans-2d"/>
       <use xlink:href="#DejaVuSans-30" x="36.083984"/>
       <use xlink:href="#DejaVuSans-2e" x="99.707031"/>
       <use xlink:href="#DejaVuSans-38" x="131.494141"/>
      </g>
     </g>
    </g>
    <g id="ytick_12">
     <g id="line2d_45">
      <g>
       <use xlink:href="#m58958bc4cc" x="67.25" y="480.264221" style="stroke: #000000; stroke-width: 0.8"/>
      </g>
     </g>
     <g id="text_14">
      <!-- -0.5 -->
      <g transform="translate(32.934688 485.583127) scale(0.14 -0.14)">
       <defs>
        <path id="DejaVuSans-35" d="M 691 4666 
L 3169 4666 
L 3169 4134 
L 1269 4134 
L 1269 2991 
Q 1406 3038 1543 3061 
Q 1681 3084 1819 3084 
Q 2600 3084 3056 2656 
Q 3513 2228 3513 1497 
Q 3513 744 3044 326 
Q 2575 -91 1722 -91 
Q 1428 -91 1123 -41 
Q 819 9 494 109 
L 494 744 
Q 775 591 1075 516 
Q 1375 441 1709 441 
Q 2250 441 2565 725 
Q 2881 1009 2881 1497 
Q 2881 1984 2565 2268 
Q 2250 2553 1709 2553 
Q 1456 2553 1204 2497 
Q 953 2441 691 2322 
L 691 4666 
z
" transform="scale(0.015625)"/>
       </defs>
       <use xlink:href="#DejaVuSans-2d"/>
       <use xlink:href="#DejaVuSans-30" x="36.083984"/>
       <use xlink:href="#DejaVuSans-2e" x="99.707031"/>
       <use xlink:href="#DejaVuSans-35" x="131.494141"/>
      </g>
     </g>
    </g>
    <g id="ytick_13">
     <g id="line2d_46">
      <g>
       <use xlink:href="#m58958bc4cc" x="67.25" y="458.358361" style="stroke: #000000; stroke-width: 0.8"/>
      </g>
     </g>
     <g id="text_15">
      <!-- -0.2 -->
      <g transform="translate(32.934688 463.677267) scale(0.14 -0.14)">
       <use xlink:href="#DejaVuSans-2d"/>
       <use xlink:href="#DejaVuSans-30" x="36.083984"/>
       <use xlink:href="#DejaVuSans-2e" x="99.707031"/>
       <use xlink:href="#DejaVuSans-32" x="131.494141"/>
      </g>
     </g>
    </g>
    <g id="ytick_14">
     <g id="line2d_47">
      <g>
       <use xlink:href="#m58958bc4cc" x="67.25" y="436.4525" style="stroke: #000000; stroke-width: 0.8"/>
      </g>
     </g>
     <g id="text_16">
      <!-- 0.0 -->
      <g transform="translate(37.985625 441.771406) scale(0.14 -0.14)">
       <use xlink:href="#DejaVuSans-30"/>
       <use xlink:href="#DejaVuSans-2e" x="63.623047"/>
       <use xlink:href="#DejaVuSans-30" x="95.410156"/>
      </g>
     </g>
    </g>
    <g id="ytick_15">
     <g id="line2d_48">
      <g>
       <use xlink:href="#m58958bc4cc" x="67.25" y="414.546639" style="stroke: #000000; stroke-width: 0.8"/>
      </g>
     </g>
     <g id="text_17">
      <!-- 0.2 -->
      <g transform="translate(37.985625 419.865546) scale(0.14 -0.14)">
       <use xlink:href="#DejaVuSans-30"/>
       <use xlink:href="#DejaVuSans-2e" x="63.623047"/>
       <use xlink:href="#DejaVuSans-32" x="95.410156"/>
      </g>
     </g>
    </g>
    <g id="ytick_16">
     <g id="line2d_49">
      <g>
       <use xlink:href="#m58958bc4cc" x="67.25" y="392.640779" style="stroke: #000000; stroke-width: 0.8"/>
      </g>
     </g>
     <g id="text_18">
      <!-- 0.5 -->
      <g transform="translate(37.985625 397.959685) scale(0.14 -0.14)">
       <use xlink:href="#DejaVuSans-30"/>
       <use xlink:href="#DejaVuSans-2e" x="63.623047"/>
       <use xlink:href="#DejaVuSans-35" x="95.410156"/>
      </g>
     </g>
    </g>
    <g id="ytick_17">
     <g id="line2d_50">
      <g>
       <use xlink:href="#m58958bc4cc" x="67.25" y="370.734918" style="stroke: #000000; stroke-width: 0.8"/>
      </g>
     </g>
     <g id="text_19">
      <!-- 0.8 -->
      <g transform="translate(37.985625 376.053825) scale(0.14 -0.14)">
       <use xlink:href="#DejaVuSans-30"/>
       <use xlink:href="#DejaVuSans-2e" x="63.623047"/>
       <use xlink:href="#DejaVuSans-38" x="95.410156"/>
      </g>
     </g>
    </g>
    <g id="text_20">
     <!-- Vel N [m/s] -->
     <g transform="translate(26.023125 474.921875) rotate(-90) scale(0.14 -0.14)">
      <defs>
       <path id="DejaVuSans-56" d="M 1831 0 
L 50 4666 
L 709 4666 
L 2188 738 
L 3669 4666 
L 4325 4666 
L 2547 0 
L 1831 0 
z
" transform="scale(0.015625)"/>
       <path id="DejaVuSans-65" d="M 3597 1894 
L 3597 1613 
L 953 1613 
Q 991 1019 1311 708 
Q 1631 397 2203 397 
Q 2534 397 2845 478 
Q 3156 559 3463 722 
L 3463 178 
Q 3153 47 2828 -22 
Q 2503 -91 2169 -91 
Q 1331 -91 842 396 
Q 353 884 353 1716 
Q 353 2575 817 3079 
Q 1281 3584 2069 3584 
Q 2775 3584 3186 3129 
Q 3597 2675 3597 1894 
z
M 3022 2063 
Q 3016 2534 2758 2815 
Q 2500 3097 2075 3097 
Q 1594 3097 1305 2825 
Q 1016 2553 972 2059 
L 3022 2063 
z
" transform="scale(0.015625)"/>
       <path id="DejaVuSans-6c" d="M 603 4863 
L 1178 4863 
L 1178 0 
L 603 0 
L 603 4863 
z
" transform="scale(0.015625)"/>
       <path id="DejaVuSans-2f" d="M 1625 4666 
L 2156 4666 
L 531 -594 
L 0 -594 
L 1625 4666 
z
" transform="scale(0.015625)"/>
      </defs>
      <use xlink:href="#DejaVuSans-56"/>
      <use xlink:href="#DejaVuSans-65" x="60.658203"/>
      <use xlink:href="#DejaVuSans-6c" x="122.181641"/>
      <use xlink:href="#DejaVuSans-20" x="149.964844"/>
      <use xlink:href="#DejaVuSans-4e" x="181.751953"/>
      <use xlink:href="#DejaVuSans-20" x="256.556641"/>
      <use xlink:href="#DejaVuSans-5b" x="288.34375"/>
      <use xlink:href="#DejaVuSans-6d" x="327.357422"/>
      <use xlink:href="#DejaVuSans-2f" x="424.769531"/>
      <use xlink:href="#DejaVuSans-73" x="458.460938"/>
      <use xlink:href="#DejaVuSans-5d" x="510.560547"/>
     </g>
    </g>
   </g>
   <g id="line2d_51">
    <path d="M 67.25 436.4525 
L 70.371775 436.421162 
L 76.615325 430.573349 
L 79.7371 437.539443 
L 82.858875 424.856037 
L 85.98065 446.672212 
L 89.102425 438.875797 
L 92.2242 431.420717 
L 95.345975 424.558494 
L 98.46775 422.638156 
L 101.589525 450.486038 
L 104.7113 461.81966 
L 107.833075 420.099439 
L 110.95485 421.627657 
L 114.076625 440.813888 
L 117.1984 415.306622 
L 120.320175 430.934066 
L 123.44195 423.677205 
L 126.563725 439.223961 
L 129.6855 416.84257 
L 132.807275 417.881849 
L 135.92905 450.264052 
L 139.050825 441.168048 
L 142.1726 439.968146 
L 145.294375 427.987115 
L 148.41615 456.685206 
L 151.537925 438.351276 
L 154.6597 425.048665 
L 157.781475 460.589817 
L 160.90325 458.042655 
L 164.025025 461.117868 
L 167.1468 430.053879 
L 170.268575 406.136686 
L 173.39035 394.960268 
L 176.512125 421.764314 
L 179.6339 414.573491 
L 182.755675 458.085871 
L 185.87745 471.281051 
L 188.999225 442.465078 
L 192.121 422.857618 
L 195.242775 424.249355 
L 198.36455 454.890058 
L 201.486325 433.215813 
L 204.6081 441.363538 
L 207.729875 415.389394 
L 210.85165 415.109206 
L 213.973425 438.106567 
L 217.0952 439.544663 
L 220.216975 445.456522 
L 223.33875 430.514407 
L 226.460525 411.995555 
L 229.5823 437.587789 
L 232.704075 425.868007 
L 235.82585 437.589938 
L 238.947625 444.198895 
L 242.0694 434.103134 
L 245.191175 442.502558 
L 248.31295 436.364193 
L 251.434725 441.763098 
L 254.5565 398.692617 
L 257.678275 419.001593 
L 260.80005 440.969891 
L 263.921825 434.670682 
L 267.0436 436.312251 
L 270.165375 437.537317 
L 273.28715 425.555974 
L 276.408925 421.579952 
L 279.5307 441.10806 
L 282.652475 446.831998 
L 285.77425 440.951362 
L 288.896025 463.804962 
L 292.0178 452.692061 
L 295.139575 404.010796 
L 298.26135 391.108575 
L 301.383125 424.904118 
L 304.5049 429.427075 
L 307.626675 436.1959 
L 310.74845 400.984752 
L 313.870225 424.297937 
L 316.992 453.017857 
L 320.113775 469.348238 
L 323.23555 473.638839 
L 326.357325 439.008856 
L 329.4791 437.569905 
L 332.600875 445.185784 
L 335.72265 434.532407 
L 338.844425 436.55338 
L 341.9662 399.700009 
L 345.087975 407.554956 
L 348.20975 431.047042 
L 351.331525 421.302883 
L 354.4533 440.886788 
L 357.575075 459.332357 
L 360.69685 427.042868 
L 363.818625 430.819168 
L 366.9404 455.048641 
L 370.062175 447.023596 
L 373.18395 449.909433 
L 376.305725 453.668235 
L 379.4275 418.774015 
L 382.549275 397.843644 
L 385.67105 446.334383 
L 388.792825 435.352545 
L 391.9146 447.996816 
L 395.036375 447.201685 
L 398.15815 445.2194 
L 401.279925 445.664308 
L 404.4017 431.000878 
L 407.523475 439.253206 
L 410.64525 427.027448 
L 413.767025 429.967839 
L 416.8888 435.989473 
L 420.010575 447.808356 
L 423.13235 444.782678 
L 426.254125 423.644412 
L 429.3759 423.510693 
L 432.497675 447.834746 
L 435.61945 439.60445 
L 438.741225 427.341855 
L 441.863 458.657221 
L 444.984775 434.553063 
L 448.10655 442.90068 
L 451.228325 428.174524 
L 454.3501 443.788083 
L 457.471875 462.163555 
L 460.59365 459.5773 
L 463.715425 429.745174 
L 466.8372 418.479295 
L 469.958975 436.197641 
L 473.08075 423.052223 
L 476.202525 453.967931 
L 479.3243 439.683109 
L 482.446075 449.568084 
L 485.56785 442.653612 
L 488.689625 429.647402 
L 491.8114 439.950717 
L 494.933175 437.306762 
L 498.05495 418.29441 
L 501.176725 438.928474 
L 504.2985 427.939348 
L 507.420275 453.801717 
L 510.54205 436.920605 
L 513.663825 419.135344 
L 516.7856 471.340606 
L 519.907375 458.840683 
L 523.02915 429.78511 
L 526.150925 432.355752 
L 529.2727 427.877341 
L 532.394475 442.941378 
L 535.51625 438.37 
L 538.638025 440.325565 
L 541.7598 423.094394 
L 544.881575 433.9735 
L 548.00335 438.7299 
L 551.125125 450.903834 
L 554.2469 453.079739 
L 557.368675 449.046631 
L 560.49045 433.519726 
L 563.612225 440.488959 
L 566.734 433.288158 
L 569.855775 408.483512 
L 572.97755 424.826918 
L 576.099325 451.58851 
L 579.2211 437.432114 
L 582.342875 454.318895 
L 585.46465 478.012702 
L 588.586425 461.227753 
L 591.7082 459.734134 
L 594.829975 432.432631 
L 597.95175 419.194764 
L 601.073525 397.994211 
L 604.1953 420.705615 
L 607.317075 442.210194 
L 610.43885 435.200919 
L 613.560625 474.524542 
L 616.6824 445.485533 
L 619.804175 425.211659 
L 622.92595 451.883527 
L 626.047725 422.57958 
L 629.1695 427.181543 
L 632.291275 442.459401 
L 635.41305 432.829921 
L 638.534825 408.790469 
L 641.6566 436.760546 
L 644.778375 446.788625 
L 647.90015 457.338912 
L 651.021925 460.556593 
L 654.1437 432.149215 
L 657.265475 445.745671 
L 660.38725 435.860346 
L 663.509025 439.964242 
L 666.6308 427.816555 
L 669.752575 428.042186 
L 672.87435 421.423939 
L 675.996125 444.489053 
L 679.1179 447.621933 
L 682.239675 454.992271 
L 685.36145 444.953576 
L 688.483225 427.527944 
L 688.483225 427.527944 
" clip-path="url(#pee58b35370)" style="fill: none; stroke: #1f77b4; stroke-width: 1.5; stroke-linecap: square"/>
   </g>
   <g id="line2d_52">
    <path d="M 67.25 483.440833 
L 691.605 483.440833 
" clip-path="url(#pee58b35370)" style="fill: none; stroke-dasharray: 5.55,2.4; stroke-dashoffset: 0; stroke: #ff0000; stroke-width: 1.5"/>
   </g>
   <g id="line2d_53">
    <path d="M 67.25 389.464167 
L 691.605 389.464167 
" clip-path="url(#pee58b35370)" style="fill: none; stroke-dasharray: 5.55,2.4; stroke-dashoffset: 0; stroke: #ff0000; stroke-width: 1.5"/>
   </g>
   <g id="patch_13">
    <path d="M 67.25 506.935 
L 67.25 365.97 
" style="fill: none; stroke: #000000; stroke-width: 0.8; stroke-linejoin: miter; stroke-linecap: square"/>
   </g>
   <g id="patch_14">
    <path d="M 691.605 506.935 
L 691.605 365.97 
" style="fill: none; stroke: #000000; stroke-width: 0.8; stroke-linejoin: miter; stroke-linecap: square"/>
   </g>
   <g id="patch_15">
    <path d="M 67.25 506.935 
L 691.605 506.935 
" style="fill: none; stroke: #000000; stroke-width: 0.8; stroke-linejoin: miter; stroke-linecap: square"/>
   </g>
   <g id="patch_16">
    <path d="M 67.25 365.97 
L 691.605 365.97 
" style="fill: none; stroke: #000000; stroke-width: 0.8; stroke-linejoin: miter; stroke-linecap: square"/>
   </g>
  </g>
  <g id="axes_4">
   <g id="patch_17">
    <path d="M 67.25 666.52 
L 691.605 666.52 
L 691.605 525.555 
L 67.25 525.555 
z
" style="fill: #ffffff"/>
   </g>
   <g id="matplotlib.axis_7">
    <g id="xtick_28">
     <g id="line2d_54">
      <g>
       <use xlink:href="#m219cb74cf4" x="67.25" y="666.52" style="stroke: #000000; stroke-width: 0.8"/>
      </g>
     </g>
     <g id="text_21">
      <!-- 0 -->
      <g transform="translate(62.79625 684.157812) scale(0.14 -0.14)">
       <use xlink:href="#DejaVuSans-30"/>
      </g>
     </g>
    </g>
    <g id="xtick_29">
     <g id="line2d_55">
      <g>
       <use xlink:href="#m219cb74cf4" x="145.294375" y="666.52" style="stroke: #000000; stroke-width: 0.8"/>
      </g>
     </g>
     <g id="text_22">
      <!-- 25 -->
      <g transform="translate(136.386875 684.157812) scale(0.14 -0.14)">
       <use xlink:href="#DejaVuSans-32"/>
       <use xlink:href="#DejaVuSans-35" x="63.623047"/>
      </g>
     </g>
    </g>
    <g id="xtick_30">
     <g id="line2d_56">
      <g>
       <use xlink:href="#m219cb74cf4" x="223.33875" y="666.52" style="stroke: #000000; stroke-width: 0.8"/>
      </g>
     </g>
     <g id="text_23">
      <!-- 50 -->
      <g transform="translate(214.43125 684.157812) scale(0.14 -0.14)">
       <use xlink:href="#DejaVuSans-35"/>
       <use xlink:href="#DejaVuSans-30" x="63.623047"/>
      </g>
     </g>
    </g>
    <g id="xtick_31">
     <g id="line2d_57">
      <g>
       <use xlink:href="#m219cb74cf4" x="301.383125" y="666.52" style="stroke: #000000; stroke-width: 0.8"/>
      </g>
     </g>
     <g id="text_24">
      <!-- 75 -->
      <g transform="translate(292.475625 684.157812) scale(0.14 -0.14)">
       <defs>
        <path id="DejaVuSans-37" d="M 525 4666 
L 3525 4666 
L 3525 4397 
L 1831 0 
L 1172 0 
L 2766 4134 
L 525 4134 
L 525 4666 
z
" transform="scale(0.015625)"/>
       </defs>
       <use xlink:href="#DejaVuSans-37"/>
       <use xlink:href="#DejaVuSans-35" x="63.623047"/>
      </g>
     </g>
    </g>
    <g id="xtick_32">
     <g id="line2d_58">
      <g>
       <use xlink:href="#m219cb74cf4" x="379.4275" y="666.52" style="stroke: #000000; stroke-width: 0.8"/>
      </g>
     </g>
     <g id="text_25">
      <!-- 100 -->
      <g transform="translate(366.06625 684.157812) scale(0.14 -0.14)">
       <use xlink:href="#DejaVuSans-31"/>
       <use xlink:href="#DejaVuSans-30" x="63.623047"/>
       <use xlink:href="#DejaVuSans-30" x="127.246094"/>
      </g>
     </g>
    </g>
    <g id="xtick_33">
     <g id="line2d_59">
      <g>
       <use xlink:href="#m219cb74cf4" x="457.471875" y="666.52" style="stroke: #000000; stroke-width: 0.8"/>
      </g>
     </g>
     <g id="text_26">
      <!-- 125 -->
      <g transform="translate(444.110625 684.157812) scale(0.14 -0.14)">
       <use xlink:href="#DejaVuSans-31"/>
       <use xlink:href="#DejaVuSans-32" x="63.623047"/>
       <use xlink:href="#DejaVuSans-35" x="127.246094"/>
      </g>
     </g>
    </g>
    <g id="xtick_34">
     <g id="line2d_60">
      <g>
       <use xlink:href="#m219cb74cf4" x="535.51625" y="666.52" style="stroke: #000000; stroke-width: 0.8"/>
      </g>
     </g>
     <g id="text_27">
      <!-- 150 -->
      <g transform="translate(522.155 684.157812) scale(0.14 -0.14)">
       <use xlink:href="#DejaVuSans-31"/>
       <use xlink:href="#DejaVuSans-35" x="63.623047"/>
       <use xlink:href="#DejaVuSans-30" x="127.246094"/>
      </g>
     </g>
    </g>
    <g id="xtick_35">
     <g id="line2d_61">
      <g>
       <use xlink:href="#m219cb74cf4" x="613.560625" y="666.52" style="stroke: #000000; stroke-width: 0.8"/>
      </g>
     </g>
     <g id="text_28">
      <!-- 175 -->
      <g transform="translate(600.199375 684.157812) scale(0.14 -0.14)">
       <use xlink:href="#DejaVuSans-31"/>
       <use xlink:href="#DejaVuSans-37" x="63.623047"/>
       <use xlink:href="#DejaVuSans-35" x="127.246094"/>
      </g>
     </g>
    </g>
    <g id="xtick_36">
     <g id="line2d_62">
      <g>
       <use xlink:href="#m219cb74cf4" x="691.605" y="666.52" style="stroke: #000000; stroke-width: 0.8"/>
      </g>
     </g>
     <g id="text_29">
      <!-- 200 -->
      <g transform="translate(678.24375 684.157812) scale(0.14 -0.14)">
       <use xlink:href="#DejaVuSans-32"/>
       <use xlink:href="#DejaVuSans-30" x="63.623047"/>
       <use xlink:href="#DejaVuSans-30" x="127.246094"/>
      </g>
     </g>
    </g>
    <g id="text_30">
     <!-- Timestamp [s] -->
     <g transform="translate(329.024219 701.707188) scale(0.14 -0.14)">
      <defs>
       <path id="DejaVuSans-54" d="M -19 4666 
L 3928 4666 
L 3928 4134 
L 2272 4134 
L 2272 0 
L 1638 0 
L 1638 4134 
L -19 4134 
L -19 4666 
z
" transform="scale(0.015625)"/>
       <path id="DejaVuSans-69" d="M 603 3500 
L 1178 3500 
L 1178 0 
L 603 0 
L 603 3500 
z
M 603 4863 
L 1178 4863 
L 1178 4134 
L 603 4134 
L 603 4863 
z
" transform="scale(0.015625)"/>
       <path id="DejaVuSans-74" d="M 1172 4494 
L 1172 3500 
L 2356 3500 
L 2356 3053 
L 1172 3053 
L 1172 1153 
Q 1172 725 1289 603 
Q 1406 481 1766 481 
L 2356 481 
L 2356 0 
L 1766 0 
Q 1100 0 847 248 
Q 594 497 594 1153 
L 594 3053 
L 172 3053 
L 172 3500 
L 594 3500 
L 594 4494 
L 1172 4494 
z
" transform="scale(0.015625)"/>
       <path id="DejaVuSans-61" d="M 2194 1759 
Q 1497 1759 1228 1600 
Q 959 1441 959 1056 
Q 959 750 1161 570 
Q 1363 391 1709 391 
Q 2188 391 2477 730 
Q 2766 1069 2766 1631 
L 2766 1759 
L 2194 1759 
z
M 3341 1997 
L 3341 0 
L 2766 0 
L 2766 531 
Q 2569 213 2275 61 
Q 1981 -91 1556 -91 
Q 1019 -91 701 211 
Q 384 513 384 1019 
Q 384 1609 779 1909 
Q 1175 2209 1959 2209 
L 2766 2209 
L 2766 2266 
Q 2766 2663 2505 2880 
Q 2244 3097 1772 3097 
Q 1472 3097 1187 3025 
Q 903 2953 641 2809 
L 641 3341 
Q 956 3463 1253 3523 
Q 1550 3584 1831 3584 
Q 2591 3584 2966 3190 
Q 3341 2797 3341 1997 
z
" transform="scale(0.015625)"/>
       <path id="DejaVuSans-70" d="M 1159 525 
L 1159 -1331 
L 581 -1331 
L 581 3500 
L 1159 3500 
L 1159 2969 
Q 1341 3281 1617 3432 
Q 1894 3584 2278 3584 
Q 2916 3584 3314 3078 
Q 3713 2572 3713 1747 
Q 3713 922 3314 415 
Q 2916 -91 2278 -91 
Q 1894 -91 1617 61 
Q 1341 213 1159 525 
z
M 3116 1747 
Q 3116 2381 2855 2742 
Q 2594 3103 2138 3103 
Q 1681 3103 1420 2742 
Q 1159 2381 1159 1747 
Q 1159 1113 1420 752 
Q 1681 391 2138 391 
Q 2594 391 2855 752 
Q 3116 1113 3116 1747 
z
" transform="scale(0.015625)"/>
      </defs>
      <use xlink:href="#DejaVuSans-54"/>
      <use xlink:href="#DejaVuSans-69" x="57.958984"/>
      <use xlink:href="#DejaVuSans-6d" x="85.742188"/>
      <use xlink:href="#DejaVuSans-65" x="183.154297"/>
      <use xlink:href="#DejaVuSans-73" x="244.677734"/>
      <use xlink:href="#DejaVuSans-74" x="296.777344"/>
      <use xlink:href="#DejaVuSans-61" x="335.986328"/>
      <use xlink:href="#DejaVuSans-6d" x="397.265625"/>
      <use xlink:href="#DejaVuSans-70" x="494.677734"/>
      <use xlink:href="#DejaVuSans-20" x="558.154297"/>
      <use xlink:href="#DejaVuSans-5b" x="589.941406"/>
      <use xlink:href="#DejaVuSans-73" x="628.955078"/>
      <use xlink:href="#DejaVuSans-5d" x="681.054688"/>
     </g>
    </g>
   </g>
   <g id="matplotlib.axis_8">
    <g id="ytick_18">
     <g id="line2d_63">
      <g>
       <use xlink:href="#m58958bc4cc" x="67.25" y="665.132609" style="stroke: #000000; stroke-width: 0.8"/>
      </g>
     </g>
     <g id="text_31">
      <!-- -3.0 -->
      <g transform="translate(32.934688 670.451516) scale(0.14 -0.14)">
       <defs>
        <path id="DejaVuSans-33" d="M 2597 2516 
Q 3050 2419 3304 2112 
Q 3559 1806 3559 1356 
Q 3559 666 3084 287 
Q 2609 -91 1734 -91 
Q 1441 -91 1130 -33 
Q 819 25 488 141 
L 488 750 
Q 750 597 1062 519 
Q 1375 441 1716 441 
Q 2309 441 2620 675 
Q 2931 909 2931 1356 
Q 2931 1769 2642 2001 
Q 2353 2234 1838 2234 
L 1294 2234 
L 1294 2753 
L 1863 2753 
Q 2328 2753 2575 2939 
Q 2822 3125 2822 3475 
Q 2822 3834 2567 4026 
Q 2313 4219 1838 4219 
Q 1578 4219 1281 4162 
Q 984 4106 628 3988 
L 628 4550 
Q 988 4650 1302 4700 
Q 1616 4750 1894 4750 
Q 2613 4750 3031 4423 
Q 3450 4097 3450 3541 
Q 3450 3153 3228 2886 
Q 3006 2619 2597 2516 
z
" transform="scale(0.015625)"/>
       </defs>
       <use xlink:href="#DejaVuSans-2d"/>
       <use xlink:href="#DejaVuSans-33" x="36.083984"/>
       <use xlink:href="#DejaVuSans-2e" x="99.707031"/>
       <use xlink:href="#DejaVuSans-30" x="131.494141"/>
      </g>
     </g>
    </g>
    <g id="ytick_19">
     <g id="line2d_64">
      <g>
       <use xlink:href="#m58958bc4cc" x="67.25" y="642.100906" style="stroke: #000000; stroke-width: 0.8"/>
      </g>
     </g>
     <g id="text_32">
      <!-- -2.0 -->
      <g transform="translate(32.934688 647.419812) scale(0.14 -0.14)">
       <use xlink:href="#DejaVuSans-2d"/>
       <use xlink:href="#DejaVuSans-32" x="36.083984"/>
       <use xlink:href="#DejaVuSans-2e" x="99.707031"/>
       <use xlink:href="#DejaVuSans-30" x="131.494141"/>
      </g>
     </g>
    </g>
    <g id="ytick_20">
     <g id="line2d_65">
      <g>
       <use xlink:href="#m58958bc4cc" x="67.25" y="619.069203" style="stroke: #000000; stroke-width: 0.8"/>
      </g>
     </g>
     <g id="text_33">
      <!-- -1.0 -->
      <g transform="translate(32.934688 624.388109) scale(0.14 -0.14)">
       <use xlink:href="#DejaVuSans-2d"/>
       <use xlink:href="#DejaVuSans-31" x="36.083984"/>
       <use xlink:href="#DejaVuSans-2e" x="99.707031"/>
       <use xlink:href="#DejaVuSans-30" x="131.494141"/>
      </g>
     </g>
    </g>
    <g id="ytick_21">
     <g id="line2d_66">
      <g>
       <use xlink:href="#m58958bc4cc" x="67.25" y="596.0375" style="stroke: #000000; stroke-width: 0.8"/>
      </g>
     </g>
     <g id="text_34">
      <!-- 0.0 -->
      <g transform="translate(37.985625 601.356406) scale(0.14 -0.14)">
       <use xlink:href="#DejaVuSans-30"/>
       <use xlink:href="#DejaVuSans-2e" x="63.623047"/>
       <use xlink:href="#DejaVuSans-30" x="95.410156"/>
      </g>
     </g>
    </g>
    <g id="ytick_22">
     <g id="line2d_67">
      <g>
       <use xlink:href="#m58958bc4cc" x="67.25" y="573.005797" style="stroke: #000000; stroke-width: 0.8"/>
      </g>
     </g>
     <g id="text_35">
      <!-- 1.0 -->
      <g transform="translate(37.985625 578.324703) scale(0.14 -0.14)">
       <use xlink:href="#DejaVuSans-31"/>
       <use xlink:href="#DejaVuSans-2e" x="63.623047"/>
       <use xlink:href="#DejaVuSans-30" x="95.410156"/>
      </g>
     </g>
    </g>
    <g id="ytick_23">
     <g id="line2d_68">
      <g>
       <use xlink:href="#m58958bc4cc" x="67.25" y="549.974094" style="stroke: #000000; stroke-width: 0.8"/>
      </g>
     </g>
     <g id="text_36">
      <!-- 2.0 -->
      <g transform="translate(37.985625 555.293) scale(0.14 -0.14)">
       <use xlink:href="#DejaVuSans-32"/>
       <use xlink:href="#DejaVuSans-2e" x="63.623047"/>
       <use xlink:href="#DejaVuSans-30" x="95.410156"/>
      </g>
     </g>
    </g>
    <g id="ytick_24">
     <g id="line2d_69">
      <g>
       <use xlink:href="#m58958bc4cc" x="67.25" y="526.942391" style="stroke: #000000; stroke-width: 0.8"/>
      </g>
     </g>
     <g id="text_37">
      <!-- 3.0 -->
      <g transform="translate(37.985625 532.261297) scale(0.14 -0.14)">
       <use xlink:href="#DejaVuSans-33"/>
       <use xlink:href="#DejaVuSans-2e" x="63.623047"/>
       <use xlink:href="#DejaVuSans-30" x="95.410156"/>
      </g>
     </g>
    </g>
    <g id="text_38">
     <!-- Vel E [m/s] -->
     <g transform="translate(26.023125 633.693125) rotate(-90) scale(0.14 -0.14)">
      <use xlink:href="#DejaVuSans-56"/>
      <use xlink:href="#DejaVuSans-65" x="60.658203"/>
      <use xlink:href="#DejaVuSans-6c" x="122.181641"/>
      <use xlink:href="#DejaVuSans-20" x="149.964844"/>
      <use xlink:href="#DejaVuSans-45" x="181.751953"/>
      <use xlink:href="#DejaVuSans-20" x="244.935547"/>
      <use xlink:href="#DejaVuSans-5b" x="276.722656"/>
      <use xlink:href="#DejaVuSans-6d" x="315.736328"/>
      <use xlink:href="#DejaVuSans-2f" x="413.148438"/>
      <use xlink:href="#DejaVuSans-73" x="446.839844"/>
      <use xlink:href="#DejaVuSans-5d" x="498.939453"/>
     </g>
    </g>
   </g>
   <g id="line2d_70">
    <path d="M 67.25 596.0375 
L 70.371775 596.606779 
L 73.49355 595.022343 
L 76.615325 592.80923 
L 79.7371 597.359295 
L 82.858875 595.284885 
L 85.98065 606.46388 
L 89.102425 611.557678 
L 92.2242 613.443057 
L 95.345975 600.438633 
L 98.46775 600.660488 
L 101.589525 605.680419 
L 104.7113 607.602544 
L 107.833075 614.238101 
L 110.95485 603.347433 
L 114.076625 610.297116 
L 117.1984 614.043161 
L 120.320175 613.482828 
L 123.44195 614.806691 
L 126.563725 616.769456 
L 129.6855 621.330695 
L 132.807275 617.706733 
L 135.92905 611.84834 
L 139.050825 614.087815 
L 142.1726 616.182739 
L 145.294375 626.140643 
L 148.41615 630.507197 
L 151.537925 626.911314 
L 154.6597 624.046777 
L 157.781475 619.524887 
L 160.90325 629.488848 
L 164.025025 620.831182 
L 167.1468 625.335244 
L 170.268575 628.594715 
L 173.39035 631.672006 
L 176.512125 634.100035 
L 179.6339 624.660295 
L 182.755675 625.182296 
L 185.87745 631.605152 
L 188.999225 633.60687 
L 192.121 630.026587 
L 195.242775 621.841725 
L 198.36455 628.418471 
L 201.486325 636.210244 
L 204.6081 633.299897 
L 207.729875 631.836239 
L 210.85165 639.88557 
L 213.973425 631.188383 
L 217.0952 628.821917 
L 223.33875 622.426563 
L 226.460525 626.739049 
L 229.5823 634.947187 
L 232.704075 640.106484 
L 235.82585 626.525839 
L 238.947625 631.870971 
L 242.0694 633.936967 
L 245.191175 634.031343 
L 248.31295 632.348151 
L 251.434725 632.410675 
L 254.5565 633.315035 
L 257.678275 632.532396 
L 260.80005 629.504769 
L 263.921825 630.043554 
L 267.0436 630.41204 
L 270.165375 626.953297 
L 273.28715 627.116983 
L 276.408925 620.930405 
L 279.5307 634.957822 
L 282.652475 624.213786 
L 285.77425 619.886568 
L 288.896025 631.375874 
L 292.0178 627.246901 
L 295.139575 624.474858 
L 298.26135 626.388878 
L 301.383125 623.354321 
L 304.5049 622.530634 
L 307.626675 611.242321 
L 313.870225 613.144587 
L 316.992 616.642619 
L 320.113775 624.342063 
L 323.23555 622.296354 
L 326.357325 615.452265 
L 329.4791 618.222797 
L 332.600875 610.578706 
L 335.72265 611.239566 
L 338.844425 611.621944 
L 341.9662 607.146402 
L 345.087975 606.66166 
L 348.20975 609.405325 
L 351.331525 603.974435 
L 354.4533 610.075064 
L 357.575075 604.40549 
L 360.69685 601.765669 
L 363.818625 603.845438 
L 366.9404 601.287919 
L 370.062175 605.236923 
L 373.18395 596.823689 
L 376.305725 597.579827 
L 379.4275 598.493679 
L 382.549275 592.090164 
L 385.67105 596.289989 
L 388.792825 599.150855 
L 391.9146 598.317292 
L 395.036375 587.83346 
L 398.15815 590.887544 
L 401.279925 580.384778 
L 404.4017 591.930298 
L 407.523475 581.014816 
L 410.64525 583.234303 
L 413.767025 585.243164 
L 416.8888 586.727359 
L 420.010575 582.316997 
L 423.13235 581.596668 
L 426.254125 576.604025 
L 429.3759 578.750094 
L 432.497675 579.009875 
L 435.61945 580.125312 
L 438.741225 578.032095 
L 441.863 574.880502 
L 444.984775 580.439293 
L 448.10655 578.901687 
L 451.228325 568.780788 
L 454.3501 567.681326 
L 457.471875 569.30957 
L 460.59365 569.25864 
L 463.715425 567.908794 
L 466.8372 570.557202 
L 469.958975 571.394639 
L 473.08075 566.798665 
L 476.202525 568.954652 
L 479.3243 563.760786 
L 482.446075 569.564344 
L 485.56785 560.457837 
L 488.689625 559.973854 
L 491.8114 561.542921 
L 494.933175 559.931937 
L 498.05495 557.638519 
L 501.176725 560.384299 
L 504.2985 571.869641 
L 507.420275 570.958374 
L 513.663825 559.364785 
L 516.7856 555.750127 
L 519.907375 560.166815 
L 523.02915 558.596816 
L 526.150925 561.766037 
L 529.2727 561.890529 
L 532.394475 564.13156 
L 535.51625 561.963524 
L 538.638025 562.026238 
L 541.7598 560.089478 
L 544.881575 552.178206 
L 548.00335 558.729432 
L 551.125125 549.049167 
L 554.2469 556.487888 
L 557.368675 561.714435 
L 560.49045 567.182124 
L 563.612225 561.963364 
L 566.734 564.432003 
L 569.855775 562.18802 
L 572.97755 552.828267 
L 576.099325 561.791102 
L 579.2211 561.283098 
L 582.342875 568.456745 
L 585.46465 567.588681 
L 588.586425 560.104792 
L 591.7082 567.457792 
L 594.829975 561.258509 
L 597.95175 564.56985 
L 601.073525 571.253801 
L 604.1953 568.669597 
L 607.317075 566.626828 
L 610.43885 568.09365 
L 613.560625 577.187381 
L 616.6824 575.898107 
L 619.804175 572.62699 
L 622.92595 570.961307 
L 626.047725 568.842298 
L 629.1695 571.504571 
L 632.291275 579.224105 
L 635.41305 575.368692 
L 638.534825 573.871469 
L 641.6566 575.022279 
L 644.778375 575.108981 
L 647.90015 577.794922 
L 654.1437 585.134565 
L 657.265475 591.83677 
L 660.38725 584.928162 
L 663.509025 583.50472 
L 666.6308 583.916824 
L 669.752575 590.932676 
L 672.87435 592.468796 
L 675.996125 584.957393 
L 679.1179 588.082529 
L 682.239675 588.203458 
L 685.36145 592.356628 
L 688.483225 594.793384 
L 688.483225 594.793384 
" clip-path="url(#pb10c58e02c)" style="fill: none; stroke: #1f77b4; stroke-width: 1.5; stroke-linecap: square"/>
   </g>
   <g id="line2d_71">
    <path d="M 67.25 608.38832 
L 691.605 608.38832 
" clip-path="url(#pb10c58e02c)" style="fill: none; stroke-dasharray: 5.55,2.4; stroke-dashoffset: 0; stroke: #ff0000; stroke-width: 1.5"/>
   </g>
   <g id="line2d_72">
    <path d="M 67.25 583.68668 
L 691.605 583.68668 
" clip-path="url(#pb10c58e02c)" style="fill: none; stroke-dasharray: 5.55,2.4; stroke-dashoffset: 0; stroke: #ff0000; stroke-width: 1.5"/>
   </g>
   <g id="patch_18">
    <path d="M 67.25 666.52 
L 67.25 525.555 
" style="fill: none; stroke: #000000; stroke-width: 0.8; stroke-linejoin: miter; stroke-linecap: square"/>
   </g>
   <g id="patch_19">
    <path d="M 691.605 666.52 
L 691.605 525.555 
" style="fill: none; stroke: #000000; stroke-width: 0.8; stroke-linejoin: miter; stroke-linecap: square"/>
   </g>
   <g id="patch_20">
    <path d="M 67.25 666.52 
L 691.605 666.52 
" style="fill: none; stroke: #000000; stroke-width: 0.8; stroke-linejoin: miter; stroke-linecap: square"/>
   </g>
   <g id="patch_21">
    <path d="M 67.25 525.555 
L 691.605 525.555 
" style="fill: none; stroke: #000000; stroke-width: 0.8; stroke-linejoin: miter; stroke-linecap: square"/>
   </g>
  </g>
  <g id="text_39">
   <!-- Errors on positions and velocities at 1Hz -->
   <g transform="translate(190.972312 27.165375) scale(0.168 -0.168)">
    <defs>
     <path id="DejaVuSans-72" d="M 2631 2963 
Q 2534 3019 2420 3045 
Q 2306 3072 2169 3072 
Q 1681 3072 1420 2755 
Q 1159 2438 1159 1844 
L 1159 0 
L 581 0 
L 581 3500 
L 1159 3500 
L 1159 2956 
Q 1341 3275 1631 3429 
Q 1922 3584 2338 3584 
Q 2397 3584 2469 3576 
Q 2541 3569 2628 3553 
L 2631 2963 
z
" transform="scale(0.015625)"/>
     <path id="DejaVuSans-6e" d="M 3513 2113 
L 3513 0 
L 2938 0 
L 2938 2094 
Q 2938 2591 2744 2837 
Q 2550 3084 2163 3084 
Q 1697 3084 1428 2787 
Q 1159 2491 1159 1978 
L 1159 0 
L 581 0 
L 581 3500 
L 1159 3500 
L 1159 2956 
Q 1366 3272 1645 3428 
Q 1925 3584 2291 3584 
Q 2894 3584 3203 3211 
Q 3513 2838 3513 2113 
z
" transform="scale(0.015625)"/>
     <path id="DejaVuSans-64" d="M 2906 2969 
L 2906 4863 
L 3481 4863 
L 3481 0 
L 2906 0 
L 2906 525 
Q 2725 213 2448 61 
Q 2172 -91 1784 -91 
Q 1150 -91 751 415 
Q 353 922 353 1747 
Q 353 2572 751 3078 
Q 1150 3584 1784 3584 
Q 2172 3584 2448 3432 
Q 2725 3281 2906 2969 
z
M 947 1747 
Q 947 1113 1208 752 
Q 1469 391 1925 391 
Q 2381 391 2643 752 
Q 2906 1113 2906 1747 
Q 2906 2381 2643 2742 
Q 2381 3103 1925 3103 
Q 1469 3103 1208 2742 
Q 947 2381 947 1747 
z
" transform="scale(0.015625)"/>
     <path id="DejaVuSans-76" d="M 191 3500 
L 800 3500 
L 1894 563 
L 2988 3500 
L 3597 3500 
L 2284 0 
L 1503 0 
L 191 3500 
z
" transform="scale(0.015625)"/>
     <path id="DejaVuSans-63" d="M 3122 3366 
L 3122 2828 
Q 2878 2963 2633 3030 
Q 2388 3097 2138 3097 
Q 1578 3097 1268 2742 
Q 959 2388 959 1747 
Q 959 1106 1268 751 
Q 1578 397 2138 397 
Q 2388 397 2633 464 
Q 2878 531 3122 666 
L 3122 134 
Q 2881 22 2623 -34 
Q 2366 -91 2075 -91 
Q 1284 -91 818 406 
Q 353 903 353 1747 
Q 353 2603 823 3093 
Q 1294 3584 2113 3584 
Q 2378 3584 2631 3529 
Q 2884 3475 3122 3366 
z
" transform="scale(0.015625)"/>
     <path id="DejaVuSans-48" d="M 628 4666 
L 1259 4666 
L 1259 2753 
L 3553 2753 
L 3553 4666 
L 4184 4666 
L 4184 0 
L 3553 0 
L 3553 2222 
L 1259 2222 
L 1259 0 
L 628 0 
L 628 4666 
z
" transform="scale(0.015625)"/>
     <path id="DejaVuSans-7a" d="M 353 3500 
L 3084 3500 
L 3084 2975 
L 922 459 
L 3084 459 
L 3084 0 
L 275 0 
L 275 525 
L 2438 3041 
L 353 3041 
L 353 3500 
z
" transform="scale(0.015625)"/>
    </defs>
    <use xlink:href="#DejaVuSans-45"/>
    <use xlink:href="#DejaVuSans-72" x="63.183594"/>
    <use xlink:href="#DejaVuSans-72" x="102.546875"/>
    <use xlink:href="#DejaVuSans-6f" x="141.410156"/>
    <use xlink:href="#DejaVuSans-72" x="202.591797"/>
    <use xlink:href="#DejaVuSans-73" x="243.705078"/>
    <use xlink:href="#DejaVuSans-20" x="295.804688"/>
    <use xlink:href="#DejaVuSans-6f" x="327.591797"/>
    <use xlink:href="#DejaVuSans-6e" x="388.773438"/>
    <use xlink:href="#DejaVuSans-20" x="452.152344"/>
    <use xlink:href="#DejaVuSans-70" x="483.939453"/>
    <use xlink:href="#DejaVuSans-6f" x="547.416016"/>
    <use xlink:href="#DejaVuSans-73" x="608.597656"/>
    <use xlink:href="#DejaVuSans-69" x="660.697266"/>
    <use xlink:href="#DejaVuSans-74" x="688.480469"/>
    <use xlink:href="#DejaVuSans-69" x="727.689453"/>
    <use xlink:href="#DejaVuSans-6f" x="755.472656"/>
    <use xlink:href="#DejaVuSans-6e" x="816.654297"/>
    <use xlink:href="#DejaVuSans-73" x="880.033203"/>
    <use xlink:href="#DejaVuSans-20" x="932.132812"/>
    <use xlink:href="#DejaVuSans-61" x="963.919922"/>
    <use xlink:href="#DejaVuSans-6e" x="1025.199219"/>
    <use xlink:href="#DejaVuSans-64" x="1088.578125"/>
    <use xlink:href="#DejaVuSans-20" x="1152.054688"/>
    <use xlink:href="#DejaVuSans-76" x="1183.841797"/>
    <use xlink:href="#DejaVuSans-65" x="1243.021484"/>
    <use xlink:href="#DejaVuSans-6c" x="1304.544922"/>
    <use xlink:href="#DejaVuSans-6f" x="1332.328125"/>
    <use xlink:href="#DejaVuSans-63" x="1393.509766"/>
    <use xlink:href="#DejaVuSans-69" x="1448.490234"/>
    <use xlink:href="#DejaVuSans-74" x="1476.273438"/>
    <use xlink:href="#DejaVuSans-69" x="1515.482422"/>
    <use xlink:href="#DejaVuSans-65" x="1543.265625"/>
    <use xlink:href="#DejaVuSans-73" x="1604.789062"/>
    <use xlink:href="#DejaVuSans-20" x="1656.888672"/>
    <use xlink:href="#DejaVuSans-61" x="1688.675781"/>
    <use xlink:href="#DejaVuSans-74" x="1749.955078"/>
    <use xlink:href="#DejaVuSans-20" x="1789.164062"/>
    <use xlink:href="#DejaVuSans-31" x="1820.951172"/>
    <use xlink:href="#DejaVuSans-48" x="1884.574219"/>
    <use xlink:href="#DejaVuSans-7a" x="1959.769531"/>
   </g>
  </g>
 </g>
 <defs>
  <clipPath id="p599404fab3">
   <rect x="67.25" y="46.8" width="624.355" height="140.965"/>
  </clipPath>
  <clipPath id="p70485e86e2">
   <rect x="67.25" y="206.385" width="624.355" height="140.965"/>
  </clipPath>
  <clipPath id="pee58b35370">
   <rect x="67.25" y="365.97" width="624.355" height="140.965"/>
  </clipPath>
  <clipPath id="pb10c58e02c">
   <rect x="67.25" y="525.555" width="624.355" height="140.965"/>
  </clipPath>
 </defs>
</svg>
