<?xml version="1.0" encoding="utf-8" standalone="no"?>
<!DOCTYPE svg PUBLIC "-//W3C//DTD SVG 1.1//EN"
  "http://www.w3.org/Graphics/SVG/1.1/DTD/svg11.dtd">
<svg xmlns:xlink="http://www.w3.org/1999/xlink" width="720pt" height="720pt" viewBox="0 0 720 720" xmlns="http://www.w3.org/2000/svg" version="1.1">
 <metadata>
  <rdf:RDF xmlns:dc="http://purl.org/dc/elements/1.1/" xmlns:cc="http://creativecommons.org/ns#" xmlns:rdf="http://www.w3.org/1999/02/22-rdf-syntax-ns#">
   <cc:Work>
    <dc:type rdf:resource="http://purl.org/dc/dcmitype/StillImage"/>
    <dc:date>2024-05-17T17:48:06.106581</dc:date>
    <dc:format>image/svg+xml</dc:format>
    <dc:creator>
     <cc:Agent>
      <dc:title>Matplotlib v3.8.4, https://matplotlib.org/</dc:title>
     </cc:Agent>
    </dc:creator>
   </cc:Work>
  </rdf:RDF>
 </metadata>
 <defs>
  <style type="text/css">*{stroke-linejoin: round; stroke-linecap: butt}</style>
 </defs>
 <g id="figure_1">
  <g id="patch_1">
   <path d="M 0 720 
L 720 720 
L 720 0 
L 0 0 
z
" style="fill: #ffffff"/>
  </g>
  <g id="axes_1">
   <g id="patch_2">
    <path d="M 67.16 187.765 
L 691.605 187.765 
L 691.605 46.8 
L 67.16 46.8 
z
" style="fill: #ffffff"/>
   </g>
   <g id="matplotlib.axis_1">
    <g id="xtick_1">
     <g id="line2d_1">
      <defs>
       <path id="mff3ec8d4d2" d="M 0 0 
L 0 3.5 
" style="stroke: #000000; stroke-width: 0.8"/>
      </defs>
      <g>
       <use xlink:href="#mff3ec8d4d2" x="67.16" y="187.765" style="stroke: #000000; stroke-width: 0.8"/>
      </g>
     </g>
    </g>
    <g id="xtick_2">
     <g id="line2d_2">
      <g>
       <use xlink:href="#mff3ec8d4d2" x="145.215625" y="187.765" style="stroke: #000000; stroke-width: 0.8"/>
      </g>
     </g>
    </g>
    <g id="xtick_3">
     <g id="line2d_3">
      <g>
       <use xlink:href="#mff3ec8d4d2" x="223.27125" y="187.765" style="stroke: #000000; stroke-width: 0.8"/>
      </g>
     </g>
    </g>
    <g id="xtick_4">
     <g id="line2d_4">
      <g>
       <use xlink:href="#mff3ec8d4d2" x="301.326875" y="187.765" style="stroke: #000000; stroke-width: 0.8"/>
      </g>
     </g>
    </g>
    <g id="xtick_5">
     <g id="line2d_5">
      <g>
       <use xlink:href="#mff3ec8d4d2" x="379.3825" y="187.765" style="stroke: #000000; stroke-width: 0.8"/>
      </g>
     </g>
    </g>
    <g id="xtick_6">
     <g id="line2d_6">
      <g>
       <use xlink:href="#mff3ec8d4d2" x="457.438125" y="187.765" style="stroke: #000000; stroke-width: 0.8"/>
      </g>
     </g>
    </g>
    <g id="xtick_7">
     <g id="line2d_7">
      <g>
       <use xlink:href="#mff3ec8d4d2" x="535.49375" y="187.765" style="stroke: #000000; stroke-width: 0.8"/>
      </g>
     </g>
    </g>
    <g id="xtick_8">
     <g id="line2d_8">
      <g>
       <use xlink:href="#mff3ec8d4d2" x="613.549375" y="187.765" style="stroke: #000000; stroke-width: 0.8"/>
      </g>
     </g>
    </g>
    <g id="xtick_9">
     <g id="line2d_9">
      <g>
       <use xlink:href="#mff3ec8d4d2" x="691.605" y="187.765" style="stroke: #000000; stroke-width: 0.8"/>
      </g>
     </g>
    </g>
   </g>
   <g id="matplotlib.axis_2">
    <g id="ytick_1">
     <g id="line2d_10">
      <defs>
       <path id="m168009f3cd" d="M 0 0 
L -3.5 0 
" style="stroke: #000000; stroke-width: 0.8"/>
      </defs>
      <g>
       <use xlink:href="#m168009f3cd" x="67.16" y="167.655997" style="stroke: #000000; stroke-width: 0.8"/>
      </g>
     </g>
     <g id="text_1">
      <!-- -1.0 -->
      <g transform="translate(32.844688 172.974904) scale(0.14 -0.14)">
       <defs>
        <path id="DejaVuSans-2d" d="M 313 2009 
L 1997 2009 
L 1997 1497 
L 313 1497 
L 313 2009 
z
" transform="scale(0.015625)"/>
        <path id="DejaVuSans-31" d="M 794 531 
L 1825 531 
L 1825 4091 
L 703 3866 
L 703 4441 
L 1819 4666 
L 2450 4666 
L 2450 531 
L 3481 531 
L 3481 0 
L 794 0 
L 794 531 
z
" transform="scale(0.015625)"/>
        <path id="DejaVuSans-2e" d="M 684 794 
L 1344 794 
L 1344 0 
L 684 0 
L 684 794 
z
" transform="scale(0.015625)"/>
        <path id="DejaVuSans-30" d="M 2034 4250 
Q 1547 4250 1301 3770 
Q 1056 3291 1056 2328 
Q 1056 1369 1301 889 
Q 1547 409 2034 409 
Q 2525 409 2770 889 
Q 3016 1369 3016 2328 
Q 3016 3291 2770 3770 
Q 2525 4250 2034 4250 
z
M 2034 4750 
Q 2819 4750 3233 4129 
Q 3647 3509 3647 2328 
Q 3647 1150 3233 529 
Q 2819 -91 2034 -91 
Q 1250 -91 836 529 
Q 422 1150 422 2328 
Q 422 3509 836 4129 
Q 1250 4750 2034 4750 
z
" transform="scale(0.015625)"/>
       </defs>
       <use xlink:href="#DejaVuSans-2d"/>
       <use xlink:href="#DejaVuSans-31" x="36.083984"/>
       <use xlink:href="#DejaVuSans-2e" x="99.707031"/>
       <use xlink:href="#DejaVuSans-30" x="131.494141"/>
      </g>
     </g>
    </g>
    <g id="ytick_2">
     <g id="line2d_11">
      <g>
       <use xlink:href="#m168009f3cd" x="67.16" y="142.469249" style="stroke: #000000; stroke-width: 0.8"/>
      </g>
     </g>
     <g id="text_2">
      <!-- -0.5 -->
      <g transform="translate(32.844688 147.788155) scale(0.14 -0.14)">
       <defs>
        <path id="DejaVuSans-35" d="M 691 4666 
L 3169 4666 
L 3169 4134 
L 1269 4134 
L 1269 2991 
Q 1406 3038 1543 3061 
Q 1681 3084 1819 3084 
Q 2600 3084 3056 2656 
Q 3513 2228 3513 1497 
Q 3513 744 3044 326 
Q 2575 -91 1722 -91 
Q 1428 -91 1123 -41 
Q 819 9 494 109 
L 494 744 
Q 775 591 1075 516 
Q 1375 441 1709 441 
Q 2250 441 2565 725 
Q 2881 1009 2881 1497 
Q 2881 1984 2565 2268 
Q 2250 2553 1709 2553 
Q 1456 2553 1204 2497 
Q 953 2441 691 2322 
L 691 4666 
z
" transform="scale(0.015625)"/>
       </defs>
       <use xlink:href="#DejaVuSans-2d"/>
       <use xlink:href="#DejaVuSans-30" x="36.083984"/>
       <use xlink:href="#DejaVuSans-2e" x="99.707031"/>
       <use xlink:href="#DejaVuSans-35" x="131.494141"/>
      </g>
     </g>
    </g>
    <g id="ytick_3">
     <g id="line2d_12">
      <g>
       <use xlink:href="#m168009f3cd" x="67.16" y="117.2825" style="stroke: #000000; stroke-width: 0.8"/>
      </g>
     </g>
     <g id="text_3">
      <!-- 0.0 -->
      <g transform="translate(37.895625 122.601406) scale(0.14 -0.14)">
       <use xlink:href="#DejaVuSans-30"/>
       <use xlink:href="#DejaVuSans-2e" x="63.623047"/>
       <use xlink:href="#DejaVuSans-30" x="95.410156"/>
      </g>
     </g>
    </g>
    <g id="ytick_4">
     <g id="line2d_13">
      <g>
       <use xlink:href="#m168009f3cd" x="67.16" y="92.095751" style="stroke: #000000; stroke-width: 0.8"/>
      </g>
     </g>
     <g id="text_4">
      <!-- 0.5 -->
      <g transform="translate(37.895625 97.414658) scale(0.14 -0.14)">
       <use xlink:href="#DejaVuSans-30"/>
       <use xlink:href="#DejaVuSans-2e" x="63.623047"/>
       <use xlink:href="#DejaVuSans-35" x="95.410156"/>
      </g>
     </g>
    </g>
    <g id="ytick_5">
     <g id="line2d_14">
      <g>
       <use xlink:href="#m168009f3cd" x="67.16" y="66.909003" style="stroke: #000000; stroke-width: 0.8"/>
      </g>
     </g>
     <g id="text_5">
      <!-- 1.0 -->
      <g transform="translate(37.895625 72.227909) scale(0.14 -0.14)">
       <use xlink:href="#DejaVuSans-31"/>
       <use xlink:href="#DejaVuSans-2e" x="63.623047"/>
       <use xlink:href="#DejaVuSans-30" x="95.410156"/>
      </g>
     </g>
    </g>
    <g id="text_6">
     <!-- Pos N [m] -->
     <g transform="translate(25.933125 151.146094) rotate(-90) scale(0.14 -0.14)">
      <defs>
       <path id="DejaVuSans-50" d="M 1259 4147 
L 1259 2394 
L 2053 2394 
Q 2494 2394 2734 2622 
Q 2975 2850 2975 3272 
Q 2975 3691 2734 3919 
Q 2494 4147 2053 4147 
L 1259 4147 
z
M 628 4666 
L 2053 4666 
Q 2838 4666 3239 4311 
Q 3641 3956 3641 3272 
Q 3641 2581 3239 2228 
Q 2838 1875 2053 1875 
L 1259 1875 
L 1259 0 
L 628 0 
L 628 4666 
z
" transform="scale(0.015625)"/>
       <path id="DejaVuSans-6f" d="M 1959 3097 
Q 1497 3097 1228 2736 
Q 959 2375 959 1747 
Q 959 1119 1226 758 
Q 1494 397 1959 397 
Q 2419 397 2687 759 
Q 2956 1122 2956 1747 
Q 2956 2369 2687 2733 
Q 2419 3097 1959 3097 
z
M 1959 3584 
Q 2709 3584 3137 3096 
Q 3566 2609 3566 1747 
Q 3566 888 3137 398 
Q 2709 -91 1959 -91 
Q 1206 -91 779 398 
Q 353 888 353 1747 
Q 353 2609 779 3096 
Q 1206 3584 1959 3584 
z
" transform="scale(0.015625)"/>
       <path id="DejaVuSans-73" d="M 2834 3397 
L 2834 2853 
Q 2591 2978 2328 3040 
Q 2066 3103 1784 3103 
Q 1356 3103 1142 2972 
Q 928 2841 928 2578 
Q 928 2378 1081 2264 
Q 1234 2150 1697 2047 
L 1894 2003 
Q 2506 1872 2764 1633 
Q 3022 1394 3022 966 
Q 3022 478 2636 193 
Q 2250 -91 1575 -91 
Q 1294 -91 989 -36 
Q 684 19 347 128 
L 347 722 
Q 666 556 975 473 
Q 1284 391 1588 391 
Q 1994 391 2212 530 
Q 2431 669 2431 922 
Q 2431 1156 2273 1281 
Q 2116 1406 1581 1522 
L 1381 1569 
Q 847 1681 609 1914 
Q 372 2147 372 2553 
Q 372 3047 722 3315 
Q 1072 3584 1716 3584 
Q 2034 3584 2315 3537 
Q 2597 3491 2834 3397 
z
" transform="scale(0.015625)"/>
       <path id="DejaVuSans-20" transform="scale(0.015625)"/>
       <path id="DejaVuSans-4e" d="M 628 4666 
L 1478 4666 
L 3547 763 
L 3547 4666 
L 4159 4666 
L 4159 0 
L 3309 0 
L 1241 3903 
L 1241 0 
L 628 0 
L 628 4666 
z
" transform="scale(0.015625)"/>
       <path id="DejaVuSans-5b" d="M 550 4863 
L 1875 4863 
L 1875 4416 
L 1125 4416 
L 1125 -397 
L 1875 -397 
L 1875 -844 
L 550 -844 
L 550 4863 
z
" transform="scale(0.015625)"/>
       <path id="DejaVuSans-6d" d="M 3328 2828 
Q 3544 3216 3844 3400 
Q 4144 3584 4550 3584 
Q 5097 3584 5394 3201 
Q 5691 2819 5691 2113 
L 5691 0 
L 5113 0 
L 5113 2094 
Q 5113 2597 4934 2840 
Q 4756 3084 4391 3084 
Q 3944 3084 3684 2787 
Q 3425 2491 3425 1978 
L 3425 0 
L 2847 0 
L 2847 2094 
Q 2847 2600 2669 2842 
Q 2491 3084 2119 3084 
Q 1678 3084 1418 2786 
Q 1159 2488 1159 1978 
L 1159 0 
L 581 0 
L 581 3500 
L 1159 3500 
L 1159 2956 
Q 1356 3278 1631 3431 
Q 1906 3584 2284 3584 
Q 2666 3584 2933 3390 
Q 3200 3197 3328 2828 
z
" transform="scale(0.015625)"/>
       <path id="DejaVuSans-5d" d="M 1947 4863 
L 1947 -844 
L 622 -844 
L 622 -397 
L 1369 -397 
L 1369 4416 
L 622 4416 
L 622 4863 
L 1947 4863 
z
" transform="scale(0.015625)"/>
      </defs>
      <use xlink:href="#DejaVuSans-50"/>
      <use xlink:href="#DejaVuSans-6f" x="56.677734"/>
      <use xlink:href="#DejaVuSans-73" x="117.859375"/>
      <use xlink:href="#DejaVuSans-20" x="169.958984"/>
      <use xlink:href="#DejaVuSans-4e" x="201.746094"/>
      <use xlink:href="#DejaVuSans-20" x="276.550781"/>
      <use xlink:href="#DejaVuSans-5b" x="308.337891"/>
      <use xlink:href="#DejaVuSans-6d" x="347.351562"/>
      <use xlink:href="#DejaVuSans-5d" x="444.763672"/>
     </g>
    </g>
   </g>
   <g id="line2d_15">
    <path d="M 67.16 117.2825 
L 70.282225 132.341149 
L 73.40445 124.523427 
L 76.526675 120.885322 
L 79.6489 123.044499 
L 82.771125 114.256735 
L 85.89335 124.893092 
L 89.015575 123.621467 
L 92.1378 119.55063 
L 98.38225 104.735175 
L 101.504475 118.970767 
L 104.6267 134.325438 
L 107.748925 116.01446 
L 110.87115 111.381934 
L 113.993375 119.38918 
L 117.1156 101.608684 
L 120.237825 103.187159 
L 123.36005 93.899547 
L 126.482275 98.98819 
L 129.6045 82.608083 
L 132.726725 73.815739 
L 135.84895 89.122008 
L 138.971175 88.804217 
L 142.0934 92.014245 
L 145.215625 86.863988 
L 148.33785 107.294005 
L 151.460075 105.384108 
L 154.5823 99.205013 
L 157.704525 123.526338 
L 160.82675 135.535874 
L 163.948975 152.25827 
L 167.0712 144.800227 
L 170.193425 127.106845 
L 173.31565 104.707851 
L 176.437875 103.011574 
L 179.5601 86.535492 
L 185.80455 126.214244 
L 188.926775 123.706584 
L 192.049 116.376907 
L 195.171225 114.75186 
L 198.29345 134.785891 
L 201.415675 129.076637 
L 204.5379 136.647999 
L 207.660125 121.256142 
L 210.78235 112.309501 
L 213.904575 119.540837 
L 217.0268 121.056685 
L 220.149025 127.982833 
L 223.27125 122.719453 
L 226.393475 107.819592 
L 229.5157 117.012809 
L 232.637925 108.965825 
L 235.76015 113.858453 
L 238.882375 120.681863 
L 242.0046 118.686919 
L 245.126825 126.670446 
L 248.24905 127.513052 
L 251.371275 134.472591 
L 254.4935 106.242642 
L 257.615725 104.808421 
L 260.73795 112.315409 
L 263.860175 109.07204 
L 266.9824 110.250092 
L 270.104625 112.55619 
L 276.349075 99.113861 
L 279.4713 108.011029 
L 282.593525 115.683682 
L 285.71575 118.277665 
L 288.837975 141.102609 
L 291.9602 149.577278 
L 295.082425 124.486038 
L 298.20465 101.561864 
L 301.326875 104.488367 
L 304.4491 99.244993 
L 307.571325 98.865248 
L 310.69355 70.419069 
L 313.815775 70.294167 
L 316.938 84.999429 
L 320.060225 105.925499 
L 323.18245 128.647478 
L 326.304675 125.954723 
L 329.4269 132.464003 
L 332.549125 143.333936 
L 335.67135 142.367035 
L 338.793575 145.029493 
L 341.9158 117.263349 
L 345.038025 104.296089 
L 348.16025 104.717227 
L 351.282475 90.640243 
L 354.4047 95.661431 
L 357.526925 110.508792 
L 360.64915 97.359201 
L 363.771375 97.709941 
L 366.8936 114.988584 
L 370.015825 119.412483 
L 373.13805 129.408933 
L 376.260275 141.659432 
L 379.3825 125.838431 
L 382.504725 102.622528 
L 385.62695 119.83783 
L 388.749175 113.186849 
L 391.8714 120.905237 
L 398.11585 129.529215 
L 401.238075 135.306164 
L 404.3603 129.722621 
L 407.482525 134.267406 
L 410.60475 126.054858 
L 413.726975 123.037257 
L 416.8492 122.976495 
L 419.971425 130.243132 
L 423.09365 132.459056 
L 426.215875 120.046984 
L 429.3381 113.271033 
L 432.460325 124.140449 
L 435.58255 121.642796 
L 438.704775 112.956408 
L 441.827 131.937709 
L 444.949225 123.462069 
L 448.07145 129.282415 
L 451.193675 120.782292 
L 454.3159 128.191778 
L 457.438125 144.88015 
L 460.56035 155.352906 
L 463.682575 144.804707 
L 466.8048 133.654145 
L 469.927025 137.234848 
L 473.04925 124.080452 
L 476.171475 138.410953 
L 479.2937 133.081542 
L 482.415925 140.931216 
L 485.53815 141.083164 
L 488.660375 133.638909 
L 491.7826 137.410705 
L 494.904825 135.470526 
L 498.02705 119.466407 
L 501.149275 124.179881 
L 504.2715 113.715743 
L 507.393725 126.842046 
L 510.51595 120.024382 
L 513.638175 105.345146 
L 516.7604 135.615546 
L 519.882625 141.562386 
L 523.00485 130.891008 
L 526.127075 130.291447 
L 529.2493 123.744141 
L 532.371525 129.023289 
L 535.49375 126.008368 
L 538.615975 126.249573 
L 541.7382 112.683872 
L 547.98265 111.580854 
L 551.104875 119.47435 
L 554.2271 126.542057 
L 557.349325 131.159137 
L 560.47155 125.567644 
L 563.593775 129.434673 
L 566.716 124.775384 
L 569.838225 102.34903 
L 572.96045 98.219537 
L 576.082675 108.677867 
L 579.2049 101.414436 
L 582.327125 113.008213 
L 585.44935 139.170042 
L 588.571575 147.71567 
L 591.6938 161.782452 
L 594.816025 155.020023 
L 597.93825 144.464109 
L 601.060475 118.340399 
L 604.1827 112.7746 
L 607.304925 115.365608 
L 610.42715 107.309785 
L 613.549375 133.691564 
L 616.6716 128.551303 
L 619.793825 118.457617 
L 622.91605 134.203959 
L 626.038275 118.771205 
L 629.1605 115.127891 
L 632.282725 120.578939 
L 635.40495 114.031372 
L 638.527175 91.98846 
L 641.6494 97.654436 
L 644.771625 102.357851 
L 647.89385 113.842515 
L 651.016075 126.682865 
L 654.1383 118.277744 
L 657.260525 128.753642 
L 660.38275 126.578819 
L 663.504975 129.999375 
L 666.6272 122.110555 
L 669.749425 117.25207 
L 672.87165 106.238314 
L 675.993875 114.391914 
L 679.1161 118.573726 
L 682.238325 129.163079 
L 685.36055 131.30092 
L 688.482775 123.671468 
L 688.482775 123.671468 
" clip-path="url(#pf6e0b4d238)" style="fill: none; stroke: #1f77b4; stroke-width: 1.5; stroke-linecap: square"/>
   </g>
   <g id="line2d_16">
    <path d="M 67.16 139.482938 
L 691.605 139.482938 
" clip-path="url(#pf6e0b4d238)" style="fill: none; stroke-dasharray: 5.55,2.4; stroke-dashoffset: 0; stroke: #ff0000; stroke-width: 1.5"/>
   </g>
   <g id="line2d_17">
    <path d="M 67.16 95.082062 
L 691.605 95.082062 
" clip-path="url(#pf6e0b4d238)" style="fill: none; stroke-dasharray: 5.55,2.4; stroke-dashoffset: 0; stroke: #ff0000; stroke-width: 1.5"/>
   </g>
   <g id="patch_3">
    <path d="M 67.16 187.765 
L 67.16 46.8 
" style="fill: none; stroke: #000000; stroke-width: 0.8; stroke-linejoin: miter; stroke-linecap: square"/>
   </g>
   <g id="patch_4">
    <path d="M 691.605 187.765 
L 691.605 46.8 
" style="fill: none; stroke: #000000; stroke-width: 0.8; stroke-linejoin: miter; stroke-linecap: square"/>
   </g>
   <g id="patch_5">
    <path d="M 67.16 187.765 
L 691.605 187.765 
" style="fill: none; stroke: #000000; stroke-width: 0.8; stroke-linejoin: miter; stroke-linecap: square"/>
   </g>
   <g id="patch_6">
    <path d="M 67.16 46.8 
L 691.605 46.8 
" style="fill: none; stroke: #000000; stroke-width: 0.8; stroke-linejoin: miter; stroke-linecap: square"/>
   </g>
  </g>
  <g id="axes_2">
   <g id="patch_7">
    <path d="M 67.16 347.35 
L 691.605 347.35 
L 691.605 206.385 
L 67.16 206.385 
z
" style="fill: #ffffff"/>
   </g>
   <g id="matplotlib.axis_3">
    <g id="xtick_10">
     <g id="line2d_18">
      <g>
       <use xlink:href="#mff3ec8d4d2" x="67.16" y="347.35" style="stroke: #000000; stroke-width: 0.8"/>
      </g>
     </g>
    </g>
    <g id="xtick_11">
     <g id="line2d_19">
      <g>
       <use xlink:href="#mff3ec8d4d2" x="145.215625" y="347.35" style="stroke: #000000; stroke-width: 0.8"/>
      </g>
     </g>
    </g>
    <g id="xtick_12">
     <g id="line2d_20">
      <g>
       <use xlink:href="#mff3ec8d4d2" x="223.27125" y="347.35" style="stroke: #000000; stroke-width: 0.8"/>
      </g>
     </g>
    </g>
    <g id="xtick_13">
     <g id="line2d_21">
      <g>
       <use xlink:href="#mff3ec8d4d2" x="301.326875" y="347.35" style="stroke: #000000; stroke-width: 0.8"/>
      </g>
     </g>
    </g>
    <g id="xtick_14">
     <g id="line2d_22">
      <g>
       <use xlink:href="#mff3ec8d4d2" x="379.3825" y="347.35" style="stroke: #000000; stroke-width: 0.8"/>
      </g>
     </g>
    </g>
    <g id="xtick_15">
     <g id="line2d_23">
      <g>
       <use xlink:href="#mff3ec8d4d2" x="457.438125" y="347.35" style="stroke: #000000; stroke-width: 0.8"/>
      </g>
     </g>
    </g>
    <g id="xtick_16">
     <g id="line2d_24">
      <g>
       <use xlink:href="#mff3ec8d4d2" x="535.49375" y="347.35" style="stroke: #000000; stroke-width: 0.8"/>
      </g>
     </g>
    </g>
    <g id="xtick_17">
     <g id="line2d_25">
      <g>
       <use xlink:href="#mff3ec8d4d2" x="613.549375" y="347.35" style="stroke: #000000; stroke-width: 0.8"/>
      </g>
     </g>
    </g>
    <g id="xtick_18">
     <g id="line2d_26">
      <g>
       <use xlink:href="#mff3ec8d4d2" x="691.605" y="347.35" style="stroke: #000000; stroke-width: 0.8"/>
      </g>
     </g>
    </g>
   </g>
   <g id="matplotlib.axis_4">
    <g id="ytick_6">
     <g id="line2d_27">
      <g>
       <use xlink:href="#m168009f3cd" x="67.16" y="334.794575" style="stroke: #000000; stroke-width: 0.8"/>
      </g>
     </g>
     <g id="text_7">
      <!-- -1.0 -->
      <g transform="translate(32.844688 340.113481) scale(0.14 -0.14)">
       <use xlink:href="#DejaVuSans-2d"/>
       <use xlink:href="#DejaVuSans-31" x="36.083984"/>
       <use xlink:href="#DejaVuSans-2e" x="99.707031"/>
       <use xlink:href="#DejaVuSans-30" x="131.494141"/>
      </g>
     </g>
    </g>
    <g id="ytick_7">
     <g id="line2d_28">
      <g>
       <use xlink:href="#m168009f3cd" x="67.16" y="305.831038" style="stroke: #000000; stroke-width: 0.8"/>
      </g>
     </g>
     <g id="text_8">
      <!-- -0.5 -->
      <g transform="translate(32.844688 311.149944) scale(0.14 -0.14)">
       <use xlink:href="#DejaVuSans-2d"/>
       <use xlink:href="#DejaVuSans-30" x="36.083984"/>
       <use xlink:href="#DejaVuSans-2e" x="99.707031"/>
       <use xlink:href="#DejaVuSans-35" x="131.494141"/>
      </g>
     </g>
    </g>
    <g id="ytick_8">
     <g id="line2d_29">
      <g>
       <use xlink:href="#m168009f3cd" x="67.16" y="276.8675" style="stroke: #000000; stroke-width: 0.8"/>
      </g>
     </g>
     <g id="text_9">
      <!-- 0.0 -->
      <g transform="translate(37.895625 282.186406) scale(0.14 -0.14)">
       <use xlink:href="#DejaVuSans-30"/>
       <use xlink:href="#DejaVuSans-2e" x="63.623047"/>
       <use xlink:href="#DejaVuSans-30" x="95.410156"/>
      </g>
     </g>
    </g>
    <g id="ytick_9">
     <g id="line2d_30">
      <g>
       <use xlink:href="#m168009f3cd" x="67.16" y="247.903962" style="stroke: #000000; stroke-width: 0.8"/>
      </g>
     </g>
     <g id="text_10">
      <!-- 0.5 -->
      <g transform="translate(37.895625 253.222869) scale(0.14 -0.14)">
       <use xlink:href="#DejaVuSans-30"/>
       <use xlink:href="#DejaVuSans-2e" x="63.623047"/>
       <use xlink:href="#DejaVuSans-35" x="95.410156"/>
      </g>
     </g>
    </g>
    <g id="ytick_10">
     <g id="line2d_31">
      <g>
       <use xlink:href="#m168009f3cd" x="67.16" y="218.940425" style="stroke: #000000; stroke-width: 0.8"/>
      </g>
     </g>
     <g id="text_11">
      <!-- 1.0 -->
      <g transform="translate(37.895625 224.259331) scale(0.14 -0.14)">
       <use xlink:href="#DejaVuSans-31"/>
       <use xlink:href="#DejaVuSans-2e" x="63.623047"/>
       <use xlink:href="#DejaVuSans-30" x="95.410156"/>
      </g>
     </g>
    </g>
    <g id="text_12">
     <!-- Pos E [m] -->
     <g transform="translate(25.933125 309.917344) rotate(-90) scale(0.14 -0.14)">
      <defs>
       <path id="DejaVuSans-45" d="M 628 4666 
L 3578 4666 
L 3578 4134 
L 1259 4134 
L 1259 2753 
L 3481 2753 
L 3481 2222 
L 1259 2222 
L 1259 531 
L 3634 531 
L 3634 0 
L 628 0 
L 628 4666 
z
" transform="scale(0.015625)"/>
      </defs>
      <use xlink:href="#DejaVuSans-50"/>
      <use xlink:href="#DejaVuSans-6f" x="56.677734"/>
      <use xlink:href="#DejaVuSans-73" x="117.859375"/>
      <use xlink:href="#DejaVuSans-20" x="169.958984"/>
      <use xlink:href="#DejaVuSans-45" x="201.746094"/>
      <use xlink:href="#DejaVuSans-20" x="264.929688"/>
      <use xlink:href="#DejaVuSans-5b" x="296.716797"/>
      <use xlink:href="#DejaVuSans-6d" x="335.730469"/>
      <use xlink:href="#DejaVuSans-5d" x="433.142578"/>
     </g>
    </g>
   </g>
   <g id="line2d_32">
    <path d="M 67.16 276.8675 
L 70.282225 303.508288 
L 73.40445 275.867098 
L 76.526675 257.848493 
L 79.6489 255.11366 
L 82.771125 237.060392 
L 85.89335 255.57124 
L 89.015575 277.390924 
L 92.1378 300.237491 
L 95.260025 275.470731 
L 98.38225 265.907325 
L 101.504475 267.285817 
L 104.6267 264.51214 
L 107.748925 279.534119 
L 110.87115 247.988297 
L 113.993375 251.839562 
L 117.1156 256.038949 
L 120.237825 252.382445 
L 123.36005 252.871695 
L 126.482275 256.708482 
L 129.6045 272.046162 
L 132.726725 268.345219 
L 135.84895 247.953813 
L 142.0934 229.879167 
L 145.215625 249.422955 
L 148.33785 270.887584 
L 151.460075 276.46287 
L 154.5823 277.451751 
L 157.704525 264.746025 
L 160.82675 288.086191 
L 163.948975 266.82284 
L 167.0712 270.281808 
L 170.193425 276.379645 
L 173.31565 288.044378 
L 176.437875 304.28787 
L 179.5601 285.946968 
L 182.682325 280.096989 
L 185.80455 292.134986 
L 188.926775 301.474409 
L 192.049 296.594211 
L 195.171225 268.202495 
L 198.29345 270.007232 
L 201.415675 287.479154 
L 204.5379 286.175539 
L 207.660125 285.32903 
L 210.78235 313.812722 
L 213.904575 303.303447 
L 217.0268 296.339324 
L 220.149025 279.583641 
L 223.27125 253.250914 
L 226.393475 243.099474 
L 229.5157 254.117548 
L 232.637925 274.214136 
L 235.76015 245.756686 
L 238.882375 254.475066 
L 242.0046 262.632339 
L 245.126825 269.610588 
L 248.24905 272.115224 
L 251.371275 277.794469 
L 254.4935 286.888958 
L 257.615725 292.900951 
L 260.73795 290.488311 
L 263.860175 294.069303 
L 266.9824 298.36431 
L 270.104625 291.272525 
L 273.22685 289.838378 
L 276.349075 267.589408 
L 279.4713 301.058443 
L 282.593525 282.096721 
L 285.71575 265.372042 
L 288.837975 293.19864 
L 291.9602 294.191128 
L 295.082425 294.796115 
L 298.20465 307.343603 
L 301.326875 308.858428 
L 304.4491 313.247345 
L 307.571325 281.481918 
L 310.69355 266.981186 
L 313.815775 253.120946 
L 316.938 250.788075 
L 320.060225 272.970578 
L 323.18245 283.574285 
L 326.304675 279.254449 
L 329.4269 296.135136 
L 332.549125 285.306116 
L 335.67135 287.837536 
L 338.793575 291.228962 
L 341.9158 280.506366 
L 345.038025 275.429645 
L 348.16025 281.620239 
L 351.282475 268.394654 
L 354.4047 285.532355 
L 357.526925 278.548372 
L 360.64915 273.304035 
L 363.771375 280.351508 
L 366.8936 278.277991 
L 370.015825 295.623832 
L 373.13805 282.43367 
L 376.260275 285.173291 
L 379.3825 291.334643 
L 382.504725 276.933538 
L 385.62695 286.93899 
L 388.749175 303.286332 
L 391.8714 317.114571 
L 394.993625 300.557345 
L 398.11585 309.649044 
L 401.238075 279.752239 
L 404.3603 303.069793 
L 407.482525 275.970274 
L 410.60475 273.244108 
L 413.726975 275.861472 
L 416.8492 284.010539 
L 419.971425 279.185705 
L 423.09365 280.787351 
L 426.215875 268.422009 
L 429.3381 271.129484 
L 432.460325 273.29017 
L 435.58255 281.36734 
L 438.704775 283.798953 
L 441.827 280.912017 
L 444.949225 302.69079 
L 448.07145 314.459521 
L 451.193675 296.979925 
L 454.3159 289.47407 
L 457.438125 287.940847 
L 460.56035 284.536528 
L 463.682575 278.210916 
L 466.8048 284.428394 
L 469.927025 292.397125 
L 473.04925 286.652298 
L 476.171475 296.133392 
L 479.2937 286.503558 
L 482.415925 304.249744 
L 485.53815 284.702156 
L 488.660375 276.033998 
L 491.7826 272.469943 
L 494.904825 261.649106 
L 498.02705 245.911034 
L 501.149275 242.861692 
L 504.2715 276.258078 
L 507.393725 295.503206 
L 510.51595 301.230939 
L 513.638175 296.229945 
L 516.7604 285.252027 
L 519.882625 291.258698 
L 523.00485 284.683275 
L 526.127075 290.75725 
L 529.2493 293.576417 
L 532.371525 304.961642 
L 535.49375 307.283821 
L 538.615975 313.373218 
L 541.7382 312.68844 
L 544.860425 286.939325 
L 547.98265 291.233414 
L 551.104875 252.048143 
L 554.2271 248.823769 
L 557.349325 252.08224 
L 560.47155 268.601124 
L 563.593775 263.112686 
L 566.716 274.274055 
L 569.838225 274.366569 
L 572.96045 244.67704 
L 576.082675 254.140977 
L 579.2049 247.296821 
L 582.327125 264.805678 
L 585.44935 270.360347 
L 588.571575 252.340183 
L 591.6938 267.151016 
L 594.816025 249.218903 
L 597.93825 248.696144 
L 601.060475 264.071527 
L 604.1827 261.522427 
L 607.304925 255.063608 
L 610.42715 254.222816 
L 613.549375 280.074781 
L 616.6716 289.325377 
L 619.793825 289.343826 
L 622.91605 286.032624 
L 626.038275 274.279513 
L 629.1605 270.305344 
L 632.282725 285.679012 
L 635.40495 276.773672 
L 638.527175 266.830924 
L 641.6494 260.029347 
L 644.771625 249.124011 
L 647.89385 244.565816 
L 651.016075 246.595838 
L 654.1383 255.344508 
L 657.260525 281.543879 
L 660.38275 275.922799 
L 663.504975 273.187038 
L 666.6272 269.747535 
L 669.749425 285.475662 
L 672.87165 294.771735 
L 675.993875 275.247014 
L 679.1161 272.827886 
L 682.238325 262.505786 
L 685.36055 262.881454 
L 688.482775 263.769127 
L 688.482775 263.769127 
" clip-path="url(#pcadb13a5a8)" style="fill: none; stroke: #1f77b4; stroke-width: 1.5; stroke-linecap: square"/>
   </g>
   <g id="line2d_33">
    <path d="M 67.16 302.396925 
L 691.605 302.396925 
" clip-path="url(#pcadb13a5a8)" style="fill: none; stroke-dasharray: 5.55,2.4; stroke-dashoffset: 0; stroke: #ff0000; stroke-width: 1.5"/>
   </g>
   <g id="line2d_34">
    <path d="M 67.16 251.338075 
L 691.605 251.338075 
" clip-path="url(#pcadb13a5a8)" style="fill: none; stroke-dasharray: 5.55,2.4; stroke-dashoffset: 0; stroke: #ff0000; stroke-width: 1.5"/>
   </g>
   <g id="patch_8">
    <path d="M 67.16 347.35 
L 67.16 206.385 
" style="fill: none; stroke: #000000; stroke-width: 0.8; stroke-linejoin: miter; stroke-linecap: square"/>
   </g>
   <g id="patch_9">
    <path d="M 691.605 347.35 
L 691.605 206.385 
" style="fill: none; stroke: #000000; stroke-width: 0.8; stroke-linejoin: miter; stroke-linecap: square"/>
   </g>
   <g id="patch_10">
    <path d="M 67.16 347.35 
L 691.605 347.35 
" style="fill: none; stroke: #000000; stroke-width: 0.8; stroke-linejoin: miter; stroke-linecap: square"/>
   </g>
   <g id="patch_11">
    <path d="M 67.16 206.385 
L 691.605 206.385 
" style="fill: none; stroke: #000000; stroke-width: 0.8; stroke-linejoin: miter; stroke-linecap: square"/>
   </g>
  </g>
  <g id="axes_3">
   <g id="patch_12">
    <path d="M 67.16 506.935 
L 691.605 506.935 
L 691.605 365.97 
L 67.16 365.97 
z
" style="fill: #ffffff"/>
   </g>
   <g id="matplotlib.axis_5">
    <g id="xtick_19">
     <g id="line2d_35">
      <g>
       <use xlink:href="#mff3ec8d4d2" x="67.16" y="506.935" style="stroke: #000000; stroke-width: 0.8"/>
      </g>
     </g>
    </g>
    <g id="xtick_20">
     <g id="line2d_36">
      <g>
       <use xlink:href="#mff3ec8d4d2" x="145.215625" y="506.935" style="stroke: #000000; stroke-width: 0.8"/>
      </g>
     </g>
    </g>
    <g id="xtick_21">
     <g id="line2d_37">
      <g>
       <use xlink:href="#mff3ec8d4d2" x="223.27125" y="506.935" style="stroke: #000000; stroke-width: 0.8"/>
      </g>
     </g>
    </g>
    <g id="xtick_22">
     <g id="line2d_38">
      <g>
       <use xlink:href="#mff3ec8d4d2" x="301.326875" y="506.935" style="stroke: #000000; stroke-width: 0.8"/>
      </g>
     </g>
    </g>
    <g id="xtick_23">
     <g id="line2d_39">
      <g>
       <use xlink:href="#mff3ec8d4d2" x="379.3825" y="506.935" style="stroke: #000000; stroke-width: 0.8"/>
      </g>
     </g>
    </g>
    <g id="xtick_24">
     <g id="line2d_40">
      <g>
       <use xlink:href="#mff3ec8d4d2" x="457.438125" y="506.935" style="stroke: #000000; stroke-width: 0.8"/>
      </g>
     </g>
    </g>
    <g id="xtick_25">
     <g id="line2d_41">
      <g>
       <use xlink:href="#mff3ec8d4d2" x="535.49375" y="506.935" style="stroke: #000000; stroke-width: 0.8"/>
      </g>
     </g>
    </g>
    <g id="xtick_26">
     <g id="line2d_42">
      <g>
       <use xlink:href="#mff3ec8d4d2" x="613.549375" y="506.935" style="stroke: #000000; stroke-width: 0.8"/>
      </g>
     </g>
    </g>
    <g id="xtick_27">
     <g id="line2d_43">
      <g>
       <use xlink:href="#mff3ec8d4d2" x="691.605" y="506.935" style="stroke: #000000; stroke-width: 0.8"/>
      </g>
     </g>
    </g>
   </g>
   <g id="matplotlib.axis_6">
    <g id="ytick_11">
     <g id="line2d_44">
      <g>
       <use xlink:href="#m168009f3cd" x="67.16" y="472.612842" style="stroke: #000000; stroke-width: 0.8"/>
      </g>
     </g>
     <g id="text_13">
      <!-- -0.2 -->
      <g transform="translate(32.844688 477.931749) scale(0.14 -0.14)">
       <defs>
        <path id="DejaVuSans-32" d="M 1228 531 
L 3431 531 
L 3431 0 
L 469 0 
L 469 531 
Q 828 903 1448 1529 
Q 2069 2156 2228 2338 
Q 2531 2678 2651 2914 
Q 2772 3150 2772 3378 
Q 2772 3750 2511 3984 
Q 2250 4219 1831 4219 
Q 1534 4219 1204 4116 
Q 875 4013 500 3803 
L 500 4441 
Q 881 4594 1212 4672 
Q 1544 4750 1819 4750 
Q 2544 4750 2975 4387 
Q 3406 4025 3406 3419 
Q 3406 3131 3298 2873 
Q 3191 2616 2906 2266 
Q 2828 2175 2409 1742 
Q 1991 1309 1228 531 
z
" transform="scale(0.015625)"/>
       </defs>
       <use xlink:href="#DejaVuSans-2d"/>
       <use xlink:href="#DejaVuSans-30" x="36.083984"/>
       <use xlink:href="#DejaVuSans-2e" x="99.707031"/>
       <use xlink:href="#DejaVuSans-32" x="131.494141"/>
      </g>
     </g>
    </g>
    <g id="ytick_12">
     <g id="line2d_45">
      <g>
       <use xlink:href="#m168009f3cd" x="67.16" y="436.4525" style="stroke: #000000; stroke-width: 0.8"/>
      </g>
     </g>
     <g id="text_14">
      <!-- 0.0 -->
      <g transform="translate(37.895625 441.771406) scale(0.14 -0.14)">
       <use xlink:href="#DejaVuSans-30"/>
       <use xlink:href="#DejaVuSans-2e" x="63.623047"/>
       <use xlink:href="#DejaVuSans-30" x="95.410156"/>
      </g>
     </g>
    </g>
    <g id="ytick_13">
     <g id="line2d_46">
      <g>
       <use xlink:href="#m168009f3cd" x="67.16" y="400.292158" style="stroke: #000000; stroke-width: 0.8"/>
      </g>
     </g>
     <g id="text_15">
      <!-- 0.2 -->
      <g transform="translate(37.895625 405.611064) scale(0.14 -0.14)">
       <use xlink:href="#DejaVuSans-30"/>
       <use xlink:href="#DejaVuSans-2e" x="63.623047"/>
       <use xlink:href="#DejaVuSans-32" x="95.410156"/>
      </g>
     </g>
    </g>
    <g id="text_16">
     <!-- Vel N [m/s] -->
     <g transform="translate(25.933125 474.921875) rotate(-90) scale(0.14 -0.14)">
      <defs>
       <path id="DejaVuSans-56" d="M 1831 0 
L 50 4666 
L 709 4666 
L 2188 738 
L 3669 4666 
L 4325 4666 
L 2547 0 
L 1831 0 
z
" transform="scale(0.015625)"/>
       <path id="DejaVuSans-65" d="M 3597 1894 
L 3597 1613 
L 953 1613 
Q 991 1019 1311 708 
Q 1631 397 2203 397 
Q 2534 397 2845 478 
Q 3156 559 3463 722 
L 3463 178 
Q 3153 47 2828 -22 
Q 2503 -91 2169 -91 
Q 1331 -91 842 396 
Q 353 884 353 1716 
Q 353 2575 817 3079 
Q 1281 3584 2069 3584 
Q 2775 3584 3186 3129 
Q 3597 2675 3597 1894 
z
M 3022 2063 
Q 3016 2534 2758 2815 
Q 2500 3097 2075 3097 
Q 1594 3097 1305 2825 
Q 1016 2553 972 2059 
L 3022 2063 
z
" transform="scale(0.015625)"/>
       <path id="DejaVuSans-6c" d="M 603 4863 
L 1178 4863 
L 1178 0 
L 603 0 
L 603 4863 
z
" transform="scale(0.015625)"/>
       <path id="DejaVuSans-2f" d="M 1625 4666 
L 2156 4666 
L 531 -594 
L 0 -594 
L 1625 4666 
z
" transform="scale(0.015625)"/>
      </defs>
      <use xlink:href="#DejaVuSans-56"/>
      <use xlink:href="#DejaVuSans-65" x="60.658203"/>
      <use xlink:href="#DejaVuSans-6c" x="122.181641"/>
      <use xlink:href="#DejaVuSans-20" x="149.964844"/>
      <use xlink:href="#DejaVuSans-4e" x="181.751953"/>
      <use xlink:href="#DejaVuSans-20" x="256.556641"/>
      <use xlink:href="#DejaVuSans-5b" x="288.34375"/>
      <use xlink:href="#DejaVuSans-6d" x="327.357422"/>
      <use xlink:href="#DejaVuSans-2f" x="424.769531"/>
      <use xlink:href="#DejaVuSans-73" x="458.460938"/>
      <use xlink:href="#DejaVuSans-5d" x="510.560547"/>
     </g>
    </g>
   </g>
   <g id="line2d_47">
    <path d="M 67.16 436.4525 
L 70.282225 436.387838 
L 73.40445 434.587339 
L 76.526675 432.385751 
L 79.6489 435.058551 
L 82.771125 425.460186 
L 85.89335 439.705669 
L 89.015575 436.629729 
L 92.1378 431.5104 
L 95.260025 424.47636 
L 98.38225 419.257624 
L 101.504475 436.867271 
L 104.6267 450.617488 
L 107.748925 427.034451 
L 110.87115 423.451885 
L 113.993375 433.341101 
L 117.1156 414.685943 
L 120.237825 420.39772 
L 123.36005 413.588774 
L 126.482275 422.898378 
L 129.6045 408.124627 
L 132.726725 404.918615 
L 135.84895 426.525744 
L 138.971175 426.468126 
L 142.0934 429.852099 
L 145.215625 423.876114 
L 148.33785 444.969336 
L 151.460075 437.857291 
L 154.5823 428.38543 
L 157.704525 451.865804 
L 160.82675 456.48135 
L 163.948975 464.441551 
L 167.0712 446.023628 
L 170.193425 422.454228 
L 173.31565 400.678392 
L 176.437875 405.525121 
L 179.5601 394.240684 
L 182.682325 422.407863 
L 185.80455 442.355984 
L 188.926775 434.622659 
L 192.049 424.190007 
L 195.171225 422.302787 
L 198.29345 442.493031 
L 201.415675 431.389248 
L 204.5379 436.578997 
L 207.660125 417.418338 
L 210.78235 409.98328 
L 213.904575 420.721923 
L 217.0268 422.770894 
L 220.149025 429.635712 
L 223.27125 422.441635 
L 226.393475 407.640939 
L 229.5157 420.966938 
L 232.637925 413.41738 
L 238.882375 428.196542 
L 242.0046 424.716994 
L 245.126825 432.171633 
L 248.24905 430.465508 
L 251.371275 435.359831 
L 254.4935 403.856487 
L 257.615725 407.845056 
L 260.73795 419.678484 
L 263.860175 417.555901 
L 266.9824 420.47745 
L 270.104625 423.763499 
L 273.22685 417.064435 
L 276.349075 412.544409 
L 279.4713 424.777097 
L 282.593525 432.457267 
L 285.71575 433.010927 
L 288.837975 453.645481 
L 291.9602 454.321678 
L 295.082425 421.432929 
L 298.20465 399.916611 
L 301.326875 410.222355 
L 304.4491 409.609078 
L 307.571325 414.101581 
L 310.69355 389.464167 
L 313.815775 399.988235 
L 320.060225 445.000098 
L 323.18245 463.166517 
L 326.304675 451.060216 
L 329.4269 451.590979 
L 332.549125 456.426297 
L 335.67135 448.229063 
L 338.793575 446.03459 
L 341.9158 414.232969 
L 345.038025 406.124031 
L 348.16025 413.724232 
L 351.282475 404.878919 
L 354.4047 417.64033 
L 357.526925 436.768477 
L 360.64915 422.799071 
L 363.771375 426.282708 
L 366.8936 445.789761 
L 370.015825 447.187794 
L 373.13805 453.871774 
L 376.260275 461.066711 
L 379.3825 438.406291 
L 382.504725 414.788712 
L 385.62695 438.146608 
L 388.749175 431.351977 
L 391.8714 440.885782 
L 394.993625 444.548595 
L 398.11585 447.210002 
L 401.238075 450.762725 
L 404.3603 442.123988 
L 407.482525 446.095572 
L 410.60475 436.365302 
L 413.726975 434.629374 
L 416.8492 436.435995 
L 419.971425 445.156123 
L 423.09365 446.531621 
L 426.215875 433.055013 
L 429.3381 429.04549 
L 432.460325 443.841687 
L 435.58255 441.310458 
L 438.704775 433.415817 
L 441.827 455.388744 
L 444.949225 443.992157 
L 448.07145 450.103919 
L 451.193675 440.338661 
L 454.3159 449.232171 
L 457.438125 464.991994 
L 460.56035 470.265896 
L 463.682575 453.206871 
L 466.8048 440.364245 
L 469.927025 445.846894 
L 473.04925 433.201587 
L 476.171475 451.531947 
L 479.2937 445.24553 
L 482.415925 453.904547 
L 485.53815 452.548331 
L 488.660375 444.055846 
L 491.7826 449.155005 
L 494.904825 447.196538 
L 498.02705 431.812615 
L 501.149275 441.39353 
L 504.2715 433.227666 
L 507.393725 450.878449 
L 510.51595 443.783874 
L 513.638175 430.853861 
L 516.7604 466.340554 
L 519.882625 467.753062 
L 523.00485 452.229215 
L 526.127075 451.069413 
L 529.2493 444.31498 
L 532.371525 451.230711 
L 535.49375 447.963279 
L 538.615975 448.848349 
L 541.7382 435.722807 
L 544.860425 439.248176 
L 547.98265 441.697229 
L 551.104875 451.910845 
L 554.2271 458.44628 
L 557.349325 460.701742 
L 560.47155 452.12988 
L 563.593775 455.335219 
L 566.716 449.11878 
L 569.838225 426.883236 
L 572.96045 429.017138 
L 576.082675 445.053234 
L 579.2049 438.925563 
L 582.327125 453.242413 
L 585.44935 478.048379 
L 588.571575 478.350324 
L 591.6938 484.009679 
L 594.816025 467.272891 
L 597.93825 451.334873 
L 601.060475 424.235603 
L 604.1827 425.076812 
L 607.304925 433.737083 
L 610.42715 429.301255 
L 613.549375 460.337474 
L 616.6716 451.252896 
L 619.793825 439.665985 
L 622.91605 456.960004 
L 626.038275 438.283379 
L 629.1605 436.44774 
L 632.282725 444.088227 
L 635.40495 437.548523 
L 638.527175 417.279078 
L 641.6494 430.15087 
L 644.771625 438.383206 
L 647.89385 450.980653 
L 651.016075 461.32192 
L 654.1383 447.50603 
L 657.260525 456.232523 
L 660.38275 449.813613 
L 663.504975 450.639083 
L 666.6272 439.847683 
L 669.749425 434.956221 
L 672.87165 425.170462 
L 675.993875 437.087049 
L 679.1161 441.616806 
L 682.238325 451.155191 
L 685.36055 449.501379 
L 688.482775 438.451574 
L 688.482775 438.451574 
" clip-path="url(#p3669e45b2c)" style="fill: none; stroke: #1f77b4; stroke-width: 1.5; stroke-linecap: square"/>
   </g>
   <g id="line2d_48">
    <path d="M 67.16 452.182213 
L 691.605 452.182213 
" clip-path="url(#p3669e45b2c)" style="fill: none; stroke-dasharray: 5.55,2.4; stroke-dashoffset: 0; stroke: #ff0000; stroke-width: 1.5"/>
   </g>
   <g id="line2d_49">
    <path d="M 67.16 420.722787 
L 691.605 420.722787 
" clip-path="url(#p3669e45b2c)" style="fill: none; stroke-dasharray: 5.55,2.4; stroke-dashoffset: 0; stroke: #ff0000; stroke-width: 1.5"/>
   </g>
   <g id="patch_13">
    <path d="M 67.16 506.935 
L 67.16 365.97 
" style="fill: none; stroke: #000000; stroke-width: 0.8; stroke-linejoin: miter; stroke-linecap: square"/>
   </g>
   <g id="patch_14">
    <path d="M 691.605 506.935 
L 691.605 365.97 
" style="fill: none; stroke: #000000; stroke-width: 0.8; stroke-linejoin: miter; stroke-linecap: square"/>
   </g>
   <g id="patch_15">
    <path d="M 67.16 506.935 
L 691.605 506.935 
" style="fill: none; stroke: #000000; stroke-width: 0.8; stroke-linejoin: miter; stroke-linecap: square"/>
   </g>
   <g id="patch_16">
    <path d="M 67.16 365.97 
L 691.605 365.97 
" style="fill: none; stroke: #000000; stroke-width: 0.8; stroke-linejoin: miter; stroke-linecap: square"/>
   </g>
  </g>
  <g id="axes_4">
   <g id="patch_17">
    <path d="M 67.16 666.52 
L 691.605 666.52 
L 691.605 525.555 
L 67.16 525.555 
z
" style="fill: #ffffff"/>
   </g>
   <g id="matplotlib.axis_7">
    <g id="xtick_28">
     <g id="line2d_50">
      <g>
       <use xlink:href="#mff3ec8d4d2" x="67.16" y="666.52" style="stroke: #000000; stroke-width: 0.8"/>
      </g>
     </g>
     <g id="text_17">
      <!-- 0 -->
      <g transform="translate(62.70625 684.157812) scale(0.14 -0.14)">
       <use xlink:href="#DejaVuSans-30"/>
      </g>
     </g>
    </g>
    <g id="xtick_29">
     <g id="line2d_51">
      <g>
       <use xlink:href="#mff3ec8d4d2" x="145.215625" y="666.52" style="stroke: #000000; stroke-width: 0.8"/>
      </g>
     </g>
     <g id="text_18">
      <!-- 25 -->
      <g transform="translate(136.308125 684.157812) scale(0.14 -0.14)">
       <use xlink:href="#DejaVuSans-32"/>
       <use xlink:href="#DejaVuSans-35" x="63.623047"/>
      </g>
     </g>
    </g>
    <g id="xtick_30">
     <g id="line2d_52">
      <g>
       <use xlink:href="#mff3ec8d4d2" x="223.27125" y="666.52" style="stroke: #000000; stroke-width: 0.8"/>
      </g>
     </g>
     <g id="text_19">
      <!-- 50 -->
      <g transform="translate(214.36375 684.157812) scale(0.14 -0.14)">
       <use xlink:href="#DejaVuSans-35"/>
       <use xlink:href="#DejaVuSans-30" x="63.623047"/>
      </g>
     </g>
    </g>
    <g id="xtick_31">
     <g id="line2d_53">
      <g>
       <use xlink:href="#mff3ec8d4d2" x="301.326875" y="666.52" style="stroke: #000000; stroke-width: 0.8"/>
      </g>
     </g>
     <g id="text_20">
      <!-- 75 -->
      <g transform="translate(292.419375 684.157812) scale(0.14 -0.14)">
       <defs>
        <path id="DejaVuSans-37" d="M 525 4666 
L 3525 4666 
L 3525 4397 
L 1831 0 
L 1172 0 
L 2766 4134 
L 525 4134 
L 525 4666 
z
" transform="scale(0.015625)"/>
       </defs>
       <use xlink:href="#DejaVuSans-37"/>
       <use xlink:href="#DejaVuSans-35" x="63.623047"/>
      </g>
     </g>
    </g>
    <g id="xtick_32">
     <g id="line2d_54">
      <g>
       <use xlink:href="#mff3ec8d4d2" x="379.3825" y="666.52" style="stroke: #000000; stroke-width: 0.8"/>
      </g>
     </g>
     <g id="text_21">
      <!-- 100 -->
      <g transform="translate(366.02125 684.157812) scale(0.14 -0.14)">
       <use xlink:href="#DejaVuSans-31"/>
       <use xlink:href="#DejaVuSans-30" x="63.623047"/>
       <use xlink:href="#DejaVuSans-30" x="127.246094"/>
      </g>
     </g>
    </g>
    <g id="xtick_33">
     <g id="line2d_55">
      <g>
       <use xlink:href="#mff3ec8d4d2" x="457.438125" y="666.52" style="stroke: #000000; stroke-width: 0.8"/>
      </g>
     </g>
     <g id="text_22">
      <!-- 125 -->
      <g transform="translate(444.076875 684.157812) scale(0.14 -0.14)">
       <use xlink:href="#DejaVuSans-31"/>
       <use xlink:href="#DejaVuSans-32" x="63.623047"/>
       <use xlink:href="#DejaVuSans-35" x="127.246094"/>
      </g>
     </g>
    </g>
    <g id="xtick_34">
     <g id="line2d_56">
      <g>
       <use xlink:href="#mff3ec8d4d2" x="535.49375" y="666.52" style="stroke: #000000; stroke-width: 0.8"/>
      </g>
     </g>
     <g id="text_23">
      <!-- 150 -->
      <g transform="translate(522.1325 684.157812) scale(0.14 -0.14)">
       <use xlink:href="#DejaVuSans-31"/>
       <use xlink:href="#DejaVuSans-35" x="63.623047"/>
       <use xlink:href="#DejaVuSans-30" x="127.246094"/>
      </g>
     </g>
    </g>
    <g id="xtick_35">
     <g id="line2d_57">
      <g>
       <use xlink:href="#mff3ec8d4d2" x="613.549375" y="666.52" style="stroke: #000000; stroke-width: 0.8"/>
      </g>
     </g>
     <g id="text_24">
      <!-- 175 -->
      <g transform="translate(600.188125 684.157812) scale(0.14 -0.14)">
       <use xlink:href="#DejaVuSans-31"/>
       <use xlink:href="#DejaVuSans-37" x="63.623047"/>
       <use xlink:href="#DejaVuSans-35" x="127.246094"/>
      </g>
     </g>
    </g>
    <g id="xtick_36">
     <g id="line2d_58">
      <g>
       <use xlink:href="#mff3ec8d4d2" x="691.605" y="666.52" style="stroke: #000000; stroke-width: 0.8"/>
      </g>
     </g>
     <g id="text_25">
      <!-- 200 -->
      <g transform="translate(678.24375 684.157812) scale(0.14 -0.14)">
       <use xlink:href="#DejaVuSans-32"/>
       <use xlink:href="#DejaVuSans-30" x="63.623047"/>
       <use xlink:href="#DejaVuSans-30" x="127.246094"/>
      </g>
     </g>
    </g>
    <g id="text_26">
     <!-- Timestamp [s] -->
     <g transform="translate(328.979219 701.707188) scale(0.14 -0.14)">
      <defs>
       <path id="DejaVuSans-54" d="M -19 4666 
L 3928 4666 
L 3928 4134 
L 2272 4134 
L 2272 0 
L 1638 0 
L 1638 4134 
L -19 4134 
L -19 4666 
z
" transform="scale(0.015625)"/>
       <path id="DejaVuSans-69" d="M 603 3500 
L 1178 3500 
L 1178 0 
L 603 0 
L 603 3500 
z
M 603 4863 
L 1178 4863 
L 1178 4134 
L 603 4134 
L 603 4863 
z
" transform="scale(0.015625)"/>
       <path id="DejaVuSans-74" d="M 1172 4494 
L 1172 3500 
L 2356 3500 
L 2356 3053 
L 1172 3053 
L 1172 1153 
Q 1172 725 1289 603 
Q 1406 481 1766 481 
L 2356 481 
L 2356 0 
L 1766 0 
Q 1100 0 847 248 
Q 594 497 594 1153 
L 594 3053 
L 172 3053 
L 172 3500 
L 594 3500 
L 594 4494 
L 1172 4494 
z
" transform="scale(0.015625)"/>
       <path id="DejaVuSans-61" d="M 2194 1759 
Q 1497 1759 1228 1600 
Q 959 1441 959 1056 
Q 959 750 1161 570 
Q 1363 391 1709 391 
Q 2188 391 2477 730 
Q 2766 1069 2766 1631 
L 2766 1759 
L 2194 1759 
z
M 3341 1997 
L 3341 0 
L 2766 0 
L 2766 531 
Q 2569 213 2275 61 
Q 1981 -91 1556 -91 
Q 1019 -91 701 211 
Q 384 513 384 1019 
Q 384 1609 779 1909 
Q 1175 2209 1959 2209 
L 2766 2209 
L 2766 2266 
Q 2766 2663 2505 2880 
Q 2244 3097 1772 3097 
Q 1472 3097 1187 3025 
Q 903 2953 641 2809 
L 641 3341 
Q 956 3463 1253 3523 
Q 1550 3584 1831 3584 
Q 2591 3584 2966 3190 
Q 3341 2797 3341 1997 
z
" transform="scale(0.015625)"/>
       <path id="DejaVuSans-70" d="M 1159 525 
L 1159 -1331 
L 581 -1331 
L 581 3500 
L 1159 3500 
L 1159 2969 
Q 1341 3281 1617 3432 
Q 1894 3584 2278 3584 
Q 2916 3584 3314 3078 
Q 3713 2572 3713 1747 
Q 3713 922 3314 415 
Q 2916 -91 2278 -91 
Q 1894 -91 1617 61 
Q 1341 213 1159 525 
z
M 3116 1747 
Q 3116 2381 2855 2742 
Q 2594 3103 2138 3103 
Q 1681 3103 1420 2742 
Q 1159 2381 1159 1747 
Q 1159 1113 1420 752 
Q 1681 391 2138 391 
Q 2594 391 2855 752 
Q 3116 1113 3116 1747 
z
" transform="scale(0.015625)"/>
      </defs>
      <use xlink:href="#DejaVuSans-54"/>
      <use xlink:href="#DejaVuSans-69" x="57.958984"/>
      <use xlink:href="#DejaVuSans-6d" x="85.742188"/>
      <use xlink:href="#DejaVuSans-65" x="183.154297"/>
      <use xlink:href="#DejaVuSans-73" x="244.677734"/>
      <use xlink:href="#DejaVuSans-74" x="296.777344"/>
      <use xlink:href="#DejaVuSans-61" x="335.986328"/>
      <use xlink:href="#DejaVuSans-6d" x="397.265625"/>
      <use xlink:href="#DejaVuSans-70" x="494.677734"/>
      <use xlink:href="#DejaVuSans-20" x="558.154297"/>
      <use xlink:href="#DejaVuSans-5b" x="589.941406"/>
      <use xlink:href="#DejaVuSans-73" x="628.955078"/>
      <use xlink:href="#DejaVuSans-5d" x="681.054688"/>
     </g>
    </g>
   </g>
   <g id="matplotlib.axis_8">
    <g id="ytick_14">
     <g id="line2d_59">
      <g>
       <use xlink:href="#m168009f3cd" x="67.16" y="649.015709" style="stroke: #000000; stroke-width: 0.8"/>
      </g>
     </g>
     <g id="text_27">
      <!-- -2.0 -->
      <g transform="translate(32.844688 654.334615) scale(0.14 -0.14)">
       <use xlink:href="#DejaVuSans-2d"/>
       <use xlink:href="#DejaVuSans-32" x="36.083984"/>
       <use xlink:href="#DejaVuSans-2e" x="99.707031"/>
       <use xlink:href="#DejaVuSans-30" x="131.494141"/>
      </g>
     </g>
    </g>
    <g id="ytick_15">
     <g id="line2d_60">
      <g>
       <use xlink:href="#m168009f3cd" x="67.16" y="622.526605" style="stroke: #000000; stroke-width: 0.8"/>
      </g>
     </g>
     <g id="text_28">
      <!-- -1.0 -->
      <g transform="translate(32.844688 627.845511) scale(0.14 -0.14)">
       <use xlink:href="#DejaVuSans-2d"/>
       <use xlink:href="#DejaVuSans-31" x="36.083984"/>
       <use xlink:href="#DejaVuSans-2e" x="99.707031"/>
       <use xlink:href="#DejaVuSans-30" x="131.494141"/>
      </g>
     </g>
    </g>
    <g id="ytick_16">
     <g id="line2d_61">
      <g>
       <use xlink:href="#m168009f3cd" x="67.16" y="596.0375" style="stroke: #000000; stroke-width: 0.8"/>
      </g>
     </g>
     <g id="text_29">
      <!-- 0.0 -->
      <g transform="translate(37.895625 601.356406) scale(0.14 -0.14)">
       <use xlink:href="#DejaVuSans-30"/>
       <use xlink:href="#DejaVuSans-2e" x="63.623047"/>
       <use xlink:href="#DejaVuSans-30" x="95.410156"/>
      </g>
     </g>
    </g>
    <g id="ytick_17">
     <g id="line2d_62">
      <g>
       <use xlink:href="#m168009f3cd" x="67.16" y="569.548395" style="stroke: #000000; stroke-width: 0.8"/>
      </g>
     </g>
     <g id="text_30">
      <!-- 1.0 -->
      <g transform="translate(37.895625 574.867302) scale(0.14 -0.14)">
       <use xlink:href="#DejaVuSans-31"/>
       <use xlink:href="#DejaVuSans-2e" x="63.623047"/>
       <use xlink:href="#DejaVuSans-30" x="95.410156"/>
      </g>
     </g>
    </g>
    <g id="ytick_18">
     <g id="line2d_63">
      <g>
       <use xlink:href="#m168009f3cd" x="67.16" y="543.059291" style="stroke: #000000; stroke-width: 0.8"/>
      </g>
     </g>
     <g id="text_31">
      <!-- 2.0 -->
      <g transform="translate(37.895625 548.378197) scale(0.14 -0.14)">
       <use xlink:href="#DejaVuSans-32"/>
       <use xlink:href="#DejaVuSans-2e" x="63.623047"/>
       <use xlink:href="#DejaVuSans-30" x="95.410156"/>
      </g>
     </g>
    </g>
    <g id="text_32">
     <!-- Vel E [m/s] -->
     <g transform="translate(25.933125 633.693125) rotate(-90) scale(0.14 -0.14)">
      <use xlink:href="#DejaVuSans-56"/>
      <use xlink:href="#DejaVuSans-65" x="60.658203"/>
      <use xlink:href="#DejaVuSans-6c" x="122.181641"/>
      <use xlink:href="#DejaVuSans-20" x="149.964844"/>
      <use xlink:href="#DejaVuSans-45" x="181.751953"/>
      <use xlink:href="#DejaVuSans-20" x="244.935547"/>
      <use xlink:href="#DejaVuSans-5b" x="276.722656"/>
      <use xlink:href="#DejaVuSans-6d" x="315.736328"/>
      <use xlink:href="#DejaVuSans-2f" x="413.148438"/>
      <use xlink:href="#DejaVuSans-73" x="446.839844"/>
      <use xlink:href="#DejaVuSans-5d" x="498.939453"/>
     </g>
    </g>
   </g>
   <g id="line2d_64">
    <path d="M 67.16 596.0375 
L 70.282225 596.692236 
L 73.40445 596.680401 
L 76.526675 596.3341 
L 79.6489 597.690616 
L 82.771125 597.024306 
L 85.89335 602.004304 
L 89.015575 606.214296 
L 92.1378 609.610155 
L 95.260025 606.257377 
L 98.38225 606.141992 
L 101.504475 607.780273 
L 104.6267 608.775611 
L 107.748925 612.078076 
L 110.87115 608.892148 
L 113.993375 611.398419 
L 117.1156 613.569419 
L 120.237825 614.44982 
L 123.36005 615.915645 
L 126.482275 617.696468 
L 129.6045 620.733407 
L 132.726725 620.792655 
L 135.84895 618.992052 
L 138.971175 619.399017 
L 142.0934 619.958603 
L 145.215625 624.241953 
L 148.33785 627.823941 
L 151.460075 628.6292 
L 154.5823 628.855221 
L 157.704525 627.497254 
L 160.82675 631.30198 
L 163.948975 628.585438 
L 167.0712 629.951872 
L 170.193425 631.453497 
L 173.31565 633.414565 
L 176.437875 635.571842 
L 179.5601 632.887549 
L 182.682325 632.673281 
L 185.80455 634.917851 
L 188.926775 636.313641 
L 192.049 635.622532 
L 195.171225 632.233166 
L 198.29345 633.703616 
L 201.415675 636.828306 
L 204.5379 636.763109 
L 207.660125 636.824699 
L 210.78235 640.632866 
L 213.904575 638.460162 
L 217.0268 637.357503 
L 220.149025 635.32284 
L 223.27125 632.630802 
L 226.393475 632.723328 
L 229.5157 635.449206 
L 232.637925 638.530509 
L 235.76015 634.539006 
L 238.882375 636.313458 
L 242.0046 637.449684 
L 245.126825 638.035308 
L 248.24905 637.793824 
L 251.371275 637.915125 
L 254.4935 638.318176 
L 257.615725 638.088919 
L 260.73795 636.713981 
L 266.9824 635.986164 
L 270.104625 634.120024 
L 273.22685 633.309966 
L 276.349075 629.89143 
L 279.4713 634.2973 
L 282.593525 630.612641 
L 285.71575 628.01659 
L 288.837975 631.570932 
L 295.082425 629.422731 
L 298.20465 629.911791 
L 301.326875 628.602775 
L 304.4491 627.753066 
L 307.571325 622.271735 
L 310.69355 620.220826 
L 313.815775 618.529832 
L 316.938 618.474537 
L 320.060225 621.243555 
L 323.18245 621.463259 
L 326.304675 619.411041 
L 329.4269 620.299348 
L 332.549125 617.095827 
L 338.793575 615.234892 
L 341.9158 612.443758 
L 345.038025 610.800634 
L 348.16025 610.697036 
L 351.282475 607.806089 
L 354.4047 609.219997 
L 357.526925 606.822366 
L 360.64915 604.953364 
L 363.771375 604.804352 
L 366.8936 603.177291 
L 370.015825 604.105627 
L 373.13805 600.535707 
L 376.260275 599.616536 
L 379.3825 599.023782 
L 382.504725 595.621654 
L 385.62695 595.901196 
L 388.749175 596.547297 
L 391.8714 596.334443 
L 394.993625 591.96447 
L 398.11585 591.709179 
L 401.238075 586.220799 
L 404.3603 588.663302 
L 407.482525 583.678432 
L 410.60475 582.829129 
L 413.726975 582.554475 
L 416.8492 582.723013 
L 419.971425 580.866373 
L 423.09365 580.015262 
L 426.215875 577.306087 
L 429.3381 576.947806 
L 432.460325 576.310054 
L 435.58255 576.297277 
L 438.704775 575.274205 
L 441.827 573.56963 
L 444.949225 575.187221 
L 448.07145 574.80861 
L 451.193675 570.552785 
L 454.3159 568.484654 
L 457.438125 567.496751 
L 460.56035 566.301445 
L 463.682575 564.831548 
L 469.927025 565.360207 
L 473.04925 563.572471 
L 476.171475 564.01553 
L 479.2937 561.719464 
L 482.415925 563.357657 
L 485.53815 559.635832 
L 488.660375 558.169622 
L 491.7826 557.609661 
L 494.904825 556.145187 
L 498.02705 554.335067 
L 501.149275 554.521644 
L 504.2715 559.178004 
L 507.393725 560.649092 
L 510.51595 559.910956 
L 513.638175 557.942316 
L 516.7604 555.699465 
L 519.882625 556.185492 
L 523.00485 554.899562 
L 526.127075 555.548995 
L 529.2493 555.58824 
L 532.371525 556.699167 
L 535.49375 556.357048 
L 538.615975 556.605975 
L 541.7382 555.954662 
L 544.860425 552.34196 
L 547.98265 553.599111 
L 551.104875 549.049167 
L 554.2271 550.403246 
L 557.349325 552.289889 
L 560.47155 555.432883 
L 563.593775 555.016 
L 566.716 556.947317 
L 569.838225 557.065777 
L 572.96045 553.50918 
L 576.082675 556.06197 
L 579.2049 555.995447 
L 582.327125 559.210285 
L 585.44935 560.194989 
L 588.571575 558.103053 
L 591.6938 560.960882 
L 594.816025 559.076822 
L 597.93825 560.145211 
L 601.060475 563.163315 
L 604.1827 563.303696 
L 607.304925 563.153608 
L 610.42715 564.011856 
L 613.549375 568.282582 
L 616.6716 569.528482 
L 619.793825 569.532788 
L 622.91605 569.397035 
L 626.038275 568.51794 
L 629.1605 569.168347 
L 632.282725 572.398962 
L 635.40495 571.959642 
L 638.527175 571.826499 
L 641.6494 572.450593 
L 644.771625 572.706853 
L 647.89385 574.029326 
L 651.016075 576.15707 
L 654.1383 578.887223 
L 657.260525 583.419116 
L 660.38275 582.999467 
L 663.504975 583.413368 
L 666.6272 583.976435 
L 669.749425 587.172998 
L 672.87165 589.023236 
L 675.993875 587.059836 
L 679.1161 588.174957 
L 682.238325 588.339197 
L 688.482775 591.936666 
L 688.482775 591.936666 
" clip-path="url(#pe70dc94470)" style="fill: none; stroke: #1f77b4; stroke-width: 1.5; stroke-linecap: square"/>
   </g>
   <g id="line2d_65">
    <path d="M 67.16 598.342047 
L 691.605 598.342047 
" clip-path="url(#pe70dc94470)" style="fill: none; stroke-dasharray: 5.55,2.4; stroke-dashoffset: 0; stroke: #ff0000; stroke-width: 1.5"/>
   </g>
   <g id="line2d_66">
    <path d="M 67.16 593.732953 
L 691.605 593.732953 
" clip-path="url(#pe70dc94470)" style="fill: none; stroke-dasharray: 5.55,2.4; stroke-dashoffset: 0; stroke: #ff0000; stroke-width: 1.5"/>
   </g>
   <g id="patch_18">
    <path d="M 67.16 666.52 
L 67.16 525.555 
" style="fill: none; stroke: #000000; stroke-width: 0.8; stroke-linejoin: miter; stroke-linecap: square"/>
   </g>
   <g id="patch_19">
    <path d="M 691.605 666.52 
L 691.605 525.555 
" style="fill: none; stroke: #000000; stroke-width: 0.8; stroke-linejoin: miter; stroke-linecap: square"/>
   </g>
   <g id="patch_20">
    <path d="M 67.16 666.52 
L 691.605 666.52 
" style="fill: none; stroke: #000000; stroke-width: 0.8; stroke-linejoin: miter; stroke-linecap: square"/>
   </g>
   <g id="patch_21">
    <path d="M 67.16 525.555 
L 691.605 525.555 
" style="fill: none; stroke: #000000; stroke-width: 0.8; stroke-linejoin: miter; stroke-linecap: square"/>
   </g>
  </g>
  <g id="text_33">
   <!-- Errors on positions and velocities at 1Hz -->
   <g transform="translate(190.972312 27.165375) scale(0.168 -0.168)">
    <defs>
     <path id="DejaVuSans-72" d="M 2631 2963 
Q 2534 3019 2420 3045 
Q 2306 3072 2169 3072 
Q 1681 3072 1420 2755 
Q 1159 2438 1159 1844 
L 1159 0 
L 581 0 
L 581 3500 
L 1159 3500 
L 1159 2956 
Q 1341 3275 1631 3429 
Q 1922 3584 2338 3584 
Q 2397 3584 2469 3576 
Q 2541 3569 2628 3553 
L 2631 2963 
z
" transform="scale(0.015625)"/>
     <path id="DejaVuSans-6e" d="M 3513 2113 
L 3513 0 
L 2938 0 
L 2938 2094 
Q 2938 2591 2744 2837 
Q 2550 3084 2163 3084 
Q 1697 3084 1428 2787 
Q 1159 2491 1159 1978 
L 1159 0 
L 581 0 
L 581 3500 
L 1159 3500 
L 1159 2956 
Q 1366 3272 1645 3428 
Q 1925 3584 2291 3584 
Q 2894 3584 3203 3211 
Q 3513 2838 3513 2113 
z
" transform="scale(0.015625)"/>
     <path id="DejaVuSans-64" d="M 2906 2969 
L 2906 4863 
L 3481 4863 
L 3481 0 
L 2906 0 
L 2906 525 
Q 2725 213 2448 61 
Q 2172 -91 1784 -91 
Q 1150 -91 751 415 
Q 353 922 353 1747 
Q 353 2572 751 3078 
Q 1150 3584 1784 3584 
Q 2172 3584 2448 3432 
Q 2725 3281 2906 2969 
z
M 947 1747 
Q 947 1113 1208 752 
Q 1469 391 1925 391 
Q 2381 391 2643 752 
Q 2906 1113 2906 1747 
Q 2906 2381 2643 2742 
Q 2381 3103 1925 3103 
Q 1469 3103 1208 2742 
Q 947 2381 947 1747 
z
" transform="scale(0.015625)"/>
     <path id="DejaVuSans-76" d="M 191 3500 
L 800 3500 
L 1894 563 
L 2988 3500 
L 3597 3500 
L 2284 0 
L 1503 0 
L 191 3500 
z
" transform="scale(0.015625)"/>
     <path id="DejaVuSans-63" d="M 3122 3366 
L 3122 2828 
Q 2878 2963 2633 3030 
Q 2388 3097 2138 3097 
Q 1578 3097 1268 2742 
Q 959 2388 959 1747 
Q 959 1106 1268 751 
Q 1578 397 2138 397 
Q 2388 397 2633 464 
Q 2878 531 3122 666 
L 3122 134 
Q 2881 22 2623 -34 
Q 2366 -91 2075 -91 
Q 1284 -91 818 406 
Q 353 903 353 1747 
Q 353 2603 823 3093 
Q 1294 3584 2113 3584 
Q 2378 3584 2631 3529 
Q 2884 3475 3122 3366 
z
" transform="scale(0.015625)"/>
     <path id="DejaVuSans-48" d="M 628 4666 
L 1259 4666 
L 1259 2753 
L 3553 2753 
L 3553 4666 
L 4184 4666 
L 4184 0 
L 3553 0 
L 3553 2222 
L 1259 2222 
L 1259 0 
L 628 0 
L 628 4666 
z
" transform="scale(0.015625)"/>
     <path id="DejaVuSans-7a" d="M 353 3500 
L 3084 3500 
L 3084 2975 
L 922 459 
L 3084 459 
L 3084 0 
L 275 0 
L 275 525 
L 2438 3041 
L 353 3041 
L 353 3500 
z
" transform="scale(0.015625)"/>
    </defs>
    <use xlink:href="#DejaVuSans-45"/>
    <use xlink:href="#DejaVuSans-72" x="63.183594"/>
    <use xlink:href="#DejaVuSans-72" x="102.546875"/>
    <use xlink:href="#DejaVuSans-6f" x="141.410156"/>
    <use xlink:href="#DejaVuSans-72" x="202.591797"/>
    <use xlink:href="#DejaVuSans-73" x="243.705078"/>
    <use xlink:href="#DejaVuSans-20" x="295.804688"/>
    <use xlink:href="#DejaVuSans-6f" x="327.591797"/>
    <use xlink:href="#DejaVuSans-6e" x="388.773438"/>
    <use xlink:href="#DejaVuSans-20" x="452.152344"/>
    <use xlink:href="#DejaVuSans-70" x="483.939453"/>
    <use xlink:href="#DejaVuSans-6f" x="547.416016"/>
    <use xlink:href="#DejaVuSans-73" x="608.597656"/>
    <use xlink:href="#DejaVuSans-69" x="660.697266"/>
    <use xlink:href="#DejaVuSans-74" x="688.480469"/>
    <use xlink:href="#DejaVuSans-69" x="727.689453"/>
    <use xlink:href="#DejaVuSans-6f" x="755.472656"/>
    <use xlink:href="#DejaVuSans-6e" x="816.654297"/>
    <use xlink:href="#DejaVuSans-73" x="880.033203"/>
    <use xlink:href="#DejaVuSans-20" x="932.132812"/>
    <use xlink:href="#DejaVuSans-61" x="963.919922"/>
    <use xlink:href="#DejaVuSans-6e" x="1025.199219"/>
    <use xlink:href="#DejaVuSans-64" x="1088.578125"/>
    <use xlink:href="#DejaVuSans-20" x="1152.054688"/>
    <use xlink:href="#DejaVuSans-76" x="1183.841797"/>
    <use xlink:href="#DejaVuSans-65" x="1243.021484"/>
    <use xlink:href="#DejaVuSans-6c" x="1304.544922"/>
    <use xlink:href="#DejaVuSans-6f" x="1332.328125"/>
    <use xlink:href="#DejaVuSans-63" x="1393.509766"/>
    <use xlink:href="#DejaVuSans-69" x="1448.490234"/>
    <use xlink:href="#DejaVuSans-74" x="1476.273438"/>
    <use xlink:href="#DejaVuSans-69" x="1515.482422"/>
    <use xlink:href="#DejaVuSans-65" x="1543.265625"/>
    <use xlink:href="#DejaVuSans-73" x="1604.789062"/>
    <use xlink:href="#DejaVuSans-20" x="1656.888672"/>
    <use xlink:href="#DejaVuSans-61" x="1688.675781"/>
    <use xlink:href="#DejaVuSans-74" x="1749.955078"/>
    <use xlink:href="#DejaVuSans-20" x="1789.164062"/>
    <use xlink:href="#DejaVuSans-31" x="1820.951172"/>
    <use xlink:href="#DejaVuSans-48" x="1884.574219"/>
    <use xlink:href="#DejaVuSans-7a" x="1959.769531"/>
   </g>
  </g>
 </g>
 <defs>
  <clipPath id="pf6e0b4d238">
   <rect x="67.16" y="46.8" width="624.445" height="140.965"/>
  </clipPath>
  <clipPath id="pcadb13a5a8">
   <rect x="67.16" y="206.385" width="624.445" height="140.965"/>
  </clipPath>
  <clipPath id="p3669e45b2c">
   <rect x="67.16" y="365.97" width="624.445" height="140.965"/>
  </clipPath>
  <clipPath id="pe70dc94470">
   <rect x="67.16" y="525.555" width="624.445" height="140.965"/>
  </clipPath>
 </defs>
</svg>
