<?xml version="1.0" encoding="utf-8" standalone="no"?>
<!DOCTYPE svg PUBLIC "-//W3C//DTD SVG 1.1//EN"
  "http://www.w3.org/Graphics/SVG/1.1/DTD/svg11.dtd">
<svg xmlns:xlink="http://www.w3.org/1999/xlink" width="720pt" height="720pt" viewBox="0 0 720 720" xmlns="http://www.w3.org/2000/svg" version="1.1">
 <metadata>
  <rdf:RDF xmlns:dc="http://purl.org/dc/elements/1.1/" xmlns:cc="http://creativecommons.org/ns#" xmlns:rdf="http://www.w3.org/1999/02/22-rdf-syntax-ns#">
   <cc:Work>
    <dc:type rdf:resource="http://purl.org/dc/dcmitype/StillImage"/>
    <dc:date>2024-05-24T16:20:45.965971</dc:date>
    <dc:format>image/svg+xml</dc:format>
    <dc:creator>
     <cc:Agent>
      <dc:title>Matplotlib v3.8.3, https://matplotlib.org/</dc:title>
     </cc:Agent>
    </dc:creator>
   </cc:Work>
  </rdf:RDF>
 </metadata>
 <defs>
  <style type="text/css">*{stroke-linejoin: round; stroke-linecap: butt}</style>
 </defs>
 <g id="figure_1">
  <g id="patch_1">
   <path d="M 0 720 
L 720 720 
L 720 0 
L 0 0 
z
" style="fill: #ffffff"/>
  </g>
  <g id="axes_1">
   <g id="patch_2">
    <path d="M 67.25 187.765 
L 691.605 187.765 
L 691.605 46.8 
L 67.25 46.8 
z
" style="fill: #ffffff"/>
   </g>
   <g id="matplotlib.axis_1">
    <g id="xtick_1">
     <g id="line2d_1">
      <defs>
       <path id="mfc377cfdf8" d="M 0 0 
L 0 3.5 
" style="stroke: #000000; stroke-width: 0.8"/>
      </defs>
      <g>
       <use xlink:href="#mfc377cfdf8" x="67.25" y="187.765" style="stroke: #000000; stroke-width: 0.8"/>
      </g>
     </g>
    </g>
    <g id="xtick_2">
     <g id="line2d_2">
      <g>
       <use xlink:href="#mfc377cfdf8" x="145.294375" y="187.765" style="stroke: #000000; stroke-width: 0.8"/>
      </g>
     </g>
    </g>
    <g id="xtick_3">
     <g id="line2d_3">
      <g>
       <use xlink:href="#mfc377cfdf8" x="223.33875" y="187.765" style="stroke: #000000; stroke-width: 0.8"/>
      </g>
     </g>
    </g>
    <g id="xtick_4">
     <g id="line2d_4">
      <g>
       <use xlink:href="#mfc377cfdf8" x="301.383125" y="187.765" style="stroke: #000000; stroke-width: 0.8"/>
      </g>
     </g>
    </g>
    <g id="xtick_5">
     <g id="line2d_5">
      <g>
       <use xlink:href="#mfc377cfdf8" x="379.4275" y="187.765" style="stroke: #000000; stroke-width: 0.8"/>
      </g>
     </g>
    </g>
    <g id="xtick_6">
     <g id="line2d_6">
      <g>
       <use xlink:href="#mfc377cfdf8" x="457.471875" y="187.765" style="stroke: #000000; stroke-width: 0.8"/>
      </g>
     </g>
    </g>
    <g id="xtick_7">
     <g id="line2d_7">
      <g>
       <use xlink:href="#mfc377cfdf8" x="535.51625" y="187.765" style="stroke: #000000; stroke-width: 0.8"/>
      </g>
     </g>
    </g>
    <g id="xtick_8">
     <g id="line2d_8">
      <g>
       <use xlink:href="#mfc377cfdf8" x="613.560625" y="187.765" style="stroke: #000000; stroke-width: 0.8"/>
      </g>
     </g>
    </g>
    <g id="xtick_9">
     <g id="line2d_9">
      <g>
       <use xlink:href="#mfc377cfdf8" x="691.605" y="187.765" style="stroke: #000000; stroke-width: 0.8"/>
      </g>
     </g>
    </g>
   </g>
   <g id="matplotlib.axis_2">
    <g id="ytick_1">
     <g id="line2d_10">
      <defs>
       <path id="m19084489a5" d="M 0 0 
L -3.5 0 
" style="stroke: #000000; stroke-width: 0.8"/>
      </defs>
      <g>
       <use xlink:href="#m19084489a5" x="67.25" y="173.440935" style="stroke: #000000; stroke-width: 0.8"/>
      </g>
     </g>
     <g id="text_1">
      <!-- -2.0 -->
      <g transform="translate(32.934688 178.759841) scale(0.14 -0.14)">
       <defs>
        <path id="DejaVuSans-2d" d="M 313 2009 
L 1997 2009 
L 1997 1497 
L 313 1497 
L 313 2009 
z
" transform="scale(0.015625)"/>
        <path id="DejaVuSans-32" d="M 1228 531 
L 3431 531 
L 3431 0 
L 469 0 
L 469 531 
Q 828 903 1448 1529 
Q 2069 2156 2228 2338 
Q 2531 2678 2651 2914 
Q 2772 3150 2772 3378 
Q 2772 3750 2511 3984 
Q 2250 4219 1831 4219 
Q 1534 4219 1204 4116 
Q 875 4013 500 3803 
L 500 4441 
Q 881 4594 1212 4672 
Q 1544 4750 1819 4750 
Q 2544 4750 2975 4387 
Q 3406 4025 3406 3419 
Q 3406 3131 3298 2873 
Q 3191 2616 2906 2266 
Q 2828 2175 2409 1742 
Q 1991 1309 1228 531 
z
" transform="scale(0.015625)"/>
        <path id="DejaVuSans-2e" d="M 684 794 
L 1344 794 
L 1344 0 
L 684 0 
L 684 794 
z
" transform="scale(0.015625)"/>
        <path id="DejaVuSans-30" d="M 2034 4250 
Q 1547 4250 1301 3770 
Q 1056 3291 1056 2328 
Q 1056 1369 1301 889 
Q 1547 409 2034 409 
Q 2525 409 2770 889 
Q 3016 1369 3016 2328 
Q 3016 3291 2770 3770 
Q 2525 4250 2034 4250 
z
M 2034 4750 
Q 2819 4750 3233 4129 
Q 3647 3509 3647 2328 
Q 3647 1150 3233 529 
Q 2819 -91 2034 -91 
Q 1250 -91 836 529 
Q 422 1150 422 2328 
Q 422 3509 836 4129 
Q 1250 4750 2034 4750 
z
" transform="scale(0.015625)"/>
       </defs>
       <use xlink:href="#DejaVuSans-2d"/>
       <use xlink:href="#DejaVuSans-32" x="36.083984"/>
       <use xlink:href="#DejaVuSans-2e" x="99.707031"/>
       <use xlink:href="#DejaVuSans-30" x="131.494141"/>
      </g>
     </g>
    </g>
    <g id="ytick_2">
     <g id="line2d_11">
      <g>
       <use xlink:href="#m19084489a5" x="67.25" y="145.361717" style="stroke: #000000; stroke-width: 0.8"/>
      </g>
     </g>
     <g id="text_2">
      <!-- -1.0 -->
      <g transform="translate(32.934688 150.680624) scale(0.14 -0.14)">
       <defs>
        <path id="DejaVuSans-31" d="M 794 531 
L 1825 531 
L 1825 4091 
L 703 3866 
L 703 4441 
L 1819 4666 
L 2450 4666 
L 2450 531 
L 3481 531 
L 3481 0 
L 794 0 
L 794 531 
z
" transform="scale(0.015625)"/>
       </defs>
       <use xlink:href="#DejaVuSans-2d"/>
       <use xlink:href="#DejaVuSans-31" x="36.083984"/>
       <use xlink:href="#DejaVuSans-2e" x="99.707031"/>
       <use xlink:href="#DejaVuSans-30" x="131.494141"/>
      </g>
     </g>
    </g>
    <g id="ytick_3">
     <g id="line2d_12">
      <g>
       <use xlink:href="#m19084489a5" x="67.25" y="117.2825" style="stroke: #000000; stroke-width: 0.8"/>
      </g>
     </g>
     <g id="text_3">
      <!-- 0.0 -->
      <g transform="translate(37.985625 122.601406) scale(0.14 -0.14)">
       <use xlink:href="#DejaVuSans-30"/>
       <use xlink:href="#DejaVuSans-2e" x="63.623047"/>
       <use xlink:href="#DejaVuSans-30" x="95.410156"/>
      </g>
     </g>
    </g>
    <g id="ytick_4">
     <g id="line2d_13">
      <g>
       <use xlink:href="#m19084489a5" x="67.25" y="89.203283" style="stroke: #000000; stroke-width: 0.8"/>
      </g>
     </g>
     <g id="text_4">
      <!-- 1.0 -->
      <g transform="translate(37.985625 94.522189) scale(0.14 -0.14)">
       <use xlink:href="#DejaVuSans-31"/>
       <use xlink:href="#DejaVuSans-2e" x="63.623047"/>
       <use xlink:href="#DejaVuSans-30" x="95.410156"/>
      </g>
     </g>
    </g>
    <g id="ytick_5">
     <g id="line2d_14">
      <g>
       <use xlink:href="#m19084489a5" x="67.25" y="61.124065" style="stroke: #000000; stroke-width: 0.8"/>
      </g>
     </g>
     <g id="text_5">
      <!-- 2.0 -->
      <g transform="translate(37.985625 66.442971) scale(0.14 -0.14)">
       <use xlink:href="#DejaVuSans-32"/>
       <use xlink:href="#DejaVuSans-2e" x="63.623047"/>
       <use xlink:href="#DejaVuSans-30" x="95.410156"/>
      </g>
     </g>
    </g>
    <g id="text_6">
     <!-- Pos N [m] -->
     <g transform="translate(26.023125 151.146094) rotate(-90) scale(0.14 -0.14)">
      <defs>
       <path id="DejaVuSans-50" d="M 1259 4147 
L 1259 2394 
L 2053 2394 
Q 2494 2394 2734 2622 
Q 2975 2850 2975 3272 
Q 2975 3691 2734 3919 
Q 2494 4147 2053 4147 
L 1259 4147 
z
M 628 4666 
L 2053 4666 
Q 2838 4666 3239 4311 
Q 3641 3956 3641 3272 
Q 3641 2581 3239 2228 
Q 2838 1875 2053 1875 
L 1259 1875 
L 1259 0 
L 628 0 
L 628 4666 
z
" transform="scale(0.015625)"/>
       <path id="DejaVuSans-6f" d="M 1959 3097 
Q 1497 3097 1228 2736 
Q 959 2375 959 1747 
Q 959 1119 1226 758 
Q 1494 397 1959 397 
Q 2419 397 2687 759 
Q 2956 1122 2956 1747 
Q 2956 2369 2687 2733 
Q 2419 3097 1959 3097 
z
M 1959 3584 
Q 2709 3584 3137 3096 
Q 3566 2609 3566 1747 
Q 3566 888 3137 398 
Q 2709 -91 1959 -91 
Q 1206 -91 779 398 
Q 353 888 353 1747 
Q 353 2609 779 3096 
Q 1206 3584 1959 3584 
z
" transform="scale(0.015625)"/>
       <path id="DejaVuSans-73" d="M 2834 3397 
L 2834 2853 
Q 2591 2978 2328 3040 
Q 2066 3103 1784 3103 
Q 1356 3103 1142 2972 
Q 928 2841 928 2578 
Q 928 2378 1081 2264 
Q 1234 2150 1697 2047 
L 1894 2003 
Q 2506 1872 2764 1633 
Q 3022 1394 3022 966 
Q 3022 478 2636 193 
Q 2250 -91 1575 -91 
Q 1294 -91 989 -36 
Q 684 19 347 128 
L 347 722 
Q 666 556 975 473 
Q 1284 391 1588 391 
Q 1994 391 2212 530 
Q 2431 669 2431 922 
Q 2431 1156 2273 1281 
Q 2116 1406 1581 1522 
L 1381 1569 
Q 847 1681 609 1914 
Q 372 2147 372 2553 
Q 372 3047 722 3315 
Q 1072 3584 1716 3584 
Q 2034 3584 2315 3537 
Q 2597 3491 2834 3397 
z
" transform="scale(0.015625)"/>
       <path id="DejaVuSans-20" transform="scale(0.015625)"/>
       <path id="DejaVuSans-4e" d="M 628 4666 
L 1478 4666 
L 3547 763 
L 3547 4666 
L 4159 4666 
L 4159 0 
L 3309 0 
L 1241 3903 
L 1241 0 
L 628 0 
L 628 4666 
z
" transform="scale(0.015625)"/>
       <path id="DejaVuSans-5b" d="M 550 4863 
L 1875 4863 
L 1875 4416 
L 1125 4416 
L 1125 -397 
L 1875 -397 
L 1875 -844 
L 550 -844 
L 550 4863 
z
" transform="scale(0.015625)"/>
       <path id="DejaVuSans-6d" d="M 3328 2828 
Q 3544 3216 3844 3400 
Q 4144 3584 4550 3584 
Q 5097 3584 5394 3201 
Q 5691 2819 5691 2113 
L 5691 0 
L 5113 0 
L 5113 2094 
Q 5113 2597 4934 2840 
Q 4756 3084 4391 3084 
Q 3944 3084 3684 2787 
Q 3425 2491 3425 1978 
L 3425 0 
L 2847 0 
L 2847 2094 
Q 2847 2600 2669 2842 
Q 2491 3084 2119 3084 
Q 1678 3084 1418 2786 
Q 1159 2488 1159 1978 
L 1159 0 
L 581 0 
L 581 3500 
L 1159 3500 
L 1159 2956 
Q 1356 3278 1631 3431 
Q 1906 3584 2284 3584 
Q 2666 3584 2933 3390 
Q 3200 3197 3328 2828 
z
" transform="scale(0.015625)"/>
       <path id="DejaVuSans-5d" d="M 1947 4863 
L 1947 -844 
L 622 -844 
L 622 -397 
L 1369 -397 
L 1369 4416 
L 622 4416 
L 622 4863 
L 1947 4863 
z
" transform="scale(0.015625)"/>
      </defs>
      <use xlink:href="#DejaVuSans-50"/>
      <use xlink:href="#DejaVuSans-6f" x="56.677734"/>
      <use xlink:href="#DejaVuSans-73" x="117.859375"/>
      <use xlink:href="#DejaVuSans-20" x="169.958984"/>
      <use xlink:href="#DejaVuSans-4e" x="201.746094"/>
      <use xlink:href="#DejaVuSans-20" x="276.550781"/>
      <use xlink:href="#DejaVuSans-5b" x="308.337891"/>
      <use xlink:href="#DejaVuSans-6d" x="347.351562"/>
      <use xlink:href="#DejaVuSans-5d" x="444.763672"/>
     </g>
    </g>
   </g>
   <g id="line2d_15">
    <path d="M 67.25 117.2825 
L 70.371775 123.296143 
L 73.49355 119.061596 
L 76.615325 113.682554 
L 79.7371 114.138907 
L 82.858875 115.25778 
L 85.98065 122.646123 
L 89.102425 126.405758 
L 92.2242 134.288535 
L 95.345975 110.491509 
L 98.46775 122.124371 
L 101.589525 125.498764 
L 104.7113 127.371492 
L 107.833075 113.886134 
L 110.95485 116.27119 
L 114.076625 105.163462 
L 117.1984 115.977985 
L 120.320175 114.916818 
L 123.44195 123.64256 
L 126.563725 102.405299 
L 129.6855 118.677834 
L 132.807275 116.275865 
L 135.92905 111.352032 
L 139.050825 110.336774 
L 142.1726 115.363015 
L 145.294375 117.985007 
L 148.41615 117.617056 
L 151.537925 118.663022 
L 154.6597 109.365951 
L 157.781475 93.03779 
L 160.90325 108.763778 
L 164.025025 126.60476 
L 167.1468 124.971337 
L 170.268575 98.844654 
L 173.39035 112.855129 
L 176.512125 101.396486 
L 179.6339 94.311393 
L 182.755675 110.713957 
L 185.87745 111.262084 
L 188.999225 101.366065 
L 192.121 112.790098 
L 198.36455 124.034854 
L 201.486325 130.152182 
L 204.6081 129.436822 
L 207.729875 132.997842 
L 210.85165 123.543873 
L 213.973425 124.670133 
L 217.0952 117.115619 
L 220.216975 128.681206 
L 223.33875 119.508983 
L 226.460525 109.282655 
L 229.5823 128.723673 
L 232.704075 120.197162 
L 235.82585 106.75239 
L 238.947625 120.65116 
L 242.0694 104.63872 
L 245.191175 105.959848 
L 248.31295 117.693198 
L 251.434725 119.110517 
L 254.5565 113.70865 
L 257.678275 114.324712 
L 260.80005 110.848437 
L 263.921825 121.696186 
L 267.0436 118.641953 
L 270.165375 129.935801 
L 273.28715 124.796593 
L 276.408925 127.725088 
L 279.5307 127.824691 
L 282.652475 110.349528 
L 285.77425 101.599705 
L 288.896025 102.40667 
L 292.0178 119.310493 
L 295.139575 122.798228 
L 298.26135 110.226875 
L 301.383125 111.587119 
L 304.5049 94.027649 
L 307.626675 101.187267 
L 310.74845 108.721423 
L 313.870225 117.578588 
L 316.992 118.137076 
L 320.113775 119.855471 
L 323.23555 112.706059 
L 326.357325 106.047217 
L 332.600875 130.265296 
L 335.72265 140.961022 
L 338.844425 125.053383 
L 341.9662 128.446052 
L 345.087975 140.128524 
L 348.20975 124.512652 
L 351.331525 96.254944 
L 354.4533 103.054931 
L 357.575075 102.571556 
L 360.69685 109.844538 
L 363.818625 116.051347 
L 366.9404 110.264815 
L 370.062175 116.806151 
L 373.18395 115.776736 
L 376.305725 114.207107 
L 379.4275 121.811392 
L 382.549275 111.66785 
L 385.67105 115.489652 
L 388.792825 123.32773 
L 391.9146 116.423521 
L 395.036375 124.337862 
L 398.15815 120.977906 
L 401.279925 118.828354 
L 404.4017 108.071533 
L 407.523475 107.561833 
L 410.64525 112.746124 
L 413.767025 108.921662 
L 416.8888 101.606975 
L 420.010575 105.033899 
L 423.13235 112.570678 
L 426.254125 128.481747 
L 429.3759 134.66971 
L 432.497675 129.747246 
L 435.61945 128.169711 
L 441.863 118.446248 
L 444.984775 112.029897 
L 448.10655 114.340335 
L 451.228325 111.719953 
L 454.3501 114.20141 
L 457.471875 133.808052 
L 460.59365 135.785804 
L 463.715425 128.144518 
L 466.8372 132.052255 
L 469.958975 118.598871 
L 473.08075 102.603234 
L 476.202525 97.408783 
L 479.3243 109.023927 
L 482.446075 102.196771 
L 485.56785 109.775501 
L 488.689625 118.774374 
L 491.8114 125.814993 
L 494.933175 126.018833 
L 498.05495 125.707018 
L 501.176725 120.039394 
L 504.2985 116.650707 
L 507.420275 116.498015 
L 510.54205 113.128392 
L 513.663825 104.916422 
L 516.7856 102.841569 
L 519.907375 123.924732 
L 523.02915 145.845252 
L 526.150925 126.146279 
L 529.2727 132.326266 
L 532.394475 126.215659 
L 535.51625 130.655591 
L 538.638025 139.052151 
L 541.7598 123.093951 
L 544.881575 111.309609 
L 548.00335 117.350805 
L 551.125125 139.955547 
L 554.2469 135.092196 
L 557.368675 122.204973 
L 560.49045 130.738338 
L 563.612225 121.934331 
L 566.734 118.378597 
L 569.855775 111.81913 
L 572.97755 112.784974 
L 576.099325 123.804273 
L 579.2211 111.441647 
L 582.342875 115.485467 
L 585.46465 117.333917 
L 588.586425 126.278459 
L 591.7082 126.861374 
L 594.829975 130.130306 
L 597.95175 125.231478 
L 601.073525 105.432844 
L 604.1953 121.36424 
L 607.317075 134.352492 
L 610.43885 114.21724 
L 613.560625 116.087419 
L 616.6824 122.2641 
L 619.804175 111.199033 
L 622.92595 118.955972 
L 626.047725 102.903568 
L 629.1695 103.576945 
L 632.291275 115.455843 
L 635.41305 99.641435 
L 638.534825 114.067657 
L 641.6566 111.470226 
L 644.778375 113.070348 
L 647.90015 105.038444 
L 651.021925 97.995649 
L 654.1437 107.993542 
L 657.265475 121.440749 
L 660.38725 117.977185 
L 663.509025 124.494744 
L 666.6308 104.224404 
L 669.752575 108.363867 
L 672.87435 116.517642 
L 675.996125 116.649728 
L 679.1179 129.522169 
L 682.239675 133.183995 
L 685.36145 114.921481 
L 688.483225 119.819859 
L 688.483225 119.819859 
" clip-path="url(#p1024e9abad)" style="fill: none; stroke: #1f77b4; stroke-width: 1.5; stroke-linecap: square"/>
   </g>
   <g id="line2d_16">
    <path d="M 67.25 164.270833 
L 691.605 164.270833 
" clip-path="url(#p1024e9abad)" style="fill: none; stroke-dasharray: 5.55,2.4; stroke-dashoffset: 0; stroke: #ff0000; stroke-width: 1.5"/>
   </g>
   <g id="line2d_17">
    <path d="M 67.25 70.294167 
L 691.605 70.294167 
" clip-path="url(#p1024e9abad)" style="fill: none; stroke-dasharray: 5.55,2.4; stroke-dashoffset: 0; stroke: #ff0000; stroke-width: 1.5"/>
   </g>
   <g id="patch_3">
    <path d="M 67.25 187.765 
L 67.25 46.8 
" style="fill: none; stroke: #000000; stroke-width: 0.8; stroke-linejoin: miter; stroke-linecap: square"/>
   </g>
   <g id="patch_4">
    <path d="M 691.605 187.765 
L 691.605 46.8 
" style="fill: none; stroke: #000000; stroke-width: 0.8; stroke-linejoin: miter; stroke-linecap: square"/>
   </g>
   <g id="patch_5">
    <path d="M 67.25 187.765 
L 691.605 187.765 
" style="fill: none; stroke: #000000; stroke-width: 0.8; stroke-linejoin: miter; stroke-linecap: square"/>
   </g>
   <g id="patch_6">
    <path d="M 67.25 46.8 
L 691.605 46.8 
" style="fill: none; stroke: #000000; stroke-width: 0.8; stroke-linejoin: miter; stroke-linecap: square"/>
   </g>
  </g>
  <g id="axes_2">
   <g id="patch_7">
    <path d="M 67.25 347.35 
L 691.605 347.35 
L 691.605 206.385 
L 67.25 206.385 
z
" style="fill: #ffffff"/>
   </g>
   <g id="matplotlib.axis_3">
    <g id="xtick_10">
     <g id="line2d_18">
      <g>
       <use xlink:href="#mfc377cfdf8" x="67.25" y="347.35" style="stroke: #000000; stroke-width: 0.8"/>
      </g>
     </g>
    </g>
    <g id="xtick_11">
     <g id="line2d_19">
      <g>
       <use xlink:href="#mfc377cfdf8" x="145.294375" y="347.35" style="stroke: #000000; stroke-width: 0.8"/>
      </g>
     </g>
    </g>
    <g id="xtick_12">
     <g id="line2d_20">
      <g>
       <use xlink:href="#mfc377cfdf8" x="223.33875" y="347.35" style="stroke: #000000; stroke-width: 0.8"/>
      </g>
     </g>
    </g>
    <g id="xtick_13">
     <g id="line2d_21">
      <g>
       <use xlink:href="#mfc377cfdf8" x="301.383125" y="347.35" style="stroke: #000000; stroke-width: 0.8"/>
      </g>
     </g>
    </g>
    <g id="xtick_14">
     <g id="line2d_22">
      <g>
       <use xlink:href="#mfc377cfdf8" x="379.4275" y="347.35" style="stroke: #000000; stroke-width: 0.8"/>
      </g>
     </g>
    </g>
    <g id="xtick_15">
     <g id="line2d_23">
      <g>
       <use xlink:href="#mfc377cfdf8" x="457.471875" y="347.35" style="stroke: #000000; stroke-width: 0.8"/>
      </g>
     </g>
    </g>
    <g id="xtick_16">
     <g id="line2d_24">
      <g>
       <use xlink:href="#mfc377cfdf8" x="535.51625" y="347.35" style="stroke: #000000; stroke-width: 0.8"/>
      </g>
     </g>
    </g>
    <g id="xtick_17">
     <g id="line2d_25">
      <g>
       <use xlink:href="#mfc377cfdf8" x="613.560625" y="347.35" style="stroke: #000000; stroke-width: 0.8"/>
      </g>
     </g>
    </g>
    <g id="xtick_18">
     <g id="line2d_26">
      <g>
       <use xlink:href="#mfc377cfdf8" x="691.605" y="347.35" style="stroke: #000000; stroke-width: 0.8"/>
      </g>
     </g>
    </g>
   </g>
   <g id="matplotlib.axis_4">
    <g id="ytick_6">
     <g id="line2d_27">
      <g>
       <use xlink:href="#m19084489a5" x="67.25" y="333.025935" style="stroke: #000000; stroke-width: 0.8"/>
      </g>
     </g>
     <g id="text_7">
      <!-- -2.0 -->
      <g transform="translate(32.934688 338.344841) scale(0.14 -0.14)">
       <use xlink:href="#DejaVuSans-2d"/>
       <use xlink:href="#DejaVuSans-32" x="36.083984"/>
       <use xlink:href="#DejaVuSans-2e" x="99.707031"/>
       <use xlink:href="#DejaVuSans-30" x="131.494141"/>
      </g>
     </g>
    </g>
    <g id="ytick_7">
     <g id="line2d_28">
      <g>
       <use xlink:href="#m19084489a5" x="67.25" y="304.946717" style="stroke: #000000; stroke-width: 0.8"/>
      </g>
     </g>
     <g id="text_8">
      <!-- -1.0 -->
      <g transform="translate(32.934688 310.265624) scale(0.14 -0.14)">
       <use xlink:href="#DejaVuSans-2d"/>
       <use xlink:href="#DejaVuSans-31" x="36.083984"/>
       <use xlink:href="#DejaVuSans-2e" x="99.707031"/>
       <use xlink:href="#DejaVuSans-30" x="131.494141"/>
      </g>
     </g>
    </g>
    <g id="ytick_8">
     <g id="line2d_29">
      <g>
       <use xlink:href="#m19084489a5" x="67.25" y="276.8675" style="stroke: #000000; stroke-width: 0.8"/>
      </g>
     </g>
     <g id="text_9">
      <!-- 0.0 -->
      <g transform="translate(37.985625 282.186406) scale(0.14 -0.14)">
       <use xlink:href="#DejaVuSans-30"/>
       <use xlink:href="#DejaVuSans-2e" x="63.623047"/>
       <use xlink:href="#DejaVuSans-30" x="95.410156"/>
      </g>
     </g>
    </g>
    <g id="ytick_9">
     <g id="line2d_30">
      <g>
       <use xlink:href="#m19084489a5" x="67.25" y="248.788283" style="stroke: #000000; stroke-width: 0.8"/>
      </g>
     </g>
     <g id="text_10">
      <!-- 1.0 -->
      <g transform="translate(37.985625 254.107189) scale(0.14 -0.14)">
       <use xlink:href="#DejaVuSans-31"/>
       <use xlink:href="#DejaVuSans-2e" x="63.623047"/>
       <use xlink:href="#DejaVuSans-30" x="95.410156"/>
      </g>
     </g>
    </g>
    <g id="ytick_10">
     <g id="line2d_31">
      <g>
       <use xlink:href="#m19084489a5" x="67.25" y="220.709065" style="stroke: #000000; stroke-width: 0.8"/>
      </g>
     </g>
     <g id="text_11">
      <!-- 2.0 -->
      <g transform="translate(37.985625 226.027971) scale(0.14 -0.14)">
       <use xlink:href="#DejaVuSans-32"/>
       <use xlink:href="#DejaVuSans-2e" x="63.623047"/>
       <use xlink:href="#DejaVuSans-30" x="95.410156"/>
      </g>
     </g>
    </g>
    <g id="text_12">
     <!-- Pos E [m] -->
     <g transform="translate(26.023125 309.917344) rotate(-90) scale(0.14 -0.14)">
      <defs>
       <path id="DejaVuSans-45" d="M 628 4666 
L 3578 4666 
L 3578 4134 
L 1259 4134 
L 1259 2753 
L 3481 2753 
L 3481 2222 
L 1259 2222 
L 1259 531 
L 3634 531 
L 3634 0 
L 628 0 
L 628 4666 
z
" transform="scale(0.015625)"/>
      </defs>
      <use xlink:href="#DejaVuSans-50"/>
      <use xlink:href="#DejaVuSans-6f" x="56.677734"/>
      <use xlink:href="#DejaVuSans-73" x="117.859375"/>
      <use xlink:href="#DejaVuSans-20" x="169.958984"/>
      <use xlink:href="#DejaVuSans-45" x="201.746094"/>
      <use xlink:href="#DejaVuSans-20" x="264.929688"/>
      <use xlink:href="#DejaVuSans-5b" x="296.716797"/>
      <use xlink:href="#DejaVuSans-6d" x="335.730469"/>
      <use xlink:href="#DejaVuSans-5d" x="433.142578"/>
     </g>
    </g>
   </g>
   <g id="line2d_32">
    <path d="M 67.25 276.8675 
L 70.371775 269.35103 
L 73.49355 263.891435 
L 76.615325 264.169788 
L 79.7371 262.628568 
L 85.98065 291.623725 
L 89.102425 272.748617 
L 92.2242 276.155928 
L 95.345975 278.164463 
L 98.46775 265.561293 
L 101.589525 265.04242 
L 104.7113 266.709544 
L 107.833075 253.316698 
L 110.95485 270.455172 
L 114.076625 267.703118 
L 117.1984 272.853612 
L 120.320175 273.707242 
L 123.44195 262.609754 
L 126.563725 264.904497 
L 129.6855 266.771821 
L 132.807275 263.377015 
L 139.050825 284.369996 
L 142.1726 291.212925 
L 145.294375 301.757363 
L 148.41615 271.244414 
L 151.537925 280.010506 
L 154.6597 279.231409 
L 157.781475 279.483585 
L 160.90325 274.704042 
L 164.025025 267.64331 
L 167.1468 263.754692 
L 170.268575 275.074478 
L 173.39035 278.64494 
L 176.512125 276.113073 
L 179.6339 278.693678 
L 182.755675 263.852179 
L 185.87745 264.965172 
L 188.999225 264.695453 
L 192.121 265.70309 
L 195.242775 262.111971 
L 198.36455 268.825774 
L 201.486325 285.896074 
L 204.6081 280.280877 
L 207.729875 284.524339 
L 210.85165 285.470419 
L 213.973425 275.691081 
L 217.0952 264.111875 
L 220.216975 268.934139 
L 223.33875 270.577759 
L 226.460525 259.624422 
L 229.5823 266.221743 
L 232.704075 250.332599 
L 235.82585 259.07939 
L 238.947625 285.762238 
L 242.0694 278.772471 
L 245.191175 275.602979 
L 248.31295 265.270629 
L 251.434725 264.822085 
L 254.5565 272.612857 
L 257.678275 287.025207 
L 260.80005 285.844727 
L 263.921825 289.245549 
L 267.0436 288.140935 
L 270.165375 276.662543 
L 273.28715 260.525723 
L 276.408925 263.518644 
L 279.5307 281.074582 
L 282.652475 277.374287 
L 285.77425 267.482444 
L 288.896025 277.406896 
L 292.0178 279.620675 
L 295.139575 279.056935 
L 298.26135 285.267739 
L 301.383125 276.075106 
L 304.5049 276.95884 
L 307.626675 273.254346 
L 310.74845 282.771934 
L 313.870225 284.648197 
L 316.992 274.927393 
L 320.113775 278.519322 
L 323.23555 262.846282 
L 326.357325 272.589549 
L 329.4791 274.074752 
L 332.600875 268.569173 
L 335.72265 285.791307 
L 338.844425 298.897063 
L 341.9662 302.858735 
L 345.087975 278.835183 
L 348.20975 279.816679 
L 351.331525 254.736836 
L 354.4533 268.565311 
L 357.575075 272.478272 
L 363.818625 253.130716 
L 366.9404 247.855365 
L 373.18395 259.571774 
L 376.305725 266.755202 
L 379.4275 268.656689 
L 382.549275 280.418764 
L 385.67105 288.740604 
L 388.792825 284.907551 
L 391.9146 282.725015 
L 395.036375 283.568893 
L 398.15815 273.998307 
L 401.279925 266.258617 
L 404.4017 270.30438 
L 407.523475 261.582531 
L 410.64525 279.74797 
L 413.767025 282.609997 
L 416.8888 287.580123 
L 420.010575 299.546402 
L 423.13235 289.803216 
L 426.254125 283.087959 
L 429.3759 265.114012 
L 432.497675 263.352323 
L 435.61945 278.801176 
L 438.741225 263.529307 
L 441.863 259.61351 
L 444.984775 263.962557 
L 448.10655 274.328621 
L 451.228325 286.604059 
L 454.3501 287.451978 
L 457.471875 273.554465 
L 460.59365 257.863319 
L 463.715425 252.810513 
L 469.958975 285.915341 
L 473.08075 283.286551 
L 476.202525 296.552099 
L 479.3243 285.014042 
L 482.446075 281.01714 
L 485.56785 281.785321 
L 488.689625 292.561161 
L 491.8114 280.384755 
L 494.933175 281.746381 
L 498.05495 288.729678 
L 501.176725 307.736894 
L 504.2985 293.05234 
L 507.420275 267.014578 
L 510.54205 253.610948 
L 513.663825 267.10056 
L 516.7856 278.486972 
L 519.907375 275.577216 
L 523.02915 285.713753 
L 526.150925 279.802456 
L 529.2727 271.337138 
L 532.394475 262.52641 
L 535.51625 269.916117 
L 538.638025 276.176286 
L 541.7598 285.513444 
L 544.881575 289.70666 
L 548.00335 285.642768 
L 551.125125 277.169638 
L 554.2469 267.480747 
L 557.368675 277.715721 
L 560.49045 264.665893 
L 563.612225 272.395293 
L 566.734 275.60007 
L 569.855775 283.552212 
L 572.97755 302.286875 
L 576.099325 283.006798 
L 579.2211 271.214177 
L 582.342875 274.104512 
L 585.46465 274.094114 
L 588.586425 270.604196 
L 591.7082 287.011349 
L 594.829975 287.657813 
L 597.95175 275.161477 
L 601.073525 285.287206 
L 604.1953 278.248207 
L 607.317075 288.151299 
L 610.43885 278.173299 
L 613.560625 276.201753 
L 616.6824 289.429615 
L 619.804175 273.051425 
L 622.92595 279.416158 
L 626.047725 284.662275 
L 629.1695 278.704483 
L 632.291275 266.531624 
L 635.41305 278.851024 
L 638.534825 277.637 
L 641.6566 273.243771 
L 644.778375 268.310639 
L 647.90015 270.367949 
L 651.021925 276.890754 
L 654.1437 284.712255 
L 657.265475 280.598253 
L 660.38725 287.401914 
L 663.509025 307.265434 
L 666.6308 288.437158 
L 669.752575 271.557724 
L 672.87435 291.203924 
L 675.996125 292.325453 
L 679.1179 277.866053 
L 682.239675 256.604693 
L 685.36145 263.461688 
L 688.483225 276.356724 
L 688.483225 276.356724 
" clip-path="url(#p8cdd76b0c3)" style="fill: none; stroke: #1f77b4; stroke-width: 1.5; stroke-linecap: square"/>
   </g>
   <g id="line2d_33">
    <path d="M 67.25 323.855833 
L 691.605 323.855833 
" clip-path="url(#p8cdd76b0c3)" style="fill: none; stroke-dasharray: 5.55,2.4; stroke-dashoffset: 0; stroke: #ff0000; stroke-width: 1.5"/>
   </g>
   <g id="line2d_34">
    <path d="M 67.25 229.879167 
L 691.605 229.879167 
" clip-path="url(#p8cdd76b0c3)" style="fill: none; stroke-dasharray: 5.55,2.4; stroke-dashoffset: 0; stroke: #ff0000; stroke-width: 1.5"/>
   </g>
   <g id="patch_8">
    <path d="M 67.25 347.35 
L 67.25 206.385 
" style="fill: none; stroke: #000000; stroke-width: 0.8; stroke-linejoin: miter; stroke-linecap: square"/>
   </g>
   <g id="patch_9">
    <path d="M 691.605 347.35 
L 691.605 206.385 
" style="fill: none; stroke: #000000; stroke-width: 0.8; stroke-linejoin: miter; stroke-linecap: square"/>
   </g>
   <g id="patch_10">
    <path d="M 67.25 347.35 
L 691.605 347.35 
" style="fill: none; stroke: #000000; stroke-width: 0.8; stroke-linejoin: miter; stroke-linecap: square"/>
   </g>
   <g id="patch_11">
    <path d="M 67.25 206.385 
L 691.605 206.385 
" style="fill: none; stroke: #000000; stroke-width: 0.8; stroke-linejoin: miter; stroke-linecap: square"/>
   </g>
  </g>
  <g id="axes_3">
   <g id="patch_12">
    <path d="M 67.25 506.935 
L 691.605 506.935 
L 691.605 365.97 
L 67.25 365.97 
z
" style="fill: #ffffff"/>
   </g>
   <g id="matplotlib.axis_5">
    <g id="xtick_19">
     <g id="line2d_35">
      <g>
       <use xlink:href="#mfc377cfdf8" x="67.25" y="506.935" style="stroke: #000000; stroke-width: 0.8"/>
      </g>
     </g>
    </g>
    <g id="xtick_20">
     <g id="line2d_36">
      <g>
       <use xlink:href="#mfc377cfdf8" x="145.294375" y="506.935" style="stroke: #000000; stroke-width: 0.8"/>
      </g>
     </g>
    </g>
    <g id="xtick_21">
     <g id="line2d_37">
      <g>
       <use xlink:href="#mfc377cfdf8" x="223.33875" y="506.935" style="stroke: #000000; stroke-width: 0.8"/>
      </g>
     </g>
    </g>
    <g id="xtick_22">
     <g id="line2d_38">
      <g>
       <use xlink:href="#mfc377cfdf8" x="301.383125" y="506.935" style="stroke: #000000; stroke-width: 0.8"/>
      </g>
     </g>
    </g>
    <g id="xtick_23">
     <g id="line2d_39">
      <g>
       <use xlink:href="#mfc377cfdf8" x="379.4275" y="506.935" style="stroke: #000000; stroke-width: 0.8"/>
      </g>
     </g>
    </g>
    <g id="xtick_24">
     <g id="line2d_40">
      <g>
       <use xlink:href="#mfc377cfdf8" x="457.471875" y="506.935" style="stroke: #000000; stroke-width: 0.8"/>
      </g>
     </g>
    </g>
    <g id="xtick_25">
     <g id="line2d_41">
      <g>
       <use xlink:href="#mfc377cfdf8" x="535.51625" y="506.935" style="stroke: #000000; stroke-width: 0.8"/>
      </g>
     </g>
    </g>
    <g id="xtick_26">
     <g id="line2d_42">
      <g>
       <use xlink:href="#mfc377cfdf8" x="613.560625" y="506.935" style="stroke: #000000; stroke-width: 0.8"/>
      </g>
     </g>
    </g>
    <g id="xtick_27">
     <g id="line2d_43">
      <g>
       <use xlink:href="#mfc377cfdf8" x="691.605" y="506.935" style="stroke: #000000; stroke-width: 0.8"/>
      </g>
     </g>
    </g>
   </g>
   <g id="matplotlib.axis_6">
    <g id="ytick_11">
     <g id="line2d_44">
      <g>
       <use xlink:href="#m19084489a5" x="67.25" y="475.982903" style="stroke: #000000; stroke-width: 0.8"/>
      </g>
     </g>
     <g id="text_13">
      <!-- -0.5 -->
      <g transform="translate(32.934688 481.301809) scale(0.14 -0.14)">
       <defs>
        <path id="DejaVuSans-35" d="M 691 4666 
L 3169 4666 
L 3169 4134 
L 1269 4134 
L 1269 2991 
Q 1406 3038 1543 3061 
Q 1681 3084 1819 3084 
Q 2600 3084 3056 2656 
Q 3513 2228 3513 1497 
Q 3513 744 3044 326 
Q 2575 -91 1722 -91 
Q 1428 -91 1123 -41 
Q 819 9 494 109 
L 494 744 
Q 775 591 1075 516 
Q 1375 441 1709 441 
Q 2250 441 2565 725 
Q 2881 1009 2881 1497 
Q 2881 1984 2565 2268 
Q 2250 2553 1709 2553 
Q 1456 2553 1204 2497 
Q 953 2441 691 2322 
L 691 4666 
z
" transform="scale(0.015625)"/>
       </defs>
       <use xlink:href="#DejaVuSans-2d"/>
       <use xlink:href="#DejaVuSans-30" x="36.083984"/>
       <use xlink:href="#DejaVuSans-2e" x="99.707031"/>
       <use xlink:href="#DejaVuSans-35" x="131.494141"/>
      </g>
     </g>
    </g>
    <g id="ytick_12">
     <g id="line2d_45">
      <g>
       <use xlink:href="#m19084489a5" x="67.25" y="436.4525" style="stroke: #000000; stroke-width: 0.8"/>
      </g>
     </g>
     <g id="text_14">
      <!-- 0.0 -->
      <g transform="translate(37.985625 441.771406) scale(0.14 -0.14)">
       <use xlink:href="#DejaVuSans-30"/>
       <use xlink:href="#DejaVuSans-2e" x="63.623047"/>
       <use xlink:href="#DejaVuSans-30" x="95.410156"/>
      </g>
     </g>
    </g>
    <g id="ytick_13">
     <g id="line2d_46">
      <g>
       <use xlink:href="#m19084489a5" x="67.25" y="396.922097" style="stroke: #000000; stroke-width: 0.8"/>
      </g>
     </g>
     <g id="text_15">
      <!-- 0.5 -->
      <g transform="translate(37.985625 402.241003) scale(0.14 -0.14)">
       <use xlink:href="#DejaVuSans-30"/>
       <use xlink:href="#DejaVuSans-2e" x="63.623047"/>
       <use xlink:href="#DejaVuSans-35" x="95.410156"/>
      </g>
     </g>
    </g>
    <g id="text_16">
     <!-- Vel N [m/s] -->
     <g transform="translate(26.023125 474.921875) rotate(-90) scale(0.14 -0.14)">
      <defs>
       <path id="DejaVuSans-56" d="M 1831 0 
L 50 4666 
L 709 4666 
L 2188 738 
L 3669 4666 
L 4325 4666 
L 2547 0 
L 1831 0 
z
" transform="scale(0.015625)"/>
       <path id="DejaVuSans-65" d="M 3597 1894 
L 3597 1613 
L 953 1613 
Q 991 1019 1311 708 
Q 1631 397 2203 397 
Q 2534 397 2845 478 
Q 3156 559 3463 722 
L 3463 178 
Q 3153 47 2828 -22 
Q 2503 -91 2169 -91 
Q 1331 -91 842 396 
Q 353 884 353 1716 
Q 353 2575 817 3079 
Q 1281 3584 2069 3584 
Q 2775 3584 3186 3129 
Q 3597 2675 3597 1894 
z
M 3022 2063 
Q 3016 2534 2758 2815 
Q 2500 3097 2075 3097 
Q 1594 3097 1305 2825 
Q 1016 2553 972 2059 
L 3022 2063 
z
" transform="scale(0.015625)"/>
       <path id="DejaVuSans-6c" d="M 603 4863 
L 1178 4863 
L 1178 0 
L 603 0 
L 603 4863 
z
" transform="scale(0.015625)"/>
       <path id="DejaVuSans-2f" d="M 1625 4666 
L 2156 4666 
L 531 -594 
L 0 -594 
L 1625 4666 
z
" transform="scale(0.015625)"/>
      </defs>
      <use xlink:href="#DejaVuSans-56"/>
      <use xlink:href="#DejaVuSans-65" x="60.658203"/>
      <use xlink:href="#DejaVuSans-6c" x="122.181641"/>
      <use xlink:href="#DejaVuSans-20" x="149.964844"/>
      <use xlink:href="#DejaVuSans-4e" x="181.751953"/>
      <use xlink:href="#DejaVuSans-20" x="256.556641"/>
      <use xlink:href="#DejaVuSans-5b" x="288.34375"/>
      <use xlink:href="#DejaVuSans-6d" x="327.357422"/>
      <use xlink:href="#DejaVuSans-2f" x="424.769531"/>
      <use xlink:href="#DejaVuSans-73" x="458.460938"/>
      <use xlink:href="#DejaVuSans-5d" x="510.560547"/>
     </g>
    </g>
   </g>
   <g id="line2d_47">
    <path d="M 67.25 436.4525 
L 70.371775 436.423554 
L 73.49355 433.968124 
L 76.615325 427.762507 
L 79.7371 432.94243 
L 82.858875 436.150101 
L 85.98065 446.372179 
L 89.102425 446.399106 
L 92.2242 452.08099 
L 95.345975 410.966738 
L 98.46775 439.252013 
L 101.589525 442.078546 
L 104.7113 441.38255 
L 107.833075 419.663051 
L 110.95485 430.646547 
L 114.076625 417.438388 
L 117.1984 441.139838 
L 120.320175 436.624706 
L 123.44195 447.884836 
L 126.563725 411.951822 
L 129.6855 445.779682 
L 132.807275 436.960865 
L 135.92905 428.952871 
L 139.050825 430.28502 
L 142.1726 439.313907 
L 145.294375 440.518764 
L 148.41615 436.945555 
L 151.537925 437.065935 
L 154.6597 422.735856 
L 157.781475 405.680593 
L 160.90325 441.512386 
L 164.025025 462.584406 
L 167.1468 446.200667 
L 170.268575 403.864063 
L 173.39035 438.108671 
L 176.512125 420.082355 
L 179.6339 416.996599 
L 182.755675 448.023951 
L 185.87745 441.72012 
L 188.999225 424.006878 
L 192.121 444.614237 
L 195.242775 446.881902 
L 201.486325 449.488918 
L 204.6081 440.627534 
L 207.729875 442.064737 
L 210.85165 424.715636 
L 213.973425 430.605893 
L 217.0952 421.534622 
L 220.216975 443.480717 
L 223.33875 425.810392 
L 226.460525 415.39011 
L 229.5823 451.300914 
L 232.704075 430.675442 
L 235.82585 413.39646 
L 238.947625 442.608587 
L 242.0694 415.89331 
L 245.191175 426.427005 
L 248.31295 446.233199 
L 251.434725 441.961076 
L 254.5565 430.340571 
L 257.678275 432.820163 
L 260.80005 428.410802 
L 263.921825 446.080798 
L 267.0436 435.753864 
L 270.165375 450.460399 
L 273.28715 435.119726 
L 276.408925 438.567567 
L 279.5307 436.411064 
L 282.652475 410.941371 
L 285.77425 410.171764 
L 288.896025 423.077835 
L 292.0178 451.997501 
L 295.139575 448.05856 
L 298.26135 423.795582 
L 301.383125 430.871831 
L 304.5049 408.222597 
L 307.626675 431.096594 
L 310.74845 443.245767 
L 313.870225 451.276524 
L 316.992 443.861555 
L 320.113775 441.750876 
L 323.23555 428.406874 
L 326.357325 422.363162 
L 329.4791 445.111766 
L 332.600875 457.254527 
L 335.72265 461.202703 
L 338.844425 426.308765 
L 341.9662 435.46119 
L 345.087975 451.653211 
L 348.20975 422.002208 
L 351.331525 389.464167 
L 354.4533 421.690804 
L 357.575075 427.958247 
L 360.69685 441.94938 
L 363.818625 447.60632 
L 366.9404 433.867384 
L 370.062175 444.065585 
L 373.18395 438.769375 
L 376.305725 435.380844 
L 379.4275 446.446774 
L 382.549275 427.460403 
L 385.67105 437.272618 
L 388.792825 447.868681 
L 391.9146 432.816924 
L 395.036375 445.807802 
L 398.15815 436.784644 
L 401.279925 433.936853 
L 404.4017 420.58777 
L 407.523475 428.093482 
L 410.64525 439.848056 
L 413.767025 433.342088 
L 416.8888 425.241784 
L 423.13235 447.341591 
L 426.254125 464.712322 
L 429.3759 460.058482 
L 432.497675 442.313851 
L 435.61945 438.003294 
L 438.741225 431.296665 
L 441.863 427.936775 
L 444.984775 424.111795 
L 448.10655 434.325977 
L 451.228325 432.692791 
L 454.3501 438.9831 
L 457.471875 465.98235 
L 460.59365 455.223884 
L 463.715425 436.446737 
L 466.8372 442.994428 
L 469.958975 422.237949 
L 473.08075 408.215304 
L 476.202525 416.131256 
L 479.3243 443.508626 
L 482.446075 431.804536 
L 485.56785 445.896976 
L 488.689625 455.034156 
L 491.8114 456.967634 
L 494.933175 448.474852 
L 498.05495 443.472308 
L 501.176725 433.517333 
L 504.2985 431.651033 
L 507.420275 435.212194 
L 510.54205 432.563598 
L 513.663825 424.509193 
L 516.7856 428.95752 
L 519.907375 463.374256 
L 523.02915 481.989313 
L 526.150925 433.644778 
L 529.2727 445.075195 
L 532.394475 433.807236 
L 535.51625 442.745782 
L 538.638025 452.770028 
L 541.7598 424.034653 
L 544.881575 415.261296 
L 548.00335 435.55938 
L 551.125125 468.83968 
L 557.368675 425.630353 
L 560.49045 444.243458 
L 563.612225 429.59479 
L 566.734 429.443536 
L 569.855775 425.18204 
L 572.97755 433.454639 
L 576.099325 451.589377 
L 579.2211 428.298918 
L 582.342875 439.252892 
L 585.46465 441.73613 
L 588.586425 452.824988 
L 591.7082 446.812614 
L 594.829975 447.469589 
L 597.95175 436.436187 
L 601.073525 410.128931 
L 604.1953 446.374628 
L 607.317075 460.631144 
L 610.43885 421.837153 
L 613.560625 432.694522 
L 616.6824 444.144538 
L 619.804175 425.97563 
L 622.92595 442.864527 
L 626.047725 418.331914 
L 629.1695 429.082836 
L 632.291275 450.053033 
L 635.41305 422.193935 
L 638.534825 450.020693 
L 641.6566 440.449635 
L 644.778375 441.385746 
L 647.90015 428.445639 
L 651.021925 423.218008 
L 654.1437 444.185668 
L 657.265475 459.56003 
L 660.38725 443.830094 
L 663.509025 449.671034 
L 666.6308 415.394125 
L 669.752575 431.866365 
L 672.87435 445.744413 
L 675.996125 441.596022 
L 679.1179 457.136795 
L 682.239675 452.18002 
L 685.36145 419.181037 
L 688.483225 434.565662 
L 688.483225 434.565662 
" clip-path="url(#pbb7965855d)" style="fill: none; stroke: #1f77b4; stroke-width: 1.5; stroke-linecap: square"/>
   </g>
   <g id="line2d_48">
    <path d="M 67.25 478.849094 
L 691.605 478.849094 
" clip-path="url(#pbb7965855d)" style="fill: none; stroke-dasharray: 5.55,2.4; stroke-dashoffset: 0; stroke: #ff0000; stroke-width: 1.5"/>
   </g>
   <g id="line2d_49">
    <path d="M 67.25 394.055906 
L 691.605 394.055906 
" clip-path="url(#pbb7965855d)" style="fill: none; stroke-dasharray: 5.55,2.4; stroke-dashoffset: 0; stroke: #ff0000; stroke-width: 1.5"/>
   </g>
   <g id="patch_13">
    <path d="M 67.25 506.935 
L 67.25 365.97 
" style="fill: none; stroke: #000000; stroke-width: 0.8; stroke-linejoin: miter; stroke-linecap: square"/>
   </g>
   <g id="patch_14">
    <path d="M 691.605 506.935 
L 691.605 365.97 
" style="fill: none; stroke: #000000; stroke-width: 0.8; stroke-linejoin: miter; stroke-linecap: square"/>
   </g>
   <g id="patch_15">
    <path d="M 67.25 506.935 
L 691.605 506.935 
" style="fill: none; stroke: #000000; stroke-width: 0.8; stroke-linejoin: miter; stroke-linecap: square"/>
   </g>
   <g id="patch_16">
    <path d="M 67.25 365.97 
L 691.605 365.97 
" style="fill: none; stroke: #000000; stroke-width: 0.8; stroke-linejoin: miter; stroke-linecap: square"/>
   </g>
  </g>
  <g id="axes_4">
   <g id="patch_17">
    <path d="M 67.25 666.52 
L 691.605 666.52 
L 691.605 525.555 
L 67.25 525.555 
z
" style="fill: #ffffff"/>
   </g>
   <g id="matplotlib.axis_7">
    <g id="xtick_28">
     <g id="line2d_50">
      <g>
       <use xlink:href="#mfc377cfdf8" x="67.25" y="666.52" style="stroke: #000000; stroke-width: 0.8"/>
      </g>
     </g>
     <g id="text_17">
      <!-- 0 -->
      <g transform="translate(62.79625 684.157813) scale(0.14 -0.14)">
       <use xlink:href="#DejaVuSans-30"/>
      </g>
     </g>
    </g>
    <g id="xtick_29">
     <g id="line2d_51">
      <g>
       <use xlink:href="#mfc377cfdf8" x="145.294375" y="666.52" style="stroke: #000000; stroke-width: 0.8"/>
      </g>
     </g>
     <g id="text_18">
      <!-- 25 -->
      <g transform="translate(136.386875 684.157813) scale(0.14 -0.14)">
       <use xlink:href="#DejaVuSans-32"/>
       <use xlink:href="#DejaVuSans-35" x="63.623047"/>
      </g>
     </g>
    </g>
    <g id="xtick_30">
     <g id="line2d_52">
      <g>
       <use xlink:href="#mfc377cfdf8" x="223.33875" y="666.52" style="stroke: #000000; stroke-width: 0.8"/>
      </g>
     </g>
     <g id="text_19">
      <!-- 50 -->
      <g transform="translate(214.43125 684.157813) scale(0.14 -0.14)">
       <use xlink:href="#DejaVuSans-35"/>
       <use xlink:href="#DejaVuSans-30" x="63.623047"/>
      </g>
     </g>
    </g>
    <g id="xtick_31">
     <g id="line2d_53">
      <g>
       <use xlink:href="#mfc377cfdf8" x="301.383125" y="666.52" style="stroke: #000000; stroke-width: 0.8"/>
      </g>
     </g>
     <g id="text_20">
      <!-- 75 -->
      <g transform="translate(292.475625 684.157813) scale(0.14 -0.14)">
       <defs>
        <path id="DejaVuSans-37" d="M 525 4666 
L 3525 4666 
L 3525 4397 
L 1831 0 
L 1172 0 
L 2766 4134 
L 525 4134 
L 525 4666 
z
" transform="scale(0.015625)"/>
       </defs>
       <use xlink:href="#DejaVuSans-37"/>
       <use xlink:href="#DejaVuSans-35" x="63.623047"/>
      </g>
     </g>
    </g>
    <g id="xtick_32">
     <g id="line2d_54">
      <g>
       <use xlink:href="#mfc377cfdf8" x="379.4275" y="666.52" style="stroke: #000000; stroke-width: 0.8"/>
      </g>
     </g>
     <g id="text_21">
      <!-- 100 -->
      <g transform="translate(366.06625 684.157813) scale(0.14 -0.14)">
       <use xlink:href="#DejaVuSans-31"/>
       <use xlink:href="#DejaVuSans-30" x="63.623047"/>
       <use xlink:href="#DejaVuSans-30" x="127.246094"/>
      </g>
     </g>
    </g>
    <g id="xtick_33">
     <g id="line2d_55">
      <g>
       <use xlink:href="#mfc377cfdf8" x="457.471875" y="666.52" style="stroke: #000000; stroke-width: 0.8"/>
      </g>
     </g>
     <g id="text_22">
      <!-- 125 -->
      <g transform="translate(444.110625 684.157813) scale(0.14 -0.14)">
       <use xlink:href="#DejaVuSans-31"/>
       <use xlink:href="#DejaVuSans-32" x="63.623047"/>
       <use xlink:href="#DejaVuSans-35" x="127.246094"/>
      </g>
     </g>
    </g>
    <g id="xtick_34">
     <g id="line2d_56">
      <g>
       <use xlink:href="#mfc377cfdf8" x="535.51625" y="666.52" style="stroke: #000000; stroke-width: 0.8"/>
      </g>
     </g>
     <g id="text_23">
      <!-- 150 -->
      <g transform="translate(522.155 684.157813) scale(0.14 -0.14)">
       <use xlink:href="#DejaVuSans-31"/>
       <use xlink:href="#DejaVuSans-35" x="63.623047"/>
       <use xlink:href="#DejaVuSans-30" x="127.246094"/>
      </g>
     </g>
    </g>
    <g id="xtick_35">
     <g id="line2d_57">
      <g>
       <use xlink:href="#mfc377cfdf8" x="613.560625" y="666.52" style="stroke: #000000; stroke-width: 0.8"/>
      </g>
     </g>
     <g id="text_24">
      <!-- 175 -->
      <g transform="translate(600.199375 684.157813) scale(0.14 -0.14)">
       <use xlink:href="#DejaVuSans-31"/>
       <use xlink:href="#DejaVuSans-37" x="63.623047"/>
       <use xlink:href="#DejaVuSans-35" x="127.246094"/>
      </g>
     </g>
    </g>
    <g id="xtick_36">
     <g id="line2d_58">
      <g>
       <use xlink:href="#mfc377cfdf8" x="691.605" y="666.52" style="stroke: #000000; stroke-width: 0.8"/>
      </g>
     </g>
     <g id="text_25">
      <!-- 200 -->
      <g transform="translate(678.24375 684.157813) scale(0.14 -0.14)">
       <use xlink:href="#DejaVuSans-32"/>
       <use xlink:href="#DejaVuSans-30" x="63.623047"/>
       <use xlink:href="#DejaVuSans-30" x="127.246094"/>
      </g>
     </g>
    </g>
    <g id="text_26">
     <!-- Timestamp [s] -->
     <g transform="translate(329.024219 701.707188) scale(0.14 -0.14)">
      <defs>
       <path id="DejaVuSans-54" d="M -19 4666 
L 3928 4666 
L 3928 4134 
L 2272 4134 
L 2272 0 
L 1638 0 
L 1638 4134 
L -19 4134 
L -19 4666 
z
" transform="scale(0.015625)"/>
       <path id="DejaVuSans-69" d="M 603 3500 
L 1178 3500 
L 1178 0 
L 603 0 
L 603 3500 
z
M 603 4863 
L 1178 4863 
L 1178 4134 
L 603 4134 
L 603 4863 
z
" transform="scale(0.015625)"/>
       <path id="DejaVuSans-74" d="M 1172 4494 
L 1172 3500 
L 2356 3500 
L 2356 3053 
L 1172 3053 
L 1172 1153 
Q 1172 725 1289 603 
Q 1406 481 1766 481 
L 2356 481 
L 2356 0 
L 1766 0 
Q 1100 0 847 248 
Q 594 497 594 1153 
L 594 3053 
L 172 3053 
L 172 3500 
L 594 3500 
L 594 4494 
L 1172 4494 
z
" transform="scale(0.015625)"/>
       <path id="DejaVuSans-61" d="M 2194 1759 
Q 1497 1759 1228 1600 
Q 959 1441 959 1056 
Q 959 750 1161 570 
Q 1363 391 1709 391 
Q 2188 391 2477 730 
Q 2766 1069 2766 1631 
L 2766 1759 
L 2194 1759 
z
M 3341 1997 
L 3341 0 
L 2766 0 
L 2766 531 
Q 2569 213 2275 61 
Q 1981 -91 1556 -91 
Q 1019 -91 701 211 
Q 384 513 384 1019 
Q 384 1609 779 1909 
Q 1175 2209 1959 2209 
L 2766 2209 
L 2766 2266 
Q 2766 2663 2505 2880 
Q 2244 3097 1772 3097 
Q 1472 3097 1187 3025 
Q 903 2953 641 2809 
L 641 3341 
Q 956 3463 1253 3523 
Q 1550 3584 1831 3584 
Q 2591 3584 2966 3190 
Q 3341 2797 3341 1997 
z
" transform="scale(0.015625)"/>
       <path id="DejaVuSans-70" d="M 1159 525 
L 1159 -1331 
L 581 -1331 
L 581 3500 
L 1159 3500 
L 1159 2969 
Q 1341 3281 1617 3432 
Q 1894 3584 2278 3584 
Q 2916 3584 3314 3078 
Q 3713 2572 3713 1747 
Q 3713 922 3314 415 
Q 2916 -91 2278 -91 
Q 1894 -91 1617 61 
Q 1341 213 1159 525 
z
M 3116 1747 
Q 3116 2381 2855 2742 
Q 2594 3103 2138 3103 
Q 1681 3103 1420 2742 
Q 1159 2381 1159 1747 
Q 1159 1113 1420 752 
Q 1681 391 2138 391 
Q 2594 391 2855 752 
Q 3116 1113 3116 1747 
z
" transform="scale(0.015625)"/>
      </defs>
      <use xlink:href="#DejaVuSans-54"/>
      <use xlink:href="#DejaVuSans-69" x="57.958984"/>
      <use xlink:href="#DejaVuSans-6d" x="85.742188"/>
      <use xlink:href="#DejaVuSans-65" x="183.154297"/>
      <use xlink:href="#DejaVuSans-73" x="244.677734"/>
      <use xlink:href="#DejaVuSans-74" x="296.777344"/>
      <use xlink:href="#DejaVuSans-61" x="335.986328"/>
      <use xlink:href="#DejaVuSans-6d" x="397.265625"/>
      <use xlink:href="#DejaVuSans-70" x="494.677734"/>
      <use xlink:href="#DejaVuSans-20" x="558.154297"/>
      <use xlink:href="#DejaVuSans-5b" x="589.941406"/>
      <use xlink:href="#DejaVuSans-73" x="628.955078"/>
      <use xlink:href="#DejaVuSans-5d" x="681.054688"/>
     </g>
    </g>
   </g>
   <g id="matplotlib.axis_8">
    <g id="ytick_14">
     <g id="line2d_59">
      <g>
       <use xlink:href="#m19084489a5" x="67.25" y="643.176315" style="stroke: #000000; stroke-width: 0.8"/>
      </g>
     </g>
     <g id="text_27">
      <!-- -2.0 -->
      <g transform="translate(32.934688 648.495222) scale(0.14 -0.14)">
       <use xlink:href="#DejaVuSans-2d"/>
       <use xlink:href="#DejaVuSans-32" x="36.083984"/>
       <use xlink:href="#DejaVuSans-2e" x="99.707031"/>
       <use xlink:href="#DejaVuSans-30" x="131.494141"/>
      </g>
     </g>
    </g>
    <g id="ytick_15">
     <g id="line2d_60">
      <g>
       <use xlink:href="#m19084489a5" x="67.25" y="619.606908" style="stroke: #000000; stroke-width: 0.8"/>
      </g>
     </g>
     <g id="text_28">
      <!-- -1.0 -->
      <g transform="translate(32.934688 624.925814) scale(0.14 -0.14)">
       <use xlink:href="#DejaVuSans-2d"/>
       <use xlink:href="#DejaVuSans-31" x="36.083984"/>
       <use xlink:href="#DejaVuSans-2e" x="99.707031"/>
       <use xlink:href="#DejaVuSans-30" x="131.494141"/>
      </g>
     </g>
    </g>
    <g id="ytick_16">
     <g id="line2d_61">
      <g>
       <use xlink:href="#m19084489a5" x="67.25" y="596.0375" style="stroke: #000000; stroke-width: 0.8"/>
      </g>
     </g>
     <g id="text_29">
      <!-- 0.0 -->
      <g transform="translate(37.985625 601.356406) scale(0.14 -0.14)">
       <use xlink:href="#DejaVuSans-30"/>
       <use xlink:href="#DejaVuSans-2e" x="63.623047"/>
       <use xlink:href="#DejaVuSans-30" x="95.410156"/>
      </g>
     </g>
    </g>
    <g id="ytick_17">
     <g id="line2d_62">
      <g>
       <use xlink:href="#m19084489a5" x="67.25" y="572.468092" style="stroke: #000000; stroke-width: 0.8"/>
      </g>
     </g>
     <g id="text_30">
      <!-- 1.0 -->
      <g transform="translate(37.985625 577.786999) scale(0.14 -0.14)">
       <use xlink:href="#DejaVuSans-31"/>
       <use xlink:href="#DejaVuSans-2e" x="63.623047"/>
       <use xlink:href="#DejaVuSans-30" x="95.410156"/>
      </g>
     </g>
    </g>
    <g id="ytick_18">
     <g id="line2d_63">
      <g>
       <use xlink:href="#m19084489a5" x="67.25" y="548.898685" style="stroke: #000000; stroke-width: 0.8"/>
      </g>
     </g>
     <g id="text_31">
      <!-- 2.0 -->
      <g transform="translate(37.985625 554.217591) scale(0.14 -0.14)">
       <use xlink:href="#DejaVuSans-32"/>
       <use xlink:href="#DejaVuSans-2e" x="63.623047"/>
       <use xlink:href="#DejaVuSans-30" x="95.410156"/>
      </g>
     </g>
    </g>
    <g id="text_32">
     <!-- Vel E [m/s] -->
     <g transform="translate(26.023125 633.693125) rotate(-90) scale(0.14 -0.14)">
      <use xlink:href="#DejaVuSans-56"/>
      <use xlink:href="#DejaVuSans-65" x="60.658203"/>
      <use xlink:href="#DejaVuSans-6c" x="122.181641"/>
      <use xlink:href="#DejaVuSans-20" x="149.964844"/>
      <use xlink:href="#DejaVuSans-45" x="181.751953"/>
      <use xlink:href="#DejaVuSans-20" x="244.935547"/>
      <use xlink:href="#DejaVuSans-5b" x="276.722656"/>
      <use xlink:href="#DejaVuSans-6d" x="315.736328"/>
      <use xlink:href="#DejaVuSans-2f" x="413.148438"/>
      <use xlink:href="#DejaVuSans-73" x="446.839844"/>
      <use xlink:href="#DejaVuSans-5d" x="498.939453"/>
     </g>
    </g>
   </g>
   <g id="line2d_64">
    <path d="M 67.25 596.0375 
L 70.371775 596.618354 
L 73.49355 596.459424 
L 76.615325 598.205667 
L 79.7371 598.950409 
L 82.858875 606.845503 
L 85.98065 611.065559 
L 89.102425 600.001287 
L 92.2242 604.137362 
L 95.345975 606.21331 
L 98.46775 601.765118 
L 101.589525 605.053879 
L 104.7113 608.160463 
L 107.833075 604.029573 
L 110.95485 615.09394 
L 114.076625 612.98235 
L 117.1984 615.687726 
L 120.320175 615.776405 
L 123.44195 611.361198 
L 126.563725 615.143289 
L 129.6855 617.350028 
L 132.807275 616.746367 
L 135.92905 622.673178 
L 139.050825 626.03395 
L 142.1726 626.684536 
L 145.294375 628.955044 
L 148.41615 613.507377 
L 151.537925 622.317976 
L 154.6597 623.20194 
L 157.781475 624.431807 
L 164.025025 622.127779 
L 167.1468 623.150901 
L 170.268575 630.260175 
L 173.39035 630.936254 
L 176.512125 629.017306 
L 179.6339 630.408846 
L 182.755675 624.134619 
L 185.87745 627.773261 
L 192.121 630.698942 
L 195.242775 629.697245 
L 198.36455 633.601653 
L 201.486325 639.996746 
L 204.6081 633.960084 
L 207.729875 635.074794 
L 210.85165 634.351099 
L 213.973425 629.603062 
L 217.0952 626.491628 
L 220.216975 631.725602 
L 223.33875 633.067183 
L 226.460525 628.519357 
L 229.5823 633.446871 
L 232.704075 626.587287 
L 235.82585 633.239818 
L 238.947625 643.950379 
L 242.0694 635.338438 
L 245.191175 632.433477 
L 248.31295 627.857642 
L 251.434725 629.473344 
L 254.5565 633.529494 
L 257.678275 638.135969 
L 260.80005 633.809581 
L 263.921825 633.288972 
L 267.0436 630.919824 
L 270.165375 625.168435 
L 273.28715 620.052332 
L 276.408925 625.08884 
L 279.5307 633.365868 
L 282.652475 628.444153 
L 285.77425 623.052907 
L 288.896025 628.174244 
L 292.0178 627.216233 
L 295.139575 625.204819 
L 298.26135 626.599791 
L 301.383125 620.52854 
L 304.5049 621.206654 
L 307.626675 619.223768 
L 310.74845 623.252241 
L 313.870225 621.680696 
L 316.992 615.622319 
L 320.113775 617.589742 
L 323.23555 610.130865 
L 326.357325 616.37873 
L 329.4791 615.626905 
L 332.600875 611.843047 
L 335.72265 618.815225 
L 338.844425 620.12072 
L 341.9662 616.465793 
L 345.087975 602.491355 
L 348.20975 605.213701 
L 351.331525 595.256739 
L 354.4533 605.759961 
L 357.575075 606.420803 
L 360.69685 600.609962 
L 363.818625 597.017387 
L 366.9404 596.48901 
L 370.062175 600.210803 
L 373.18395 601.621227 
L 376.305725 602.263409 
L 379.4275 599.829014 
L 382.549275 602.103044 
L 385.67105 601.258985 
L 388.792825 595.228556 
L 391.9146 592.28537 
L 395.036375 591.478972 
L 398.15815 586.195243 
L 401.279925 583.714105 
L 404.4017 586.777988 
L 407.523475 582.494263 
L 410.64525 590.905138 
L 413.767025 588.29299 
L 416.8888 587.306602 
L 420.010575 589.174305 
L 423.13235 580.614267 
L 426.254125 577.015595 
L 429.3759 570.026608 
L 432.497675 572.698614 
L 435.61945 580.69013 
L 438.741225 571.548266 
L 441.863 571.148293 
L 444.984775 573.910648 
L 448.10655 577.356687 
L 451.228325 579.460654 
L 454.3501 575.376017 
L 457.471875 566.793581 
L 460.59365 561.305091 
L 463.715425 562.543911 
L 466.8372 571.828345 
L 469.958975 576.014213 
L 473.08075 569.938599 
L 476.202525 573.111951 
L 479.3243 564.142896 
L 482.446075 562.422372 
L 485.56785 563.242537 
L 488.689625 567.536388 
L 491.8114 559.964473 
L 494.933175 561.498286 
L 498.05495 564.38753 
L 501.176725 570.630628 
L 504.2985 559.668271 
L 507.420275 549.248224 
L 510.54205 549.049167 
L 513.663825 559.950537 
L 516.7856 564.494052 
L 519.907375 560.785731 
L 523.02915 564.230001 
L 526.150925 559.275165 
L 529.2727 555.66622 
L 532.394475 553.671661 
L 535.51625 559.362021 
L 541.7598 564.330015 
L 544.881575 563.536772 
L 551.125125 556.143172 
L 554.2469 553.897468 
L 557.368675 561.12695 
L 560.49045 555.29203 
L 563.612225 561.091215 
L 566.734 562.331125 
L 569.855775 565.114932 
L 572.97755 571.196271 
L 576.099325 558.767787 
L 579.2211 555.807553 
L 582.342875 560.641201 
L 585.46465 562.163256 
L 588.586425 561.782866 
L 591.7082 570.129546 
L 594.829975 568.155642 
L 597.95175 562.048805 
L 601.073525 568.665206 
L 604.1953 565.276554 
L 607.317075 570.947661 
L 610.43885 565.982715 
L 613.560625 567.182669 
L 616.6824 574.497432 
L 619.804175 566.378205 
L 622.92595 572.115638 
L 626.047725 575.011482 
L 629.1695 572.303427 
L 632.291275 568.830279 
L 635.41305 577.68959 
L 638.534825 577.070103 
L 641.6566 575.940789 
L 644.778375 575.654053 
L 647.90015 578.919389 
L 651.021925 582.947632 
L 654.1437 586.058812 
L 657.265475 583.233788 
L 660.38725 586.865062 
L 663.509025 594.661046 
L 666.6308 583.152081 
L 669.752575 578.683907 
L 672.87435 592.100287 
L 675.996125 591.799066 
L 679.1179 585.765747 
L 682.239675 580.462787 
L 685.36145 589.985675 
L 688.483225 597.885126 
L 688.483225 597.885126 
" clip-path="url(#pa8efff10dc)" style="fill: none; stroke: #1f77b4; stroke-width: 1.5; stroke-linecap: square"/>
   </g>
   <g id="line2d_65">
    <path d="M 67.25 608.676665 
L 691.605 608.676665 
" clip-path="url(#pa8efff10dc)" style="fill: none; stroke-dasharray: 5.55,2.4; stroke-dashoffset: 0; stroke: #ff0000; stroke-width: 1.5"/>
   </g>
   <g id="line2d_66">
    <path d="M 67.25 583.398335 
L 691.605 583.398335 
" clip-path="url(#pa8efff10dc)" style="fill: none; stroke-dasharray: 5.55,2.4; stroke-dashoffset: 0; stroke: #ff0000; stroke-width: 1.5"/>
   </g>
   <g id="patch_18">
    <path d="M 67.25 666.52 
L 67.25 525.555 
" style="fill: none; stroke: #000000; stroke-width: 0.8; stroke-linejoin: miter; stroke-linecap: square"/>
   </g>
   <g id="patch_19">
    <path d="M 691.605 666.52 
L 691.605 525.555 
" style="fill: none; stroke: #000000; stroke-width: 0.8; stroke-linejoin: miter; stroke-linecap: square"/>
   </g>
   <g id="patch_20">
    <path d="M 67.25 666.52 
L 691.605 666.52 
" style="fill: none; stroke: #000000; stroke-width: 0.8; stroke-linejoin: miter; stroke-linecap: square"/>
   </g>
   <g id="patch_21">
    <path d="M 67.25 525.555 
L 691.605 525.555 
" style="fill: none; stroke: #000000; stroke-width: 0.8; stroke-linejoin: miter; stroke-linecap: square"/>
   </g>
  </g>
  <g id="text_33">
   <!-- Errors on positions and velocities at 1Hz -->
   <g transform="translate(190.972312 27.165375) scale(0.168 -0.168)">
    <defs>
     <path id="DejaVuSans-72" d="M 2631 2963 
Q 2534 3019 2420 3045 
Q 2306 3072 2169 3072 
Q 1681 3072 1420 2755 
Q 1159 2438 1159 1844 
L 1159 0 
L 581 0 
L 581 3500 
L 1159 3500 
L 1159 2956 
Q 1341 3275 1631 3429 
Q 1922 3584 2338 3584 
Q 2397 3584 2469 3576 
Q 2541 3569 2628 3553 
L 2631 2963 
z
" transform="scale(0.015625)"/>
     <path id="DejaVuSans-6e" d="M 3513 2113 
L 3513 0 
L 2938 0 
L 2938 2094 
Q 2938 2591 2744 2837 
Q 2550 3084 2163 3084 
Q 1697 3084 1428 2787 
Q 1159 2491 1159 1978 
L 1159 0 
L 581 0 
L 581 3500 
L 1159 3500 
L 1159 2956 
Q 1366 3272 1645 3428 
Q 1925 3584 2291 3584 
Q 2894 3584 3203 3211 
Q 3513 2838 3513 2113 
z
" transform="scale(0.015625)"/>
     <path id="DejaVuSans-64" d="M 2906 2969 
L 2906 4863 
L 3481 4863 
L 3481 0 
L 2906 0 
L 2906 525 
Q 2725 213 2448 61 
Q 2172 -91 1784 -91 
Q 1150 -91 751 415 
Q 353 922 353 1747 
Q 353 2572 751 3078 
Q 1150 3584 1784 3584 
Q 2172 3584 2448 3432 
Q 2725 3281 2906 2969 
z
M 947 1747 
Q 947 1113 1208 752 
Q 1469 391 1925 391 
Q 2381 391 2643 752 
Q 2906 1113 2906 1747 
Q 2906 2381 2643 2742 
Q 2381 3103 1925 3103 
Q 1469 3103 1208 2742 
Q 947 2381 947 1747 
z
" transform="scale(0.015625)"/>
     <path id="DejaVuSans-76" d="M 191 3500 
L 800 3500 
L 1894 563 
L 2988 3500 
L 3597 3500 
L 2284 0 
L 1503 0 
L 191 3500 
z
" transform="scale(0.015625)"/>
     <path id="DejaVuSans-63" d="M 3122 3366 
L 3122 2828 
Q 2878 2963 2633 3030 
Q 2388 3097 2138 3097 
Q 1578 3097 1268 2742 
Q 959 2388 959 1747 
Q 959 1106 1268 751 
Q 1578 397 2138 397 
Q 2388 397 2633 464 
Q 2878 531 3122 666 
L 3122 134 
Q 2881 22 2623 -34 
Q 2366 -91 2075 -91 
Q 1284 -91 818 406 
Q 353 903 353 1747 
Q 353 2603 823 3093 
Q 1294 3584 2113 3584 
Q 2378 3584 2631 3529 
Q 2884 3475 3122 3366 
z
" transform="scale(0.015625)"/>
     <path id="DejaVuSans-48" d="M 628 4666 
L 1259 4666 
L 1259 2753 
L 3553 2753 
L 3553 4666 
L 4184 4666 
L 4184 0 
L 3553 0 
L 3553 2222 
L 1259 2222 
L 1259 0 
L 628 0 
L 628 4666 
z
" transform="scale(0.015625)"/>
     <path id="DejaVuSans-7a" d="M 353 3500 
L 3084 3500 
L 3084 2975 
L 922 459 
L 3084 459 
L 3084 0 
L 275 0 
L 275 525 
L 2438 3041 
L 353 3041 
L 353 3500 
z
" transform="scale(0.015625)"/>
    </defs>
    <use xlink:href="#DejaVuSans-45"/>
    <use xlink:href="#DejaVuSans-72" x="63.183594"/>
    <use xlink:href="#DejaVuSans-72" x="102.546875"/>
    <use xlink:href="#DejaVuSans-6f" x="141.410156"/>
    <use xlink:href="#DejaVuSans-72" x="202.591797"/>
    <use xlink:href="#DejaVuSans-73" x="243.705078"/>
    <use xlink:href="#DejaVuSans-20" x="295.804688"/>
    <use xlink:href="#DejaVuSans-6f" x="327.591797"/>
    <use xlink:href="#DejaVuSans-6e" x="388.773438"/>
    <use xlink:href="#DejaVuSans-20" x="452.152344"/>
    <use xlink:href="#DejaVuSans-70" x="483.939453"/>
    <use xlink:href="#DejaVuSans-6f" x="547.416016"/>
    <use xlink:href="#DejaVuSans-73" x="608.597656"/>
    <use xlink:href="#DejaVuSans-69" x="660.697266"/>
    <use xlink:href="#DejaVuSans-74" x="688.480469"/>
    <use xlink:href="#DejaVuSans-69" x="727.689453"/>
    <use xlink:href="#DejaVuSans-6f" x="755.472656"/>
    <use xlink:href="#DejaVuSans-6e" x="816.654297"/>
    <use xlink:href="#DejaVuSans-73" x="880.033203"/>
    <use xlink:href="#DejaVuSans-20" x="932.132812"/>
    <use xlink:href="#DejaVuSans-61" x="963.919922"/>
    <use xlink:href="#DejaVuSans-6e" x="1025.199219"/>
    <use xlink:href="#DejaVuSans-64" x="1088.578125"/>
    <use xlink:href="#DejaVuSans-20" x="1152.054688"/>
    <use xlink:href="#DejaVuSans-76" x="1183.841797"/>
    <use xlink:href="#DejaVuSans-65" x="1243.021484"/>
    <use xlink:href="#DejaVuSans-6c" x="1304.544922"/>
    <use xlink:href="#DejaVuSans-6f" x="1332.328125"/>
    <use xlink:href="#DejaVuSans-63" x="1393.509766"/>
    <use xlink:href="#DejaVuSans-69" x="1448.490234"/>
    <use xlink:href="#DejaVuSans-74" x="1476.273438"/>
    <use xlink:href="#DejaVuSans-69" x="1515.482422"/>
    <use xlink:href="#DejaVuSans-65" x="1543.265625"/>
    <use xlink:href="#DejaVuSans-73" x="1604.789062"/>
    <use xlink:href="#DejaVuSans-20" x="1656.888672"/>
    <use xlink:href="#DejaVuSans-61" x="1688.675781"/>
    <use xlink:href="#DejaVuSans-74" x="1749.955078"/>
    <use xlink:href="#DejaVuSans-20" x="1789.164062"/>
    <use xlink:href="#DejaVuSans-31" x="1820.951172"/>
    <use xlink:href="#DejaVuSans-48" x="1884.574219"/>
    <use xlink:href="#DejaVuSans-7a" x="1959.769531"/>
   </g>
  </g>
 </g>
 <defs>
  <clipPath id="p1024e9abad">
   <rect x="67.25" y="46.8" width="624.355" height="140.965"/>
  </clipPath>
  <clipPath id="p8cdd76b0c3">
   <rect x="67.25" y="206.385" width="624.355" height="140.965"/>
  </clipPath>
  <clipPath id="pbb7965855d">
   <rect x="67.25" y="365.97" width="624.355" height="140.965"/>
  </clipPath>
  <clipPath id="pa8efff10dc">
   <rect x="67.25" y="525.555" width="624.355" height="140.965"/>
  </clipPath>
 </defs>
</svg>
