<?xml version="1.0" encoding="utf-8" standalone="no"?>
<!DOCTYPE svg PUBLIC "-//W3C//DTD SVG 1.1//EN"
  "http://www.w3.org/Graphics/SVG/1.1/DTD/svg11.dtd">
<svg xmlns:xlink="http://www.w3.org/1999/xlink" width="720pt" height="720pt" viewBox="0 0 720 720" xmlns="http://www.w3.org/2000/svg" version="1.1">
 <metadata>
  <rdf:RDF xmlns:dc="http://purl.org/dc/elements/1.1/" xmlns:cc="http://creativecommons.org/ns#" xmlns:rdf="http://www.w3.org/1999/02/22-rdf-syntax-ns#">
   <cc:Work>
    <dc:type rdf:resource="http://purl.org/dc/dcmitype/StillImage"/>
    <dc:date>2024-05-24T16:20:44.220336</dc:date>
    <dc:format>image/svg+xml</dc:format>
    <dc:creator>
     <cc:Agent>
      <dc:title>Matplotlib v3.8.3, https://matplotlib.org/</dc:title>
     </cc:Agent>
    </dc:creator>
   </cc:Work>
  </rdf:RDF>
 </metadata>
 <defs>
  <style type="text/css">*{stroke-linejoin: round; stroke-linecap: butt}</style>
 </defs>
 <g id="figure_1">
  <g id="patch_1">
   <path d="M 0 720 
L 720 720 
L 720 0 
L 0 0 
z
" style="fill: #ffffff"/>
  </g>
  <g id="axes_1">
   <g id="patch_2">
    <path d="M 67.25 187.765 
L 691.605 187.765 
L 691.605 46.8 
L 67.25 46.8 
z
" style="fill: #ffffff"/>
   </g>
   <g id="matplotlib.axis_1">
    <g id="xtick_1">
     <g id="line2d_1">
      <defs>
       <path id="m983c700160" d="M 0 0 
L 0 3.5 
" style="stroke: #000000; stroke-width: 0.8"/>
      </defs>
      <g>
       <use xlink:href="#m983c700160" x="67.25" y="187.765" style="stroke: #000000; stroke-width: 0.8"/>
      </g>
     </g>
    </g>
    <g id="xtick_2">
     <g id="line2d_2">
      <g>
       <use xlink:href="#m983c700160" x="145.294375" y="187.765" style="stroke: #000000; stroke-width: 0.8"/>
      </g>
     </g>
    </g>
    <g id="xtick_3">
     <g id="line2d_3">
      <g>
       <use xlink:href="#m983c700160" x="223.33875" y="187.765" style="stroke: #000000; stroke-width: 0.8"/>
      </g>
     </g>
    </g>
    <g id="xtick_4">
     <g id="line2d_4">
      <g>
       <use xlink:href="#m983c700160" x="301.383125" y="187.765" style="stroke: #000000; stroke-width: 0.8"/>
      </g>
     </g>
    </g>
    <g id="xtick_5">
     <g id="line2d_5">
      <g>
       <use xlink:href="#m983c700160" x="379.4275" y="187.765" style="stroke: #000000; stroke-width: 0.8"/>
      </g>
     </g>
    </g>
    <g id="xtick_6">
     <g id="line2d_6">
      <g>
       <use xlink:href="#m983c700160" x="457.471875" y="187.765" style="stroke: #000000; stroke-width: 0.8"/>
      </g>
     </g>
    </g>
    <g id="xtick_7">
     <g id="line2d_7">
      <g>
       <use xlink:href="#m983c700160" x="535.51625" y="187.765" style="stroke: #000000; stroke-width: 0.8"/>
      </g>
     </g>
    </g>
    <g id="xtick_8">
     <g id="line2d_8">
      <g>
       <use xlink:href="#m983c700160" x="613.560625" y="187.765" style="stroke: #000000; stroke-width: 0.8"/>
      </g>
     </g>
    </g>
    <g id="xtick_9">
     <g id="line2d_9">
      <g>
       <use xlink:href="#m983c700160" x="691.605" y="187.765" style="stroke: #000000; stroke-width: 0.8"/>
      </g>
     </g>
    </g>
   </g>
   <g id="matplotlib.axis_2">
    <g id="ytick_1">
     <g id="line2d_10">
      <defs>
       <path id="m7e58cd9aa0" d="M 0 0 
L -3.5 0 
" style="stroke: #000000; stroke-width: 0.8"/>
      </defs>
      <g>
       <use xlink:href="#m7e58cd9aa0" x="67.25" y="173.440935" style="stroke: #000000; stroke-width: 0.8"/>
      </g>
     </g>
     <g id="text_1">
      <!-- -2.0 -->
      <g transform="translate(32.934688 178.759841) scale(0.14 -0.14)">
       <defs>
        <path id="DejaVuSans-2d" d="M 313 2009 
L 1997 2009 
L 1997 1497 
L 313 1497 
L 313 2009 
z
" transform="scale(0.015625)"/>
        <path id="DejaVuSans-32" d="M 1228 531 
L 3431 531 
L 3431 0 
L 469 0 
L 469 531 
Q 828 903 1448 1529 
Q 2069 2156 2228 2338 
Q 2531 2678 2651 2914 
Q 2772 3150 2772 3378 
Q 2772 3750 2511 3984 
Q 2250 4219 1831 4219 
Q 1534 4219 1204 4116 
Q 875 4013 500 3803 
L 500 4441 
Q 881 4594 1212 4672 
Q 1544 4750 1819 4750 
Q 2544 4750 2975 4387 
Q 3406 4025 3406 3419 
Q 3406 3131 3298 2873 
Q 3191 2616 2906 2266 
Q 2828 2175 2409 1742 
Q 1991 1309 1228 531 
z
" transform="scale(0.015625)"/>
        <path id="DejaVuSans-2e" d="M 684 794 
L 1344 794 
L 1344 0 
L 684 0 
L 684 794 
z
" transform="scale(0.015625)"/>
        <path id="DejaVuSans-30" d="M 2034 4250 
Q 1547 4250 1301 3770 
Q 1056 3291 1056 2328 
Q 1056 1369 1301 889 
Q 1547 409 2034 409 
Q 2525 409 2770 889 
Q 3016 1369 3016 2328 
Q 3016 3291 2770 3770 
Q 2525 4250 2034 4250 
z
M 2034 4750 
Q 2819 4750 3233 4129 
Q 3647 3509 3647 2328 
Q 3647 1150 3233 529 
Q 2819 -91 2034 -91 
Q 1250 -91 836 529 
Q 422 1150 422 2328 
Q 422 3509 836 4129 
Q 1250 4750 2034 4750 
z
" transform="scale(0.015625)"/>
       </defs>
       <use xlink:href="#DejaVuSans-2d"/>
       <use xlink:href="#DejaVuSans-32" x="36.083984"/>
       <use xlink:href="#DejaVuSans-2e" x="99.707031"/>
       <use xlink:href="#DejaVuSans-30" x="131.494141"/>
      </g>
     </g>
    </g>
    <g id="ytick_2">
     <g id="line2d_11">
      <g>
       <use xlink:href="#m7e58cd9aa0" x="67.25" y="145.361717" style="stroke: #000000; stroke-width: 0.8"/>
      </g>
     </g>
     <g id="text_2">
      <!-- -1.0 -->
      <g transform="translate(32.934688 150.680624) scale(0.14 -0.14)">
       <defs>
        <path id="DejaVuSans-31" d="M 794 531 
L 1825 531 
L 1825 4091 
L 703 3866 
L 703 4441 
L 1819 4666 
L 2450 4666 
L 2450 531 
L 3481 531 
L 3481 0 
L 794 0 
L 794 531 
z
" transform="scale(0.015625)"/>
       </defs>
       <use xlink:href="#DejaVuSans-2d"/>
       <use xlink:href="#DejaVuSans-31" x="36.083984"/>
       <use xlink:href="#DejaVuSans-2e" x="99.707031"/>
       <use xlink:href="#DejaVuSans-30" x="131.494141"/>
      </g>
     </g>
    </g>
    <g id="ytick_3">
     <g id="line2d_12">
      <g>
       <use xlink:href="#m7e58cd9aa0" x="67.25" y="117.2825" style="stroke: #000000; stroke-width: 0.8"/>
      </g>
     </g>
     <g id="text_3">
      <!-- 0.0 -->
      <g transform="translate(37.985625 122.601406) scale(0.14 -0.14)">
       <use xlink:href="#DejaVuSans-30"/>
       <use xlink:href="#DejaVuSans-2e" x="63.623047"/>
       <use xlink:href="#DejaVuSans-30" x="95.410156"/>
      </g>
     </g>
    </g>
    <g id="ytick_4">
     <g id="line2d_13">
      <g>
       <use xlink:href="#m7e58cd9aa0" x="67.25" y="89.203283" style="stroke: #000000; stroke-width: 0.8"/>
      </g>
     </g>
     <g id="text_4">
      <!-- 1.0 -->
      <g transform="translate(37.985625 94.522189) scale(0.14 -0.14)">
       <use xlink:href="#DejaVuSans-31"/>
       <use xlink:href="#DejaVuSans-2e" x="63.623047"/>
       <use xlink:href="#DejaVuSans-30" x="95.410156"/>
      </g>
     </g>
    </g>
    <g id="ytick_5">
     <g id="line2d_14">
      <g>
       <use xlink:href="#m7e58cd9aa0" x="67.25" y="61.124065" style="stroke: #000000; stroke-width: 0.8"/>
      </g>
     </g>
     <g id="text_5">
      <!-- 2.0 -->
      <g transform="translate(37.985625 66.442971) scale(0.14 -0.14)">
       <use xlink:href="#DejaVuSans-32"/>
       <use xlink:href="#DejaVuSans-2e" x="63.623047"/>
       <use xlink:href="#DejaVuSans-30" x="95.410156"/>
      </g>
     </g>
    </g>
    <g id="text_6">
     <!-- Pos N [m] -->
     <g transform="translate(26.023125 151.146094) rotate(-90) scale(0.14 -0.14)">
      <defs>
       <path id="DejaVuSans-50" d="M 1259 4147 
L 1259 2394 
L 2053 2394 
Q 2494 2394 2734 2622 
Q 2975 2850 2975 3272 
Q 2975 3691 2734 3919 
Q 2494 4147 2053 4147 
L 1259 4147 
z
M 628 4666 
L 2053 4666 
Q 2838 4666 3239 4311 
Q 3641 3956 3641 3272 
Q 3641 2581 3239 2228 
Q 2838 1875 2053 1875 
L 1259 1875 
L 1259 0 
L 628 0 
L 628 4666 
z
" transform="scale(0.015625)"/>
       <path id="DejaVuSans-6f" d="M 1959 3097 
Q 1497 3097 1228 2736 
Q 959 2375 959 1747 
Q 959 1119 1226 758 
Q 1494 397 1959 397 
Q 2419 397 2687 759 
Q 2956 1122 2956 1747 
Q 2956 2369 2687 2733 
Q 2419 3097 1959 3097 
z
M 1959 3584 
Q 2709 3584 3137 3096 
Q 3566 2609 3566 1747 
Q 3566 888 3137 398 
Q 2709 -91 1959 -91 
Q 1206 -91 779 398 
Q 353 888 353 1747 
Q 353 2609 779 3096 
Q 1206 3584 1959 3584 
z
" transform="scale(0.015625)"/>
       <path id="DejaVuSans-73" d="M 2834 3397 
L 2834 2853 
Q 2591 2978 2328 3040 
Q 2066 3103 1784 3103 
Q 1356 3103 1142 2972 
Q 928 2841 928 2578 
Q 928 2378 1081 2264 
Q 1234 2150 1697 2047 
L 1894 2003 
Q 2506 1872 2764 1633 
Q 3022 1394 3022 966 
Q 3022 478 2636 193 
Q 2250 -91 1575 -91 
Q 1294 -91 989 -36 
Q 684 19 347 128 
L 347 722 
Q 666 556 975 473 
Q 1284 391 1588 391 
Q 1994 391 2212 530 
Q 2431 669 2431 922 
Q 2431 1156 2273 1281 
Q 2116 1406 1581 1522 
L 1381 1569 
Q 847 1681 609 1914 
Q 372 2147 372 2553 
Q 372 3047 722 3315 
Q 1072 3584 1716 3584 
Q 2034 3584 2315 3537 
Q 2597 3491 2834 3397 
z
" transform="scale(0.015625)"/>
       <path id="DejaVuSans-20" transform="scale(0.015625)"/>
       <path id="DejaVuSans-4e" d="M 628 4666 
L 1478 4666 
L 3547 763 
L 3547 4666 
L 4159 4666 
L 4159 0 
L 3309 0 
L 1241 3903 
L 1241 0 
L 628 0 
L 628 4666 
z
" transform="scale(0.015625)"/>
       <path id="DejaVuSans-5b" d="M 550 4863 
L 1875 4863 
L 1875 4416 
L 1125 4416 
L 1125 -397 
L 1875 -397 
L 1875 -844 
L 550 -844 
L 550 4863 
z
" transform="scale(0.015625)"/>
       <path id="DejaVuSans-6d" d="M 3328 2828 
Q 3544 3216 3844 3400 
Q 4144 3584 4550 3584 
Q 5097 3584 5394 3201 
Q 5691 2819 5691 2113 
L 5691 0 
L 5113 0 
L 5113 2094 
Q 5113 2597 4934 2840 
Q 4756 3084 4391 3084 
Q 3944 3084 3684 2787 
Q 3425 2491 3425 1978 
L 3425 0 
L 2847 0 
L 2847 2094 
Q 2847 2600 2669 2842 
Q 2491 3084 2119 3084 
Q 1678 3084 1418 2786 
Q 1159 2488 1159 1978 
L 1159 0 
L 581 0 
L 581 3500 
L 1159 3500 
L 1159 2956 
Q 1356 3278 1631 3431 
Q 1906 3584 2284 3584 
Q 2666 3584 2933 3390 
Q 3200 3197 3328 2828 
z
" transform="scale(0.015625)"/>
       <path id="DejaVuSans-5d" d="M 1947 4863 
L 1947 -844 
L 622 -844 
L 622 -397 
L 1369 -397 
L 1369 4416 
L 622 4416 
L 622 4863 
L 1947 4863 
z
" transform="scale(0.015625)"/>
      </defs>
      <use xlink:href="#DejaVuSans-50"/>
      <use xlink:href="#DejaVuSans-6f" x="56.677734"/>
      <use xlink:href="#DejaVuSans-73" x="117.859375"/>
      <use xlink:href="#DejaVuSans-20" x="169.958984"/>
      <use xlink:href="#DejaVuSans-4e" x="201.746094"/>
      <use xlink:href="#DejaVuSans-20" x="276.550781"/>
      <use xlink:href="#DejaVuSans-5b" x="308.337891"/>
      <use xlink:href="#DejaVuSans-6d" x="347.351562"/>
      <use xlink:href="#DejaVuSans-5d" x="444.763672"/>
     </g>
    </g>
   </g>
   <g id="line2d_15">
    <path d="M 67.25 117.2825 
L 70.371775 124.50949 
L 73.49355 119.812912 
L 76.615325 121.422333 
L 79.7371 122.661684 
L 82.858875 122.263846 
L 85.98065 117.18881 
L 89.102425 120.449886 
L 92.2242 107.544857 
L 95.345975 118.972489 
L 98.46775 120.368978 
L 101.589525 122.882602 
L 104.7113 107.435503 
L 107.833075 109.217199 
L 110.95485 104.116577 
L 114.076625 123.667432 
L 117.1984 120.061703 
L 120.320175 111.131029 
L 123.44195 112.733228 
L 126.563725 105.649694 
L 129.6855 115.634817 
L 132.807275 105.154016 
L 135.92905 90.913151 
L 139.050825 106.810184 
L 142.1726 118.140506 
L 145.294375 107.306731 
L 148.41615 98.726935 
L 151.537925 112.552954 
L 154.6597 120.385719 
L 157.781475 122.791378 
L 160.90325 132.301075 
L 164.025025 133.144682 
L 167.1468 133.084048 
L 170.268575 130.252497 
L 173.39035 121.880565 
L 176.512125 114.878289 
L 179.6339 100.228945 
L 182.755675 115.281099 
L 185.87745 108.319275 
L 188.999225 114.425676 
L 192.121 116.847044 
L 195.242775 111.531556 
L 198.36455 123.834839 
L 201.486325 117.904642 
L 204.6081 115.457774 
L 207.729875 111.271192 
L 210.85165 110.930557 
L 213.973425 92.320608 
L 217.0952 109.136208 
L 220.216975 119.541131 
L 223.33875 125.609189 
L 226.460525 127.177775 
L 229.5823 127.580965 
L 232.704075 111.10097 
L 235.82585 99.367764 
L 238.947625 111.45116 
L 242.0694 122.290638 
L 245.191175 116.786107 
L 248.31295 121.516344 
L 251.434725 113.774966 
L 254.5565 112.706158 
L 257.678275 127.59934 
L 260.80005 109.579686 
L 263.921825 96.057007 
L 267.0436 110.529599 
L 270.165375 118.504919 
L 273.28715 116.69446 
L 276.408925 114.305681 
L 279.5307 109.819275 
L 282.652475 95.547647 
L 285.77425 107.058684 
L 288.896025 120.523024 
L 292.0178 132.922938 
L 295.139575 132.882929 
L 298.26135 124.936792 
L 301.383125 103.570533 
L 304.5049 111.992674 
L 307.626675 112.370426 
L 310.74845 114.981944 
L 313.870225 106.052004 
L 316.992 89.150546 
L 320.113775 107.074442 
L 323.23555 118.754928 
L 326.357325 111.28451 
L 329.4791 108.836846 
L 332.600875 97.263439 
L 335.72265 101.993037 
L 338.844425 114.084821 
L 341.9662 112.777685 
L 345.087975 106.499237 
L 348.20975 105.089766 
L 351.331525 107.419653 
L 354.4533 104.180375 
L 357.575075 101.420305 
L 360.69685 98.290911 
L 363.818625 103.341047 
L 366.9404 113.818623 
L 370.062175 116.784283 
L 373.18395 108.14138 
L 376.305725 120.146071 
L 379.4275 116.954469 
L 382.549275 120.918863 
L 385.67105 119.315519 
L 388.792825 107.060214 
L 391.9146 109.584916 
L 395.036375 113.373998 
L 398.15815 128.131902 
L 401.279925 117.883687 
L 404.4017 111.55085 
L 407.523475 94.941455 
L 410.64525 107.86578 
L 413.767025 112.440169 
L 416.8888 114.534206 
L 420.010575 103.587316 
L 423.13235 111.577528 
L 426.254125 113.597743 
L 429.3759 111.534885 
L 432.497675 113.707263 
L 435.61945 120.484896 
L 438.741225 118.529556 
L 441.863 109.034843 
L 444.984775 121.856464 
L 448.10655 119.748317 
L 451.228325 125.067862 
L 454.3501 111.319654 
L 457.471875 126.735922 
L 460.59365 127.980485 
L 463.715425 119.587634 
L 466.8372 103.899364 
L 469.958975 109.78972 
L 473.08075 119.080038 
L 476.202525 103.355082 
L 479.3243 122.887766 
L 482.446075 141.564132 
L 485.56785 127.810474 
L 488.689625 125.949282 
L 491.8114 129.518858 
L 494.933175 116.637605 
L 498.05495 113.217302 
L 501.176725 119.424121 
L 504.2985 130.04518 
L 507.420275 117.096854 
L 510.54205 110.697508 
L 513.663825 114.300522 
L 516.7856 100.258905 
L 519.907375 117.963343 
L 523.02915 133.289172 
L 526.150925 133.714712 
L 529.2727 126.427607 
L 532.394475 118.802192 
L 535.51625 118.902514 
L 538.638025 114.560778 
L 541.7598 126.511171 
L 544.881575 110.297678 
L 548.00335 113.689201 
L 551.125125 106.20704 
L 554.2469 108.991781 
L 557.368675 110.371953 
L 560.49045 110.314017 
L 563.612225 111.295654 
L 566.734 110.1222 
L 569.855775 103.358862 
L 572.97755 109.492437 
L 576.099325 109.118764 
L 579.2211 115.646788 
L 582.342875 105.871723 
L 585.46465 118.201487 
L 588.586425 104.075872 
L 591.7082 111.344851 
L 594.829975 128.455908 
L 597.95175 124.251025 
L 601.073525 127.253654 
L 604.1953 115.174111 
L 607.317075 120.884908 
L 610.43885 123.14076 
L 613.560625 136.918456 
L 616.6824 131.865573 
L 619.804175 144.835074 
L 622.92595 144.555815 
L 626.047725 122.589935 
L 629.1695 109.327214 
L 632.291275 106.67565 
L 635.41305 119.408526 
L 638.534825 119.840123 
L 641.6566 119.171674 
L 644.778375 128.569986 
L 647.90015 110.510054 
L 651.021925 104.870921 
L 654.1437 112.469553 
L 657.265475 115.699381 
L 660.38725 115.7922 
L 663.509025 135.126506 
L 666.6308 130.144067 
L 669.752575 129.244224 
L 672.87435 131.021561 
L 675.996125 125.546065 
L 679.1179 104.032191 
L 682.239675 102.367397 
L 685.36145 114.168419 
L 688.483225 112.065697 
L 688.483225 112.065697 
" clip-path="url(#p90eeef002c)" style="fill: none; stroke: #1f77b4; stroke-width: 1.5; stroke-linecap: square"/>
   </g>
   <g id="line2d_16">
    <path d="M 67.25 164.270833 
L 691.605 164.270833 
" clip-path="url(#p90eeef002c)" style="fill: none; stroke-dasharray: 5.55,2.4; stroke-dashoffset: 0; stroke: #ff0000; stroke-width: 1.5"/>
   </g>
   <g id="line2d_17">
    <path d="M 67.25 70.294167 
L 691.605 70.294167 
" clip-path="url(#p90eeef002c)" style="fill: none; stroke-dasharray: 5.55,2.4; stroke-dashoffset: 0; stroke: #ff0000; stroke-width: 1.5"/>
   </g>
   <g id="patch_3">
    <path d="M 67.25 187.765 
L 67.25 46.8 
" style="fill: none; stroke: #000000; stroke-width: 0.8; stroke-linejoin: miter; stroke-linecap: square"/>
   </g>
   <g id="patch_4">
    <path d="M 691.605 187.765 
L 691.605 46.8 
" style="fill: none; stroke: #000000; stroke-width: 0.8; stroke-linejoin: miter; stroke-linecap: square"/>
   </g>
   <g id="patch_5">
    <path d="M 67.25 187.765 
L 691.605 187.765 
" style="fill: none; stroke: #000000; stroke-width: 0.8; stroke-linejoin: miter; stroke-linecap: square"/>
   </g>
   <g id="patch_6">
    <path d="M 67.25 46.8 
L 691.605 46.8 
" style="fill: none; stroke: #000000; stroke-width: 0.8; stroke-linejoin: miter; stroke-linecap: square"/>
   </g>
  </g>
  <g id="axes_2">
   <g id="patch_7">
    <path d="M 67.25 347.35 
L 691.605 347.35 
L 691.605 206.385 
L 67.25 206.385 
z
" style="fill: #ffffff"/>
   </g>
   <g id="matplotlib.axis_3">
    <g id="xtick_10">
     <g id="line2d_18">
      <g>
       <use xlink:href="#m983c700160" x="67.25" y="347.35" style="stroke: #000000; stroke-width: 0.8"/>
      </g>
     </g>
    </g>
    <g id="xtick_11">
     <g id="line2d_19">
      <g>
       <use xlink:href="#m983c700160" x="145.294375" y="347.35" style="stroke: #000000; stroke-width: 0.8"/>
      </g>
     </g>
    </g>
    <g id="xtick_12">
     <g id="line2d_20">
      <g>
       <use xlink:href="#m983c700160" x="223.33875" y="347.35" style="stroke: #000000; stroke-width: 0.8"/>
      </g>
     </g>
    </g>
    <g id="xtick_13">
     <g id="line2d_21">
      <g>
       <use xlink:href="#m983c700160" x="301.383125" y="347.35" style="stroke: #000000; stroke-width: 0.8"/>
      </g>
     </g>
    </g>
    <g id="xtick_14">
     <g id="line2d_22">
      <g>
       <use xlink:href="#m983c700160" x="379.4275" y="347.35" style="stroke: #000000; stroke-width: 0.8"/>
      </g>
     </g>
    </g>
    <g id="xtick_15">
     <g id="line2d_23">
      <g>
       <use xlink:href="#m983c700160" x="457.471875" y="347.35" style="stroke: #000000; stroke-width: 0.8"/>
      </g>
     </g>
    </g>
    <g id="xtick_16">
     <g id="line2d_24">
      <g>
       <use xlink:href="#m983c700160" x="535.51625" y="347.35" style="stroke: #000000; stroke-width: 0.8"/>
      </g>
     </g>
    </g>
    <g id="xtick_17">
     <g id="line2d_25">
      <g>
       <use xlink:href="#m983c700160" x="613.560625" y="347.35" style="stroke: #000000; stroke-width: 0.8"/>
      </g>
     </g>
    </g>
    <g id="xtick_18">
     <g id="line2d_26">
      <g>
       <use xlink:href="#m983c700160" x="691.605" y="347.35" style="stroke: #000000; stroke-width: 0.8"/>
      </g>
     </g>
    </g>
   </g>
   <g id="matplotlib.axis_4">
    <g id="ytick_6">
     <g id="line2d_27">
      <g>
       <use xlink:href="#m7e58cd9aa0" x="67.25" y="333.025935" style="stroke: #000000; stroke-width: 0.8"/>
      </g>
     </g>
     <g id="text_7">
      <!-- -2.0 -->
      <g transform="translate(32.934688 338.344841) scale(0.14 -0.14)">
       <use xlink:href="#DejaVuSans-2d"/>
       <use xlink:href="#DejaVuSans-32" x="36.083984"/>
       <use xlink:href="#DejaVuSans-2e" x="99.707031"/>
       <use xlink:href="#DejaVuSans-30" x="131.494141"/>
      </g>
     </g>
    </g>
    <g id="ytick_7">
     <g id="line2d_28">
      <g>
       <use xlink:href="#m7e58cd9aa0" x="67.25" y="304.946717" style="stroke: #000000; stroke-width: 0.8"/>
      </g>
     </g>
     <g id="text_8">
      <!-- -1.0 -->
      <g transform="translate(32.934688 310.265624) scale(0.14 -0.14)">
       <use xlink:href="#DejaVuSans-2d"/>
       <use xlink:href="#DejaVuSans-31" x="36.083984"/>
       <use xlink:href="#DejaVuSans-2e" x="99.707031"/>
       <use xlink:href="#DejaVuSans-30" x="131.494141"/>
      </g>
     </g>
    </g>
    <g id="ytick_8">
     <g id="line2d_29">
      <g>
       <use xlink:href="#m7e58cd9aa0" x="67.25" y="276.8675" style="stroke: #000000; stroke-width: 0.8"/>
      </g>
     </g>
     <g id="text_9">
      <!-- 0.0 -->
      <g transform="translate(37.985625 282.186406) scale(0.14 -0.14)">
       <use xlink:href="#DejaVuSans-30"/>
       <use xlink:href="#DejaVuSans-2e" x="63.623047"/>
       <use xlink:href="#DejaVuSans-30" x="95.410156"/>
      </g>
     </g>
    </g>
    <g id="ytick_9">
     <g id="line2d_30">
      <g>
       <use xlink:href="#m7e58cd9aa0" x="67.25" y="248.788283" style="stroke: #000000; stroke-width: 0.8"/>
      </g>
     </g>
     <g id="text_10">
      <!-- 1.0 -->
      <g transform="translate(37.985625 254.107189) scale(0.14 -0.14)">
       <use xlink:href="#DejaVuSans-31"/>
       <use xlink:href="#DejaVuSans-2e" x="63.623047"/>
       <use xlink:href="#DejaVuSans-30" x="95.410156"/>
      </g>
     </g>
    </g>
    <g id="ytick_10">
     <g id="line2d_31">
      <g>
       <use xlink:href="#m7e58cd9aa0" x="67.25" y="220.709065" style="stroke: #000000; stroke-width: 0.8"/>
      </g>
     </g>
     <g id="text_11">
      <!-- 2.0 -->
      <g transform="translate(37.985625 226.027971) scale(0.14 -0.14)">
       <use xlink:href="#DejaVuSans-32"/>
       <use xlink:href="#DejaVuSans-2e" x="63.623047"/>
       <use xlink:href="#DejaVuSans-30" x="95.410156"/>
      </g>
     </g>
    </g>
    <g id="text_12">
     <!-- Pos E [m] -->
     <g transform="translate(26.023125 309.917344) rotate(-90) scale(0.14 -0.14)">
      <defs>
       <path id="DejaVuSans-45" d="M 628 4666 
L 3578 4666 
L 3578 4134 
L 1259 4134 
L 1259 2753 
L 3481 2753 
L 3481 2222 
L 1259 2222 
L 1259 531 
L 3634 531 
L 3634 0 
L 628 0 
L 628 4666 
z
" transform="scale(0.015625)"/>
      </defs>
      <use xlink:href="#DejaVuSans-50"/>
      <use xlink:href="#DejaVuSans-6f" x="56.677734"/>
      <use xlink:href="#DejaVuSans-73" x="117.859375"/>
      <use xlink:href="#DejaVuSans-20" x="169.958984"/>
      <use xlink:href="#DejaVuSans-45" x="201.746094"/>
      <use xlink:href="#DejaVuSans-20" x="264.929688"/>
      <use xlink:href="#DejaVuSans-5b" x="296.716797"/>
      <use xlink:href="#DejaVuSans-6d" x="335.730469"/>
      <use xlink:href="#DejaVuSans-5d" x="433.142578"/>
     </g>
    </g>
   </g>
   <g id="line2d_32">
    <path d="M 67.25 276.8675 
L 70.371775 263.917513 
L 73.49355 270.062934 
L 76.615325 278.279632 
L 79.7371 272.894907 
L 82.858875 271.126925 
L 85.98065 265.865856 
L 89.102425 265.432701 
L 92.2242 262.157324 
L 95.345975 274.500125 
L 98.46775 265.760172 
L 101.589525 269.724841 
L 104.7113 255.912093 
L 107.833075 272.093997 
L 110.95485 261.211624 
L 114.076625 267.627515 
L 117.1984 279.220857 
L 120.320175 283.991023 
L 123.44195 284.037452 
L 126.563725 276.509329 
L 129.6855 270.869955 
L 132.807275 277.696396 
L 135.92905 277.485777 
L 139.050825 258.190434 
L 142.1726 250.831513 
L 145.294375 259.689232 
L 148.41615 269.721449 
L 151.537925 274.644009 
L 154.6597 272.183924 
L 157.781475 284.178107 
L 160.90325 284.023772 
L 164.025025 295.05396 
L 167.1468 282.614907 
L 170.268575 272.126312 
L 173.39035 276.574084 
L 176.512125 262.326577 
L 179.6339 278.968297 
L 182.755675 291.863453 
L 185.87745 283.582307 
L 192.121 256.967144 
L 195.242775 269.482842 
L 198.36455 264.946736 
L 201.486325 271.93985 
L 204.6081 277.373887 
L 207.729875 270.737066 
L 210.85165 268.284709 
L 213.973425 286.620876 
L 217.0952 270.647546 
L 220.216975 260.987962 
L 223.33875 273.781371 
L 226.460525 273.332114 
L 229.5823 271.692121 
L 232.704075 272.587641 
L 235.82585 280.226156 
L 238.947625 285.54418 
L 242.0694 282.180128 
L 245.191175 268.969218 
L 248.31295 266.904355 
L 251.434725 274.8922 
L 254.5565 270.204922 
L 257.678275 298.86455 
L 260.80005 280.37646 
L 263.921825 292.699899 
L 267.0436 288.06219 
L 273.28715 294.420049 
L 276.408925 274.514229 
L 279.5307 277.078059 
L 282.652475 273.023444 
L 285.77425 274.763128 
L 288.896025 271.844167 
L 292.0178 273.884943 
L 295.139575 287.287241 
L 298.26135 274.938945 
L 301.383125 279.771747 
L 304.5049 292.30385 
L 307.626675 289.338104 
L 310.74845 269.579651 
L 313.870225 263.77278 
L 316.992 272.615915 
L 320.113775 278.979718 
L 323.23555 282.214955 
L 326.357325 262.448384 
L 329.4791 265.492504 
L 332.600875 268.296385 
L 335.72265 265.121808 
L 338.844425 270.240258 
L 341.9662 277.768008 
L 345.087975 281.146506 
L 348.20975 281.111714 
L 351.331525 280.053144 
L 354.4533 272.405032 
L 357.575075 273.90763 
L 360.69685 269.467917 
L 363.818625 274.268455 
L 366.9404 276.09315 
L 370.062175 295.085689 
L 373.18395 280.074317 
L 376.305725 274.712359 
L 379.4275 266.425021 
L 382.549275 296.484703 
L 385.67105 271.008129 
L 388.792825 273.912755 
L 391.9146 265.876894 
L 395.036375 280.467041 
L 398.15815 275.172697 
L 401.279925 285.867291 
L 404.4017 288.184964 
L 407.523475 266.355964 
L 410.64525 271.730302 
L 413.767025 272.84137 
L 416.8888 268.103993 
L 420.010575 268.769627 
L 423.13235 272.627099 
L 426.254125 273.09961 
L 429.3759 255.285529 
L 432.497675 266.556172 
L 435.61945 272.190402 
L 438.741225 267.685847 
L 441.863 264.01251 
L 444.984775 261.306529 
L 448.10655 264.942692 
L 451.228325 282.991852 
L 454.3501 268.793185 
L 457.471875 283.347889 
L 460.59365 279.320958 
L 463.715425 285.156409 
L 466.8372 282.209964 
L 469.958975 276.468087 
L 473.08075 273.230606 
L 476.202525 271.01454 
L 479.3243 259.890483 
L 482.446075 264.222695 
L 485.56785 274.01407 
L 488.689625 269.209676 
L 491.8114 263.741082 
L 494.933175 281.808012 
L 501.176725 271.292291 
L 504.2985 276.80558 
L 507.420275 265.650772 
L 510.54205 272.35597 
L 513.663825 274.57638 
L 516.7856 278.243395 
L 519.907375 278.352688 
L 523.02915 287.626082 
L 526.150925 295.586577 
L 529.2727 272.565477 
L 532.394475 279.667977 
L 535.51625 286.410258 
L 538.638025 300.451825 
L 541.7598 294.556054 
L 544.881575 295.614688 
L 548.00335 270.031739 
L 551.125125 260.883001 
L 554.2469 272.775892 
L 557.368675 255.747818 
L 560.49045 257.137585 
L 563.612225 270.837624 
L 566.734 298.187812 
L 569.855775 270.810511 
L 572.97755 284.526025 
L 576.099325 295.481705 
L 579.2211 277.583021 
L 582.342875 253.704517 
L 585.46465 250.385072 
L 588.586425 258.33532 
L 591.7082 264.192871 
L 594.829975 265.332248 
L 597.95175 266.304058 
L 601.073525 270.663094 
L 604.1953 274.387939 
L 607.317075 277.397247 
L 610.43885 284.508317 
L 613.560625 283.783611 
L 616.6824 294.750605 
L 619.804175 286.576277 
L 622.92595 288.514878 
L 626.047725 290.735135 
L 629.1695 280.652499 
L 632.291275 264.106104 
L 635.41305 259.697477 
L 638.534825 280.868229 
L 641.6566 289.102737 
L 644.778375 275.627134 
L 647.90015 283.434887 
L 651.021925 281.743428 
L 654.1437 273.567673 
L 657.265475 282.145144 
L 660.38725 278.310165 
L 663.509025 288.291903 
L 666.6308 287.651259 
L 669.752575 278.389636 
L 672.87435 289.502885 
L 675.996125 278.663029 
L 679.1179 275.881591 
L 682.239675 269.960012 
L 685.36145 270.073009 
L 688.483225 261.012918 
L 688.483225 261.012918 
" clip-path="url(#p6555061d0d)" style="fill: none; stroke: #1f77b4; stroke-width: 1.5; stroke-linecap: square"/>
   </g>
   <g id="line2d_33">
    <path d="M 67.25 323.855833 
L 691.605 323.855833 
" clip-path="url(#p6555061d0d)" style="fill: none; stroke-dasharray: 5.55,2.4; stroke-dashoffset: 0; stroke: #ff0000; stroke-width: 1.5"/>
   </g>
   <g id="line2d_34">
    <path d="M 67.25 229.879167 
L 691.605 229.879167 
" clip-path="url(#p6555061d0d)" style="fill: none; stroke-dasharray: 5.55,2.4; stroke-dashoffset: 0; stroke: #ff0000; stroke-width: 1.5"/>
   </g>
   <g id="patch_8">
    <path d="M 67.25 347.35 
L 67.25 206.385 
" style="fill: none; stroke: #000000; stroke-width: 0.8; stroke-linejoin: miter; stroke-linecap: square"/>
   </g>
   <g id="patch_9">
    <path d="M 691.605 347.35 
L 691.605 206.385 
" style="fill: none; stroke: #000000; stroke-width: 0.8; stroke-linejoin: miter; stroke-linecap: square"/>
   </g>
   <g id="patch_10">
    <path d="M 67.25 347.35 
L 691.605 347.35 
" style="fill: none; stroke: #000000; stroke-width: 0.8; stroke-linejoin: miter; stroke-linecap: square"/>
   </g>
   <g id="patch_11">
    <path d="M 67.25 206.385 
L 691.605 206.385 
" style="fill: none; stroke: #000000; stroke-width: 0.8; stroke-linejoin: miter; stroke-linecap: square"/>
   </g>
  </g>
  <g id="axes_3">
   <g id="patch_12">
    <path d="M 67.25 506.935 
L 691.605 506.935 
L 691.605 365.97 
L 67.25 365.97 
z
" style="fill: #ffffff"/>
   </g>
   <g id="matplotlib.axis_5">
    <g id="xtick_19">
     <g id="line2d_35">
      <g>
       <use xlink:href="#m983c700160" x="67.25" y="506.935" style="stroke: #000000; stroke-width: 0.8"/>
      </g>
     </g>
    </g>
    <g id="xtick_20">
     <g id="line2d_36">
      <g>
       <use xlink:href="#m983c700160" x="145.294375" y="506.935" style="stroke: #000000; stroke-width: 0.8"/>
      </g>
     </g>
    </g>
    <g id="xtick_21">
     <g id="line2d_37">
      <g>
       <use xlink:href="#m983c700160" x="223.33875" y="506.935" style="stroke: #000000; stroke-width: 0.8"/>
      </g>
     </g>
    </g>
    <g id="xtick_22">
     <g id="line2d_38">
      <g>
       <use xlink:href="#m983c700160" x="301.383125" y="506.935" style="stroke: #000000; stroke-width: 0.8"/>
      </g>
     </g>
    </g>
    <g id="xtick_23">
     <g id="line2d_39">
      <g>
       <use xlink:href="#m983c700160" x="379.4275" y="506.935" style="stroke: #000000; stroke-width: 0.8"/>
      </g>
     </g>
    </g>
    <g id="xtick_24">
     <g id="line2d_40">
      <g>
       <use xlink:href="#m983c700160" x="457.471875" y="506.935" style="stroke: #000000; stroke-width: 0.8"/>
      </g>
     </g>
    </g>
    <g id="xtick_25">
     <g id="line2d_41">
      <g>
       <use xlink:href="#m983c700160" x="535.51625" y="506.935" style="stroke: #000000; stroke-width: 0.8"/>
      </g>
     </g>
    </g>
    <g id="xtick_26">
     <g id="line2d_42">
      <g>
       <use xlink:href="#m983c700160" x="613.560625" y="506.935" style="stroke: #000000; stroke-width: 0.8"/>
      </g>
     </g>
    </g>
    <g id="xtick_27">
     <g id="line2d_43">
      <g>
       <use xlink:href="#m983c700160" x="691.605" y="506.935" style="stroke: #000000; stroke-width: 0.8"/>
      </g>
     </g>
    </g>
   </g>
   <g id="matplotlib.axis_6">
    <g id="ytick_11">
     <g id="line2d_44">
      <g>
       <use xlink:href="#m7e58cd9aa0" x="67.25" y="502.170082" style="stroke: #000000; stroke-width: 0.8"/>
      </g>
     </g>
     <g id="text_13">
      <!-- -0.8 -->
      <g transform="translate(32.934688 507.488988) scale(0.14 -0.14)">
       <defs>
        <path id="DejaVuSans-38" d="M 2034 2216 
Q 1584 2216 1326 1975 
Q 1069 1734 1069 1313 
Q 1069 891 1326 650 
Q 1584 409 2034 409 
Q 2484 409 2743 651 
Q 3003 894 3003 1313 
Q 3003 1734 2745 1975 
Q 2488 2216 2034 2216 
z
M 1403 2484 
Q 997 2584 770 2862 
Q 544 3141 544 3541 
Q 544 4100 942 4425 
Q 1341 4750 2034 4750 
Q 2731 4750 3128 4425 
Q 3525 4100 3525 3541 
Q 3525 3141 3298 2862 
Q 3072 2584 2669 2484 
Q 3125 2378 3379 2068 
Q 3634 1759 3634 1313 
Q 3634 634 3220 271 
Q 2806 -91 2034 -91 
Q 1263 -91 848 271 
Q 434 634 434 1313 
Q 434 1759 690 2068 
Q 947 2378 1403 2484 
z
M 1172 3481 
Q 1172 3119 1398 2916 
Q 1625 2713 2034 2713 
Q 2441 2713 2670 2916 
Q 2900 3119 2900 3481 
Q 2900 3844 2670 4047 
Q 2441 4250 2034 4250 
Q 1625 4250 1398 4047 
Q 1172 3844 1172 3481 
z
" transform="scale(0.015625)"/>
       </defs>
       <use xlink:href="#DejaVuSans-2d"/>
       <use xlink:href="#DejaVuSans-30" x="36.083984"/>
       <use xlink:href="#DejaVuSans-2e" x="99.707031"/>
       <use xlink:href="#DejaVuSans-38" x="131.494141"/>
      </g>
     </g>
    </g>
    <g id="ytick_12">
     <g id="line2d_45">
      <g>
       <use xlink:href="#m7e58cd9aa0" x="67.25" y="480.264221" style="stroke: #000000; stroke-width: 0.8"/>
      </g>
     </g>
     <g id="text_14">
      <!-- -0.5 -->
      <g transform="translate(32.934688 485.583127) scale(0.14 -0.14)">
       <defs>
        <path id="DejaVuSans-35" d="M 691 4666 
L 3169 4666 
L 3169 4134 
L 1269 4134 
L 1269 2991 
Q 1406 3038 1543 3061 
Q 1681 3084 1819 3084 
Q 2600 3084 3056 2656 
Q 3513 2228 3513 1497 
Q 3513 744 3044 326 
Q 2575 -91 1722 -91 
Q 1428 -91 1123 -41 
Q 819 9 494 109 
L 494 744 
Q 775 591 1075 516 
Q 1375 441 1709 441 
Q 2250 441 2565 725 
Q 2881 1009 2881 1497 
Q 2881 1984 2565 2268 
Q 2250 2553 1709 2553 
Q 1456 2553 1204 2497 
Q 953 2441 691 2322 
L 691 4666 
z
" transform="scale(0.015625)"/>
       </defs>
       <use xlink:href="#DejaVuSans-2d"/>
       <use xlink:href="#DejaVuSans-30" x="36.083984"/>
       <use xlink:href="#DejaVuSans-2e" x="99.707031"/>
       <use xlink:href="#DejaVuSans-35" x="131.494141"/>
      </g>
     </g>
    </g>
    <g id="ytick_13">
     <g id="line2d_46">
      <g>
       <use xlink:href="#m7e58cd9aa0" x="67.25" y="458.358361" style="stroke: #000000; stroke-width: 0.8"/>
      </g>
     </g>
     <g id="text_15">
      <!-- -0.2 -->
      <g transform="translate(32.934688 463.677267) scale(0.14 -0.14)">
       <use xlink:href="#DejaVuSans-2d"/>
       <use xlink:href="#DejaVuSans-30" x="36.083984"/>
       <use xlink:href="#DejaVuSans-2e" x="99.707031"/>
       <use xlink:href="#DejaVuSans-32" x="131.494141"/>
      </g>
     </g>
    </g>
    <g id="ytick_14">
     <g id="line2d_47">
      <g>
       <use xlink:href="#m7e58cd9aa0" x="67.25" y="436.4525" style="stroke: #000000; stroke-width: 0.8"/>
      </g>
     </g>
     <g id="text_16">
      <!-- 0.0 -->
      <g transform="translate(37.985625 441.771406) scale(0.14 -0.14)">
       <use xlink:href="#DejaVuSans-30"/>
       <use xlink:href="#DejaVuSans-2e" x="63.623047"/>
       <use xlink:href="#DejaVuSans-30" x="95.410156"/>
      </g>
     </g>
    </g>
    <g id="ytick_15">
     <g id="line2d_48">
      <g>
       <use xlink:href="#m7e58cd9aa0" x="67.25" y="414.546639" style="stroke: #000000; stroke-width: 0.8"/>
      </g>
     </g>
     <g id="text_17">
      <!-- 0.2 -->
      <g transform="translate(37.985625 419.865546) scale(0.14 -0.14)">
       <use xlink:href="#DejaVuSans-30"/>
       <use xlink:href="#DejaVuSans-2e" x="63.623047"/>
       <use xlink:href="#DejaVuSans-32" x="95.410156"/>
      </g>
     </g>
    </g>
    <g id="ytick_16">
     <g id="line2d_49">
      <g>
       <use xlink:href="#m7e58cd9aa0" x="67.25" y="392.640779" style="stroke: #000000; stroke-width: 0.8"/>
      </g>
     </g>
     <g id="text_18">
      <!-- 0.5 -->
      <g transform="translate(37.985625 397.959685) scale(0.14 -0.14)">
       <use xlink:href="#DejaVuSans-30"/>
       <use xlink:href="#DejaVuSans-2e" x="63.623047"/>
       <use xlink:href="#DejaVuSans-35" x="95.410156"/>
      </g>
     </g>
    </g>
    <g id="ytick_17">
     <g id="line2d_50">
      <g>
       <use xlink:href="#m7e58cd9aa0" x="67.25" y="370.734918" style="stroke: #000000; stroke-width: 0.8"/>
      </g>
     </g>
     <g id="text_19">
      <!-- 0.8 -->
      <g transform="translate(37.985625 376.053825) scale(0.14 -0.14)">
       <use xlink:href="#DejaVuSans-30"/>
       <use xlink:href="#DejaVuSans-2e" x="63.623047"/>
       <use xlink:href="#DejaVuSans-38" x="95.410156"/>
      </g>
     </g>
    </g>
    <g id="text_20">
     <!-- Vel N [m/s] -->
     <g transform="translate(26.023125 474.921875) rotate(-90) scale(0.14 -0.14)">
      <defs>
       <path id="DejaVuSans-56" d="M 1831 0 
L 50 4666 
L 709 4666 
L 2188 738 
L 3669 4666 
L 4325 4666 
L 2547 0 
L 1831 0 
z
" transform="scale(0.015625)"/>
       <path id="DejaVuSans-65" d="M 3597 1894 
L 3597 1613 
L 953 1613 
Q 991 1019 1311 708 
Q 1631 397 2203 397 
Q 2534 397 2845 478 
Q 3156 559 3463 722 
L 3463 178 
Q 3153 47 2828 -22 
Q 2503 -91 2169 -91 
Q 1331 -91 842 396 
Q 353 884 353 1716 
Q 353 2575 817 3079 
Q 1281 3584 2069 3584 
Q 2775 3584 3186 3129 
Q 3597 2675 3597 1894 
z
M 3022 2063 
Q 3016 2534 2758 2815 
Q 2500 3097 2075 3097 
Q 1594 3097 1305 2825 
Q 1016 2553 972 2059 
L 3022 2063 
z
" transform="scale(0.015625)"/>
       <path id="DejaVuSans-6c" d="M 603 4863 
L 1178 4863 
L 1178 0 
L 603 0 
L 603 4863 
z
" transform="scale(0.015625)"/>
       <path id="DejaVuSans-2f" d="M 1625 4666 
L 2156 4666 
L 531 -594 
L 0 -594 
L 1625 4666 
z
" transform="scale(0.015625)"/>
      </defs>
      <use xlink:href="#DejaVuSans-56"/>
      <use xlink:href="#DejaVuSans-65" x="60.658203"/>
      <use xlink:href="#DejaVuSans-6c" x="122.181641"/>
      <use xlink:href="#DejaVuSans-20" x="149.964844"/>
      <use xlink:href="#DejaVuSans-4e" x="181.751953"/>
      <use xlink:href="#DejaVuSans-20" x="256.556641"/>
      <use xlink:href="#DejaVuSans-5b" x="288.34375"/>
      <use xlink:href="#DejaVuSans-6d" x="327.357422"/>
      <use xlink:href="#DejaVuSans-2f" x="424.769531"/>
      <use xlink:href="#DejaVuSans-73" x="458.460938"/>
      <use xlink:href="#DejaVuSans-5d" x="510.560547"/>
     </g>
    </g>
   </g>
   <g id="line2d_51">
    <path d="M 67.25 436.4525 
L 70.371775 436.420798 
L 73.49355 433.41186 
L 76.615325 437.156644 
L 79.7371 438.673177 
L 82.858875 436.66879 
L 85.98065 428.417658 
L 89.102425 437.042994 
L 92.2242 416.551052 
L 95.345975 443.501424 
L 98.46775 441.69275 
L 101.589525 442.446561 
L 104.7113 415.141173 
L 107.833075 427.765963 
L 110.95485 423.527713 
L 114.076625 459.266931 
L 120.320175 424.56213 
L 123.44195 432.037463 
L 126.563725 422.417761 
L 129.6855 443.764792 
L 132.807275 423.050799 
L 135.92905 406.724809 
L 139.050825 444.786478 
L 142.1726 457.013718 
L 145.294375 429.067988 
L 148.41615 418.335062 
L 151.537925 447.337983 
L 154.6597 452.782866 
L 157.781475 447.158968 
L 160.90325 455.208757 
L 164.025025 445.923616 
L 167.1468 439.796982 
L 170.268575 432.400237 
L 173.39035 420.099391 
L 176.512125 415.94735 
L 179.6339 402.052227 
L 182.755675 440.692191 
L 185.87745 426.382657 
L 188.999225 439.22011 
L 192.121 440.039403 
L 195.242775 428.533427 
L 198.36455 449.798937 
L 201.486325 432.507628 
L 204.6081 429.092035 
L 207.729875 424.674138 
L 210.85165 428.34503 
L 213.973425 402.086461 
L 217.0952 443.284785 
L 220.216975 454.299636 
L 223.33875 453.20777 
L 226.460525 445.730586 
L 229.5823 440.148894 
L 232.704075 411.342953 
L 235.82585 404.050975 
L 238.947625 437.010455 
L 242.0694 451.811034 
L 245.191175 434.172601 
L 248.31295 440.992546 
L 251.434725 425.270864 
L 254.5565 427.583955 
L 257.678275 453.334751 
L 260.80005 415.758315 
L 263.921825 403.650315 
L 267.0436 440.612699 
L 270.165375 449.37216 
L 273.28715 438.77707 
L 279.5307 426.178906 
L 282.652475 407.923783 
L 285.77425 438.373946 
L 288.896025 456.844554 
L 292.0178 464.600498 
L 295.139575 449.421902 
L 298.26135 429.596007 
L 301.383125 398.930686 
L 304.5049 429.26178 
L 307.626675 432.294726 
L 310.74845 437.307857 
L 313.870225 422.128334 
L 316.992 402.20793 
L 320.113775 445.74156 
L 323.23555 458.243032 
L 326.357325 435.153525 
L 329.4791 431.222962 
L 332.600875 415.232745 
L 335.72265 432.260377 
L 338.844425 452.26674 
L 341.9662 441.836286 
L 345.087975 428.94697 
L 348.20975 429.954176 
L 351.331525 436.267559 
L 354.4533 430.947001 
L 357.575075 429.037092 
L 360.69685 427.550626 
L 363.818625 439.434164 
L 366.9404 453.860081 
L 370.062175 449.663737 
L 373.18395 429.724282 
L 376.305725 451.441038 
L 379.4275 439.115897 
L 382.549275 443.931349 
L 385.67105 437.85569 
L 388.792825 418.435783 
L 391.9146 431.386662 
L 395.036375 439.947651 
L 398.15815 461.216514 
L 401.279925 433.568006 
L 404.4017 425.62835 
L 407.523475 405.839761 
L 410.64525 441.305065 
L 413.767025 446.48156 
L 416.8888 445.336773 
L 420.010575 424.736568 
L 423.13235 443.482135 
L 426.254125 443.843551 
L 429.3759 437.789238 
L 432.497675 441.282416 
L 435.61945 450.183655 
L 438.741225 441.300342 
L 441.863 425.238163 
L 444.984775 451.478389 
L 448.10655 441.845483 
L 451.228325 448.431875 
L 454.3501 422.467138 
L 457.471875 454.221782 
L 460.59365 448.546301 
L 463.715425 430.874331 
L 466.8372 410.724217 
L 469.958975 433.748347 
L 473.08075 450.682095 
L 476.202525 420.801856 
L 479.3243 459.93945 
L 482.446075 478.487312 
L 485.56785 438.011334 
L 488.689625 435.819496 
L 491.8114 443.088549 
L 494.933175 421.480163 
L 498.05495 425.106039 
L 501.176725 441.776982 
L 504.2985 457.037136 
L 507.420275 428.519246 
L 510.54205 424.155793 
L 513.663825 437.348376 
L 516.7856 416.894872 
L 519.907375 455.387888 
L 523.02915 471.247083 
L 526.150925 456.363505 
L 529.2727 436.955709 
L 532.394475 426.600737 
L 535.51625 433.241908 
L 538.638025 429.772653 
L 541.7598 453.082897 
L 544.881575 421.556389 
L 548.00335 435.739548 
L 551.125125 426.189757 
L 554.2469 437.139816 
L 557.368675 440.519189 
L 560.49045 440.007922 
L 563.612225 441.33566 
L 566.734 438.678037 
L 569.855775 428.71328 
L 572.97755 443.490753 
L 576.099325 440.9489 
L 579.2211 450.260454 
L 582.342875 429.871151 
L 585.46465 453.527904 
L 588.586425 424.784671 
L 591.7082 443.111222 
L 594.829975 467.518232 
L 597.95175 447.059792 
L 601.073525 447.75056 
L 604.1953 424.860705 
L 607.317075 440.601428 
L 610.43885 443.229748 
L 613.560625 462.256808 
L 616.6824 442.888442 
L 619.804175 460.766542 
L 622.92595 449.402934 
L 626.047725 410.231882 
L 629.1695 403.728696 
L 632.291275 416.719415 
L 635.41305 446.935524 
L 641.6566 439.688773 
L 644.778375 453.314848 
L 647.90015 417.923103 
L 651.021925 419.050471 
L 654.1437 439.945292 
L 657.265475 443.766185 
L 660.38725 440.827508 
L 663.509025 468.898189 
L 666.6308 445.658818 
L 669.752575 440.111895 
L 672.87435 441.369954 
L 675.996125 430.796648 
L 679.1179 400.706677 
L 682.239675 415.947683 
L 685.36145 444.343455 
L 688.483225 437.290559 
L 688.483225 437.290559 
" clip-path="url(#p10e615d194)" style="fill: none; stroke: #1f77b4; stroke-width: 1.5; stroke-linecap: square"/>
   </g>
   <g id="line2d_52">
    <path d="M 67.25 483.440833 
L 691.605 483.440833 
" clip-path="url(#p10e615d194)" style="fill: none; stroke-dasharray: 5.55,2.4; stroke-dashoffset: 0; stroke: #ff0000; stroke-width: 1.5"/>
   </g>
   <g id="line2d_53">
    <path d="M 67.25 389.464167 
L 691.605 389.464167 
" clip-path="url(#p10e615d194)" style="fill: none; stroke-dasharray: 5.55,2.4; stroke-dashoffset: 0; stroke: #ff0000; stroke-width: 1.5"/>
   </g>
   <g id="patch_13">
    <path d="M 67.25 506.935 
L 67.25 365.97 
" style="fill: none; stroke: #000000; stroke-width: 0.8; stroke-linejoin: miter; stroke-linecap: square"/>
   </g>
   <g id="patch_14">
    <path d="M 691.605 506.935 
L 691.605 365.97 
" style="fill: none; stroke: #000000; stroke-width: 0.8; stroke-linejoin: miter; stroke-linecap: square"/>
   </g>
   <g id="patch_15">
    <path d="M 67.25 506.935 
L 691.605 506.935 
" style="fill: none; stroke: #000000; stroke-width: 0.8; stroke-linejoin: miter; stroke-linecap: square"/>
   </g>
   <g id="patch_16">
    <path d="M 67.25 365.97 
L 691.605 365.97 
" style="fill: none; stroke: #000000; stroke-width: 0.8; stroke-linejoin: miter; stroke-linecap: square"/>
   </g>
  </g>
  <g id="axes_4">
   <g id="patch_17">
    <path d="M 67.25 666.52 
L 691.605 666.52 
L 691.605 525.555 
L 67.25 525.555 
z
" style="fill: #ffffff"/>
   </g>
   <g id="matplotlib.axis_7">
    <g id="xtick_28">
     <g id="line2d_54">
      <g>
       <use xlink:href="#m983c700160" x="67.25" y="666.52" style="stroke: #000000; stroke-width: 0.8"/>
      </g>
     </g>
     <g id="text_21">
      <!-- 0 -->
      <g transform="translate(62.79625 684.157812) scale(0.14 -0.14)">
       <use xlink:href="#DejaVuSans-30"/>
      </g>
     </g>
    </g>
    <g id="xtick_29">
     <g id="line2d_55">
      <g>
       <use xlink:href="#m983c700160" x="145.294375" y="666.52" style="stroke: #000000; stroke-width: 0.8"/>
      </g>
     </g>
     <g id="text_22">
      <!-- 25 -->
      <g transform="translate(136.386875 684.157812) scale(0.14 -0.14)">
       <use xlink:href="#DejaVuSans-32"/>
       <use xlink:href="#DejaVuSans-35" x="63.623047"/>
      </g>
     </g>
    </g>
    <g id="xtick_30">
     <g id="line2d_56">
      <g>
       <use xlink:href="#m983c700160" x="223.33875" y="666.52" style="stroke: #000000; stroke-width: 0.8"/>
      </g>
     </g>
     <g id="text_23">
      <!-- 50 -->
      <g transform="translate(214.43125 684.157812) scale(0.14 -0.14)">
       <use xlink:href="#DejaVuSans-35"/>
       <use xlink:href="#DejaVuSans-30" x="63.623047"/>
      </g>
     </g>
    </g>
    <g id="xtick_31">
     <g id="line2d_57">
      <g>
       <use xlink:href="#m983c700160" x="301.383125" y="666.52" style="stroke: #000000; stroke-width: 0.8"/>
      </g>
     </g>
     <g id="text_24">
      <!-- 75 -->
      <g transform="translate(292.475625 684.157812) scale(0.14 -0.14)">
       <defs>
        <path id="DejaVuSans-37" d="M 525 4666 
L 3525 4666 
L 3525 4397 
L 1831 0 
L 1172 0 
L 2766 4134 
L 525 4134 
L 525 4666 
z
" transform="scale(0.015625)"/>
       </defs>
       <use xlink:href="#DejaVuSans-37"/>
       <use xlink:href="#DejaVuSans-35" x="63.623047"/>
      </g>
     </g>
    </g>
    <g id="xtick_32">
     <g id="line2d_58">
      <g>
       <use xlink:href="#m983c700160" x="379.4275" y="666.52" style="stroke: #000000; stroke-width: 0.8"/>
      </g>
     </g>
     <g id="text_25">
      <!-- 100 -->
      <g transform="translate(366.06625 684.157812) scale(0.14 -0.14)">
       <use xlink:href="#DejaVuSans-31"/>
       <use xlink:href="#DejaVuSans-30" x="63.623047"/>
       <use xlink:href="#DejaVuSans-30" x="127.246094"/>
      </g>
     </g>
    </g>
    <g id="xtick_33">
     <g id="line2d_59">
      <g>
       <use xlink:href="#m983c700160" x="457.471875" y="666.52" style="stroke: #000000; stroke-width: 0.8"/>
      </g>
     </g>
     <g id="text_26">
      <!-- 125 -->
      <g transform="translate(444.110625 684.157812) scale(0.14 -0.14)">
       <use xlink:href="#DejaVuSans-31"/>
       <use xlink:href="#DejaVuSans-32" x="63.623047"/>
       <use xlink:href="#DejaVuSans-35" x="127.246094"/>
      </g>
     </g>
    </g>
    <g id="xtick_34">
     <g id="line2d_60">
      <g>
       <use xlink:href="#m983c700160" x="535.51625" y="666.52" style="stroke: #000000; stroke-width: 0.8"/>
      </g>
     </g>
     <g id="text_27">
      <!-- 150 -->
      <g transform="translate(522.155 684.157812) scale(0.14 -0.14)">
       <use xlink:href="#DejaVuSans-31"/>
       <use xlink:href="#DejaVuSans-35" x="63.623047"/>
       <use xlink:href="#DejaVuSans-30" x="127.246094"/>
      </g>
     </g>
    </g>
    <g id="xtick_35">
     <g id="line2d_61">
      <g>
       <use xlink:href="#m983c700160" x="613.560625" y="666.52" style="stroke: #000000; stroke-width: 0.8"/>
      </g>
     </g>
     <g id="text_28">
      <!-- 175 -->
      <g transform="translate(600.199375 684.157812) scale(0.14 -0.14)">
       <use xlink:href="#DejaVuSans-31"/>
       <use xlink:href="#DejaVuSans-37" x="63.623047"/>
       <use xlink:href="#DejaVuSans-35" x="127.246094"/>
      </g>
     </g>
    </g>
    <g id="xtick_36">
     <g id="line2d_62">
      <g>
       <use xlink:href="#m983c700160" x="691.605" y="666.52" style="stroke: #000000; stroke-width: 0.8"/>
      </g>
     </g>
     <g id="text_29">
      <!-- 200 -->
      <g transform="translate(678.24375 684.157812) scale(0.14 -0.14)">
       <use xlink:href="#DejaVuSans-32"/>
       <use xlink:href="#DejaVuSans-30" x="63.623047"/>
       <use xlink:href="#DejaVuSans-30" x="127.246094"/>
      </g>
     </g>
    </g>
    <g id="text_30">
     <!-- Timestamp [s] -->
     <g transform="translate(329.024219 701.707188) scale(0.14 -0.14)">
      <defs>
       <path id="DejaVuSans-54" d="M -19 4666 
L 3928 4666 
L 3928 4134 
L 2272 4134 
L 2272 0 
L 1638 0 
L 1638 4134 
L -19 4134 
L -19 4666 
z
" transform="scale(0.015625)"/>
       <path id="DejaVuSans-69" d="M 603 3500 
L 1178 3500 
L 1178 0 
L 603 0 
L 603 3500 
z
M 603 4863 
L 1178 4863 
L 1178 4134 
L 603 4134 
L 603 4863 
z
" transform="scale(0.015625)"/>
       <path id="DejaVuSans-74" d="M 1172 4494 
L 1172 3500 
L 2356 3500 
L 2356 3053 
L 1172 3053 
L 1172 1153 
Q 1172 725 1289 603 
Q 1406 481 1766 481 
L 2356 481 
L 2356 0 
L 1766 0 
Q 1100 0 847 248 
Q 594 497 594 1153 
L 594 3053 
L 172 3053 
L 172 3500 
L 594 3500 
L 594 4494 
L 1172 4494 
z
" transform="scale(0.015625)"/>
       <path id="DejaVuSans-61" d="M 2194 1759 
Q 1497 1759 1228 1600 
Q 959 1441 959 1056 
Q 959 750 1161 570 
Q 1363 391 1709 391 
Q 2188 391 2477 730 
Q 2766 1069 2766 1631 
L 2766 1759 
L 2194 1759 
z
M 3341 1997 
L 3341 0 
L 2766 0 
L 2766 531 
Q 2569 213 2275 61 
Q 1981 -91 1556 -91 
Q 1019 -91 701 211 
Q 384 513 384 1019 
Q 384 1609 779 1909 
Q 1175 2209 1959 2209 
L 2766 2209 
L 2766 2266 
Q 2766 2663 2505 2880 
Q 2244 3097 1772 3097 
Q 1472 3097 1187 3025 
Q 903 2953 641 2809 
L 641 3341 
Q 956 3463 1253 3523 
Q 1550 3584 1831 3584 
Q 2591 3584 2966 3190 
Q 3341 2797 3341 1997 
z
" transform="scale(0.015625)"/>
       <path id="DejaVuSans-70" d="M 1159 525 
L 1159 -1331 
L 581 -1331 
L 581 3500 
L 1159 3500 
L 1159 2969 
Q 1341 3281 1617 3432 
Q 1894 3584 2278 3584 
Q 2916 3584 3314 3078 
Q 3713 2572 3713 1747 
Q 3713 922 3314 415 
Q 2916 -91 2278 -91 
Q 1894 -91 1617 61 
Q 1341 213 1159 525 
z
M 3116 1747 
Q 3116 2381 2855 2742 
Q 2594 3103 2138 3103 
Q 1681 3103 1420 2742 
Q 1159 2381 1159 1747 
Q 1159 1113 1420 752 
Q 1681 391 2138 391 
Q 2594 391 2855 752 
Q 3116 1113 3116 1747 
z
" transform="scale(0.015625)"/>
      </defs>
      <use xlink:href="#DejaVuSans-54"/>
      <use xlink:href="#DejaVuSans-69" x="57.958984"/>
      <use xlink:href="#DejaVuSans-6d" x="85.742188"/>
      <use xlink:href="#DejaVuSans-65" x="183.154297"/>
      <use xlink:href="#DejaVuSans-73" x="244.677734"/>
      <use xlink:href="#DejaVuSans-74" x="296.777344"/>
      <use xlink:href="#DejaVuSans-61" x="335.986328"/>
      <use xlink:href="#DejaVuSans-6d" x="397.265625"/>
      <use xlink:href="#DejaVuSans-70" x="494.677734"/>
      <use xlink:href="#DejaVuSans-20" x="558.154297"/>
      <use xlink:href="#DejaVuSans-5b" x="589.941406"/>
      <use xlink:href="#DejaVuSans-73" x="628.955078"/>
      <use xlink:href="#DejaVuSans-5d" x="681.054688"/>
     </g>
    </g>
   </g>
   <g id="matplotlib.axis_8">
    <g id="ytick_18">
     <g id="line2d_63">
      <g>
       <use xlink:href="#m7e58cd9aa0" x="67.25" y="643.295531" style="stroke: #000000; stroke-width: 0.8"/>
      </g>
     </g>
     <g id="text_31">
      <!-- -2.0 -->
      <g transform="translate(32.934688 648.614438) scale(0.14 -0.14)">
       <use xlink:href="#DejaVuSans-2d"/>
       <use xlink:href="#DejaVuSans-32" x="36.083984"/>
       <use xlink:href="#DejaVuSans-2e" x="99.707031"/>
       <use xlink:href="#DejaVuSans-30" x="131.494141"/>
      </g>
     </g>
    </g>
    <g id="ytick_19">
     <g id="line2d_64">
      <g>
       <use xlink:href="#m7e58cd9aa0" x="67.25" y="619.666516" style="stroke: #000000; stroke-width: 0.8"/>
      </g>
     </g>
     <g id="text_32">
      <!-- -1.0 -->
      <g transform="translate(32.934688 624.985422) scale(0.14 -0.14)">
       <use xlink:href="#DejaVuSans-2d"/>
       <use xlink:href="#DejaVuSans-31" x="36.083984"/>
       <use xlink:href="#DejaVuSans-2e" x="99.707031"/>
       <use xlink:href="#DejaVuSans-30" x="131.494141"/>
      </g>
     </g>
    </g>
    <g id="ytick_20">
     <g id="line2d_65">
      <g>
       <use xlink:href="#m7e58cd9aa0" x="67.25" y="596.0375" style="stroke: #000000; stroke-width: 0.8"/>
      </g>
     </g>
     <g id="text_33">
      <!-- 0.0 -->
      <g transform="translate(37.985625 601.356406) scale(0.14 -0.14)">
       <use xlink:href="#DejaVuSans-30"/>
       <use xlink:href="#DejaVuSans-2e" x="63.623047"/>
       <use xlink:href="#DejaVuSans-30" x="95.410156"/>
      </g>
     </g>
    </g>
    <g id="ytick_21">
     <g id="line2d_66">
      <g>
       <use xlink:href="#m7e58cd9aa0" x="67.25" y="572.408484" style="stroke: #000000; stroke-width: 0.8"/>
      </g>
     </g>
     <g id="text_34">
      <!-- 1.0 -->
      <g transform="translate(37.985625 577.727391) scale(0.14 -0.14)">
       <use xlink:href="#DejaVuSans-31"/>
       <use xlink:href="#DejaVuSans-2e" x="63.623047"/>
       <use xlink:href="#DejaVuSans-30" x="95.410156"/>
      </g>
     </g>
    </g>
    <g id="ytick_22">
     <g id="line2d_67">
      <g>
       <use xlink:href="#m7e58cd9aa0" x="67.25" y="548.779469" style="stroke: #000000; stroke-width: 0.8"/>
      </g>
     </g>
     <g id="text_35">
      <!-- 2.0 -->
      <g transform="translate(37.985625 554.098375) scale(0.14 -0.14)">
       <use xlink:href="#DejaVuSans-32"/>
       <use xlink:href="#DejaVuSans-2e" x="63.623047"/>
       <use xlink:href="#DejaVuSans-30" x="95.410156"/>
      </g>
     </g>
    </g>
    <g id="text_36">
     <!-- Vel E [m/s] -->
     <g transform="translate(26.023125 633.693125) rotate(-90) scale(0.14 -0.14)">
      <use xlink:href="#DejaVuSans-56"/>
      <use xlink:href="#DejaVuSans-65" x="60.658203"/>
      <use xlink:href="#DejaVuSans-6c" x="122.181641"/>
      <use xlink:href="#DejaVuSans-20" x="149.964844"/>
      <use xlink:href="#DejaVuSans-45" x="181.751953"/>
      <use xlink:href="#DejaVuSans-20" x="244.935547"/>
      <use xlink:href="#DejaVuSans-5b" x="276.722656"/>
      <use xlink:href="#DejaVuSans-6d" x="315.736328"/>
      <use xlink:href="#DejaVuSans-2f" x="413.148438"/>
      <use xlink:href="#DejaVuSans-73" x="446.839844"/>
      <use xlink:href="#DejaVuSans-5d" x="498.939453"/>
     </g>
    </g>
   </g>
   <g id="line2d_68">
    <path d="M 67.25 596.0375 
L 70.371775 596.619366 
L 73.49355 598.407438 
L 76.615325 602.433661 
L 79.7371 599.18875 
L 82.858875 599.920604 
L 85.98065 599.394566 
L 89.102425 601.696593 
L 92.2242 602.24632 
L 95.345975 609.555469 
L 98.46775 605.063738 
L 101.589525 608.601886 
L 104.7113 603.554069 
L 107.833075 613.971855 
L 110.95485 608.543906 
L 114.076625 613.485011 
L 117.1984 618.644035 
L 120.320175 618.92486 
L 123.44195 617.594866 
L 126.563725 614.255583 
L 129.6855 613.814468 
L 132.807275 619.220742 
L 135.92905 619.486796 
L 139.050825 612.136387 
L 142.1726 613.78589 
L 145.294375 621.760962 
L 148.41615 626.687548 
L 151.537925 627.447941 
L 154.6597 625.139699 
L 157.781475 630.323516 
L 160.90325 628.251394 
L 164.025025 632.169002 
L 167.1468 624.727646 
L 170.268575 622.061518 
L 173.39035 627.188927 
L 176.512125 622.294955 
L 179.6339 632.880887 
L 182.755675 636.924347 
L 185.87745 630.402191 
L 188.999225 625.15472 
L 192.121 622.78567 
L 195.242775 632.410563 
L 198.36455 630.360545 
L 201.486325 634.235238 
L 204.6081 635.664247 
L 207.729875 631.473803 
L 210.85165 631.162441 
L 213.973425 639.689456 
L 217.0952 629.814853 
L 220.216975 627.451873 
L 223.33875 635.57555 
L 226.460525 634.184294 
L 229.5823 632.953125 
L 232.704075 633.331339 
L 235.82585 636.253301 
L 238.947625 636.685732 
L 242.0694 633.198614 
L 245.191175 627.223681 
L 248.31295 628.681399 
L 251.434725 633.435455 
L 254.5565 630.41185 
L 257.678275 642.526187 
L 260.80005 628.894451 
L 263.921825 634.545918 
L 267.0436 630.13131 
L 270.165375 630.847921 
L 273.28715 631.001925 
L 276.408925 621.179565 
L 279.5307 625.220308 
L 282.652475 624.202374 
L 285.77425 625.756252 
L 288.896025 624.261627 
L 292.0178 625.198854 
L 295.139575 630.011431 
L 298.26135 621.374744 
L 301.383125 623.722847 
L 304.5049 627.6917 
L 307.626675 622.843863 
L 310.74845 612.977832 
L 313.870225 613.314509 
L 316.992 619.101642 
L 320.113775 620.532982 
L 323.23555 619.477 
L 326.357325 608.904016 
L 329.4791 612.508451 
L 332.600875 613.725334 
L 335.72265 611.342785 
L 338.844425 613.050329 
L 341.9662 614.382506 
L 345.087975 612.796348 
L 348.20975 610.03035 
L 351.331525 607.652429 
L 354.4533 603.156735 
L 357.575075 604.114854 
L 360.69685 601.570579 
L 363.818625 603.547965 
L 366.9404 602.7454 
L 370.062175 608.890496 
L 373.18395 597.321303 
L 376.305725 594.886559 
L 379.4275 591.863427 
L 382.549275 605.668728 
L 385.67105 589.046704 
L 388.792825 591.825495 
L 391.9146 588.123045 
L 395.036375 595.066633 
L 398.15815 589.769207 
L 401.279925 593.156692 
L 404.4017 590.839572 
L 407.523475 579.091648 
L 410.64525 583.876951 
L 413.767025 583.990923 
L 416.8888 581.085543 
L 420.010575 581.325431 
L 423.13235 582.249363 
L 426.254125 580.798723 
L 429.3759 571.969157 
L 432.497675 579.065519 
L 435.61945 579.83581 
L 438.741225 575.541005 
L 441.863 573.241208 
L 444.984775 572.019883 
L 448.10655 573.586747 
L 451.228325 579.927638 
L 454.3501 569.337941 
L 457.471875 575.492127 
L 460.59365 570.504116 
L 463.715425 571.684794 
L 466.8372 568.269244 
L 469.958975 565.022116 
L 473.08075 564.073959 
L 476.202525 563.690434 
L 479.3243 559.4878 
L 485.56785 567.480506 
L 488.689625 563.189284 
L 491.8114 560.489797 
L 494.933175 568.655542 
L 498.05495 562.905743 
L 501.176725 559.781026 
L 504.2985 562.490733 
L 507.420275 556.783055 
L 510.54205 561.154022 
L 513.663825 561.378962 
L 516.7856 561.981318 
L 519.907375 560.716144 
L 523.02915 563.801304 
L 526.150925 564.76195 
L 529.2727 552.352296 
L 532.394475 558.539899 
L 535.51625 561.522552 
L 538.638025 566.077146 
L 541.7598 560.144386 
L 544.881575 560.072858 
L 548.00335 549.049167 
L 551.125125 550.366774 
L 554.2469 559.869718 
L 557.368675 552.806757 
L 560.49045 557.008263 
L 563.612225 564.402594 
L 566.734 573.988622 
L 569.855775 556.328517 
L 572.97755 564.63663 
L 576.099325 567.927125 
L 579.2211 557.862518 
L 582.342875 550.5368 
L 585.46465 555.628069 
L 588.586425 563.174325 
L 591.7082 566.435547 
L 594.829975 566.450451 
L 597.95175 566.723041 
L 601.073525 568.615882 
L 604.1953 569.675445 
L 607.317075 570.292703 
L 610.43885 572.698216 
L 613.560625 571.069596 
L 616.6824 575.51199 
L 619.804175 570.249372 
L 622.92595 572.218712 
L 626.047725 573.785598 
L 629.1695 569.937316 
L 632.291275 565.777696 
L 635.41305 569.189243 
L 638.534825 582.025822 
L 641.6566 583.666301 
L 644.778375 575.999393 
L 647.90015 581.463496 
L 651.021925 580.817422 
L 654.1437 578.332312 
L 657.265475 584.564254 
L 660.38725 583.118025 
L 663.509025 588.669434 
L 666.6308 587.631403 
L 669.752575 584.088146 
L 672.87435 591.311037 
L 675.996125 586.429801 
L 679.1179 587.869532 
L 682.239675 587.868387 
L 685.36145 590.945604 
L 688.483225 589.273559 
L 688.483225 589.273559 
" clip-path="url(#p854e7cea54)" style="fill: none; stroke: #1f77b4; stroke-width: 1.5; stroke-linecap: square"/>
   </g>
   <g id="line2d_69">
    <path d="M 67.25 608.70863 
L 691.605 608.70863 
" clip-path="url(#p854e7cea54)" style="fill: none; stroke-dasharray: 5.55,2.4; stroke-dashoffset: 0; stroke: #ff0000; stroke-width: 1.5"/>
   </g>
   <g id="line2d_70">
    <path d="M 67.25 583.36637 
L 691.605 583.36637 
" clip-path="url(#p854e7cea54)" style="fill: none; stroke-dasharray: 5.55,2.4; stroke-dashoffset: 0; stroke: #ff0000; stroke-width: 1.5"/>
   </g>
   <g id="patch_18">
    <path d="M 67.25 666.52 
L 67.25 525.555 
" style="fill: none; stroke: #000000; stroke-width: 0.8; stroke-linejoin: miter; stroke-linecap: square"/>
   </g>
   <g id="patch_19">
    <path d="M 691.605 666.52 
L 691.605 525.555 
" style="fill: none; stroke: #000000; stroke-width: 0.8; stroke-linejoin: miter; stroke-linecap: square"/>
   </g>
   <g id="patch_20">
    <path d="M 67.25 666.52 
L 691.605 666.52 
" style="fill: none; stroke: #000000; stroke-width: 0.8; stroke-linejoin: miter; stroke-linecap: square"/>
   </g>
   <g id="patch_21">
    <path d="M 67.25 525.555 
L 691.605 525.555 
" style="fill: none; stroke: #000000; stroke-width: 0.8; stroke-linejoin: miter; stroke-linecap: square"/>
   </g>
  </g>
  <g id="text_37">
   <!-- Errors on positions and velocities at 1Hz -->
   <g transform="translate(190.972312 27.165375) scale(0.168 -0.168)">
    <defs>
     <path id="DejaVuSans-72" d="M 2631 2963 
Q 2534 3019 2420 3045 
Q 2306 3072 2169 3072 
Q 1681 3072 1420 2755 
Q 1159 2438 1159 1844 
L 1159 0 
L 581 0 
L 581 3500 
L 1159 3500 
L 1159 2956 
Q 1341 3275 1631 3429 
Q 1922 3584 2338 3584 
Q 2397 3584 2469 3576 
Q 2541 3569 2628 3553 
L 2631 2963 
z
" transform="scale(0.015625)"/>
     <path id="DejaVuSans-6e" d="M 3513 2113 
L 3513 0 
L 2938 0 
L 2938 2094 
Q 2938 2591 2744 2837 
Q 2550 3084 2163 3084 
Q 1697 3084 1428 2787 
Q 1159 2491 1159 1978 
L 1159 0 
L 581 0 
L 581 3500 
L 1159 3500 
L 1159 2956 
Q 1366 3272 1645 3428 
Q 1925 3584 2291 3584 
Q 2894 3584 3203 3211 
Q 3513 2838 3513 2113 
z
" transform="scale(0.015625)"/>
     <path id="DejaVuSans-64" d="M 2906 2969 
L 2906 4863 
L 3481 4863 
L 3481 0 
L 2906 0 
L 2906 525 
Q 2725 213 2448 61 
Q 2172 -91 1784 -91 
Q 1150 -91 751 415 
Q 353 922 353 1747 
Q 353 2572 751 3078 
Q 1150 3584 1784 3584 
Q 2172 3584 2448 3432 
Q 2725 3281 2906 2969 
z
M 947 1747 
Q 947 1113 1208 752 
Q 1469 391 1925 391 
Q 2381 391 2643 752 
Q 2906 1113 2906 1747 
Q 2906 2381 2643 2742 
Q 2381 3103 1925 3103 
Q 1469 3103 1208 2742 
Q 947 2381 947 1747 
z
" transform="scale(0.015625)"/>
     <path id="DejaVuSans-76" d="M 191 3500 
L 800 3500 
L 1894 563 
L 2988 3500 
L 3597 3500 
L 2284 0 
L 1503 0 
L 191 3500 
z
" transform="scale(0.015625)"/>
     <path id="DejaVuSans-63" d="M 3122 3366 
L 3122 2828 
Q 2878 2963 2633 3030 
Q 2388 3097 2138 3097 
Q 1578 3097 1268 2742 
Q 959 2388 959 1747 
Q 959 1106 1268 751 
Q 1578 397 2138 397 
Q 2388 397 2633 464 
Q 2878 531 3122 666 
L 3122 134 
Q 2881 22 2623 -34 
Q 2366 -91 2075 -91 
Q 1284 -91 818 406 
Q 353 903 353 1747 
Q 353 2603 823 3093 
Q 1294 3584 2113 3584 
Q 2378 3584 2631 3529 
Q 2884 3475 3122 3366 
z
" transform="scale(0.015625)"/>
     <path id="DejaVuSans-48" d="M 628 4666 
L 1259 4666 
L 1259 2753 
L 3553 2753 
L 3553 4666 
L 4184 4666 
L 4184 0 
L 3553 0 
L 3553 2222 
L 1259 2222 
L 1259 0 
L 628 0 
L 628 4666 
z
" transform="scale(0.015625)"/>
     <path id="DejaVuSans-7a" d="M 353 3500 
L 3084 3500 
L 3084 2975 
L 922 459 
L 3084 459 
L 3084 0 
L 275 0 
L 275 525 
L 2438 3041 
L 353 3041 
L 353 3500 
z
" transform="scale(0.015625)"/>
    </defs>
    <use xlink:href="#DejaVuSans-45"/>
    <use xlink:href="#DejaVuSans-72" x="63.183594"/>
    <use xlink:href="#DejaVuSans-72" x="102.546875"/>
    <use xlink:href="#DejaVuSans-6f" x="141.410156"/>
    <use xlink:href="#DejaVuSans-72" x="202.591797"/>
    <use xlink:href="#DejaVuSans-73" x="243.705078"/>
    <use xlink:href="#DejaVuSans-20" x="295.804688"/>
    <use xlink:href="#DejaVuSans-6f" x="327.591797"/>
    <use xlink:href="#DejaVuSans-6e" x="388.773438"/>
    <use xlink:href="#DejaVuSans-20" x="452.152344"/>
    <use xlink:href="#DejaVuSans-70" x="483.939453"/>
    <use xlink:href="#DejaVuSans-6f" x="547.416016"/>
    <use xlink:href="#DejaVuSans-73" x="608.597656"/>
    <use xlink:href="#DejaVuSans-69" x="660.697266"/>
    <use xlink:href="#DejaVuSans-74" x="688.480469"/>
    <use xlink:href="#DejaVuSans-69" x="727.689453"/>
    <use xlink:href="#DejaVuSans-6f" x="755.472656"/>
    <use xlink:href="#DejaVuSans-6e" x="816.654297"/>
    <use xlink:href="#DejaVuSans-73" x="880.033203"/>
    <use xlink:href="#DejaVuSans-20" x="932.132812"/>
    <use xlink:href="#DejaVuSans-61" x="963.919922"/>
    <use xlink:href="#DejaVuSans-6e" x="1025.199219"/>
    <use xlink:href="#DejaVuSans-64" x="1088.578125"/>
    <use xlink:href="#DejaVuSans-20" x="1152.054688"/>
    <use xlink:href="#DejaVuSans-76" x="1183.841797"/>
    <use xlink:href="#DejaVuSans-65" x="1243.021484"/>
    <use xlink:href="#DejaVuSans-6c" x="1304.544922"/>
    <use xlink:href="#DejaVuSans-6f" x="1332.328125"/>
    <use xlink:href="#DejaVuSans-63" x="1393.509766"/>
    <use xlink:href="#DejaVuSans-69" x="1448.490234"/>
    <use xlink:href="#DejaVuSans-74" x="1476.273438"/>
    <use xlink:href="#DejaVuSans-69" x="1515.482422"/>
    <use xlink:href="#DejaVuSans-65" x="1543.265625"/>
    <use xlink:href="#DejaVuSans-73" x="1604.789062"/>
    <use xlink:href="#DejaVuSans-20" x="1656.888672"/>
    <use xlink:href="#DejaVuSans-61" x="1688.675781"/>
    <use xlink:href="#DejaVuSans-74" x="1749.955078"/>
    <use xlink:href="#DejaVuSans-20" x="1789.164062"/>
    <use xlink:href="#DejaVuSans-31" x="1820.951172"/>
    <use xlink:href="#DejaVuSans-48" x="1884.574219"/>
    <use xlink:href="#DejaVuSans-7a" x="1959.769531"/>
   </g>
  </g>
 </g>
 <defs>
  <clipPath id="p90eeef002c">
   <rect x="67.25" y="46.8" width="624.355" height="140.965"/>
  </clipPath>
  <clipPath id="p6555061d0d">
   <rect x="67.25" y="206.385" width="624.355" height="140.965"/>
  </clipPath>
  <clipPath id="p10e615d194">
   <rect x="67.25" y="365.97" width="624.355" height="140.965"/>
  </clipPath>
  <clipPath id="p854e7cea54">
   <rect x="67.25" y="525.555" width="624.355" height="140.965"/>
  </clipPath>
 </defs>
</svg>
