<?xml version="1.0" encoding="utf-8" standalone="no"?>
<!DOCTYPE svg PUBLIC "-//W3C//DTD SVG 1.1//EN"
  "http://www.w3.org/Graphics/SVG/1.1/DTD/svg11.dtd">
<svg xmlns:xlink="http://www.w3.org/1999/xlink" width="720pt" height="720pt" viewBox="0 0 720 720" xmlns="http://www.w3.org/2000/svg" version="1.1">
 <metadata>
  <rdf:RDF xmlns:dc="http://purl.org/dc/elements/1.1/" xmlns:cc="http://creativecommons.org/ns#" xmlns:rdf="http://www.w3.org/1999/02/22-rdf-syntax-ns#">
   <cc:Work>
    <dc:type rdf:resource="http://purl.org/dc/dcmitype/StillImage"/>
    <dc:date>2024-05-24T16:20:41.029166</dc:date>
    <dc:format>image/svg+xml</dc:format>
    <dc:creator>
     <cc:Agent>
      <dc:title>Matplotlib v3.8.3, https://matplotlib.org/</dc:title>
     </cc:Agent>
    </dc:creator>
   </cc:Work>
  </rdf:RDF>
 </metadata>
 <defs>
  <style type="text/css">*{stroke-linejoin: round; stroke-linecap: butt}</style>
 </defs>
 <g id="figure_1">
  <g id="patch_1">
   <path d="M 0 720 
L 720 720 
L 720 0 
L 0 0 
z
" style="fill: #ffffff"/>
  </g>
  <g id="axes_1">
   <g id="patch_2">
    <path d="M 67.25 187.765 
L 691.605 187.765 
L 691.605 46.8 
L 67.25 46.8 
z
" style="fill: #ffffff"/>
   </g>
   <g id="matplotlib.axis_1">
    <g id="xtick_1">
     <g id="line2d_1">
      <defs>
       <path id="m26fb08f7f8" d="M 0 0 
L 0 3.5 
" style="stroke: #000000; stroke-width: 0.8"/>
      </defs>
      <g>
       <use xlink:href="#m26fb08f7f8" x="67.25" y="187.765" style="stroke: #000000; stroke-width: 0.8"/>
      </g>
     </g>
    </g>
    <g id="xtick_2">
     <g id="line2d_2">
      <g>
       <use xlink:href="#m26fb08f7f8" x="145.294375" y="187.765" style="stroke: #000000; stroke-width: 0.8"/>
      </g>
     </g>
    </g>
    <g id="xtick_3">
     <g id="line2d_3">
      <g>
       <use xlink:href="#m26fb08f7f8" x="223.33875" y="187.765" style="stroke: #000000; stroke-width: 0.8"/>
      </g>
     </g>
    </g>
    <g id="xtick_4">
     <g id="line2d_4">
      <g>
       <use xlink:href="#m26fb08f7f8" x="301.383125" y="187.765" style="stroke: #000000; stroke-width: 0.8"/>
      </g>
     </g>
    </g>
    <g id="xtick_5">
     <g id="line2d_5">
      <g>
       <use xlink:href="#m26fb08f7f8" x="379.4275" y="187.765" style="stroke: #000000; stroke-width: 0.8"/>
      </g>
     </g>
    </g>
    <g id="xtick_6">
     <g id="line2d_6">
      <g>
       <use xlink:href="#m26fb08f7f8" x="457.471875" y="187.765" style="stroke: #000000; stroke-width: 0.8"/>
      </g>
     </g>
    </g>
    <g id="xtick_7">
     <g id="line2d_7">
      <g>
       <use xlink:href="#m26fb08f7f8" x="535.51625" y="187.765" style="stroke: #000000; stroke-width: 0.8"/>
      </g>
     </g>
    </g>
    <g id="xtick_8">
     <g id="line2d_8">
      <g>
       <use xlink:href="#m26fb08f7f8" x="613.560625" y="187.765" style="stroke: #000000; stroke-width: 0.8"/>
      </g>
     </g>
    </g>
    <g id="xtick_9">
     <g id="line2d_9">
      <g>
       <use xlink:href="#m26fb08f7f8" x="691.605" y="187.765" style="stroke: #000000; stroke-width: 0.8"/>
      </g>
     </g>
    </g>
   </g>
   <g id="matplotlib.axis_2">
    <g id="ytick_1">
     <g id="line2d_10">
      <defs>
       <path id="md4e8f56fc0" d="M 0 0 
L -3.5 0 
" style="stroke: #000000; stroke-width: 0.8"/>
      </defs>
      <g>
       <use xlink:href="#md4e8f56fc0" x="67.25" y="173.440935" style="stroke: #000000; stroke-width: 0.8"/>
      </g>
     </g>
     <g id="text_1">
      <!-- -2.0 -->
      <g transform="translate(32.934688 178.759841) scale(0.14 -0.14)">
       <defs>
        <path id="DejaVuSans-2d" d="M 313 2009 
L 1997 2009 
L 1997 1497 
L 313 1497 
L 313 2009 
z
" transform="scale(0.015625)"/>
        <path id="DejaVuSans-32" d="M 1228 531 
L 3431 531 
L 3431 0 
L 469 0 
L 469 531 
Q 828 903 1448 1529 
Q 2069 2156 2228 2338 
Q 2531 2678 2651 2914 
Q 2772 3150 2772 3378 
Q 2772 3750 2511 3984 
Q 2250 4219 1831 4219 
Q 1534 4219 1204 4116 
Q 875 4013 500 3803 
L 500 4441 
Q 881 4594 1212 4672 
Q 1544 4750 1819 4750 
Q 2544 4750 2975 4387 
Q 3406 4025 3406 3419 
Q 3406 3131 3298 2873 
Q 3191 2616 2906 2266 
Q 2828 2175 2409 1742 
Q 1991 1309 1228 531 
z
" transform="scale(0.015625)"/>
        <path id="DejaVuSans-2e" d="M 684 794 
L 1344 794 
L 1344 0 
L 684 0 
L 684 794 
z
" transform="scale(0.015625)"/>
        <path id="DejaVuSans-30" d="M 2034 4250 
Q 1547 4250 1301 3770 
Q 1056 3291 1056 2328 
Q 1056 1369 1301 889 
Q 1547 409 2034 409 
Q 2525 409 2770 889 
Q 3016 1369 3016 2328 
Q 3016 3291 2770 3770 
Q 2525 4250 2034 4250 
z
M 2034 4750 
Q 2819 4750 3233 4129 
Q 3647 3509 3647 2328 
Q 3647 1150 3233 529 
Q 2819 -91 2034 -91 
Q 1250 -91 836 529 
Q 422 1150 422 2328 
Q 422 3509 836 4129 
Q 1250 4750 2034 4750 
z
" transform="scale(0.015625)"/>
       </defs>
       <use xlink:href="#DejaVuSans-2d"/>
       <use xlink:href="#DejaVuSans-32" x="36.083984"/>
       <use xlink:href="#DejaVuSans-2e" x="99.707031"/>
       <use xlink:href="#DejaVuSans-30" x="131.494141"/>
      </g>
     </g>
    </g>
    <g id="ytick_2">
     <g id="line2d_11">
      <g>
       <use xlink:href="#md4e8f56fc0" x="67.25" y="145.361717" style="stroke: #000000; stroke-width: 0.8"/>
      </g>
     </g>
     <g id="text_2">
      <!-- -1.0 -->
      <g transform="translate(32.934688 150.680624) scale(0.14 -0.14)">
       <defs>
        <path id="DejaVuSans-31" d="M 794 531 
L 1825 531 
L 1825 4091 
L 703 3866 
L 703 4441 
L 1819 4666 
L 2450 4666 
L 2450 531 
L 3481 531 
L 3481 0 
L 794 0 
L 794 531 
z
" transform="scale(0.015625)"/>
       </defs>
       <use xlink:href="#DejaVuSans-2d"/>
       <use xlink:href="#DejaVuSans-31" x="36.083984"/>
       <use xlink:href="#DejaVuSans-2e" x="99.707031"/>
       <use xlink:href="#DejaVuSans-30" x="131.494141"/>
      </g>
     </g>
    </g>
    <g id="ytick_3">
     <g id="line2d_12">
      <g>
       <use xlink:href="#md4e8f56fc0" x="67.25" y="117.2825" style="stroke: #000000; stroke-width: 0.8"/>
      </g>
     </g>
     <g id="text_3">
      <!-- 0.0 -->
      <g transform="translate(37.985625 122.601406) scale(0.14 -0.14)">
       <use xlink:href="#DejaVuSans-30"/>
       <use xlink:href="#DejaVuSans-2e" x="63.623047"/>
       <use xlink:href="#DejaVuSans-30" x="95.410156"/>
      </g>
     </g>
    </g>
    <g id="ytick_4">
     <g id="line2d_13">
      <g>
       <use xlink:href="#md4e8f56fc0" x="67.25" y="89.203283" style="stroke: #000000; stroke-width: 0.8"/>
      </g>
     </g>
     <g id="text_4">
      <!-- 1.0 -->
      <g transform="translate(37.985625 94.522189) scale(0.14 -0.14)">
       <use xlink:href="#DejaVuSans-31"/>
       <use xlink:href="#DejaVuSans-2e" x="63.623047"/>
       <use xlink:href="#DejaVuSans-30" x="95.410156"/>
      </g>
     </g>
    </g>
    <g id="ytick_5">
     <g id="line2d_14">
      <g>
       <use xlink:href="#md4e8f56fc0" x="67.25" y="61.124065" style="stroke: #000000; stroke-width: 0.8"/>
      </g>
     </g>
     <g id="text_5">
      <!-- 2.0 -->
      <g transform="translate(37.985625 66.442971) scale(0.14 -0.14)">
       <use xlink:href="#DejaVuSans-32"/>
       <use xlink:href="#DejaVuSans-2e" x="63.623047"/>
       <use xlink:href="#DejaVuSans-30" x="95.410156"/>
      </g>
     </g>
    </g>
    <g id="text_6">
     <!-- Pos N [m] -->
     <g transform="translate(26.023125 151.146094) rotate(-90) scale(0.14 -0.14)">
      <defs>
       <path id="DejaVuSans-50" d="M 1259 4147 
L 1259 2394 
L 2053 2394 
Q 2494 2394 2734 2622 
Q 2975 2850 2975 3272 
Q 2975 3691 2734 3919 
Q 2494 4147 2053 4147 
L 1259 4147 
z
M 628 4666 
L 2053 4666 
Q 2838 4666 3239 4311 
Q 3641 3956 3641 3272 
Q 3641 2581 3239 2228 
Q 2838 1875 2053 1875 
L 1259 1875 
L 1259 0 
L 628 0 
L 628 4666 
z
" transform="scale(0.015625)"/>
       <path id="DejaVuSans-6f" d="M 1959 3097 
Q 1497 3097 1228 2736 
Q 959 2375 959 1747 
Q 959 1119 1226 758 
Q 1494 397 1959 397 
Q 2419 397 2687 759 
Q 2956 1122 2956 1747 
Q 2956 2369 2687 2733 
Q 2419 3097 1959 3097 
z
M 1959 3584 
Q 2709 3584 3137 3096 
Q 3566 2609 3566 1747 
Q 3566 888 3137 398 
Q 2709 -91 1959 -91 
Q 1206 -91 779 398 
Q 353 888 353 1747 
Q 353 2609 779 3096 
Q 1206 3584 1959 3584 
z
" transform="scale(0.015625)"/>
       <path id="DejaVuSans-73" d="M 2834 3397 
L 2834 2853 
Q 2591 2978 2328 3040 
Q 2066 3103 1784 3103 
Q 1356 3103 1142 2972 
Q 928 2841 928 2578 
Q 928 2378 1081 2264 
Q 1234 2150 1697 2047 
L 1894 2003 
Q 2506 1872 2764 1633 
Q 3022 1394 3022 966 
Q 3022 478 2636 193 
Q 2250 -91 1575 -91 
Q 1294 -91 989 -36 
Q 684 19 347 128 
L 347 722 
Q 666 556 975 473 
Q 1284 391 1588 391 
Q 1994 391 2212 530 
Q 2431 669 2431 922 
Q 2431 1156 2273 1281 
Q 2116 1406 1581 1522 
L 1381 1569 
Q 847 1681 609 1914 
Q 372 2147 372 2553 
Q 372 3047 722 3315 
Q 1072 3584 1716 3584 
Q 2034 3584 2315 3537 
Q 2597 3491 2834 3397 
z
" transform="scale(0.015625)"/>
       <path id="DejaVuSans-20" transform="scale(0.015625)"/>
       <path id="DejaVuSans-4e" d="M 628 4666 
L 1478 4666 
L 3547 763 
L 3547 4666 
L 4159 4666 
L 4159 0 
L 3309 0 
L 1241 3903 
L 1241 0 
L 628 0 
L 628 4666 
z
" transform="scale(0.015625)"/>
       <path id="DejaVuSans-5b" d="M 550 4863 
L 1875 4863 
L 1875 4416 
L 1125 4416 
L 1125 -397 
L 1875 -397 
L 1875 -844 
L 550 -844 
L 550 4863 
z
" transform="scale(0.015625)"/>
       <path id="DejaVuSans-6d" d="M 3328 2828 
Q 3544 3216 3844 3400 
Q 4144 3584 4550 3584 
Q 5097 3584 5394 3201 
Q 5691 2819 5691 2113 
L 5691 0 
L 5113 0 
L 5113 2094 
Q 5113 2597 4934 2840 
Q 4756 3084 4391 3084 
Q 3944 3084 3684 2787 
Q 3425 2491 3425 1978 
L 3425 0 
L 2847 0 
L 2847 2094 
Q 2847 2600 2669 2842 
Q 2491 3084 2119 3084 
Q 1678 3084 1418 2786 
Q 1159 2488 1159 1978 
L 1159 0 
L 581 0 
L 581 3500 
L 1159 3500 
L 1159 2956 
Q 1356 3278 1631 3431 
Q 1906 3584 2284 3584 
Q 2666 3584 2933 3390 
Q 3200 3197 3328 2828 
z
" transform="scale(0.015625)"/>
       <path id="DejaVuSans-5d" d="M 1947 4863 
L 1947 -844 
L 622 -844 
L 622 -397 
L 1369 -397 
L 1369 4416 
L 622 4416 
L 622 4863 
L 1947 4863 
z
" transform="scale(0.015625)"/>
      </defs>
      <use xlink:href="#DejaVuSans-50"/>
      <use xlink:href="#DejaVuSans-6f" x="56.677734"/>
      <use xlink:href="#DejaVuSans-73" x="117.859375"/>
      <use xlink:href="#DejaVuSans-20" x="169.958984"/>
      <use xlink:href="#DejaVuSans-4e" x="201.746094"/>
      <use xlink:href="#DejaVuSans-20" x="276.550781"/>
      <use xlink:href="#DejaVuSans-5b" x="308.337891"/>
      <use xlink:href="#DejaVuSans-6d" x="347.351562"/>
      <use xlink:href="#DejaVuSans-5d" x="444.763672"/>
     </g>
    </g>
   </g>
   <g id="line2d_15">
    <path d="M 67.25 117.2825 
L 70.371775 119.218827 
L 73.49355 113.181848 
L 76.615325 103.489164 
L 79.7371 111.424298 
L 82.858875 117.753471 
L 85.98065 105.026031 
L 89.102425 104.274872 
L 92.2242 115.42303 
L 95.345975 113.314171 
L 98.46775 120.1125 
L 101.589525 123.748301 
L 104.7113 118.872268 
L 107.833075 134.234012 
L 110.95485 141.327617 
L 114.076625 133.790605 
L 117.1984 132.118107 
L 120.320175 119.576938 
L 123.44195 123.327705 
L 126.563725 131.066912 
L 129.6855 110.553475 
L 132.807275 113.179839 
L 135.92905 113.680571 
L 139.050825 127.55501 
L 142.1726 127.916723 
L 145.294375 121.231025 
L 148.41615 127.856362 
L 151.537925 118.543659 
L 154.6597 121.3544 
L 157.781475 120.853405 
L 160.90325 123.326854 
L 164.025025 103.346921 
L 167.1468 108.181178 
L 170.268575 121.760276 
L 173.39035 113.419316 
L 176.512125 125.534037 
L 179.6339 120.113197 
L 182.755675 135.006545 
L 185.87745 137.878399 
L 192.121 111.724817 
L 195.242775 110.016833 
L 198.36455 113.119334 
L 201.486325 117.433775 
L 204.6081 130.345677 
L 207.729875 130.698326 
L 210.85165 127.292889 
L 213.973425 111.399385 
L 217.0952 108.620566 
L 220.216975 126.892957 
L 223.33875 119.944693 
L 226.460525 121.041328 
L 229.5823 124.249327 
L 235.82585 105.347892 
L 238.947625 101.640104 
L 242.0694 116.237612 
L 245.191175 120.799764 
L 248.31295 116.924675 
L 251.434725 108.261274 
L 254.5565 116.0128 
L 257.678275 118.581367 
L 260.80005 127.750387 
L 263.921825 133.309612 
L 267.0436 117.854722 
L 270.165375 103.354113 
L 273.28715 108.553483 
L 276.408925 103.88006 
L 279.5307 107.287053 
L 282.652475 118.65801 
L 285.77425 116.299962 
L 288.896025 103.662071 
L 292.0178 109.985843 
L 295.139575 100.583182 
L 298.26135 131.777215 
L 301.383125 120.13818 
L 304.5049 117.560071 
L 307.626675 119.319875 
L 310.74845 117.060457 
L 313.870225 133.879782 
L 316.992 128.096193 
L 320.113775 118.346724 
L 323.23555 102.860091 
L 329.4791 122.103815 
L 332.600875 124.978362 
L 335.72265 113.363966 
L 338.844425 111.249888 
L 341.9662 118.28297 
L 345.087975 113.70567 
L 348.20975 114.410658 
L 351.331525 107.444394 
L 354.4533 118.182567 
L 357.575075 121.650783 
L 360.69685 123.537894 
L 363.818625 133.332046 
L 366.9404 122.996972 
L 370.062175 116.337612 
L 373.18395 115.199099 
L 376.305725 117.464157 
L 379.4275 129.58265 
L 382.549275 127.792425 
L 385.67105 125.03073 
L 388.792825 127.118014 
L 391.9146 122.769042 
L 395.036375 115.231217 
L 398.15815 98.364678 
L 401.279925 104.67618 
L 404.4017 109.508524 
L 407.523475 115.575339 
L 410.64525 134.897902 
L 416.8888 122.199416 
L 420.010575 97.113112 
L 423.13235 106.520324 
L 426.254125 110.000958 
L 429.3759 115.307529 
L 432.497675 128.10073 
L 435.61945 114.586066 
L 438.741225 108.940732 
L 441.863 105.934219 
L 444.984775 119.883095 
L 448.10655 108.230771 
L 451.228325 125.234132 
L 454.3501 118.053904 
L 457.471875 98.745656 
L 460.59365 115.680846 
L 463.715425 123.320551 
L 466.8372 121.170993 
L 469.958975 124.20755 
L 473.08075 134.754345 
L 476.202525 126.121897 
L 479.3243 129.950085 
L 482.446075 118.887555 
L 485.56785 124.572046 
L 488.689625 107.098304 
L 491.8114 117.563812 
L 494.933175 121.012216 
L 498.05495 112.876509 
L 501.176725 125.755473 
L 504.2985 120.827824 
L 507.420275 107.714624 
L 510.54205 125.782047 
L 516.7856 117.411789 
L 519.907375 110.397924 
L 523.02915 124.389171 
L 526.150925 133.811199 
L 529.2727 122.150554 
L 532.394475 116.23035 
L 535.51625 113.705373 
L 538.638025 112.193505 
L 541.7598 120.921136 
L 548.00335 115.749297 
L 551.125125 123.046888 
L 554.2469 104.828322 
L 557.368675 106.148767 
L 560.49045 122.825986 
L 563.612225 116.665443 
L 566.734 126.202392 
L 572.97755 106.281371 
L 576.099325 118.484274 
L 579.2211 110.91345 
L 582.342875 110.90509 
L 585.46465 107.737916 
L 588.586425 96.768478 
L 594.829975 122.619269 
L 597.95175 130.5152 
L 601.073525 132.83688 
L 604.1953 126.208221 
L 607.317075 117.845156 
L 610.43885 113.80343 
L 613.560625 107.533604 
L 616.6824 111.891707 
L 619.804175 102.729477 
L 622.92595 112.657017 
L 626.047725 93.055237 
L 629.1695 99.826506 
L 632.291275 118.154075 
L 635.41305 130.516291 
L 638.534825 122.307001 
L 641.6566 121.886684 
L 644.778375 113.213427 
L 647.90015 110.332356 
L 651.021925 114.220376 
L 654.1437 123.808212 
L 657.265475 135.008241 
L 660.38725 131.080304 
L 663.509025 115.983912 
L 666.6308 112.675555 
L 669.752575 124.736657 
L 672.87435 120.031978 
L 675.996125 114.860816 
L 679.1179 123.120199 
L 682.239675 119.223936 
L 685.36145 117.353393 
L 688.483225 126.885245 
L 688.483225 126.885245 
" clip-path="url(#p9cb9eb79e0)" style="fill: none; stroke: #1f77b4; stroke-width: 1.5; stroke-linecap: square"/>
   </g>
   <g id="line2d_16">
    <path d="M 67.25 164.270833 
L 691.605 164.270833 
" clip-path="url(#p9cb9eb79e0)" style="fill: none; stroke-dasharray: 5.55,2.4; stroke-dashoffset: 0; stroke: #ff0000; stroke-width: 1.5"/>
   </g>
   <g id="line2d_17">
    <path d="M 67.25 70.294167 
L 691.605 70.294167 
" clip-path="url(#p9cb9eb79e0)" style="fill: none; stroke-dasharray: 5.55,2.4; stroke-dashoffset: 0; stroke: #ff0000; stroke-width: 1.5"/>
   </g>
   <g id="patch_3">
    <path d="M 67.25 187.765 
L 67.25 46.8 
" style="fill: none; stroke: #000000; stroke-width: 0.8; stroke-linejoin: miter; stroke-linecap: square"/>
   </g>
   <g id="patch_4">
    <path d="M 691.605 187.765 
L 691.605 46.8 
" style="fill: none; stroke: #000000; stroke-width: 0.8; stroke-linejoin: miter; stroke-linecap: square"/>
   </g>
   <g id="patch_5">
    <path d="M 67.25 187.765 
L 691.605 187.765 
" style="fill: none; stroke: #000000; stroke-width: 0.8; stroke-linejoin: miter; stroke-linecap: square"/>
   </g>
   <g id="patch_6">
    <path d="M 67.25 46.8 
L 691.605 46.8 
" style="fill: none; stroke: #000000; stroke-width: 0.8; stroke-linejoin: miter; stroke-linecap: square"/>
   </g>
  </g>
  <g id="axes_2">
   <g id="patch_7">
    <path d="M 67.25 347.35 
L 691.605 347.35 
L 691.605 206.385 
L 67.25 206.385 
z
" style="fill: #ffffff"/>
   </g>
   <g id="matplotlib.axis_3">
    <g id="xtick_10">
     <g id="line2d_18">
      <g>
       <use xlink:href="#m26fb08f7f8" x="67.25" y="347.35" style="stroke: #000000; stroke-width: 0.8"/>
      </g>
     </g>
    </g>
    <g id="xtick_11">
     <g id="line2d_19">
      <g>
       <use xlink:href="#m26fb08f7f8" x="145.294375" y="347.35" style="stroke: #000000; stroke-width: 0.8"/>
      </g>
     </g>
    </g>
    <g id="xtick_12">
     <g id="line2d_20">
      <g>
       <use xlink:href="#m26fb08f7f8" x="223.33875" y="347.35" style="stroke: #000000; stroke-width: 0.8"/>
      </g>
     </g>
    </g>
    <g id="xtick_13">
     <g id="line2d_21">
      <g>
       <use xlink:href="#m26fb08f7f8" x="301.383125" y="347.35" style="stroke: #000000; stroke-width: 0.8"/>
      </g>
     </g>
    </g>
    <g id="xtick_14">
     <g id="line2d_22">
      <g>
       <use xlink:href="#m26fb08f7f8" x="379.4275" y="347.35" style="stroke: #000000; stroke-width: 0.8"/>
      </g>
     </g>
    </g>
    <g id="xtick_15">
     <g id="line2d_23">
      <g>
       <use xlink:href="#m26fb08f7f8" x="457.471875" y="347.35" style="stroke: #000000; stroke-width: 0.8"/>
      </g>
     </g>
    </g>
    <g id="xtick_16">
     <g id="line2d_24">
      <g>
       <use xlink:href="#m26fb08f7f8" x="535.51625" y="347.35" style="stroke: #000000; stroke-width: 0.8"/>
      </g>
     </g>
    </g>
    <g id="xtick_17">
     <g id="line2d_25">
      <g>
       <use xlink:href="#m26fb08f7f8" x="613.560625" y="347.35" style="stroke: #000000; stroke-width: 0.8"/>
      </g>
     </g>
    </g>
    <g id="xtick_18">
     <g id="line2d_26">
      <g>
       <use xlink:href="#m26fb08f7f8" x="691.605" y="347.35" style="stroke: #000000; stroke-width: 0.8"/>
      </g>
     </g>
    </g>
   </g>
   <g id="matplotlib.axis_4">
    <g id="ytick_6">
     <g id="line2d_27">
      <g>
       <use xlink:href="#md4e8f56fc0" x="67.25" y="333.025935" style="stroke: #000000; stroke-width: 0.8"/>
      </g>
     </g>
     <g id="text_7">
      <!-- -2.0 -->
      <g transform="translate(32.934688 338.344841) scale(0.14 -0.14)">
       <use xlink:href="#DejaVuSans-2d"/>
       <use xlink:href="#DejaVuSans-32" x="36.083984"/>
       <use xlink:href="#DejaVuSans-2e" x="99.707031"/>
       <use xlink:href="#DejaVuSans-30" x="131.494141"/>
      </g>
     </g>
    </g>
    <g id="ytick_7">
     <g id="line2d_28">
      <g>
       <use xlink:href="#md4e8f56fc0" x="67.25" y="304.946717" style="stroke: #000000; stroke-width: 0.8"/>
      </g>
     </g>
     <g id="text_8">
      <!-- -1.0 -->
      <g transform="translate(32.934688 310.265624) scale(0.14 -0.14)">
       <use xlink:href="#DejaVuSans-2d"/>
       <use xlink:href="#DejaVuSans-31" x="36.083984"/>
       <use xlink:href="#DejaVuSans-2e" x="99.707031"/>
       <use xlink:href="#DejaVuSans-30" x="131.494141"/>
      </g>
     </g>
    </g>
    <g id="ytick_8">
     <g id="line2d_29">
      <g>
       <use xlink:href="#md4e8f56fc0" x="67.25" y="276.8675" style="stroke: #000000; stroke-width: 0.8"/>
      </g>
     </g>
     <g id="text_9">
      <!-- 0.0 -->
      <g transform="translate(37.985625 282.186406) scale(0.14 -0.14)">
       <use xlink:href="#DejaVuSans-30"/>
       <use xlink:href="#DejaVuSans-2e" x="63.623047"/>
       <use xlink:href="#DejaVuSans-30" x="95.410156"/>
      </g>
     </g>
    </g>
    <g id="ytick_9">
     <g id="line2d_30">
      <g>
       <use xlink:href="#md4e8f56fc0" x="67.25" y="248.788283" style="stroke: #000000; stroke-width: 0.8"/>
      </g>
     </g>
     <g id="text_10">
      <!-- 1.0 -->
      <g transform="translate(37.985625 254.107189) scale(0.14 -0.14)">
       <use xlink:href="#DejaVuSans-31"/>
       <use xlink:href="#DejaVuSans-2e" x="63.623047"/>
       <use xlink:href="#DejaVuSans-30" x="95.410156"/>
      </g>
     </g>
    </g>
    <g id="ytick_10">
     <g id="line2d_31">
      <g>
       <use xlink:href="#md4e8f56fc0" x="67.25" y="220.709065" style="stroke: #000000; stroke-width: 0.8"/>
      </g>
     </g>
     <g id="text_11">
      <!-- 2.0 -->
      <g transform="translate(37.985625 226.027971) scale(0.14 -0.14)">
       <use xlink:href="#DejaVuSans-32"/>
       <use xlink:href="#DejaVuSans-2e" x="63.623047"/>
       <use xlink:href="#DejaVuSans-30" x="95.410156"/>
      </g>
     </g>
    </g>
    <g id="text_12">
     <!-- Pos E [m] -->
     <g transform="translate(26.023125 309.917344) rotate(-90) scale(0.14 -0.14)">
      <defs>
       <path id="DejaVuSans-45" d="M 628 4666 
L 3578 4666 
L 3578 4134 
L 1259 4134 
L 1259 2753 
L 3481 2753 
L 3481 2222 
L 1259 2222 
L 1259 531 
L 3634 531 
L 3634 0 
L 628 0 
L 628 4666 
z
" transform="scale(0.015625)"/>
      </defs>
      <use xlink:href="#DejaVuSans-50"/>
      <use xlink:href="#DejaVuSans-6f" x="56.677734"/>
      <use xlink:href="#DejaVuSans-73" x="117.859375"/>
      <use xlink:href="#DejaVuSans-20" x="169.958984"/>
      <use xlink:href="#DejaVuSans-45" x="201.746094"/>
      <use xlink:href="#DejaVuSans-20" x="264.929688"/>
      <use xlink:href="#DejaVuSans-5b" x="296.716797"/>
      <use xlink:href="#DejaVuSans-6d" x="335.730469"/>
      <use xlink:href="#DejaVuSans-5d" x="433.142578"/>
     </g>
    </g>
   </g>
   <g id="line2d_32">
    <path d="M 67.25 276.8675 
L 70.371775 269.013074 
L 73.49355 264.525431 
L 76.615325 262.088824 
L 79.7371 281.049107 
L 82.858875 289.668639 
L 85.98065 279.95608 
L 89.102425 272.903512 
L 92.2242 268.987541 
L 95.345975 238.300619 
L 98.46775 250.360881 
L 107.833075 265.57548 
L 110.95485 276.413039 
L 114.076625 272.381948 
L 117.1984 282.115862 
L 120.320175 282.599107 
L 123.44195 283.989345 
L 126.563725 279.243299 
L 129.6855 256.645105 
L 132.807275 280.668044 
L 135.92905 274.103588 
L 139.050825 289.399822 
L 142.1726 288.116447 
L 145.294375 272.385148 
L 148.41615 271.894705 
L 151.537925 282.757029 
L 154.6597 286.356061 
L 157.781475 275.531668 
L 160.90325 281.083505 
L 164.025025 276.60729 
L 167.1468 275.409828 
L 170.268575 281.159366 
L 173.39035 260.263907 
L 176.512125 261.296752 
L 179.6339 286.846791 
L 182.755675 282.725969 
L 185.87745 285.875468 
L 188.999225 273.826199 
L 192.121 280.818923 
L 195.242775 279.659403 
L 198.36455 273.371621 
L 201.486325 266.676821 
L 204.6081 281.539042 
L 207.729875 283.276893 
L 210.85165 284.593686 
L 213.973425 286.292048 
L 217.0952 265.699116 
L 220.216975 265.612001 
L 223.33875 281.834366 
L 226.460525 272.834388 
L 229.5823 256.204838 
L 232.704075 256.658492 
L 235.82585 280.902647 
L 238.947625 286.35635 
L 242.0694 272.332166 
L 245.191175 280.269295 
L 248.31295 275.268853 
L 251.434725 269.13346 
L 254.5565 280.791318 
L 257.678275 280.486412 
L 260.80005 307.404073 
L 263.921825 302.892464 
L 267.0436 290.976287 
L 270.165375 292.04056 
L 273.28715 268.117336 
L 276.408925 281.616702 
L 279.5307 282.902425 
L 282.652475 278.585336 
L 285.77425 264.561559 
L 288.896025 282.122382 
L 292.0178 270.781883 
L 295.139575 273.59451 
L 298.26135 284.454818 
L 301.383125 278.023668 
L 304.5049 275.732139 
L 307.626675 281.531289 
L 310.74845 279.218834 
L 313.870225 281.501017 
L 316.992 278.449738 
L 320.113775 271.741227 
L 323.23555 260.072447 
L 326.357325 278.878144 
L 329.4791 261.471727 
L 332.600875 286.352224 
L 335.72265 285.753489 
L 338.844425 277.22511 
L 341.9662 274.284737 
L 345.087975 280.894782 
L 348.20975 281.462449 
L 351.331525 283.90126 
L 354.4533 285.881154 
L 357.575075 274.083601 
L 360.69685 271.380596 
L 363.818625 279.935299 
L 366.9404 271.555269 
L 370.062175 271.578943 
L 373.18395 267.730328 
L 376.305725 267.440567 
L 379.4275 280.516554 
L 382.549275 285.820241 
L 385.67105 276.327969 
L 388.792825 271.146156 
L 391.9146 274.090812 
L 395.036375 275.197053 
L 398.15815 265.742807 
L 401.279925 276.669349 
L 404.4017 273.712821 
L 407.523475 278.006994 
L 410.64525 280.536937 
L 413.767025 270.05153 
L 416.8888 266.083414 
L 420.010575 264.685104 
L 423.13235 260.332397 
L 426.254125 269.597026 
L 429.3759 269.695426 
L 432.497675 277.893542 
L 435.61945 276.694156 
L 438.741225 279.087885 
L 441.863 278.103283 
L 444.984775 272.793647 
L 448.10655 282.029369 
L 451.228325 262.231045 
L 454.3501 277.496449 
L 457.471875 289.412914 
L 460.59365 274.753803 
L 463.715425 268.256895 
L 466.8372 266.671424 
L 469.958975 266.642401 
L 473.08075 272.819188 
L 476.202525 284.333163 
L 479.3243 281.902335 
L 482.446075 285.83133 
L 485.56785 273.179568 
L 488.689625 275.261883 
L 491.8114 283.220835 
L 494.933175 283.540886 
L 498.05495 276.686891 
L 501.176725 281.003698 
L 504.2985 286.14065 
L 507.420275 279.545862 
L 510.54205 275.245052 
L 513.663825 279.697476 
L 516.7856 282.438178 
L 519.907375 277.699548 
L 523.02915 289.374632 
L 526.150925 295.862974 
L 529.2727 292.553117 
L 532.394475 285.189228 
L 535.51625 276.20084 
L 538.638025 261.497443 
L 541.7598 259.692709 
L 544.881575 269.460495 
L 548.00335 274.855986 
L 551.125125 286.153036 
L 554.2469 283.251631 
L 557.368675 282.587636 
L 560.49045 276.42659 
L 563.612225 282.826298 
L 566.734 275.141085 
L 569.855775 261.595984 
L 572.97755 268.815629 
L 576.099325 269.925695 
L 579.2211 268.120592 
L 582.342875 276.573223 
L 585.46465 276.002645 
L 588.586425 276.808859 
L 591.7082 276.200556 
L 594.829975 283.221452 
L 597.95175 280.138939 
L 601.073525 273.574606 
L 604.1953 261.472386 
L 607.317075 259.50426 
L 610.43885 249.352257 
L 613.560625 270.021778 
L 616.6824 268.724879 
L 619.804175 272.804264 
L 622.92595 257.075709 
L 626.047725 273.766355 
L 629.1695 284.572241 
L 632.291275 287.595688 
L 635.41305 301.13076 
L 638.534825 293.764187 
L 641.6566 289.875655 
L 644.778375 279.510093 
L 647.90015 272.231098 
L 651.021925 255.789533 
L 654.1437 255.812483 
L 657.265475 271.288191 
L 660.38725 283.893743 
L 663.509025 277.973468 
L 666.6308 288.859813 
L 669.752575 267.190355 
L 672.87435 259.526107 
L 675.996125 271.018028 
L 679.1179 289.784672 
L 682.239675 273.234261 
L 685.36145 274.833929 
L 688.483225 264.479211 
L 688.483225 264.479211 
" clip-path="url(#p15f1aab6c7)" style="fill: none; stroke: #1f77b4; stroke-width: 1.5; stroke-linecap: square"/>
   </g>
   <g id="line2d_33">
    <path d="M 67.25 323.855833 
L 691.605 323.855833 
" clip-path="url(#p15f1aab6c7)" style="fill: none; stroke-dasharray: 5.55,2.4; stroke-dashoffset: 0; stroke: #ff0000; stroke-width: 1.5"/>
   </g>
   <g id="line2d_34">
    <path d="M 67.25 229.879167 
L 691.605 229.879167 
" clip-path="url(#p15f1aab6c7)" style="fill: none; stroke-dasharray: 5.55,2.4; stroke-dashoffset: 0; stroke: #ff0000; stroke-width: 1.5"/>
   </g>
   <g id="patch_8">
    <path d="M 67.25 347.35 
L 67.25 206.385 
" style="fill: none; stroke: #000000; stroke-width: 0.8; stroke-linejoin: miter; stroke-linecap: square"/>
   </g>
   <g id="patch_9">
    <path d="M 691.605 347.35 
L 691.605 206.385 
" style="fill: none; stroke: #000000; stroke-width: 0.8; stroke-linejoin: miter; stroke-linecap: square"/>
   </g>
   <g id="patch_10">
    <path d="M 67.25 347.35 
L 691.605 347.35 
" style="fill: none; stroke: #000000; stroke-width: 0.8; stroke-linejoin: miter; stroke-linecap: square"/>
   </g>
   <g id="patch_11">
    <path d="M 67.25 206.385 
L 691.605 206.385 
" style="fill: none; stroke: #000000; stroke-width: 0.8; stroke-linejoin: miter; stroke-linecap: square"/>
   </g>
  </g>
  <g id="axes_3">
   <g id="patch_12">
    <path d="M 67.25 506.935 
L 691.605 506.935 
L 691.605 365.97 
L 67.25 365.97 
z
" style="fill: #ffffff"/>
   </g>
   <g id="matplotlib.axis_5">
    <g id="xtick_19">
     <g id="line2d_35">
      <g>
       <use xlink:href="#m26fb08f7f8" x="67.25" y="506.935" style="stroke: #000000; stroke-width: 0.8"/>
      </g>
     </g>
    </g>
    <g id="xtick_20">
     <g id="line2d_36">
      <g>
       <use xlink:href="#m26fb08f7f8" x="145.294375" y="506.935" style="stroke: #000000; stroke-width: 0.8"/>
      </g>
     </g>
    </g>
    <g id="xtick_21">
     <g id="line2d_37">
      <g>
       <use xlink:href="#m26fb08f7f8" x="223.33875" y="506.935" style="stroke: #000000; stroke-width: 0.8"/>
      </g>
     </g>
    </g>
    <g id="xtick_22">
     <g id="line2d_38">
      <g>
       <use xlink:href="#m26fb08f7f8" x="301.383125" y="506.935" style="stroke: #000000; stroke-width: 0.8"/>
      </g>
     </g>
    </g>
    <g id="xtick_23">
     <g id="line2d_39">
      <g>
       <use xlink:href="#m26fb08f7f8" x="379.4275" y="506.935" style="stroke: #000000; stroke-width: 0.8"/>
      </g>
     </g>
    </g>
    <g id="xtick_24">
     <g id="line2d_40">
      <g>
       <use xlink:href="#m26fb08f7f8" x="457.471875" y="506.935" style="stroke: #000000; stroke-width: 0.8"/>
      </g>
     </g>
    </g>
    <g id="xtick_25">
     <g id="line2d_41">
      <g>
       <use xlink:href="#m26fb08f7f8" x="535.51625" y="506.935" style="stroke: #000000; stroke-width: 0.8"/>
      </g>
     </g>
    </g>
    <g id="xtick_26">
     <g id="line2d_42">
      <g>
       <use xlink:href="#m26fb08f7f8" x="613.560625" y="506.935" style="stroke: #000000; stroke-width: 0.8"/>
      </g>
     </g>
    </g>
    <g id="xtick_27">
     <g id="line2d_43">
      <g>
       <use xlink:href="#m26fb08f7f8" x="691.605" y="506.935" style="stroke: #000000; stroke-width: 0.8"/>
      </g>
     </g>
    </g>
   </g>
   <g id="matplotlib.axis_6">
    <g id="ytick_11">
     <g id="line2d_44">
      <g>
       <use xlink:href="#md4e8f56fc0" x="67.25" y="502.170082" style="stroke: #000000; stroke-width: 0.8"/>
      </g>
     </g>
     <g id="text_13">
      <!-- -0.8 -->
      <g transform="translate(32.934688 507.488988) scale(0.14 -0.14)">
       <defs>
        <path id="DejaVuSans-38" d="M 2034 2216 
Q 1584 2216 1326 1975 
Q 1069 1734 1069 1313 
Q 1069 891 1326 650 
Q 1584 409 2034 409 
Q 2484 409 2743 651 
Q 3003 894 3003 1313 
Q 3003 1734 2745 1975 
Q 2488 2216 2034 2216 
z
M 1403 2484 
Q 997 2584 770 2862 
Q 544 3141 544 3541 
Q 544 4100 942 4425 
Q 1341 4750 2034 4750 
Q 2731 4750 3128 4425 
Q 3525 4100 3525 3541 
Q 3525 3141 3298 2862 
Q 3072 2584 2669 2484 
Q 3125 2378 3379 2068 
Q 3634 1759 3634 1313 
Q 3634 634 3220 271 
Q 2806 -91 2034 -91 
Q 1263 -91 848 271 
Q 434 634 434 1313 
Q 434 1759 690 2068 
Q 947 2378 1403 2484 
z
M 1172 3481 
Q 1172 3119 1398 2916 
Q 1625 2713 2034 2713 
Q 2441 2713 2670 2916 
Q 2900 3119 2900 3481 
Q 2900 3844 2670 4047 
Q 2441 4250 2034 4250 
Q 1625 4250 1398 4047 
Q 1172 3844 1172 3481 
z
" transform="scale(0.015625)"/>
       </defs>
       <use xlink:href="#DejaVuSans-2d"/>
       <use xlink:href="#DejaVuSans-30" x="36.083984"/>
       <use xlink:href="#DejaVuSans-2e" x="99.707031"/>
       <use xlink:href="#DejaVuSans-38" x="131.494141"/>
      </g>
     </g>
    </g>
    <g id="ytick_12">
     <g id="line2d_45">
      <g>
       <use xlink:href="#md4e8f56fc0" x="67.25" y="480.264221" style="stroke: #000000; stroke-width: 0.8"/>
      </g>
     </g>
     <g id="text_14">
      <!-- -0.5 -->
      <g transform="translate(32.934688 485.583127) scale(0.14 -0.14)">
       <defs>
        <path id="DejaVuSans-35" d="M 691 4666 
L 3169 4666 
L 3169 4134 
L 1269 4134 
L 1269 2991 
Q 1406 3038 1543 3061 
Q 1681 3084 1819 3084 
Q 2600 3084 3056 2656 
Q 3513 2228 3513 1497 
Q 3513 744 3044 326 
Q 2575 -91 1722 -91 
Q 1428 -91 1123 -41 
Q 819 9 494 109 
L 494 744 
Q 775 591 1075 516 
Q 1375 441 1709 441 
Q 2250 441 2565 725 
Q 2881 1009 2881 1497 
Q 2881 1984 2565 2268 
Q 2250 2553 1709 2553 
Q 1456 2553 1204 2497 
Q 953 2441 691 2322 
L 691 4666 
z
" transform="scale(0.015625)"/>
       </defs>
       <use xlink:href="#DejaVuSans-2d"/>
       <use xlink:href="#DejaVuSans-30" x="36.083984"/>
       <use xlink:href="#DejaVuSans-2e" x="99.707031"/>
       <use xlink:href="#DejaVuSans-35" x="131.494141"/>
      </g>
     </g>
    </g>
    <g id="ytick_13">
     <g id="line2d_46">
      <g>
       <use xlink:href="#md4e8f56fc0" x="67.25" y="458.358361" style="stroke: #000000; stroke-width: 0.8"/>
      </g>
     </g>
     <g id="text_15">
      <!-- -0.2 -->
      <g transform="translate(32.934688 463.677267) scale(0.14 -0.14)">
       <use xlink:href="#DejaVuSans-2d"/>
       <use xlink:href="#DejaVuSans-30" x="36.083984"/>
       <use xlink:href="#DejaVuSans-2e" x="99.707031"/>
       <use xlink:href="#DejaVuSans-32" x="131.494141"/>
      </g>
     </g>
    </g>
    <g id="ytick_14">
     <g id="line2d_47">
      <g>
       <use xlink:href="#md4e8f56fc0" x="67.25" y="436.4525" style="stroke: #000000; stroke-width: 0.8"/>
      </g>
     </g>
     <g id="text_16">
      <!-- 0.0 -->
      <g transform="translate(37.985625 441.771406) scale(0.14 -0.14)">
       <use xlink:href="#DejaVuSans-30"/>
       <use xlink:href="#DejaVuSans-2e" x="63.623047"/>
       <use xlink:href="#DejaVuSans-30" x="95.410156"/>
      </g>
     </g>
    </g>
    <g id="ytick_15">
     <g id="line2d_48">
      <g>
       <use xlink:href="#md4e8f56fc0" x="67.25" y="414.546639" style="stroke: #000000; stroke-width: 0.8"/>
      </g>
     </g>
     <g id="text_17">
      <!-- 0.2 -->
      <g transform="translate(37.985625 419.865546) scale(0.14 -0.14)">
       <use xlink:href="#DejaVuSans-30"/>
       <use xlink:href="#DejaVuSans-2e" x="63.623047"/>
       <use xlink:href="#DejaVuSans-32" x="95.410156"/>
      </g>
     </g>
    </g>
    <g id="ytick_16">
     <g id="line2d_49">
      <g>
       <use xlink:href="#md4e8f56fc0" x="67.25" y="392.640779" style="stroke: #000000; stroke-width: 0.8"/>
      </g>
     </g>
     <g id="text_18">
      <!-- 0.5 -->
      <g transform="translate(37.985625 397.959685) scale(0.14 -0.14)">
       <use xlink:href="#DejaVuSans-30"/>
       <use xlink:href="#DejaVuSans-2e" x="63.623047"/>
       <use xlink:href="#DejaVuSans-35" x="95.410156"/>
      </g>
     </g>
    </g>
    <g id="ytick_17">
     <g id="line2d_50">
      <g>
       <use xlink:href="#md4e8f56fc0" x="67.25" y="370.734918" style="stroke: #000000; stroke-width: 0.8"/>
      </g>
     </g>
     <g id="text_19">
      <!-- 0.8 -->
      <g transform="translate(37.985625 376.053825) scale(0.14 -0.14)">
       <use xlink:href="#DejaVuSans-30"/>
       <use xlink:href="#DejaVuSans-2e" x="63.623047"/>
       <use xlink:href="#DejaVuSans-38" x="95.410156"/>
      </g>
     </g>
    </g>
    <g id="text_20">
     <!-- Vel N [m/s] -->
     <g transform="translate(26.023125 474.921875) rotate(-90) scale(0.14 -0.14)">
      <defs>
       <path id="DejaVuSans-56" d="M 1831 0 
L 50 4666 
L 709 4666 
L 2188 738 
L 3669 4666 
L 4325 4666 
L 2547 0 
L 1831 0 
z
" transform="scale(0.015625)"/>
       <path id="DejaVuSans-65" d="M 3597 1894 
L 3597 1613 
L 953 1613 
Q 991 1019 1311 708 
Q 1631 397 2203 397 
Q 2534 397 2845 478 
Q 3156 559 3463 722 
L 3463 178 
Q 3153 47 2828 -22 
Q 2503 -91 2169 -91 
Q 1331 -91 842 396 
Q 353 884 353 1716 
Q 353 2575 817 3079 
Q 1281 3584 2069 3584 
Q 2775 3584 3186 3129 
Q 3597 2675 3597 1894 
z
M 3022 2063 
Q 3016 2534 2758 2815 
Q 2500 3097 2075 3097 
Q 1594 3097 1305 2825 
Q 1016 2553 972 2059 
L 3022 2063 
z
" transform="scale(0.015625)"/>
       <path id="DejaVuSans-6c" d="M 603 4863 
L 1178 4863 
L 1178 0 
L 603 0 
L 603 4863 
z
" transform="scale(0.015625)"/>
       <path id="DejaVuSans-2f" d="M 1625 4666 
L 2156 4666 
L 531 -594 
L 0 -594 
L 1625 4666 
z
" transform="scale(0.015625)"/>
      </defs>
      <use xlink:href="#DejaVuSans-56"/>
      <use xlink:href="#DejaVuSans-65" x="60.658203"/>
      <use xlink:href="#DejaVuSans-6c" x="122.181641"/>
      <use xlink:href="#DejaVuSans-20" x="149.964844"/>
      <use xlink:href="#DejaVuSans-4e" x="181.751953"/>
      <use xlink:href="#DejaVuSans-20" x="256.556641"/>
      <use xlink:href="#DejaVuSans-5b" x="288.34375"/>
      <use xlink:href="#DejaVuSans-6d" x="327.357422"/>
      <use xlink:href="#DejaVuSans-2f" x="424.769531"/>
      <use xlink:href="#DejaVuSans-73" x="458.460938"/>
      <use xlink:href="#DejaVuSans-5d" x="510.560547"/>
     </g>
    </g>
   </g>
   <g id="line2d_51">
    <path d="M 67.25 436.4525 
L 70.371775 436.419147 
L 73.49355 432.576474 
L 76.615325 419.76692 
L 79.7371 441.776474 
L 82.858875 448.943359 
L 85.98065 422.745037 
L 89.102425 428.001711 
L 92.2242 448.897395 
L 95.345975 439.08827 
L 98.46775 447.768526 
L 101.589525 447.252964 
L 104.7113 433.844888 
L 107.833075 458.143727 
L 110.95485 457.690274 
L 114.076625 434.900509 
L 117.1984 432.327496 
L 120.320175 414.25368 
L 123.44195 430.118509 
L 126.563725 444.25442 
L 129.6855 407.902033 
L 132.807275 425.04194 
L 135.92905 430.418567 
L 139.050825 453.684085 
L 142.1726 444.645195 
L 145.294375 429.181674 
L 148.41615 441.79046 
L 151.537925 423.621112 
L 154.6597 433.033231 
L 157.781475 432.675411 
L 160.90325 437.039841 
L 164.025025 404.67066 
L 167.1468 426.418811 
L 170.268575 450.871884 
L 173.39035 429.510035 
L 176.512125 450.134834 
L 179.6339 433.582211 
L 182.755675 456.429867 
L 185.87745 449.491975 
L 188.999225 421.408755 
L 192.121 407.168286 
L 195.242775 417.422835 
L 198.36455 430.008921 
L 201.486325 438.240911 
L 204.6081 455.632336 
L 207.729875 445.111997 
L 210.85165 433.988516 
L 213.973425 409.12714 
L 217.0952 416.701553 
L 220.216975 452.931537 
L 223.33875 432.484688 
L 226.460525 434.500142 
L 229.5823 438.772422 
L 232.704075 421.341143 
L 235.82585 412.752014 
L 238.947625 417.12128 
L 242.0694 447.512411 
L 245.191175 447.484385 
L 248.31295 434.498138 
L 251.434725 420.560136 
L 254.5565 438.768958 
L 257.678275 440.039041 
L 260.80005 450.857067 
L 263.921825 450.804693 
L 267.0436 418.461868 
L 270.165375 403.558128 
L 273.28715 426.341442 
L 276.408925 422.722345 
L 279.5307 433.348208 
L 282.652475 451.016793 
L 285.77425 438.875253 
L 288.896025 416.93235 
L 292.0178 435.019624 
L 295.139575 420.020505 
L 298.26135 474.922096 
L 301.383125 436.874086 
L 304.5049 431.56742 
L 307.626675 435.590131 
L 310.74845 431.482811 
L 313.870225 458.798873 
L 316.992 437.903904 
L 323.23555 404.024339 
L 326.357325 433.799167 
L 329.4791 449.282632 
L 332.600875 446.619524 
L 335.72265 423.019577 
L 338.844425 425.722637 
L 341.9662 441.215492 
L 345.087975 431.25004 
L 348.20975 434.375311 
L 351.331525 424.203574 
L 354.4533 446.340568 
L 357.575075 446.423978 
L 360.69685 444.083198 
L 363.818625 455.114391 
L 366.9404 429.781476 
L 370.062175 422.64762 
L 373.18395 427.578054 
L 376.305725 435.36573 
L 379.4275 454.526867 
L 382.549275 442.887673 
L 385.67105 435.544189 
L 388.792825 439.334604 
L 391.9146 431.402681 
L 395.036375 422.525842 
L 398.15815 403.721743 
L 401.279925 429.907038 
L 404.4017 440.953728 
L 407.523475 448.502274 
L 410.64525 472.775673 
L 413.767025 445.711905 
L 416.8888 431.866303 
L 420.010575 396.150764 
L 423.13235 431.172935 
L 426.254125 439.851517 
L 429.3759 447.105873 
L 432.497675 462.348273 
L 435.61945 429.635661 
L 438.741225 425.206701 
L 441.863 427.064643 
L 444.984775 454.138832 
L 448.10655 428.507367 
L 451.228325 459.65014 
L 454.3501 438.260355 
L 457.471875 408.792765 
L 460.59365 449.663911 
L 463.715425 456.111846 
L 466.8372 444.350186 
L 469.958975 446.40137 
L 473.08075 459.029187 
L 476.202525 435.946869 
L 479.3243 443.45002 
L 482.446075 424.366643 
L 485.56785 440.489997 
L 488.689625 413.051181 
L 491.8114 442.159164 
L 494.933175 446.137273 
L 498.05495 430.348236 
L 501.176725 454.701317 
L 504.2985 439.661806 
L 507.420275 419.458258 
L 510.54205 457.212571 
L 513.663825 442.000713 
L 516.7856 434.539471 
L 519.907375 426.294944 
L 523.02915 454.446667 
L 526.150925 461.691505 
L 529.2727 432.926352 
L 532.394475 427.18231 
L 535.51625 429.496869 
L 538.638025 432.228974 
L 541.7598 449.368757 
L 544.881575 440.622843 
L 548.00335 436.227017 
L 551.125125 449.180042 
L 554.2469 416.473177 
L 557.368675 429.951691 
L 560.49045 460.403607 
L 563.612225 440.683469 
L 566.734 454.828702 
L 569.855775 431.79727 
L 572.97755 420.470972 
L 576.099325 448.633467 
L 579.2211 432.460226 
L 582.342875 435.877576 
L 585.46465 432.725661 
L 588.586425 419.097093 
L 591.7082 448.925651 
L 594.829975 464.03131 
L 597.95175 463.913151 
L 601.073525 455.245409 
L 604.1953 437.047588 
L 607.317075 425.1218 
L 610.43885 425.69261 
L 613.560625 422.518234 
L 616.6824 437.227286 
L 619.804175 423.840517 
L 622.92595 446.392018 
L 626.047725 412.343591 
L 629.1695 435.627544 
L 632.291275 465.171281 
L 635.41305 470.924632 
L 638.534825 442.142071 
L 641.6566 439.49429 
L 644.778375 425.407602 
L 647.90015 427.13471 
L 651.021925 438.380142 
L 654.1437 452.804198 
L 657.265475 462.548765 
L 660.38725 444.160929 
L 663.509025 417.60563 
L 666.6308 422.235525 
L 669.752575 448.1834 
L 672.87435 435.486696 
L 675.996125 428.282831 
L 679.1179 445.247774 
L 682.239675 435.091058 
L 685.36145 433.009019 
L 688.483225 449.448684 
L 688.483225 449.448684 
" clip-path="url(#pd2095f96a7)" style="fill: none; stroke: #1f77b4; stroke-width: 1.5; stroke-linecap: square"/>
   </g>
   <g id="line2d_52">
    <path d="M 67.25 483.440833 
L 691.605 483.440833 
" clip-path="url(#pd2095f96a7)" style="fill: none; stroke-dasharray: 5.55,2.4; stroke-dashoffset: 0; stroke: #ff0000; stroke-width: 1.5"/>
   </g>
   <g id="line2d_53">
    <path d="M 67.25 389.464167 
L 691.605 389.464167 
" clip-path="url(#pd2095f96a7)" style="fill: none; stroke-dasharray: 5.55,2.4; stroke-dashoffset: 0; stroke: #ff0000; stroke-width: 1.5"/>
   </g>
   <g id="patch_13">
    <path d="M 67.25 506.935 
L 67.25 365.97 
" style="fill: none; stroke: #000000; stroke-width: 0.8; stroke-linejoin: miter; stroke-linecap: square"/>
   </g>
   <g id="patch_14">
    <path d="M 691.605 506.935 
L 691.605 365.97 
" style="fill: none; stroke: #000000; stroke-width: 0.8; stroke-linejoin: miter; stroke-linecap: square"/>
   </g>
   <g id="patch_15">
    <path d="M 67.25 506.935 
L 691.605 506.935 
" style="fill: none; stroke: #000000; stroke-width: 0.8; stroke-linejoin: miter; stroke-linecap: square"/>
   </g>
   <g id="patch_16">
    <path d="M 67.25 365.97 
L 691.605 365.97 
" style="fill: none; stroke: #000000; stroke-width: 0.8; stroke-linejoin: miter; stroke-linecap: square"/>
   </g>
  </g>
  <g id="axes_4">
   <g id="patch_17">
    <path d="M 67.25 666.52 
L 691.605 666.52 
L 691.605 525.555 
L 67.25 525.555 
z
" style="fill: #ffffff"/>
   </g>
   <g id="matplotlib.axis_7">
    <g id="xtick_28">
     <g id="line2d_54">
      <g>
       <use xlink:href="#m26fb08f7f8" x="67.25" y="666.52" style="stroke: #000000; stroke-width: 0.8"/>
      </g>
     </g>
     <g id="text_21">
      <!-- 0 -->
      <g transform="translate(62.79625 684.157812) scale(0.14 -0.14)">
       <use xlink:href="#DejaVuSans-30"/>
      </g>
     </g>
    </g>
    <g id="xtick_29">
     <g id="line2d_55">
      <g>
       <use xlink:href="#m26fb08f7f8" x="145.294375" y="666.52" style="stroke: #000000; stroke-width: 0.8"/>
      </g>
     </g>
     <g id="text_22">
      <!-- 25 -->
      <g transform="translate(136.386875 684.157812) scale(0.14 -0.14)">
       <use xlink:href="#DejaVuSans-32"/>
       <use xlink:href="#DejaVuSans-35" x="63.623047"/>
      </g>
     </g>
    </g>
    <g id="xtick_30">
     <g id="line2d_56">
      <g>
       <use xlink:href="#m26fb08f7f8" x="223.33875" y="666.52" style="stroke: #000000; stroke-width: 0.8"/>
      </g>
     </g>
     <g id="text_23">
      <!-- 50 -->
      <g transform="translate(214.43125 684.157812) scale(0.14 -0.14)">
       <use xlink:href="#DejaVuSans-35"/>
       <use xlink:href="#DejaVuSans-30" x="63.623047"/>
      </g>
     </g>
    </g>
    <g id="xtick_31">
     <g id="line2d_57">
      <g>
       <use xlink:href="#m26fb08f7f8" x="301.383125" y="666.52" style="stroke: #000000; stroke-width: 0.8"/>
      </g>
     </g>
     <g id="text_24">
      <!-- 75 -->
      <g transform="translate(292.475625 684.157812) scale(0.14 -0.14)">
       <defs>
        <path id="DejaVuSans-37" d="M 525 4666 
L 3525 4666 
L 3525 4397 
L 1831 0 
L 1172 0 
L 2766 4134 
L 525 4134 
L 525 4666 
z
" transform="scale(0.015625)"/>
       </defs>
       <use xlink:href="#DejaVuSans-37"/>
       <use xlink:href="#DejaVuSans-35" x="63.623047"/>
      </g>
     </g>
    </g>
    <g id="xtick_32">
     <g id="line2d_58">
      <g>
       <use xlink:href="#m26fb08f7f8" x="379.4275" y="666.52" style="stroke: #000000; stroke-width: 0.8"/>
      </g>
     </g>
     <g id="text_25">
      <!-- 100 -->
      <g transform="translate(366.06625 684.157812) scale(0.14 -0.14)">
       <use xlink:href="#DejaVuSans-31"/>
       <use xlink:href="#DejaVuSans-30" x="63.623047"/>
       <use xlink:href="#DejaVuSans-30" x="127.246094"/>
      </g>
     </g>
    </g>
    <g id="xtick_33">
     <g id="line2d_59">
      <g>
       <use xlink:href="#m26fb08f7f8" x="457.471875" y="666.52" style="stroke: #000000; stroke-width: 0.8"/>
      </g>
     </g>
     <g id="text_26">
      <!-- 125 -->
      <g transform="translate(444.110625 684.157812) scale(0.14 -0.14)">
       <use xlink:href="#DejaVuSans-31"/>
       <use xlink:href="#DejaVuSans-32" x="63.623047"/>
       <use xlink:href="#DejaVuSans-35" x="127.246094"/>
      </g>
     </g>
    </g>
    <g id="xtick_34">
     <g id="line2d_60">
      <g>
       <use xlink:href="#m26fb08f7f8" x="535.51625" y="666.52" style="stroke: #000000; stroke-width: 0.8"/>
      </g>
     </g>
     <g id="text_27">
      <!-- 150 -->
      <g transform="translate(522.155 684.157812) scale(0.14 -0.14)">
       <use xlink:href="#DejaVuSans-31"/>
       <use xlink:href="#DejaVuSans-35" x="63.623047"/>
       <use xlink:href="#DejaVuSans-30" x="127.246094"/>
      </g>
     </g>
    </g>
    <g id="xtick_35">
     <g id="line2d_61">
      <g>
       <use xlink:href="#m26fb08f7f8" x="613.560625" y="666.52" style="stroke: #000000; stroke-width: 0.8"/>
      </g>
     </g>
     <g id="text_28">
      <!-- 175 -->
      <g transform="translate(600.199375 684.157812) scale(0.14 -0.14)">
       <use xlink:href="#DejaVuSans-31"/>
       <use xlink:href="#DejaVuSans-37" x="63.623047"/>
       <use xlink:href="#DejaVuSans-35" x="127.246094"/>
      </g>
     </g>
    </g>
    <g id="xtick_36">
     <g id="line2d_62">
      <g>
       <use xlink:href="#m26fb08f7f8" x="691.605" y="666.52" style="stroke: #000000; stroke-width: 0.8"/>
      </g>
     </g>
     <g id="text_29">
      <!-- 200 -->
      <g transform="translate(678.24375 684.157812) scale(0.14 -0.14)">
       <use xlink:href="#DejaVuSans-32"/>
       <use xlink:href="#DejaVuSans-30" x="63.623047"/>
       <use xlink:href="#DejaVuSans-30" x="127.246094"/>
      </g>
     </g>
    </g>
    <g id="text_30">
     <!-- Timestamp [s] -->
     <g transform="translate(329.024219 701.707188) scale(0.14 -0.14)">
      <defs>
       <path id="DejaVuSans-54" d="M -19 4666 
L 3928 4666 
L 3928 4134 
L 2272 4134 
L 2272 0 
L 1638 0 
L 1638 4134 
L -19 4134 
L -19 4666 
z
" transform="scale(0.015625)"/>
       <path id="DejaVuSans-69" d="M 603 3500 
L 1178 3500 
L 1178 0 
L 603 0 
L 603 3500 
z
M 603 4863 
L 1178 4863 
L 1178 4134 
L 603 4134 
L 603 4863 
z
" transform="scale(0.015625)"/>
       <path id="DejaVuSans-74" d="M 1172 4494 
L 1172 3500 
L 2356 3500 
L 2356 3053 
L 1172 3053 
L 1172 1153 
Q 1172 725 1289 603 
Q 1406 481 1766 481 
L 2356 481 
L 2356 0 
L 1766 0 
Q 1100 0 847 248 
Q 594 497 594 1153 
L 594 3053 
L 172 3053 
L 172 3500 
L 594 3500 
L 594 4494 
L 1172 4494 
z
" transform="scale(0.015625)"/>
       <path id="DejaVuSans-61" d="M 2194 1759 
Q 1497 1759 1228 1600 
Q 959 1441 959 1056 
Q 959 750 1161 570 
Q 1363 391 1709 391 
Q 2188 391 2477 730 
Q 2766 1069 2766 1631 
L 2766 1759 
L 2194 1759 
z
M 3341 1997 
L 3341 0 
L 2766 0 
L 2766 531 
Q 2569 213 2275 61 
Q 1981 -91 1556 -91 
Q 1019 -91 701 211 
Q 384 513 384 1019 
Q 384 1609 779 1909 
Q 1175 2209 1959 2209 
L 2766 2209 
L 2766 2266 
Q 2766 2663 2505 2880 
Q 2244 3097 1772 3097 
Q 1472 3097 1187 3025 
Q 903 2953 641 2809 
L 641 3341 
Q 956 3463 1253 3523 
Q 1550 3584 1831 3584 
Q 2591 3584 2966 3190 
Q 3341 2797 3341 1997 
z
" transform="scale(0.015625)"/>
       <path id="DejaVuSans-70" d="M 1159 525 
L 1159 -1331 
L 581 -1331 
L 581 3500 
L 1159 3500 
L 1159 2969 
Q 1341 3281 1617 3432 
Q 1894 3584 2278 3584 
Q 2916 3584 3314 3078 
Q 3713 2572 3713 1747 
Q 3713 922 3314 415 
Q 2916 -91 2278 -91 
Q 1894 -91 1617 61 
Q 1341 213 1159 525 
z
M 3116 1747 
Q 3116 2381 2855 2742 
Q 2594 3103 2138 3103 
Q 1681 3103 1420 2742 
Q 1159 2381 1159 1747 
Q 1159 1113 1420 752 
Q 1681 391 2138 391 
Q 2594 391 2855 752 
Q 3116 1113 3116 1747 
z
" transform="scale(0.015625)"/>
      </defs>
      <use xlink:href="#DejaVuSans-54"/>
      <use xlink:href="#DejaVuSans-69" x="57.958984"/>
      <use xlink:href="#DejaVuSans-6d" x="85.742188"/>
      <use xlink:href="#DejaVuSans-65" x="183.154297"/>
      <use xlink:href="#DejaVuSans-73" x="244.677734"/>
      <use xlink:href="#DejaVuSans-74" x="296.777344"/>
      <use xlink:href="#DejaVuSans-61" x="335.986328"/>
      <use xlink:href="#DejaVuSans-6d" x="397.265625"/>
      <use xlink:href="#DejaVuSans-70" x="494.677734"/>
      <use xlink:href="#DejaVuSans-20" x="558.154297"/>
      <use xlink:href="#DejaVuSans-5b" x="589.941406"/>
      <use xlink:href="#DejaVuSans-73" x="628.955078"/>
      <use xlink:href="#DejaVuSans-5d" x="681.054688"/>
     </g>
    </g>
   </g>
   <g id="matplotlib.axis_8">
    <g id="ytick_18">
     <g id="line2d_63">
      <g>
       <use xlink:href="#md4e8f56fc0" x="67.25" y="644.604332" style="stroke: #000000; stroke-width: 0.8"/>
      </g>
     </g>
     <g id="text_31">
      <!-- -2.0 -->
      <g transform="translate(32.934688 649.923238) scale(0.14 -0.14)">
       <use xlink:href="#DejaVuSans-2d"/>
       <use xlink:href="#DejaVuSans-32" x="36.083984"/>
       <use xlink:href="#DejaVuSans-2e" x="99.707031"/>
       <use xlink:href="#DejaVuSans-30" x="131.494141"/>
      </g>
     </g>
    </g>
    <g id="ytick_19">
     <g id="line2d_64">
      <g>
       <use xlink:href="#md4e8f56fc0" x="67.25" y="620.320916" style="stroke: #000000; stroke-width: 0.8"/>
      </g>
     </g>
     <g id="text_32">
      <!-- -1.0 -->
      <g transform="translate(32.934688 625.639822) scale(0.14 -0.14)">
       <use xlink:href="#DejaVuSans-2d"/>
       <use xlink:href="#DejaVuSans-31" x="36.083984"/>
       <use xlink:href="#DejaVuSans-2e" x="99.707031"/>
       <use xlink:href="#DejaVuSans-30" x="131.494141"/>
      </g>
     </g>
    </g>
    <g id="ytick_20">
     <g id="line2d_65">
      <g>
       <use xlink:href="#md4e8f56fc0" x="67.25" y="596.0375" style="stroke: #000000; stroke-width: 0.8"/>
      </g>
     </g>
     <g id="text_33">
      <!-- 0.0 -->
      <g transform="translate(37.985625 601.356406) scale(0.14 -0.14)">
       <use xlink:href="#DejaVuSans-30"/>
       <use xlink:href="#DejaVuSans-2e" x="63.623047"/>
       <use xlink:href="#DejaVuSans-30" x="95.410156"/>
      </g>
     </g>
    </g>
    <g id="ytick_21">
     <g id="line2d_66">
      <g>
       <use xlink:href="#md4e8f56fc0" x="67.25" y="571.754084" style="stroke: #000000; stroke-width: 0.8"/>
      </g>
     </g>
     <g id="text_34">
      <!-- 1.0 -->
      <g transform="translate(37.985625 577.07299) scale(0.14 -0.14)">
       <use xlink:href="#DejaVuSans-31"/>
       <use xlink:href="#DejaVuSans-2e" x="63.623047"/>
       <use xlink:href="#DejaVuSans-30" x="95.410156"/>
      </g>
     </g>
    </g>
    <g id="ytick_22">
     <g id="line2d_67">
      <g>
       <use xlink:href="#md4e8f56fc0" x="67.25" y="547.470668" style="stroke: #000000; stroke-width: 0.8"/>
      </g>
     </g>
     <g id="text_35">
      <!-- 2.0 -->
      <g transform="translate(37.985625 552.789575) scale(0.14 -0.14)">
       <use xlink:href="#DejaVuSans-32"/>
       <use xlink:href="#DejaVuSans-2e" x="63.623047"/>
       <use xlink:href="#DejaVuSans-30" x="95.410156"/>
      </g>
     </g>
    </g>
    <g id="text_36">
     <!-- Vel E [m/s] -->
     <g transform="translate(26.023125 633.693125) rotate(-90) scale(0.14 -0.14)">
      <use xlink:href="#DejaVuSans-56"/>
      <use xlink:href="#DejaVuSans-65" x="60.658203"/>
      <use xlink:href="#DejaVuSans-6c" x="122.181641"/>
      <use xlink:href="#DejaVuSans-20" x="149.964844"/>
      <use xlink:href="#DejaVuSans-45" x="181.751953"/>
      <use xlink:href="#DejaVuSans-20" x="244.935547"/>
      <use xlink:href="#DejaVuSans-5b" x="276.722656"/>
      <use xlink:href="#DejaVuSans-6d" x="315.736328"/>
      <use xlink:href="#DejaVuSans-2f" x="413.148438"/>
      <use xlink:href="#DejaVuSans-73" x="446.839844"/>
      <use xlink:href="#DejaVuSans-5d" x="498.939453"/>
     </g>
    </g>
   </g>
   <g id="line2d_68">
    <path d="M 67.25 596.0375 
L 70.371775 596.635921 
L 73.49355 596.639792 
L 76.615325 597.22957 
L 79.7371 608.045128 
L 82.858875 608.907069 
L 85.98065 602.047927 
L 89.102425 600.338097 
L 92.2242 601.376084 
L 95.345975 591.061522 
L 98.46775 604.620625 
L 101.589525 609.061456 
L 104.7113 611.816302 
L 107.833075 613.878228 
L 110.95485 617.853602 
L 114.076625 614.056434 
L 117.1984 618.521871 
L 120.320175 617.351265 
L 123.44195 617.646043 
L 126.563725 615.669879 
L 129.6855 607.535752 
L 132.807275 623.764203 
L 135.92905 619.404151 
L 139.050825 626.962939 
L 142.1726 624.157725 
L 145.294375 616.99541 
L 148.41615 620.272258 
L 151.537925 627.168815 
L 154.6597 627.947197 
L 157.781475 622.556489 
L 160.90325 627.158688 
L 164.025025 625.550769 
L 167.1468 626.454359 
L 170.268575 630.17958 
L 173.39035 620.993487 
L 176.512125 625.960865 
L 179.6339 639.189847 
L 182.755675 633.480843 
L 185.87745 633.909147 
L 188.999225 627.848968 
L 192.121 633.084523 
L 195.242775 632.430867 
L 198.36455 630.063787 
L 201.486325 628.823578 
L 204.6081 637.503097 
L 207.729875 636.40243 
L 210.85165 635.74338 
L 213.973425 635.632023 
L 217.0952 626.110817 
L 220.216975 630.052435 
L 223.33875 639.010032 
L 229.5823 626.335848 
L 232.704075 630.303331 
L 235.82585 642.390255 
L 238.947625 640.41551 
L 242.0694 631.001654 
L 245.191175 635.4708 
L 248.31295 632.076112 
L 251.434725 629.710718 
L 254.5565 635.92131 
L 257.678275 633.771704 
L 260.80005 644.077832 
L 263.921825 635.667968 
L 267.0436 627.999754 
L 270.165375 629.384041 
L 273.28715 619.148783 
L 276.408925 629.622695 
L 279.5307 629.410206 
L 282.652475 626.584584 
L 285.77425 620.669016 
L 288.896025 630.781172 
L 292.0178 623.208395 
L 295.139575 625.018006 
L 298.26135 628.965877 
L 301.383125 623.178151 
L 304.5049 621.58199 
L 307.626675 623.782819 
L 310.74845 620.986567 
L 313.870225 621.064305 
L 316.992 618.353672 
L 320.113775 614.933708 
L 323.23555 610.588199 
L 326.357325 620.875073 
L 329.4791 610.130683 
L 332.600875 622.193417 
L 335.72265 616.909178 
L 338.844425 610.308389 
L 341.9662 608.797705 
L 345.087975 611.550217 
L 348.20975 609.807895 
L 351.331525 609.156389 
L 354.4533 608.0591 
L 357.575075 601.051621 
L 360.69685 600.798351 
L 363.818625 604.887847 
L 366.9404 599.153045 
L 370.062175 599.242006 
L 373.18395 597.046181 
L 376.305725 596.860273 
L 379.4275 601.874936 
L 382.549275 600.511402 
L 385.67105 592.92032 
L 388.792825 590.321949 
L 391.9146 591.883564 
L 395.036375 591.306709 
L 398.15815 585.929378 
L 401.279925 591.31747 
L 404.4017 587.554572 
L 407.523475 588.170564 
L 410.64525 587.167004 
L 413.767025 580.550301 
L 416.8888 579.424621 
L 420.010575 579.405805 
L 423.13235 577.599728 
L 426.254125 581.962869 
L 429.3759 579.745476 
L 432.497675 581.564752 
L 435.61945 577.977949 
L 438.741225 577.200891 
L 441.863 574.885597 
L 444.984775 571.397907 
L 448.10655 575.374832 
L 451.228325 564.562726 
L 454.3501 573.60154 
L 457.471875 576.333997 
L 460.59365 565.97797 
L 463.715425 563.815356 
L 469.958975 565.045002 
L 473.08075 567.650498 
L 476.202525 570.911438 
L 479.3243 566.297142 
L 482.446075 566.365792 
L 485.56785 559.041075 
L 488.689625 561.339506 
L 491.8114 564.755065 
L 494.933175 562.989967 
L 498.05495 558.814216 
L 501.176725 561.257125 
L 504.2985 562.658353 
L 507.420275 558.196453 
L 510.54205 556.761844 
L 513.663825 559.634326 
L 516.7856 560.245319 
L 519.907375 557.268635 
L 523.02915 562.681098 
L 526.150925 563.152692 
L 529.2727 559.171754 
L 532.394475 555.402068 
L 535.51625 552.794114 
L 538.638025 549.049167 
L 541.7598 552.684352 
L 544.881575 559.513388 
L 548.00335 561.180051 
L 551.125125 564.62973 
L 554.2469 560.429743 
L 557.368675 559.379636 
L 560.49045 556.645834 
L 563.612225 560.777391 
L 566.734 557.043477 
L 569.855775 552.847903 
L 572.97755 559.789959 
L 576.099325 560.934004 
L 579.2211 560.51838 
L 582.342875 564.946577 
L 585.46465 563.624036 
L 588.586425 563.837872 
L 591.7082 563.656005 
L 594.829975 567.145899 
L 601.073525 562.710931 
L 604.1953 559.587635 
L 607.317075 562.713773 
L 610.43885 561.209674 
L 613.560625 574.006081 
L 616.6824 571.552494 
L 619.804175 573.041972 
L 622.92595 565.802338 
L 626.047725 576.422326 
L 629.1695 579.771393 
L 632.291275 578.636457 
L 635.41305 583.040567 
L 638.534825 576.865784 
L 641.6566 575.734901 
L 644.778375 572.924104 
L 647.90015 573.348525 
L 651.021925 570.196881 
L 654.1437 576.168631 
L 657.265475 586.340107 
L 660.38725 590.832592 
L 663.509025 585.775631 
L 666.6308 590.950957 
L 669.752575 580.266456 
L 672.87435 581.402963 
L 675.996125 590.731333 
L 679.1179 599.147873 
L 682.239675 588.940894 
L 685.36145 592.0969 
L 688.483225 589.189186 
L 688.483225 589.189186 
" clip-path="url(#p9d623a8355)" style="fill: none; stroke: #1f77b4; stroke-width: 1.5; stroke-linecap: square"/>
   </g>
   <g id="line2d_69">
    <path d="M 67.25 609.059554 
L 691.605 609.059554 
" clip-path="url(#p9d623a8355)" style="fill: none; stroke-dasharray: 5.55,2.4; stroke-dashoffset: 0; stroke: #ff0000; stroke-width: 1.5"/>
   </g>
   <g id="line2d_70">
    <path d="M 67.25 583.015446 
L 691.605 583.015446 
" clip-path="url(#p9d623a8355)" style="fill: none; stroke-dasharray: 5.55,2.4; stroke-dashoffset: 0; stroke: #ff0000; stroke-width: 1.5"/>
   </g>
   <g id="patch_18">
    <path d="M 67.25 666.52 
L 67.25 525.555 
" style="fill: none; stroke: #000000; stroke-width: 0.8; stroke-linejoin: miter; stroke-linecap: square"/>
   </g>
   <g id="patch_19">
    <path d="M 691.605 666.52 
L 691.605 525.555 
" style="fill: none; stroke: #000000; stroke-width: 0.8; stroke-linejoin: miter; stroke-linecap: square"/>
   </g>
   <g id="patch_20">
    <path d="M 67.25 666.52 
L 691.605 666.52 
" style="fill: none; stroke: #000000; stroke-width: 0.8; stroke-linejoin: miter; stroke-linecap: square"/>
   </g>
   <g id="patch_21">
    <path d="M 67.25 525.555 
L 691.605 525.555 
" style="fill: none; stroke: #000000; stroke-width: 0.8; stroke-linejoin: miter; stroke-linecap: square"/>
   </g>
  </g>
  <g id="text_37">
   <!-- Errors on positions and velocities at 1Hz -->
   <g transform="translate(190.972312 27.165375) scale(0.168 -0.168)">
    <defs>
     <path id="DejaVuSans-72" d="M 2631 2963 
Q 2534 3019 2420 3045 
Q 2306 3072 2169 3072 
Q 1681 3072 1420 2755 
Q 1159 2438 1159 1844 
L 1159 0 
L 581 0 
L 581 3500 
L 1159 3500 
L 1159 2956 
Q 1341 3275 1631 3429 
Q 1922 3584 2338 3584 
Q 2397 3584 2469 3576 
Q 2541 3569 2628 3553 
L 2631 2963 
z
" transform="scale(0.015625)"/>
     <path id="DejaVuSans-6e" d="M 3513 2113 
L 3513 0 
L 2938 0 
L 2938 2094 
Q 2938 2591 2744 2837 
Q 2550 3084 2163 3084 
Q 1697 3084 1428 2787 
Q 1159 2491 1159 1978 
L 1159 0 
L 581 0 
L 581 3500 
L 1159 3500 
L 1159 2956 
Q 1366 3272 1645 3428 
Q 1925 3584 2291 3584 
Q 2894 3584 3203 3211 
Q 3513 2838 3513 2113 
z
" transform="scale(0.015625)"/>
     <path id="DejaVuSans-64" d="M 2906 2969 
L 2906 4863 
L 3481 4863 
L 3481 0 
L 2906 0 
L 2906 525 
Q 2725 213 2448 61 
Q 2172 -91 1784 -91 
Q 1150 -91 751 415 
Q 353 922 353 1747 
Q 353 2572 751 3078 
Q 1150 3584 1784 3584 
Q 2172 3584 2448 3432 
Q 2725 3281 2906 2969 
z
M 947 1747 
Q 947 1113 1208 752 
Q 1469 391 1925 391 
Q 2381 391 2643 752 
Q 2906 1113 2906 1747 
Q 2906 2381 2643 2742 
Q 2381 3103 1925 3103 
Q 1469 3103 1208 2742 
Q 947 2381 947 1747 
z
" transform="scale(0.015625)"/>
     <path id="DejaVuSans-76" d="M 191 3500 
L 800 3500 
L 1894 563 
L 2988 3500 
L 3597 3500 
L 2284 0 
L 1503 0 
L 191 3500 
z
" transform="scale(0.015625)"/>
     <path id="DejaVuSans-63" d="M 3122 3366 
L 3122 2828 
Q 2878 2963 2633 3030 
Q 2388 3097 2138 3097 
Q 1578 3097 1268 2742 
Q 959 2388 959 1747 
Q 959 1106 1268 751 
Q 1578 397 2138 397 
Q 2388 397 2633 464 
Q 2878 531 3122 666 
L 3122 134 
Q 2881 22 2623 -34 
Q 2366 -91 2075 -91 
Q 1284 -91 818 406 
Q 353 903 353 1747 
Q 353 2603 823 3093 
Q 1294 3584 2113 3584 
Q 2378 3584 2631 3529 
Q 2884 3475 3122 3366 
z
" transform="scale(0.015625)"/>
     <path id="DejaVuSans-48" d="M 628 4666 
L 1259 4666 
L 1259 2753 
L 3553 2753 
L 3553 4666 
L 4184 4666 
L 4184 0 
L 3553 0 
L 3553 2222 
L 1259 2222 
L 1259 0 
L 628 0 
L 628 4666 
z
" transform="scale(0.015625)"/>
     <path id="DejaVuSans-7a" d="M 353 3500 
L 3084 3500 
L 3084 2975 
L 922 459 
L 3084 459 
L 3084 0 
L 275 0 
L 275 525 
L 2438 3041 
L 353 3041 
L 353 3500 
z
" transform="scale(0.015625)"/>
    </defs>
    <use xlink:href="#DejaVuSans-45"/>
    <use xlink:href="#DejaVuSans-72" x="63.183594"/>
    <use xlink:href="#DejaVuSans-72" x="102.546875"/>
    <use xlink:href="#DejaVuSans-6f" x="141.410156"/>
    <use xlink:href="#DejaVuSans-72" x="202.591797"/>
    <use xlink:href="#DejaVuSans-73" x="243.705078"/>
    <use xlink:href="#DejaVuSans-20" x="295.804688"/>
    <use xlink:href="#DejaVuSans-6f" x="327.591797"/>
    <use xlink:href="#DejaVuSans-6e" x="388.773438"/>
    <use xlink:href="#DejaVuSans-20" x="452.152344"/>
    <use xlink:href="#DejaVuSans-70" x="483.939453"/>
    <use xlink:href="#DejaVuSans-6f" x="547.416016"/>
    <use xlink:href="#DejaVuSans-73" x="608.597656"/>
    <use xlink:href="#DejaVuSans-69" x="660.697266"/>
    <use xlink:href="#DejaVuSans-74" x="688.480469"/>
    <use xlink:href="#DejaVuSans-69" x="727.689453"/>
    <use xlink:href="#DejaVuSans-6f" x="755.472656"/>
    <use xlink:href="#DejaVuSans-6e" x="816.654297"/>
    <use xlink:href="#DejaVuSans-73" x="880.033203"/>
    <use xlink:href="#DejaVuSans-20" x="932.132812"/>
    <use xlink:href="#DejaVuSans-61" x="963.919922"/>
    <use xlink:href="#DejaVuSans-6e" x="1025.199219"/>
    <use xlink:href="#DejaVuSans-64" x="1088.578125"/>
    <use xlink:href="#DejaVuSans-20" x="1152.054688"/>
    <use xlink:href="#DejaVuSans-76" x="1183.841797"/>
    <use xlink:href="#DejaVuSans-65" x="1243.021484"/>
    <use xlink:href="#DejaVuSans-6c" x="1304.544922"/>
    <use xlink:href="#DejaVuSans-6f" x="1332.328125"/>
    <use xlink:href="#DejaVuSans-63" x="1393.509766"/>
    <use xlink:href="#DejaVuSans-69" x="1448.490234"/>
    <use xlink:href="#DejaVuSans-74" x="1476.273438"/>
    <use xlink:href="#DejaVuSans-69" x="1515.482422"/>
    <use xlink:href="#DejaVuSans-65" x="1543.265625"/>
    <use xlink:href="#DejaVuSans-73" x="1604.789062"/>
    <use xlink:href="#DejaVuSans-20" x="1656.888672"/>
    <use xlink:href="#DejaVuSans-61" x="1688.675781"/>
    <use xlink:href="#DejaVuSans-74" x="1749.955078"/>
    <use xlink:href="#DejaVuSans-20" x="1789.164062"/>
    <use xlink:href="#DejaVuSans-31" x="1820.951172"/>
    <use xlink:href="#DejaVuSans-48" x="1884.574219"/>
    <use xlink:href="#DejaVuSans-7a" x="1959.769531"/>
   </g>
  </g>
 </g>
 <defs>
  <clipPath id="p9cb9eb79e0">
   <rect x="67.25" y="46.8" width="624.355" height="140.965"/>
  </clipPath>
  <clipPath id="p15f1aab6c7">
   <rect x="67.25" y="206.385" width="624.355" height="140.965"/>
  </clipPath>
  <clipPath id="pd2095f96a7">
   <rect x="67.25" y="365.97" width="624.355" height="140.965"/>
  </clipPath>
  <clipPath id="p9d623a8355">
   <rect x="67.25" y="525.555" width="624.355" height="140.965"/>
  </clipPath>
 </defs>
</svg>
