<?xml version="1.0" encoding="utf-8" standalone="no"?>
<!DOCTYPE svg PUBLIC "-//W3C//DTD SVG 1.1//EN"
  "http://www.w3.org/Graphics/SVG/1.1/DTD/svg11.dtd">
<svg xmlns:xlink="http://www.w3.org/1999/xlink" width="720pt" height="720pt" viewBox="0 0 720 720" xmlns="http://www.w3.org/2000/svg" version="1.1">
 <metadata>
  <rdf:RDF xmlns:dc="http://purl.org/dc/elements/1.1/" xmlns:cc="http://creativecommons.org/ns#" xmlns:rdf="http://www.w3.org/1999/02/22-rdf-syntax-ns#">
   <cc:Work>
    <dc:type rdf:resource="http://purl.org/dc/dcmitype/StillImage"/>
    <dc:date>2024-05-24T16:20:48.115493</dc:date>
    <dc:format>image/svg+xml</dc:format>
    <dc:creator>
     <cc:Agent>
      <dc:title>Matplotlib v3.8.3, https://matplotlib.org/</dc:title>
     </cc:Agent>
    </dc:creator>
   </cc:Work>
  </rdf:RDF>
 </metadata>
 <defs>
  <style type="text/css">*{stroke-linejoin: round; stroke-linecap: butt}</style>
 </defs>
 <g id="figure_1">
  <g id="patch_1">
   <path d="M 0 720 
L 720 720 
L 720 0 
L 0 0 
z
" style="fill: #ffffff"/>
  </g>
  <g id="axes_1">
   <g id="patch_2">
    <path d="M 67.25 187.765 
L 691.605 187.765 
L 691.605 46.8 
L 67.25 46.8 
z
" style="fill: #ffffff"/>
   </g>
   <g id="matplotlib.axis_1">
    <g id="xtick_1">
     <g id="line2d_1">
      <defs>
       <path id="m640892f7a8" d="M 0 0 
L 0 3.5 
" style="stroke: #000000; stroke-width: 0.8"/>
      </defs>
      <g>
       <use xlink:href="#m640892f7a8" x="67.25" y="187.765" style="stroke: #000000; stroke-width: 0.8"/>
      </g>
     </g>
    </g>
    <g id="xtick_2">
     <g id="line2d_2">
      <g>
       <use xlink:href="#m640892f7a8" x="145.294375" y="187.765" style="stroke: #000000; stroke-width: 0.8"/>
      </g>
     </g>
    </g>
    <g id="xtick_3">
     <g id="line2d_3">
      <g>
       <use xlink:href="#m640892f7a8" x="223.33875" y="187.765" style="stroke: #000000; stroke-width: 0.8"/>
      </g>
     </g>
    </g>
    <g id="xtick_4">
     <g id="line2d_4">
      <g>
       <use xlink:href="#m640892f7a8" x="301.383125" y="187.765" style="stroke: #000000; stroke-width: 0.8"/>
      </g>
     </g>
    </g>
    <g id="xtick_5">
     <g id="line2d_5">
      <g>
       <use xlink:href="#m640892f7a8" x="379.4275" y="187.765" style="stroke: #000000; stroke-width: 0.8"/>
      </g>
     </g>
    </g>
    <g id="xtick_6">
     <g id="line2d_6">
      <g>
       <use xlink:href="#m640892f7a8" x="457.471875" y="187.765" style="stroke: #000000; stroke-width: 0.8"/>
      </g>
     </g>
    </g>
    <g id="xtick_7">
     <g id="line2d_7">
      <g>
       <use xlink:href="#m640892f7a8" x="535.51625" y="187.765" style="stroke: #000000; stroke-width: 0.8"/>
      </g>
     </g>
    </g>
    <g id="xtick_8">
     <g id="line2d_8">
      <g>
       <use xlink:href="#m640892f7a8" x="613.560625" y="187.765" style="stroke: #000000; stroke-width: 0.8"/>
      </g>
     </g>
    </g>
    <g id="xtick_9">
     <g id="line2d_9">
      <g>
       <use xlink:href="#m640892f7a8" x="691.605" y="187.765" style="stroke: #000000; stroke-width: 0.8"/>
      </g>
     </g>
    </g>
   </g>
   <g id="matplotlib.axis_2">
    <g id="ytick_1">
     <g id="line2d_10">
      <defs>
       <path id="me956911e45" d="M 0 0 
L -3.5 0 
" style="stroke: #000000; stroke-width: 0.8"/>
      </defs>
      <g>
       <use xlink:href="#me956911e45" x="67.25" y="173.440935" style="stroke: #000000; stroke-width: 0.8"/>
      </g>
     </g>
     <g id="text_1">
      <!-- -2.0 -->
      <g transform="translate(32.934688 178.759841) scale(0.14 -0.14)">
       <defs>
        <path id="DejaVuSans-2d" d="M 313 2009 
L 1997 2009 
L 1997 1497 
L 313 1497 
L 313 2009 
z
" transform="scale(0.015625)"/>
        <path id="DejaVuSans-32" d="M 1228 531 
L 3431 531 
L 3431 0 
L 469 0 
L 469 531 
Q 828 903 1448 1529 
Q 2069 2156 2228 2338 
Q 2531 2678 2651 2914 
Q 2772 3150 2772 3378 
Q 2772 3750 2511 3984 
Q 2250 4219 1831 4219 
Q 1534 4219 1204 4116 
Q 875 4013 500 3803 
L 500 4441 
Q 881 4594 1212 4672 
Q 1544 4750 1819 4750 
Q 2544 4750 2975 4387 
Q 3406 4025 3406 3419 
Q 3406 3131 3298 2873 
Q 3191 2616 2906 2266 
Q 2828 2175 2409 1742 
Q 1991 1309 1228 531 
z
" transform="scale(0.015625)"/>
        <path id="DejaVuSans-2e" d="M 684 794 
L 1344 794 
L 1344 0 
L 684 0 
L 684 794 
z
" transform="scale(0.015625)"/>
        <path id="DejaVuSans-30" d="M 2034 4250 
Q 1547 4250 1301 3770 
Q 1056 3291 1056 2328 
Q 1056 1369 1301 889 
Q 1547 409 2034 409 
Q 2525 409 2770 889 
Q 3016 1369 3016 2328 
Q 3016 3291 2770 3770 
Q 2525 4250 2034 4250 
z
M 2034 4750 
Q 2819 4750 3233 4129 
Q 3647 3509 3647 2328 
Q 3647 1150 3233 529 
Q 2819 -91 2034 -91 
Q 1250 -91 836 529 
Q 422 1150 422 2328 
Q 422 3509 836 4129 
Q 1250 4750 2034 4750 
z
" transform="scale(0.015625)"/>
       </defs>
       <use xlink:href="#DejaVuSans-2d"/>
       <use xlink:href="#DejaVuSans-32" x="36.083984"/>
       <use xlink:href="#DejaVuSans-2e" x="99.707031"/>
       <use xlink:href="#DejaVuSans-30" x="131.494141"/>
      </g>
     </g>
    </g>
    <g id="ytick_2">
     <g id="line2d_11">
      <g>
       <use xlink:href="#me956911e45" x="67.25" y="145.361717" style="stroke: #000000; stroke-width: 0.8"/>
      </g>
     </g>
     <g id="text_2">
      <!-- -1.0 -->
      <g transform="translate(32.934688 150.680624) scale(0.14 -0.14)">
       <defs>
        <path id="DejaVuSans-31" d="M 794 531 
L 1825 531 
L 1825 4091 
L 703 3866 
L 703 4441 
L 1819 4666 
L 2450 4666 
L 2450 531 
L 3481 531 
L 3481 0 
L 794 0 
L 794 531 
z
" transform="scale(0.015625)"/>
       </defs>
       <use xlink:href="#DejaVuSans-2d"/>
       <use xlink:href="#DejaVuSans-31" x="36.083984"/>
       <use xlink:href="#DejaVuSans-2e" x="99.707031"/>
       <use xlink:href="#DejaVuSans-30" x="131.494141"/>
      </g>
     </g>
    </g>
    <g id="ytick_3">
     <g id="line2d_12">
      <g>
       <use xlink:href="#me956911e45" x="67.25" y="117.2825" style="stroke: #000000; stroke-width: 0.8"/>
      </g>
     </g>
     <g id="text_3">
      <!-- 0.0 -->
      <g transform="translate(37.985625 122.601406) scale(0.14 -0.14)">
       <use xlink:href="#DejaVuSans-30"/>
       <use xlink:href="#DejaVuSans-2e" x="63.623047"/>
       <use xlink:href="#DejaVuSans-30" x="95.410156"/>
      </g>
     </g>
    </g>
    <g id="ytick_4">
     <g id="line2d_13">
      <g>
       <use xlink:href="#me956911e45" x="67.25" y="89.203283" style="stroke: #000000; stroke-width: 0.8"/>
      </g>
     </g>
     <g id="text_4">
      <!-- 1.0 -->
      <g transform="translate(37.985625 94.522189) scale(0.14 -0.14)">
       <use xlink:href="#DejaVuSans-31"/>
       <use xlink:href="#DejaVuSans-2e" x="63.623047"/>
       <use xlink:href="#DejaVuSans-30" x="95.410156"/>
      </g>
     </g>
    </g>
    <g id="ytick_5">
     <g id="line2d_14">
      <g>
       <use xlink:href="#me956911e45" x="67.25" y="61.124065" style="stroke: #000000; stroke-width: 0.8"/>
      </g>
     </g>
     <g id="text_5">
      <!-- 2.0 -->
      <g transform="translate(37.985625 66.442971) scale(0.14 -0.14)">
       <use xlink:href="#DejaVuSans-32"/>
       <use xlink:href="#DejaVuSans-2e" x="63.623047"/>
       <use xlink:href="#DejaVuSans-30" x="95.410156"/>
      </g>
     </g>
    </g>
    <g id="text_6">
     <!-- Pos N [m] -->
     <g transform="translate(26.023125 151.146094) rotate(-90) scale(0.14 -0.14)">
      <defs>
       <path id="DejaVuSans-50" d="M 1259 4147 
L 1259 2394 
L 2053 2394 
Q 2494 2394 2734 2622 
Q 2975 2850 2975 3272 
Q 2975 3691 2734 3919 
Q 2494 4147 2053 4147 
L 1259 4147 
z
M 628 4666 
L 2053 4666 
Q 2838 4666 3239 4311 
Q 3641 3956 3641 3272 
Q 3641 2581 3239 2228 
Q 2838 1875 2053 1875 
L 1259 1875 
L 1259 0 
L 628 0 
L 628 4666 
z
" transform="scale(0.015625)"/>
       <path id="DejaVuSans-6f" d="M 1959 3097 
Q 1497 3097 1228 2736 
Q 959 2375 959 1747 
Q 959 1119 1226 758 
Q 1494 397 1959 397 
Q 2419 397 2687 759 
Q 2956 1122 2956 1747 
Q 2956 2369 2687 2733 
Q 2419 3097 1959 3097 
z
M 1959 3584 
Q 2709 3584 3137 3096 
Q 3566 2609 3566 1747 
Q 3566 888 3137 398 
Q 2709 -91 1959 -91 
Q 1206 -91 779 398 
Q 353 888 353 1747 
Q 353 2609 779 3096 
Q 1206 3584 1959 3584 
z
" transform="scale(0.015625)"/>
       <path id="DejaVuSans-73" d="M 2834 3397 
L 2834 2853 
Q 2591 2978 2328 3040 
Q 2066 3103 1784 3103 
Q 1356 3103 1142 2972 
Q 928 2841 928 2578 
Q 928 2378 1081 2264 
Q 1234 2150 1697 2047 
L 1894 2003 
Q 2506 1872 2764 1633 
Q 3022 1394 3022 966 
Q 3022 478 2636 193 
Q 2250 -91 1575 -91 
Q 1294 -91 989 -36 
Q 684 19 347 128 
L 347 722 
Q 666 556 975 473 
Q 1284 391 1588 391 
Q 1994 391 2212 530 
Q 2431 669 2431 922 
Q 2431 1156 2273 1281 
Q 2116 1406 1581 1522 
L 1381 1569 
Q 847 1681 609 1914 
Q 372 2147 372 2553 
Q 372 3047 722 3315 
Q 1072 3584 1716 3584 
Q 2034 3584 2315 3537 
Q 2597 3491 2834 3397 
z
" transform="scale(0.015625)"/>
       <path id="DejaVuSans-20" transform="scale(0.015625)"/>
       <path id="DejaVuSans-4e" d="M 628 4666 
L 1478 4666 
L 3547 763 
L 3547 4666 
L 4159 4666 
L 4159 0 
L 3309 0 
L 1241 3903 
L 1241 0 
L 628 0 
L 628 4666 
z
" transform="scale(0.015625)"/>
       <path id="DejaVuSans-5b" d="M 550 4863 
L 1875 4863 
L 1875 4416 
L 1125 4416 
L 1125 -397 
L 1875 -397 
L 1875 -844 
L 550 -844 
L 550 4863 
z
" transform="scale(0.015625)"/>
       <path id="DejaVuSans-6d" d="M 3328 2828 
Q 3544 3216 3844 3400 
Q 4144 3584 4550 3584 
Q 5097 3584 5394 3201 
Q 5691 2819 5691 2113 
L 5691 0 
L 5113 0 
L 5113 2094 
Q 5113 2597 4934 2840 
Q 4756 3084 4391 3084 
Q 3944 3084 3684 2787 
Q 3425 2491 3425 1978 
L 3425 0 
L 2847 0 
L 2847 2094 
Q 2847 2600 2669 2842 
Q 2491 3084 2119 3084 
Q 1678 3084 1418 2786 
Q 1159 2488 1159 1978 
L 1159 0 
L 581 0 
L 581 3500 
L 1159 3500 
L 1159 2956 
Q 1356 3278 1631 3431 
Q 1906 3584 2284 3584 
Q 2666 3584 2933 3390 
Q 3200 3197 3328 2828 
z
" transform="scale(0.015625)"/>
       <path id="DejaVuSans-5d" d="M 1947 4863 
L 1947 -844 
L 622 -844 
L 622 -397 
L 1369 -397 
L 1369 4416 
L 622 4416 
L 622 4863 
L 1947 4863 
z
" transform="scale(0.015625)"/>
      </defs>
      <use xlink:href="#DejaVuSans-50"/>
      <use xlink:href="#DejaVuSans-6f" x="56.677734"/>
      <use xlink:href="#DejaVuSans-73" x="117.859375"/>
      <use xlink:href="#DejaVuSans-20" x="169.958984"/>
      <use xlink:href="#DejaVuSans-4e" x="201.746094"/>
      <use xlink:href="#DejaVuSans-20" x="276.550781"/>
      <use xlink:href="#DejaVuSans-5b" x="308.337891"/>
      <use xlink:href="#DejaVuSans-6d" x="347.351562"/>
      <use xlink:href="#DejaVuSans-5d" x="444.763672"/>
     </g>
    </g>
   </g>
   <g id="line2d_15">
    <path d="M 67.25 117.2825 
L 70.371775 98.0279 
L 73.49355 113.488908 
L 76.615325 122.817722 
L 79.7371 125.99154 
L 82.858875 130.56108 
L 85.98065 122.78619 
L 89.102425 104.44067 
L 92.2242 105.804773 
L 95.345975 113.402642 
L 98.46775 118.821685 
L 101.589525 132.680232 
L 104.7113 118.463089 
L 107.833075 117.225474 
L 110.95485 117.90372 
L 114.076625 89.161024 
L 117.1984 98.346192 
L 120.320175 115.391573 
L 123.44195 122.672392 
L 126.563725 111.70632 
L 129.6855 113.22478 
L 132.807275 127.957252 
L 135.92905 115.685074 
L 139.050825 121.281529 
L 142.1726 102.669586 
L 145.294375 98.804679 
L 148.41615 111.521262 
L 151.537925 104.728558 
L 154.6597 110.899216 
L 157.781475 107.837068 
L 160.90325 108.913732 
L 164.025025 121.217894 
L 167.1468 126.315606 
L 170.268575 113.399605 
L 173.39035 116.973586 
L 176.512125 120.233018 
L 179.6339 126.882707 
L 182.755675 118.280888 
L 185.87745 98.341496 
L 188.999225 114.840172 
L 192.121 116.635826 
L 195.242775 105.0326 
L 198.36455 111.107707 
L 201.486325 110.738699 
L 204.6081 123.637297 
L 207.729875 117.855156 
L 210.85165 118.768876 
L 213.973425 108.95737 
L 217.0952 101.537112 
L 220.216975 85.938897 
L 226.460525 105.584172 
L 229.5823 112.349451 
L 232.704075 120.103735 
L 235.82585 117.385036 
L 238.947625 120.146967 
L 242.0694 117.272705 
L 245.191175 105.167513 
L 248.31295 118.686649 
L 251.434725 108.69213 
L 254.5565 100.842605 
L 257.678275 109.538226 
L 260.80005 132.968198 
L 263.921825 132.674791 
L 267.0436 113.577128 
L 270.165375 113.207763 
L 273.28715 122.714937 
L 276.408925 124.394173 
L 279.5307 113.041131 
L 282.652475 108.77967 
L 285.77425 114.071641 
L 288.896025 118.990797 
L 292.0178 121.916024 
L 295.139575 127.721411 
L 298.26135 108.316362 
L 301.383125 113.517476 
L 304.5049 104.390797 
L 307.626675 96.819311 
L 310.74845 98.081095 
L 313.870225 112.475162 
L 316.992 113.787913 
L 320.113775 117.201637 
L 323.23555 126.157064 
L 326.357325 119.840115 
L 329.4791 128.273625 
L 332.600875 112.362192 
L 335.72265 117.062433 
L 338.844425 114.978778 
L 341.9662 113.210601 
L 345.087975 117.212508 
L 348.20975 112.384483 
L 351.331525 118.730433 
L 354.4533 110.894512 
L 357.575075 125.448174 
L 360.69685 121.317417 
L 363.818625 102.089649 
L 366.9404 116.774809 
L 370.062175 123.935749 
L 373.18395 117.082851 
L 376.305725 115.24622 
L 382.549275 110.638645 
L 385.67105 108.452056 
L 388.792825 103.468018 
L 391.9146 107.183181 
L 395.036375 115.641049 
L 398.15815 112.435683 
L 401.279925 99.140981 
L 404.4017 109.316108 
L 407.523475 123.595857 
L 410.64525 113.136925 
L 413.767025 116.494046 
L 416.8888 136.541698 
L 420.010575 121.274595 
L 423.13235 122.816952 
L 426.254125 120.232834 
L 429.3759 115.168866 
L 432.497675 113.836676 
L 435.61945 109.169397 
L 438.741225 116.982978 
L 441.863 113.761705 
L 444.984775 118.319148 
L 448.10655 112.278516 
L 451.228325 109.594796 
L 454.3501 122.011197 
L 457.471875 111.798316 
L 460.59365 119.300731 
L 463.715425 112.272456 
L 466.8372 111.721138 
L 469.958975 98.987801 
L 473.08075 110.091985 
L 476.202525 118.766556 
L 479.3243 120.426679 
L 482.446075 122.872626 
L 485.56785 113.974699 
L 488.689625 129.522234 
L 491.8114 133.9197 
L 494.933175 135.374932 
L 501.176725 100.275403 
L 504.2985 107.692049 
L 507.420275 114.697567 
L 510.54205 117.028403 
L 513.663825 108.399308 
L 516.7856 121.368901 
L 519.907375 119.081204 
L 523.02915 110.459133 
L 526.150925 109.496743 
L 529.2727 112.345699 
L 532.394475 107.291461 
L 535.51625 136.760675 
L 538.638025 124.281939 
L 541.7598 126.398867 
L 544.881575 137.759369 
L 548.00335 123.453824 
L 551.125125 106.678912 
L 554.2469 111.13945 
L 557.368675 106.032545 
L 560.49045 97.944913 
L 563.612225 96.729547 
L 566.734 94.323855 
L 569.855775 101.488101 
L 572.97755 111.914489 
L 576.099325 132.07323 
L 579.2211 130.444061 
L 582.342875 132.304243 
L 585.46465 105.928886 
L 588.586425 110.830946 
L 591.7082 113.032111 
L 594.829975 111.116118 
L 597.95175 114.562433 
L 601.073525 102.294265 
L 604.1953 115.413226 
L 607.317075 116.685848 
L 610.43885 124.894536 
L 613.560625 134.094575 
L 616.6824 132.094578 
L 619.804175 124.587328 
L 622.92595 123.269973 
L 626.047725 125.250212 
L 629.1695 132.933822 
L 632.291275 125.685047 
L 635.41305 133.294203 
L 638.534825 118.090804 
L 641.6566 114.879272 
L 644.778375 127.629217 
L 647.90015 125.635328 
L 651.021925 127.63255 
L 654.1437 119.195238 
L 657.265475 105.220038 
L 660.38725 126.050997 
L 663.509025 121.999785 
L 666.6308 121.003511 
L 669.752575 112.975919 
L 672.87435 112.432893 
L 675.996125 121.278952 
L 679.1179 122.892081 
L 682.239675 127.354555 
L 685.36145 113.047814 
L 688.483225 113.538969 
L 688.483225 113.538969 
" clip-path="url(#pb1640fef63)" style="fill: none; stroke: #1f77b4; stroke-width: 1.5; stroke-linecap: square"/>
   </g>
   <g id="line2d_16">
    <path d="M 67.25 164.270833 
L 691.605 164.270833 
" clip-path="url(#pb1640fef63)" style="fill: none; stroke-dasharray: 5.55,2.4; stroke-dashoffset: 0; stroke: #ff0000; stroke-width: 1.5"/>
   </g>
   <g id="line2d_17">
    <path d="M 67.25 70.294167 
L 691.605 70.294167 
" clip-path="url(#pb1640fef63)" style="fill: none; stroke-dasharray: 5.55,2.4; stroke-dashoffset: 0; stroke: #ff0000; stroke-width: 1.5"/>
   </g>
   <g id="patch_3">
    <path d="M 67.25 187.765 
L 67.25 46.8 
" style="fill: none; stroke: #000000; stroke-width: 0.8; stroke-linejoin: miter; stroke-linecap: square"/>
   </g>
   <g id="patch_4">
    <path d="M 691.605 187.765 
L 691.605 46.8 
" style="fill: none; stroke: #000000; stroke-width: 0.8; stroke-linejoin: miter; stroke-linecap: square"/>
   </g>
   <g id="patch_5">
    <path d="M 67.25 187.765 
L 691.605 187.765 
" style="fill: none; stroke: #000000; stroke-width: 0.8; stroke-linejoin: miter; stroke-linecap: square"/>
   </g>
   <g id="patch_6">
    <path d="M 67.25 46.8 
L 691.605 46.8 
" style="fill: none; stroke: #000000; stroke-width: 0.8; stroke-linejoin: miter; stroke-linecap: square"/>
   </g>
  </g>
  <g id="axes_2">
   <g id="patch_7">
    <path d="M 67.25 347.35 
L 691.605 347.35 
L 691.605 206.385 
L 67.25 206.385 
z
" style="fill: #ffffff"/>
   </g>
   <g id="matplotlib.axis_3">
    <g id="xtick_10">
     <g id="line2d_18">
      <g>
       <use xlink:href="#m640892f7a8" x="67.25" y="347.35" style="stroke: #000000; stroke-width: 0.8"/>
      </g>
     </g>
    </g>
    <g id="xtick_11">
     <g id="line2d_19">
      <g>
       <use xlink:href="#m640892f7a8" x="145.294375" y="347.35" style="stroke: #000000; stroke-width: 0.8"/>
      </g>
     </g>
    </g>
    <g id="xtick_12">
     <g id="line2d_20">
      <g>
       <use xlink:href="#m640892f7a8" x="223.33875" y="347.35" style="stroke: #000000; stroke-width: 0.8"/>
      </g>
     </g>
    </g>
    <g id="xtick_13">
     <g id="line2d_21">
      <g>
       <use xlink:href="#m640892f7a8" x="301.383125" y="347.35" style="stroke: #000000; stroke-width: 0.8"/>
      </g>
     </g>
    </g>
    <g id="xtick_14">
     <g id="line2d_22">
      <g>
       <use xlink:href="#m640892f7a8" x="379.4275" y="347.35" style="stroke: #000000; stroke-width: 0.8"/>
      </g>
     </g>
    </g>
    <g id="xtick_15">
     <g id="line2d_23">
      <g>
       <use xlink:href="#m640892f7a8" x="457.471875" y="347.35" style="stroke: #000000; stroke-width: 0.8"/>
      </g>
     </g>
    </g>
    <g id="xtick_16">
     <g id="line2d_24">
      <g>
       <use xlink:href="#m640892f7a8" x="535.51625" y="347.35" style="stroke: #000000; stroke-width: 0.8"/>
      </g>
     </g>
    </g>
    <g id="xtick_17">
     <g id="line2d_25">
      <g>
       <use xlink:href="#m640892f7a8" x="613.560625" y="347.35" style="stroke: #000000; stroke-width: 0.8"/>
      </g>
     </g>
    </g>
    <g id="xtick_18">
     <g id="line2d_26">
      <g>
       <use xlink:href="#m640892f7a8" x="691.605" y="347.35" style="stroke: #000000; stroke-width: 0.8"/>
      </g>
     </g>
    </g>
   </g>
   <g id="matplotlib.axis_4">
    <g id="ytick_6">
     <g id="line2d_27">
      <g>
       <use xlink:href="#me956911e45" x="67.25" y="333.025935" style="stroke: #000000; stroke-width: 0.8"/>
      </g>
     </g>
     <g id="text_7">
      <!-- -2.0 -->
      <g transform="translate(32.934688 338.344841) scale(0.14 -0.14)">
       <use xlink:href="#DejaVuSans-2d"/>
       <use xlink:href="#DejaVuSans-32" x="36.083984"/>
       <use xlink:href="#DejaVuSans-2e" x="99.707031"/>
       <use xlink:href="#DejaVuSans-30" x="131.494141"/>
      </g>
     </g>
    </g>
    <g id="ytick_7">
     <g id="line2d_28">
      <g>
       <use xlink:href="#me956911e45" x="67.25" y="304.946717" style="stroke: #000000; stroke-width: 0.8"/>
      </g>
     </g>
     <g id="text_8">
      <!-- -1.0 -->
      <g transform="translate(32.934688 310.265624) scale(0.14 -0.14)">
       <use xlink:href="#DejaVuSans-2d"/>
       <use xlink:href="#DejaVuSans-31" x="36.083984"/>
       <use xlink:href="#DejaVuSans-2e" x="99.707031"/>
       <use xlink:href="#DejaVuSans-30" x="131.494141"/>
      </g>
     </g>
    </g>
    <g id="ytick_8">
     <g id="line2d_29">
      <g>
       <use xlink:href="#me956911e45" x="67.25" y="276.8675" style="stroke: #000000; stroke-width: 0.8"/>
      </g>
     </g>
     <g id="text_9">
      <!-- 0.0 -->
      <g transform="translate(37.985625 282.186406) scale(0.14 -0.14)">
       <use xlink:href="#DejaVuSans-30"/>
       <use xlink:href="#DejaVuSans-2e" x="63.623047"/>
       <use xlink:href="#DejaVuSans-30" x="95.410156"/>
      </g>
     </g>
    </g>
    <g id="ytick_9">
     <g id="line2d_30">
      <g>
       <use xlink:href="#me956911e45" x="67.25" y="248.788283" style="stroke: #000000; stroke-width: 0.8"/>
      </g>
     </g>
     <g id="text_10">
      <!-- 1.0 -->
      <g transform="translate(37.985625 254.107189) scale(0.14 -0.14)">
       <use xlink:href="#DejaVuSans-31"/>
       <use xlink:href="#DejaVuSans-2e" x="63.623047"/>
       <use xlink:href="#DejaVuSans-30" x="95.410156"/>
      </g>
     </g>
    </g>
    <g id="ytick_10">
     <g id="line2d_31">
      <g>
       <use xlink:href="#me956911e45" x="67.25" y="220.709065" style="stroke: #000000; stroke-width: 0.8"/>
      </g>
     </g>
     <g id="text_11">
      <!-- 2.0 -->
      <g transform="translate(37.985625 226.027971) scale(0.14 -0.14)">
       <use xlink:href="#DejaVuSans-32"/>
       <use xlink:href="#DejaVuSans-2e" x="63.623047"/>
       <use xlink:href="#DejaVuSans-30" x="95.410156"/>
      </g>
     </g>
    </g>
    <g id="text_12">
     <!-- Pos E [m] -->
     <g transform="translate(26.023125 309.917344) rotate(-90) scale(0.14 -0.14)">
      <defs>
       <path id="DejaVuSans-45" d="M 628 4666 
L 3578 4666 
L 3578 4134 
L 1259 4134 
L 1259 2753 
L 3481 2753 
L 3481 2222 
L 1259 2222 
L 1259 531 
L 3634 531 
L 3634 0 
L 628 0 
L 628 4666 
z
" transform="scale(0.015625)"/>
      </defs>
      <use xlink:href="#DejaVuSans-50"/>
      <use xlink:href="#DejaVuSans-6f" x="56.677734"/>
      <use xlink:href="#DejaVuSans-73" x="117.859375"/>
      <use xlink:href="#DejaVuSans-20" x="169.958984"/>
      <use xlink:href="#DejaVuSans-45" x="201.746094"/>
      <use xlink:href="#DejaVuSans-20" x="264.929688"/>
      <use xlink:href="#DejaVuSans-5b" x="296.716797"/>
      <use xlink:href="#DejaVuSans-6d" x="335.730469"/>
      <use xlink:href="#DejaVuSans-5d" x="433.142578"/>
     </g>
    </g>
   </g>
   <g id="line2d_32">
    <path d="M 67.25 276.8675 
L 70.371775 277.716167 
L 73.49355 282.214711 
L 79.7371 298.505716 
L 82.858875 300.779151 
L 85.98065 284.529153 
L 89.102425 272.557381 
L 92.2242 285.187394 
L 95.345975 272.320675 
L 98.46775 276.786229 
L 101.589525 274.828363 
L 104.7113 261.032773 
L 107.833075 259.742262 
L 110.95485 270.587641 
L 114.076625 282.971218 
L 117.1984 300.39567 
L 120.320175 296.281377 
L 123.44195 287.204542 
L 126.563725 288.072987 
L 129.6855 281.521016 
L 132.807275 276.153911 
L 135.92905 276.443825 
L 139.050825 281.164883 
L 142.1726 277.080983 
L 145.294375 272.167974 
L 148.41615 283.053167 
L 151.537925 267.931336 
L 154.6597 271.898649 
L 157.781475 274.153802 
L 160.90325 269.57389 
L 164.025025 271.027189 
L 167.1468 265.926654 
L 170.268575 268.92978 
L 173.39035 278.988965 
L 176.512125 276.1407 
L 179.6339 286.762585 
L 182.755675 281.613135 
L 185.87745 278.879072 
L 188.999225 278.803919 
L 192.121 278.294033 
L 195.242775 293.454948 
L 198.36455 290.47842 
L 201.486325 281.871174 
L 204.6081 276.042195 
L 207.729875 283.731324 
L 210.85165 268.878988 
L 213.973425 278.860655 
L 217.0952 269.688656 
L 220.216975 268.971839 
L 223.33875 278.653584 
L 226.460525 263.389934 
L 229.5823 280.059428 
L 232.704075 272.075943 
L 235.82585 265.884165 
L 238.947625 277.238903 
L 242.0694 266.319017 
L 245.191175 273.831732 
L 248.31295 274.028355 
L 251.434725 274.043038 
L 254.5565 277.314588 
L 257.678275 270.815261 
L 260.80005 266.964443 
L 263.921825 287.435779 
L 267.0436 272.889537 
L 270.165375 289.028678 
L 273.28715 275.127865 
L 276.408925 265.26625 
L 279.5307 279.75592 
L 282.652475 283.240374 
L 285.77425 290.588945 
L 288.896025 286.288759 
L 292.0178 283.673337 
L 298.26135 261.892064 
L 301.383125 256.235703 
L 304.5049 271.707867 
L 307.626675 278.664147 
L 310.74845 294.717824 
L 313.870225 295.090877 
L 316.992 277.847874 
L 320.113775 261.403844 
L 323.23555 278.093491 
L 326.357325 283.951811 
L 329.4791 281.822763 
L 332.600875 277.162664 
L 335.72265 283.859151 
L 338.844425 277.189399 
L 341.9662 280.82939 
L 345.087975 279.259596 
L 348.20975 273.342042 
L 351.331525 274.800791 
L 354.4533 280.078296 
L 357.575075 280.364872 
L 360.69685 279.941851 
L 363.818625 281.937086 
L 366.9404 282.015897 
L 370.062175 265.612245 
L 373.18395 265.309912 
L 376.305725 274.069089 
L 379.4275 271.100021 
L 382.549275 278.013101 
L 385.67105 268.806487 
L 388.792825 270.029649 
L 391.9146 275.42489 
L 395.036375 273.778166 
L 398.15815 290.069812 
L 401.279925 295.316573 
L 404.4017 297.333432 
L 407.523475 285.532162 
L 410.64525 264.163566 
L 413.767025 248.417913 
L 416.8888 255.753978 
L 420.010575 263.696969 
L 423.13235 288.932271 
L 426.254125 291.7634 
L 429.3759 292.974302 
L 432.497675 290.653841 
L 435.61945 284.491667 
L 438.741225 283.425467 
L 441.863 296.428846 
L 444.984775 280.249504 
L 448.10655 285.991952 
L 451.228325 278.721591 
L 454.3501 258.541536 
L 457.471875 273.951449 
L 460.59365 298.886765 
L 463.715425 293.020369 
L 469.958975 256.844518 
L 473.08075 275.655653 
L 476.202525 273.50167 
L 479.3243 280.133015 
L 482.446075 280.640831 
L 485.56785 256.235624 
L 488.689625 278.3167 
L 491.8114 277.458029 
L 494.933175 274.101458 
L 498.05495 266.371288 
L 501.176725 270.721213 
L 504.2985 272.081451 
L 507.420275 278.930716 
L 510.54205 276.871836 
L 513.663825 280.348177 
L 516.7856 273.699791 
L 519.907375 278.191635 
L 523.02915 274.591333 
L 526.150925 275.888428 
L 529.2727 266.73574 
L 532.394475 271.84003 
L 535.51625 290.581945 
L 538.638025 274.575233 
L 541.7598 282.726326 
L 544.881575 285.691475 
L 548.00335 286.387974 
L 551.125125 269.050644 
L 554.2469 289.605791 
L 557.368675 256.539751 
L 560.49045 254.900491 
L 566.734 272.441858 
L 569.855775 274.289178 
L 572.97755 272.401123 
L 576.099325 269.63294 
L 579.2211 268.70666 
L 582.342875 272.427534 
L 585.46465 277.197415 
L 588.586425 279.219442 
L 591.7082 280.161198 
L 594.829975 268.597291 
L 597.95175 266.45549 
L 601.073525 297.005991 
L 604.1953 283.452727 
L 607.317075 277.34937 
L 610.43885 275.749057 
L 613.560625 278.620261 
L 616.6824 267.440117 
L 619.804175 262.61936 
L 622.92595 275.923163 
L 626.047725 274.057161 
L 629.1695 284.29983 
L 632.291275 293.426538 
L 635.41305 290.941731 
L 638.534825 275.153394 
L 641.6566 264.982747 
L 647.90015 263.599713 
L 651.021925 265.872293 
L 654.1437 277.75497 
L 657.265475 275.113021 
L 660.38725 269.327112 
L 663.509025 266.161334 
L 666.6308 260.952791 
L 669.752575 262.692572 
L 672.87435 267.510338 
L 675.996125 264.151089 
L 679.1179 271.496986 
L 682.239675 283.247292 
L 685.36145 282.986449 
L 688.483225 286.535013 
L 688.483225 286.535013 
" clip-path="url(#p432ab07557)" style="fill: none; stroke: #1f77b4; stroke-width: 1.5; stroke-linecap: square"/>
   </g>
   <g id="line2d_33">
    <path d="M 67.25 323.855833 
L 691.605 323.855833 
" clip-path="url(#p432ab07557)" style="fill: none; stroke-dasharray: 5.55,2.4; stroke-dashoffset: 0; stroke: #ff0000; stroke-width: 1.5"/>
   </g>
   <g id="line2d_34">
    <path d="M 67.25 229.879167 
L 691.605 229.879167 
" clip-path="url(#p432ab07557)" style="fill: none; stroke-dasharray: 5.55,2.4; stroke-dashoffset: 0; stroke: #ff0000; stroke-width: 1.5"/>
   </g>
   <g id="patch_8">
    <path d="M 67.25 347.35 
L 67.25 206.385 
" style="fill: none; stroke: #000000; stroke-width: 0.8; stroke-linejoin: miter; stroke-linecap: square"/>
   </g>
   <g id="patch_9">
    <path d="M 691.605 347.35 
L 691.605 206.385 
" style="fill: none; stroke: #000000; stroke-width: 0.8; stroke-linejoin: miter; stroke-linecap: square"/>
   </g>
   <g id="patch_10">
    <path d="M 67.25 347.35 
L 691.605 347.35 
" style="fill: none; stroke: #000000; stroke-width: 0.8; stroke-linejoin: miter; stroke-linecap: square"/>
   </g>
   <g id="patch_11">
    <path d="M 67.25 206.385 
L 691.605 206.385 
" style="fill: none; stroke: #000000; stroke-width: 0.8; stroke-linejoin: miter; stroke-linecap: square"/>
   </g>
  </g>
  <g id="axes_3">
   <g id="patch_12">
    <path d="M 67.25 506.935 
L 691.605 506.935 
L 691.605 365.97 
L 67.25 365.97 
z
" style="fill: #ffffff"/>
   </g>
   <g id="matplotlib.axis_5">
    <g id="xtick_19">
     <g id="line2d_35">
      <g>
       <use xlink:href="#m640892f7a8" x="67.25" y="506.935" style="stroke: #000000; stroke-width: 0.8"/>
      </g>
     </g>
    </g>
    <g id="xtick_20">
     <g id="line2d_36">
      <g>
       <use xlink:href="#m640892f7a8" x="145.294375" y="506.935" style="stroke: #000000; stroke-width: 0.8"/>
      </g>
     </g>
    </g>
    <g id="xtick_21">
     <g id="line2d_37">
      <g>
       <use xlink:href="#m640892f7a8" x="223.33875" y="506.935" style="stroke: #000000; stroke-width: 0.8"/>
      </g>
     </g>
    </g>
    <g id="xtick_22">
     <g id="line2d_38">
      <g>
       <use xlink:href="#m640892f7a8" x="301.383125" y="506.935" style="stroke: #000000; stroke-width: 0.8"/>
      </g>
     </g>
    </g>
    <g id="xtick_23">
     <g id="line2d_39">
      <g>
       <use xlink:href="#m640892f7a8" x="379.4275" y="506.935" style="stroke: #000000; stroke-width: 0.8"/>
      </g>
     </g>
    </g>
    <g id="xtick_24">
     <g id="line2d_40">
      <g>
       <use xlink:href="#m640892f7a8" x="457.471875" y="506.935" style="stroke: #000000; stroke-width: 0.8"/>
      </g>
     </g>
    </g>
    <g id="xtick_25">
     <g id="line2d_41">
      <g>
       <use xlink:href="#m640892f7a8" x="535.51625" y="506.935" style="stroke: #000000; stroke-width: 0.8"/>
      </g>
     </g>
    </g>
    <g id="xtick_26">
     <g id="line2d_42">
      <g>
       <use xlink:href="#m640892f7a8" x="613.560625" y="506.935" style="stroke: #000000; stroke-width: 0.8"/>
      </g>
     </g>
    </g>
    <g id="xtick_27">
     <g id="line2d_43">
      <g>
       <use xlink:href="#m640892f7a8" x="691.605" y="506.935" style="stroke: #000000; stroke-width: 0.8"/>
      </g>
     </g>
    </g>
   </g>
   <g id="matplotlib.axis_6">
    <g id="ytick_11">
     <g id="line2d_44">
      <g>
       <use xlink:href="#me956911e45" x="67.25" y="502.170082" style="stroke: #000000; stroke-width: 0.8"/>
      </g>
     </g>
     <g id="text_13">
      <!-- -0.8 -->
      <g transform="translate(32.934688 507.488988) scale(0.14 -0.14)">
       <defs>
        <path id="DejaVuSans-38" d="M 2034 2216 
Q 1584 2216 1326 1975 
Q 1069 1734 1069 1313 
Q 1069 891 1326 650 
Q 1584 409 2034 409 
Q 2484 409 2743 651 
Q 3003 894 3003 1313 
Q 3003 1734 2745 1975 
Q 2488 2216 2034 2216 
z
M 1403 2484 
Q 997 2584 770 2862 
Q 544 3141 544 3541 
Q 544 4100 942 4425 
Q 1341 4750 2034 4750 
Q 2731 4750 3128 4425 
Q 3525 4100 3525 3541 
Q 3525 3141 3298 2862 
Q 3072 2584 2669 2484 
Q 3125 2378 3379 2068 
Q 3634 1759 3634 1313 
Q 3634 634 3220 271 
Q 2806 -91 2034 -91 
Q 1263 -91 848 271 
Q 434 634 434 1313 
Q 434 1759 690 2068 
Q 947 2378 1403 2484 
z
M 1172 3481 
Q 1172 3119 1398 2916 
Q 1625 2713 2034 2713 
Q 2441 2713 2670 2916 
Q 2900 3119 2900 3481 
Q 2900 3844 2670 4047 
Q 2441 4250 2034 4250 
Q 1625 4250 1398 4047 
Q 1172 3844 1172 3481 
z
" transform="scale(0.015625)"/>
       </defs>
       <use xlink:href="#DejaVuSans-2d"/>
       <use xlink:href="#DejaVuSans-30" x="36.083984"/>
       <use xlink:href="#DejaVuSans-2e" x="99.707031"/>
       <use xlink:href="#DejaVuSans-38" x="131.494141"/>
      </g>
     </g>
    </g>
    <g id="ytick_12">
     <g id="line2d_45">
      <g>
       <use xlink:href="#me956911e45" x="67.25" y="480.264221" style="stroke: #000000; stroke-width: 0.8"/>
      </g>
     </g>
     <g id="text_14">
      <!-- -0.5 -->
      <g transform="translate(32.934688 485.583127) scale(0.14 -0.14)">
       <defs>
        <path id="DejaVuSans-35" d="M 691 4666 
L 3169 4666 
L 3169 4134 
L 1269 4134 
L 1269 2991 
Q 1406 3038 1543 3061 
Q 1681 3084 1819 3084 
Q 2600 3084 3056 2656 
Q 3513 2228 3513 1497 
Q 3513 744 3044 326 
Q 2575 -91 1722 -91 
Q 1428 -91 1123 -41 
Q 819 9 494 109 
L 494 744 
Q 775 591 1075 516 
Q 1375 441 1709 441 
Q 2250 441 2565 725 
Q 2881 1009 2881 1497 
Q 2881 1984 2565 2268 
Q 2250 2553 1709 2553 
Q 1456 2553 1204 2497 
Q 953 2441 691 2322 
L 691 4666 
z
" transform="scale(0.015625)"/>
       </defs>
       <use xlink:href="#DejaVuSans-2d"/>
       <use xlink:href="#DejaVuSans-30" x="36.083984"/>
       <use xlink:href="#DejaVuSans-2e" x="99.707031"/>
       <use xlink:href="#DejaVuSans-35" x="131.494141"/>
      </g>
     </g>
    </g>
    <g id="ytick_13">
     <g id="line2d_46">
      <g>
       <use xlink:href="#me956911e45" x="67.25" y="458.358361" style="stroke: #000000; stroke-width: 0.8"/>
      </g>
     </g>
     <g id="text_15">
      <!-- -0.2 -->
      <g transform="translate(32.934688 463.677267) scale(0.14 -0.14)">
       <use xlink:href="#DejaVuSans-2d"/>
       <use xlink:href="#DejaVuSans-30" x="36.083984"/>
       <use xlink:href="#DejaVuSans-2e" x="99.707031"/>
       <use xlink:href="#DejaVuSans-32" x="131.494141"/>
      </g>
     </g>
    </g>
    <g id="ytick_14">
     <g id="line2d_47">
      <g>
       <use xlink:href="#me956911e45" x="67.25" y="436.4525" style="stroke: #000000; stroke-width: 0.8"/>
      </g>
     </g>
     <g id="text_16">
      <!-- 0.0 -->
      <g transform="translate(37.985625 441.771406) scale(0.14 -0.14)">
       <use xlink:href="#DejaVuSans-30"/>
       <use xlink:href="#DejaVuSans-2e" x="63.623047"/>
       <use xlink:href="#DejaVuSans-30" x="95.410156"/>
      </g>
     </g>
    </g>
    <g id="ytick_15">
     <g id="line2d_48">
      <g>
       <use xlink:href="#me956911e45" x="67.25" y="414.546639" style="stroke: #000000; stroke-width: 0.8"/>
      </g>
     </g>
     <g id="text_17">
      <!-- 0.2 -->
      <g transform="translate(37.985625 419.865546) scale(0.14 -0.14)">
       <use xlink:href="#DejaVuSans-30"/>
       <use xlink:href="#DejaVuSans-2e" x="63.623047"/>
       <use xlink:href="#DejaVuSans-32" x="95.410156"/>
      </g>
     </g>
    </g>
    <g id="ytick_16">
     <g id="line2d_49">
      <g>
       <use xlink:href="#me956911e45" x="67.25" y="392.640779" style="stroke: #000000; stroke-width: 0.8"/>
      </g>
     </g>
     <g id="text_18">
      <!-- 0.5 -->
      <g transform="translate(37.985625 397.959685) scale(0.14 -0.14)">
       <use xlink:href="#DejaVuSans-30"/>
       <use xlink:href="#DejaVuSans-2e" x="63.623047"/>
       <use xlink:href="#DejaVuSans-35" x="95.410156"/>
      </g>
     </g>
    </g>
    <g id="ytick_17">
     <g id="line2d_50">
      <g>
       <use xlink:href="#me956911e45" x="67.25" y="370.734918" style="stroke: #000000; stroke-width: 0.8"/>
      </g>
     </g>
     <g id="text_19">
      <!-- 0.8 -->
      <g transform="translate(37.985625 376.053825) scale(0.14 -0.14)">
       <use xlink:href="#DejaVuSans-30"/>
       <use xlink:href="#DejaVuSans-2e" x="63.623047"/>
       <use xlink:href="#DejaVuSans-38" x="95.410156"/>
      </g>
     </g>
    </g>
    <g id="text_20">
     <!-- Vel N [m/s] -->
     <g transform="translate(26.023125 474.921875) rotate(-90) scale(0.14 -0.14)">
      <defs>
       <path id="DejaVuSans-56" d="M 1831 0 
L 50 4666 
L 709 4666 
L 2188 738 
L 3669 4666 
L 4325 4666 
L 2547 0 
L 1831 0 
z
" transform="scale(0.015625)"/>
       <path id="DejaVuSans-65" d="M 3597 1894 
L 3597 1613 
L 953 1613 
Q 991 1019 1311 708 
Q 1631 397 2203 397 
Q 2534 397 2845 478 
Q 3156 559 3463 722 
L 3463 178 
Q 3153 47 2828 -22 
Q 2503 -91 2169 -91 
Q 1331 -91 842 396 
Q 353 884 353 1716 
Q 353 2575 817 3079 
Q 1281 3584 2069 3584 
Q 2775 3584 3186 3129 
Q 3597 2675 3597 1894 
z
M 3022 2063 
Q 3016 2534 2758 2815 
Q 2500 3097 2075 3097 
Q 1594 3097 1305 2825 
Q 1016 2553 972 2059 
L 3022 2063 
z
" transform="scale(0.015625)"/>
       <path id="DejaVuSans-6c" d="M 603 4863 
L 1178 4863 
L 1178 0 
L 603 0 
L 603 4863 
z
" transform="scale(0.015625)"/>
       <path id="DejaVuSans-2f" d="M 1625 4666 
L 2156 4666 
L 531 -594 
L 0 -594 
L 1625 4666 
z
" transform="scale(0.015625)"/>
      </defs>
      <use xlink:href="#DejaVuSans-56"/>
      <use xlink:href="#DejaVuSans-65" x="60.658203"/>
      <use xlink:href="#DejaVuSans-6c" x="122.181641"/>
      <use xlink:href="#DejaVuSans-20" x="149.964844"/>
      <use xlink:href="#DejaVuSans-4e" x="181.751953"/>
      <use xlink:href="#DejaVuSans-20" x="256.556641"/>
      <use xlink:href="#DejaVuSans-5b" x="288.34375"/>
      <use xlink:href="#DejaVuSans-6d" x="327.357422"/>
      <use xlink:href="#DejaVuSans-2f" x="424.769531"/>
      <use xlink:href="#DejaVuSans-73" x="458.460938"/>
      <use xlink:href="#DejaVuSans-5d" x="510.560547"/>
     </g>
    </g>
   </g>
   <g id="line2d_51">
    <path d="M 67.25 436.4525 
L 70.371775 436.412535 
L 76.615325 455.247075 
L 79.7371 450.311427 
L 82.858875 450.287446 
L 85.98065 431.093731 
L 89.102425 405.234337 
L 92.2242 422.308952 
L 95.345975 440.531742 
L 98.46775 446.377652 
L 101.589525 462.280426 
L 104.7113 427.086975 
L 107.833075 429.174902 
L 110.95485 433.134419 
L 114.076625 389.822116 
L 117.1984 426.185811 
L 120.320175 456.668568 
L 123.44195 457.050011 
L 126.563725 429.121745 
L 129.6855 434.134369 
L 132.807275 456.967664 
L 135.92905 426.94616 
L 139.050825 439.185752 
L 142.1726 408.099416 
L 145.294375 414.997854 
L 148.41615 443.974163 
L 151.537925 428.60579 
L 154.6597 440.730151 
L 157.781475 432.635735 
L 160.90325 434.870346 
L 164.025025 453.249987 
L 167.1468 451.448306 
L 170.268575 422.78808 
L 173.39035 433.609602 
L 176.512125 438.586255 
L 179.6339 446.302641 
L 182.755675 426.723111 
L 185.87745 399.331973 
L 188.999225 441.500258 
L 192.121 440.23232 
L 195.242775 418.955596 
L 198.36455 435.360123 
L 201.486325 433.746423 
L 204.6081 453.333679 
L 207.729875 434.506584 
L 210.85165 435.259151 
L 213.973425 419.130231 
L 217.0952 414.629679 
L 220.216975 399.760994 
L 223.33875 431.412027 
L 226.460525 447.312612 
L 229.5823 450.740828 
L 232.704075 454.003727 
L 235.82585 439.546635 
L 238.947625 440.658702 
L 242.0694 432.557465 
L 245.191175 414.256126 
L 248.31295 444.421626 
L 251.434725 423.541859 
L 254.5565 416.273332 
L 257.678275 438.064722 
L 260.80005 471.801176 
L 263.921825 452.414854 
L 267.0436 413.672507 
L 270.165375 422.875741 
L 273.28715 442.762117 
L 276.408925 440.821241 
L 279.5307 419.8094 
L 282.652475 420.098901 
L 285.77425 434.975374 
L 288.896025 441.972478 
L 292.0178 442.482359 
L 295.139575 447.205508 
L 298.26135 410.839493 
L 301.383125 430.305381 
L 304.5049 418.160858 
L 307.626675 414.435497 
L 310.74845 426.178316 
L 313.870225 452.378105 
L 316.992 445.56922 
L 320.113775 445.392347 
L 323.23555 453.87268 
L 326.357325 434.713229 
L 329.4791 447.743816 
L 332.600875 416.931516 
L 335.72265 433.076283 
L 338.844425 430.867036 
L 341.9662 430.279663 
L 345.087975 438.90859 
L 348.20975 429.743066 
L 351.331525 442.340498 
L 354.4533 426.95193 
L 357.575075 453.654554 
L 360.69685 438.487922 
L 363.818625 407.619086 
L 366.9404 444.208186 
L 370.062175 451.227071 
L 373.18395 433.271186 
L 379.4275 430.533529 
L 382.549275 429.999221 
L 385.67105 429.896216 
L 388.792825 425.590332 
L 391.9146 436.84508 
L 395.036375 449.898799 
L 398.15815 438.618578 
L 401.279925 417.425514 
L 404.4017 442.848556 
L 407.523475 462.100857 
L 410.64525 433.840589 
L 413.767025 440.824793 
L 416.8888 470.096607 
L 420.010575 430.638959 
L 423.13235 436.551954 
L 426.254125 433.245571 
L 429.3759 427.79916 
L 432.497675 430.825749 
L 435.61945 427.271818 
L 438.741225 444.719187 
L 441.863 436.624736 
L 444.984775 444.533084 
L 448.10655 432.27368 
L 451.228325 431.264596 
L 454.3501 454.027614 
L 457.471875 430.780957 
L 460.59365 446.294151 
L 463.715425 431.83257 
L 466.8372 434.50279 
L 469.958975 417.143049 
L 473.08075 445.056324 
L 476.202525 455.496418 
L 479.3243 450.023142 
L 482.446075 448.4854 
L 485.56785 430.275878 
L 488.689625 458.687197 
L 491.8114 455.953785 
L 494.933175 450.062439 
L 498.05495 417.476198 
L 501.176725 401.727949 
L 504.2985 431.805941 
L 507.420275 446.43508 
L 510.54205 446.671114 
L 513.663825 429.938173 
L 516.7856 454.703813 
L 519.907375 443.78859 
L 523.02915 428.516374 
L 526.150925 432.568232 
L 529.2727 440.49171 
L 532.394475 432.349625 
L 535.51625 481.349001 
L 538.638025 441.636096 
L 541.7598 443.964479 
L 544.881575 459.36548 
L 548.00335 427.671992 
L 551.125125 407.800686 
L 554.2469 430.397417 
L 557.368675 427.119212 
L 560.49045 420.859528 
L 563.612225 428.24888 
L 566.734 430.148379 
L 569.855775 445.821604 
L 572.97755 458.768504 
L 576.099325 480.288381 
L 579.2211 457.648663 
L 582.342875 451.520521 
L 585.46465 404.941894 
L 588.586425 429.437126 
L 591.7082 437.671087 
L 594.829975 435.481745 
L 597.95175 442.594726 
L 601.073525 421.988471 
L 604.1953 450.577961 
L 607.317075 446.807598 
L 610.43885 455.535825 
L 613.560625 461.450431 
L 616.6824 447.177506 
L 619.804175 431.430821 
L 622.92595 432.935694 
L 626.047725 438.733367 
L 629.1695 450.408019 
L 632.291275 433.306199 
L 635.41305 447.458683 
L 638.534825 419.484968 
L 641.6566 423.714622 
L 644.778375 450.375323 
L 647.90015 441.155653 
L 651.021925 442.577562 
L 654.1437 427.194568 
L 657.265475 410.82782 
L 660.38725 456.043579 
L 663.509025 440.625163 
L 666.6308 437.461611 
L 669.752575 424.988627 
L 672.87435 430.133617 
L 675.996125 447.139245 
L 679.1179 444.578486 
L 682.239675 447.614293 
L 685.36145 420.219933 
L 688.483225 429.054206 
L 688.483225 429.054206 
" clip-path="url(#pc58dadd3b9)" style="fill: none; stroke: #1f77b4; stroke-width: 1.5; stroke-linecap: square"/>
   </g>
   <g id="line2d_52">
    <path d="M 67.25 483.440833 
L 691.605 483.440833 
" clip-path="url(#pc58dadd3b9)" style="fill: none; stroke-dasharray: 5.55,2.4; stroke-dashoffset: 0; stroke: #ff0000; stroke-width: 1.5"/>
   </g>
   <g id="line2d_53">
    <path d="M 67.25 389.464167 
L 691.605 389.464167 
" clip-path="url(#pc58dadd3b9)" style="fill: none; stroke-dasharray: 5.55,2.4; stroke-dashoffset: 0; stroke: #ff0000; stroke-width: 1.5"/>
   </g>
   <g id="patch_13">
    <path d="M 67.25 506.935 
L 67.25 365.97 
" style="fill: none; stroke: #000000; stroke-width: 0.8; stroke-linejoin: miter; stroke-linecap: square"/>
   </g>
   <g id="patch_14">
    <path d="M 691.605 506.935 
L 691.605 365.97 
" style="fill: none; stroke: #000000; stroke-width: 0.8; stroke-linejoin: miter; stroke-linecap: square"/>
   </g>
   <g id="patch_15">
    <path d="M 67.25 506.935 
L 691.605 506.935 
" style="fill: none; stroke: #000000; stroke-width: 0.8; stroke-linejoin: miter; stroke-linecap: square"/>
   </g>
   <g id="patch_16">
    <path d="M 67.25 365.97 
L 691.605 365.97 
" style="fill: none; stroke: #000000; stroke-width: 0.8; stroke-linejoin: miter; stroke-linecap: square"/>
   </g>
  </g>
  <g id="axes_4">
   <g id="patch_17">
    <path d="M 67.25 666.52 
L 691.605 666.52 
L 691.605 525.555 
L 67.25 525.555 
z
" style="fill: #ffffff"/>
   </g>
   <g id="matplotlib.axis_7">
    <g id="xtick_28">
     <g id="line2d_54">
      <g>
       <use xlink:href="#m640892f7a8" x="67.25" y="666.52" style="stroke: #000000; stroke-width: 0.8"/>
      </g>
     </g>
     <g id="text_21">
      <!-- 0 -->
      <g transform="translate(62.79625 684.157812) scale(0.14 -0.14)">
       <use xlink:href="#DejaVuSans-30"/>
      </g>
     </g>
    </g>
    <g id="xtick_29">
     <g id="line2d_55">
      <g>
       <use xlink:href="#m640892f7a8" x="145.294375" y="666.52" style="stroke: #000000; stroke-width: 0.8"/>
      </g>
     </g>
     <g id="text_22">
      <!-- 25 -->
      <g transform="translate(136.386875 684.157812) scale(0.14 -0.14)">
       <use xlink:href="#DejaVuSans-32"/>
       <use xlink:href="#DejaVuSans-35" x="63.623047"/>
      </g>
     </g>
    </g>
    <g id="xtick_30">
     <g id="line2d_56">
      <g>
       <use xlink:href="#m640892f7a8" x="223.33875" y="666.52" style="stroke: #000000; stroke-width: 0.8"/>
      </g>
     </g>
     <g id="text_23">
      <!-- 50 -->
      <g transform="translate(214.43125 684.157812) scale(0.14 -0.14)">
       <use xlink:href="#DejaVuSans-35"/>
       <use xlink:href="#DejaVuSans-30" x="63.623047"/>
      </g>
     </g>
    </g>
    <g id="xtick_31">
     <g id="line2d_57">
      <g>
       <use xlink:href="#m640892f7a8" x="301.383125" y="666.52" style="stroke: #000000; stroke-width: 0.8"/>
      </g>
     </g>
     <g id="text_24">
      <!-- 75 -->
      <g transform="translate(292.475625 684.157812) scale(0.14 -0.14)">
       <defs>
        <path id="DejaVuSans-37" d="M 525 4666 
L 3525 4666 
L 3525 4397 
L 1831 0 
L 1172 0 
L 2766 4134 
L 525 4134 
L 525 4666 
z
" transform="scale(0.015625)"/>
       </defs>
       <use xlink:href="#DejaVuSans-37"/>
       <use xlink:href="#DejaVuSans-35" x="63.623047"/>
      </g>
     </g>
    </g>
    <g id="xtick_32">
     <g id="line2d_58">
      <g>
       <use xlink:href="#m640892f7a8" x="379.4275" y="666.52" style="stroke: #000000; stroke-width: 0.8"/>
      </g>
     </g>
     <g id="text_25">
      <!-- 100 -->
      <g transform="translate(366.06625 684.157812) scale(0.14 -0.14)">
       <use xlink:href="#DejaVuSans-31"/>
       <use xlink:href="#DejaVuSans-30" x="63.623047"/>
       <use xlink:href="#DejaVuSans-30" x="127.246094"/>
      </g>
     </g>
    </g>
    <g id="xtick_33">
     <g id="line2d_59">
      <g>
       <use xlink:href="#m640892f7a8" x="457.471875" y="666.52" style="stroke: #000000; stroke-width: 0.8"/>
      </g>
     </g>
     <g id="text_26">
      <!-- 125 -->
      <g transform="translate(444.110625 684.157812) scale(0.14 -0.14)">
       <use xlink:href="#DejaVuSans-31"/>
       <use xlink:href="#DejaVuSans-32" x="63.623047"/>
       <use xlink:href="#DejaVuSans-35" x="127.246094"/>
      </g>
     </g>
    </g>
    <g id="xtick_34">
     <g id="line2d_60">
      <g>
       <use xlink:href="#m640892f7a8" x="535.51625" y="666.52" style="stroke: #000000; stroke-width: 0.8"/>
      </g>
     </g>
     <g id="text_27">
      <!-- 150 -->
      <g transform="translate(522.155 684.157812) scale(0.14 -0.14)">
       <use xlink:href="#DejaVuSans-31"/>
       <use xlink:href="#DejaVuSans-35" x="63.623047"/>
       <use xlink:href="#DejaVuSans-30" x="127.246094"/>
      </g>
     </g>
    </g>
    <g id="xtick_35">
     <g id="line2d_61">
      <g>
       <use xlink:href="#m640892f7a8" x="613.560625" y="666.52" style="stroke: #000000; stroke-width: 0.8"/>
      </g>
     </g>
     <g id="text_28">
      <!-- 175 -->
      <g transform="translate(600.199375 684.157812) scale(0.14 -0.14)">
       <use xlink:href="#DejaVuSans-31"/>
       <use xlink:href="#DejaVuSans-37" x="63.623047"/>
       <use xlink:href="#DejaVuSans-35" x="127.246094"/>
      </g>
     </g>
    </g>
    <g id="xtick_36">
     <g id="line2d_62">
      <g>
       <use xlink:href="#m640892f7a8" x="691.605" y="666.52" style="stroke: #000000; stroke-width: 0.8"/>
      </g>
     </g>
     <g id="text_29">
      <!-- 200 -->
      <g transform="translate(678.24375 684.157812) scale(0.14 -0.14)">
       <use xlink:href="#DejaVuSans-32"/>
       <use xlink:href="#DejaVuSans-30" x="63.623047"/>
       <use xlink:href="#DejaVuSans-30" x="127.246094"/>
      </g>
     </g>
    </g>
    <g id="text_30">
     <!-- Timestamp [s] -->
     <g transform="translate(329.024219 701.707188) scale(0.14 -0.14)">
      <defs>
       <path id="DejaVuSans-54" d="M -19 4666 
L 3928 4666 
L 3928 4134 
L 2272 4134 
L 2272 0 
L 1638 0 
L 1638 4134 
L -19 4134 
L -19 4666 
z
" transform="scale(0.015625)"/>
       <path id="DejaVuSans-69" d="M 603 3500 
L 1178 3500 
L 1178 0 
L 603 0 
L 603 3500 
z
M 603 4863 
L 1178 4863 
L 1178 4134 
L 603 4134 
L 603 4863 
z
" transform="scale(0.015625)"/>
       <path id="DejaVuSans-74" d="M 1172 4494 
L 1172 3500 
L 2356 3500 
L 2356 3053 
L 1172 3053 
L 1172 1153 
Q 1172 725 1289 603 
Q 1406 481 1766 481 
L 2356 481 
L 2356 0 
L 1766 0 
Q 1100 0 847 248 
Q 594 497 594 1153 
L 594 3053 
L 172 3053 
L 172 3500 
L 594 3500 
L 594 4494 
L 1172 4494 
z
" transform="scale(0.015625)"/>
       <path id="DejaVuSans-61" d="M 2194 1759 
Q 1497 1759 1228 1600 
Q 959 1441 959 1056 
Q 959 750 1161 570 
Q 1363 391 1709 391 
Q 2188 391 2477 730 
Q 2766 1069 2766 1631 
L 2766 1759 
L 2194 1759 
z
M 3341 1997 
L 3341 0 
L 2766 0 
L 2766 531 
Q 2569 213 2275 61 
Q 1981 -91 1556 -91 
Q 1019 -91 701 211 
Q 384 513 384 1019 
Q 384 1609 779 1909 
Q 1175 2209 1959 2209 
L 2766 2209 
L 2766 2266 
Q 2766 2663 2505 2880 
Q 2244 3097 1772 3097 
Q 1472 3097 1187 3025 
Q 903 2953 641 2809 
L 641 3341 
Q 956 3463 1253 3523 
Q 1550 3584 1831 3584 
Q 2591 3584 2966 3190 
Q 3341 2797 3341 1997 
z
" transform="scale(0.015625)"/>
       <path id="DejaVuSans-70" d="M 1159 525 
L 1159 -1331 
L 581 -1331 
L 581 3500 
L 1159 3500 
L 1159 2969 
Q 1341 3281 1617 3432 
Q 1894 3584 2278 3584 
Q 2916 3584 3314 3078 
Q 3713 2572 3713 1747 
Q 3713 922 3314 415 
Q 2916 -91 2278 -91 
Q 1894 -91 1617 61 
Q 1341 213 1159 525 
z
M 3116 1747 
Q 3116 2381 2855 2742 
Q 2594 3103 2138 3103 
Q 1681 3103 1420 2742 
Q 1159 2381 1159 1747 
Q 1159 1113 1420 752 
Q 1681 391 2138 391 
Q 2594 391 2855 752 
Q 3116 1113 3116 1747 
z
" transform="scale(0.015625)"/>
      </defs>
      <use xlink:href="#DejaVuSans-54"/>
      <use xlink:href="#DejaVuSans-69" x="57.958984"/>
      <use xlink:href="#DejaVuSans-6d" x="85.742188"/>
      <use xlink:href="#DejaVuSans-65" x="183.154297"/>
      <use xlink:href="#DejaVuSans-73" x="244.677734"/>
      <use xlink:href="#DejaVuSans-74" x="296.777344"/>
      <use xlink:href="#DejaVuSans-61" x="335.986328"/>
      <use xlink:href="#DejaVuSans-6d" x="397.265625"/>
      <use xlink:href="#DejaVuSans-70" x="494.677734"/>
      <use xlink:href="#DejaVuSans-20" x="558.154297"/>
      <use xlink:href="#DejaVuSans-5b" x="589.941406"/>
      <use xlink:href="#DejaVuSans-73" x="628.955078"/>
      <use xlink:href="#DejaVuSans-5d" x="681.054688"/>
     </g>
    </g>
   </g>
   <g id="matplotlib.axis_8">
    <g id="ytick_18">
     <g id="line2d_63">
      <g>
       <use xlink:href="#me956911e45" x="67.25" y="666.256686" style="stroke: #000000; stroke-width: 0.8"/>
      </g>
     </g>
     <g id="text_31">
      <!-- -3.0 -->
      <g transform="translate(32.934688 671.575592) scale(0.14 -0.14)">
       <defs>
        <path id="DejaVuSans-33" d="M 2597 2516 
Q 3050 2419 3304 2112 
Q 3559 1806 3559 1356 
Q 3559 666 3084 287 
Q 2609 -91 1734 -91 
Q 1441 -91 1130 -33 
Q 819 25 488 141 
L 488 750 
Q 750 597 1062 519 
Q 1375 441 1716 441 
Q 2309 441 2620 675 
Q 2931 909 2931 1356 
Q 2931 1769 2642 2001 
Q 2353 2234 1838 2234 
L 1294 2234 
L 1294 2753 
L 1863 2753 
Q 2328 2753 2575 2939 
Q 2822 3125 2822 3475 
Q 2822 3834 2567 4026 
Q 2313 4219 1838 4219 
Q 1578 4219 1281 4162 
Q 984 4106 628 3988 
L 628 4550 
Q 988 4650 1302 4700 
Q 1616 4750 1894 4750 
Q 2613 4750 3031 4423 
Q 3450 4097 3450 3541 
Q 3450 3153 3228 2886 
Q 3006 2619 2597 2516 
z
" transform="scale(0.015625)"/>
       </defs>
       <use xlink:href="#DejaVuSans-2d"/>
       <use xlink:href="#DejaVuSans-33" x="36.083984"/>
       <use xlink:href="#DejaVuSans-2e" x="99.707031"/>
       <use xlink:href="#DejaVuSans-30" x="131.494141"/>
      </g>
     </g>
    </g>
    <g id="ytick_19">
     <g id="line2d_64">
      <g>
       <use xlink:href="#me956911e45" x="67.25" y="642.850291" style="stroke: #000000; stroke-width: 0.8"/>
      </g>
     </g>
     <g id="text_32">
      <!-- -2.0 -->
      <g transform="translate(32.934688 648.169197) scale(0.14 -0.14)">
       <use xlink:href="#DejaVuSans-2d"/>
       <use xlink:href="#DejaVuSans-32" x="36.083984"/>
       <use xlink:href="#DejaVuSans-2e" x="99.707031"/>
       <use xlink:href="#DejaVuSans-30" x="131.494141"/>
      </g>
     </g>
    </g>
    <g id="ytick_20">
     <g id="line2d_65">
      <g>
       <use xlink:href="#me956911e45" x="67.25" y="619.443895" style="stroke: #000000; stroke-width: 0.8"/>
      </g>
     </g>
     <g id="text_33">
      <!-- -1.0 -->
      <g transform="translate(32.934688 624.762802) scale(0.14 -0.14)">
       <use xlink:href="#DejaVuSans-2d"/>
       <use xlink:href="#DejaVuSans-31" x="36.083984"/>
       <use xlink:href="#DejaVuSans-2e" x="99.707031"/>
       <use xlink:href="#DejaVuSans-30" x="131.494141"/>
      </g>
     </g>
    </g>
    <g id="ytick_21">
     <g id="line2d_66">
      <g>
       <use xlink:href="#me956911e45" x="67.25" y="596.0375" style="stroke: #000000; stroke-width: 0.8"/>
      </g>
     </g>
     <g id="text_34">
      <!-- 0.0 -->
      <g transform="translate(37.985625 601.356406) scale(0.14 -0.14)">
       <use xlink:href="#DejaVuSans-30"/>
       <use xlink:href="#DejaVuSans-2e" x="63.623047"/>
       <use xlink:href="#DejaVuSans-30" x="95.410156"/>
      </g>
     </g>
    </g>
    <g id="ytick_22">
     <g id="line2d_67">
      <g>
       <use xlink:href="#me956911e45" x="67.25" y="572.631105" style="stroke: #000000; stroke-width: 0.8"/>
      </g>
     </g>
     <g id="text_35">
      <!-- 1.0 -->
      <g transform="translate(37.985625 577.950011) scale(0.14 -0.14)">
       <use xlink:href="#DejaVuSans-31"/>
       <use xlink:href="#DejaVuSans-2e" x="63.623047"/>
       <use xlink:href="#DejaVuSans-30" x="95.410156"/>
      </g>
     </g>
    </g>
    <g id="ytick_23">
     <g id="line2d_68">
      <g>
       <use xlink:href="#me956911e45" x="67.25" y="549.224709" style="stroke: #000000; stroke-width: 0.8"/>
      </g>
     </g>
     <g id="text_36">
      <!-- 2.0 -->
      <g transform="translate(37.985625 554.543615) scale(0.14 -0.14)">
       <use xlink:href="#DejaVuSans-32"/>
       <use xlink:href="#DejaVuSans-2e" x="63.623047"/>
       <use xlink:href="#DejaVuSans-30" x="95.410156"/>
      </g>
     </g>
    </g>
    <g id="ytick_24">
     <g id="line2d_69">
      <g>
       <use xlink:href="#me956911e45" x="67.25" y="525.818314" style="stroke: #000000; stroke-width: 0.8"/>
      </g>
     </g>
     <g id="text_37">
      <!-- 3.0 -->
      <g transform="translate(37.985625 531.13722) scale(0.14 -0.14)">
       <use xlink:href="#DejaVuSans-33"/>
       <use xlink:href="#DejaVuSans-2e" x="63.623047"/>
       <use xlink:href="#DejaVuSans-30" x="95.410156"/>
      </g>
     </g>
    </g>
    <g id="text_38">
     <!-- Vel E [m/s] -->
     <g transform="translate(26.023125 633.693125) rotate(-90) scale(0.14 -0.14)">
      <use xlink:href="#DejaVuSans-56"/>
      <use xlink:href="#DejaVuSans-65" x="60.658203"/>
      <use xlink:href="#DejaVuSans-6c" x="122.181641"/>
      <use xlink:href="#DejaVuSans-20" x="149.964844"/>
      <use xlink:href="#DejaVuSans-45" x="181.751953"/>
      <use xlink:href="#DejaVuSans-20" x="244.935547"/>
      <use xlink:href="#DejaVuSans-5b" x="276.722656"/>
      <use xlink:href="#DejaVuSans-6d" x="315.736328"/>
      <use xlink:href="#DejaVuSans-2f" x="413.148438"/>
      <use xlink:href="#DejaVuSans-73" x="446.839844"/>
      <use xlink:href="#DejaVuSans-5d" x="498.939453"/>
     </g>
    </g>
   </g>
   <g id="line2d_70">
    <path d="M 67.25 596.0375 
L 70.371775 596.615034 
L 73.49355 598.11229 
L 76.615325 602.17326 
L 79.7371 605.136634 
L 82.858875 604.524158 
L 85.98065 597.152553 
L 89.102425 595.788676 
L 92.2242 605.739099 
L 95.345975 600.872662 
L 98.46775 606.070565 
L 101.589525 606.602185 
L 104.7113 602.53673 
L 107.833075 606.14097 
L 110.95485 613.473605 
L 117.1984 623.368223 
L 120.320175 617.559813 
L 123.44195 613.058992 
L 126.563725 615.339169 
L 129.6855 613.908111 
L 132.807275 614.122481 
L 135.92905 616.998102 
L 139.050825 620.707247 
L 142.1726 619.386198 
L 145.294375 618.781567 
L 148.41615 625.362035 
L 151.537925 618.387178 
L 154.6597 623.064765 
L 157.781475 625.084457 
L 160.90325 623.636882 
L 164.025025 625.706793 
L 167.1468 624.370825 
L 170.268575 627.318301 
L 173.39035 631.990886 
L 176.512125 629.316075 
L 179.6339 633.743582 
L 182.755675 629.735066 
L 185.87745 628.909701 
L 188.999225 629.781232 
L 192.121 630.224351 
L 195.242775 637.053489 
L 198.36455 633.20537 
L 201.486325 629.068683 
L 204.6081 628.224773 
L 207.729875 633.446965 
L 210.85165 626.903849 
L 213.973425 633.853173 
L 217.0952 629.542477 
L 220.216975 630.855104 
L 223.33875 635.799049 
L 226.460525 628.03749 
L 229.5823 637.197964 
L 232.704075 631.658164 
L 235.82585 629.51941 
L 238.947625 635.562931 
L 242.0694 629.367638 
L 245.191175 633.683989 
L 248.31295 632.726998 
L 251.434725 632.012257 
L 254.5565 632.816699 
L 257.678275 629.019115 
L 260.80005 627.977085 
L 263.921825 637.224249 
L 267.0436 627.278661 
L 270.165375 634.595887 
L 273.28715 625.686109 
L 276.408925 622.54387 
L 279.5307 630.659136 
L 282.652475 629.932203 
L 285.77425 630.820674 
L 288.896025 626.136956 
L 292.0178 624.095525 
L 295.139575 619.205583 
L 298.26135 616.500206 
L 301.383125 616.800576 
L 304.5049 625.225418 
L 307.626675 625.570841 
L 310.74845 629.049215 
L 313.870225 623.919243 
L 316.992 613.61942 
L 320.113775 608.258249 
L 323.23555 618.681763 
L 326.357325 619.024845 
L 329.4791 615.418353 
L 332.600875 612.044234 
L 335.72265 614.488471 
L 338.844425 609.712049 
L 341.9662 611.000717 
L 345.087975 608.977874 
L 348.20975 605.624895 
L 351.331525 606.411522 
L 354.4533 607.829256 
L 360.69685 604.133911 
L 363.818625 603.649811 
L 366.9404 602.052041 
L 370.062175 593.900249 
L 373.18395 595.818475 
L 376.305725 599.946318 
L 379.4275 596.648062 
L 382.549275 598.468814 
L 385.67105 592.196867 
L 388.792825 592.737388 
L 391.9146 594.160625 
L 395.036375 591.424112 
L 398.15815 596.850291 
L 401.279925 594.503836 
L 404.4017 591.433981 
L 407.523475 583.649712 
L 410.64525 575.228224 
L 413.767025 572.733426 
L 416.8888 580.425469 
L 420.010575 584.04944 
L 423.13235 592.477201 
L 426.254125 587.030296 
L 435.61945 575.109849 
L 438.741225 574.674573 
L 441.863 579.773945 
L 444.984775 569.910364 
L 448.10655 573.480082 
L 451.228325 569.510452 
L 454.3501 561.773578 
L 457.471875 572.075471 
L 460.59365 580.81975 
L 463.715425 572.21104 
L 466.8372 562.540798 
L 469.958975 557.119719 
L 473.08075 569.28455 
L 476.202525 566.509232 
L 479.3243 568.404903 
L 482.446075 566.555072 
L 485.56785 555.098696 
L 488.689625 568.137614 
L 491.8114 565.070995 
L 494.933175 562.259687 
L 498.05495 558.823262 
L 501.176725 561.850019 
L 504.2985 561.97526 
L 507.420275 564.132039 
L 510.54205 561.417789 
L 513.663825 562.188861 
L 516.7856 558.307005 
L 519.907375 560.825297 
L 523.02915 558.699884 
L 526.150925 559.577821 
L 529.2727 555.687425 
L 532.394475 559.553711 
L 535.51625 567.115039 
L 538.638025 556.677874 
L 541.7598 561.349147 
L 544.881575 561.634641 
L 548.00335 560.91402 
L 551.125125 553.220817 
L 554.2469 564.999688 
L 557.368675 549.049167 
L 560.49045 554.019768 
L 563.612225 560.978295 
L 566.734 564.667292 
L 569.855775 563.885392 
L 572.97755 562.159394 
L 576.099325 561.145092 
L 579.2211 561.626803 
L 582.342875 564.036058 
L 585.46465 565.959199 
L 588.586425 566.090834 
L 591.7082 566.015177 
L 594.829975 561.153028 
L 597.95175 562.892889 
L 601.073525 577.558895 
L 604.1953 567.223701 
L 607.317075 565.420818 
L 610.43885 566.744833 
L 613.560625 569.653808 
L 616.6824 565.764832 
L 619.804175 566.832131 
L 622.92595 575.259528 
L 626.047725 573.743165 
L 629.1695 578.410235 
L 632.291275 580.785955 
L 635.41305 577.695926 
L 638.534825 571.14935 
L 641.6566 570.637324 
L 644.778375 574.782323 
L 647.90015 577.392084 
L 651.021925 580.456917 
L 654.1437 586.488794 
L 657.265475 584.110403 
L 660.38725 582.152968 
L 663.509025 582.783647 
L 666.6308 582.814351 
L 672.87435 589.802 
L 675.996125 588.807772 
L 682.239675 597.90726 
L 685.36145 595.889442 
L 688.483225 597.001756 
L 688.483225 597.001756 
" clip-path="url(#pe76672e513)" style="fill: none; stroke: #1f77b4; stroke-width: 1.5; stroke-linecap: square"/>
   </g>
   <g id="line2d_71">
    <path d="M 67.25 608.58925 
L 691.605 608.58925 
" clip-path="url(#pe76672e513)" style="fill: none; stroke-dasharray: 5.55,2.4; stroke-dashoffset: 0; stroke: #ff0000; stroke-width: 1.5"/>
   </g>
   <g id="line2d_72">
    <path d="M 67.25 583.48575 
L 691.605 583.48575 
" clip-path="url(#pe76672e513)" style="fill: none; stroke-dasharray: 5.55,2.4; stroke-dashoffset: 0; stroke: #ff0000; stroke-width: 1.5"/>
   </g>
   <g id="patch_18">
    <path d="M 67.25 666.52 
L 67.25 525.555 
" style="fill: none; stroke: #000000; stroke-width: 0.8; stroke-linejoin: miter; stroke-linecap: square"/>
   </g>
   <g id="patch_19">
    <path d="M 691.605 666.52 
L 691.605 525.555 
" style="fill: none; stroke: #000000; stroke-width: 0.8; stroke-linejoin: miter; stroke-linecap: square"/>
   </g>
   <g id="patch_20">
    <path d="M 67.25 666.52 
L 691.605 666.52 
" style="fill: none; stroke: #000000; stroke-width: 0.8; stroke-linejoin: miter; stroke-linecap: square"/>
   </g>
   <g id="patch_21">
    <path d="M 67.25 525.555 
L 691.605 525.555 
" style="fill: none; stroke: #000000; stroke-width: 0.8; stroke-linejoin: miter; stroke-linecap: square"/>
   </g>
  </g>
  <g id="text_39">
   <!-- Errors on positions and velocities at 1Hz -->
   <g transform="translate(190.972312 27.165375) scale(0.168 -0.168)">
    <defs>
     <path id="DejaVuSans-72" d="M 2631 2963 
Q 2534 3019 2420 3045 
Q 2306 3072 2169 3072 
Q 1681 3072 1420 2755 
Q 1159 2438 1159 1844 
L 1159 0 
L 581 0 
L 581 3500 
L 1159 3500 
L 1159 2956 
Q 1341 3275 1631 3429 
Q 1922 3584 2338 3584 
Q 2397 3584 2469 3576 
Q 2541 3569 2628 3553 
L 2631 2963 
z
" transform="scale(0.015625)"/>
     <path id="DejaVuSans-6e" d="M 3513 2113 
L 3513 0 
L 2938 0 
L 2938 2094 
Q 2938 2591 2744 2837 
Q 2550 3084 2163 3084 
Q 1697 3084 1428 2787 
Q 1159 2491 1159 1978 
L 1159 0 
L 581 0 
L 581 3500 
L 1159 3500 
L 1159 2956 
Q 1366 3272 1645 3428 
Q 1925 3584 2291 3584 
Q 2894 3584 3203 3211 
Q 3513 2838 3513 2113 
z
" transform="scale(0.015625)"/>
     <path id="DejaVuSans-64" d="M 2906 2969 
L 2906 4863 
L 3481 4863 
L 3481 0 
L 2906 0 
L 2906 525 
Q 2725 213 2448 61 
Q 2172 -91 1784 -91 
Q 1150 -91 751 415 
Q 353 922 353 1747 
Q 353 2572 751 3078 
Q 1150 3584 1784 3584 
Q 2172 3584 2448 3432 
Q 2725 3281 2906 2969 
z
M 947 1747 
Q 947 1113 1208 752 
Q 1469 391 1925 391 
Q 2381 391 2643 752 
Q 2906 1113 2906 1747 
Q 2906 2381 2643 2742 
Q 2381 3103 1925 3103 
Q 1469 3103 1208 2742 
Q 947 2381 947 1747 
z
" transform="scale(0.015625)"/>
     <path id="DejaVuSans-76" d="M 191 3500 
L 800 3500 
L 1894 563 
L 2988 3500 
L 3597 3500 
L 2284 0 
L 1503 0 
L 191 3500 
z
" transform="scale(0.015625)"/>
     <path id="DejaVuSans-63" d="M 3122 3366 
L 3122 2828 
Q 2878 2963 2633 3030 
Q 2388 3097 2138 3097 
Q 1578 3097 1268 2742 
Q 959 2388 959 1747 
Q 959 1106 1268 751 
Q 1578 397 2138 397 
Q 2388 397 2633 464 
Q 2878 531 3122 666 
L 3122 134 
Q 2881 22 2623 -34 
Q 2366 -91 2075 -91 
Q 1284 -91 818 406 
Q 353 903 353 1747 
Q 353 2603 823 3093 
Q 1294 3584 2113 3584 
Q 2378 3584 2631 3529 
Q 2884 3475 3122 3366 
z
" transform="scale(0.015625)"/>
     <path id="DejaVuSans-48" d="M 628 4666 
L 1259 4666 
L 1259 2753 
L 3553 2753 
L 3553 4666 
L 4184 4666 
L 4184 0 
L 3553 0 
L 3553 2222 
L 1259 2222 
L 1259 0 
L 628 0 
L 628 4666 
z
" transform="scale(0.015625)"/>
     <path id="DejaVuSans-7a" d="M 353 3500 
L 3084 3500 
L 3084 2975 
L 922 459 
L 3084 459 
L 3084 0 
L 275 0 
L 275 525 
L 2438 3041 
L 353 3041 
L 353 3500 
z
" transform="scale(0.015625)"/>
    </defs>
    <use xlink:href="#DejaVuSans-45"/>
    <use xlink:href="#DejaVuSans-72" x="63.183594"/>
    <use xlink:href="#DejaVuSans-72" x="102.546875"/>
    <use xlink:href="#DejaVuSans-6f" x="141.410156"/>
    <use xlink:href="#DejaVuSans-72" x="202.591797"/>
    <use xlink:href="#DejaVuSans-73" x="243.705078"/>
    <use xlink:href="#DejaVuSans-20" x="295.804688"/>
    <use xlink:href="#DejaVuSans-6f" x="327.591797"/>
    <use xlink:href="#DejaVuSans-6e" x="388.773438"/>
    <use xlink:href="#DejaVuSans-20" x="452.152344"/>
    <use xlink:href="#DejaVuSans-70" x="483.939453"/>
    <use xlink:href="#DejaVuSans-6f" x="547.416016"/>
    <use xlink:href="#DejaVuSans-73" x="608.597656"/>
    <use xlink:href="#DejaVuSans-69" x="660.697266"/>
    <use xlink:href="#DejaVuSans-74" x="688.480469"/>
    <use xlink:href="#DejaVuSans-69" x="727.689453"/>
    <use xlink:href="#DejaVuSans-6f" x="755.472656"/>
    <use xlink:href="#DejaVuSans-6e" x="816.654297"/>
    <use xlink:href="#DejaVuSans-73" x="880.033203"/>
    <use xlink:href="#DejaVuSans-20" x="932.132812"/>
    <use xlink:href="#DejaVuSans-61" x="963.919922"/>
    <use xlink:href="#DejaVuSans-6e" x="1025.199219"/>
    <use xlink:href="#DejaVuSans-64" x="1088.578125"/>
    <use xlink:href="#DejaVuSans-20" x="1152.054688"/>
    <use xlink:href="#DejaVuSans-76" x="1183.841797"/>
    <use xlink:href="#DejaVuSans-65" x="1243.021484"/>
    <use xlink:href="#DejaVuSans-6c" x="1304.544922"/>
    <use xlink:href="#DejaVuSans-6f" x="1332.328125"/>
    <use xlink:href="#DejaVuSans-63" x="1393.509766"/>
    <use xlink:href="#DejaVuSans-69" x="1448.490234"/>
    <use xlink:href="#DejaVuSans-74" x="1476.273438"/>
    <use xlink:href="#DejaVuSans-69" x="1515.482422"/>
    <use xlink:href="#DejaVuSans-65" x="1543.265625"/>
    <use xlink:href="#DejaVuSans-73" x="1604.789062"/>
    <use xlink:href="#DejaVuSans-20" x="1656.888672"/>
    <use xlink:href="#DejaVuSans-61" x="1688.675781"/>
    <use xlink:href="#DejaVuSans-74" x="1749.955078"/>
    <use xlink:href="#DejaVuSans-20" x="1789.164062"/>
    <use xlink:href="#DejaVuSans-31" x="1820.951172"/>
    <use xlink:href="#DejaVuSans-48" x="1884.574219"/>
    <use xlink:href="#DejaVuSans-7a" x="1959.769531"/>
   </g>
  </g>
 </g>
 <defs>
  <clipPath id="pb1640fef63">
   <rect x="67.25" y="46.8" width="624.355" height="140.965"/>
  </clipPath>
  <clipPath id="p432ab07557">
   <rect x="67.25" y="206.385" width="624.355" height="140.965"/>
  </clipPath>
  <clipPath id="pc58dadd3b9">
   <rect x="67.25" y="365.97" width="624.355" height="140.965"/>
  </clipPath>
  <clipPath id="pe76672e513">
   <rect x="67.25" y="525.555" width="624.355" height="140.965"/>
  </clipPath>
 </defs>
</svg>
