<?xml version="1.0" encoding="utf-8" standalone="no"?>
<!DOCTYPE svg PUBLIC "-//W3C//DTD SVG 1.1//EN"
  "http://www.w3.org/Graphics/SVG/1.1/DTD/svg11.dtd">
<svg xmlns:xlink="http://www.w3.org/1999/xlink" width="720pt" height="720pt" viewBox="0 0 720 720" xmlns="http://www.w3.org/2000/svg" version="1.1">
 <metadata>
  <rdf:RDF xmlns:dc="http://purl.org/dc/elements/1.1/" xmlns:cc="http://creativecommons.org/ns#" xmlns:rdf="http://www.w3.org/1999/02/22-rdf-syntax-ns#">
   <cc:Work>
    <dc:type rdf:resource="http://purl.org/dc/dcmitype/StillImage"/>
    <dc:date>2024-05-31T20:07:26.766868</dc:date>
    <dc:format>image/svg+xml</dc:format>
    <dc:creator>
     <cc:Agent>
      <dc:title>Matplotlib v3.8.4, https://matplotlib.org/</dc:title>
     </cc:Agent>
    </dc:creator>
   </cc:Work>
  </rdf:RDF>
 </metadata>
 <defs>
  <style type="text/css">*{stroke-linejoin: round; stroke-linecap: butt}</style>
 </defs>
 <g id="figure_1">
  <g id="patch_1">
   <path d="M 0 720 
L 720 720 
L 720 0 
L 0 0 
z
" style="fill: #ffffff"/>
  </g>
  <g id="axes_1">
   <g id="patch_2">
    <path d="M 67.25 184.43382 
L 691.605 184.43382 
L 691.605 46.8 
L 67.25 46.8 
z
" style="fill: #ffffff"/>
   </g>
   <g id="matplotlib.axis_1">
    <g id="xtick_1">
     <g id="line2d_1">
      <defs>
       <path id="m776e076cf7" d="M 0 0 
L 0 3.5 
" style="stroke: #000000; stroke-width: 0.8"/>
      </defs>
      <g>
       <use xlink:href="#m776e076cf7" x="67.25" y="184.43382" style="stroke: #000000; stroke-width: 0.8"/>
      </g>
     </g>
    </g>
    <g id="xtick_2">
     <g id="line2d_2">
      <g>
       <use xlink:href="#m776e076cf7" x="145.294375" y="184.43382" style="stroke: #000000; stroke-width: 0.8"/>
      </g>
     </g>
    </g>
    <g id="xtick_3">
     <g id="line2d_3">
      <g>
       <use xlink:href="#m776e076cf7" x="223.33875" y="184.43382" style="stroke: #000000; stroke-width: 0.8"/>
      </g>
     </g>
    </g>
    <g id="xtick_4">
     <g id="line2d_4">
      <g>
       <use xlink:href="#m776e076cf7" x="301.383125" y="184.43382" style="stroke: #000000; stroke-width: 0.8"/>
      </g>
     </g>
    </g>
    <g id="xtick_5">
     <g id="line2d_5">
      <g>
       <use xlink:href="#m776e076cf7" x="379.4275" y="184.43382" style="stroke: #000000; stroke-width: 0.8"/>
      </g>
     </g>
    </g>
    <g id="xtick_6">
     <g id="line2d_6">
      <g>
       <use xlink:href="#m776e076cf7" x="457.471875" y="184.43382" style="stroke: #000000; stroke-width: 0.8"/>
      </g>
     </g>
    </g>
    <g id="xtick_7">
     <g id="line2d_7">
      <g>
       <use xlink:href="#m776e076cf7" x="535.51625" y="184.43382" style="stroke: #000000; stroke-width: 0.8"/>
      </g>
     </g>
    </g>
    <g id="xtick_8">
     <g id="line2d_8">
      <g>
       <use xlink:href="#m776e076cf7" x="613.560625" y="184.43382" style="stroke: #000000; stroke-width: 0.8"/>
      </g>
     </g>
    </g>
    <g id="xtick_9">
     <g id="line2d_9">
      <g>
       <use xlink:href="#m776e076cf7" x="691.605" y="184.43382" style="stroke: #000000; stroke-width: 0.8"/>
      </g>
     </g>
    </g>
   </g>
   <g id="matplotlib.axis_2">
    <g id="ytick_1">
     <g id="line2d_10">
      <defs>
       <path id="m0482d54fb5" d="M 0 0 
L -3.5 0 
" style="stroke: #000000; stroke-width: 0.8"/>
      </defs>
      <g>
       <use xlink:href="#m0482d54fb5" x="67.25" y="150.4587" style="stroke: #000000; stroke-width: 0.8"/>
      </g>
     </g>
     <g id="text_1">
      <!-- -1.0 -->
      <g transform="translate(32.934688 155.777606) scale(0.14 -0.14)">
       <defs>
        <path id="DejaVuSans-2d" d="M 313 2009 
L 1997 2009 
L 1997 1497 
L 313 1497 
L 313 2009 
z
" transform="scale(0.015625)"/>
        <path id="DejaVuSans-31" d="M 794 531 
L 1825 531 
L 1825 4091 
L 703 3866 
L 703 4441 
L 1819 4666 
L 2450 4666 
L 2450 531 
L 3481 531 
L 3481 0 
L 794 0 
L 794 531 
z
" transform="scale(0.015625)"/>
        <path id="DejaVuSans-2e" d="M 684 794 
L 1344 794 
L 1344 0 
L 684 0 
L 684 794 
z
" transform="scale(0.015625)"/>
        <path id="DejaVuSans-30" d="M 2034 4250 
Q 1547 4250 1301 3770 
Q 1056 3291 1056 2328 
Q 1056 1369 1301 889 
Q 1547 409 2034 409 
Q 2525 409 2770 889 
Q 3016 1369 3016 2328 
Q 3016 3291 2770 3770 
Q 2525 4250 2034 4250 
z
M 2034 4750 
Q 2819 4750 3233 4129 
Q 3647 3509 3647 2328 
Q 3647 1150 3233 529 
Q 2819 -91 2034 -91 
Q 1250 -91 836 529 
Q 422 1150 422 2328 
Q 422 3509 836 4129 
Q 1250 4750 2034 4750 
z
" transform="scale(0.015625)"/>
       </defs>
       <use xlink:href="#DejaVuSans-2d"/>
       <use xlink:href="#DejaVuSans-31" x="36.083984"/>
       <use xlink:href="#DejaVuSans-2e" x="99.707031"/>
       <use xlink:href="#DejaVuSans-30" x="131.494141"/>
      </g>
     </g>
    </g>
    <g id="ytick_2">
     <g id="line2d_11">
      <g>
       <use xlink:href="#m0482d54fb5" x="67.25" y="115.61691" style="stroke: #000000; stroke-width: 0.8"/>
      </g>
     </g>
     <g id="text_2">
      <!-- 0.0 -->
      <g transform="translate(37.985625 120.935816) scale(0.14 -0.14)">
       <use xlink:href="#DejaVuSans-30"/>
       <use xlink:href="#DejaVuSans-2e" x="63.623047"/>
       <use xlink:href="#DejaVuSans-30" x="95.410156"/>
      </g>
     </g>
    </g>
    <g id="ytick_3">
     <g id="line2d_12">
      <g>
       <use xlink:href="#m0482d54fb5" x="67.25" y="80.77512" style="stroke: #000000; stroke-width: 0.8"/>
      </g>
     </g>
     <g id="text_3">
      <!-- 1.0 -->
      <g transform="translate(37.985625 86.094026) scale(0.14 -0.14)">
       <use xlink:href="#DejaVuSans-31"/>
       <use xlink:href="#DejaVuSans-2e" x="63.623047"/>
       <use xlink:href="#DejaVuSans-30" x="95.410156"/>
      </g>
     </g>
    </g>
    <g id="text_4">
     <!-- Pos N [m] -->
     <g transform="translate(26.023125 149.480504) rotate(-90) scale(0.14 -0.14)">
      <defs>
       <path id="DejaVuSans-50" d="M 1259 4147 
L 1259 2394 
L 2053 2394 
Q 2494 2394 2734 2622 
Q 2975 2850 2975 3272 
Q 2975 3691 2734 3919 
Q 2494 4147 2053 4147 
L 1259 4147 
z
M 628 4666 
L 2053 4666 
Q 2838 4666 3239 4311 
Q 3641 3956 3641 3272 
Q 3641 2581 3239 2228 
Q 2838 1875 2053 1875 
L 1259 1875 
L 1259 0 
L 628 0 
L 628 4666 
z
" transform="scale(0.015625)"/>
       <path id="DejaVuSans-6f" d="M 1959 3097 
Q 1497 3097 1228 2736 
Q 959 2375 959 1747 
Q 959 1119 1226 758 
Q 1494 397 1959 397 
Q 2419 397 2687 759 
Q 2956 1122 2956 1747 
Q 2956 2369 2687 2733 
Q 2419 3097 1959 3097 
z
M 1959 3584 
Q 2709 3584 3137 3096 
Q 3566 2609 3566 1747 
Q 3566 888 3137 398 
Q 2709 -91 1959 -91 
Q 1206 -91 779 398 
Q 353 888 353 1747 
Q 353 2609 779 3096 
Q 1206 3584 1959 3584 
z
" transform="scale(0.015625)"/>
       <path id="DejaVuSans-73" d="M 2834 3397 
L 2834 2853 
Q 2591 2978 2328 3040 
Q 2066 3103 1784 3103 
Q 1356 3103 1142 2972 
Q 928 2841 928 2578 
Q 928 2378 1081 2264 
Q 1234 2150 1697 2047 
L 1894 2003 
Q 2506 1872 2764 1633 
Q 3022 1394 3022 966 
Q 3022 478 2636 193 
Q 2250 -91 1575 -91 
Q 1294 -91 989 -36 
Q 684 19 347 128 
L 347 722 
Q 666 556 975 473 
Q 1284 391 1588 391 
Q 1994 391 2212 530 
Q 2431 669 2431 922 
Q 2431 1156 2273 1281 
Q 2116 1406 1581 1522 
L 1381 1569 
Q 847 1681 609 1914 
Q 372 2147 372 2553 
Q 372 3047 722 3315 
Q 1072 3584 1716 3584 
Q 2034 3584 2315 3537 
Q 2597 3491 2834 3397 
z
" transform="scale(0.015625)"/>
       <path id="DejaVuSans-20" transform="scale(0.015625)"/>
       <path id="DejaVuSans-4e" d="M 628 4666 
L 1478 4666 
L 3547 763 
L 3547 4666 
L 4159 4666 
L 4159 0 
L 3309 0 
L 1241 3903 
L 1241 0 
L 628 0 
L 628 4666 
z
" transform="scale(0.015625)"/>
       <path id="DejaVuSans-5b" d="M 550 4863 
L 1875 4863 
L 1875 4416 
L 1125 4416 
L 1125 -397 
L 1875 -397 
L 1875 -844 
L 550 -844 
L 550 4863 
z
" transform="scale(0.015625)"/>
       <path id="DejaVuSans-6d" d="M 3328 2828 
Q 3544 3216 3844 3400 
Q 4144 3584 4550 3584 
Q 5097 3584 5394 3201 
Q 5691 2819 5691 2113 
L 5691 0 
L 5113 0 
L 5113 2094 
Q 5113 2597 4934 2840 
Q 4756 3084 4391 3084 
Q 3944 3084 3684 2787 
Q 3425 2491 3425 1978 
L 3425 0 
L 2847 0 
L 2847 2094 
Q 2847 2600 2669 2842 
Q 2491 3084 2119 3084 
Q 1678 3084 1418 2786 
Q 1159 2488 1159 1978 
L 1159 0 
L 581 0 
L 581 3500 
L 1159 3500 
L 1159 2956 
Q 1356 3278 1631 3431 
Q 1906 3584 2284 3584 
Q 2666 3584 2933 3390 
Q 3200 3197 3328 2828 
z
" transform="scale(0.015625)"/>
       <path id="DejaVuSans-5d" d="M 1947 4863 
L 1947 -844 
L 622 -844 
L 622 -397 
L 1369 -397 
L 1369 4416 
L 622 4416 
L 622 4863 
L 1947 4863 
z
" transform="scale(0.015625)"/>
      </defs>
      <use xlink:href="#DejaVuSans-50"/>
      <use xlink:href="#DejaVuSans-6f" x="56.677734"/>
      <use xlink:href="#DejaVuSans-73" x="117.859375"/>
      <use xlink:href="#DejaVuSans-20" x="169.958984"/>
      <use xlink:href="#DejaVuSans-4e" x="201.746094"/>
      <use xlink:href="#DejaVuSans-20" x="276.550781"/>
      <use xlink:href="#DejaVuSans-5b" x="308.337891"/>
      <use xlink:href="#DejaVuSans-6d" x="347.351562"/>
      <use xlink:href="#DejaVuSans-5d" x="444.763672"/>
     </g>
    </g>
   </g>
   <g id="line2d_13">
    <path d="M 67.25 115.61691 
L 70.371775 115.612409 
L 73.49355 127.458279 
L 76.615325 127.375769 
L 79.7371 118.377267 
L 82.858875 117.126987 
L 85.98065 131.315284 
L 89.102425 132.896602 
L 92.2242 116.636545 
L 95.345975 114.126021 
L 98.46775 128.737024 
L 101.589525 129.131739 
L 104.7113 121.685479 
L 107.833075 120.060212 
L 110.95485 117.88721 
L 114.076625 115.516735 
L 117.1984 121.773478 
L 120.320175 120.245155 
L 123.44195 90.363816 
L 126.563725 82.828194 
L 129.6855 101.894082 
L 132.807275 98.339037 
L 135.92905 101.197357 
L 139.050825 97.84224 
L 142.1726 95.29617 
L 145.294375 91.03721 
L 148.41615 112.929893 
L 151.537925 112.352362 
L 154.6597 101.139129 
L 157.781475 97.419246 
L 160.90325 106.090882 
L 164.025025 103.397118 
L 170.268575 94.601375 
L 173.39035 111.738737 
L 176.512125 109.997612 
L 179.6339 121.267402 
L 182.755675 120.513016 
L 185.87745 106.05621 
L 188.999225 101.341757 
L 192.121 101.662621 
L 195.242775 96.395252 
L 198.36455 102.405601 
L 201.486325 97.703207 
L 204.6081 98.659942 
L 207.729875 93.467779 
L 210.85165 97.472399 
L 213.973425 92.423541 
L 217.0952 112.531402 
L 220.216975 110.546698 
L 223.33875 132.269188 
L 226.460525 133.077931 
L 229.5823 139.311301 
L 232.704075 139.557119 
L 235.82585 143.08096 
L 238.947625 142.377423 
L 242.0694 147.930042 
L 245.191175 146.838135 
L 248.31295 135.385968 
L 251.434725 130.873695 
L 254.5565 125.158632 
L 257.678275 118.93403 
L 260.80005 114.226225 
L 263.921825 106.820732 
L 267.0436 105.628213 
L 270.165375 97.942079 
L 273.28715 106.840908 
L 276.408925 100.822504 
L 279.5307 107.795695 
L 282.652475 102.833733 
L 285.77425 106.242549 
L 288.896025 101.542271 
L 292.0178 115.63003 
L 295.139575 113.163846 
L 298.26135 119.568116 
L 301.383125 117.578217 
L 304.5049 114.990758 
L 307.626675 111.806458 
L 310.74845 118.295048 
L 313.870225 115.875427 
L 316.992 119.616373 
L 320.113775 117.392938 
L 323.23555 116.153151 
L 326.357325 113.255356 
L 329.4791 100.629712 
L 332.600875 95.173814 
L 335.72265 100.290158 
L 338.844425 96.091544 
L 341.9662 107.382007 
L 345.087975 105.43323 
L 348.20975 115.15049 
L 351.331525 114.841147 
L 354.4533 116.050677 
L 357.575075 115.610762 
L 360.69685 94.673138 
L 363.818625 90.154133 
L 366.9404 130.40568 
L 370.062175 133.892437 
L 373.18395 120.908887 
L 376.305725 121.25043 
L 379.4275 116.279659 
L 382.549275 115.623417 
L 385.67105 107.333446 
L 388.792825 105.351088 
L 391.9146 120.455541 
L 395.036375 121.785397 
L 398.15815 99.74364 
L 401.279925 97.051541 
L 404.4017 96.467256 
L 407.523475 94.529166 
L 410.64525 105.349609 
L 413.767025 106.216367 
L 416.8888 110.260042 
L 420.010575 112.26447 
L 423.13235 121.738554 
L 426.254125 125.759674 
L 429.3759 122.012119 
L 432.497675 125.33902 
L 435.61945 123.294178 
L 438.741225 126.452231 
L 441.863 113.751337 
L 444.984775 114.89618 
L 448.10655 112.771599 
L 451.228325 114.293959 
L 454.3501 116.747364 
L 457.471875 119.493242 
L 460.59365 112.783003 
L 463.715425 114.914847 
L 466.8372 111.474009 
L 469.958975 113.771002 
L 473.08075 114.098669 
L 476.202525 117.28386 
L 479.3243 132.319805 
L 482.446075 138.987876 
L 485.56785 120.647273 
L 488.689625 124.079143 
L 491.8114 132.324737 
L 494.933175 138.043818 
L 498.05495 138.553292 
L 501.176725 144.758755 
L 504.2985 133.629468 
L 507.420275 138.128737 
L 510.54205 124.023155 
L 513.663825 126.611632 
L 516.7856 109.451253 
L 519.907375 109.941555 
L 523.02915 129.11517 
L 526.150925 134.583071 
L 529.2727 113.989219 
L 532.394475 116.226733 
L 535.51625 102.293735 
L 538.638025 103.12211 
L 541.7598 114.771665 
L 544.881575 119.146929 
L 548.00335 121.601043 
L 551.125125 127.174886 
L 554.2469 129.358575 
L 557.368675 135.847204 
L 560.49045 134.162863 
L 563.612225 140.667749 
L 566.734 143.215212 
L 569.855775 150.48462 
L 572.97755 151.420777 
L 576.099325 158.986409 
L 579.2211 141.83403 
L 582.342875 146.281373 
L 585.46465 130.154972 
L 588.586425 132.201941 
L 591.7082 107.906584 
L 594.829975 106.444903 
L 597.95175 120.157895 
L 601.073525 122.759264 
L 604.1953 139.79263 
L 607.317075 146.261627 
L 610.43885 132.065704 
L 613.560625 135.892056 
L 616.6824 131.558982 
L 619.804175 134.971286 
L 622.92595 123.336059 
L 626.047725 124.996492 
L 629.1695 124.733377 
L 632.291275 126.975862 
L 635.41305 133.852375 
L 638.534825 137.801053 
L 641.6566 134.485521 
L 644.778375 137.871268 
L 647.90015 120.495508 
L 651.021925 120.752448 
L 654.1437 115.811247 
L 657.265475 115.708548 
L 660.38725 124.674194 
L 663.509025 126.740469 
L 666.6308 113.917296 
L 669.752575 113.65829 
L 672.87435 127.979629 
L 675.996125 130.712835 
L 679.1179 129.025037 
L 682.239675 131.163723 
L 685.36145 122.1689 
L 688.483225 122.382642 
L 688.483225 122.382642 
" clip-path="url(#p651fde5832)" style="fill: none; stroke: #1f77b4; stroke-width: 1.5; stroke-linecap: square"/>
   </g>
   <g id="line2d_14">
    <path d="M 73.088532 -1 
L 73.49355 63.4194 
L 79.7371 76.559064 
L 85.98065 77.646492 
L 92.2242 76.673003 
L 98.46775 76.491346 
L 104.7113 76.83071 
L 110.95485 77.21454 
L 117.1984 77.462601 
L 123.44195 77.576818 
L 129.6855 77.613302 
L 135.92905 77.618959 
L 142.1726 77.617518 
L 148.41615 77.616577 
L 154.6597 77.616865 
L 160.90325 77.617563 
L 167.1468 77.618116 
L 173.39035 77.618406 
L 179.6339 77.618514 
L 185.87745 77.618538 
L 192.121 77.618537 
L 198.36455 77.618534 
L 204.6081 77.618534 
L 210.85165 77.618535 
L 217.0952 77.618536 
L 223.33875 77.618537 
L 229.5823 77.618537 
L 235.82585 77.618538 
L 242.0694 77.618538 
L 248.31295 77.618538 
L 254.5565 77.618538 
L 260.80005 77.618538 
L 267.0436 77.618538 
L 273.28715 77.618538 
L 279.5307 77.618538 
L 285.77425 77.618538 
L 292.0178 77.618538 
L 298.26135 77.618538 
L 304.5049 77.618538 
L 310.74845 77.618538 
L 316.992 77.618538 
L 323.23555 77.618538 
L 329.4791 77.618538 
L 335.72265 77.618538 
L 341.9662 77.618538 
L 348.20975 77.618538 
L 354.4533 77.618538 
L 360.69685 77.618538 
L 366.9404 77.618538 
L 373.18395 77.618538 
L 379.4275 77.618538 
L 385.67105 77.618538 
L 391.9146 77.618538 
L 398.15815 77.618538 
L 404.4017 77.618538 
L 410.64525 77.618538 
L 416.8888 77.618538 
L 423.13235 77.618538 
L 429.3759 77.618538 
L 435.61945 77.618538 
L 441.863 77.618538 
L 448.10655 77.618538 
L 454.3501 77.618538 
L 460.59365 77.618538 
L 466.8372 77.618538 
L 473.08075 77.618538 
L 479.3243 77.618538 
L 485.56785 77.618538 
L 491.8114 77.618538 
L 498.05495 77.618538 
L 504.2985 77.618538 
L 510.54205 77.618538 
L 516.7856 77.618538 
L 523.02915 77.618538 
L 529.2727 77.618538 
L 535.51625 77.618538 
L 541.7598 77.618538 
L 548.00335 77.618538 
L 554.2469 77.618538 
L 560.49045 77.618538 
L 566.734 77.618538 
L 572.97755 77.618538 
L 579.2211 77.618538 
L 585.46465 77.618538 
L 591.7082 77.618538 
L 597.95175 77.618538 
L 604.1953 77.618538 
L 610.43885 77.618538 
L 616.6824 77.618538 
L 622.92595 77.618538 
L 629.1695 77.618538 
L 635.41305 77.618538 
L 641.6566 77.618538 
L 647.90015 77.618538 
L 654.1437 77.618538 
L 660.38725 77.618538 
L 666.6308 77.618538 
L 672.87435 77.618538 
L 679.1179 77.618538 
L 685.36145 77.618538 
" clip-path="url(#p651fde5832)" style="fill: none; stroke-dasharray: 5.55,2.4; stroke-dashoffset: 0; stroke: #ff0000; stroke-width: 1.5"/>
   </g>
   <g id="line2d_15">
    <path d="M 70.015558 721 
L 73.49355 167.814419 
L 79.7371 154.674756 
L 85.98065 153.587328 
L 92.2242 154.560817 
L 98.46775 154.742473 
L 104.7113 154.40311 
L 110.95485 154.01928 
L 117.1984 153.771219 
L 123.44195 153.657002 
L 129.6855 153.620518 
L 135.92905 153.614861 
L 142.1726 153.616301 
L 148.41615 153.617243 
L 154.6597 153.616955 
L 160.90325 153.616257 
L 167.1468 153.615704 
L 173.39035 153.615413 
L 179.6339 153.615306 
L 185.87745 153.615282 
L 192.121 153.615283 
L 198.36455 153.615286 
L 204.6081 153.615286 
L 210.85165 153.615285 
L 217.0952 153.615283 
L 223.33875 153.615283 
L 229.5823 153.615282 
L 235.82585 153.615282 
L 242.0694 153.615282 
L 248.31295 153.615282 
L 254.5565 153.615282 
L 260.80005 153.615282 
L 267.0436 153.615282 
L 273.28715 153.615282 
L 279.5307 153.615282 
L 285.77425 153.615282 
L 292.0178 153.615282 
L 298.26135 153.615282 
L 304.5049 153.615282 
L 310.74845 153.615282 
L 316.992 153.615282 
L 323.23555 153.615282 
L 329.4791 153.615282 
L 335.72265 153.615282 
L 341.9662 153.615282 
L 348.20975 153.615282 
L 354.4533 153.615282 
L 360.69685 153.615282 
L 366.9404 153.615282 
L 373.18395 153.615282 
L 379.4275 153.615282 
L 385.67105 153.615282 
L 391.9146 153.615282 
L 398.15815 153.615282 
L 404.4017 153.615282 
L 410.64525 153.615282 
L 416.8888 153.615282 
L 423.13235 153.615282 
L 429.3759 153.615282 
L 435.61945 153.615282 
L 441.863 153.615282 
L 448.10655 153.615282 
L 454.3501 153.615282 
L 460.59365 153.615282 
L 466.8372 153.615282 
L 473.08075 153.615282 
L 479.3243 153.615282 
L 485.56785 153.615282 
L 491.8114 153.615282 
L 498.05495 153.615282 
L 504.2985 153.615282 
L 510.54205 153.615282 
L 516.7856 153.615282 
L 523.02915 153.615282 
L 529.2727 153.615282 
L 535.51625 153.615282 
L 541.7598 153.615282 
L 548.00335 153.615282 
L 554.2469 153.615282 
L 560.49045 153.615282 
L 566.734 153.615282 
L 572.97755 153.615282 
L 579.2211 153.615282 
L 585.46465 153.615282 
L 591.7082 153.615282 
L 597.95175 153.615282 
L 604.1953 153.615282 
L 610.43885 153.615282 
L 616.6824 153.615282 
L 622.92595 153.615282 
L 629.1695 153.615282 
L 635.41305 153.615282 
L 641.6566 153.615282 
L 647.90015 153.615282 
L 654.1437 153.615282 
L 660.38725 153.615282 
L 666.6308 153.615282 
L 672.87435 153.615282 
L 679.1179 153.615282 
L 685.36145 153.615282 
" clip-path="url(#p651fde5832)" style="fill: none; stroke-dasharray: 5.55,2.4; stroke-dashoffset: 0; stroke: #ff0000; stroke-width: 1.5"/>
   </g>
   <g id="patch_3">
    <path d="M 67.25 184.43382 
L 67.25 46.8 
" style="fill: none; stroke: #000000; stroke-width: 0.8; stroke-linejoin: miter; stroke-linecap: square"/>
   </g>
   <g id="patch_4">
    <path d="M 691.605 184.43382 
L 691.605 46.8 
" style="fill: none; stroke: #000000; stroke-width: 0.8; stroke-linejoin: miter; stroke-linecap: square"/>
   </g>
   <g id="patch_5">
    <path d="M 67.25 184.43382 
L 691.605 184.43382 
" style="fill: none; stroke: #000000; stroke-width: 0.8; stroke-linejoin: miter; stroke-linecap: square"/>
   </g>
   <g id="patch_6">
    <path d="M 67.25 46.8 
L 691.605 46.8 
" style="fill: none; stroke: #000000; stroke-width: 0.8; stroke-linejoin: miter; stroke-linecap: square"/>
   </g>
  </g>
  <g id="axes_2">
   <g id="patch_7">
    <path d="M 67.25 345.129213 
L 691.605 345.129213 
L 691.605 207.495393 
L 67.25 207.495393 
z
" style="fill: #ffffff"/>
   </g>
   <g id="matplotlib.axis_3">
    <g id="xtick_10">
     <g id="line2d_16">
      <g>
       <use xlink:href="#m776e076cf7" x="67.25" y="345.129213" style="stroke: #000000; stroke-width: 0.8"/>
      </g>
     </g>
    </g>
    <g id="xtick_11">
     <g id="line2d_17">
      <g>
       <use xlink:href="#m776e076cf7" x="145.294375" y="345.129213" style="stroke: #000000; stroke-width: 0.8"/>
      </g>
     </g>
    </g>
    <g id="xtick_12">
     <g id="line2d_18">
      <g>
       <use xlink:href="#m776e076cf7" x="223.33875" y="345.129213" style="stroke: #000000; stroke-width: 0.8"/>
      </g>
     </g>
    </g>
    <g id="xtick_13">
     <g id="line2d_19">
      <g>
       <use xlink:href="#m776e076cf7" x="301.383125" y="345.129213" style="stroke: #000000; stroke-width: 0.8"/>
      </g>
     </g>
    </g>
    <g id="xtick_14">
     <g id="line2d_20">
      <g>
       <use xlink:href="#m776e076cf7" x="379.4275" y="345.129213" style="stroke: #000000; stroke-width: 0.8"/>
      </g>
     </g>
    </g>
    <g id="xtick_15">
     <g id="line2d_21">
      <g>
       <use xlink:href="#m776e076cf7" x="457.471875" y="345.129213" style="stroke: #000000; stroke-width: 0.8"/>
      </g>
     </g>
    </g>
    <g id="xtick_16">
     <g id="line2d_22">
      <g>
       <use xlink:href="#m776e076cf7" x="535.51625" y="345.129213" style="stroke: #000000; stroke-width: 0.8"/>
      </g>
     </g>
    </g>
    <g id="xtick_17">
     <g id="line2d_23">
      <g>
       <use xlink:href="#m776e076cf7" x="613.560625" y="345.129213" style="stroke: #000000; stroke-width: 0.8"/>
      </g>
     </g>
    </g>
    <g id="xtick_18">
     <g id="line2d_24">
      <g>
       <use xlink:href="#m776e076cf7" x="691.605" y="345.129213" style="stroke: #000000; stroke-width: 0.8"/>
      </g>
     </g>
    </g>
   </g>
   <g id="matplotlib.axis_4">
    <g id="ytick_4">
     <g id="line2d_25">
      <g>
       <use xlink:href="#m0482d54fb5" x="67.25" y="311.154093" style="stroke: #000000; stroke-width: 0.8"/>
      </g>
     </g>
     <g id="text_5">
      <!-- -1.0 -->
      <g transform="translate(32.934688 316.473) scale(0.14 -0.14)">
       <use xlink:href="#DejaVuSans-2d"/>
       <use xlink:href="#DejaVuSans-31" x="36.083984"/>
       <use xlink:href="#DejaVuSans-2e" x="99.707031"/>
       <use xlink:href="#DejaVuSans-30" x="131.494141"/>
      </g>
     </g>
    </g>
    <g id="ytick_5">
     <g id="line2d_26">
      <g>
       <use xlink:href="#m0482d54fb5" x="67.25" y="276.312303" style="stroke: #000000; stroke-width: 0.8"/>
      </g>
     </g>
     <g id="text_6">
      <!-- 0.0 -->
      <g transform="translate(37.985625 281.63121) scale(0.14 -0.14)">
       <use xlink:href="#DejaVuSans-30"/>
       <use xlink:href="#DejaVuSans-2e" x="63.623047"/>
       <use xlink:href="#DejaVuSans-30" x="95.410156"/>
      </g>
     </g>
    </g>
    <g id="ytick_6">
     <g id="line2d_27">
      <g>
       <use xlink:href="#m0482d54fb5" x="67.25" y="241.470513" style="stroke: #000000; stroke-width: 0.8"/>
      </g>
     </g>
     <g id="text_7">
      <!-- 1.0 -->
      <g transform="translate(37.985625 246.789419) scale(0.14 -0.14)">
       <use xlink:href="#DejaVuSans-31"/>
       <use xlink:href="#DejaVuSans-2e" x="63.623047"/>
       <use xlink:href="#DejaVuSans-30" x="95.410156"/>
      </g>
     </g>
    </g>
    <g id="text_8">
     <!-- Pos E [m] -->
     <g transform="translate(26.023125 309.362147) rotate(-90) scale(0.14 -0.14)">
      <defs>
       <path id="DejaVuSans-45" d="M 628 4666 
L 3578 4666 
L 3578 4134 
L 1259 4134 
L 1259 2753 
L 3481 2753 
L 3481 2222 
L 1259 2222 
L 1259 531 
L 3634 531 
L 3634 0 
L 628 0 
L 628 4666 
z
" transform="scale(0.015625)"/>
      </defs>
      <use xlink:href="#DejaVuSans-50"/>
      <use xlink:href="#DejaVuSans-6f" x="56.677734"/>
      <use xlink:href="#DejaVuSans-73" x="117.859375"/>
      <use xlink:href="#DejaVuSans-20" x="169.958984"/>
      <use xlink:href="#DejaVuSans-45" x="201.746094"/>
      <use xlink:href="#DejaVuSans-20" x="264.929688"/>
      <use xlink:href="#DejaVuSans-5b" x="296.716797"/>
      <use xlink:href="#DejaVuSans-6d" x="335.730469"/>
      <use xlink:href="#DejaVuSans-5d" x="433.142578"/>
     </g>
    </g>
   </g>
   <g id="line2d_28">
    <path d="M 67.25 276.312303 
L 70.371775 275.882495 
L 73.49355 297.064442 
L 76.615325 294.923138 
L 79.7371 283.050525 
L 82.858875 278.216968 
L 85.98065 275.264586 
L 89.102425 269.285846 
L 92.2242 272.581302 
L 95.345975 267.045187 
L 98.46775 274.960527 
L 101.589525 270.586141 
L 104.7113 281.991561 
L 107.833075 279.112384 
L 110.95485 283.271067 
L 114.076625 280.259232 
L 117.1984 248.149754 
L 120.320175 238.445521 
L 123.44195 259.374094 
L 126.563725 253.946023 
L 129.6855 249.007911 
L 132.807275 242.39375 
L 135.92905 262.294197 
L 139.050825 259.333233 
L 142.1726 254.030733 
L 145.294375 249.486605 
L 148.41615 249.89334 
L 151.537925 245.174096 
L 154.6597 254.991029 
L 157.781475 251.929902 
L 160.90325 269.035587 
L 164.025025 268.743273 
L 167.1468 285.065687 
L 170.268575 286.970032 
L 173.39035 273.133747 
L 176.512125 271.37561 
L 179.6339 284.797091 
L 182.755675 285.142492 
L 185.87745 292.214191 
L 188.999225 293.199916 
L 192.121 270.576118 
L 195.242775 266.722003 
L 198.36455 256.399258 
L 201.486325 250.947457 
L 204.6081 261.350896 
L 207.729875 258.49717 
L 210.85165 268.773359 
L 213.973425 268.11377 
L 217.0952 278.216242 
L 220.216975 279.413371 
L 223.33875 275.090161 
L 226.460525 275.251295 
L 229.5823 280.358344 
L 232.704075 281.503941 
L 235.82585 293.271825 
L 238.947625 296.542258 
L 242.0694 294.484645 
L 245.191175 297.047294 
L 248.31295 285.087716 
L 251.434725 285.349835 
L 254.5565 295.449688 
L 257.678275 297.980173 
L 260.80005 296.876643 
L 263.921825 299.293794 
L 267.0436 287.315025 
L 270.165375 287.732686 
L 273.28715 266.519583 
L 276.408925 263.696892 
L 279.5307 267.604496 
L 282.652475 266.835811 
L 285.77425 271.41598 
L 288.896025 272.529448 
L 292.0178 257.499201 
L 295.139575 256.625489 
L 298.26135 276.669454 
L 301.383125 280.690324 
L 304.5049 287.304716 
L 307.626675 292.924781 
L 310.74845 279.33526 
L 313.870225 282.615702 
L 316.992 271.234271 
L 320.113775 273.071595 
L 323.23555 271.771 
L 326.357325 274.338146 
L 329.4791 301.063765 
L 332.600875 309.425533 
L 335.72265 289.417728 
L 338.844425 293.971732 
L 341.9662 281.007987 
L 345.087975 283.787663 
L 348.20975 281.100207 
L 351.331525 284.353486 
L 354.4533 275.891387 
L 357.575075 278.499304 
L 360.69685 266.002025 
L 363.818625 267.364696 
L 366.9404 272.66612 
L 370.062175 276.298168 
L 373.18395 287.040589 
L 376.305725 293.535173 
L 379.4275 304.833689 
L 382.549275 313.771634 
L 385.67105 298.000543 
L 388.792825 303.959331 
L 391.9146 299.131697 
L 395.036375 304.660726 
L 398.15815 297.855999 
L 401.279925 302.657089 
L 404.4017 301.818193 
L 407.523475 307.100789 
L 410.64525 291.178501 
L 413.767025 294.057674 
L 416.8888 279.638389 
L 420.010575 280.799741 
L 423.13235 275.347203 
L 426.254125 276.715558 
L 429.3759 287.823003 
L 432.497675 292.358724 
L 435.61945 278.175256 
L 438.741225 280.602514 
L 441.863 276.91757 
L 444.984775 279.49799 
L 448.10655 302.262756 
L 451.228325 309.767373 
L 454.3501 290.4359 
L 457.471875 294.164377 
L 460.59365 305.519836 
L 463.715425 311.733849 
L 466.8372 306.688834 
L 469.958975 311.846832 
L 473.08075 286.002222 
L 476.202525 286.401148 
L 479.3243 275.472341 
L 482.446075 274.645667 
L 485.56785 281.278238 
L 488.689625 282.59298 
L 491.8114 288.212449 
L 494.933175 291.002449 
L 498.05495 281.529442 
L 501.176725 282.662157 
L 504.2985 296.523824 
L 507.420275 300.497878 
L 510.54205 285.916871 
L 513.663825 286.892359 
L 516.7856 284.535136 
L 519.907375 285.212638 
L 523.02915 274.129621 
L 526.150925 272.86451 
L 529.2727 275.284586 
L 532.394475 274.81637 
L 535.51625 285.423439 
L 538.638025 287.011528 
L 541.7598 280.229161 
L 544.881575 280.203781 
L 548.00335 281.318216 
L 551.125125 281.328416 
L 554.2469 291.706877 
L 557.368675 293.350627 
L 560.49045 295.745797 
L 563.612225 297.160711 
L 566.734 295.964238 
L 569.855775 296.438092 
L 572.97755 285.424576 
L 576.099325 283.234329 
L 579.2211 271.332907 
L 582.342875 266.714255 
L 585.46465 269.689524 
L 588.586425 265.732994 
L 591.7082 280.357093 
L 594.829975 278.995565 
L 597.95175 280.221263 
L 601.073525 278.435249 
L 604.1953 271.002655 
L 607.317075 267.201468 
L 610.43885 260.036617 
L 613.560625 254.565099 
L 616.6824 271.855372 
L 619.804175 269.441821 
L 622.92595 269.020316 
L 626.047725 265.783938 
L 629.1695 273.098254 
L 632.291275 270.54987 
L 635.41305 291.897184 
L 638.534825 292.431684 
L 641.6566 295.736642 
L 644.778375 295.422717 
L 647.90015 290.025867 
L 654.1437 284.673468 
L 657.265475 280.570213 
L 660.38725 279.649638 
L 663.509025 274.653182 
L 666.6308 278.345395 
L 669.752575 273.438367 
L 672.87435 268.86574 
L 675.996125 262.490918 
L 679.1179 275.223706 
L 682.239675 270.812569 
L 685.36145 285.92839 
L 688.483225 283.547356 
L 688.483225 283.547356 
" clip-path="url(#pb88c9eeaef)" style="fill: none; stroke: #1f77b4; stroke-width: 1.5; stroke-linecap: square"/>
   </g>
   <g id="line2d_29">
    <path d="M 72.078207 -1 
L 73.49355 224.114794 
L 79.7371 237.254457 
L 85.98065 238.341885 
L 92.2242 237.368396 
L 98.46775 237.18674 
L 104.7113 237.526103 
L 110.95485 237.909934 
L 117.1984 238.157994 
L 123.44195 238.272211 
L 129.6855 238.308695 
L 135.92905 238.314352 
L 142.1726 238.312912 
L 148.41615 238.31197 
L 154.6597 238.312258 
L 160.90325 238.312956 
L 167.1468 238.313509 
L 173.39035 238.3138 
L 179.6339 238.313907 
L 185.87745 238.313931 
L 192.121 238.31393 
L 198.36455 238.313928 
L 204.6081 238.313927 
L 210.85165 238.313929 
L 217.0952 238.31393 
L 223.33875 238.313931 
L 229.5823 238.313931 
L 235.82585 238.313931 
L 242.0694 238.313931 
L 248.31295 238.313931 
L 254.5565 238.313931 
L 260.80005 238.313931 
L 267.0436 238.313931 
L 273.28715 238.313931 
L 279.5307 238.313931 
L 285.77425 238.313931 
L 292.0178 238.313931 
L 298.26135 238.313931 
L 304.5049 238.313931 
L 310.74845 238.313931 
L 316.992 238.313931 
L 323.23555 238.313931 
L 329.4791 238.313931 
L 335.72265 238.313931 
L 341.9662 238.313931 
L 348.20975 238.313931 
L 354.4533 238.313931 
L 360.69685 238.313931 
L 366.9404 238.313931 
L 373.18395 238.313931 
L 379.4275 238.313931 
L 385.67105 238.313931 
L 391.9146 238.313931 
L 398.15815 238.313931 
L 404.4017 238.313931 
L 410.64525 238.313931 
L 416.8888 238.313931 
L 423.13235 238.313931 
L 429.3759 238.313931 
L 435.61945 238.313931 
L 441.863 238.313931 
L 448.10655 238.313931 
L 454.3501 238.313931 
L 460.59365 238.313931 
L 466.8372 238.313931 
L 473.08075 238.313931 
L 479.3243 238.313931 
L 485.56785 238.313931 
L 491.8114 238.313931 
L 498.05495 238.313931 
L 504.2985 238.313931 
L 510.54205 238.313931 
L 516.7856 238.313931 
L 523.02915 238.313931 
L 529.2727 238.313931 
L 535.51625 238.313931 
L 541.7598 238.313931 
L 548.00335 238.313931 
L 554.2469 238.313931 
L 560.49045 238.313931 
L 566.734 238.313931 
L 572.97755 238.313931 
L 579.2211 238.313931 
L 585.46465 238.313931 
L 591.7082 238.313931 
L 597.95175 238.313931 
L 604.1953 238.313931 
L 610.43885 238.313931 
L 616.6824 238.313931 
L 622.92595 238.313931 
L 629.1695 238.313931 
L 635.41305 238.313931 
L 641.6566 238.313931 
L 647.90015 238.313931 
L 654.1437 238.313931 
L 660.38725 238.313931 
L 666.6308 238.313931 
L 672.87435 238.313931 
L 679.1179 238.313931 
L 685.36145 238.313931 
" clip-path="url(#pb88c9eeaef)" style="fill: none; stroke-dasharray: 5.55,2.4; stroke-dashoffset: 0; stroke: #ff0000; stroke-width: 1.5"/>
   </g>
   <g id="line2d_30">
    <path d="M 71.025883 721 
L 73.49355 328.509813 
L 79.7371 315.370149 
L 85.98065 314.282721 
L 92.2242 315.256211 
L 98.46775 315.437867 
L 104.7113 315.098503 
L 110.95485 314.714673 
L 117.1984 314.466612 
L 123.44195 314.352395 
L 129.6855 314.315911 
L 135.92905 314.310254 
L 142.1726 314.311695 
L 148.41615 314.312636 
L 154.6597 314.312348 
L 160.90325 314.31165 
L 167.1468 314.311097 
L 173.39035 314.310807 
L 179.6339 314.310699 
L 185.87745 314.310676 
L 192.121 314.310676 
L 198.36455 314.310679 
L 204.6081 314.310679 
L 210.85165 314.310678 
L 217.0952 314.310677 
L 223.33875 314.310676 
L 229.5823 314.310676 
L 235.82585 314.310676 
L 242.0694 314.310676 
L 248.31295 314.310676 
L 254.5565 314.310676 
L 260.80005 314.310676 
L 267.0436 314.310676 
L 273.28715 314.310676 
L 279.5307 314.310676 
L 285.77425 314.310676 
L 292.0178 314.310676 
L 298.26135 314.310676 
L 304.5049 314.310676 
L 310.74845 314.310676 
L 316.992 314.310676 
L 323.23555 314.310676 
L 329.4791 314.310676 
L 335.72265 314.310676 
L 341.9662 314.310676 
L 348.20975 314.310676 
L 354.4533 314.310676 
L 360.69685 314.310676 
L 366.9404 314.310676 
L 373.18395 314.310676 
L 379.4275 314.310676 
L 385.67105 314.310676 
L 391.9146 314.310676 
L 398.15815 314.310676 
L 404.4017 314.310676 
L 410.64525 314.310676 
L 416.8888 314.310676 
L 423.13235 314.310676 
L 429.3759 314.310676 
L 435.61945 314.310676 
L 441.863 314.310676 
L 448.10655 314.310676 
L 454.3501 314.310676 
L 460.59365 314.310676 
L 466.8372 314.310676 
L 473.08075 314.310676 
L 479.3243 314.310676 
L 485.56785 314.310676 
L 491.8114 314.310676 
L 498.05495 314.310676 
L 504.2985 314.310676 
L 510.54205 314.310676 
L 516.7856 314.310676 
L 523.02915 314.310676 
L 529.2727 314.310676 
L 535.51625 314.310676 
L 541.7598 314.310676 
L 548.00335 314.310676 
L 554.2469 314.310676 
L 560.49045 314.310676 
L 566.734 314.310676 
L 572.97755 314.310676 
L 579.2211 314.310676 
L 585.46465 314.310676 
L 591.7082 314.310676 
L 597.95175 314.310676 
L 604.1953 314.310676 
L 610.43885 314.310676 
L 616.6824 314.310676 
L 622.92595 314.310676 
L 629.1695 314.310676 
L 635.41305 314.310676 
L 641.6566 314.310676 
L 647.90015 314.310676 
L 654.1437 314.310676 
L 660.38725 314.310676 
L 666.6308 314.310676 
L 672.87435 314.310676 
L 679.1179 314.310676 
L 685.36145 314.310676 
" clip-path="url(#pb88c9eeaef)" style="fill: none; stroke-dasharray: 5.55,2.4; stroke-dashoffset: 0; stroke: #ff0000; stroke-width: 1.5"/>
   </g>
   <g id="patch_8">
    <path d="M 67.25 345.129213 
L 67.25 207.495393 
" style="fill: none; stroke: #000000; stroke-width: 0.8; stroke-linejoin: miter; stroke-linecap: square"/>
   </g>
   <g id="patch_9">
    <path d="M 691.605 345.129213 
L 691.605 207.495393 
" style="fill: none; stroke: #000000; stroke-width: 0.8; stroke-linejoin: miter; stroke-linecap: square"/>
   </g>
   <g id="patch_10">
    <path d="M 67.25 345.129213 
L 691.605 345.129213 
" style="fill: none; stroke: #000000; stroke-width: 0.8; stroke-linejoin: miter; stroke-linecap: square"/>
   </g>
   <g id="patch_11">
    <path d="M 67.25 207.495393 
L 691.605 207.495393 
" style="fill: none; stroke: #000000; stroke-width: 0.8; stroke-linejoin: miter; stroke-linecap: square"/>
   </g>
  </g>
  <g id="axes_3">
   <g id="patch_12">
    <path d="M 67.25 505.824607 
L 691.605 505.824607 
L 691.605 368.190787 
L 67.25 368.190787 
z
" style="fill: #ffffff"/>
   </g>
   <g id="matplotlib.axis_5">
    <g id="xtick_19">
     <g id="line2d_31">
      <g>
       <use xlink:href="#m776e076cf7" x="67.25" y="505.824607" style="stroke: #000000; stroke-width: 0.8"/>
      </g>
     </g>
    </g>
    <g id="xtick_20">
     <g id="line2d_32">
      <g>
       <use xlink:href="#m776e076cf7" x="145.294375" y="505.824607" style="stroke: #000000; stroke-width: 0.8"/>
      </g>
     </g>
    </g>
    <g id="xtick_21">
     <g id="line2d_33">
      <g>
       <use xlink:href="#m776e076cf7" x="223.33875" y="505.824607" style="stroke: #000000; stroke-width: 0.8"/>
      </g>
     </g>
    </g>
    <g id="xtick_22">
     <g id="line2d_34">
      <g>
       <use xlink:href="#m776e076cf7" x="301.383125" y="505.824607" style="stroke: #000000; stroke-width: 0.8"/>
      </g>
     </g>
    </g>
    <g id="xtick_23">
     <g id="line2d_35">
      <g>
       <use xlink:href="#m776e076cf7" x="379.4275" y="505.824607" style="stroke: #000000; stroke-width: 0.8"/>
      </g>
     </g>
    </g>
    <g id="xtick_24">
     <g id="line2d_36">
      <g>
       <use xlink:href="#m776e076cf7" x="457.471875" y="505.824607" style="stroke: #000000; stroke-width: 0.8"/>
      </g>
     </g>
    </g>
    <g id="xtick_25">
     <g id="line2d_37">
      <g>
       <use xlink:href="#m776e076cf7" x="535.51625" y="505.824607" style="stroke: #000000; stroke-width: 0.8"/>
      </g>
     </g>
    </g>
    <g id="xtick_26">
     <g id="line2d_38">
      <g>
       <use xlink:href="#m776e076cf7" x="613.560625" y="505.824607" style="stroke: #000000; stroke-width: 0.8"/>
      </g>
     </g>
    </g>
    <g id="xtick_27">
     <g id="line2d_39">
      <g>
       <use xlink:href="#m776e076cf7" x="691.605" y="505.824607" style="stroke: #000000; stroke-width: 0.8"/>
      </g>
     </g>
    </g>
   </g>
   <g id="matplotlib.axis_6">
    <g id="ytick_7">
     <g id="line2d_40">
      <g>
       <use xlink:href="#m0482d54fb5" x="67.25" y="489.43995" style="stroke: #000000; stroke-width: 0.8"/>
      </g>
     </g>
     <g id="text_9">
      <!-- -0.4 -->
      <g transform="translate(32.934688 494.758856) scale(0.14 -0.14)">
       <defs>
        <path id="DejaVuSans-34" d="M 2419 4116 
L 825 1625 
L 2419 1625 
L 2419 4116 
z
M 2253 4666 
L 3047 4666 
L 3047 1625 
L 3713 1625 
L 3713 1100 
L 3047 1100 
L 3047 0 
L 2419 0 
L 2419 1100 
L 313 1100 
L 313 1709 
L 2253 4666 
z
" transform="scale(0.015625)"/>
       </defs>
       <use xlink:href="#DejaVuSans-2d"/>
       <use xlink:href="#DejaVuSans-30" x="36.083984"/>
       <use xlink:href="#DejaVuSans-2e" x="99.707031"/>
       <use xlink:href="#DejaVuSans-34" x="131.494141"/>
      </g>
     </g>
    </g>
    <g id="ytick_8">
     <g id="line2d_41">
      <g>
       <use xlink:href="#m0482d54fb5" x="67.25" y="463.223823" style="stroke: #000000; stroke-width: 0.8"/>
      </g>
     </g>
     <g id="text_10">
      <!-- -0.2 -->
      <g transform="translate(32.934688 468.542729) scale(0.14 -0.14)">
       <defs>
        <path id="DejaVuSans-32" d="M 1228 531 
L 3431 531 
L 3431 0 
L 469 0 
L 469 531 
Q 828 903 1448 1529 
Q 2069 2156 2228 2338 
Q 2531 2678 2651 2914 
Q 2772 3150 2772 3378 
Q 2772 3750 2511 3984 
Q 2250 4219 1831 4219 
Q 1534 4219 1204 4116 
Q 875 4013 500 3803 
L 500 4441 
Q 881 4594 1212 4672 
Q 1544 4750 1819 4750 
Q 2544 4750 2975 4387 
Q 3406 4025 3406 3419 
Q 3406 3131 3298 2873 
Q 3191 2616 2906 2266 
Q 2828 2175 2409 1742 
Q 1991 1309 1228 531 
z
" transform="scale(0.015625)"/>
       </defs>
       <use xlink:href="#DejaVuSans-2d"/>
       <use xlink:href="#DejaVuSans-30" x="36.083984"/>
       <use xlink:href="#DejaVuSans-2e" x="99.707031"/>
       <use xlink:href="#DejaVuSans-32" x="131.494141"/>
      </g>
     </g>
    </g>
    <g id="ytick_9">
     <g id="line2d_42">
      <g>
       <use xlink:href="#m0482d54fb5" x="67.25" y="437.007697" style="stroke: #000000; stroke-width: 0.8"/>
      </g>
     </g>
     <g id="text_11">
      <!-- 0.0 -->
      <g transform="translate(37.985625 442.326603) scale(0.14 -0.14)">
       <use xlink:href="#DejaVuSans-30"/>
       <use xlink:href="#DejaVuSans-2e" x="63.623047"/>
       <use xlink:href="#DejaVuSans-30" x="95.410156"/>
      </g>
     </g>
    </g>
    <g id="ytick_10">
     <g id="line2d_43">
      <g>
       <use xlink:href="#m0482d54fb5" x="67.25" y="410.79157" style="stroke: #000000; stroke-width: 0.8"/>
      </g>
     </g>
     <g id="text_12">
      <!-- 0.2 -->
      <g transform="translate(37.985625 416.110476) scale(0.14 -0.14)">
       <use xlink:href="#DejaVuSans-30"/>
       <use xlink:href="#DejaVuSans-2e" x="63.623047"/>
       <use xlink:href="#DejaVuSans-32" x="95.410156"/>
      </g>
     </g>
    </g>
    <g id="ytick_11">
     <g id="line2d_44">
      <g>
       <use xlink:href="#m0482d54fb5" x="67.25" y="384.575444" style="stroke: #000000; stroke-width: 0.8"/>
      </g>
     </g>
     <g id="text_13">
      <!-- 0.4 -->
      <g transform="translate(37.985625 389.89435) scale(0.14 -0.14)">
       <use xlink:href="#DejaVuSans-30"/>
       <use xlink:href="#DejaVuSans-2e" x="63.623047"/>
       <use xlink:href="#DejaVuSans-34" x="95.410156"/>
      </g>
     </g>
    </g>
    <g id="text_14">
     <!-- Vel N [m/s] -->
     <g transform="translate(26.023125 475.477072) rotate(-90) scale(0.14 -0.14)">
      <defs>
       <path id="DejaVuSans-56" d="M 1831 0 
L 50 4666 
L 709 4666 
L 2188 738 
L 3669 4666 
L 4325 4666 
L 2547 0 
L 1831 0 
z
" transform="scale(0.015625)"/>
       <path id="DejaVuSans-65" d="M 3597 1894 
L 3597 1613 
L 953 1613 
Q 991 1019 1311 708 
Q 1631 397 2203 397 
Q 2534 397 2845 478 
Q 3156 559 3463 722 
L 3463 178 
Q 3153 47 2828 -22 
Q 2503 -91 2169 -91 
Q 1331 -91 842 396 
Q 353 884 353 1716 
Q 353 2575 817 3079 
Q 1281 3584 2069 3584 
Q 2775 3584 3186 3129 
Q 3597 2675 3597 1894 
z
M 3022 2063 
Q 3016 2534 2758 2815 
Q 2500 3097 2075 3097 
Q 1594 3097 1305 2825 
Q 1016 2553 972 2059 
L 3022 2063 
z
" transform="scale(0.015625)"/>
       <path id="DejaVuSans-6c" d="M 603 4863 
L 1178 4863 
L 1178 0 
L 603 0 
L 603 4863 
z
" transform="scale(0.015625)"/>
       <path id="DejaVuSans-2f" d="M 1625 4666 
L 2156 4666 
L 531 -594 
L 0 -594 
L 1625 4666 
z
" transform="scale(0.015625)"/>
      </defs>
      <use xlink:href="#DejaVuSans-56"/>
      <use xlink:href="#DejaVuSans-65" x="60.658203"/>
      <use xlink:href="#DejaVuSans-6c" x="122.181641"/>
      <use xlink:href="#DejaVuSans-20" x="149.964844"/>
      <use xlink:href="#DejaVuSans-4e" x="181.751953"/>
      <use xlink:href="#DejaVuSans-20" x="256.556641"/>
      <use xlink:href="#DejaVuSans-5b" x="288.34375"/>
      <use xlink:href="#DejaVuSans-6d" x="327.357422"/>
      <use xlink:href="#DejaVuSans-2f" x="424.769531"/>
      <use xlink:href="#DejaVuSans-73" x="458.460938"/>
      <use xlink:href="#DejaVuSans-5d" x="510.560547"/>
     </g>
    </g>
   </g>
   <g id="line2d_45">
    <path d="M 67.25 437.007697 
L 73.49355 436.815713 
L 76.615325 436.561965 
L 79.7371 432.5234 
L 82.858875 432.067704 
L 85.98065 443.276512 
L 89.102425 442.620667 
L 92.2242 427.981224 
L 95.345975 427.127818 
L 98.46775 439.008469 
L 101.589525 437.96087 
L 104.7113 431.504179 
L 107.833075 430.266523 
L 114.076625 427.370557 
L 117.1984 432.051729 
L 120.320175 430.44934 
L 123.44195 409.538165 
L 126.563725 407.762541 
L 129.6855 424.597179 
L 132.807275 422.655328 
L 135.92905 425.428955 
L 139.050825 423.328541 
L 142.1726 422.104042 
L 145.294375 419.853354 
L 148.41615 436.025271 
L 151.537925 433.633192 
L 154.6597 424.269596 
L 157.781475 421.745566 
L 160.90325 428.191447 
L 164.025025 425.545426 
L 167.1468 422.106452 
L 170.268575 419.348884 
L 173.39035 431.88245 
L 176.512125 429.024217 
L 179.6339 435.639893 
L 182.755675 432.692276 
L 185.87745 420.780829 
L 188.999225 417.755461 
L 192.121 418.734076 
L 195.242775 415.642896 
L 198.36455 420.886925 
L 201.486325 417.742133 
L 204.6081 419.065454 
L 207.729875 415.87946 
L 210.85165 419.61943 
L 213.973425 416.40481 
L 217.0952 431.155791 
L 220.216975 427.92523 
L 223.33875 441.667333 
L 226.460525 438.43358 
L 229.5823 439.54526 
L 232.704075 436.321078 
L 235.82585 435.963011 
L 238.947625 432.761124 
L 242.0694 434.484956 
L 245.191175 431.318001 
L 248.31295 421.59377 
L 251.434725 418.474245 
L 254.5565 415.122339 
L 257.678275 412.062555 
L 260.80005 410.644218 
L 263.921825 407.656251 
L 267.0436 409.547079 
L 270.165375 406.642722 
L 273.28715 415.774294 
L 276.408925 412.965008 
L 279.5307 419.696179 
L 282.652475 416.993051 
L 285.77425 420.622699 
L 288.896025 418.036397 
L 292.0178 428.964632 
L 295.139575 426.505364 
L 298.26135 430.688518 
L 304.5049 426.122406 
L 307.626675 423.945781 
L 310.74845 428.922351 
L 313.870225 426.900222 
L 316.992 429.579518 
L 320.113775 427.719864 
L 323.23555 426.957845 
L 326.357325 425.268005 
L 329.4791 417.245858 
L 332.600875 415.732502 
L 335.72265 421.884975 
L 338.844425 420.554075 
L 341.9662 430.255587 
L 345.087975 429.112396 
L 348.20975 436.327474 
L 351.331525 435.376503 
L 354.4533 435.738393 
L 357.575075 434.983395 
L 360.69685 420.292809 
L 363.818625 419.736765 
L 366.9404 450.311326 
L 370.062175 449.956429 
L 373.18395 438.377274 
L 376.305725 438.224924 
L 379.4275 434.521869 
L 382.549275 434.572669 
L 385.67105 429.431303 
L 388.792825 429.685051 
L 391.9146 441.791371 
L 395.036375 442.247067 
L 398.15815 426.559942 
L 401.279925 427.215787 
L 404.4017 429.297745 
L 407.523475 430.151151 
L 410.64525 439.752795 
L 413.767025 440.800393 
L 416.8888 443.937683 
L 420.010575 445.17534 
L 423.13235 451.432009 
L 426.254125 452.854839 
L 429.3759 448.730212 
L 432.497675 450.332601 
L 435.61945 448.008085 
L 438.741225 449.783708 
L 441.863 440.350633 
L 444.984775 442.292484 
L 448.10655 441.691302 
L 451.228325 443.791716 
L 454.3501 446.218884 
L 457.471875 448.469572 
L 460.59365 443.837709 
L 463.715425 446.229788 
L 466.8372 444.392649 
L 469.958975 446.916679 
L 473.08075 447.672776 
L 476.202525 450.318797 
L 479.3243 460.719733 
L 482.446075 463.477301 
L 485.56785 448.49381 
L 488.689625 451.352043 
L 491.8114 457.05351 
L 494.933175 460.001127 
L 498.05495 458.843996 
L 501.176725 461.869364 
L 504.2985 452.391599 
L 507.420275 455.482779 
L 510.54205 445.17556 
L 513.663825 448.320352 
L 516.7856 437.260753 
L 519.907375 440.446746 
L 523.02915 455.972472 
L 526.150925 459.187093 
L 529.2727 443.810715 
L 532.394475 447.041277 
L 535.51625 438.507169 
L 538.638025 441.740922 
L 541.7598 451.855415 
L 544.881575 455.079597 
L 548.00335 456.37529 
L 551.125125 459.577177 
L 554.2469 459.833808 
L 557.368675 463.000763 
L 560.49045 459.918166 
L 563.612225 463.037692 
L 566.734 462.823789 
L 569.855775 465.883572 
L 572.97755 463.973645 
L 576.099325 466.961612 
L 579.2211 452.283439 
L 582.342875 455.187797 
L 585.46465 443.299899 
L 588.586425 446.109185 
L 591.7082 430.152395 
L 594.829975 432.855523 
L 597.95175 445.496247 
L 601.073525 448.082548 
L 604.1953 460.110012 
L 607.317075 462.56928 
L 610.43885 450.235917 
L 613.560625 452.558447 
L 616.6824 448.75078 
L 619.804175 450.927405 
L 622.92595 442.236851 
L 626.047725 444.258981 
L 629.1695 444.507547 
L 632.291275 446.367202 
L 635.41305 451.011145 
L 638.534825 452.700985 
L 641.6566 448.981283 
L 644.778375 450.49464 
L 647.90015 437.301183 
L 651.021925 438.632083 
L 654.1437 436.041811 
L 657.265475 437.185002 
L 660.38725 444.29779 
L 663.509025 445.248761 
L 666.6308 435.647541 
L 669.752575 436.402539 
L 672.87435 447.00411 
L 675.996125 447.560155 
L 679.1179 444.867926 
L 682.239675 445.222823 
L 685.36145 437.727197 
L 688.483225 437.879546 
L 688.483225 437.879546 
" clip-path="url(#p7262cb9457)" style="fill: none; stroke: #1f77b4; stroke-width: 1.5; stroke-linecap: square"/>
   </g>
   <g id="line2d_46">
    <path d="M 67.25 397.683507 
L 73.49355 388.855602 
L 79.7371 384.506863 
L 85.98065 385.923114 
L 92.2242 389.98013 
L 98.46775 393.206264 
L 104.7113 394.839272 
L 110.95485 395.42638 
L 117.1984 395.556015 
L 123.44195 395.553333 
L 129.6855 395.53967 
L 135.92905 395.538719 
L 142.1726 395.544805 
L 148.41615 395.550954 
L 154.6597 395.554657 
L 160.90325 395.556229 
L 167.1468 395.556671 
L 173.39035 395.556712 
L 179.6339 395.556683 
L 185.87745 395.556673 
L 192.121 395.556681 
L 198.36455 395.556694 
L 204.6081 395.556702 
L 210.85165 395.556707 
L 217.0952 395.556708 
L 223.33875 395.556708 
L 229.5823 395.556708 
L 235.82585 395.556708 
L 242.0694 395.556708 
L 248.31295 395.556708 
L 254.5565 395.556708 
L 260.80005 395.556708 
L 267.0436 395.556708 
L 273.28715 395.556708 
L 279.5307 395.556708 
L 285.77425 395.556708 
L 292.0178 395.556708 
L 298.26135 395.556708 
L 304.5049 395.556708 
L 310.74845 395.556708 
L 316.992 395.556708 
L 323.23555 395.556708 
L 329.4791 395.556708 
L 335.72265 395.556708 
L 341.9662 395.556708 
L 348.20975 395.556708 
L 354.4533 395.556708 
L 360.69685 395.556708 
L 366.9404 395.556708 
L 373.18395 395.556708 
L 379.4275 395.556708 
L 385.67105 395.556708 
L 391.9146 395.556708 
L 398.15815 395.556708 
L 404.4017 395.556708 
L 410.64525 395.556708 
L 416.8888 395.556708 
L 423.13235 395.556708 
L 429.3759 395.556708 
L 435.61945 395.556708 
L 441.863 395.556708 
L 448.10655 395.556708 
L 454.3501 395.556708 
L 460.59365 395.556708 
L 466.8372 395.556708 
L 473.08075 395.556708 
L 479.3243 395.556708 
L 485.56785 395.556708 
L 491.8114 395.556708 
L 498.05495 395.556708 
L 504.2985 395.556708 
L 510.54205 395.556708 
L 516.7856 395.556708 
L 523.02915 395.556708 
L 529.2727 395.556708 
L 535.51625 395.556708 
L 541.7598 395.556708 
L 548.00335 395.556708 
L 554.2469 395.556708 
L 560.49045 395.556708 
L 566.734 395.556708 
L 572.97755 395.556708 
L 579.2211 395.556708 
L 585.46465 395.556708 
L 591.7082 395.556708 
L 597.95175 395.556708 
L 604.1953 395.556708 
L 610.43885 395.556708 
L 616.6824 395.556708 
L 622.92595 395.556708 
L 629.1695 395.556708 
L 635.41305 395.556708 
L 641.6566 395.556708 
L 647.90015 395.556708 
L 654.1437 395.556708 
L 660.38725 395.556708 
L 666.6308 395.556708 
L 672.87435 395.556708 
L 679.1179 395.556708 
L 685.36145 395.556708 
" clip-path="url(#p7262cb9457)" style="fill: none; stroke-dasharray: 5.55,2.4; stroke-dashoffset: 0; stroke: #ff0000; stroke-width: 1.5"/>
   </g>
   <g id="line2d_47">
    <path d="M 67.25 476.331886 
L 73.49355 485.159791 
L 79.7371 489.50853 
L 85.98065 488.09228 
L 92.2242 484.035264 
L 98.46775 480.80913 
L 104.7113 479.176121 
L 110.95485 478.589013 
L 117.1984 478.459378 
L 123.44195 478.46206 
L 129.6855 478.475724 
L 135.92905 478.476675 
L 142.1726 478.470588 
L 148.41615 478.46444 
L 154.6597 478.460736 
L 160.90325 478.459165 
L 167.1468 478.458723 
L 173.39035 478.458681 
L 179.6339 478.45871 
L 185.87745 478.458721 
L 192.121 478.458712 
L 198.36455 478.4587 
L 204.6081 478.458691 
L 210.85165 478.458687 
L 217.0952 478.458685 
L 223.33875 478.458685 
L 229.5823 478.458685 
L 235.82585 478.458685 
L 242.0694 478.458685 
L 248.31295 478.458685 
L 254.5565 478.458685 
L 260.80005 478.458685 
L 267.0436 478.458685 
L 273.28715 478.458685 
L 279.5307 478.458685 
L 285.77425 478.458685 
L 292.0178 478.458685 
L 298.26135 478.458685 
L 304.5049 478.458685 
L 310.74845 478.458685 
L 316.992 478.458685 
L 323.23555 478.458685 
L 329.4791 478.458685 
L 335.72265 478.458685 
L 341.9662 478.458685 
L 348.20975 478.458685 
L 354.4533 478.458685 
L 360.69685 478.458685 
L 366.9404 478.458685 
L 373.18395 478.458685 
L 379.4275 478.458685 
L 385.67105 478.458685 
L 391.9146 478.458685 
L 398.15815 478.458685 
L 404.4017 478.458685 
L 410.64525 478.458685 
L 416.8888 478.458685 
L 423.13235 478.458685 
L 429.3759 478.458685 
L 435.61945 478.458685 
L 441.863 478.458685 
L 448.10655 478.458685 
L 454.3501 478.458685 
L 460.59365 478.458685 
L 466.8372 478.458685 
L 473.08075 478.458685 
L 479.3243 478.458685 
L 485.56785 478.458685 
L 491.8114 478.458685 
L 498.05495 478.458685 
L 504.2985 478.458685 
L 510.54205 478.458685 
L 516.7856 478.458685 
L 523.02915 478.458685 
L 529.2727 478.458685 
L 535.51625 478.458685 
L 541.7598 478.458685 
L 548.00335 478.458685 
L 554.2469 478.458685 
L 560.49045 478.458685 
L 566.734 478.458685 
L 572.97755 478.458685 
L 579.2211 478.458685 
L 585.46465 478.458685 
L 591.7082 478.458685 
L 597.95175 478.458685 
L 604.1953 478.458685 
L 610.43885 478.458685 
L 616.6824 478.458685 
L 622.92595 478.458685 
L 629.1695 478.458685 
L 635.41305 478.458685 
L 641.6566 478.458685 
L 647.90015 478.458685 
L 654.1437 478.458685 
L 660.38725 478.458685 
L 666.6308 478.458685 
L 672.87435 478.458685 
L 679.1179 478.458685 
L 685.36145 478.458685 
" clip-path="url(#p7262cb9457)" style="fill: none; stroke-dasharray: 5.55,2.4; stroke-dashoffset: 0; stroke: #ff0000; stroke-width: 1.5"/>
   </g>
   <g id="patch_13">
    <path d="M 67.25 505.824607 
L 67.25 368.190787 
" style="fill: none; stroke: #000000; stroke-width: 0.8; stroke-linejoin: miter; stroke-linecap: square"/>
   </g>
   <g id="patch_14">
    <path d="M 691.605 505.824607 
L 691.605 368.190787 
" style="fill: none; stroke: #000000; stroke-width: 0.8; stroke-linejoin: miter; stroke-linecap: square"/>
   </g>
   <g id="patch_15">
    <path d="M 67.25 505.824607 
L 691.605 505.824607 
" style="fill: none; stroke: #000000; stroke-width: 0.8; stroke-linejoin: miter; stroke-linecap: square"/>
   </g>
   <g id="patch_16">
    <path d="M 67.25 368.190787 
L 691.605 368.190787 
" style="fill: none; stroke: #000000; stroke-width: 0.8; stroke-linejoin: miter; stroke-linecap: square"/>
   </g>
  </g>
  <g id="axes_4">
   <g id="patch_17">
    <path d="M 67.25 666.52 
L 691.605 666.52 
L 691.605 528.88618 
L 67.25 528.88618 
z
" style="fill: #ffffff"/>
   </g>
   <g id="matplotlib.axis_7">
    <g id="xtick_28">
     <g id="line2d_48">
      <g>
       <use xlink:href="#m776e076cf7" x="67.25" y="666.52" style="stroke: #000000; stroke-width: 0.8"/>
      </g>
     </g>
     <g id="text_15">
      <!-- 0 -->
      <g transform="translate(62.79625 684.157812) scale(0.14 -0.14)">
       <use xlink:href="#DejaVuSans-30"/>
      </g>
     </g>
    </g>
    <g id="xtick_29">
     <g id="line2d_49">
      <g>
       <use xlink:href="#m776e076cf7" x="145.294375" y="666.52" style="stroke: #000000; stroke-width: 0.8"/>
      </g>
     </g>
     <g id="text_16">
      <!-- 25 -->
      <g transform="translate(136.386875 684.157812) scale(0.14 -0.14)">
       <defs>
        <path id="DejaVuSans-35" d="M 691 4666 
L 3169 4666 
L 3169 4134 
L 1269 4134 
L 1269 2991 
Q 1406 3038 1543 3061 
Q 1681 3084 1819 3084 
Q 2600 3084 3056 2656 
Q 3513 2228 3513 1497 
Q 3513 744 3044 326 
Q 2575 -91 1722 -91 
Q 1428 -91 1123 -41 
Q 819 9 494 109 
L 494 744 
Q 775 591 1075 516 
Q 1375 441 1709 441 
Q 2250 441 2565 725 
Q 2881 1009 2881 1497 
Q 2881 1984 2565 2268 
Q 2250 2553 1709 2553 
Q 1456 2553 1204 2497 
Q 953 2441 691 2322 
L 691 4666 
z
" transform="scale(0.015625)"/>
       </defs>
       <use xlink:href="#DejaVuSans-32"/>
       <use xlink:href="#DejaVuSans-35" x="63.623047"/>
      </g>
     </g>
    </g>
    <g id="xtick_30">
     <g id="line2d_50">
      <g>
       <use xlink:href="#m776e076cf7" x="223.33875" y="666.52" style="stroke: #000000; stroke-width: 0.8"/>
      </g>
     </g>
     <g id="text_17">
      <!-- 50 -->
      <g transform="translate(214.43125 684.157812) scale(0.14 -0.14)">
       <use xlink:href="#DejaVuSans-35"/>
       <use xlink:href="#DejaVuSans-30" x="63.623047"/>
      </g>
     </g>
    </g>
    <g id="xtick_31">
     <g id="line2d_51">
      <g>
       <use xlink:href="#m776e076cf7" x="301.383125" y="666.52" style="stroke: #000000; stroke-width: 0.8"/>
      </g>
     </g>
     <g id="text_18">
      <!-- 75 -->
      <g transform="translate(292.475625 684.157812) scale(0.14 -0.14)">
       <defs>
        <path id="DejaVuSans-37" d="M 525 4666 
L 3525 4666 
L 3525 4397 
L 1831 0 
L 1172 0 
L 2766 4134 
L 525 4134 
L 525 4666 
z
" transform="scale(0.015625)"/>
       </defs>
       <use xlink:href="#DejaVuSans-37"/>
       <use xlink:href="#DejaVuSans-35" x="63.623047"/>
      </g>
     </g>
    </g>
    <g id="xtick_32">
     <g id="line2d_52">
      <g>
       <use xlink:href="#m776e076cf7" x="379.4275" y="666.52" style="stroke: #000000; stroke-width: 0.8"/>
      </g>
     </g>
     <g id="text_19">
      <!-- 100 -->
      <g transform="translate(366.06625 684.157812) scale(0.14 -0.14)">
       <use xlink:href="#DejaVuSans-31"/>
       <use xlink:href="#DejaVuSans-30" x="63.623047"/>
       <use xlink:href="#DejaVuSans-30" x="127.246094"/>
      </g>
     </g>
    </g>
    <g id="xtick_33">
     <g id="line2d_53">
      <g>
       <use xlink:href="#m776e076cf7" x="457.471875" y="666.52" style="stroke: #000000; stroke-width: 0.8"/>
      </g>
     </g>
     <g id="text_20">
      <!-- 125 -->
      <g transform="translate(444.110625 684.157812) scale(0.14 -0.14)">
       <use xlink:href="#DejaVuSans-31"/>
       <use xlink:href="#DejaVuSans-32" x="63.623047"/>
       <use xlink:href="#DejaVuSans-35" x="127.246094"/>
      </g>
     </g>
    </g>
    <g id="xtick_34">
     <g id="line2d_54">
      <g>
       <use xlink:href="#m776e076cf7" x="535.51625" y="666.52" style="stroke: #000000; stroke-width: 0.8"/>
      </g>
     </g>
     <g id="text_21">
      <!-- 150 -->
      <g transform="translate(522.155 684.157812) scale(0.14 -0.14)">
       <use xlink:href="#DejaVuSans-31"/>
       <use xlink:href="#DejaVuSans-35" x="63.623047"/>
       <use xlink:href="#DejaVuSans-30" x="127.246094"/>
      </g>
     </g>
    </g>
    <g id="xtick_35">
     <g id="line2d_55">
      <g>
       <use xlink:href="#m776e076cf7" x="613.560625" y="666.52" style="stroke: #000000; stroke-width: 0.8"/>
      </g>
     </g>
     <g id="text_22">
      <!-- 175 -->
      <g transform="translate(600.199375 684.157812) scale(0.14 -0.14)">
       <use xlink:href="#DejaVuSans-31"/>
       <use xlink:href="#DejaVuSans-37" x="63.623047"/>
       <use xlink:href="#DejaVuSans-35" x="127.246094"/>
      </g>
     </g>
    </g>
    <g id="xtick_36">
     <g id="line2d_56">
      <g>
       <use xlink:href="#m776e076cf7" x="691.605" y="666.52" style="stroke: #000000; stroke-width: 0.8"/>
      </g>
     </g>
     <g id="text_23">
      <!-- 200 -->
      <g transform="translate(678.24375 684.157812) scale(0.14 -0.14)">
       <use xlink:href="#DejaVuSans-32"/>
       <use xlink:href="#DejaVuSans-30" x="63.623047"/>
       <use xlink:href="#DejaVuSans-30" x="127.246094"/>
      </g>
     </g>
    </g>
    <g id="text_24">
     <!-- Timestamp [s] -->
     <g transform="translate(329.024219 701.707187) scale(0.14 -0.14)">
      <defs>
       <path id="DejaVuSans-54" d="M -19 4666 
L 3928 4666 
L 3928 4134 
L 2272 4134 
L 2272 0 
L 1638 0 
L 1638 4134 
L -19 4134 
L -19 4666 
z
" transform="scale(0.015625)"/>
       <path id="DejaVuSans-69" d="M 603 3500 
L 1178 3500 
L 1178 0 
L 603 0 
L 603 3500 
z
M 603 4863 
L 1178 4863 
L 1178 4134 
L 603 4134 
L 603 4863 
z
" transform="scale(0.015625)"/>
       <path id="DejaVuSans-74" d="M 1172 4494 
L 1172 3500 
L 2356 3500 
L 2356 3053 
L 1172 3053 
L 1172 1153 
Q 1172 725 1289 603 
Q 1406 481 1766 481 
L 2356 481 
L 2356 0 
L 1766 0 
Q 1100 0 847 248 
Q 594 497 594 1153 
L 594 3053 
L 172 3053 
L 172 3500 
L 594 3500 
L 594 4494 
L 1172 4494 
z
" transform="scale(0.015625)"/>
       <path id="DejaVuSans-61" d="M 2194 1759 
Q 1497 1759 1228 1600 
Q 959 1441 959 1056 
Q 959 750 1161 570 
Q 1363 391 1709 391 
Q 2188 391 2477 730 
Q 2766 1069 2766 1631 
L 2766 1759 
L 2194 1759 
z
M 3341 1997 
L 3341 0 
L 2766 0 
L 2766 531 
Q 2569 213 2275 61 
Q 1981 -91 1556 -91 
Q 1019 -91 701 211 
Q 384 513 384 1019 
Q 384 1609 779 1909 
Q 1175 2209 1959 2209 
L 2766 2209 
L 2766 2266 
Q 2766 2663 2505 2880 
Q 2244 3097 1772 3097 
Q 1472 3097 1187 3025 
Q 903 2953 641 2809 
L 641 3341 
Q 956 3463 1253 3523 
Q 1550 3584 1831 3584 
Q 2591 3584 2966 3190 
Q 3341 2797 3341 1997 
z
" transform="scale(0.015625)"/>
       <path id="DejaVuSans-70" d="M 1159 525 
L 1159 -1331 
L 581 -1331 
L 581 3500 
L 1159 3500 
L 1159 2969 
Q 1341 3281 1617 3432 
Q 1894 3584 2278 3584 
Q 2916 3584 3314 3078 
Q 3713 2572 3713 1747 
Q 3713 922 3314 415 
Q 2916 -91 2278 -91 
Q 1894 -91 1617 61 
Q 1341 213 1159 525 
z
M 3116 1747 
Q 3116 2381 2855 2742 
Q 2594 3103 2138 3103 
Q 1681 3103 1420 2742 
Q 1159 2381 1159 1747 
Q 1159 1113 1420 752 
Q 1681 391 2138 391 
Q 2594 391 2855 752 
Q 3116 1113 3116 1747 
z
" transform="scale(0.015625)"/>
      </defs>
      <use xlink:href="#DejaVuSans-54"/>
      <use xlink:href="#DejaVuSans-69" x="57.958984"/>
      <use xlink:href="#DejaVuSans-6d" x="85.742188"/>
      <use xlink:href="#DejaVuSans-65" x="183.154297"/>
      <use xlink:href="#DejaVuSans-73" x="244.677734"/>
      <use xlink:href="#DejaVuSans-74" x="296.777344"/>
      <use xlink:href="#DejaVuSans-61" x="335.986328"/>
      <use xlink:href="#DejaVuSans-6d" x="397.265625"/>
      <use xlink:href="#DejaVuSans-70" x="494.677734"/>
      <use xlink:href="#DejaVuSans-20" x="558.154297"/>
      <use xlink:href="#DejaVuSans-5b" x="589.941406"/>
      <use xlink:href="#DejaVuSans-73" x="628.955078"/>
      <use xlink:href="#DejaVuSans-5d" x="681.054688"/>
     </g>
    </g>
   </g>
   <g id="matplotlib.axis_8">
    <g id="ytick_12">
     <g id="line2d_57">
      <g>
       <use xlink:href="#m0482d54fb5" x="67.25" y="650.135343" style="stroke: #000000; stroke-width: 0.8"/>
      </g>
     </g>
     <g id="text_25">
      <!-- -0.4 -->
      <g transform="translate(32.934688 655.454249) scale(0.14 -0.14)">
       <use xlink:href="#DejaVuSans-2d"/>
       <use xlink:href="#DejaVuSans-30" x="36.083984"/>
       <use xlink:href="#DejaVuSans-2e" x="99.707031"/>
       <use xlink:href="#DejaVuSans-34" x="131.494141"/>
      </g>
     </g>
    </g>
    <g id="ytick_13">
     <g id="line2d_58">
      <g>
       <use xlink:href="#m0482d54fb5" x="67.25" y="623.919217" style="stroke: #000000; stroke-width: 0.8"/>
      </g>
     </g>
     <g id="text_26">
      <!-- -0.2 -->
      <g transform="translate(32.934688 629.238123) scale(0.14 -0.14)">
       <use xlink:href="#DejaVuSans-2d"/>
       <use xlink:href="#DejaVuSans-30" x="36.083984"/>
       <use xlink:href="#DejaVuSans-2e" x="99.707031"/>
       <use xlink:href="#DejaVuSans-32" x="131.494141"/>
      </g>
     </g>
    </g>
    <g id="ytick_14">
     <g id="line2d_59">
      <g>
       <use xlink:href="#m0482d54fb5" x="67.25" y="597.70309" style="stroke: #000000; stroke-width: 0.8"/>
      </g>
     </g>
     <g id="text_27">
      <!-- 0.0 -->
      <g transform="translate(37.985625 603.021996) scale(0.14 -0.14)">
       <use xlink:href="#DejaVuSans-30"/>
       <use xlink:href="#DejaVuSans-2e" x="63.623047"/>
       <use xlink:href="#DejaVuSans-30" x="95.410156"/>
      </g>
     </g>
    </g>
    <g id="ytick_15">
     <g id="line2d_60">
      <g>
       <use xlink:href="#m0482d54fb5" x="67.25" y="571.486964" style="stroke: #000000; stroke-width: 0.8"/>
      </g>
     </g>
     <g id="text_28">
      <!-- 0.2 -->
      <g transform="translate(37.985625 576.80587) scale(0.14 -0.14)">
       <use xlink:href="#DejaVuSans-30"/>
       <use xlink:href="#DejaVuSans-2e" x="63.623047"/>
       <use xlink:href="#DejaVuSans-32" x="95.410156"/>
      </g>
     </g>
    </g>
    <g id="ytick_16">
     <g id="line2d_61">
      <g>
       <use xlink:href="#m0482d54fb5" x="67.25" y="545.270837" style="stroke: #000000; stroke-width: 0.8"/>
      </g>
     </g>
     <g id="text_29">
      <!-- 0.4 -->
      <g transform="translate(37.985625 550.589743) scale(0.14 -0.14)">
       <use xlink:href="#DejaVuSans-30"/>
       <use xlink:href="#DejaVuSans-2e" x="63.623047"/>
       <use xlink:href="#DejaVuSans-34" x="95.410156"/>
      </g>
     </g>
    </g>
    <g id="text_30">
     <!-- Vel E [m/s] -->
     <g transform="translate(26.023125 635.358715) rotate(-90) scale(0.14 -0.14)">
      <use xlink:href="#DejaVuSans-56"/>
      <use xlink:href="#DejaVuSans-65" x="60.658203"/>
      <use xlink:href="#DejaVuSans-6c" x="122.181641"/>
      <use xlink:href="#DejaVuSans-20" x="149.964844"/>
      <use xlink:href="#DejaVuSans-45" x="181.751953"/>
      <use xlink:href="#DejaVuSans-20" x="244.935547"/>
      <use xlink:href="#DejaVuSans-5b" x="276.722656"/>
      <use xlink:href="#DejaVuSans-6d" x="315.736328"/>
      <use xlink:href="#DejaVuSans-2f" x="413.148438"/>
      <use xlink:href="#DejaVuSans-73" x="446.839844"/>
      <use xlink:href="#DejaVuSans-5d" x="498.939453"/>
     </g>
    </g>
   </g>
   <g id="line2d_62">
    <path d="M 67.25 597.70309 
L 76.615325 588.035718 
L 79.7371 581.120581 
L 82.858875 577.918694 
L 85.98065 576.795268 
L 89.102425 573.628313 
L 92.2242 578.437301 
L 95.345975 575.317776 
L 98.46775 582.778554 
L 101.589525 579.718771 
L 104.7113 588.368367 
L 107.833075 585.3804 
L 110.95485 587.827965 
L 114.076625 584.923607 
L 117.1984 562.602983 
L 120.320175 559.793697 
L 123.44195 578.637993 
L 126.563725 575.934865 
L 129.6855 574.117747 
L 132.807275 571.531445 
L 135.92905 587.798584 
L 139.050825 585.339316 
L 142.1726 581.774479 
L 145.294375 579.451949 
L 148.41615 581.043082 
L 151.537925 578.866457 
L 154.6597 587.204293 
L 157.781475 585.182164 
L 160.90325 597.540111 
L 164.025025 595.680456 
L 167.1468 605.719693 
L 170.268575 604.029853 
L 173.39035 591.852846 
L 176.512125 590.33949 
L 179.6339 599.675713 
L 182.755675 598.344813 
L 185.87745 601.991069 
L 188.999225 600.847878 
L 192.121 583.686842 
L 195.242775 582.735871 
L 198.36455 577.578237 
L 201.486325 576.823239 
L 204.6081 587.253259 
L 207.729875 586.697215 
L 210.85165 595.407472 
L 213.973425 595.052575 
L 217.0952 602.291523 
L 220.216975 602.139174 
L 223.33875 598.292369 
L 226.460525 598.343169 
L 229.5823 601.894585 
L 232.704075 602.148333 
L 235.82585 609.787539 
L 238.947625 610.243235 
L 242.0694 607.024571 
L 245.191175 607.680416 
L 248.31295 598.27069 
L 251.434725 599.124095 
L 254.5565 606.70741 
L 257.678275 607.755008 
L 260.80005 606.185809 
L 263.921825 607.423465 
L 267.0436 598.570591 
L 270.165375 599.993421 
L 273.28715 586.289817 
L 276.408925 587.892205 
L 279.5307 593.930435 
L 282.652475 595.706058 
L 285.77425 600.927991 
L 288.896025 602.869842 
L 292.0178 593.372272 
L 295.139575 595.472685 
L 298.26135 611.71101 
L 301.383125 613.961698 
L 304.5049 617.656373 
L 307.626675 620.048452 
L 310.74845 608.787943 
L 313.870225 611.311973 
L 316.992 603.29727 
L 320.113775 605.94329 
L 323.23555 605.986759 
L 326.357325 608.744327 
L 329.4791 627.736304 
L 332.600875 630.594536 
L 335.72265 613.365691 
L 338.844425 616.313308 
L 341.9662 606.651008 
L 345.087975 609.676376 
L 348.20975 608.399368 
L 351.331525 611.490548 
L 354.4533 605.944091 
L 357.575075 609.088883 
L 360.69685 601.238144 
L 363.818625 604.424138 
L 366.9404 609.761082 
L 370.062175 612.975703 
L 373.18395 620.521917 
L 376.305725 623.752479 
L 379.4275 629.712125 
L 382.549275 632.945878 
L 385.67105 618.508289 
L 388.792825 621.732471 
L 391.9146 616.902087 
L 395.036375 620.103974 
L 398.15815 614.180399 
L 401.279925 617.347355 
L 404.4017 616.015099 
L 407.523475 619.134624 
L 410.64525 607.002386 
L 413.767025 610.06217 
L 416.8888 600.575068 
L 420.010575 603.563035 
L 423.13235 601.395166 
L 426.254125 604.299524 
L 429.3759 613.358391 
L 432.497675 616.167677 
L 435.61945 605.478626 
L 438.741225 608.181754 
L 441.863 606.112828 
L 444.984775 608.699129 
L 448.10655 624.701579 
L 451.228325 627.160847 
L 454.3501 610.563085 
L 457.471875 612.885615 
L 460.59365 619.986668 
L 463.715425 622.163293 
L 466.8372 616.09067 
L 469.958975 618.112799 
L 473.08075 598.267162 
L 476.202525 600.126817 
L 479.3243 593.740868 
L 482.446075 595.430708 
L 485.56785 601.885205 
L 488.689625 603.398561 
L 491.8114 607.526368 
L 494.933175 608.857268 
L 498.05495 601.385035 
L 501.176725 602.528226 
L 504.2985 612.170567 
L 507.420275 613.121538 
L 510.54205 600.987307 
L 513.663825 601.742305 
L 516.7856 599.965601 
L 519.907375 600.521646 
L 523.02915 592.757668 
L 526.150925 593.112565 
L 529.2727 595.856949 
L 532.394475 596.009298 
L 535.51625 603.694681 
L 538.638025 603.643881 
L 541.7598 597.72604 
L 544.881575 597.472291 
L 548.00335 597.96093 
L 551.125125 597.505234 
L 554.2469 604.206785 
L 557.368675 603.55094 
L 560.49045 603.444768 
L 563.612225 602.591362 
L 566.734 600.001596 
L 569.855775 598.953997 
L 572.97755 590.074021 
L 576.099325 588.836365 
L 579.2211 581.030762 
L 582.342875 579.607932 
L 585.46465 583.611801 
L 588.586425 582.009412 
L 591.7082 593.46153 
L 594.829975 591.685907 
L 597.95175 591.94796 
L 601.073525 590.00611 
L 604.1953 584.446157 
L 607.317075 582.345743 
L 610.43885 578.237588 
L 613.560625 575.9869 
L 616.6824 589.813247 
L 619.804175 587.421167 
L 622.92595 586.784018 
L 626.047725 584.259987 
L 629.1695 589.433784 
L 632.291275 586.787763 
L 635.41305 601.088329 
L 638.534825 598.330762 
L 641.6566 597.947207 
L 644.778375 595.088974 
L 647.90015 589.201483 
L 651.021925 586.253867 
L 654.1437 583.775652 
L 657.265475 580.750283 
L 660.38725 580.448688 
L 663.509025 577.357508 
L 666.6308 580.81245 
L 669.752575 577.667658 
L 672.87435 575.311486 
L 675.996125 572.125493 
L 679.1179 582.71404 
L 682.239675 579.499419 
L 685.36145 590.360124 
L 688.483225 587.129562 
L 688.483225 587.129562 
" clip-path="url(#pede31f4a53)" style="fill: none; stroke: #1f77b4; stroke-width: 1.5; stroke-linecap: square"/>
   </g>
   <g id="line2d_63">
    <path d="M 67.25 558.3789 
L 73.49355 549.550996 
L 79.7371 545.202257 
L 85.98065 546.618507 
L 92.2242 550.675523 
L 98.46775 553.901657 
L 104.7113 555.534666 
L 110.95485 556.121774 
L 117.1984 556.251409 
L 123.44195 556.248727 
L 129.6855 556.235063 
L 135.92905 556.234112 
L 142.1726 556.240199 
L 148.41615 556.246347 
L 154.6597 556.250051 
L 160.90325 556.251622 
L 167.1468 556.252064 
L 173.39035 556.252105 
L 179.6339 556.252076 
L 185.87745 556.252066 
L 192.121 556.252075 
L 198.36455 556.252087 
L 204.6081 556.252096 
L 210.85165 556.2521 
L 217.0952 556.252101 
L 223.33875 556.252102 
L 229.5823 556.252102 
L 235.82585 556.252102 
L 242.0694 556.252102 
L 248.31295 556.252102 
L 254.5565 556.252102 
L 260.80005 556.252102 
L 267.0436 556.252102 
L 273.28715 556.252102 
L 279.5307 556.252102 
L 285.77425 556.252102 
L 292.0178 556.252102 
L 298.26135 556.252102 
L 304.5049 556.252102 
L 310.74845 556.252102 
L 316.992 556.252102 
L 323.23555 556.252102 
L 329.4791 556.252102 
L 335.72265 556.252102 
L 341.9662 556.252102 
L 348.20975 556.252102 
L 354.4533 556.252102 
L 360.69685 556.252102 
L 366.9404 556.252102 
L 373.18395 556.252102 
L 379.4275 556.252102 
L 385.67105 556.252102 
L 391.9146 556.252102 
L 398.15815 556.252102 
L 404.4017 556.252102 
L 410.64525 556.252102 
L 416.8888 556.252102 
L 423.13235 556.252102 
L 429.3759 556.252102 
L 435.61945 556.252102 
L 441.863 556.252102 
L 448.10655 556.252102 
L 454.3501 556.252102 
L 460.59365 556.252102 
L 466.8372 556.252102 
L 473.08075 556.252102 
L 479.3243 556.252102 
L 485.56785 556.252102 
L 491.8114 556.252102 
L 498.05495 556.252102 
L 504.2985 556.252102 
L 510.54205 556.252102 
L 516.7856 556.252102 
L 523.02915 556.252102 
L 529.2727 556.252102 
L 535.51625 556.252102 
L 541.7598 556.252102 
L 548.00335 556.252102 
L 554.2469 556.252102 
L 560.49045 556.252102 
L 566.734 556.252102 
L 572.97755 556.252102 
L 579.2211 556.252102 
L 585.46465 556.252102 
L 591.7082 556.252102 
L 597.95175 556.252102 
L 604.1953 556.252102 
L 610.43885 556.252102 
L 616.6824 556.252102 
L 622.92595 556.252102 
L 629.1695 556.252102 
L 635.41305 556.252102 
L 641.6566 556.252102 
L 647.90015 556.252102 
L 654.1437 556.252102 
L 660.38725 556.252102 
L 666.6308 556.252102 
L 672.87435 556.252102 
L 679.1179 556.252102 
L 685.36145 556.252102 
" clip-path="url(#pede31f4a53)" style="fill: none; stroke-dasharray: 5.55,2.4; stroke-dashoffset: 0; stroke: #ff0000; stroke-width: 1.5"/>
   </g>
   <g id="line2d_64">
    <path d="M 67.25 637.02728 
L 73.49355 645.855185 
L 79.7371 650.203924 
L 85.98065 648.787673 
L 92.2242 644.730657 
L 98.46775 641.504523 
L 104.7113 639.871514 
L 110.95485 639.284407 
L 117.1984 639.154772 
L 123.44195 639.157454 
L 129.6855 639.171117 
L 135.92905 639.172068 
L 142.1726 639.165982 
L 148.41615 639.159833 
L 154.6597 639.15613 
L 160.90325 639.154558 
L 167.1468 639.154116 
L 173.39035 639.154075 
L 179.6339 639.154104 
L 185.87745 639.154114 
L 192.121 639.154105 
L 198.36455 639.154093 
L 204.6081 639.154084 
L 210.85165 639.15408 
L 217.0952 639.154079 
L 223.33875 639.154079 
L 229.5823 639.154079 
L 235.82585 639.154079 
L 242.0694 639.154079 
L 248.31295 639.154079 
L 254.5565 639.154079 
L 260.80005 639.154079 
L 267.0436 639.154079 
L 273.28715 639.154079 
L 279.5307 639.154079 
L 285.77425 639.154079 
L 292.0178 639.154079 
L 298.26135 639.154079 
L 304.5049 639.154079 
L 310.74845 639.154079 
L 316.992 639.154079 
L 323.23555 639.154079 
L 329.4791 639.154079 
L 335.72265 639.154079 
L 341.9662 639.154079 
L 348.20975 639.154079 
L 354.4533 639.154079 
L 360.69685 639.154079 
L 366.9404 639.154079 
L 373.18395 639.154079 
L 379.4275 639.154079 
L 385.67105 639.154079 
L 391.9146 639.154079 
L 398.15815 639.154079 
L 404.4017 639.154079 
L 410.64525 639.154079 
L 416.8888 639.154079 
L 423.13235 639.154079 
L 429.3759 639.154079 
L 435.61945 639.154079 
L 441.863 639.154079 
L 448.10655 639.154079 
L 454.3501 639.154079 
L 460.59365 639.154079 
L 466.8372 639.154079 
L 473.08075 639.154079 
L 479.3243 639.154079 
L 485.56785 639.154079 
L 491.8114 639.154079 
L 498.05495 639.154079 
L 504.2985 639.154079 
L 510.54205 639.154079 
L 516.7856 639.154079 
L 523.02915 639.154079 
L 529.2727 639.154079 
L 535.51625 639.154079 
L 541.7598 639.154079 
L 548.00335 639.154079 
L 554.2469 639.154079 
L 560.49045 639.154079 
L 566.734 639.154079 
L 572.97755 639.154079 
L 579.2211 639.154079 
L 585.46465 639.154079 
L 591.7082 639.154079 
L 597.95175 639.154079 
L 604.1953 639.154079 
L 610.43885 639.154079 
L 616.6824 639.154079 
L 622.92595 639.154079 
L 629.1695 639.154079 
L 635.41305 639.154079 
L 641.6566 639.154079 
L 647.90015 639.154079 
L 654.1437 639.154079 
L 660.38725 639.154079 
L 666.6308 639.154079 
L 672.87435 639.154079 
L 679.1179 639.154079 
L 685.36145 639.154079 
" clip-path="url(#pede31f4a53)" style="fill: none; stroke-dasharray: 5.55,2.4; stroke-dashoffset: 0; stroke: #ff0000; stroke-width: 1.5"/>
   </g>
   <g id="patch_18">
    <path d="M 67.25 666.52 
L 67.25 528.88618 
" style="fill: none; stroke: #000000; stroke-width: 0.8; stroke-linejoin: miter; stroke-linecap: square"/>
   </g>
   <g id="patch_19">
    <path d="M 691.605 666.52 
L 691.605 528.88618 
" style="fill: none; stroke: #000000; stroke-width: 0.8; stroke-linejoin: miter; stroke-linecap: square"/>
   </g>
   <g id="patch_20">
    <path d="M 67.25 666.52 
L 691.605 666.52 
" style="fill: none; stroke: #000000; stroke-width: 0.8; stroke-linejoin: miter; stroke-linecap: square"/>
   </g>
   <g id="patch_21">
    <path d="M 67.25 528.88618 
L 691.605 528.88618 
" style="fill: none; stroke: #000000; stroke-width: 0.8; stroke-linejoin: miter; stroke-linecap: square"/>
   </g>
  </g>
  <g id="text_31">
   <!-- Errors on positions and velocities at 1Hz -->
   <g transform="translate(190.972312 27.165375) scale(0.168 -0.168)">
    <defs>
     <path id="DejaVuSans-72" d="M 2631 2963 
Q 2534 3019 2420 3045 
Q 2306 3072 2169 3072 
Q 1681 3072 1420 2755 
Q 1159 2438 1159 1844 
L 1159 0 
L 581 0 
L 581 3500 
L 1159 3500 
L 1159 2956 
Q 1341 3275 1631 3429 
Q 1922 3584 2338 3584 
Q 2397 3584 2469 3576 
Q 2541 3569 2628 3553 
L 2631 2963 
z
" transform="scale(0.015625)"/>
     <path id="DejaVuSans-6e" d="M 3513 2113 
L 3513 0 
L 2938 0 
L 2938 2094 
Q 2938 2591 2744 2837 
Q 2550 3084 2163 3084 
Q 1697 3084 1428 2787 
Q 1159 2491 1159 1978 
L 1159 0 
L 581 0 
L 581 3500 
L 1159 3500 
L 1159 2956 
Q 1366 3272 1645 3428 
Q 1925 3584 2291 3584 
Q 2894 3584 3203 3211 
Q 3513 2838 3513 2113 
z
" transform="scale(0.015625)"/>
     <path id="DejaVuSans-64" d="M 2906 2969 
L 2906 4863 
L 3481 4863 
L 3481 0 
L 2906 0 
L 2906 525 
Q 2725 213 2448 61 
Q 2172 -91 1784 -91 
Q 1150 -91 751 415 
Q 353 922 353 1747 
Q 353 2572 751 3078 
Q 1150 3584 1784 3584 
Q 2172 3584 2448 3432 
Q 2725 3281 2906 2969 
z
M 947 1747 
Q 947 1113 1208 752 
Q 1469 391 1925 391 
Q 2381 391 2643 752 
Q 2906 1113 2906 1747 
Q 2906 2381 2643 2742 
Q 2381 3103 1925 3103 
Q 1469 3103 1208 2742 
Q 947 2381 947 1747 
z
" transform="scale(0.015625)"/>
     <path id="DejaVuSans-76" d="M 191 3500 
L 800 3500 
L 1894 563 
L 2988 3500 
L 3597 3500 
L 2284 0 
L 1503 0 
L 191 3500 
z
" transform="scale(0.015625)"/>
     <path id="DejaVuSans-63" d="M 3122 3366 
L 3122 2828 
Q 2878 2963 2633 3030 
Q 2388 3097 2138 3097 
Q 1578 3097 1268 2742 
Q 959 2388 959 1747 
Q 959 1106 1268 751 
Q 1578 397 2138 397 
Q 2388 397 2633 464 
Q 2878 531 3122 666 
L 3122 134 
Q 2881 22 2623 -34 
Q 2366 -91 2075 -91 
Q 1284 -91 818 406 
Q 353 903 353 1747 
Q 353 2603 823 3093 
Q 1294 3584 2113 3584 
Q 2378 3584 2631 3529 
Q 2884 3475 3122 3366 
z
" transform="scale(0.015625)"/>
     <path id="DejaVuSans-48" d="M 628 4666 
L 1259 4666 
L 1259 2753 
L 3553 2753 
L 3553 4666 
L 4184 4666 
L 4184 0 
L 3553 0 
L 3553 2222 
L 1259 2222 
L 1259 0 
L 628 0 
L 628 4666 
z
" transform="scale(0.015625)"/>
     <path id="DejaVuSans-7a" d="M 353 3500 
L 3084 3500 
L 3084 2975 
L 922 459 
L 3084 459 
L 3084 0 
L 275 0 
L 275 525 
L 2438 3041 
L 353 3041 
L 353 3500 
z
" transform="scale(0.015625)"/>
    </defs>
    <use xlink:href="#DejaVuSans-45"/>
    <use xlink:href="#DejaVuSans-72" x="63.183594"/>
    <use xlink:href="#DejaVuSans-72" x="102.546875"/>
    <use xlink:href="#DejaVuSans-6f" x="141.410156"/>
    <use xlink:href="#DejaVuSans-72" x="202.591797"/>
    <use xlink:href="#DejaVuSans-73" x="243.705078"/>
    <use xlink:href="#DejaVuSans-20" x="295.804688"/>
    <use xlink:href="#DejaVuSans-6f" x="327.591797"/>
    <use xlink:href="#DejaVuSans-6e" x="388.773438"/>
    <use xlink:href="#DejaVuSans-20" x="452.152344"/>
    <use xlink:href="#DejaVuSans-70" x="483.939453"/>
    <use xlink:href="#DejaVuSans-6f" x="547.416016"/>
    <use xlink:href="#DejaVuSans-73" x="608.597656"/>
    <use xlink:href="#DejaVuSans-69" x="660.697266"/>
    <use xlink:href="#DejaVuSans-74" x="688.480469"/>
    <use xlink:href="#DejaVuSans-69" x="727.689453"/>
    <use xlink:href="#DejaVuSans-6f" x="755.472656"/>
    <use xlink:href="#DejaVuSans-6e" x="816.654297"/>
    <use xlink:href="#DejaVuSans-73" x="880.033203"/>
    <use xlink:href="#DejaVuSans-20" x="932.132812"/>
    <use xlink:href="#DejaVuSans-61" x="963.919922"/>
    <use xlink:href="#DejaVuSans-6e" x="1025.199219"/>
    <use xlink:href="#DejaVuSans-64" x="1088.578125"/>
    <use xlink:href="#DejaVuSans-20" x="1152.054688"/>
    <use xlink:href="#DejaVuSans-76" x="1183.841797"/>
    <use xlink:href="#DejaVuSans-65" x="1243.021484"/>
    <use xlink:href="#DejaVuSans-6c" x="1304.544922"/>
    <use xlink:href="#DejaVuSans-6f" x="1332.328125"/>
    <use xlink:href="#DejaVuSans-63" x="1393.509766"/>
    <use xlink:href="#DejaVuSans-69" x="1448.490234"/>
    <use xlink:href="#DejaVuSans-74" x="1476.273438"/>
    <use xlink:href="#DejaVuSans-69" x="1515.482422"/>
    <use xlink:href="#DejaVuSans-65" x="1543.265625"/>
    <use xlink:href="#DejaVuSans-73" x="1604.789062"/>
    <use xlink:href="#DejaVuSans-20" x="1656.888672"/>
    <use xlink:href="#DejaVuSans-61" x="1688.675781"/>
    <use xlink:href="#DejaVuSans-74" x="1749.955078"/>
    <use xlink:href="#DejaVuSans-20" x="1789.164062"/>
    <use xlink:href="#DejaVuSans-31" x="1820.951172"/>
    <use xlink:href="#DejaVuSans-48" x="1884.574219"/>
    <use xlink:href="#DejaVuSans-7a" x="1959.769531"/>
   </g>
  </g>
 </g>
 <defs>
  <clipPath id="p651fde5832">
   <rect x="67.25" y="46.8" width="624.355" height="137.63382"/>
  </clipPath>
  <clipPath id="pb88c9eeaef">
   <rect x="67.25" y="207.495393" width="624.355" height="137.63382"/>
  </clipPath>
  <clipPath id="p7262cb9457">
   <rect x="67.25" y="368.190787" width="624.355" height="137.63382"/>
  </clipPath>
  <clipPath id="pede31f4a53">
   <rect x="67.25" y="528.88618" width="624.355" height="137.63382"/>
  </clipPath>
 </defs>
</svg>
