<?xml version="1.0" encoding="utf-8" standalone="no"?>
<!DOCTYPE svg PUBLIC "-//W3C//DTD SVG 1.1//EN"
  "http://www.w3.org/Graphics/SVG/1.1/DTD/svg11.dtd">
<svg xmlns:xlink="http://www.w3.org/1999/xlink" width="720pt" height="720pt" viewBox="0 0 720 720" xmlns="http://www.w3.org/2000/svg" version="1.1">
 <metadata>
  <rdf:RDF xmlns:dc="http://purl.org/dc/elements/1.1/" xmlns:cc="http://creativecommons.org/ns#" xmlns:rdf="http://www.w3.org/1999/02/22-rdf-syntax-ns#">
   <cc:Work>
    <dc:type rdf:resource="http://purl.org/dc/dcmitype/StillImage"/>
    <dc:date>2024-06-03T16:55:35.463270</dc:date>
    <dc:format>image/svg+xml</dc:format>
    <dc:creator>
     <cc:Agent>
      <dc:title>Matplotlib v3.9.0, https://matplotlib.org/</dc:title>
     </cc:Agent>
    </dc:creator>
   </cc:Work>
  </rdf:RDF>
 </metadata>
 <defs>
  <style type="text/css">*{stroke-linejoin: round; stroke-linecap: butt}</style>
 </defs>
 <g id="figure_1">
  <g id="patch_1">
   <path d="M 0 720 
L 720 720 
L 720 0 
L 0 0 
z
" style="fill: #ffffff"/>
  </g>
  <g id="axes_1">
   <g id="patch_2">
    <path d="M 91.46 184.231499 
L 704.88 184.231499 
L 704.88 46.8 
L 91.46 46.8 
z
" style="fill: #ffffff"/>
   </g>
   <g id="matplotlib.axis_1">
    <g id="xtick_1">
     <g id="line2d_1">
      <defs>
       <path id="m6a93af5353" d="M 0 0 
L 0 3.5 
" style="stroke: #000000; stroke-width: 0.8"/>
      </defs>
      <g>
       <use xlink:href="#m6a93af5353" x="91.46" y="184.231499" style="stroke: #000000; stroke-width: 0.8"/>
      </g>
     </g>
    </g>
    <g id="xtick_2">
     <g id="line2d_2">
      <g>
       <use xlink:href="#m6a93af5353" x="168.141334" y="184.231499" style="stroke: #000000; stroke-width: 0.8"/>
      </g>
     </g>
    </g>
    <g id="xtick_3">
     <g id="line2d_3">
      <g>
       <use xlink:href="#m6a93af5353" x="244.822668" y="184.231499" style="stroke: #000000; stroke-width: 0.8"/>
      </g>
     </g>
    </g>
    <g id="xtick_4">
     <g id="line2d_4">
      <g>
       <use xlink:href="#m6a93af5353" x="321.504002" y="184.231499" style="stroke: #000000; stroke-width: 0.8"/>
      </g>
     </g>
    </g>
    <g id="xtick_5">
     <g id="line2d_5">
      <g>
       <use xlink:href="#m6a93af5353" x="398.185336" y="184.231499" style="stroke: #000000; stroke-width: 0.8"/>
      </g>
     </g>
    </g>
    <g id="xtick_6">
     <g id="line2d_6">
      <g>
       <use xlink:href="#m6a93af5353" x="474.86667" y="184.231499" style="stroke: #000000; stroke-width: 0.8"/>
      </g>
     </g>
    </g>
    <g id="xtick_7">
     <g id="line2d_7">
      <g>
       <use xlink:href="#m6a93af5353" x="551.548004" y="184.231499" style="stroke: #000000; stroke-width: 0.8"/>
      </g>
     </g>
    </g>
    <g id="xtick_8">
     <g id="line2d_8">
      <g>
       <use xlink:href="#m6a93af5353" x="628.229338" y="184.231499" style="stroke: #000000; stroke-width: 0.8"/>
      </g>
     </g>
    </g>
   </g>
   <g id="matplotlib.axis_2">
    <g id="ytick_1">
     <g id="line2d_9">
      <defs>
       <path id="m47c9c51071" d="M 0 0 
L -3.5 0 
" style="stroke: #000000; stroke-width: 0.8"/>
      </defs>
      <g>
       <use xlink:href="#m47c9c51071" x="91.46" y="151.006342" style="stroke: #000000; stroke-width: 0.8"/>
      </g>
     </g>
     <g id="text_1">
      <!-- −0.002 -->
      <g transform="translate(32.649063 156.325248) scale(0.14 -0.14)">
       <defs>
        <path id="DejaVuSans-2212" d="M 678 2272 
L 4684 2272 
L 4684 1741 
L 678 1741 
L 678 2272 
z
" transform="scale(0.015625)"/>
        <path id="DejaVuSans-30" d="M 2034 4250 
Q 1547 4250 1301 3770 
Q 1056 3291 1056 2328 
Q 1056 1369 1301 889 
Q 1547 409 2034 409 
Q 2525 409 2770 889 
Q 3016 1369 3016 2328 
Q 3016 3291 2770 3770 
Q 2525 4250 2034 4250 
z
M 2034 4750 
Q 2819 4750 3233 4129 
Q 3647 3509 3647 2328 
Q 3647 1150 3233 529 
Q 2819 -91 2034 -91 
Q 1250 -91 836 529 
Q 422 1150 422 2328 
Q 422 3509 836 4129 
Q 1250 4750 2034 4750 
z
" transform="scale(0.015625)"/>
        <path id="DejaVuSans-2e" d="M 684 794 
L 1344 794 
L 1344 0 
L 684 0 
L 684 794 
z
" transform="scale(0.015625)"/>
        <path id="DejaVuSans-32" d="M 1228 531 
L 3431 531 
L 3431 0 
L 469 0 
L 469 531 
Q 828 903 1448 1529 
Q 2069 2156 2228 2338 
Q 2531 2678 2651 2914 
Q 2772 3150 2772 3378 
Q 2772 3750 2511 3984 
Q 2250 4219 1831 4219 
Q 1534 4219 1204 4116 
Q 875 4013 500 3803 
L 500 4441 
Q 881 4594 1212 4672 
Q 1544 4750 1819 4750 
Q 2544 4750 2975 4387 
Q 3406 4025 3406 3419 
Q 3406 3131 3298 2873 
Q 3191 2616 2906 2266 
Q 2828 2175 2409 1742 
Q 1991 1309 1228 531 
z
" transform="scale(0.015625)"/>
       </defs>
       <use xlink:href="#DejaVuSans-2212"/>
       <use xlink:href="#DejaVuSans-30" x="83.789062"/>
       <use xlink:href="#DejaVuSans-2e" x="147.412109"/>
       <use xlink:href="#DejaVuSans-30" x="179.199219"/>
       <use xlink:href="#DejaVuSans-30" x="242.822266"/>
       <use xlink:href="#DejaVuSans-32" x="306.445312"/>
      </g>
     </g>
    </g>
    <g id="ytick_2">
     <g id="line2d_10">
      <g>
       <use xlink:href="#m47c9c51071" x="91.46" y="115.51575" style="stroke: #000000; stroke-width: 0.8"/>
      </g>
     </g>
     <g id="text_2">
      <!-- 0.000 -->
      <g transform="translate(44.380625 120.834656) scale(0.14 -0.14)">
       <use xlink:href="#DejaVuSans-30"/>
       <use xlink:href="#DejaVuSans-2e" x="63.623047"/>
       <use xlink:href="#DejaVuSans-30" x="95.410156"/>
       <use xlink:href="#DejaVuSans-30" x="159.033203"/>
       <use xlink:href="#DejaVuSans-30" x="222.65625"/>
      </g>
     </g>
    </g>
    <g id="ytick_3">
     <g id="line2d_11">
      <g>
       <use xlink:href="#m47c9c51071" x="91.46" y="80.025157" style="stroke: #000000; stroke-width: 0.8"/>
      </g>
     </g>
     <g id="text_3">
      <!-- 0.002 -->
      <g transform="translate(44.380625 85.344064) scale(0.14 -0.14)">
       <use xlink:href="#DejaVuSans-30"/>
       <use xlink:href="#DejaVuSans-2e" x="63.623047"/>
       <use xlink:href="#DejaVuSans-30" x="95.410156"/>
       <use xlink:href="#DejaVuSans-30" x="159.033203"/>
       <use xlink:href="#DejaVuSans-32" x="222.65625"/>
      </g>
     </g>
    </g>
    <g id="text_4">
     <!-- Gyro bias [rad/s] -->
     <g transform="translate(25.7375 173.938406) rotate(-90) scale(0.14 -0.14)">
      <defs>
       <path id="DejaVuSans-47" d="M 3809 666 
L 3809 1919 
L 2778 1919 
L 2778 2438 
L 4434 2438 
L 4434 434 
Q 4069 175 3628 42 
Q 3188 -91 2688 -91 
Q 1594 -91 976 548 
Q 359 1188 359 2328 
Q 359 3472 976 4111 
Q 1594 4750 2688 4750 
Q 3144 4750 3555 4637 
Q 3966 4525 4313 4306 
L 4313 3634 
Q 3963 3931 3569 4081 
Q 3175 4231 2741 4231 
Q 1884 4231 1454 3753 
Q 1025 3275 1025 2328 
Q 1025 1384 1454 906 
Q 1884 428 2741 428 
Q 3075 428 3337 486 
Q 3600 544 3809 666 
z
" transform="scale(0.015625)"/>
       <path id="DejaVuSans-79" d="M 2059 -325 
Q 1816 -950 1584 -1140 
Q 1353 -1331 966 -1331 
L 506 -1331 
L 506 -850 
L 844 -850 
Q 1081 -850 1212 -737 
Q 1344 -625 1503 -206 
L 1606 56 
L 191 3500 
L 800 3500 
L 1894 763 
L 2988 3500 
L 3597 3500 
L 2059 -325 
z
" transform="scale(0.015625)"/>
       <path id="DejaVuSans-72" d="M 2631 2963 
Q 2534 3019 2420 3045 
Q 2306 3072 2169 3072 
Q 1681 3072 1420 2755 
Q 1159 2438 1159 1844 
L 1159 0 
L 581 0 
L 581 3500 
L 1159 3500 
L 1159 2956 
Q 1341 3275 1631 3429 
Q 1922 3584 2338 3584 
Q 2397 3584 2469 3576 
Q 2541 3569 2628 3553 
L 2631 2963 
z
" transform="scale(0.015625)"/>
       <path id="DejaVuSans-6f" d="M 1959 3097 
Q 1497 3097 1228 2736 
Q 959 2375 959 1747 
Q 959 1119 1226 758 
Q 1494 397 1959 397 
Q 2419 397 2687 759 
Q 2956 1122 2956 1747 
Q 2956 2369 2687 2733 
Q 2419 3097 1959 3097 
z
M 1959 3584 
Q 2709 3584 3137 3096 
Q 3566 2609 3566 1747 
Q 3566 888 3137 398 
Q 2709 -91 1959 -91 
Q 1206 -91 779 398 
Q 353 888 353 1747 
Q 353 2609 779 3096 
Q 1206 3584 1959 3584 
z
" transform="scale(0.015625)"/>
       <path id="DejaVuSans-20" transform="scale(0.015625)"/>
       <path id="DejaVuSans-62" d="M 3116 1747 
Q 3116 2381 2855 2742 
Q 2594 3103 2138 3103 
Q 1681 3103 1420 2742 
Q 1159 2381 1159 1747 
Q 1159 1113 1420 752 
Q 1681 391 2138 391 
Q 2594 391 2855 752 
Q 3116 1113 3116 1747 
z
M 1159 2969 
Q 1341 3281 1617 3432 
Q 1894 3584 2278 3584 
Q 2916 3584 3314 3078 
Q 3713 2572 3713 1747 
Q 3713 922 3314 415 
Q 2916 -91 2278 -91 
Q 1894 -91 1617 61 
Q 1341 213 1159 525 
L 1159 0 
L 581 0 
L 581 4863 
L 1159 4863 
L 1159 2969 
z
" transform="scale(0.015625)"/>
       <path id="DejaVuSans-69" d="M 603 3500 
L 1178 3500 
L 1178 0 
L 603 0 
L 603 3500 
z
M 603 4863 
L 1178 4863 
L 1178 4134 
L 603 4134 
L 603 4863 
z
" transform="scale(0.015625)"/>
       <path id="DejaVuSans-61" d="M 2194 1759 
Q 1497 1759 1228 1600 
Q 959 1441 959 1056 
Q 959 750 1161 570 
Q 1363 391 1709 391 
Q 2188 391 2477 730 
Q 2766 1069 2766 1631 
L 2766 1759 
L 2194 1759 
z
M 3341 1997 
L 3341 0 
L 2766 0 
L 2766 531 
Q 2569 213 2275 61 
Q 1981 -91 1556 -91 
Q 1019 -91 701 211 
Q 384 513 384 1019 
Q 384 1609 779 1909 
Q 1175 2209 1959 2209 
L 2766 2209 
L 2766 2266 
Q 2766 2663 2505 2880 
Q 2244 3097 1772 3097 
Q 1472 3097 1187 3025 
Q 903 2953 641 2809 
L 641 3341 
Q 956 3463 1253 3523 
Q 1550 3584 1831 3584 
Q 2591 3584 2966 3190 
Q 3341 2797 3341 1997 
z
" transform="scale(0.015625)"/>
       <path id="DejaVuSans-73" d="M 2834 3397 
L 2834 2853 
Q 2591 2978 2328 3040 
Q 2066 3103 1784 3103 
Q 1356 3103 1142 2972 
Q 928 2841 928 2578 
Q 928 2378 1081 2264 
Q 1234 2150 1697 2047 
L 1894 2003 
Q 2506 1872 2764 1633 
Q 3022 1394 3022 966 
Q 3022 478 2636 193 
Q 2250 -91 1575 -91 
Q 1294 -91 989 -36 
Q 684 19 347 128 
L 347 722 
Q 666 556 975 473 
Q 1284 391 1588 391 
Q 1994 391 2212 530 
Q 2431 669 2431 922 
Q 2431 1156 2273 1281 
Q 2116 1406 1581 1522 
L 1381 1569 
Q 847 1681 609 1914 
Q 372 2147 372 2553 
Q 372 3047 722 3315 
Q 1072 3584 1716 3584 
Q 2034 3584 2315 3537 
Q 2597 3491 2834 3397 
z
" transform="scale(0.015625)"/>
       <path id="DejaVuSans-5b" d="M 550 4863 
L 1875 4863 
L 1875 4416 
L 1125 4416 
L 1125 -397 
L 1875 -397 
L 1875 -844 
L 550 -844 
L 550 4863 
z
" transform="scale(0.015625)"/>
       <path id="DejaVuSans-64" d="M 2906 2969 
L 2906 4863 
L 3481 4863 
L 3481 0 
L 2906 0 
L 2906 525 
Q 2725 213 2448 61 
Q 2172 -91 1784 -91 
Q 1150 -91 751 415 
Q 353 922 353 1747 
Q 353 2572 751 3078 
Q 1150 3584 1784 3584 
Q 2172 3584 2448 3432 
Q 2725 3281 2906 2969 
z
M 947 1747 
Q 947 1113 1208 752 
Q 1469 391 1925 391 
Q 2381 391 2643 752 
Q 2906 1113 2906 1747 
Q 2906 2381 2643 2742 
Q 2381 3103 1925 3103 
Q 1469 3103 1208 2742 
Q 947 2381 947 1747 
z
" transform="scale(0.015625)"/>
       <path id="DejaVuSans-2f" d="M 1625 4666 
L 2156 4666 
L 531 -594 
L 0 -594 
L 1625 4666 
z
" transform="scale(0.015625)"/>
       <path id="DejaVuSans-5d" d="M 1947 4863 
L 1947 -844 
L 622 -844 
L 622 -397 
L 1369 -397 
L 1369 4416 
L 622 4416 
L 622 4863 
L 1947 4863 
z
" transform="scale(0.015625)"/>
      </defs>
      <use xlink:href="#DejaVuSans-47"/>
      <use xlink:href="#DejaVuSans-79" x="77.490234"/>
      <use xlink:href="#DejaVuSans-72" x="136.669922"/>
      <use xlink:href="#DejaVuSans-6f" x="175.533203"/>
      <use xlink:href="#DejaVuSans-20" x="236.714844"/>
      <use xlink:href="#DejaVuSans-62" x="268.501953"/>
      <use xlink:href="#DejaVuSans-69" x="331.978516"/>
      <use xlink:href="#DejaVuSans-61" x="359.761719"/>
      <use xlink:href="#DejaVuSans-73" x="421.041016"/>
      <use xlink:href="#DejaVuSans-20" x="473.140625"/>
      <use xlink:href="#DejaVuSans-5b" x="504.927734"/>
      <use xlink:href="#DejaVuSans-72" x="543.941406"/>
      <use xlink:href="#DejaVuSans-61" x="585.054688"/>
      <use xlink:href="#DejaVuSans-64" x="646.333984"/>
      <use xlink:href="#DejaVuSans-2f" x="709.810547"/>
      <use xlink:href="#DejaVuSans-73" x="743.501953"/>
      <use xlink:href="#DejaVuSans-5d" x="795.601562"/>
     </g>
    </g>
   </g>
   <g id="line2d_12">
    <path d="M 91.46 115.51575 
L 122.101861 115.60696 
L 122.224551 115.799648 
L 128.236368 115.799648 
L 128.359058 116.226523 
L 134.370875 116.226523 
L 134.493565 115.696031 
L 146.639888 115.712467 
L 146.762578 115.049689 
L 152.774395 115.049689 
L 152.897085 113.300728 
L 158.908901 113.300728 
L 159.031592 115.217189 
L 165.043408 115.217189 
L 165.166098 116.230265 
L 171.177915 116.230265 
L 171.300605 122.213948 
L 177.312422 122.213948 
L 177.435112 121.269659 
L 183.446928 121.269659 
L 183.569618 119.396207 
L 189.581435 119.396207 
L 189.704125 117.814842 
L 195.715942 117.814842 
L 195.838632 112.846142 
L 201.850449 112.846142 
L 201.973139 114.567576 
L 207.984955 114.567576 
L 208.107645 115.42711 
L 214.119462 115.42711 
L 214.242152 109.484501 
L 220.253969 109.484501 
L 220.376659 106.699559 
L 232.522982 106.806311 
L 232.645672 106.894107 
L 238.657489 106.894107 
L 238.780179 106.591512 
L 244.791996 106.591512 
L 244.914686 105.644076 
L 250.926502 105.644076 
L 251.049192 104.832139 
L 257.061009 104.832139 
L 257.183699 100.51337 
L 263.195516 100.51337 
L 263.318206 100.32279 
L 269.330023 100.32279 
L 269.452713 98.870002 
L 275.464529 98.870002 
L 275.587219 98.016349 
L 281.599036 98.016349 
L 281.721726 92.776929 
L 287.733543 92.776929 
L 287.856233 93.009928 
L 293.868049 93.009928 
L 293.99074 95.126965 
L 300.002556 95.126965 
L 300.125246 93.071006 
L 306.137063 93.071006 
L 306.259753 94.671019 
L 312.27157 94.671019 
L 312.39426 93.601961 
L 318.406076 93.601961 
L 318.528766 95.390836 
L 324.540583 95.390836 
L 324.663273 95.234224 
L 330.67509 95.234224 
L 330.79778 93.683197 
L 336.809596 93.683197 
L 336.932287 91.741124 
L 342.944103 91.741124 
L 343.066793 90.64531 
L 349.07861 90.64531 
L 349.2013 90.82579 
L 355.213117 90.82579 
L 355.335807 90.579359 
L 361.347623 90.579359 
L 361.470314 91.020943 
L 367.48213 91.020943 
L 367.60482 90.727857 
L 373.616637 90.727857 
L 373.739327 90.883233 
L 379.751144 90.883233 
L 379.873834 90.42293 
L 385.88565 90.42293 
L 386.00834 89.970883 
L 392.020157 89.970883 
L 392.142847 90.324274 
L 398.154664 90.324274 
L 398.277354 90.077386 
L 410.423677 90.067396 
L 410.546367 90.304407 
L 416.558184 90.304407 
L 416.680874 90.165806 
L 434.961704 90.161614 
L 435.084394 90.052425 
L 447.230718 90.118657 
L 447.353408 90.304894 
L 490.172265 90.384038 
L 490.325627 90.440875 
L 704.88 90.505231 
L 704.88 90.505231 
" clip-path="url(#p894b5b5b6f)" style="fill: none; stroke: #1f77b4; stroke-width: 1.5; stroke-linecap: square"/>
   </g>
   <g id="line2d_13">
    <path d="M 91.46 69.058673 
L 97.594507 69.058673 
L 103.729013 69.058679 
L 109.86352 69.058885 
L 115.998027 69.06049 
L 122.132534 69.067545 
L 128.26704 69.089757 
L 134.401547 69.144874 
L 140.536054 69.257282 
L 146.670561 69.450003 
L 152.805067 69.733611 
L 158.939574 70.101567 
L 165.074081 70.537569 
L 171.208587 71.026778 
L 177.343094 71.562687 
L 183.477601 72.147671 
L 189.612108 72.7909 
L 195.746614 73.505501 
L 201.881121 74.306091 
L 208.015628 75.206646 
L 214.150135 76.218607 
L 220.284641 77.346888 
L 226.419148 78.588858 
L 232.553655 79.932755 
L 238.688161 81.358139 
L 244.822668 82.837553 
L 250.957175 84.338663 
L 257.091682 85.827387 
L 263.226188 87.271368 
L 269.360695 88.643062 
L 275.495202 89.921212 
L 281.629708 91.09139 
L 287.764215 92.145621 
L 293.898722 93.081777 
L 300.033229 93.902622 
L 306.167735 94.61431 
L 312.302242 95.224994 
L 318.436749 95.744224 
L 324.571256 96.182108 
L 330.705762 96.548674 
L 336.840269 96.853351 
L 342.974776 97.104826 
L 349.109282 97.310973 
L 355.243789 97.478886 
L 361.378296 97.614785 
L 367.512803 97.724073 
L 373.647309 97.811367 
L 379.781816 97.880606 
L 385.916323 97.935116 
L 392.05083 97.977676 
L 398.185336 98.010612 
L 404.319843 98.035855 
L 410.45435 98.055008 
L 416.588856 98.069381 
L 422.723363 98.080043 
L 428.85787 98.087856 
L 434.992377 98.093512 
L 441.126883 98.097557 
L 447.26139 98.10042 
L 453.395897 98.102428 
L 459.530404 98.103834 
L 465.66491 98.104825 
L 471.799417 98.105541 
L 477.933924 98.10608 
L 484.06843 98.106511 
L 490.202937 98.10688 
L 496.337444 98.107216 
L 502.471951 98.107535 
L 508.606457 98.107843 
L 514.740964 98.108142 
L 520.875471 98.10843 
L 527.009977 98.108704 
L 533.144484 98.108961 
L 539.278991 98.109199 
L 545.413498 98.109417 
L 551.548004 98.109613 
L 557.682511 98.109786 
L 563.817018 98.109939 
L 569.951525 98.110072 
L 576.086031 98.110188 
L 582.220538 98.110287 
L 588.355045 98.110373 
L 594.489551 98.110447 
L 600.624058 98.110512 
L 606.758565 98.110569 
L 612.893072 98.11062 
L 619.027578 98.110667 
L 625.162085 98.11071 
L 631.296592 98.110751 
L 637.431099 98.110791 
L 643.565605 98.110832 
L 649.700112 98.110875 
L 655.834619 98.11092 
L 661.969125 98.110968 
L 668.103632 98.11102 
L 674.238139 98.111076 
L 680.372646 98.111136 
L 686.507152 98.111202 
L 692.641659 98.111274 
L 698.776166 98.111351 
" clip-path="url(#p894b5b5b6f)" style="fill: none; stroke-dasharray: 5.55,2.4; stroke-dashoffset: 0; stroke: #ff0000; stroke-width: 1.5"/>
   </g>
   <g id="line2d_14">
    <path d="M 91.46 161.972826 
L 97.594507 161.972826 
L 103.729013 161.97282 
L 109.86352 161.972614 
L 115.998027 161.971009 
L 122.132534 161.963954 
L 128.26704 161.941742 
L 134.401547 161.886625 
L 140.536054 161.774217 
L 146.670561 161.581496 
L 152.805067 161.297888 
L 158.939574 160.929932 
L 165.074081 160.49393 
L 171.208587 160.004721 
L 177.343094 159.468812 
L 183.477601 158.883828 
L 189.612108 158.240599 
L 195.746614 157.525998 
L 201.881121 156.725408 
L 208.015628 155.824853 
L 214.150135 154.812892 
L 220.284641 153.684611 
L 226.419148 152.442641 
L 232.553655 151.098744 
L 238.688161 149.67336 
L 244.822668 148.193946 
L 250.957175 146.692836 
L 257.091682 145.204112 
L 263.226188 143.760131 
L 269.360695 142.388437 
L 275.495202 141.110287 
L 281.629708 139.940109 
L 287.764215 138.885878 
L 293.898722 137.949722 
L 300.033229 137.128877 
L 306.167735 136.417189 
L 312.302242 135.806505 
L 318.436749 135.287275 
L 324.571256 134.849391 
L 330.705762 134.482825 
L 336.840269 134.178148 
L 342.974776 133.926673 
L 349.109282 133.720526 
L 355.243789 133.552613 
L 361.378296 133.416714 
L 367.512803 133.307426 
L 373.647309 133.220132 
L 379.781816 133.150893 
L 385.916323 133.096383 
L 392.05083 133.053823 
L 398.185336 133.020887 
L 404.319843 132.995644 
L 410.45435 132.976491 
L 416.588856 132.962118 
L 422.723363 132.951456 
L 428.85787 132.943643 
L 434.992377 132.937987 
L 441.126883 132.933942 
L 447.26139 132.931079 
L 453.395897 132.929071 
L 459.530404 132.927665 
L 465.66491 132.926674 
L 471.799417 132.925958 
L 477.933924 132.925419 
L 484.06843 132.924988 
L 490.202937 132.924619 
L 496.337444 132.924283 
L 502.471951 132.923964 
L 508.606457 132.923656 
L 514.740964 132.923357 
L 520.875471 132.923069 
L 527.009977 132.922795 
L 533.144484 132.922538 
L 539.278991 132.9223 
L 545.413498 132.922082 
L 551.548004 132.921886 
L 557.682511 132.921713 
L 563.817018 132.92156 
L 569.951525 132.921427 
L 576.086031 132.921311 
L 582.220538 132.921212 
L 588.355045 132.921126 
L 594.489551 132.921052 
L 600.624058 132.920987 
L 606.758565 132.92093 
L 612.893072 132.920879 
L 619.027578 132.920832 
L 625.162085 132.920789 
L 631.296592 132.920748 
L 637.431099 132.920708 
L 643.565605 132.920667 
L 649.700112 132.920624 
L 655.834619 132.920579 
L 661.969125 132.920531 
L 668.103632 132.920479 
L 674.238139 132.920423 
L 680.372646 132.920363 
L 686.507152 132.920297 
L 692.641659 132.920225 
L 698.776166 132.920148 
" clip-path="url(#p894b5b5b6f)" style="fill: none; stroke-dasharray: 5.55,2.4; stroke-dashoffset: 0; stroke: #ff0000; stroke-width: 1.5"/>
   </g>
   <g id="patch_3">
    <path d="M 91.46 184.231499 
L 91.46 46.8 
" style="fill: none; stroke: #000000; stroke-width: 0.8; stroke-linejoin: miter; stroke-linecap: square"/>
   </g>
   <g id="patch_4">
    <path d="M 704.88 184.231499 
L 704.88 46.8 
" style="fill: none; stroke: #000000; stroke-width: 0.8; stroke-linejoin: miter; stroke-linecap: square"/>
   </g>
   <g id="patch_5">
    <path d="M 91.46 184.231499 
L 704.88 184.231499 
" style="fill: none; stroke: #000000; stroke-width: 0.8; stroke-linejoin: miter; stroke-linecap: square"/>
   </g>
   <g id="patch_6">
    <path d="M 91.46 46.8 
L 704.88 46.8 
" style="fill: none; stroke: #000000; stroke-width: 0.8; stroke-linejoin: miter; stroke-linecap: square"/>
   </g>
  </g>
  <g id="axes_2">
   <g id="patch_7">
    <path d="M 91.46 344.994333 
L 704.88 344.994333 
L 704.88 207.562834 
L 91.46 207.562834 
z
" style="fill: #ffffff"/>
   </g>
   <g id="matplotlib.axis_3">
    <g id="xtick_9">
     <g id="line2d_15">
      <g>
       <use xlink:href="#m6a93af5353" x="91.46" y="344.994333" style="stroke: #000000; stroke-width: 0.8"/>
      </g>
     </g>
    </g>
    <g id="xtick_10">
     <g id="line2d_16">
      <g>
       <use xlink:href="#m6a93af5353" x="168.141334" y="344.994333" style="stroke: #000000; stroke-width: 0.8"/>
      </g>
     </g>
    </g>
    <g id="xtick_11">
     <g id="line2d_17">
      <g>
       <use xlink:href="#m6a93af5353" x="244.822668" y="344.994333" style="stroke: #000000; stroke-width: 0.8"/>
      </g>
     </g>
    </g>
    <g id="xtick_12">
     <g id="line2d_18">
      <g>
       <use xlink:href="#m6a93af5353" x="321.504002" y="344.994333" style="stroke: #000000; stroke-width: 0.8"/>
      </g>
     </g>
    </g>
    <g id="xtick_13">
     <g id="line2d_19">
      <g>
       <use xlink:href="#m6a93af5353" x="398.185336" y="344.994333" style="stroke: #000000; stroke-width: 0.8"/>
      </g>
     </g>
    </g>
    <g id="xtick_14">
     <g id="line2d_20">
      <g>
       <use xlink:href="#m6a93af5353" x="474.86667" y="344.994333" style="stroke: #000000; stroke-width: 0.8"/>
      </g>
     </g>
    </g>
    <g id="xtick_15">
     <g id="line2d_21">
      <g>
       <use xlink:href="#m6a93af5353" x="551.548004" y="344.994333" style="stroke: #000000; stroke-width: 0.8"/>
      </g>
     </g>
    </g>
    <g id="xtick_16">
     <g id="line2d_22">
      <g>
       <use xlink:href="#m6a93af5353" x="628.229338" y="344.994333" style="stroke: #000000; stroke-width: 0.8"/>
      </g>
     </g>
    </g>
   </g>
   <g id="matplotlib.axis_4">
    <g id="ytick_4">
     <g id="line2d_23">
      <g>
       <use xlink:href="#m47c9c51071" x="91.46" y="344.209044" style="stroke: #000000; stroke-width: 0.8"/>
      </g>
     </g>
     <g id="text_5">
      <!-- −0.002 -->
      <g transform="translate(32.649063 349.527951) scale(0.14 -0.14)">
       <use xlink:href="#DejaVuSans-2212"/>
       <use xlink:href="#DejaVuSans-30" x="83.789062"/>
       <use xlink:href="#DejaVuSans-2e" x="147.412109"/>
       <use xlink:href="#DejaVuSans-30" x="179.199219"/>
       <use xlink:href="#DejaVuSans-30" x="242.822266"/>
       <use xlink:href="#DejaVuSans-32" x="306.445312"/>
      </g>
     </g>
    </g>
    <g id="ytick_5">
     <g id="line2d_24">
      <g>
       <use xlink:href="#m47c9c51071" x="91.46" y="310.243814" style="stroke: #000000; stroke-width: 0.8"/>
      </g>
     </g>
     <g id="text_6">
      <!-- −0.001 -->
      <g transform="translate(32.649063 315.56272) scale(0.14 -0.14)">
       <defs>
        <path id="DejaVuSans-31" d="M 794 531 
L 1825 531 
L 1825 4091 
L 703 3866 
L 703 4441 
L 1819 4666 
L 2450 4666 
L 2450 531 
L 3481 531 
L 3481 0 
L 794 0 
L 794 531 
z
" transform="scale(0.015625)"/>
       </defs>
       <use xlink:href="#DejaVuSans-2212"/>
       <use xlink:href="#DejaVuSans-30" x="83.789062"/>
       <use xlink:href="#DejaVuSans-2e" x="147.412109"/>
       <use xlink:href="#DejaVuSans-30" x="179.199219"/>
       <use xlink:href="#DejaVuSans-30" x="242.822266"/>
       <use xlink:href="#DejaVuSans-31" x="306.445312"/>
      </g>
     </g>
    </g>
    <g id="ytick_6">
     <g id="line2d_25">
      <g>
       <use xlink:href="#m47c9c51071" x="91.46" y="276.278583" style="stroke: #000000; stroke-width: 0.8"/>
      </g>
     </g>
     <g id="text_7">
      <!-- 0.000 -->
      <g transform="translate(44.380625 281.597489) scale(0.14 -0.14)">
       <use xlink:href="#DejaVuSans-30"/>
       <use xlink:href="#DejaVuSans-2e" x="63.623047"/>
       <use xlink:href="#DejaVuSans-30" x="95.410156"/>
       <use xlink:href="#DejaVuSans-30" x="159.033203"/>
       <use xlink:href="#DejaVuSans-30" x="222.65625"/>
      </g>
     </g>
    </g>
    <g id="ytick_7">
     <g id="line2d_26">
      <g>
       <use xlink:href="#m47c9c51071" x="91.46" y="242.313353" style="stroke: #000000; stroke-width: 0.8"/>
      </g>
     </g>
     <g id="text_8">
      <!-- 0.001 -->
      <g transform="translate(44.380625 247.632259) scale(0.14 -0.14)">
       <use xlink:href="#DejaVuSans-30"/>
       <use xlink:href="#DejaVuSans-2e" x="63.623047"/>
       <use xlink:href="#DejaVuSans-30" x="95.410156"/>
       <use xlink:href="#DejaVuSans-30" x="159.033203"/>
       <use xlink:href="#DejaVuSans-31" x="222.65625"/>
      </g>
     </g>
    </g>
    <g id="ytick_8">
     <g id="line2d_27">
      <g>
       <use xlink:href="#m47c9c51071" x="91.46" y="208.348122" style="stroke: #000000; stroke-width: 0.8"/>
      </g>
     </g>
     <g id="text_9">
      <!-- 0.002 -->
      <g transform="translate(44.380625 213.667028) scale(0.14 -0.14)">
       <use xlink:href="#DejaVuSans-30"/>
       <use xlink:href="#DejaVuSans-2e" x="63.623047"/>
       <use xlink:href="#DejaVuSans-30" x="95.410156"/>
       <use xlink:href="#DejaVuSans-30" x="159.033203"/>
       <use xlink:href="#DejaVuSans-32" x="222.65625"/>
      </g>
     </g>
    </g>
    <g id="text_10">
     <!-- Gyro [rad/s] -->
     <g transform="translate(25.7375 318.151708) rotate(-90) scale(0.14 -0.14)">
      <use xlink:href="#DejaVuSans-47"/>
      <use xlink:href="#DejaVuSans-79" x="77.490234"/>
      <use xlink:href="#DejaVuSans-72" x="136.669922"/>
      <use xlink:href="#DejaVuSans-6f" x="175.533203"/>
      <use xlink:href="#DejaVuSans-20" x="236.714844"/>
      <use xlink:href="#DejaVuSans-5b" x="268.501953"/>
      <use xlink:href="#DejaVuSans-72" x="307.515625"/>
      <use xlink:href="#DejaVuSans-61" x="348.628906"/>
      <use xlink:href="#DejaVuSans-64" x="409.908203"/>
      <use xlink:href="#DejaVuSans-2f" x="473.384766"/>
      <use xlink:href="#DejaVuSans-73" x="507.076172"/>
      <use xlink:href="#DejaVuSans-5d" x="559.175781"/>
     </g>
    </g>
   </g>
   <g id="line2d_28">
    <path d="M 91.46 276.278583 
L 152.774395 276.224044 
L 152.897085 276.030843 
L 158.908901 276.031004 
L 159.031592 276.255632 
L 165.043408 276.255647 
L 165.166098 276.377113 
L 171.177915 276.377049 
L 171.300605 277.147536 
L 177.312422 277.146968 
L 177.435112 277.025829 
L 183.446928 277.025341 
L 183.569618 276.750282 
L 189.581435 276.749974 
L 189.704125 276.507568 
L 195.715942 276.507418 
L 195.838632 275.696806 
L 201.850449 275.697186 
L 201.973139 275.978248 
L 207.984955 275.978444 
L 208.107645 276.128516 
L 214.119462 276.128614 
L 214.242152 274.950299 
L 220.253969 274.951166 
L 220.376659 274.399022 
L 244.791996 274.360604 
L 244.914686 274.031479 
L 250.926502 274.032947 
L 251.049192 273.888096 
L 257.061009 273.889657 
L 257.183699 272.684174 
L 269.330023 272.615492 
L 269.452713 272.167093 
L 275.464529 272.169778 
L 275.587219 271.978642 
L 281.599036 271.98145 
L 281.721726 269.903697 
L 287.733543 269.90786 
L 287.856233 270.04179 
L 293.868049 270.045863 
L 293.99074 270.784174 
L 300.002556 270.787762 
L 300.125246 269.81809 
L 306.137063 269.822309 
L 306.259753 270.214663 
L 312.27157 270.218623 
L 312.39426 269.670516 
L 318.406076 269.674832 
L 318.528766 270.758771 
L 324.540583 270.762376 
L 324.663273 270.246166 
L 330.67509 270.250106 
L 330.79778 269.258186 
L 336.809596 269.262771 
L 336.932287 267.241279 
L 342.944103 267.247182 
L 343.066793 265.502995 
L 349.07861 265.510032 
L 349.2013 266.328158 
L 355.213117 266.334656 
L 355.335807 265.728518 
L 361.347623 265.735409 
L 361.470314 266.014713 
L 367.48213 266.021417 
L 367.60482 265.025641 
L 373.616637 265.03299 
L 373.739327 266.026369 
L 379.751144 266.033065 
L 379.873834 265.85173 
L 385.88565 265.85854 
L 386.00834 264.250665 
L 392.020157 264.258521 
L 392.142847 264.692255 
L 398.154664 264.699822 
L 398.277354 263.909489 
L 404.28917 263.917567 
L 404.411861 263.777137 
L 410.423677 263.785302 
L 410.546367 265.43366 
L 416.558184 265.440743 
L 416.680874 265.005298 
L 422.692691 265.012661 
L 422.815381 264.793303 
L 428.827197 264.800804 
L 428.949887 266.5948 
L 434.961704 266.601125 
L 435.084394 264.337909 
L 441.096211 264.345707 
L 441.218901 265.20819 
L 447.230718 265.21542 
L 447.353408 268.910282 
L 459.499731 268.820247 
L 459.622421 271.43863 
L 465.634238 271.441791 
L 465.756928 270.527244 
L 471.768744 270.531 
L 471.891435 269.071978 
L 477.903251 269.076684 
L 478.025941 271.475672 
L 484.037758 271.478809 
L 484.160448 271.670173 
L 490.172265 271.673182 
L 490.294955 273.47253 
L 496.306771 273.474363 
L 496.429461 273.292344 
L 502.441278 273.294294 
L 502.563968 272.792706 
L 508.575785 272.794983 
L 508.698475 275.321824 
L 514.710292 275.322449 
L 514.832982 276.834854 
L 520.844798 276.834491 
L 520.967488 279.231792 
L 526.979305 279.229863 
L 527.101995 282.247962 
L 533.113812 282.244063 
L 533.236502 281.27039 
L 539.248318 281.26713 
L 539.371009 282.251786 
L 545.382825 282.247885 
L 545.505515 276.756988 
L 551.517332 276.756675 
L 551.640022 277.679244 
L 557.651839 277.678329 
L 557.774529 278.020922 
L 563.786345 278.019784 
L 563.909035 276.752334 
L 569.920852 276.752025 
L 570.043542 277.841542 
L 576.055359 277.840521 
L 576.178049 273.803993 
L 582.189865 273.805609 
L 582.312556 275.428109 
L 588.324372 275.428665 
L 588.447062 278.363397 
L 594.458879 278.362035 
L 594.581569 282.617804 
L 600.593386 282.613664 
L 600.716076 282.045804 
L 606.727892 282.042038 
L 606.850583 281.264739 
L 612.862399 281.261483 
L 612.985089 281.662413 
L 618.996906 281.658897 
L 619.119596 284.641003 
L 625.131413 284.635542 
L 625.254103 285.584155 
L 631.265919 285.578077 
L 631.388609 284.378167 
L 637.400426 284.372877 
L 637.523116 284.858227 
L 643.534933 284.852623 
L 643.657623 285.292659 
L 649.669439 285.286772 
L 649.79213 288.173107 
L 655.803946 288.165338 
L 655.926636 287.150798 
L 661.938453 287.143697 
L 662.061143 285.592429 
L 668.07296 285.586346 
L 668.19565 286.091954 
L 674.207466 286.085545 
L 674.330157 285.526495 
L 680.341973 285.520455 
L 680.464663 285.941947 
L 686.47648 285.935636 
L 686.59917 287.670805 
L 692.610987 287.663365 
L 692.733677 288.554149 
L 698.745493 288.546132 
L 698.868183 287.191765 
L 704.88 287.184638 
L 704.88 287.184638 
" clip-path="url(#p68eb89f57d)" style="fill: none; stroke: #1f77b4; stroke-width: 1.5; stroke-linecap: square"/>
   </g>
   <g id="line2d_29">
    <path d="M 91.46 258.49443 
L 97.594507 257.357782 
L 103.729013 256.287041 
L 109.86352 255.272129 
L 115.998027 254.305327 
L 122.132534 253.380615 
L 128.26704 252.493273 
L 134.401547 251.639639 
L 140.536054 250.816886 
L 146.670561 250.022743 
L 152.805067 249.255166 
L 158.939574 248.512146 
L 165.074081 247.791782 
L 171.208587 247.092455 
L 177.343094 246.412961 
L 183.477601 245.752507 
L 189.612108 245.110681 
L 195.746614 244.487373 
L 201.881121 243.8827 
L 208.015628 243.296921 
L 214.150135 242.73033 
L 220.284641 242.183029 
L 226.419148 241.654829 
L 232.553655 241.145109 
L 238.688161 240.652799 
L 244.822668 240.176446 
L 250.957175 239.714311 
L 257.091682 239.264545 
L 263.226188 238.825391 
L 269.360695 238.395386 
L 275.495202 237.973428 
L 281.629708 237.558817 
L 287.764215 237.151224 
L 293.898722 236.750664 
L 300.033229 236.357476 
L 306.167735 235.97222 
L 312.302242 235.595576 
L 318.436749 235.22837 
L 324.571256 234.871536 
L 330.705762 234.526057 
L 336.840269 234.192866 
L 342.974776 233.87286 
L 349.109282 233.566881 
L 355.243789 233.275801 
L 361.378296 233.000413 
L 367.512803 232.741433 
L 373.647309 232.499413 
L 379.781816 232.274758 
L 385.916323 232.067695 
L 392.05083 231.878196 
L 398.185336 231.70605 
L 404.319843 231.550864 
L 410.45435 231.412111 
L 416.588856 231.289112 
L 422.723363 231.181068 
L 428.85787 231.087032 
L 434.992377 231.006015 
L 441.126883 230.936991 
L 447.26139 230.878845 
L 453.395897 230.830458 
L 459.530404 230.79077 
L 465.66491 230.758858 
L 471.799417 230.733808 
L 477.933924 230.714674 
L 484.06843 230.70068 
L 490.202937 230.691232 
L 496.337444 230.685816 
L 502.471951 230.683924 
L 508.606457 230.684986 
L 514.740964 230.688416 
L 520.875471 230.693785 
L 527.009977 230.70073 
L 533.144484 230.708939 
L 539.278991 230.718113 
L 545.413498 230.727956 
L 551.548004 230.73809 
L 557.682511 230.748113 
L 563.817018 230.757826 
L 569.951525 230.767175 
L 576.086031 230.776258 
L 582.220538 230.785228 
L 588.355045 230.794219 
L 594.489551 230.803442 
L 600.624058 230.813086 
L 606.758565 230.823199 
L 612.893072 230.833591 
L 619.027578 230.844006 
L 625.162085 230.854156 
L 631.296592 230.863883 
L 637.431099 230.87299 
L 643.565605 230.881259 
L 649.700112 230.888598 
L 655.834619 230.89504 
L 661.969125 230.900563 
L 668.103632 230.905189 
L 674.238139 230.909016 
L 680.372646 230.912151 
L 686.507152 230.91466 
L 692.641659 230.916697 
L 698.776166 230.918478 
" clip-path="url(#p68eb89f57d)" style="fill: none; stroke-dasharray: 5.55,2.4; stroke-dashoffset: 0; stroke: #ff0000; stroke-width: 1.5"/>
   </g>
   <g id="line2d_30">
    <path d="M 91.46 294.062736 
L 97.594507 295.199385 
L 103.729013 296.270125 
L 109.86352 297.285038 
L 115.998027 298.25184 
L 122.132534 299.176552 
L 128.26704 300.063893 
L 134.401547 300.917528 
L 140.536054 301.74028 
L 146.670561 302.534423 
L 152.805067 303.302001 
L 158.939574 304.04502 
L 165.074081 304.765385 
L 171.208587 305.464711 
L 177.343094 306.144206 
L 183.477601 306.804659 
L 189.612108 307.446485 
L 195.746614 308.069794 
L 201.881121 308.674466 
L 208.015628 309.260245 
L 214.150135 309.826836 
L 220.284641 310.374137 
L 226.419148 310.902338 
L 232.553655 311.412058 
L 238.688161 311.904367 
L 244.822668 312.380721 
L 250.957175 312.842856 
L 257.091682 313.292622 
L 263.226188 313.731775 
L 269.360695 314.16178 
L 275.495202 314.583738 
L 281.629708 314.998349 
L 287.764215 315.405943 
L 293.898722 315.806502 
L 300.033229 316.199691 
L 306.167735 316.584946 
L 312.302242 316.961591 
L 318.436749 317.328797 
L 324.571256 317.68563 
L 330.705762 318.031109 
L 336.840269 318.3643 
L 342.974776 318.684307 
L 349.109282 318.990285 
L 355.243789 319.281365 
L 361.378296 319.556753 
L 367.512803 319.815733 
L 373.647309 320.057753 
L 379.781816 320.282409 
L 385.916323 320.489472 
L 392.05083 320.678971 
L 398.185336 320.851116 
L 404.319843 321.006303 
L 410.45435 321.145056 
L 416.588856 321.268055 
L 422.723363 321.376099 
L 428.85787 321.470135 
L 434.992377 321.551151 
L 441.126883 321.620175 
L 447.26139 321.678321 
L 453.395897 321.726708 
L 459.530404 321.766397 
L 465.66491 321.798308 
L 471.799417 321.823358 
L 477.933924 321.842492 
L 484.06843 321.856487 
L 490.202937 321.865934 
L 496.337444 321.87135 
L 502.471951 321.873242 
L 508.606457 321.87218 
L 514.740964 321.868751 
L 520.875471 321.863381 
L 527.009977 321.856436 
L 533.144484 321.848228 
L 539.278991 321.839054 
L 545.413498 321.82921 
L 551.548004 321.819076 
L 557.682511 321.809053 
L 563.817018 321.799341 
L 569.951525 321.789991 
L 576.086031 321.780909 
L 582.220538 321.771938 
L 588.355045 321.762947 
L 594.489551 321.753725 
L 600.624058 321.74408 
L 606.758565 321.733967 
L 612.893072 321.723575 
L 619.027578 321.71316 
L 625.162085 321.70301 
L 631.296592 321.693284 
L 637.431099 321.684176 
L 643.565605 321.675908 
L 649.700112 321.668569 
L 655.834619 321.662126 
L 661.969125 321.656603 
L 668.103632 321.651978 
L 674.238139 321.64815 
L 680.372646 321.645015 
L 686.507152 321.642507 
L 692.641659 321.640469 
L 698.776166 321.638689 
" clip-path="url(#p68eb89f57d)" style="fill: none; stroke-dasharray: 5.55,2.4; stroke-dashoffset: 0; stroke: #ff0000; stroke-width: 1.5"/>
   </g>
   <g id="patch_8">
    <path d="M 91.46 344.994333 
L 91.46 207.562834 
" style="fill: none; stroke: #000000; stroke-width: 0.8; stroke-linejoin: miter; stroke-linecap: square"/>
   </g>
   <g id="patch_9">
    <path d="M 704.88 344.994333 
L 704.88 207.562834 
" style="fill: none; stroke: #000000; stroke-width: 0.8; stroke-linejoin: miter; stroke-linecap: square"/>
   </g>
   <g id="patch_10">
    <path d="M 91.46 344.994333 
L 704.88 344.994333 
" style="fill: none; stroke: #000000; stroke-width: 0.8; stroke-linejoin: miter; stroke-linecap: square"/>
   </g>
   <g id="patch_11">
    <path d="M 91.46 207.562834 
L 704.88 207.562834 
" style="fill: none; stroke: #000000; stroke-width: 0.8; stroke-linejoin: miter; stroke-linecap: square"/>
   </g>
  </g>
  <g id="axes_3">
   <g id="patch_12">
    <path d="M 91.46 505.757166 
L 704.88 505.757166 
L 704.88 368.325667 
L 91.46 368.325667 
z
" style="fill: #ffffff"/>
   </g>
   <g id="matplotlib.axis_5">
    <g id="xtick_17">
     <g id="line2d_31">
      <g>
       <use xlink:href="#m6a93af5353" x="91.46" y="505.757166" style="stroke: #000000; stroke-width: 0.8"/>
      </g>
     </g>
    </g>
    <g id="xtick_18">
     <g id="line2d_32">
      <g>
       <use xlink:href="#m6a93af5353" x="168.141334" y="505.757166" style="stroke: #000000; stroke-width: 0.8"/>
      </g>
     </g>
    </g>
    <g id="xtick_19">
     <g id="line2d_33">
      <g>
       <use xlink:href="#m6a93af5353" x="244.822668" y="505.757166" style="stroke: #000000; stroke-width: 0.8"/>
      </g>
     </g>
    </g>
    <g id="xtick_20">
     <g id="line2d_34">
      <g>
       <use xlink:href="#m6a93af5353" x="321.504002" y="505.757166" style="stroke: #000000; stroke-width: 0.8"/>
      </g>
     </g>
    </g>
    <g id="xtick_21">
     <g id="line2d_35">
      <g>
       <use xlink:href="#m6a93af5353" x="398.185336" y="505.757166" style="stroke: #000000; stroke-width: 0.8"/>
      </g>
     </g>
    </g>
    <g id="xtick_22">
     <g id="line2d_36">
      <g>
       <use xlink:href="#m6a93af5353" x="474.86667" y="505.757166" style="stroke: #000000; stroke-width: 0.8"/>
      </g>
     </g>
    </g>
    <g id="xtick_23">
     <g id="line2d_37">
      <g>
       <use xlink:href="#m6a93af5353" x="551.548004" y="505.757166" style="stroke: #000000; stroke-width: 0.8"/>
      </g>
     </g>
    </g>
    <g id="xtick_24">
     <g id="line2d_38">
      <g>
       <use xlink:href="#m6a93af5353" x="628.229338" y="505.757166" style="stroke: #000000; stroke-width: 0.8"/>
      </g>
     </g>
    </g>
   </g>
   <g id="matplotlib.axis_6">
    <g id="ytick_9">
     <g id="line2d_39">
      <g>
       <use xlink:href="#m47c9c51071" x="91.46" y="492.554528" style="stroke: #000000; stroke-width: 0.8"/>
      </g>
     </g>
     <g id="text_11">
      <!-- −0.02 -->
      <g transform="translate(41.556563 497.873434) scale(0.14 -0.14)">
       <use xlink:href="#DejaVuSans-2212"/>
       <use xlink:href="#DejaVuSans-30" x="83.789062"/>
       <use xlink:href="#DejaVuSans-2e" x="147.412109"/>
       <use xlink:href="#DejaVuSans-30" x="179.199219"/>
       <use xlink:href="#DejaVuSans-32" x="242.822266"/>
      </g>
     </g>
    </g>
    <g id="ytick_10">
     <g id="line2d_40">
      <g>
       <use xlink:href="#m47c9c51071" x="91.46" y="464.797972" style="stroke: #000000; stroke-width: 0.8"/>
      </g>
     </g>
     <g id="text_12">
      <!-- −0.01 -->
      <g transform="translate(41.556563 470.116879) scale(0.14 -0.14)">
       <use xlink:href="#DejaVuSans-2212"/>
       <use xlink:href="#DejaVuSans-30" x="83.789062"/>
       <use xlink:href="#DejaVuSans-2e" x="147.412109"/>
       <use xlink:href="#DejaVuSans-30" x="179.199219"/>
       <use xlink:href="#DejaVuSans-31" x="242.822266"/>
      </g>
     </g>
    </g>
    <g id="ytick_11">
     <g id="line2d_41">
      <g>
       <use xlink:href="#m47c9c51071" x="91.46" y="437.041417" style="stroke: #000000; stroke-width: 0.8"/>
      </g>
     </g>
     <g id="text_13">
      <!-- 0.00 -->
      <g transform="translate(53.288125 442.360323) scale(0.14 -0.14)">
       <use xlink:href="#DejaVuSans-30"/>
       <use xlink:href="#DejaVuSans-2e" x="63.623047"/>
       <use xlink:href="#DejaVuSans-30" x="95.410156"/>
       <use xlink:href="#DejaVuSans-30" x="159.033203"/>
      </g>
     </g>
    </g>
    <g id="ytick_12">
     <g id="line2d_42">
      <g>
       <use xlink:href="#m47c9c51071" x="91.46" y="409.284861" style="stroke: #000000; stroke-width: 0.8"/>
      </g>
     </g>
     <g id="text_14">
      <!-- 0.01 -->
      <g transform="translate(53.288125 414.603768) scale(0.14 -0.14)">
       <use xlink:href="#DejaVuSans-30"/>
       <use xlink:href="#DejaVuSans-2e" x="63.623047"/>
       <use xlink:href="#DejaVuSans-30" x="95.410156"/>
       <use xlink:href="#DejaVuSans-31" x="159.033203"/>
      </g>
     </g>
    </g>
    <g id="ytick_13">
     <g id="line2d_43">
      <g>
       <use xlink:href="#m47c9c51071" x="91.46" y="381.528306" style="stroke: #000000; stroke-width: 0.8"/>
      </g>
     </g>
     <g id="text_15">
      <!-- 0.02 -->
      <g transform="translate(53.288125 386.847212) scale(0.14 -0.14)">
       <use xlink:href="#DejaVuSans-30"/>
       <use xlink:href="#DejaVuSans-2e" x="63.623047"/>
       <use xlink:href="#DejaVuSans-30" x="95.410156"/>
       <use xlink:href="#DejaVuSans-32" x="159.033203"/>
      </g>
     </g>
    </g>
    <g id="text_16">
     <!-- Acc N [m/s²] -->
     <g transform="translate(34.645 480.183292) rotate(-90) scale(0.14 -0.14)">
      <defs>
       <path id="DejaVuSans-41" d="M 2188 4044 
L 1331 1722 
L 3047 1722 
L 2188 4044 
z
M 1831 4666 
L 2547 4666 
L 4325 0 
L 3669 0 
L 3244 1197 
L 1141 1197 
L 716 0 
L 50 0 
L 1831 4666 
z
" transform="scale(0.015625)"/>
       <path id="DejaVuSans-63" d="M 3122 3366 
L 3122 2828 
Q 2878 2963 2633 3030 
Q 2388 3097 2138 3097 
Q 1578 3097 1268 2742 
Q 959 2388 959 1747 
Q 959 1106 1268 751 
Q 1578 397 2138 397 
Q 2388 397 2633 464 
Q 2878 531 3122 666 
L 3122 134 
Q 2881 22 2623 -34 
Q 2366 -91 2075 -91 
Q 1284 -91 818 406 
Q 353 903 353 1747 
Q 353 2603 823 3093 
Q 1294 3584 2113 3584 
Q 2378 3584 2631 3529 
Q 2884 3475 3122 3366 
z
" transform="scale(0.015625)"/>
       <path id="DejaVuSans-4e" d="M 628 4666 
L 1478 4666 
L 3547 763 
L 3547 4666 
L 4159 4666 
L 4159 0 
L 3309 0 
L 1241 3903 
L 1241 0 
L 628 0 
L 628 4666 
z
" transform="scale(0.015625)"/>
       <path id="DejaVuSans-6d" d="M 3328 2828 
Q 3544 3216 3844 3400 
Q 4144 3584 4550 3584 
Q 5097 3584 5394 3201 
Q 5691 2819 5691 2113 
L 5691 0 
L 5113 0 
L 5113 2094 
Q 5113 2597 4934 2840 
Q 4756 3084 4391 3084 
Q 3944 3084 3684 2787 
Q 3425 2491 3425 1978 
L 3425 0 
L 2847 0 
L 2847 2094 
Q 2847 2600 2669 2842 
Q 2491 3084 2119 3084 
Q 1678 3084 1418 2786 
Q 1159 2488 1159 1978 
L 1159 0 
L 581 0 
L 581 3500 
L 1159 3500 
L 1159 2956 
Q 1356 3278 1631 3431 
Q 1906 3584 2284 3584 
Q 2666 3584 2933 3390 
Q 3200 3197 3328 2828 
z
" transform="scale(0.015625)"/>
       <path id="DejaVuSans-b2" d="M 838 2444 
L 2163 2444 
L 2163 2088 
L 294 2088 
L 294 2431 
Q 400 2528 597 2703 
Q 1672 3656 1672 3950 
Q 1672 4156 1509 4282 
Q 1347 4409 1081 4409 
Q 919 4409 728 4354 
Q 538 4300 313 4191 
L 313 4575 
Q 553 4663 761 4706 
Q 969 4750 1147 4750 
Q 1600 4750 1872 4544 
Q 2144 4338 2144 4000 
Q 2144 3566 1109 2678 
Q 934 2528 838 2444 
z
" transform="scale(0.015625)"/>
      </defs>
      <use xlink:href="#DejaVuSans-41"/>
      <use xlink:href="#DejaVuSans-63" x="66.658203"/>
      <use xlink:href="#DejaVuSans-63" x="121.638672"/>
      <use xlink:href="#DejaVuSans-20" x="176.619141"/>
      <use xlink:href="#DejaVuSans-4e" x="208.40625"/>
      <use xlink:href="#DejaVuSans-20" x="283.210938"/>
      <use xlink:href="#DejaVuSans-5b" x="314.998047"/>
      <use xlink:href="#DejaVuSans-6d" x="354.011719"/>
      <use xlink:href="#DejaVuSans-2f" x="451.423828"/>
      <use xlink:href="#DejaVuSans-73" x="485.115234"/>
      <use xlink:href="#DejaVuSans-b2" x="537.214844"/>
      <use xlink:href="#DejaVuSans-5d" x="577.302734"/>
     </g>
    </g>
   </g>
   <g id="line2d_44">
    <path d="M 91.46 437.041417 
L 122.101861 436.974885 
L 122.224551 436.856834 
L 128.236368 436.856894 
L 128.359058 436.626711 
L 134.370875 436.626846 
L 134.493565 436.872266 
L 146.639888 436.879428 
L 146.762578 437.119502 
L 152.774395 437.119476 
L 152.897085 437.711233 
L 158.908901 437.711014 
L 159.031592 437.173349 
L 165.043408 437.173306 
L 165.166098 436.900901 
L 171.177915 436.900947 
L 171.300605 435.60763 
L 177.312422 435.608098 
L 177.435112 435.826767 
L 183.446928 435.827164 
L 183.569618 436.091824 
L 189.581435 436.092134 
L 189.704125 436.293935 
L 195.715942 436.294179 
L 195.838632 436.803668 
L 201.850449 436.803746 
L 201.973139 436.602718 
L 214.119462 436.524481 
L 214.242152 436.775866 
L 220.253969 436.775953 
L 220.376659 436.926274 
L 336.809596 436.862042 
L 336.962959 436.815428 
L 637.400426 436.713293 
L 637.523116 436.640202 
L 655.803946 436.700668 
L 655.957309 436.759216 
L 674.207466 436.784448 
L 674.330157 436.883027 
L 704.88 436.828151 
L 704.88 436.828151 
" clip-path="url(#pba143e4a3c)" style="fill: none; stroke: #1f77b4; stroke-width: 1.5; stroke-linecap: square"/>
   </g>
   <g id="line2d_45">
    <path d="M 91.46 412.535154 
L 97.594507 412.182919 
L 103.729013 411.835884 
L 109.86352 411.494105 
L 115.998027 411.158337 
L 122.132534 410.830236 
L 128.26704 410.512414 
L 134.401547 410.20788 
L 140.536054 409.918549 
L 146.670561 409.643376 
L 152.805067 409.377773 
L 158.939574 409.11542 
L 165.074081 408.85113 
L 171.208587 408.582352 
L 177.343094 408.308837 
L 183.477601 408.031558 
L 189.612108 407.751829 
L 195.746614 407.470896 
L 201.881121 407.189765 
L 208.015628 406.909196 
L 214.150135 406.629718 
L 220.284641 406.351715 
L 226.419148 406.075451 
L 232.553655 405.801123 
L 238.688161 405.528876 
L 244.822668 405.258807 
L 250.957175 404.990977 
L 257.091682 404.725422 
L 263.226188 404.462146 
L 269.360695 404.201135 
L 275.495202 403.942355 
L 281.629708 403.685765 
L 287.764215 403.431317 
L 293.898722 403.178961 
L 300.033229 402.928646 
L 306.167735 402.680323 
L 312.302242 402.433942 
L 318.436749 402.189457 
L 324.571256 401.946827 
L 330.705762 401.706014 
L 336.840269 401.46698 
L 342.974776 401.229688 
L 349.109282 400.994104 
L 355.243789 400.760194 
L 361.378296 400.527926 
L 367.512803 400.297269 
L 373.647309 400.068194 
L 379.781816 399.840674 
L 385.916323 399.614683 
L 392.05083 399.390197 
L 398.185336 399.167192 
L 404.319843 398.945644 
L 410.45435 398.725529 
L 416.588856 398.506823 
L 422.723363 398.289502 
L 428.85787 398.073541 
L 434.992377 397.858914 
L 441.126883 397.645598 
L 447.26139 397.43357 
L 453.395897 397.22281 
L 459.530404 397.013297 
L 465.66491 396.805017 
L 471.799417 396.597955 
L 477.933924 396.392094 
L 484.06843 396.187419 
L 490.202937 395.983912 
L 496.337444 395.781554 
L 502.471951 395.580325 
L 508.606457 395.380205 
L 514.740964 395.181172 
L 520.875471 394.983212 
L 527.009977 394.786307 
L 533.144484 394.590445 
L 539.278991 394.395613 
L 545.413498 394.201798 
L 551.548004 394.008985 
L 557.682511 393.817161 
L 563.817018 393.626318 
L 569.951525 393.43645 
L 576.086031 393.247548 
L 582.220538 393.059606 
L 588.355045 392.872616 
L 594.489551 392.686568 
L 600.624058 392.501452 
L 606.758565 392.317251 
L 612.893072 392.13395 
L 619.027578 391.951533 
L 625.162085 391.769984 
L 631.296592 391.589285 
L 637.431099 391.409431 
L 643.565605 391.230417 
L 649.700112 391.052239 
L 655.834619 390.874894 
L 661.969125 390.698375 
L 668.103632 390.522667 
L 674.238139 390.347757 
L 680.372646 390.173625 
L 686.507152 390.000252 
L 692.641659 389.827626 
L 698.776166 389.655729 
" clip-path="url(#pba143e4a3c)" style="fill: none; stroke-dasharray: 5.55,2.4; stroke-dashoffset: 0; stroke: #ff0000; stroke-width: 1.5"/>
   </g>
   <g id="line2d_46">
    <path d="M 91.46 461.54768 
L 97.594507 461.899915 
L 103.729013 462.246949 
L 109.86352 462.588728 
L 115.998027 462.924496 
L 122.132534 463.252598 
L 128.26704 463.570419 
L 134.401547 463.874953 
L 140.536054 464.164284 
L 146.670561 464.439457 
L 152.805067 464.70506 
L 158.939574 464.967414 
L 165.074081 465.231703 
L 171.208587 465.500482 
L 177.343094 465.773997 
L 183.477601 466.051276 
L 189.612108 466.331005 
L 195.746614 466.611938 
L 201.881121 466.893069 
L 208.015628 467.173638 
L 214.150135 467.453116 
L 220.284641 467.731119 
L 226.419148 468.007383 
L 232.553655 468.281711 
L 238.688161 468.553957 
L 244.822668 468.824027 
L 250.957175 469.091856 
L 257.091682 469.357411 
L 263.226188 469.620687 
L 269.360695 469.881699 
L 275.495202 470.140479 
L 281.629708 470.397069 
L 287.764215 470.651517 
L 293.898722 470.903872 
L 300.033229 471.154187 
L 306.167735 471.402511 
L 312.302242 471.648892 
L 318.436749 471.893377 
L 324.571256 472.136007 
L 330.705762 472.37682 
L 336.840269 472.615854 
L 342.974776 472.853145 
L 349.109282 473.08873 
L 355.243789 473.32264 
L 361.378296 473.554908 
L 367.512803 473.785564 
L 373.647309 474.01464 
L 379.781816 474.24216 
L 385.916323 474.46815 
L 392.05083 474.692636 
L 398.185336 474.915641 
L 404.319843 475.13719 
L 410.45435 475.357304 
L 416.588856 475.57601 
L 422.723363 475.793331 
L 428.85787 476.009293 
L 434.992377 476.22392 
L 441.126883 476.437236 
L 447.26139 476.649264 
L 453.395897 476.860024 
L 459.530404 477.069536 
L 465.66491 477.277816 
L 471.799417 477.484879 
L 477.933924 477.69074 
L 484.06843 477.895415 
L 490.202937 478.098922 
L 496.337444 478.30128 
L 502.471951 478.502508 
L 508.606457 478.702629 
L 514.740964 478.901661 
L 520.875471 479.099621 
L 527.009977 479.296526 
L 533.144484 479.492388 
L 539.278991 479.68722 
L 545.413498 479.881036 
L 551.548004 480.073849 
L 557.682511 480.265673 
L 563.817018 480.456515 
L 569.951525 480.646384 
L 576.086031 480.835285 
L 582.220538 481.023227 
L 588.355045 481.210218 
L 594.489551 481.396265 
L 600.624058 481.581382 
L 606.758565 481.765583 
L 612.893072 481.948884 
L 619.027578 482.1313 
L 625.162085 482.31285 
L 631.296592 482.493549 
L 637.431099 482.673403 
L 643.565605 482.852417 
L 649.700112 483.030595 
L 655.834619 483.20794 
L 661.969125 483.384459 
L 668.103632 483.560167 
L 674.238139 483.735077 
L 680.372646 483.909209 
L 686.507152 484.082581 
L 692.641659 484.255208 
L 698.776166 484.427105 
" clip-path="url(#pba143e4a3c)" style="fill: none; stroke-dasharray: 5.55,2.4; stroke-dashoffset: 0; stroke: #ff0000; stroke-width: 1.5"/>
   </g>
   <g id="patch_13">
    <path d="M 91.46 505.757166 
L 91.46 368.325667 
" style="fill: none; stroke: #000000; stroke-width: 0.8; stroke-linejoin: miter; stroke-linecap: square"/>
   </g>
   <g id="patch_14">
    <path d="M 704.88 505.757166 
L 704.88 368.325667 
" style="fill: none; stroke: #000000; stroke-width: 0.8; stroke-linejoin: miter; stroke-linecap: square"/>
   </g>
   <g id="patch_15">
    <path d="M 91.46 505.757166 
L 704.88 505.757166 
" style="fill: none; stroke: #000000; stroke-width: 0.8; stroke-linejoin: miter; stroke-linecap: square"/>
   </g>
   <g id="patch_16">
    <path d="M 91.46 368.325667 
L 704.88 368.325667 
" style="fill: none; stroke: #000000; stroke-width: 0.8; stroke-linejoin: miter; stroke-linecap: square"/>
   </g>
  </g>
  <g id="axes_4">
   <g id="patch_17">
    <path d="M 91.46 666.52 
L 704.88 666.52 
L 704.88 529.088501 
L 91.46 529.088501 
z
" style="fill: #ffffff"/>
   </g>
   <g id="matplotlib.axis_7">
    <g id="xtick_25">
     <g id="line2d_47">
      <g>
       <use xlink:href="#m6a93af5353" x="91.46" y="666.52" style="stroke: #000000; stroke-width: 0.8"/>
      </g>
     </g>
     <g id="text_17">
      <!-- 0 -->
      <g transform="translate(87.00625 684.157813) scale(0.14 -0.14)">
       <use xlink:href="#DejaVuSans-30"/>
      </g>
     </g>
    </g>
    <g id="xtick_26">
     <g id="line2d_48">
      <g>
       <use xlink:href="#m6a93af5353" x="168.141334" y="666.52" style="stroke: #000000; stroke-width: 0.8"/>
      </g>
     </g>
     <g id="text_18">
      <!-- 25 -->
      <g transform="translate(159.233834 684.157813) scale(0.14 -0.14)">
       <defs>
        <path id="DejaVuSans-35" d="M 691 4666 
L 3169 4666 
L 3169 4134 
L 1269 4134 
L 1269 2991 
Q 1406 3038 1543 3061 
Q 1681 3084 1819 3084 
Q 2600 3084 3056 2656 
Q 3513 2228 3513 1497 
Q 3513 744 3044 326 
Q 2575 -91 1722 -91 
Q 1428 -91 1123 -41 
Q 819 9 494 109 
L 494 744 
Q 775 591 1075 516 
Q 1375 441 1709 441 
Q 2250 441 2565 725 
Q 2881 1009 2881 1497 
Q 2881 1984 2565 2268 
Q 2250 2553 1709 2553 
Q 1456 2553 1204 2497 
Q 953 2441 691 2322 
L 691 4666 
z
" transform="scale(0.015625)"/>
       </defs>
       <use xlink:href="#DejaVuSans-32"/>
       <use xlink:href="#DejaVuSans-35" x="63.623047"/>
      </g>
     </g>
    </g>
    <g id="xtick_27">
     <g id="line2d_49">
      <g>
       <use xlink:href="#m6a93af5353" x="244.822668" y="666.52" style="stroke: #000000; stroke-width: 0.8"/>
      </g>
     </g>
     <g id="text_19">
      <!-- 50 -->
      <g transform="translate(235.915168 684.157813) scale(0.14 -0.14)">
       <use xlink:href="#DejaVuSans-35"/>
       <use xlink:href="#DejaVuSans-30" x="63.623047"/>
      </g>
     </g>
    </g>
    <g id="xtick_28">
     <g id="line2d_50">
      <g>
       <use xlink:href="#m6a93af5353" x="321.504002" y="666.52" style="stroke: #000000; stroke-width: 0.8"/>
      </g>
     </g>
     <g id="text_20">
      <!-- 75 -->
      <g transform="translate(312.596502 684.157813) scale(0.14 -0.14)">
       <defs>
        <path id="DejaVuSans-37" d="M 525 4666 
L 3525 4666 
L 3525 4397 
L 1831 0 
L 1172 0 
L 2766 4134 
L 525 4134 
L 525 4666 
z
" transform="scale(0.015625)"/>
       </defs>
       <use xlink:href="#DejaVuSans-37"/>
       <use xlink:href="#DejaVuSans-35" x="63.623047"/>
      </g>
     </g>
    </g>
    <g id="xtick_29">
     <g id="line2d_51">
      <g>
       <use xlink:href="#m6a93af5353" x="398.185336" y="666.52" style="stroke: #000000; stroke-width: 0.8"/>
      </g>
     </g>
     <g id="text_21">
      <!-- 100 -->
      <g transform="translate(384.824086 684.157813) scale(0.14 -0.14)">
       <use xlink:href="#DejaVuSans-31"/>
       <use xlink:href="#DejaVuSans-30" x="63.623047"/>
       <use xlink:href="#DejaVuSans-30" x="127.246094"/>
      </g>
     </g>
    </g>
    <g id="xtick_30">
     <g id="line2d_52">
      <g>
       <use xlink:href="#m6a93af5353" x="474.86667" y="666.52" style="stroke: #000000; stroke-width: 0.8"/>
      </g>
     </g>
     <g id="text_22">
      <!-- 125 -->
      <g transform="translate(461.50542 684.157813) scale(0.14 -0.14)">
       <use xlink:href="#DejaVuSans-31"/>
       <use xlink:href="#DejaVuSans-32" x="63.623047"/>
       <use xlink:href="#DejaVuSans-35" x="127.246094"/>
      </g>
     </g>
    </g>
    <g id="xtick_31">
     <g id="line2d_53">
      <g>
       <use xlink:href="#m6a93af5353" x="551.548004" y="666.52" style="stroke: #000000; stroke-width: 0.8"/>
      </g>
     </g>
     <g id="text_23">
      <!-- 150 -->
      <g transform="translate(538.186754 684.157813) scale(0.14 -0.14)">
       <use xlink:href="#DejaVuSans-31"/>
       <use xlink:href="#DejaVuSans-35" x="63.623047"/>
       <use xlink:href="#DejaVuSans-30" x="127.246094"/>
      </g>
     </g>
    </g>
    <g id="xtick_32">
     <g id="line2d_54">
      <g>
       <use xlink:href="#m6a93af5353" x="628.229338" y="666.52" style="stroke: #000000; stroke-width: 0.8"/>
      </g>
     </g>
     <g id="text_24">
      <!-- 175 -->
      <g transform="translate(614.868088 684.157813) scale(0.14 -0.14)">
       <use xlink:href="#DejaVuSans-31"/>
       <use xlink:href="#DejaVuSans-37" x="63.623047"/>
       <use xlink:href="#DejaVuSans-35" x="127.246094"/>
      </g>
     </g>
    </g>
    <g id="text_25">
     <!-- Timestamp [s] -->
     <g transform="translate(347.766719 701.707188) scale(0.14 -0.14)">
      <defs>
       <path id="DejaVuSans-54" d="M -19 4666 
L 3928 4666 
L 3928 4134 
L 2272 4134 
L 2272 0 
L 1638 0 
L 1638 4134 
L -19 4134 
L -19 4666 
z
" transform="scale(0.015625)"/>
       <path id="DejaVuSans-65" d="M 3597 1894 
L 3597 1613 
L 953 1613 
Q 991 1019 1311 708 
Q 1631 397 2203 397 
Q 2534 397 2845 478 
Q 3156 559 3463 722 
L 3463 178 
Q 3153 47 2828 -22 
Q 2503 -91 2169 -91 
Q 1331 -91 842 396 
Q 353 884 353 1716 
Q 353 2575 817 3079 
Q 1281 3584 2069 3584 
Q 2775 3584 3186 3129 
Q 3597 2675 3597 1894 
z
M 3022 2063 
Q 3016 2534 2758 2815 
Q 2500 3097 2075 3097 
Q 1594 3097 1305 2825 
Q 1016 2553 972 2059 
L 3022 2063 
z
" transform="scale(0.015625)"/>
       <path id="DejaVuSans-74" d="M 1172 4494 
L 1172 3500 
L 2356 3500 
L 2356 3053 
L 1172 3053 
L 1172 1153 
Q 1172 725 1289 603 
Q 1406 481 1766 481 
L 2356 481 
L 2356 0 
L 1766 0 
Q 1100 0 847 248 
Q 594 497 594 1153 
L 594 3053 
L 172 3053 
L 172 3500 
L 594 3500 
L 594 4494 
L 1172 4494 
z
" transform="scale(0.015625)"/>
       <path id="DejaVuSans-70" d="M 1159 525 
L 1159 -1331 
L 581 -1331 
L 581 3500 
L 1159 3500 
L 1159 2969 
Q 1341 3281 1617 3432 
Q 1894 3584 2278 3584 
Q 2916 3584 3314 3078 
Q 3713 2572 3713 1747 
Q 3713 922 3314 415 
Q 2916 -91 2278 -91 
Q 1894 -91 1617 61 
Q 1341 213 1159 525 
z
M 3116 1747 
Q 3116 2381 2855 2742 
Q 2594 3103 2138 3103 
Q 1681 3103 1420 2742 
Q 1159 2381 1159 1747 
Q 1159 1113 1420 752 
Q 1681 391 2138 391 
Q 2594 391 2855 752 
Q 3116 1113 3116 1747 
z
" transform="scale(0.015625)"/>
      </defs>
      <use xlink:href="#DejaVuSans-54"/>
      <use xlink:href="#DejaVuSans-69" x="57.958984"/>
      <use xlink:href="#DejaVuSans-6d" x="85.742188"/>
      <use xlink:href="#DejaVuSans-65" x="183.154297"/>
      <use xlink:href="#DejaVuSans-73" x="244.677734"/>
      <use xlink:href="#DejaVuSans-74" x="296.777344"/>
      <use xlink:href="#DejaVuSans-61" x="335.986328"/>
      <use xlink:href="#DejaVuSans-6d" x="397.265625"/>
      <use xlink:href="#DejaVuSans-70" x="494.677734"/>
      <use xlink:href="#DejaVuSans-20" x="558.154297"/>
      <use xlink:href="#DejaVuSans-5b" x="589.941406"/>
      <use xlink:href="#DejaVuSans-73" x="628.955078"/>
      <use xlink:href="#DejaVuSans-5d" x="681.054688"/>
     </g>
    </g>
   </g>
   <g id="matplotlib.axis_8">
    <g id="ytick_14">
     <g id="line2d_55">
      <g>
       <use xlink:href="#m47c9c51071" x="91.46" y="645.070067" style="stroke: #000000; stroke-width: 0.8"/>
      </g>
     </g>
     <g id="text_26">
      <!-- −0.010 -->
      <g transform="translate(32.649063 650.388974) scale(0.14 -0.14)">
       <use xlink:href="#DejaVuSans-2212"/>
       <use xlink:href="#DejaVuSans-30" x="83.789062"/>
       <use xlink:href="#DejaVuSans-2e" x="147.412109"/>
       <use xlink:href="#DejaVuSans-30" x="179.199219"/>
       <use xlink:href="#DejaVuSans-31" x="242.822266"/>
       <use xlink:href="#DejaVuSans-30" x="306.445312"/>
      </g>
     </g>
    </g>
    <g id="ytick_15">
     <g id="line2d_56">
      <g>
       <use xlink:href="#m47c9c51071" x="91.46" y="621.437159" style="stroke: #000000; stroke-width: 0.8"/>
      </g>
     </g>
     <g id="text_27">
      <!-- −0.005 -->
      <g transform="translate(32.649063 626.756065) scale(0.14 -0.14)">
       <use xlink:href="#DejaVuSans-2212"/>
       <use xlink:href="#DejaVuSans-30" x="83.789062"/>
       <use xlink:href="#DejaVuSans-2e" x="147.412109"/>
       <use xlink:href="#DejaVuSans-30" x="179.199219"/>
       <use xlink:href="#DejaVuSans-30" x="242.822266"/>
       <use xlink:href="#DejaVuSans-35" x="306.445312"/>
      </g>
     </g>
    </g>
    <g id="ytick_16">
     <g id="line2d_57">
      <g>
       <use xlink:href="#m47c9c51071" x="91.46" y="597.80425" style="stroke: #000000; stroke-width: 0.8"/>
      </g>
     </g>
     <g id="text_28">
      <!-- 0.000 -->
      <g transform="translate(44.380625 603.123157) scale(0.14 -0.14)">
       <use xlink:href="#DejaVuSans-30"/>
       <use xlink:href="#DejaVuSans-2e" x="63.623047"/>
       <use xlink:href="#DejaVuSans-30" x="95.410156"/>
       <use xlink:href="#DejaVuSans-30" x="159.033203"/>
       <use xlink:href="#DejaVuSans-30" x="222.65625"/>
      </g>
     </g>
    </g>
    <g id="ytick_17">
     <g id="line2d_58">
      <g>
       <use xlink:href="#m47c9c51071" x="91.46" y="574.171342" style="stroke: #000000; stroke-width: 0.8"/>
      </g>
     </g>
     <g id="text_29">
      <!-- 0.005 -->
      <g transform="translate(44.380625 579.490248) scale(0.14 -0.14)">
       <use xlink:href="#DejaVuSans-30"/>
       <use xlink:href="#DejaVuSans-2e" x="63.623047"/>
       <use xlink:href="#DejaVuSans-30" x="95.410156"/>
       <use xlink:href="#DejaVuSans-30" x="159.033203"/>
       <use xlink:href="#DejaVuSans-35" x="222.65625"/>
      </g>
     </g>
    </g>
    <g id="ytick_18">
     <g id="line2d_59">
      <g>
       <use xlink:href="#m47c9c51071" x="91.46" y="550.538434" style="stroke: #000000; stroke-width: 0.8"/>
      </g>
     </g>
     <g id="text_30">
      <!-- 0.010 -->
      <g transform="translate(44.380625 555.85734) scale(0.14 -0.14)">
       <use xlink:href="#DejaVuSans-30"/>
       <use xlink:href="#DejaVuSans-2e" x="63.623047"/>
       <use xlink:href="#DejaVuSans-30" x="95.410156"/>
       <use xlink:href="#DejaVuSans-31" x="159.033203"/>
       <use xlink:href="#DejaVuSans-30" x="222.65625"/>
      </g>
     </g>
    </g>
    <g id="text_31">
     <!-- Acc E [m/s²] -->
     <g transform="translate(25.7375 640.132375) rotate(-90) scale(0.14 -0.14)">
      <defs>
       <path id="DejaVuSans-45" d="M 628 4666 
L 3578 4666 
L 3578 4134 
L 1259 4134 
L 1259 2753 
L 3481 2753 
L 3481 2222 
L 1259 2222 
L 1259 531 
L 3634 531 
L 3634 0 
L 628 0 
L 628 4666 
z
" transform="scale(0.015625)"/>
      </defs>
      <use xlink:href="#DejaVuSans-41"/>
      <use xlink:href="#DejaVuSans-63" x="66.658203"/>
      <use xlink:href="#DejaVuSans-63" x="121.638672"/>
      <use xlink:href="#DejaVuSans-20" x="176.619141"/>
      <use xlink:href="#DejaVuSans-45" x="208.40625"/>
      <use xlink:href="#DejaVuSans-20" x="271.589844"/>
      <use xlink:href="#DejaVuSans-5b" x="303.376953"/>
      <use xlink:href="#DejaVuSans-6d" x="342.390625"/>
      <use xlink:href="#DejaVuSans-2f" x="439.802734"/>
      <use xlink:href="#DejaVuSans-73" x="473.494141"/>
      <use xlink:href="#DejaVuSans-b2" x="525.59375"/>
      <use xlink:href="#DejaVuSans-5d" x="565.681641"/>
     </g>
    </g>
   </g>
   <g id="line2d_60">
    <path d="M 91.46 597.80425 
L 115.967354 597.824634 
L 116.090045 597.615429 
L 128.236368 597.507909 
L 128.359058 598.116931 
L 134.370875 598.116829 
L 134.493565 597.865506 
L 140.505381 597.865486 
L 140.628071 596.816279 
L 146.639888 596.816601 
L 146.762578 596.686713 
L 152.774395 596.687078 
L 152.897085 594.671645 
L 158.908901 594.672668 
L 159.031592 594.308555 
L 165.043408 594.309697 
L 165.166098 595.415961 
L 177.312422 595.31463 
L 177.435112 592.800905 
L 183.446928 592.802539 
L 183.569618 594.544815 
L 189.581435 594.54588 
L 189.704125 594.835283 
L 195.715942 594.836253 
L 195.838632 596.622668 
L 201.850449 596.623054 
L 201.973139 600.51147 
L 207.984955 600.510585 
L 208.107645 601.961786 
L 214.119462 601.960428 
L 214.242152 610.522428 
L 220.253969 610.518274 
L 220.376659 608.425719 
L 226.388475 608.42225 
L 226.511166 614.104693 
L 232.522982 614.099369 
L 232.645672 607.656265 
L 238.657489 607.653047 
L 238.780179 610.581712 
L 244.791996 610.577538 
L 244.914686 618.42554 
L 250.926502 618.418805 
L 251.049192 613.502405 
L 257.061009 613.497278 
L 257.183699 612.590808 
L 263.195516 612.585978 
L 263.318206 613.299552 
L 269.330023 613.294491 
L 269.452713 612.46652 
L 275.464529 612.461731 
L 275.587219 609.262277 
L 281.599036 609.258534 
L 281.721726 611.331934 
L 287.733543 611.327516 
L 287.856233 610.578309 
L 293.868049 610.574137 
L 293.99074 614.503904 
L 300.002556 614.49845 
L 300.125246 613.433186 
L 306.137063 613.428082 
L 306.259753 619.75351 
L 312.27157 619.746341 
L 312.39426 618.34297 
L 318.406076 618.336261 
L 318.528766 620.207794 
L 324.540583 620.200477 
L 324.663273 623.379803 
L 330.67509 623.37145 
L 330.79778 620.079417 
L 336.809596 620.072142 
L 336.932287 619.746497 
L 342.944103 619.73933 
L 343.066793 622.105831 
L 349.07861 622.097894 
L 349.2013 619.070612 
L 355.213117 619.063666 
L 355.335807 620.062917 
L 361.347623 620.055647 
L 361.470314 622.601076 
L 367.48213 622.592977 
L 367.60482 624.062256 
L 373.616637 624.05368 
L 373.739327 621.71264 
L 379.751144 621.704831 
L 379.873834 617.220282 
L 392.020157 617.255727 
L 392.142847 620.736086 
L 398.154664 620.728596 
L 398.277354 619.387352 
L 404.28917 619.380303 
L 404.411861 619.645876 
L 410.423677 619.638742 
L 410.546367 619.494718 
L 416.558184 619.487634 
L 416.680874 617.371089 
L 422.692691 617.364698 
L 422.815381 614.83478 
L 428.827197 614.829218 
L 428.949887 612.683776 
L 434.961704 612.678916 
L 435.084394 615.552946 
L 441.096211 615.547149 
L 441.218901 616.3168 
L 447.230718 616.310753 
L 447.353408 615.555818 
L 453.365224 615.55002 
L 453.487914 613.564364 
L 459.499731 613.559216 
L 459.622421 615.494675 
L 465.634238 615.488897 
L 465.756928 615.786836 
L 471.768744 615.780962 
L 471.891435 617.5756 
L 477.903251 617.569143 
L 478.025941 620.1889 
L 484.037758 620.181589 
L 484.160448 616.811855 
L 490.172265 616.805646 
L 490.294955 613.575336 
L 496.306771 613.570185 
L 496.429461 613.376763 
L 502.441278 613.371676 
L 502.563968 610.123575 
L 508.575785 610.119551 
L 508.698475 611.447552 
L 514.710292 611.443096 
L 514.832982 614.97699 
L 520.844798 614.971381 
L 520.967488 616.416753 
L 526.979305 616.410674 
L 527.101995 615.811314 
L 533.113812 615.805433 
L 533.236502 616.397237 
L 539.248318 616.391164 
L 539.371009 614.095323 
L 545.382825 614.090002 
L 545.505515 617.220931 
L 551.517332 617.214589 
L 551.640022 614.764938 
L 557.651839 614.759399 
L 557.774529 615.071485 
L 563.786345 615.065845 
L 563.909035 612.743354 
L 569.920852 612.738475 
L 570.043542 614.009546 
L 576.055359 614.004253 
L 576.178049 610.006744 
L 582.189865 610.002758 
L 582.312556 610.33845 
L 588.324372 610.334356 
L 588.447062 613.587328 
L 594.458879 613.582173 
L 594.581569 616.438685 
L 600.593386 616.432599 
L 600.716076 615.474765 
L 606.727892 615.468993 
L 606.850583 616.044874 
L 612.862399 616.038917 
L 612.985089 614.467884 
L 618.996906 614.462442 
L 619.119596 614.254586 
L 625.131413 614.249213 
L 625.254103 614.983944 
L 631.265919 614.978333 
L 631.388609 616.501662 
L 637.400426 616.495555 
L 637.523116 619.566649 
L 643.534933 619.559541 
L 643.657623 619.308504 
L 649.669439 619.30148 
L 649.79213 617.365634 
L 655.803946 617.359245 
L 655.926636 615.098687 
L 661.938453 615.093039 
L 662.061143 616.092038 
L 668.07296 616.086065 
L 668.19565 614.202235 
L 674.207466 614.196879 
L 674.330157 610.785768 
L 680.341973 610.781528 
L 680.464663 612.578885 
L 686.47648 612.574059 
L 686.59917 612.428219 
L 692.610987 612.423443 
L 692.733677 612.003637 
L 698.745493 611.998999 
L 698.868183 612.606402 
L 704.88 612.601567 
L 704.88 612.601567 
" clip-path="url(#p8de345a57c)" style="fill: none; stroke: #1f77b4; stroke-width: 1.5; stroke-linecap: square"/>
   </g>
   <g id="line2d_61">
    <path d="M 91.46 556.073261 
L 97.594507 555.47345 
L 103.729013 554.882495 
L 109.86352 554.300491 
L 115.998027 553.72874 
L 122.132534 553.170214 
L 128.26704 552.630199 
L 134.401547 552.11691 
L 140.536054 551.642041 
L 146.670561 551.221153 
L 152.805067 550.873755 
L 158.939574 550.622802 
L 165.074081 550.493673 
L 171.208587 550.512274 
L 177.343094 550.702251 
L 183.477601 551.081012 
L 189.612108 551.655212 
L 195.746614 552.417746 
L 201.881121 553.346468 
L 208.015628 554.406111 
L 214.150135 555.552822 
L 220.284641 556.738992 
L 226.419148 557.918823 
L 232.553655 559.053854 
L 238.688161 560.115885 
L 244.822668 561.087529 
L 250.957175 561.960939 
L 257.091682 562.735521 
L 263.226188 563.41539 
L 269.360695 564.007345 
L 275.495202 564.519736 
L 281.629708 564.961167 
L 287.764215 565.339642 
L 293.898722 565.662645 
L 300.033229 565.937474 
L 306.167735 566.170787 
L 312.302242 566.368501 
L 318.436749 566.535876 
L 324.571256 566.677584 
L 330.705762 566.797782 
L 336.840269 566.899865 
L 342.974776 566.986482 
L 349.109282 567.059741 
L 355.243789 567.121483 
L 361.378296 567.173327 
L 367.512803 567.216684 
L 373.647309 567.252757 
L 379.781816 567.282589 
L 385.916323 567.307065 
L 392.05083 567.326877 
L 398.185336 567.342639 
L 404.319843 567.354926 
L 410.45435 567.364248 
L 416.588856 567.371143 
L 422.723363 567.376125 
L 428.85787 567.379623 
L 434.992377 567.382061 
L 441.126883 567.383776 
L 447.26139 567.385019 
L 453.395897 567.386093 
L 459.530404 567.387265 
L 465.66491 567.388722 
L 471.799417 567.390556 
L 477.933924 567.392726 
L 484.06843 567.395167 
L 490.202937 567.397834 
L 496.337444 567.400684 
L 502.471951 567.403665 
L 508.606457 567.406683 
L 514.740964 567.409682 
L 520.875471 567.412656 
L 527.009977 567.415638 
L 533.144484 567.418691 
L 539.278991 567.421818 
L 545.413498 567.424959 
L 551.548004 567.427923 
L 557.682511 567.430471 
L 563.817018 567.432458 
L 569.951525 567.433783 
L 576.086031 567.434412 
L 582.220538 567.434303 
L 588.355045 567.433438 
L 594.489551 567.431971 
L 600.624058 567.430224 
L 606.758565 567.428504 
L 612.893072 567.426969 
L 619.027578 567.425693 
L 625.162085 567.424764 
L 631.296592 567.424269 
L 637.431099 567.424162 
L 643.565605 567.424325 
L 649.700112 567.42464 
L 655.834619 567.425047 
L 661.969125 567.425508 
L 668.103632 567.425915 
L 674.238139 567.426162 
L 680.372646 567.426184 
L 686.507152 567.425946 
L 692.641659 567.425471 
L 698.776166 567.424853 
" clip-path="url(#p8de345a57c)" style="fill: none; stroke-dasharray: 5.55,2.4; stroke-dashoffset: 0; stroke: #ff0000; stroke-width: 1.5"/>
   </g>
   <g id="line2d_62">
    <path d="M 91.46 639.53524 
L 97.594507 640.135051 
L 103.729013 640.726006 
L 109.86352 641.30801 
L 115.998027 641.879761 
L 122.132534 642.438287 
L 128.26704 642.978302 
L 134.401547 643.491591 
L 140.536054 643.96646 
L 146.670561 644.387348 
L 152.805067 644.734746 
L 158.939574 644.985699 
L 165.074081 645.114828 
L 171.208587 645.096227 
L 177.343094 644.90625 
L 183.477601 644.527489 
L 189.612108 643.953289 
L 195.746614 643.190755 
L 201.881121 642.262033 
L 208.015628 641.20239 
L 214.150135 640.055679 
L 220.284641 638.869509 
L 226.419148 637.689678 
L 232.553655 636.554647 
L 238.688161 635.492616 
L 244.822668 634.520971 
L 250.957175 633.647562 
L 257.091682 632.87298 
L 263.226188 632.193111 
L 269.360695 631.601156 
L 275.495202 631.088765 
L 281.629708 630.647334 
L 287.764215 630.268859 
L 293.898722 629.945856 
L 300.033229 629.671027 
L 306.167735 629.437714 
L 312.302242 629.24 
L 318.436749 629.072625 
L 324.571256 628.930916 
L 330.705762 628.810719 
L 336.840269 628.708636 
L 342.974776 628.622019 
L 349.109282 628.54876 
L 355.243789 628.487018 
L 361.378296 628.435174 
L 367.512803 628.391817 
L 373.647309 628.355744 
L 379.781816 628.325912 
L 385.916323 628.301436 
L 392.05083 628.281624 
L 398.185336 628.265862 
L 404.319843 628.253575 
L 410.45435 628.244253 
L 416.588856 628.237358 
L 422.723363 628.232376 
L 428.85787 628.228878 
L 434.992377 628.22644 
L 441.126883 628.224725 
L 447.26139 628.223482 
L 453.395897 628.222408 
L 459.530404 628.221236 
L 465.66491 628.219779 
L 471.799417 628.217945 
L 477.933924 628.215775 
L 484.06843 628.213334 
L 490.202937 628.210667 
L 496.337444 628.207817 
L 502.471951 628.204836 
L 508.606457 628.201818 
L 514.740964 628.198819 
L 520.875471 628.195845 
L 527.009977 628.192863 
L 533.144484 628.18981 
L 539.278991 628.186683 
L 545.413498 628.183542 
L 551.548004 628.180577 
L 557.682511 628.17803 
L 563.817018 628.176043 
L 569.951525 628.174718 
L 576.086031 628.174089 
L 582.220538 628.174198 
L 588.355045 628.175063 
L 594.489551 628.17653 
L 600.624058 628.178277 
L 606.758565 628.179997 
L 612.893072 628.181532 
L 619.027578 628.182808 
L 625.162085 628.183737 
L 631.296592 628.184232 
L 637.431099 628.184339 
L 643.565605 628.184176 
L 649.700112 628.183861 
L 655.834619 628.183453 
L 661.969125 628.182993 
L 668.103632 628.182586 
L 674.238139 628.182339 
L 680.372646 628.182317 
L 686.507152 628.182555 
L 692.641659 628.18303 
L 698.776166 628.183648 
" clip-path="url(#p8de345a57c)" style="fill: none; stroke-dasharray: 5.55,2.4; stroke-dashoffset: 0; stroke: #ff0000; stroke-width: 1.5"/>
   </g>
   <g id="patch_18">
    <path d="M 91.46 666.52 
L 91.46 529.088501 
" style="fill: none; stroke: #000000; stroke-width: 0.8; stroke-linejoin: miter; stroke-linecap: square"/>
   </g>
   <g id="patch_19">
    <path d="M 704.88 666.52 
L 704.88 529.088501 
" style="fill: none; stroke: #000000; stroke-width: 0.8; stroke-linejoin: miter; stroke-linecap: square"/>
   </g>
   <g id="patch_20">
    <path d="M 91.46 666.52 
L 704.88 666.52 
" style="fill: none; stroke: #000000; stroke-width: 0.8; stroke-linejoin: miter; stroke-linecap: square"/>
   </g>
   <g id="patch_21">
    <path d="M 91.46 529.088501 
L 704.88 529.088501 
" style="fill: none; stroke: #000000; stroke-width: 0.8; stroke-linejoin: miter; stroke-linecap: square"/>
   </g>
  </g>
  <g id="text_32">
   <!-- Errors on imu states at 100Hz -->
   <g transform="translate(234.648375 27.165375) scale(0.168 -0.168)">
    <defs>
     <path id="DejaVuSans-6e" d="M 3513 2113 
L 3513 0 
L 2938 0 
L 2938 2094 
Q 2938 2591 2744 2837 
Q 2550 3084 2163 3084 
Q 1697 3084 1428 2787 
Q 1159 2491 1159 1978 
L 1159 0 
L 581 0 
L 581 3500 
L 1159 3500 
L 1159 2956 
Q 1366 3272 1645 3428 
Q 1925 3584 2291 3584 
Q 2894 3584 3203 3211 
Q 3513 2838 3513 2113 
z
" transform="scale(0.015625)"/>
     <path id="DejaVuSans-75" d="M 544 1381 
L 544 3500 
L 1119 3500 
L 1119 1403 
Q 1119 906 1312 657 
Q 1506 409 1894 409 
Q 2359 409 2629 706 
Q 2900 1003 2900 1516 
L 2900 3500 
L 3475 3500 
L 3475 0 
L 2900 0 
L 2900 538 
Q 2691 219 2414 64 
Q 2138 -91 1772 -91 
Q 1169 -91 856 284 
Q 544 659 544 1381 
z
M 1991 3584 
L 1991 3584 
z
" transform="scale(0.015625)"/>
     <path id="DejaVuSans-48" d="M 628 4666 
L 1259 4666 
L 1259 2753 
L 3553 2753 
L 3553 4666 
L 4184 4666 
L 4184 0 
L 3553 0 
L 3553 2222 
L 1259 2222 
L 1259 0 
L 628 0 
L 628 4666 
z
" transform="scale(0.015625)"/>
     <path id="DejaVuSans-7a" d="M 353 3500 
L 3084 3500 
L 3084 2975 
L 922 459 
L 3084 459 
L 3084 0 
L 275 0 
L 275 525 
L 2438 3041 
L 353 3041 
L 353 3500 
z
" transform="scale(0.015625)"/>
    </defs>
    <use xlink:href="#DejaVuSans-45"/>
    <use xlink:href="#DejaVuSans-72" x="63.183594"/>
    <use xlink:href="#DejaVuSans-72" x="102.546875"/>
    <use xlink:href="#DejaVuSans-6f" x="141.410156"/>
    <use xlink:href="#DejaVuSans-72" x="202.591797"/>
    <use xlink:href="#DejaVuSans-73" x="243.705078"/>
    <use xlink:href="#DejaVuSans-20" x="295.804688"/>
    <use xlink:href="#DejaVuSans-6f" x="327.591797"/>
    <use xlink:href="#DejaVuSans-6e" x="388.773438"/>
    <use xlink:href="#DejaVuSans-20" x="452.152344"/>
    <use xlink:href="#DejaVuSans-69" x="483.939453"/>
    <use xlink:href="#DejaVuSans-6d" x="511.722656"/>
    <use xlink:href="#DejaVuSans-75" x="609.134766"/>
    <use xlink:href="#DejaVuSans-20" x="672.513672"/>
    <use xlink:href="#DejaVuSans-73" x="704.300781"/>
    <use xlink:href="#DejaVuSans-74" x="756.400391"/>
    <use xlink:href="#DejaVuSans-61" x="795.609375"/>
    <use xlink:href="#DejaVuSans-74" x="856.888672"/>
    <use xlink:href="#DejaVuSans-65" x="896.097656"/>
    <use xlink:href="#DejaVuSans-73" x="957.621094"/>
    <use xlink:href="#DejaVuSans-20" x="1009.720703"/>
    <use xlink:href="#DejaVuSans-61" x="1041.507812"/>
    <use xlink:href="#DejaVuSans-74" x="1102.787109"/>
    <use xlink:href="#DejaVuSans-20" x="1141.996094"/>
    <use xlink:href="#DejaVuSans-31" x="1173.783203"/>
    <use xlink:href="#DejaVuSans-30" x="1237.40625"/>
    <use xlink:href="#DejaVuSans-30" x="1301.029297"/>
    <use xlink:href="#DejaVuSans-48" x="1364.652344"/>
    <use xlink:href="#DejaVuSans-7a" x="1439.847656"/>
   </g>
  </g>
 </g>
 <defs>
  <clipPath id="p894b5b5b6f">
   <rect x="91.46" y="46.8" width="613.42" height="137.431499"/>
  </clipPath>
  <clipPath id="p68eb89f57d">
   <rect x="91.46" y="207.562834" width="613.42" height="137.431499"/>
  </clipPath>
  <clipPath id="pba143e4a3c">
   <rect x="91.46" y="368.325667" width="613.42" height="137.431499"/>
  </clipPath>
  <clipPath id="p8de345a57c">
   <rect x="91.46" y="529.088501" width="613.42" height="137.431499"/>
  </clipPath>
 </defs>
</svg>
