<?xml version="1.0" encoding="utf-8" standalone="no"?>
<!DOCTYPE svg PUBLIC "-//W3C//DTD SVG 1.1//EN"
  "http://www.w3.org/Graphics/SVG/1.1/DTD/svg11.dtd">
<svg xmlns:xlink="http://www.w3.org/1999/xlink" width="720pt" height="720pt" viewBox="0 0 720 720" xmlns="http://www.w3.org/2000/svg" version="1.1">
 <metadata>
  <rdf:RDF xmlns:dc="http://purl.org/dc/elements/1.1/" xmlns:cc="http://creativecommons.org/ns#" xmlns:rdf="http://www.w3.org/1999/02/22-rdf-syntax-ns#">
   <cc:Work>
    <dc:type rdf:resource="http://purl.org/dc/dcmitype/StillImage"/>
    <dc:date>2024-06-01T11:41:06.802954</dc:date>
    <dc:format>image/svg+xml</dc:format>
    <dc:creator>
     <cc:Agent>
      <dc:title>Matplotlib v3.9.0, https://matplotlib.org/</dc:title>
     </cc:Agent>
    </dc:creator>
   </cc:Work>
  </rdf:RDF>
 </metadata>
 <defs>
  <style type="text/css">*{stroke-linejoin: round; stroke-linecap: butt}</style>
 </defs>
 <g id="figure_1">
  <g id="patch_1">
   <path d="M 0 720 
L 720 720 
L 720 0 
L 0 0 
z
" style="fill: #ffffff"/>
  </g>
  <g id="axes_1">
   <g id="patch_2">
    <path d="M 91.55 187.765 
L 704.88 187.765 
L 704.88 46.8 
L 91.55 46.8 
z
" style="fill: #ffffff"/>
   </g>
   <g id="matplotlib.axis_1">
    <g id="xtick_1">
     <g id="line2d_1">
      <defs>
       <path id="m16c170edd2" d="M 0 0 
L 0 3.5 
" style="stroke: #000000; stroke-width: 0.8"/>
      </defs>
      <g>
       <use xlink:href="#m16c170edd2" x="91.55" y="187.765" style="stroke: #000000; stroke-width: 0.8"/>
      </g>
     </g>
    </g>
    <g id="xtick_2">
     <g id="line2d_2">
      <g>
       <use xlink:href="#m16c170edd2" x="168.220084" y="187.765" style="stroke: #000000; stroke-width: 0.8"/>
      </g>
     </g>
    </g>
    <g id="xtick_3">
     <g id="line2d_3">
      <g>
       <use xlink:href="#m16c170edd2" x="244.890167" y="187.765" style="stroke: #000000; stroke-width: 0.8"/>
      </g>
     </g>
    </g>
    <g id="xtick_4">
     <g id="line2d_4">
      <g>
       <use xlink:href="#m16c170edd2" x="321.560251" y="187.765" style="stroke: #000000; stroke-width: 0.8"/>
      </g>
     </g>
    </g>
    <g id="xtick_5">
     <g id="line2d_5">
      <g>
       <use xlink:href="#m16c170edd2" x="398.230334" y="187.765" style="stroke: #000000; stroke-width: 0.8"/>
      </g>
     </g>
    </g>
    <g id="xtick_6">
     <g id="line2d_6">
      <g>
       <use xlink:href="#m16c170edd2" x="474.900418" y="187.765" style="stroke: #000000; stroke-width: 0.8"/>
      </g>
     </g>
    </g>
    <g id="xtick_7">
     <g id="line2d_7">
      <g>
       <use xlink:href="#m16c170edd2" x="551.570501" y="187.765" style="stroke: #000000; stroke-width: 0.8"/>
      </g>
     </g>
    </g>
    <g id="xtick_8">
     <g id="line2d_8">
      <g>
       <use xlink:href="#m16c170edd2" x="628.240585" y="187.765" style="stroke: #000000; stroke-width: 0.8"/>
      </g>
     </g>
    </g>
   </g>
   <g id="matplotlib.axis_2">
    <g id="ytick_1">
     <g id="line2d_9">
      <defs>
       <path id="maf98b7b6ec" d="M 0 0 
L -3.5 0 
" style="stroke: #000000; stroke-width: 0.8"/>
      </defs>
      <g>
       <use xlink:href="#maf98b7b6ec" x="91.55" y="153.637808" style="stroke: #000000; stroke-width: 0.8"/>
      </g>
     </g>
     <g id="text_1">
      <!-- −0.002 -->
      <g transform="translate(32.739062 158.956714) scale(0.14 -0.14)">
       <defs>
        <path id="DejaVuSans-2212" d="M 678 2272 
L 4684 2272 
L 4684 1741 
L 678 1741 
L 678 2272 
z
" transform="scale(0.015625)"/>
        <path id="DejaVuSans-30" d="M 2034 4250 
Q 1547 4250 1301 3770 
Q 1056 3291 1056 2328 
Q 1056 1369 1301 889 
Q 1547 409 2034 409 
Q 2525 409 2770 889 
Q 3016 1369 3016 2328 
Q 3016 3291 2770 3770 
Q 2525 4250 2034 4250 
z
M 2034 4750 
Q 2819 4750 3233 4129 
Q 3647 3509 3647 2328 
Q 3647 1150 3233 529 
Q 2819 -91 2034 -91 
Q 1250 -91 836 529 
Q 422 1150 422 2328 
Q 422 3509 836 4129 
Q 1250 4750 2034 4750 
z
" transform="scale(0.015625)"/>
        <path id="DejaVuSans-2e" d="M 684 794 
L 1344 794 
L 1344 0 
L 684 0 
L 684 794 
z
" transform="scale(0.015625)"/>
        <path id="DejaVuSans-32" d="M 1228 531 
L 3431 531 
L 3431 0 
L 469 0 
L 469 531 
Q 828 903 1448 1529 
Q 2069 2156 2228 2338 
Q 2531 2678 2651 2914 
Q 2772 3150 2772 3378 
Q 2772 3750 2511 3984 
Q 2250 4219 1831 4219 
Q 1534 4219 1204 4116 
Q 875 4013 500 3803 
L 500 4441 
Q 881 4594 1212 4672 
Q 1544 4750 1819 4750 
Q 2544 4750 2975 4387 
Q 3406 4025 3406 3419 
Q 3406 3131 3298 2873 
Q 3191 2616 2906 2266 
Q 2828 2175 2409 1742 
Q 1991 1309 1228 531 
z
" transform="scale(0.015625)"/>
       </defs>
       <use xlink:href="#DejaVuSans-2212"/>
       <use xlink:href="#DejaVuSans-30" x="83.789062"/>
       <use xlink:href="#DejaVuSans-2e" x="147.412109"/>
       <use xlink:href="#DejaVuSans-30" x="179.199219"/>
       <use xlink:href="#DejaVuSans-30" x="242.822266"/>
       <use xlink:href="#DejaVuSans-32" x="306.445312"/>
      </g>
     </g>
    </g>
    <g id="ytick_2">
     <g id="line2d_10">
      <g>
       <use xlink:href="#maf98b7b6ec" x="91.55" y="117.2825" style="stroke: #000000; stroke-width: 0.8"/>
      </g>
     </g>
     <g id="text_2">
      <!-- 0.000 -->
      <g transform="translate(44.470625 122.601406) scale(0.14 -0.14)">
       <use xlink:href="#DejaVuSans-30"/>
       <use xlink:href="#DejaVuSans-2e" x="63.623047"/>
       <use xlink:href="#DejaVuSans-30" x="95.410156"/>
       <use xlink:href="#DejaVuSans-30" x="159.033203"/>
       <use xlink:href="#DejaVuSans-30" x="222.65625"/>
      </g>
     </g>
    </g>
    <g id="ytick_3">
     <g id="line2d_11">
      <g>
       <use xlink:href="#maf98b7b6ec" x="91.55" y="80.927192" style="stroke: #000000; stroke-width: 0.8"/>
      </g>
     </g>
     <g id="text_3">
      <!-- 0.002 -->
      <g transform="translate(44.470625 86.246099) scale(0.14 -0.14)">
       <use xlink:href="#DejaVuSans-30"/>
       <use xlink:href="#DejaVuSans-2e" x="63.623047"/>
       <use xlink:href="#DejaVuSans-30" x="95.410156"/>
       <use xlink:href="#DejaVuSans-30" x="159.033203"/>
       <use xlink:href="#DejaVuSans-32" x="222.65625"/>
      </g>
     </g>
    </g>
    <g id="text_4">
     <!-- Gyro bias [rad/s] -->
     <g transform="translate(25.8275 175.705156) rotate(-90) scale(0.14 -0.14)">
      <defs>
       <path id="DejaVuSans-47" d="M 3809 666 
L 3809 1919 
L 2778 1919 
L 2778 2438 
L 4434 2438 
L 4434 434 
Q 4069 175 3628 42 
Q 3188 -91 2688 -91 
Q 1594 -91 976 548 
Q 359 1188 359 2328 
Q 359 3472 976 4111 
Q 1594 4750 2688 4750 
Q 3144 4750 3555 4637 
Q 3966 4525 4313 4306 
L 4313 3634 
Q 3963 3931 3569 4081 
Q 3175 4231 2741 4231 
Q 1884 4231 1454 3753 
Q 1025 3275 1025 2328 
Q 1025 1384 1454 906 
Q 1884 428 2741 428 
Q 3075 428 3337 486 
Q 3600 544 3809 666 
z
" transform="scale(0.015625)"/>
       <path id="DejaVuSans-79" d="M 2059 -325 
Q 1816 -950 1584 -1140 
Q 1353 -1331 966 -1331 
L 506 -1331 
L 506 -850 
L 844 -850 
Q 1081 -850 1212 -737 
Q 1344 -625 1503 -206 
L 1606 56 
L 191 3500 
L 800 3500 
L 1894 763 
L 2988 3500 
L 3597 3500 
L 2059 -325 
z
" transform="scale(0.015625)"/>
       <path id="DejaVuSans-72" d="M 2631 2963 
Q 2534 3019 2420 3045 
Q 2306 3072 2169 3072 
Q 1681 3072 1420 2755 
Q 1159 2438 1159 1844 
L 1159 0 
L 581 0 
L 581 3500 
L 1159 3500 
L 1159 2956 
Q 1341 3275 1631 3429 
Q 1922 3584 2338 3584 
Q 2397 3584 2469 3576 
Q 2541 3569 2628 3553 
L 2631 2963 
z
" transform="scale(0.015625)"/>
       <path id="DejaVuSans-6f" d="M 1959 3097 
Q 1497 3097 1228 2736 
Q 959 2375 959 1747 
Q 959 1119 1226 758 
Q 1494 397 1959 397 
Q 2419 397 2687 759 
Q 2956 1122 2956 1747 
Q 2956 2369 2687 2733 
Q 2419 3097 1959 3097 
z
M 1959 3584 
Q 2709 3584 3137 3096 
Q 3566 2609 3566 1747 
Q 3566 888 3137 398 
Q 2709 -91 1959 -91 
Q 1206 -91 779 398 
Q 353 888 353 1747 
Q 353 2609 779 3096 
Q 1206 3584 1959 3584 
z
" transform="scale(0.015625)"/>
       <path id="DejaVuSans-20" transform="scale(0.015625)"/>
       <path id="DejaVuSans-62" d="M 3116 1747 
Q 3116 2381 2855 2742 
Q 2594 3103 2138 3103 
Q 1681 3103 1420 2742 
Q 1159 2381 1159 1747 
Q 1159 1113 1420 752 
Q 1681 391 2138 391 
Q 2594 391 2855 752 
Q 3116 1113 3116 1747 
z
M 1159 2969 
Q 1341 3281 1617 3432 
Q 1894 3584 2278 3584 
Q 2916 3584 3314 3078 
Q 3713 2572 3713 1747 
Q 3713 922 3314 415 
Q 2916 -91 2278 -91 
Q 1894 -91 1617 61 
Q 1341 213 1159 525 
L 1159 0 
L 581 0 
L 581 4863 
L 1159 4863 
L 1159 2969 
z
" transform="scale(0.015625)"/>
       <path id="DejaVuSans-69" d="M 603 3500 
L 1178 3500 
L 1178 0 
L 603 0 
L 603 3500 
z
M 603 4863 
L 1178 4863 
L 1178 4134 
L 603 4134 
L 603 4863 
z
" transform="scale(0.015625)"/>
       <path id="DejaVuSans-61" d="M 2194 1759 
Q 1497 1759 1228 1600 
Q 959 1441 959 1056 
Q 959 750 1161 570 
Q 1363 391 1709 391 
Q 2188 391 2477 730 
Q 2766 1069 2766 1631 
L 2766 1759 
L 2194 1759 
z
M 3341 1997 
L 3341 0 
L 2766 0 
L 2766 531 
Q 2569 213 2275 61 
Q 1981 -91 1556 -91 
Q 1019 -91 701 211 
Q 384 513 384 1019 
Q 384 1609 779 1909 
Q 1175 2209 1959 2209 
L 2766 2209 
L 2766 2266 
Q 2766 2663 2505 2880 
Q 2244 3097 1772 3097 
Q 1472 3097 1187 3025 
Q 903 2953 641 2809 
L 641 3341 
Q 956 3463 1253 3523 
Q 1550 3584 1831 3584 
Q 2591 3584 2966 3190 
Q 3341 2797 3341 1997 
z
" transform="scale(0.015625)"/>
       <path id="DejaVuSans-73" d="M 2834 3397 
L 2834 2853 
Q 2591 2978 2328 3040 
Q 2066 3103 1784 3103 
Q 1356 3103 1142 2972 
Q 928 2841 928 2578 
Q 928 2378 1081 2264 
Q 1234 2150 1697 2047 
L 1894 2003 
Q 2506 1872 2764 1633 
Q 3022 1394 3022 966 
Q 3022 478 2636 193 
Q 2250 -91 1575 -91 
Q 1294 -91 989 -36 
Q 684 19 347 128 
L 347 722 
Q 666 556 975 473 
Q 1284 391 1588 391 
Q 1994 391 2212 530 
Q 2431 669 2431 922 
Q 2431 1156 2273 1281 
Q 2116 1406 1581 1522 
L 1381 1569 
Q 847 1681 609 1914 
Q 372 2147 372 2553 
Q 372 3047 722 3315 
Q 1072 3584 1716 3584 
Q 2034 3584 2315 3537 
Q 2597 3491 2834 3397 
z
" transform="scale(0.015625)"/>
       <path id="DejaVuSans-5b" d="M 550 4863 
L 1875 4863 
L 1875 4416 
L 1125 4416 
L 1125 -397 
L 1875 -397 
L 1875 -844 
L 550 -844 
L 550 4863 
z
" transform="scale(0.015625)"/>
       <path id="DejaVuSans-64" d="M 2906 2969 
L 2906 4863 
L 3481 4863 
L 3481 0 
L 2906 0 
L 2906 525 
Q 2725 213 2448 61 
Q 2172 -91 1784 -91 
Q 1150 -91 751 415 
Q 353 922 353 1747 
Q 353 2572 751 3078 
Q 1150 3584 1784 3584 
Q 2172 3584 2448 3432 
Q 2725 3281 2906 2969 
z
M 947 1747 
Q 947 1113 1208 752 
Q 1469 391 1925 391 
Q 2381 391 2643 752 
Q 2906 1113 2906 1747 
Q 2906 2381 2643 2742 
Q 2381 3103 1925 3103 
Q 1469 3103 1208 2742 
Q 947 2381 947 1747 
z
" transform="scale(0.015625)"/>
       <path id="DejaVuSans-2f" d="M 1625 4666 
L 2156 4666 
L 531 -594 
L 0 -594 
L 1625 4666 
z
" transform="scale(0.015625)"/>
       <path id="DejaVuSans-5d" d="M 1947 4863 
L 1947 -844 
L 622 -844 
L 622 -397 
L 1369 -397 
L 1369 4416 
L 622 4416 
L 622 4863 
L 1947 4863 
z
" transform="scale(0.015625)"/>
      </defs>
      <use xlink:href="#DejaVuSans-47"/>
      <use xlink:href="#DejaVuSans-79" x="77.490234"/>
      <use xlink:href="#DejaVuSans-72" x="136.669922"/>
      <use xlink:href="#DejaVuSans-6f" x="175.533203"/>
      <use xlink:href="#DejaVuSans-20" x="236.714844"/>
      <use xlink:href="#DejaVuSans-62" x="268.501953"/>
      <use xlink:href="#DejaVuSans-69" x="331.978516"/>
      <use xlink:href="#DejaVuSans-61" x="359.761719"/>
      <use xlink:href="#DejaVuSans-73" x="421.041016"/>
      <use xlink:href="#DejaVuSans-20" x="473.140625"/>
      <use xlink:href="#DejaVuSans-5b" x="504.927734"/>
      <use xlink:href="#DejaVuSans-72" x="543.941406"/>
      <use xlink:href="#DejaVuSans-61" x="585.054688"/>
      <use xlink:href="#DejaVuSans-64" x="646.333984"/>
      <use xlink:href="#DejaVuSans-2f" x="709.810547"/>
      <use xlink:href="#DejaVuSans-73" x="743.501953"/>
      <use xlink:href="#DejaVuSans-5d" x="795.601562"/>
     </g>
    </g>
   </g>
   <g id="line2d_12">
    <path d="M 91.55 117.2825 
L 122.187365 117.383977 
L 122.310038 117.599055 
L 128.320972 117.599055 
L 128.443644 118.061341 
L 134.454579 118.061341 
L 134.577251 117.580578 
L 140.588185 117.580578 
L 140.710858 117.706344 
L 146.721792 117.706344 
L 146.844464 117.175678 
L 152.855399 117.175678 
L 152.978071 115.675582 
L 158.989005 115.675582 
L 159.111678 117.50536 
L 165.122612 117.50536 
L 165.245284 118.422131 
L 171.256219 118.422131 
L 171.378891 123.388552 
L 177.389825 123.388552 
L 177.512498 122.465623 
L 183.523432 122.465623 
L 183.646104 121.016222 
L 189.657039 121.016222 
L 189.779711 120.015195 
L 195.790646 120.015195 
L 195.913318 116.822352 
L 201.924252 116.822352 
L 202.046924 118.720081 
L 208.057859 118.720081 
L 208.180531 119.800994 
L 214.191466 119.800994 
L 214.314138 116.829575 
L 220.325072 116.829575 
L 220.447744 115.905229 
L 226.458679 115.905229 
L 226.581351 116.825185 
L 232.592286 116.825185 
L 232.714958 117.409016 
L 238.725892 117.409016 
L 238.848564 117.708585 
L 244.859499 117.708585 
L 244.982171 117.582372 
L 250.993106 117.582372 
L 251.115778 117.725132 
L 257.126712 117.725132 
L 257.249384 116.237449 
L 263.260319 116.237449 
L 263.382991 116.519735 
L 269.393926 116.519735 
L 269.516598 116.193161 
L 281.661139 116.139246 
L 281.783811 113.6406 
L 287.794746 113.6406 
L 287.917418 113.957419 
L 293.928352 113.957419 
L 294.051025 114.627371 
L 300.061959 114.627371 
L 300.184631 113.326294 
L 306.195566 113.326294 
L 306.318238 113.441507 
L 312.329172 113.441507 
L 312.451845 112.635455 
L 318.462779 112.635455 
L 318.585451 113.43797 
L 324.596386 113.43797 
L 324.719058 112.682322 
L 330.729992 112.682322 
L 330.852665 111.806251 
L 336.863599 111.806251 
L 336.986271 110.315588 
L 342.997206 110.315588 
L 343.119878 109.468474 
L 349.130813 109.468474 
L 349.253485 110.973641 
L 355.264419 110.973641 
L 355.387091 111.157966 
L 361.398026 111.157966 
L 361.520698 112.001939 
L 373.665239 112.063748 
L 373.787911 113.694925 
L 379.798846 113.694925 
L 379.921518 114.488635 
L 385.932453 114.488635 
L 386.055125 114.103596 
L 392.066059 114.103596 
L 392.188731 114.778776 
L 398.199666 114.778776 
L 398.322338 115.055262 
L 404.333273 115.055262 
L 404.455945 115.50387 
L 410.466879 115.50387 
L 410.589551 116.712386 
L 428.867699 116.760437 
L 428.990372 117.482337 
L 435.001306 117.482337 
L 435.123978 115.910773 
L 447.268519 116.01156 
L 447.391192 117.199154 
L 453.402126 117.199154 
L 453.524798 116.570135 
L 459.535733 116.570135 
L 459.658405 116.854279 
L 465.669339 116.854279 
L 465.792012 115.831261 
L 471.802946 115.831261 
L 471.925618 114.816749 
L 477.936553 114.816749 
L 478.059225 115.513854 
L 484.07016 115.513854 
L 484.192832 115.822885 
L 490.203766 115.822885 
L 490.326438 116.719041 
L 496.337373 116.719041 
L 496.460045 116.453041 
L 508.604586 116.367279 
L 508.727258 116.993434 
L 514.738193 116.993434 
L 514.860865 116.877158 
L 520.8718 116.877158 
L 520.994472 117.221508 
L 527.005406 117.221508 
L 527.128078 117.781973 
L 533.139013 117.781973 
L 533.261685 116.638353 
L 545.406226 116.638706 
L 545.528898 114.059882 
L 551.539833 114.059882 
L 551.662505 114.749829 
L 557.67344 114.749829 
L 557.796112 114.986427 
L 569.940653 114.933818 
L 570.063325 115.490493 
L 576.07426 115.490493 
L 576.196932 114.801733 
L 582.207866 114.801733 
L 582.330539 115.789273 
L 588.341473 115.789273 
L 588.464145 116.788334 
L 594.47508 116.788334 
L 594.597752 118.066072 
L 600.608686 118.066072 
L 600.731359 117.763867 
L 606.742293 117.763867 
L 606.864965 117.250315 
L 619.009506 117.301887 
L 619.132179 117.987061 
L 625.143113 117.987061 
L 625.265785 117.671599 
L 631.27672 117.671599 
L 631.399392 116.598766 
L 637.410327 116.598766 
L 637.532999 116.198072 
L 643.543933 116.198072 
L 643.666605 116.068076 
L 649.67754 116.068076 
L 649.800212 116.872938 
L 655.811147 116.872938 
L 655.933819 116.343276 
L 661.944753 116.343276 
L 662.067425 115.614239 
L 668.07836 115.614239 
L 668.201032 115.908671 
L 686.47918 115.842122 
L 686.601852 116.281856 
L 698.746393 116.30855 
L 698.869065 115.485885 
L 704.88 115.485885 
L 704.88 115.485885 
" clip-path="url(#pf06ed1498c)" style="fill: none; stroke: #1f77b4; stroke-width: 1.5; stroke-linecap: square"/>
   </g>
   <g id="line2d_13">
    <path d="M 91.55 69.693514 
L 97.683607 69.693514 
L 103.817213 69.69352 
L 109.95082 69.693736 
L 116.084427 69.695407 
L 122.218033 69.702776 
L 128.35164 69.725984 
L 134.485247 69.782533 
L 140.618853 69.893405 
L 146.75246 70.072877 
L 152.886067 70.318754 
L 159.019673 70.613356 
L 165.15328 70.936274 
L 171.286887 71.273081 
L 177.420494 71.617508 
L 183.5541 71.969161 
L 189.687707 72.329629 
L 195.821314 72.698305 
L 201.95492 73.072084 
L 208.088527 73.446283 
L 214.222134 73.815798 
L 220.35574 74.17418 
L 226.489347 74.51575 
L 232.622954 74.83502 
L 238.75656 75.12871 
L 244.890167 75.396374 
L 251.023774 75.639158 
L 257.15738 75.859104 
L 263.290987 76.058841 
L 269.424594 76.241488 
L 275.5582 76.410125 
L 281.691807 76.567594 
L 287.825414 76.716522 
L 293.95902 76.858725 
L 300.092627 76.99569 
L 306.226234 77.128549 
L 312.35984 77.2576 
L 318.493447 77.382999 
L 324.627054 77.505451 
L 330.760661 77.626387 
L 336.894267 77.746331 
L 343.027874 77.86511 
L 349.161481 77.982516 
L 355.295087 78.098756 
L 361.428694 78.214034 
L 367.562301 78.328811 
L 373.695907 78.443179 
L 379.829514 78.557134 
L 385.963121 78.670859 
L 392.096727 78.783902 
L 398.230334 78.895244 
L 404.363941 79.004271 
L 410.497547 79.111263 
L 416.631154 79.216359 
L 422.764761 79.319274 
L 428.898367 79.419829 
L 435.031974 79.518371 
L 441.165581 79.615408 
L 447.299187 79.710864 
L 453.432794 79.804395 
L 459.566401 79.895967 
L 465.700008 79.986656 
L 471.833614 80.077353 
L 477.967221 80.168356 
L 484.100828 80.260364 
L 490.234434 80.354511 
L 496.368041 80.451481 
L 502.501648 80.551132 
L 508.635254 80.652341 
L 514.768861 80.753235 
L 520.902468 80.852547 
L 527.036074 80.949712 
L 533.169681 81.044552 
L 539.303288 81.136927 
L 545.436894 81.226647 
L 551.570501 81.313774 
L 557.704108 81.398244 
L 563.837714 81.480351 
L 569.971321 81.560506 
L 576.104928 81.639784 
L 582.238534 81.719429 
L 588.372141 81.800376 
L 594.505748 81.883243 
L 600.639354 81.967941 
L 606.772961 82.053762 
L 612.906568 82.139392 
L 619.040175 82.223663 
L 625.173781 82.305811 
L 631.307388 82.385934 
L 637.440995 82.46411 
L 643.574601 82.540585 
L 649.708208 82.615907 
L 655.841815 82.690607 
L 661.975421 82.764639 
L 668.109028 82.838299 
L 674.242635 82.912051 
L 680.376241 82.985925 
L 686.509848 83.059879 
L 692.643455 83.134131 
L 698.777061 83.20883 
" clip-path="url(#pf06ed1498c)" style="fill: none; stroke-dasharray: 5.55,2.4; stroke-dashoffset: 0; stroke: #ff0000; stroke-width: 1.5"/>
   </g>
   <g id="line2d_14">
    <path d="M 91.55 164.871486 
L 97.683607 164.871486 
L 103.817213 164.87148 
L 109.95082 164.871264 
L 116.084427 164.869593 
L 122.218033 164.862224 
L 128.35164 164.839016 
L 134.485247 164.782467 
L 140.618853 164.671595 
L 146.75246 164.492123 
L 152.886067 164.246246 
L 159.019673 163.951644 
L 165.15328 163.628726 
L 171.286887 163.291919 
L 177.420494 162.947492 
L 183.5541 162.595839 
L 189.687707 162.235371 
L 195.821314 161.866695 
L 201.95492 161.492916 
L 208.088527 161.118717 
L 214.222134 160.749202 
L 220.35574 160.39082 
L 226.489347 160.04925 
L 232.622954 159.72998 
L 238.75656 159.43629 
L 244.890167 159.168626 
L 251.023774 158.925842 
L 257.15738 158.705896 
L 263.290987 158.506159 
L 269.424594 158.323512 
L 275.5582 158.154875 
L 281.691807 157.997406 
L 287.825414 157.848478 
L 293.95902 157.706275 
L 300.092627 157.56931 
L 306.226234 157.436451 
L 312.35984 157.3074 
L 318.493447 157.182001 
L 324.627054 157.059549 
L 330.760661 156.938613 
L 336.894267 156.818669 
L 343.027874 156.69989 
L 349.161481 156.582484 
L 355.295087 156.466244 
L 361.428694 156.350966 
L 367.562301 156.236189 
L 373.695907 156.121821 
L 379.829514 156.007866 
L 385.963121 155.894141 
L 392.096727 155.781098 
L 398.230334 155.669756 
L 404.363941 155.560729 
L 410.497547 155.453737 
L 416.631154 155.348641 
L 422.764761 155.245726 
L 428.898367 155.145171 
L 435.031974 155.046629 
L 441.165581 154.949592 
L 447.299187 154.854136 
L 453.432794 154.760605 
L 459.566401 154.669033 
L 465.700008 154.578344 
L 471.833614 154.487647 
L 477.967221 154.396644 
L 484.100828 154.304636 
L 490.234434 154.210489 
L 496.368041 154.113519 
L 502.501648 154.013868 
L 508.635254 153.912659 
L 514.768861 153.811765 
L 520.902468 153.712453 
L 527.036074 153.615288 
L 533.169681 153.520448 
L 539.303288 153.428073 
L 545.436894 153.338353 
L 551.570501 153.251226 
L 557.704108 153.166756 
L 563.837714 153.084649 
L 569.971321 153.004494 
L 576.104928 152.925216 
L 582.238534 152.845571 
L 588.372141 152.764624 
L 594.505748 152.681757 
L 600.639354 152.597059 
L 606.772961 152.511238 
L 612.906568 152.425608 
L 619.040175 152.341337 
L 625.173781 152.259189 
L 631.307388 152.179066 
L 637.440995 152.10089 
L 643.574601 152.024415 
L 649.708208 151.949093 
L 655.841815 151.874393 
L 661.975421 151.800361 
L 668.109028 151.726701 
L 674.242635 151.652949 
L 680.376241 151.579075 
L 686.509848 151.505121 
L 692.643455 151.430869 
L 698.777061 151.35617 
" clip-path="url(#pf06ed1498c)" style="fill: none; stroke-dasharray: 5.55,2.4; stroke-dashoffset: 0; stroke: #ff0000; stroke-width: 1.5"/>
   </g>
   <g id="patch_3">
    <path d="M 91.55 187.765 
L 91.55 46.8 
" style="fill: none; stroke: #000000; stroke-width: 0.8; stroke-linejoin: miter; stroke-linecap: square"/>
   </g>
   <g id="patch_4">
    <path d="M 704.88 187.765 
L 704.88 46.8 
" style="fill: none; stroke: #000000; stroke-width: 0.8; stroke-linejoin: miter; stroke-linecap: square"/>
   </g>
   <g id="patch_5">
    <path d="M 91.55 187.765 
L 704.88 187.765 
" style="fill: none; stroke: #000000; stroke-width: 0.8; stroke-linejoin: miter; stroke-linecap: square"/>
   </g>
   <g id="patch_6">
    <path d="M 91.55 46.8 
L 704.88 46.8 
" style="fill: none; stroke: #000000; stroke-width: 0.8; stroke-linejoin: miter; stroke-linecap: square"/>
   </g>
  </g>
  <g id="axes_2">
   <g id="patch_7">
    <path d="M 91.55 347.35 
L 704.88 347.35 
L 704.88 206.385 
L 91.55 206.385 
z
" style="fill: #ffffff"/>
   </g>
   <g id="matplotlib.axis_3">
    <g id="xtick_9">
     <g id="line2d_15">
      <g>
       <use xlink:href="#m16c170edd2" x="91.55" y="347.35" style="stroke: #000000; stroke-width: 0.8"/>
      </g>
     </g>
    </g>
    <g id="xtick_10">
     <g id="line2d_16">
      <g>
       <use xlink:href="#m16c170edd2" x="168.220084" y="347.35" style="stroke: #000000; stroke-width: 0.8"/>
      </g>
     </g>
    </g>
    <g id="xtick_11">
     <g id="line2d_17">
      <g>
       <use xlink:href="#m16c170edd2" x="244.890167" y="347.35" style="stroke: #000000; stroke-width: 0.8"/>
      </g>
     </g>
    </g>
    <g id="xtick_12">
     <g id="line2d_18">
      <g>
       <use xlink:href="#m16c170edd2" x="321.560251" y="347.35" style="stroke: #000000; stroke-width: 0.8"/>
      </g>
     </g>
    </g>
    <g id="xtick_13">
     <g id="line2d_19">
      <g>
       <use xlink:href="#m16c170edd2" x="398.230334" y="347.35" style="stroke: #000000; stroke-width: 0.8"/>
      </g>
     </g>
    </g>
    <g id="xtick_14">
     <g id="line2d_20">
      <g>
       <use xlink:href="#m16c170edd2" x="474.900418" y="347.35" style="stroke: #000000; stroke-width: 0.8"/>
      </g>
     </g>
    </g>
    <g id="xtick_15">
     <g id="line2d_21">
      <g>
       <use xlink:href="#m16c170edd2" x="551.570501" y="347.35" style="stroke: #000000; stroke-width: 0.8"/>
      </g>
     </g>
    </g>
    <g id="xtick_16">
     <g id="line2d_22">
      <g>
       <use xlink:href="#m16c170edd2" x="628.240585" y="347.35" style="stroke: #000000; stroke-width: 0.8"/>
      </g>
     </g>
    </g>
   </g>
   <g id="matplotlib.axis_4">
    <g id="ytick_4">
     <g id="line2d_23">
      <g>
       <use xlink:href="#maf98b7b6ec" x="91.55" y="324.775939" style="stroke: #000000; stroke-width: 0.8"/>
      </g>
     </g>
     <g id="text_5">
      <!-- −0.0050 -->
      <g transform="translate(23.831562 330.094845) scale(0.14 -0.14)">
       <defs>
        <path id="DejaVuSans-35" d="M 691 4666 
L 3169 4666 
L 3169 4134 
L 1269 4134 
L 1269 2991 
Q 1406 3038 1543 3061 
Q 1681 3084 1819 3084 
Q 2600 3084 3056 2656 
Q 3513 2228 3513 1497 
Q 3513 744 3044 326 
Q 2575 -91 1722 -91 
Q 1428 -91 1123 -41 
Q 819 9 494 109 
L 494 744 
Q 775 591 1075 516 
Q 1375 441 1709 441 
Q 2250 441 2565 725 
Q 2881 1009 2881 1497 
Q 2881 1984 2565 2268 
Q 2250 2553 1709 2553 
Q 1456 2553 1204 2497 
Q 953 2441 691 2322 
L 691 4666 
z
" transform="scale(0.015625)"/>
       </defs>
       <use xlink:href="#DejaVuSans-2212"/>
       <use xlink:href="#DejaVuSans-30" x="83.789062"/>
       <use xlink:href="#DejaVuSans-2e" x="147.412109"/>
       <use xlink:href="#DejaVuSans-30" x="179.199219"/>
       <use xlink:href="#DejaVuSans-30" x="242.822266"/>
       <use xlink:href="#DejaVuSans-35" x="306.445312"/>
       <use xlink:href="#DejaVuSans-30" x="370.068359"/>
      </g>
     </g>
    </g>
    <g id="ytick_5">
     <g id="line2d_24">
      <g>
       <use xlink:href="#maf98b7b6ec" x="91.55" y="300.82172" style="stroke: #000000; stroke-width: 0.8"/>
      </g>
     </g>
     <g id="text_6">
      <!-- −0.0025 -->
      <g transform="translate(23.831562 306.140626) scale(0.14 -0.14)">
       <use xlink:href="#DejaVuSans-2212"/>
       <use xlink:href="#DejaVuSans-30" x="83.789062"/>
       <use xlink:href="#DejaVuSans-2e" x="147.412109"/>
       <use xlink:href="#DejaVuSans-30" x="179.199219"/>
       <use xlink:href="#DejaVuSans-30" x="242.822266"/>
       <use xlink:href="#DejaVuSans-32" x="306.445312"/>
       <use xlink:href="#DejaVuSans-35" x="370.068359"/>
      </g>
     </g>
    </g>
    <g id="ytick_6">
     <g id="line2d_25">
      <g>
       <use xlink:href="#maf98b7b6ec" x="91.55" y="276.8675" style="stroke: #000000; stroke-width: 0.8"/>
      </g>
     </g>
     <g id="text_7">
      <!-- 0.0000 -->
      <g transform="translate(35.563125 282.186406) scale(0.14 -0.14)">
       <use xlink:href="#DejaVuSans-30"/>
       <use xlink:href="#DejaVuSans-2e" x="63.623047"/>
       <use xlink:href="#DejaVuSans-30" x="95.410156"/>
       <use xlink:href="#DejaVuSans-30" x="159.033203"/>
       <use xlink:href="#DejaVuSans-30" x="222.65625"/>
       <use xlink:href="#DejaVuSans-30" x="286.279297"/>
      </g>
     </g>
    </g>
    <g id="ytick_7">
     <g id="line2d_26">
      <g>
       <use xlink:href="#maf98b7b6ec" x="91.55" y="252.91328" style="stroke: #000000; stroke-width: 0.8"/>
      </g>
     </g>
     <g id="text_8">
      <!-- 0.0025 -->
      <g transform="translate(35.563125 258.232187) scale(0.14 -0.14)">
       <use xlink:href="#DejaVuSans-30"/>
       <use xlink:href="#DejaVuSans-2e" x="63.623047"/>
       <use xlink:href="#DejaVuSans-30" x="95.410156"/>
       <use xlink:href="#DejaVuSans-30" x="159.033203"/>
       <use xlink:href="#DejaVuSans-32" x="222.65625"/>
       <use xlink:href="#DejaVuSans-35" x="286.279297"/>
      </g>
     </g>
    </g>
    <g id="ytick_8">
     <g id="line2d_27">
      <g>
       <use xlink:href="#maf98b7b6ec" x="91.55" y="228.959061" style="stroke: #000000; stroke-width: 0.8"/>
      </g>
     </g>
     <g id="text_9">
      <!-- 0.0050 -->
      <g transform="translate(35.563125 234.277967) scale(0.14 -0.14)">
       <use xlink:href="#DejaVuSans-30"/>
       <use xlink:href="#DejaVuSans-2e" x="63.623047"/>
       <use xlink:href="#DejaVuSans-30" x="95.410156"/>
       <use xlink:href="#DejaVuSans-30" x="159.033203"/>
       <use xlink:href="#DejaVuSans-35" x="222.65625"/>
       <use xlink:href="#DejaVuSans-30" x="286.279297"/>
      </g>
     </g>
    </g>
    <g id="text_10">
     <!-- Gyro [rad/s] -->
     <g transform="translate(16.92 318.740625) rotate(-90) scale(0.14 -0.14)">
      <use xlink:href="#DejaVuSans-47"/>
      <use xlink:href="#DejaVuSans-79" x="77.490234"/>
      <use xlink:href="#DejaVuSans-72" x="136.669922"/>
      <use xlink:href="#DejaVuSans-6f" x="175.533203"/>
      <use xlink:href="#DejaVuSans-20" x="236.714844"/>
      <use xlink:href="#DejaVuSans-5b" x="268.501953"/>
      <use xlink:href="#DejaVuSans-72" x="307.515625"/>
      <use xlink:href="#DejaVuSans-61" x="348.628906"/>
      <use xlink:href="#DejaVuSans-64" x="409.908203"/>
      <use xlink:href="#DejaVuSans-2f" x="473.384766"/>
      <use xlink:href="#DejaVuSans-73" x="507.076172"/>
      <use xlink:href="#DejaVuSans-5d" x="559.175781"/>
     </g>
    </g>
   </g>
   <g id="line2d_28">
    <path d="M 91.55 276.8675 
L 128.320972 276.968746 
L 128.443644 277.15073 
L 134.454579 277.132817 
L 134.577251 276.923019 
L 146.721792 276.982005 
L 146.844464 276.711098 
L 152.855399 276.720989 
L 152.978071 275.934364 
L 158.989005 275.99338 
L 159.111678 277.056656 
L 165.122612 277.044693 
L 165.245284 277.572919 
L 171.256219 277.528305 
L 171.286887 280.929582 
L 171.378891 280.925522 
L 177.389825 280.668873 
L 177.512498 279.995431 
L 183.523432 279.797605 
L 183.646104 278.531818 
L 189.657039 278.426558 
L 189.779711 277.503232 
L 195.790646 277.463025 
L 195.821314 274.377913 
L 195.913318 274.380401 
L 201.924252 274.537697 
L 202.046924 276.358658 
L 208.057859 276.390839 
L 208.180531 277.512375 
L 214.191466 277.47159 
L 214.222134 273.945304 
L 214.314138 273.948225 
L 220.325072 274.132854 
L 220.35574 273.124356 
L 220.447744 273.128097 
L 226.458679 273.364595 
L 226.581351 274.393738 
L 232.592286 274.550191 
L 232.714958 275.512119 
L 238.725892 275.59784 
L 238.848564 275.920985 
L 244.859499 275.980847 
L 244.982171 275.597571 
L 250.993106 275.677887 
L 251.115778 276.025883 
L 257.126712 276.079111 
L 257.15738 273.737873 
L 257.249384 273.741001 
L 263.260319 273.938736 
L 263.382991 274.381686 
L 269.393926 274.538901 
L 269.516598 273.980183 
L 281.661139 274.265746 
L 281.691807 269.626599 
L 281.783811 269.633836 
L 287.794746 270.091328 
L 287.917418 270.698301 
L 293.928352 271.088471 
L 294.051025 272.337791 
L 300.061959 272.624272 
L 300.092627 270.055804 
L 300.184631 270.062612 
L 312.329172 271.000034 
L 312.35984 269.407804 
L 312.451845 269.41526 
L 318.462779 269.886576 
L 318.585451 271.533897 
L 324.596386 271.871219 
L 324.627054 270.233806 
L 324.719058 270.240437 
L 330.729992 270.659564 
L 330.760661 268.930553 
L 330.852665 268.938486 
L 336.863599 269.439955 
L 336.894267 266.290481 
L 336.986271 266.301052 
L 342.997206 266.969326 
L 343.027874 265.118392 
L 343.119878 265.130135 
L 349.130813 265.872463 
L 349.253485 269.22123 
L 355.264419 269.704817 
L 355.387091 270.098339 
L 361.398026 270.526453 
L 361.520698 272.339852 
L 367.531633 272.626203 
L 367.654305 272.761097 
L 373.665239 273.020806 
L 373.787911 276.635344 
L 379.798846 276.650027 
L 379.921518 278.400707 
L 385.932453 278.30374 
L 386.055125 277.450666 
L 392.066059 277.413784 
L 392.096727 278.971815 
L 392.188731 278.969712 
L 398.199666 278.836758 
L 398.322338 279.443984 
L 404.333273 279.281035 
L 404.363941 280.306179 
L 404.455945 280.302742 
L 410.466879 280.085481 
L 410.497547 282.854935 
L 410.589551 282.848951 
L 422.734093 282.155067 
L 422.856765 282.213837 
L 428.867699 281.875709 
L 428.898367 283.58287 
L 428.990372 283.576158 
L 435.001306 283.15187 
L 435.123978 279.351109 
L 441.134913 279.194034 
L 441.257585 279.412912 
L 447.268519 279.251928 
L 447.299187 282.146062 
L 447.391192 282.140786 
L 453.402126 281.807278 
L 453.524798 280.352384 
L 459.535733 280.131983 
L 459.658405 280.772899 
L 465.669339 280.525902 
L 465.792012 278.021675 
L 471.802946 277.94868 
L 471.833614 275.421184 
L 471.925618 275.422629 
L 477.936553 275.51401 
L 478.059225 277.241317 
L 484.07016 277.217675 
L 484.192832 278.03704 
L 490.203766 277.963072 
L 490.234434 280.204979 
L 490.326438 280.201643 
L 496.337373 279.990775 
L 496.460045 279.328117 
L 502.47098 279.172496 
L 502.593652 278.955046 
L 508.604586 278.823019 
L 508.635254 280.349652 
L 508.727258 280.346172 
L 514.738193 280.126164 
L 514.860865 279.801116 
L 520.8718 279.61558 
L 520.902468 280.428805 
L 520.994472 280.425245 
L 527.005406 280.200236 
L 527.036074 281.58331 
L 527.128078 281.578596 
L 533.139013 281.280644 
L 533.261685 278.412007 
L 545.406226 278.27278 
L 545.436894 271.608477 
L 545.528898 271.613733 
L 551.539833 271.946007 
L 551.662505 273.803556 
L 557.67344 273.997334 
L 557.796112 274.609953 
L 569.143284 274.777209 
L 569.940653 274.795246 
L 570.063325 276.28819 
L 576.07426 276.324828 
L 576.104928 274.438966 
L 576.196932 274.441393 
L 582.207866 274.594832 
L 582.330539 277.318842 
L 588.341473 277.290297 
L 588.372141 280.093948 
L 588.464145 280.090723 
L 594.47508 279.886871 
L 594.505748 283.444801 
L 594.597752 283.438227 
L 600.608686 283.022662 
L 600.731359 282.157726 
L 606.742293 281.823146 
L 606.864965 280.417436 
L 612.8759 280.192921 
L 612.998572 280.316649 
L 619.009506 280.098508 
L 619.040175 281.966517 
L 619.132179 281.96142 
L 625.143113 281.639256 
L 625.265785 280.762046 
L 631.27672 280.515736 
L 631.399392 277.533271 
L 637.410327 277.491164 
L 637.532999 276.331665 
L 643.543933 276.365554 
L 643.666605 276.029148 
L 649.67754 276.08217 
L 649.708208 278.422669 
L 649.800212 278.421114 
L 655.811147 278.322856 
L 655.933819 276.844334 
L 661.944753 276.845799 
L 661.975421 274.729955 
L 662.067425 274.732092 
L 668.07836 274.867146 
L 668.201032 275.741846 
L 680.345573 275.871112 
L 680.468245 275.688838 
L 686.47918 275.763383 
L 686.601852 277.048578 
L 698.746393 277.097996 
L 698.777061 274.664419 
L 698.869065 274.666621 
L 704.88 274.805815 
L 704.88 274.805815 
" clip-path="url(#p1bd59dcb44)" style="fill: none; stroke: #1f77b4; stroke-width: 1.5; stroke-linecap: square"/>
   </g>
   <g id="line2d_29">
    <path d="M 91.55 271.85054 
L 97.683607 258.531324 
L 103.817213 252.201044 
L 109.95082 247.769883 
L 116.084427 244.384333 
L 122.218033 241.688801 
L 128.35164 239.49248 
L 134.485247 237.679861 
L 140.618853 236.175928 
L 146.75246 234.928009 
L 152.886067 233.894653 
L 159.019673 233.040402 
L 165.15328 232.336291 
L 171.286887 231.759991 
L 177.420494 231.295374 
L 183.5541 230.931133 
L 189.687707 230.658447 
L 195.821314 230.4672 
L 201.95492 230.345581 
L 208.088527 230.281144 
L 214.222134 230.261699 
L 220.35574 230.273528 
L 226.489347 230.304194 
L 232.622954 230.341325 
L 238.75656 230.376031 
L 244.890167 230.403856 
L 251.023774 230.422743 
L 257.15738 230.432147 
L 263.290987 230.432728 
L 269.424594 230.426618 
L 275.5582 230.416342 
L 281.691807 230.404292 
L 287.825414 230.39263 
L 293.95902 230.381902 
L 300.092627 230.372626 
L 306.226234 230.364847 
L 312.35984 230.356971 
L 318.493447 230.34789 
L 324.627054 230.33861 
L 330.760661 230.331986 
L 336.894267 230.327634 
L 343.027874 230.323591 
L 349.161481 230.318688 
L 355.295087 230.313657 
L 361.428694 230.309186 
L 367.562301 230.306428 
L 373.695907 230.305031 
L 379.829514 230.3045 
L 385.963121 230.305264 
L 392.096727 230.305722 
L 398.230334 230.303211 
L 404.363941 230.297189 
L 410.497547 230.289936 
L 416.631154 230.282665 
L 422.764761 230.274746 
L 428.898367 230.265837 
L 435.031974 230.257243 
L 441.165581 230.250167 
L 447.299187 230.243457 
L 453.432794 230.235528 
L 459.566401 230.226136 
L 465.700008 230.218793 
L 471.833614 230.214998 
L 477.967221 230.2136 
L 484.100828 230.215427 
L 490.234434 230.222912 
L 496.368041 230.236548 
L 502.501648 230.254173 
L 508.635254 230.271257 
L 514.768861 230.282527 
L 520.902468 230.286683 
L 527.036074 230.285289 
L 533.169681 230.280812 
L 539.303288 230.274628 
L 545.436894 230.26713 
L 551.570501 230.258889 
L 557.704108 230.249594 
L 563.837714 230.240147 
L 569.971321 230.231169 
L 576.104928 230.225627 
L 582.238534 230.226277 
L 588.372141 230.234095 
L 594.505748 230.248824 
L 600.639354 230.267769 
L 606.772961 230.286719 
L 612.906568 230.300382 
L 619.040175 230.305964 
L 625.173781 230.303504 
L 631.307388 230.29655 
L 637.440995 230.287284 
L 643.574601 230.277833 
L 649.708208 230.270755 
L 655.841815 230.267487 
L 661.975421 230.266136 
L 668.109028 230.266732 
L 674.242635 230.270091 
L 680.376241 230.275022 
L 686.509848 230.280529 
L 692.643455 230.28734 
L 698.777061 230.295781 
" clip-path="url(#p1bd59dcb44)" style="fill: none; stroke-dasharray: 5.55,2.4; stroke-dashoffset: 0; stroke: #ff0000; stroke-width: 1.5"/>
   </g>
   <g id="line2d_30">
    <path d="M 91.55 281.88446 
L 97.683607 295.203676 
L 103.817213 301.533956 
L 109.95082 305.965117 
L 116.084427 309.350667 
L 122.218033 312.046199 
L 128.35164 314.24252 
L 134.485247 316.055139 
L 140.618853 317.559072 
L 146.75246 318.806991 
L 152.886067 319.840347 
L 159.019673 320.694598 
L 165.15328 321.398709 
L 171.286887 321.975009 
L 177.420494 322.439626 
L 183.5541 322.803867 
L 189.687707 323.076553 
L 195.821314 323.2678 
L 201.95492 323.389419 
L 208.088527 323.453856 
L 214.222134 323.473301 
L 220.35574 323.461472 
L 226.489347 323.430806 
L 232.622954 323.393675 
L 238.75656 323.358969 
L 244.890167 323.331144 
L 251.023774 323.312257 
L 257.15738 323.302853 
L 263.290987 323.302272 
L 269.424594 323.308382 
L 275.5582 323.318658 
L 281.691807 323.330708 
L 287.825414 323.34237 
L 293.95902 323.353098 
L 300.092627 323.362374 
L 306.226234 323.370153 
L 312.35984 323.378029 
L 318.493447 323.38711 
L 324.627054 323.39639 
L 330.760661 323.403014 
L 336.894267 323.407366 
L 343.027874 323.411409 
L 349.161481 323.416312 
L 355.295087 323.421343 
L 361.428694 323.425814 
L 367.562301 323.428572 
L 373.695907 323.429969 
L 379.829514 323.4305 
L 385.963121 323.429736 
L 392.096727 323.429278 
L 398.230334 323.431789 
L 404.363941 323.437811 
L 410.497547 323.445064 
L 416.631154 323.452335 
L 422.764761 323.460254 
L 428.898367 323.469163 
L 435.031974 323.477757 
L 441.165581 323.484833 
L 447.299187 323.491543 
L 453.432794 323.499472 
L 459.566401 323.508864 
L 465.700008 323.516207 
L 471.833614 323.520002 
L 477.967221 323.5214 
L 484.100828 323.519573 
L 490.234434 323.512088 
L 496.368041 323.498452 
L 502.501648 323.480827 
L 508.635254 323.463743 
L 514.768861 323.452473 
L 520.902468 323.448317 
L 527.036074 323.449711 
L 533.169681 323.454188 
L 539.303288 323.460372 
L 545.436894 323.46787 
L 551.570501 323.476111 
L 557.704108 323.485406 
L 563.837714 323.494853 
L 569.971321 323.503831 
L 576.104928 323.509373 
L 582.238534 323.508723 
L 588.372141 323.500905 
L 594.505748 323.486176 
L 600.639354 323.467231 
L 606.772961 323.448281 
L 612.906568 323.434618 
L 619.040175 323.429036 
L 625.173781 323.431496 
L 631.307388 323.43845 
L 637.440995 323.447716 
L 643.574601 323.457167 
L 649.708208 323.464245 
L 655.841815 323.467513 
L 661.975421 323.468864 
L 668.109028 323.468268 
L 674.242635 323.464909 
L 680.376241 323.459978 
L 686.509848 323.454471 
L 692.643455 323.44766 
L 698.777061 323.439219 
" clip-path="url(#p1bd59dcb44)" style="fill: none; stroke-dasharray: 5.55,2.4; stroke-dashoffset: 0; stroke: #ff0000; stroke-width: 1.5"/>
   </g>
   <g id="patch_8">
    <path d="M 91.55 347.35 
L 91.55 206.385 
" style="fill: none; stroke: #000000; stroke-width: 0.8; stroke-linejoin: miter; stroke-linecap: square"/>
   </g>
   <g id="patch_9">
    <path d="M 704.88 347.35 
L 704.88 206.385 
" style="fill: none; stroke: #000000; stroke-width: 0.8; stroke-linejoin: miter; stroke-linecap: square"/>
   </g>
   <g id="patch_10">
    <path d="M 91.55 347.35 
L 704.88 347.35 
" style="fill: none; stroke: #000000; stroke-width: 0.8; stroke-linejoin: miter; stroke-linecap: square"/>
   </g>
   <g id="patch_11">
    <path d="M 91.55 206.385 
L 704.88 206.385 
" style="fill: none; stroke: #000000; stroke-width: 0.8; stroke-linejoin: miter; stroke-linecap: square"/>
   </g>
  </g>
  <g id="axes_3">
   <g id="patch_12">
    <path d="M 91.55 506.935 
L 704.88 506.935 
L 704.88 365.97 
L 91.55 365.97 
z
" style="fill: #ffffff"/>
   </g>
   <g id="matplotlib.axis_5">
    <g id="xtick_17">
     <g id="line2d_31">
      <g>
       <use xlink:href="#m16c170edd2" x="91.55" y="506.935" style="stroke: #000000; stroke-width: 0.8"/>
      </g>
     </g>
    </g>
    <g id="xtick_18">
     <g id="line2d_32">
      <g>
       <use xlink:href="#m16c170edd2" x="168.220084" y="506.935" style="stroke: #000000; stroke-width: 0.8"/>
      </g>
     </g>
    </g>
    <g id="xtick_19">
     <g id="line2d_33">
      <g>
       <use xlink:href="#m16c170edd2" x="244.890167" y="506.935" style="stroke: #000000; stroke-width: 0.8"/>
      </g>
     </g>
    </g>
    <g id="xtick_20">
     <g id="line2d_34">
      <g>
       <use xlink:href="#m16c170edd2" x="321.560251" y="506.935" style="stroke: #000000; stroke-width: 0.8"/>
      </g>
     </g>
    </g>
    <g id="xtick_21">
     <g id="line2d_35">
      <g>
       <use xlink:href="#m16c170edd2" x="398.230334" y="506.935" style="stroke: #000000; stroke-width: 0.8"/>
      </g>
     </g>
    </g>
    <g id="xtick_22">
     <g id="line2d_36">
      <g>
       <use xlink:href="#m16c170edd2" x="474.900418" y="506.935" style="stroke: #000000; stroke-width: 0.8"/>
      </g>
     </g>
    </g>
    <g id="xtick_23">
     <g id="line2d_37">
      <g>
       <use xlink:href="#m16c170edd2" x="551.570501" y="506.935" style="stroke: #000000; stroke-width: 0.8"/>
      </g>
     </g>
    </g>
    <g id="xtick_24">
     <g id="line2d_38">
      <g>
       <use xlink:href="#m16c170edd2" x="628.240585" y="506.935" style="stroke: #000000; stroke-width: 0.8"/>
      </g>
     </g>
    </g>
   </g>
   <g id="matplotlib.axis_6">
    <g id="ytick_9">
     <g id="line2d_39">
      <g>
       <use xlink:href="#maf98b7b6ec" x="91.55" y="497.907773" style="stroke: #000000; stroke-width: 0.8"/>
      </g>
     </g>
     <g id="text_11">
      <!-- −0.075 -->
      <g transform="translate(32.739062 503.226679) scale(0.14 -0.14)">
       <defs>
        <path id="DejaVuSans-37" d="M 525 4666 
L 3525 4666 
L 3525 4397 
L 1831 0 
L 1172 0 
L 2766 4134 
L 525 4134 
L 525 4666 
z
" transform="scale(0.015625)"/>
       </defs>
       <use xlink:href="#DejaVuSans-2212"/>
       <use xlink:href="#DejaVuSans-30" x="83.789062"/>
       <use xlink:href="#DejaVuSans-2e" x="147.412109"/>
       <use xlink:href="#DejaVuSans-30" x="179.199219"/>
       <use xlink:href="#DejaVuSans-37" x="242.822266"/>
       <use xlink:href="#DejaVuSans-35" x="306.445312"/>
      </g>
     </g>
    </g>
    <g id="ytick_10">
     <g id="line2d_40">
      <g>
       <use xlink:href="#maf98b7b6ec" x="91.55" y="477.422682" style="stroke: #000000; stroke-width: 0.8"/>
      </g>
     </g>
     <g id="text_12">
      <!-- −0.050 -->
      <g transform="translate(32.739062 482.741588) scale(0.14 -0.14)">
       <use xlink:href="#DejaVuSans-2212"/>
       <use xlink:href="#DejaVuSans-30" x="83.789062"/>
       <use xlink:href="#DejaVuSans-2e" x="147.412109"/>
       <use xlink:href="#DejaVuSans-30" x="179.199219"/>
       <use xlink:href="#DejaVuSans-35" x="242.822266"/>
       <use xlink:href="#DejaVuSans-30" x="306.445312"/>
      </g>
     </g>
    </g>
    <g id="ytick_11">
     <g id="line2d_41">
      <g>
       <use xlink:href="#maf98b7b6ec" x="91.55" y="456.937591" style="stroke: #000000; stroke-width: 0.8"/>
      </g>
     </g>
     <g id="text_13">
      <!-- −0.025 -->
      <g transform="translate(32.739062 462.256497) scale(0.14 -0.14)">
       <use xlink:href="#DejaVuSans-2212"/>
       <use xlink:href="#DejaVuSans-30" x="83.789062"/>
       <use xlink:href="#DejaVuSans-2e" x="147.412109"/>
       <use xlink:href="#DejaVuSans-30" x="179.199219"/>
       <use xlink:href="#DejaVuSans-32" x="242.822266"/>
       <use xlink:href="#DejaVuSans-35" x="306.445312"/>
      </g>
     </g>
    </g>
    <g id="ytick_12">
     <g id="line2d_42">
      <g>
       <use xlink:href="#maf98b7b6ec" x="91.55" y="436.4525" style="stroke: #000000; stroke-width: 0.8"/>
      </g>
     </g>
     <g id="text_14">
      <!-- 0.000 -->
      <g transform="translate(44.470625 441.771406) scale(0.14 -0.14)">
       <use xlink:href="#DejaVuSans-30"/>
       <use xlink:href="#DejaVuSans-2e" x="63.623047"/>
       <use xlink:href="#DejaVuSans-30" x="95.410156"/>
       <use xlink:href="#DejaVuSans-30" x="159.033203"/>
       <use xlink:href="#DejaVuSans-30" x="222.65625"/>
      </g>
     </g>
    </g>
    <g id="ytick_13">
     <g id="line2d_43">
      <g>
       <use xlink:href="#maf98b7b6ec" x="91.55" y="415.967409" style="stroke: #000000; stroke-width: 0.8"/>
      </g>
     </g>
     <g id="text_15">
      <!-- 0.025 -->
      <g transform="translate(44.470625 421.286315) scale(0.14 -0.14)">
       <use xlink:href="#DejaVuSans-30"/>
       <use xlink:href="#DejaVuSans-2e" x="63.623047"/>
       <use xlink:href="#DejaVuSans-30" x="95.410156"/>
       <use xlink:href="#DejaVuSans-32" x="159.033203"/>
       <use xlink:href="#DejaVuSans-35" x="222.65625"/>
      </g>
     </g>
    </g>
    <g id="ytick_14">
     <g id="line2d_44">
      <g>
       <use xlink:href="#maf98b7b6ec" x="91.55" y="395.482318" style="stroke: #000000; stroke-width: 0.8"/>
      </g>
     </g>
     <g id="text_16">
      <!-- 0.050 -->
      <g transform="translate(44.470625 400.801224) scale(0.14 -0.14)">
       <use xlink:href="#DejaVuSans-30"/>
       <use xlink:href="#DejaVuSans-2e" x="63.623047"/>
       <use xlink:href="#DejaVuSans-30" x="95.410156"/>
       <use xlink:href="#DejaVuSans-35" x="159.033203"/>
       <use xlink:href="#DejaVuSans-30" x="222.65625"/>
      </g>
     </g>
    </g>
    <g id="ytick_15">
     <g id="line2d_45">
      <g>
       <use xlink:href="#maf98b7b6ec" x="91.55" y="374.997227" style="stroke: #000000; stroke-width: 0.8"/>
      </g>
     </g>
     <g id="text_17">
      <!-- 0.075 -->
      <g transform="translate(44.470625 380.316133) scale(0.14 -0.14)">
       <use xlink:href="#DejaVuSans-30"/>
       <use xlink:href="#DejaVuSans-2e" x="63.623047"/>
       <use xlink:href="#DejaVuSans-30" x="95.410156"/>
       <use xlink:href="#DejaVuSans-37" x="159.033203"/>
       <use xlink:href="#DejaVuSans-35" x="222.65625"/>
      </g>
     </g>
    </g>
    <g id="text_18">
     <!-- Acc N [m/s²] -->
     <g transform="translate(25.8275 479.594375) rotate(-90) scale(0.14 -0.14)">
      <defs>
       <path id="DejaVuSans-41" d="M 2188 4044 
L 1331 1722 
L 3047 1722 
L 2188 4044 
z
M 1831 4666 
L 2547 4666 
L 4325 0 
L 3669 0 
L 3244 1197 
L 1141 1197 
L 716 0 
L 50 0 
L 1831 4666 
z
" transform="scale(0.015625)"/>
       <path id="DejaVuSans-63" d="M 3122 3366 
L 3122 2828 
Q 2878 2963 2633 3030 
Q 2388 3097 2138 3097 
Q 1578 3097 1268 2742 
Q 959 2388 959 1747 
Q 959 1106 1268 751 
Q 1578 397 2138 397 
Q 2388 397 2633 464 
Q 2878 531 3122 666 
L 3122 134 
Q 2881 22 2623 -34 
Q 2366 -91 2075 -91 
Q 1284 -91 818 406 
Q 353 903 353 1747 
Q 353 2603 823 3093 
Q 1294 3584 2113 3584 
Q 2378 3584 2631 3529 
Q 2884 3475 3122 3366 
z
" transform="scale(0.015625)"/>
       <path id="DejaVuSans-4e" d="M 628 4666 
L 1478 4666 
L 3547 763 
L 3547 4666 
L 4159 4666 
L 4159 0 
L 3309 0 
L 1241 3903 
L 1241 0 
L 628 0 
L 628 4666 
z
" transform="scale(0.015625)"/>
       <path id="DejaVuSans-6d" d="M 3328 2828 
Q 3544 3216 3844 3400 
Q 4144 3584 4550 3584 
Q 5097 3584 5394 3201 
Q 5691 2819 5691 2113 
L 5691 0 
L 5113 0 
L 5113 2094 
Q 5113 2597 4934 2840 
Q 4756 3084 4391 3084 
Q 3944 3084 3684 2787 
Q 3425 2491 3425 1978 
L 3425 0 
L 2847 0 
L 2847 2094 
Q 2847 2600 2669 2842 
Q 2491 3084 2119 3084 
Q 1678 3084 1418 2786 
Q 1159 2488 1159 1978 
L 1159 0 
L 581 0 
L 581 3500 
L 1159 3500 
L 1159 2956 
Q 1356 3278 1631 3431 
Q 1906 3584 2284 3584 
Q 2666 3584 2933 3390 
Q 3200 3197 3328 2828 
z
" transform="scale(0.015625)"/>
       <path id="DejaVuSans-b2" d="M 838 2444 
L 2163 2444 
L 2163 2088 
L 294 2088 
L 294 2431 
Q 400 2528 597 2703 
Q 1672 3656 1672 3950 
Q 1672 4156 1509 4282 
Q 1347 4409 1081 4409 
Q 919 4409 728 4354 
Q 538 4300 313 4191 
L 313 4575 
Q 553 4663 761 4706 
Q 969 4750 1147 4750 
Q 1600 4750 1872 4544 
Q 2144 4338 2144 4000 
Q 2144 3566 1109 2678 
Q 934 2528 838 2444 
z
" transform="scale(0.015625)"/>
      </defs>
      <use xlink:href="#DejaVuSans-41"/>
      <use xlink:href="#DejaVuSans-63" x="66.658203"/>
      <use xlink:href="#DejaVuSans-63" x="121.638672"/>
      <use xlink:href="#DejaVuSans-20" x="176.619141"/>
      <use xlink:href="#DejaVuSans-4e" x="208.40625"/>
      <use xlink:href="#DejaVuSans-20" x="283.210938"/>
      <use xlink:href="#DejaVuSans-5b" x="314.998047"/>
      <use xlink:href="#DejaVuSans-6d" x="354.011719"/>
      <use xlink:href="#DejaVuSans-2f" x="451.423828"/>
      <use xlink:href="#DejaVuSans-73" x="485.115234"/>
      <use xlink:href="#DejaVuSans-b2" x="537.214844"/>
      <use xlink:href="#DejaVuSans-5d" x="577.302734"/>
     </g>
    </g>
   </g>
   <g id="line2d_46">
    <path d="M 91.55 436.4525 
L 116.053759 436.464383 
L 116.176431 436.305591 
L 122.187365 436.310313 
L 122.310038 436.009636 
L 128.320972 436.02387 
L 128.443644 435.388725 
L 134.454579 435.422913 
L 134.577251 436.042516 
L 140.588185 436.055692 
L 140.710858 435.922557 
L 146.721792 435.939589 
L 146.844464 436.563596 
L 152.855399 436.560026 
L 152.978071 438.278337 
L 158.989005 438.219656 
L 159.111678 436.223222 
L 165.122612 436.230591 
L 165.245284 435.244229 
L 171.256219 435.283062 
L 171.286887 430.265901 
L 171.378891 430.268994 
L 177.389825 430.467725 
L 177.512498 431.391826 
L 183.523432 431.55447 
L 183.646104 432.816165 
L 189.657039 432.933033 
L 189.779711 433.784498 
L 195.790646 433.870245 
L 195.913318 436.579864 
L 201.924252 436.57577 
L 202.046924 434.820614 
L 208.057859 434.873061 
L 208.180531 433.928114 
L 214.191466 434.009245 
L 214.314138 436.259681 
L 220.325072 436.265878 
L 220.447744 437.097427 
L 226.458679 437.076699 
L 226.581351 436.236902 
L 232.592286 436.243831 
L 232.714958 435.981856 
L 238.725892 435.996982 
L 238.848564 435.675687 
L 244.859499 435.700653 
L 244.982171 435.538203 
L 257.126712 435.699783 
L 257.249384 436.817475 
L 263.260319 436.805745 
L 263.382991 436.520022 
L 269.393926 436.517852 
L 269.516598 436.758527 
L 275.527532 436.748691 
L 275.650205 436.865644 
L 281.661139 436.852366 
L 281.783811 438.685779 
L 287.794746 438.614004 
L 287.917418 438.360245 
L 293.928352 438.298932 
L 294.051025 437.783209 
L 300.061959 437.740442 
L 300.184631 438.776559 
L 306.195566 438.701866 
L 306.318238 438.833361 
L 312.329172 438.756842 
L 312.451845 439.330225 
L 318.462779 439.237738 
L 318.585451 438.584742 
L 324.596386 438.516214 
L 324.719058 439.254796 
L 330.729992 439.164733 
L 330.852665 439.816635 
L 336.863599 439.708516 
L 336.894267 441.019281 
L 336.986271 441.016998 
L 342.997206 440.8703 
L 343.119878 441.642611 
L 349.130813 441.475807 
L 349.253485 440.117023 
L 355.264419 439.999249 
L 355.387091 439.820847 
L 361.398026 439.712592 
L 361.520698 438.876995 
L 373.665239 438.635693 
L 373.787911 437.388277 
L 379.798846 437.358203 
L 379.921518 437.076001 
L 385.932453 437.055962 
L 386.055125 437.29208 
L 392.066059 437.265097 
L 392.188731 436.126434 
L 404.333273 436.049836 
L 404.455945 435.56124 
L 410.466879 435.589884 
L 410.589551 434.431484 
L 416.600486 434.496437 
L 416.723158 434.639689 
L 428.867699 434.853474 
L 428.990372 434.177972 
L 435.001306 434.251073 
L 435.123978 435.793786 
L 447.268519 435.735422 
L 447.391192 434.449772 
L 453.402126 434.514137 
L 453.524798 435.159044 
L 459.535733 435.200614 
L 459.658405 434.901342 
L 465.669339 434.951194 
L 465.792012 436.165136 
L 471.802946 436.174371 
L 471.925618 437.378966 
L 477.936553 437.349191 
L 478.059225 436.476798 
L 484.07016 436.476017 
L 484.192832 436.59808 
L 490.203766 436.593401 
L 490.326438 436.043108 
L 496.337373 436.056266 
L 496.460045 436.345575 
L 502.47098 436.349011 
L 502.593652 436.704881 
L 508.604586 436.69677 
L 508.727258 435.939544 
L 514.738193 435.95603 
L 514.860865 435.774394 
L 520.8718 435.796188 
L 520.994472 435.466749 
L 527.005406 435.49843 
L 527.128078 435.065576 
L 533.139013 435.11015 
L 533.261685 436.034225 
L 545.406226 436.069094 
L 545.528898 438.42179 
L 551.539833 438.358499 
L 551.662505 437.729198 
L 557.67344 437.688166 
L 557.796112 437.407975 
L 563.807046 437.377267 
L 563.929718 437.625176 
L 569.940653 437.587488 
L 570.063325 436.710615 
L 576.07426 436.702319 
L 576.196932 438.260634 
L 582.207866 438.202522 
L 582.330539 436.712352 
L 588.341473 436.704 
L 588.464145 434.744165 
L 594.47508 434.799069 
L 594.505748 432.745015 
L 594.597752 432.746868 
L 600.608686 432.865963 
L 600.731359 433.52264 
L 606.742293 433.616802 
L 606.864965 434.143061 
L 612.8759 434.217284 
L 612.998572 434.391125 
L 619.009506 434.457375 
L 619.132179 433.750505 
L 625.143113 433.837344 
L 625.265785 434.072163 
L 631.27672 434.148664 
L 631.399392 435.191838 
L 637.410327 435.232354 
L 637.532999 435.514496 
L 643.543933 435.544642 
L 643.666605 435.810625 
L 649.67754 435.831254 
L 649.800212 435.10427 
L 655.811147 435.147601 
L 655.933819 436.157671 
L 661.944753 436.167146 
L 662.067425 437.034662 
L 674.211967 436.914416 
L 674.334639 437.363394 
L 680.345573 437.334119 
L 680.468245 437.080239 
L 686.47918 437.060064 
L 686.601852 436.459174 
L 698.746393 436.417742 
L 698.869065 437.325767 
L 704.88 437.297701 
L 704.88 437.297701 
" clip-path="url(#pac05a0b241)" style="fill: none; stroke: #1f77b4; stroke-width: 1.5; stroke-linecap: square"/>
   </g>
   <g id="line2d_47">
    <path d="M 91.55 429.217985 
L 97.683607 422.346379 
L 103.817213 418.117635 
L 109.95082 414.901301 
L 116.084427 412.283023 
L 122.218033 410.087507 
L 128.35164 408.23277 
L 134.485247 406.682762 
L 140.618853 405.416003 
L 146.75246 404.397158 
L 152.886067 403.565241 
L 159.019673 402.849594 
L 165.15328 402.195328 
L 171.286887 401.573884 
L 177.420494 400.976692 
L 183.5541 400.403515 
L 189.687707 399.85538 
L 195.821314 399.333483 
L 201.95492 398.837268 
L 208.088527 398.364198 
L 214.222134 397.909383 
L 220.35574 397.467618 
L 226.489347 397.034234 
L 232.622954 396.608328 
L 238.75656 396.191205 
L 244.890167 395.784533 
L 251.023774 395.390588 
L 257.15738 395.012039 
L 263.290987 394.650816 
L 269.424594 394.307971 
L 275.5582 393.984102 
L 281.691807 393.6794 
L 287.825414 393.393271 
L 293.95902 393.125642 
L 300.092627 392.876438 
L 306.226234 392.645005 
L 312.35984 392.43103 
L 318.493447 392.234026 
L 324.627054 392.052474 
L 330.760661 391.883046 
L 336.894267 391.723765 
L 343.027874 391.573932 
L 349.161481 391.433218 
L 355.295087 391.301105 
L 361.428694 391.177275 
L 367.562301 391.0609 
L 373.695907 390.951684 
L 379.829514 390.848924 
L 385.963121 390.75134 
L 392.096727 390.658469 
L 398.230334 390.571351 
L 404.363941 390.490825 
L 410.497547 390.416052 
L 416.631154 390.346642 
L 422.764761 390.28352 
L 428.898367 390.227768 
L 435.031974 390.179323 
L 441.165581 390.137108 
L 447.299187 390.101142 
L 453.432794 390.072435 
L 459.566401 390.051019 
L 465.700008 390.033199 
L 471.833614 390.015842 
L 477.967221 389.997771 
L 484.100828 389.976743 
L 490.234434 389.949175 
L 496.368041 389.912315 
L 502.501648 389.865404 
L 508.635254 389.810751 
L 514.768861 389.753344 
L 520.902468 389.697511 
L 527.036074 389.646153 
L 533.169681 389.601109 
L 539.303288 389.563511 
L 545.436894 389.534556 
L 551.570501 389.514645 
L 557.704108 389.505032 
L 563.837714 389.506782 
L 569.971321 389.519918 
L 576.104928 389.54081 
L 582.238534 389.563024 
L 588.372141 389.580207 
L 594.505748 389.587835 
L 600.639354 389.583952 
L 606.772961 389.569359 
L 612.906568 389.547972 
L 619.040175 389.524497 
L 625.173781 389.503307 
L 631.307388 389.486386 
L 637.440995 389.475369 
L 643.574601 389.471173 
L 649.708208 389.473326 
L 655.841815 389.480692 
L 661.975421 389.4928 
L 668.109028 389.50647 
L 674.242635 389.517635 
L 680.376241 389.52438 
L 686.509848 389.526073 
L 692.643455 389.522167 
L 698.777061 389.512195 
" clip-path="url(#pac05a0b241)" style="fill: none; stroke-dasharray: 5.55,2.4; stroke-dashoffset: 0; stroke: #ff0000; stroke-width: 1.5"/>
   </g>
   <g id="line2d_48">
    <path d="M 91.55 443.687015 
L 97.683607 450.558621 
L 103.817213 454.787365 
L 109.95082 458.003699 
L 116.084427 460.621977 
L 122.218033 462.817493 
L 128.35164 464.67223 
L 134.485247 466.222238 
L 140.618853 467.488997 
L 146.75246 468.507842 
L 152.886067 469.339759 
L 159.019673 470.055406 
L 165.15328 470.709672 
L 171.286887 471.331116 
L 177.420494 471.928308 
L 183.5541 472.501485 
L 189.687707 473.04962 
L 195.821314 473.571517 
L 201.95492 474.067732 
L 208.088527 474.540802 
L 214.222134 474.995617 
L 220.35574 475.437382 
L 226.489347 475.870766 
L 232.622954 476.296672 
L 238.75656 476.713795 
L 244.890167 477.120467 
L 251.023774 477.514412 
L 257.15738 477.892961 
L 263.290987 478.254184 
L 269.424594 478.597029 
L 275.5582 478.920898 
L 281.691807 479.2256 
L 287.825414 479.511729 
L 293.95902 479.779358 
L 300.092627 480.028562 
L 306.226234 480.259995 
L 312.35984 480.47397 
L 318.493447 480.670974 
L 324.627054 480.852526 
L 330.760661 481.021954 
L 336.894267 481.181235 
L 343.027874 481.331068 
L 349.161481 481.471782 
L 355.295087 481.603895 
L 361.428694 481.727725 
L 367.562301 481.8441 
L 373.695907 481.953316 
L 379.829514 482.056076 
L 385.963121 482.15366 
L 392.096727 482.246531 
L 398.230334 482.333649 
L 404.363941 482.414175 
L 410.497547 482.488948 
L 416.631154 482.558358 
L 422.764761 482.62148 
L 428.898367 482.677232 
L 435.031974 482.725677 
L 441.165581 482.767892 
L 447.299187 482.803858 
L 453.432794 482.832565 
L 459.566401 482.853981 
L 465.700008 482.871801 
L 471.833614 482.889158 
L 477.967221 482.907229 
L 484.100828 482.928257 
L 490.234434 482.955825 
L 496.368041 482.992685 
L 502.501648 483.039596 
L 508.635254 483.094249 
L 514.768861 483.151656 
L 520.902468 483.207489 
L 527.036074 483.258847 
L 533.169681 483.303891 
L 539.303288 483.341489 
L 545.436894 483.370444 
L 551.570501 483.390355 
L 557.704108 483.399968 
L 563.837714 483.398218 
L 569.971321 483.385082 
L 576.104928 483.36419 
L 582.238534 483.341976 
L 588.372141 483.324793 
L 594.505748 483.317165 
L 600.639354 483.321048 
L 606.772961 483.335641 
L 612.906568 483.357028 
L 619.040175 483.380503 
L 625.173781 483.401693 
L 631.307388 483.418614 
L 637.440995 483.429631 
L 643.574601 483.433827 
L 649.708208 483.431674 
L 655.841815 483.424308 
L 661.975421 483.4122 
L 668.109028 483.39853 
L 674.242635 483.387365 
L 680.376241 483.38062 
L 686.509848 483.378927 
L 692.643455 483.382833 
L 698.777061 483.392805 
" clip-path="url(#pac05a0b241)" style="fill: none; stroke-dasharray: 5.55,2.4; stroke-dashoffset: 0; stroke: #ff0000; stroke-width: 1.5"/>
   </g>
   <g id="patch_13">
    <path d="M 91.55 506.935 
L 91.55 365.97 
" style="fill: none; stroke: #000000; stroke-width: 0.8; stroke-linejoin: miter; stroke-linecap: square"/>
   </g>
   <g id="patch_14">
    <path d="M 704.88 506.935 
L 704.88 365.97 
" style="fill: none; stroke: #000000; stroke-width: 0.8; stroke-linejoin: miter; stroke-linecap: square"/>
   </g>
   <g id="patch_15">
    <path d="M 91.55 506.935 
L 704.88 506.935 
" style="fill: none; stroke: #000000; stroke-width: 0.8; stroke-linejoin: miter; stroke-linecap: square"/>
   </g>
   <g id="patch_16">
    <path d="M 91.55 365.97 
L 704.88 365.97 
" style="fill: none; stroke: #000000; stroke-width: 0.8; stroke-linejoin: miter; stroke-linecap: square"/>
   </g>
  </g>
  <g id="axes_4">
   <g id="patch_17">
    <path d="M 91.55 666.52 
L 704.88 666.52 
L 704.88 525.555 
L 91.55 525.555 
z
" style="fill: #ffffff"/>
   </g>
   <g id="matplotlib.axis_7">
    <g id="xtick_25">
     <g id="line2d_49">
      <g>
       <use xlink:href="#m16c170edd2" x="91.55" y="666.52" style="stroke: #000000; stroke-width: 0.8"/>
      </g>
     </g>
     <g id="text_19">
      <!-- 0 -->
      <g transform="translate(87.09625 684.157812) scale(0.14 -0.14)">
       <use xlink:href="#DejaVuSans-30"/>
      </g>
     </g>
    </g>
    <g id="xtick_26">
     <g id="line2d_50">
      <g>
       <use xlink:href="#m16c170edd2" x="168.220084" y="666.52" style="stroke: #000000; stroke-width: 0.8"/>
      </g>
     </g>
     <g id="text_20">
      <!-- 25 -->
      <g transform="translate(159.312584 684.157812) scale(0.14 -0.14)">
       <use xlink:href="#DejaVuSans-32"/>
       <use xlink:href="#DejaVuSans-35" x="63.623047"/>
      </g>
     </g>
    </g>
    <g id="xtick_27">
     <g id="line2d_51">
      <g>
       <use xlink:href="#m16c170edd2" x="244.890167" y="666.52" style="stroke: #000000; stroke-width: 0.8"/>
      </g>
     </g>
     <g id="text_21">
      <!-- 50 -->
      <g transform="translate(235.982667 684.157812) scale(0.14 -0.14)">
       <use xlink:href="#DejaVuSans-35"/>
       <use xlink:href="#DejaVuSans-30" x="63.623047"/>
      </g>
     </g>
    </g>
    <g id="xtick_28">
     <g id="line2d_52">
      <g>
       <use xlink:href="#m16c170edd2" x="321.560251" y="666.52" style="stroke: #000000; stroke-width: 0.8"/>
      </g>
     </g>
     <g id="text_22">
      <!-- 75 -->
      <g transform="translate(312.652751 684.157812) scale(0.14 -0.14)">
       <use xlink:href="#DejaVuSans-37"/>
       <use xlink:href="#DejaVuSans-35" x="63.623047"/>
      </g>
     </g>
    </g>
    <g id="xtick_29">
     <g id="line2d_53">
      <g>
       <use xlink:href="#m16c170edd2" x="398.230334" y="666.52" style="stroke: #000000; stroke-width: 0.8"/>
      </g>
     </g>
     <g id="text_23">
      <!-- 100 -->
      <g transform="translate(384.869084 684.157812) scale(0.14 -0.14)">
       <defs>
        <path id="DejaVuSans-31" d="M 794 531 
L 1825 531 
L 1825 4091 
L 703 3866 
L 703 4441 
L 1819 4666 
L 2450 4666 
L 2450 531 
L 3481 531 
L 3481 0 
L 794 0 
L 794 531 
z
" transform="scale(0.015625)"/>
       </defs>
       <use xlink:href="#DejaVuSans-31"/>
       <use xlink:href="#DejaVuSans-30" x="63.623047"/>
       <use xlink:href="#DejaVuSans-30" x="127.246094"/>
      </g>
     </g>
    </g>
    <g id="xtick_30">
     <g id="line2d_54">
      <g>
       <use xlink:href="#m16c170edd2" x="474.900418" y="666.52" style="stroke: #000000; stroke-width: 0.8"/>
      </g>
     </g>
     <g id="text_24">
      <!-- 125 -->
      <g transform="translate(461.539168 684.157812) scale(0.14 -0.14)">
       <use xlink:href="#DejaVuSans-31"/>
       <use xlink:href="#DejaVuSans-32" x="63.623047"/>
       <use xlink:href="#DejaVuSans-35" x="127.246094"/>
      </g>
     </g>
    </g>
    <g id="xtick_31">
     <g id="line2d_55">
      <g>
       <use xlink:href="#m16c170edd2" x="551.570501" y="666.52" style="stroke: #000000; stroke-width: 0.8"/>
      </g>
     </g>
     <g id="text_25">
      <!-- 150 -->
      <g transform="translate(538.209251 684.157812) scale(0.14 -0.14)">
       <use xlink:href="#DejaVuSans-31"/>
       <use xlink:href="#DejaVuSans-35" x="63.623047"/>
       <use xlink:href="#DejaVuSans-30" x="127.246094"/>
      </g>
     </g>
    </g>
    <g id="xtick_32">
     <g id="line2d_56">
      <g>
       <use xlink:href="#m16c170edd2" x="628.240585" y="666.52" style="stroke: #000000; stroke-width: 0.8"/>
      </g>
     </g>
     <g id="text_26">
      <!-- 175 -->
      <g transform="translate(614.879335 684.157812) scale(0.14 -0.14)">
       <use xlink:href="#DejaVuSans-31"/>
       <use xlink:href="#DejaVuSans-37" x="63.623047"/>
       <use xlink:href="#DejaVuSans-35" x="127.246094"/>
      </g>
     </g>
    </g>
    <g id="text_27">
     <!-- Timestamp [s] -->
     <g transform="translate(347.811719 701.707188) scale(0.14 -0.14)">
      <defs>
       <path id="DejaVuSans-54" d="M -19 4666 
L 3928 4666 
L 3928 4134 
L 2272 4134 
L 2272 0 
L 1638 0 
L 1638 4134 
L -19 4134 
L -19 4666 
z
" transform="scale(0.015625)"/>
       <path id="DejaVuSans-65" d="M 3597 1894 
L 3597 1613 
L 953 1613 
Q 991 1019 1311 708 
Q 1631 397 2203 397 
Q 2534 397 2845 478 
Q 3156 559 3463 722 
L 3463 178 
Q 3153 47 2828 -22 
Q 2503 -91 2169 -91 
Q 1331 -91 842 396 
Q 353 884 353 1716 
Q 353 2575 817 3079 
Q 1281 3584 2069 3584 
Q 2775 3584 3186 3129 
Q 3597 2675 3597 1894 
z
M 3022 2063 
Q 3016 2534 2758 2815 
Q 2500 3097 2075 3097 
Q 1594 3097 1305 2825 
Q 1016 2553 972 2059 
L 3022 2063 
z
" transform="scale(0.015625)"/>
       <path id="DejaVuSans-74" d="M 1172 4494 
L 1172 3500 
L 2356 3500 
L 2356 3053 
L 1172 3053 
L 1172 1153 
Q 1172 725 1289 603 
Q 1406 481 1766 481 
L 2356 481 
L 2356 0 
L 1766 0 
Q 1100 0 847 248 
Q 594 497 594 1153 
L 594 3053 
L 172 3053 
L 172 3500 
L 594 3500 
L 594 4494 
L 1172 4494 
z
" transform="scale(0.015625)"/>
       <path id="DejaVuSans-70" d="M 1159 525 
L 1159 -1331 
L 581 -1331 
L 581 3500 
L 1159 3500 
L 1159 2969 
Q 1341 3281 1617 3432 
Q 1894 3584 2278 3584 
Q 2916 3584 3314 3078 
Q 3713 2572 3713 1747 
Q 3713 922 3314 415 
Q 2916 -91 2278 -91 
Q 1894 -91 1617 61 
Q 1341 213 1159 525 
z
M 3116 1747 
Q 3116 2381 2855 2742 
Q 2594 3103 2138 3103 
Q 1681 3103 1420 2742 
Q 1159 2381 1159 1747 
Q 1159 1113 1420 752 
Q 1681 391 2138 391 
Q 2594 391 2855 752 
Q 3116 1113 3116 1747 
z
" transform="scale(0.015625)"/>
      </defs>
      <use xlink:href="#DejaVuSans-54"/>
      <use xlink:href="#DejaVuSans-69" x="57.958984"/>
      <use xlink:href="#DejaVuSans-6d" x="85.742188"/>
      <use xlink:href="#DejaVuSans-65" x="183.154297"/>
      <use xlink:href="#DejaVuSans-73" x="244.677734"/>
      <use xlink:href="#DejaVuSans-74" x="296.777344"/>
      <use xlink:href="#DejaVuSans-61" x="335.986328"/>
      <use xlink:href="#DejaVuSans-6d" x="397.265625"/>
      <use xlink:href="#DejaVuSans-70" x="494.677734"/>
      <use xlink:href="#DejaVuSans-20" x="558.154297"/>
      <use xlink:href="#DejaVuSans-5b" x="589.941406"/>
      <use xlink:href="#DejaVuSans-73" x="628.955078"/>
      <use xlink:href="#DejaVuSans-5d" x="681.054688"/>
     </g>
    </g>
   </g>
   <g id="matplotlib.axis_8">
    <g id="ytick_16">
     <g id="line2d_57">
      <g>
       <use xlink:href="#maf98b7b6ec" x="91.55" y="645.738506" style="stroke: #000000; stroke-width: 0.8"/>
      </g>
     </g>
     <g id="text_28">
      <!-- −0.04 -->
      <g transform="translate(41.646562 651.057412) scale(0.14 -0.14)">
       <defs>
        <path id="DejaVuSans-34" d="M 2419 4116 
L 825 1625 
L 2419 1625 
L 2419 4116 
z
M 2253 4666 
L 3047 4666 
L 3047 1625 
L 3713 1625 
L 3713 1100 
L 3047 1100 
L 3047 0 
L 2419 0 
L 2419 1100 
L 313 1100 
L 313 1709 
L 2253 4666 
z
" transform="scale(0.015625)"/>
       </defs>
       <use xlink:href="#DejaVuSans-2212"/>
       <use xlink:href="#DejaVuSans-30" x="83.789062"/>
       <use xlink:href="#DejaVuSans-2e" x="147.412109"/>
       <use xlink:href="#DejaVuSans-30" x="179.199219"/>
       <use xlink:href="#DejaVuSans-34" x="242.822266"/>
      </g>
     </g>
    </g>
    <g id="ytick_17">
     <g id="line2d_58">
      <g>
       <use xlink:href="#maf98b7b6ec" x="91.55" y="620.888003" style="stroke: #000000; stroke-width: 0.8"/>
      </g>
     </g>
     <g id="text_29">
      <!-- −0.02 -->
      <g transform="translate(41.646562 626.206909) scale(0.14 -0.14)">
       <use xlink:href="#DejaVuSans-2212"/>
       <use xlink:href="#DejaVuSans-30" x="83.789062"/>
       <use xlink:href="#DejaVuSans-2e" x="147.412109"/>
       <use xlink:href="#DejaVuSans-30" x="179.199219"/>
       <use xlink:href="#DejaVuSans-32" x="242.822266"/>
      </g>
     </g>
    </g>
    <g id="ytick_18">
     <g id="line2d_59">
      <g>
       <use xlink:href="#maf98b7b6ec" x="91.55" y="596.0375" style="stroke: #000000; stroke-width: 0.8"/>
      </g>
     </g>
     <g id="text_30">
      <!-- 0.00 -->
      <g transform="translate(53.378125 601.356406) scale(0.14 -0.14)">
       <use xlink:href="#DejaVuSans-30"/>
       <use xlink:href="#DejaVuSans-2e" x="63.623047"/>
       <use xlink:href="#DejaVuSans-30" x="95.410156"/>
       <use xlink:href="#DejaVuSans-30" x="159.033203"/>
      </g>
     </g>
    </g>
    <g id="ytick_19">
     <g id="line2d_60">
      <g>
       <use xlink:href="#maf98b7b6ec" x="91.55" y="571.186997" style="stroke: #000000; stroke-width: 0.8"/>
      </g>
     </g>
     <g id="text_31">
      <!-- 0.02 -->
      <g transform="translate(53.378125 576.505903) scale(0.14 -0.14)">
       <use xlink:href="#DejaVuSans-30"/>
       <use xlink:href="#DejaVuSans-2e" x="63.623047"/>
       <use xlink:href="#DejaVuSans-30" x="95.410156"/>
       <use xlink:href="#DejaVuSans-32" x="159.033203"/>
      </g>
     </g>
    </g>
    <g id="ytick_20">
     <g id="line2d_61">
      <g>
       <use xlink:href="#maf98b7b6ec" x="91.55" y="546.336494" style="stroke: #000000; stroke-width: 0.8"/>
      </g>
     </g>
     <g id="text_32">
      <!-- 0.04 -->
      <g transform="translate(53.378125 551.6554) scale(0.14 -0.14)">
       <use xlink:href="#DejaVuSans-30"/>
       <use xlink:href="#DejaVuSans-2e" x="63.623047"/>
       <use xlink:href="#DejaVuSans-30" x="95.410156"/>
       <use xlink:href="#DejaVuSans-34" x="159.033203"/>
      </g>
     </g>
    </g>
    <g id="text_33">
     <!-- Acc E [m/s²] -->
     <g transform="translate(34.735 638.365625) rotate(-90) scale(0.14 -0.14)">
      <defs>
       <path id="DejaVuSans-45" d="M 628 4666 
L 3578 4666 
L 3578 4134 
L 1259 4134 
L 1259 2753 
L 3481 2753 
L 3481 2222 
L 1259 2222 
L 1259 531 
L 3634 531 
L 3634 0 
L 628 0 
L 628 4666 
z
" transform="scale(0.015625)"/>
      </defs>
      <use xlink:href="#DejaVuSans-41"/>
      <use xlink:href="#DejaVuSans-63" x="66.658203"/>
      <use xlink:href="#DejaVuSans-63" x="121.638672"/>
      <use xlink:href="#DejaVuSans-20" x="176.619141"/>
      <use xlink:href="#DejaVuSans-45" x="208.40625"/>
      <use xlink:href="#DejaVuSans-20" x="271.589844"/>
      <use xlink:href="#DejaVuSans-5b" x="303.376953"/>
      <use xlink:href="#DejaVuSans-6d" x="342.390625"/>
      <use xlink:href="#DejaVuSans-2f" x="439.802734"/>
      <use xlink:href="#DejaVuSans-73" x="473.494141"/>
      <use xlink:href="#DejaVuSans-b2" x="525.59375"/>
      <use xlink:href="#DejaVuSans-5d" x="565.681641"/>
     </g>
    </g>
   </g>
   <g id="line2d_62">
    <path d="M 91.55 596.0375 
L 116.053759 596.058555 
L 116.176431 595.683702 
L 122.187365 595.695072 
L 122.310038 595.496675 
L 128.320972 595.514056 
L 128.443644 597.029417 
L 134.454579 596.997538 
L 134.577251 596.513852 
L 140.588185 596.498543 
L 140.710858 594.056815 
L 146.721792 594.120472 
L 146.844464 594.414183 
L 152.855399 594.466355 
L 152.886067 590.082456 
L 152.978071 590.085432 
L 158.989005 590.276725 
L 159.111678 591.519353 
L 165.122612 591.664561 
L 165.245284 596.956722 
L 171.256219 596.927179 
L 171.286887 599.808638 
L 171.378891 599.806753 
L 177.389825 599.685613 
L 177.512498 597.562405 
L 183.523432 597.513396 
L 183.5541 603.49912 
L 183.646104 603.49539 
L 189.657039 603.255702 
L 189.687707 605.96063 
L 189.779711 605.95567 
L 195.790646 605.636911 
L 195.821314 609.305796 
L 195.913318 609.299164 
L 201.924252 608.872949 
L 201.95492 615.325745 
L 202.046924 615.316104 
L 208.057859 614.696511 
L 208.088527 616.840911 
L 208.180531 616.830512 
L 214.191466 616.162248 
L 214.222134 624.512361 
L 214.314138 624.498127 
L 220.325072 623.583434 
L 220.447744 619.079516 
L 226.458679 618.338972 
L 226.489347 624.12388 
L 226.581351 624.10984 
L 232.592286 623.207627 
L 232.714958 614.636041 
L 238.725892 614.038305 
L 238.75656 618.149511 
L 238.848564 618.138458 
L 244.859499 617.428158 
L 244.890167 627.220948 
L 244.982171 627.20536 
L 250.993106 626.20366 
L 251.115778 619.022064 
L 257.126712 618.283366 
L 257.249384 617.457039 
L 263.260319 616.768639 
L 263.290987 619.057352 
L 263.382991 619.045845 
L 271.111336 618.191472 
L 275.527532 617.666106 
L 275.650205 614.686793 
L 281.661139 614.087426 
L 281.691807 619.528356 
L 281.783811 619.516613 
L 287.794746 618.762021 
L 287.825414 619.222744 
L 287.917418 619.211154 
L 293.928352 618.466379 
L 293.95902 626.396753 
L 294.051025 626.381577 
L 300.061959 625.406352 
L 300.184631 623.974102 
L 306.195566 623.076251 
L 306.226234 633.883899 
L 306.318238 633.86498 
L 312.329172 632.649248 
L 312.451845 628.383477 
L 318.462779 627.343914 
L 318.493447 629.252651 
L 318.585451 629.236048 
L 324.596386 628.169084 
L 324.627054 631.478139 
L 324.719058 631.460423 
L 330.729992 630.32197 
L 330.852665 621.345952 
L 336.863599 620.532567 
L 336.986271 617.952287 
L 342.997206 617.247971 
L 343.027874 619.698896 
L 343.119878 619.687068 
L 349.130813 618.926998 
L 349.253485 612.2796 
L 355.264419 611.757597 
L 355.295087 613.290814 
L 355.387091 613.282189 
L 361.398026 612.727964 
L 361.428694 617.290745 
L 361.520698 617.280121 
L 367.531633 616.597407 
L 367.562301 617.763488 
L 367.654305 617.752628 
L 373.665239 617.054728 
L 373.787911 612.405166 
L 379.798846 611.879128 
L 379.921518 604.048961 
L 385.932453 603.791482 
L 385.963121 605.357743 
L 386.055125 605.353084 
L 392.066059 605.053692 
L 392.096727 614.10216 
L 392.188731 614.09313 
L 398.199666 613.512843 
L 398.322338 611.375151 
L 404.333273 610.882216 
L 404.363941 612.545087 
L 404.455945 612.536835 
L 410.466879 612.006565 
L 410.497547 613.65126 
L 410.589551 613.642456 
L 416.600486 613.076652 
L 416.723158 609.551473 
L 422.734093 609.11715 
L 422.856765 605.528481 
L 428.867699 605.223452 
L 428.990372 603.923373 
L 435.001306 603.66993 
L 435.031974 609.314636 
L 435.123978 609.307999 
L 441.134913 608.8815 
L 441.165581 610.464564 
L 441.257585 610.457353 
L 447.268519 609.993915 
L 447.391192 609.167957 
L 453.402126 608.745959 
L 453.524798 603.471311 
L 459.535733 603.232396 
L 459.566401 606.457599 
L 459.658405 606.452391 
L 465.669339 606.117668 
L 465.792012 603.379649 
L 471.802946 603.14368 
L 471.925618 602.655895 
L 477.936553 602.443187 
L 477.967221 604.391198 
L 478.059225 604.387023 
L 484.07016 604.118678 
L 484.100828 593.637264 
L 484.192832 593.638464 
L 490.203766 593.715566 
L 490.234434 586.4696 
L 490.326438 586.474382 
L 496.337373 586.78173 
L 496.368041 586.204996 
L 496.460045 586.209911 
L 502.47098 586.525759 
L 502.501648 581.208631 
L 502.593652 581.216044 
L 508.604586 581.692389 
L 508.727258 587.878685 
L 514.738193 588.1409 
L 514.768861 597.253379 
L 514.860865 597.252771 
L 520.8718 597.213714 
L 520.902468 601.406115 
L 520.994472 601.403431 
L 527.005406 601.230976 
L 527.128078 601.358128 
L 533.139013 601.187129 
L 533.261685 601.971058 
L 539.27262 601.78036 
L 539.395292 597.995415 
L 545.406226 597.93249 
L 545.436894 602.160344 
L 545.528898 602.157283 
L 551.539833 601.9606 
L 551.662505 597.494223 
L 557.67344 597.447405 
L 557.796112 598.569723 
L 563.807046 598.488341 
L 563.837714 593.766606 
L 563.929718 593.767741 
L 569.940653 593.840688 
L 570.063325 597.176112 
L 576.07426 597.139519 
L 576.104928 587.870553 
L 576.196932 587.874635 
L 582.207866 588.136981 
L 582.330539 590.885106 
L 588.341473 591.050698 
L 588.372141 599.139602 
L 588.464145 599.138051 
L 594.47508 599.038403 
L 594.505748 605.422912 
L 594.597752 605.41822 
L 600.608686 605.116734 
L 600.731359 601.291522 
L 606.742293 601.122664 
L 606.864965 600.902202 
L 612.8759 600.745856 
L 612.998572 597.394705 
L 619.009506 597.351086 
L 619.132179 598.38655 
L 625.143113 598.311054 
L 625.173781 600.027455 
L 625.265785 600.02546 
L 631.27672 599.897292 
L 631.307388 601.679475 
L 631.399392 601.676654 
L 637.410327 601.495418 
L 637.440995 605.937923 
L 637.532999 605.932974 
L 643.543933 605.614945 
L 643.666605 602.655711 
L 649.67754 602.443009 
L 649.800212 597.619292 
L 655.811147 597.568455 
L 655.841815 591.632603 
L 655.933819 591.634805 
L 661.944753 591.776303 
L 662.067425 592.531472 
L 668.07836 592.644152 
L 668.109028 588.656454 
L 668.201032 588.660144 
L 674.211967 588.897244 
L 674.242635 582.726258 
L 674.334639 582.732912 
L 680.345573 583.160507 
L 680.468245 588.234404 
L 686.47918 588.485187 
L 686.601852 589.625279 
L 692.612787 589.831361 
L 692.735459 590.071118 
L 698.746393 590.262871 
L 698.869065 591.596144 
L 704.88 591.738884 
L 704.88 591.738884 
" clip-path="url(#pdb3f7d1baa)" style="fill: none; stroke: #1f77b4; stroke-width: 1.5; stroke-linecap: square"/>
   </g>
   <g id="line2d_63">
    <path d="M 91.55 585.067245 
L 97.683607 574.647297 
L 103.817213 568.234926 
L 109.95082 563.357751 
L 116.084427 559.387522 
L 122.218033 556.059154 
L 128.35164 553.252999 
L 134.485247 550.933697 
L 140.618853 549.123507 
L 146.75246 547.876217 
L 152.886067 547.237111 
L 159.019673 547.192075 
L 165.15328 547.634841 
L 171.286887 548.379743 
L 177.420494 549.219477 
L 183.5541 549.986914 
L 189.687707 550.586966 
L 195.821314 550.995414 
L 201.95492 551.234558 
L 208.088527 551.348922 
L 214.222134 551.386297 
L 220.35574 551.384304 
L 226.489347 551.3679 
L 232.622954 551.352478 
L 238.75656 551.345209 
L 244.890167 551.347108 
L 251.023774 551.355352 
L 257.15738 551.366096 
L 263.290987 551.375876 
L 269.424594 551.382925 
L 275.5582 551.387585 
L 281.691807 551.391014 
L 287.825414 551.392932 
L 293.95902 551.393542 
L 300.092627 551.394636 
L 306.226234 551.396059 
L 312.35984 551.396409 
L 318.493447 551.394782 
L 324.627054 551.391983 
L 330.760661 551.388992 
L 336.894267 551.385336 
L 343.027874 551.379614 
L 349.161481 551.371129 
L 355.295087 551.362748 
L 361.428694 551.357648 
L 367.562301 551.356782 
L 373.695907 551.359125 
L 379.829514 551.363836 
L 385.963121 551.370148 
L 392.096727 551.375852 
L 398.230334 551.379269 
L 404.363941 551.380114 
L 410.497547 551.379033 
L 416.631154 551.378287 
L 422.764761 551.379622 
L 428.898367 551.383099 
L 435.031974 551.388962 
L 441.165581 551.395444 
L 447.299187 551.400103 
L 453.432794 551.403335 
L 459.566401 551.405467 
L 465.700008 551.405715 
L 471.833614 551.403081 
L 477.967221 551.396146 
L 484.100828 551.385839 
L 490.234434 551.374661 
L 496.368041 551.365455 
L 502.501648 551.360029 
L 508.635254 551.358535 
L 514.768861 551.361026 
L 520.902468 551.366644 
L 527.036074 551.373979 
L 533.169681 551.381661 
L 539.303288 551.387396 
L 545.436894 551.389758 
L 551.570501 551.386419 
L 557.704108 551.377254 
L 563.837714 551.364955 
L 569.971321 551.351615 
L 576.104928 551.338424 
L 582.238534 551.325132 
L 588.372141 551.312164 
L 594.505748 551.301137 
L 600.639354 551.294459 
L 606.772961 551.292809 
L 612.906568 551.294092 
L 619.040175 551.29607 
L 625.173781 551.29841 
L 631.307388 551.30081 
L 637.440995 551.300473 
L 643.574601 551.294234 
L 649.708208 551.281623 
L 655.841815 551.265341 
L 661.975421 551.248625 
L 668.109028 551.233275 
L 674.242635 551.221284 
L 680.376241 551.214859 
L 686.509848 551.214785 
L 692.643455 551.22061 
L 698.777061 551.232811 
" clip-path="url(#pdb3f7d1baa)" style="fill: none; stroke-dasharray: 5.55,2.4; stroke-dashoffset: 0; stroke: #ff0000; stroke-width: 1.5"/>
   </g>
   <g id="line2d_64">
    <path d="M 91.55 607.007755 
L 97.683607 617.427703 
L 103.817213 623.840074 
L 109.95082 628.717249 
L 116.084427 632.687478 
L 122.218033 636.015846 
L 128.35164 638.822001 
L 134.485247 641.141303 
L 140.618853 642.951493 
L 146.75246 644.198783 
L 152.886067 644.837889 
L 159.019673 644.882925 
L 165.15328 644.440159 
L 171.286887 643.695257 
L 177.420494 642.855523 
L 183.5541 642.088086 
L 189.687707 641.488034 
L 195.821314 641.079586 
L 201.95492 640.840442 
L 208.088527 640.726078 
L 214.222134 640.688703 
L 220.35574 640.690696 
L 226.489347 640.7071 
L 232.622954 640.722522 
L 238.75656 640.729791 
L 244.890167 640.727892 
L 251.023774 640.719648 
L 257.15738 640.708904 
L 263.290987 640.699124 
L 269.424594 640.692075 
L 275.5582 640.687415 
L 281.691807 640.683986 
L 287.825414 640.682068 
L 293.95902 640.681458 
L 300.092627 640.680364 
L 306.226234 640.678941 
L 312.35984 640.678591 
L 318.493447 640.680218 
L 324.627054 640.683017 
L 330.760661 640.686008 
L 336.894267 640.689664 
L 343.027874 640.695386 
L 349.161481 640.703871 
L 355.295087 640.712252 
L 361.428694 640.717352 
L 367.562301 640.718218 
L 373.695907 640.715875 
L 379.829514 640.711164 
L 385.963121 640.704852 
L 392.096727 640.699148 
L 398.230334 640.695731 
L 404.363941 640.694886 
L 410.497547 640.695967 
L 416.631154 640.696713 
L 422.764761 640.695378 
L 428.898367 640.691901 
L 435.031974 640.686038 
L 441.165581 640.679556 
L 447.299187 640.674897 
L 453.432794 640.671665 
L 459.566401 640.669533 
L 465.700008 640.669285 
L 471.833614 640.671919 
L 477.967221 640.678854 
L 484.100828 640.689161 
L 490.234434 640.700339 
L 496.368041 640.709545 
L 502.501648 640.714971 
L 508.635254 640.716465 
L 514.768861 640.713974 
L 520.902468 640.708356 
L 527.036074 640.701021 
L 533.169681 640.693339 
L 539.303288 640.687604 
L 545.436894 640.685242 
L 551.570501 640.688581 
L 557.704108 640.697746 
L 563.837714 640.710045 
L 569.971321 640.723385 
L 576.104928 640.736576 
L 582.238534 640.749868 
L 588.372141 640.762836 
L 594.505748 640.773863 
L 600.639354 640.780541 
L 606.772961 640.782191 
L 612.906568 640.780908 
L 619.040175 640.77893 
L 625.173781 640.77659 
L 631.307388 640.77419 
L 637.440995 640.774527 
L 643.574601 640.780766 
L 649.708208 640.793377 
L 655.841815 640.809659 
L 661.975421 640.826375 
L 668.109028 640.841725 
L 674.242635 640.853716 
L 680.376241 640.860141 
L 686.509848 640.860215 
L 692.643455 640.85439 
L 698.777061 640.842189 
" clip-path="url(#pdb3f7d1baa)" style="fill: none; stroke-dasharray: 5.55,2.4; stroke-dashoffset: 0; stroke: #ff0000; stroke-width: 1.5"/>
   </g>
   <g id="patch_18">
    <path d="M 91.55 666.52 
L 91.55 525.555 
" style="fill: none; stroke: #000000; stroke-width: 0.8; stroke-linejoin: miter; stroke-linecap: square"/>
   </g>
   <g id="patch_19">
    <path d="M 704.88 666.52 
L 704.88 525.555 
" style="fill: none; stroke: #000000; stroke-width: 0.8; stroke-linejoin: miter; stroke-linecap: square"/>
   </g>
   <g id="patch_20">
    <path d="M 91.55 666.52 
L 704.88 666.52 
" style="fill: none; stroke: #000000; stroke-width: 0.8; stroke-linejoin: miter; stroke-linecap: square"/>
   </g>
   <g id="patch_21">
    <path d="M 91.55 525.555 
L 704.88 525.555 
" style="fill: none; stroke: #000000; stroke-width: 0.8; stroke-linejoin: miter; stroke-linecap: square"/>
   </g>
  </g>
  <g id="text_34">
   <!-- Errors on imu states at 100Hz -->
   <g transform="translate(234.648375 27.165375) scale(0.168 -0.168)">
    <defs>
     <path id="DejaVuSans-6e" d="M 3513 2113 
L 3513 0 
L 2938 0 
L 2938 2094 
Q 2938 2591 2744 2837 
Q 2550 3084 2163 3084 
Q 1697 3084 1428 2787 
Q 1159 2491 1159 1978 
L 1159 0 
L 581 0 
L 581 3500 
L 1159 3500 
L 1159 2956 
Q 1366 3272 1645 3428 
Q 1925 3584 2291 3584 
Q 2894 3584 3203 3211 
Q 3513 2838 3513 2113 
z
" transform="scale(0.015625)"/>
     <path id="DejaVuSans-75" d="M 544 1381 
L 544 3500 
L 1119 3500 
L 1119 1403 
Q 1119 906 1312 657 
Q 1506 409 1894 409 
Q 2359 409 2629 706 
Q 2900 1003 2900 1516 
L 2900 3500 
L 3475 3500 
L 3475 0 
L 2900 0 
L 2900 538 
Q 2691 219 2414 64 
Q 2138 -91 1772 -91 
Q 1169 -91 856 284 
Q 544 659 544 1381 
z
M 1991 3584 
L 1991 3584 
z
" transform="scale(0.015625)"/>
     <path id="DejaVuSans-48" d="M 628 4666 
L 1259 4666 
L 1259 2753 
L 3553 2753 
L 3553 4666 
L 4184 4666 
L 4184 0 
L 3553 0 
L 3553 2222 
L 1259 2222 
L 1259 0 
L 628 0 
L 628 4666 
z
" transform="scale(0.015625)"/>
     <path id="DejaVuSans-7a" d="M 353 3500 
L 3084 3500 
L 3084 2975 
L 922 459 
L 3084 459 
L 3084 0 
L 275 0 
L 275 525 
L 2438 3041 
L 353 3041 
L 353 3500 
z
" transform="scale(0.015625)"/>
    </defs>
    <use xlink:href="#DejaVuSans-45"/>
    <use xlink:href="#DejaVuSans-72" x="63.183594"/>
    <use xlink:href="#DejaVuSans-72" x="102.546875"/>
    <use xlink:href="#DejaVuSans-6f" x="141.410156"/>
    <use xlink:href="#DejaVuSans-72" x="202.591797"/>
    <use xlink:href="#DejaVuSans-73" x="243.705078"/>
    <use xlink:href="#DejaVuSans-20" x="295.804688"/>
    <use xlink:href="#DejaVuSans-6f" x="327.591797"/>
    <use xlink:href="#DejaVuSans-6e" x="388.773438"/>
    <use xlink:href="#DejaVuSans-20" x="452.152344"/>
    <use xlink:href="#DejaVuSans-69" x="483.939453"/>
    <use xlink:href="#DejaVuSans-6d" x="511.722656"/>
    <use xlink:href="#DejaVuSans-75" x="609.134766"/>
    <use xlink:href="#DejaVuSans-20" x="672.513672"/>
    <use xlink:href="#DejaVuSans-73" x="704.300781"/>
    <use xlink:href="#DejaVuSans-74" x="756.400391"/>
    <use xlink:href="#DejaVuSans-61" x="795.609375"/>
    <use xlink:href="#DejaVuSans-74" x="856.888672"/>
    <use xlink:href="#DejaVuSans-65" x="896.097656"/>
    <use xlink:href="#DejaVuSans-73" x="957.621094"/>
    <use xlink:href="#DejaVuSans-20" x="1009.720703"/>
    <use xlink:href="#DejaVuSans-61" x="1041.507812"/>
    <use xlink:href="#DejaVuSans-74" x="1102.787109"/>
    <use xlink:href="#DejaVuSans-20" x="1141.996094"/>
    <use xlink:href="#DejaVuSans-31" x="1173.783203"/>
    <use xlink:href="#DejaVuSans-30" x="1237.40625"/>
    <use xlink:href="#DejaVuSans-30" x="1301.029297"/>
    <use xlink:href="#DejaVuSans-48" x="1364.652344"/>
    <use xlink:href="#DejaVuSans-7a" x="1439.847656"/>
   </g>
  </g>
 </g>
 <defs>
  <clipPath id="pf06ed1498c">
   <rect x="91.55" y="46.8" width="613.33" height="140.965"/>
  </clipPath>
  <clipPath id="p1bd59dcb44">
   <rect x="91.55" y="206.385" width="613.33" height="140.965"/>
  </clipPath>
  <clipPath id="pac05a0b241">
   <rect x="91.55" y="365.97" width="613.33" height="140.965"/>
  </clipPath>
  <clipPath id="pdb3f7d1baa">
   <rect x="91.55" y="525.555" width="613.33" height="140.965"/>
  </clipPath>
 </defs>
</svg>
