<?xml version="1.0" encoding="utf-8" standalone="no"?>
<!DOCTYPE svg PUBLIC "-//W3C//DTD SVG 1.1//EN"
  "http://www.w3.org/Graphics/SVG/1.1/DTD/svg11.dtd">
<svg xmlns:xlink="http://www.w3.org/1999/xlink" width="720pt" height="720pt" viewBox="0 0 720 720" xmlns="http://www.w3.org/2000/svg" version="1.1">
 <metadata>
  <rdf:RDF xmlns:dc="http://purl.org/dc/elements/1.1/" xmlns:cc="http://creativecommons.org/ns#" xmlns:rdf="http://www.w3.org/1999/02/22-rdf-syntax-ns#">
   <cc:Work>
    <dc:type rdf:resource="http://purl.org/dc/dcmitype/StillImage"/>
    <dc:date>2024-03-10T19:13:18.745090</dc:date>
    <dc:format>image/svg+xml</dc:format>
    <dc:creator>
     <cc:Agent>
      <dc:title>Matplotlib v3.7.2, https://matplotlib.org/</dc:title>
     </cc:Agent>
    </dc:creator>
   </cc:Work>
  </rdf:RDF>
 </metadata>
 <defs>
  <style type="text/css">*{stroke-linejoin: round; stroke-linecap: butt}</style>
 </defs>
 <g id="figure_1">
  <g id="patch_1">
   <path d="M 0 720 
L 720 720 
L 720 0 
L 0 0 
z
" style="fill: #ffffff"/>
  </g>
  <g id="text_1">
   <!-- Power Spectral Density -->
   <g transform="translate(290.4675 12.118365) scale(0.12 -0.12)">
    <defs>
     <path id="DejaVuSans-50" d="M 1259 4147 
L 1259 2394 
L 2053 2394 
Q 2494 2394 2734 2622 
Q 2975 2850 2975 3272 
Q 2975 3691 2734 3919 
Q 2494 4147 2053 4147 
L 1259 4147 
z
M 628 4666 
L 2053 4666 
Q 2838 4666 3239 4311 
Q 3641 3956 3641 3272 
Q 3641 2581 3239 2228 
Q 2838 1875 2053 1875 
L 1259 1875 
L 1259 0 
L 628 0 
L 628 4666 
z
" transform="scale(0.015625)"/>
     <path id="DejaVuSans-6f" d="M 1959 3097 
Q 1497 3097 1228 2736 
Q 959 2375 959 1747 
Q 959 1119 1226 758 
Q 1494 397 1959 397 
Q 2419 397 2687 759 
Q 2956 1122 2956 1747 
Q 2956 2369 2687 2733 
Q 2419 3097 1959 3097 
z
M 1959 3584 
Q 2709 3584 3137 3096 
Q 3566 2609 3566 1747 
Q 3566 888 3137 398 
Q 2709 -91 1959 -91 
Q 1206 -91 779 398 
Q 353 888 353 1747 
Q 353 2609 779 3096 
Q 1206 3584 1959 3584 
z
" transform="scale(0.015625)"/>
     <path id="DejaVuSans-77" d="M 269 3500 
L 844 3500 
L 1563 769 
L 2278 3500 
L 2956 3500 
L 3675 769 
L 4391 3500 
L 4966 3500 
L 4050 0 
L 3372 0 
L 2619 2869 
L 1863 0 
L 1184 0 
L 269 3500 
z
" transform="scale(0.015625)"/>
     <path id="DejaVuSans-65" d="M 3597 1894 
L 3597 1613 
L 953 1613 
Q 991 1019 1311 708 
Q 1631 397 2203 397 
Q 2534 397 2845 478 
Q 3156 559 3463 722 
L 3463 178 
Q 3153 47 2828 -22 
Q 2503 -91 2169 -91 
Q 1331 -91 842 396 
Q 353 884 353 1716 
Q 353 2575 817 3079 
Q 1281 3584 2069 3584 
Q 2775 3584 3186 3129 
Q 3597 2675 3597 1894 
z
M 3022 2063 
Q 3016 2534 2758 2815 
Q 2500 3097 2075 3097 
Q 1594 3097 1305 2825 
Q 1016 2553 972 2059 
L 3022 2063 
z
" transform="scale(0.015625)"/>
     <path id="DejaVuSans-72" d="M 2631 2963 
Q 2534 3019 2420 3045 
Q 2306 3072 2169 3072 
Q 1681 3072 1420 2755 
Q 1159 2438 1159 1844 
L 1159 0 
L 581 0 
L 581 3500 
L 1159 3500 
L 1159 2956 
Q 1341 3275 1631 3429 
Q 1922 3584 2338 3584 
Q 2397 3584 2469 3576 
Q 2541 3569 2628 3553 
L 2631 2963 
z
" transform="scale(0.015625)"/>
     <path id="DejaVuSans-20" transform="scale(0.015625)"/>
     <path id="DejaVuSans-53" d="M 3425 4513 
L 3425 3897 
Q 3066 4069 2747 4153 
Q 2428 4238 2131 4238 
Q 1616 4238 1336 4038 
Q 1056 3838 1056 3469 
Q 1056 3159 1242 3001 
Q 1428 2844 1947 2747 
L 2328 2669 
Q 3034 2534 3370 2195 
Q 3706 1856 3706 1288 
Q 3706 609 3251 259 
Q 2797 -91 1919 -91 
Q 1588 -91 1214 -16 
Q 841 59 441 206 
L 441 856 
Q 825 641 1194 531 
Q 1563 422 1919 422 
Q 2459 422 2753 634 
Q 3047 847 3047 1241 
Q 3047 1584 2836 1778 
Q 2625 1972 2144 2069 
L 1759 2144 
Q 1053 2284 737 2584 
Q 422 2884 422 3419 
Q 422 4038 858 4394 
Q 1294 4750 2059 4750 
Q 2388 4750 2728 4690 
Q 3069 4631 3425 4513 
z
" transform="scale(0.015625)"/>
     <path id="DejaVuSans-70" d="M 1159 525 
L 1159 -1331 
L 581 -1331 
L 581 3500 
L 1159 3500 
L 1159 2969 
Q 1341 3281 1617 3432 
Q 1894 3584 2278 3584 
Q 2916 3584 3314 3078 
Q 3713 2572 3713 1747 
Q 3713 922 3314 415 
Q 2916 -91 2278 -91 
Q 1894 -91 1617 61 
Q 1341 213 1159 525 
z
M 3116 1747 
Q 3116 2381 2855 2742 
Q 2594 3103 2138 3103 
Q 1681 3103 1420 2742 
Q 1159 2381 1159 1747 
Q 1159 1113 1420 752 
Q 1681 391 2138 391 
Q 2594 391 2855 752 
Q 3116 1113 3116 1747 
z
" transform="scale(0.015625)"/>
     <path id="DejaVuSans-63" d="M 3122 3366 
L 3122 2828 
Q 2878 2963 2633 3030 
Q 2388 3097 2138 3097 
Q 1578 3097 1268 2742 
Q 959 2388 959 1747 
Q 959 1106 1268 751 
Q 1578 397 2138 397 
Q 2388 397 2633 464 
Q 2878 531 3122 666 
L 3122 134 
Q 2881 22 2623 -34 
Q 2366 -91 2075 -91 
Q 1284 -91 818 406 
Q 353 903 353 1747 
Q 353 2603 823 3093 
Q 1294 3584 2113 3584 
Q 2378 3584 2631 3529 
Q 2884 3475 3122 3366 
z
" transform="scale(0.015625)"/>
     <path id="DejaVuSans-74" d="M 1172 4494 
L 1172 3500 
L 2356 3500 
L 2356 3053 
L 1172 3053 
L 1172 1153 
Q 1172 725 1289 603 
Q 1406 481 1766 481 
L 2356 481 
L 2356 0 
L 1766 0 
Q 1100 0 847 248 
Q 594 497 594 1153 
L 594 3053 
L 172 3053 
L 172 3500 
L 594 3500 
L 594 4494 
L 1172 4494 
z
" transform="scale(0.015625)"/>
     <path id="DejaVuSans-61" d="M 2194 1759 
Q 1497 1759 1228 1600 
Q 959 1441 959 1056 
Q 959 750 1161 570 
Q 1363 391 1709 391 
Q 2188 391 2477 730 
Q 2766 1069 2766 1631 
L 2766 1759 
L 2194 1759 
z
M 3341 1997 
L 3341 0 
L 2766 0 
L 2766 531 
Q 2569 213 2275 61 
Q 1981 -91 1556 -91 
Q 1019 -91 701 211 
Q 384 513 384 1019 
Q 384 1609 779 1909 
Q 1175 2209 1959 2209 
L 2766 2209 
L 2766 2266 
Q 2766 2663 2505 2880 
Q 2244 3097 1772 3097 
Q 1472 3097 1187 3025 
Q 903 2953 641 2809 
L 641 3341 
Q 956 3463 1253 3523 
Q 1550 3584 1831 3584 
Q 2591 3584 2966 3190 
Q 3341 2797 3341 1997 
z
" transform="scale(0.015625)"/>
     <path id="DejaVuSans-6c" d="M 603 4863 
L 1178 4863 
L 1178 0 
L 603 0 
L 603 4863 
z
" transform="scale(0.015625)"/>
     <path id="DejaVuSans-44" d="M 1259 4147 
L 1259 519 
L 2022 519 
Q 2988 519 3436 956 
Q 3884 1394 3884 2338 
Q 3884 3275 3436 3711 
Q 2988 4147 2022 4147 
L 1259 4147 
z
M 628 4666 
L 1925 4666 
Q 3281 4666 3915 4102 
Q 4550 3538 4550 2338 
Q 4550 1131 3912 565 
Q 3275 0 1925 0 
L 628 0 
L 628 4666 
z
" transform="scale(0.015625)"/>
     <path id="DejaVuSans-6e" d="M 3513 2113 
L 3513 0 
L 2938 0 
L 2938 2094 
Q 2938 2591 2744 2837 
Q 2550 3084 2163 3084 
Q 1697 3084 1428 2787 
Q 1159 2491 1159 1978 
L 1159 0 
L 581 0 
L 581 3500 
L 1159 3500 
L 1159 2956 
Q 1366 3272 1645 3428 
Q 1925 3584 2291 3584 
Q 2894 3584 3203 3211 
Q 3513 2838 3513 2113 
z
" transform="scale(0.015625)"/>
     <path id="DejaVuSans-73" d="M 2834 3397 
L 2834 2853 
Q 2591 2978 2328 3040 
Q 2066 3103 1784 3103 
Q 1356 3103 1142 2972 
Q 928 2841 928 2578 
Q 928 2378 1081 2264 
Q 1234 2150 1697 2047 
L 1894 2003 
Q 2506 1872 2764 1633 
Q 3022 1394 3022 966 
Q 3022 478 2636 193 
Q 2250 -91 1575 -91 
Q 1294 -91 989 -36 
Q 684 19 347 128 
L 347 722 
Q 666 556 975 473 
Q 1284 391 1588 391 
Q 1994 391 2212 530 
Q 2431 669 2431 922 
Q 2431 1156 2273 1281 
Q 2116 1406 1581 1522 
L 1381 1569 
Q 847 1681 609 1914 
Q 372 2147 372 2553 
Q 372 3047 722 3315 
Q 1072 3584 1716 3584 
Q 2034 3584 2315 3537 
Q 2597 3491 2834 3397 
z
" transform="scale(0.015625)"/>
     <path id="DejaVuSans-69" d="M 603 3500 
L 1178 3500 
L 1178 0 
L 603 0 
L 603 3500 
z
M 603 4863 
L 1178 4863 
L 1178 4134 
L 603 4134 
L 603 4863 
z
" transform="scale(0.015625)"/>
     <path id="DejaVuSans-79" d="M 2059 -325 
Q 1816 -950 1584 -1140 
Q 1353 -1331 966 -1331 
L 506 -1331 
L 506 -850 
L 844 -850 
Q 1081 -850 1212 -737 
Q 1344 -625 1503 -206 
L 1606 56 
L 191 3500 
L 800 3500 
L 1894 763 
L 2988 3500 
L 3597 3500 
L 2059 -325 
z
" transform="scale(0.015625)"/>
    </defs>
    <use xlink:href="#DejaVuSans-50"/>
    <use xlink:href="#DejaVuSans-6f" x="56.677734"/>
    <use xlink:href="#DejaVuSans-77" x="117.859375"/>
    <use xlink:href="#DejaVuSans-65" x="199.646484"/>
    <use xlink:href="#DejaVuSans-72" x="261.169922"/>
    <use xlink:href="#DejaVuSans-20" x="302.283203"/>
    <use xlink:href="#DejaVuSans-53" x="334.070312"/>
    <use xlink:href="#DejaVuSans-70" x="397.546875"/>
    <use xlink:href="#DejaVuSans-65" x="461.023438"/>
    <use xlink:href="#DejaVuSans-63" x="522.546875"/>
    <use xlink:href="#DejaVuSans-74" x="577.527344"/>
    <use xlink:href="#DejaVuSans-72" x="616.736328"/>
    <use xlink:href="#DejaVuSans-61" x="657.849609"/>
    <use xlink:href="#DejaVuSans-6c" x="719.128906"/>
    <use xlink:href="#DejaVuSans-20" x="746.912109"/>
    <use xlink:href="#DejaVuSans-44" x="778.699219"/>
    <use xlink:href="#DejaVuSans-65" x="855.701172"/>
    <use xlink:href="#DejaVuSans-6e" x="917.224609"/>
    <use xlink:href="#DejaVuSans-73" x="980.603516"/>
    <use xlink:href="#DejaVuSans-69" x="1032.703125"/>
    <use xlink:href="#DejaVuSans-74" x="1060.486328"/>
    <use xlink:href="#DejaVuSans-79" x="1099.695312"/>
   </g>
  </g>
  <g id="subfigure_1">
   <g id="patch_2">
    <path d="M 0 179.710672 
L 720 179.710672 
L 720 17.61423 
L 0 17.61423 
z
" style="fill: #ffffff"/>
   </g>
   <g id="axes_1">
    <g id="patch_3">
     <path d="M 16.36274 133.119879 
L 716.99976 133.119879 
L 716.99976 35.732595 
L 16.36274 35.732595 
z
" style="fill: #ffffff"/>
    </g>
    <g id="matplotlib.axis_1">
     <g id="xtick_1">
      <g id="line2d_1">
       <defs>
        <path id="mf067ef1786" d="M 0 0 
L 0 3.5 
" style="stroke: #000000; stroke-width: 0.8"/>
       </defs>
       <g>
        <use xlink:href="#mf067ef1786" x="112.153933" y="133.119879" style="stroke: #000000; stroke-width: 0.8"/>
       </g>
      </g>
      <g id="text_2">
       <!-- −0.4 -->
       <g transform="translate(100.012527 147.718317) scale(0.1 -0.1)">
        <defs>
         <path id="DejaVuSans-2212" d="M 678 2272 
L 4684 2272 
L 4684 1741 
L 678 1741 
L 678 2272 
z
" transform="scale(0.015625)"/>
         <path id="DejaVuSans-30" d="M 2034 4250 
Q 1547 4250 1301 3770 
Q 1056 3291 1056 2328 
Q 1056 1369 1301 889 
Q 1547 409 2034 409 
Q 2525 409 2770 889 
Q 3016 1369 3016 2328 
Q 3016 3291 2770 3770 
Q 2525 4250 2034 4250 
z
M 2034 4750 
Q 2819 4750 3233 4129 
Q 3647 3509 3647 2328 
Q 3647 1150 3233 529 
Q 2819 -91 2034 -91 
Q 1250 -91 836 529 
Q 422 1150 422 2328 
Q 422 3509 836 4129 
Q 1250 4750 2034 4750 
z
" transform="scale(0.015625)"/>
         <path id="DejaVuSans-2e" d="M 684 794 
L 1344 794 
L 1344 0 
L 684 0 
L 684 794 
z
" transform="scale(0.015625)"/>
         <path id="DejaVuSans-34" d="M 2419 4116 
L 825 1625 
L 2419 1625 
L 2419 4116 
z
M 2253 4666 
L 3047 4666 
L 3047 1625 
L 3713 1625 
L 3713 1100 
L 3047 1100 
L 3047 0 
L 2419 0 
L 2419 1100 
L 313 1100 
L 313 1709 
L 2253 4666 
z
" transform="scale(0.015625)"/>
        </defs>
        <use xlink:href="#DejaVuSans-2212"/>
        <use xlink:href="#DejaVuSans-30" x="83.789062"/>
        <use xlink:href="#DejaVuSans-2e" x="147.412109"/>
        <use xlink:href="#DejaVuSans-34" x="179.199219"/>
       </g>
      </g>
     </g>
     <g id="xtick_2">
      <g id="line2d_2">
       <g>
        <use xlink:href="#mf067ef1786" x="240.042045" y="133.119879" style="stroke: #000000; stroke-width: 0.8"/>
       </g>
      </g>
      <g id="text_3">
       <!-- −0.2 -->
       <g transform="translate(227.900639 147.718317) scale(0.1 -0.1)">
        <defs>
         <path id="DejaVuSans-32" d="M 1228 531 
L 3431 531 
L 3431 0 
L 469 0 
L 469 531 
Q 828 903 1448 1529 
Q 2069 2156 2228 2338 
Q 2531 2678 2651 2914 
Q 2772 3150 2772 3378 
Q 2772 3750 2511 3984 
Q 2250 4219 1831 4219 
Q 1534 4219 1204 4116 
Q 875 4013 500 3803 
L 500 4441 
Q 881 4594 1212 4672 
Q 1544 4750 1819 4750 
Q 2544 4750 2975 4387 
Q 3406 4025 3406 3419 
Q 3406 3131 3298 2873 
Q 3191 2616 2906 2266 
Q 2828 2175 2409 1742 
Q 1991 1309 1228 531 
z
" transform="scale(0.015625)"/>
        </defs>
        <use xlink:href="#DejaVuSans-2212"/>
        <use xlink:href="#DejaVuSans-30" x="83.789062"/>
        <use xlink:href="#DejaVuSans-2e" x="147.412109"/>
        <use xlink:href="#DejaVuSans-32" x="179.199219"/>
       </g>
      </g>
     </g>
     <g id="xtick_3">
      <g id="line2d_3">
       <g>
        <use xlink:href="#mf067ef1786" x="367.930157" y="133.119879" style="stroke: #000000; stroke-width: 0.8"/>
       </g>
      </g>
      <g id="text_4">
       <!-- 0.0 -->
       <g transform="translate(359.978595 147.718317) scale(0.1 -0.1)">
        <use xlink:href="#DejaVuSans-30"/>
        <use xlink:href="#DejaVuSans-2e" x="63.623047"/>
        <use xlink:href="#DejaVuSans-30" x="95.410156"/>
       </g>
      </g>
     </g>
     <g id="xtick_4">
      <g id="line2d_4">
       <g>
        <use xlink:href="#mf067ef1786" x="495.818269" y="133.119879" style="stroke: #000000; stroke-width: 0.8"/>
       </g>
      </g>
      <g id="text_5">
       <!-- 0.2 -->
       <g transform="translate(487.866707 147.718317) scale(0.1 -0.1)">
        <use xlink:href="#DejaVuSans-30"/>
        <use xlink:href="#DejaVuSans-2e" x="63.623047"/>
        <use xlink:href="#DejaVuSans-32" x="95.410156"/>
       </g>
      </g>
     </g>
     <g id="xtick_5">
      <g id="line2d_5">
       <g>
        <use xlink:href="#mf067ef1786" x="623.706381" y="133.119879" style="stroke: #000000; stroke-width: 0.8"/>
       </g>
      </g>
      <g id="text_6">
       <!-- 0.4 -->
       <g transform="translate(615.754819 147.718317) scale(0.1 -0.1)">
        <use xlink:href="#DejaVuSans-30"/>
        <use xlink:href="#DejaVuSans-2e" x="63.623047"/>
        <use xlink:href="#DejaVuSans-34" x="95.410156"/>
       </g>
      </g>
     </g>
    </g>
    <g id="matplotlib.axis_2">
     <g id="ytick_1">
      <g id="line2d_6">
       <defs>
        <path id="m3d63ef1ef0" d="M 0 0 
L -3.5 0 
" style="stroke: #000000; stroke-width: 0.8"/>
       </defs>
       <g>
        <use xlink:href="#m3d63ef1ef0" x="16.36274" y="108.891005" style="stroke: #000000; stroke-width: 0.8"/>
       </g>
      </g>
      <g id="text_7">
       <!-- 2 -->
       <g transform="translate(3.00024 112.690224) scale(0.1 -0.1)">
        <use xlink:href="#DejaVuSans-32"/>
       </g>
      </g>
     </g>
     <g id="ytick_2">
      <g id="line2d_7">
       <g>
        <use xlink:href="#m3d63ef1ef0" x="16.36274" y="79.391314" style="stroke: #000000; stroke-width: 0.8"/>
       </g>
      </g>
      <g id="text_8">
       <!-- 3 -->
       <g transform="translate(3.00024 83.190533) scale(0.1 -0.1)">
        <defs>
         <path id="DejaVuSans-33" d="M 2597 2516 
Q 3050 2419 3304 2112 
Q 3559 1806 3559 1356 
Q 3559 666 3084 287 
Q 2609 -91 1734 -91 
Q 1441 -91 1130 -33 
Q 819 25 488 141 
L 488 750 
Q 750 597 1062 519 
Q 1375 441 1716 441 
Q 2309 441 2620 675 
Q 2931 909 2931 1356 
Q 2931 1769 2642 2001 
Q 2353 2234 1838 2234 
L 1294 2234 
L 1294 2753 
L 1863 2753 
Q 2328 2753 2575 2939 
Q 2822 3125 2822 3475 
Q 2822 3834 2567 4026 
Q 2313 4219 1838 4219 
Q 1578 4219 1281 4162 
Q 984 4106 628 3988 
L 628 4550 
Q 988 4650 1302 4700 
Q 1616 4750 1894 4750 
Q 2613 4750 3031 4423 
Q 3450 4097 3450 3541 
Q 3450 3153 3228 2886 
Q 3006 2619 2597 2516 
z
" transform="scale(0.015625)"/>
        </defs>
        <use xlink:href="#DejaVuSans-33"/>
       </g>
      </g>
     </g>
     <g id="ytick_3">
      <g id="line2d_8">
       <g>
        <use xlink:href="#m3d63ef1ef0" x="16.36274" y="49.891623" style="stroke: #000000; stroke-width: 0.8"/>
       </g>
      </g>
      <g id="text_9">
       <!-- 4 -->
       <g transform="translate(3.00024 53.690842) scale(0.1 -0.1)">
        <use xlink:href="#DejaVuSans-34"/>
       </g>
      </g>
     </g>
    </g>
    <g id="line2d_9">
     <path d="M 367.930157 128.693185 
L 370.427972 66.282692 
L 372.925787 46.498321 
L 375.423601 46.097503 
L 377.921416 51.046617 
L 380.419231 48.022311 
L 382.917045 49.79538 
L 385.41486 49.257384 
L 387.912675 45.900296 
L 390.41049 47.681817 
L 392.908304 52.701246 
L 395.406119 48.084646 
L 397.903934 42.249399 
L 400.401748 46.537882 
L 402.899563 45.522756 
L 405.397378 46.12376 
L 407.895192 50.319013 
L 410.393007 50.623324 
L 412.890822 51.069691 
L 415.388636 46.161668 
L 417.886451 49.596818 
L 420.384266 49.945758 
L 422.88208 48.72089 
L 425.379895 54.877261 
L 427.87771 48.815375 
L 430.375525 51.505726 
L 432.873339 48.704125 
L 435.371154 49.708955 
L 437.868969 52.729082 
L 440.366783 54.449704 
L 442.864598 53.734811 
L 445.362413 48.378057 
L 447.860227 48.273239 
L 450.358042 49.478987 
L 452.855857 48.842038 
L 455.353671 46.971429 
L 457.851486 49.848485 
L 460.349301 49.744712 
L 462.847115 51.302056 
L 465.34493 50.094754 
L 467.842745 48.532392 
L 470.34056 52.287644 
L 472.838374 49.340684 
L 475.336189 49.217392 
L 477.834004 48.618188 
L 480.331818 49.64672 
L 482.829633 48.370452 
L 485.327448 48.889454 
L 487.825262 50.869519 
L 490.323077 50.372669 
L 492.820892 48.915342 
L 495.318706 50.731138 
L 497.816521 48.199892 
L 500.314336 51.701358 
L 502.81215 53.014278 
L 505.309965 51.252619 
L 507.80778 51.468359 
L 510.305595 51.233776 
L 512.803409 47.379599 
L 515.301224 43.018701 
L 517.799039 44.585913 
L 520.296853 53.958819 
L 522.794668 50.11181 
L 525.292483 53.116888 
L 527.790297 51.107059 
L 530.288112 52.241113 
L 532.785927 52.385826 
L 535.283741 49.207974 
L 537.781556 53.149301 
L 540.279371 45.00234 
L 542.777186 45.024534 
L 545.275 47.154427 
L 547.772815 47.991894 
L 550.27063 49.145192 
L 552.768444 50.72891 
L 555.266259 50.786034 
L 557.764074 52.400511 
L 560.261888 49.471824 
L 562.759703 51.229279 
L 565.257518 52.440876 
L 567.755332 48.269437 
L 570.253147 52.686915 
L 572.750962 54.650179 
L 575.248776 50.986436 
L 577.746591 47.762019 
L 580.244406 52.586301 
L 582.742221 54.377293 
L 585.240035 48.876404 
L 587.73785 49.210192 
L 590.235665 51.822 
L 592.733479 47.789821 
L 595.231294 53.957762 
L 597.729109 52.710241 
L 600.226923 55.527754 
L 602.724738 57.985826 
L 605.222553 56.008379 
L 607.720367 48.652234 
L 610.218182 47.54233 
L 612.715997 48.116446 
L 615.213811 48.037655 
L 620.209441 45.207645 
L 622.707256 47.866714 
L 625.20507 44.990419 
L 627.702885 41.377864 
L 630.2007 49.608714 
L 632.698514 47.990767 
L 635.196329 49.641569 
L 637.694144 54.149 
L 640.191958 50.861226 
L 642.689773 49.937171 
L 645.187588 52.526511 
L 647.685402 46.750871 
L 650.183217 47.066281 
L 652.681032 48.414381 
L 655.178846 52.047299 
L 657.676661 56.793681 
L 660.174476 52.417731 
L 662.672291 52.678041 
L 665.170105 50.133512 
L 667.66792 48.438995 
L 670.165735 49.544211 
L 672.663549 51.486897 
L 675.161364 49.651069 
L 677.659179 48.450117 
L 680.156993 49.539499 
L 682.654808 49.310699 
L 685.152623 46.913964 
L 48.209877 44.944974 
L 50.707692 46.913964 
L 53.205507 49.310699 
L 55.703321 49.539499 
L 58.201136 48.450117 
L 60.698951 49.651069 
L 63.196765 51.486897 
L 65.69458 49.544211 
L 68.192395 48.438995 
L 70.690209 50.133512 
L 73.188024 52.678041 
L 75.685839 52.417731 
L 78.183654 56.793681 
L 80.681468 52.047299 
L 83.179283 48.414381 
L 85.677098 47.066281 
L 88.174912 46.750871 
L 90.672727 52.526511 
L 93.170542 49.937171 
L 95.668356 50.861226 
L 98.166171 54.149 
L 100.663986 49.641569 
L 103.1618 47.990767 
L 105.659615 49.608714 
L 108.15743 41.377864 
L 110.655244 44.990419 
L 113.153059 47.866714 
L 115.650874 45.207645 
L 120.646503 48.037655 
L 123.144318 48.116446 
L 125.642133 47.54233 
L 128.139947 48.652234 
L 130.637762 56.008379 
L 133.135577 57.985826 
L 135.633391 55.527754 
L 138.131206 52.710241 
L 140.629021 53.957762 
L 143.126835 47.789821 
L 145.62465 51.822 
L 148.122465 49.210192 
L 150.620279 48.876404 
L 153.118094 54.377293 
L 155.615909 52.586301 
L 158.113724 47.762019 
L 160.611538 50.986436 
L 163.109353 54.650179 
L 165.607168 52.686915 
L 168.104982 48.269437 
L 170.602797 52.440876 
L 173.100612 51.229279 
L 175.598426 49.471824 
L 178.096241 52.400511 
L 180.594056 50.786034 
L 183.09187 50.72891 
L 185.589685 49.145192 
L 188.0875 47.991894 
L 190.585314 47.154427 
L 193.083129 45.024534 
L 195.580944 45.00234 
L 198.078759 53.149301 
L 200.576573 49.207974 
L 203.074388 52.385826 
L 205.572203 52.241113 
L 208.070017 51.107059 
L 210.567832 53.116888 
L 213.065647 50.11181 
L 215.563461 53.958819 
L 218.061276 44.585913 
L 220.559091 43.018701 
L 223.056905 47.379599 
L 225.55472 51.233776 
L 228.052535 51.468359 
L 230.55035 51.252619 
L 233.048164 53.014278 
L 235.545979 51.701358 
L 238.043794 48.199892 
L 240.541608 50.731138 
L 243.039423 48.915342 
L 245.537238 50.372669 
L 248.035052 50.869519 
L 250.532867 48.889454 
L 253.030682 48.370452 
L 255.528496 49.64672 
L 258.026311 48.618188 
L 260.524126 49.217392 
L 263.02194 49.340684 
L 265.519755 52.287644 
L 268.01757 48.532392 
L 270.515385 50.094754 
L 273.013199 51.302056 
L 275.511014 49.744712 
L 278.008829 49.848485 
L 280.506643 46.971429 
L 283.004458 48.842038 
L 285.502273 49.478987 
L 288.000087 48.273239 
L 290.497902 48.378057 
L 292.995717 53.734811 
L 295.493531 54.449704 
L 297.991346 52.729082 
L 300.489161 49.708955 
L 302.986975 48.704125 
L 305.48479 51.505726 
L 307.982605 48.815375 
L 310.48042 54.877261 
L 312.978234 48.72089 
L 315.476049 49.945758 
L 317.973864 49.596818 
L 320.471678 46.161668 
L 322.969493 51.069691 
L 325.467308 50.623324 
L 327.965122 50.319013 
L 330.462937 46.12376 
L 332.960752 45.522756 
L 335.458566 46.537882 
L 337.956381 42.249399 
L 340.454196 48.084646 
L 342.95201 52.701246 
L 345.449825 47.681817 
L 347.94764 45.900296 
L 350.445455 49.257384 
L 352.943269 49.79538 
L 355.441084 48.022311 
L 357.938899 51.046617 
L 360.436713 46.097503 
L 362.934528 46.498321 
L 365.432343 66.282692 
L 365.432343 66.282692 
" clip-path="url(#pcb66317072)" style="fill: none; stroke: #1f77b4; stroke-width: 1.5; stroke-linecap: square"/>
    </g>
    <g id="line2d_10">
     <path d="M 367.930157 125.978406 
L 370.427972 68.096524 
L 372.925787 49.12282 
L 375.423601 47.073508 
L 377.921416 51.224745 
L 380.419231 51.228821 
L 382.917045 49.398017 
L 385.41486 49.885321 
L 387.912675 52.123665 
L 390.41049 46.266488 
L 395.406119 50.879663 
L 397.903934 48.300764 
L 400.401748 49.993261 
L 402.899563 53.075167 
L 405.397378 48.510662 
L 407.895192 47.186667 
L 410.393007 46.58267 
L 412.890822 43.653211 
L 415.388636 42.036601 
L 417.886451 44.102272 
L 420.384266 47.251386 
L 422.88208 54.978507 
L 425.379895 53.801871 
L 427.87771 47.964218 
L 430.375525 47.911507 
L 435.371154 53.563222 
L 437.868969 48.85278 
L 440.366783 50.493357 
L 442.864598 55.465522 
L 445.362413 50.311119 
L 447.860227 43.44267 
L 450.358042 40.939389 
L 452.855857 42.541022 
L 455.353671 45.246853 
L 457.851486 47.529352 
L 460.349301 50.306541 
L 462.847115 53.531373 
L 465.34493 51.302528 
L 467.842745 48.117332 
L 470.34056 46.405254 
L 472.838374 51.813552 
L 475.336189 50.915175 
L 477.834004 50.424711 
L 480.331818 50.7547 
L 482.829633 47.239129 
L 485.327448 46.395303 
L 487.825262 40.710235 
L 490.323077 40.15929 
L 492.820892 42.722952 
L 495.318706 43.059177 
L 497.816521 48.537764 
L 500.314336 49.046196 
L 502.81215 53.691439 
L 505.309965 51.674639 
L 510.305595 46.723504 
L 512.803409 52.356313 
L 515.301224 50.551082 
L 517.799039 46.67084 
L 520.296853 49.368677 
L 522.794668 51.446364 
L 525.292483 46.104018 
L 527.790297 47.636457 
L 530.288112 50.914637 
L 532.785927 50.071191 
L 535.283741 52.048073 
L 537.781556 49.755258 
L 540.279371 51.936892 
L 542.777186 52.022754 
L 545.275 49.398693 
L 547.772815 48.747679 
L 550.27063 50.231334 
L 552.768444 52.585354 
L 555.266259 49.769624 
L 557.764074 40.781899 
L 560.261888 42.069796 
L 562.759703 44.454529 
L 565.257518 47.686783 
L 567.755332 50.579314 
L 570.253147 50.073777 
L 575.248776 53.787239 
L 577.746591 49.218901 
L 580.244406 49.018396 
L 582.742221 51.901938 
L 585.240035 51.620421 
L 587.73785 48.410506 
L 590.235665 46.008403 
L 592.733479 45.739418 
L 595.231294 44.029001 
L 597.729109 49.467891 
L 600.226923 48.894822 
L 602.724738 46.073224 
L 607.720367 50.848122 
L 610.218182 45.705351 
L 612.715997 49.109557 
L 615.213811 51.235356 
L 617.711626 47.492707 
L 620.209441 49.167259 
L 622.707256 50.145902 
L 625.20507 45.57459 
L 627.702885 48.770733 
L 630.2007 45.941917 
L 632.698514 43.616818 
L 635.196329 48.792523 
L 637.694144 54.962913 
L 640.191958 49.409316 
L 642.689773 45.324077 
L 645.187588 44.219756 
L 647.685402 45.487132 
L 650.183217 45.969449 
L 652.681032 46.041839 
L 655.178846 46.540223 
L 657.676661 44.6184 
L 660.174476 46.243266 
L 662.672291 47.05753 
L 665.170105 46.823845 
L 667.66792 45.462349 
L 670.165735 43.128734 
L 672.663549 48.650547 
L 677.659179 51.045698 
L 680.156993 49.997046 
L 682.654808 50.591845 
L 685.152623 50.96043 
L 48.209877 51.591904 
L 50.707692 50.96043 
L 53.205507 50.591845 
L 55.703321 49.997046 
L 58.201136 51.045698 
L 63.196765 48.650547 
L 65.69458 43.128734 
L 68.192395 45.462349 
L 70.690209 46.823845 
L 73.188024 47.05753 
L 75.685839 46.243266 
L 78.183654 44.6184 
L 80.681468 46.540223 
L 83.179283 46.041839 
L 85.677098 45.969449 
L 88.174912 45.487132 
L 90.672727 44.219756 
L 93.170542 45.324077 
L 95.668356 49.409316 
L 98.166171 54.962913 
L 100.663986 48.792523 
L 103.1618 43.616818 
L 105.659615 45.941917 
L 108.15743 48.770733 
L 110.655244 45.57459 
L 113.153059 50.145902 
L 115.650874 49.167259 
L 118.148689 47.492707 
L 120.646503 51.235356 
L 123.144318 49.109557 
L 125.642133 45.705351 
L 128.139947 50.848122 
L 133.135577 46.073224 
L 135.633391 48.894822 
L 138.131206 49.467891 
L 140.629021 44.029001 
L 143.126835 45.739418 
L 145.62465 46.008403 
L 148.122465 48.410506 
L 150.620279 51.620421 
L 153.118094 51.901938 
L 155.615909 49.018396 
L 158.113724 49.218901 
L 160.611538 53.787239 
L 165.607168 50.073777 
L 168.104982 50.579314 
L 170.602797 47.686783 
L 173.100612 44.454529 
L 175.598426 42.069796 
L 178.096241 40.781899 
L 180.594056 49.769624 
L 183.09187 52.585354 
L 185.589685 50.231334 
L 188.0875 48.747679 
L 190.585314 49.398693 
L 193.083129 52.022754 
L 195.580944 51.936892 
L 198.078759 49.755258 
L 200.576573 52.048073 
L 203.074388 50.071191 
L 205.572203 50.914637 
L 208.070017 47.636457 
L 210.567832 46.104018 
L 213.065647 51.446364 
L 215.563461 49.368677 
L 218.061276 46.67084 
L 220.559091 50.551082 
L 223.056905 52.356313 
L 225.55472 46.723504 
L 230.55035 51.674639 
L 233.048164 53.691439 
L 235.545979 49.046196 
L 238.043794 48.537764 
L 240.541608 43.059177 
L 243.039423 42.722952 
L 245.537238 40.15929 
L 248.035052 40.710235 
L 250.532867 46.395303 
L 253.030682 47.239129 
L 255.528496 50.7547 
L 258.026311 50.424711 
L 260.524126 50.915175 
L 263.02194 51.813552 
L 265.519755 46.405254 
L 268.01757 48.117332 
L 270.515385 51.302528 
L 273.013199 53.531373 
L 275.511014 50.306541 
L 278.008829 47.529352 
L 280.506643 45.246853 
L 283.004458 42.541022 
L 285.502273 40.939389 
L 288.000087 43.44267 
L 290.497902 50.311119 
L 292.995717 55.465522 
L 295.493531 50.493357 
L 297.991346 48.85278 
L 300.489161 53.563222 
L 305.48479 47.911507 
L 307.982605 47.964218 
L 310.48042 53.801871 
L 312.978234 54.978507 
L 315.476049 47.251386 
L 317.973864 44.102272 
L 320.471678 42.036601 
L 322.969493 43.653211 
L 325.467308 46.58267 
L 327.965122 47.186667 
L 330.462937 48.510662 
L 332.960752 53.075167 
L 335.458566 49.993261 
L 337.956381 48.300764 
L 340.454196 50.879663 
L 345.449825 46.266488 
L 347.94764 52.123665 
L 350.445455 49.885321 
L 352.943269 49.398017 
L 355.441084 51.228821 
L 357.938899 51.224745 
L 360.436713 47.073508 
L 362.934528 49.12282 
L 365.432343 68.096524 
L 365.432343 68.096524 
" clip-path="url(#pcb66317072)" style="fill: none; stroke: #ff7f0e; stroke-width: 1.5; stroke-linecap: square"/>
    </g>
    <g id="line2d_11">
     <path d="M 367.930157 125.563276 
L 370.427972 64.8525 
L 372.925787 48.830614 
L 375.423601 53.218319 
L 380.419231 50.218591 
L 382.917045 51.927121 
L 385.41486 48.970179 
L 387.912675 51.146209 
L 390.41049 52.113205 
L 392.908304 49.141871 
L 395.406119 50.504467 
L 397.903934 52.088782 
L 400.401748 48.040345 
L 405.397378 50.227364 
L 407.895192 48.318126 
L 410.393007 49.812957 
L 412.890822 52.785446 
L 415.388636 51.420088 
L 417.886451 48.951793 
L 420.384266 48.109112 
L 422.88208 48.343593 
L 425.379895 49.67657 
L 427.87771 50.431723 
L 430.375525 51.014877 
L 432.873339 49.233654 
L 435.371154 49.06216 
L 437.868969 49.783404 
L 440.366783 53.273451 
L 442.864598 49.687855 
L 445.362413 50.128985 
L 447.860227 49.955028 
L 450.358042 49.398245 
L 452.855857 49.912909 
L 455.353671 45.604743 
L 457.851486 48.735394 
L 460.349301 47.302938 
L 462.847115 53.538173 
L 465.34493 52.7027 
L 467.842745 50.720718 
L 470.34056 49.904586 
L 472.838374 46.604336 
L 475.336189 43.759831 
L 477.834004 47.715965 
L 480.331818 51.223833 
L 482.829633 46.507907 
L 485.327448 47.176887 
L 487.825262 47.350771 
L 490.323077 46.557041 
L 492.820892 54.469756 
L 495.318706 56.223782 
L 497.816521 51.678639 
L 500.314336 50.243447 
L 502.81215 50.251491 
L 505.309965 43.606557 
L 507.80778 44.300015 
L 510.305595 47.637246 
L 512.803409 51.373924 
L 515.301224 52.164068 
L 517.799039 51.486911 
L 520.296853 52.079096 
L 522.794668 48.599586 
L 525.292483 49.538691 
L 527.790297 49.225608 
L 530.288112 50.539724 
L 532.785927 54.909573 
L 535.283741 54.661385 
L 537.781556 54.529286 
L 540.279371 50.941745 
L 542.777186 48.292838 
L 545.275 48.932058 
L 547.772815 48.874375 
L 550.27063 46.920546 
L 552.768444 47.059532 
L 555.266259 48.049015 
L 557.764074 48.24132 
L 560.261888 43.955361 
L 562.759703 44.82693 
L 565.257518 48.450098 
L 567.755332 51.354804 
L 570.253147 48.423289 
L 572.750962 48.017684 
L 575.248776 57.667936 
L 577.746591 56.497069 
L 580.244406 48.209891 
L 582.742221 45.913487 
L 585.240035 50.609 
L 587.73785 48.156011 
L 590.235665 51.797334 
L 592.733479 55.953888 
L 595.231294 55.494183 
L 597.729109 49.738618 
L 600.226923 50.077912 
L 602.724738 52.03746 
L 605.222553 49.36006 
L 607.720367 52.853089 
L 610.218182 49.801466 
L 612.715997 40.855982 
L 615.213811 47.622715 
L 617.711626 46.114617 
L 620.209441 43.449424 
L 622.707256 42.507449 
L 625.20507 43.849989 
L 627.702885 43.920988 
L 630.2007 47.112668 
L 632.698514 49.695486 
L 635.196329 48.011271 
L 637.694144 51.284297 
L 640.191958 53.431785 
L 642.689773 47.049259 
L 645.187588 47.962514 
L 647.685402 48.035787 
L 650.183217 49.699943 
L 652.681032 48.888867 
L 655.178846 50.547806 
L 657.676661 53.500378 
L 660.174476 52.72341 
L 662.672291 51.251132 
L 665.170105 51.860919 
L 667.66792 52.819404 
L 670.165735 50.445936 
L 672.663549 49.363103 
L 675.161364 48.110235 
L 677.659179 49.201191 
L 680.156993 51.142722 
L 682.654808 48.016492 
L 685.152623 53.079854 
L 48.209877 52.051602 
L 50.707692 53.079854 
L 53.205507 48.016492 
L 55.703321 51.142722 
L 58.201136 49.201191 
L 60.698951 48.110235 
L 63.196765 49.363103 
L 65.69458 50.445936 
L 68.192395 52.819404 
L 70.690209 51.860919 
L 73.188024 51.251132 
L 75.685839 52.72341 
L 78.183654 53.500378 
L 80.681468 50.547806 
L 83.179283 48.888867 
L 85.677098 49.699943 
L 88.174912 48.035787 
L 90.672727 47.962514 
L 93.170542 47.049259 
L 95.668356 53.431785 
L 98.166171 51.284297 
L 100.663986 48.011271 
L 103.1618 49.695486 
L 105.659615 47.112668 
L 108.15743 43.920988 
L 110.655244 43.849989 
L 113.153059 42.507449 
L 115.650874 43.449424 
L 118.148689 46.114617 
L 120.646503 47.622715 
L 123.144318 40.855982 
L 125.642133 49.801466 
L 128.139947 52.853089 
L 130.637762 49.36006 
L 133.135577 52.03746 
L 135.633391 50.077912 
L 138.131206 49.738618 
L 140.629021 55.494183 
L 143.126835 55.953888 
L 145.62465 51.797334 
L 148.122465 48.156011 
L 150.620279 50.609 
L 153.118094 45.913487 
L 155.615909 48.209891 
L 158.113724 56.497069 
L 160.611538 57.667936 
L 163.109353 48.017684 
L 165.607168 48.423289 
L 168.104982 51.354804 
L 170.602797 48.450098 
L 173.100612 44.82693 
L 175.598426 43.955361 
L 178.096241 48.24132 
L 180.594056 48.049015 
L 183.09187 47.059532 
L 185.589685 46.920546 
L 188.0875 48.874375 
L 190.585314 48.932058 
L 193.083129 48.292838 
L 195.580944 50.941745 
L 198.078759 54.529286 
L 200.576573 54.661385 
L 203.074388 54.909573 
L 205.572203 50.539724 
L 208.070017 49.225608 
L 210.567832 49.538691 
L 213.065647 48.599586 
L 215.563461 52.079096 
L 218.061276 51.486911 
L 220.559091 52.164068 
L 223.056905 51.373924 
L 225.55472 47.637246 
L 228.052535 44.300015 
L 230.55035 43.606557 
L 233.048164 50.251491 
L 235.545979 50.243447 
L 238.043794 51.678639 
L 240.541608 56.223782 
L 243.039423 54.469756 
L 245.537238 46.557041 
L 248.035052 47.350771 
L 250.532867 47.176887 
L 253.030682 46.507907 
L 255.528496 51.223833 
L 258.026311 47.715965 
L 260.524126 43.759831 
L 263.02194 46.604336 
L 265.519755 49.904586 
L 268.01757 50.720718 
L 270.515385 52.7027 
L 273.013199 53.538173 
L 275.511014 47.302938 
L 278.008829 48.735394 
L 280.506643 45.604743 
L 283.004458 49.912909 
L 285.502273 49.398245 
L 288.000087 49.955028 
L 290.497902 50.128985 
L 292.995717 49.687855 
L 295.493531 53.273451 
L 297.991346 49.783404 
L 300.489161 49.06216 
L 302.986975 49.233654 
L 305.48479 51.014877 
L 307.982605 50.431723 
L 310.48042 49.67657 
L 312.978234 48.343593 
L 315.476049 48.109112 
L 317.973864 48.951793 
L 320.471678 51.420088 
L 322.969493 52.785446 
L 325.467308 49.812957 
L 327.965122 48.318126 
L 330.462937 50.227364 
L 335.458566 48.040345 
L 337.956381 52.088782 
L 340.454196 50.504467 
L 342.95201 49.141871 
L 345.449825 52.113205 
L 347.94764 51.146209 
L 350.445455 48.970179 
L 352.943269 51.927121 
L 355.441084 50.218591 
L 360.436713 53.218319 
L 362.934528 48.830614 
L 365.432343 64.8525 
L 365.432343 64.8525 
" clip-path="url(#pcb66317072)" style="fill: none; stroke: #2ca02c; stroke-width: 1.5; stroke-linecap: square"/>
    </g>
    <g id="patch_4">
     <path d="M 16.36274 133.119879 
L 16.36274 35.732595 
" style="fill: none; stroke: #000000; stroke-width: 0.8; stroke-linejoin: miter; stroke-linecap: square"/>
    </g>
    <g id="patch_5">
     <path d="M 716.99976 133.119879 
L 716.99976 35.732595 
" style="fill: none; stroke: #000000; stroke-width: 0.8; stroke-linejoin: miter; stroke-linecap: square"/>
    </g>
    <g id="patch_6">
     <path d="M 16.36274 133.119879 
L 716.99976 133.119879 
" style="fill: none; stroke: #000000; stroke-width: 0.8; stroke-linejoin: miter; stroke-linecap: square"/>
    </g>
    <g id="patch_7">
     <path d="M 16.36274 35.732595 
L 716.99976 35.732595 
" style="fill: none; stroke: #000000; stroke-width: 0.8; stroke-linejoin: miter; stroke-linecap: square"/>
    </g>
    <g id="text_10">
     <!-- White Noise -->
     <g transform="translate(330.684062 29.732595) scale(0.12 -0.12)">
      <defs>
       <path id="DejaVuSans-57" d="M 213 4666 
L 850 4666 
L 1831 722 
L 2809 4666 
L 3519 4666 
L 4500 722 
L 5478 4666 
L 6119 4666 
L 4947 0 
L 4153 0 
L 3169 4050 
L 2175 0 
L 1381 0 
L 213 4666 
z
" transform="scale(0.015625)"/>
       <path id="DejaVuSans-68" d="M 3513 2113 
L 3513 0 
L 2938 0 
L 2938 2094 
Q 2938 2591 2744 2837 
Q 2550 3084 2163 3084 
Q 1697 3084 1428 2787 
Q 1159 2491 1159 1978 
L 1159 0 
L 581 0 
L 581 4863 
L 1159 4863 
L 1159 2956 
Q 1366 3272 1645 3428 
Q 1925 3584 2291 3584 
Q 2894 3584 3203 3211 
Q 3513 2838 3513 2113 
z
" transform="scale(0.015625)"/>
       <path id="DejaVuSans-4e" d="M 628 4666 
L 1478 4666 
L 3547 763 
L 3547 4666 
L 4159 4666 
L 4159 0 
L 3309 0 
L 1241 3903 
L 1241 0 
L 628 0 
L 628 4666 
z
" transform="scale(0.015625)"/>
      </defs>
      <use xlink:href="#DejaVuSans-57"/>
      <use xlink:href="#DejaVuSans-68" x="98.876953"/>
      <use xlink:href="#DejaVuSans-69" x="162.255859"/>
      <use xlink:href="#DejaVuSans-74" x="190.039062"/>
      <use xlink:href="#DejaVuSans-65" x="229.248047"/>
      <use xlink:href="#DejaVuSans-20" x="290.771484"/>
      <use xlink:href="#DejaVuSans-4e" x="322.558594"/>
      <use xlink:href="#DejaVuSans-6f" x="397.363281"/>
      <use xlink:href="#DejaVuSans-69" x="458.544922"/>
      <use xlink:href="#DejaVuSans-73" x="486.328125"/>
      <use xlink:href="#DejaVuSans-65" x="538.427734"/>
     </g>
    </g>
    <g id="legend_1">
     <g id="patch_8">
      <path d="M 256.033594 180.144825 
L 477.328906 180.144825 
Q 479.328906 180.144825 479.328906 178.144825 
L 479.328906 164.4667 
Q 479.328906 162.4667 477.328906 162.4667 
L 256.033594 162.4667 
Q 254.033594 162.4667 254.033594 164.4667 
L 254.033594 178.144825 
Q 254.033594 180.144825 256.033594 180.144825 
z
" style="fill: #ffffff; opacity: 0.8; stroke: #cccccc; stroke-linejoin: miter"/>
     </g>
     <g id="line2d_12">
      <path d="M 258.033594 170.565138 
L 268.033594 170.565138 
L 278.033594 170.565138 
" style="fill: none; stroke: #1f77b4; stroke-width: 1.5; stroke-linecap: square"/>
     </g>
     <g id="text_11">
      <!-- Real 1 -->
      <g transform="translate(286.033594 174.065138) scale(0.1 -0.1)">
       <defs>
        <path id="DejaVuSans-52" d="M 2841 2188 
Q 3044 2119 3236 1894 
Q 3428 1669 3622 1275 
L 4263 0 
L 3584 0 
L 2988 1197 
Q 2756 1666 2539 1819 
Q 2322 1972 1947 1972 
L 1259 1972 
L 1259 0 
L 628 0 
L 628 4666 
L 2053 4666 
Q 2853 4666 3247 4331 
Q 3641 3997 3641 3322 
Q 3641 2881 3436 2590 
Q 3231 2300 2841 2188 
z
M 1259 4147 
L 1259 2491 
L 2053 2491 
Q 2509 2491 2742 2702 
Q 2975 2913 2975 3322 
Q 2975 3731 2742 3939 
Q 2509 4147 2053 4147 
L 1259 4147 
z
" transform="scale(0.015625)"/>
        <path id="DejaVuSans-31" d="M 794 531 
L 1825 531 
L 1825 4091 
L 703 3866 
L 703 4441 
L 1819 4666 
L 2450 4666 
L 2450 531 
L 3481 531 
L 3481 0 
L 794 0 
L 794 531 
z
" transform="scale(0.015625)"/>
       </defs>
       <use xlink:href="#DejaVuSans-52"/>
       <use xlink:href="#DejaVuSans-65" x="64.982422"/>
       <use xlink:href="#DejaVuSans-61" x="126.505859"/>
       <use xlink:href="#DejaVuSans-6c" x="187.785156"/>
       <use xlink:href="#DejaVuSans-20" x="215.568359"/>
       <use xlink:href="#DejaVuSans-31" x="247.355469"/>
      </g>
     </g>
     <g id="line2d_13">
      <path d="M 337.132031 170.565138 
L 347.132031 170.565138 
L 357.132031 170.565138 
" style="fill: none; stroke: #ff7f0e; stroke-width: 1.5; stroke-linecap: square"/>
     </g>
     <g id="text_12">
      <!-- Real 2 -->
      <g transform="translate(365.132031 174.065138) scale(0.1 -0.1)">
       <use xlink:href="#DejaVuSans-52"/>
       <use xlink:href="#DejaVuSans-65" x="64.982422"/>
       <use xlink:href="#DejaVuSans-61" x="126.505859"/>
       <use xlink:href="#DejaVuSans-6c" x="187.785156"/>
       <use xlink:href="#DejaVuSans-20" x="215.568359"/>
       <use xlink:href="#DejaVuSans-32" x="247.355469"/>
      </g>
     </g>
     <g id="line2d_14">
      <path d="M 416.230469 170.565138 
L 426.230469 170.565138 
L 436.230469 170.565138 
" style="fill: none; stroke: #2ca02c; stroke-width: 1.5; stroke-linecap: square"/>
     </g>
     <g id="text_13">
      <!-- Real 3 -->
      <g transform="translate(444.230469 174.065138) scale(0.1 -0.1)">
       <use xlink:href="#DejaVuSans-52"/>
       <use xlink:href="#DejaVuSans-65" x="64.982422"/>
       <use xlink:href="#DejaVuSans-61" x="126.505859"/>
       <use xlink:href="#DejaVuSans-6c" x="187.785156"/>
       <use xlink:href="#DejaVuSans-20" x="215.568359"/>
       <use xlink:href="#DejaVuSans-33" x="247.355469"/>
      </g>
     </g>
    </g>
   </g>
  </g>
  <g id="subfigure_2">
   <g id="patch_9">
    <path d="M 0 359.807115 
L 720 359.807115 
L 720 197.710672 
L 0 197.710672 
z
" style="fill: #ffffff"/>
   </g>
   <g id="axes_2">
    <g id="patch_10">
     <path d="M 35.45024 313.216322 
L 716.99976 313.216322 
L 716.99976 215.829038 
L 35.45024 215.829038 
z
" style="fill: #ffffff"/>
    </g>
    <g id="matplotlib.axis_3">
     <g id="xtick_6">
      <g id="line2d_15">
       <g>
        <use xlink:href="#mf067ef1786" x="128.631788" y="313.216322" style="stroke: #000000; stroke-width: 0.8"/>
       </g>
      </g>
      <g id="text_14">
       <!-- −0.4 -->
       <g transform="translate(116.490381 327.814759) scale(0.1 -0.1)">
        <use xlink:href="#DejaVuSans-2212"/>
        <use xlink:href="#DejaVuSans-30" x="83.789062"/>
        <use xlink:href="#DejaVuSans-2e" x="147.412109"/>
        <use xlink:href="#DejaVuSans-34" x="179.199219"/>
       </g>
      </g>
     </g>
     <g id="xtick_7">
      <g id="line2d_16">
       <g>
        <use xlink:href="#mf067ef1786" x="253.035835" y="313.216322" style="stroke: #000000; stroke-width: 0.8"/>
       </g>
      </g>
      <g id="text_15">
       <!-- −0.2 -->
       <g transform="translate(240.894429 327.814759) scale(0.1 -0.1)">
        <use xlink:href="#DejaVuSans-2212"/>
        <use xlink:href="#DejaVuSans-30" x="83.789062"/>
        <use xlink:href="#DejaVuSans-2e" x="147.412109"/>
        <use xlink:href="#DejaVuSans-32" x="179.199219"/>
       </g>
      </g>
     </g>
     <g id="xtick_8">
      <g id="line2d_17">
       <g>
        <use xlink:href="#mf067ef1786" x="377.439883" y="313.216322" style="stroke: #000000; stroke-width: 0.8"/>
       </g>
      </g>
      <g id="text_16">
       <!-- 0.0 -->
       <g transform="translate(369.488321 327.814759) scale(0.1 -0.1)">
        <use xlink:href="#DejaVuSans-30"/>
        <use xlink:href="#DejaVuSans-2e" x="63.623047"/>
        <use xlink:href="#DejaVuSans-30" x="95.410156"/>
       </g>
      </g>
     </g>
     <g id="xtick_9">
      <g id="line2d_18">
       <g>
        <use xlink:href="#mf067ef1786" x="501.843931" y="313.216322" style="stroke: #000000; stroke-width: 0.8"/>
       </g>
      </g>
      <g id="text_17">
       <!-- 0.2 -->
       <g transform="translate(493.892369 327.814759) scale(0.1 -0.1)">
        <use xlink:href="#DejaVuSans-30"/>
        <use xlink:href="#DejaVuSans-2e" x="63.623047"/>
        <use xlink:href="#DejaVuSans-32" x="95.410156"/>
       </g>
      </g>
     </g>
     <g id="xtick_10">
      <g id="line2d_19">
       <g>
        <use xlink:href="#mf067ef1786" x="626.247979" y="313.216322" style="stroke: #000000; stroke-width: 0.8"/>
       </g>
      </g>
      <g id="text_18">
       <!-- 0.4 -->
       <g transform="translate(618.296416 327.814759) scale(0.1 -0.1)">
        <use xlink:href="#DejaVuSans-30"/>
        <use xlink:href="#DejaVuSans-2e" x="63.623047"/>
        <use xlink:href="#DejaVuSans-34" x="95.410156"/>
       </g>
      </g>
     </g>
    </g>
    <g id="matplotlib.axis_4">
     <g id="ytick_4">
      <g id="line2d_20">
       <g>
        <use xlink:href="#m3d63ef1ef0" x="35.45024" y="308.80084" style="stroke: #000000; stroke-width: 0.8"/>
       </g>
      </g>
      <g id="text_19">
       <!-- 0 -->
       <g transform="translate(22.08774 312.600059) scale(0.1 -0.1)">
        <use xlink:href="#DejaVuSans-30"/>
       </g>
      </g>
     </g>
     <g id="ytick_5">
      <g id="line2d_21">
       <g>
        <use xlink:href="#m3d63ef1ef0" x="35.45024" y="279.665667" style="stroke: #000000; stroke-width: 0.8"/>
       </g>
      </g>
      <g id="text_20">
       <!-- 2500 -->
       <g transform="translate(3.00024 283.464886) scale(0.1 -0.1)">
        <defs>
         <path id="DejaVuSans-35" d="M 691 4666 
L 3169 4666 
L 3169 4134 
L 1269 4134 
L 1269 2991 
Q 1406 3038 1543 3061 
Q 1681 3084 1819 3084 
Q 2600 3084 3056 2656 
Q 3513 2228 3513 1497 
Q 3513 744 3044 326 
Q 2575 -91 1722 -91 
Q 1428 -91 1123 -41 
Q 819 9 494 109 
L 494 744 
Q 775 591 1075 516 
Q 1375 441 1709 441 
Q 2250 441 2565 725 
Q 2881 1009 2881 1497 
Q 2881 1984 2565 2268 
Q 2250 2553 1709 2553 
Q 1456 2553 1204 2497 
Q 953 2441 691 2322 
L 691 4666 
z
" transform="scale(0.015625)"/>
        </defs>
        <use xlink:href="#DejaVuSans-32"/>
        <use xlink:href="#DejaVuSans-35" x="63.623047"/>
        <use xlink:href="#DejaVuSans-30" x="127.246094"/>
        <use xlink:href="#DejaVuSans-30" x="190.869141"/>
       </g>
      </g>
     </g>
     <g id="ytick_6">
      <g id="line2d_22">
       <g>
        <use xlink:href="#m3d63ef1ef0" x="35.45024" y="250.530494" style="stroke: #000000; stroke-width: 0.8"/>
       </g>
      </g>
      <g id="text_21">
       <!-- 5000 -->
       <g transform="translate(3.00024 254.329713) scale(0.1 -0.1)">
        <use xlink:href="#DejaVuSans-35"/>
        <use xlink:href="#DejaVuSans-30" x="63.623047"/>
        <use xlink:href="#DejaVuSans-30" x="127.246094"/>
        <use xlink:href="#DejaVuSans-30" x="190.869141"/>
       </g>
      </g>
     </g>
     <g id="ytick_7">
      <g id="line2d_23">
       <g>
        <use xlink:href="#m3d63ef1ef0" x="35.45024" y="221.395322" style="stroke: #000000; stroke-width: 0.8"/>
       </g>
      </g>
      <g id="text_22">
       <!-- 7500 -->
       <g transform="translate(3.00024 225.19454) scale(0.1 -0.1)">
        <defs>
         <path id="DejaVuSans-37" d="M 525 4666 
L 3525 4666 
L 3525 4397 
L 1831 0 
L 1172 0 
L 2766 4134 
L 525 4134 
L 525 4666 
z
" transform="scale(0.015625)"/>
        </defs>
        <use xlink:href="#DejaVuSans-37"/>
        <use xlink:href="#DejaVuSans-35" x="63.623047"/>
        <use xlink:href="#DejaVuSans-30" x="127.246094"/>
        <use xlink:href="#DejaVuSans-30" x="190.869141"/>
       </g>
      </g>
     </g>
    </g>
    <g id="line2d_24">
     <path d="M 377.439883 280.861776 
L 379.86965 221.717433 
L 382.299416 279.459834 
L 384.729183 298.492901 
L 387.15895 303.669437 
L 389.588716 305.520649 
L 392.018483 306.57393 
L 394.448249 307.18133 
L 399.307782 307.810373 
L 404.167315 308.14517 
L 421.175681 308.560127 
L 467.341246 308.740171 
L 569.391441 308.784072 
L 686.020236 308.788894 
L 66.429764 308.788702 
L 306.976653 308.708385 
L 338.563618 308.494872 
L 350.712451 308.14517 
L 355.571984 307.810373 
L 360.431517 307.18133 
L 362.861284 306.57393 
L 365.29105 305.520649 
L 367.720817 303.669437 
L 370.150584 298.492901 
L 372.58035 279.459834 
L 375.010117 221.717433 
L 375.010117 221.717433 
" clip-path="url(#p0e53ff0bae)" style="fill: none; stroke: #1f77b4; stroke-width: 1.5; stroke-linecap: square"/>
    </g>
    <g id="line2d_25">
     <path d="M 377.439883 281.825256 
L 379.86965 220.255732 
L 382.299416 279.84431 
L 384.729183 298.621188 
L 387.15895 303.665157 
L 389.588716 305.606947 
L 392.018483 306.575039 
L 394.448249 307.180061 
L 396.878016 307.593209 
L 404.167315 308.158248 
L 413.886382 308.447874 
L 433.324514 308.65563 
L 562.102142 308.781381 
L 686.020236 308.789291 
L 66.429764 308.789351 
L 314.265953 308.68298 
L 340.993385 308.447874 
L 348.282685 308.24884 
L 353.142218 308.003316 
L 358.001751 307.593209 
L 360.431517 307.180061 
L 362.861284 306.575039 
L 365.29105 305.606947 
L 367.720817 303.665157 
L 370.150584 298.621188 
L 372.58035 279.84431 
L 375.010117 220.255732 
L 375.010117 220.255732 
" clip-path="url(#p0e53ff0bae)" style="fill: none; stroke: #ff7f0e; stroke-width: 1.5; stroke-linecap: square"/>
    </g>
    <g id="line2d_26">
     <path d="M 377.439883 281.676067 
L 379.86965 220.664125 
L 382.299416 278.907324 
L 384.729183 299.175107 
L 387.15895 303.730997 
L 389.588716 305.563907 
L 392.018483 306.627967 
L 394.448249 307.169906 
L 396.878016 307.579144 
L 401.737549 308.011511 
L 409.026849 308.32877 
L 418.745915 308.527684 
L 433.324514 308.650023 
L 472.200779 308.747179 
L 686.020236 308.789495 
L 66.429764 308.789399 
L 314.265953 308.681622 
L 336.133852 308.527684 
L 348.282685 308.266868 
L 355.571984 307.847529 
L 358.001751 307.579144 
L 360.431517 307.169906 
L 362.861284 306.627967 
L 365.29105 305.563907 
L 367.720817 303.730997 
L 370.150584 299.175107 
L 372.58035 278.907324 
L 375.010117 220.664125 
L 375.010117 220.664125 
" clip-path="url(#p0e53ff0bae)" style="fill: none; stroke: #2ca02c; stroke-width: 1.5; stroke-linecap: square"/>
    </g>
    <g id="patch_11">
     <path d="M 35.45024 313.216322 
L 35.45024 215.829038 
" style="fill: none; stroke: #000000; stroke-width: 0.8; stroke-linejoin: miter; stroke-linecap: square"/>
    </g>
    <g id="patch_12">
     <path d="M 716.99976 313.216322 
L 716.99976 215.829038 
" style="fill: none; stroke: #000000; stroke-width: 0.8; stroke-linejoin: miter; stroke-linecap: square"/>
    </g>
    <g id="patch_13">
     <path d="M 35.45024 313.216322 
L 716.99976 313.216322 
" style="fill: none; stroke: #000000; stroke-width: 0.8; stroke-linejoin: miter; stroke-linecap: square"/>
    </g>
    <g id="patch_14">
     <path d="M 35.45024 215.829038 
L 716.99976 215.829038 
" style="fill: none; stroke: #000000; stroke-width: 0.8; stroke-linejoin: miter; stroke-linecap: square"/>
    </g>
    <g id="text_23">
     <!-- Random Walk -->
     <g transform="translate(335.111875 209.829038) scale(0.12 -0.12)">
      <defs>
       <path id="DejaVuSans-64" d="M 2906 2969 
L 2906 4863 
L 3481 4863 
L 3481 0 
L 2906 0 
L 2906 525 
Q 2725 213 2448 61 
Q 2172 -91 1784 -91 
Q 1150 -91 751 415 
Q 353 922 353 1747 
Q 353 2572 751 3078 
Q 1150 3584 1784 3584 
Q 2172 3584 2448 3432 
Q 2725 3281 2906 2969 
z
M 947 1747 
Q 947 1113 1208 752 
Q 1469 391 1925 391 
Q 2381 391 2643 752 
Q 2906 1113 2906 1747 
Q 2906 2381 2643 2742 
Q 2381 3103 1925 3103 
Q 1469 3103 1208 2742 
Q 947 2381 947 1747 
z
" transform="scale(0.015625)"/>
       <path id="DejaVuSans-6d" d="M 3328 2828 
Q 3544 3216 3844 3400 
Q 4144 3584 4550 3584 
Q 5097 3584 5394 3201 
Q 5691 2819 5691 2113 
L 5691 0 
L 5113 0 
L 5113 2094 
Q 5113 2597 4934 2840 
Q 4756 3084 4391 3084 
Q 3944 3084 3684 2787 
Q 3425 2491 3425 1978 
L 3425 0 
L 2847 0 
L 2847 2094 
Q 2847 2600 2669 2842 
Q 2491 3084 2119 3084 
Q 1678 3084 1418 2786 
Q 1159 2488 1159 1978 
L 1159 0 
L 581 0 
L 581 3500 
L 1159 3500 
L 1159 2956 
Q 1356 3278 1631 3431 
Q 1906 3584 2284 3584 
Q 2666 3584 2933 3390 
Q 3200 3197 3328 2828 
z
" transform="scale(0.015625)"/>
       <path id="DejaVuSans-6b" d="M 581 4863 
L 1159 4863 
L 1159 1991 
L 2875 3500 
L 3609 3500 
L 1753 1863 
L 3688 0 
L 2938 0 
L 1159 1709 
L 1159 0 
L 581 0 
L 581 4863 
z
" transform="scale(0.015625)"/>
      </defs>
      <use xlink:href="#DejaVuSans-52"/>
      <use xlink:href="#DejaVuSans-61" x="67.232422"/>
      <use xlink:href="#DejaVuSans-6e" x="128.511719"/>
      <use xlink:href="#DejaVuSans-64" x="191.890625"/>
      <use xlink:href="#DejaVuSans-6f" x="255.367188"/>
      <use xlink:href="#DejaVuSans-6d" x="316.548828"/>
      <use xlink:href="#DejaVuSans-20" x="413.960938"/>
      <use xlink:href="#DejaVuSans-57" x="445.748047"/>
      <use xlink:href="#DejaVuSans-61" x="538.25"/>
      <use xlink:href="#DejaVuSans-6c" x="599.529297"/>
      <use xlink:href="#DejaVuSans-6b" x="627.3125"/>
     </g>
    </g>
    <g id="legend_2">
     <g id="patch_15">
      <path d="M 265.577344 360.241268 
L 486.872656 360.241268 
Q 488.872656 360.241268 488.872656 358.241268 
L 488.872656 344.563143 
Q 488.872656 342.563143 486.872656 342.563143 
L 265.577344 342.563143 
Q 263.577344 342.563143 263.577344 344.563143 
L 263.577344 358.241268 
Q 263.577344 360.241268 265.577344 360.241268 
z
" style="fill: #ffffff; opacity: 0.8; stroke: #cccccc; stroke-linejoin: miter"/>
     </g>
     <g id="line2d_27">
      <path d="M 267.577344 350.66158 
L 277.577344 350.66158 
L 287.577344 350.66158 
" style="fill: none; stroke: #1f77b4; stroke-width: 1.5; stroke-linecap: square"/>
     </g>
     <g id="text_24">
      <!-- Real 1 -->
      <g transform="translate(295.577344 354.16158) scale(0.1 -0.1)">
       <use xlink:href="#DejaVuSans-52"/>
       <use xlink:href="#DejaVuSans-65" x="64.982422"/>
       <use xlink:href="#DejaVuSans-61" x="126.505859"/>
       <use xlink:href="#DejaVuSans-6c" x="187.785156"/>
       <use xlink:href="#DejaVuSans-20" x="215.568359"/>
       <use xlink:href="#DejaVuSans-31" x="247.355469"/>
      </g>
     </g>
     <g id="line2d_28">
      <path d="M 346.675781 350.66158 
L 356.675781 350.66158 
L 366.675781 350.66158 
" style="fill: none; stroke: #ff7f0e; stroke-width: 1.5; stroke-linecap: square"/>
     </g>
     <g id="text_25">
      <!-- Real 2 -->
      <g transform="translate(374.675781 354.16158) scale(0.1 -0.1)">
       <use xlink:href="#DejaVuSans-52"/>
       <use xlink:href="#DejaVuSans-65" x="64.982422"/>
       <use xlink:href="#DejaVuSans-61" x="126.505859"/>
       <use xlink:href="#DejaVuSans-6c" x="187.785156"/>
       <use xlink:href="#DejaVuSans-20" x="215.568359"/>
       <use xlink:href="#DejaVuSans-32" x="247.355469"/>
      </g>
     </g>
     <g id="line2d_29">
      <path d="M 425.774219 350.66158 
L 435.774219 350.66158 
L 445.774219 350.66158 
" style="fill: none; stroke: #2ca02c; stroke-width: 1.5; stroke-linecap: square"/>
     </g>
     <g id="text_26">
      <!-- Real 3 -->
      <g transform="translate(453.774219 354.16158) scale(0.1 -0.1)">
       <use xlink:href="#DejaVuSans-52"/>
       <use xlink:href="#DejaVuSans-65" x="64.982422"/>
       <use xlink:href="#DejaVuSans-61" x="126.505859"/>
       <use xlink:href="#DejaVuSans-6c" x="187.785156"/>
       <use xlink:href="#DejaVuSans-20" x="215.568359"/>
       <use xlink:href="#DejaVuSans-33" x="247.355469"/>
      </g>
     </g>
    </g>
   </g>
  </g>
  <g id="subfigure_3">
   <g id="patch_16">
    <path d="M 0 539.903558 
L 720 539.903558 
L 720 377.807115 
L 0 377.807115 
z
" style="fill: #ffffff"/>
   </g>
   <g id="axes_3">
    <g id="patch_17">
     <path d="M 35.45024 493.312764 
L 716.99976 493.312764 
L 716.99976 395.92548 
L 35.45024 395.92548 
z
" style="fill: #ffffff"/>
    </g>
    <g id="matplotlib.axis_5">
     <g id="xtick_11">
      <g id="line2d_30">
       <g>
        <use xlink:href="#mf067ef1786" x="128.631788" y="493.312764" style="stroke: #000000; stroke-width: 0.8"/>
       </g>
      </g>
      <g id="text_27">
       <!-- −0.4 -->
       <g transform="translate(116.490381 507.911202) scale(0.1 -0.1)">
        <use xlink:href="#DejaVuSans-2212"/>
        <use xlink:href="#DejaVuSans-30" x="83.789062"/>
        <use xlink:href="#DejaVuSans-2e" x="147.412109"/>
        <use xlink:href="#DejaVuSans-34" x="179.199219"/>
       </g>
      </g>
     </g>
     <g id="xtick_12">
      <g id="line2d_31">
       <g>
        <use xlink:href="#mf067ef1786" x="253.035835" y="493.312764" style="stroke: #000000; stroke-width: 0.8"/>
       </g>
      </g>
      <g id="text_28">
       <!-- −0.2 -->
       <g transform="translate(240.894429 507.911202) scale(0.1 -0.1)">
        <use xlink:href="#DejaVuSans-2212"/>
        <use xlink:href="#DejaVuSans-30" x="83.789062"/>
        <use xlink:href="#DejaVuSans-2e" x="147.412109"/>
        <use xlink:href="#DejaVuSans-32" x="179.199219"/>
       </g>
      </g>
     </g>
     <g id="xtick_13">
      <g id="line2d_32">
       <g>
        <use xlink:href="#mf067ef1786" x="377.439883" y="493.312764" style="stroke: #000000; stroke-width: 0.8"/>
       </g>
      </g>
      <g id="text_29">
       <!-- 0.0 -->
       <g transform="translate(369.488321 507.911202) scale(0.1 -0.1)">
        <use xlink:href="#DejaVuSans-30"/>
        <use xlink:href="#DejaVuSans-2e" x="63.623047"/>
        <use xlink:href="#DejaVuSans-30" x="95.410156"/>
       </g>
      </g>
     </g>
     <g id="xtick_14">
      <g id="line2d_33">
       <g>
        <use xlink:href="#mf067ef1786" x="501.843931" y="493.312764" style="stroke: #000000; stroke-width: 0.8"/>
       </g>
      </g>
      <g id="text_30">
       <!-- 0.2 -->
       <g transform="translate(493.892369 507.911202) scale(0.1 -0.1)">
        <use xlink:href="#DejaVuSans-30"/>
        <use xlink:href="#DejaVuSans-2e" x="63.623047"/>
        <use xlink:href="#DejaVuSans-32" x="95.410156"/>
       </g>
      </g>
     </g>
     <g id="xtick_15">
      <g id="line2d_34">
       <g>
        <use xlink:href="#mf067ef1786" x="626.247979" y="493.312764" style="stroke: #000000; stroke-width: 0.8"/>
       </g>
      </g>
      <g id="text_31">
       <!-- 0.4 -->
       <g transform="translate(618.296416 507.911202) scale(0.1 -0.1)">
        <use xlink:href="#DejaVuSans-30"/>
        <use xlink:href="#DejaVuSans-2e" x="63.623047"/>
        <use xlink:href="#DejaVuSans-34" x="95.410156"/>
       </g>
      </g>
     </g>
    </g>
    <g id="matplotlib.axis_6">
     <g id="ytick_8">
      <g id="line2d_35">
       <g>
        <use xlink:href="#m3d63ef1ef0" x="35.45024" y="488.897527" style="stroke: #000000; stroke-width: 0.8"/>
       </g>
      </g>
      <g id="text_32">
       <!-- 0 -->
       <g transform="translate(22.08774 492.696745) scale(0.1 -0.1)">
        <use xlink:href="#DejaVuSans-30"/>
       </g>
      </g>
     </g>
     <g id="ytick_9">
      <g id="line2d_36">
       <g>
        <use xlink:href="#m3d63ef1ef0" x="35.45024" y="459.149646" style="stroke: #000000; stroke-width: 0.8"/>
       </g>
      </g>
      <g id="text_33">
       <!-- 2500 -->
       <g transform="translate(3.00024 462.948864) scale(0.1 -0.1)">
        <use xlink:href="#DejaVuSans-32"/>
        <use xlink:href="#DejaVuSans-35" x="63.623047"/>
        <use xlink:href="#DejaVuSans-30" x="127.246094"/>
        <use xlink:href="#DejaVuSans-30" x="190.869141"/>
       </g>
      </g>
     </g>
     <g id="ytick_10">
      <g id="line2d_37">
       <g>
        <use xlink:href="#m3d63ef1ef0" x="35.45024" y="429.401764" style="stroke: #000000; stroke-width: 0.8"/>
       </g>
      </g>
      <g id="text_34">
       <!-- 5000 -->
       <g transform="translate(3.00024 433.200983) scale(0.1 -0.1)">
        <use xlink:href="#DejaVuSans-35"/>
        <use xlink:href="#DejaVuSans-30" x="63.623047"/>
        <use xlink:href="#DejaVuSans-30" x="127.246094"/>
        <use xlink:href="#DejaVuSans-30" x="190.869141"/>
       </g>
      </g>
     </g>
     <g id="ytick_11">
      <g id="line2d_38">
       <g>
        <use xlink:href="#m3d63ef1ef0" x="35.45024" y="399.653883" style="stroke: #000000; stroke-width: 0.8"/>
       </g>
      </g>
      <g id="text_35">
       <!-- 7500 -->
       <g transform="translate(3.00024 403.453102) scale(0.1 -0.1)">
        <use xlink:href="#DejaVuSans-37"/>
        <use xlink:href="#DejaVuSans-35" x="63.623047"/>
        <use xlink:href="#DejaVuSans-30" x="127.246094"/>
        <use xlink:href="#DejaVuSans-30" x="190.869141"/>
       </g>
      </g>
     </g>
    </g>
    <g id="line2d_39">
     <path d="M 377.439883 460.392274 
L 379.86965 401.768846 
L 382.299416 459.040454 
L 384.729183 478.369047 
L 387.15895 483.663407 
L 389.588716 485.546967 
L 392.018483 486.623919 
L 394.448249 487.243952 
L 399.307782 487.885683 
L 401.737549 488.112853 
L 411.456615 488.473463 
L 426.035214 488.694648 
L 452.762647 488.810011 
L 537.804476 488.87532 
L 686.020236 488.885314 
L 66.429764 488.885117 
L 314.265953 488.775299 
L 336.133852 488.620267 
L 345.852918 488.408617 
L 355.571984 487.885683 
L 360.431517 487.243952 
L 362.861284 486.623919 
L 365.29105 485.546967 
L 367.720817 483.663407 
L 370.150584 478.369047 
L 372.58035 459.040454 
L 375.010117 401.768846 
L 375.010117 401.768846 
" clip-path="url(#pa4c8e203db)" style="fill: none; stroke: #1f77b4; stroke-width: 1.5; stroke-linecap: square"/>
    </g>
    <g id="line2d_40">
     <path d="M 377.439883 461.396193 
L 379.86965 400.352175 
L 382.299416 459.43566 
L 384.729183 478.505696 
L 387.15895 483.653543 
L 389.588716 485.632968 
L 392.018483 486.624671 
L 394.448249 487.241462 
L 396.878016 487.663413 
L 404.167315 488.241336 
L 413.886382 488.536806 
L 433.324514 488.749198 
L 559.672375 488.878712 
L 686.020236 488.885725 
L 66.429764 488.885795 
L 314.265953 488.77714 
L 340.993385 488.536806 
L 348.282685 488.333524 
L 353.142218 488.083448 
L 358.001751 487.663413 
L 360.431517 487.241462 
L 362.861284 486.624671 
L 365.29105 485.632968 
L 367.720817 483.653543 
L 370.150584 478.505696 
L 372.58035 459.43566 
L 375.010117 400.352175 
L 375.010117 400.352175 
" clip-path="url(#pa4c8e203db)" style="fill: none; stroke: #ff7f0e; stroke-width: 1.5; stroke-linecap: square"/>
    </g>
    <g id="line2d_41">
     <path d="M 377.439883 461.208671 
L 379.86965 400.473836 
L 382.299416 458.475988 
L 384.729183 479.073611 
L 387.15895 483.720099 
L 389.588716 485.58873 
L 392.018483 486.679467 
L 394.448249 487.23074 
L 396.878016 487.65016 
L 401.737549 488.091181 
L 406.597082 488.351969 
L 421.175681 488.654656 
L 447.903114 488.802122 
L 588.829574 488.882106 
L 686.020236 488.885944 
L 66.429764 488.885839 
L 311.836186 488.784083 
L 336.133852 488.618477 
L 348.282685 488.351969 
L 355.571984 487.924242 
L 358.001751 487.65016 
L 360.431517 487.23074 
L 362.861284 486.679467 
L 365.29105 485.58873 
L 367.720817 483.720099 
L 370.150584 479.073611 
L 372.58035 458.475988 
L 375.010117 400.473836 
L 375.010117 400.473836 
" clip-path="url(#pa4c8e203db)" style="fill: none; stroke: #2ca02c; stroke-width: 1.5; stroke-linecap: square"/>
    </g>
    <g id="patch_18">
     <path d="M 35.45024 493.312764 
L 35.45024 395.92548 
" style="fill: none; stroke: #000000; stroke-width: 0.8; stroke-linejoin: miter; stroke-linecap: square"/>
    </g>
    <g id="patch_19">
     <path d="M 716.99976 493.312764 
L 716.99976 395.92548 
" style="fill: none; stroke: #000000; stroke-width: 0.8; stroke-linejoin: miter; stroke-linecap: square"/>
    </g>
    <g id="patch_20">
     <path d="M 35.45024 493.312764 
L 716.99976 493.312764 
" style="fill: none; stroke: #000000; stroke-width: 0.8; stroke-linejoin: miter; stroke-linecap: square"/>
    </g>
    <g id="patch_21">
     <path d="M 35.45024 395.92548 
L 716.99976 395.92548 
" style="fill: none; stroke: #000000; stroke-width: 0.8; stroke-linejoin: miter; stroke-linecap: square"/>
    </g>
    <g id="text_36">
     <!-- Gauss Markov - tau=2000 -->
     <g transform="translate(298.030937 389.92548) scale(0.12 -0.12)">
      <defs>
       <path id="DejaVuSans-47" d="M 3809 666 
L 3809 1919 
L 2778 1919 
L 2778 2438 
L 4434 2438 
L 4434 434 
Q 4069 175 3628 42 
Q 3188 -91 2688 -91 
Q 1594 -91 976 548 
Q 359 1188 359 2328 
Q 359 3472 976 4111 
Q 1594 4750 2688 4750 
Q 3144 4750 3555 4637 
Q 3966 4525 4313 4306 
L 4313 3634 
Q 3963 3931 3569 4081 
Q 3175 4231 2741 4231 
Q 1884 4231 1454 3753 
Q 1025 3275 1025 2328 
Q 1025 1384 1454 906 
Q 1884 428 2741 428 
Q 3075 428 3337 486 
Q 3600 544 3809 666 
z
" transform="scale(0.015625)"/>
       <path id="DejaVuSans-75" d="M 544 1381 
L 544 3500 
L 1119 3500 
L 1119 1403 
Q 1119 906 1312 657 
Q 1506 409 1894 409 
Q 2359 409 2629 706 
Q 2900 1003 2900 1516 
L 2900 3500 
L 3475 3500 
L 3475 0 
L 2900 0 
L 2900 538 
Q 2691 219 2414 64 
Q 2138 -91 1772 -91 
Q 1169 -91 856 284 
Q 544 659 544 1381 
z
M 1991 3584 
L 1991 3584 
z
" transform="scale(0.015625)"/>
       <path id="DejaVuSans-4d" d="M 628 4666 
L 1569 4666 
L 2759 1491 
L 3956 4666 
L 4897 4666 
L 4897 0 
L 4281 0 
L 4281 4097 
L 3078 897 
L 2444 897 
L 1241 4097 
L 1241 0 
L 628 0 
L 628 4666 
z
" transform="scale(0.015625)"/>
       <path id="DejaVuSans-76" d="M 191 3500 
L 800 3500 
L 1894 563 
L 2988 3500 
L 3597 3500 
L 2284 0 
L 1503 0 
L 191 3500 
z
" transform="scale(0.015625)"/>
       <path id="DejaVuSans-2d" d="M 313 2009 
L 1997 2009 
L 1997 1497 
L 313 1497 
L 313 2009 
z
" transform="scale(0.015625)"/>
       <path id="DejaVuSans-3d" d="M 678 2906 
L 4684 2906 
L 4684 2381 
L 678 2381 
L 678 2906 
z
M 678 1631 
L 4684 1631 
L 4684 1100 
L 678 1100 
L 678 1631 
z
" transform="scale(0.015625)"/>
      </defs>
      <use xlink:href="#DejaVuSans-47"/>
      <use xlink:href="#DejaVuSans-61" x="77.490234"/>
      <use xlink:href="#DejaVuSans-75" x="138.769531"/>
      <use xlink:href="#DejaVuSans-73" x="202.148438"/>
      <use xlink:href="#DejaVuSans-73" x="254.248047"/>
      <use xlink:href="#DejaVuSans-20" x="306.347656"/>
      <use xlink:href="#DejaVuSans-4d" x="338.134766"/>
      <use xlink:href="#DejaVuSans-61" x="424.414062"/>
      <use xlink:href="#DejaVuSans-72" x="485.693359"/>
      <use xlink:href="#DejaVuSans-6b" x="526.806641"/>
      <use xlink:href="#DejaVuSans-6f" x="581.091797"/>
      <use xlink:href="#DejaVuSans-76" x="642.273438"/>
      <use xlink:href="#DejaVuSans-20" x="701.453125"/>
      <use xlink:href="#DejaVuSans-2d" x="733.240234"/>
      <use xlink:href="#DejaVuSans-20" x="769.324219"/>
      <use xlink:href="#DejaVuSans-74" x="801.111328"/>
      <use xlink:href="#DejaVuSans-61" x="840.320312"/>
      <use xlink:href="#DejaVuSans-75" x="901.599609"/>
      <use xlink:href="#DejaVuSans-3d" x="964.978516"/>
      <use xlink:href="#DejaVuSans-32" x="1048.767578"/>
      <use xlink:href="#DejaVuSans-30" x="1112.390625"/>
      <use xlink:href="#DejaVuSans-30" x="1176.013672"/>
      <use xlink:href="#DejaVuSans-30" x="1239.636719"/>
     </g>
    </g>
    <g id="legend_3">
     <g id="patch_22">
      <path d="M 265.577344 540.33771 
L 486.872656 540.33771 
Q 488.872656 540.33771 488.872656 538.33771 
L 488.872656 524.659585 
Q 488.872656 522.659585 486.872656 522.659585 
L 265.577344 522.659585 
Q 263.577344 522.659585 263.577344 524.659585 
L 263.577344 538.33771 
Q 263.577344 540.33771 265.577344 540.33771 
z
" style="fill: #ffffff; opacity: 0.8; stroke: #cccccc; stroke-linejoin: miter"/>
     </g>
     <g id="line2d_42">
      <path d="M 267.577344 530.758023 
L 277.577344 530.758023 
L 287.577344 530.758023 
" style="fill: none; stroke: #1f77b4; stroke-width: 1.5; stroke-linecap: square"/>
     </g>
     <g id="text_37">
      <!-- Real 1 -->
      <g transform="translate(295.577344 534.258023) scale(0.1 -0.1)">
       <use xlink:href="#DejaVuSans-52"/>
       <use xlink:href="#DejaVuSans-65" x="64.982422"/>
       <use xlink:href="#DejaVuSans-61" x="126.505859"/>
       <use xlink:href="#DejaVuSans-6c" x="187.785156"/>
       <use xlink:href="#DejaVuSans-20" x="215.568359"/>
       <use xlink:href="#DejaVuSans-31" x="247.355469"/>
      </g>
     </g>
     <g id="line2d_43">
      <path d="M 346.675781 530.758023 
L 356.675781 530.758023 
L 366.675781 530.758023 
" style="fill: none; stroke: #ff7f0e; stroke-width: 1.5; stroke-linecap: square"/>
     </g>
     <g id="text_38">
      <!-- Real 2 -->
      <g transform="translate(374.675781 534.258023) scale(0.1 -0.1)">
       <use xlink:href="#DejaVuSans-52"/>
       <use xlink:href="#DejaVuSans-65" x="64.982422"/>
       <use xlink:href="#DejaVuSans-61" x="126.505859"/>
       <use xlink:href="#DejaVuSans-6c" x="187.785156"/>
       <use xlink:href="#DejaVuSans-20" x="215.568359"/>
       <use xlink:href="#DejaVuSans-32" x="247.355469"/>
      </g>
     </g>
     <g id="line2d_44">
      <path d="M 425.774219 530.758023 
L 435.774219 530.758023 
L 445.774219 530.758023 
" style="fill: none; stroke: #2ca02c; stroke-width: 1.5; stroke-linecap: square"/>
     </g>
     <g id="text_39">
      <!-- Real 3 -->
      <g transform="translate(453.774219 534.258023) scale(0.1 -0.1)">
       <use xlink:href="#DejaVuSans-52"/>
       <use xlink:href="#DejaVuSans-65" x="64.982422"/>
       <use xlink:href="#DejaVuSans-61" x="126.505859"/>
       <use xlink:href="#DejaVuSans-6c" x="187.785156"/>
       <use xlink:href="#DejaVuSans-20" x="215.568359"/>
       <use xlink:href="#DejaVuSans-33" x="247.355469"/>
      </g>
     </g>
    </g>
   </g>
  </g>
  <g id="subfigure_4">
   <g id="patch_23">
    <path d="M 0 720 
L 720 720 
L 720 557.903558 
L 0 557.903558 
z
" style="fill: #ffffff"/>
   </g>
   <g id="axes_4">
    <g id="patch_24">
     <path d="M 35.45024 673.409207 
L 716.99976 673.409207 
L 716.99976 576.021923 
L 35.45024 576.021923 
z
" style="fill: #ffffff"/>
    </g>
    <g id="matplotlib.axis_7">
     <g id="xtick_16">
      <g id="line2d_45">
       <g>
        <use xlink:href="#mf067ef1786" x="128.631788" y="673.409207" style="stroke: #000000; stroke-width: 0.8"/>
       </g>
      </g>
      <g id="text_40">
       <!-- −0.4 -->
       <g transform="translate(116.490381 688.007644) scale(0.1 -0.1)">
        <use xlink:href="#DejaVuSans-2212"/>
        <use xlink:href="#DejaVuSans-30" x="83.789062"/>
        <use xlink:href="#DejaVuSans-2e" x="147.412109"/>
        <use xlink:href="#DejaVuSans-34" x="179.199219"/>
       </g>
      </g>
     </g>
     <g id="xtick_17">
      <g id="line2d_46">
       <g>
        <use xlink:href="#mf067ef1786" x="253.035835" y="673.409207" style="stroke: #000000; stroke-width: 0.8"/>
       </g>
      </g>
      <g id="text_41">
       <!-- −0.2 -->
       <g transform="translate(240.894429 688.007644) scale(0.1 -0.1)">
        <use xlink:href="#DejaVuSans-2212"/>
        <use xlink:href="#DejaVuSans-30" x="83.789062"/>
        <use xlink:href="#DejaVuSans-2e" x="147.412109"/>
        <use xlink:href="#DejaVuSans-32" x="179.199219"/>
       </g>
      </g>
     </g>
     <g id="xtick_18">
      <g id="line2d_47">
       <g>
        <use xlink:href="#mf067ef1786" x="377.439883" y="673.409207" style="stroke: #000000; stroke-width: 0.8"/>
       </g>
      </g>
      <g id="text_42">
       <!-- 0.0 -->
       <g transform="translate(369.488321 688.007644) scale(0.1 -0.1)">
        <use xlink:href="#DejaVuSans-30"/>
        <use xlink:href="#DejaVuSans-2e" x="63.623047"/>
        <use xlink:href="#DejaVuSans-30" x="95.410156"/>
       </g>
      </g>
     </g>
     <g id="xtick_19">
      <g id="line2d_48">
       <g>
        <use xlink:href="#mf067ef1786" x="501.843931" y="673.409207" style="stroke: #000000; stroke-width: 0.8"/>
       </g>
      </g>
      <g id="text_43">
       <!-- 0.2 -->
       <g transform="translate(493.892369 688.007644) scale(0.1 -0.1)">
        <use xlink:href="#DejaVuSans-30"/>
        <use xlink:href="#DejaVuSans-2e" x="63.623047"/>
        <use xlink:href="#DejaVuSans-32" x="95.410156"/>
       </g>
      </g>
     </g>
     <g id="xtick_20">
      <g id="line2d_49">
       <g>
        <use xlink:href="#mf067ef1786" x="626.247979" y="673.409207" style="stroke: #000000; stroke-width: 0.8"/>
       </g>
      </g>
      <g id="text_44">
       <!-- 0.4 -->
       <g transform="translate(618.296416 688.007644) scale(0.1 -0.1)">
        <use xlink:href="#DejaVuSans-30"/>
        <use xlink:href="#DejaVuSans-2e" x="63.623047"/>
        <use xlink:href="#DejaVuSans-34" x="95.410156"/>
       </g>
      </g>
     </g>
    </g>
    <g id="matplotlib.axis_8">
     <g id="ytick_12">
      <g id="line2d_50">
       <g>
        <use xlink:href="#m3d63ef1ef0" x="35.45024" y="668.99478" style="stroke: #000000; stroke-width: 0.8"/>
       </g>
      </g>
      <g id="text_45">
       <!-- 0 -->
       <g transform="translate(22.08774 672.793999) scale(0.1 -0.1)">
        <use xlink:href="#DejaVuSans-30"/>
       </g>
      </g>
     </g>
     <g id="ytick_13">
      <g id="line2d_51">
       <g>
        <use xlink:href="#m3d63ef1ef0" x="35.45024" y="643.550838" style="stroke: #000000; stroke-width: 0.8"/>
       </g>
      </g>
      <g id="text_46">
       <!-- 2000 -->
       <g transform="translate(3.00024 647.350057) scale(0.1 -0.1)">
        <use xlink:href="#DejaVuSans-32"/>
        <use xlink:href="#DejaVuSans-30" x="63.623047"/>
        <use xlink:href="#DejaVuSans-30" x="127.246094"/>
        <use xlink:href="#DejaVuSans-30" x="190.869141"/>
       </g>
      </g>
     </g>
     <g id="ytick_14">
      <g id="line2d_52">
       <g>
        <use xlink:href="#m3d63ef1ef0" x="35.45024" y="618.106896" style="stroke: #000000; stroke-width: 0.8"/>
       </g>
      </g>
      <g id="text_47">
       <!-- 4000 -->
       <g transform="translate(3.00024 621.906115) scale(0.1 -0.1)">
        <use xlink:href="#DejaVuSans-34"/>
        <use xlink:href="#DejaVuSans-30" x="63.623047"/>
        <use xlink:href="#DejaVuSans-30" x="127.246094"/>
        <use xlink:href="#DejaVuSans-30" x="190.869141"/>
       </g>
      </g>
     </g>
     <g id="ytick_15">
      <g id="line2d_53">
       <g>
        <use xlink:href="#m3d63ef1ef0" x="35.45024" y="592.662954" style="stroke: #000000; stroke-width: 0.8"/>
       </g>
      </g>
      <g id="text_48">
       <!-- 6000 -->
       <g transform="translate(3.00024 596.462173) scale(0.1 -0.1)">
        <defs>
         <path id="DejaVuSans-36" d="M 2113 2584 
Q 1688 2584 1439 2293 
Q 1191 2003 1191 1497 
Q 1191 994 1439 701 
Q 1688 409 2113 409 
Q 2538 409 2786 701 
Q 3034 994 3034 1497 
Q 3034 2003 2786 2293 
Q 2538 2584 2113 2584 
z
M 3366 4563 
L 3366 3988 
Q 3128 4100 2886 4159 
Q 2644 4219 2406 4219 
Q 1781 4219 1451 3797 
Q 1122 3375 1075 2522 
Q 1259 2794 1537 2939 
Q 1816 3084 2150 3084 
Q 2853 3084 3261 2657 
Q 3669 2231 3669 1497 
Q 3669 778 3244 343 
Q 2819 -91 2113 -91 
Q 1303 -91 875 529 
Q 447 1150 447 2328 
Q 447 3434 972 4092 
Q 1497 4750 2381 4750 
Q 2619 4750 2861 4703 
Q 3103 4656 3366 4563 
z
" transform="scale(0.015625)"/>
        </defs>
        <use xlink:href="#DejaVuSans-36"/>
        <use xlink:href="#DejaVuSans-30" x="63.623047"/>
        <use xlink:href="#DejaVuSans-30" x="127.246094"/>
        <use xlink:href="#DejaVuSans-30" x="190.869141"/>
       </g>
      </g>
     </g>
    </g>
    <g id="line2d_54">
     <path d="M 377.439883 638.979874 
L 379.86965 581.609819 
L 382.299416 637.424528 
L 384.729183 657.750306 
L 387.15895 663.397117 
L 389.588716 665.408459 
L 392.018483 666.561202 
L 394.448249 667.22438 
L 399.307782 667.911315 
L 401.737549 668.154791 
L 411.456615 668.540741 
L 423.605448 668.747941 
L 443.04358 668.873841 
L 481.919845 668.944185 
L 678.730937 668.981845 
L 686.020236 668.981703 
L 66.429764 668.981492 
L 316.695719 668.856643 
L 338.563618 668.660105 
L 350.712451 668.277332 
L 353.142218 668.154791 
L 358.001751 667.600198 
L 360.431517 667.22438 
L 362.861284 666.561202 
L 365.29105 665.408459 
L 367.720817 663.397117 
L 370.150584 657.750306 
L 372.58035 637.424528 
L 375.010117 581.609819 
L 375.010117 581.609819 
" clip-path="url(#pcca2e82b68)" style="fill: none; stroke: #1f77b4; stroke-width: 1.5; stroke-linecap: square"/>
    </g>
    <g id="line2d_55">
     <path d="M 377.439883 640.082878 
L 379.86965 580.448617 
L 382.299416 637.851352 
L 384.729183 657.905402 
L 387.15895 663.381839 
L 389.588716 665.50075 
L 392.018483 666.562379 
L 394.448249 667.221875 
L 396.878016 667.673307 
L 404.167315 668.292272 
L 413.886382 668.608539 
L 430.894748 668.822742 
L 469.771013 668.933665 
L 686.020236 668.982143 
L 66.429764 668.982219 
L 311.836186 668.877943 
L 338.563618 668.651017 
L 348.282685 668.390839 
L 353.142218 668.123087 
L 358.001751 667.673307 
L 360.431517 667.221875 
L 362.861284 666.562379 
L 365.29105 665.50075 
L 367.720817 663.381839 
L 370.150584 657.905402 
L 372.58035 637.851352 
L 375.010117 580.448617 
L 375.010117 580.448617 
" clip-path="url(#pcca2e82b68)" style="fill: none; stroke: #ff7f0e; stroke-width: 1.5; stroke-linecap: square"/>
    </g>
    <g id="line2d_56">
     <path d="M 377.439883 639.841419 
L 379.86965 580.466451 
L 382.299416 636.933808 
L 384.729183 658.497945 
L 387.15895 663.452578 
L 389.588716 665.453632 
L 392.018483 666.621359 
L 394.448249 667.21003 
L 396.878016 667.659293 
L 399.307782 667.952806 
L 406.597082 668.410654 
L 421.175681 668.734732 
L 447.903114 668.892625 
L 583.970041 668.977465 
L 686.020236 668.982378 
L 66.429764 668.982265 
L 309.40642 668.882179 
L 336.133852 668.695999 
L 348.282685 668.410654 
L 355.571984 667.952806 
L 358.001751 667.659293 
L 360.431517 667.21003 
L 362.861284 666.621359 
L 365.29105 665.453632 
L 367.720817 663.452578 
L 370.150584 658.497945 
L 372.58035 636.933808 
L 375.010117 580.466451 
L 375.010117 580.466451 
" clip-path="url(#pcca2e82b68)" style="fill: none; stroke: #2ca02c; stroke-width: 1.5; stroke-linecap: square"/>
    </g>
    <g id="patch_25">
     <path d="M 35.45024 673.409207 
L 35.45024 576.021923 
" style="fill: none; stroke: #000000; stroke-width: 0.8; stroke-linejoin: miter; stroke-linecap: square"/>
    </g>
    <g id="patch_26">
     <path d="M 716.99976 673.409207 
L 716.99976 576.021923 
" style="fill: none; stroke: #000000; stroke-width: 0.8; stroke-linejoin: miter; stroke-linecap: square"/>
    </g>
    <g id="patch_27">
     <path d="M 35.45024 673.409207 
L 716.99976 673.409207 
" style="fill: none; stroke: #000000; stroke-width: 0.8; stroke-linejoin: miter; stroke-linecap: square"/>
    </g>
    <g id="patch_28">
     <path d="M 35.45024 576.021923 
L 716.99976 576.021923 
" style="fill: none; stroke: #000000; stroke-width: 0.8; stroke-linejoin: miter; stroke-linecap: square"/>
    </g>
    <g id="text_49">
     <!-- Gauss Markov - tau=500 -->
     <g transform="translate(301.848437 570.021923) scale(0.12 -0.12)">
      <use xlink:href="#DejaVuSans-47"/>
      <use xlink:href="#DejaVuSans-61" x="77.490234"/>
      <use xlink:href="#DejaVuSans-75" x="138.769531"/>
      <use xlink:href="#DejaVuSans-73" x="202.148438"/>
      <use xlink:href="#DejaVuSans-73" x="254.248047"/>
      <use xlink:href="#DejaVuSans-20" x="306.347656"/>
      <use xlink:href="#DejaVuSans-4d" x="338.134766"/>
      <use xlink:href="#DejaVuSans-61" x="424.414062"/>
      <use xlink:href="#DejaVuSans-72" x="485.693359"/>
      <use xlink:href="#DejaVuSans-6b" x="526.806641"/>
      <use xlink:href="#DejaVuSans-6f" x="581.091797"/>
      <use xlink:href="#DejaVuSans-76" x="642.273438"/>
      <use xlink:href="#DejaVuSans-20" x="701.453125"/>
      <use xlink:href="#DejaVuSans-2d" x="733.240234"/>
      <use xlink:href="#DejaVuSans-20" x="769.324219"/>
      <use xlink:href="#DejaVuSans-74" x="801.111328"/>
      <use xlink:href="#DejaVuSans-61" x="840.320312"/>
      <use xlink:href="#DejaVuSans-75" x="901.599609"/>
      <use xlink:href="#DejaVuSans-3d" x="964.978516"/>
      <use xlink:href="#DejaVuSans-35" x="1048.767578"/>
      <use xlink:href="#DejaVuSans-30" x="1112.390625"/>
      <use xlink:href="#DejaVuSans-30" x="1176.013672"/>
     </g>
    </g>
    <g id="legend_4">
     <g id="patch_29">
      <path d="M 265.577344 720.434153 
L 486.872656 720.434153 
Q 488.872656 720.434153 488.872656 718.434153 
L 488.872656 704.756028 
Q 488.872656 702.756028 486.872656 702.756028 
L 265.577344 702.756028 
Q 263.577344 702.756028 263.577344 704.756028 
L 263.577344 718.434153 
Q 263.577344 720.434153 265.577344 720.434153 
z
" style="fill: #ffffff; opacity: 0.8; stroke: #cccccc; stroke-linejoin: miter"/>
     </g>
     <g id="line2d_57">
      <path d="M 267.577344 710.854465 
L 277.577344 710.854465 
L 287.577344 710.854465 
" style="fill: none; stroke: #1f77b4; stroke-width: 1.5; stroke-linecap: square"/>
     </g>
     <g id="text_50">
      <!-- Real 1 -->
      <g transform="translate(295.577344 714.354465) scale(0.1 -0.1)">
       <use xlink:href="#DejaVuSans-52"/>
       <use xlink:href="#DejaVuSans-65" x="64.982422"/>
       <use xlink:href="#DejaVuSans-61" x="126.505859"/>
       <use xlink:href="#DejaVuSans-6c" x="187.785156"/>
       <use xlink:href="#DejaVuSans-20" x="215.568359"/>
       <use xlink:href="#DejaVuSans-31" x="247.355469"/>
      </g>
     </g>
     <g id="line2d_58">
      <path d="M 346.675781 710.854465 
L 356.675781 710.854465 
L 366.675781 710.854465 
" style="fill: none; stroke: #ff7f0e; stroke-width: 1.5; stroke-linecap: square"/>
     </g>
     <g id="text_51">
      <!-- Real 2 -->
      <g transform="translate(374.675781 714.354465) scale(0.1 -0.1)">
       <use xlink:href="#DejaVuSans-52"/>
       <use xlink:href="#DejaVuSans-65" x="64.982422"/>
       <use xlink:href="#DejaVuSans-61" x="126.505859"/>
       <use xlink:href="#DejaVuSans-6c" x="187.785156"/>
       <use xlink:href="#DejaVuSans-20" x="215.568359"/>
       <use xlink:href="#DejaVuSans-32" x="247.355469"/>
      </g>
     </g>
     <g id="line2d_59">
      <path d="M 425.774219 710.854465 
L 435.774219 710.854465 
L 445.774219 710.854465 
" style="fill: none; stroke: #2ca02c; stroke-width: 1.5; stroke-linecap: square"/>
     </g>
     <g id="text_52">
      <!-- Real 3 -->
      <g transform="translate(453.774219 714.354465) scale(0.1 -0.1)">
       <use xlink:href="#DejaVuSans-52"/>
       <use xlink:href="#DejaVuSans-65" x="64.982422"/>
       <use xlink:href="#DejaVuSans-61" x="126.505859"/>
       <use xlink:href="#DejaVuSans-6c" x="187.785156"/>
       <use xlink:href="#DejaVuSans-20" x="215.568359"/>
       <use xlink:href="#DejaVuSans-33" x="247.355469"/>
      </g>
     </g>
    </g>
   </g>
  </g>
 </g>
 <defs>
  <clipPath id="pcb66317072">
   <rect x="16.36274" y="35.732595" width="700.63702" height="97.387284"/>
  </clipPath>
  <clipPath id="p0e53ff0bae">
   <rect x="35.45024" y="215.829038" width="681.54952" height="97.387284"/>
  </clipPath>
  <clipPath id="pa4c8e203db">
   <rect x="35.45024" y="395.92548" width="681.54952" height="97.387284"/>
  </clipPath>
  <clipPath id="pcca2e82b68">
   <rect x="35.45024" y="576.021923" width="681.54952" height="97.387284"/>
  </clipPath>
 </defs>
</svg>
