<?xml version="1.0" encoding="utf-8" standalone="no"?>
<!DOCTYPE svg PUBLIC "-//W3C//DTD SVG 1.1//EN"
  "http://www.w3.org/Graphics/SVG/1.1/DTD/svg11.dtd">
<svg xmlns:xlink="http://www.w3.org/1999/xlink" width="720pt" height="720pt" viewBox="0 0 720 720" xmlns="http://www.w3.org/2000/svg" version="1.1">
 <metadata>
  <rdf:RDF xmlns:dc="http://purl.org/dc/elements/1.1/" xmlns:cc="http://creativecommons.org/ns#" xmlns:rdf="http://www.w3.org/1999/02/22-rdf-syntax-ns#">
   <cc:Work>
    <dc:type rdf:resource="http://purl.org/dc/dcmitype/StillImage"/>
    <dc:date>2024-03-08T21:42:15.645822</dc:date>
    <dc:format>image/svg+xml</dc:format>
    <dc:creator>
     <cc:Agent>
      <dc:title>Matplotlib v3.7.2, https://matplotlib.org/</dc:title>
     </cc:Agent>
    </dc:creator>
   </cc:Work>
  </rdf:RDF>
 </metadata>
 <defs>
  <style type="text/css">*{stroke-linejoin: round; stroke-linecap: butt}</style>
 </defs>
 <g id="figure_1">
  <g id="patch_1">
   <path d="M 0 720 
L 720 720 
L 720 0 
L 0 0 
z
" style="fill: #ffffff"/>
  </g>
  <g id="text_1">
   <!-- Power Spectral Density -->
   <g transform="translate(290.4675 12.118365) scale(0.12 -0.12)">
    <defs>
     <path id="DejaVuSans-50" d="M 1259 4147 
L 1259 2394 
L 2053 2394 
Q 2494 2394 2734 2622 
Q 2975 2850 2975 3272 
Q 2975 3691 2734 3919 
Q 2494 4147 2053 4147 
L 1259 4147 
z
M 628 4666 
L 2053 4666 
Q 2838 4666 3239 4311 
Q 3641 3956 3641 3272 
Q 3641 2581 3239 2228 
Q 2838 1875 2053 1875 
L 1259 1875 
L 1259 0 
L 628 0 
L 628 4666 
z
" transform="scale(0.015625)"/>
     <path id="DejaVuSans-6f" d="M 1959 3097 
Q 1497 3097 1228 2736 
Q 959 2375 959 1747 
Q 959 1119 1226 758 
Q 1494 397 1959 397 
Q 2419 397 2687 759 
Q 2956 1122 2956 1747 
Q 2956 2369 2687 2733 
Q 2419 3097 1959 3097 
z
M 1959 3584 
Q 2709 3584 3137 3096 
Q 3566 2609 3566 1747 
Q 3566 888 3137 398 
Q 2709 -91 1959 -91 
Q 1206 -91 779 398 
Q 353 888 353 1747 
Q 353 2609 779 3096 
Q 1206 3584 1959 3584 
z
" transform="scale(0.015625)"/>
     <path id="DejaVuSans-77" d="M 269 3500 
L 844 3500 
L 1563 769 
L 2278 3500 
L 2956 3500 
L 3675 769 
L 4391 3500 
L 4966 3500 
L 4050 0 
L 3372 0 
L 2619 2869 
L 1863 0 
L 1184 0 
L 269 3500 
z
" transform="scale(0.015625)"/>
     <path id="DejaVuSans-65" d="M 3597 1894 
L 3597 1613 
L 953 1613 
Q 991 1019 1311 708 
Q 1631 397 2203 397 
Q 2534 397 2845 478 
Q 3156 559 3463 722 
L 3463 178 
Q 3153 47 2828 -22 
Q 2503 -91 2169 -91 
Q 1331 -91 842 396 
Q 353 884 353 1716 
Q 353 2575 817 3079 
Q 1281 3584 2069 3584 
Q 2775 3584 3186 3129 
Q 3597 2675 3597 1894 
z
M 3022 2063 
Q 3016 2534 2758 2815 
Q 2500 3097 2075 3097 
Q 1594 3097 1305 2825 
Q 1016 2553 972 2059 
L 3022 2063 
z
" transform="scale(0.015625)"/>
     <path id="DejaVuSans-72" d="M 2631 2963 
Q 2534 3019 2420 3045 
Q 2306 3072 2169 3072 
Q 1681 3072 1420 2755 
Q 1159 2438 1159 1844 
L 1159 0 
L 581 0 
L 581 3500 
L 1159 3500 
L 1159 2956 
Q 1341 3275 1631 3429 
Q 1922 3584 2338 3584 
Q 2397 3584 2469 3576 
Q 2541 3569 2628 3553 
L 2631 2963 
z
" transform="scale(0.015625)"/>
     <path id="DejaVuSans-20" transform="scale(0.015625)"/>
     <path id="DejaVuSans-53" d="M 3425 4513 
L 3425 3897 
Q 3066 4069 2747 4153 
Q 2428 4238 2131 4238 
Q 1616 4238 1336 4038 
Q 1056 3838 1056 3469 
Q 1056 3159 1242 3001 
Q 1428 2844 1947 2747 
L 2328 2669 
Q 3034 2534 3370 2195 
Q 3706 1856 3706 1288 
Q 3706 609 3251 259 
Q 2797 -91 1919 -91 
Q 1588 -91 1214 -16 
Q 841 59 441 206 
L 441 856 
Q 825 641 1194 531 
Q 1563 422 1919 422 
Q 2459 422 2753 634 
Q 3047 847 3047 1241 
Q 3047 1584 2836 1778 
Q 2625 1972 2144 2069 
L 1759 2144 
Q 1053 2284 737 2584 
Q 422 2884 422 3419 
Q 422 4038 858 4394 
Q 1294 4750 2059 4750 
Q 2388 4750 2728 4690 
Q 3069 4631 3425 4513 
z
" transform="scale(0.015625)"/>
     <path id="DejaVuSans-70" d="M 1159 525 
L 1159 -1331 
L 581 -1331 
L 581 3500 
L 1159 3500 
L 1159 2969 
Q 1341 3281 1617 3432 
Q 1894 3584 2278 3584 
Q 2916 3584 3314 3078 
Q 3713 2572 3713 1747 
Q 3713 922 3314 415 
Q 2916 -91 2278 -91 
Q 1894 -91 1617 61 
Q 1341 213 1159 525 
z
M 3116 1747 
Q 3116 2381 2855 2742 
Q 2594 3103 2138 3103 
Q 1681 3103 1420 2742 
Q 1159 2381 1159 1747 
Q 1159 1113 1420 752 
Q 1681 391 2138 391 
Q 2594 391 2855 752 
Q 3116 1113 3116 1747 
z
" transform="scale(0.015625)"/>
     <path id="DejaVuSans-63" d="M 3122 3366 
L 3122 2828 
Q 2878 2963 2633 3030 
Q 2388 3097 2138 3097 
Q 1578 3097 1268 2742 
Q 959 2388 959 1747 
Q 959 1106 1268 751 
Q 1578 397 2138 397 
Q 2388 397 2633 464 
Q 2878 531 3122 666 
L 3122 134 
Q 2881 22 2623 -34 
Q 2366 -91 2075 -91 
Q 1284 -91 818 406 
Q 353 903 353 1747 
Q 353 2603 823 3093 
Q 1294 3584 2113 3584 
Q 2378 3584 2631 3529 
Q 2884 3475 3122 3366 
z
" transform="scale(0.015625)"/>
     <path id="DejaVuSans-74" d="M 1172 4494 
L 1172 3500 
L 2356 3500 
L 2356 3053 
L 1172 3053 
L 1172 1153 
Q 1172 725 1289 603 
Q 1406 481 1766 481 
L 2356 481 
L 2356 0 
L 1766 0 
Q 1100 0 847 248 
Q 594 497 594 1153 
L 594 3053 
L 172 3053 
L 172 3500 
L 594 3500 
L 594 4494 
L 1172 4494 
z
" transform="scale(0.015625)"/>
     <path id="DejaVuSans-61" d="M 2194 1759 
Q 1497 1759 1228 1600 
Q 959 1441 959 1056 
Q 959 750 1161 570 
Q 1363 391 1709 391 
Q 2188 391 2477 730 
Q 2766 1069 2766 1631 
L 2766 1759 
L 2194 1759 
z
M 3341 1997 
L 3341 0 
L 2766 0 
L 2766 531 
Q 2569 213 2275 61 
Q 1981 -91 1556 -91 
Q 1019 -91 701 211 
Q 384 513 384 1019 
Q 384 1609 779 1909 
Q 1175 2209 1959 2209 
L 2766 2209 
L 2766 2266 
Q 2766 2663 2505 2880 
Q 2244 3097 1772 3097 
Q 1472 3097 1187 3025 
Q 903 2953 641 2809 
L 641 3341 
Q 956 3463 1253 3523 
Q 1550 3584 1831 3584 
Q 2591 3584 2966 3190 
Q 3341 2797 3341 1997 
z
" transform="scale(0.015625)"/>
     <path id="DejaVuSans-6c" d="M 603 4863 
L 1178 4863 
L 1178 0 
L 603 0 
L 603 4863 
z
" transform="scale(0.015625)"/>
     <path id="DejaVuSans-44" d="M 1259 4147 
L 1259 519 
L 2022 519 
Q 2988 519 3436 956 
Q 3884 1394 3884 2338 
Q 3884 3275 3436 3711 
Q 2988 4147 2022 4147 
L 1259 4147 
z
M 628 4666 
L 1925 4666 
Q 3281 4666 3915 4102 
Q 4550 3538 4550 2338 
Q 4550 1131 3912 565 
Q 3275 0 1925 0 
L 628 0 
L 628 4666 
z
" transform="scale(0.015625)"/>
     <path id="DejaVuSans-6e" d="M 3513 2113 
L 3513 0 
L 2938 0 
L 2938 2094 
Q 2938 2591 2744 2837 
Q 2550 3084 2163 3084 
Q 1697 3084 1428 2787 
Q 1159 2491 1159 1978 
L 1159 0 
L 581 0 
L 581 3500 
L 1159 3500 
L 1159 2956 
Q 1366 3272 1645 3428 
Q 1925 3584 2291 3584 
Q 2894 3584 3203 3211 
Q 3513 2838 3513 2113 
z
" transform="scale(0.015625)"/>
     <path id="DejaVuSans-73" d="M 2834 3397 
L 2834 2853 
Q 2591 2978 2328 3040 
Q 2066 3103 1784 3103 
Q 1356 3103 1142 2972 
Q 928 2841 928 2578 
Q 928 2378 1081 2264 
Q 1234 2150 1697 2047 
L 1894 2003 
Q 2506 1872 2764 1633 
Q 3022 1394 3022 966 
Q 3022 478 2636 193 
Q 2250 -91 1575 -91 
Q 1294 -91 989 -36 
Q 684 19 347 128 
L 347 722 
Q 666 556 975 473 
Q 1284 391 1588 391 
Q 1994 391 2212 530 
Q 2431 669 2431 922 
Q 2431 1156 2273 1281 
Q 2116 1406 1581 1522 
L 1381 1569 
Q 847 1681 609 1914 
Q 372 2147 372 2553 
Q 372 3047 722 3315 
Q 1072 3584 1716 3584 
Q 2034 3584 2315 3537 
Q 2597 3491 2834 3397 
z
" transform="scale(0.015625)"/>
     <path id="DejaVuSans-69" d="M 603 3500 
L 1178 3500 
L 1178 0 
L 603 0 
L 603 3500 
z
M 603 4863 
L 1178 4863 
L 1178 4134 
L 603 4134 
L 603 4863 
z
" transform="scale(0.015625)"/>
     <path id="DejaVuSans-79" d="M 2059 -325 
Q 1816 -950 1584 -1140 
Q 1353 -1331 966 -1331 
L 506 -1331 
L 506 -850 
L 844 -850 
Q 1081 -850 1212 -737 
Q 1344 -625 1503 -206 
L 1606 56 
L 191 3500 
L 800 3500 
L 1894 763 
L 2988 3500 
L 3597 3500 
L 2059 -325 
z
" transform="scale(0.015625)"/>
    </defs>
    <use xlink:href="#DejaVuSans-50"/>
    <use xlink:href="#DejaVuSans-6f" x="56.677734"/>
    <use xlink:href="#DejaVuSans-77" x="117.859375"/>
    <use xlink:href="#DejaVuSans-65" x="199.646484"/>
    <use xlink:href="#DejaVuSans-72" x="261.169922"/>
    <use xlink:href="#DejaVuSans-20" x="302.283203"/>
    <use xlink:href="#DejaVuSans-53" x="334.070312"/>
    <use xlink:href="#DejaVuSans-70" x="397.546875"/>
    <use xlink:href="#DejaVuSans-65" x="461.023438"/>
    <use xlink:href="#DejaVuSans-63" x="522.546875"/>
    <use xlink:href="#DejaVuSans-74" x="577.527344"/>
    <use xlink:href="#DejaVuSans-72" x="616.736328"/>
    <use xlink:href="#DejaVuSans-61" x="657.849609"/>
    <use xlink:href="#DejaVuSans-6c" x="719.128906"/>
    <use xlink:href="#DejaVuSans-20" x="746.912109"/>
    <use xlink:href="#DejaVuSans-44" x="778.699219"/>
    <use xlink:href="#DejaVuSans-65" x="855.701172"/>
    <use xlink:href="#DejaVuSans-6e" x="917.224609"/>
    <use xlink:href="#DejaVuSans-73" x="980.603516"/>
    <use xlink:href="#DejaVuSans-69" x="1032.703125"/>
    <use xlink:href="#DejaVuSans-74" x="1060.486328"/>
    <use xlink:href="#DejaVuSans-79" x="1099.695312"/>
   </g>
  </g>
  <g id="subfigure_1">
   <g id="patch_2">
    <path d="M 0 179.710672 
L 720 179.710672 
L 720 17.61423 
L 0 17.61423 
z
" style="fill: #ffffff"/>
   </g>
   <g id="axes_1">
    <g id="patch_3">
     <path d="M 38.628365 133.119879 
L 716.99976 133.119879 
L 716.99976 35.732595 
L 38.628365 35.732595 
z
" style="fill: #ffffff"/>
    </g>
    <g id="matplotlib.axis_1">
     <g id="xtick_1">
      <g id="line2d_1">
       <defs>
        <path id="ma568b2f4f2" d="M 0 0 
L 0 3.5 
" style="stroke: #000000; stroke-width: 0.8"/>
       </defs>
       <g>
        <use xlink:href="#ma568b2f4f2" x="131.375399" y="133.119879" style="stroke: #000000; stroke-width: 0.8"/>
       </g>
      </g>
      <g id="text_2">
       <!-- −0.4 -->
       <g transform="translate(119.233993 147.718317) scale(0.1 -0.1)">
        <defs>
         <path id="DejaVuSans-2212" d="M 678 2272 
L 4684 2272 
L 4684 1741 
L 678 1741 
L 678 2272 
z
" transform="scale(0.015625)"/>
         <path id="DejaVuSans-30" d="M 2034 4250 
Q 1547 4250 1301 3770 
Q 1056 3291 1056 2328 
Q 1056 1369 1301 889 
Q 1547 409 2034 409 
Q 2525 409 2770 889 
Q 3016 1369 3016 2328 
Q 3016 3291 2770 3770 
Q 2525 4250 2034 4250 
z
M 2034 4750 
Q 2819 4750 3233 4129 
Q 3647 3509 3647 2328 
Q 3647 1150 3233 529 
Q 2819 -91 2034 -91 
Q 1250 -91 836 529 
Q 422 1150 422 2328 
Q 422 3509 836 4129 
Q 1250 4750 2034 4750 
z
" transform="scale(0.015625)"/>
         <path id="DejaVuSans-2e" d="M 684 794 
L 1344 794 
L 1344 0 
L 684 0 
L 684 794 
z
" transform="scale(0.015625)"/>
         <path id="DejaVuSans-34" d="M 2419 4116 
L 825 1625 
L 2419 1625 
L 2419 4116 
z
M 2253 4666 
L 3047 4666 
L 3047 1625 
L 3713 1625 
L 3713 1100 
L 3047 1100 
L 3047 0 
L 2419 0 
L 2419 1100 
L 313 1100 
L 313 1709 
L 2253 4666 
z
" transform="scale(0.015625)"/>
        </defs>
        <use xlink:href="#DejaVuSans-2212"/>
        <use xlink:href="#DejaVuSans-30" x="83.789062"/>
        <use xlink:href="#DejaVuSans-2e" x="147.412109"/>
        <use xlink:href="#DejaVuSans-34" x="179.199219"/>
       </g>
      </g>
     </g>
     <g id="xtick_2">
      <g id="line2d_2">
       <g>
        <use xlink:href="#ma568b2f4f2" x="255.19934" y="133.119879" style="stroke: #000000; stroke-width: 0.8"/>
       </g>
      </g>
      <g id="text_3">
       <!-- −0.2 -->
       <g transform="translate(243.057934 147.718317) scale(0.1 -0.1)">
        <defs>
         <path id="DejaVuSans-32" d="M 1228 531 
L 3431 531 
L 3431 0 
L 469 0 
L 469 531 
Q 828 903 1448 1529 
Q 2069 2156 2228 2338 
Q 2531 2678 2651 2914 
Q 2772 3150 2772 3378 
Q 2772 3750 2511 3984 
Q 2250 4219 1831 4219 
Q 1534 4219 1204 4116 
Q 875 4013 500 3803 
L 500 4441 
Q 881 4594 1212 4672 
Q 1544 4750 1819 4750 
Q 2544 4750 2975 4387 
Q 3406 4025 3406 3419 
Q 3406 3131 3298 2873 
Q 3191 2616 2906 2266 
Q 2828 2175 2409 1742 
Q 1991 1309 1228 531 
z
" transform="scale(0.015625)"/>
        </defs>
        <use xlink:href="#DejaVuSans-2212"/>
        <use xlink:href="#DejaVuSans-30" x="83.789062"/>
        <use xlink:href="#DejaVuSans-2e" x="147.412109"/>
        <use xlink:href="#DejaVuSans-32" x="179.199219"/>
       </g>
      </g>
     </g>
     <g id="xtick_3">
      <g id="line2d_3">
       <g>
        <use xlink:href="#ma568b2f4f2" x="379.023281" y="133.119879" style="stroke: #000000; stroke-width: 0.8"/>
       </g>
      </g>
      <g id="text_4">
       <!-- 0.0 -->
       <g transform="translate(371.071718 147.718317) scale(0.1 -0.1)">
        <use xlink:href="#DejaVuSans-30"/>
        <use xlink:href="#DejaVuSans-2e" x="63.623047"/>
        <use xlink:href="#DejaVuSans-30" x="95.410156"/>
       </g>
      </g>
     </g>
     <g id="xtick_4">
      <g id="line2d_4">
       <g>
        <use xlink:href="#ma568b2f4f2" x="502.847222" y="133.119879" style="stroke: #000000; stroke-width: 0.8"/>
       </g>
      </g>
      <g id="text_5">
       <!-- 0.2 -->
       <g transform="translate(494.895659 147.718317) scale(0.1 -0.1)">
        <use xlink:href="#DejaVuSans-30"/>
        <use xlink:href="#DejaVuSans-2e" x="63.623047"/>
        <use xlink:href="#DejaVuSans-32" x="95.410156"/>
       </g>
      </g>
     </g>
     <g id="xtick_5">
      <g id="line2d_5">
       <g>
        <use xlink:href="#ma568b2f4f2" x="626.671162" y="133.119879" style="stroke: #000000; stroke-width: 0.8"/>
       </g>
      </g>
      <g id="text_6">
       <!-- 0.4 -->
       <g transform="translate(618.7196 147.718317) scale(0.1 -0.1)">
        <use xlink:href="#DejaVuSans-30"/>
        <use xlink:href="#DejaVuSans-2e" x="63.623047"/>
        <use xlink:href="#DejaVuSans-34" x="95.410156"/>
       </g>
      </g>
     </g>
    </g>
    <g id="matplotlib.axis_2">
     <g id="ytick_1">
      <g id="line2d_6">
       <defs>
        <path id="md1f7cba4d7" d="M 0 0 
L -3.5 0 
" style="stroke: #000000; stroke-width: 0.8"/>
       </defs>
       <g>
        <use xlink:href="#md1f7cba4d7" x="38.628365" y="117.544248" style="stroke: #000000; stroke-width: 0.8"/>
       </g>
      </g>
      <g id="text_7">
       <!-- 0.010 -->
       <g transform="translate(3.00024 121.343466) scale(0.1 -0.1)">
        <defs>
         <path id="DejaVuSans-31" d="M 794 531 
L 1825 531 
L 1825 4091 
L 703 3866 
L 703 4441 
L 1819 4666 
L 2450 4666 
L 2450 531 
L 3481 531 
L 3481 0 
L 794 0 
L 794 531 
z
" transform="scale(0.015625)"/>
        </defs>
        <use xlink:href="#DejaVuSans-30"/>
        <use xlink:href="#DejaVuSans-2e" x="63.623047"/>
        <use xlink:href="#DejaVuSans-30" x="95.410156"/>
        <use xlink:href="#DejaVuSans-31" x="159.033203"/>
        <use xlink:href="#DejaVuSans-30" x="222.65625"/>
       </g>
      </g>
     </g>
     <g id="ytick_2">
      <g id="line2d_7">
       <g>
        <use xlink:href="#md1f7cba4d7" x="38.628365" y="92.371178" style="stroke: #000000; stroke-width: 0.8"/>
       </g>
      </g>
      <g id="text_8">
       <!-- 0.015 -->
       <g transform="translate(3.00024 96.170397) scale(0.1 -0.1)">
        <defs>
         <path id="DejaVuSans-35" d="M 691 4666 
L 3169 4666 
L 3169 4134 
L 1269 4134 
L 1269 2991 
Q 1406 3038 1543 3061 
Q 1681 3084 1819 3084 
Q 2600 3084 3056 2656 
Q 3513 2228 3513 1497 
Q 3513 744 3044 326 
Q 2575 -91 1722 -91 
Q 1428 -91 1123 -41 
Q 819 9 494 109 
L 494 744 
Q 775 591 1075 516 
Q 1375 441 1709 441 
Q 2250 441 2565 725 
Q 2881 1009 2881 1497 
Q 2881 1984 2565 2268 
Q 2250 2553 1709 2553 
Q 1456 2553 1204 2497 
Q 953 2441 691 2322 
L 691 4666 
z
" transform="scale(0.015625)"/>
        </defs>
        <use xlink:href="#DejaVuSans-30"/>
        <use xlink:href="#DejaVuSans-2e" x="63.623047"/>
        <use xlink:href="#DejaVuSans-30" x="95.410156"/>
        <use xlink:href="#DejaVuSans-31" x="159.033203"/>
        <use xlink:href="#DejaVuSans-35" x="222.65625"/>
       </g>
      </g>
     </g>
     <g id="ytick_3">
      <g id="line2d_8">
       <g>
        <use xlink:href="#md1f7cba4d7" x="38.628365" y="67.198108" style="stroke: #000000; stroke-width: 0.8"/>
       </g>
      </g>
      <g id="text_9">
       <!-- 0.020 -->
       <g transform="translate(3.00024 70.997327) scale(0.1 -0.1)">
        <use xlink:href="#DejaVuSans-30"/>
        <use xlink:href="#DejaVuSans-2e" x="63.623047"/>
        <use xlink:href="#DejaVuSans-30" x="95.410156"/>
        <use xlink:href="#DejaVuSans-32" x="159.033203"/>
        <use xlink:href="#DejaVuSans-30" x="222.65625"/>
       </g>
      </g>
     </g>
     <g id="ytick_4">
      <g id="line2d_9">
       <g>
        <use xlink:href="#md1f7cba4d7" x="38.628365" y="42.025039" style="stroke: #000000; stroke-width: 0.8"/>
       </g>
      </g>
      <g id="text_10">
       <!-- 0.025 -->
       <g transform="translate(3.00024 45.824258) scale(0.1 -0.1)">
        <use xlink:href="#DejaVuSans-30"/>
        <use xlink:href="#DejaVuSans-2e" x="63.623047"/>
        <use xlink:href="#DejaVuSans-30" x="95.410156"/>
        <use xlink:href="#DejaVuSans-32" x="159.033203"/>
        <use xlink:href="#DejaVuSans-35" x="222.65625"/>
       </g>
      </g>
     </g>
    </g>
    <g id="line2d_10">
     <path d="M 379.023281 128.693185 
L 381.441717 66.282692 
L 383.860153 46.498321 
L 386.27859 46.097503 
L 388.697026 51.046617 
L 391.115462 48.022311 
L 393.533899 49.79538 
L 395.952335 49.257384 
L 398.370771 45.900296 
L 400.789208 47.681817 
L 403.207644 52.701246 
L 405.62608 48.084646 
L 408.044517 42.249399 
L 410.462953 46.537882 
L 412.88139 45.522756 
L 415.299826 46.12376 
L 417.718262 50.319013 
L 420.136699 50.623324 
L 422.555135 51.069691 
L 424.973571 46.161668 
L 427.392008 49.596818 
L 429.810444 49.945758 
L 432.22888 48.72089 
L 434.647317 54.877261 
L 437.065753 48.815375 
L 439.484189 51.505726 
L 441.902626 48.704125 
L 444.321062 49.708955 
L 446.739498 52.729082 
L 449.157935 54.449704 
L 451.576371 53.734811 
L 453.994807 48.378057 
L 456.413244 48.273239 
L 458.83168 49.478987 
L 461.250116 48.842038 
L 463.668553 46.971429 
L 466.086989 49.848485 
L 468.505425 49.744712 
L 470.923862 51.302056 
L 473.342298 50.094754 
L 475.760735 48.532392 
L 478.179171 52.287644 
L 480.597607 49.340684 
L 483.016044 49.217392 
L 485.43448 48.618188 
L 487.852916 49.64672 
L 490.271353 48.370452 
L 492.689789 48.889454 
L 495.108225 50.869519 
L 497.526662 50.372669 
L 499.945098 48.915342 
L 502.363534 50.731138 
L 504.781971 48.199892 
L 507.200407 51.701358 
L 509.618843 53.014278 
L 512.03728 51.252619 
L 514.455716 51.468359 
L 516.874152 51.233776 
L 519.292589 47.379599 
L 521.711025 43.018701 
L 524.129461 44.585913 
L 526.547898 53.958819 
L 528.966334 50.11181 
L 531.38477 53.116888 
L 533.803207 51.107059 
L 536.221643 52.241113 
L 538.640079 52.385826 
L 541.058516 49.207974 
L 543.476952 53.149301 
L 545.895389 45.00234 
L 548.313825 45.024534 
L 550.732261 47.154427 
L 553.150698 47.991894 
L 555.569134 49.145192 
L 557.98757 50.72891 
L 560.406007 50.786034 
L 562.824443 52.400511 
L 565.242879 49.471824 
L 567.661316 51.229279 
L 570.079752 52.440876 
L 572.498188 48.269437 
L 574.916625 52.686915 
L 577.335061 54.650179 
L 579.753497 50.986436 
L 582.171934 47.762019 
L 584.59037 52.586301 
L 587.008806 54.377293 
L 589.427243 48.876404 
L 591.845679 49.210192 
L 594.264115 51.822 
L 596.682552 47.789821 
L 599.100988 53.957762 
L 601.519424 52.710241 
L 603.937861 55.527754 
L 606.356297 57.985826 
L 608.774734 56.008379 
L 611.19317 48.652234 
L 613.611606 47.54233 
L 616.030043 48.116446 
L 618.448479 48.037655 
L 623.285352 45.207645 
L 625.703788 47.866714 
L 628.122224 44.990419 
L 630.540661 41.377864 
L 632.959097 49.608714 
L 635.377533 47.990767 
L 637.79597 49.641569 
L 640.214406 54.149 
L 642.632842 50.861226 
L 645.051279 49.937171 
L 647.469715 52.526511 
L 649.888151 46.750871 
L 652.306588 47.066281 
L 654.725024 48.414381 
L 657.14346 52.047299 
L 659.561897 56.793681 
L 661.980333 52.417731 
L 664.398769 52.678041 
L 666.817206 50.133512 
L 669.235642 48.438995 
L 671.654079 49.544211 
L 674.072515 51.486897 
L 676.490951 49.651069 
L 678.909388 48.450117 
L 681.327824 49.539499 
L 683.74626 49.310699 
L 686.164697 46.913964 
L 69.463428 44.944974 
L 71.881865 46.913964 
L 74.300301 49.310699 
L 76.718737 49.539499 
L 79.137174 48.450117 
L 81.55561 49.651069 
L 83.974046 51.486897 
L 86.392483 49.544211 
L 88.810919 48.438995 
L 91.229356 50.133512 
L 93.647792 52.678041 
L 96.066228 52.417731 
L 98.484665 56.793681 
L 100.903101 52.047299 
L 103.321537 48.414381 
L 105.739974 47.066281 
L 108.15841 46.750871 
L 110.576846 52.526511 
L 112.995283 49.937171 
L 115.413719 50.861226 
L 117.832155 54.149 
L 120.250592 49.641569 
L 122.669028 47.990767 
L 125.087464 49.608714 
L 127.505901 41.377864 
L 129.924337 44.990419 
L 132.342773 47.866714 
L 134.76121 45.207645 
L 139.598082 48.037655 
L 142.016519 48.116446 
L 144.434955 47.54233 
L 146.853391 48.652234 
L 149.271828 56.008379 
L 151.690264 57.985826 
L 154.108701 55.527754 
L 156.527137 52.710241 
L 158.945573 53.957762 
L 161.36401 47.789821 
L 163.782446 51.822 
L 166.200882 49.210192 
L 168.619319 48.876404 
L 171.037755 54.377293 
L 173.456191 52.586301 
L 175.874628 47.762019 
L 178.293064 50.986436 
L 180.7115 54.650179 
L 183.129937 52.686915 
L 185.548373 48.269437 
L 187.966809 52.440876 
L 190.385246 51.229279 
L 192.803682 49.471824 
L 195.222118 52.400511 
L 197.640555 50.786034 
L 200.058991 50.72891 
L 202.477427 49.145192 
L 204.895864 47.991894 
L 207.3143 47.154427 
L 209.732736 45.024534 
L 212.151173 45.00234 
L 214.569609 53.149301 
L 216.988046 49.207974 
L 219.406482 52.385826 
L 221.824918 52.241113 
L 224.243355 51.107059 
L 226.661791 53.116888 
L 229.080227 50.11181 
L 231.498664 53.958819 
L 233.9171 44.585913 
L 236.335536 43.018701 
L 238.753973 47.379599 
L 241.172409 51.233776 
L 243.590845 51.468359 
L 246.009282 51.252619 
L 248.427718 53.014278 
L 250.846154 51.701358 
L 253.264591 48.199892 
L 255.683027 50.731138 
L 258.101463 48.915342 
L 260.5199 50.372669 
L 262.938336 50.869519 
L 265.356772 48.889454 
L 267.775209 48.370452 
L 270.193645 49.64672 
L 272.612081 48.618188 
L 275.030518 49.217392 
L 277.448954 49.340684 
L 279.86739 52.287644 
L 282.285827 48.532392 
L 284.704263 50.094754 
L 287.1227 51.302056 
L 289.541136 49.744712 
L 291.959572 49.848485 
L 294.378009 46.971429 
L 296.796445 48.842038 
L 299.214881 49.478987 
L 301.633318 48.273239 
L 304.051754 48.378057 
L 306.47019 53.734811 
L 308.888627 54.449704 
L 311.307063 52.729082 
L 313.725499 49.708955 
L 316.143936 48.704125 
L 318.562372 51.505726 
L 320.980808 48.815375 
L 323.399245 54.877261 
L 325.817681 48.72089 
L 328.236117 49.945758 
L 330.654554 49.596818 
L 333.07299 46.161668 
L 335.491426 51.069691 
L 337.909863 50.623324 
L 340.328299 50.319013 
L 342.746735 46.12376 
L 345.165172 45.522756 
L 347.583608 46.537882 
L 350.002045 42.249399 
L 352.420481 48.084646 
L 354.838917 52.701246 
L 357.257354 47.681817 
L 359.67579 45.900296 
L 362.094226 49.257384 
L 364.512663 49.79538 
L 366.931099 48.022311 
L 369.349535 51.046617 
L 371.767972 46.097503 
L 374.186408 46.498321 
L 376.604844 66.282692 
L 376.604844 66.282692 
" clip-path="url(#pdf9e5a7c47)" style="fill: none; stroke: #1f77b4; stroke-width: 1.5; stroke-linecap: square"/>
    </g>
    <g id="line2d_11">
     <path d="M 379.023281 125.978406 
L 381.441717 68.096524 
L 383.860153 49.12282 
L 386.27859 47.073508 
L 388.697026 51.224745 
L 391.115462 51.228821 
L 393.533899 49.398017 
L 395.952335 49.885321 
L 398.370771 52.123665 
L 400.789208 46.266488 
L 405.62608 50.879663 
L 408.044517 48.300764 
L 410.462953 49.993261 
L 412.88139 53.075167 
L 415.299826 48.510662 
L 417.718262 47.186667 
L 420.136699 46.58267 
L 422.555135 43.653211 
L 424.973571 42.036601 
L 427.392008 44.102272 
L 429.810444 47.251386 
L 432.22888 54.978507 
L 434.647317 53.801871 
L 437.065753 47.964218 
L 439.484189 47.911507 
L 444.321062 53.563222 
L 446.739498 48.85278 
L 449.157935 50.493357 
L 451.576371 55.465522 
L 453.994807 50.311119 
L 456.413244 43.44267 
L 458.83168 40.939389 
L 461.250116 42.541022 
L 463.668553 45.246853 
L 466.086989 47.529352 
L 468.505425 50.306541 
L 470.923862 53.531373 
L 473.342298 51.302528 
L 475.760735 48.117332 
L 478.179171 46.405254 
L 480.597607 51.813552 
L 483.016044 50.915175 
L 485.43448 50.424711 
L 487.852916 50.7547 
L 490.271353 47.239129 
L 492.689789 46.395303 
L 495.108225 40.710235 
L 497.526662 40.15929 
L 499.945098 42.722952 
L 502.363534 43.059177 
L 504.781971 48.537764 
L 507.200407 49.046196 
L 509.618843 53.691439 
L 512.03728 51.674639 
L 516.874152 46.723504 
L 519.292589 52.356313 
L 521.711025 50.551082 
L 524.129461 46.67084 
L 526.547898 49.368677 
L 528.966334 51.446364 
L 531.38477 46.104018 
L 533.803207 47.636457 
L 536.221643 50.914637 
L 538.640079 50.071191 
L 541.058516 52.048073 
L 543.476952 49.755258 
L 545.895389 51.936892 
L 548.313825 52.022754 
L 550.732261 49.398693 
L 553.150698 48.747679 
L 555.569134 50.231334 
L 557.98757 52.585354 
L 560.406007 49.769624 
L 562.824443 40.781899 
L 565.242879 42.069796 
L 567.661316 44.454529 
L 570.079752 47.686783 
L 572.498188 50.579314 
L 574.916625 50.073777 
L 579.753497 53.787239 
L 582.171934 49.218901 
L 584.59037 49.018396 
L 587.008806 51.901938 
L 589.427243 51.620421 
L 591.845679 48.410506 
L 594.264115 46.008403 
L 596.682552 45.739418 
L 599.100988 44.029001 
L 601.519424 49.467891 
L 603.937861 48.894822 
L 606.356297 46.073224 
L 611.19317 50.848122 
L 613.611606 45.705351 
L 616.030043 49.109557 
L 618.448479 51.235356 
L 620.866915 47.492707 
L 623.285352 49.167259 
L 625.703788 50.145902 
L 628.122224 45.57459 
L 630.540661 48.770733 
L 632.959097 45.941917 
L 635.377533 43.616818 
L 637.79597 48.792523 
L 640.214406 54.962913 
L 642.632842 49.409316 
L 645.051279 45.324077 
L 647.469715 44.219756 
L 649.888151 45.487132 
L 652.306588 45.969449 
L 654.725024 46.041839 
L 657.14346 46.540223 
L 659.561897 44.6184 
L 661.980333 46.243266 
L 664.398769 47.05753 
L 666.817206 46.823845 
L 669.235642 45.462349 
L 671.654079 43.128734 
L 674.072515 48.650547 
L 678.909388 51.045698 
L 681.327824 49.997046 
L 683.74626 50.591845 
L 686.164697 50.96043 
L 69.463428 51.591904 
L 71.881865 50.96043 
L 74.300301 50.591845 
L 76.718737 49.997046 
L 79.137174 51.045698 
L 83.974046 48.650547 
L 86.392483 43.128734 
L 88.810919 45.462349 
L 91.229356 46.823845 
L 93.647792 47.05753 
L 96.066228 46.243266 
L 98.484665 44.6184 
L 100.903101 46.540223 
L 103.321537 46.041839 
L 105.739974 45.969449 
L 108.15841 45.487132 
L 110.576846 44.219756 
L 112.995283 45.324077 
L 115.413719 49.409316 
L 117.832155 54.962913 
L 120.250592 48.792523 
L 122.669028 43.616818 
L 125.087464 45.941917 
L 127.505901 48.770733 
L 129.924337 45.57459 
L 132.342773 50.145902 
L 134.76121 49.167259 
L 137.179646 47.492707 
L 139.598082 51.235356 
L 142.016519 49.109557 
L 144.434955 45.705351 
L 146.853391 50.848122 
L 151.690264 46.073224 
L 154.108701 48.894822 
L 156.527137 49.467891 
L 158.945573 44.029001 
L 161.36401 45.739418 
L 163.782446 46.008403 
L 166.200882 48.410506 
L 168.619319 51.620421 
L 171.037755 51.901938 
L 173.456191 49.018396 
L 175.874628 49.218901 
L 178.293064 53.787239 
L 183.129937 50.073777 
L 185.548373 50.579314 
L 187.966809 47.686783 
L 190.385246 44.454529 
L 192.803682 42.069796 
L 195.222118 40.781899 
L 197.640555 49.769624 
L 200.058991 52.585354 
L 202.477427 50.231334 
L 204.895864 48.747679 
L 207.3143 49.398693 
L 209.732736 52.022754 
L 212.151173 51.936892 
L 214.569609 49.755258 
L 216.988046 52.048073 
L 219.406482 50.071191 
L 221.824918 50.914637 
L 224.243355 47.636457 
L 226.661791 46.104018 
L 229.080227 51.446364 
L 231.498664 49.368677 
L 233.9171 46.67084 
L 236.335536 50.551082 
L 238.753973 52.356313 
L 241.172409 46.723504 
L 246.009282 51.674639 
L 248.427718 53.691439 
L 250.846154 49.046196 
L 253.264591 48.537764 
L 255.683027 43.059177 
L 258.101463 42.722952 
L 260.5199 40.15929 
L 262.938336 40.710235 
L 265.356772 46.395303 
L 267.775209 47.239129 
L 270.193645 50.7547 
L 272.612081 50.424711 
L 275.030518 50.915175 
L 277.448954 51.813552 
L 279.86739 46.405254 
L 282.285827 48.117332 
L 284.704263 51.302528 
L 287.1227 53.531373 
L 289.541136 50.306541 
L 291.959572 47.529352 
L 294.378009 45.246853 
L 296.796445 42.541022 
L 299.214881 40.939389 
L 301.633318 43.44267 
L 304.051754 50.311119 
L 306.47019 55.465522 
L 308.888627 50.493357 
L 311.307063 48.85278 
L 313.725499 53.563222 
L 318.562372 47.911507 
L 320.980808 47.964218 
L 323.399245 53.801871 
L 325.817681 54.978507 
L 328.236117 47.251386 
L 330.654554 44.102272 
L 333.07299 42.036601 
L 335.491426 43.653211 
L 337.909863 46.58267 
L 340.328299 47.186667 
L 342.746735 48.510662 
L 345.165172 53.075167 
L 347.583608 49.993261 
L 350.002045 48.300764 
L 352.420481 50.879663 
L 357.257354 46.266488 
L 359.67579 52.123665 
L 362.094226 49.885321 
L 364.512663 49.398017 
L 366.931099 51.228821 
L 369.349535 51.224745 
L 371.767972 47.073508 
L 374.186408 49.12282 
L 376.604844 68.096524 
L 376.604844 68.096524 
" clip-path="url(#pdf9e5a7c47)" style="fill: none; stroke: #ff7f0e; stroke-width: 1.5; stroke-linecap: square"/>
    </g>
    <g id="line2d_12">
     <path d="M 379.023281 125.563276 
L 381.441717 64.8525 
L 383.860153 48.830614 
L 386.27859 53.218319 
L 391.115462 50.218591 
L 393.533899 51.927121 
L 395.952335 48.970179 
L 398.370771 51.146209 
L 400.789208 52.113205 
L 403.207644 49.141871 
L 405.62608 50.504467 
L 408.044517 52.088782 
L 410.462953 48.040345 
L 415.299826 50.227364 
L 417.718262 48.318126 
L 420.136699 49.812957 
L 422.555135 52.785446 
L 424.973571 51.420088 
L 427.392008 48.951793 
L 429.810444 48.109112 
L 432.22888 48.343593 
L 434.647317 49.67657 
L 437.065753 50.431723 
L 439.484189 51.014877 
L 441.902626 49.233654 
L 444.321062 49.06216 
L 446.739498 49.783404 
L 449.157935 53.273451 
L 451.576371 49.687855 
L 453.994807 50.128985 
L 456.413244 49.955028 
L 458.83168 49.398245 
L 461.250116 49.912909 
L 463.668553 45.604743 
L 466.086989 48.735394 
L 468.505425 47.302938 
L 470.923862 53.538173 
L 473.342298 52.7027 
L 475.760735 50.720718 
L 478.179171 49.904586 
L 480.597607 46.604336 
L 483.016044 43.759831 
L 485.43448 47.715965 
L 487.852916 51.223833 
L 490.271353 46.507907 
L 492.689789 47.176887 
L 495.108225 47.350771 
L 497.526662 46.557041 
L 499.945098 54.469756 
L 502.363534 56.223782 
L 504.781971 51.678639 
L 507.200407 50.243447 
L 509.618843 50.251491 
L 512.03728 43.606557 
L 514.455716 44.300015 
L 516.874152 47.637246 
L 519.292589 51.373924 
L 521.711025 52.164068 
L 524.129461 51.486911 
L 526.547898 52.079096 
L 528.966334 48.599586 
L 531.38477 49.538691 
L 533.803207 49.225608 
L 536.221643 50.539724 
L 538.640079 54.909573 
L 541.058516 54.661385 
L 543.476952 54.529286 
L 545.895389 50.941745 
L 548.313825 48.292838 
L 550.732261 48.932058 
L 553.150698 48.874375 
L 555.569134 46.920546 
L 557.98757 47.059532 
L 560.406007 48.049015 
L 562.824443 48.24132 
L 565.242879 43.955361 
L 567.661316 44.82693 
L 570.079752 48.450098 
L 572.498188 51.354804 
L 574.916625 48.423289 
L 577.335061 48.017684 
L 579.753497 57.667936 
L 582.171934 56.497069 
L 584.59037 48.209891 
L 587.008806 45.913487 
L 589.427243 50.609 
L 591.845679 48.156011 
L 594.264115 51.797334 
L 596.682552 55.953888 
L 599.100988 55.494183 
L 601.519424 49.738618 
L 603.937861 50.077912 
L 606.356297 52.03746 
L 608.774734 49.36006 
L 611.19317 52.853089 
L 613.611606 49.801466 
L 616.030043 40.855982 
L 618.448479 47.622715 
L 620.866915 46.114617 
L 623.285352 43.449424 
L 625.703788 42.507449 
L 628.122224 43.849989 
L 630.540661 43.920988 
L 632.959097 47.112668 
L 635.377533 49.695486 
L 637.79597 48.011271 
L 640.214406 51.284297 
L 642.632842 53.431785 
L 645.051279 47.049259 
L 647.469715 47.962514 
L 649.888151 48.035787 
L 652.306588 49.699943 
L 654.725024 48.888867 
L 657.14346 50.547806 
L 659.561897 53.500378 
L 661.980333 52.72341 
L 664.398769 51.251132 
L 666.817206 51.860919 
L 669.235642 52.819404 
L 671.654079 50.445936 
L 674.072515 49.363103 
L 676.490951 48.110235 
L 678.909388 49.201191 
L 681.327824 51.142722 
L 683.74626 48.016492 
L 686.164697 53.079854 
L 69.463428 52.051602 
L 71.881865 53.079854 
L 74.300301 48.016492 
L 76.718737 51.142722 
L 79.137174 49.201191 
L 81.55561 48.110235 
L 83.974046 49.363103 
L 86.392483 50.445936 
L 88.810919 52.819404 
L 91.229356 51.860919 
L 93.647792 51.251132 
L 96.066228 52.72341 
L 98.484665 53.500378 
L 100.903101 50.547806 
L 103.321537 48.888867 
L 105.739974 49.699943 
L 108.15841 48.035787 
L 110.576846 47.962514 
L 112.995283 47.049259 
L 115.413719 53.431785 
L 117.832155 51.284297 
L 120.250592 48.011271 
L 122.669028 49.695486 
L 125.087464 47.112668 
L 127.505901 43.920988 
L 129.924337 43.849989 
L 132.342773 42.507449 
L 134.76121 43.449424 
L 137.179646 46.114617 
L 139.598082 47.622715 
L 142.016519 40.855982 
L 144.434955 49.801466 
L 146.853391 52.853089 
L 149.271828 49.36006 
L 151.690264 52.03746 
L 154.108701 50.077912 
L 156.527137 49.738618 
L 158.945573 55.494183 
L 161.36401 55.953888 
L 163.782446 51.797334 
L 166.200882 48.156011 
L 168.619319 50.609 
L 171.037755 45.913487 
L 173.456191 48.209891 
L 175.874628 56.497069 
L 178.293064 57.667936 
L 180.7115 48.017684 
L 183.129937 48.423289 
L 185.548373 51.354804 
L 187.966809 48.450098 
L 190.385246 44.82693 
L 192.803682 43.955361 
L 195.222118 48.24132 
L 197.640555 48.049015 
L 200.058991 47.059532 
L 202.477427 46.920546 
L 204.895864 48.874375 
L 207.3143 48.932058 
L 209.732736 48.292838 
L 212.151173 50.941745 
L 214.569609 54.529286 
L 216.988046 54.661385 
L 219.406482 54.909573 
L 221.824918 50.539724 
L 224.243355 49.225608 
L 226.661791 49.538691 
L 229.080227 48.599586 
L 231.498664 52.079096 
L 233.9171 51.486911 
L 236.335536 52.164068 
L 238.753973 51.373924 
L 241.172409 47.637246 
L 243.590845 44.300015 
L 246.009282 43.606557 
L 248.427718 50.251491 
L 250.846154 50.243447 
L 253.264591 51.678639 
L 255.683027 56.223782 
L 258.101463 54.469756 
L 260.5199 46.557041 
L 262.938336 47.350771 
L 265.356772 47.176887 
L 267.775209 46.507907 
L 270.193645 51.223833 
L 272.612081 47.715965 
L 275.030518 43.759831 
L 277.448954 46.604336 
L 279.86739 49.904586 
L 282.285827 50.720718 
L 284.704263 52.7027 
L 287.1227 53.538173 
L 289.541136 47.302938 
L 291.959572 48.735394 
L 294.378009 45.604743 
L 296.796445 49.912909 
L 299.214881 49.398245 
L 301.633318 49.955028 
L 304.051754 50.128985 
L 306.47019 49.687855 
L 308.888627 53.273451 
L 311.307063 49.783404 
L 313.725499 49.06216 
L 316.143936 49.233654 
L 318.562372 51.014877 
L 320.980808 50.431723 
L 323.399245 49.67657 
L 325.817681 48.343593 
L 328.236117 48.109112 
L 330.654554 48.951793 
L 333.07299 51.420088 
L 335.491426 52.785446 
L 337.909863 49.812957 
L 340.328299 48.318126 
L 342.746735 50.227364 
L 347.583608 48.040345 
L 350.002045 52.088782 
L 352.420481 50.504467 
L 354.838917 49.141871 
L 357.257354 52.113205 
L 359.67579 51.146209 
L 362.094226 48.970179 
L 364.512663 51.927121 
L 366.931099 50.218591 
L 371.767972 53.218319 
L 374.186408 48.830614 
L 376.604844 64.8525 
L 376.604844 64.8525 
" clip-path="url(#pdf9e5a7c47)" style="fill: none; stroke: #2ca02c; stroke-width: 1.5; stroke-linecap: square"/>
    </g>
    <g id="patch_4">
     <path d="M 38.628365 133.119879 
L 38.628365 35.732595 
" style="fill: none; stroke: #000000; stroke-width: 0.8; stroke-linejoin: miter; stroke-linecap: square"/>
    </g>
    <g id="patch_5">
     <path d="M 716.99976 133.119879 
L 716.99976 35.732595 
" style="fill: none; stroke: #000000; stroke-width: 0.8; stroke-linejoin: miter; stroke-linecap: square"/>
    </g>
    <g id="patch_6">
     <path d="M 38.628365 133.119879 
L 716.99976 133.119879 
" style="fill: none; stroke: #000000; stroke-width: 0.8; stroke-linejoin: miter; stroke-linecap: square"/>
    </g>
    <g id="patch_7">
     <path d="M 38.628365 35.732595 
L 716.99976 35.732595 
" style="fill: none; stroke: #000000; stroke-width: 0.8; stroke-linejoin: miter; stroke-linecap: square"/>
    </g>
    <g id="text_11">
     <!-- White Noise -->
     <g transform="translate(341.816875 29.732595) scale(0.12 -0.12)">
      <defs>
       <path id="DejaVuSans-57" d="M 213 4666 
L 850 4666 
L 1831 722 
L 2809 4666 
L 3519 4666 
L 4500 722 
L 5478 4666 
L 6119 4666 
L 4947 0 
L 4153 0 
L 3169 4050 
L 2175 0 
L 1381 0 
L 213 4666 
z
" transform="scale(0.015625)"/>
       <path id="DejaVuSans-68" d="M 3513 2113 
L 3513 0 
L 2938 0 
L 2938 2094 
Q 2938 2591 2744 2837 
Q 2550 3084 2163 3084 
Q 1697 3084 1428 2787 
Q 1159 2491 1159 1978 
L 1159 0 
L 581 0 
L 581 4863 
L 1159 4863 
L 1159 2956 
Q 1366 3272 1645 3428 
Q 1925 3584 2291 3584 
Q 2894 3584 3203 3211 
Q 3513 2838 3513 2113 
z
" transform="scale(0.015625)"/>
       <path id="DejaVuSans-4e" d="M 628 4666 
L 1478 4666 
L 3547 763 
L 3547 4666 
L 4159 4666 
L 4159 0 
L 3309 0 
L 1241 3903 
L 1241 0 
L 628 0 
L 628 4666 
z
" transform="scale(0.015625)"/>
      </defs>
      <use xlink:href="#DejaVuSans-57"/>
      <use xlink:href="#DejaVuSans-68" x="98.876953"/>
      <use xlink:href="#DejaVuSans-69" x="162.255859"/>
      <use xlink:href="#DejaVuSans-74" x="190.039062"/>
      <use xlink:href="#DejaVuSans-65" x="229.248047"/>
      <use xlink:href="#DejaVuSans-20" x="290.771484"/>
      <use xlink:href="#DejaVuSans-4e" x="322.558594"/>
      <use xlink:href="#DejaVuSans-6f" x="397.363281"/>
      <use xlink:href="#DejaVuSans-69" x="458.544922"/>
      <use xlink:href="#DejaVuSans-73" x="486.328125"/>
      <use xlink:href="#DejaVuSans-65" x="538.427734"/>
     </g>
    </g>
    <g id="legend_1">
     <g id="patch_8">
      <path d="M 267.166406 180.144825 
L 488.461719 180.144825 
Q 490.461719 180.144825 490.461719 178.144825 
L 490.461719 164.4667 
Q 490.461719 162.4667 488.461719 162.4667 
L 267.166406 162.4667 
Q 265.166406 162.4667 265.166406 164.4667 
L 265.166406 178.144825 
Q 265.166406 180.144825 267.166406 180.144825 
z
" style="fill: #ffffff; opacity: 0.8; stroke: #cccccc; stroke-linejoin: miter"/>
     </g>
     <g id="line2d_13">
      <path d="M 269.166406 170.565138 
L 279.166406 170.565138 
L 289.166406 170.565138 
" style="fill: none; stroke: #1f77b4; stroke-width: 1.5; stroke-linecap: square"/>
     </g>
     <g id="text_12">
      <!-- Real 1 -->
      <g transform="translate(297.166406 174.065138) scale(0.1 -0.1)">
       <defs>
        <path id="DejaVuSans-52" d="M 2841 2188 
Q 3044 2119 3236 1894 
Q 3428 1669 3622 1275 
L 4263 0 
L 3584 0 
L 2988 1197 
Q 2756 1666 2539 1819 
Q 2322 1972 1947 1972 
L 1259 1972 
L 1259 0 
L 628 0 
L 628 4666 
L 2053 4666 
Q 2853 4666 3247 4331 
Q 3641 3997 3641 3322 
Q 3641 2881 3436 2590 
Q 3231 2300 2841 2188 
z
M 1259 4147 
L 1259 2491 
L 2053 2491 
Q 2509 2491 2742 2702 
Q 2975 2913 2975 3322 
Q 2975 3731 2742 3939 
Q 2509 4147 2053 4147 
L 1259 4147 
z
" transform="scale(0.015625)"/>
       </defs>
       <use xlink:href="#DejaVuSans-52"/>
       <use xlink:href="#DejaVuSans-65" x="64.982422"/>
       <use xlink:href="#DejaVuSans-61" x="126.505859"/>
       <use xlink:href="#DejaVuSans-6c" x="187.785156"/>
       <use xlink:href="#DejaVuSans-20" x="215.568359"/>
       <use xlink:href="#DejaVuSans-31" x="247.355469"/>
      </g>
     </g>
     <g id="line2d_14">
      <path d="M 348.264844 170.565138 
L 358.264844 170.565138 
L 368.264844 170.565138 
" style="fill: none; stroke: #ff7f0e; stroke-width: 1.5; stroke-linecap: square"/>
     </g>
     <g id="text_13">
      <!-- Real 2 -->
      <g transform="translate(376.264844 174.065138) scale(0.1 -0.1)">
       <use xlink:href="#DejaVuSans-52"/>
       <use xlink:href="#DejaVuSans-65" x="64.982422"/>
       <use xlink:href="#DejaVuSans-61" x="126.505859"/>
       <use xlink:href="#DejaVuSans-6c" x="187.785156"/>
       <use xlink:href="#DejaVuSans-20" x="215.568359"/>
       <use xlink:href="#DejaVuSans-32" x="247.355469"/>
      </g>
     </g>
     <g id="line2d_15">
      <path d="M 427.363281 170.565138 
L 437.363281 170.565138 
L 447.363281 170.565138 
" style="fill: none; stroke: #2ca02c; stroke-width: 1.5; stroke-linecap: square"/>
     </g>
     <g id="text_14">
      <!-- Real 3 -->
      <g transform="translate(455.363281 174.065138) scale(0.1 -0.1)">
       <defs>
        <path id="DejaVuSans-33" d="M 2597 2516 
Q 3050 2419 3304 2112 
Q 3559 1806 3559 1356 
Q 3559 666 3084 287 
Q 2609 -91 1734 -91 
Q 1441 -91 1130 -33 
Q 819 25 488 141 
L 488 750 
Q 750 597 1062 519 
Q 1375 441 1716 441 
Q 2309 441 2620 675 
Q 2931 909 2931 1356 
Q 2931 1769 2642 2001 
Q 2353 2234 1838 2234 
L 1294 2234 
L 1294 2753 
L 1863 2753 
Q 2328 2753 2575 2939 
Q 2822 3125 2822 3475 
Q 2822 3834 2567 4026 
Q 2313 4219 1838 4219 
Q 1578 4219 1281 4162 
Q 984 4106 628 3988 
L 628 4550 
Q 988 4650 1302 4700 
Q 1616 4750 1894 4750 
Q 2613 4750 3031 4423 
Q 3450 4097 3450 3541 
Q 3450 3153 3228 2886 
Q 3006 2619 2597 2516 
z
" transform="scale(0.015625)"/>
       </defs>
       <use xlink:href="#DejaVuSans-52"/>
       <use xlink:href="#DejaVuSans-65" x="64.982422"/>
       <use xlink:href="#DejaVuSans-61" x="126.505859"/>
       <use xlink:href="#DejaVuSans-6c" x="187.785156"/>
       <use xlink:href="#DejaVuSans-20" x="215.568359"/>
       <use xlink:href="#DejaVuSans-33" x="247.355469"/>
      </g>
     </g>
    </g>
   </g>
  </g>
  <g id="subfigure_2">
   <g id="patch_9">
    <path d="M 0 359.807115 
L 720 359.807115 
L 720 197.710672 
L 0 197.710672 
z
" style="fill: #ffffff"/>
   </g>
   <g id="axes_2">
    <g id="patch_10">
     <path d="M 22.72524 313.216322 
L 716.99976 313.216322 
L 716.99976 215.829038 
L 22.72524 215.829038 
z
" style="fill: #ffffff"/>
    </g>
    <g id="matplotlib.axis_3">
     <g id="xtick_6">
      <g id="line2d_16">
       <g>
        <use xlink:href="#ma568b2f4f2" x="117.646551" y="313.216322" style="stroke: #000000; stroke-width: 0.8"/>
       </g>
      </g>
      <g id="text_15">
       <!-- −0.4 -->
       <g transform="translate(105.505145 327.814759) scale(0.1 -0.1)">
        <use xlink:href="#DejaVuSans-2212"/>
        <use xlink:href="#DejaVuSans-30" x="83.789062"/>
        <use xlink:href="#DejaVuSans-2e" x="147.412109"/>
        <use xlink:href="#DejaVuSans-34" x="179.199219"/>
       </g>
      </g>
     </g>
     <g id="xtick_7">
      <g id="line2d_17">
       <g>
        <use xlink:href="#ma568b2f4f2" x="244.373309" y="313.216322" style="stroke: #000000; stroke-width: 0.8"/>
       </g>
      </g>
      <g id="text_16">
       <!-- −0.2 -->
       <g transform="translate(232.231902 327.814759) scale(0.1 -0.1)">
        <use xlink:href="#DejaVuSans-2212"/>
        <use xlink:href="#DejaVuSans-30" x="83.789062"/>
        <use xlink:href="#DejaVuSans-2e" x="147.412109"/>
        <use xlink:href="#DejaVuSans-32" x="179.199219"/>
       </g>
      </g>
     </g>
     <g id="xtick_8">
      <g id="line2d_18">
       <g>
        <use xlink:href="#ma568b2f4f2" x="371.100066" y="313.216322" style="stroke: #000000; stroke-width: 0.8"/>
       </g>
      </g>
      <g id="text_17">
       <!-- 0.0 -->
       <g transform="translate(363.148503 327.814759) scale(0.1 -0.1)">
        <use xlink:href="#DejaVuSans-30"/>
        <use xlink:href="#DejaVuSans-2e" x="63.623047"/>
        <use xlink:href="#DejaVuSans-30" x="95.410156"/>
       </g>
      </g>
     </g>
     <g id="xtick_9">
      <g id="line2d_19">
       <g>
        <use xlink:href="#ma568b2f4f2" x="497.826823" y="313.216322" style="stroke: #000000; stroke-width: 0.8"/>
       </g>
      </g>
      <g id="text_18">
       <!-- 0.2 -->
       <g transform="translate(489.875261 327.814759) scale(0.1 -0.1)">
        <use xlink:href="#DejaVuSans-30"/>
        <use xlink:href="#DejaVuSans-2e" x="63.623047"/>
        <use xlink:href="#DejaVuSans-32" x="95.410156"/>
       </g>
      </g>
     </g>
     <g id="xtick_10">
      <g id="line2d_20">
       <g>
        <use xlink:href="#ma568b2f4f2" x="624.553581" y="313.216322" style="stroke: #000000; stroke-width: 0.8"/>
       </g>
      </g>
      <g id="text_19">
       <!-- 0.4 -->
       <g transform="translate(616.602018 327.814759) scale(0.1 -0.1)">
        <use xlink:href="#DejaVuSans-30"/>
        <use xlink:href="#DejaVuSans-2e" x="63.623047"/>
        <use xlink:href="#DejaVuSans-34" x="95.410156"/>
       </g>
      </g>
     </g>
    </g>
    <g id="matplotlib.axis_4">
     <g id="ytick_5">
      <g id="line2d_21">
       <g>
        <use xlink:href="#md1f7cba4d7" x="22.72524" y="308.80084" style="stroke: #000000; stroke-width: 0.8"/>
       </g>
      </g>
      <g id="text_20">
       <!-- 0 -->
       <g transform="translate(9.36274 312.600059) scale(0.1 -0.1)">
        <use xlink:href="#DejaVuSans-30"/>
       </g>
      </g>
     </g>
     <g id="ytick_6">
      <g id="line2d_22">
       <g>
        <use xlink:href="#md1f7cba4d7" x="22.72524" y="269.021618" style="stroke: #000000; stroke-width: 0.8"/>
       </g>
      </g>
      <g id="text_21">
       <!-- 20 -->
       <g transform="translate(3.00024 272.820836) scale(0.1 -0.1)">
        <use xlink:href="#DejaVuSans-32"/>
        <use xlink:href="#DejaVuSans-30" x="63.623047"/>
       </g>
      </g>
     </g>
     <g id="ytick_7">
      <g id="line2d_23">
       <g>
        <use xlink:href="#md1f7cba4d7" x="22.72524" y="229.242395" style="stroke: #000000; stroke-width: 0.8"/>
       </g>
      </g>
      <g id="text_22">
       <!-- 40 -->
       <g transform="translate(3.00024 233.041614) scale(0.1 -0.1)">
        <use xlink:href="#DejaVuSans-34"/>
        <use xlink:href="#DejaVuSans-30" x="63.623047"/>
       </g>
      </g>
     </g>
    </g>
    <g id="line2d_24">
     <path d="M 371.100066 280.861776 
L 373.575198 221.717433 
L 376.05033 279.459834 
L 378.525462 298.492901 
L 381.000594 303.669437 
L 383.475726 305.520649 
L 385.950858 306.57393 
L 388.42599 307.18133 
L 393.376254 307.810373 
L 398.326518 308.14517 
L 415.652442 308.560127 
L 462.679949 308.740171 
L 566.635492 308.784072 
L 685.441827 308.788894 
L 54.283173 308.788702 
L 299.321239 308.708385 
L 331.497954 308.494872 
L 343.873614 308.14517 
L 348.823878 307.810373 
L 353.774142 307.18133 
L 356.249274 306.57393 
L 358.724406 305.520649 
L 361.199538 303.669437 
L 363.67467 298.492901 
L 366.149802 279.459834 
L 368.624934 221.717433 
L 368.624934 221.717433 
" clip-path="url(#p8ccb0f0e49)" style="fill: none; stroke: #1f77b4; stroke-width: 1.5; stroke-linecap: square"/>
    </g>
    <g id="line2d_25">
     <path d="M 371.100066 281.825256 
L 373.575198 220.255732 
L 376.05033 279.84431 
L 378.525462 298.621188 
L 381.000594 303.665157 
L 383.475726 305.606947 
L 385.950858 306.575039 
L 388.42599 307.180061 
L 390.901122 307.593209 
L 398.326518 308.158248 
L 408.227046 308.447874 
L 428.028101 308.65563 
L 559.210096 308.781381 
L 685.441827 308.789291 
L 54.283173 308.789351 
L 306.746635 308.68298 
L 333.973086 308.447874 
L 341.398482 308.24884 
L 346.348746 308.003316 
L 351.29901 307.593209 
L 353.774142 307.180061 
L 356.249274 306.575039 
L 358.724406 305.606947 
L 361.199538 303.665157 
L 363.67467 298.621188 
L 366.149802 279.84431 
L 368.624934 220.255732 
L 368.624934 220.255732 
" clip-path="url(#p8ccb0f0e49)" style="fill: none; stroke: #ff7f0e; stroke-width: 1.5; stroke-linecap: square"/>
    </g>
    <g id="line2d_26">
     <path d="M 371.100066 281.676067 
L 373.575198 220.664125 
L 376.05033 278.907324 
L 378.525462 299.175107 
L 381.000594 303.730997 
L 383.475726 305.563907 
L 385.950858 306.627967 
L 388.42599 307.169906 
L 390.901122 307.579144 
L 395.851386 308.011511 
L 403.276782 308.32877 
L 413.17731 308.527684 
L 428.028101 308.650023 
L 467.630213 308.747179 
L 685.441827 308.789495 
L 54.283173 308.789399 
L 306.746635 308.681622 
L 329.022822 308.527684 
L 341.398482 308.266868 
L 348.823878 307.847529 
L 351.29901 307.579144 
L 353.774142 307.169906 
L 356.249274 306.627967 
L 358.724406 305.563907 
L 361.199538 303.730997 
L 363.67467 299.175107 
L 366.149802 278.907324 
L 368.624934 220.664125 
L 368.624934 220.664125 
" clip-path="url(#p8ccb0f0e49)" style="fill: none; stroke: #2ca02c; stroke-width: 1.5; stroke-linecap: square"/>
    </g>
    <g id="patch_11">
     <path d="M 22.72524 313.216322 
L 22.72524 215.829038 
" style="fill: none; stroke: #000000; stroke-width: 0.8; stroke-linejoin: miter; stroke-linecap: square"/>
    </g>
    <g id="patch_12">
     <path d="M 716.99976 313.216322 
L 716.99976 215.829038 
" style="fill: none; stroke: #000000; stroke-width: 0.8; stroke-linejoin: miter; stroke-linecap: square"/>
    </g>
    <g id="patch_13">
     <path d="M 22.72524 313.216322 
L 716.99976 313.216322 
" style="fill: none; stroke: #000000; stroke-width: 0.8; stroke-linejoin: miter; stroke-linecap: square"/>
    </g>
    <g id="patch_14">
     <path d="M 22.72524 215.829038 
L 716.99976 215.829038 
" style="fill: none; stroke: #000000; stroke-width: 0.8; stroke-linejoin: miter; stroke-linecap: square"/>
    </g>
    <g id="text_23">
     <!-- Random Walk -->
     <g transform="translate(328.749375 209.829038) scale(0.12 -0.12)">
      <defs>
       <path id="DejaVuSans-64" d="M 2906 2969 
L 2906 4863 
L 3481 4863 
L 3481 0 
L 2906 0 
L 2906 525 
Q 2725 213 2448 61 
Q 2172 -91 1784 -91 
Q 1150 -91 751 415 
Q 353 922 353 1747 
Q 353 2572 751 3078 
Q 1150 3584 1784 3584 
Q 2172 3584 2448 3432 
Q 2725 3281 2906 2969 
z
M 947 1747 
Q 947 1113 1208 752 
Q 1469 391 1925 391 
Q 2381 391 2643 752 
Q 2906 1113 2906 1747 
Q 2906 2381 2643 2742 
Q 2381 3103 1925 3103 
Q 1469 3103 1208 2742 
Q 947 2381 947 1747 
z
" transform="scale(0.015625)"/>
       <path id="DejaVuSans-6d" d="M 3328 2828 
Q 3544 3216 3844 3400 
Q 4144 3584 4550 3584 
Q 5097 3584 5394 3201 
Q 5691 2819 5691 2113 
L 5691 0 
L 5113 0 
L 5113 2094 
Q 5113 2597 4934 2840 
Q 4756 3084 4391 3084 
Q 3944 3084 3684 2787 
Q 3425 2491 3425 1978 
L 3425 0 
L 2847 0 
L 2847 2094 
Q 2847 2600 2669 2842 
Q 2491 3084 2119 3084 
Q 1678 3084 1418 2786 
Q 1159 2488 1159 1978 
L 1159 0 
L 581 0 
L 581 3500 
L 1159 3500 
L 1159 2956 
Q 1356 3278 1631 3431 
Q 1906 3584 2284 3584 
Q 2666 3584 2933 3390 
Q 3200 3197 3328 2828 
z
" transform="scale(0.015625)"/>
       <path id="DejaVuSans-6b" d="M 581 4863 
L 1159 4863 
L 1159 1991 
L 2875 3500 
L 3609 3500 
L 1753 1863 
L 3688 0 
L 2938 0 
L 1159 1709 
L 1159 0 
L 581 0 
L 581 4863 
z
" transform="scale(0.015625)"/>
      </defs>
      <use xlink:href="#DejaVuSans-52"/>
      <use xlink:href="#DejaVuSans-61" x="67.232422"/>
      <use xlink:href="#DejaVuSans-6e" x="128.511719"/>
      <use xlink:href="#DejaVuSans-64" x="191.890625"/>
      <use xlink:href="#DejaVuSans-6f" x="255.367188"/>
      <use xlink:href="#DejaVuSans-6d" x="316.548828"/>
      <use xlink:href="#DejaVuSans-20" x="413.960938"/>
      <use xlink:href="#DejaVuSans-57" x="445.748047"/>
      <use xlink:href="#DejaVuSans-61" x="538.25"/>
      <use xlink:href="#DejaVuSans-6c" x="599.529297"/>
      <use xlink:href="#DejaVuSans-6b" x="627.3125"/>
     </g>
    </g>
    <g id="legend_2">
     <g id="patch_15">
      <path d="M 259.214844 360.241268 
L 480.510156 360.241268 
Q 482.510156 360.241268 482.510156 358.241268 
L 482.510156 344.563143 
Q 482.510156 342.563143 480.510156 342.563143 
L 259.214844 342.563143 
Q 257.214844 342.563143 257.214844 344.563143 
L 257.214844 358.241268 
Q 257.214844 360.241268 259.214844 360.241268 
z
" style="fill: #ffffff; opacity: 0.8; stroke: #cccccc; stroke-linejoin: miter"/>
     </g>
     <g id="line2d_27">
      <path d="M 261.214844 350.66158 
L 271.214844 350.66158 
L 281.214844 350.66158 
" style="fill: none; stroke: #1f77b4; stroke-width: 1.5; stroke-linecap: square"/>
     </g>
     <g id="text_24">
      <!-- Real 1 -->
      <g transform="translate(289.214844 354.16158) scale(0.1 -0.1)">
       <use xlink:href="#DejaVuSans-52"/>
       <use xlink:href="#DejaVuSans-65" x="64.982422"/>
       <use xlink:href="#DejaVuSans-61" x="126.505859"/>
       <use xlink:href="#DejaVuSans-6c" x="187.785156"/>
       <use xlink:href="#DejaVuSans-20" x="215.568359"/>
       <use xlink:href="#DejaVuSans-31" x="247.355469"/>
      </g>
     </g>
     <g id="line2d_28">
      <path d="M 340.313281 350.66158 
L 350.313281 350.66158 
L 360.313281 350.66158 
" style="fill: none; stroke: #ff7f0e; stroke-width: 1.5; stroke-linecap: square"/>
     </g>
     <g id="text_25">
      <!-- Real 2 -->
      <g transform="translate(368.313281 354.16158) scale(0.1 -0.1)">
       <use xlink:href="#DejaVuSans-52"/>
       <use xlink:href="#DejaVuSans-65" x="64.982422"/>
       <use xlink:href="#DejaVuSans-61" x="126.505859"/>
       <use xlink:href="#DejaVuSans-6c" x="187.785156"/>
       <use xlink:href="#DejaVuSans-20" x="215.568359"/>
       <use xlink:href="#DejaVuSans-32" x="247.355469"/>
      </g>
     </g>
     <g id="line2d_29">
      <path d="M 419.411719 350.66158 
L 429.411719 350.66158 
L 439.411719 350.66158 
" style="fill: none; stroke: #2ca02c; stroke-width: 1.5; stroke-linecap: square"/>
     </g>
     <g id="text_26">
      <!-- Real 3 -->
      <g transform="translate(447.411719 354.16158) scale(0.1 -0.1)">
       <use xlink:href="#DejaVuSans-52"/>
       <use xlink:href="#DejaVuSans-65" x="64.982422"/>
       <use xlink:href="#DejaVuSans-61" x="126.505859"/>
       <use xlink:href="#DejaVuSans-6c" x="187.785156"/>
       <use xlink:href="#DejaVuSans-20" x="215.568359"/>
       <use xlink:href="#DejaVuSans-33" x="247.355469"/>
      </g>
     </g>
    </g>
   </g>
  </g>
  <g id="subfigure_3">
   <g id="patch_16">
    <path d="M 0 539.903558 
L 720 539.903558 
L 720 377.807115 
L 0 377.807115 
z
" style="fill: #ffffff"/>
   </g>
   <g id="axes_3">
    <g id="patch_17">
     <path d="M 22.72524 493.312764 
L 716.99976 493.312764 
L 716.99976 395.92548 
L 22.72524 395.92548 
z
" style="fill: #ffffff"/>
    </g>
    <g id="matplotlib.axis_5">
     <g id="xtick_11">
      <g id="line2d_30">
       <g>
        <use xlink:href="#ma568b2f4f2" x="117.646551" y="493.312764" style="stroke: #000000; stroke-width: 0.8"/>
       </g>
      </g>
      <g id="text_27">
       <!-- −0.4 -->
       <g transform="translate(105.505145 507.911202) scale(0.1 -0.1)">
        <use xlink:href="#DejaVuSans-2212"/>
        <use xlink:href="#DejaVuSans-30" x="83.789062"/>
        <use xlink:href="#DejaVuSans-2e" x="147.412109"/>
        <use xlink:href="#DejaVuSans-34" x="179.199219"/>
       </g>
      </g>
     </g>
     <g id="xtick_12">
      <g id="line2d_31">
       <g>
        <use xlink:href="#ma568b2f4f2" x="244.373309" y="493.312764" style="stroke: #000000; stroke-width: 0.8"/>
       </g>
      </g>
      <g id="text_28">
       <!-- −0.2 -->
       <g transform="translate(232.231902 507.911202) scale(0.1 -0.1)">
        <use xlink:href="#DejaVuSans-2212"/>
        <use xlink:href="#DejaVuSans-30" x="83.789062"/>
        <use xlink:href="#DejaVuSans-2e" x="147.412109"/>
        <use xlink:href="#DejaVuSans-32" x="179.199219"/>
       </g>
      </g>
     </g>
     <g id="xtick_13">
      <g id="line2d_32">
       <g>
        <use xlink:href="#ma568b2f4f2" x="371.100066" y="493.312764" style="stroke: #000000; stroke-width: 0.8"/>
       </g>
      </g>
      <g id="text_29">
       <!-- 0.0 -->
       <g transform="translate(363.148503 507.911202) scale(0.1 -0.1)">
        <use xlink:href="#DejaVuSans-30"/>
        <use xlink:href="#DejaVuSans-2e" x="63.623047"/>
        <use xlink:href="#DejaVuSans-30" x="95.410156"/>
       </g>
      </g>
     </g>
     <g id="xtick_14">
      <g id="line2d_33">
       <g>
        <use xlink:href="#ma568b2f4f2" x="497.826823" y="493.312764" style="stroke: #000000; stroke-width: 0.8"/>
       </g>
      </g>
      <g id="text_30">
       <!-- 0.2 -->
       <g transform="translate(489.875261 507.911202) scale(0.1 -0.1)">
        <use xlink:href="#DejaVuSans-30"/>
        <use xlink:href="#DejaVuSans-2e" x="63.623047"/>
        <use xlink:href="#DejaVuSans-32" x="95.410156"/>
       </g>
      </g>
     </g>
     <g id="xtick_15">
      <g id="line2d_34">
       <g>
        <use xlink:href="#ma568b2f4f2" x="624.553581" y="493.312764" style="stroke: #000000; stroke-width: 0.8"/>
       </g>
      </g>
      <g id="text_31">
       <!-- 0.4 -->
       <g transform="translate(616.602018 507.911202) scale(0.1 -0.1)">
        <use xlink:href="#DejaVuSans-30"/>
        <use xlink:href="#DejaVuSans-2e" x="63.623047"/>
        <use xlink:href="#DejaVuSans-34" x="95.410156"/>
       </g>
      </g>
     </g>
    </g>
    <g id="matplotlib.axis_6">
     <g id="ytick_8">
      <g id="line2d_35">
       <g>
        <use xlink:href="#md1f7cba4d7" x="22.72524" y="488.897527" style="stroke: #000000; stroke-width: 0.8"/>
       </g>
      </g>
      <g id="text_32">
       <!-- 0 -->
       <g transform="translate(9.36274 492.696745) scale(0.1 -0.1)">
        <use xlink:href="#DejaVuSans-30"/>
       </g>
      </g>
     </g>
     <g id="ytick_9">
      <g id="line2d_36">
       <g>
        <use xlink:href="#md1f7cba4d7" x="22.72524" y="448.281753" style="stroke: #000000; stroke-width: 0.8"/>
       </g>
      </g>
      <g id="text_33">
       <!-- 20 -->
       <g transform="translate(3.00024 452.080972) scale(0.1 -0.1)">
        <use xlink:href="#DejaVuSans-32"/>
        <use xlink:href="#DejaVuSans-30" x="63.623047"/>
       </g>
      </g>
     </g>
     <g id="ytick_10">
      <g id="line2d_37">
       <g>
        <use xlink:href="#md1f7cba4d7" x="22.72524" y="407.665979" style="stroke: #000000; stroke-width: 0.8"/>
       </g>
      </g>
      <g id="text_34">
       <!-- 40 -->
       <g transform="translate(3.00024 411.465198) scale(0.1 -0.1)">
        <use xlink:href="#DejaVuSans-34"/>
        <use xlink:href="#DejaVuSans-30" x="63.623047"/>
       </g>
      </g>
     </g>
    </g>
    <g id="line2d_38">
     <path d="M 371.100066 460.392274 
L 373.575198 401.768846 
L 376.05033 459.040454 
L 378.525462 478.369047 
L 381.000594 483.663407 
L 383.475726 485.546967 
L 385.950858 486.623919 
L 388.42599 487.243952 
L 393.376254 487.885683 
L 395.851386 488.112853 
L 405.751914 488.473463 
L 420.602706 488.694648 
L 447.829157 488.810011 
L 534.458777 488.87532 
L 685.441827 488.885314 
L 54.283173 488.885117 
L 306.746635 488.775299 
L 329.022822 488.620267 
L 338.92335 488.408617 
L 348.823878 487.885683 
L 353.774142 487.243952 
L 356.249274 486.623919 
L 358.724406 485.546967 
L 361.199538 483.663407 
L 363.67467 478.369047 
L 366.149802 459.040454 
L 368.624934 401.768846 
L 368.624934 401.768846 
" clip-path="url(#p666426cc69)" style="fill: none; stroke: #1f77b4; stroke-width: 1.5; stroke-linecap: square"/>
    </g>
    <g id="line2d_39">
     <path d="M 371.100066 461.396193 
L 373.575198 400.352175 
L 376.05033 459.43566 
L 378.525462 478.505696 
L 381.000594 483.653543 
L 383.475726 485.632968 
L 385.950858 486.624671 
L 388.42599 487.241462 
L 390.901122 487.663413 
L 398.326518 488.241336 
L 408.227046 488.536806 
L 428.028101 488.749198 
L 556.734964 488.878712 
L 685.441827 488.885725 
L 54.283173 488.885795 
L 306.746635 488.77714 
L 333.973086 488.536806 
L 341.398482 488.333524 
L 346.348746 488.083448 
L 351.29901 487.663413 
L 353.774142 487.241462 
L 356.249274 486.624671 
L 358.724406 485.632968 
L 361.199538 483.653543 
L 363.67467 478.505696 
L 366.149802 459.43566 
L 368.624934 400.352175 
L 368.624934 400.352175 
" clip-path="url(#p666426cc69)" style="fill: none; stroke: #ff7f0e; stroke-width: 1.5; stroke-linecap: square"/>
    </g>
    <g id="line2d_40">
     <path d="M 371.100066 461.208671 
L 373.575198 400.473836 
L 376.05033 458.475988 
L 378.525462 479.073611 
L 381.000594 483.720099 
L 383.475726 485.58873 
L 385.950858 486.679467 
L 388.42599 487.23074 
L 390.901122 487.65016 
L 395.851386 488.091181 
L 400.80165 488.351969 
L 415.652442 488.654656 
L 442.878893 488.802122 
L 586.436548 488.882106 
L 685.441827 488.885944 
L 54.283173 488.885839 
L 304.271503 488.784083 
L 329.022822 488.618477 
L 341.398482 488.351969 
L 348.823878 487.924242 
L 351.29901 487.65016 
L 353.774142 487.23074 
L 356.249274 486.679467 
L 358.724406 485.58873 
L 361.199538 483.720099 
L 363.67467 479.073611 
L 366.149802 458.475988 
L 368.624934 400.473836 
L 368.624934 400.473836 
" clip-path="url(#p666426cc69)" style="fill: none; stroke: #2ca02c; stroke-width: 1.5; stroke-linecap: square"/>
    </g>
    <g id="patch_18">
     <path d="M 22.72524 493.312764 
L 22.72524 395.92548 
" style="fill: none; stroke: #000000; stroke-width: 0.8; stroke-linejoin: miter; stroke-linecap: square"/>
    </g>
    <g id="patch_19">
     <path d="M 716.99976 493.312764 
L 716.99976 395.92548 
" style="fill: none; stroke: #000000; stroke-width: 0.8; stroke-linejoin: miter; stroke-linecap: square"/>
    </g>
    <g id="patch_20">
     <path d="M 22.72524 493.312764 
L 716.99976 493.312764 
" style="fill: none; stroke: #000000; stroke-width: 0.8; stroke-linejoin: miter; stroke-linecap: square"/>
    </g>
    <g id="patch_21">
     <path d="M 22.72524 395.92548 
L 716.99976 395.92548 
" style="fill: none; stroke: #000000; stroke-width: 0.8; stroke-linejoin: miter; stroke-linecap: square"/>
    </g>
    <g id="text_35">
     <!-- Gauss Markov - tau=2000 -->
     <g transform="translate(291.668437 389.92548) scale(0.12 -0.12)">
      <defs>
       <path id="DejaVuSans-47" d="M 3809 666 
L 3809 1919 
L 2778 1919 
L 2778 2438 
L 4434 2438 
L 4434 434 
Q 4069 175 3628 42 
Q 3188 -91 2688 -91 
Q 1594 -91 976 548 
Q 359 1188 359 2328 
Q 359 3472 976 4111 
Q 1594 4750 2688 4750 
Q 3144 4750 3555 4637 
Q 3966 4525 4313 4306 
L 4313 3634 
Q 3963 3931 3569 4081 
Q 3175 4231 2741 4231 
Q 1884 4231 1454 3753 
Q 1025 3275 1025 2328 
Q 1025 1384 1454 906 
Q 1884 428 2741 428 
Q 3075 428 3337 486 
Q 3600 544 3809 666 
z
" transform="scale(0.015625)"/>
       <path id="DejaVuSans-75" d="M 544 1381 
L 544 3500 
L 1119 3500 
L 1119 1403 
Q 1119 906 1312 657 
Q 1506 409 1894 409 
Q 2359 409 2629 706 
Q 2900 1003 2900 1516 
L 2900 3500 
L 3475 3500 
L 3475 0 
L 2900 0 
L 2900 538 
Q 2691 219 2414 64 
Q 2138 -91 1772 -91 
Q 1169 -91 856 284 
Q 544 659 544 1381 
z
M 1991 3584 
L 1991 3584 
z
" transform="scale(0.015625)"/>
       <path id="DejaVuSans-4d" d="M 628 4666 
L 1569 4666 
L 2759 1491 
L 3956 4666 
L 4897 4666 
L 4897 0 
L 4281 0 
L 4281 4097 
L 3078 897 
L 2444 897 
L 1241 4097 
L 1241 0 
L 628 0 
L 628 4666 
z
" transform="scale(0.015625)"/>
       <path id="DejaVuSans-76" d="M 191 3500 
L 800 3500 
L 1894 563 
L 2988 3500 
L 3597 3500 
L 2284 0 
L 1503 0 
L 191 3500 
z
" transform="scale(0.015625)"/>
       <path id="DejaVuSans-2d" d="M 313 2009 
L 1997 2009 
L 1997 1497 
L 313 1497 
L 313 2009 
z
" transform="scale(0.015625)"/>
       <path id="DejaVuSans-3d" d="M 678 2906 
L 4684 2906 
L 4684 2381 
L 678 2381 
L 678 2906 
z
M 678 1631 
L 4684 1631 
L 4684 1100 
L 678 1100 
L 678 1631 
z
" transform="scale(0.015625)"/>
      </defs>
      <use xlink:href="#DejaVuSans-47"/>
      <use xlink:href="#DejaVuSans-61" x="77.490234"/>
      <use xlink:href="#DejaVuSans-75" x="138.769531"/>
      <use xlink:href="#DejaVuSans-73" x="202.148438"/>
      <use xlink:href="#DejaVuSans-73" x="254.248047"/>
      <use xlink:href="#DejaVuSans-20" x="306.347656"/>
      <use xlink:href="#DejaVuSans-4d" x="338.134766"/>
      <use xlink:href="#DejaVuSans-61" x="424.414062"/>
      <use xlink:href="#DejaVuSans-72" x="485.693359"/>
      <use xlink:href="#DejaVuSans-6b" x="526.806641"/>
      <use xlink:href="#DejaVuSans-6f" x="581.091797"/>
      <use xlink:href="#DejaVuSans-76" x="642.273438"/>
      <use xlink:href="#DejaVuSans-20" x="701.453125"/>
      <use xlink:href="#DejaVuSans-2d" x="733.240234"/>
      <use xlink:href="#DejaVuSans-20" x="769.324219"/>
      <use xlink:href="#DejaVuSans-74" x="801.111328"/>
      <use xlink:href="#DejaVuSans-61" x="840.320312"/>
      <use xlink:href="#DejaVuSans-75" x="901.599609"/>
      <use xlink:href="#DejaVuSans-3d" x="964.978516"/>
      <use xlink:href="#DejaVuSans-32" x="1048.767578"/>
      <use xlink:href="#DejaVuSans-30" x="1112.390625"/>
      <use xlink:href="#DejaVuSans-30" x="1176.013672"/>
      <use xlink:href="#DejaVuSans-30" x="1239.636719"/>
     </g>
    </g>
    <g id="legend_3">
     <g id="patch_22">
      <path d="M 259.214844 540.33771 
L 480.510156 540.33771 
Q 482.510156 540.33771 482.510156 538.33771 
L 482.510156 524.659585 
Q 482.510156 522.659585 480.510156 522.659585 
L 259.214844 522.659585 
Q 257.214844 522.659585 257.214844 524.659585 
L 257.214844 538.33771 
Q 257.214844 540.33771 259.214844 540.33771 
z
" style="fill: #ffffff; opacity: 0.8; stroke: #cccccc; stroke-linejoin: miter"/>
     </g>
     <g id="line2d_41">
      <path d="M 261.214844 530.758023 
L 271.214844 530.758023 
L 281.214844 530.758023 
" style="fill: none; stroke: #1f77b4; stroke-width: 1.5; stroke-linecap: square"/>
     </g>
     <g id="text_36">
      <!-- Real 1 -->
      <g transform="translate(289.214844 534.258023) scale(0.1 -0.1)">
       <use xlink:href="#DejaVuSans-52"/>
       <use xlink:href="#DejaVuSans-65" x="64.982422"/>
       <use xlink:href="#DejaVuSans-61" x="126.505859"/>
       <use xlink:href="#DejaVuSans-6c" x="187.785156"/>
       <use xlink:href="#DejaVuSans-20" x="215.568359"/>
       <use xlink:href="#DejaVuSans-31" x="247.355469"/>
      </g>
     </g>
     <g id="line2d_42">
      <path d="M 340.313281 530.758023 
L 350.313281 530.758023 
L 360.313281 530.758023 
" style="fill: none; stroke: #ff7f0e; stroke-width: 1.5; stroke-linecap: square"/>
     </g>
     <g id="text_37">
      <!-- Real 2 -->
      <g transform="translate(368.313281 534.258023) scale(0.1 -0.1)">
       <use xlink:href="#DejaVuSans-52"/>
       <use xlink:href="#DejaVuSans-65" x="64.982422"/>
       <use xlink:href="#DejaVuSans-61" x="126.505859"/>
       <use xlink:href="#DejaVuSans-6c" x="187.785156"/>
       <use xlink:href="#DejaVuSans-20" x="215.568359"/>
       <use xlink:href="#DejaVuSans-32" x="247.355469"/>
      </g>
     </g>
     <g id="line2d_43">
      <path d="M 419.411719 530.758023 
L 429.411719 530.758023 
L 439.411719 530.758023 
" style="fill: none; stroke: #2ca02c; stroke-width: 1.5; stroke-linecap: square"/>
     </g>
     <g id="text_38">
      <!-- Real 3 -->
      <g transform="translate(447.411719 534.258023) scale(0.1 -0.1)">
       <use xlink:href="#DejaVuSans-52"/>
       <use xlink:href="#DejaVuSans-65" x="64.982422"/>
       <use xlink:href="#DejaVuSans-61" x="126.505859"/>
       <use xlink:href="#DejaVuSans-6c" x="187.785156"/>
       <use xlink:href="#DejaVuSans-20" x="215.568359"/>
       <use xlink:href="#DejaVuSans-33" x="247.355469"/>
      </g>
     </g>
    </g>
   </g>
  </g>
  <g id="subfigure_4">
   <g id="patch_23">
    <path d="M 0 720 
L 720 720 
L 720 557.903558 
L 0 557.903558 
z
" style="fill: #ffffff"/>
   </g>
   <g id="axes_4">
    <g id="patch_24">
     <path d="M 22.72524 673.409207 
L 716.99976 673.409207 
L 716.99976 576.021923 
L 22.72524 576.021923 
z
" style="fill: #ffffff"/>
    </g>
    <g id="matplotlib.axis_7">
     <g id="xtick_16">
      <g id="line2d_44">
       <g>
        <use xlink:href="#ma568b2f4f2" x="117.646551" y="673.409207" style="stroke: #000000; stroke-width: 0.8"/>
       </g>
      </g>
      <g id="text_39">
       <!-- −0.4 -->
       <g transform="translate(105.505145 688.007644) scale(0.1 -0.1)">
        <use xlink:href="#DejaVuSans-2212"/>
        <use xlink:href="#DejaVuSans-30" x="83.789062"/>
        <use xlink:href="#DejaVuSans-2e" x="147.412109"/>
        <use xlink:href="#DejaVuSans-34" x="179.199219"/>
       </g>
      </g>
     </g>
     <g id="xtick_17">
      <g id="line2d_45">
       <g>
        <use xlink:href="#ma568b2f4f2" x="244.373309" y="673.409207" style="stroke: #000000; stroke-width: 0.8"/>
       </g>
      </g>
      <g id="text_40">
       <!-- −0.2 -->
       <g transform="translate(232.231902 688.007644) scale(0.1 -0.1)">
        <use xlink:href="#DejaVuSans-2212"/>
        <use xlink:href="#DejaVuSans-30" x="83.789062"/>
        <use xlink:href="#DejaVuSans-2e" x="147.412109"/>
        <use xlink:href="#DejaVuSans-32" x="179.199219"/>
       </g>
      </g>
     </g>
     <g id="xtick_18">
      <g id="line2d_46">
       <g>
        <use xlink:href="#ma568b2f4f2" x="371.100066" y="673.409207" style="stroke: #000000; stroke-width: 0.8"/>
       </g>
      </g>
      <g id="text_41">
       <!-- 0.0 -->
       <g transform="translate(363.148503 688.007644) scale(0.1 -0.1)">
        <use xlink:href="#DejaVuSans-30"/>
        <use xlink:href="#DejaVuSans-2e" x="63.623047"/>
        <use xlink:href="#DejaVuSans-30" x="95.410156"/>
       </g>
      </g>
     </g>
     <g id="xtick_19">
      <g id="line2d_47">
       <g>
        <use xlink:href="#ma568b2f4f2" x="497.826823" y="673.409207" style="stroke: #000000; stroke-width: 0.8"/>
       </g>
      </g>
      <g id="text_42">
       <!-- 0.2 -->
       <g transform="translate(489.875261 688.007644) scale(0.1 -0.1)">
        <use xlink:href="#DejaVuSans-30"/>
        <use xlink:href="#DejaVuSans-2e" x="63.623047"/>
        <use xlink:href="#DejaVuSans-32" x="95.410156"/>
       </g>
      </g>
     </g>
     <g id="xtick_20">
      <g id="line2d_48">
       <g>
        <use xlink:href="#ma568b2f4f2" x="624.553581" y="673.409207" style="stroke: #000000; stroke-width: 0.8"/>
       </g>
      </g>
      <g id="text_43">
       <!-- 0.4 -->
       <g transform="translate(616.602018 688.007644) scale(0.1 -0.1)">
        <use xlink:href="#DejaVuSans-30"/>
        <use xlink:href="#DejaVuSans-2e" x="63.623047"/>
        <use xlink:href="#DejaVuSans-34" x="95.410156"/>
       </g>
      </g>
     </g>
    </g>
    <g id="matplotlib.axis_8">
     <g id="ytick_11">
      <g id="line2d_49">
       <g>
        <use xlink:href="#md1f7cba4d7" x="22.72524" y="668.99478" style="stroke: #000000; stroke-width: 0.8"/>
       </g>
      </g>
      <g id="text_44">
       <!-- 0 -->
       <g transform="translate(9.36274 672.793999) scale(0.1 -0.1)">
        <use xlink:href="#DejaVuSans-30"/>
       </g>
      </g>
     </g>
     <g id="ytick_12">
      <g id="line2d_50">
       <g>
        <use xlink:href="#md1f7cba4d7" x="22.72524" y="625.570452" style="stroke: #000000; stroke-width: 0.8"/>
       </g>
      </g>
      <g id="text_45">
       <!-- 20 -->
       <g transform="translate(3.00024 629.369671) scale(0.1 -0.1)">
        <use xlink:href="#DejaVuSans-32"/>
        <use xlink:href="#DejaVuSans-30" x="63.623047"/>
       </g>
      </g>
     </g>
     <g id="ytick_13">
      <g id="line2d_51">
       <g>
        <use xlink:href="#md1f7cba4d7" x="22.72524" y="582.146125" style="stroke: #000000; stroke-width: 0.8"/>
       </g>
      </g>
      <g id="text_46">
       <!-- 40 -->
       <g transform="translate(3.00024 585.945343) scale(0.1 -0.1)">
        <use xlink:href="#DejaVuSans-34"/>
        <use xlink:href="#DejaVuSans-30" x="63.623047"/>
       </g>
      </g>
     </g>
    </g>
    <g id="line2d_52">
     <path d="M 371.100066 638.979874 
L 373.575198 581.609819 
L 376.05033 637.424528 
L 378.525462 657.750306 
L 381.000594 663.397117 
L 383.475726 665.408459 
L 385.950858 666.561202 
L 388.42599 667.22438 
L 393.376254 667.911315 
L 395.851386 668.154791 
L 405.751914 668.540741 
L 418.127574 668.747941 
L 437.928629 668.873841 
L 477.530741 668.944185 
L 678.016431 668.981845 
L 685.441827 668.981703 
L 54.283173 668.981492 
L 309.221767 668.856643 
L 331.497954 668.660105 
L 343.873614 668.277332 
L 346.348746 668.154791 
L 351.29901 667.600198 
L 353.774142 667.22438 
L 356.249274 666.561202 
L 358.724406 665.408459 
L 361.199538 663.397117 
L 363.67467 657.750306 
L 366.149802 637.424528 
L 368.624934 581.609819 
L 368.624934 581.609819 
" clip-path="url(#p087c6c2120)" style="fill: none; stroke: #1f77b4; stroke-width: 1.5; stroke-linecap: square"/>
    </g>
    <g id="line2d_53">
     <path d="M 371.100066 640.082878 
L 373.575198 580.448617 
L 376.05033 637.851352 
L 378.525462 657.905402 
L 381.000594 663.381839 
L 383.475726 665.50075 
L 385.950858 666.562379 
L 388.42599 667.221875 
L 390.901122 667.673307 
L 398.326518 668.292272 
L 408.227046 668.608539 
L 425.55297 668.822742 
L 465.155081 668.933665 
L 685.441827 668.982143 
L 54.283173 668.982219 
L 304.271503 668.877943 
L 331.497954 668.651017 
L 341.398482 668.390839 
L 346.348746 668.123087 
L 351.29901 667.673307 
L 353.774142 667.221875 
L 356.249274 666.562379 
L 358.724406 665.50075 
L 361.199538 663.381839 
L 363.67467 657.905402 
L 366.149802 637.851352 
L 368.624934 580.448617 
L 368.624934 580.448617 
" clip-path="url(#p087c6c2120)" style="fill: none; stroke: #ff7f0e; stroke-width: 1.5; stroke-linecap: square"/>
    </g>
    <g id="line2d_54">
     <path d="M 371.100066 639.841419 
L 373.575198 580.466451 
L 376.05033 636.933808 
L 378.525462 658.497945 
L 381.000594 663.452578 
L 383.475726 665.453632 
L 385.950858 666.621359 
L 388.42599 667.21003 
L 390.901122 667.659293 
L 393.376254 667.952806 
L 400.80165 668.410654 
L 415.652442 668.734732 
L 442.878893 668.892625 
L 581.486284 668.977465 
L 685.441827 668.982378 
L 54.283173 668.982265 
L 301.796371 668.882179 
L 329.022822 668.695999 
L 341.398482 668.410654 
L 348.823878 667.952806 
L 351.29901 667.659293 
L 353.774142 667.21003 
L 356.249274 666.621359 
L 358.724406 665.453632 
L 361.199538 663.452578 
L 363.67467 658.497945 
L 366.149802 636.933808 
L 368.624934 580.466451 
L 368.624934 580.466451 
" clip-path="url(#p087c6c2120)" style="fill: none; stroke: #2ca02c; stroke-width: 1.5; stroke-linecap: square"/>
    </g>
    <g id="patch_25">
     <path d="M 22.72524 673.409207 
L 22.72524 576.021923 
" style="fill: none; stroke: #000000; stroke-width: 0.8; stroke-linejoin: miter; stroke-linecap: square"/>
    </g>
    <g id="patch_26">
     <path d="M 716.99976 673.409207 
L 716.99976 576.021923 
" style="fill: none; stroke: #000000; stroke-width: 0.8; stroke-linejoin: miter; stroke-linecap: square"/>
    </g>
    <g id="patch_27">
     <path d="M 22.72524 673.409207 
L 716.99976 673.409207 
" style="fill: none; stroke: #000000; stroke-width: 0.8; stroke-linejoin: miter; stroke-linecap: square"/>
    </g>
    <g id="patch_28">
     <path d="M 22.72524 576.021923 
L 716.99976 576.021923 
" style="fill: none; stroke: #000000; stroke-width: 0.8; stroke-linejoin: miter; stroke-linecap: square"/>
    </g>
    <g id="text_47">
     <!-- Gauss Markov - tau=500 -->
     <g transform="translate(295.485937 570.021923) scale(0.12 -0.12)">
      <use xlink:href="#DejaVuSans-47"/>
      <use xlink:href="#DejaVuSans-61" x="77.490234"/>
      <use xlink:href="#DejaVuSans-75" x="138.769531"/>
      <use xlink:href="#DejaVuSans-73" x="202.148438"/>
      <use xlink:href="#DejaVuSans-73" x="254.248047"/>
      <use xlink:href="#DejaVuSans-20" x="306.347656"/>
      <use xlink:href="#DejaVuSans-4d" x="338.134766"/>
      <use xlink:href="#DejaVuSans-61" x="424.414062"/>
      <use xlink:href="#DejaVuSans-72" x="485.693359"/>
      <use xlink:href="#DejaVuSans-6b" x="526.806641"/>
      <use xlink:href="#DejaVuSans-6f" x="581.091797"/>
      <use xlink:href="#DejaVuSans-76" x="642.273438"/>
      <use xlink:href="#DejaVuSans-20" x="701.453125"/>
      <use xlink:href="#DejaVuSans-2d" x="733.240234"/>
      <use xlink:href="#DejaVuSans-20" x="769.324219"/>
      <use xlink:href="#DejaVuSans-74" x="801.111328"/>
      <use xlink:href="#DejaVuSans-61" x="840.320312"/>
      <use xlink:href="#DejaVuSans-75" x="901.599609"/>
      <use xlink:href="#DejaVuSans-3d" x="964.978516"/>
      <use xlink:href="#DejaVuSans-35" x="1048.767578"/>
      <use xlink:href="#DejaVuSans-30" x="1112.390625"/>
      <use xlink:href="#DejaVuSans-30" x="1176.013672"/>
     </g>
    </g>
    <g id="legend_4">
     <g id="patch_29">
      <path d="M 259.214844 720.434153 
L 480.510156 720.434153 
Q 482.510156 720.434153 482.510156 718.434153 
L 482.510156 704.756028 
Q 482.510156 702.756028 480.510156 702.756028 
L 259.214844 702.756028 
Q 257.214844 702.756028 257.214844 704.756028 
L 257.214844 718.434153 
Q 257.214844 720.434153 259.214844 720.434153 
z
" style="fill: #ffffff; opacity: 0.8; stroke: #cccccc; stroke-linejoin: miter"/>
     </g>
     <g id="line2d_55">
      <path d="M 261.214844 710.854465 
L 271.214844 710.854465 
L 281.214844 710.854465 
" style="fill: none; stroke: #1f77b4; stroke-width: 1.5; stroke-linecap: square"/>
     </g>
     <g id="text_48">
      <!-- Real 1 -->
      <g transform="translate(289.214844 714.354465) scale(0.1 -0.1)">
       <use xlink:href="#DejaVuSans-52"/>
       <use xlink:href="#DejaVuSans-65" x="64.982422"/>
       <use xlink:href="#DejaVuSans-61" x="126.505859"/>
       <use xlink:href="#DejaVuSans-6c" x="187.785156"/>
       <use xlink:href="#DejaVuSans-20" x="215.568359"/>
       <use xlink:href="#DejaVuSans-31" x="247.355469"/>
      </g>
     </g>
     <g id="line2d_56">
      <path d="M 340.313281 710.854465 
L 350.313281 710.854465 
L 360.313281 710.854465 
" style="fill: none; stroke: #ff7f0e; stroke-width: 1.5; stroke-linecap: square"/>
     </g>
     <g id="text_49">
      <!-- Real 2 -->
      <g transform="translate(368.313281 714.354465) scale(0.1 -0.1)">
       <use xlink:href="#DejaVuSans-52"/>
       <use xlink:href="#DejaVuSans-65" x="64.982422"/>
       <use xlink:href="#DejaVuSans-61" x="126.505859"/>
       <use xlink:href="#DejaVuSans-6c" x="187.785156"/>
       <use xlink:href="#DejaVuSans-20" x="215.568359"/>
       <use xlink:href="#DejaVuSans-32" x="247.355469"/>
      </g>
     </g>
     <g id="line2d_57">
      <path d="M 419.411719 710.854465 
L 429.411719 710.854465 
L 439.411719 710.854465 
" style="fill: none; stroke: #2ca02c; stroke-width: 1.5; stroke-linecap: square"/>
     </g>
     <g id="text_50">
      <!-- Real 3 -->
      <g transform="translate(447.411719 714.354465) scale(0.1 -0.1)">
       <use xlink:href="#DejaVuSans-52"/>
       <use xlink:href="#DejaVuSans-65" x="64.982422"/>
       <use xlink:href="#DejaVuSans-61" x="126.505859"/>
       <use xlink:href="#DejaVuSans-6c" x="187.785156"/>
       <use xlink:href="#DejaVuSans-20" x="215.568359"/>
       <use xlink:href="#DejaVuSans-33" x="247.355469"/>
      </g>
     </g>
    </g>
   </g>
  </g>
 </g>
 <defs>
  <clipPath id="pdf9e5a7c47">
   <rect x="38.628365" y="35.732595" width="678.371395" height="97.387284"/>
  </clipPath>
  <clipPath id="p8ccb0f0e49">
   <rect x="22.72524" y="215.829038" width="694.27452" height="97.387284"/>
  </clipPath>
  <clipPath id="p666426cc69">
   <rect x="22.72524" y="395.92548" width="694.27452" height="97.387284"/>
  </clipPath>
  <clipPath id="p087c6c2120">
   <rect x="22.72524" y="576.021923" width="694.27452" height="97.387284"/>
  </clipPath>
 </defs>
</svg>
