<?xml version="1.0" encoding="utf-8" standalone="no"?>
<!DOCTYPE svg PUBLIC "-//W3C//DTD SVG 1.1//EN"
  "http://www.w3.org/Graphics/SVG/1.1/DTD/svg11.dtd">
<svg xmlns:xlink="http://www.w3.org/1999/xlink" width="720pt" height="720pt" viewBox="0 0 720 720" xmlns="http://www.w3.org/2000/svg" version="1.1">
 <metadata>
  <rdf:RDF xmlns:dc="http://purl.org/dc/elements/1.1/" xmlns:cc="http://creativecommons.org/ns#" xmlns:rdf="http://www.w3.org/1999/02/22-rdf-syntax-ns#">
   <cc:Work>
    <dc:type rdf:resource="http://purl.org/dc/dcmitype/StillImage"/>
    <dc:date>2024-03-07T20:38:48.792470</dc:date>
    <dc:format>image/svg+xml</dc:format>
    <dc:creator>
     <cc:Agent>
      <dc:title>Matplotlib v3.7.2, https://matplotlib.org/</dc:title>
     </cc:Agent>
    </dc:creator>
   </cc:Work>
  </rdf:RDF>
 </metadata>
 <defs>
  <style type="text/css">*{stroke-linejoin: round; stroke-linecap: butt}</style>
 </defs>
 <g id="figure_1">
  <g id="patch_1">
   <path d="M 0 720 
L 720 720 
L 720 0 
L 0 0 
z
" style="fill: #ffffff"/>
  </g>
  <g id="text_1">
   <!-- Power Spectral Density -->
   <g transform="translate(290.4675 12.118365) scale(0.12 -0.12)">
    <defs>
     <path id="DejaVuSans-50" d="M 1259 4147 
L 1259 2394 
L 2053 2394 
Q 2494 2394 2734 2622 
Q 2975 2850 2975 3272 
Q 2975 3691 2734 3919 
Q 2494 4147 2053 4147 
L 1259 4147 
z
M 628 4666 
L 2053 4666 
Q 2838 4666 3239 4311 
Q 3641 3956 3641 3272 
Q 3641 2581 3239 2228 
Q 2838 1875 2053 1875 
L 1259 1875 
L 1259 0 
L 628 0 
L 628 4666 
z
" transform="scale(0.015625)"/>
     <path id="DejaVuSans-6f" d="M 1959 3097 
Q 1497 3097 1228 2736 
Q 959 2375 959 1747 
Q 959 1119 1226 758 
Q 1494 397 1959 397 
Q 2419 397 2687 759 
Q 2956 1122 2956 1747 
Q 2956 2369 2687 2733 
Q 2419 3097 1959 3097 
z
M 1959 3584 
Q 2709 3584 3137 3096 
Q 3566 2609 3566 1747 
Q 3566 888 3137 398 
Q 2709 -91 1959 -91 
Q 1206 -91 779 398 
Q 353 888 353 1747 
Q 353 2609 779 3096 
Q 1206 3584 1959 3584 
z
" transform="scale(0.015625)"/>
     <path id="DejaVuSans-77" d="M 269 3500 
L 844 3500 
L 1563 769 
L 2278 3500 
L 2956 3500 
L 3675 769 
L 4391 3500 
L 4966 3500 
L 4050 0 
L 3372 0 
L 2619 2869 
L 1863 0 
L 1184 0 
L 269 3500 
z
" transform="scale(0.015625)"/>
     <path id="DejaVuSans-65" d="M 3597 1894 
L 3597 1613 
L 953 1613 
Q 991 1019 1311 708 
Q 1631 397 2203 397 
Q 2534 397 2845 478 
Q 3156 559 3463 722 
L 3463 178 
Q 3153 47 2828 -22 
Q 2503 -91 2169 -91 
Q 1331 -91 842 396 
Q 353 884 353 1716 
Q 353 2575 817 3079 
Q 1281 3584 2069 3584 
Q 2775 3584 3186 3129 
Q 3597 2675 3597 1894 
z
M 3022 2063 
Q 3016 2534 2758 2815 
Q 2500 3097 2075 3097 
Q 1594 3097 1305 2825 
Q 1016 2553 972 2059 
L 3022 2063 
z
" transform="scale(0.015625)"/>
     <path id="DejaVuSans-72" d="M 2631 2963 
Q 2534 3019 2420 3045 
Q 2306 3072 2169 3072 
Q 1681 3072 1420 2755 
Q 1159 2438 1159 1844 
L 1159 0 
L 581 0 
L 581 3500 
L 1159 3500 
L 1159 2956 
Q 1341 3275 1631 3429 
Q 1922 3584 2338 3584 
Q 2397 3584 2469 3576 
Q 2541 3569 2628 3553 
L 2631 2963 
z
" transform="scale(0.015625)"/>
     <path id="DejaVuSans-20" transform="scale(0.015625)"/>
     <path id="DejaVuSans-53" d="M 3425 4513 
L 3425 3897 
Q 3066 4069 2747 4153 
Q 2428 4238 2131 4238 
Q 1616 4238 1336 4038 
Q 1056 3838 1056 3469 
Q 1056 3159 1242 3001 
Q 1428 2844 1947 2747 
L 2328 2669 
Q 3034 2534 3370 2195 
Q 3706 1856 3706 1288 
Q 3706 609 3251 259 
Q 2797 -91 1919 -91 
Q 1588 -91 1214 -16 
Q 841 59 441 206 
L 441 856 
Q 825 641 1194 531 
Q 1563 422 1919 422 
Q 2459 422 2753 634 
Q 3047 847 3047 1241 
Q 3047 1584 2836 1778 
Q 2625 1972 2144 2069 
L 1759 2144 
Q 1053 2284 737 2584 
Q 422 2884 422 3419 
Q 422 4038 858 4394 
Q 1294 4750 2059 4750 
Q 2388 4750 2728 4690 
Q 3069 4631 3425 4513 
z
" transform="scale(0.015625)"/>
     <path id="DejaVuSans-70" d="M 1159 525 
L 1159 -1331 
L 581 -1331 
L 581 3500 
L 1159 3500 
L 1159 2969 
Q 1341 3281 1617 3432 
Q 1894 3584 2278 3584 
Q 2916 3584 3314 3078 
Q 3713 2572 3713 1747 
Q 3713 922 3314 415 
Q 2916 -91 2278 -91 
Q 1894 -91 1617 61 
Q 1341 213 1159 525 
z
M 3116 1747 
Q 3116 2381 2855 2742 
Q 2594 3103 2138 3103 
Q 1681 3103 1420 2742 
Q 1159 2381 1159 1747 
Q 1159 1113 1420 752 
Q 1681 391 2138 391 
Q 2594 391 2855 752 
Q 3116 1113 3116 1747 
z
" transform="scale(0.015625)"/>
     <path id="DejaVuSans-63" d="M 3122 3366 
L 3122 2828 
Q 2878 2963 2633 3030 
Q 2388 3097 2138 3097 
Q 1578 3097 1268 2742 
Q 959 2388 959 1747 
Q 959 1106 1268 751 
Q 1578 397 2138 397 
Q 2388 397 2633 464 
Q 2878 531 3122 666 
L 3122 134 
Q 2881 22 2623 -34 
Q 2366 -91 2075 -91 
Q 1284 -91 818 406 
Q 353 903 353 1747 
Q 353 2603 823 3093 
Q 1294 3584 2113 3584 
Q 2378 3584 2631 3529 
Q 2884 3475 3122 3366 
z
" transform="scale(0.015625)"/>
     <path id="DejaVuSans-74" d="M 1172 4494 
L 1172 3500 
L 2356 3500 
L 2356 3053 
L 1172 3053 
L 1172 1153 
Q 1172 725 1289 603 
Q 1406 481 1766 481 
L 2356 481 
L 2356 0 
L 1766 0 
Q 1100 0 847 248 
Q 594 497 594 1153 
L 594 3053 
L 172 3053 
L 172 3500 
L 594 3500 
L 594 4494 
L 1172 4494 
z
" transform="scale(0.015625)"/>
     <path id="DejaVuSans-61" d="M 2194 1759 
Q 1497 1759 1228 1600 
Q 959 1441 959 1056 
Q 959 750 1161 570 
Q 1363 391 1709 391 
Q 2188 391 2477 730 
Q 2766 1069 2766 1631 
L 2766 1759 
L 2194 1759 
z
M 3341 1997 
L 3341 0 
L 2766 0 
L 2766 531 
Q 2569 213 2275 61 
Q 1981 -91 1556 -91 
Q 1019 -91 701 211 
Q 384 513 384 1019 
Q 384 1609 779 1909 
Q 1175 2209 1959 2209 
L 2766 2209 
L 2766 2266 
Q 2766 2663 2505 2880 
Q 2244 3097 1772 3097 
Q 1472 3097 1187 3025 
Q 903 2953 641 2809 
L 641 3341 
Q 956 3463 1253 3523 
Q 1550 3584 1831 3584 
Q 2591 3584 2966 3190 
Q 3341 2797 3341 1997 
z
" transform="scale(0.015625)"/>
     <path id="DejaVuSans-6c" d="M 603 4863 
L 1178 4863 
L 1178 0 
L 603 0 
L 603 4863 
z
" transform="scale(0.015625)"/>
     <path id="DejaVuSans-44" d="M 1259 4147 
L 1259 519 
L 2022 519 
Q 2988 519 3436 956 
Q 3884 1394 3884 2338 
Q 3884 3275 3436 3711 
Q 2988 4147 2022 4147 
L 1259 4147 
z
M 628 4666 
L 1925 4666 
Q 3281 4666 3915 4102 
Q 4550 3538 4550 2338 
Q 4550 1131 3912 565 
Q 3275 0 1925 0 
L 628 0 
L 628 4666 
z
" transform="scale(0.015625)"/>
     <path id="DejaVuSans-6e" d="M 3513 2113 
L 3513 0 
L 2938 0 
L 2938 2094 
Q 2938 2591 2744 2837 
Q 2550 3084 2163 3084 
Q 1697 3084 1428 2787 
Q 1159 2491 1159 1978 
L 1159 0 
L 581 0 
L 581 3500 
L 1159 3500 
L 1159 2956 
Q 1366 3272 1645 3428 
Q 1925 3584 2291 3584 
Q 2894 3584 3203 3211 
Q 3513 2838 3513 2113 
z
" transform="scale(0.015625)"/>
     <path id="DejaVuSans-73" d="M 2834 3397 
L 2834 2853 
Q 2591 2978 2328 3040 
Q 2066 3103 1784 3103 
Q 1356 3103 1142 2972 
Q 928 2841 928 2578 
Q 928 2378 1081 2264 
Q 1234 2150 1697 2047 
L 1894 2003 
Q 2506 1872 2764 1633 
Q 3022 1394 3022 966 
Q 3022 478 2636 193 
Q 2250 -91 1575 -91 
Q 1294 -91 989 -36 
Q 684 19 347 128 
L 347 722 
Q 666 556 975 473 
Q 1284 391 1588 391 
Q 1994 391 2212 530 
Q 2431 669 2431 922 
Q 2431 1156 2273 1281 
Q 2116 1406 1581 1522 
L 1381 1569 
Q 847 1681 609 1914 
Q 372 2147 372 2553 
Q 372 3047 722 3315 
Q 1072 3584 1716 3584 
Q 2034 3584 2315 3537 
Q 2597 3491 2834 3397 
z
" transform="scale(0.015625)"/>
     <path id="DejaVuSans-69" d="M 603 3500 
L 1178 3500 
L 1178 0 
L 603 0 
L 603 3500 
z
M 603 4863 
L 1178 4863 
L 1178 4134 
L 603 4134 
L 603 4863 
z
" transform="scale(0.015625)"/>
     <path id="DejaVuSans-79" d="M 2059 -325 
Q 1816 -950 1584 -1140 
Q 1353 -1331 966 -1331 
L 506 -1331 
L 506 -850 
L 844 -850 
Q 1081 -850 1212 -737 
Q 1344 -625 1503 -206 
L 1606 56 
L 191 3500 
L 800 3500 
L 1894 763 
L 2988 3500 
L 3597 3500 
L 2059 -325 
z
" transform="scale(0.015625)"/>
    </defs>
    <use xlink:href="#DejaVuSans-50"/>
    <use xlink:href="#DejaVuSans-6f" x="56.677734"/>
    <use xlink:href="#DejaVuSans-77" x="117.859375"/>
    <use xlink:href="#DejaVuSans-65" x="199.646484"/>
    <use xlink:href="#DejaVuSans-72" x="261.169922"/>
    <use xlink:href="#DejaVuSans-20" x="302.283203"/>
    <use xlink:href="#DejaVuSans-53" x="334.070312"/>
    <use xlink:href="#DejaVuSans-70" x="397.546875"/>
    <use xlink:href="#DejaVuSans-65" x="461.023438"/>
    <use xlink:href="#DejaVuSans-63" x="522.546875"/>
    <use xlink:href="#DejaVuSans-74" x="577.527344"/>
    <use xlink:href="#DejaVuSans-72" x="616.736328"/>
    <use xlink:href="#DejaVuSans-61" x="657.849609"/>
    <use xlink:href="#DejaVuSans-6c" x="719.128906"/>
    <use xlink:href="#DejaVuSans-20" x="746.912109"/>
    <use xlink:href="#DejaVuSans-44" x="778.699219"/>
    <use xlink:href="#DejaVuSans-65" x="855.701172"/>
    <use xlink:href="#DejaVuSans-6e" x="917.224609"/>
    <use xlink:href="#DejaVuSans-73" x="980.603516"/>
    <use xlink:href="#DejaVuSans-69" x="1032.703125"/>
    <use xlink:href="#DejaVuSans-74" x="1060.486328"/>
    <use xlink:href="#DejaVuSans-79" x="1099.695312"/>
   </g>
  </g>
  <g id="subfigure_1">
   <g id="patch_2">
    <path d="M 0 179.710672 
L 720 179.710672 
L 720 17.61423 
L 0 17.61423 
z
" style="fill: #ffffff"/>
   </g>
   <g id="axes_1">
    <g id="patch_3">
     <path d="M 38.628365 133.119879 
L 716.99976 133.119879 
L 716.99976 35.732595 
L 38.628365 35.732595 
z
" style="fill: #ffffff"/>
    </g>
    <g id="matplotlib.axis_1">
     <g id="xtick_1">
      <g id="line2d_1">
       <defs>
        <path id="mb02717ca3e" d="M 0 0 
L 0 3.5 
" style="stroke: #000000; stroke-width: 0.8"/>
       </defs>
       <g>
        <use xlink:href="#mb02717ca3e" x="131.375399" y="133.119879" style="stroke: #000000; stroke-width: 0.8"/>
       </g>
      </g>
      <g id="text_2">
       <!-- −0.4 -->
       <g transform="translate(119.233993 147.718317) scale(0.1 -0.1)">
        <defs>
         <path id="DejaVuSans-2212" d="M 678 2272 
L 4684 2272 
L 4684 1741 
L 678 1741 
L 678 2272 
z
" transform="scale(0.015625)"/>
         <path id="DejaVuSans-30" d="M 2034 4250 
Q 1547 4250 1301 3770 
Q 1056 3291 1056 2328 
Q 1056 1369 1301 889 
Q 1547 409 2034 409 
Q 2525 409 2770 889 
Q 3016 1369 3016 2328 
Q 3016 3291 2770 3770 
Q 2525 4250 2034 4250 
z
M 2034 4750 
Q 2819 4750 3233 4129 
Q 3647 3509 3647 2328 
Q 3647 1150 3233 529 
Q 2819 -91 2034 -91 
Q 1250 -91 836 529 
Q 422 1150 422 2328 
Q 422 3509 836 4129 
Q 1250 4750 2034 4750 
z
" transform="scale(0.015625)"/>
         <path id="DejaVuSans-2e" d="M 684 794 
L 1344 794 
L 1344 0 
L 684 0 
L 684 794 
z
" transform="scale(0.015625)"/>
         <path id="DejaVuSans-34" d="M 2419 4116 
L 825 1625 
L 2419 1625 
L 2419 4116 
z
M 2253 4666 
L 3047 4666 
L 3047 1625 
L 3713 1625 
L 3713 1100 
L 3047 1100 
L 3047 0 
L 2419 0 
L 2419 1100 
L 313 1100 
L 313 1709 
L 2253 4666 
z
" transform="scale(0.015625)"/>
        </defs>
        <use xlink:href="#DejaVuSans-2212"/>
        <use xlink:href="#DejaVuSans-30" x="83.789062"/>
        <use xlink:href="#DejaVuSans-2e" x="147.412109"/>
        <use xlink:href="#DejaVuSans-34" x="179.199219"/>
       </g>
      </g>
     </g>
     <g id="xtick_2">
      <g id="line2d_2">
       <g>
        <use xlink:href="#mb02717ca3e" x="255.19934" y="133.119879" style="stroke: #000000; stroke-width: 0.8"/>
       </g>
      </g>
      <g id="text_3">
       <!-- −0.2 -->
       <g transform="translate(243.057934 147.718317) scale(0.1 -0.1)">
        <defs>
         <path id="DejaVuSans-32" d="M 1228 531 
L 3431 531 
L 3431 0 
L 469 0 
L 469 531 
Q 828 903 1448 1529 
Q 2069 2156 2228 2338 
Q 2531 2678 2651 2914 
Q 2772 3150 2772 3378 
Q 2772 3750 2511 3984 
Q 2250 4219 1831 4219 
Q 1534 4219 1204 4116 
Q 875 4013 500 3803 
L 500 4441 
Q 881 4594 1212 4672 
Q 1544 4750 1819 4750 
Q 2544 4750 2975 4387 
Q 3406 4025 3406 3419 
Q 3406 3131 3298 2873 
Q 3191 2616 2906 2266 
Q 2828 2175 2409 1742 
Q 1991 1309 1228 531 
z
" transform="scale(0.015625)"/>
        </defs>
        <use xlink:href="#DejaVuSans-2212"/>
        <use xlink:href="#DejaVuSans-30" x="83.789062"/>
        <use xlink:href="#DejaVuSans-2e" x="147.412109"/>
        <use xlink:href="#DejaVuSans-32" x="179.199219"/>
       </g>
      </g>
     </g>
     <g id="xtick_3">
      <g id="line2d_3">
       <g>
        <use xlink:href="#mb02717ca3e" x="379.023281" y="133.119879" style="stroke: #000000; stroke-width: 0.8"/>
       </g>
      </g>
      <g id="text_4">
       <!-- 0.0 -->
       <g transform="translate(371.071718 147.718317) scale(0.1 -0.1)">
        <use xlink:href="#DejaVuSans-30"/>
        <use xlink:href="#DejaVuSans-2e" x="63.623047"/>
        <use xlink:href="#DejaVuSans-30" x="95.410156"/>
       </g>
      </g>
     </g>
     <g id="xtick_4">
      <g id="line2d_4">
       <g>
        <use xlink:href="#mb02717ca3e" x="502.847222" y="133.119879" style="stroke: #000000; stroke-width: 0.8"/>
       </g>
      </g>
      <g id="text_5">
       <!-- 0.2 -->
       <g transform="translate(494.895659 147.718317) scale(0.1 -0.1)">
        <use xlink:href="#DejaVuSans-30"/>
        <use xlink:href="#DejaVuSans-2e" x="63.623047"/>
        <use xlink:href="#DejaVuSans-32" x="95.410156"/>
       </g>
      </g>
     </g>
     <g id="xtick_5">
      <g id="line2d_5">
       <g>
        <use xlink:href="#mb02717ca3e" x="626.671162" y="133.119879" style="stroke: #000000; stroke-width: 0.8"/>
       </g>
      </g>
      <g id="text_6">
       <!-- 0.4 -->
       <g transform="translate(618.7196 147.718317) scale(0.1 -0.1)">
        <use xlink:href="#DejaVuSans-30"/>
        <use xlink:href="#DejaVuSans-2e" x="63.623047"/>
        <use xlink:href="#DejaVuSans-34" x="95.410156"/>
       </g>
      </g>
     </g>
    </g>
    <g id="matplotlib.axis_2">
     <g id="ytick_1">
      <g id="line2d_6">
       <defs>
        <path id="m9bd001aaf3" d="M 0 0 
L -3.5 0 
" style="stroke: #000000; stroke-width: 0.8"/>
       </defs>
       <g>
        <use xlink:href="#m9bd001aaf3" x="38.628365" y="117.799102" style="stroke: #000000; stroke-width: 0.8"/>
       </g>
      </g>
      <g id="text_7">
       <!-- 0.010 -->
       <g transform="translate(3.00024 121.598321) scale(0.1 -0.1)">
        <defs>
         <path id="DejaVuSans-31" d="M 794 531 
L 1825 531 
L 1825 4091 
L 703 3866 
L 703 4441 
L 1819 4666 
L 2450 4666 
L 2450 531 
L 3481 531 
L 3481 0 
L 794 0 
L 794 531 
z
" transform="scale(0.015625)"/>
        </defs>
        <use xlink:href="#DejaVuSans-30"/>
        <use xlink:href="#DejaVuSans-2e" x="63.623047"/>
        <use xlink:href="#DejaVuSans-30" x="95.410156"/>
        <use xlink:href="#DejaVuSans-31" x="159.033203"/>
        <use xlink:href="#DejaVuSans-30" x="222.65625"/>
       </g>
      </g>
     </g>
     <g id="ytick_2">
      <g id="line2d_7">
       <g>
        <use xlink:href="#m9bd001aaf3" x="38.628365" y="92.301413" style="stroke: #000000; stroke-width: 0.8"/>
       </g>
      </g>
      <g id="text_8">
       <!-- 0.015 -->
       <g transform="translate(3.00024 96.100632) scale(0.1 -0.1)">
        <defs>
         <path id="DejaVuSans-35" d="M 691 4666 
L 3169 4666 
L 3169 4134 
L 1269 4134 
L 1269 2991 
Q 1406 3038 1543 3061 
Q 1681 3084 1819 3084 
Q 2600 3084 3056 2656 
Q 3513 2228 3513 1497 
Q 3513 744 3044 326 
Q 2575 -91 1722 -91 
Q 1428 -91 1123 -41 
Q 819 9 494 109 
L 494 744 
Q 775 591 1075 516 
Q 1375 441 1709 441 
Q 2250 441 2565 725 
Q 2881 1009 2881 1497 
Q 2881 1984 2565 2268 
Q 2250 2553 1709 2553 
Q 1456 2553 1204 2497 
Q 953 2441 691 2322 
L 691 4666 
z
" transform="scale(0.015625)"/>
        </defs>
        <use xlink:href="#DejaVuSans-30"/>
        <use xlink:href="#DejaVuSans-2e" x="63.623047"/>
        <use xlink:href="#DejaVuSans-30" x="95.410156"/>
        <use xlink:href="#DejaVuSans-31" x="159.033203"/>
        <use xlink:href="#DejaVuSans-35" x="222.65625"/>
       </g>
      </g>
     </g>
     <g id="ytick_3">
      <g id="line2d_8">
       <g>
        <use xlink:href="#m9bd001aaf3" x="38.628365" y="66.803725" style="stroke: #000000; stroke-width: 0.8"/>
       </g>
      </g>
      <g id="text_9">
       <!-- 0.020 -->
       <g transform="translate(3.00024 70.602943) scale(0.1 -0.1)">
        <use xlink:href="#DejaVuSans-30"/>
        <use xlink:href="#DejaVuSans-2e" x="63.623047"/>
        <use xlink:href="#DejaVuSans-30" x="95.410156"/>
        <use xlink:href="#DejaVuSans-32" x="159.033203"/>
        <use xlink:href="#DejaVuSans-30" x="222.65625"/>
       </g>
      </g>
     </g>
     <g id="ytick_4">
      <g id="line2d_9">
       <g>
        <use xlink:href="#m9bd001aaf3" x="38.628365" y="41.306036" style="stroke: #000000; stroke-width: 0.8"/>
       </g>
      </g>
      <g id="text_10">
       <!-- 0.025 -->
       <g transform="translate(3.00024 45.105255) scale(0.1 -0.1)">
        <use xlink:href="#DejaVuSans-30"/>
        <use xlink:href="#DejaVuSans-2e" x="63.623047"/>
        <use xlink:href="#DejaVuSans-30" x="95.410156"/>
        <use xlink:href="#DejaVuSans-32" x="159.033203"/>
        <use xlink:href="#DejaVuSans-35" x="222.65625"/>
       </g>
      </g>
     </g>
    </g>
    <g id="line2d_10">
     <path d="M 379.023281 127.176177 
L 381.441717 68.685314 
L 383.860153 46.55117 
L 386.27859 50.205787 
L 388.697026 46.601151 
L 391.115462 49.559747 
L 393.533899 48.267664 
L 395.952335 45.066452 
L 398.370771 47.22982 
L 400.789208 49.030928 
L 403.207644 51.529633 
L 405.62608 49.474499 
L 408.044517 47.272007 
L 410.462953 51.896899 
L 412.88139 50.645429 
L 415.299826 49.100362 
L 417.718262 47.974471 
L 420.136699 51.144494 
L 422.555135 50.729817 
L 424.973571 48.067784 
L 427.392008 45.170577 
L 429.810444 46.536454 
L 432.22888 51.221216 
L 434.647317 48.610485 
L 437.065753 49.47261 
L 439.484189 50.489997 
L 441.902626 44.460537 
L 444.321062 45.45964 
L 446.739498 48.798088 
L 449.157935 48.544196 
L 451.576371 53.157119 
L 453.994807 47.660963 
L 456.413244 48.169924 
L 458.83168 52.404677 
L 461.250116 50.485734 
L 463.668553 54.433612 
L 466.086989 51.915315 
L 468.505425 48.671001 
L 470.923862 50.194244 
L 473.342298 51.893356 
L 475.760735 50.847763 
L 478.179171 45.449264 
L 480.597607 47.990624 
L 483.016044 49.134797 
L 485.43448 50.805377 
L 487.852916 47.593296 
L 490.271353 47.672625 
L 492.689789 52.333829 
L 495.108225 48.776347 
L 497.526662 49.038153 
L 499.945098 49.669332 
L 502.363534 47.243795 
L 504.781971 46.108855 
L 507.200407 49.623486 
L 509.618843 49.599642 
L 512.03728 47.27942 
L 514.455716 46.71571 
L 516.874152 53.995081 
L 519.292589 54.397826 
L 521.711025 54.275939 
L 524.129461 50.2162 
L 526.547898 50.370173 
L 528.966334 53.814337 
L 531.38477 54.302549 
L 533.803207 48.421947 
L 536.221643 46.128218 
L 538.640079 45.648317 
L 541.058516 47.528197 
L 543.476952 45.598755 
L 545.895389 42.993674 
L 548.313825 48.415999 
L 550.732261 45.780887 
L 553.150698 47.673708 
L 555.569134 54.941113 
L 557.98757 54.370738 
L 560.406007 47.788305 
L 562.824443 46.041717 
L 565.242879 51.12945 
L 567.661316 53.160856 
L 570.079752 50.235009 
L 572.498188 51.873346 
L 574.916625 52.845321 
L 577.335061 51.60735 
L 579.753497 49.555845 
L 582.171934 46.910156 
L 584.59037 46.831419 
L 587.008806 46.264128 
L 589.427243 44.500958 
L 591.845679 49.319624 
L 594.264115 46.630098 
L 596.682552 45.934694 
L 599.100988 48.202997 
L 601.519424 48.529857 
L 603.937861 54.458762 
L 606.356297 55.542388 
L 608.774734 54.548922 
L 611.19317 54.28623 
L 613.611606 46.273372 
L 616.030043 43.758732 
L 618.448479 48.356847 
L 620.866915 53.615407 
L 623.285352 47.858741 
L 625.703788 49.77191 
L 628.122224 47.621453 
L 630.540661 47.337722 
L 632.959097 46.110377 
L 637.79597 53.997164 
L 640.214406 54.688138 
L 642.632842 53.955956 
L 645.051279 51.399568 
L 647.469715 46.400172 
L 649.888151 44.741027 
L 652.306588 50.358109 
L 654.725024 52.954758 
L 657.14346 49.969579 
L 659.561897 46.205595 
L 661.980333 48.986915 
L 664.398769 47.089765 
L 666.817206 51.011757 
L 669.235642 51.680557 
L 671.654079 53.288279 
L 674.072515 51.512671 
L 676.490951 52.344585 
L 678.909388 49.920592 
L 681.327824 46.693467 
L 686.164697 51.607828 
L 69.463428 52.751499 
L 71.881865 51.607828 
L 76.718737 46.693467 
L 79.137174 49.920592 
L 81.55561 52.344585 
L 83.974046 51.512671 
L 86.392483 53.288279 
L 88.810919 51.680557 
L 91.229356 51.011757 
L 93.647792 47.089765 
L 96.066228 48.986915 
L 98.484665 46.205595 
L 100.903101 49.969579 
L 103.321537 52.954758 
L 105.739974 50.358109 
L 108.15841 44.741027 
L 110.576846 46.400172 
L 112.995283 51.399568 
L 115.413719 53.955956 
L 117.832155 54.688138 
L 120.250592 53.997164 
L 125.087464 46.110377 
L 127.505901 47.337722 
L 129.924337 47.621453 
L 132.342773 49.77191 
L 134.76121 47.858741 
L 137.179646 53.615407 
L 139.598082 48.356847 
L 142.016519 43.758732 
L 144.434955 46.273372 
L 146.853391 54.28623 
L 149.271828 54.548922 
L 151.690264 55.542388 
L 154.108701 54.458762 
L 156.527137 48.529857 
L 158.945573 48.202997 
L 161.36401 45.934694 
L 163.782446 46.630098 
L 166.200882 49.319624 
L 168.619319 44.500958 
L 171.037755 46.264128 
L 173.456191 46.831419 
L 175.874628 46.910156 
L 178.293064 49.555845 
L 180.7115 51.60735 
L 183.129937 52.845321 
L 185.548373 51.873346 
L 187.966809 50.235009 
L 190.385246 53.160856 
L 192.803682 51.12945 
L 195.222118 46.041717 
L 197.640555 47.788305 
L 200.058991 54.370738 
L 202.477427 54.941113 
L 204.895864 47.673708 
L 207.3143 45.780887 
L 209.732736 48.415999 
L 212.151173 42.993674 
L 214.569609 45.598755 
L 216.988046 47.528197 
L 219.406482 45.648317 
L 221.824918 46.128218 
L 224.243355 48.421947 
L 226.661791 54.302549 
L 229.080227 53.814337 
L 231.498664 50.370173 
L 233.9171 50.2162 
L 236.335536 54.275939 
L 238.753973 54.397826 
L 241.172409 53.995081 
L 243.590845 46.71571 
L 246.009282 47.27942 
L 248.427718 49.599642 
L 250.846154 49.623486 
L 253.264591 46.108855 
L 255.683027 47.243795 
L 258.101463 49.669332 
L 260.5199 49.038153 
L 262.938336 48.776347 
L 265.356772 52.333829 
L 267.775209 47.672625 
L 270.193645 47.593296 
L 272.612081 50.805377 
L 275.030518 49.134797 
L 277.448954 47.990624 
L 279.86739 45.449264 
L 282.285827 50.847763 
L 284.704263 51.893356 
L 287.1227 50.194244 
L 289.541136 48.671001 
L 291.959572 51.915315 
L 294.378009 54.433612 
L 296.796445 50.485734 
L 299.214881 52.404677 
L 301.633318 48.169924 
L 304.051754 47.660963 
L 306.47019 53.157119 
L 308.888627 48.544196 
L 311.307063 48.798088 
L 313.725499 45.45964 
L 316.143936 44.460537 
L 318.562372 50.489997 
L 320.980808 49.47261 
L 323.399245 48.610485 
L 325.817681 51.221216 
L 328.236117 46.536454 
L 330.654554 45.170577 
L 333.07299 48.067784 
L 335.491426 50.729817 
L 337.909863 51.144494 
L 340.328299 47.974471 
L 342.746735 49.100362 
L 345.165172 50.645429 
L 347.583608 51.896899 
L 350.002045 47.272007 
L 354.838917 51.529633 
L 357.257354 49.030928 
L 359.67579 47.22982 
L 362.094226 45.066452 
L 364.512663 48.267664 
L 366.931099 49.559747 
L 369.349535 46.601151 
L 371.767972 50.205787 
L 374.186408 46.55117 
L 376.604844 68.685314 
L 376.604844 68.685314 
" clip-path="url(#pddf2398e6f)" style="fill: none; stroke: #1f77b4; stroke-width: 1.5; stroke-linecap: square"/>
    </g>
    <g id="line2d_11">
     <path d="M 379.023281 128.693185 
L 381.441717 67.24605 
L 383.860153 52.569208 
L 386.27859 52.941778 
L 388.697026 53.175897 
L 393.533899 48.805377 
L 395.952335 48.981452 
L 398.370771 53.026567 
L 400.789208 48.339685 
L 403.207644 50.216761 
L 405.62608 47.58139 
L 408.044517 44.719801 
L 410.462953 45.302668 
L 412.88139 48.02315 
L 415.299826 52.396178 
L 417.718262 50.401721 
L 420.136699 48.730105 
L 422.555135 52.329688 
L 424.973571 47.779951 
L 427.392008 47.131855 
L 429.810444 47.966878 
L 432.22888 51.162041 
L 434.647317 54.974934 
L 437.065753 52.703624 
L 439.484189 55.246756 
L 441.902626 50.598028 
L 444.321062 51.068399 
L 446.739498 50.492294 
L 449.157935 46.625136 
L 451.576371 53.744649 
L 453.994807 53.174632 
L 456.413244 53.396552 
L 458.83168 56.835118 
L 461.250116 50.913406 
L 463.668553 49.686812 
L 466.086989 50.904219 
L 468.505425 49.360255 
L 470.923862 46.346099 
L 473.342298 46.455647 
L 475.760735 46.126156 
L 478.179171 52.360729 
L 480.597607 55.817711 
L 483.016044 54.356584 
L 485.43448 49.96871 
L 487.852916 48.251031 
L 490.271353 51.901031 
L 492.689789 48.481266 
L 495.108225 42.614797 
L 497.526662 46.649766 
L 499.945098 52.821559 
L 502.363534 49.10587 
L 504.781971 43.967057 
L 507.200407 46.734174 
L 509.618843 48.33236 
L 512.03728 46.270652 
L 514.455716 46.264845 
L 516.874152 45.1524 
L 519.292589 47.56359 
L 521.711025 46.29693 
L 524.129461 48.849087 
L 526.547898 47.385113 
L 528.966334 44.263087 
L 531.38477 51.342849 
L 533.803207 50.364411 
L 536.221643 48.905225 
L 538.640079 49.043318 
L 541.058516 47.942071 
L 543.476952 53.98777 
L 545.895389 51.845088 
L 548.313825 48.222979 
L 550.732261 46.792252 
L 553.150698 45.085411 
L 555.569134 50.486424 
L 557.98757 51.926773 
L 560.406007 48.779904 
L 562.824443 53.392755 
L 565.242879 53.716302 
L 567.661316 49.38454 
L 570.079752 44.281605 
L 572.498188 45.573651 
L 574.916625 51.300931 
L 577.335061 51.482217 
L 579.753497 48.804227 
L 582.171934 48.78838 
L 584.59037 51.292001 
L 587.008806 49.867498 
L 589.427243 49.524049 
L 591.845679 44.135103 
L 594.264115 46.487394 
L 596.682552 50.068702 
L 599.100988 50.140731 
L 601.519424 50.649909 
L 603.937861 52.812116 
L 606.356297 51.709568 
L 608.774734 49.800881 
L 611.19317 49.206751 
L 613.611606 48.809277 
L 616.030043 45.829558 
L 618.448479 46.769295 
L 620.866915 46.62962 
L 625.703788 51.92873 
L 628.122224 51.097969 
L 630.540661 51.92266 
L 635.377533 43.431162 
L 637.79597 44.90804 
L 640.214406 44.829002 
L 642.632842 46.460879 
L 645.051279 46.302365 
L 647.469715 45.713494 
L 649.888151 50.164696 
L 652.306588 50.952629 
L 654.725024 46.868476 
L 657.14346 47.925928 
L 659.561897 51.476312 
L 661.980333 47.986547 
L 664.398769 45.595137 
L 666.817206 49.632683 
L 669.235642 47.493524 
L 671.654079 47.072155 
L 674.072515 45.817769 
L 676.490951 50.718373 
L 678.909388 50.605228 
L 681.327824 49.000199 
L 683.74626 44.21272 
L 686.164697 40.972794 
L 69.463428 45.183913 
L 71.881865 40.972794 
L 74.300301 44.21272 
L 76.718737 49.000199 
L 79.137174 50.605228 
L 81.55561 50.718373 
L 83.974046 45.817769 
L 86.392483 47.072155 
L 88.810919 47.493524 
L 91.229356 49.632683 
L 93.647792 45.595137 
L 96.066228 47.986547 
L 98.484665 51.476312 
L 100.903101 47.925928 
L 103.321537 46.868476 
L 105.739974 50.952629 
L 108.15841 50.164696 
L 110.576846 45.713494 
L 112.995283 46.302365 
L 115.413719 46.460879 
L 117.832155 44.829002 
L 120.250592 44.90804 
L 122.669028 43.431162 
L 127.505901 51.92266 
L 129.924337 51.097969 
L 132.342773 51.92873 
L 137.179646 46.62962 
L 139.598082 46.769295 
L 142.016519 45.829558 
L 144.434955 48.809277 
L 146.853391 49.206751 
L 149.271828 49.800881 
L 151.690264 51.709568 
L 154.108701 52.812116 
L 156.527137 50.649909 
L 158.945573 50.140731 
L 161.36401 50.068702 
L 163.782446 46.487394 
L 166.200882 44.135103 
L 168.619319 49.524049 
L 171.037755 49.867498 
L 173.456191 51.292001 
L 175.874628 48.78838 
L 178.293064 48.804227 
L 180.7115 51.482217 
L 183.129937 51.300931 
L 185.548373 45.573651 
L 187.966809 44.281605 
L 190.385246 49.38454 
L 192.803682 53.716302 
L 195.222118 53.392755 
L 197.640555 48.779904 
L 200.058991 51.926773 
L 202.477427 50.486424 
L 204.895864 45.085411 
L 207.3143 46.792252 
L 209.732736 48.222979 
L 212.151173 51.845088 
L 214.569609 53.98777 
L 216.988046 47.942071 
L 219.406482 49.043318 
L 221.824918 48.905225 
L 224.243355 50.364411 
L 226.661791 51.342849 
L 229.080227 44.263087 
L 231.498664 47.385113 
L 233.9171 48.849087 
L 236.335536 46.29693 
L 238.753973 47.56359 
L 241.172409 45.1524 
L 243.590845 46.264845 
L 246.009282 46.270652 
L 248.427718 48.33236 
L 250.846154 46.734174 
L 253.264591 43.967057 
L 255.683027 49.10587 
L 258.101463 52.821559 
L 260.5199 46.649766 
L 262.938336 42.614797 
L 265.356772 48.481266 
L 267.775209 51.901031 
L 270.193645 48.251031 
L 272.612081 49.96871 
L 275.030518 54.356584 
L 277.448954 55.817711 
L 279.86739 52.360729 
L 282.285827 46.126156 
L 284.704263 46.455647 
L 287.1227 46.346099 
L 289.541136 49.360255 
L 291.959572 50.904219 
L 294.378009 49.686812 
L 296.796445 50.913406 
L 299.214881 56.835118 
L 301.633318 53.396552 
L 304.051754 53.174632 
L 306.47019 53.744649 
L 308.888627 46.625136 
L 311.307063 50.492294 
L 313.725499 51.068399 
L 316.143936 50.598028 
L 318.562372 55.246756 
L 320.980808 52.703624 
L 323.399245 54.974934 
L 325.817681 51.162041 
L 328.236117 47.966878 
L 330.654554 47.131855 
L 333.07299 47.779951 
L 335.491426 52.329688 
L 337.909863 48.730105 
L 340.328299 50.401721 
L 342.746735 52.396178 
L 345.165172 48.02315 
L 347.583608 45.302668 
L 350.002045 44.719801 
L 352.420481 47.58139 
L 354.838917 50.216761 
L 357.257354 48.339685 
L 359.67579 53.026567 
L 362.094226 48.981452 
L 364.512663 48.805377 
L 369.349535 53.175897 
L 371.767972 52.941778 
L 374.186408 52.569208 
L 376.604844 67.24605 
L 376.604844 67.24605 
" clip-path="url(#pddf2398e6f)" style="fill: none; stroke: #ff7f0e; stroke-width: 1.5; stroke-linecap: square"/>
    </g>
    <g id="line2d_12">
     <path d="M 379.023281 128.619503 
L 381.441717 65.696992 
L 383.860153 42.651189 
L 386.27859 51.652578 
L 388.697026 52.177583 
L 391.115462 50.177876 
L 393.533899 46.713242 
L 395.952335 47.260478 
L 398.370771 51.118142 
L 400.789208 54.200137 
L 403.207644 51.624821 
L 405.62608 52.32195 
L 408.044517 53.650356 
L 410.462953 54.629363 
L 412.88139 48.688119 
L 415.299826 47.933525 
L 417.718262 49.339754 
L 420.136699 49.879409 
L 422.555135 46.025035 
L 424.973571 53.019296 
L 427.392008 50.492946 
L 429.810444 51.13419 
L 432.22888 54.939007 
L 434.647317 49.038931 
L 437.065753 44.248469 
L 439.484189 42.767321 
L 441.902626 44.566444 
L 444.321062 44.048776 
L 446.739498 48.044313 
L 449.157935 50.112906 
L 451.576371 50.080285 
L 453.994807 49.527144 
L 456.413244 52.492456 
L 458.83168 49.343933 
L 461.250116 47.490787 
L 463.668553 46.631165 
L 466.086989 49.53946 
L 468.505425 47.853089 
L 470.923862 41.306081 
L 473.342298 44.929604 
L 475.760735 47.007874 
L 478.179171 55.431739 
L 480.597607 56.976875 
L 483.016044 53.844862 
L 485.43448 52.393849 
L 487.852916 49.416636 
L 490.271353 51.644937 
L 492.689789 50.396948 
L 495.108225 51.670199 
L 497.526662 49.389323 
L 499.945098 52.907514 
L 502.363534 49.902213 
L 504.781971 46.492072 
L 507.200407 46.974052 
L 509.618843 48.154418 
L 512.03728 46.427735 
L 514.455716 46.894934 
L 516.874152 55.067443 
L 519.292589 50.633449 
L 521.711025 50.621014 
L 524.129461 48.536503 
L 526.547898 44.480526 
L 528.966334 42.507177 
L 531.38477 42.746773 
L 533.803207 48.201654 
L 536.221643 48.097132 
L 538.640079 48.37521 
L 541.058516 51.866398 
L 543.476952 46.514077 
L 545.895389 51.014278 
L 548.313825 53.09249 
L 550.732261 51.093369 
L 553.150698 51.332753 
L 555.569134 47.402146 
L 557.98757 45.52868 
L 560.406007 47.628936 
L 562.824443 48.368847 
L 565.242879 50.492544 
L 567.661316 48.511435 
L 570.079752 52.618397 
L 572.498188 50.043106 
L 577.335061 45.842569 
L 579.753497 53.543756 
L 582.171934 54.770112 
L 584.59037 46.704999 
L 587.008806 43.598193 
L 589.427243 45.992288 
L 591.845679 44.242727 
L 594.264115 46.343178 
L 596.682552 48.149836 
L 599.100988 48.91307 
L 601.519424 49.027078 
L 603.937861 52.149798 
L 606.356297 52.223502 
L 608.774734 50.475713 
L 611.19317 47.859093 
L 613.611606 50.367237 
L 616.030043 51.687317 
L 618.448479 51.35538 
L 620.866915 44.588985 
L 623.285352 44.940321 
L 625.703788 50.263032 
L 628.122224 51.250628 
L 630.540661 50.502695 
L 632.959097 47.077177 
L 635.377533 43.910115 
L 637.79597 50.318567 
L 640.214406 52.874394 
L 642.632842 46.16971 
L 645.051279 48.791334 
L 647.469715 50.217362 
L 649.888151 50.857571 
L 652.306588 45.984729 
L 654.725024 40.15929 
L 657.14346 43.927529 
L 659.561897 44.439243 
L 661.980333 46.023111 
L 664.398769 47.13971 
L 666.817206 46.691958 
L 669.235642 47.295287 
L 671.654079 50.586297 
L 674.072515 46.599977 
L 676.490951 47.307101 
L 678.909388 47.045984 
L 681.327824 46.535274 
L 683.74626 50.320633 
L 686.164697 48.743822 
L 69.463428 48.295938 
L 71.881865 48.743822 
L 74.300301 50.320633 
L 76.718737 46.535274 
L 79.137174 47.045984 
L 81.55561 47.307101 
L 83.974046 46.599977 
L 86.392483 50.586297 
L 88.810919 47.295287 
L 91.229356 46.691958 
L 93.647792 47.13971 
L 96.066228 46.023111 
L 98.484665 44.439243 
L 100.903101 43.927529 
L 103.321537 40.15929 
L 105.739974 45.984729 
L 108.15841 50.857571 
L 110.576846 50.217362 
L 112.995283 48.791334 
L 115.413719 46.16971 
L 117.832155 52.874394 
L 120.250592 50.318567 
L 122.669028 43.910115 
L 125.087464 47.077177 
L 127.505901 50.502695 
L 129.924337 51.250628 
L 132.342773 50.263032 
L 134.76121 44.940321 
L 137.179646 44.588985 
L 139.598082 51.35538 
L 142.016519 51.687317 
L 144.434955 50.367237 
L 146.853391 47.859093 
L 149.271828 50.475713 
L 151.690264 52.223502 
L 154.108701 52.149798 
L 156.527137 49.027078 
L 158.945573 48.91307 
L 161.36401 48.149836 
L 163.782446 46.343178 
L 166.200882 44.242727 
L 168.619319 45.992288 
L 171.037755 43.598193 
L 173.456191 46.704999 
L 175.874628 54.770112 
L 178.293064 53.543756 
L 180.7115 45.842569 
L 185.548373 50.043106 
L 187.966809 52.618397 
L 190.385246 48.511435 
L 192.803682 50.492544 
L 195.222118 48.368847 
L 197.640555 47.628936 
L 200.058991 45.52868 
L 202.477427 47.402146 
L 204.895864 51.332753 
L 207.3143 51.093369 
L 209.732736 53.09249 
L 212.151173 51.014278 
L 214.569609 46.514077 
L 216.988046 51.866398 
L 219.406482 48.37521 
L 221.824918 48.097132 
L 224.243355 48.201654 
L 226.661791 42.746773 
L 229.080227 42.507177 
L 231.498664 44.480526 
L 233.9171 48.536503 
L 236.335536 50.621014 
L 238.753973 50.633449 
L 241.172409 55.067443 
L 243.590845 46.894934 
L 246.009282 46.427735 
L 248.427718 48.154418 
L 250.846154 46.974052 
L 253.264591 46.492072 
L 255.683027 49.902213 
L 258.101463 52.907514 
L 260.5199 49.389323 
L 262.938336 51.670199 
L 265.356772 50.396948 
L 267.775209 51.644937 
L 270.193645 49.416636 
L 272.612081 52.393849 
L 275.030518 53.844862 
L 277.448954 56.976875 
L 279.86739 55.431739 
L 282.285827 47.007874 
L 284.704263 44.929604 
L 287.1227 41.306081 
L 289.541136 47.853089 
L 291.959572 49.53946 
L 294.378009 46.631165 
L 296.796445 47.490787 
L 299.214881 49.343933 
L 301.633318 52.492456 
L 304.051754 49.527144 
L 306.47019 50.080285 
L 308.888627 50.112906 
L 311.307063 48.044313 
L 313.725499 44.048776 
L 316.143936 44.566444 
L 318.562372 42.767321 
L 320.980808 44.248469 
L 323.399245 49.038931 
L 325.817681 54.939007 
L 328.236117 51.13419 
L 330.654554 50.492946 
L 333.07299 53.019296 
L 335.491426 46.025035 
L 337.909863 49.879409 
L 340.328299 49.339754 
L 342.746735 47.933525 
L 345.165172 48.688119 
L 347.583608 54.629363 
L 350.002045 53.650356 
L 352.420481 52.32195 
L 354.838917 51.624821 
L 357.257354 54.200137 
L 359.67579 51.118142 
L 362.094226 47.260478 
L 364.512663 46.713242 
L 366.931099 50.177876 
L 369.349535 52.177583 
L 371.767972 51.652578 
L 374.186408 42.651189 
L 376.604844 65.696992 
L 376.604844 65.696992 
" clip-path="url(#pddf2398e6f)" style="fill: none; stroke: #2ca02c; stroke-width: 1.5; stroke-linecap: square"/>
    </g>
    <g id="patch_4">
     <path d="M 38.628365 133.119879 
L 38.628365 35.732595 
" style="fill: none; stroke: #000000; stroke-width: 0.8; stroke-linejoin: miter; stroke-linecap: square"/>
    </g>
    <g id="patch_5">
     <path d="M 716.99976 133.119879 
L 716.99976 35.732595 
" style="fill: none; stroke: #000000; stroke-width: 0.8; stroke-linejoin: miter; stroke-linecap: square"/>
    </g>
    <g id="patch_6">
     <path d="M 38.628365 133.119879 
L 716.99976 133.119879 
" style="fill: none; stroke: #000000; stroke-width: 0.8; stroke-linejoin: miter; stroke-linecap: square"/>
    </g>
    <g id="patch_7">
     <path d="M 38.628365 35.732595 
L 716.99976 35.732595 
" style="fill: none; stroke: #000000; stroke-width: 0.8; stroke-linejoin: miter; stroke-linecap: square"/>
    </g>
    <g id="text_11">
     <!-- White Noise -->
     <g transform="translate(341.816875 29.732595) scale(0.12 -0.12)">
      <defs>
       <path id="DejaVuSans-57" d="M 213 4666 
L 850 4666 
L 1831 722 
L 2809 4666 
L 3519 4666 
L 4500 722 
L 5478 4666 
L 6119 4666 
L 4947 0 
L 4153 0 
L 3169 4050 
L 2175 0 
L 1381 0 
L 213 4666 
z
" transform="scale(0.015625)"/>
       <path id="DejaVuSans-68" d="M 3513 2113 
L 3513 0 
L 2938 0 
L 2938 2094 
Q 2938 2591 2744 2837 
Q 2550 3084 2163 3084 
Q 1697 3084 1428 2787 
Q 1159 2491 1159 1978 
L 1159 0 
L 581 0 
L 581 4863 
L 1159 4863 
L 1159 2956 
Q 1366 3272 1645 3428 
Q 1925 3584 2291 3584 
Q 2894 3584 3203 3211 
Q 3513 2838 3513 2113 
z
" transform="scale(0.015625)"/>
       <path id="DejaVuSans-4e" d="M 628 4666 
L 1478 4666 
L 3547 763 
L 3547 4666 
L 4159 4666 
L 4159 0 
L 3309 0 
L 1241 3903 
L 1241 0 
L 628 0 
L 628 4666 
z
" transform="scale(0.015625)"/>
      </defs>
      <use xlink:href="#DejaVuSans-57"/>
      <use xlink:href="#DejaVuSans-68" x="98.876953"/>
      <use xlink:href="#DejaVuSans-69" x="162.255859"/>
      <use xlink:href="#DejaVuSans-74" x="190.039062"/>
      <use xlink:href="#DejaVuSans-65" x="229.248047"/>
      <use xlink:href="#DejaVuSans-20" x="290.771484"/>
      <use xlink:href="#DejaVuSans-4e" x="322.558594"/>
      <use xlink:href="#DejaVuSans-6f" x="397.363281"/>
      <use xlink:href="#DejaVuSans-69" x="458.544922"/>
      <use xlink:href="#DejaVuSans-73" x="486.328125"/>
      <use xlink:href="#DejaVuSans-65" x="538.427734"/>
     </g>
    </g>
    <g id="legend_1">
     <g id="patch_8">
      <path d="M 267.166406 180.144825 
L 488.461719 180.144825 
Q 490.461719 180.144825 490.461719 178.144825 
L 490.461719 164.4667 
Q 490.461719 162.4667 488.461719 162.4667 
L 267.166406 162.4667 
Q 265.166406 162.4667 265.166406 164.4667 
L 265.166406 178.144825 
Q 265.166406 180.144825 267.166406 180.144825 
z
" style="fill: #ffffff; opacity: 0.8; stroke: #cccccc; stroke-linejoin: miter"/>
     </g>
     <g id="line2d_13">
      <path d="M 269.166406 170.565138 
L 279.166406 170.565138 
L 289.166406 170.565138 
" style="fill: none; stroke: #1f77b4; stroke-width: 1.5; stroke-linecap: square"/>
     </g>
     <g id="text_12">
      <!-- Real 1 -->
      <g transform="translate(297.166406 174.065138) scale(0.1 -0.1)">
       <defs>
        <path id="DejaVuSans-52" d="M 2841 2188 
Q 3044 2119 3236 1894 
Q 3428 1669 3622 1275 
L 4263 0 
L 3584 0 
L 2988 1197 
Q 2756 1666 2539 1819 
Q 2322 1972 1947 1972 
L 1259 1972 
L 1259 0 
L 628 0 
L 628 4666 
L 2053 4666 
Q 2853 4666 3247 4331 
Q 3641 3997 3641 3322 
Q 3641 2881 3436 2590 
Q 3231 2300 2841 2188 
z
M 1259 4147 
L 1259 2491 
L 2053 2491 
Q 2509 2491 2742 2702 
Q 2975 2913 2975 3322 
Q 2975 3731 2742 3939 
Q 2509 4147 2053 4147 
L 1259 4147 
z
" transform="scale(0.015625)"/>
       </defs>
       <use xlink:href="#DejaVuSans-52"/>
       <use xlink:href="#DejaVuSans-65" x="64.982422"/>
       <use xlink:href="#DejaVuSans-61" x="126.505859"/>
       <use xlink:href="#DejaVuSans-6c" x="187.785156"/>
       <use xlink:href="#DejaVuSans-20" x="215.568359"/>
       <use xlink:href="#DejaVuSans-31" x="247.355469"/>
      </g>
     </g>
     <g id="line2d_14">
      <path d="M 348.264844 170.565138 
L 358.264844 170.565138 
L 368.264844 170.565138 
" style="fill: none; stroke: #ff7f0e; stroke-width: 1.5; stroke-linecap: square"/>
     </g>
     <g id="text_13">
      <!-- Real 2 -->
      <g transform="translate(376.264844 174.065138) scale(0.1 -0.1)">
       <use xlink:href="#DejaVuSans-52"/>
       <use xlink:href="#DejaVuSans-65" x="64.982422"/>
       <use xlink:href="#DejaVuSans-61" x="126.505859"/>
       <use xlink:href="#DejaVuSans-6c" x="187.785156"/>
       <use xlink:href="#DejaVuSans-20" x="215.568359"/>
       <use xlink:href="#DejaVuSans-32" x="247.355469"/>
      </g>
     </g>
     <g id="line2d_15">
      <path d="M 427.363281 170.565138 
L 437.363281 170.565138 
L 447.363281 170.565138 
" style="fill: none; stroke: #2ca02c; stroke-width: 1.5; stroke-linecap: square"/>
     </g>
     <g id="text_14">
      <!-- Real 3 -->
      <g transform="translate(455.363281 174.065138) scale(0.1 -0.1)">
       <defs>
        <path id="DejaVuSans-33" d="M 2597 2516 
Q 3050 2419 3304 2112 
Q 3559 1806 3559 1356 
Q 3559 666 3084 287 
Q 2609 -91 1734 -91 
Q 1441 -91 1130 -33 
Q 819 25 488 141 
L 488 750 
Q 750 597 1062 519 
Q 1375 441 1716 441 
Q 2309 441 2620 675 
Q 2931 909 2931 1356 
Q 2931 1769 2642 2001 
Q 2353 2234 1838 2234 
L 1294 2234 
L 1294 2753 
L 1863 2753 
Q 2328 2753 2575 2939 
Q 2822 3125 2822 3475 
Q 2822 3834 2567 4026 
Q 2313 4219 1838 4219 
Q 1578 4219 1281 4162 
Q 984 4106 628 3988 
L 628 4550 
Q 988 4650 1302 4700 
Q 1616 4750 1894 4750 
Q 2613 4750 3031 4423 
Q 3450 4097 3450 3541 
Q 3450 3153 3228 2886 
Q 3006 2619 2597 2516 
z
" transform="scale(0.015625)"/>
       </defs>
       <use xlink:href="#DejaVuSans-52"/>
       <use xlink:href="#DejaVuSans-65" x="64.982422"/>
       <use xlink:href="#DejaVuSans-61" x="126.505859"/>
       <use xlink:href="#DejaVuSans-6c" x="187.785156"/>
       <use xlink:href="#DejaVuSans-20" x="215.568359"/>
       <use xlink:href="#DejaVuSans-33" x="247.355469"/>
      </g>
     </g>
    </g>
   </g>
  </g>
  <g id="subfigure_2">
   <g id="patch_9">
    <path d="M 0 359.807115 
L 720 359.807115 
L 720 197.710672 
L 0 197.710672 
z
" style="fill: #ffffff"/>
   </g>
   <g id="axes_2">
    <g id="patch_10">
     <path d="M 22.72524 313.216322 
L 716.99976 313.216322 
L 716.99976 215.829038 
L 22.72524 215.829038 
z
" style="fill: #ffffff"/>
    </g>
    <g id="matplotlib.axis_3">
     <g id="xtick_6">
      <g id="line2d_16">
       <g>
        <use xlink:href="#mb02717ca3e" x="117.646551" y="313.216322" style="stroke: #000000; stroke-width: 0.8"/>
       </g>
      </g>
      <g id="text_15">
       <!-- −0.4 -->
       <g transform="translate(105.505145 327.814759) scale(0.1 -0.1)">
        <use xlink:href="#DejaVuSans-2212"/>
        <use xlink:href="#DejaVuSans-30" x="83.789062"/>
        <use xlink:href="#DejaVuSans-2e" x="147.412109"/>
        <use xlink:href="#DejaVuSans-34" x="179.199219"/>
       </g>
      </g>
     </g>
     <g id="xtick_7">
      <g id="line2d_17">
       <g>
        <use xlink:href="#mb02717ca3e" x="244.373309" y="313.216322" style="stroke: #000000; stroke-width: 0.8"/>
       </g>
      </g>
      <g id="text_16">
       <!-- −0.2 -->
       <g transform="translate(232.231902 327.814759) scale(0.1 -0.1)">
        <use xlink:href="#DejaVuSans-2212"/>
        <use xlink:href="#DejaVuSans-30" x="83.789062"/>
        <use xlink:href="#DejaVuSans-2e" x="147.412109"/>
        <use xlink:href="#DejaVuSans-32" x="179.199219"/>
       </g>
      </g>
     </g>
     <g id="xtick_8">
      <g id="line2d_18">
       <g>
        <use xlink:href="#mb02717ca3e" x="371.100066" y="313.216322" style="stroke: #000000; stroke-width: 0.8"/>
       </g>
      </g>
      <g id="text_17">
       <!-- 0.0 -->
       <g transform="translate(363.148503 327.814759) scale(0.1 -0.1)">
        <use xlink:href="#DejaVuSans-30"/>
        <use xlink:href="#DejaVuSans-2e" x="63.623047"/>
        <use xlink:href="#DejaVuSans-30" x="95.410156"/>
       </g>
      </g>
     </g>
     <g id="xtick_9">
      <g id="line2d_19">
       <g>
        <use xlink:href="#mb02717ca3e" x="497.826823" y="313.216322" style="stroke: #000000; stroke-width: 0.8"/>
       </g>
      </g>
      <g id="text_18">
       <!-- 0.2 -->
       <g transform="translate(489.875261 327.814759) scale(0.1 -0.1)">
        <use xlink:href="#DejaVuSans-30"/>
        <use xlink:href="#DejaVuSans-2e" x="63.623047"/>
        <use xlink:href="#DejaVuSans-32" x="95.410156"/>
       </g>
      </g>
     </g>
     <g id="xtick_10">
      <g id="line2d_20">
       <g>
        <use xlink:href="#mb02717ca3e" x="624.553581" y="313.216322" style="stroke: #000000; stroke-width: 0.8"/>
       </g>
      </g>
      <g id="text_19">
       <!-- 0.4 -->
       <g transform="translate(616.602018 327.814759) scale(0.1 -0.1)">
        <use xlink:href="#DejaVuSans-30"/>
        <use xlink:href="#DejaVuSans-2e" x="63.623047"/>
        <use xlink:href="#DejaVuSans-34" x="95.410156"/>
       </g>
      </g>
     </g>
    </g>
    <g id="matplotlib.axis_4">
     <g id="ytick_5">
      <g id="line2d_21">
       <g>
        <use xlink:href="#m9bd001aaf3" x="22.72524" y="308.801294" style="stroke: #000000; stroke-width: 0.8"/>
       </g>
      </g>
      <g id="text_20">
       <!-- 0 -->
       <g transform="translate(9.36274 312.600513) scale(0.1 -0.1)">
        <use xlink:href="#DejaVuSans-30"/>
       </g>
      </g>
     </g>
     <g id="ytick_6">
      <g id="line2d_22">
       <g>
        <use xlink:href="#m9bd001aaf3" x="22.72524" y="267.798973" style="stroke: #000000; stroke-width: 0.8"/>
       </g>
      </g>
      <g id="text_21">
       <!-- 20 -->
       <g transform="translate(3.00024 271.598191) scale(0.1 -0.1)">
        <use xlink:href="#DejaVuSans-32"/>
        <use xlink:href="#DejaVuSans-30" x="63.623047"/>
       </g>
      </g>
     </g>
     <g id="ytick_7">
      <g id="line2d_23">
       <g>
        <use xlink:href="#m9bd001aaf3" x="22.72524" y="226.796651" style="stroke: #000000; stroke-width: 0.8"/>
       </g>
      </g>
      <g id="text_22">
       <!-- 40 -->
       <g transform="translate(3.00024 230.59587) scale(0.1 -0.1)">
        <use xlink:href="#DejaVuSans-34"/>
        <use xlink:href="#DejaVuSans-30" x="63.623047"/>
       </g>
      </g>
     </g>
    </g>
    <g id="line2d_24">
     <path d="M 371.100066 283.444269 
L 373.575198 222.543108 
L 376.05033 278.745738 
L 378.525462 298.619467 
L 381.000594 303.372418 
L 383.475726 305.452447 
L 385.950858 306.512856 
L 390.901122 307.511709 
L 395.851386 308.006733 
L 403.276782 308.332466 
L 415.652442 308.553402 
L 447.829157 308.712993 
L 527.033381 308.777707 
L 685.441827 308.789515 
L 54.283173 308.789627 
L 289.420711 308.725851 
L 329.022822 308.524537 
L 341.398482 308.229402 
L 346.348746 308.006733 
L 351.29901 307.511709 
L 356.249274 306.512856 
L 358.724406 305.452447 
L 361.199538 303.372418 
L 363.67467 298.619467 
L 366.149802 278.745738 
L 368.624934 222.543108 
L 368.624934 222.543108 
" clip-path="url(#pec55403012)" style="fill: none; stroke: #1f77b4; stroke-width: 1.5; stroke-linecap: square"/>
    </g>
    <g id="line2d_25">
     <path d="M 371.100066 280.806317 
L 373.575198 220.255732 
L 376.05033 279.660044 
L 378.525462 298.948152 
L 381.000594 303.618005 
L 383.475726 305.509121 
L 385.950858 306.524664 
L 388.42599 307.118351 
L 390.901122 307.57495 
L 398.326518 308.124512 
L 410.702178 308.487638 
L 432.978365 308.676028 
L 554.259832 308.782396 
L 685.441827 308.788444 
L 54.283173 308.78886 
L 304.271503 308.689294 
L 331.497954 308.487638 
L 338.92335 308.306257 
L 346.348746 307.996842 
L 351.29901 307.57495 
L 353.774142 307.118351 
L 356.249274 306.524664 
L 358.724406 305.509121 
L 361.199538 303.618005 
L 363.67467 298.948152 
L 366.149802 279.660044 
L 368.624934 220.255732 
L 368.624934 220.255732 
" clip-path="url(#pec55403012)" style="fill: none; stroke: #ff7f0e; stroke-width: 1.5; stroke-linecap: square"/>
    </g>
    <g id="line2d_26">
     <path d="M 371.100066 281.844959 
L 373.575198 221.214136 
L 376.05033 277.749992 
L 378.525462 298.664367 
L 381.000594 303.606908 
L 383.475726 305.488198 
L 385.950858 306.483068 
L 388.42599 307.10061 
L 390.901122 307.543549 
L 393.376254 307.843082 
L 400.80165 308.25892 
L 408.227046 308.437568 
L 423.077838 308.618373 
L 445.354025 308.709106 
L 531.983645 308.77761 
L 685.441827 308.789229 
L 54.283173 308.789185 
L 304.271503 308.682721 
L 331.497954 308.483675 
L 343.873614 308.150027 
L 348.823878 307.843082 
L 351.29901 307.543549 
L 353.774142 307.10061 
L 356.249274 306.483068 
L 358.724406 305.488198 
L 361.199538 303.606908 
L 363.67467 298.664367 
L 366.149802 277.749992 
L 368.624934 221.214136 
L 368.624934 221.214136 
" clip-path="url(#pec55403012)" style="fill: none; stroke: #2ca02c; stroke-width: 1.5; stroke-linecap: square"/>
    </g>
    <g id="patch_11">
     <path d="M 22.72524 313.216322 
L 22.72524 215.829037 
" style="fill: none; stroke: #000000; stroke-width: 0.8; stroke-linejoin: miter; stroke-linecap: square"/>
    </g>
    <g id="patch_12">
     <path d="M 716.99976 313.216322 
L 716.99976 215.829037 
" style="fill: none; stroke: #000000; stroke-width: 0.8; stroke-linejoin: miter; stroke-linecap: square"/>
    </g>
    <g id="patch_13">
     <path d="M 22.72524 313.216322 
L 716.99976 313.216322 
" style="fill: none; stroke: #000000; stroke-width: 0.8; stroke-linejoin: miter; stroke-linecap: square"/>
    </g>
    <g id="patch_14">
     <path d="M 22.72524 215.829038 
L 716.99976 215.829038 
" style="fill: none; stroke: #000000; stroke-width: 0.8; stroke-linejoin: miter; stroke-linecap: square"/>
    </g>
    <g id="text_23">
     <!-- Random Walk -->
     <g transform="translate(328.749375 209.829038) scale(0.12 -0.12)">
      <defs>
       <path id="DejaVuSans-64" d="M 2906 2969 
L 2906 4863 
L 3481 4863 
L 3481 0 
L 2906 0 
L 2906 525 
Q 2725 213 2448 61 
Q 2172 -91 1784 -91 
Q 1150 -91 751 415 
Q 353 922 353 1747 
Q 353 2572 751 3078 
Q 1150 3584 1784 3584 
Q 2172 3584 2448 3432 
Q 2725 3281 2906 2969 
z
M 947 1747 
Q 947 1113 1208 752 
Q 1469 391 1925 391 
Q 2381 391 2643 752 
Q 2906 1113 2906 1747 
Q 2906 2381 2643 2742 
Q 2381 3103 1925 3103 
Q 1469 3103 1208 2742 
Q 947 2381 947 1747 
z
" transform="scale(0.015625)"/>
       <path id="DejaVuSans-6d" d="M 3328 2828 
Q 3544 3216 3844 3400 
Q 4144 3584 4550 3584 
Q 5097 3584 5394 3201 
Q 5691 2819 5691 2113 
L 5691 0 
L 5113 0 
L 5113 2094 
Q 5113 2597 4934 2840 
Q 4756 3084 4391 3084 
Q 3944 3084 3684 2787 
Q 3425 2491 3425 1978 
L 3425 0 
L 2847 0 
L 2847 2094 
Q 2847 2600 2669 2842 
Q 2491 3084 2119 3084 
Q 1678 3084 1418 2786 
Q 1159 2488 1159 1978 
L 1159 0 
L 581 0 
L 581 3500 
L 1159 3500 
L 1159 2956 
Q 1356 3278 1631 3431 
Q 1906 3584 2284 3584 
Q 2666 3584 2933 3390 
Q 3200 3197 3328 2828 
z
" transform="scale(0.015625)"/>
       <path id="DejaVuSans-6b" d="M 581 4863 
L 1159 4863 
L 1159 1991 
L 2875 3500 
L 3609 3500 
L 1753 1863 
L 3688 0 
L 2938 0 
L 1159 1709 
L 1159 0 
L 581 0 
L 581 4863 
z
" transform="scale(0.015625)"/>
      </defs>
      <use xlink:href="#DejaVuSans-52"/>
      <use xlink:href="#DejaVuSans-61" x="67.232422"/>
      <use xlink:href="#DejaVuSans-6e" x="128.511719"/>
      <use xlink:href="#DejaVuSans-64" x="191.890625"/>
      <use xlink:href="#DejaVuSans-6f" x="255.367188"/>
      <use xlink:href="#DejaVuSans-6d" x="316.548828"/>
      <use xlink:href="#DejaVuSans-20" x="413.960938"/>
      <use xlink:href="#DejaVuSans-57" x="445.748047"/>
      <use xlink:href="#DejaVuSans-61" x="538.25"/>
      <use xlink:href="#DejaVuSans-6c" x="599.529297"/>
      <use xlink:href="#DejaVuSans-6b" x="627.3125"/>
     </g>
    </g>
    <g id="legend_2">
     <g id="patch_15">
      <path d="M 259.214844 360.241268 
L 480.510156 360.241268 
Q 482.510156 360.241268 482.510156 358.241268 
L 482.510156 344.563143 
Q 482.510156 342.563143 480.510156 342.563143 
L 259.214844 342.563143 
Q 257.214844 342.563143 257.214844 344.563143 
L 257.214844 358.241268 
Q 257.214844 360.241268 259.214844 360.241268 
z
" style="fill: #ffffff; opacity: 0.8; stroke: #cccccc; stroke-linejoin: miter"/>
     </g>
     <g id="line2d_27">
      <path d="M 261.214844 350.66158 
L 271.214844 350.66158 
L 281.214844 350.66158 
" style="fill: none; stroke: #1f77b4; stroke-width: 1.5; stroke-linecap: square"/>
     </g>
     <g id="text_24">
      <!-- Real 1 -->
      <g transform="translate(289.214844 354.16158) scale(0.1 -0.1)">
       <use xlink:href="#DejaVuSans-52"/>
       <use xlink:href="#DejaVuSans-65" x="64.982422"/>
       <use xlink:href="#DejaVuSans-61" x="126.505859"/>
       <use xlink:href="#DejaVuSans-6c" x="187.785156"/>
       <use xlink:href="#DejaVuSans-20" x="215.568359"/>
       <use xlink:href="#DejaVuSans-31" x="247.355469"/>
      </g>
     </g>
     <g id="line2d_28">
      <path d="M 340.313281 350.66158 
L 350.313281 350.66158 
L 360.313281 350.66158 
" style="fill: none; stroke: #ff7f0e; stroke-width: 1.5; stroke-linecap: square"/>
     </g>
     <g id="text_25">
      <!-- Real 2 -->
      <g transform="translate(368.313281 354.16158) scale(0.1 -0.1)">
       <use xlink:href="#DejaVuSans-52"/>
       <use xlink:href="#DejaVuSans-65" x="64.982422"/>
       <use xlink:href="#DejaVuSans-61" x="126.505859"/>
       <use xlink:href="#DejaVuSans-6c" x="187.785156"/>
       <use xlink:href="#DejaVuSans-20" x="215.568359"/>
       <use xlink:href="#DejaVuSans-32" x="247.355469"/>
      </g>
     </g>
     <g id="line2d_29">
      <path d="M 419.411719 350.66158 
L 429.411719 350.66158 
L 439.411719 350.66158 
" style="fill: none; stroke: #2ca02c; stroke-width: 1.5; stroke-linecap: square"/>
     </g>
     <g id="text_26">
      <!-- Real 3 -->
      <g transform="translate(447.411719 354.16158) scale(0.1 -0.1)">
       <use xlink:href="#DejaVuSans-52"/>
       <use xlink:href="#DejaVuSans-65" x="64.982422"/>
       <use xlink:href="#DejaVuSans-61" x="126.505859"/>
       <use xlink:href="#DejaVuSans-6c" x="187.785156"/>
       <use xlink:href="#DejaVuSans-20" x="215.568359"/>
       <use xlink:href="#DejaVuSans-33" x="247.355469"/>
      </g>
     </g>
    </g>
   </g>
  </g>
  <g id="subfigure_3">
   <g id="patch_16">
    <path d="M 0 539.903558 
L 720 539.903558 
L 720 377.807115 
L 0 377.807115 
z
" style="fill: #ffffff"/>
   </g>
   <g id="axes_3">
    <g id="patch_17">
     <path d="M 22.72524 493.312764 
L 716.99976 493.312764 
L 716.99976 395.92548 
L 22.72524 395.92548 
z
" style="fill: #ffffff"/>
    </g>
    <g id="matplotlib.axis_5">
     <g id="xtick_11">
      <g id="line2d_30">
       <g>
        <use xlink:href="#mb02717ca3e" x="117.646551" y="493.312764" style="stroke: #000000; stroke-width: 0.8"/>
       </g>
      </g>
      <g id="text_27">
       <!-- −0.4 -->
       <g transform="translate(105.505145 507.911202) scale(0.1 -0.1)">
        <use xlink:href="#DejaVuSans-2212"/>
        <use xlink:href="#DejaVuSans-30" x="83.789062"/>
        <use xlink:href="#DejaVuSans-2e" x="147.412109"/>
        <use xlink:href="#DejaVuSans-34" x="179.199219"/>
       </g>
      </g>
     </g>
     <g id="xtick_12">
      <g id="line2d_31">
       <g>
        <use xlink:href="#mb02717ca3e" x="244.373309" y="493.312764" style="stroke: #000000; stroke-width: 0.8"/>
       </g>
      </g>
      <g id="text_28">
       <!-- −0.2 -->
       <g transform="translate(232.231902 507.911202) scale(0.1 -0.1)">
        <use xlink:href="#DejaVuSans-2212"/>
        <use xlink:href="#DejaVuSans-30" x="83.789062"/>
        <use xlink:href="#DejaVuSans-2e" x="147.412109"/>
        <use xlink:href="#DejaVuSans-32" x="179.199219"/>
       </g>
      </g>
     </g>
     <g id="xtick_13">
      <g id="line2d_32">
       <g>
        <use xlink:href="#mb02717ca3e" x="371.100066" y="493.312764" style="stroke: #000000; stroke-width: 0.8"/>
       </g>
      </g>
      <g id="text_29">
       <!-- 0.0 -->
       <g transform="translate(363.148503 507.911202) scale(0.1 -0.1)">
        <use xlink:href="#DejaVuSans-30"/>
        <use xlink:href="#DejaVuSans-2e" x="63.623047"/>
        <use xlink:href="#DejaVuSans-30" x="95.410156"/>
       </g>
      </g>
     </g>
     <g id="xtick_14">
      <g id="line2d_33">
       <g>
        <use xlink:href="#mb02717ca3e" x="497.826823" y="493.312764" style="stroke: #000000; stroke-width: 0.8"/>
       </g>
      </g>
      <g id="text_30">
       <!-- 0.2 -->
       <g transform="translate(489.875261 507.911202) scale(0.1 -0.1)">
        <use xlink:href="#DejaVuSans-30"/>
        <use xlink:href="#DejaVuSans-2e" x="63.623047"/>
        <use xlink:href="#DejaVuSans-32" x="95.410156"/>
       </g>
      </g>
     </g>
     <g id="xtick_15">
      <g id="line2d_34">
       <g>
        <use xlink:href="#mb02717ca3e" x="624.553581" y="493.312764" style="stroke: #000000; stroke-width: 0.8"/>
       </g>
      </g>
      <g id="text_31">
       <!-- 0.4 -->
       <g transform="translate(616.602018 507.911202) scale(0.1 -0.1)">
        <use xlink:href="#DejaVuSans-30"/>
        <use xlink:href="#DejaVuSans-2e" x="63.623047"/>
        <use xlink:href="#DejaVuSans-34" x="95.410156"/>
       </g>
      </g>
     </g>
    </g>
    <g id="matplotlib.axis_6">
     <g id="ytick_8">
      <g id="line2d_35">
       <g>
        <use xlink:href="#m9bd001aaf3" x="22.72524" y="488.898034" style="stroke: #000000; stroke-width: 0.8"/>
       </g>
      </g>
      <g id="text_32">
       <!-- 0 -->
       <g transform="translate(9.36274 492.697253) scale(0.1 -0.1)">
        <use xlink:href="#DejaVuSans-30"/>
       </g>
      </g>
     </g>
     <g id="ytick_9">
      <g id="line2d_36">
       <g>
        <use xlink:href="#m9bd001aaf3" x="22.72524" y="446.844735" style="stroke: #000000; stroke-width: 0.8"/>
       </g>
      </g>
      <g id="text_33">
       <!-- 20 -->
       <g transform="translate(3.00024 450.643954) scale(0.1 -0.1)">
        <use xlink:href="#DejaVuSans-32"/>
        <use xlink:href="#DejaVuSans-30" x="63.623047"/>
       </g>
      </g>
     </g>
     <g id="ytick_10">
      <g id="line2d_37">
       <g>
        <use xlink:href="#m9bd001aaf3" x="22.72524" y="404.791436" style="stroke: #000000; stroke-width: 0.8"/>
       </g>
      </g>
      <g id="text_34">
       <!-- 40 -->
       <g transform="translate(3.00024 408.590655) scale(0.1 -0.1)">
        <use xlink:href="#DejaVuSans-34"/>
        <use xlink:href="#DejaVuSans-30" x="63.623047"/>
       </g>
      </g>
     </g>
    </g>
    <g id="line2d_38">
     <path d="M 371.100066 462.906021 
L 373.575198 402.41097 
L 376.05033 458.284998 
L 378.525462 478.441893 
L 381.000594 483.322439 
L 383.475726 485.464009 
L 385.950858 486.552078 
L 388.42599 487.120569 
L 390.901122 487.574535 
L 395.851386 488.082558 
L 403.276782 488.416754 
L 415.652442 488.643568 
L 447.829157 488.807453 
L 527.033381 488.87382 
L 685.441827 488.885945 
L 54.283173 488.88607 
L 286.945579 488.823656 
L 321.597426 488.681576 
L 336.448218 488.478959 
L 343.873614 488.214231 
L 348.823878 487.865322 
L 351.29901 487.574535 
L 353.774142 487.120569 
L 356.249274 486.552078 
L 358.724406 485.464009 
L 361.199538 483.322439 
L 363.67467 478.441893 
L 366.149802 458.284998 
L 368.624934 402.41097 
L 368.624934 402.41097 
" clip-path="url(#p6a576dd52b)" style="fill: none; stroke: #1f77b4; stroke-width: 1.5; stroke-linecap: square"/>
    </g>
    <g id="line2d_39">
     <path d="M 371.100066 460.236317 
L 373.575198 400.352175 
L 376.05033 459.148978 
L 378.525462 478.787574 
L 381.000594 483.582558 
L 383.475726 485.522129 
L 385.950858 486.560525 
L 388.42599 487.172267 
L 390.901122 487.639601 
L 398.326518 488.203621 
L 410.702178 488.576304 
L 432.978365 488.769545 
L 554.259832 488.878642 
L 685.441827 488.88485 
L 54.283173 488.885296 
L 301.796371 488.790494 
L 329.022822 488.60796 
L 338.92335 488.390192 
L 346.348746 488.072766 
L 351.29901 487.639601 
L 353.774142 487.172267 
L 356.249274 486.560525 
L 358.724406 485.522129 
L 361.199538 483.582558 
L 363.67467 478.787574 
L 366.149802 459.148978 
L 368.624934 400.352175 
L 368.624934 400.352175 
" clip-path="url(#p6a576dd52b)" style="fill: none; stroke: #ff7f0e; stroke-width: 1.5; stroke-linecap: square"/>
    </g>
    <g id="line2d_40">
     <path d="M 371.100066 461.274741 
L 373.575198 400.869139 
L 376.05033 457.103608 
L 378.525462 478.515682 
L 381.000594 483.569335 
L 383.475726 485.50186 
L 385.950858 486.518503 
L 388.42599 487.154604 
L 390.901122 487.607965 
L 393.376254 487.915631 
L 400.80165 488.34147 
L 408.227046 488.524793 
L 423.077838 488.710383 
L 445.354025 488.803429 
L 529.508513 488.87314 
L 685.441827 488.885647 
L 54.283173 488.885605 
L 304.271503 488.776303 
L 331.497954 488.572305 
L 343.873614 488.230132 
L 348.823878 487.915631 
L 351.29901 487.607965 
L 353.774142 487.154604 
L 356.249274 486.518503 
L 358.724406 485.50186 
L 361.199538 483.569335 
L 363.67467 478.515682 
L 366.149802 457.103608 
L 368.624934 400.869139 
L 368.624934 400.869139 
" clip-path="url(#p6a576dd52b)" style="fill: none; stroke: #2ca02c; stroke-width: 1.5; stroke-linecap: square"/>
    </g>
    <g id="patch_18">
     <path d="M 22.72524 493.312764 
L 22.72524 395.92548 
" style="fill: none; stroke: #000000; stroke-width: 0.8; stroke-linejoin: miter; stroke-linecap: square"/>
    </g>
    <g id="patch_19">
     <path d="M 716.99976 493.312764 
L 716.99976 395.92548 
" style="fill: none; stroke: #000000; stroke-width: 0.8; stroke-linejoin: miter; stroke-linecap: square"/>
    </g>
    <g id="patch_20">
     <path d="M 22.72524 493.312764 
L 716.99976 493.312764 
" style="fill: none; stroke: #000000; stroke-width: 0.8; stroke-linejoin: miter; stroke-linecap: square"/>
    </g>
    <g id="patch_21">
     <path d="M 22.72524 395.92548 
L 716.99976 395.92548 
" style="fill: none; stroke: #000000; stroke-width: 0.8; stroke-linejoin: miter; stroke-linecap: square"/>
    </g>
    <g id="text_35">
     <!-- Gauss Markov - tau=2000 -->
     <g transform="translate(291.668437 389.92548) scale(0.12 -0.12)">
      <defs>
       <path id="DejaVuSans-47" d="M 3809 666 
L 3809 1919 
L 2778 1919 
L 2778 2438 
L 4434 2438 
L 4434 434 
Q 4069 175 3628 42 
Q 3188 -91 2688 -91 
Q 1594 -91 976 548 
Q 359 1188 359 2328 
Q 359 3472 976 4111 
Q 1594 4750 2688 4750 
Q 3144 4750 3555 4637 
Q 3966 4525 4313 4306 
L 4313 3634 
Q 3963 3931 3569 4081 
Q 3175 4231 2741 4231 
Q 1884 4231 1454 3753 
Q 1025 3275 1025 2328 
Q 1025 1384 1454 906 
Q 1884 428 2741 428 
Q 3075 428 3337 486 
Q 3600 544 3809 666 
z
" transform="scale(0.015625)"/>
       <path id="DejaVuSans-75" d="M 544 1381 
L 544 3500 
L 1119 3500 
L 1119 1403 
Q 1119 906 1312 657 
Q 1506 409 1894 409 
Q 2359 409 2629 706 
Q 2900 1003 2900 1516 
L 2900 3500 
L 3475 3500 
L 3475 0 
L 2900 0 
L 2900 538 
Q 2691 219 2414 64 
Q 2138 -91 1772 -91 
Q 1169 -91 856 284 
Q 544 659 544 1381 
z
M 1991 3584 
L 1991 3584 
z
" transform="scale(0.015625)"/>
       <path id="DejaVuSans-4d" d="M 628 4666 
L 1569 4666 
L 2759 1491 
L 3956 4666 
L 4897 4666 
L 4897 0 
L 4281 0 
L 4281 4097 
L 3078 897 
L 2444 897 
L 1241 4097 
L 1241 0 
L 628 0 
L 628 4666 
z
" transform="scale(0.015625)"/>
       <path id="DejaVuSans-76" d="M 191 3500 
L 800 3500 
L 1894 563 
L 2988 3500 
L 3597 3500 
L 2284 0 
L 1503 0 
L 191 3500 
z
" transform="scale(0.015625)"/>
       <path id="DejaVuSans-2d" d="M 313 2009 
L 1997 2009 
L 1997 1497 
L 313 1497 
L 313 2009 
z
" transform="scale(0.015625)"/>
       <path id="DejaVuSans-3d" d="M 678 2906 
L 4684 2906 
L 4684 2381 
L 678 2381 
L 678 2906 
z
M 678 1631 
L 4684 1631 
L 4684 1100 
L 678 1100 
L 678 1631 
z
" transform="scale(0.015625)"/>
      </defs>
      <use xlink:href="#DejaVuSans-47"/>
      <use xlink:href="#DejaVuSans-61" x="77.490234"/>
      <use xlink:href="#DejaVuSans-75" x="138.769531"/>
      <use xlink:href="#DejaVuSans-73" x="202.148438"/>
      <use xlink:href="#DejaVuSans-73" x="254.248047"/>
      <use xlink:href="#DejaVuSans-20" x="306.347656"/>
      <use xlink:href="#DejaVuSans-4d" x="338.134766"/>
      <use xlink:href="#DejaVuSans-61" x="424.414062"/>
      <use xlink:href="#DejaVuSans-72" x="485.693359"/>
      <use xlink:href="#DejaVuSans-6b" x="526.806641"/>
      <use xlink:href="#DejaVuSans-6f" x="581.091797"/>
      <use xlink:href="#DejaVuSans-76" x="642.273438"/>
      <use xlink:href="#DejaVuSans-20" x="701.453125"/>
      <use xlink:href="#DejaVuSans-2d" x="733.240234"/>
      <use xlink:href="#DejaVuSans-20" x="769.324219"/>
      <use xlink:href="#DejaVuSans-74" x="801.111328"/>
      <use xlink:href="#DejaVuSans-61" x="840.320312"/>
      <use xlink:href="#DejaVuSans-75" x="901.599609"/>
      <use xlink:href="#DejaVuSans-3d" x="964.978516"/>
      <use xlink:href="#DejaVuSans-32" x="1048.767578"/>
      <use xlink:href="#DejaVuSans-30" x="1112.390625"/>
      <use xlink:href="#DejaVuSans-30" x="1176.013672"/>
      <use xlink:href="#DejaVuSans-30" x="1239.636719"/>
     </g>
    </g>
    <g id="legend_3">
     <g id="patch_22">
      <path d="M 259.214844 540.33771 
L 480.510156 540.33771 
Q 482.510156 540.33771 482.510156 538.33771 
L 482.510156 524.659585 
Q 482.510156 522.659585 480.510156 522.659585 
L 259.214844 522.659585 
Q 257.214844 522.659585 257.214844 524.659585 
L 257.214844 538.33771 
Q 257.214844 540.33771 259.214844 540.33771 
z
" style="fill: #ffffff; opacity: 0.8; stroke: #cccccc; stroke-linejoin: miter"/>
     </g>
     <g id="line2d_41">
      <path d="M 261.214844 530.758023 
L 271.214844 530.758023 
L 281.214844 530.758023 
" style="fill: none; stroke: #1f77b4; stroke-width: 1.5; stroke-linecap: square"/>
     </g>
     <g id="text_36">
      <!-- Real 1 -->
      <g transform="translate(289.214844 534.258023) scale(0.1 -0.1)">
       <use xlink:href="#DejaVuSans-52"/>
       <use xlink:href="#DejaVuSans-65" x="64.982422"/>
       <use xlink:href="#DejaVuSans-61" x="126.505859"/>
       <use xlink:href="#DejaVuSans-6c" x="187.785156"/>
       <use xlink:href="#DejaVuSans-20" x="215.568359"/>
       <use xlink:href="#DejaVuSans-31" x="247.355469"/>
      </g>
     </g>
     <g id="line2d_42">
      <path d="M 340.313281 530.758023 
L 350.313281 530.758023 
L 360.313281 530.758023 
" style="fill: none; stroke: #ff7f0e; stroke-width: 1.5; stroke-linecap: square"/>
     </g>
     <g id="text_37">
      <!-- Real 2 -->
      <g transform="translate(368.313281 534.258023) scale(0.1 -0.1)">
       <use xlink:href="#DejaVuSans-52"/>
       <use xlink:href="#DejaVuSans-65" x="64.982422"/>
       <use xlink:href="#DejaVuSans-61" x="126.505859"/>
       <use xlink:href="#DejaVuSans-6c" x="187.785156"/>
       <use xlink:href="#DejaVuSans-20" x="215.568359"/>
       <use xlink:href="#DejaVuSans-32" x="247.355469"/>
      </g>
     </g>
     <g id="line2d_43">
      <path d="M 419.411719 530.758023 
L 429.411719 530.758023 
L 439.411719 530.758023 
" style="fill: none; stroke: #2ca02c; stroke-width: 1.5; stroke-linecap: square"/>
     </g>
     <g id="text_38">
      <!-- Real 3 -->
      <g transform="translate(447.411719 534.258023) scale(0.1 -0.1)">
       <use xlink:href="#DejaVuSans-52"/>
       <use xlink:href="#DejaVuSans-65" x="64.982422"/>
       <use xlink:href="#DejaVuSans-61" x="126.505859"/>
       <use xlink:href="#DejaVuSans-6c" x="187.785156"/>
       <use xlink:href="#DejaVuSans-20" x="215.568359"/>
       <use xlink:href="#DejaVuSans-33" x="247.355469"/>
      </g>
     </g>
    </g>
   </g>
  </g>
  <g id="subfigure_4">
   <g id="patch_23">
    <path d="M 0 720 
L 720 720 
L 720 557.903558 
L 0 557.903558 
z
" style="fill: #ffffff"/>
   </g>
   <g id="axes_4">
    <g id="patch_24">
     <path d="M 22.72524 673.409207 
L 716.99976 673.409207 
L 716.99976 576.021923 
L 22.72524 576.021923 
z
" style="fill: #ffffff"/>
    </g>
    <g id="matplotlib.axis_7">
     <g id="xtick_16">
      <g id="line2d_44">
       <g>
        <use xlink:href="#mb02717ca3e" x="117.646551" y="673.409207" style="stroke: #000000; stroke-width: 0.8"/>
       </g>
      </g>
      <g id="text_39">
       <!-- −0.4 -->
       <g transform="translate(105.505145 688.007644) scale(0.1 -0.1)">
        <use xlink:href="#DejaVuSans-2212"/>
        <use xlink:href="#DejaVuSans-30" x="83.789062"/>
        <use xlink:href="#DejaVuSans-2e" x="147.412109"/>
        <use xlink:href="#DejaVuSans-34" x="179.199219"/>
       </g>
      </g>
     </g>
     <g id="xtick_17">
      <g id="line2d_45">
       <g>
        <use xlink:href="#mb02717ca3e" x="244.373309" y="673.409207" style="stroke: #000000; stroke-width: 0.8"/>
       </g>
      </g>
      <g id="text_40">
       <!-- −0.2 -->
       <g transform="translate(232.231902 688.007644) scale(0.1 -0.1)">
        <use xlink:href="#DejaVuSans-2212"/>
        <use xlink:href="#DejaVuSans-30" x="83.789062"/>
        <use xlink:href="#DejaVuSans-2e" x="147.412109"/>
        <use xlink:href="#DejaVuSans-32" x="179.199219"/>
       </g>
      </g>
     </g>
     <g id="xtick_18">
      <g id="line2d_46">
       <g>
        <use xlink:href="#mb02717ca3e" x="371.100066" y="673.409207" style="stroke: #000000; stroke-width: 0.8"/>
       </g>
      </g>
      <g id="text_41">
       <!-- 0.0 -->
       <g transform="translate(363.148503 688.007644) scale(0.1 -0.1)">
        <use xlink:href="#DejaVuSans-30"/>
        <use xlink:href="#DejaVuSans-2e" x="63.623047"/>
        <use xlink:href="#DejaVuSans-30" x="95.410156"/>
       </g>
      </g>
     </g>
     <g id="xtick_19">
      <g id="line2d_47">
       <g>
        <use xlink:href="#mb02717ca3e" x="497.826823" y="673.409207" style="stroke: #000000; stroke-width: 0.8"/>
       </g>
      </g>
      <g id="text_42">
       <!-- 0.2 -->
       <g transform="translate(489.875261 688.007644) scale(0.1 -0.1)">
        <use xlink:href="#DejaVuSans-30"/>
        <use xlink:href="#DejaVuSans-2e" x="63.623047"/>
        <use xlink:href="#DejaVuSans-32" x="95.410156"/>
       </g>
      </g>
     </g>
     <g id="xtick_20">
      <g id="line2d_48">
       <g>
        <use xlink:href="#mb02717ca3e" x="624.553581" y="673.409207" style="stroke: #000000; stroke-width: 0.8"/>
       </g>
      </g>
      <g id="text_43">
       <!-- 0.4 -->
       <g transform="translate(616.602018 688.007644) scale(0.1 -0.1)">
        <use xlink:href="#DejaVuSans-30"/>
        <use xlink:href="#DejaVuSans-2e" x="63.623047"/>
        <use xlink:href="#DejaVuSans-34" x="95.410156"/>
       </g>
      </g>
     </g>
    </g>
    <g id="matplotlib.axis_8">
     <g id="ytick_11">
      <g id="line2d_49">
       <g>
        <use xlink:href="#m9bd001aaf3" x="22.72524" y="668.995292" style="stroke: #000000; stroke-width: 0.8"/>
       </g>
      </g>
      <g id="text_44">
       <!-- 0 -->
       <g transform="translate(9.36274 672.794511) scale(0.1 -0.1)">
        <use xlink:href="#DejaVuSans-30"/>
       </g>
      </g>
     </g>
     <g id="ytick_12">
      <g id="line2d_50">
       <g>
        <use xlink:href="#m9bd001aaf3" x="22.72524" y="624.143499" style="stroke: #000000; stroke-width: 0.8"/>
       </g>
      </g>
      <g id="text_45">
       <!-- 20 -->
       <g transform="translate(3.00024 627.942718) scale(0.1 -0.1)">
        <use xlink:href="#DejaVuSans-32"/>
        <use xlink:href="#DejaVuSans-30" x="63.623047"/>
       </g>
      </g>
     </g>
     <g id="ytick_13">
      <g id="line2d_51">
       <g>
        <use xlink:href="#m9bd001aaf3" x="22.72524" y="579.291706" style="stroke: #000000; stroke-width: 0.8"/>
       </g>
      </g>
      <g id="text_46">
       <!-- 40 -->
       <g transform="translate(3.00024 583.090925) scale(0.1 -0.1)">
        <use xlink:href="#DejaVuSans-34"/>
        <use xlink:href="#DejaVuSans-30" x="63.623047"/>
       </g>
      </g>
     </g>
    </g>
    <g id="line2d_52">
     <path d="M 371.100066 641.791196 
L 373.575198 582.427057 
L 376.05033 636.721622 
L 378.525462 657.851204 
L 381.000594 663.044572 
L 383.475726 665.32866 
L 385.950858 666.490483 
L 388.42599 667.096965 
L 390.901122 667.581808 
L 395.851386 668.124288 
L 403.276782 668.481214 
L 415.652442 668.723497 
L 445.354025 668.896836 
L 685.441827 668.98238 
L 54.283173 668.982512 
L 301.796371 668.878572 
L 331.497954 668.643903 
L 341.398482 668.368385 
L 346.348746 668.124288 
L 351.29901 667.581808 
L 353.774142 667.096965 
L 356.249274 666.490483 
L 358.724406 665.32866 
L 361.199538 663.044572 
L 363.67467 657.851204 
L 366.149802 636.721622 
L 368.624934 582.427057 
L 368.624934 582.427057 
" clip-path="url(#p4ddbfff0bc)" style="fill: none; stroke: #1f77b4; stroke-width: 1.5; stroke-linecap: square"/>
    </g>
    <g id="line2d_53">
     <path d="M 371.100066 638.671403 
L 373.575198 580.448617 
L 376.05033 637.629528 
L 378.525462 658.223086 
L 381.000594 663.324625 
L 383.475726 665.390617 
L 385.950858 666.49912 
L 388.42599 667.152429 
L 390.901122 667.651101 
L 395.851386 668.113788 
L 403.276782 668.452871 
L 413.17731 668.685466 
L 428.028101 668.833526 
L 484.956137 668.950265 
L 685.441827 668.981209 
L 54.283173 668.981686 
L 304.271503 668.872506 
L 329.022822 668.685466 
L 338.92335 668.452871 
L 346.348746 668.113788 
L 351.29901 667.651101 
L 353.774142 667.152429 
L 356.249274 666.49912 
L 358.724406 665.390617 
L 361.199538 663.324625 
L 363.67467 658.223086 
L 366.149802 637.629528 
L 368.624934 580.448617 
L 368.624934 580.448617 
" clip-path="url(#p4ddbfff0bc)" style="fill: none; stroke: #ff7f0e; stroke-width: 1.5; stroke-linecap: square"/>
    </g>
    <g id="line2d_54">
     <path d="M 371.100066 640.067025 
L 373.575198 580.899634 
L 376.05033 635.431398 
L 378.525462 657.934032 
L 381.000594 663.312491 
L 383.475726 665.3699 
L 385.950858 666.452982 
L 388.42599 667.133605 
L 390.901122 667.617915 
L 393.376254 667.945886 
L 400.80165 668.400806 
L 408.227046 668.596651 
L 423.077838 668.794862 
L 442.878893 668.887492 
L 509.707457 668.9619 
L 611.187868 668.98016 
L 685.441827 668.982061 
L 54.283173 668.982016 
L 311.696899 668.832289 
L 329.022822 668.689611 
L 341.398482 668.400806 
L 348.823878 667.945886 
L 351.29901 667.617915 
L 353.774142 667.133605 
L 356.249274 666.452982 
L 358.724406 665.3699 
L 361.199538 663.312491 
L 363.67467 657.934032 
L 366.149802 635.431398 
L 368.624934 580.899634 
L 368.624934 580.899634 
" clip-path="url(#p4ddbfff0bc)" style="fill: none; stroke: #2ca02c; stroke-width: 1.5; stroke-linecap: square"/>
    </g>
    <g id="patch_25">
     <path d="M 22.72524 673.409207 
L 22.72524 576.021923 
" style="fill: none; stroke: #000000; stroke-width: 0.8; stroke-linejoin: miter; stroke-linecap: square"/>
    </g>
    <g id="patch_26">
     <path d="M 716.99976 673.409207 
L 716.99976 576.021923 
" style="fill: none; stroke: #000000; stroke-width: 0.8; stroke-linejoin: miter; stroke-linecap: square"/>
    </g>
    <g id="patch_27">
     <path d="M 22.72524 673.409207 
L 716.99976 673.409207 
" style="fill: none; stroke: #000000; stroke-width: 0.8; stroke-linejoin: miter; stroke-linecap: square"/>
    </g>
    <g id="patch_28">
     <path d="M 22.72524 576.021923 
L 716.99976 576.021923 
" style="fill: none; stroke: #000000; stroke-width: 0.8; stroke-linejoin: miter; stroke-linecap: square"/>
    </g>
    <g id="text_47">
     <!-- Gauss Markov - tau=500 -->
     <g transform="translate(295.485937 570.021923) scale(0.12 -0.12)">
      <use xlink:href="#DejaVuSans-47"/>
      <use xlink:href="#DejaVuSans-61" x="77.490234"/>
      <use xlink:href="#DejaVuSans-75" x="138.769531"/>
      <use xlink:href="#DejaVuSans-73" x="202.148438"/>
      <use xlink:href="#DejaVuSans-73" x="254.248047"/>
      <use xlink:href="#DejaVuSans-20" x="306.347656"/>
      <use xlink:href="#DejaVuSans-4d" x="338.134766"/>
      <use xlink:href="#DejaVuSans-61" x="424.414062"/>
      <use xlink:href="#DejaVuSans-72" x="485.693359"/>
      <use xlink:href="#DejaVuSans-6b" x="526.806641"/>
      <use xlink:href="#DejaVuSans-6f" x="581.091797"/>
      <use xlink:href="#DejaVuSans-76" x="642.273438"/>
      <use xlink:href="#DejaVuSans-20" x="701.453125"/>
      <use xlink:href="#DejaVuSans-2d" x="733.240234"/>
      <use xlink:href="#DejaVuSans-20" x="769.324219"/>
      <use xlink:href="#DejaVuSans-74" x="801.111328"/>
      <use xlink:href="#DejaVuSans-61" x="840.320312"/>
      <use xlink:href="#DejaVuSans-75" x="901.599609"/>
      <use xlink:href="#DejaVuSans-3d" x="964.978516"/>
      <use xlink:href="#DejaVuSans-35" x="1048.767578"/>
      <use xlink:href="#DejaVuSans-30" x="1112.390625"/>
      <use xlink:href="#DejaVuSans-30" x="1176.013672"/>
     </g>
    </g>
    <g id="legend_4">
     <g id="patch_29">
      <path d="M 259.214844 720.434153 
L 480.510156 720.434153 
Q 482.510156 720.434153 482.510156 718.434153 
L 482.510156 704.756028 
Q 482.510156 702.756028 480.510156 702.756028 
L 259.214844 702.756028 
Q 257.214844 702.756028 257.214844 704.756028 
L 257.214844 718.434153 
Q 257.214844 720.434153 259.214844 720.434153 
z
" style="fill: #ffffff; opacity: 0.8; stroke: #cccccc; stroke-linejoin: miter"/>
     </g>
     <g id="line2d_55">
      <path d="M 261.214844 710.854465 
L 271.214844 710.854465 
L 281.214844 710.854465 
" style="fill: none; stroke: #1f77b4; stroke-width: 1.5; stroke-linecap: square"/>
     </g>
     <g id="text_48">
      <!-- Real 1 -->
      <g transform="translate(289.214844 714.354465) scale(0.1 -0.1)">
       <use xlink:href="#DejaVuSans-52"/>
       <use xlink:href="#DejaVuSans-65" x="64.982422"/>
       <use xlink:href="#DejaVuSans-61" x="126.505859"/>
       <use xlink:href="#DejaVuSans-6c" x="187.785156"/>
       <use xlink:href="#DejaVuSans-20" x="215.568359"/>
       <use xlink:href="#DejaVuSans-31" x="247.355469"/>
      </g>
     </g>
     <g id="line2d_56">
      <path d="M 340.313281 710.854465 
L 350.313281 710.854465 
L 360.313281 710.854465 
" style="fill: none; stroke: #ff7f0e; stroke-width: 1.5; stroke-linecap: square"/>
     </g>
     <g id="text_49">
      <!-- Real 2 -->
      <g transform="translate(368.313281 714.354465) scale(0.1 -0.1)">
       <use xlink:href="#DejaVuSans-52"/>
       <use xlink:href="#DejaVuSans-65" x="64.982422"/>
       <use xlink:href="#DejaVuSans-61" x="126.505859"/>
       <use xlink:href="#DejaVuSans-6c" x="187.785156"/>
       <use xlink:href="#DejaVuSans-20" x="215.568359"/>
       <use xlink:href="#DejaVuSans-32" x="247.355469"/>
      </g>
     </g>
     <g id="line2d_57">
      <path d="M 419.411719 710.854465 
L 429.411719 710.854465 
L 439.411719 710.854465 
" style="fill: none; stroke: #2ca02c; stroke-width: 1.5; stroke-linecap: square"/>
     </g>
     <g id="text_50">
      <!-- Real 3 -->
      <g transform="translate(447.411719 714.354465) scale(0.1 -0.1)">
       <use xlink:href="#DejaVuSans-52"/>
       <use xlink:href="#DejaVuSans-65" x="64.982422"/>
       <use xlink:href="#DejaVuSans-61" x="126.505859"/>
       <use xlink:href="#DejaVuSans-6c" x="187.785156"/>
       <use xlink:href="#DejaVuSans-20" x="215.568359"/>
       <use xlink:href="#DejaVuSans-33" x="247.355469"/>
      </g>
     </g>
    </g>
   </g>
  </g>
 </g>
 <defs>
  <clipPath id="pddf2398e6f">
   <rect x="38.628365" y="35.732595" width="678.371395" height="97.387284"/>
  </clipPath>
  <clipPath id="pec55403012">
   <rect x="22.72524" y="215.829038" width="694.27452" height="97.387284"/>
  </clipPath>
  <clipPath id="p6a576dd52b">
   <rect x="22.72524" y="395.92548" width="694.27452" height="97.387284"/>
  </clipPath>
  <clipPath id="p4ddbfff0bc">
   <rect x="22.72524" y="576.021923" width="694.27452" height="97.387284"/>
  </clipPath>
 </defs>
</svg>
