<?xml version="1.0" encoding="utf-8" standalone="no"?>
<!DOCTYPE svg PUBLIC "-//W3C//DTD SVG 1.1//EN"
  "http://www.w3.org/Graphics/SVG/1.1/DTD/svg11.dtd">
<svg xmlns:xlink="http://www.w3.org/1999/xlink" width="460.8pt" height="345.6pt" viewBox="0 0 460.8 345.6" xmlns="http://www.w3.org/2000/svg" version="1.1">
 <metadata>
  <rdf:RDF xmlns:dc="http://purl.org/dc/elements/1.1/" xmlns:cc="http://creativecommons.org/ns#" xmlns:rdf="http://www.w3.org/1999/02/22-rdf-syntax-ns#">
   <cc:Work>
    <dc:type rdf:resource="http://purl.org/dc/dcmitype/StillImage"/>
    <dc:date>2024-06-03T16:52:30.668689</dc:date>
    <dc:format>image/svg+xml</dc:format>
    <dc:creator>
     <cc:Agent>
      <dc:title>Matplotlib v3.9.0, https://matplotlib.org/</dc:title>
     </cc:Agent>
    </dc:creator>
   </cc:Work>
  </rdf:RDF>
 </metadata>
 <defs>
  <style type="text/css">*{stroke-linejoin: round; stroke-linecap: butt}</style>
 </defs>
 <g id="figure_1">
  <g id="patch_1">
   <path d="M 0 345.6 
L 460.8 345.6 
L 460.8 0 
L 0 0 
z
" style="fill: #ffffff"/>
  </g>
  <g id="axes_1">
   <g id="patch_2">
    <path d="M 57.6 307.584 
L 414.72 307.584 
L 414.72 41.472 
L 57.6 41.472 
z
" style="fill: #ffffff"/>
   </g>
   <g id="matplotlib.axis_1">
    <g id="xtick_1">
     <g id="line2d_1">
      <defs>
       <path id="macbb6db060" d="M 0 0 
L 0 3.5 
" style="stroke: #000000; stroke-width: 0.8"/>
      </defs>
      <g>
       <use xlink:href="#macbb6db060" x="106.500531" y="307.584" style="stroke: #000000; stroke-width: 0.8"/>
      </g>
     </g>
     <g id="text_1">
      <!-- −400 -->
      <g transform="translate(92.766938 322.182437) scale(0.1 -0.1)">
       <defs>
        <path id="DejaVuSans-2212" d="M 678 2272 
L 4684 2272 
L 4684 1741 
L 678 1741 
L 678 2272 
z
" transform="scale(0.015625)"/>
        <path id="DejaVuSans-34" d="M 2419 4116 
L 825 1625 
L 2419 1625 
L 2419 4116 
z
M 2253 4666 
L 3047 4666 
L 3047 1625 
L 3713 1625 
L 3713 1100 
L 3047 1100 
L 3047 0 
L 2419 0 
L 2419 1100 
L 313 1100 
L 313 1709 
L 2253 4666 
z
" transform="scale(0.015625)"/>
        <path id="DejaVuSans-30" d="M 2034 4250 
Q 1547 4250 1301 3770 
Q 1056 3291 1056 2328 
Q 1056 1369 1301 889 
Q 1547 409 2034 409 
Q 2525 409 2770 889 
Q 3016 1369 3016 2328 
Q 3016 3291 2770 3770 
Q 2525 4250 2034 4250 
z
M 2034 4750 
Q 2819 4750 3233 4129 
Q 3647 3509 3647 2328 
Q 3647 1150 3233 529 
Q 2819 -91 2034 -91 
Q 1250 -91 836 529 
Q 422 1150 422 2328 
Q 422 3509 836 4129 
Q 1250 4750 2034 4750 
z
" transform="scale(0.015625)"/>
       </defs>
       <use xlink:href="#DejaVuSans-2212"/>
       <use xlink:href="#DejaVuSans-34" x="83.789062"/>
       <use xlink:href="#DejaVuSans-30" x="147.412109"/>
       <use xlink:href="#DejaVuSans-30" x="211.035156"/>
      </g>
     </g>
    </g>
    <g id="xtick_2">
     <g id="line2d_2">
      <g>
       <use xlink:href="#macbb6db060" x="171.332779" y="307.584" style="stroke: #000000; stroke-width: 0.8"/>
      </g>
     </g>
     <g id="text_2">
      <!-- −200 -->
      <g transform="translate(157.599185 322.182437) scale(0.1 -0.1)">
       <defs>
        <path id="DejaVuSans-32" d="M 1228 531 
L 3431 531 
L 3431 0 
L 469 0 
L 469 531 
Q 828 903 1448 1529 
Q 2069 2156 2228 2338 
Q 2531 2678 2651 2914 
Q 2772 3150 2772 3378 
Q 2772 3750 2511 3984 
Q 2250 4219 1831 4219 
Q 1534 4219 1204 4116 
Q 875 4013 500 3803 
L 500 4441 
Q 881 4594 1212 4672 
Q 1544 4750 1819 4750 
Q 2544 4750 2975 4387 
Q 3406 4025 3406 3419 
Q 3406 3131 3298 2873 
Q 3191 2616 2906 2266 
Q 2828 2175 2409 1742 
Q 1991 1309 1228 531 
z
" transform="scale(0.015625)"/>
       </defs>
       <use xlink:href="#DejaVuSans-2212"/>
       <use xlink:href="#DejaVuSans-32" x="83.789062"/>
       <use xlink:href="#DejaVuSans-30" x="147.412109"/>
       <use xlink:href="#DejaVuSans-30" x="211.035156"/>
      </g>
     </g>
    </g>
    <g id="xtick_3">
     <g id="line2d_3">
      <g>
       <use xlink:href="#macbb6db060" x="236.165026" y="307.584" style="stroke: #000000; stroke-width: 0.8"/>
      </g>
     </g>
     <g id="text_3">
      <!-- 0 -->
      <g transform="translate(232.983776 322.182437) scale(0.1 -0.1)">
       <use xlink:href="#DejaVuSans-30"/>
      </g>
     </g>
    </g>
    <g id="xtick_4">
     <g id="line2d_4">
      <g>
       <use xlink:href="#macbb6db060" x="300.997274" y="307.584" style="stroke: #000000; stroke-width: 0.8"/>
      </g>
     </g>
     <g id="text_4">
      <!-- 200 -->
      <g transform="translate(291.453524 322.182437) scale(0.1 -0.1)">
       <use xlink:href="#DejaVuSans-32"/>
       <use xlink:href="#DejaVuSans-30" x="63.623047"/>
       <use xlink:href="#DejaVuSans-30" x="127.246094"/>
      </g>
     </g>
    </g>
    <g id="xtick_5">
     <g id="line2d_5">
      <g>
       <use xlink:href="#macbb6db060" x="365.829522" y="307.584" style="stroke: #000000; stroke-width: 0.8"/>
      </g>
     </g>
     <g id="text_5">
      <!-- 400 -->
      <g transform="translate(356.285772 322.182437) scale(0.1 -0.1)">
       <use xlink:href="#DejaVuSans-34"/>
       <use xlink:href="#DejaVuSans-30" x="63.623047"/>
       <use xlink:href="#DejaVuSans-30" x="127.246094"/>
      </g>
     </g>
    </g>
   </g>
   <g id="matplotlib.axis_2">
    <g id="ytick_1">
     <g id="line2d_6">
      <defs>
       <path id="m8455b823e4" d="M 0 0 
L -3.5 0 
" style="stroke: #000000; stroke-width: 0.8"/>
      </defs>
      <g>
       <use xlink:href="#m8455b823e4" x="57.6" y="271.321886" style="stroke: #000000; stroke-width: 0.8"/>
      </g>
     </g>
     <g id="text_6">
      <!-- −400 -->
      <g transform="translate(23.132812 275.121105) scale(0.1 -0.1)">
       <use xlink:href="#DejaVuSans-2212"/>
       <use xlink:href="#DejaVuSans-34" x="83.789062"/>
       <use xlink:href="#DejaVuSans-30" x="147.412109"/>
       <use xlink:href="#DejaVuSans-30" x="211.035156"/>
      </g>
     </g>
    </g>
    <g id="ytick_2">
     <g id="line2d_7">
      <g>
       <use xlink:href="#m8455b823e4" x="57.6" y="223.049621" style="stroke: #000000; stroke-width: 0.8"/>
      </g>
     </g>
     <g id="text_7">
      <!-- −200 -->
      <g transform="translate(23.132812 226.84884) scale(0.1 -0.1)">
       <use xlink:href="#DejaVuSans-2212"/>
       <use xlink:href="#DejaVuSans-32" x="83.789062"/>
       <use xlink:href="#DejaVuSans-30" x="147.412109"/>
       <use xlink:href="#DejaVuSans-30" x="211.035156"/>
      </g>
     </g>
    </g>
    <g id="ytick_3">
     <g id="line2d_8">
      <g>
       <use xlink:href="#m8455b823e4" x="57.6" y="174.777355" style="stroke: #000000; stroke-width: 0.8"/>
      </g>
     </g>
     <g id="text_8">
      <!-- 0 -->
      <g transform="translate(44.2375 178.576574) scale(0.1 -0.1)">
       <use xlink:href="#DejaVuSans-30"/>
      </g>
     </g>
    </g>
    <g id="ytick_4">
     <g id="line2d_9">
      <g>
       <use xlink:href="#m8455b823e4" x="57.6" y="126.50509" style="stroke: #000000; stroke-width: 0.8"/>
      </g>
     </g>
     <g id="text_9">
      <!-- 200 -->
      <g transform="translate(31.5125 130.304308) scale(0.1 -0.1)">
       <use xlink:href="#DejaVuSans-32"/>
       <use xlink:href="#DejaVuSans-30" x="63.623047"/>
       <use xlink:href="#DejaVuSans-30" x="127.246094"/>
      </g>
     </g>
    </g>
    <g id="ytick_5">
     <g id="line2d_10">
      <g>
       <use xlink:href="#m8455b823e4" x="57.6" y="78.232824" style="stroke: #000000; stroke-width: 0.8"/>
      </g>
     </g>
     <g id="text_10">
      <!-- 400 -->
      <g transform="translate(31.5125 82.032043) scale(0.1 -0.1)">
       <use xlink:href="#DejaVuSans-34"/>
       <use xlink:href="#DejaVuSans-30" x="63.623047"/>
       <use xlink:href="#DejaVuSans-30" x="127.246094"/>
      </g>
     </g>
    </g>
   </g>
   <g id="line2d_11">
    <path d="M 235.706218 53.976804 
L 242.227888 54.750416 
L 245.170283 55.173882 
L 246.350447 54.387871 
L 253.06053 55.202992 
L 256.076938 55.642553 
L 256.464492 54.914171 
L 263.302852 55.567168 
L 271.620376 56.610122 
L 276.064805 57.331324 
L 276.475313 57.789552 
L 283.005133 59.152812 
L 287.117707 60.197659 
L 293.486944 61.905081 
L 295.758298 62.570385 
L 296.289508 62.420023 
L 302.56939 64.366022 
L 306.586566 65.802445 
L 312.622193 68.069366 
L 314.410375 68.787944 
L 314.492168 68.987114 
L 320.288645 71.504092 
L 325.857091 74.162983 
L 331.244944 76.98588 
L 331.367353 77.053005 
L 331.135744 77.135457 
L 331.25677 77.202792 
L 336.332578 80.156412 
L 342.984017 84.328067 
L 350.702153 89.690735 
L 353.929413 92.246407 
L 354.761077 92.655715 
L 359.062597 96.28648 
L 361.238717 98.241193 
L 361.141131 98.26306 
L 361.238144 98.352687 
L 365.147639 102.119794 
L 370.657045 107.810895 
L 374.710901 112.572875 
L 377.794158 116.626539 
L 380.711086 120.828994 
L 382.471398 123.599949 
L 382.858876 123.740937 
L 385.353151 127.951184 
L 388.619022 133.987407 
L 391.905452 141.046201 
L 393.285754 144.766925 
L 393.114629 144.80299 
L 393.139534 144.876234 
L 394.496479 149.218214 
L 395.280826 152.145831 
L 395.541863 152.288188 
L 396.555531 156.692058 
L 397.103739 159.617812 
L 396.892185 159.911339 
L 397.481109 164.301274 
L 398.124555 171.242106 
L 398.174342 174.938067 
L 398.486923 174.884179 
L 398.487104 174.960212 
L 398.385174 179.408046 
L 398.188098 182.44745 
L 397.942431 182.660322 
L 397.423967 187.105563 
L 396.948275 190.100191 
L 396.873177 189.988013 
L 396.846045 190.138528 
L 395.929651 194.569167 
L 394.40971 200.604934 
L 393.003954 204.905783 
L 392.964072 204.978633 
L 391.295057 209.348919 
L 390.079931 212.192626 
L 389.91289 212.331279 
L 387.852326 216.629227 
L 385.287408 221.431148 
L 382.757878 225.590762 
L 379.54544 230.410713 
L 377.750289 232.864717 
L 377.974002 233.018555 
L 377.924278 233.085776 
L 374.755884 237.179633 
L 372.746246 239.603201 
L 372.722729 239.458099 
L 372.639716 239.554895 
L 369.099197 243.507747 
L 366.947599 245.75774 
L 367.267414 245.878708 
L 367.207504 245.940984 
L 363.299123 249.840018 
L 361.058597 251.940906 
L 360.87439 251.88928 
L 356.609497 255.607296 
L 350.284327 260.761392 
L 344.535178 264.959601 
L 339.582142 268.222613 
L 339.289126 268.070222 
L 334.100869 271.160642 
L 331.363294 272.690935 
L 331.414664 272.500121 
L 331.291651 272.566703 
L 325.843922 275.386453 
L 319.708794 278.299833 
L 314.625226 280.479511 
L 313.817701 280.701941 
L 307.846543 282.993368 
L 300.433053 285.574403 
L 290.37137 288.664052 
L 282.99308 290.497256 
L 276.92476 291.758762 
L 275.64213 291.950408 
L 269.008595 293.067318 
L 266.737489 293.398639 
L 266.241126 293.301488 
L 259.552223 294.08841 
L 252.078753 294.731549 
L 246.562039 295.016529 
L 246.365575 295.278258 
L 239.472967 295.472139 
L 234.06937 295.426229 
L 227.180858 295.220661 
L 218.315821 294.701875 
L 208.494786 293.746492 
L 205.387053 293.23399 
L 198.533884 292.120881 
L 195.567126 291.477249 
L 188.858442 290.049266 
L 182.105354 288.381616 
L 173.886174 286.092387 
L 167.557735 284.016328 
L 159.959155 281.264618 
L 152.551004 278.242062 
L 149.167544 276.723059 
L 149.301912 276.598425 
L 149.215184 276.557959 
L 143.438321 273.737927 
L 135.475606 269.550276 
L 132.581461 267.85422 
L 132.790855 267.827859 
L 132.672498 267.756246 
L 127.557798 264.52812 
L 124.730986 262.53672 
L 119.998839 259.11768 
L 113.5517 254.126089 
L 111.239593 252.143589 
L 111.291301 251.810567 
L 107.347933 248.137372 
L 105.168682 245.969337 
L 105.016845 245.584337 
L 101.461688 241.749916 
L 98.730255 238.506804 
L 95.615963 234.550052 
L 94.41385 232.920592 
L 94.487178 232.735967 
L 91.719079 228.669284 
L 90.053998 226.015273 
L 89.71608 225.904499 
L 87.240121 221.666073 
L 85.8142 219.001339 
L 85.529636 219.053267 
L 83.391282 214.755894 
L 80.235685 207.769218 
L 78.318895 202.494896 
L 76.993917 198.059024 
L 76.294662 195.073557 
L 75.352471 190.577523 
L 75.189225 189.667812 
L 75.279941 189.474119 
L 74.635663 184.983405 
L 74.372672 181.82272 
L 74.138109 177.357995 
L 74.103531 174.958653 
L 74.198488 174.545473 
L 74.334369 170.06742 
L 74.75139 164.520861 
L 75.378496 160.044793 
L 75.421893 159.784565 
L 75.610363 159.628002 
L 76.502708 155.185483 
L 78.218637 148.115352 
L 79.230955 144.988563 
L 79.595763 145.011803 
L 81.236089 140.754944 
L 84.225667 133.819278 
L 85.809669 130.787698 
L 85.612614 130.46742 
L 87.956691 126.304995 
L 89.573733 123.669769 
L 89.492727 123.26678 
L 92.221624 119.103806 
L 93.982507 116.614748 
L 94.167003 116.594339 
L 97.262951 112.571025 
L 99.930388 109.430323 
L 103.483455 105.489097 
L 104.962883 103.940548 
L 105.194895 103.838567 
L 109.092612 100.018114 
L 114.60351 94.980933 
L 119.55553 90.906602 
L 124.235925 87.393249 
L 128.400811 84.52488 
L 135.32532 80.009852 
L 140.548065 76.988026 
L 140.774478 76.96271 
L 146.24525 74.077491 
L 149.506464 72.555561 
L 155.292949 69.910944 
L 157.949019 68.77618 
L 158.135353 68.903859 
L 164.169378 66.540641 
L 169.421097 64.70483 
L 175.65302 62.714778 
L 178.630516 61.934544 
L 185.091839 60.227211 
L 185.864276 60.03834 
L 186.125621 60.136121 
L 192.715608 58.68643 
L 202.815999 56.750719 
L 211.397406 55.533623 
L 218.568981 54.819683 
L 225.536829 54.361144 
L 231.572044 54.173076 
L 236.094961 54.126743 
L 236.094961 54.126743 
" clip-path="url(#p329f039a1c)" style="fill: none; stroke: #1f77b4; stroke-width: 1.5; stroke-linecap: square"/>
   </g>
   <g id="line2d_12">
    <path d="M 236.165026 54.096691 
L 243.138793 54.20845 
L 250.099644 54.543519 
L 256.98419 55.096403 
L 263.830736 55.867728 
L 270.626787 56.856088 
L 277.359937 58.059678 
L 284.017899 59.476302 
L 290.540554 61.09065 
L 296.965417 62.909458 
L 303.23458 64.913764 
L 309.384901 67.112739 
L 315.36106 69.483958 
L 321.198975 72.038975 
L 326.846257 74.752113 
L 332.337619 77.637238 
L 337.623915 80.665652 
L 342.700022 83.828518 
L 347.561477 87.117 
L 352.239999 90.549436 
L 356.693868 94.091992 
L 360.920363 97.735816 
L 364.94829 101.502263 
L 368.741954 105.354325 
L 372.300282 109.283303 
L 375.62276 113.280645 
L 378.733629 117.371299 
L 381.605706 121.515035 
L 384.239942 125.703652 
L 386.656685 129.96435 
L 388.835293 134.255155 
L 390.778048 138.56834 
L 392.50109 142.93298 
L 393.990386 147.305954 
L 395.259125 151.717319 
L 396.305535 156.160909 
L 397.122177 160.592864 
L 397.717649 165.04431 
L 398.091134 169.50913 
L 398.242118 173.981189 
L 398.170395 178.454342 
L 397.876062 182.922443 
L 397.359524 187.379351 
L 396.621491 191.818943 
L 395.662977 196.235119 
L 394.474387 200.658842 
L 393.064564 205.046396 
L 391.435478 209.39165 
L 389.57298 213.724418 
L 387.492482 218.00184 
L 385.176915 222.252696 
L 382.64605 226.434958 
L 379.880008 230.576202 
L 376.877613 234.668407 
L 373.665135 238.671195 
L 370.218758 242.609951 
L 366.538727 246.47628 
L 362.65767 250.232054 
L 358.548192 253.900114 
L 354.212091 257.47183 
L 349.651751 260.938475 
L 344.907923 264.265813 
L 339.949172 267.472745 
L 334.779585 270.550528 
L 329.403889 273.490401 
L 323.870294 276.263106 
L 318.14425 278.883127 
L 312.23229 281.341944 
L 306.187547 283.614743 
L 299.973771 285.71249 
L 293.646931 287.613668 
L 287.169907 289.326845 
L 280.601153 290.834008 
L 273.952481 292.132448 
L 267.185875 293.22709 
L 260.362648 294.105538 
L 253.495256 294.766187 
L 246.596233 295.207832 
L 239.627264 295.430483 
L 232.651882 295.429667 
L 225.683007 295.205386 
L 218.733545 294.758056 
L 211.866712 294.094194 
L 205.044229 293.212554 
L 198.278547 292.114747 
L 191.582016 290.802774 
L 185.015172 289.291002 
L 178.54032 287.57328 
L 172.169104 285.652699 
L 165.958873 283.549141 
L 159.873042 281.252846 
L 153.966276 278.787118 
L 148.202994 276.139833 
L 142.634838 273.337494 
L 137.267838 270.388825 
L 132.068319 267.27824 
L 127.082742 264.036527 
L 122.315321 260.672589 
L 117.76963 257.195294 
L 113.415363 253.584744 
L 109.291241 249.876458 
L 105.399136 246.079232 
L 101.740344 242.201744 
L 98.288824 238.220293 
L 95.074954 234.174024 
L 92.098492 230.07133 
L 89.337119 225.886084 
L 86.814731 221.65947 
L 84.529688 217.399467 
L 82.463732 213.077882 
L 80.634171 208.737341 
L 79.025627 204.348542 
L 77.651003 199.9548 
L 76.497897 195.525873 
L 75.567922 191.067951 
L 74.867367 186.624994 
L 74.38845 182.165757 
L 74.131827 177.696368 
L 74.097853 173.222967 
L 74.286572 168.751703 
L 74.697726 164.288718 
L 75.330751 159.840146 
L 76.184775 155.412099 
L 77.258626 151.010661 
L 78.562708 146.605014 
L 80.087034 142.238737 
L 81.845035 137.881832 
L 83.822333 133.577358 
L 86.0353 129.296311 
L 88.46518 125.080978 
L 91.131187 120.903519 
L 94.01022 116.805191 
L 97.124213 112.759486 
L 100.473634 108.774629 
L 104.028947 104.889923 
L 107.815847 101.081234 
L 111.833312 97.357093 
L 116.079759 93.726152 
L 120.51734 90.224217 
L 125.176095 86.830895 
L 130.052783 83.554941 
L 135.14354 80.405155 
L 140.402774 77.412756 
L 145.863993 74.561608 
L 151.521556 71.86037 
L 157.324657 69.33609 
L 163.3088 66.976062 
L 169.42012 64.80421 
L 175.695188 62.810174 
L 182.077404 61.014536 
L 188.604134 59.409347 
L 195.216401 58.011642 
L 201.952083 56.815928 
L 208.75021 55.835518 
L 215.598375 55.072201 
L 222.484079 54.52737 
L 229.394753 54.20202 
L 236.114107 54.096697 
L 236.114107 54.096697 
" clip-path="url(#p329f039a1c)" style="fill: none; stroke: #ff7f0e; stroke-width: 1.5; stroke-linecap: square"/>
   </g>
   <g id="line2d_13">
    <path d="M 397.849772 182.630826 
" clip-path="url(#p329f039a1c)" style="fill: none; stroke: #2ca02c; stroke-width: 1.5; stroke-linecap: square"/>
    <defs>
     <path id="m4eb6b51a1e" d="M -3 3 
L 3 -3 
M -3 -3 
L 3 3 
" style="stroke: #2ca02c"/>
    </defs>
    <g clip-path="url(#p329f039a1c)">
     <use xlink:href="#m4eb6b51a1e" x="398.406661" y="175.118971" style="fill: #2ca02c; stroke: #2ca02c"/>
     <use xlink:href="#m4eb6b51a1e" x="397.880996" y="167.301281" style="fill: #2ca02c; stroke: #2ca02c"/>
     <use xlink:href="#m4eb6b51a1e" x="397.177547" y="159.734775" style="fill: #2ca02c; stroke: #2ca02c"/>
     <use xlink:href="#m4eb6b51a1e" x="395.868459" y="152.357693" style="fill: #2ca02c; stroke: #2ca02c"/>
     <use xlink:href="#m4eb6b51a1e" x="393.077681" y="144.804223" style="fill: #2ca02c; stroke: #2ca02c"/>
     <use xlink:href="#m4eb6b51a1e" x="390.236957" y="137.387457" style="fill: #2ca02c; stroke: #2ca02c"/>
     <use xlink:href="#m4eb6b51a1e" x="387.375694" y="129.896587" style="fill: #2ca02c; stroke: #2ca02c"/>
     <use xlink:href="#m4eb6b51a1e" x="383.068728" y="123.351891" style="fill: #2ca02c; stroke: #2ca02c"/>
     <use xlink:href="#m4eb6b51a1e" x="378.04517" y="116.576839" style="fill: #2ca02c; stroke: #2ca02c"/>
     <use xlink:href="#m4eb6b51a1e" x="373.190096" y="110.13139" style="fill: #2ca02c; stroke: #2ca02c"/>
     <use xlink:href="#m4eb6b51a1e" x="367.14078" y="104.306158" style="fill: #2ca02c; stroke: #2ca02c"/>
     <use xlink:href="#m4eb6b51a1e" x="360.899318" y="97.859004" style="fill: #2ca02c; stroke: #2ca02c"/>
     <use xlink:href="#m4eb6b51a1e" x="354.395148" y="92.151219" style="fill: #2ca02c; stroke: #2ca02c"/>
     <use xlink:href="#m4eb6b51a1e" x="346.496634" y="86.210406" style="fill: #2ca02c; stroke: #2ca02c"/>
     <use xlink:href="#m4eb6b51a1e" x="338.91995" y="81.837734" style="fill: #2ca02c; stroke: #2ca02c"/>
     <use xlink:href="#m4eb6b51a1e" x="331.251352" y="77.071865" style="fill: #2ca02c; stroke: #2ca02c"/>
     <use xlink:href="#m4eb6b51a1e" x="322.683844" y="72.891679" style="fill: #2ca02c; stroke: #2ca02c"/>
     <use xlink:href="#m4eb6b51a1e" x="314.349827" y="69.306157" style="fill: #2ca02c; stroke: #2ca02c"/>
     <use xlink:href="#m4eb6b51a1e" x="304.881251" y="65.306393" style="fill: #2ca02c; stroke: #2ca02c"/>
     <use xlink:href="#m4eb6b51a1e" x="295.373068" y="62.389824" style="fill: #2ca02c; stroke: #2ca02c"/>
     <use xlink:href="#m4eb6b51a1e" x="286.725799" y="59.812299" style="fill: #2ca02c; stroke: #2ca02c"/>
     <use xlink:href="#m4eb6b51a1e" x="276.399649" y="58.107587" style="fill: #2ca02c; stroke: #2ca02c"/>
     <use xlink:href="#m4eb6b51a1e" x="266.557796" y="55.895697" style="fill: #2ca02c; stroke: #2ca02c"/>
     <use xlink:href="#m4eb6b51a1e" x="256.017266" y="55.386647" style="fill: #2ca02c; stroke: #2ca02c"/>
     <use xlink:href="#m4eb6b51a1e" x="246.165685" y="54.193182" style="fill: #2ca02c; stroke: #2ca02c"/>
     <use xlink:href="#m4eb6b51a1e" x="236.200983" y="53.568" style="fill: #2ca02c; stroke: #2ca02c"/>
     <use xlink:href="#m4eb6b51a1e" x="225.614793" y="54.573904" style="fill: #2ca02c; stroke: #2ca02c"/>
     <use xlink:href="#m4eb6b51a1e" x="215.972725" y="55.184977" style="fill: #2ca02c; stroke: #2ca02c"/>
     <use xlink:href="#m4eb6b51a1e" x="205.599443" y="56.210226" style="fill: #2ca02c; stroke: #2ca02c"/>
     <use xlink:href="#m4eb6b51a1e" x="195.76266" y="58.009616" style="fill: #2ca02c; stroke: #2ca02c"/>
     <use xlink:href="#m4eb6b51a1e" x="185.884311" y="60.377494" style="fill: #2ca02c; stroke: #2ca02c"/>
     <use xlink:href="#m4eb6b51a1e" x="177.099608" y="62.554763" style="fill: #2ca02c; stroke: #2ca02c"/>
     <use xlink:href="#m4eb6b51a1e" x="167.15008" y="65.838625" style="fill: #2ca02c; stroke: #2ca02c"/>
     <use xlink:href="#m4eb6b51a1e" x="157.739224" y="68.909776" style="fill: #2ca02c; stroke: #2ca02c"/>
     <use xlink:href="#m4eb6b51a1e" x="149.584525" y="73.105214" style="fill: #2ca02c; stroke: #2ca02c"/>
     <use xlink:href="#m4eb6b51a1e" x="140.500679" y="76.770553" style="fill: #2ca02c; stroke: #2ca02c"/>
     <use xlink:href="#m4eb6b51a1e" x="132.918657" y="81.980353" style="fill: #2ca02c; stroke: #2ca02c"/>
     <use xlink:href="#m4eb6b51a1e" x="124.577959" y="86.88267" style="fill: #2ca02c; stroke: #2ca02c"/>
     <use xlink:href="#m4eb6b51a1e" x="117.582794" y="91.969404" style="fill: #2ca02c; stroke: #2ca02c"/>
     <use xlink:href="#m4eb6b51a1e" x="111.343578" y="98.149688" style="fill: #2ca02c; stroke: #2ca02c"/>
     <use xlink:href="#m4eb6b51a1e" x="105.278433" y="103.788141" style="fill: #2ca02c; stroke: #2ca02c"/>
     <use xlink:href="#m4eb6b51a1e" x="99.371385" y="109.797928" style="fill: #2ca02c; stroke: #2ca02c"/>
     <use xlink:href="#m4eb6b51a1e" x="94.095209" y="117.026986" style="fill: #2ca02c; stroke: #2ca02c"/>
     <use xlink:href="#m4eb6b51a1e" x="89.412492" y="123.349464" style="fill: #2ca02c; stroke: #2ca02c"/>
     <use xlink:href="#m4eb6b51a1e" x="84.986999" y="130.289114" style="fill: #2ca02c; stroke: #2ca02c"/>
     <use xlink:href="#m4eb6b51a1e" x="81.783852" y="137.296277" style="fill: #2ca02c; stroke: #2ca02c"/>
     <use xlink:href="#m4eb6b51a1e" x="79.027147" y="145.063847" style="fill: #2ca02c; stroke: #2ca02c"/>
     <use xlink:href="#m4eb6b51a1e" x="77.297979" y="152.482761" style="fill: #2ca02c; stroke: #2ca02c"/>
     <use xlink:href="#m4eb6b51a1e" x="75.473849" y="159.526081" style="fill: #2ca02c; stroke: #2ca02c"/>
     <use xlink:href="#m4eb6b51a1e" x="73.832727" y="167.128073" style="fill: #2ca02c; stroke: #2ca02c"/>
     <use xlink:href="#m4eb6b51a1e" x="74.189463" y="174.716896" style="fill: #2ca02c; stroke: #2ca02c"/>
     <use xlink:href="#m4eb6b51a1e" x="74.279408" y="182.271338" style="fill: #2ca02c; stroke: #2ca02c"/>
     <use xlink:href="#m4eb6b51a1e" x="75.14303" y="190.066785" style="fill: #2ca02c; stroke: #2ca02c"/>
     <use xlink:href="#m4eb6b51a1e" x="77.153583" y="197.3346" style="fill: #2ca02c; stroke: #2ca02c"/>
     <use xlink:href="#m4eb6b51a1e" x="79.510678" y="204.71868" style="fill: #2ca02c; stroke: #2ca02c"/>
     <use xlink:href="#m4eb6b51a1e" x="82.319083" y="212.242148" style="fill: #2ca02c; stroke: #2ca02c"/>
     <use xlink:href="#m4eb6b51a1e" x="85.194236" y="218.752545" style="fill: #2ca02c; stroke: #2ca02c"/>
     <use xlink:href="#m4eb6b51a1e" x="89.409863" y="226.046318" style="fill: #2ca02c; stroke: #2ca02c"/>
     <use xlink:href="#m4eb6b51a1e" x="94.24008" y="233.203243" style="fill: #2ca02c; stroke: #2ca02c"/>
     <use xlink:href="#m4eb6b51a1e" x="99.632068" y="239.282822" style="fill: #2ca02c; stroke: #2ca02c"/>
     <use xlink:href="#m4eb6b51a1e" x="104.883722" y="245.94692" style="fill: #2ca02c; stroke: #2ca02c"/>
     <use xlink:href="#m4eb6b51a1e" x="111.21958" y="251.512134" style="fill: #2ca02c; stroke: #2ca02c"/>
     <use xlink:href="#m4eb6b51a1e" x="117.654709" y="257.109314" style="fill: #2ca02c; stroke: #2ca02c"/>
     <use xlink:href="#m4eb6b51a1e" x="124.825444" y="262.947854" style="fill: #2ca02c; stroke: #2ca02c"/>
     <use xlink:href="#m4eb6b51a1e" x="133.114341" y="267.530883" style="fill: #2ca02c; stroke: #2ca02c"/>
     <use xlink:href="#m4eb6b51a1e" x="141.336069" y="272.310434" style="fill: #2ca02c; stroke: #2ca02c"/>
     <use xlink:href="#m4eb6b51a1e" x="149.294545" y="276.472996" style="fill: #2ca02c; stroke: #2ca02c"/>
     <use xlink:href="#m4eb6b51a1e" x="158.407399" y="280.072815" style="fill: #2ca02c; stroke: #2ca02c"/>
     <use xlink:href="#m4eb6b51a1e" x="167.271684" y="284.031712" style="fill: #2ca02c; stroke: #2ca02c"/>
     <use xlink:href="#m4eb6b51a1e" x="176.290048" y="287.165322" style="fill: #2ca02c; stroke: #2ca02c"/>
     <use xlink:href="#m4eb6b51a1e" x="186.196511" y="289.766182" style="fill: #2ca02c; stroke: #2ca02c"/>
     <use xlink:href="#m4eb6b51a1e" x="196.355787" y="291.863519" style="fill: #2ca02c; stroke: #2ca02c"/>
     <use xlink:href="#m4eb6b51a1e" x="205.782534" y="293.339042" style="fill: #2ca02c; stroke: #2ca02c"/>
     <use xlink:href="#m4eb6b51a1e" x="216.358135" y="294.424075" style="fill: #2ca02c; stroke: #2ca02c"/>
     <use xlink:href="#m4eb6b51a1e" x="225.13868" y="295.153101" style="fill: #2ca02c; stroke: #2ca02c"/>
     <use xlink:href="#m4eb6b51a1e" x="236.431455" y="295.258369" style="fill: #2ca02c; stroke: #2ca02c"/>
     <use xlink:href="#m4eb6b51a1e" x="246.37037" y="295.216745" style="fill: #2ca02c; stroke: #2ca02c"/>
     <use xlink:href="#m4eb6b51a1e" x="256.382188" y="294.155589" style="fill: #2ca02c; stroke: #2ca02c"/>
     <use xlink:href="#m4eb6b51a1e" x="266.565651" y="293.384311" style="fill: #2ca02c; stroke: #2ca02c"/>
     <use xlink:href="#m4eb6b51a1e" x="275.828545" y="291.010071" style="fill: #2ca02c; stroke: #2ca02c"/>
     <use xlink:href="#m4eb6b51a1e" x="286.179483" y="289.400475" style="fill: #2ca02c; stroke: #2ca02c"/>
     <use xlink:href="#m4eb6b51a1e" x="295.946644" y="287.190284" style="fill: #2ca02c; stroke: #2ca02c"/>
     <use xlink:href="#m4eb6b51a1e" x="305.654674" y="284.230957" style="fill: #2ca02c; stroke: #2ca02c"/>
     <use xlink:href="#m4eb6b51a1e" x="314.079957" y="280.414177" style="fill: #2ca02c; stroke: #2ca02c"/>
     <use xlink:href="#m4eb6b51a1e" x="322.750083" y="276.725345" style="fill: #2ca02c; stroke: #2ca02c"/>
     <use xlink:href="#m4eb6b51a1e" x="331.270974" y="272.237731" style="fill: #2ca02c; stroke: #2ca02c"/>
     <use xlink:href="#m4eb6b51a1e" x="339.775839" y="267.649184" style="fill: #2ca02c; stroke: #2ca02c"/>
     <use xlink:href="#m4eb6b51a1e" x="347.223413" y="262.767351" style="fill: #2ca02c; stroke: #2ca02c"/>
     <use xlink:href="#m4eb6b51a1e" x="354.144985" y="257.593338" style="fill: #2ca02c; stroke: #2ca02c"/>
     <use xlink:href="#m4eb6b51a1e" x="361.216671" y="252.067731" style="fill: #2ca02c; stroke: #2ca02c"/>
     <use xlink:href="#m4eb6b51a1e" x="367.32247" y="245.819441" style="fill: #2ca02c; stroke: #2ca02c"/>
     <use xlink:href="#m4eb6b51a1e" x="373.328216" y="239.234587" style="fill: #2ca02c; stroke: #2ca02c"/>
     <use xlink:href="#m4eb6b51a1e" x="377.969777" y="232.864035" style="fill: #2ca02c; stroke: #2ca02c"/>
     <use xlink:href="#m4eb6b51a1e" x="382.71374" y="226.461356" style="fill: #2ca02c; stroke: #2ca02c"/>
     <use xlink:href="#m4eb6b51a1e" x="386.736669" y="219.161072" style="fill: #2ca02c; stroke: #2ca02c"/>
     <use xlink:href="#m4eb6b51a1e" x="389.83844" y="211.976731" style="fill: #2ca02c; stroke: #2ca02c"/>
     <use xlink:href="#m4eb6b51a1e" x="393.249575" y="205.002745" style="fill: #2ca02c; stroke: #2ca02c"/>
     <use xlink:href="#m4eb6b51a1e" x="395.459376" y="197.353553" style="fill: #2ca02c; stroke: #2ca02c"/>
     <use xlink:href="#m4eb6b51a1e" x="396.969249" y="189.888604" style="fill: #2ca02c; stroke: #2ca02c"/>
     <use xlink:href="#m4eb6b51a1e" x="397.849772" y="182.630826" style="fill: #2ca02c; stroke: #2ca02c"/>
    </g>
   </g>
   <g id="patch_3">
    <path d="M 57.6 307.584 
L 57.6 41.472 
" style="fill: none; stroke: #000000; stroke-width: 0.8; stroke-linejoin: miter; stroke-linecap: square"/>
   </g>
   <g id="patch_4">
    <path d="M 414.72 307.584 
L 414.72 41.472 
" style="fill: none; stroke: #000000; stroke-width: 0.8; stroke-linejoin: miter; stroke-linecap: square"/>
   </g>
   <g id="patch_5">
    <path d="M 57.6 307.584 
L 414.72 307.584 
" style="fill: none; stroke: #000000; stroke-width: 0.8; stroke-linejoin: miter; stroke-linecap: square"/>
   </g>
   <g id="patch_6">
    <path d="M 57.6 41.472 
L 414.72 41.472 
" style="fill: none; stroke: #000000; stroke-width: 0.8; stroke-linejoin: miter; stroke-linecap: square"/>
   </g>
   <g id="legend_1">
    <g id="patch_7">
     <path d="M 193.535 198.045187 
L 278.785 198.045187 
Q 280.785 198.045187 280.785 196.045187 
L 280.785 153.010812 
Q 280.785 151.010812 278.785 151.010812 
L 193.535 151.010812 
Q 191.535 151.010812 191.535 153.010812 
L 191.535 196.045187 
Q 191.535 198.045187 193.535 198.045187 
z
" style="fill: #ffffff; opacity: 0.8; stroke: #cccccc; stroke-linejoin: miter"/>
    </g>
    <g id="line2d_14">
     <path d="M 195.535 159.10925 
L 205.535 159.10925 
L 215.535 159.10925 
" style="fill: none; stroke: #1f77b4; stroke-width: 1.5; stroke-linecap: square"/>
    </g>
    <g id="text_11">
     <!-- Estimation -->
     <g transform="translate(223.535 162.60925) scale(0.1 -0.1)">
      <defs>
       <path id="DejaVuSans-45" d="M 628 4666 
L 3578 4666 
L 3578 4134 
L 1259 4134 
L 1259 2753 
L 3481 2753 
L 3481 2222 
L 1259 2222 
L 1259 531 
L 3634 531 
L 3634 0 
L 628 0 
L 628 4666 
z
" transform="scale(0.015625)"/>
       <path id="DejaVuSans-73" d="M 2834 3397 
L 2834 2853 
Q 2591 2978 2328 3040 
Q 2066 3103 1784 3103 
Q 1356 3103 1142 2972 
Q 928 2841 928 2578 
Q 928 2378 1081 2264 
Q 1234 2150 1697 2047 
L 1894 2003 
Q 2506 1872 2764 1633 
Q 3022 1394 3022 966 
Q 3022 478 2636 193 
Q 2250 -91 1575 -91 
Q 1294 -91 989 -36 
Q 684 19 347 128 
L 347 722 
Q 666 556 975 473 
Q 1284 391 1588 391 
Q 1994 391 2212 530 
Q 2431 669 2431 922 
Q 2431 1156 2273 1281 
Q 2116 1406 1581 1522 
L 1381 1569 
Q 847 1681 609 1914 
Q 372 2147 372 2553 
Q 372 3047 722 3315 
Q 1072 3584 1716 3584 
Q 2034 3584 2315 3537 
Q 2597 3491 2834 3397 
z
" transform="scale(0.015625)"/>
       <path id="DejaVuSans-74" d="M 1172 4494 
L 1172 3500 
L 2356 3500 
L 2356 3053 
L 1172 3053 
L 1172 1153 
Q 1172 725 1289 603 
Q 1406 481 1766 481 
L 2356 481 
L 2356 0 
L 1766 0 
Q 1100 0 847 248 
Q 594 497 594 1153 
L 594 3053 
L 172 3053 
L 172 3500 
L 594 3500 
L 594 4494 
L 1172 4494 
z
" transform="scale(0.015625)"/>
       <path id="DejaVuSans-69" d="M 603 3500 
L 1178 3500 
L 1178 0 
L 603 0 
L 603 3500 
z
M 603 4863 
L 1178 4863 
L 1178 4134 
L 603 4134 
L 603 4863 
z
" transform="scale(0.015625)"/>
       <path id="DejaVuSans-6d" d="M 3328 2828 
Q 3544 3216 3844 3400 
Q 4144 3584 4550 3584 
Q 5097 3584 5394 3201 
Q 5691 2819 5691 2113 
L 5691 0 
L 5113 0 
L 5113 2094 
Q 5113 2597 4934 2840 
Q 4756 3084 4391 3084 
Q 3944 3084 3684 2787 
Q 3425 2491 3425 1978 
L 3425 0 
L 2847 0 
L 2847 2094 
Q 2847 2600 2669 2842 
Q 2491 3084 2119 3084 
Q 1678 3084 1418 2786 
Q 1159 2488 1159 1978 
L 1159 0 
L 581 0 
L 581 3500 
L 1159 3500 
L 1159 2956 
Q 1356 3278 1631 3431 
Q 1906 3584 2284 3584 
Q 2666 3584 2933 3390 
Q 3200 3197 3328 2828 
z
" transform="scale(0.015625)"/>
       <path id="DejaVuSans-61" d="M 2194 1759 
Q 1497 1759 1228 1600 
Q 959 1441 959 1056 
Q 959 750 1161 570 
Q 1363 391 1709 391 
Q 2188 391 2477 730 
Q 2766 1069 2766 1631 
L 2766 1759 
L 2194 1759 
z
M 3341 1997 
L 3341 0 
L 2766 0 
L 2766 531 
Q 2569 213 2275 61 
Q 1981 -91 1556 -91 
Q 1019 -91 701 211 
Q 384 513 384 1019 
Q 384 1609 779 1909 
Q 1175 2209 1959 2209 
L 2766 2209 
L 2766 2266 
Q 2766 2663 2505 2880 
Q 2244 3097 1772 3097 
Q 1472 3097 1187 3025 
Q 903 2953 641 2809 
L 641 3341 
Q 956 3463 1253 3523 
Q 1550 3584 1831 3584 
Q 2591 3584 2966 3190 
Q 3341 2797 3341 1997 
z
" transform="scale(0.015625)"/>
       <path id="DejaVuSans-6f" d="M 1959 3097 
Q 1497 3097 1228 2736 
Q 959 2375 959 1747 
Q 959 1119 1226 758 
Q 1494 397 1959 397 
Q 2419 397 2687 759 
Q 2956 1122 2956 1747 
Q 2956 2369 2687 2733 
Q 2419 3097 1959 3097 
z
M 1959 3584 
Q 2709 3584 3137 3096 
Q 3566 2609 3566 1747 
Q 3566 888 3137 398 
Q 2709 -91 1959 -91 
Q 1206 -91 779 398 
Q 353 888 353 1747 
Q 353 2609 779 3096 
Q 1206 3584 1959 3584 
z
" transform="scale(0.015625)"/>
       <path id="DejaVuSans-6e" d="M 3513 2113 
L 3513 0 
L 2938 0 
L 2938 2094 
Q 2938 2591 2744 2837 
Q 2550 3084 2163 3084 
Q 1697 3084 1428 2787 
Q 1159 2491 1159 1978 
L 1159 0 
L 581 0 
L 581 3500 
L 1159 3500 
L 1159 2956 
Q 1366 3272 1645 3428 
Q 1925 3584 2291 3584 
Q 2894 3584 3203 3211 
Q 3513 2838 3513 2113 
z
" transform="scale(0.015625)"/>
      </defs>
      <use xlink:href="#DejaVuSans-45"/>
      <use xlink:href="#DejaVuSans-73" x="63.183594"/>
      <use xlink:href="#DejaVuSans-74" x="115.283203"/>
      <use xlink:href="#DejaVuSans-69" x="154.492188"/>
      <use xlink:href="#DejaVuSans-6d" x="182.275391"/>
      <use xlink:href="#DejaVuSans-61" x="279.6875"/>
      <use xlink:href="#DejaVuSans-74" x="340.966797"/>
      <use xlink:href="#DejaVuSans-69" x="380.175781"/>
      <use xlink:href="#DejaVuSans-6f" x="407.958984"/>
      <use xlink:href="#DejaVuSans-6e" x="469.140625"/>
     </g>
    </g>
    <g id="line2d_15">
     <path d="M 195.535 173.787375 
L 205.535 173.787375 
L 215.535 173.787375 
" style="fill: none; stroke: #ff7f0e; stroke-width: 1.5; stroke-linecap: square"/>
    </g>
    <g id="text_12">
     <!-- Truth -->
     <g transform="translate(223.535 177.287375) scale(0.1 -0.1)">
      <defs>
       <path id="DejaVuSans-54" d="M -19 4666 
L 3928 4666 
L 3928 4134 
L 2272 4134 
L 2272 0 
L 1638 0 
L 1638 4134 
L -19 4134 
L -19 4666 
z
" transform="scale(0.015625)"/>
       <path id="DejaVuSans-72" d="M 2631 2963 
Q 2534 3019 2420 3045 
Q 2306 3072 2169 3072 
Q 1681 3072 1420 2755 
Q 1159 2438 1159 1844 
L 1159 0 
L 581 0 
L 581 3500 
L 1159 3500 
L 1159 2956 
Q 1341 3275 1631 3429 
Q 1922 3584 2338 3584 
Q 2397 3584 2469 3576 
Q 2541 3569 2628 3553 
L 2631 2963 
z
" transform="scale(0.015625)"/>
       <path id="DejaVuSans-75" d="M 544 1381 
L 544 3500 
L 1119 3500 
L 1119 1403 
Q 1119 906 1312 657 
Q 1506 409 1894 409 
Q 2359 409 2629 706 
Q 2900 1003 2900 1516 
L 2900 3500 
L 3475 3500 
L 3475 0 
L 2900 0 
L 2900 538 
Q 2691 219 2414 64 
Q 2138 -91 1772 -91 
Q 1169 -91 856 284 
Q 544 659 544 1381 
z
M 1991 3584 
L 1991 3584 
z
" transform="scale(0.015625)"/>
       <path id="DejaVuSans-68" d="M 3513 2113 
L 3513 0 
L 2938 0 
L 2938 2094 
Q 2938 2591 2744 2837 
Q 2550 3084 2163 3084 
Q 1697 3084 1428 2787 
Q 1159 2491 1159 1978 
L 1159 0 
L 581 0 
L 581 4863 
L 1159 4863 
L 1159 2956 
Q 1366 3272 1645 3428 
Q 1925 3584 2291 3584 
Q 2894 3584 3203 3211 
Q 3513 2838 3513 2113 
z
" transform="scale(0.015625)"/>
      </defs>
      <use xlink:href="#DejaVuSans-54"/>
      <use xlink:href="#DejaVuSans-72" x="46.333984"/>
      <use xlink:href="#DejaVuSans-75" x="87.447266"/>
      <use xlink:href="#DejaVuSans-74" x="150.826172"/>
      <use xlink:href="#DejaVuSans-68" x="190.035156"/>
     </g>
    </g>
    <g id="line2d_16">
     <path d="M 195.535 188.4655 
L 205.535 188.4655 
L 215.535 188.4655 
" style="fill: none; stroke: #2ca02c; stroke-width: 1.5; stroke-linecap: square"/>
     <g>
      <use xlink:href="#m4eb6b51a1e" x="205.535" y="188.4655" style="fill: #2ca02c; stroke: #2ca02c"/>
     </g>
    </g>
    <g id="text_13">
     <!-- GPS -->
     <g transform="translate(223.535 191.9655) scale(0.1 -0.1)">
      <defs>
       <path id="DejaVuSans-47" d="M 3809 666 
L 3809 1919 
L 2778 1919 
L 2778 2438 
L 4434 2438 
L 4434 434 
Q 4069 175 3628 42 
Q 3188 -91 2688 -91 
Q 1594 -91 976 548 
Q 359 1188 359 2328 
Q 359 3472 976 4111 
Q 1594 4750 2688 4750 
Q 3144 4750 3555 4637 
Q 3966 4525 4313 4306 
L 4313 3634 
Q 3963 3931 3569 4081 
Q 3175 4231 2741 4231 
Q 1884 4231 1454 3753 
Q 1025 3275 1025 2328 
Q 1025 1384 1454 906 
Q 1884 428 2741 428 
Q 3075 428 3337 486 
Q 3600 544 3809 666 
z
" transform="scale(0.015625)"/>
       <path id="DejaVuSans-50" d="M 1259 4147 
L 1259 2394 
L 2053 2394 
Q 2494 2394 2734 2622 
Q 2975 2850 2975 3272 
Q 2975 3691 2734 3919 
Q 2494 4147 2053 4147 
L 1259 4147 
z
M 628 4666 
L 2053 4666 
Q 2838 4666 3239 4311 
Q 3641 3956 3641 3272 
Q 3641 2581 3239 2228 
Q 2838 1875 2053 1875 
L 1259 1875 
L 1259 0 
L 628 0 
L 628 4666 
z
" transform="scale(0.015625)"/>
       <path id="DejaVuSans-53" d="M 3425 4513 
L 3425 3897 
Q 3066 4069 2747 4153 
Q 2428 4238 2131 4238 
Q 1616 4238 1336 4038 
Q 1056 3838 1056 3469 
Q 1056 3159 1242 3001 
Q 1428 2844 1947 2747 
L 2328 2669 
Q 3034 2534 3370 2195 
Q 3706 1856 3706 1288 
Q 3706 609 3251 259 
Q 2797 -91 1919 -91 
Q 1588 -91 1214 -16 
Q 841 59 441 206 
L 441 856 
Q 825 641 1194 531 
Q 1563 422 1919 422 
Q 2459 422 2753 634 
Q 3047 847 3047 1241 
Q 3047 1584 2836 1778 
Q 2625 1972 2144 2069 
L 1759 2144 
Q 1053 2284 737 2584 
Q 422 2884 422 3419 
Q 422 4038 858 4394 
Q 1294 4750 2059 4750 
Q 2388 4750 2728 4690 
Q 3069 4631 3425 4513 
z
" transform="scale(0.015625)"/>
      </defs>
      <use xlink:href="#DejaVuSans-47"/>
      <use xlink:href="#DejaVuSans-50" x="77.490234"/>
      <use xlink:href="#DejaVuSans-53" x="137.792969"/>
     </g>
    </g>
   </g>
  </g>
 </g>
 <defs>
  <clipPath id="p329f039a1c">
   <rect x="57.6" y="41.472" width="357.12" height="266.112"/>
  </clipPath>
 </defs>
</svg>
