<?xml version="1.0" encoding="utf-8" standalone="no"?>
<!DOCTYPE svg PUBLIC "-//W3C//DTD SVG 1.1//EN"
  "http://www.w3.org/Graphics/SVG/1.1/DTD/svg11.dtd">
<svg xmlns:xlink="http://www.w3.org/1999/xlink" width="460.8pt" height="345.6pt" viewBox="0 0 460.8 345.6" xmlns="http://www.w3.org/2000/svg" version="1.1">
 <metadata>
  <rdf:RDF xmlns:dc="http://purl.org/dc/elements/1.1/" xmlns:cc="http://creativecommons.org/ns#" xmlns:rdf="http://www.w3.org/1999/02/22-rdf-syntax-ns#">
   <cc:Work>
    <dc:type rdf:resource="http://purl.org/dc/dcmitype/StillImage"/>
    <dc:date>2024-06-03T16:55:34.164824</dc:date>
    <dc:format>image/svg+xml</dc:format>
    <dc:creator>
     <cc:Agent>
      <dc:title>Matplotlib v3.9.0, https://matplotlib.org/</dc:title>
     </cc:Agent>
    </dc:creator>
   </cc:Work>
  </rdf:RDF>
 </metadata>
 <defs>
  <style type="text/css">*{stroke-linejoin: round; stroke-linecap: butt}</style>
 </defs>
 <g id="figure_1">
  <g id="patch_1">
   <path d="M 0 345.6 
L 460.8 345.6 
L 460.8 0 
L 0 0 
z
" style="fill: #ffffff"/>
  </g>
  <g id="axes_1">
   <g id="patch_2">
    <path d="M 57.6 307.584 
L 414.72 307.584 
L 414.72 41.472 
L 57.6 41.472 
z
" style="fill: #ffffff"/>
   </g>
   <g id="matplotlib.axis_1">
    <g id="xtick_1">
     <g id="line2d_1">
      <defs>
       <path id="m8694f33e5c" d="M 0 0 
L 0 3.5 
" style="stroke: #000000; stroke-width: 0.8"/>
      </defs>
      <g>
       <use xlink:href="#m8694f33e5c" x="106.505775" y="307.584" style="stroke: #000000; stroke-width: 0.8"/>
      </g>
     </g>
     <g id="text_1">
      <!-- −400 -->
      <g transform="translate(92.772181 322.182437) scale(0.1 -0.1)">
       <defs>
        <path id="DejaVuSans-2212" d="M 678 2272 
L 4684 2272 
L 4684 1741 
L 678 1741 
L 678 2272 
z
" transform="scale(0.015625)"/>
        <path id="DejaVuSans-34" d="M 2419 4116 
L 825 1625 
L 2419 1625 
L 2419 4116 
z
M 2253 4666 
L 3047 4666 
L 3047 1625 
L 3713 1625 
L 3713 1100 
L 3047 1100 
L 3047 0 
L 2419 0 
L 2419 1100 
L 313 1100 
L 313 1709 
L 2253 4666 
z
" transform="scale(0.015625)"/>
        <path id="DejaVuSans-30" d="M 2034 4250 
Q 1547 4250 1301 3770 
Q 1056 3291 1056 2328 
Q 1056 1369 1301 889 
Q 1547 409 2034 409 
Q 2525 409 2770 889 
Q 3016 1369 3016 2328 
Q 3016 3291 2770 3770 
Q 2525 4250 2034 4250 
z
M 2034 4750 
Q 2819 4750 3233 4129 
Q 3647 3509 3647 2328 
Q 3647 1150 3233 529 
Q 2819 -91 2034 -91 
Q 1250 -91 836 529 
Q 422 1150 422 2328 
Q 422 3509 836 4129 
Q 1250 4750 2034 4750 
z
" transform="scale(0.015625)"/>
       </defs>
       <use xlink:href="#DejaVuSans-2212"/>
       <use xlink:href="#DejaVuSans-34" x="83.789062"/>
       <use xlink:href="#DejaVuSans-30" x="147.412109"/>
       <use xlink:href="#DejaVuSans-30" x="211.035156"/>
      </g>
     </g>
    </g>
    <g id="xtick_2">
     <g id="line2d_2">
      <g>
       <use xlink:href="#m8694f33e5c" x="171.348429" y="307.584" style="stroke: #000000; stroke-width: 0.8"/>
      </g>
     </g>
     <g id="text_2">
      <!-- −200 -->
      <g transform="translate(157.614835 322.182437) scale(0.1 -0.1)">
       <defs>
        <path id="DejaVuSans-32" d="M 1228 531 
L 3431 531 
L 3431 0 
L 469 0 
L 469 531 
Q 828 903 1448 1529 
Q 2069 2156 2228 2338 
Q 2531 2678 2651 2914 
Q 2772 3150 2772 3378 
Q 2772 3750 2511 3984 
Q 2250 4219 1831 4219 
Q 1534 4219 1204 4116 
Q 875 4013 500 3803 
L 500 4441 
Q 881 4594 1212 4672 
Q 1544 4750 1819 4750 
Q 2544 4750 2975 4387 
Q 3406 4025 3406 3419 
Q 3406 3131 3298 2873 
Q 3191 2616 2906 2266 
Q 2828 2175 2409 1742 
Q 1991 1309 1228 531 
z
" transform="scale(0.015625)"/>
       </defs>
       <use xlink:href="#DejaVuSans-2212"/>
       <use xlink:href="#DejaVuSans-32" x="83.789062"/>
       <use xlink:href="#DejaVuSans-30" x="147.412109"/>
       <use xlink:href="#DejaVuSans-30" x="211.035156"/>
      </g>
     </g>
    </g>
    <g id="xtick_3">
     <g id="line2d_3">
      <g>
       <use xlink:href="#m8694f33e5c" x="236.191083" y="307.584" style="stroke: #000000; stroke-width: 0.8"/>
      </g>
     </g>
     <g id="text_3">
      <!-- 0 -->
      <g transform="translate(233.009833 322.182437) scale(0.1 -0.1)">
       <use xlink:href="#DejaVuSans-30"/>
      </g>
     </g>
    </g>
    <g id="xtick_4">
     <g id="line2d_4">
      <g>
       <use xlink:href="#m8694f33e5c" x="301.033738" y="307.584" style="stroke: #000000; stroke-width: 0.8"/>
      </g>
     </g>
     <g id="text_4">
      <!-- 200 -->
      <g transform="translate(291.489988 322.182437) scale(0.1 -0.1)">
       <use xlink:href="#DejaVuSans-32"/>
       <use xlink:href="#DejaVuSans-30" x="63.623047"/>
       <use xlink:href="#DejaVuSans-30" x="127.246094"/>
      </g>
     </g>
    </g>
    <g id="xtick_5">
     <g id="line2d_5">
      <g>
       <use xlink:href="#m8694f33e5c" x="365.876392" y="307.584" style="stroke: #000000; stroke-width: 0.8"/>
      </g>
     </g>
     <g id="text_5">
      <!-- 400 -->
      <g transform="translate(356.332642 322.182437) scale(0.1 -0.1)">
       <use xlink:href="#DejaVuSans-34"/>
       <use xlink:href="#DejaVuSans-30" x="63.623047"/>
       <use xlink:href="#DejaVuSans-30" x="127.246094"/>
      </g>
     </g>
    </g>
   </g>
   <g id="matplotlib.axis_2">
    <g id="ytick_1">
     <g id="line2d_6">
      <defs>
       <path id="me4650055a5" d="M 0 0 
L -3.5 0 
" style="stroke: #000000; stroke-width: 0.8"/>
      </defs>
      <g>
       <use xlink:href="#me4650055a5" x="57.6" y="271.231277" style="stroke: #000000; stroke-width: 0.8"/>
      </g>
     </g>
     <g id="text_6">
      <!-- −400 -->
      <g transform="translate(23.132812 275.030496) scale(0.1 -0.1)">
       <use xlink:href="#DejaVuSans-2212"/>
       <use xlink:href="#DejaVuSans-34" x="83.789062"/>
       <use xlink:href="#DejaVuSans-30" x="147.412109"/>
       <use xlink:href="#DejaVuSans-30" x="211.035156"/>
      </g>
     </g>
    </g>
    <g id="ytick_2">
     <g id="line2d_7">
      <g>
       <use xlink:href="#me4650055a5" x="57.6" y="222.979098" style="stroke: #000000; stroke-width: 0.8"/>
      </g>
     </g>
     <g id="text_7">
      <!-- −200 -->
      <g transform="translate(23.132812 226.778317) scale(0.1 -0.1)">
       <use xlink:href="#DejaVuSans-2212"/>
       <use xlink:href="#DejaVuSans-32" x="83.789062"/>
       <use xlink:href="#DejaVuSans-30" x="147.412109"/>
       <use xlink:href="#DejaVuSans-30" x="211.035156"/>
      </g>
     </g>
    </g>
    <g id="ytick_3">
     <g id="line2d_8">
      <g>
       <use xlink:href="#me4650055a5" x="57.6" y="174.726919" style="stroke: #000000; stroke-width: 0.8"/>
      </g>
     </g>
     <g id="text_8">
      <!-- 0 -->
      <g transform="translate(44.2375 178.526138) scale(0.1 -0.1)">
       <use xlink:href="#DejaVuSans-30"/>
      </g>
     </g>
    </g>
    <g id="ytick_4">
     <g id="line2d_9">
      <g>
       <use xlink:href="#me4650055a5" x="57.6" y="126.47474" style="stroke: #000000; stroke-width: 0.8"/>
      </g>
     </g>
     <g id="text_9">
      <!-- 200 -->
      <g transform="translate(31.5125 130.273959) scale(0.1 -0.1)">
       <use xlink:href="#DejaVuSans-32"/>
       <use xlink:href="#DejaVuSans-30" x="63.623047"/>
       <use xlink:href="#DejaVuSans-30" x="127.246094"/>
      </g>
     </g>
    </g>
    <g id="ytick_5">
     <g id="line2d_10">
      <g>
       <use xlink:href="#me4650055a5" x="57.6" y="78.222561" style="stroke: #000000; stroke-width: 0.8"/>
      </g>
     </g>
     <g id="text_10">
      <!-- 400 -->
      <g transform="translate(31.5125 82.02178) scale(0.1 -0.1)">
       <use xlink:href="#DejaVuSans-34"/>
       <use xlink:href="#DejaVuSans-30" x="63.623047"/>
       <use xlink:href="#DejaVuSans-30" x="127.246094"/>
      </g>
     </g>
    </g>
   </g>
   <g id="line2d_11">
    <path d="M 235.732201 53.976634 
L 242.255272 54.749877 
L 245.198902 55.172946 
L 246.378185 54.387506 
L 253.142317 55.206829 
L 256.112629 55.637701 
L 256.493984 54.913507 
L 263.390053 55.568447 
L 271.514243 56.584354 
L 276.116899 57.325479 
L 276.464835 57.776917 
L 283.109095 59.155615 
L 286.778414 60.094349 
L 293.268947 61.806189 
L 295.834824 62.547525 
L 296.342853 62.407973 
L 302.68962 64.357141 
L 306.009084 65.55489 
L 312.127116 67.8067 
L 314.509142 68.749372 
L 314.565883 68.955863 
L 320.429286 71.473485 
L 325.232146 73.75844 
L 330.747164 76.578211 
L 331.486492 76.975775 
L 331.242784 77.069714 
L 331.364545 77.136321 
L 336.593252 80.126988 
L 342.133335 83.565286 
L 348.464732 87.829158 
L 353.026073 91.266252 
L 354.102328 92.119216 
L 354.958558 92.638342 
L 359.321113 96.271315 
L 361.382053 98.092876 
L 361.274638 98.143589 
L 361.340013 98.20284 
L 365.359963 101.998547 
L 369.271653 106.001555 
L 372.834797 109.989775 
L 375.542544 113.323338 
L 378.338328 116.985161 
L 378.135789 116.830824 
L 378.354442 117.13159 
L 381.228519 121.288795 
L 385.40003 127.82209 
L 388.285603 133.132316 
L 390.316478 137.473447 
L 392.680093 143.122754 
L 393.309724 144.890287 
L 393.179967 144.859501 
L 393.217671 144.969934 
L 394.600283 149.37225 
L 396.46381 156.248149 
L 397.124366 159.714751 
L 396.991375 159.91532 
L 397.619002 164.386569 
L 398.174326 170.179239 
L 398.296766 174.680925 
L 398.297002 174.948171 
L 398.486893 174.905623 
L 398.487081 174.981861 
L 398.385054 179.480902 
L 398.192304 182.49209 
L 398.031195 182.647275 
L 397.535907 187.136335 
L 397.086486 190.097187 
L 396.995369 189.991145 
L 396.9759 190.104364 
L 396.096468 194.547452 
L 394.922669 199.291472 
L 393.57531 203.713821 
L 392.425631 206.83168 
L 390.694994 211.17948 
L 390.151685 212.172859 
L 388.12571 216.492484 
L 386.56071 219.388193 
L 384.145227 223.610081 
L 381.668409 227.503388 
L 378.812367 231.620895 
L 377.953729 232.787304 
L 377.99834 232.987672 
L 374.846611 237.043888 
L 372.849052 239.441171 
L 372.807746 239.364096 
L 372.752708 239.42818 
L 369.234369 243.351442 
L 367.067167 245.613579 
L 367.231108 245.739554 
L 367.170943 245.80122 
L 363.276421 249.630283 
L 360.705774 251.905117 
L 356.45231 255.56429 
L 350.105091 260.667814 
L 344.032007 265.033282 
L 339.412568 268.015327 
L 339.246547 267.957773 
L 334.028627 271.050025 
L 331.273689 272.582125 
L 331.327299 272.449142 
L 331.20324 272.516294 
L 325.704463 275.363772 
L 320.131305 278.001377 
L 314.308219 280.512432 
L 313.828574 280.650657 
L 307.805599 282.985287 
L 301.485807 285.192923 
L 293.171272 287.810915 
L 286.68091 289.524794 
L 279.955075 291.068553 
L 274.285586 292.149685 
L 267.5188 293.268963 
L 266.518643 293.415368 
L 266.302986 293.320946 
L 259.469552 294.175286 
L 254.21874 294.633835 
L 247.335378 295.093616 
L 237.457663 295.483527 
L 232.668981 295.402894 
L 225.637432 295.175366 
L 218.720182 294.723649 
L 210.625423 293.951623 
L 205.928127 293.339804 
L 205.790671 293.255102 
L 199.049739 292.177348 
L 195.019435 291.352662 
L 188.400465 289.927771 
L 182.225015 288.377441 
L 175.31127 286.425994 
L 169.096577 284.411824 
L 161.869807 281.814722 
L 154.212996 278.722 
L 149.540793 276.591522 
L 149.383177 276.457272 
L 143.817461 273.686515 
L 135.954402 269.467232 
L 131.175882 266.532648 
L 126.25014 263.269906 
L 121.292092 259.713922 
L 114.535699 254.490431 
L 111.475509 251.825815 
L 111.382036 251.622827 
L 107.387327 247.86914 
L 104.552105 244.936467 
L 100.970928 241.040035 
L 97.79587 237.267697 
L 94.653747 233.213068 
L 94.181097 232.387543 
L 91.326861 228.259365 
L 87.569851 222.355937 
L 83.945659 215.81049 
L 81.122088 209.738933 
L 79.455301 205.364016 
L 77.57841 199.724575 
L 76.460802 195.440699 
L 75.517357 190.978844 
L 74.994476 187.555541 
L 74.450598 183.089677 
L 74.255069 179.917386 
L 74.107676 175.459866 
L 74.191879 172.257246 
L 74.426698 167.798977 
L 74.917017 162.928535 
L 75.408781 159.661145 
L 75.538467 159.534806 
L 76.41207 155.128112 
L 77.793492 149.462373 
L 79.172876 145.090073 
L 79.26085 144.834166 
L 79.470984 144.926368 
L 79.49653 144.85355 
L 81.127134 140.54459 
L 83.392111 135.262352 
L 85.517626 131.032803 
L 85.741995 130.61335 
L 85.677871 130.367835 
L 88.0566 126.1653 
L 89.638365 123.596201 
L 89.603664 123.294357 
L 92.34988 119.161498 
L 94.694785 115.990328 
L 97.843507 111.979052 
L 101.173897 108.093562 
L 104.785796 104.219041 
L 107.945138 101.12781 
L 113.010298 96.413636 
L 117.302039 92.824817 
L 122.636145 88.680966 
L 127.671898 85.134972 
L 132.624771 81.944196 
L 139.752926 77.668145 
L 145.276008 74.747599 
L 151.249467 71.855685 
L 157.034189 69.317291 
L 160.152564 68.132777 
L 166.231267 65.845263 
L 172.11491 63.862521 
L 177.301051 62.3171 
L 183.738453 60.565896 
L 186.263492 60.038544 
L 192.830473 58.578734 
L 200.981738 57.018627 
L 208.732251 55.855115 
L 215.570883 55.09381 
L 222.754379 54.521487 
L 229.231313 54.23312 
L 235.941816 54.127087 
L 235.941816 54.127087 
" clip-path="url(#p995653a53e)" style="fill: none; stroke: #1f77b4; stroke-width: 1.5; stroke-linecap: square"/>
   </g>
   <g id="line2d_12">
    <path d="M 236.191083 54.096471 
L 243.16597 54.208184 
L 250.127938 54.543113 
L 257.064093 55.10064 
L 263.911412 55.873246 
L 270.708136 56.862783 
L 277.44186 58.067447 
L 284.100292 59.485038 
L 290.623313 61.100239 
L 297.048439 62.919793 
L 303.317762 64.92473 
L 309.468142 67.124228 
L 315.444259 69.495858 
L 321.282033 72.051176 
L 326.929076 74.764506 
L 332.420102 77.649714 
L 337.705968 80.678104 
L 342.781555 83.84084 
L 347.642402 87.129091 
L 352.320226 90.561193 
L 356.773315 94.103316 
L 360.998951 97.746611 
L 365.025935 101.512433 
L 368.818582 105.363778 
L 372.375823 109.291954 
L 375.697147 113.288409 
L 378.806789 117.378088 
L 381.677578 121.520771 
L 384.31047 125.708261 
L 386.725802 129.96775 
L 388.902949 134.257279 
L 390.844196 138.569124 
L 392.565672 142.932351 
L 394.053362 147.303853 
L 395.320443 151.713678 
L 396.365146 156.155664 
L 397.180048 160.585965 
L 397.773737 165.035698 
L 398.145398 169.498747 
L 398.294519 173.968981 
L 398.220897 178.440255 
L 397.924631 182.906428 
L 397.40613 187.361361 
L 396.666105 191.798933 
L 395.705573 196.213046 
L 394.514925 200.63465 
L 393.103024 205.020049 
L 391.471843 209.363114 
L 389.607219 213.693643 
L 387.524581 217.968799 
L 385.206848 222.217344 
L 382.673813 226.397274 
L 379.905579 230.536148 
L 376.900975 234.625948 
L 373.686293 238.626319 
L 370.237701 242.562629 
L 366.555448 246.426489 
L 362.672183 250.179793 
L 358.560497 253.845366 
L 354.222193 257.414581 
L 349.659659 260.878717 
L 344.913666 264.203561 
L 339.952766 267.408 
L 334.78105 270.483293 
L 329.40325 273.420686 
L 323.867598 276.190943 
L 318.13953 278.808535 
L 312.225583 281.264946 
L 306.178911 283.535386 
L 299.963253 285.630807 
L 293.634595 287.529714 
L 287.155809 289.240664 
L 280.585364 290.745664 
L 273.935078 292.042009 
L 267.166924 293.134614 
L 260.342232 294.0111 
L 253.473459 294.669869 
L 246.573142 295.109717 
L 239.602961 295.330646 
L 232.62646 295.328199 
L 225.656561 295.102382 
L 218.706173 294.653613 
L 211.838519 293.988422 
L 205.015312 293.105554 
L 198.249008 292.006621 
L 191.551956 290.693629 
L 184.984696 289.18095 
L 178.50953 287.46243 
L 172.138102 285.541158 
L 165.927762 283.437023 
L 159.841924 281.140261 
L 153.93525 278.674178 
L 148.172161 276.026647 
L 142.604294 273.224172 
L 137.237677 270.275476 
L 132.038636 267.16497 
L 127.053627 263.92344 
L 122.286861 260.559787 
L 117.741908 257.082876 
L 113.388466 253.47281 
L 109.265247 249.765103 
L 105.37412 245.968547 
L 101.716377 242.091818 
L 98.265984 238.111217 
L 95.053305 234.06588 
L 92.078097 229.964198 
L 89.318047 225.780047 
L 86.797038 221.554603 
L 84.513426 217.295838 
L 82.448962 212.975568 
L 80.620939 208.636407 
L 79.013989 204.249057 
L 77.640999 199.856823 
L 76.489577 195.42947 
L 75.561334 190.973185 
L 74.862542 186.531913 
L 74.385429 182.07442 
L 74.130652 177.606831 
L 74.098559 173.135284 
L 74.289196 168.665925 
L 74.702299 164.204893 
L 75.337303 159.75832 
L 76.193333 155.332315 
L 77.269214 150.93296 
L 78.575364 146.529452 
L 80.101777 142.165348 
L 81.861898 137.810668 
L 83.84133 133.508447 
L 86.056459 129.2297 
L 88.488508 125.016688 
L 91.156705 120.841591 
L 94.03793 116.745642 
L 97.15413 112.702349 
L 100.50577 108.719934 
L 104.063293 104.837675 
L 107.852408 101.031457 
L 111.872089 97.309805 
L 116.12075 93.681368 
L 120.560521 90.181928 
L 125.221455 86.791107 
L 130.100309 83.517657 
L 135.193212 80.370372 
L 140.454552 77.380448 
L 145.917851 74.531764 
L 151.577461 71.832972 
L 157.382559 69.3111 
L 163.368658 66.953453 
L 169.481875 64.783934 
L 175.758792 62.792195 
L 182.14279 60.998797 
L 188.671245 59.395801 
L 195.285163 58.000224 
L 202.02243 56.806583 
L 208.822062 55.82817 
L 215.671648 55.066772 
L 222.558686 54.523778 
L 229.52149 54.198614 
L 236.140156 54.096477 
L 236.140156 54.096477 
" clip-path="url(#p995653a53e)" style="fill: none; stroke: #ff7f0e; stroke-width: 1.5; stroke-linecap: square"/>
   </g>
   <g id="line2d_13">
    <path d="M 397.901782 182.577122 
" clip-path="url(#p995653a53e)" style="fill: none; stroke: #2ca02c; stroke-width: 1.5; stroke-linecap: square"/>
    <defs>
     <path id="m1ed764fe0b" d="M -3 3 
L 3 -3 
M -3 -3 
L 3 3 
" style="stroke: #2ca02c"/>
    </defs>
    <g clip-path="url(#p995653a53e)">
     <use xlink:href="#m1ed764fe0b" x="398.45876" y="175.068393" style="fill: #2ca02c; stroke: #2ca02c"/>
     <use xlink:href="#m1ed764fe0b" x="397.933012" y="167.253956" style="fill: #2ca02c; stroke: #2ca02c"/>
     <use xlink:href="#m1ed764fe0b" x="397.229449" y="159.690599" style="fill: #2ca02c; stroke: #2ca02c"/>
     <use xlink:href="#m1ed764fe0b" x="395.920151" y="152.316585" style="fill: #2ca02c; stroke: #2ca02c"/>
     <use xlink:href="#m1ed764fe0b" x="393.128925" y="144.766259" style="fill: #2ca02c; stroke: #2ca02c"/>
     <use xlink:href="#m1ed764fe0b" x="390.287745" y="137.352579" style="fill: #2ca02c; stroke: #2ca02c"/>
     <use xlink:href="#m1ed764fe0b" x="387.426023" y="129.864827" style="fill: #2ca02c; stroke: #2ca02c"/>
     <use xlink:href="#m1ed764fe0b" x="383.118365" y="123.322854" style="fill: #2ca02c; stroke: #2ca02c"/>
     <use xlink:href="#m1ed764fe0b" x="378.094001" y="116.550621" style="fill: #2ca02c; stroke: #2ca02c"/>
     <use xlink:href="#m1ed764fe0b" x="373.238148" y="110.107854" style="fill: #2ca02c; stroke: #2ca02c"/>
     <use xlink:href="#m1ed764fe0b" x="367.18786" y="104.285045" style="fill: #2ca02c; stroke: #2ca02c"/>
     <use xlink:href="#m1ed764fe0b" x="360.945397" y="97.840575" style="fill: #2ca02c; stroke: #2ca02c"/>
     <use xlink:href="#m1ed764fe0b" x="354.440183" y="92.135164" style="fill: #2ca02c; stroke: #2ca02c"/>
     <use xlink:href="#m1ed764fe0b" x="346.540401" y="86.196823" style="fill: #2ca02c; stroke: #2ca02c"/>
     <use xlink:href="#m1ed764fe0b" x="338.962501" y="81.825971" style="fill: #2ca02c; stroke: #2ca02c"/>
     <use xlink:href="#m1ed764fe0b" x="331.292672" y="77.062085" style="fill: #2ca02c; stroke: #2ca02c"/>
     <use xlink:href="#m1ed764fe0b" x="322.723789" y="72.883638" style="fill: #2ca02c; stroke: #2ca02c"/>
     <use xlink:href="#m1ed764fe0b" x="314.388434" y="69.299608" style="fill: #2ca02c; stroke: #2ca02c"/>
     <use xlink:href="#m1ed764fe0b" x="304.918338" y="65.301508" style="fill: #2ca02c; stroke: #2ca02c"/>
     <use xlink:href="#m1ed764fe0b" x="295.408629" y="62.386153" style="fill: #2ca02c; stroke: #2ca02c"/>
     <use xlink:href="#m1ed764fe0b" x="286.759972" y="59.809701" style="fill: #2ca02c; stroke: #2ca02c"/>
     <use xlink:href="#m1ed764fe0b" x="276.432165" y="58.105698" style="fill: #2ca02c; stroke: #2ca02c"/>
     <use xlink:href="#m1ed764fe0b" x="266.588731" y="55.894729" style="fill: #2ca02c; stroke: #2ca02c"/>
     <use xlink:href="#m1ed764fe0b" x="256.04651" y="55.38589" style="fill: #2ca02c; stroke: #2ca02c"/>
     <use xlink:href="#m1ed764fe0b" x="246.193347" y="54.192922" style="fill: #2ca02c; stroke: #2ca02c"/>
     <use xlink:href="#m1ed764fe0b" x="236.227046" y="53.568" style="fill: #2ca02c; stroke: #2ca02c"/>
     <use xlink:href="#m1ed764fe0b" x="225.639156" y="54.573486" style="fill: #2ca02c; stroke: #2ca02c"/>
     <use xlink:href="#m1ed764fe0b" x="215.995541" y="55.184304" style="fill: #2ca02c; stroke: #2ca02c"/>
     <use xlink:href="#m1ed764fe0b" x="205.620594" y="56.209126" style="fill: #2ca02c; stroke: #2ca02c"/>
     <use xlink:href="#m1ed764fe0b" x="195.782232" y="58.007768" style="fill: #2ca02c; stroke: #2ca02c"/>
     <use xlink:href="#m1ed764fe0b" x="185.902297" y="60.37466" style="fill: #2ca02c; stroke: #2ca02c"/>
     <use xlink:href="#m1ed764fe0b" x="177.116184" y="62.551024" style="fill: #2ca02c; stroke: #2ca02c"/>
     <use xlink:href="#m1ed764fe0b" x="167.165059" y="65.833519" style="fill: #2ca02c; stroke: #2ca02c"/>
     <use xlink:href="#m1ed764fe0b" x="157.752692" y="68.903393" style="fill: #2ca02c; stroke: #2ca02c"/>
     <use xlink:href="#m1ed764fe0b" x="149.596684" y="73.097084" style="fill: #2ca02c; stroke: #2ca02c"/>
     <use xlink:href="#m1ed764fe0b" x="140.51138" y="76.760898" style="fill: #2ca02c; stroke: #2ca02c"/>
     <use xlink:href="#m1ed764fe0b" x="132.928141" y="81.96853" style="fill: #2ca02c; stroke: #2ca02c"/>
     <use xlink:href="#m1ed764fe0b" x="124.586104" y="86.868808" style="fill: #2ca02c; stroke: #2ca02c"/>
     <use xlink:href="#m1ed764fe0b" x="117.589816" y="91.953425" style="fill: #2ca02c; stroke: #2ca02c"/>
     <use xlink:href="#m1ed764fe0b" x="111.349599" y="98.131137" style="fill: #2ca02c; stroke: #2ca02c"/>
     <use xlink:href="#m1ed764fe0b" x="105.283481" y="103.767244" style="fill: #2ca02c; stroke: #2ca02c"/>
     <use xlink:href="#m1ed764fe0b" x="99.375484" y="109.77453" style="fill: #2ca02c; stroke: #2ca02c"/>
     <use xlink:href="#m1ed764fe0b" x="94.098461" y="117.000581" style="fill: #2ca02c; stroke: #2ca02c"/>
     <use xlink:href="#m1ed764fe0b" x="89.414992" y="123.320428" style="fill: #2ca02c; stroke: #2ca02c"/>
     <use xlink:href="#m1ed764fe0b" x="84.988789" y="130.25719" style="fill: #2ca02c; stroke: #2ca02c"/>
     <use xlink:href="#m1ed764fe0b" x="81.785128" y="137.261437" style="fill: #2ca02c; stroke: #2ca02c"/>
     <use xlink:href="#m1ed764fe0b" x="79.027981" y="145.025775" style="fill: #2ca02c; stroke: #2ca02c"/>
     <use xlink:href="#m1ed764fe0b" x="77.298535" y="152.441602" style="fill: #2ca02c; stroke: #2ca02c"/>
     <use xlink:href="#m1ed764fe0b" x="75.474113" y="159.481991" style="fill: #2ca02c; stroke: #2ca02c"/>
     <use xlink:href="#m1ed764fe0b" x="73.832727" y="167.08082" style="fill: #2ca02c; stroke: #2ca02c"/>
     <use xlink:href="#m1ed764fe0b" x="74.18952" y="174.666485" style="fill: #2ca02c; stroke: #2ca02c"/>
     <use xlink:href="#m1ed764fe0b" x="74.27948" y="182.217783" style="fill: #2ca02c; stroke: #2ca02c"/>
     <use xlink:href="#m1ed764fe0b" x="75.14324" y="190.009987" style="fill: #2ca02c; stroke: #2ca02c"/>
     <use xlink:href="#m1ed764fe0b" x="77.154116" y="197.274777" style="fill: #2ca02c; stroke: #2ca02c"/>
     <use xlink:href="#m1ed764fe0b" x="79.51159" y="204.655785" style="fill: #2ca02c; stroke: #2ca02c"/>
     <use xlink:href="#m1ed764fe0b" x="82.320445" y="212.176123" style="fill: #2ca02c; stroke: #2ca02c"/>
     <use xlink:href="#m1ed764fe0b" x="85.19606" y="218.68381" style="fill: #2ca02c; stroke: #2ca02c"/>
     <use xlink:href="#m1ed764fe0b" x="89.412363" y="225.974548" style="fill: #2ca02c; stroke: #2ca02c"/>
     <use xlink:href="#m1ed764fe0b" x="94.243356" y="233.128496" style="fill: #2ca02c; stroke: #2ca02c"/>
     <use xlink:href="#m1ed764fe0b" x="99.636209" y="239.205545" style="fill: #2ca02c; stroke: #2ca02c"/>
     <use xlink:href="#m1ed764fe0b" x="104.888706" y="245.86687" style="fill: #2ca02c; stroke: #2ca02c"/>
     <use xlink:href="#m1ed764fe0b" x="111.225581" y="251.429768" style="fill: #2ca02c; stroke: #2ca02c"/>
     <use xlink:href="#m1ed764fe0b" x="117.661743" y="257.024619" style="fill: #2ca02c; stroke: #2ca02c"/>
     <use xlink:href="#m1ed764fe0b" x="124.833629" y="262.86073" style="fill: #2ca02c; stroke: #2ca02c"/>
     <use xlink:href="#m1ed764fe0b" x="133.123857" y="267.441852" style="fill: #2ca02c; stroke: #2ca02c"/>
     <use xlink:href="#m1ed764fe0b" x="141.346905" y="272.219414" style="fill: #2ca02c; stroke: #2ca02c"/>
     <use xlink:href="#m1ed764fe0b" x="149.306658" y="276.380244" style="fill: #2ca02c; stroke: #2ca02c"/>
     <use xlink:href="#m1ed764fe0b" x="158.420975" y="279.978564" style="fill: #2ca02c; stroke: #2ca02c"/>
     <use xlink:href="#m1ed764fe0b" x="167.286682" y="283.935814" style="fill: #2ca02c; stroke: #2ca02c"/>
     <use xlink:href="#m1ed764fe0b" x="176.306494" y="287.06812" style="fill: #2ca02c; stroke: #2ca02c"/>
     <use xlink:href="#m1ed764fe0b" x="186.214547" y="289.667898" style="fill: #2ca02c; stroke: #2ca02c"/>
     <use xlink:href="#m1ed764fe0b" x="196.375454" y="291.764363" style="fill: #2ca02c; stroke: #2ca02c"/>
     <use xlink:href="#m1ed764fe0b" x="205.803714" y="293.239272" style="fill: #2ca02c; stroke: #2ca02c"/>
     <use xlink:href="#m1ed764fe0b" x="216.381013" y="294.323853" style="fill: #2ca02c; stroke: #2ca02c"/>
     <use xlink:href="#m1ed764fe0b" x="225.162967" y="295.052576" style="fill: #2ca02c; stroke: #2ca02c"/>
     <use xlink:href="#m1ed764fe0b" x="236.457555" y="295.1578" style="fill: #2ca02c; stroke: #2ca02c"/>
     <use xlink:href="#m1ed764fe0b" x="246.398065" y="295.116194" style="fill: #2ca02c; stroke: #2ca02c"/>
     <use xlink:href="#m1ed764fe0b" x="256.41149" y="294.055479" style="fill: #2ca02c; stroke: #2ca02c"/>
     <use xlink:href="#m1ed764fe0b" x="266.596588" y="293.284521" style="fill: #2ca02c; stroke: #2ca02c"/>
     <use xlink:href="#m1ed764fe0b" x="275.860968" y="290.911269" style="fill: #2ca02c; stroke: #2ca02c"/>
     <use xlink:href="#m1ed764fe0b" x="286.213568" y="289.302344" style="fill: #2ca02c; stroke: #2ca02c"/>
     <use xlink:href="#m1ed764fe0b" x="295.982297" y="287.093072" style="fill: #2ca02c; stroke: #2ca02c"/>
     <use xlink:href="#m1ed764fe0b" x="305.691885" y="284.134976" style="fill: #2ca02c; stroke: #2ca02c"/>
     <use xlink:href="#m1ed764fe0b" x="314.118521" y="280.319785" style="fill: #2ca02c; stroke: #2ca02c"/>
     <use xlink:href="#m1ed764fe0b" x="322.790038" y="276.632488" style="fill: #2ca02c; stroke: #2ca02c"/>
     <use xlink:href="#m1ed764fe0b" x="331.312297" y="272.146741" style="fill: #2ca02c; stroke: #2ca02c"/>
     <use xlink:href="#m1ed764fe0b" x="339.818527" y="267.560103" style="fill: #2ca02c; stroke: #2ca02c"/>
     <use xlink:href="#m1ed764fe0b" x="347.267297" y="262.680302" style="fill: #2ca02c; stroke: #2ca02c"/>
     <use xlink:href="#m1ed764fe0b" x="354.18998" y="257.508441" style="fill: #2ca02c; stroke: #2ca02c"/>
     <use xlink:href="#m1ed764fe0b" x="361.262801" y="251.985134" style="fill: #2ca02c; stroke: #2ca02c"/>
     <use xlink:href="#m1ed764fe0b" x="367.36958" y="245.739444" style="fill: #2ca02c; stroke: #2ca02c"/>
     <use xlink:href="#m1ed764fe0b" x="373.37629" y="239.15733" style="fill: #2ca02c; stroke: #2ca02c"/>
     <use xlink:href="#m1ed764fe0b" x="378.018596" y="232.789428" style="fill: #2ca02c; stroke: #2ca02c"/>
     <use xlink:href="#m1ed764fe0b" x="382.76332" y="226.389414" style="fill: #2ca02c; stroke: #2ca02c"/>
     <use xlink:href="#m1ed764fe0b" x="386.786895" y="219.092167" style="fill: #2ca02c; stroke: #2ca02c"/>
     <use xlink:href="#m1ed764fe0b" x="389.889165" y="211.910816" style="fill: #2ca02c; stroke: #2ca02c"/>
     <use xlink:href="#m1ed764fe0b" x="393.300847" y="204.939732" style="fill: #2ca02c; stroke: #2ca02c"/>
     <use xlink:href="#m1ed764fe0b" x="395.511002" y="197.293723" style="fill: #2ca02c; stroke: #2ca02c"/>
     <use xlink:href="#m1ed764fe0b" x="397.021118" y="189.83188" style="fill: #2ca02c; stroke: #2ca02c"/>
     <use xlink:href="#m1ed764fe0b" x="397.901782" y="182.577122" style="fill: #2ca02c; stroke: #2ca02c"/>
    </g>
   </g>
   <g id="patch_3">
    <path d="M 57.6 307.584 
L 57.6 41.472 
" style="fill: none; stroke: #000000; stroke-width: 0.8; stroke-linejoin: miter; stroke-linecap: square"/>
   </g>
   <g id="patch_4">
    <path d="M 414.72 307.584 
L 414.72 41.472 
" style="fill: none; stroke: #000000; stroke-width: 0.8; stroke-linejoin: miter; stroke-linecap: square"/>
   </g>
   <g id="patch_5">
    <path d="M 57.6 307.584 
L 414.72 307.584 
" style="fill: none; stroke: #000000; stroke-width: 0.8; stroke-linejoin: miter; stroke-linecap: square"/>
   </g>
   <g id="patch_6">
    <path d="M 57.6 41.472 
L 414.72 41.472 
" style="fill: none; stroke: #000000; stroke-width: 0.8; stroke-linejoin: miter; stroke-linecap: square"/>
   </g>
   <g id="legend_1">
    <g id="patch_7">
     <path d="M 193.535 198.045187 
L 278.785 198.045187 
Q 280.785 198.045187 280.785 196.045187 
L 280.785 153.010812 
Q 280.785 151.010812 278.785 151.010812 
L 193.535 151.010812 
Q 191.535 151.010812 191.535 153.010812 
L 191.535 196.045187 
Q 191.535 198.045187 193.535 198.045187 
z
" style="fill: #ffffff; opacity: 0.8; stroke: #cccccc; stroke-linejoin: miter"/>
    </g>
    <g id="line2d_14">
     <path d="M 195.535 159.10925 
L 205.535 159.10925 
L 215.535 159.10925 
" style="fill: none; stroke: #1f77b4; stroke-width: 1.5; stroke-linecap: square"/>
    </g>
    <g id="text_11">
     <!-- Estimation -->
     <g transform="translate(223.535 162.60925) scale(0.1 -0.1)">
      <defs>
       <path id="DejaVuSans-45" d="M 628 4666 
L 3578 4666 
L 3578 4134 
L 1259 4134 
L 1259 2753 
L 3481 2753 
L 3481 2222 
L 1259 2222 
L 1259 531 
L 3634 531 
L 3634 0 
L 628 0 
L 628 4666 
z
" transform="scale(0.015625)"/>
       <path id="DejaVuSans-73" d="M 2834 3397 
L 2834 2853 
Q 2591 2978 2328 3040 
Q 2066 3103 1784 3103 
Q 1356 3103 1142 2972 
Q 928 2841 928 2578 
Q 928 2378 1081 2264 
Q 1234 2150 1697 2047 
L 1894 2003 
Q 2506 1872 2764 1633 
Q 3022 1394 3022 966 
Q 3022 478 2636 193 
Q 2250 -91 1575 -91 
Q 1294 -91 989 -36 
Q 684 19 347 128 
L 347 722 
Q 666 556 975 473 
Q 1284 391 1588 391 
Q 1994 391 2212 530 
Q 2431 669 2431 922 
Q 2431 1156 2273 1281 
Q 2116 1406 1581 1522 
L 1381 1569 
Q 847 1681 609 1914 
Q 372 2147 372 2553 
Q 372 3047 722 3315 
Q 1072 3584 1716 3584 
Q 2034 3584 2315 3537 
Q 2597 3491 2834 3397 
z
" transform="scale(0.015625)"/>
       <path id="DejaVuSans-74" d="M 1172 4494 
L 1172 3500 
L 2356 3500 
L 2356 3053 
L 1172 3053 
L 1172 1153 
Q 1172 725 1289 603 
Q 1406 481 1766 481 
L 2356 481 
L 2356 0 
L 1766 0 
Q 1100 0 847 248 
Q 594 497 594 1153 
L 594 3053 
L 172 3053 
L 172 3500 
L 594 3500 
L 594 4494 
L 1172 4494 
z
" transform="scale(0.015625)"/>
       <path id="DejaVuSans-69" d="M 603 3500 
L 1178 3500 
L 1178 0 
L 603 0 
L 603 3500 
z
M 603 4863 
L 1178 4863 
L 1178 4134 
L 603 4134 
L 603 4863 
z
" transform="scale(0.015625)"/>
       <path id="DejaVuSans-6d" d="M 3328 2828 
Q 3544 3216 3844 3400 
Q 4144 3584 4550 3584 
Q 5097 3584 5394 3201 
Q 5691 2819 5691 2113 
L 5691 0 
L 5113 0 
L 5113 2094 
Q 5113 2597 4934 2840 
Q 4756 3084 4391 3084 
Q 3944 3084 3684 2787 
Q 3425 2491 3425 1978 
L 3425 0 
L 2847 0 
L 2847 2094 
Q 2847 2600 2669 2842 
Q 2491 3084 2119 3084 
Q 1678 3084 1418 2786 
Q 1159 2488 1159 1978 
L 1159 0 
L 581 0 
L 581 3500 
L 1159 3500 
L 1159 2956 
Q 1356 3278 1631 3431 
Q 1906 3584 2284 3584 
Q 2666 3584 2933 3390 
Q 3200 3197 3328 2828 
z
" transform="scale(0.015625)"/>
       <path id="DejaVuSans-61" d="M 2194 1759 
Q 1497 1759 1228 1600 
Q 959 1441 959 1056 
Q 959 750 1161 570 
Q 1363 391 1709 391 
Q 2188 391 2477 730 
Q 2766 1069 2766 1631 
L 2766 1759 
L 2194 1759 
z
M 3341 1997 
L 3341 0 
L 2766 0 
L 2766 531 
Q 2569 213 2275 61 
Q 1981 -91 1556 -91 
Q 1019 -91 701 211 
Q 384 513 384 1019 
Q 384 1609 779 1909 
Q 1175 2209 1959 2209 
L 2766 2209 
L 2766 2266 
Q 2766 2663 2505 2880 
Q 2244 3097 1772 3097 
Q 1472 3097 1187 3025 
Q 903 2953 641 2809 
L 641 3341 
Q 956 3463 1253 3523 
Q 1550 3584 1831 3584 
Q 2591 3584 2966 3190 
Q 3341 2797 3341 1997 
z
" transform="scale(0.015625)"/>
       <path id="DejaVuSans-6f" d="M 1959 3097 
Q 1497 3097 1228 2736 
Q 959 2375 959 1747 
Q 959 1119 1226 758 
Q 1494 397 1959 397 
Q 2419 397 2687 759 
Q 2956 1122 2956 1747 
Q 2956 2369 2687 2733 
Q 2419 3097 1959 3097 
z
M 1959 3584 
Q 2709 3584 3137 3096 
Q 3566 2609 3566 1747 
Q 3566 888 3137 398 
Q 2709 -91 1959 -91 
Q 1206 -91 779 398 
Q 353 888 353 1747 
Q 353 2609 779 3096 
Q 1206 3584 1959 3584 
z
" transform="scale(0.015625)"/>
       <path id="DejaVuSans-6e" d="M 3513 2113 
L 3513 0 
L 2938 0 
L 2938 2094 
Q 2938 2591 2744 2837 
Q 2550 3084 2163 3084 
Q 1697 3084 1428 2787 
Q 1159 2491 1159 1978 
L 1159 0 
L 581 0 
L 581 3500 
L 1159 3500 
L 1159 2956 
Q 1366 3272 1645 3428 
Q 1925 3584 2291 3584 
Q 2894 3584 3203 3211 
Q 3513 2838 3513 2113 
z
" transform="scale(0.015625)"/>
      </defs>
      <use xlink:href="#DejaVuSans-45"/>
      <use xlink:href="#DejaVuSans-73" x="63.183594"/>
      <use xlink:href="#DejaVuSans-74" x="115.283203"/>
      <use xlink:href="#DejaVuSans-69" x="154.492188"/>
      <use xlink:href="#DejaVuSans-6d" x="182.275391"/>
      <use xlink:href="#DejaVuSans-61" x="279.6875"/>
      <use xlink:href="#DejaVuSans-74" x="340.966797"/>
      <use xlink:href="#DejaVuSans-69" x="380.175781"/>
      <use xlink:href="#DejaVuSans-6f" x="407.958984"/>
      <use xlink:href="#DejaVuSans-6e" x="469.140625"/>
     </g>
    </g>
    <g id="line2d_15">
     <path d="M 195.535 173.787375 
L 205.535 173.787375 
L 215.535 173.787375 
" style="fill: none; stroke: #ff7f0e; stroke-width: 1.5; stroke-linecap: square"/>
    </g>
    <g id="text_12">
     <!-- Truth -->
     <g transform="translate(223.535 177.287375) scale(0.1 -0.1)">
      <defs>
       <path id="DejaVuSans-54" d="M -19 4666 
L 3928 4666 
L 3928 4134 
L 2272 4134 
L 2272 0 
L 1638 0 
L 1638 4134 
L -19 4134 
L -19 4666 
z
" transform="scale(0.015625)"/>
       <path id="DejaVuSans-72" d="M 2631 2963 
Q 2534 3019 2420 3045 
Q 2306 3072 2169 3072 
Q 1681 3072 1420 2755 
Q 1159 2438 1159 1844 
L 1159 0 
L 581 0 
L 581 3500 
L 1159 3500 
L 1159 2956 
Q 1341 3275 1631 3429 
Q 1922 3584 2338 3584 
Q 2397 3584 2469 3576 
Q 2541 3569 2628 3553 
L 2631 2963 
z
" transform="scale(0.015625)"/>
       <path id="DejaVuSans-75" d="M 544 1381 
L 544 3500 
L 1119 3500 
L 1119 1403 
Q 1119 906 1312 657 
Q 1506 409 1894 409 
Q 2359 409 2629 706 
Q 2900 1003 2900 1516 
L 2900 3500 
L 3475 3500 
L 3475 0 
L 2900 0 
L 2900 538 
Q 2691 219 2414 64 
Q 2138 -91 1772 -91 
Q 1169 -91 856 284 
Q 544 659 544 1381 
z
M 1991 3584 
L 1991 3584 
z
" transform="scale(0.015625)"/>
       <path id="DejaVuSans-68" d="M 3513 2113 
L 3513 0 
L 2938 0 
L 2938 2094 
Q 2938 2591 2744 2837 
Q 2550 3084 2163 3084 
Q 1697 3084 1428 2787 
Q 1159 2491 1159 1978 
L 1159 0 
L 581 0 
L 581 4863 
L 1159 4863 
L 1159 2956 
Q 1366 3272 1645 3428 
Q 1925 3584 2291 3584 
Q 2894 3584 3203 3211 
Q 3513 2838 3513 2113 
z
" transform="scale(0.015625)"/>
      </defs>
      <use xlink:href="#DejaVuSans-54"/>
      <use xlink:href="#DejaVuSans-72" x="46.333984"/>
      <use xlink:href="#DejaVuSans-75" x="87.447266"/>
      <use xlink:href="#DejaVuSans-74" x="150.826172"/>
      <use xlink:href="#DejaVuSans-68" x="190.035156"/>
     </g>
    </g>
    <g id="line2d_16">
     <path d="M 195.535 188.4655 
L 205.535 188.4655 
L 215.535 188.4655 
" style="fill: none; stroke: #2ca02c; stroke-width: 1.5; stroke-linecap: square"/>
     <g>
      <use xlink:href="#m1ed764fe0b" x="205.535" y="188.4655" style="fill: #2ca02c; stroke: #2ca02c"/>
     </g>
    </g>
    <g id="text_13">
     <!-- GPS -->
     <g transform="translate(223.535 191.9655) scale(0.1 -0.1)">
      <defs>
       <path id="DejaVuSans-47" d="M 3809 666 
L 3809 1919 
L 2778 1919 
L 2778 2438 
L 4434 2438 
L 4434 434 
Q 4069 175 3628 42 
Q 3188 -91 2688 -91 
Q 1594 -91 976 548 
Q 359 1188 359 2328 
Q 359 3472 976 4111 
Q 1594 4750 2688 4750 
Q 3144 4750 3555 4637 
Q 3966 4525 4313 4306 
L 4313 3634 
Q 3963 3931 3569 4081 
Q 3175 4231 2741 4231 
Q 1884 4231 1454 3753 
Q 1025 3275 1025 2328 
Q 1025 1384 1454 906 
Q 1884 428 2741 428 
Q 3075 428 3337 486 
Q 3600 544 3809 666 
z
" transform="scale(0.015625)"/>
       <path id="DejaVuSans-50" d="M 1259 4147 
L 1259 2394 
L 2053 2394 
Q 2494 2394 2734 2622 
Q 2975 2850 2975 3272 
Q 2975 3691 2734 3919 
Q 2494 4147 2053 4147 
L 1259 4147 
z
M 628 4666 
L 2053 4666 
Q 2838 4666 3239 4311 
Q 3641 3956 3641 3272 
Q 3641 2581 3239 2228 
Q 2838 1875 2053 1875 
L 1259 1875 
L 1259 0 
L 628 0 
L 628 4666 
z
" transform="scale(0.015625)"/>
       <path id="DejaVuSans-53" d="M 3425 4513 
L 3425 3897 
Q 3066 4069 2747 4153 
Q 2428 4238 2131 4238 
Q 1616 4238 1336 4038 
Q 1056 3838 1056 3469 
Q 1056 3159 1242 3001 
Q 1428 2844 1947 2747 
L 2328 2669 
Q 3034 2534 3370 2195 
Q 3706 1856 3706 1288 
Q 3706 609 3251 259 
Q 2797 -91 1919 -91 
Q 1588 -91 1214 -16 
Q 841 59 441 206 
L 441 856 
Q 825 641 1194 531 
Q 1563 422 1919 422 
Q 2459 422 2753 634 
Q 3047 847 3047 1241 
Q 3047 1584 2836 1778 
Q 2625 1972 2144 2069 
L 1759 2144 
Q 1053 2284 737 2584 
Q 422 2884 422 3419 
Q 422 4038 858 4394 
Q 1294 4750 2059 4750 
Q 2388 4750 2728 4690 
Q 3069 4631 3425 4513 
z
" transform="scale(0.015625)"/>
      </defs>
      <use xlink:href="#DejaVuSans-47"/>
      <use xlink:href="#DejaVuSans-50" x="77.490234"/>
      <use xlink:href="#DejaVuSans-53" x="137.792969"/>
     </g>
    </g>
   </g>
  </g>
 </g>
 <defs>
  <clipPath id="p995653a53e">
   <rect x="57.6" y="41.472" width="357.12" height="266.112"/>
  </clipPath>
 </defs>
</svg>
