<?xml version="1.0" encoding="utf-8" standalone="no"?>
<!DOCTYPE svg PUBLIC "-//W3C//DTD SVG 1.1//EN"
  "http://www.w3.org/Graphics/SVG/1.1/DTD/svg11.dtd">
<svg height="576pt" version="1.1" viewBox="0 0 720 576" width="720pt" xmlns="http://www.w3.org/2000/svg" xmlns:xlink="http://www.w3.org/1999/xlink">
 <metadata>
  <rdf:RDF xmlns:cc="http://creativecommons.org/ns#" xmlns:dc="http://purl.org/dc/elements/1.1/" xmlns:rdf="http://www.w3.org/1999/02/22-rdf-syntax-ns#">
   <cc:Work>
    <dc:type rdf:resource="http://purl.org/dc/dcmitype/StillImage"/>
    <dc:date>2024-04-14T16:01:26.894173</dc:date>
    <dc:format>image/svg+xml</dc:format>
    <dc:creator>
     <cc:Agent>
      <dc:title>Matplotlib v3.4.2, https://matplotlib.org/</dc:title>
     </cc:Agent>
    </dc:creator>
   </cc:Work>
  </rdf:RDF>
 </metadata>
 <defs>
  <style type="text/css">*{stroke-linecap:butt;stroke-linejoin:round;}</style>
 </defs>
 <g id="figure_1">
  <g id="patch_1">
   <path d="M 0 576 
L 720 576 
L 720 0 
L 0 0 
z
" style="fill:#ffffff;"/>
  </g>
  <g id="axes_1">
   <g id="patch_2">
    <path d="M 88.76 173.973937 
L 702.72 173.973937 
L 702.72 63.48 
L 88.76 63.48 
z
" style="fill:#ffffff;"/>
   </g>
   <g id="matplotlib.axis_1">
    <g id="xtick_1">
     <g id="line2d_1">
      <defs>
       <path d="M 0 0 
L 0 3.5 
" id="mdfb3f5a0c1" style="stroke:#000000;stroke-width:0.8;"/>
      </defs>
      <g>
       <use style="stroke:#000000;stroke-width:0.8;" x="116.667273" xlink:href="#mdfb3f5a0c1" y="173.973937"/>
      </g>
     </g>
     <g id="text_1">
      <!-- 0 -->
      <g transform="translate(111.577273 193.131437)scale(0.16 -0.16)">
       <defs>
        <path d="M 2034 4250 
Q 1547 4250 1301 3770 
Q 1056 3291 1056 2328 
Q 1056 1369 1301 889 
Q 1547 409 2034 409 
Q 2525 409 2770 889 
Q 3016 1369 3016 2328 
Q 3016 3291 2770 3770 
Q 2525 4250 2034 4250 
z
M 2034 4750 
Q 2819 4750 3233 4129 
Q 3647 3509 3647 2328 
Q 3647 1150 3233 529 
Q 2819 -91 2034 -91 
Q 1250 -91 836 529 
Q 422 1150 422 2328 
Q 422 3509 836 4129 
Q 1250 4750 2034 4750 
z
" id="DejaVuSans-30" transform="scale(0.015625)"/>
       </defs>
       <use xlink:href="#DejaVuSans-30"/>
      </g>
     </g>
    </g>
    <g id="xtick_2">
     <g id="line2d_2">
      <g>
       <use style="stroke:#000000;stroke-width:0.8;" x="186.435455" xlink:href="#mdfb3f5a0c1" y="173.973937"/>
      </g>
     </g>
     <g id="text_2">
      <!-- 25 -->
      <g transform="translate(176.255455 193.131437)scale(0.16 -0.16)">
       <defs>
        <path d="M 1228 531 
L 3431 531 
L 3431 0 
L 469 0 
L 469 531 
Q 828 903 1448 1529 
Q 2069 2156 2228 2338 
Q 2531 2678 2651 2914 
Q 2772 3150 2772 3378 
Q 2772 3750 2511 3984 
Q 2250 4219 1831 4219 
Q 1534 4219 1204 4116 
Q 875 4013 500 3803 
L 500 4441 
Q 881 4594 1212 4672 
Q 1544 4750 1819 4750 
Q 2544 4750 2975 4387 
Q 3406 4025 3406 3419 
Q 3406 3131 3298 2873 
Q 3191 2616 2906 2266 
Q 2828 2175 2409 1742 
Q 1991 1309 1228 531 
z
" id="DejaVuSans-32" transform="scale(0.015625)"/>
        <path d="M 691 4666 
L 3169 4666 
L 3169 4134 
L 1269 4134 
L 1269 2991 
Q 1406 3038 1543 3061 
Q 1681 3084 1819 3084 
Q 2600 3084 3056 2656 
Q 3513 2228 3513 1497 
Q 3513 744 3044 326 
Q 2575 -91 1722 -91 
Q 1428 -91 1123 -41 
Q 819 9 494 109 
L 494 744 
Q 775 591 1075 516 
Q 1375 441 1709 441 
Q 2250 441 2565 725 
Q 2881 1009 2881 1497 
Q 2881 1984 2565 2268 
Q 2250 2553 1709 2553 
Q 1456 2553 1204 2497 
Q 953 2441 691 2322 
L 691 4666 
z
" id="DejaVuSans-35" transform="scale(0.015625)"/>
       </defs>
       <use xlink:href="#DejaVuSans-32"/>
       <use x="63.623047" xlink:href="#DejaVuSans-35"/>
      </g>
     </g>
    </g>
    <g id="xtick_3">
     <g id="line2d_3">
      <g>
       <use style="stroke:#000000;stroke-width:0.8;" x="256.203636" xlink:href="#mdfb3f5a0c1" y="173.973937"/>
      </g>
     </g>
     <g id="text_3">
      <!-- 50 -->
      <g transform="translate(246.023636 193.131437)scale(0.16 -0.16)">
       <use xlink:href="#DejaVuSans-35"/>
       <use x="63.623047" xlink:href="#DejaVuSans-30"/>
      </g>
     </g>
    </g>
    <g id="xtick_4">
     <g id="line2d_4">
      <g>
       <use style="stroke:#000000;stroke-width:0.8;" x="325.971818" xlink:href="#mdfb3f5a0c1" y="173.973937"/>
      </g>
     </g>
     <g id="text_4">
      <!-- 75 -->
      <g transform="translate(315.791818 193.131437)scale(0.16 -0.16)">
       <defs>
        <path d="M 525 4666 
L 3525 4666 
L 3525 4397 
L 1831 0 
L 1172 0 
L 2766 4134 
L 525 4134 
L 525 4666 
z
" id="DejaVuSans-37" transform="scale(0.015625)"/>
       </defs>
       <use xlink:href="#DejaVuSans-37"/>
       <use x="63.623047" xlink:href="#DejaVuSans-35"/>
      </g>
     </g>
    </g>
    <g id="xtick_5">
     <g id="line2d_5">
      <g>
       <use style="stroke:#000000;stroke-width:0.8;" x="395.74" xlink:href="#mdfb3f5a0c1" y="173.973937"/>
      </g>
     </g>
     <g id="text_5">
      <!-- 100 -->
      <g transform="translate(380.47 193.131437)scale(0.16 -0.16)">
       <defs>
        <path d="M 794 531 
L 1825 531 
L 1825 4091 
L 703 3866 
L 703 4441 
L 1819 4666 
L 2450 4666 
L 2450 531 
L 3481 531 
L 3481 0 
L 794 0 
L 794 531 
z
" id="DejaVuSans-31" transform="scale(0.015625)"/>
       </defs>
       <use xlink:href="#DejaVuSans-31"/>
       <use x="63.623047" xlink:href="#DejaVuSans-30"/>
       <use x="127.246094" xlink:href="#DejaVuSans-30"/>
      </g>
     </g>
    </g>
    <g id="xtick_6">
     <g id="line2d_6">
      <g>
       <use style="stroke:#000000;stroke-width:0.8;" x="465.508182" xlink:href="#mdfb3f5a0c1" y="173.973937"/>
      </g>
     </g>
     <g id="text_6">
      <!-- 125 -->
      <g transform="translate(450.238182 193.131437)scale(0.16 -0.16)">
       <use xlink:href="#DejaVuSans-31"/>
       <use x="63.623047" xlink:href="#DejaVuSans-32"/>
       <use x="127.246094" xlink:href="#DejaVuSans-35"/>
      </g>
     </g>
    </g>
    <g id="xtick_7">
     <g id="line2d_7">
      <g>
       <use style="stroke:#000000;stroke-width:0.8;" x="535.276364" xlink:href="#mdfb3f5a0c1" y="173.973937"/>
      </g>
     </g>
     <g id="text_7">
      <!-- 150 -->
      <g transform="translate(520.006364 193.131437)scale(0.16 -0.16)">
       <use xlink:href="#DejaVuSans-31"/>
       <use x="63.623047" xlink:href="#DejaVuSans-35"/>
       <use x="127.246094" xlink:href="#DejaVuSans-30"/>
      </g>
     </g>
    </g>
    <g id="xtick_8">
     <g id="line2d_8">
      <g>
       <use style="stroke:#000000;stroke-width:0.8;" x="605.044545" xlink:href="#mdfb3f5a0c1" y="173.973937"/>
      </g>
     </g>
     <g id="text_8">
      <!-- 175 -->
      <g transform="translate(589.774545 193.131437)scale(0.16 -0.16)">
       <use xlink:href="#DejaVuSans-31"/>
       <use x="63.623047" xlink:href="#DejaVuSans-37"/>
       <use x="127.246094" xlink:href="#DejaVuSans-35"/>
      </g>
     </g>
    </g>
    <g id="xtick_9">
     <g id="line2d_9">
      <g>
       <use style="stroke:#000000;stroke-width:0.8;" x="674.812727" xlink:href="#mdfb3f5a0c1" y="173.973937"/>
      </g>
     </g>
     <g id="text_9">
      <!-- 200 -->
      <g transform="translate(659.542727 193.131437)scale(0.16 -0.16)">
       <use xlink:href="#DejaVuSans-32"/>
       <use x="63.623047" xlink:href="#DejaVuSans-30"/>
       <use x="127.246094" xlink:href="#DejaVuSans-30"/>
      </g>
     </g>
    </g>
    <g id="text_10">
     <!-- Time [s] -->
     <g transform="translate(363.21375 212.616437)scale(0.16 -0.16)">
      <defs>
       <path d="M -19 4666 
L 3928 4666 
L 3928 4134 
L 2272 4134 
L 2272 0 
L 1638 0 
L 1638 4134 
L -19 4134 
L -19 4666 
z
" id="DejaVuSans-54" transform="scale(0.015625)"/>
       <path d="M 603 3500 
L 1178 3500 
L 1178 0 
L 603 0 
L 603 3500 
z
M 603 4863 
L 1178 4863 
L 1178 4134 
L 603 4134 
L 603 4863 
z
" id="DejaVuSans-69" transform="scale(0.015625)"/>
       <path d="M 3328 2828 
Q 3544 3216 3844 3400 
Q 4144 3584 4550 3584 
Q 5097 3584 5394 3201 
Q 5691 2819 5691 2113 
L 5691 0 
L 5113 0 
L 5113 2094 
Q 5113 2597 4934 2840 
Q 4756 3084 4391 3084 
Q 3944 3084 3684 2787 
Q 3425 2491 3425 1978 
L 3425 0 
L 2847 0 
L 2847 2094 
Q 2847 2600 2669 2842 
Q 2491 3084 2119 3084 
Q 1678 3084 1418 2786 
Q 1159 2488 1159 1978 
L 1159 0 
L 581 0 
L 581 3500 
L 1159 3500 
L 1159 2956 
Q 1356 3278 1631 3431 
Q 1906 3584 2284 3584 
Q 2666 3584 2933 3390 
Q 3200 3197 3328 2828 
z
" id="DejaVuSans-6d" transform="scale(0.015625)"/>
       <path d="M 3597 1894 
L 3597 1613 
L 953 1613 
Q 991 1019 1311 708 
Q 1631 397 2203 397 
Q 2534 397 2845 478 
Q 3156 559 3463 722 
L 3463 178 
Q 3153 47 2828 -22 
Q 2503 -91 2169 -91 
Q 1331 -91 842 396 
Q 353 884 353 1716 
Q 353 2575 817 3079 
Q 1281 3584 2069 3584 
Q 2775 3584 3186 3129 
Q 3597 2675 3597 1894 
z
M 3022 2063 
Q 3016 2534 2758 2815 
Q 2500 3097 2075 3097 
Q 1594 3097 1305 2825 
Q 1016 2553 972 2059 
L 3022 2063 
z
" id="DejaVuSans-65" transform="scale(0.015625)"/>
       <path id="DejaVuSans-20" transform="scale(0.015625)"/>
       <path d="M 550 4863 
L 1875 4863 
L 1875 4416 
L 1125 4416 
L 1125 -397 
L 1875 -397 
L 1875 -844 
L 550 -844 
L 550 4863 
z
" id="DejaVuSans-5b" transform="scale(0.015625)"/>
       <path d="M 2834 3397 
L 2834 2853 
Q 2591 2978 2328 3040 
Q 2066 3103 1784 3103 
Q 1356 3103 1142 2972 
Q 928 2841 928 2578 
Q 928 2378 1081 2264 
Q 1234 2150 1697 2047 
L 1894 2003 
Q 2506 1872 2764 1633 
Q 3022 1394 3022 966 
Q 3022 478 2636 193 
Q 2250 -91 1575 -91 
Q 1294 -91 989 -36 
Q 684 19 347 128 
L 347 722 
Q 666 556 975 473 
Q 1284 391 1588 391 
Q 1994 391 2212 530 
Q 2431 669 2431 922 
Q 2431 1156 2273 1281 
Q 2116 1406 1581 1522 
L 1381 1569 
Q 847 1681 609 1914 
Q 372 2147 372 2553 
Q 372 3047 722 3315 
Q 1072 3584 1716 3584 
Q 2034 3584 2315 3537 
Q 2597 3491 2834 3397 
z
" id="DejaVuSans-73" transform="scale(0.015625)"/>
       <path d="M 1947 4863 
L 1947 -844 
L 622 -844 
L 622 -397 
L 1369 -397 
L 1369 4416 
L 622 4416 
L 622 4863 
L 1947 4863 
z
" id="DejaVuSans-5d" transform="scale(0.015625)"/>
      </defs>
      <use xlink:href="#DejaVuSans-54"/>
      <use x="57.958984" xlink:href="#DejaVuSans-69"/>
      <use x="85.742188" xlink:href="#DejaVuSans-6d"/>
      <use x="183.154297" xlink:href="#DejaVuSans-65"/>
      <use x="244.677734" xlink:href="#DejaVuSans-20"/>
      <use x="276.464844" xlink:href="#DejaVuSans-5b"/>
      <use x="315.478516" xlink:href="#DejaVuSans-73"/>
      <use x="367.578125" xlink:href="#DejaVuSans-5d"/>
     </g>
    </g>
   </g>
   <g id="matplotlib.axis_2">
    <g id="ytick_1">
     <g id="line2d_10">
      <defs>
       <path d="M 0 0 
L -3.5 0 
" id="mb559ac01c6" style="stroke:#000000;stroke-width:0.8;"/>
      </defs>
      <g>
       <use style="stroke:#000000;stroke-width:0.8;" x="88.76" xlink:href="#mb559ac01c6" y="149.289542"/>
      </g>
     </g>
     <g id="text_11">
      <!-- −2 -->
      <g transform="translate(58.1725 155.368292)scale(0.16 -0.16)">
       <defs>
        <path d="M 678 2272 
L 4684 2272 
L 4684 1741 
L 678 1741 
L 678 2272 
z
" id="DejaVuSans-2212" transform="scale(0.015625)"/>
       </defs>
       <use xlink:href="#DejaVuSans-2212"/>
       <use x="83.789062" xlink:href="#DejaVuSans-32"/>
      </g>
     </g>
    </g>
    <g id="ytick_2">
     <g id="line2d_11">
      <g>
       <use style="stroke:#000000;stroke-width:0.8;" x="88.76" xlink:href="#mb559ac01c6" y="111.653749"/>
      </g>
     </g>
     <g id="text_12">
      <!-- −1 -->
      <g transform="translate(58.1725 117.732499)scale(0.16 -0.16)">
       <use xlink:href="#DejaVuSans-2212"/>
       <use x="83.789062" xlink:href="#DejaVuSans-31"/>
      </g>
     </g>
    </g>
    <g id="ytick_3">
     <g id="line2d_12">
      <g>
       <use style="stroke:#000000;stroke-width:0.8;" x="88.76" xlink:href="#mb559ac01c6" y="74.017956"/>
      </g>
     </g>
     <g id="text_13">
      <!-- 0 -->
      <g transform="translate(71.58 80.096706)scale(0.16 -0.16)">
       <use xlink:href="#DejaVuSans-30"/>
      </g>
     </g>
    </g>
    <g id="text_14">
     <!-- Azimuth [rad] -->
     <g transform="translate(28.6275 173.744468)rotate(-90)scale(0.16 -0.16)">
      <defs>
       <path d="M 2188 4044 
L 1331 1722 
L 3047 1722 
L 2188 4044 
z
M 1831 4666 
L 2547 4666 
L 4325 0 
L 3669 0 
L 3244 1197 
L 1141 1197 
L 716 0 
L 50 0 
L 1831 4666 
z
" id="DejaVuSans-41" transform="scale(0.015625)"/>
       <path d="M 353 3500 
L 3084 3500 
L 3084 2975 
L 922 459 
L 3084 459 
L 3084 0 
L 275 0 
L 275 525 
L 2438 3041 
L 353 3041 
L 353 3500 
z
" id="DejaVuSans-7a" transform="scale(0.015625)"/>
       <path d="M 544 1381 
L 544 3500 
L 1119 3500 
L 1119 1403 
Q 1119 906 1312 657 
Q 1506 409 1894 409 
Q 2359 409 2629 706 
Q 2900 1003 2900 1516 
L 2900 3500 
L 3475 3500 
L 3475 0 
L 2900 0 
L 2900 538 
Q 2691 219 2414 64 
Q 2138 -91 1772 -91 
Q 1169 -91 856 284 
Q 544 659 544 1381 
z
M 1991 3584 
L 1991 3584 
z
" id="DejaVuSans-75" transform="scale(0.015625)"/>
       <path d="M 1172 4494 
L 1172 3500 
L 2356 3500 
L 2356 3053 
L 1172 3053 
L 1172 1153 
Q 1172 725 1289 603 
Q 1406 481 1766 481 
L 2356 481 
L 2356 0 
L 1766 0 
Q 1100 0 847 248 
Q 594 497 594 1153 
L 594 3053 
L 172 3053 
L 172 3500 
L 594 3500 
L 594 4494 
L 1172 4494 
z
" id="DejaVuSans-74" transform="scale(0.015625)"/>
       <path d="M 3513 2113 
L 3513 0 
L 2938 0 
L 2938 2094 
Q 2938 2591 2744 2837 
Q 2550 3084 2163 3084 
Q 1697 3084 1428 2787 
Q 1159 2491 1159 1978 
L 1159 0 
L 581 0 
L 581 4863 
L 1159 4863 
L 1159 2956 
Q 1366 3272 1645 3428 
Q 1925 3584 2291 3584 
Q 2894 3584 3203 3211 
Q 3513 2838 3513 2113 
z
" id="DejaVuSans-68" transform="scale(0.015625)"/>
       <path d="M 2631 2963 
Q 2534 3019 2420 3045 
Q 2306 3072 2169 3072 
Q 1681 3072 1420 2755 
Q 1159 2438 1159 1844 
L 1159 0 
L 581 0 
L 581 3500 
L 1159 3500 
L 1159 2956 
Q 1341 3275 1631 3429 
Q 1922 3584 2338 3584 
Q 2397 3584 2469 3576 
Q 2541 3569 2628 3553 
L 2631 2963 
z
" id="DejaVuSans-72" transform="scale(0.015625)"/>
       <path d="M 2194 1759 
Q 1497 1759 1228 1600 
Q 959 1441 959 1056 
Q 959 750 1161 570 
Q 1363 391 1709 391 
Q 2188 391 2477 730 
Q 2766 1069 2766 1631 
L 2766 1759 
L 2194 1759 
z
M 3341 1997 
L 3341 0 
L 2766 0 
L 2766 531 
Q 2569 213 2275 61 
Q 1981 -91 1556 -91 
Q 1019 -91 701 211 
Q 384 513 384 1019 
Q 384 1609 779 1909 
Q 1175 2209 1959 2209 
L 2766 2209 
L 2766 2266 
Q 2766 2663 2505 2880 
Q 2244 3097 1772 3097 
Q 1472 3097 1187 3025 
Q 903 2953 641 2809 
L 641 3341 
Q 956 3463 1253 3523 
Q 1550 3584 1831 3584 
Q 2591 3584 2966 3190 
Q 3341 2797 3341 1997 
z
" id="DejaVuSans-61" transform="scale(0.015625)"/>
       <path d="M 2906 2969 
L 2906 4863 
L 3481 4863 
L 3481 0 
L 2906 0 
L 2906 525 
Q 2725 213 2448 61 
Q 2172 -91 1784 -91 
Q 1150 -91 751 415 
Q 353 922 353 1747 
Q 353 2572 751 3078 
Q 1150 3584 1784 3584 
Q 2172 3584 2448 3432 
Q 2725 3281 2906 2969 
z
M 947 1747 
Q 947 1113 1208 752 
Q 1469 391 1925 391 
Q 2381 391 2643 752 
Q 2906 1113 2906 1747 
Q 2906 2381 2643 2742 
Q 2381 3103 1925 3103 
Q 1469 3103 1208 2742 
Q 947 2381 947 1747 
z
" id="DejaVuSans-64" transform="scale(0.015625)"/>
      </defs>
      <use xlink:href="#DejaVuSans-41"/>
      <use x="68.408203" xlink:href="#DejaVuSans-7a"/>
      <use x="120.898438" xlink:href="#DejaVuSans-69"/>
      <use x="148.681641" xlink:href="#DejaVuSans-6d"/>
      <use x="246.09375" xlink:href="#DejaVuSans-75"/>
      <use x="309.472656" xlink:href="#DejaVuSans-74"/>
      <use x="348.681641" xlink:href="#DejaVuSans-68"/>
      <use x="412.060547" xlink:href="#DejaVuSans-20"/>
      <use x="443.847656" xlink:href="#DejaVuSans-5b"/>
      <use x="482.861328" xlink:href="#DejaVuSans-72"/>
      <use x="523.974609" xlink:href="#DejaVuSans-61"/>
      <use x="585.253906" xlink:href="#DejaVuSans-64"/>
      <use x="648.730469" xlink:href="#DejaVuSans-5d"/>
     </g>
    </g>
    <g id="text_15">
     <!-- 1e−13 -->
     <g transform="translate(88.76 60.48)scale(0.16 -0.16)">
      <defs>
       <path d="M 2597 2516 
Q 3050 2419 3304 2112 
Q 3559 1806 3559 1356 
Q 3559 666 3084 287 
Q 2609 -91 1734 -91 
Q 1441 -91 1130 -33 
Q 819 25 488 141 
L 488 750 
Q 750 597 1062 519 
Q 1375 441 1716 441 
Q 2309 441 2620 675 
Q 2931 909 2931 1356 
Q 2931 1769 2642 2001 
Q 2353 2234 1838 2234 
L 1294 2234 
L 1294 2753 
L 1863 2753 
Q 2328 2753 2575 2939 
Q 2822 3125 2822 3475 
Q 2822 3834 2567 4026 
Q 2313 4219 1838 4219 
Q 1578 4219 1281 4162 
Q 984 4106 628 3988 
L 628 4550 
Q 988 4650 1302 4700 
Q 1616 4750 1894 4750 
Q 2613 4750 3031 4423 
Q 3450 4097 3450 3541 
Q 3450 3153 3228 2886 
Q 3006 2619 2597 2516 
z
" id="DejaVuSans-33" transform="scale(0.015625)"/>
      </defs>
      <use xlink:href="#DejaVuSans-31"/>
      <use x="63.623047" xlink:href="#DejaVuSans-65"/>
      <use x="125.146484" xlink:href="#DejaVuSans-2212"/>
      <use x="208.935547" xlink:href="#DejaVuSans-31"/>
      <use x="272.558594" xlink:href="#DejaVuSans-33"/>
     </g>
    </g>
   </g>
   <g id="line2d_13">
    <path clip-path="url(#pbb1931f031)" d="M 116.667273 74.017956 
L 143.737327 73.934388 
L 144.295473 73.85082 
L 148.202491 73.767251 
L 148.760636 73.683683 
L 152.667655 73.600115 
L 152.946727 73.516547 
L 153.2258 73.600115 
L 153.783945 73.516547 
L 154.621164 73.516547 
L 154.900236 73.34941 
L 155.179309 73.516547 
L 155.458382 73.34941 
L 155.737455 73.516547 
L 156.016527 73.34941 
L 156.2956 73.516547 
L 156.574673 73.34941 
L 156.853745 73.516547 
L 157.132818 73.34941 
L 159.644473 73.34941 
L 159.923545 73.182274 
L 160.202618 73.34941 
L 160.481691 73.182274 
L 160.760764 73.34941 
L 161.039836 73.34941 
L 161.318909 73.182274 
L 161.877055 73.182274 
L 162.156127 73.34941 
L 162.4352 73.182274 
L 162.993345 73.182274 
L 163.272418 73.34941 
L 163.830564 73.015137 
L 164.388709 73.34941 
L 164.946855 73.015137 
L 165.225927 73.182274 
L 165.784073 73.182274 
L 166.063145 73.015137 
L 166.342218 73.015137 
L 166.621291 73.182274 
L 166.900364 73.015137 
L 167.458509 73.015137 
L 167.737582 73.182274 
L 168.016655 73.015137 
L 170.249236 73.015137 
L 170.528309 72.848001 
L 170.807382 73.015137 
L 171.086455 73.015137 
L 171.365527 72.848001 
L 171.923673 72.848001 
L 172.202745 73.015137 
L 172.481818 72.848001 
L 173.039964 72.848001 
L 173.319036 73.015137 
L 173.877182 72.680864 
L 174.435327 73.015137 
L 174.993473 72.680864 
L 175.272545 72.680864 
L 175.551618 72.848001 
L 175.830691 72.848001 
L 176.109764 72.680864 
L 176.388836 72.680864 
L 176.667909 72.848001 
L 176.946982 72.680864 
L 177.505127 72.680864 
L 177.7842 72.848001 
L 178.063273 72.680864 
L 179.179564 72.680864 
L 179.458636 72.513728 
L 179.737709 72.680864 
L 180.016782 72.680864 
L 180.295855 72.513728 
L 180.854 72.513728 
L 181.133073 72.680864 
L 181.412145 72.513728 
L 181.970291 72.513728 
L 182.249364 72.680864 
L 182.528436 72.513728 
L 183.086582 72.513728 
L 183.365655 72.680864 
L 183.9238 72.346591 
L 184.202873 72.513728 
L 184.761018 72.513728 
L 185.040091 72.346591 
L 185.319164 72.346591 
L 185.598236 72.513728 
L 185.877309 72.346591 
L 186.435455 72.346591 
L 186.714527 72.513728 
L 186.9936 72.346591 
L 188.947109 72.346591 
L 189.226182 72.179455 
L 189.505255 72.179455 
L 189.784327 72.346591 
L 190.0634 72.346591 
L 190.342473 72.179455 
L 190.900618 72.179455 
L 191.179691 72.346591 
L 191.458764 72.179455 
L 192.016909 72.179455 
L 192.295982 72.346591 
L 192.854127 72.012318 
L 193.1332 72.179455 
L 193.691345 72.179455 
L 193.970418 72.012318 
L 194.249491 72.012318 
L 194.528564 72.179455 
L 194.807636 72.179455 
L 195.086709 72.012318 
L 195.365782 72.012318 
L 195.644855 72.179455 
L 195.923927 72.012318 
L 196.482073 72.012318 
L 196.761145 72.179455 
L 197.040218 72.012318 
L 198.156509 72.012318 
L 198.435582 71.845182 
L 198.714655 72.012318 
L 198.993727 72.012318 
L 199.2728 71.845182 
L 199.830945 71.845182 
L 200.110018 72.012318 
L 200.389091 71.845182 
L 200.947236 71.845182 
L 201.226309 72.012318 
L 201.784455 71.678045 
L 202.3426 72.012318 
L 202.900745 71.678045 
L 203.179818 71.678045 
L 203.458891 71.845182 
L 203.737964 71.845182 
L 204.017036 71.678045 
L 204.296109 71.678045 
L 204.575182 71.845182 
L 204.854255 71.678045 
L 206.807764 71.678045 
L 207.086836 71.510909 
L 207.365909 71.510909 
L 207.644982 71.678045 
L 208.203127 71.678045 
L 208.4822 71.510909 
L 208.761273 71.678045 
L 209.040345 71.678045 
L 209.319418 71.510909 
L 209.877564 71.510909 
L 210.156636 71.678045 
L 210.714782 71.343772 
L 211.272927 71.678045 
L 211.831073 71.343772 
L 212.389218 71.678045 
L 212.947364 71.343772 
L 213.226436 71.343772 
L 213.505509 71.510909 
L 213.784582 71.510909 
L 214.063655 71.343772 
L 214.342727 71.343772 
L 214.6218 71.510909 
L 214.900873 71.510909 
L 215.179945 71.343772 
L 216.854382 71.343772 
L 217.133455 71.176636 
L 217.412527 71.176636 
L 217.6916 71.343772 
L 217.970673 71.343772 
L 218.249745 71.176636 
L 218.528818 71.176636 
L 218.807891 71.343772 
L 219.086964 71.343772 
L 219.645109 71.009499 
L 220.203255 71.343772 
L 220.7614 71.009499 
L 221.040473 71.009499 
L 221.319545 71.176636 
L 221.598618 71.176636 
L 221.877691 71.009499 
L 222.156764 71.176636 
L 222.714909 71.176636 
L 222.993982 71.009499 
L 223.273055 71.009499 
L 223.552127 71.176636 
L 223.8312 71.176636 
L 224.110273 71.009499 
L 224.668418 71.009499 
L 224.947491 71.176636 
L 225.226564 71.009499 
L 226.901 71.009499 
L 227.180073 70.842363 
L 227.459145 70.842363 
L 227.738218 71.009499 
L 228.017291 71.009499 
L 228.296364 70.842363 
L 228.575436 70.842363 
L 228.854509 71.009499 
L 229.133582 71.009499 
L 229.691727 70.675226 
L 230.249873 71.009499 
L 230.808018 70.675226 
L 231.087091 70.675226 
L 231.366164 70.842363 
L 231.645236 70.842363 
L 231.924309 70.675226 
L 232.203382 70.842363 
L 232.761527 70.842363 
L 233.0406 70.675226 
L 233.319673 70.675226 
L 233.598745 70.842363 
L 233.877818 70.675226 
L 236.947618 70.675226 
L 237.226691 70.50809 
L 237.505764 70.50809 
L 237.784836 70.675226 
L 238.063909 70.675226 
L 238.342982 70.50809 
L 238.622055 70.50809 
L 238.901127 70.675226 
L 239.1802 70.675226 
L 239.738345 70.340953 
L 240.296491 70.675226 
L 240.854636 70.340953 
L 241.133709 70.340953 
L 241.412782 70.50809 
L 241.691855 70.50809 
L 241.970927 70.340953 
L 242.25 70.340953 
L 242.529073 70.50809 
L 242.808145 70.50809 
L 243.087218 70.340953 
L 244.761655 70.340953 
L 245.040727 70.173817 
L 245.3198 70.173817 
L 245.598873 70.340953 
L 246.157018 70.340953 
L 246.436091 70.173817 
L 246.715164 70.340953 
L 246.994236 70.340953 
L 247.273309 70.173817 
L 247.831455 70.173817 
L 248.110527 70.340953 
L 248.668673 70.00668 
L 248.947745 70.340953 
L 249.226818 70.340953 
L 249.784964 70.00668 
L 250.343109 70.340953 
L 250.901255 70.00668 
L 251.180327 70.00668 
L 251.4594 70.173817 
L 251.738473 70.173817 
L 252.017545 70.00668 
L 252.296618 70.00668 
L 252.575691 70.173817 
L 252.854764 70.173817 
L 253.133836 70.00668 
L 254.808273 70.00668 
L 255.087345 69.839544 
L 255.366418 69.839544 
L 255.645491 70.00668 
L 255.924564 70.00668 
L 256.203636 69.839544 
L 256.482709 69.839544 
L 256.761782 70.00668 
L 257.040855 70.00668 
L 257.599 69.672407 
L 258.157145 70.00668 
L 258.715291 69.672407 
L 258.994364 69.672407 
L 259.273436 70.00668 
L 259.831582 69.672407 
L 260.110655 69.839544 
L 260.6688 69.839544 
L 260.947873 69.672407 
L 261.226945 69.672407 
L 261.506018 69.839544 
L 261.785091 69.672407 
L 262.622309 69.672407 
L 262.901382 69.839544 
L 263.180455 69.672407 
L 264.854891 69.672407 
L 265.133964 69.505271 
L 265.413036 69.505271 
L 265.692109 69.672407 
L 265.971182 69.672407 
L 266.250255 69.505271 
L 266.529327 69.505271 
L 266.8084 69.672407 
L 267.087473 69.672407 
L 267.645618 69.338134 
L 268.203764 69.672407 
L 268.761909 69.338134 
L 269.040982 69.338134 
L 269.320055 69.505271 
L 269.599127 69.505271 
L 269.8782 69.338134 
L 270.157273 69.338134 
L 270.436345 69.505271 
L 270.715418 69.505271 
L 270.994491 69.338134 
L 274.064291 69.338134 
L 274.343364 69.170998 
L 274.622436 69.338134 
L 274.901509 69.338134 
L 275.180582 69.170998 
L 275.738727 69.170998 
L 276.0178 69.338134 
L 276.296873 69.170998 
L 276.575945 69.170998 
L 276.855018 69.338134 
L 277.134091 69.338134 
L 277.692236 69.003861 
L 278.250382 69.338134 
L 278.808527 69.003861 
L 279.0876 69.003861 
L 279.366673 69.170998 
L 279.645745 69.170998 
L 279.924818 69.003861 
L 280.203891 69.003861 
L 280.482964 69.170998 
L 280.762036 69.170998 
L 281.041109 69.003861 
L 282.715545 69.003861 
L 282.994618 68.836725 
L 283.273691 69.003861 
L 283.831836 69.003861 
L 284.110909 68.836725 
L 284.389982 68.836725 
L 284.669055 69.003861 
L 284.948127 69.003861 
L 285.506273 68.669588 
L 286.064418 69.003861 
L 286.622564 68.669588 
L 287.180709 69.003861 
L 287.738855 68.669588 
L 288.017927 68.836725 
L 288.576073 68.836725 
L 288.855145 68.669588 
L 289.134218 68.669588 
L 289.413291 68.836725 
L 289.692364 68.669588 
L 290.250509 68.669588 
L 290.529582 68.836725 
L 290.808655 68.836725 
L 291.087727 68.669588 
L 292.762164 68.669588 
L 293.041236 68.502452 
L 293.320309 68.502452 
L 293.599382 68.669588 
L 294.715673 68.669588 
L 294.994745 68.836725 
L 295.273818 68.836725 
L 295.552891 69.003861 
L 296.111036 69.003861 
L 296.390109 69.170998 
L 296.669182 69.170998 
L 296.948255 69.338134 
L 297.5064 69.338134 
L 297.785473 69.505271 
L 298.064545 69.505271 
L 298.343618 69.672407 
L 298.622691 69.672407 
L 299.180836 70.00668 
L 299.459909 70.00668 
L 299.738982 70.173817 
L 300.297127 70.173817 
L 300.5762 70.340953 
L 300.855273 70.340953 
L 301.134345 70.50809 
L 301.692491 70.50809 
L 301.971564 70.675226 
L 302.250636 70.675226 
L 302.529709 70.842363 
L 303.087855 70.842363 
L 303.366927 71.009499 
L 303.646 71.009499 
L 303.925073 71.176636 
L 304.483218 71.176636 
L 304.762291 71.343772 
L 305.041364 71.343772 
L 305.599509 71.678045 
L 305.878582 71.678045 
L 306.157655 71.845182 
L 306.436727 71.845182 
L 306.7158 72.012318 
L 307.273945 72.012318 
L 307.553018 72.179455 
L 307.832091 72.179455 
L 308.111164 72.346591 
L 308.669309 72.346591 
L 308.948382 72.513728 
L 309.227455 72.513728 
L 309.506527 72.680864 
L 310.064673 72.680864 
L 310.343745 72.848001 
L 310.622818 72.848001 
L 310.901891 73.015137 
L 311.460036 73.015137 
L 311.739109 73.182274 
L 312.018182 73.182274 
L 312.576327 73.516547 
L 312.8554 73.516547 
L 313.134473 73.683683 
L 313.413545 73.683683 
L 313.692618 73.85082 
L 314.250764 73.85082 
L 314.529836 74.017956 
L 314.808909 74.017956 
L 315.087982 74.185093 
L 315.646127 74.185093 
L 315.9252 74.352229 
L 316.204273 74.352229 
L 316.483345 74.519366 
L 317.041491 74.519366 
L 317.320564 74.686502 
L 317.599636 74.686502 
L 317.878709 74.853638 
L 318.436855 74.853638 
L 318.715927 75.020775 
L 318.995 75.020775 
L 319.553145 75.355048 
L 319.832218 75.355048 
L 320.111291 75.522184 
L 320.390364 75.522184 
L 320.669436 75.689321 
L 321.227582 75.689321 
L 321.506655 75.856457 
L 321.785727 75.856457 
L 322.0648 76.023594 
L 322.622945 76.023594 
L 322.902018 76.19073 
L 323.181091 76.19073 
L 323.460164 76.357867 
L 324.018309 76.357867 
L 324.297382 76.525003 
L 324.576455 76.525003 
L 324.855527 76.69214 
L 325.413673 76.69214 
L 325.692745 76.859276 
L 325.971818 76.859276 
L 326.250891 77.193549 
L 326.809036 77.193549 
L 327.088109 77.360686 
L 327.367182 77.360686 
L 327.646255 77.527822 
L 328.2044 77.527822 
L 328.483473 77.694959 
L 328.762545 77.694959 
L 329.041618 77.862095 
L 329.599764 77.862095 
L 329.878836 78.029232 
L 330.157909 78.029232 
L 330.436982 78.196368 
L 330.716055 78.196368 
L 330.995127 78.363505 
L 331.553273 78.363505 
L 331.832345 78.530641 
L 332.111418 78.530641 
L 332.390491 78.697778 
L 332.948636 78.697778 
L 333.227709 79.366324 
L 334.902145 79.366324 
L 335.181218 79.700597 
L 335.739364 79.700597 
L 336.018436 80.03487 
L 337.692873 80.03487 
L 337.971945 80.369143 
L 338.530091 80.369143 
L 338.809164 80.703416 
L 339.925455 80.703416 
L 340.204527 81.037689 
L 340.4836 81.037689 
L 340.762673 81.371962 
L 342.716182 81.371962 
L 342.995255 81.706235 
L 343.274327 81.706235 
L 343.5534 82.040508 
L 345.506909 82.040508 
L 345.785982 82.374781 
L 346.065055 82.374781 
L 346.344127 82.709054 
L 347.460418 82.709054 
L 347.739491 83.043327 
L 348.297636 83.043327 
L 348.576709 83.3776 
L 350.251145 83.3776 
L 350.530218 83.711873 
L 351.088364 83.711873 
L 351.367436 84.046146 
L 353.041873 84.046146 
L 353.320945 84.380419 
L 353.600018 84.380419 
L 353.879091 84.714692 
L 355.274455 84.714692 
L 355.553527 85.048965 
L 355.8326 85.048965 
L 356.111673 85.383238 
L 358.065182 85.383238 
L 358.344255 85.717511 
L 358.623327 85.717511 
L 358.9024 86.051784 
L 360.297764 86.051784 
L 360.576836 86.386057 
L 360.855909 86.386057 
L 361.134982 86.72033 
L 362.809418 86.72033 
L 363.088491 87.054603 
L 363.646636 87.054603 
L 363.925709 87.388876 
L 365.600145 87.388876 
L 365.879218 87.723149 
L 366.437364 87.723149 
L 366.716436 88.057422 
L 367.832727 88.057422 
L 368.1118 88.391695 
L 368.390873 88.391695 
L 368.669945 88.725968 
L 370.623455 88.725968 
L 370.902527 89.060241 
L 371.1816 89.060241 
L 371.460673 89.394514 
L 373.414182 89.394514 
L 373.693255 89.728787 
L 373.972327 89.728787 
L 374.2514 90.06306 
L 375.367691 90.06306 
L 375.646764 90.397333 
L 376.204909 90.397333 
L 376.483982 90.731606 
L 378.158418 90.731606 
L 378.437491 91.065879 
L 378.995636 91.065879 
L 379.274709 91.400152 
L 380.949145 91.400152 
L 381.228218 92.068697 
L 383.181727 92.068697 
L 383.4608 92.40297 
L 383.739873 92.40297 
L 384.018945 92.737243 
L 385.972455 92.737243 
L 386.251527 93.071516 
L 386.5306 93.071516 
L 386.809673 93.405789 
L 387.925964 93.405789 
L 388.205036 93.740062 
L 388.763182 93.740062 
L 389.042255 94.074335 
L 390.716691 94.074335 
L 390.995764 94.408608 
L 391.553909 94.408608 
L 391.832982 94.742881 
L 393.507418 94.742881 
L 393.786491 95.077154 
L 394.344636 95.077154 
L 394.623709 95.411427 
L 395.74 95.411427 
L 396.019073 95.7457 
L 396.298145 95.7457 
L 396.577218 96.079973 
L 398.530727 96.079973 
L 398.8098 96.414246 
L 399.088873 96.414246 
L 399.367945 96.748519 
L 401.321455 96.748519 
L 401.8796 97.417065 
L 403.274964 97.417065 
L 403.554036 97.751338 
L 404.112182 97.751338 
L 404.391255 98.085611 
L 406.065691 98.085611 
L 406.344764 98.419884 
L 406.902909 98.419884 
L 407.181982 98.754157 
L 408.577345 98.754157 
L 409.135491 99.422703 
L 411.089 99.422703 
L 411.368073 99.756976 
L 411.647145 99.756976 
L 411.926218 100.091249 
L 413.879727 100.091249 
L 414.1588 100.425522 
L 414.437873 100.425522 
L 414.716945 100.759795 
L 415.833236 100.759795 
L 416.112309 101.094068 
L 416.670455 101.094068 
L 416.949527 101.428341 
L 418.623964 101.428341 
L 418.903036 101.762614 
L 419.461182 101.762614 
L 419.740255 102.096887 
L 421.414691 102.096887 
L 421.693764 102.43116 
L 422.251909 102.43116 
L 422.530982 102.765433 
L 423.647273 102.765433 
L 423.926345 103.099706 
L 424.205418 103.099706 
L 424.484491 103.433979 
L 426.438 103.433979 
L 426.717073 103.768252 
L 426.996145 103.768252 
L 427.275218 104.102525 
L 428.949655 104.102525 
L 429.5078 104.771071 
L 431.182236 104.771071 
L 431.461309 105.105344 
L 432.019455 105.105344 
L 432.298527 105.439617 
L 433.972964 105.439617 
L 434.252036 105.77389 
L 434.810182 105.77389 
L 435.089255 106.108163 
L 436.205545 106.108163 
L 436.484618 106.442436 
L 436.763691 106.442436 
L 437.042764 106.776709 
L 438.996273 106.776709 
L 439.275345 107.110982 
L 439.554418 107.110982 
L 439.833491 107.445255 
L 441.787 107.445255 
L 442.066073 107.779528 
L 442.345145 107.779528 
L 442.624218 108.113801 
L 443.740509 108.113801 
L 444.019582 108.448074 
L 444.577727 108.448074 
L 444.8568 108.782347 
L 446.531236 108.782347 
L 446.810309 109.11662 
L 447.368455 109.11662 
L 447.647527 109.450893 
L 449.321964 109.450893 
L 449.880109 110.119439 
L 451.554545 110.119439 
L 451.833618 110.453712 
L 452.112691 110.453712 
L 452.391764 110.787985 
L 454.345273 110.787985 
L 454.624345 111.122258 
L 454.903418 111.122258 
L 455.182491 111.456531 
L 456.577855 111.456531 
L 456.856927 111.790804 
L 457.136 111.790804 
L 457.415073 112.125077 
L 459.089509 112.125077 
L 459.368582 112.45935 
L 459.926727 112.45935 
L 460.2058 112.793623 
L 461.880236 112.793623 
L 462.159309 113.127896 
L 462.717455 113.127896 
L 462.996527 113.462169 
L 464.112818 113.462169 
L 464.391891 113.796442 
L 464.670964 113.796442 
L 464.950036 114.130715 
L 466.903545 114.130715 
L 467.182618 114.464988 
L 467.461691 114.464988 
L 467.740764 114.799261 
L 469.694273 114.799261 
L 469.973345 115.133534 
L 470.252418 115.133534 
L 470.531491 115.467807 
L 473.043145 115.467807 
L 473.322218 115.80208 
L 474.159436 115.80208 
L 474.438509 116.136353 
L 475.5548 116.136353 
L 475.833873 116.470626 
L 476.950164 116.470626 
L 477.229236 116.804899 
L 478.345527 116.804899 
L 478.6246 117.139172 
L 479.740891 117.139172 
L 480.019964 117.473445 
L 480.578109 117.473445 
L 480.857182 117.807718 
L 481.136255 117.807718 
L 481.415327 118.141991 
L 482.531618 118.141991 
L 482.810691 118.476264 
L 483.926982 118.476264 
L 484.206055 118.810537 
L 485.322345 118.810537 
L 485.601418 119.14481 
L 486.717709 119.14481 
L 486.996782 119.479083 
L 488.113073 119.479083 
L 488.392145 119.813356 
L 489.508436 119.813356 
L 489.787509 120.147629 
L 490.9038 120.147629 
L 491.182873 120.481902 
L 492.299164 120.481902 
L 492.578236 120.816175 
L 493.694527 120.816175 
L 493.9736 121.150448 
L 494.252673 121.150448 
L 494.531745 121.484721 
L 495.089891 121.484721 
L 495.368964 121.818994 
L 496.485255 121.818994 
L 496.764327 122.153267 
L 497.880618 122.153267 
L 498.159691 122.48754 
L 499.275982 122.48754 
L 499.555055 122.821813 
L 500.671345 122.821813 
L 500.950418 123.156086 
L 502.066709 123.156086 
L 502.345782 123.490359 
L 503.462073 123.490359 
L 503.741145 123.824632 
L 504.857436 123.824632 
L 505.136509 124.158905 
L 506.2528 124.158905 
L 506.531873 124.493178 
L 507.648164 124.493178 
L 508.206309 125.161724 
L 509.043527 125.161724 
L 509.3226 125.495997 
L 510.438891 125.495997 
L 510.717964 125.83027 
L 511.834255 125.83027 
L 512.113327 126.164543 
L 513.229618 126.164543 
L 513.508691 126.498815 
L 514.624982 126.498815 
L 514.904055 126.833088 
L 516.020345 126.833088 
L 516.299418 127.167361 
L 517.415709 127.167361 
L 517.694782 127.501634 
L 518.811073 127.501634 
L 519.090145 127.835907 
L 520.206436 127.835907 
L 520.485509 128.17018 
L 521.6018 128.17018 
L 522.159945 128.838726 
L 522.997164 128.838726 
L 523.276236 129.172999 
L 524.392527 129.172999 
L 524.6716 129.507272 
L 525.787891 129.507272 
L 526.066964 129.841545 
L 527.183255 129.841545 
L 527.462327 130.175818 
L 528.578618 130.175818 
L 528.857691 130.510091 
L 529.973982 130.510091 
L 530.253055 130.844364 
L 531.369345 130.844364 
L 531.648418 131.178637 
L 532.764709 131.178637 
L 533.043782 131.51291 
L 534.160073 131.51291 
L 534.439145 131.847183 
L 535.555436 131.847183 
L 535.834509 132.515729 
L 536.9508 132.515729 
L 537.229873 132.850002 
L 538.346164 132.850002 
L 538.625236 133.184275 
L 539.741527 133.184275 
L 540.0206 133.518548 
L 541.136891 133.518548 
L 541.415964 133.852821 
L 542.532255 133.852821 
L 542.811327 134.187094 
L 543.927618 134.187094 
L 544.206691 134.521367 
L 545.043909 134.521367 
L 545.322982 134.85564 
L 546.439273 134.85564 
L 546.718345 135.189913 
L 547.834636 135.189913 
L 548.113709 135.524186 
L 549.23 135.524186 
L 549.509073 136.192732 
L 550.625364 136.192732 
L 550.904436 136.527005 
L 552.020727 136.527005 
L 552.2998 136.861278 
L 553.416091 136.861278 
L 553.695164 137.195551 
L 554.811455 137.195551 
L 555.090527 137.529824 
L 556.206818 137.529824 
L 556.485891 137.864097 
L 557.602182 137.864097 
L 557.881255 138.19837 
L 558.997545 138.19837 
L 559.276618 138.532643 
L 560.392909 138.532643 
L 560.671982 138.866916 
L 561.788273 138.866916 
L 562.067345 139.201189 
L 563.183636 139.201189 
L 563.462709 139.869735 
L 564.579 139.869735 
L 564.858073 140.204008 
L 565.974364 140.204008 
L 566.253436 140.538281 
L 567.369727 140.538281 
L 567.6488 140.872554 
L 568.765091 140.872554 
L 569.044164 141.206827 
L 570.160455 141.206827 
L 570.439527 141.5411 
L 571.555818 141.5411 
L 571.834891 141.875373 
L 572.951182 141.875373 
L 573.230255 142.209646 
L 574.346545 142.209646 
L 574.625618 142.543919 
L 575.741909 142.543919 
L 576.020982 142.878192 
L 576.8582 142.878192 
L 577.416345 143.546738 
L 578.532636 143.546738 
L 578.811709 143.881011 
L 579.928 143.881011 
L 580.207073 144.215284 
L 581.323364 144.215284 
L 581.602436 144.549557 
L 582.718727 144.549557 
L 582.9978 144.88383 
L 584.114091 144.88383 
L 584.393164 145.218103 
L 585.509455 145.218103 
L 585.788527 145.552376 
L 586.904818 145.552376 
L 587.183891 145.886649 
L 588.300182 145.886649 
L 588.579255 146.220922 
L 589.695545 146.220922 
L 589.974618 146.555195 
L 590.532764 146.555195 
L 590.811836 146.889468 
L 591.090909 146.889468 
L 591.369982 147.223741 
L 592.486273 147.223741 
L 592.765345 147.558014 
L 593.881636 147.558014 
L 594.160709 147.892287 
L 595.277 147.892287 
L 595.556073 148.22656 
L 596.672364 148.22656 
L 596.951436 148.560833 
L 598.067727 148.560833 
L 598.3468 148.895106 
L 599.463091 148.895106 
L 599.742164 149.229379 
L 600.858455 149.229379 
L 601.137527 149.563652 
L 602.253818 149.563652 
L 602.532891 149.897925 
L 603.649182 149.897925 
L 603.928255 150.232198 
L 604.207327 150.232198 
L 604.4864 150.566471 
L 605.044545 150.566471 
L 605.323618 150.900744 
L 606.439909 150.900744 
L 606.718982 151.235017 
L 607.835273 151.235017 
L 608.114345 151.56929 
L 609.230636 151.56929 
L 609.509709 151.903563 
L 610.626 151.903563 
L 610.905073 152.237836 
L 612.021364 152.237836 
L 612.300436 152.572109 
L 613.416727 152.572109 
L 613.6958 152.906382 
L 614.812091 152.906382 
L 615.091164 153.240655 
L 616.207455 153.240655 
L 616.486527 153.574928 
L 617.602818 153.574928 
L 618.160964 154.243474 
L 618.998182 154.243474 
L 619.277255 154.577747 
L 620.393545 154.577747 
L 620.672618 154.91202 
L 621.788909 154.91202 
L 622.067982 155.246293 
L 623.184273 155.246293 
L 623.463345 155.580566 
L 624.579636 155.580566 
L 624.858709 155.914839 
L 625.975 155.914839 
L 626.254073 156.249112 
L 627.370364 156.249112 
L 627.649436 156.583385 
L 628.765727 156.583385 
L 629.0448 156.917658 
L 630.161091 156.917658 
L 630.440164 157.251931 
L 631.556455 157.251931 
L 631.835527 157.920477 
L 632.951818 157.920477 
L 633.230891 158.25475 
L 634.347182 158.25475 
L 634.626255 158.589023 
L 635.742545 158.589023 
L 636.021618 158.923296 
L 637.137909 158.923296 
L 637.416982 159.257569 
L 638.533273 159.257569 
L 638.812345 159.591842 
L 639.928636 159.591842 
L 640.207709 159.926115 
L 641.324 159.926115 
L 641.603073 160.260388 
L 642.719364 160.260388 
L 642.998436 160.594661 
L 644.114727 160.594661 
L 644.3938 160.928933 
L 645.510091 160.928933 
L 645.789164 161.597479 
L 646.905455 161.597479 
L 647.184527 161.931752 
L 648.300818 161.931752 
L 648.579891 162.266025 
L 649.696182 162.266025 
L 649.975255 162.600298 
L 651.091545 162.600298 
L 651.370618 162.934571 
L 652.486909 162.934571 
L 652.765982 163.268844 
L 653.882273 163.268844 
L 654.161345 163.603117 
L 655.277636 163.603117 
L 655.556709 163.93739 
L 656.673 163.93739 
L 656.952073 164.271663 
L 658.068364 164.271663 
L 658.347436 164.605936 
L 659.184655 164.605936 
L 659.7428 165.274482 
L 660.859091 165.274482 
L 661.138164 165.608755 
L 662.254455 165.608755 
L 662.533527 165.943028 
L 663.649818 165.943028 
L 663.928891 166.277301 
L 665.045182 166.277301 
L 665.324255 166.611574 
L 666.440545 166.611574 
L 666.719618 166.945847 
L 667.835909 166.945847 
L 668.114982 167.28012 
L 669.231273 167.28012 
L 669.510345 167.614393 
L 670.626636 167.614393 
L 670.905709 167.948666 
L 672.022 167.948666 
L 672.301073 168.282939 
L 672.859218 168.282939 
L 673.138291 168.617212 
L 673.417364 168.617212 
L 673.696436 168.951485 
L 674.812727 168.951485 
L 674.812727 168.951485 
" style="fill:none;stroke:#1f77b4;stroke-linecap:square;stroke-width:1.5;"/>
   </g>
   <g id="patch_3">
    <path d="M 88.76 173.973937 
L 88.76 63.48 
" style="fill:none;stroke:#000000;stroke-linecap:square;stroke-linejoin:miter;stroke-width:0.8;"/>
   </g>
   <g id="patch_4">
    <path d="M 702.72 173.973937 
L 702.72 63.48 
" style="fill:none;stroke:#000000;stroke-linecap:square;stroke-linejoin:miter;stroke-width:0.8;"/>
   </g>
   <g id="patch_5">
    <path d="M 88.76 173.973937 
L 702.72 173.973937 
" style="fill:none;stroke:#000000;stroke-linecap:square;stroke-linejoin:miter;stroke-width:0.8;"/>
   </g>
   <g id="patch_6">
    <path d="M 88.76 63.48 
L 702.72 63.48 
" style="fill:none;stroke:#000000;stroke-linecap:square;stroke-linejoin:miter;stroke-width:0.8;"/>
   </g>
  </g>
  <g id="axes_2">
   <g id="patch_7">
    <path d="M 88.76 346.446968 
L 702.72 346.446968 
L 702.72 235.953032 
L 88.76 235.953032 
z
" style="fill:#ffffff;"/>
   </g>
   <g id="matplotlib.axis_3">
    <g id="xtick_10">
     <g id="line2d_14">
      <g>
       <use style="stroke:#000000;stroke-width:0.8;" x="116.667273" xlink:href="#mdfb3f5a0c1" y="346.446968"/>
      </g>
     </g>
     <g id="text_16">
      <!-- 0 -->
      <g transform="translate(111.577273 365.604468)scale(0.16 -0.16)">
       <use xlink:href="#DejaVuSans-30"/>
      </g>
     </g>
    </g>
    <g id="xtick_11">
     <g id="line2d_15">
      <g>
       <use style="stroke:#000000;stroke-width:0.8;" x="186.435455" xlink:href="#mdfb3f5a0c1" y="346.446968"/>
      </g>
     </g>
     <g id="text_17">
      <!-- 25 -->
      <g transform="translate(176.255455 365.604468)scale(0.16 -0.16)">
       <use xlink:href="#DejaVuSans-32"/>
       <use x="63.623047" xlink:href="#DejaVuSans-35"/>
      </g>
     </g>
    </g>
    <g id="xtick_12">
     <g id="line2d_16">
      <g>
       <use style="stroke:#000000;stroke-width:0.8;" x="256.203636" xlink:href="#mdfb3f5a0c1" y="346.446968"/>
      </g>
     </g>
     <g id="text_18">
      <!-- 50 -->
      <g transform="translate(246.023636 365.604468)scale(0.16 -0.16)">
       <use xlink:href="#DejaVuSans-35"/>
       <use x="63.623047" xlink:href="#DejaVuSans-30"/>
      </g>
     </g>
    </g>
    <g id="xtick_13">
     <g id="line2d_17">
      <g>
       <use style="stroke:#000000;stroke-width:0.8;" x="325.971818" xlink:href="#mdfb3f5a0c1" y="346.446968"/>
      </g>
     </g>
     <g id="text_19">
      <!-- 75 -->
      <g transform="translate(315.791818 365.604468)scale(0.16 -0.16)">
       <use xlink:href="#DejaVuSans-37"/>
       <use x="63.623047" xlink:href="#DejaVuSans-35"/>
      </g>
     </g>
    </g>
    <g id="xtick_14">
     <g id="line2d_18">
      <g>
       <use style="stroke:#000000;stroke-width:0.8;" x="395.74" xlink:href="#mdfb3f5a0c1" y="346.446968"/>
      </g>
     </g>
     <g id="text_20">
      <!-- 100 -->
      <g transform="translate(380.47 365.604468)scale(0.16 -0.16)">
       <use xlink:href="#DejaVuSans-31"/>
       <use x="63.623047" xlink:href="#DejaVuSans-30"/>
       <use x="127.246094" xlink:href="#DejaVuSans-30"/>
      </g>
     </g>
    </g>
    <g id="xtick_15">
     <g id="line2d_19">
      <g>
       <use style="stroke:#000000;stroke-width:0.8;" x="465.508182" xlink:href="#mdfb3f5a0c1" y="346.446968"/>
      </g>
     </g>
     <g id="text_21">
      <!-- 125 -->
      <g transform="translate(450.238182 365.604468)scale(0.16 -0.16)">
       <use xlink:href="#DejaVuSans-31"/>
       <use x="63.623047" xlink:href="#DejaVuSans-32"/>
       <use x="127.246094" xlink:href="#DejaVuSans-35"/>
      </g>
     </g>
    </g>
    <g id="xtick_16">
     <g id="line2d_20">
      <g>
       <use style="stroke:#000000;stroke-width:0.8;" x="535.276364" xlink:href="#mdfb3f5a0c1" y="346.446968"/>
      </g>
     </g>
     <g id="text_22">
      <!-- 150 -->
      <g transform="translate(520.006364 365.604468)scale(0.16 -0.16)">
       <use xlink:href="#DejaVuSans-31"/>
       <use x="63.623047" xlink:href="#DejaVuSans-35"/>
       <use x="127.246094" xlink:href="#DejaVuSans-30"/>
      </g>
     </g>
    </g>
    <g id="xtick_17">
     <g id="line2d_21">
      <g>
       <use style="stroke:#000000;stroke-width:0.8;" x="605.044545" xlink:href="#mdfb3f5a0c1" y="346.446968"/>
      </g>
     </g>
     <g id="text_23">
      <!-- 175 -->
      <g transform="translate(589.774545 365.604468)scale(0.16 -0.16)">
       <use xlink:href="#DejaVuSans-31"/>
       <use x="63.623047" xlink:href="#DejaVuSans-37"/>
       <use x="127.246094" xlink:href="#DejaVuSans-35"/>
      </g>
     </g>
    </g>
    <g id="xtick_18">
     <g id="line2d_22">
      <g>
       <use style="stroke:#000000;stroke-width:0.8;" x="674.812727" xlink:href="#mdfb3f5a0c1" y="346.446968"/>
      </g>
     </g>
     <g id="text_24">
      <!-- 200 -->
      <g transform="translate(659.542727 365.604468)scale(0.16 -0.16)">
       <use xlink:href="#DejaVuSans-32"/>
       <use x="63.623047" xlink:href="#DejaVuSans-30"/>
       <use x="127.246094" xlink:href="#DejaVuSans-30"/>
      </g>
     </g>
    </g>
    <g id="text_25">
     <!-- Time [s] -->
     <g transform="translate(363.21375 385.089468)scale(0.16 -0.16)">
      <use xlink:href="#DejaVuSans-54"/>
      <use x="57.958984" xlink:href="#DejaVuSans-69"/>
      <use x="85.742188" xlink:href="#DejaVuSans-6d"/>
      <use x="183.154297" xlink:href="#DejaVuSans-65"/>
      <use x="244.677734" xlink:href="#DejaVuSans-20"/>
      <use x="276.464844" xlink:href="#DejaVuSans-5b"/>
      <use x="315.478516" xlink:href="#DejaVuSans-73"/>
      <use x="367.578125" xlink:href="#DejaVuSans-5d"/>
     </g>
    </g>
   </g>
   <g id="matplotlib.axis_4">
    <g id="ytick_4">
     <g id="line2d_23">
      <g>
       <use style="stroke:#000000;stroke-width:0.8;" x="88.76" xlink:href="#mb559ac01c6" y="332.435403"/>
      </g>
     </g>
     <g id="text_26">
      <!-- 0.000 -->
      <g transform="translate(35.955 338.514153)scale(0.16 -0.16)">
       <defs>
        <path d="M 684 794 
L 1344 794 
L 1344 0 
L 684 0 
L 684 794 
z
" id="DejaVuSans-2e" transform="scale(0.015625)"/>
       </defs>
       <use xlink:href="#DejaVuSans-30"/>
       <use x="63.623047" xlink:href="#DejaVuSans-2e"/>
       <use x="95.410156" xlink:href="#DejaVuSans-30"/>
       <use x="159.033203" xlink:href="#DejaVuSans-30"/>
       <use x="222.65625" xlink:href="#DejaVuSans-30"/>
      </g>
     </g>
    </g>
    <g id="ytick_5">
     <g id="line2d_24">
      <g>
       <use style="stroke:#000000;stroke-width:0.8;" x="88.76" xlink:href="#mb559ac01c6" y="268.59997"/>
      </g>
     </g>
     <g id="text_27">
      <!-- 0.002 -->
      <g transform="translate(35.955 274.67872)scale(0.16 -0.16)">
       <use xlink:href="#DejaVuSans-30"/>
       <use x="63.623047" xlink:href="#DejaVuSans-2e"/>
       <use x="95.410156" xlink:href="#DejaVuSans-30"/>
       <use x="159.033203" xlink:href="#DejaVuSans-30"/>
       <use x="222.65625" xlink:href="#DejaVuSans-32"/>
      </g>
     </g>
    </g>
    <g id="text_28">
     <!-- Position [m] -->
     <g transform="translate(28.6275 338.92)rotate(-90)scale(0.16 -0.16)">
      <defs>
       <path d="M 1259 4147 
L 1259 2394 
L 2053 2394 
Q 2494 2394 2734 2622 
Q 2975 2850 2975 3272 
Q 2975 3691 2734 3919 
Q 2494 4147 2053 4147 
L 1259 4147 
z
M 628 4666 
L 2053 4666 
Q 2838 4666 3239 4311 
Q 3641 3956 3641 3272 
Q 3641 2581 3239 2228 
Q 2838 1875 2053 1875 
L 1259 1875 
L 1259 0 
L 628 0 
L 628 4666 
z
" id="DejaVuSans-50" transform="scale(0.015625)"/>
       <path d="M 1959 3097 
Q 1497 3097 1228 2736 
Q 959 2375 959 1747 
Q 959 1119 1226 758 
Q 1494 397 1959 397 
Q 2419 397 2687 759 
Q 2956 1122 2956 1747 
Q 2956 2369 2687 2733 
Q 2419 3097 1959 3097 
z
M 1959 3584 
Q 2709 3584 3137 3096 
Q 3566 2609 3566 1747 
Q 3566 888 3137 398 
Q 2709 -91 1959 -91 
Q 1206 -91 779 398 
Q 353 888 353 1747 
Q 353 2609 779 3096 
Q 1206 3584 1959 3584 
z
" id="DejaVuSans-6f" transform="scale(0.015625)"/>
       <path d="M 3513 2113 
L 3513 0 
L 2938 0 
L 2938 2094 
Q 2938 2591 2744 2837 
Q 2550 3084 2163 3084 
Q 1697 3084 1428 2787 
Q 1159 2491 1159 1978 
L 1159 0 
L 581 0 
L 581 3500 
L 1159 3500 
L 1159 2956 
Q 1366 3272 1645 3428 
Q 1925 3584 2291 3584 
Q 2894 3584 3203 3211 
Q 3513 2838 3513 2113 
z
" id="DejaVuSans-6e" transform="scale(0.015625)"/>
      </defs>
      <use xlink:href="#DejaVuSans-50"/>
      <use x="56.677734" xlink:href="#DejaVuSans-6f"/>
      <use x="117.859375" xlink:href="#DejaVuSans-73"/>
      <use x="169.958984" xlink:href="#DejaVuSans-69"/>
      <use x="197.742188" xlink:href="#DejaVuSans-74"/>
      <use x="236.951172" xlink:href="#DejaVuSans-69"/>
      <use x="264.734375" xlink:href="#DejaVuSans-6f"/>
      <use x="325.916016" xlink:href="#DejaVuSans-6e"/>
      <use x="389.294922" xlink:href="#DejaVuSans-20"/>
      <use x="421.082031" xlink:href="#DejaVuSans-5b"/>
      <use x="460.095703" xlink:href="#DejaVuSans-6d"/>
      <use x="557.507812" xlink:href="#DejaVuSans-5d"/>
     </g>
    </g>
   </g>
   <g id="line2d_25">
    <path clip-path="url(#p3485660f66)" d="M 116.667273 332.435403 
L 142.900109 336.199342 
L 156.853745 337.972346 
L 168.853873 339.274499 
L 179.458636 340.206269 
L 189.505255 340.865671 
L 198.993727 341.263691 
L 207.924055 341.420047 
L 216.575309 341.355284 
L 225.226564 341.066082 
L 233.598745 340.563665 
L 241.970927 339.835744 
L 250.064036 338.913468 
L 258.157145 337.773969 
L 266.250255 336.416778 
L 274.622436 334.785149 
L 282.994618 332.925503 
L 291.645873 330.770211 
L 300.297127 328.385671 
L 309.227455 325.694884 
L 318.436855 322.690549 
L 328.2044 319.269074 
L 338.530091 315.415046 
L 349.693 311.010256 
L 362.251273 305.811982 
L 377.600273 299.203723 
L 404.391255 287.369147 
L 424.763564 278.486341 
L 438.7172 272.638943 
L 450.717327 267.847362 
L 461.601164 263.740104 
L 471.647782 260.183918 
L 481.136255 257.057187 
L 490.345655 254.256884 
L 499.275982 251.776812 
L 507.927236 249.606456 
L 516.299418 247.731782 
L 524.6716 246.084821 
L 533.043782 244.669209 
L 541.136891 243.5222 
L 549.23 242.592462 
L 557.602182 241.856935 
L 565.974364 241.347095 
L 574.346545 241.056489 
L 582.9978 240.977572 
L 591.928127 241.12016 
L 601.137527 241.490093 
L 610.905073 242.109181 
L 621.230764 242.990268 
L 632.393673 244.167827 
L 645.231018 245.754326 
L 661.138164 247.960005 
L 674.812727 249.964597 
L 674.812727 249.964597 
" style="fill:none;stroke:#1f77b4;stroke-linecap:square;stroke-width:1.5;"/>
   </g>
   <g id="line2d_26">
    <path clip-path="url(#p3485660f66)" d="M 116.667273 332.435403 
L 124.760382 332.326531 
L 132.853491 332.000819 
L 141.225673 331.438582 
L 149.597855 330.652184 
L 158.249109 329.611512 
L 166.900364 328.348815 
L 175.830691 326.825205 
L 185.319164 324.978377 
L 195.365782 322.789906 
L 205.970545 320.25027 
L 217.6916 317.211921 
L 231.366164 313.428777 
L 249.784964 308.079318 
L 284.389982 297.993659 
L 298.343618 294.192893 
L 310.064673 291.22477 
L 320.669436 288.762092 
L 330.716055 286.657266 
L 340.204527 284.898051 
L 349.134855 283.463637 
L 357.786109 282.292708 
L 366.437364 281.348204 
L 374.809545 280.658201 
L 383.181727 280.194768 
L 391.274836 279.966033 
L 399.367945 279.954766 
L 407.461055 280.161062 
L 415.833236 280.601578 
L 424.205418 281.269167 
L 432.5776 282.157903 
L 441.228855 283.300194 
L 450.159182 284.706676 
L 459.368582 286.384088 
L 469.136127 288.395065 
L 479.461818 290.754034 
L 490.624727 293.537497 
L 503.183 296.904978 
L 518.532 301.265143 
L 574.346545 317.361382 
L 586.625745 320.527679 
L 597.509582 323.10721 
L 607.5562 325.263934 
L 617.044673 327.07742 
L 626.254073 328.609997 
L 635.1844 329.866291 
L 643.835655 330.855385 
L 652.207836 331.59003 
L 660.580018 332.099171 
L 668.673127 332.372722 
L 674.812727 332.435396 
L 674.812727 332.435396 
" style="fill:none;stroke:#ff7f0e;stroke-linecap:square;stroke-width:1.5;"/>
   </g>
   <g id="patch_8">
    <path d="M 88.76 346.446968 
L 88.76 235.953032 
" style="fill:none;stroke:#000000;stroke-linecap:square;stroke-linejoin:miter;stroke-width:0.8;"/>
   </g>
   <g id="patch_9">
    <path d="M 702.72 346.446968 
L 702.72 235.953032 
" style="fill:none;stroke:#000000;stroke-linecap:square;stroke-linejoin:miter;stroke-width:0.8;"/>
   </g>
   <g id="patch_10">
    <path d="M 88.76 346.446968 
L 702.72 346.446968 
" style="fill:none;stroke:#000000;stroke-linecap:square;stroke-linejoin:miter;stroke-width:0.8;"/>
   </g>
   <g id="patch_11">
    <path d="M 88.76 235.953032 
L 702.72 235.953032 
" style="fill:none;stroke:#000000;stroke-linecap:square;stroke-linejoin:miter;stroke-width:0.8;"/>
   </g>
   <g id="legend_1">
    <g id="patch_12">
     <path d="M 99.96 296.613032 
L 199.4125 296.613032 
Q 202.6125 296.613032 202.6125 293.413032 
L 202.6125 247.153032 
Q 202.6125 243.953032 199.4125 243.953032 
L 99.96 243.953032 
Q 96.76 243.953032 96.76 247.153032 
L 96.76 293.413032 
Q 96.76 296.613032 99.96 296.613032 
z
" style="fill:#ffffff;opacity:0.8;stroke:#cccccc;stroke-linejoin:miter;"/>
    </g>
    <g id="line2d_27">
     <path d="M 103.16 256.910532 
L 135.16 256.910532 
" style="fill:none;stroke:#1f77b4;stroke-linecap:square;stroke-width:1.5;"/>
    </g>
    <g id="line2d_28"/>
    <g id="text_29">
     <!-- pos_E -->
     <g transform="translate(147.96 262.510532)scale(0.16 -0.16)">
      <defs>
       <path d="M 1159 525 
L 1159 -1331 
L 581 -1331 
L 581 3500 
L 1159 3500 
L 1159 2969 
Q 1341 3281 1617 3432 
Q 1894 3584 2278 3584 
Q 2916 3584 3314 3078 
Q 3713 2572 3713 1747 
Q 3713 922 3314 415 
Q 2916 -91 2278 -91 
Q 1894 -91 1617 61 
Q 1341 213 1159 525 
z
M 3116 1747 
Q 3116 2381 2855 2742 
Q 2594 3103 2138 3103 
Q 1681 3103 1420 2742 
Q 1159 2381 1159 1747 
Q 1159 1113 1420 752 
Q 1681 391 2138 391 
Q 2594 391 2855 752 
Q 3116 1113 3116 1747 
z
" id="DejaVuSans-70" transform="scale(0.015625)"/>
       <path d="M 3263 -1063 
L 3263 -1509 
L -63 -1509 
L -63 -1063 
L 3263 -1063 
z
" id="DejaVuSans-5f" transform="scale(0.015625)"/>
       <path d="M 628 4666 
L 3578 4666 
L 3578 4134 
L 1259 4134 
L 1259 2753 
L 3481 2753 
L 3481 2222 
L 1259 2222 
L 1259 531 
L 3634 531 
L 3634 0 
L 628 0 
L 628 4666 
z
" id="DejaVuSans-45" transform="scale(0.015625)"/>
      </defs>
      <use xlink:href="#DejaVuSans-70"/>
      <use x="63.476562" xlink:href="#DejaVuSans-6f"/>
      <use x="124.658203" xlink:href="#DejaVuSans-73"/>
      <use x="176.757812" xlink:href="#DejaVuSans-5f"/>
      <use x="226.757812" xlink:href="#DejaVuSans-45"/>
     </g>
    </g>
    <g id="line2d_29">
     <path d="M 103.16 280.840532 
L 135.16 280.840532 
" style="fill:none;stroke:#ff7f0e;stroke-linecap:square;stroke-width:1.5;"/>
    </g>
    <g id="line2d_30"/>
    <g id="text_30">
     <!-- pos_N -->
     <g transform="translate(147.96 286.440532)scale(0.16 -0.16)">
      <defs>
       <path d="M 628 4666 
L 1478 4666 
L 3547 763 
L 3547 4666 
L 4159 4666 
L 4159 0 
L 3309 0 
L 1241 3903 
L 1241 0 
L 628 0 
L 628 4666 
z
" id="DejaVuSans-4e" transform="scale(0.015625)"/>
      </defs>
      <use xlink:href="#DejaVuSans-70"/>
      <use x="63.476562" xlink:href="#DejaVuSans-6f"/>
      <use x="124.658203" xlink:href="#DejaVuSans-73"/>
      <use x="176.757812" xlink:href="#DejaVuSans-5f"/>
      <use x="226.757812" xlink:href="#DejaVuSans-4e"/>
     </g>
    </g>
   </g>
  </g>
  <g id="axes_3">
   <g id="patch_13">
    <path d="M 88.76 518.92 
L 702.72 518.92 
L 702.72 408.426063 
L 88.76 408.426063 
z
" style="fill:#ffffff;"/>
   </g>
   <g id="matplotlib.axis_5">
    <g id="xtick_19">
     <g id="line2d_31">
      <g>
       <use style="stroke:#000000;stroke-width:0.8;" x="116.667273" xlink:href="#mdfb3f5a0c1" y="518.92"/>
      </g>
     </g>
     <g id="text_31">
      <!-- 0 -->
      <g transform="translate(111.577273 538.0775)scale(0.16 -0.16)">
       <use xlink:href="#DejaVuSans-30"/>
      </g>
     </g>
    </g>
    <g id="xtick_20">
     <g id="line2d_32">
      <g>
       <use style="stroke:#000000;stroke-width:0.8;" x="186.435455" xlink:href="#mdfb3f5a0c1" y="518.92"/>
      </g>
     </g>
     <g id="text_32">
      <!-- 25 -->
      <g transform="translate(176.255455 538.0775)scale(0.16 -0.16)">
       <use xlink:href="#DejaVuSans-32"/>
       <use x="63.623047" xlink:href="#DejaVuSans-35"/>
      </g>
     </g>
    </g>
    <g id="xtick_21">
     <g id="line2d_33">
      <g>
       <use style="stroke:#000000;stroke-width:0.8;" x="256.203636" xlink:href="#mdfb3f5a0c1" y="518.92"/>
      </g>
     </g>
     <g id="text_33">
      <!-- 50 -->
      <g transform="translate(246.023636 538.0775)scale(0.16 -0.16)">
       <use xlink:href="#DejaVuSans-35"/>
       <use x="63.623047" xlink:href="#DejaVuSans-30"/>
      </g>
     </g>
    </g>
    <g id="xtick_22">
     <g id="line2d_34">
      <g>
       <use style="stroke:#000000;stroke-width:0.8;" x="325.971818" xlink:href="#mdfb3f5a0c1" y="518.92"/>
      </g>
     </g>
     <g id="text_34">
      <!-- 75 -->
      <g transform="translate(315.791818 538.0775)scale(0.16 -0.16)">
       <use xlink:href="#DejaVuSans-37"/>
       <use x="63.623047" xlink:href="#DejaVuSans-35"/>
      </g>
     </g>
    </g>
    <g id="xtick_23">
     <g id="line2d_35">
      <g>
       <use style="stroke:#000000;stroke-width:0.8;" x="395.74" xlink:href="#mdfb3f5a0c1" y="518.92"/>
      </g>
     </g>
     <g id="text_35">
      <!-- 100 -->
      <g transform="translate(380.47 538.0775)scale(0.16 -0.16)">
       <use xlink:href="#DejaVuSans-31"/>
       <use x="63.623047" xlink:href="#DejaVuSans-30"/>
       <use x="127.246094" xlink:href="#DejaVuSans-30"/>
      </g>
     </g>
    </g>
    <g id="xtick_24">
     <g id="line2d_36">
      <g>
       <use style="stroke:#000000;stroke-width:0.8;" x="465.508182" xlink:href="#mdfb3f5a0c1" y="518.92"/>
      </g>
     </g>
     <g id="text_36">
      <!-- 125 -->
      <g transform="translate(450.238182 538.0775)scale(0.16 -0.16)">
       <use xlink:href="#DejaVuSans-31"/>
       <use x="63.623047" xlink:href="#DejaVuSans-32"/>
       <use x="127.246094" xlink:href="#DejaVuSans-35"/>
      </g>
     </g>
    </g>
    <g id="xtick_25">
     <g id="line2d_37">
      <g>
       <use style="stroke:#000000;stroke-width:0.8;" x="535.276364" xlink:href="#mdfb3f5a0c1" y="518.92"/>
      </g>
     </g>
     <g id="text_37">
      <!-- 150 -->
      <g transform="translate(520.006364 538.0775)scale(0.16 -0.16)">
       <use xlink:href="#DejaVuSans-31"/>
       <use x="63.623047" xlink:href="#DejaVuSans-35"/>
       <use x="127.246094" xlink:href="#DejaVuSans-30"/>
      </g>
     </g>
    </g>
    <g id="xtick_26">
     <g id="line2d_38">
      <g>
       <use style="stroke:#000000;stroke-width:0.8;" x="605.044545" xlink:href="#mdfb3f5a0c1" y="518.92"/>
      </g>
     </g>
     <g id="text_38">
      <!-- 175 -->
      <g transform="translate(589.774545 538.0775)scale(0.16 -0.16)">
       <use xlink:href="#DejaVuSans-31"/>
       <use x="63.623047" xlink:href="#DejaVuSans-37"/>
       <use x="127.246094" xlink:href="#DejaVuSans-35"/>
      </g>
     </g>
    </g>
    <g id="xtick_27">
     <g id="line2d_39">
      <g>
       <use style="stroke:#000000;stroke-width:0.8;" x="674.812727" xlink:href="#mdfb3f5a0c1" y="518.92"/>
      </g>
     </g>
     <g id="text_39">
      <!-- 200 -->
      <g transform="translate(659.542727 538.0775)scale(0.16 -0.16)">
       <use xlink:href="#DejaVuSans-32"/>
       <use x="63.623047" xlink:href="#DejaVuSans-30"/>
       <use x="127.246094" xlink:href="#DejaVuSans-30"/>
      </g>
     </g>
    </g>
    <g id="text_40">
     <!-- Time [s] -->
     <g transform="translate(363.21375 557.5625)scale(0.16 -0.16)">
      <use xlink:href="#DejaVuSans-54"/>
      <use x="57.958984" xlink:href="#DejaVuSans-69"/>
      <use x="85.742188" xlink:href="#DejaVuSans-6d"/>
      <use x="183.154297" xlink:href="#DejaVuSans-65"/>
      <use x="244.677734" xlink:href="#DejaVuSans-20"/>
      <use x="276.464844" xlink:href="#DejaVuSans-5b"/>
      <use x="315.478516" xlink:href="#DejaVuSans-73"/>
      <use x="367.578125" xlink:href="#DejaVuSans-5d"/>
     </g>
    </g>
   </g>
   <g id="matplotlib.axis_6">
    <g id="ytick_6">
     <g id="line2d_40">
      <g>
       <use style="stroke:#000000;stroke-width:0.8;" x="88.76" xlink:href="#mb559ac01c6" y="477.396386"/>
      </g>
     </g>
     <g id="text_41">
      <!-- −10 -->
      <g transform="translate(47.9925 483.475136)scale(0.16 -0.16)">
       <use xlink:href="#DejaVuSans-2212"/>
       <use x="83.789062" xlink:href="#DejaVuSans-31"/>
       <use x="147.412109" xlink:href="#DejaVuSans-30"/>
      </g>
     </g>
    </g>
    <g id="ytick_7">
     <g id="line2d_41">
      <g>
       <use style="stroke:#000000;stroke-width:0.8;" x="88.76" xlink:href="#mb559ac01c6" y="413.448597"/>
      </g>
     </g>
     <g id="text_42">
      <!-- 0 -->
      <g transform="translate(71.58 419.527347)scale(0.16 -0.16)">
       <use xlink:href="#DejaVuSans-30"/>
      </g>
     </g>
    </g>
    <g id="text_43">
     <!-- Velocity [m/s] -->
     <g transform="translate(28.6275 518.498032)rotate(-90)scale(0.16 -0.16)">
      <defs>
       <path d="M 1831 0 
L 50 4666 
L 709 4666 
L 2188 738 
L 3669 4666 
L 4325 4666 
L 2547 0 
L 1831 0 
z
" id="DejaVuSans-56" transform="scale(0.015625)"/>
       <path d="M 603 4863 
L 1178 4863 
L 1178 0 
L 603 0 
L 603 4863 
z
" id="DejaVuSans-6c" transform="scale(0.015625)"/>
       <path d="M 3122 3366 
L 3122 2828 
Q 2878 2963 2633 3030 
Q 2388 3097 2138 3097 
Q 1578 3097 1268 2742 
Q 959 2388 959 1747 
Q 959 1106 1268 751 
Q 1578 397 2138 397 
Q 2388 397 2633 464 
Q 2878 531 3122 666 
L 3122 134 
Q 2881 22 2623 -34 
Q 2366 -91 2075 -91 
Q 1284 -91 818 406 
Q 353 903 353 1747 
Q 353 2603 823 3093 
Q 1294 3584 2113 3584 
Q 2378 3584 2631 3529 
Q 2884 3475 3122 3366 
z
" id="DejaVuSans-63" transform="scale(0.015625)"/>
       <path d="M 2059 -325 
Q 1816 -950 1584 -1140 
Q 1353 -1331 966 -1331 
L 506 -1331 
L 506 -850 
L 844 -850 
Q 1081 -850 1212 -737 
Q 1344 -625 1503 -206 
L 1606 56 
L 191 3500 
L 800 3500 
L 1894 763 
L 2988 3500 
L 3597 3500 
L 2059 -325 
z
" id="DejaVuSans-79" transform="scale(0.015625)"/>
       <path d="M 1625 4666 
L 2156 4666 
L 531 -594 
L 0 -594 
L 1625 4666 
z
" id="DejaVuSans-2f" transform="scale(0.015625)"/>
      </defs>
      <use xlink:href="#DejaVuSans-56"/>
      <use x="60.658203" xlink:href="#DejaVuSans-65"/>
      <use x="122.181641" xlink:href="#DejaVuSans-6c"/>
      <use x="149.964844" xlink:href="#DejaVuSans-6f"/>
      <use x="211.146484" xlink:href="#DejaVuSans-63"/>
      <use x="266.126953" xlink:href="#DejaVuSans-69"/>
      <use x="293.910156" xlink:href="#DejaVuSans-74"/>
      <use x="333.119141" xlink:href="#DejaVuSans-79"/>
      <use x="392.298828" xlink:href="#DejaVuSans-20"/>
      <use x="424.085938" xlink:href="#DejaVuSans-5b"/>
      <use x="463.099609" xlink:href="#DejaVuSans-6d"/>
      <use x="560.511719" xlink:href="#DejaVuSans-2f"/>
      <use x="594.203125" xlink:href="#DejaVuSans-73"/>
      <use x="646.302734" xlink:href="#DejaVuSans-5d"/>
     </g>
    </g>
   </g>
   <g id="line2d_42">
    <path clip-path="url(#pdca5f5294f)" d="M 116.667273 513.897548 
L 674.812727 513.897548 
L 674.812727 513.897548 
" style="fill:none;stroke:#1f77b4;stroke-linecap:square;stroke-width:1.5;"/>
   </g>
   <g id="line2d_43">
    <path clip-path="url(#pdca5f5294f)" d="M 116.667273 413.448597 
L 674.812727 413.448597 
L 674.812727 413.448597 
" style="fill:none;stroke:#ff7f0e;stroke-linecap:square;stroke-width:1.5;"/>
   </g>
   <g id="patch_14">
    <path d="M 88.76 518.92 
L 88.76 408.426063 
" style="fill:none;stroke:#000000;stroke-linecap:square;stroke-linejoin:miter;stroke-width:0.8;"/>
   </g>
   <g id="patch_15">
    <path d="M 702.72 518.92 
L 702.72 408.426063 
" style="fill:none;stroke:#000000;stroke-linecap:square;stroke-linejoin:miter;stroke-width:0.8;"/>
   </g>
   <g id="patch_16">
    <path d="M 88.76 518.92 
L 702.72 518.92 
" style="fill:none;stroke:#000000;stroke-linecap:square;stroke-linejoin:miter;stroke-width:0.8;"/>
   </g>
   <g id="patch_17">
    <path d="M 88.76 408.426063 
L 702.72 408.426063 
" style="fill:none;stroke:#000000;stroke-linecap:square;stroke-linejoin:miter;stroke-width:0.8;"/>
   </g>
   <g id="legend_2">
    <g id="patch_18">
     <path d="M 596.59 469.086063 
L 691.52 469.086063 
Q 694.72 469.086063 694.72 465.886063 
L 694.72 419.626063 
Q 694.72 416.426063 691.52 416.426063 
L 596.59 416.426063 
Q 593.39 416.426063 593.39 419.626063 
L 593.39 465.886063 
Q 593.39 469.086063 596.59 469.086063 
z
" style="fill:#ffffff;opacity:0.8;stroke:#cccccc;stroke-linejoin:miter;"/>
    </g>
    <g id="line2d_44">
     <path d="M 599.79 429.383563 
L 631.79 429.383563 
" style="fill:none;stroke:#1f77b4;stroke-linecap:square;stroke-width:1.5;"/>
    </g>
    <g id="line2d_45"/>
    <g id="text_44">
     <!-- vel_E -->
     <g transform="translate(644.59 434.983563)scale(0.16 -0.16)">
      <defs>
       <path d="M 191 3500 
L 800 3500 
L 1894 563 
L 2988 3500 
L 3597 3500 
L 2284 0 
L 1503 0 
L 191 3500 
z
" id="DejaVuSans-76" transform="scale(0.015625)"/>
      </defs>
      <use xlink:href="#DejaVuSans-76"/>
      <use x="59.179688" xlink:href="#DejaVuSans-65"/>
      <use x="120.703125" xlink:href="#DejaVuSans-6c"/>
      <use x="148.486328" xlink:href="#DejaVuSans-5f"/>
      <use x="198.486328" xlink:href="#DejaVuSans-45"/>
     </g>
    </g>
    <g id="line2d_46">
     <path d="M 599.79 453.313563 
L 631.79 453.313563 
" style="fill:none;stroke:#ff7f0e;stroke-linecap:square;stroke-width:1.5;"/>
    </g>
    <g id="line2d_47"/>
    <g id="text_45">
     <!-- vel_N -->
     <g transform="translate(644.59 458.913563)scale(0.16 -0.16)">
      <use xlink:href="#DejaVuSans-76"/>
      <use x="59.179688" xlink:href="#DejaVuSans-65"/>
      <use x="120.703125" xlink:href="#DejaVuSans-6c"/>
      <use x="148.486328" xlink:href="#DejaVuSans-5f"/>
      <use x="198.486328" xlink:href="#DejaVuSans-4e"/>
     </g>
    </g>
   </g>
  </g>
  <g id="text_46">
   <!-- Deviation from true trajectory (PVA) -->
   <g transform="translate(216.10625 23.6775)scale(0.16 -0.16)">
    <defs>
     <path d="M 1259 4147 
L 1259 519 
L 2022 519 
Q 2988 519 3436 956 
Q 3884 1394 3884 2338 
Q 3884 3275 3436 3711 
Q 2988 4147 2022 4147 
L 1259 4147 
z
M 628 4666 
L 1925 4666 
Q 3281 4666 3915 4102 
Q 4550 3538 4550 2338 
Q 4550 1131 3912 565 
Q 3275 0 1925 0 
L 628 0 
L 628 4666 
z
" id="DejaVuSans-44" transform="scale(0.015625)"/>
     <path d="M 2375 4863 
L 2375 4384 
L 1825 4384 
Q 1516 4384 1395 4259 
Q 1275 4134 1275 3809 
L 1275 3500 
L 2222 3500 
L 2222 3053 
L 1275 3053 
L 1275 0 
L 697 0 
L 697 3053 
L 147 3053 
L 147 3500 
L 697 3500 
L 697 3744 
Q 697 4328 969 4595 
Q 1241 4863 1831 4863 
L 2375 4863 
z
" id="DejaVuSans-66" transform="scale(0.015625)"/>
     <path d="M 603 3500 
L 1178 3500 
L 1178 -63 
Q 1178 -731 923 -1031 
Q 669 -1331 103 -1331 
L -116 -1331 
L -116 -844 
L 38 -844 
Q 366 -844 484 -692 
Q 603 -541 603 -63 
L 603 3500 
z
M 603 4863 
L 1178 4863 
L 1178 4134 
L 603 4134 
L 603 4863 
z
" id="DejaVuSans-6a" transform="scale(0.015625)"/>
     <path d="M 1984 4856 
Q 1566 4138 1362 3434 
Q 1159 2731 1159 2009 
Q 1159 1288 1364 580 
Q 1569 -128 1984 -844 
L 1484 -844 
Q 1016 -109 783 600 
Q 550 1309 550 2009 
Q 550 2706 781 3412 
Q 1013 4119 1484 4856 
L 1984 4856 
z
" id="DejaVuSans-28" transform="scale(0.015625)"/>
     <path d="M 513 4856 
L 1013 4856 
Q 1481 4119 1714 3412 
Q 1947 2706 1947 2009 
Q 1947 1309 1714 600 
Q 1481 -109 1013 -844 
L 513 -844 
Q 928 -128 1133 580 
Q 1338 1288 1338 2009 
Q 1338 2731 1133 3434 
Q 928 4138 513 4856 
z
" id="DejaVuSans-29" transform="scale(0.015625)"/>
    </defs>
    <use xlink:href="#DejaVuSans-44"/>
    <use x="77.001953" xlink:href="#DejaVuSans-65"/>
    <use x="138.525391" xlink:href="#DejaVuSans-76"/>
    <use x="197.705078" xlink:href="#DejaVuSans-69"/>
    <use x="225.488281" xlink:href="#DejaVuSans-61"/>
    <use x="286.767578" xlink:href="#DejaVuSans-74"/>
    <use x="325.976562" xlink:href="#DejaVuSans-69"/>
    <use x="353.759766" xlink:href="#DejaVuSans-6f"/>
    <use x="414.941406" xlink:href="#DejaVuSans-6e"/>
    <use x="478.320312" xlink:href="#DejaVuSans-20"/>
    <use x="510.107422" xlink:href="#DejaVuSans-66"/>
    <use x="545.3125" xlink:href="#DejaVuSans-72"/>
    <use x="584.175781" xlink:href="#DejaVuSans-6f"/>
    <use x="645.357422" xlink:href="#DejaVuSans-6d"/>
    <use x="742.769531" xlink:href="#DejaVuSans-20"/>
    <use x="774.556641" xlink:href="#DejaVuSans-74"/>
    <use x="813.765625" xlink:href="#DejaVuSans-72"/>
    <use x="854.878906" xlink:href="#DejaVuSans-75"/>
    <use x="918.257812" xlink:href="#DejaVuSans-65"/>
    <use x="979.78125" xlink:href="#DejaVuSans-20"/>
    <use x="1011.568359" xlink:href="#DejaVuSans-74"/>
    <use x="1050.777344" xlink:href="#DejaVuSans-72"/>
    <use x="1091.890625" xlink:href="#DejaVuSans-61"/>
    <use x="1153.169922" xlink:href="#DejaVuSans-6a"/>
    <use x="1180.953125" xlink:href="#DejaVuSans-65"/>
    <use x="1242.476562" xlink:href="#DejaVuSans-63"/>
    <use x="1297.457031" xlink:href="#DejaVuSans-74"/>
    <use x="1336.666016" xlink:href="#DejaVuSans-6f"/>
    <use x="1397.847656" xlink:href="#DejaVuSans-72"/>
    <use x="1438.960938" xlink:href="#DejaVuSans-79"/>
    <use x="1498.140625" xlink:href="#DejaVuSans-20"/>
    <use x="1529.927734" xlink:href="#DejaVuSans-28"/>
    <use x="1568.941406" xlink:href="#DejaVuSans-50"/>
    <use x="1629.244141" xlink:href="#DejaVuSans-56"/>
    <use x="1691.277344" xlink:href="#DejaVuSans-41"/>
    <use x="1759.685547" xlink:href="#DejaVuSans-29"/>
   </g>
  </g>
 </g>
 <defs>
  <clipPath id="pbb1931f031">
   <rect height="110.493937" width="613.96" x="88.76" y="63.48"/>
  </clipPath>
  <clipPath id="p3485660f66">
   <rect height="110.493937" width="613.96" x="88.76" y="235.953032"/>
  </clipPath>
  <clipPath id="pdca5f5294f">
   <rect height="110.493937" width="613.96" x="88.76" y="408.426063"/>
  </clipPath>
 </defs>
</svg>
