<?xml version="1.0" encoding="utf-8" standalone="no"?>
<!DOCTYPE svg PUBLIC "-//W3C//DTD SVG 1.1//EN"
  "http://www.w3.org/Graphics/SVG/1.1/DTD/svg11.dtd">
<svg xmlns:xlink="http://www.w3.org/1999/xlink" width="720pt" height="576pt" viewBox="0 0 720 576" xmlns="http://www.w3.org/2000/svg" version="1.1">
 <metadata>
  <rdf:RDF xmlns:dc="http://purl.org/dc/elements/1.1/" xmlns:cc="http://creativecommons.org/ns#" xmlns:rdf="http://www.w3.org/1999/02/22-rdf-syntax-ns#">
   <cc:Work>
    <dc:type rdf:resource="http://purl.org/dc/dcmitype/StillImage"/>
    <dc:date>2024-04-14T01:38:31.175855</dc:date>
    <dc:format>image/svg+xml</dc:format>
    <dc:creator>
     <cc:Agent>
      <dc:title>Matplotlib v3.7.1, https://matplotlib.org/</dc:title>
     </cc:Agent>
    </dc:creator>
   </cc:Work>
  </rdf:RDF>
 </metadata>
 <defs>
  <style type="text/css">*{stroke-linejoin: round; stroke-linecap: butt}</style>
 </defs>
 <g id="figure_1">
  <g id="patch_1">
   <path d="M 0 576 
L 720 576 
L 720 0 
L 0 0 
z
" style="fill: #ffffff"/>
  </g>
  <g id="axes_1">
   <g id="patch_2">
    <path d="M 88.67 184.68 
L 709.2 184.68 
L 709.2 46.92 
L 88.67 46.92 
z
" style="fill: #ffffff"/>
   </g>
   <g id="matplotlib.axis_1">
    <g id="xtick_1">
     <g id="line2d_1">
      <defs>
       <path id="m99cca6557d" d="M 0 0 
L 0 3.5 
" style="stroke: #000000; stroke-width: 0.8"/>
      </defs>
      <g>
       <use xlink:href="#m99cca6557d" x="116.875909" y="184.68" style="stroke: #000000; stroke-width: 0.8"/>
      </g>
     </g>
     <g id="text_1">
      <!-- 0 -->
      <g transform="translate(113.694659 199.278437) scale(0.1 -0.1)">
       <defs>
        <path id="DejaVuSans-30" d="M 2034 4250 
Q 1547 4250 1301 3770 
Q 1056 3291 1056 2328 
Q 1056 1369 1301 889 
Q 1547 409 2034 409 
Q 2525 409 2770 889 
Q 3016 1369 3016 2328 
Q 3016 3291 2770 3770 
Q 2525 4250 2034 4250 
z
M 2034 4750 
Q 2819 4750 3233 4129 
Q 3647 3509 3647 2328 
Q 3647 1150 3233 529 
Q 2819 -91 2034 -91 
Q 1250 -91 836 529 
Q 422 1150 422 2328 
Q 422 3509 836 4129 
Q 1250 4750 2034 4750 
z
" transform="scale(0.015625)"/>
       </defs>
       <use xlink:href="#DejaVuSans-30"/>
      </g>
     </g>
    </g>
    <g id="xtick_2">
     <g id="line2d_2">
      <g>
       <use xlink:href="#m99cca6557d" x="187.390682" y="184.68" style="stroke: #000000; stroke-width: 0.8"/>
      </g>
     </g>
     <g id="text_2">
      <!-- 25 -->
      <g transform="translate(181.028182 199.278437) scale(0.1 -0.1)">
       <defs>
        <path id="DejaVuSans-32" d="M 1228 531 
L 3431 531 
L 3431 0 
L 469 0 
L 469 531 
Q 828 903 1448 1529 
Q 2069 2156 2228 2338 
Q 2531 2678 2651 2914 
Q 2772 3150 2772 3378 
Q 2772 3750 2511 3984 
Q 2250 4219 1831 4219 
Q 1534 4219 1204 4116 
Q 875 4013 500 3803 
L 500 4441 
Q 881 4594 1212 4672 
Q 1544 4750 1819 4750 
Q 2544 4750 2975 4387 
Q 3406 4025 3406 3419 
Q 3406 3131 3298 2873 
Q 3191 2616 2906 2266 
Q 2828 2175 2409 1742 
Q 1991 1309 1228 531 
z
" transform="scale(0.015625)"/>
        <path id="DejaVuSans-35" d="M 691 4666 
L 3169 4666 
L 3169 4134 
L 1269 4134 
L 1269 2991 
Q 1406 3038 1543 3061 
Q 1681 3084 1819 3084 
Q 2600 3084 3056 2656 
Q 3513 2228 3513 1497 
Q 3513 744 3044 326 
Q 2575 -91 1722 -91 
Q 1428 -91 1123 -41 
Q 819 9 494 109 
L 494 744 
Q 775 591 1075 516 
Q 1375 441 1709 441 
Q 2250 441 2565 725 
Q 2881 1009 2881 1497 
Q 2881 1984 2565 2268 
Q 2250 2553 1709 2553 
Q 1456 2553 1204 2497 
Q 953 2441 691 2322 
L 691 4666 
z
" transform="scale(0.015625)"/>
       </defs>
       <use xlink:href="#DejaVuSans-32"/>
       <use xlink:href="#DejaVuSans-35" x="63.623047"/>
      </g>
     </g>
    </g>
    <g id="xtick_3">
     <g id="line2d_3">
      <g>
       <use xlink:href="#m99cca6557d" x="257.905455" y="184.68" style="stroke: #000000; stroke-width: 0.8"/>
      </g>
     </g>
     <g id="text_3">
      <!-- 50 -->
      <g transform="translate(251.542955 199.278437) scale(0.1 -0.1)">
       <use xlink:href="#DejaVuSans-35"/>
       <use xlink:href="#DejaVuSans-30" x="63.623047"/>
      </g>
     </g>
    </g>
    <g id="xtick_4">
     <g id="line2d_4">
      <g>
       <use xlink:href="#m99cca6557d" x="328.420227" y="184.68" style="stroke: #000000; stroke-width: 0.8"/>
      </g>
     </g>
     <g id="text_4">
      <!-- 75 -->
      <g transform="translate(322.057727 199.278437) scale(0.1 -0.1)">
       <defs>
        <path id="DejaVuSans-37" d="M 525 4666 
L 3525 4666 
L 3525 4397 
L 1831 0 
L 1172 0 
L 2766 4134 
L 525 4134 
L 525 4666 
z
" transform="scale(0.015625)"/>
       </defs>
       <use xlink:href="#DejaVuSans-37"/>
       <use xlink:href="#DejaVuSans-35" x="63.623047"/>
      </g>
     </g>
    </g>
    <g id="xtick_5">
     <g id="line2d_5">
      <g>
       <use xlink:href="#m99cca6557d" x="398.935" y="184.68" style="stroke: #000000; stroke-width: 0.8"/>
      </g>
     </g>
     <g id="text_5">
      <!-- 100 -->
      <g transform="translate(389.39125 199.278437) scale(0.1 -0.1)">
       <defs>
        <path id="DejaVuSans-31" d="M 794 531 
L 1825 531 
L 1825 4091 
L 703 3866 
L 703 4441 
L 1819 4666 
L 2450 4666 
L 2450 531 
L 3481 531 
L 3481 0 
L 794 0 
L 794 531 
z
" transform="scale(0.015625)"/>
       </defs>
       <use xlink:href="#DejaVuSans-31"/>
       <use xlink:href="#DejaVuSans-30" x="63.623047"/>
       <use xlink:href="#DejaVuSans-30" x="127.246094"/>
      </g>
     </g>
    </g>
    <g id="xtick_6">
     <g id="line2d_6">
      <g>
       <use xlink:href="#m99cca6557d" x="469.449773" y="184.68" style="stroke: #000000; stroke-width: 0.8"/>
      </g>
     </g>
     <g id="text_6">
      <!-- 125 -->
      <g transform="translate(459.906023 199.278437) scale(0.1 -0.1)">
       <use xlink:href="#DejaVuSans-31"/>
       <use xlink:href="#DejaVuSans-32" x="63.623047"/>
       <use xlink:href="#DejaVuSans-35" x="127.246094"/>
      </g>
     </g>
    </g>
    <g id="xtick_7">
     <g id="line2d_7">
      <g>
       <use xlink:href="#m99cca6557d" x="539.964545" y="184.68" style="stroke: #000000; stroke-width: 0.8"/>
      </g>
     </g>
     <g id="text_7">
      <!-- 150 -->
      <g transform="translate(530.420795 199.278437) scale(0.1 -0.1)">
       <use xlink:href="#DejaVuSans-31"/>
       <use xlink:href="#DejaVuSans-35" x="63.623047"/>
       <use xlink:href="#DejaVuSans-30" x="127.246094"/>
      </g>
     </g>
    </g>
    <g id="xtick_8">
     <g id="line2d_8">
      <g>
       <use xlink:href="#m99cca6557d" x="610.479318" y="184.68" style="stroke: #000000; stroke-width: 0.8"/>
      </g>
     </g>
     <g id="text_8">
      <!-- 175 -->
      <g transform="translate(600.935568 199.278437) scale(0.1 -0.1)">
       <use xlink:href="#DejaVuSans-31"/>
       <use xlink:href="#DejaVuSans-37" x="63.623047"/>
       <use xlink:href="#DejaVuSans-35" x="127.246094"/>
      </g>
     </g>
    </g>
    <g id="xtick_9">
     <g id="line2d_9">
      <g>
       <use xlink:href="#m99cca6557d" x="680.994091" y="184.68" style="stroke: #000000; stroke-width: 0.8"/>
      </g>
     </g>
     <g id="text_9">
      <!-- 200 -->
      <g transform="translate(671.450341 199.278437) scale(0.1 -0.1)">
       <use xlink:href="#DejaVuSans-32"/>
       <use xlink:href="#DejaVuSans-30" x="63.623047"/>
       <use xlink:href="#DejaVuSans-30" x="127.246094"/>
      </g>
     </g>
    </g>
   </g>
   <g id="matplotlib.axis_2">
    <g id="ytick_1">
     <g id="line2d_10">
      <defs>
       <path id="mdeb4e280c6" d="M 0 0 
L -3.5 0 
" style="stroke: #000000; stroke-width: 0.8"/>
      </defs>
      <g>
       <use xlink:href="#mdeb4e280c6" x="88.67" y="177.365853" style="stroke: #000000; stroke-width: 0.8"/>
      </g>
     </g>
     <g id="text_10">
      <!-- −2.5 -->
      <g transform="translate(57.387188 181.165072) scale(0.1 -0.1)">
       <defs>
        <path id="DejaVuSans-2212" d="M 678 2272 
L 4684 2272 
L 4684 1741 
L 678 1741 
L 678 2272 
z
" transform="scale(0.015625)"/>
        <path id="DejaVuSans-2e" d="M 684 794 
L 1344 794 
L 1344 0 
L 684 0 
L 684 794 
z
" transform="scale(0.015625)"/>
       </defs>
       <use xlink:href="#DejaVuSans-2212"/>
       <use xlink:href="#DejaVuSans-32" x="83.789062"/>
       <use xlink:href="#DejaVuSans-2e" x="147.412109"/>
       <use xlink:href="#DejaVuSans-35" x="179.199219"/>
      </g>
     </g>
    </g>
    <g id="ytick_2">
     <g id="line2d_11">
      <g>
       <use xlink:href="#mdeb4e280c6" x="88.67" y="153.904354" style="stroke: #000000; stroke-width: 0.8"/>
      </g>
     </g>
     <g id="text_11">
      <!-- −2.0 -->
      <g transform="translate(57.387188 157.703573) scale(0.1 -0.1)">
       <use xlink:href="#DejaVuSans-2212"/>
       <use xlink:href="#DejaVuSans-32" x="83.789062"/>
       <use xlink:href="#DejaVuSans-2e" x="147.412109"/>
       <use xlink:href="#DejaVuSans-30" x="179.199219"/>
      </g>
     </g>
    </g>
    <g id="ytick_3">
     <g id="line2d_12">
      <g>
       <use xlink:href="#mdeb4e280c6" x="88.67" y="130.442855" style="stroke: #000000; stroke-width: 0.8"/>
      </g>
     </g>
     <g id="text_12">
      <!-- −1.5 -->
      <g transform="translate(57.387188 134.242074) scale(0.1 -0.1)">
       <use xlink:href="#DejaVuSans-2212"/>
       <use xlink:href="#DejaVuSans-31" x="83.789062"/>
       <use xlink:href="#DejaVuSans-2e" x="147.412109"/>
       <use xlink:href="#DejaVuSans-35" x="179.199219"/>
      </g>
     </g>
    </g>
    <g id="ytick_4">
     <g id="line2d_13">
      <g>
       <use xlink:href="#mdeb4e280c6" x="88.67" y="106.981356" style="stroke: #000000; stroke-width: 0.8"/>
      </g>
     </g>
     <g id="text_13">
      <!-- −1.0 -->
      <g transform="translate(57.387188 110.780574) scale(0.1 -0.1)">
       <use xlink:href="#DejaVuSans-2212"/>
       <use xlink:href="#DejaVuSans-31" x="83.789062"/>
       <use xlink:href="#DejaVuSans-2e" x="147.412109"/>
       <use xlink:href="#DejaVuSans-30" x="179.199219"/>
      </g>
     </g>
    </g>
    <g id="ytick_5">
     <g id="line2d_14">
      <g>
       <use xlink:href="#mdeb4e280c6" x="88.67" y="83.519856" style="stroke: #000000; stroke-width: 0.8"/>
      </g>
     </g>
     <g id="text_14">
      <!-- −0.5 -->
      <g transform="translate(57.387188 87.319075) scale(0.1 -0.1)">
       <use xlink:href="#DejaVuSans-2212"/>
       <use xlink:href="#DejaVuSans-30" x="83.789062"/>
       <use xlink:href="#DejaVuSans-2e" x="147.412109"/>
       <use xlink:href="#DejaVuSans-35" x="179.199219"/>
      </g>
     </g>
    </g>
    <g id="ytick_6">
     <g id="line2d_15">
      <g>
       <use xlink:href="#mdeb4e280c6" x="88.67" y="60.058357" style="stroke: #000000; stroke-width: 0.8"/>
      </g>
     </g>
     <g id="text_15">
      <!-- 0.0 -->
      <g transform="translate(65.766875 63.857576) scale(0.1 -0.1)">
       <use xlink:href="#DejaVuSans-30"/>
       <use xlink:href="#DejaVuSans-2e" x="63.623047"/>
       <use xlink:href="#DejaVuSans-30" x="95.410156"/>
      </g>
     </g>
    </g>
    <g id="text_16">
     <!-- Azimuth rad -->
     <g transform="translate(10.443438 113.304375) scale(0.12 -0.12)">
      <defs>
       <path id="DejaVuSans-41" d="M 2188 4044 
L 1331 1722 
L 3047 1722 
L 2188 4044 
z
M 1831 4666 
L 2547 4666 
L 4325 0 
L 3669 0 
L 3244 1197 
L 1141 1197 
L 716 0 
L 50 0 
L 1831 4666 
z
" transform="scale(0.015625)"/>
       <path id="DejaVuSans-7a" d="M 353 3500 
L 3084 3500 
L 3084 2975 
L 922 459 
L 3084 459 
L 3084 0 
L 275 0 
L 275 525 
L 2438 3041 
L 353 3041 
L 353 3500 
z
" transform="scale(0.015625)"/>
       <path id="DejaVuSans-69" d="M 603 3500 
L 1178 3500 
L 1178 0 
L 603 0 
L 603 3500 
z
M 603 4863 
L 1178 4863 
L 1178 4134 
L 603 4134 
L 603 4863 
z
" transform="scale(0.015625)"/>
       <path id="DejaVuSans-6d" d="M 3328 2828 
Q 3544 3216 3844 3400 
Q 4144 3584 4550 3584 
Q 5097 3584 5394 3201 
Q 5691 2819 5691 2113 
L 5691 0 
L 5113 0 
L 5113 2094 
Q 5113 2597 4934 2840 
Q 4756 3084 4391 3084 
Q 3944 3084 3684 2787 
Q 3425 2491 3425 1978 
L 3425 0 
L 2847 0 
L 2847 2094 
Q 2847 2600 2669 2842 
Q 2491 3084 2119 3084 
Q 1678 3084 1418 2786 
Q 1159 2488 1159 1978 
L 1159 0 
L 581 0 
L 581 3500 
L 1159 3500 
L 1159 2956 
Q 1356 3278 1631 3431 
Q 1906 3584 2284 3584 
Q 2666 3584 2933 3390 
Q 3200 3197 3328 2828 
z
" transform="scale(0.015625)"/>
       <path id="DejaVuSans-75" d="M 544 1381 
L 544 3500 
L 1119 3500 
L 1119 1403 
Q 1119 906 1312 657 
Q 1506 409 1894 409 
Q 2359 409 2629 706 
Q 2900 1003 2900 1516 
L 2900 3500 
L 3475 3500 
L 3475 0 
L 2900 0 
L 2900 538 
Q 2691 219 2414 64 
Q 2138 -91 1772 -91 
Q 1169 -91 856 284 
Q 544 659 544 1381 
z
M 1991 3584 
L 1991 3584 
z
" transform="scale(0.015625)"/>
       <path id="DejaVuSans-74" d="M 1172 4494 
L 1172 3500 
L 2356 3500 
L 2356 3053 
L 1172 3053 
L 1172 1153 
Q 1172 725 1289 603 
Q 1406 481 1766 481 
L 2356 481 
L 2356 0 
L 1766 0 
Q 1100 0 847 248 
Q 594 497 594 1153 
L 594 3053 
L 172 3053 
L 172 3500 
L 594 3500 
L 594 4494 
L 1172 4494 
z
" transform="scale(0.015625)"/>
       <path id="DejaVuSans-68" d="M 3513 2113 
L 3513 0 
L 2938 0 
L 2938 2094 
Q 2938 2591 2744 2837 
Q 2550 3084 2163 3084 
Q 1697 3084 1428 2787 
Q 1159 2491 1159 1978 
L 1159 0 
L 581 0 
L 581 4863 
L 1159 4863 
L 1159 2956 
Q 1366 3272 1645 3428 
Q 1925 3584 2291 3584 
Q 2894 3584 3203 3211 
Q 3513 2838 3513 2113 
z
" transform="scale(0.015625)"/>
       <path id="DejaVuSans-20" transform="scale(0.015625)"/>
       <path id="DejaVuSans-72" d="M 2631 2963 
Q 2534 3019 2420 3045 
Q 2306 3072 2169 3072 
Q 1681 3072 1420 2755 
Q 1159 2438 1159 1844 
L 1159 0 
L 581 0 
L 581 3500 
L 1159 3500 
L 1159 2956 
Q 1341 3275 1631 3429 
Q 1922 3584 2338 3584 
Q 2397 3584 2469 3576 
Q 2541 3569 2628 3553 
L 2631 2963 
z
" transform="scale(0.015625)"/>
       <path id="DejaVuSans-61" d="M 2194 1759 
Q 1497 1759 1228 1600 
Q 959 1441 959 1056 
Q 959 750 1161 570 
Q 1363 391 1709 391 
Q 2188 391 2477 730 
Q 2766 1069 2766 1631 
L 2766 1759 
L 2194 1759 
z
M 3341 1997 
L 3341 0 
L 2766 0 
L 2766 531 
Q 2569 213 2275 61 
Q 1981 -91 1556 -91 
Q 1019 -91 701 211 
Q 384 513 384 1019 
Q 384 1609 779 1909 
Q 1175 2209 1959 2209 
L 2766 2209 
L 2766 2266 
Q 2766 2663 2505 2880 
Q 2244 3097 1772 3097 
Q 1472 3097 1187 3025 
Q 903 2953 641 2809 
L 641 3341 
Q 956 3463 1253 3523 
Q 1550 3584 1831 3584 
Q 2591 3584 2966 3190 
Q 3341 2797 3341 1997 
z
" transform="scale(0.015625)"/>
       <path id="DejaVuSans-64" d="M 2906 2969 
L 2906 4863 
L 3481 4863 
L 3481 0 
L 2906 0 
L 2906 525 
Q 2725 213 2448 61 
Q 2172 -91 1784 -91 
Q 1150 -91 751 415 
Q 353 922 353 1747 
Q 353 2572 751 3078 
Q 1150 3584 1784 3584 
Q 2172 3584 2448 3432 
Q 2725 3281 2906 2969 
z
M 947 1747 
Q 947 1113 1208 752 
Q 1469 391 1925 391 
Q 2381 391 2643 752 
Q 2906 1113 2906 1747 
Q 2906 2381 2643 2742 
Q 2381 3103 1925 3103 
Q 1469 3103 1208 2742 
Q 947 2381 947 1747 
z
" transform="scale(0.015625)"/>
      </defs>
      <use xlink:href="#DejaVuSans-41"/>
      <use xlink:href="#DejaVuSans-7a" x="68.408203"/>
      <use xlink:href="#DejaVuSans-69" x="120.898438"/>
      <use xlink:href="#DejaVuSans-6d" x="148.681641"/>
      <use xlink:href="#DejaVuSans-75" x="246.09375"/>
      <use xlink:href="#DejaVuSans-74" x="309.472656"/>
      <use xlink:href="#DejaVuSans-68" x="348.681641"/>
      <use xlink:href="#DejaVuSans-20" x="412.060547"/>
      <use xlink:href="#DejaVuSans-72" x="443.847656"/>
      <use xlink:href="#DejaVuSans-61" x="484.960938"/>
      <use xlink:href="#DejaVuSans-64" x="546.240234"/>
     </g>
    </g>
    <g id="text_17">
     <!-- 1e−13 -->
     <g transform="translate(88.67 43.92) scale(0.1 -0.1)">
      <defs>
       <path id="DejaVuSans-65" d="M 3597 1894 
L 3597 1613 
L 953 1613 
Q 991 1019 1311 708 
Q 1631 397 2203 397 
Q 2534 397 2845 478 
Q 3156 559 3463 722 
L 3463 178 
Q 3153 47 2828 -22 
Q 2503 -91 2169 -91 
Q 1331 -91 842 396 
Q 353 884 353 1716 
Q 353 2575 817 3079 
Q 1281 3584 2069 3584 
Q 2775 3584 3186 3129 
Q 3597 2675 3597 1894 
z
M 3022 2063 
Q 3016 2534 2758 2815 
Q 2500 3097 2075 3097 
Q 1594 3097 1305 2825 
Q 1016 2553 972 2059 
L 3022 2063 
z
" transform="scale(0.015625)"/>
       <path id="DejaVuSans-33" d="M 2597 2516 
Q 3050 2419 3304 2112 
Q 3559 1806 3559 1356 
Q 3559 666 3084 287 
Q 2609 -91 1734 -91 
Q 1441 -91 1130 -33 
Q 819 25 488 141 
L 488 750 
Q 750 597 1062 519 
Q 1375 441 1716 441 
Q 2309 441 2620 675 
Q 2931 909 2931 1356 
Q 2931 1769 2642 2001 
Q 2353 2234 1838 2234 
L 1294 2234 
L 1294 2753 
L 1863 2753 
Q 2328 2753 2575 2939 
Q 2822 3125 2822 3475 
Q 2822 3834 2567 4026 
Q 2313 4219 1838 4219 
Q 1578 4219 1281 4162 
Q 984 4106 628 3988 
L 628 4550 
Q 988 4650 1302 4700 
Q 1616 4750 1894 4750 
Q 2613 4750 3031 4423 
Q 3450 4097 3450 3541 
Q 3450 3153 3228 2886 
Q 3006 2619 2597 2516 
z
" transform="scale(0.015625)"/>
      </defs>
      <use xlink:href="#DejaVuSans-31"/>
      <use xlink:href="#DejaVuSans-65" x="63.623047"/>
      <use xlink:href="#DejaVuSans-2212" x="125.146484"/>
      <use xlink:href="#DejaVuSans-31" x="208.935547"/>
      <use xlink:href="#DejaVuSans-33" x="272.558594"/>
     </g>
    </g>
   </g>
   <g id="line2d_16">
    <path d="M 116.875909 60.058357 
L 144.235641 59.954167 
L 144.799759 59.849977 
L 148.748586 59.745787 
L 149.312705 59.641597 
L 153.261532 59.537407 
L 153.543591 59.433217 
L 153.82565 59.537407 
L 154.389768 59.433217 
L 155.235945 59.433217 
L 155.518005 59.224837 
L 155.800064 59.433217 
L 156.082123 59.224837 
L 156.364182 59.433217 
L 156.646241 59.224837 
L 156.9283 59.433217 
L 157.210359 59.224837 
L 157.492418 59.433217 
L 157.774477 59.224837 
L 160.313009 59.224837 
L 160.595068 59.016457 
L 160.877127 59.224837 
L 161.159186 59.016457 
L 161.441245 59.224837 
L 161.723305 59.016457 
L 162.569482 59.016457 
L 162.851541 59.224837 
L 163.1336 59.016457 
L 163.697718 59.016457 
L 163.979777 59.224837 
L 164.543895 58.808077 
L 165.108014 59.224837 
L 165.672132 58.808077 
L 165.954191 59.016457 
L 166.518309 59.016457 
L 166.800368 58.808077 
L 167.082427 58.808077 
L 167.364486 59.016457 
L 167.646545 58.808077 
L 168.210664 58.808077 
L 168.492723 59.016457 
L 168.774782 58.808077 
L 171.031255 58.808077 
L 171.313314 58.599697 
L 171.595373 58.808077 
L 171.877432 58.808077 
L 172.159491 58.599697 
L 172.723609 58.599697 
L 173.005668 58.808077 
L 173.287727 58.599697 
L 173.851845 58.599697 
L 174.133905 58.808077 
L 174.698023 58.391318 
L 175.262141 58.808077 
L 175.826259 58.391318 
L 176.108318 58.391318 
L 176.390377 58.599697 
L 176.672436 58.599697 
L 176.954495 58.391318 
L 177.236555 58.391318 
L 177.518614 58.599697 
L 177.800673 58.391318 
L 178.364791 58.391318 
L 178.64685 58.599697 
L 178.928909 58.391318 
L 180.057145 58.391318 
L 180.339205 58.182938 
L 180.621264 58.391318 
L 180.903323 58.391318 
L 181.185382 58.182938 
L 181.7495 58.182938 
L 182.031559 58.391318 
L 182.313618 58.182938 
L 182.877736 58.182938 
L 183.159795 58.391318 
L 183.441855 58.182938 
L 184.005973 58.182938 
L 184.288032 58.391318 
L 184.85215 57.974558 
L 185.134209 58.182938 
L 185.698327 58.182938 
L 185.980386 57.974558 
L 186.262445 57.974558 
L 186.544505 58.182938 
L 186.826564 57.974558 
L 187.390682 57.974558 
L 187.672741 58.182938 
L 187.9548 57.974558 
L 189.929214 57.974558 
L 190.211273 57.766178 
L 190.493332 57.766178 
L 190.775391 57.974558 
L 191.05745 57.974558 
L 191.339509 57.766178 
L 191.903627 57.766178 
L 192.185686 57.974558 
L 192.467745 57.766178 
L 193.031864 57.766178 
L 193.313923 57.974558 
L 193.878041 57.557798 
L 194.1601 57.766178 
L 194.724218 57.766178 
L 195.006277 57.557798 
L 195.288336 57.557798 
L 195.570395 57.766178 
L 195.852455 57.766178 
L 196.134514 57.557798 
L 196.416573 57.557798 
L 196.698632 57.766178 
L 196.980691 57.557798 
L 197.544809 57.557798 
L 197.826868 57.766178 
L 198.108927 57.557798 
L 199.237164 57.557798 
L 199.519223 57.349418 
L 199.801282 57.557798 
L 200.083341 57.557798 
L 200.3654 57.349418 
L 200.929518 57.349418 
L 201.211577 57.557798 
L 201.493636 57.349418 
L 202.057755 57.349418 
L 202.339814 57.557798 
L 202.903932 57.141038 
L 203.46805 57.557798 
L 204.032168 57.141038 
L 204.314227 57.141038 
L 204.596286 57.349418 
L 204.878345 57.349418 
L 205.160405 57.141038 
L 205.442464 57.141038 
L 205.724523 57.349418 
L 206.006582 57.141038 
L 207.980995 57.141038 
L 208.263055 56.932658 
L 208.545114 56.932658 
L 208.827173 57.141038 
L 209.391291 57.141038 
L 209.67335 56.932658 
L 209.955409 57.141038 
L 210.237468 57.141038 
L 210.519527 56.932658 
L 211.083645 56.932658 
L 211.365705 57.141038 
L 211.929823 56.724278 
L 212.493941 57.141038 
L 213.058059 56.724278 
L 213.622177 57.141038 
L 214.186295 56.724278 
L 214.468355 56.724278 
L 214.750414 56.932658 
L 215.032473 56.932658 
L 215.314532 56.724278 
L 215.596591 56.724278 
L 215.87865 56.932658 
L 216.160709 56.932658 
L 216.442768 56.724278 
L 218.135123 56.724278 
L 218.417182 56.515898 
L 218.699241 56.515898 
L 218.9813 56.724278 
L 219.263359 56.724278 
L 219.545418 56.515898 
L 219.827477 56.515898 
L 220.109536 56.724278 
L 220.391595 56.724278 
L 220.955714 56.307518 
L 221.519832 56.724278 
L 222.08395 56.307518 
L 222.366009 56.307518 
L 222.648068 56.515898 
L 222.930127 56.515898 
L 223.212186 56.307518 
L 223.494245 56.515898 
L 224.058364 56.515898 
L 224.340423 56.307518 
L 224.622482 56.307518 
L 224.904541 56.515898 
L 225.1866 56.515898 
L 225.468659 56.307518 
L 226.032777 56.307518 
L 226.314836 56.515898 
L 226.596895 56.307518 
L 228.28925 56.307518 
L 228.571309 56.099138 
L 228.853368 56.099138 
L 229.135427 56.307518 
L 229.417486 56.307518 
L 229.699545 56.099138 
L 229.981605 56.099138 
L 230.263664 56.307518 
L 230.545723 56.307518 
L 231.109841 55.890758 
L 231.673959 56.307518 
L 232.238077 55.890758 
L 232.520136 55.890758 
L 232.802195 56.099138 
L 233.084255 56.099138 
L 233.366314 55.890758 
L 233.648373 56.099138 
L 234.212491 56.099138 
L 234.49455 55.890758 
L 234.776609 55.890758 
L 235.058668 56.099138 
L 235.340727 55.890758 
L 238.443377 55.890758 
L 238.725436 55.682378 
L 239.007495 55.682378 
L 239.289555 55.890758 
L 239.571614 55.890758 
L 239.853673 55.682378 
L 240.135732 55.682378 
L 240.417791 55.890758 
L 240.69985 55.890758 
L 241.263968 55.473998 
L 241.828086 55.890758 
L 242.392205 55.473998 
L 242.674264 55.473998 
L 242.956323 55.682378 
L 243.238382 55.682378 
L 243.520441 55.473998 
L 243.8025 55.473998 
L 244.084559 55.682378 
L 244.366618 55.682378 
L 244.648677 55.473998 
L 246.341032 55.473998 
L 246.623091 55.265618 
L 246.90515 55.265618 
L 247.187209 55.473998 
L 247.751327 55.473998 
L 248.033386 55.265618 
L 248.315445 55.473998 
L 248.597505 55.473998 
L 248.879564 55.265618 
L 249.443682 55.265618 
L 249.725741 55.473998 
L 250.289859 55.057238 
L 250.571918 55.473998 
L 250.853977 55.473998 
L 251.418095 55.057238 
L 251.982214 55.473998 
L 252.546332 55.057238 
L 252.828391 55.057238 
L 253.11045 55.265618 
L 253.392509 55.265618 
L 253.674568 55.057238 
L 253.956627 55.057238 
L 254.238686 55.265618 
L 254.520745 55.265618 
L 254.802805 55.057238 
L 256.495159 55.057238 
L 256.777218 54.848858 
L 257.059277 54.848858 
L 257.341336 55.057238 
L 257.623395 55.057238 
L 257.905455 54.848858 
L 258.187514 54.848858 
L 258.469573 55.057238 
L 258.751632 55.057238 
L 259.31575 54.640478 
L 259.879868 55.057238 
L 260.443986 54.640478 
L 260.726045 54.640478 
L 261.008105 55.057238 
L 261.572223 54.640478 
L 261.854282 54.848858 
L 262.4184 54.848858 
L 262.700459 54.640478 
L 262.982518 54.640478 
L 263.264577 54.848858 
L 263.546636 54.640478 
L 264.392814 54.640478 
L 264.674873 54.848858 
L 264.956932 54.640478 
L 266.649286 54.640478 
L 266.931345 54.432098 
L 267.213405 54.432098 
L 267.495464 54.640478 
L 267.777523 54.640478 
L 268.059582 54.432098 
L 268.341641 54.432098 
L 268.6237 54.640478 
L 268.905759 54.640478 
L 269.469877 54.223718 
L 270.033995 54.640478 
L 270.598114 54.223718 
L 270.880173 54.223718 
L 271.162232 54.432098 
L 271.444291 54.432098 
L 271.72635 54.223718 
L 272.008409 54.223718 
L 272.290468 54.432098 
L 272.572527 54.432098 
L 272.854586 54.223718 
L 275.957236 54.223718 
L 276.239295 54.015338 
L 276.521355 54.223718 
L 276.803414 54.223718 
L 277.085473 54.015338 
L 277.649591 54.015338 
L 277.93165 54.223718 
L 278.213709 54.015338 
L 278.495768 54.015338 
L 278.777827 54.223718 
L 279.059886 54.223718 
L 279.624005 53.806958 
L 280.188123 54.223718 
L 280.752241 53.806958 
L 281.0343 53.806958 
L 281.316359 54.015338 
L 281.598418 54.015338 
L 281.880477 53.806958 
L 282.162536 53.806958 
L 282.444595 54.015338 
L 282.726655 54.015338 
L 283.008714 53.806958 
L 284.701068 53.806958 
L 284.983127 53.598578 
L 285.265186 53.806958 
L 285.829305 53.806958 
L 286.111364 53.598578 
L 286.393423 53.598578 
L 286.675482 53.806958 
L 286.957541 53.806958 
L 287.521659 53.390198 
L 288.085777 53.806958 
L 288.649895 53.390198 
L 289.214014 53.806958 
L 289.778132 53.390198 
L 290.060191 53.598578 
L 290.624309 53.598578 
L 290.906368 53.390198 
L 291.188427 53.390198 
L 291.470486 53.598578 
L 291.752545 53.390198 
L 292.316664 53.390198 
L 292.598723 53.598578 
L 292.880782 53.598578 
L 293.162841 53.390198 
L 294.855195 53.390198 
L 295.137255 53.181818 
L 295.419314 53.181818 
L 295.701373 53.390198 
L 295.983432 53.390198 
L 296.265491 53.181818 
L 296.54755 53.390198 
L 296.829609 53.390198 
L 297.111668 53.598578 
L 297.393727 53.598578 
L 297.675786 53.806958 
L 298.239905 53.806958 
L 298.521964 54.015338 
L 298.804023 54.015338 
L 299.086082 54.223718 
L 299.6502 54.223718 
L 299.932259 54.432098 
L 300.214318 54.432098 
L 300.496377 54.640478 
L 300.778436 54.640478 
L 301.342555 55.057238 
L 301.624614 55.057238 
L 301.906673 55.265618 
L 302.470791 55.265618 
L 302.75285 55.473998 
L 303.034909 55.473998 
L 303.316968 55.682378 
L 303.881086 55.682378 
L 304.163145 55.890758 
L 304.445205 55.890758 
L 304.727264 56.099138 
L 305.291382 56.099138 
L 305.573441 56.307518 
L 305.8555 56.307518 
L 306.137559 56.515898 
L 306.701677 56.515898 
L 306.983736 56.724278 
L 307.265795 56.724278 
L 307.829914 57.141038 
L 308.111973 57.141038 
L 308.394032 57.349418 
L 308.676091 57.349418 
L 308.95815 57.557798 
L 309.522268 57.557798 
L 309.804327 57.766178 
L 310.086386 57.766178 
L 310.368445 57.974558 
L 310.932564 57.974558 
L 311.214623 58.182938 
L 311.496682 58.182938 
L 311.778741 58.391318 
L 312.342859 58.391318 
L 312.624918 58.599697 
L 312.906977 58.599697 
L 313.189036 58.808077 
L 313.753155 58.808077 
L 314.035214 59.016457 
L 314.317273 59.016457 
L 314.881391 59.433217 
L 315.16345 59.433217 
L 315.445509 59.641597 
L 315.727568 59.641597 
L 316.009627 59.849977 
L 316.573745 59.849977 
L 316.855805 60.058357 
L 317.137864 60.058357 
L 317.419923 60.266737 
L 317.984041 60.266737 
L 318.2661 60.475117 
L 318.548159 60.475117 
L 318.830218 60.683497 
L 319.394336 60.683497 
L 319.676395 60.891877 
L 319.958455 60.891877 
L 320.240514 61.100257 
L 320.804632 61.100257 
L 321.086691 61.308637 
L 321.36875 61.308637 
L 321.932868 61.725397 
L 322.214927 61.725397 
L 322.496986 61.933777 
L 322.779045 61.933777 
L 323.061105 62.142157 
L 323.625223 62.142157 
L 323.907282 62.350537 
L 324.189341 62.350537 
L 324.4714 62.558917 
L 325.035518 62.558917 
L 325.317577 62.767297 
L 325.599636 62.767297 
L 325.881695 62.975677 
L 326.445814 62.975677 
L 326.727873 63.184057 
L 327.009932 63.184057 
L 327.291991 63.392437 
L 327.856109 63.392437 
L 328.138168 63.600817 
L 328.420227 63.600817 
L 328.702286 64.017577 
L 329.266405 64.017577 
L 329.548464 64.225957 
L 329.830523 64.225957 
L 330.112582 64.434337 
L 330.6767 64.434337 
L 330.958759 64.642717 
L 331.240818 64.642717 
L 331.522877 64.851097 
L 332.086995 64.851097 
L 332.369055 65.059477 
L 332.651114 65.059477 
L 332.933173 65.267857 
L 333.215232 65.267857 
L 333.497291 65.476237 
L 334.061409 65.476237 
L 334.343468 65.684617 
L 334.625527 65.684617 
L 334.907586 65.892997 
L 335.471705 65.892997 
L 335.753764 66.726516 
L 337.446118 66.726516 
L 337.728177 67.143276 
L 338.292295 67.143276 
L 338.574355 67.560036 
L 340.266709 67.560036 
L 340.548768 67.976796 
L 341.112886 67.976796 
L 341.394945 68.393556 
L 342.523182 68.393556 
L 342.805241 68.810316 
L 343.0873 68.810316 
L 343.369359 69.227076 
L 345.343773 69.227076 
L 345.625832 69.643836 
L 345.907891 69.643836 
L 346.18995 70.060596 
L 348.164364 70.060596 
L 348.446423 70.477356 
L 348.728482 70.477356 
L 349.010541 70.894116 
L 350.138777 70.894116 
L 350.420836 71.310876 
L 350.984955 71.310876 
L 351.267014 71.727636 
L 352.959368 71.727636 
L 353.241427 72.144396 
L 353.805545 72.144396 
L 354.087605 72.561156 
L 355.779959 72.561156 
L 356.062018 72.977916 
L 356.344077 72.977916 
L 356.626136 73.394676 
L 358.036432 73.394676 
L 358.318491 73.811435 
L 358.60055 73.811435 
L 358.882609 74.228195 
L 360.857023 74.228195 
L 361.139082 74.644955 
L 361.421141 74.644955 
L 361.7032 75.061715 
L 363.113495 75.061715 
L 363.395555 75.478475 
L 363.677614 75.478475 
L 363.959673 75.895235 
L 365.652027 75.895235 
L 365.934086 76.311995 
L 366.498205 76.311995 
L 366.780264 76.728755 
L 368.472618 76.728755 
L 368.754677 77.145515 
L 369.318795 77.145515 
L 369.600855 77.562275 
L 370.729091 77.562275 
L 371.01115 77.979035 
L 371.293209 77.979035 
L 371.575268 78.395795 
L 373.549682 78.395795 
L 373.831741 78.812555 
L 374.1138 78.812555 
L 374.395859 79.229315 
L 376.370273 79.229315 
L 376.652332 79.646075 
L 376.934391 79.646075 
L 377.21645 80.062835 
L 378.344686 80.062835 
L 378.626745 80.479595 
L 379.190864 80.479595 
L 379.472923 80.896355 
L 381.165277 80.896355 
L 381.447336 81.313115 
L 382.011455 81.313115 
L 382.293514 81.729874 
L 383.985868 81.729874 
L 384.267927 82.563394 
L 386.242341 82.563394 
L 386.5244 82.980154 
L 386.806459 82.980154 
L 387.088518 83.396914 
L 389.062932 83.396914 
L 389.344991 83.813674 
L 389.62705 83.813674 
L 389.909109 84.230434 
L 391.037345 84.230434 
L 391.319405 84.647194 
L 391.883523 84.647194 
L 392.165582 85.063954 
L 393.857936 85.063954 
L 394.139995 85.480714 
L 394.704114 85.480714 
L 394.986173 85.897474 
L 396.678527 85.897474 
L 396.960586 86.314234 
L 397.524705 86.314234 
L 397.806764 86.730994 
L 398.935 86.730994 
L 399.217059 87.147754 
L 399.499118 87.147754 
L 399.781177 87.564514 
L 401.755591 87.564514 
L 402.03765 87.981274 
L 402.319709 87.981274 
L 402.601768 88.398034 
L 404.576182 88.398034 
L 405.1403 89.231553 
L 406.550595 89.231553 
L 406.832655 89.648313 
L 407.396773 89.648313 
L 407.678832 90.065073 
L 409.371186 90.065073 
L 409.653245 90.481833 
L 410.217364 90.481833 
L 410.499423 90.898593 
L 411.909718 90.898593 
L 412.473836 91.732113 
L 414.44825 91.732113 
L 414.730309 92.148873 
L 415.012368 92.148873 
L 415.294427 92.565633 
L 417.268841 92.565633 
L 417.5509 92.982393 
L 417.832959 92.982393 
L 418.115018 93.399153 
L 419.243255 93.399153 
L 419.525314 93.815913 
L 420.089432 93.815913 
L 420.371491 94.232673 
L 422.063845 94.232673 
L 422.345905 94.649433 
L 422.910023 94.649433 
L 423.192082 95.066193 
L 424.884436 95.066193 
L 425.166495 95.482953 
L 425.730614 95.482953 
L 426.012673 95.899713 
L 427.140909 95.899713 
L 427.422968 96.316473 
L 427.705027 96.316473 
L 427.987086 96.733232 
L 429.9615 96.733232 
L 430.243559 97.149992 
L 430.525618 97.149992 
L 430.807677 97.566752 
L 432.500032 97.566752 
L 433.06415 98.400272 
L 434.756505 98.400272 
L 435.038564 98.817032 
L 435.602682 98.817032 
L 435.884741 99.233792 
L 437.577095 99.233792 
L 437.859155 99.650552 
L 438.423273 99.650552 
L 438.705332 100.067312 
L 439.833568 100.067312 
L 440.115627 100.484072 
L 440.397686 100.484072 
L 440.679745 100.900832 
L 442.654159 100.900832 
L 442.936218 101.317592 
L 443.218277 101.317592 
L 443.500336 101.734352 
L 445.47475 101.734352 
L 445.756809 102.151112 
L 446.038868 102.151112 
L 446.320927 102.567872 
L 447.449164 102.567872 
L 447.731223 102.984632 
L 448.295341 102.984632 
L 448.5774 103.401392 
L 450.269755 103.401392 
L 450.551814 103.818152 
L 451.115932 103.818152 
L 451.397991 104.234912 
L 453.090345 104.234912 
L 453.654464 105.068431 
L 455.346818 105.068431 
L 455.628877 105.485191 
L 455.910936 105.485191 
L 456.192995 105.901951 
L 458.167409 105.901951 
L 458.449468 106.318711 
L 458.731527 106.318711 
L 459.013586 106.735471 
L 460.423882 106.735471 
L 460.705941 107.152231 
L 460.988 107.152231 
L 461.270059 107.568991 
L 462.962414 107.568991 
L 463.244473 107.985751 
L 463.808591 107.985751 
L 464.09065 108.402511 
L 465.783005 108.402511 
L 466.065064 108.819271 
L 466.629182 108.819271 
L 466.911241 109.236031 
L 468.039477 109.236031 
L 468.321536 109.652791 
L 468.603595 109.652791 
L 468.885655 110.069551 
L 470.860068 110.069551 
L 471.142127 110.486311 
L 471.424186 110.486311 
L 471.706245 110.903071 
L 473.680659 110.903071 
L 473.962718 111.319831 
L 474.244777 111.319831 
L 474.526836 111.736591 
L 475.655073 111.736591 
L 475.937132 112.15335 
L 476.219191 111.736591 
L 477.065368 111.736591 
L 477.347427 112.15335 
L 478.193605 112.15335 
L 478.475664 112.57011 
L 479.6039 112.57011 
L 479.885959 112.98687 
L 481.014195 112.98687 
L 481.296255 113.40363 
L 482.424491 113.40363 
L 482.70655 113.82039 
L 483.834786 113.82039 
L 484.116845 114.23715 
L 484.680964 114.23715 
L 484.963023 114.65391 
L 485.245082 114.65391 
L 485.527141 115.07067 
L 486.655377 115.07067 
L 486.937436 115.48743 
L 488.065673 115.48743 
L 488.347732 115.90419 
L 489.475968 115.90419 
L 489.758027 116.32095 
L 490.886264 116.32095 
L 491.168323 116.73771 
L 492.296559 116.73771 
L 492.578618 117.15447 
L 493.706855 117.15447 
L 493.988914 117.57123 
L 495.11715 117.57123 
L 495.399209 117.98799 
L 496.527445 117.98799 
L 496.809505 118.40475 
L 497.937741 118.40475 
L 498.2198 118.82151 
L 498.501859 118.82151 
L 498.783918 119.23827 
L 499.348036 119.23827 
L 499.630095 119.655029 
L 500.758332 119.655029 
L 501.040391 120.071789 
L 502.168627 120.071789 
L 502.450686 120.488549 
L 503.578923 120.488549 
L 503.860982 120.905309 
L 504.989218 120.905309 
L 505.271277 121.322069 
L 506.399514 121.322069 
L 506.681573 121.738829 
L 507.809809 121.738829 
L 508.091868 122.155589 
L 509.220105 122.155589 
L 509.502164 122.572349 
L 510.6304 122.572349 
L 510.912459 122.989109 
L 512.040695 122.989109 
L 512.604814 123.822629 
L 513.450991 123.822629 
L 513.73305 124.239389 
L 514.861286 124.239389 
L 515.143345 124.656149 
L 516.271582 124.656149 
L 516.553641 125.072909 
L 517.681877 125.072909 
L 517.963936 125.489669 
L 519.092173 125.489669 
L 519.374232 125.906429 
L 520.502468 125.906429 
L 520.784527 126.323189 
L 521.912764 126.323189 
L 522.194823 126.739949 
L 523.323059 126.739949 
L 523.605118 127.156709 
L 524.733355 127.156709 
L 525.015414 127.573468 
L 526.14365 127.573468 
L 526.707768 128.406988 
L 527.553945 128.406988 
L 527.836005 128.823748 
L 528.964241 128.823748 
L 529.2463 129.240508 
L 530.374536 129.240508 
L 530.656595 129.657268 
L 531.784832 129.657268 
L 532.066891 130.074028 
L 533.195127 130.074028 
L 533.477186 130.490788 
L 534.605423 130.490788 
L 534.887482 130.907548 
L 536.015718 130.907548 
L 536.297777 131.324308 
L 537.426014 131.324308 
L 537.708073 131.741068 
L 538.836309 131.741068 
L 539.118368 132.157828 
L 540.246605 132.157828 
L 540.528664 132.991348 
L 541.6569 132.991348 
L 541.938959 133.408108 
L 543.067195 133.408108 
L 543.349255 133.824868 
L 544.477491 133.824868 
L 544.75955 134.241628 
L 545.887786 134.241628 
L 546.169845 134.658388 
L 547.298082 134.658388 
L 547.580141 135.075147 
L 548.708377 135.075147 
L 548.990436 135.491907 
L 549.836614 135.491907 
L 550.118673 135.908667 
L 551.246909 135.908667 
L 551.528968 136.325427 
L 552.657205 136.325427 
L 552.939264 136.742187 
L 554.0675 136.742187 
L 554.349559 137.575707 
L 555.477795 137.575707 
L 555.759855 137.992467 
L 556.888091 137.992467 
L 557.17015 138.409227 
L 558.298386 138.409227 
L 558.580445 138.825987 
L 559.708682 138.825987 
L 559.990741 139.242747 
L 561.118977 139.242747 
L 561.401036 139.659507 
L 562.529273 139.659507 
L 562.811332 140.076267 
L 563.939568 140.076267 
L 564.221627 140.493027 
L 565.349864 140.493027 
L 565.631923 140.909787 
L 566.760159 140.909787 
L 567.042218 141.326547 
L 568.170455 141.326547 
L 568.452514 142.160067 
L 569.58075 142.160067 
L 569.862809 142.576827 
L 570.991045 142.576827 
L 571.273105 142.993586 
L 572.401341 142.993586 
L 572.6834 143.410346 
L 573.811636 143.410346 
L 574.093695 143.827106 
L 575.221932 143.827106 
L 575.503991 144.243866 
L 576.632227 144.243866 
L 576.914286 144.660626 
L 578.042523 144.660626 
L 578.324582 145.077386 
L 579.452818 145.077386 
L 579.734877 145.494146 
L 580.863114 145.494146 
L 581.145173 145.910906 
L 581.99135 145.910906 
L 582.555468 146.744426 
L 583.683705 146.744426 
L 583.965764 147.161186 
L 585.094 147.161186 
L 585.376059 147.577946 
L 586.504295 147.577946 
L 586.786355 147.994706 
L 587.914591 147.994706 
L 588.19665 148.411466 
L 589.324886 148.411466 
L 589.606945 148.828226 
L 590.735182 148.828226 
L 591.017241 149.244986 
L 592.145477 149.244986 
L 592.427536 149.661746 
L 593.555773 149.661746 
L 593.837832 150.078506 
L 594.966068 150.078506 
L 595.248127 150.495265 
L 595.812245 150.495265 
L 596.094305 150.912025 
L 596.376364 150.912025 
L 596.658423 151.328785 
L 597.786659 151.328785 
L 598.068718 151.745545 
L 599.196955 151.745545 
L 599.479014 152.162305 
L 600.60725 152.162305 
L 600.889309 152.579065 
L 602.017545 152.579065 
L 602.299605 152.995825 
L 603.427841 152.995825 
L 603.7099 153.412585 
L 604.838136 153.412585 
L 605.120195 153.829345 
L 606.248432 153.829345 
L 606.530491 154.246105 
L 607.658727 154.246105 
L 607.940786 154.662865 
L 609.069023 154.662865 
L 609.351082 155.079625 
L 609.633141 155.079625 
L 609.9152 155.496385 
L 610.479318 155.496385 
L 610.761377 155.913145 
L 611.889614 155.913145 
L 612.171673 156.329905 
L 613.299909 156.329905 
L 613.581968 156.746665 
L 614.710205 156.746665 
L 614.992264 157.163425 
L 616.1205 157.163425 
L 616.402559 157.580185 
L 617.530795 157.580185 
L 617.812855 157.996944 
L 618.941091 157.996944 
L 619.22315 158.413704 
L 620.351386 158.413704 
L 620.633445 158.830464 
L 621.761682 158.830464 
L 622.043741 159.247224 
L 623.171977 159.247224 
L 623.736095 160.080744 
L 624.582273 160.080744 
L 624.864332 160.497504 
L 625.992568 160.497504 
L 626.274627 160.914264 
L 627.402864 160.914264 
L 627.684923 161.331024 
L 628.813159 161.331024 
L 629.095218 161.747784 
L 630.223455 161.747784 
L 630.505514 162.164544 
L 631.63375 162.164544 
L 631.915809 162.581304 
L 633.044045 162.581304 
L 633.326105 162.998064 
L 634.454341 162.998064 
L 634.7364 163.414824 
L 635.864636 163.414824 
L 636.146695 163.831584 
L 637.274932 163.831584 
L 637.556991 164.665104 
L 638.685227 164.665104 
L 638.967286 165.081864 
L 640.095523 165.081864 
L 640.377582 165.498624 
L 641.505818 165.498624 
L 641.787877 165.915383 
L 642.916114 165.915383 
L 643.198173 166.332143 
L 644.326409 166.332143 
L 644.608468 166.748903 
L 645.736705 166.748903 
L 646.018764 167.165663 
L 647.147 167.165663 
L 647.429059 167.582423 
L 648.557295 167.582423 
L 648.839355 167.999183 
L 649.967591 167.999183 
L 650.24965 168.415943 
L 651.377886 168.415943 
L 651.659945 169.249463 
L 652.788182 169.249463 
L 653.070241 169.666223 
L 654.198477 169.666223 
L 654.480536 170.082983 
L 655.608773 170.082983 
L 655.890832 170.499743 
L 657.019068 170.499743 
L 657.301127 170.916503 
L 658.429364 170.916503 
L 658.711423 171.333263 
L 659.839659 171.333263 
L 660.121718 171.750023 
L 661.249955 171.750023 
L 661.532014 172.166783 
L 662.66025 172.166783 
L 662.942309 172.583543 
L 664.070545 172.583543 
L 664.352605 173.000303 
L 665.198782 173.000303 
L 665.7629 173.833822 
L 666.891136 173.833822 
L 667.173195 174.250582 
L 668.301432 174.250582 
L 668.583491 174.667342 
L 669.711727 174.667342 
L 669.993786 175.084102 
L 671.122023 175.084102 
L 671.404082 175.500862 
L 672.532318 175.500862 
L 672.814377 175.917622 
L 673.942614 175.917622 
L 674.224673 176.334382 
L 675.352909 176.334382 
L 675.634968 176.751142 
L 676.763205 176.751142 
L 677.045264 177.167902 
L 678.1735 177.167902 
L 678.455559 177.584662 
L 679.019677 177.584662 
L 679.301736 178.001422 
L 679.583795 178.001422 
L 679.865855 178.418182 
L 680.994091 178.418182 
L 680.994091 178.418182 
" clip-path="url(#pf4c117f606)" style="fill: none; stroke: #1f77b4; stroke-width: 1.5; stroke-linecap: square"/>
   </g>
   <g id="patch_3">
    <path d="M 88.67 184.68 
L 88.67 46.92 
" style="fill: none; stroke: #000000; stroke-width: 0.8; stroke-linejoin: miter; stroke-linecap: square"/>
   </g>
   <g id="patch_4">
    <path d="M 709.2 184.68 
L 709.2 46.92 
" style="fill: none; stroke: #000000; stroke-width: 0.8; stroke-linejoin: miter; stroke-linecap: square"/>
   </g>
   <g id="patch_5">
    <path d="M 88.67 184.68 
L 709.2 184.68 
" style="fill: none; stroke: #000000; stroke-width: 0.8; stroke-linejoin: miter; stroke-linecap: square"/>
   </g>
   <g id="patch_6">
    <path d="M 88.67 46.92 
L 709.2 46.92 
" style="fill: none; stroke: #000000; stroke-width: 0.8; stroke-linejoin: miter; stroke-linecap: square"/>
   </g>
  </g>
  <g id="axes_2">
   <g id="patch_7">
    <path d="M 88.67 366.4 
L 709.2 366.4 
L 709.2 228.64 
L 88.67 228.64 
z
" style="fill: #ffffff"/>
   </g>
   <g id="matplotlib.axis_3">
    <g id="xtick_10">
     <g id="line2d_17">
      <g>
       <use xlink:href="#m99cca6557d" x="116.875909" y="366.4" style="stroke: #000000; stroke-width: 0.8"/>
      </g>
     </g>
     <g id="text_18">
      <!-- 0 -->
      <g transform="translate(113.694659 380.998437) scale(0.1 -0.1)">
       <use xlink:href="#DejaVuSans-30"/>
      </g>
     </g>
    </g>
    <g id="xtick_11">
     <g id="line2d_18">
      <g>
       <use xlink:href="#m99cca6557d" x="187.390682" y="366.4" style="stroke: #000000; stroke-width: 0.8"/>
      </g>
     </g>
     <g id="text_19">
      <!-- 25 -->
      <g transform="translate(181.028182 380.998437) scale(0.1 -0.1)">
       <use xlink:href="#DejaVuSans-32"/>
       <use xlink:href="#DejaVuSans-35" x="63.623047"/>
      </g>
     </g>
    </g>
    <g id="xtick_12">
     <g id="line2d_19">
      <g>
       <use xlink:href="#m99cca6557d" x="257.905455" y="366.4" style="stroke: #000000; stroke-width: 0.8"/>
      </g>
     </g>
     <g id="text_20">
      <!-- 50 -->
      <g transform="translate(251.542955 380.998437) scale(0.1 -0.1)">
       <use xlink:href="#DejaVuSans-35"/>
       <use xlink:href="#DejaVuSans-30" x="63.623047"/>
      </g>
     </g>
    </g>
    <g id="xtick_13">
     <g id="line2d_20">
      <g>
       <use xlink:href="#m99cca6557d" x="328.420227" y="366.4" style="stroke: #000000; stroke-width: 0.8"/>
      </g>
     </g>
     <g id="text_21">
      <!-- 75 -->
      <g transform="translate(322.057727 380.998437) scale(0.1 -0.1)">
       <use xlink:href="#DejaVuSans-37"/>
       <use xlink:href="#DejaVuSans-35" x="63.623047"/>
      </g>
     </g>
    </g>
    <g id="xtick_14">
     <g id="line2d_21">
      <g>
       <use xlink:href="#m99cca6557d" x="398.935" y="366.4" style="stroke: #000000; stroke-width: 0.8"/>
      </g>
     </g>
     <g id="text_22">
      <!-- 100 -->
      <g transform="translate(389.39125 380.998437) scale(0.1 -0.1)">
       <use xlink:href="#DejaVuSans-31"/>
       <use xlink:href="#DejaVuSans-30" x="63.623047"/>
       <use xlink:href="#DejaVuSans-30" x="127.246094"/>
      </g>
     </g>
    </g>
    <g id="xtick_15">
     <g id="line2d_22">
      <g>
       <use xlink:href="#m99cca6557d" x="469.449773" y="366.4" style="stroke: #000000; stroke-width: 0.8"/>
      </g>
     </g>
     <g id="text_23">
      <!-- 125 -->
      <g transform="translate(459.906023 380.998437) scale(0.1 -0.1)">
       <use xlink:href="#DejaVuSans-31"/>
       <use xlink:href="#DejaVuSans-32" x="63.623047"/>
       <use xlink:href="#DejaVuSans-35" x="127.246094"/>
      </g>
     </g>
    </g>
    <g id="xtick_16">
     <g id="line2d_23">
      <g>
       <use xlink:href="#m99cca6557d" x="539.964545" y="366.4" style="stroke: #000000; stroke-width: 0.8"/>
      </g>
     </g>
     <g id="text_24">
      <!-- 150 -->
      <g transform="translate(530.420795 380.998437) scale(0.1 -0.1)">
       <use xlink:href="#DejaVuSans-31"/>
       <use xlink:href="#DejaVuSans-35" x="63.623047"/>
       <use xlink:href="#DejaVuSans-30" x="127.246094"/>
      </g>
     </g>
    </g>
    <g id="xtick_17">
     <g id="line2d_24">
      <g>
       <use xlink:href="#m99cca6557d" x="610.479318" y="366.4" style="stroke: #000000; stroke-width: 0.8"/>
      </g>
     </g>
     <g id="text_25">
      <!-- 175 -->
      <g transform="translate(600.935568 380.998437) scale(0.1 -0.1)">
       <use xlink:href="#DejaVuSans-31"/>
       <use xlink:href="#DejaVuSans-37" x="63.623047"/>
       <use xlink:href="#DejaVuSans-35" x="127.246094"/>
      </g>
     </g>
    </g>
    <g id="xtick_18">
     <g id="line2d_25">
      <g>
       <use xlink:href="#m99cca6557d" x="680.994091" y="366.4" style="stroke: #000000; stroke-width: 0.8"/>
      </g>
     </g>
     <g id="text_26">
      <!-- 200 -->
      <g transform="translate(671.450341 380.998437) scale(0.1 -0.1)">
       <use xlink:href="#DejaVuSans-32"/>
       <use xlink:href="#DejaVuSans-30" x="63.623047"/>
       <use xlink:href="#DejaVuSans-30" x="127.246094"/>
      </g>
     </g>
    </g>
   </g>
   <g id="matplotlib.axis_4">
    <g id="ytick_7">
     <g id="line2d_26">
      <g>
       <use xlink:href="#mdeb4e280c6" x="88.67" y="338.743545" style="stroke: #000000; stroke-width: 0.8"/>
      </g>
     </g>
     <g id="text_27">
      <!-- −4 -->
      <g transform="translate(66.927813 342.542764) scale(0.1 -0.1)">
       <defs>
        <path id="DejaVuSans-34" d="M 2419 4116 
L 825 1625 
L 2419 1625 
L 2419 4116 
z
M 2253 4666 
L 3047 4666 
L 3047 1625 
L 3713 1625 
L 3713 1100 
L 3047 1100 
L 3047 0 
L 2419 0 
L 2419 1100 
L 313 1100 
L 313 1709 
L 2253 4666 
z
" transform="scale(0.015625)"/>
       </defs>
       <use xlink:href="#DejaVuSans-2212"/>
       <use xlink:href="#DejaVuSans-34" x="83.789062"/>
      </g>
     </g>
    </g>
    <g id="ytick_8">
     <g id="line2d_27">
      <g>
       <use xlink:href="#mdeb4e280c6" x="88.67" y="309.667963" style="stroke: #000000; stroke-width: 0.8"/>
      </g>
     </g>
     <g id="text_28">
      <!-- −2 -->
      <g transform="translate(66.927813 313.467182) scale(0.1 -0.1)">
       <use xlink:href="#DejaVuSans-2212"/>
       <use xlink:href="#DejaVuSans-32" x="83.789062"/>
      </g>
     </g>
    </g>
    <g id="ytick_9">
     <g id="line2d_28">
      <g>
       <use xlink:href="#mdeb4e280c6" x="88.67" y="280.59238" style="stroke: #000000; stroke-width: 0.8"/>
      </g>
     </g>
     <g id="text_29">
      <!-- 0 -->
      <g transform="translate(75.3075 284.391599) scale(0.1 -0.1)">
       <use xlink:href="#DejaVuSans-30"/>
      </g>
     </g>
    </g>
    <g id="ytick_10">
     <g id="line2d_29">
      <g>
       <use xlink:href="#mdeb4e280c6" x="88.67" y="251.516798" style="stroke: #000000; stroke-width: 0.8"/>
      </g>
     </g>
     <g id="text_30">
      <!-- 2 -->
      <g transform="translate(75.3075 255.316017) scale(0.1 -0.1)">
       <use xlink:href="#DejaVuSans-32"/>
      </g>
     </g>
    </g>
    <g id="text_31">
     <!-- Position m -->
     <g transform="translate(15.916563 295.024375) scale(0.12 -0.12)">
      <defs>
       <path id="DejaVuSans-50" d="M 1259 4147 
L 1259 2394 
L 2053 2394 
Q 2494 2394 2734 2622 
Q 2975 2850 2975 3272 
Q 2975 3691 2734 3919 
Q 2494 4147 2053 4147 
L 1259 4147 
z
M 628 4666 
L 2053 4666 
Q 2838 4666 3239 4311 
Q 3641 3956 3641 3272 
Q 3641 2581 3239 2228 
Q 2838 1875 2053 1875 
L 1259 1875 
L 1259 0 
L 628 0 
L 628 4666 
z
" transform="scale(0.015625)"/>
       <path id="DejaVuSans-6f" d="M 1959 3097 
Q 1497 3097 1228 2736 
Q 959 2375 959 1747 
Q 959 1119 1226 758 
Q 1494 397 1959 397 
Q 2419 397 2687 759 
Q 2956 1122 2956 1747 
Q 2956 2369 2687 2733 
Q 2419 3097 1959 3097 
z
M 1959 3584 
Q 2709 3584 3137 3096 
Q 3566 2609 3566 1747 
Q 3566 888 3137 398 
Q 2709 -91 1959 -91 
Q 1206 -91 779 398 
Q 353 888 353 1747 
Q 353 2609 779 3096 
Q 1206 3584 1959 3584 
z
" transform="scale(0.015625)"/>
       <path id="DejaVuSans-73" d="M 2834 3397 
L 2834 2853 
Q 2591 2978 2328 3040 
Q 2066 3103 1784 3103 
Q 1356 3103 1142 2972 
Q 928 2841 928 2578 
Q 928 2378 1081 2264 
Q 1234 2150 1697 2047 
L 1894 2003 
Q 2506 1872 2764 1633 
Q 3022 1394 3022 966 
Q 3022 478 2636 193 
Q 2250 -91 1575 -91 
Q 1294 -91 989 -36 
Q 684 19 347 128 
L 347 722 
Q 666 556 975 473 
Q 1284 391 1588 391 
Q 1994 391 2212 530 
Q 2431 669 2431 922 
Q 2431 1156 2273 1281 
Q 2116 1406 1581 1522 
L 1381 1569 
Q 847 1681 609 1914 
Q 372 2147 372 2553 
Q 372 3047 722 3315 
Q 1072 3584 1716 3584 
Q 2034 3584 2315 3537 
Q 2597 3491 2834 3397 
z
" transform="scale(0.015625)"/>
       <path id="DejaVuSans-6e" d="M 3513 2113 
L 3513 0 
L 2938 0 
L 2938 2094 
Q 2938 2591 2744 2837 
Q 2550 3084 2163 3084 
Q 1697 3084 1428 2787 
Q 1159 2491 1159 1978 
L 1159 0 
L 581 0 
L 581 3500 
L 1159 3500 
L 1159 2956 
Q 1366 3272 1645 3428 
Q 1925 3584 2291 3584 
Q 2894 3584 3203 3211 
Q 3513 2838 3513 2113 
z
" transform="scale(0.015625)"/>
      </defs>
      <use xlink:href="#DejaVuSans-50"/>
      <use xlink:href="#DejaVuSans-6f" x="56.677734"/>
      <use xlink:href="#DejaVuSans-73" x="117.859375"/>
      <use xlink:href="#DejaVuSans-69" x="169.958984"/>
      <use xlink:href="#DejaVuSans-74" x="197.742188"/>
      <use xlink:href="#DejaVuSans-69" x="236.951172"/>
      <use xlink:href="#DejaVuSans-6f" x="264.734375"/>
      <use xlink:href="#DejaVuSans-6e" x="325.916016"/>
      <use xlink:href="#DejaVuSans-20" x="389.294922"/>
      <use xlink:href="#DejaVuSans-6d" x="421.082031"/>
     </g>
    </g>
   </g>
   <g id="line2d_30">
    <path d="M 116.875909 280.59238 
L 125.619741 280.486495 
L 134.645632 280.151264 
L 143.671523 279.58988 
L 152.697414 278.808005 
L 162.005364 277.779129 
L 171.595373 276.494294 
L 181.467441 274.948699 
L 191.903627 273.089369 
L 203.185991 270.84725 
L 215.314532 268.207674 
L 229.417486 264.902269 
L 247.469268 260.425931 
L 290.624309 249.633867 
L 304.727264 246.3934 
L 316.855805 243.827328 
L 328.138168 241.667021 
L 338.574355 239.893754 
L 348.446423 238.437683 
L 358.036432 237.246323 
L 367.344382 236.313291 
L 376.370273 235.628186 
L 385.396164 235.166358 
L 394.422055 234.932463 
L 403.165886 234.925479 
L 411.909718 235.134688 
L 420.935609 235.575287 
L 429.9615 236.239667 
L 439.26945 237.152063 
L 448.5774 238.285488 
L 458.449468 239.715517 
L 468.603595 241.413253 
L 479.321841 243.431054 
L 490.886264 245.835558 
L 503.860982 248.765848 
L 519.374232 252.509268 
L 543.631314 258.630581 
L 568.452514 264.822894 
L 583.401645 268.321103 
L 596.094305 271.064835 
L 607.376668 273.281843 
L 618.094914 275.161233 
L 628.249041 276.713125 
L 637.83905 277.956295 
L 647.147 278.94245 
L 656.172891 279.681179 
L 665.198782 280.19815 
L 674.224673 280.488137 
L 680.994091 280.554817 
L 680.994091 280.554817 
" clip-path="url(#pc3ad8c8fbc)" style="fill: none; stroke: #1f77b4; stroke-width: 1.5; stroke-linecap: square"/>
   </g>
   <g id="line2d_31">
    <path d="M 116.875909 280.59238 
L 144.5177 277.18621 
L 159.466832 275.574387 
L 172.159491 274.428134 
L 183.441855 273.628161 
L 193.878041 273.103687 
L 204.032168 272.816668 
L 213.622177 272.766207 
L 222.930127 272.936211 
L 231.956018 273.317499 
L 240.981909 273.919733 
L 250.0078 274.748422 
L 259.033691 275.806789 
L 268.059582 277.095737 
L 277.085473 278.613843 
L 286.111364 280.357366 
L 295.419314 282.385086 
L 305.009323 284.708687 
L 314.881391 287.335979 
L 325.035518 290.270099 
L 335.753764 293.599155 
L 347.318186 297.426396 
L 360.292905 301.963737 
L 375.524095 307.539651 
L 397.242645 315.757519 
L 427.422968 327.15245 
L 442.654159 332.652164 
L 455.346818 337.005579 
L 466.911241 340.740592 
L 477.629486 343.971351 
L 487.783614 346.802271 
L 497.655682 349.321104 
L 506.963632 351.471293 
L 516.271582 353.392756 
L 525.297473 355.030053 
L 534.323364 356.439872 
L 543.349255 357.61957 
L 552.375145 358.568823 
L 561.401036 359.289639 
L 570.426927 359.786329 
L 579.734877 360.070776 
L 589.042827 360.133533 
L 598.632836 359.979058 
L 608.786964 359.590381 
L 619.505209 358.952284 
L 631.069632 358.033734 
L 643.762291 356.796784 
L 658.711423 355.108354 
L 680.429973 352.405244 
L 680.994091 352.333505 
L 680.994091 352.333505 
" clip-path="url(#pc3ad8c8fbc)" style="fill: none; stroke: #ff7f0e; stroke-width: 1.5; stroke-linecap: square"/>
   </g>
   <g id="patch_8">
    <path d="M 88.67 366.4 
L 88.67 228.64 
" style="fill: none; stroke: #000000; stroke-width: 0.8; stroke-linejoin: miter; stroke-linecap: square"/>
   </g>
   <g id="patch_9">
    <path d="M 709.2 366.4 
L 709.2 228.64 
" style="fill: none; stroke: #000000; stroke-width: 0.8; stroke-linejoin: miter; stroke-linecap: square"/>
   </g>
   <g id="patch_10">
    <path d="M 88.67 366.4 
L 709.2 366.4 
" style="fill: none; stroke: #000000; stroke-width: 0.8; stroke-linejoin: miter; stroke-linecap: square"/>
   </g>
   <g id="patch_11">
    <path d="M 88.67 228.64 
L 709.2 228.64 
" style="fill: none; stroke: #000000; stroke-width: 0.8; stroke-linejoin: miter; stroke-linecap: square"/>
   </g>
   <g id="legend_1">
    <g id="patch_12">
     <path d="M 642.23125 265.99625 
L 702.2 265.99625 
Q 704.2 265.99625 704.2 263.99625 
L 704.2 235.64 
Q 704.2 233.64 702.2 233.64 
L 642.23125 233.64 
Q 640.23125 233.64 640.23125 235.64 
L 640.23125 263.99625 
Q 640.23125 265.99625 642.23125 265.99625 
z
" style="fill: #ffffff; opacity: 0.8; stroke: #cccccc; stroke-linejoin: miter"/>
    </g>
    <g id="line2d_32">
     <path d="M 644.23125 241.738437 
L 654.23125 241.738437 
L 664.23125 241.738437 
" style="fill: none; stroke: #1f77b4; stroke-width: 1.5; stroke-linecap: square"/>
    </g>
    <g id="text_32">
     <!-- East -->
     <g transform="translate(672.23125 245.238437) scale(0.1 -0.1)">
      <defs>
       <path id="DejaVuSans-45" d="M 628 4666 
L 3578 4666 
L 3578 4134 
L 1259 4134 
L 1259 2753 
L 3481 2753 
L 3481 2222 
L 1259 2222 
L 1259 531 
L 3634 531 
L 3634 0 
L 628 0 
L 628 4666 
z
" transform="scale(0.015625)"/>
      </defs>
      <use xlink:href="#DejaVuSans-45"/>
      <use xlink:href="#DejaVuSans-61" x="63.183594"/>
      <use xlink:href="#DejaVuSans-73" x="124.462891"/>
      <use xlink:href="#DejaVuSans-74" x="176.5625"/>
     </g>
    </g>
    <g id="line2d_33">
     <path d="M 644.23125 256.416562 
L 654.23125 256.416562 
L 664.23125 256.416562 
" style="fill: none; stroke: #ff7f0e; stroke-width: 1.5; stroke-linecap: square"/>
    </g>
    <g id="text_33">
     <!-- North -->
     <g transform="translate(672.23125 259.916562) scale(0.1 -0.1)">
      <defs>
       <path id="DejaVuSans-4e" d="M 628 4666 
L 1478 4666 
L 3547 763 
L 3547 4666 
L 4159 4666 
L 4159 0 
L 3309 0 
L 1241 3903 
L 1241 0 
L 628 0 
L 628 4666 
z
" transform="scale(0.015625)"/>
      </defs>
      <use xlink:href="#DejaVuSans-4e"/>
      <use xlink:href="#DejaVuSans-6f" x="74.804688"/>
      <use xlink:href="#DejaVuSans-72" x="135.986328"/>
      <use xlink:href="#DejaVuSans-74" x="177.099609"/>
      <use xlink:href="#DejaVuSans-68" x="216.308594"/>
     </g>
    </g>
   </g>
  </g>
  <g id="axes_3">
   <g id="patch_13">
    <path d="M 88.67 548.12 
L 709.2 548.12 
L 709.2 410.36 
L 88.67 410.36 
z
" style="fill: #ffffff"/>
   </g>
   <g id="matplotlib.axis_5">
    <g id="xtick_19">
     <g id="line2d_34">
      <g>
       <use xlink:href="#m99cca6557d" x="116.875909" y="548.12" style="stroke: #000000; stroke-width: 0.8"/>
      </g>
     </g>
     <g id="text_34">
      <!-- 0 -->
      <g transform="translate(113.694659 562.718437) scale(0.1 -0.1)">
       <use xlink:href="#DejaVuSans-30"/>
      </g>
     </g>
    </g>
    <g id="xtick_20">
     <g id="line2d_35">
      <g>
       <use xlink:href="#m99cca6557d" x="187.390682" y="548.12" style="stroke: #000000; stroke-width: 0.8"/>
      </g>
     </g>
     <g id="text_35">
      <!-- 25 -->
      <g transform="translate(181.028182 562.718437) scale(0.1 -0.1)">
       <use xlink:href="#DejaVuSans-32"/>
       <use xlink:href="#DejaVuSans-35" x="63.623047"/>
      </g>
     </g>
    </g>
    <g id="xtick_21">
     <g id="line2d_36">
      <g>
       <use xlink:href="#m99cca6557d" x="257.905455" y="548.12" style="stroke: #000000; stroke-width: 0.8"/>
      </g>
     </g>
     <g id="text_36">
      <!-- 50 -->
      <g transform="translate(251.542955 562.718437) scale(0.1 -0.1)">
       <use xlink:href="#DejaVuSans-35"/>
       <use xlink:href="#DejaVuSans-30" x="63.623047"/>
      </g>
     </g>
    </g>
    <g id="xtick_22">
     <g id="line2d_37">
      <g>
       <use xlink:href="#m99cca6557d" x="328.420227" y="548.12" style="stroke: #000000; stroke-width: 0.8"/>
      </g>
     </g>
     <g id="text_37">
      <!-- 75 -->
      <g transform="translate(322.057727 562.718437) scale(0.1 -0.1)">
       <use xlink:href="#DejaVuSans-37"/>
       <use xlink:href="#DejaVuSans-35" x="63.623047"/>
      </g>
     </g>
    </g>
    <g id="xtick_23">
     <g id="line2d_38">
      <g>
       <use xlink:href="#m99cca6557d" x="398.935" y="548.12" style="stroke: #000000; stroke-width: 0.8"/>
      </g>
     </g>
     <g id="text_38">
      <!-- 100 -->
      <g transform="translate(389.39125 562.718437) scale(0.1 -0.1)">
       <use xlink:href="#DejaVuSans-31"/>
       <use xlink:href="#DejaVuSans-30" x="63.623047"/>
       <use xlink:href="#DejaVuSans-30" x="127.246094"/>
      </g>
     </g>
    </g>
    <g id="xtick_24">
     <g id="line2d_39">
      <g>
       <use xlink:href="#m99cca6557d" x="469.449773" y="548.12" style="stroke: #000000; stroke-width: 0.8"/>
      </g>
     </g>
     <g id="text_39">
      <!-- 125 -->
      <g transform="translate(459.906023 562.718437) scale(0.1 -0.1)">
       <use xlink:href="#DejaVuSans-31"/>
       <use xlink:href="#DejaVuSans-32" x="63.623047"/>
       <use xlink:href="#DejaVuSans-35" x="127.246094"/>
      </g>
     </g>
    </g>
    <g id="xtick_25">
     <g id="line2d_40">
      <g>
       <use xlink:href="#m99cca6557d" x="539.964545" y="548.12" style="stroke: #000000; stroke-width: 0.8"/>
      </g>
     </g>
     <g id="text_40">
      <!-- 150 -->
      <g transform="translate(530.420795 562.718437) scale(0.1 -0.1)">
       <use xlink:href="#DejaVuSans-31"/>
       <use xlink:href="#DejaVuSans-35" x="63.623047"/>
       <use xlink:href="#DejaVuSans-30" x="127.246094"/>
      </g>
     </g>
    </g>
    <g id="xtick_26">
     <g id="line2d_41">
      <g>
       <use xlink:href="#m99cca6557d" x="610.479318" y="548.12" style="stroke: #000000; stroke-width: 0.8"/>
      </g>
     </g>
     <g id="text_41">
      <!-- 175 -->
      <g transform="translate(600.935568 562.718437) scale(0.1 -0.1)">
       <use xlink:href="#DejaVuSans-31"/>
       <use xlink:href="#DejaVuSans-37" x="63.623047"/>
       <use xlink:href="#DejaVuSans-35" x="127.246094"/>
      </g>
     </g>
    </g>
    <g id="xtick_27">
     <g id="line2d_42">
      <g>
       <use xlink:href="#m99cca6557d" x="680.994091" y="548.12" style="stroke: #000000; stroke-width: 0.8"/>
      </g>
     </g>
     <g id="text_42">
      <!-- 200 -->
      <g transform="translate(671.450341 562.718437) scale(0.1 -0.1)">
       <use xlink:href="#DejaVuSans-32"/>
       <use xlink:href="#DejaVuSans-30" x="63.623047"/>
       <use xlink:href="#DejaVuSans-30" x="127.246094"/>
      </g>
     </g>
    </g>
   </g>
   <g id="matplotlib.axis_6">
    <g id="ytick_11">
     <g id="line2d_43">
      <g>
       <use xlink:href="#mdeb4e280c6" x="88.67" y="526.045214" style="stroke: #000000; stroke-width: 0.8"/>
      </g>
     </g>
     <g id="text_43">
      <!-- −0.04 -->
      <g transform="translate(51.024688 529.844433) scale(0.1 -0.1)">
       <use xlink:href="#DejaVuSans-2212"/>
       <use xlink:href="#DejaVuSans-30" x="83.789062"/>
       <use xlink:href="#DejaVuSans-2e" x="147.412109"/>
       <use xlink:href="#DejaVuSans-30" x="179.199219"/>
       <use xlink:href="#DejaVuSans-34" x="242.822266"/>
      </g>
     </g>
    </g>
    <g id="ytick_12">
     <g id="line2d_44">
      <g>
       <use xlink:href="#mdeb4e280c6" x="88.67" y="492.213528" style="stroke: #000000; stroke-width: 0.8"/>
      </g>
     </g>
     <g id="text_44">
      <!-- −0.02 -->
      <g transform="translate(51.024688 496.012747) scale(0.1 -0.1)">
       <use xlink:href="#DejaVuSans-2212"/>
       <use xlink:href="#DejaVuSans-30" x="83.789062"/>
       <use xlink:href="#DejaVuSans-2e" x="147.412109"/>
       <use xlink:href="#DejaVuSans-30" x="179.199219"/>
       <use xlink:href="#DejaVuSans-32" x="242.822266"/>
      </g>
     </g>
    </g>
    <g id="ytick_13">
     <g id="line2d_45">
      <g>
       <use xlink:href="#mdeb4e280c6" x="88.67" y="458.381842" style="stroke: #000000; stroke-width: 0.8"/>
      </g>
     </g>
     <g id="text_45">
      <!-- 0.00 -->
      <g transform="translate(59.404375 462.181061) scale(0.1 -0.1)">
       <use xlink:href="#DejaVuSans-30"/>
       <use xlink:href="#DejaVuSans-2e" x="63.623047"/>
       <use xlink:href="#DejaVuSans-30" x="95.410156"/>
       <use xlink:href="#DejaVuSans-30" x="159.033203"/>
      </g>
     </g>
    </g>
    <g id="ytick_14">
     <g id="line2d_46">
      <g>
       <use xlink:href="#mdeb4e280c6" x="88.67" y="424.550156" style="stroke: #000000; stroke-width: 0.8"/>
      </g>
     </g>
     <g id="text_46">
      <!-- 0.02 -->
      <g transform="translate(59.404375 428.349375) scale(0.1 -0.1)">
       <use xlink:href="#DejaVuSans-30"/>
       <use xlink:href="#DejaVuSans-2e" x="63.623047"/>
       <use xlink:href="#DejaVuSans-30" x="95.410156"/>
       <use xlink:href="#DejaVuSans-32" x="159.033203"/>
      </g>
     </g>
    </g>
    <g id="text_47">
     <!-- Velocity m/s -->
     <g transform="translate(10.587813 476.744375) scale(0.12 -0.12)">
      <defs>
       <path id="DejaVuSans-56" d="M 1831 0 
L 50 4666 
L 709 4666 
L 2188 738 
L 3669 4666 
L 4325 4666 
L 2547 0 
L 1831 0 
z
" transform="scale(0.015625)"/>
       <path id="DejaVuSans-6c" d="M 603 4863 
L 1178 4863 
L 1178 0 
L 603 0 
L 603 4863 
z
" transform="scale(0.015625)"/>
       <path id="DejaVuSans-63" d="M 3122 3366 
L 3122 2828 
Q 2878 2963 2633 3030 
Q 2388 3097 2138 3097 
Q 1578 3097 1268 2742 
Q 959 2388 959 1747 
Q 959 1106 1268 751 
Q 1578 397 2138 397 
Q 2388 397 2633 464 
Q 2878 531 3122 666 
L 3122 134 
Q 2881 22 2623 -34 
Q 2366 -91 2075 -91 
Q 1284 -91 818 406 
Q 353 903 353 1747 
Q 353 2603 823 3093 
Q 1294 3584 2113 3584 
Q 2378 3584 2631 3529 
Q 2884 3475 3122 3366 
z
" transform="scale(0.015625)"/>
       <path id="DejaVuSans-79" d="M 2059 -325 
Q 1816 -950 1584 -1140 
Q 1353 -1331 966 -1331 
L 506 -1331 
L 506 -850 
L 844 -850 
Q 1081 -850 1212 -737 
Q 1344 -625 1503 -206 
L 1606 56 
L 191 3500 
L 800 3500 
L 1894 763 
L 2988 3500 
L 3597 3500 
L 2059 -325 
z
" transform="scale(0.015625)"/>
       <path id="DejaVuSans-2f" d="M 1625 4666 
L 2156 4666 
L 531 -594 
L 0 -594 
L 1625 4666 
z
" transform="scale(0.015625)"/>
      </defs>
      <use xlink:href="#DejaVuSans-56"/>
      <use xlink:href="#DejaVuSans-65" x="60.658203"/>
      <use xlink:href="#DejaVuSans-6c" x="122.181641"/>
      <use xlink:href="#DejaVuSans-6f" x="149.964844"/>
      <use xlink:href="#DejaVuSans-63" x="211.146484"/>
      <use xlink:href="#DejaVuSans-69" x="266.126953"/>
      <use xlink:href="#DejaVuSans-74" x="293.910156"/>
      <use xlink:href="#DejaVuSans-79" x="333.119141"/>
      <use xlink:href="#DejaVuSans-20" x="392.298828"/>
      <use xlink:href="#DejaVuSans-6d" x="424.085938"/>
      <use xlink:href="#DejaVuSans-2f" x="521.498047"/>
      <use xlink:href="#DejaVuSans-73" x="555.189453"/>
     </g>
    </g>
   </g>
   <g id="line2d_47">
    <path d="M 116.875909 458.381842 
L 140.286814 447.620695 
L 152.697414 442.16565 
L 163.1336 437.813468 
L 172.44155 434.164038 
L 181.185382 430.971784 
L 189.365095 428.219911 
L 197.26275 425.799915 
L 204.878345 423.704605 
L 212.211882 421.92226 
L 219.263359 420.437471 
L 226.032777 419.231935 
L 232.802195 418.248734 
L 239.571614 417.493452 
L 246.058973 416.987497 
L 252.546332 416.697455 
L 259.033691 416.624839 
L 265.52105 416.770029 
L 272.008409 417.132266 
L 278.495768 417.70966 
L 285.265186 418.538278 
L 292.034605 419.593172 
L 298.804023 420.868346 
L 305.8555 422.423066 
L 313.189036 424.274859 
L 320.522573 426.353937 
L 328.138168 428.738667 
L 336.317882 431.536787 
L 344.779655 434.665223 
L 354.087605 438.348292 
L 364.241732 442.609839 
L 376.088214 447.832024 
L 391.601464 454.932764 
L 424.884436 470.235223 
L 436.730918 475.396307 
L 446.885045 479.587634 
L 456.192995 483.192661 
L 464.654768 486.239522 
L 472.834482 488.949864 
L 480.450077 491.245634 
L 487.783614 493.233059 
L 495.11715 494.987946 
L 502.168627 496.445134 
L 508.938045 497.623227 
L 515.707464 498.578218 
L 522.476882 499.304681 
L 528.964241 499.782599 
L 535.4516 500.044343 
L 541.938959 500.088546 
L 548.426318 499.914979 
L 554.913677 499.524547 
L 561.401036 498.919287 
L 568.170455 498.0621 
L 574.939873 496.979317 
L 581.709291 495.677092 
L 588.760768 494.095251 
L 596.094305 492.216573 
L 603.7099 490.026872 
L 611.607555 487.515781 
L 619.787268 484.677592 
L 628.5311 481.402905 
L 637.83905 477.67775 
L 648.275236 473.256386 
L 660.403777 467.869659 
L 677.327323 460.085966 
L 680.994091 458.381842 
L 680.994091 458.381842 
" clip-path="url(#pba91edacf3)" style="fill: none; stroke: #1f77b4; stroke-width: 1.5; stroke-linecap: square"/>
   </g>
   <g id="line2d_48">
    <path d="M 116.875909 458.381842 
L 123.363268 458.489175 
L 129.850627 458.813769 
L 136.337986 459.353929 
L 143.107405 460.144342 
L 149.876823 461.161905 
L 156.646241 462.400836 
L 163.697718 463.91918 
L 170.749195 465.660715 
L 178.082732 467.697115 
L 185.698327 470.040472 
L 193.595982 472.698841 
L 202.057755 475.781817 
L 211.083645 479.307728 
L 220.955714 483.403499 
L 232.238077 488.328607 
L 246.623091 494.86715 
L 287.803718 513.743067 
L 299.086082 518.580335 
L 308.95815 522.576628 
L 317.984041 525.994174 
L 326.445814 528.961449 
L 334.343468 531.500434 
L 341.959064 533.719133 
L 349.2926 535.627487 
L 356.344077 537.239298 
L 363.395555 538.622257 
L 370.164973 539.726664 
L 376.934391 540.606019 
L 383.703809 541.255324 
L 390.191168 541.658276 
L 396.678527 541.844451 
L 403.165886 541.812877 
L 409.653245 541.563718 
L 416.140605 541.098274 
L 422.910023 540.38464 
L 429.679441 539.442214 
L 436.448859 538.276352 
L 443.500336 536.831473 
L 450.551814 535.160256 
L 457.88535 533.19318 
L 465.500945 530.917218 
L 473.3986 528.323285 
L 481.860373 525.302623 
L 490.886264 521.834906 
L 500.758332 517.792331 
L 511.758636 513.0386 
L 525.297473 506.929753 
L 574.375755 484.531908 
L 585.094 480.031646 
L 594.684009 476.245662 
L 603.427841 473.029857 
L 611.607555 470.253391 
L 619.505209 467.807496 
L 627.120805 465.685396 
L 634.454341 463.87575 
L 641.505818 462.363492 
L 648.557295 461.084015 
L 655.326714 460.082054 
L 662.096132 459.307597 
L 668.583491 458.782976 
L 675.07085 458.474082 
L 680.994091 458.381842 
L 680.994091 458.381842 
" clip-path="url(#pba91edacf3)" style="fill: none; stroke: #ff7f0e; stroke-width: 1.5; stroke-linecap: square"/>
   </g>
   <g id="patch_14">
    <path d="M 88.67 548.12 
L 88.67 410.36 
" style="fill: none; stroke: #000000; stroke-width: 0.8; stroke-linejoin: miter; stroke-linecap: square"/>
   </g>
   <g id="patch_15">
    <path d="M 709.2 548.12 
L 709.2 410.36 
" style="fill: none; stroke: #000000; stroke-width: 0.8; stroke-linejoin: miter; stroke-linecap: square"/>
   </g>
   <g id="patch_16">
    <path d="M 88.67 548.12 
L 709.2 548.12 
" style="fill: none; stroke: #000000; stroke-width: 0.8; stroke-linejoin: miter; stroke-linecap: square"/>
   </g>
   <g id="patch_17">
    <path d="M 88.67 410.36 
L 709.2 410.36 
" style="fill: none; stroke: #000000; stroke-width: 0.8; stroke-linejoin: miter; stroke-linecap: square"/>
   </g>
   <g id="text_48">
    <!-- Time s -->
    <g transform="translate(379.222188 404.36) scale(0.12 -0.12)">
     <defs>
      <path id="DejaVuSans-54" d="M -19 4666 
L 3928 4666 
L 3928 4134 
L 2272 4134 
L 2272 0 
L 1638 0 
L 1638 4134 
L -19 4134 
L -19 4666 
z
" transform="scale(0.015625)"/>
     </defs>
     <use xlink:href="#DejaVuSans-54"/>
     <use xlink:href="#DejaVuSans-69" x="57.958984"/>
     <use xlink:href="#DejaVuSans-6d" x="85.742188"/>
     <use xlink:href="#DejaVuSans-65" x="183.154297"/>
     <use xlink:href="#DejaVuSans-20" x="244.677734"/>
     <use xlink:href="#DejaVuSans-73" x="276.464844"/>
    </g>
   </g>
   <g id="legend_2">
    <g id="patch_18">
     <path d="M 642.23125 447.71625 
L 702.2 447.71625 
Q 704.2 447.71625 704.2 445.71625 
L 704.2 417.36 
Q 704.2 415.36 702.2 415.36 
L 642.23125 415.36 
Q 640.23125 415.36 640.23125 417.36 
L 640.23125 445.71625 
Q 640.23125 447.71625 642.23125 447.71625 
z
" style="fill: #ffffff; opacity: 0.8; stroke: #cccccc; stroke-linejoin: miter"/>
    </g>
    <g id="line2d_49">
     <path d="M 644.23125 423.458437 
L 654.23125 423.458437 
L 664.23125 423.458437 
" style="fill: none; stroke: #1f77b4; stroke-width: 1.5; stroke-linecap: square"/>
    </g>
    <g id="text_49">
     <!-- East -->
     <g transform="translate(672.23125 426.958437) scale(0.1 -0.1)">
      <use xlink:href="#DejaVuSans-45"/>
      <use xlink:href="#DejaVuSans-61" x="63.183594"/>
      <use xlink:href="#DejaVuSans-73" x="124.462891"/>
      <use xlink:href="#DejaVuSans-74" x="176.5625"/>
     </g>
    </g>
    <g id="line2d_50">
     <path d="M 644.23125 438.136562 
L 654.23125 438.136562 
L 664.23125 438.136562 
" style="fill: none; stroke: #ff7f0e; stroke-width: 1.5; stroke-linecap: square"/>
    </g>
    <g id="text_50">
     <!-- North -->
     <g transform="translate(672.23125 441.636562) scale(0.1 -0.1)">
      <use xlink:href="#DejaVuSans-4e"/>
      <use xlink:href="#DejaVuSans-6f" x="74.804688"/>
      <use xlink:href="#DejaVuSans-72" x="135.986328"/>
      <use xlink:href="#DejaVuSans-74" x="177.099609"/>
      <use xlink:href="#DejaVuSans-68" x="216.308594"/>
     </g>
    </g>
   </g>
  </g>
  <g id="text_51">
   <!-- Deviation from true trajectory (PVA) -->
   <g transform="translate(216.10625 23.6775) scale(0.16 -0.16)">
    <defs>
     <path id="DejaVuSans-44" d="M 1259 4147 
L 1259 519 
L 2022 519 
Q 2988 519 3436 956 
Q 3884 1394 3884 2338 
Q 3884 3275 3436 3711 
Q 2988 4147 2022 4147 
L 1259 4147 
z
M 628 4666 
L 1925 4666 
Q 3281 4666 3915 4102 
Q 4550 3538 4550 2338 
Q 4550 1131 3912 565 
Q 3275 0 1925 0 
L 628 0 
L 628 4666 
z
" transform="scale(0.015625)"/>
     <path id="DejaVuSans-76" d="M 191 3500 
L 800 3500 
L 1894 563 
L 2988 3500 
L 3597 3500 
L 2284 0 
L 1503 0 
L 191 3500 
z
" transform="scale(0.015625)"/>
     <path id="DejaVuSans-66" d="M 2375 4863 
L 2375 4384 
L 1825 4384 
Q 1516 4384 1395 4259 
Q 1275 4134 1275 3809 
L 1275 3500 
L 2222 3500 
L 2222 3053 
L 1275 3053 
L 1275 0 
L 697 0 
L 697 3053 
L 147 3053 
L 147 3500 
L 697 3500 
L 697 3744 
Q 697 4328 969 4595 
Q 1241 4863 1831 4863 
L 2375 4863 
z
" transform="scale(0.015625)"/>
     <path id="DejaVuSans-6a" d="M 603 3500 
L 1178 3500 
L 1178 -63 
Q 1178 -731 923 -1031 
Q 669 -1331 103 -1331 
L -116 -1331 
L -116 -844 
L 38 -844 
Q 366 -844 484 -692 
Q 603 -541 603 -63 
L 603 3500 
z
M 603 4863 
L 1178 4863 
L 1178 4134 
L 603 4134 
L 603 4863 
z
" transform="scale(0.015625)"/>
     <path id="DejaVuSans-28" d="M 1984 4856 
Q 1566 4138 1362 3434 
Q 1159 2731 1159 2009 
Q 1159 1288 1364 580 
Q 1569 -128 1984 -844 
L 1484 -844 
Q 1016 -109 783 600 
Q 550 1309 550 2009 
Q 550 2706 781 3412 
Q 1013 4119 1484 4856 
L 1984 4856 
z
" transform="scale(0.015625)"/>
     <path id="DejaVuSans-29" d="M 513 4856 
L 1013 4856 
Q 1481 4119 1714 3412 
Q 1947 2706 1947 2009 
Q 1947 1309 1714 600 
Q 1481 -109 1013 -844 
L 513 -844 
Q 928 -128 1133 580 
Q 1338 1288 1338 2009 
Q 1338 2731 1133 3434 
Q 928 4138 513 4856 
z
" transform="scale(0.015625)"/>
    </defs>
    <use xlink:href="#DejaVuSans-44"/>
    <use xlink:href="#DejaVuSans-65" x="77.001953"/>
    <use xlink:href="#DejaVuSans-76" x="138.525391"/>
    <use xlink:href="#DejaVuSans-69" x="197.705078"/>
    <use xlink:href="#DejaVuSans-61" x="225.488281"/>
    <use xlink:href="#DejaVuSans-74" x="286.767578"/>
    <use xlink:href="#DejaVuSans-69" x="325.976562"/>
    <use xlink:href="#DejaVuSans-6f" x="353.759766"/>
    <use xlink:href="#DejaVuSans-6e" x="414.941406"/>
    <use xlink:href="#DejaVuSans-20" x="478.320312"/>
    <use xlink:href="#DejaVuSans-66" x="510.107422"/>
    <use xlink:href="#DejaVuSans-72" x="545.3125"/>
    <use xlink:href="#DejaVuSans-6f" x="584.175781"/>
    <use xlink:href="#DejaVuSans-6d" x="645.357422"/>
    <use xlink:href="#DejaVuSans-20" x="742.769531"/>
    <use xlink:href="#DejaVuSans-74" x="774.556641"/>
    <use xlink:href="#DejaVuSans-72" x="813.765625"/>
    <use xlink:href="#DejaVuSans-75" x="854.878906"/>
    <use xlink:href="#DejaVuSans-65" x="918.257812"/>
    <use xlink:href="#DejaVuSans-20" x="979.78125"/>
    <use xlink:href="#DejaVuSans-74" x="1011.568359"/>
    <use xlink:href="#DejaVuSans-72" x="1050.777344"/>
    <use xlink:href="#DejaVuSans-61" x="1091.890625"/>
    <use xlink:href="#DejaVuSans-6a" x="1153.169922"/>
    <use xlink:href="#DejaVuSans-65" x="1180.953125"/>
    <use xlink:href="#DejaVuSans-63" x="1242.476562"/>
    <use xlink:href="#DejaVuSans-74" x="1297.457031"/>
    <use xlink:href="#DejaVuSans-6f" x="1336.666016"/>
    <use xlink:href="#DejaVuSans-72" x="1397.847656"/>
    <use xlink:href="#DejaVuSans-79" x="1438.960938"/>
    <use xlink:href="#DejaVuSans-20" x="1498.140625"/>
    <use xlink:href="#DejaVuSans-28" x="1529.927734"/>
    <use xlink:href="#DejaVuSans-50" x="1568.941406"/>
    <use xlink:href="#DejaVuSans-56" x="1629.244141"/>
    <use xlink:href="#DejaVuSans-41" x="1691.277344"/>
    <use xlink:href="#DejaVuSans-29" x="1759.685547"/>
   </g>
  </g>
 </g>
 <defs>
  <clipPath id="pf4c117f606">
   <rect x="88.67" y="46.92" width="620.53" height="137.76"/>
  </clipPath>
  <clipPath id="pc3ad8c8fbc">
   <rect x="88.67" y="228.64" width="620.53" height="137.76"/>
  </clipPath>
  <clipPath id="pba91edacf3">
   <rect x="88.67" y="410.36" width="620.53" height="137.76"/>
  </clipPath>
 </defs>
</svg>
