<?xml version="1.0" encoding="utf-8" standalone="no"?>
<!DOCTYPE svg PUBLIC "-//W3C//DTD SVG 1.1//EN"
  "http://www.w3.org/Graphics/SVG/1.1/DTD/svg11.dtd">
<svg xmlns:xlink="http://www.w3.org/1999/xlink" width="720pt" height="576pt" viewBox="0 0 720 576" xmlns="http://www.w3.org/2000/svg" version="1.1">
 <metadata>
  <rdf:RDF xmlns:dc="http://purl.org/dc/elements/1.1/" xmlns:cc="http://creativecommons.org/ns#" xmlns:rdf="http://www.w3.org/1999/02/22-rdf-syntax-ns#">
   <cc:Work>
    <dc:type rdf:resource="http://purl.org/dc/dcmitype/StillImage"/>
    <dc:date>2024-04-18T00:16:10.635252</dc:date>
    <dc:format>image/svg+xml</dc:format>
    <dc:creator>
     <cc:Agent>
      <dc:title>Matplotlib v3.7.0, https://matplotlib.org/</dc:title>
     </cc:Agent>
    </dc:creator>
   </cc:Work>
  </rdf:RDF>
 </metadata>
 <defs>
  <style type="text/css">*{stroke-linejoin: round; stroke-linecap: butt}</style>
 </defs>
 <g id="figure_1">
  <g id="patch_1">
   <path d="M 0 576 
L 720 576 
L 720 0 
L 0 0 
z
" style="fill: #ffffff"/>
  </g>
  <g id="axes_1">
   <g id="patch_2">
    <path d="M 90 199.567059 
L 343.636364 199.567059 
L 343.636364 69.12 
L 90 69.12 
z
" style="fill: #ffffff"/>
   </g>
   <g id="matplotlib.axis_1">
    <g id="xtick_1">
     <g id="line2d_1">
      <defs>
       <path id="m18f35a2700" d="M 0 0 
L 0 3.5 
" style="stroke: #000000; stroke-width: 0.8"/>
      </defs>
      <g>
       <use xlink:href="#m18f35a2700" x="101.528926" y="199.567059" style="stroke: #000000; stroke-width: 0.8"/>
      </g>
     </g>
    </g>
    <g id="xtick_2">
     <g id="line2d_2">
      <g>
       <use xlink:href="#m18f35a2700" x="159.173554" y="199.567059" style="stroke: #000000; stroke-width: 0.8"/>
      </g>
     </g>
    </g>
    <g id="xtick_3">
     <g id="line2d_3">
      <g>
       <use xlink:href="#m18f35a2700" x="216.818182" y="199.567059" style="stroke: #000000; stroke-width: 0.8"/>
      </g>
     </g>
    </g>
    <g id="xtick_4">
     <g id="line2d_4">
      <g>
       <use xlink:href="#m18f35a2700" x="274.46281" y="199.567059" style="stroke: #000000; stroke-width: 0.8"/>
      </g>
     </g>
    </g>
    <g id="xtick_5">
     <g id="line2d_5">
      <g>
       <use xlink:href="#m18f35a2700" x="332.107438" y="199.567059" style="stroke: #000000; stroke-width: 0.8"/>
      </g>
     </g>
    </g>
   </g>
   <g id="matplotlib.axis_2">
    <g id="ytick_1">
     <g id="line2d_6">
      <defs>
       <path id="m839fa799cf" d="M 0 0 
L -3.5 0 
" style="stroke: #000000; stroke-width: 0.8"/>
      </defs>
      <g>
       <use xlink:href="#m839fa799cf" x="90" y="185.536898" style="stroke: #000000; stroke-width: 0.8"/>
      </g>
     </g>
     <g id="text_1">
      <!-- 2 -->
      <g transform="translate(76.6375 189.336117) scale(0.1 -0.1)">
       <defs>
        <path id="DejaVuSans-32" d="M 1228 531 
L 3431 531 
L 3431 0 
L 469 0 
L 469 531 
Q 828 903 1448 1529 
Q 2069 2156 2228 2338 
Q 2531 2678 2651 2914 
Q 2772 3150 2772 3378 
Q 2772 3750 2511 3984 
Q 2250 4219 1831 4219 
Q 1534 4219 1204 4116 
Q 875 4013 500 3803 
L 500 4441 
Q 881 4594 1212 4672 
Q 1544 4750 1819 4750 
Q 2544 4750 2975 4387 
Q 3406 4025 3406 3419 
Q 3406 3131 3298 2873 
Q 3191 2616 2906 2266 
Q 2828 2175 2409 1742 
Q 1991 1309 1228 531 
z
" transform="scale(0.015625)"/>
       </defs>
       <use xlink:href="#DejaVuSans-32"/>
      </g>
     </g>
    </g>
    <g id="ytick_2">
     <g id="line2d_7">
      <g>
       <use xlink:href="#m839fa799cf" x="90" y="147.789091" style="stroke: #000000; stroke-width: 0.8"/>
      </g>
     </g>
     <g id="text_2">
      <!-- 4 -->
      <g transform="translate(76.6375 151.588309) scale(0.1 -0.1)">
       <defs>
        <path id="DejaVuSans-34" d="M 2419 4116 
L 825 1625 
L 2419 1625 
L 2419 4116 
z
M 2253 4666 
L 3047 4666 
L 3047 1625 
L 3713 1625 
L 3713 1100 
L 3047 1100 
L 3047 0 
L 2419 0 
L 2419 1100 
L 313 1100 
L 313 1709 
L 2253 4666 
z
" transform="scale(0.015625)"/>
       </defs>
       <use xlink:href="#DejaVuSans-34"/>
      </g>
     </g>
    </g>
    <g id="ytick_3">
     <g id="line2d_8">
      <g>
       <use xlink:href="#m839fa799cf" x="90" y="110.041283" style="stroke: #000000; stroke-width: 0.8"/>
      </g>
     </g>
     <g id="text_3">
      <!-- 6 -->
      <g transform="translate(76.6375 113.840502) scale(0.1 -0.1)">
       <defs>
        <path id="DejaVuSans-36" d="M 2113 2584 
Q 1688 2584 1439 2293 
Q 1191 2003 1191 1497 
Q 1191 994 1439 701 
Q 1688 409 2113 409 
Q 2538 409 2786 701 
Q 3034 994 3034 1497 
Q 3034 2003 2786 2293 
Q 2538 2584 2113 2584 
z
M 3366 4563 
L 3366 3988 
Q 3128 4100 2886 4159 
Q 2644 4219 2406 4219 
Q 1781 4219 1451 3797 
Q 1122 3375 1075 2522 
Q 1259 2794 1537 2939 
Q 1816 3084 2150 3084 
Q 2853 3084 3261 2657 
Q 3669 2231 3669 1497 
Q 3669 778 3244 343 
Q 2819 -91 2113 -91 
Q 1303 -91 875 529 
Q 447 1150 447 2328 
Q 447 3434 972 4092 
Q 1497 4750 2381 4750 
Q 2619 4750 2861 4703 
Q 3103 4656 3366 4563 
z
" transform="scale(0.015625)"/>
       </defs>
       <use xlink:href="#DejaVuSans-36"/>
      </g>
     </g>
    </g>
    <g id="ytick_4">
     <g id="line2d_9">
      <g>
       <use xlink:href="#m839fa799cf" x="90" y="72.293475" style="stroke: #000000; stroke-width: 0.8"/>
      </g>
     </g>
     <g id="text_4">
      <!-- 8 -->
      <g transform="translate(76.6375 76.092694) scale(0.1 -0.1)">
       <defs>
        <path id="DejaVuSans-38" d="M 2034 2216 
Q 1584 2216 1326 1975 
Q 1069 1734 1069 1313 
Q 1069 891 1326 650 
Q 1584 409 2034 409 
Q 2484 409 2743 651 
Q 3003 894 3003 1313 
Q 3003 1734 2745 1975 
Q 2488 2216 2034 2216 
z
M 1403 2484 
Q 997 2584 770 2862 
Q 544 3141 544 3541 
Q 544 4100 942 4425 
Q 1341 4750 2034 4750 
Q 2731 4750 3128 4425 
Q 3525 4100 3525 3541 
Q 3525 3141 3298 2862 
Q 3072 2584 2669 2484 
Q 3125 2378 3379 2068 
Q 3634 1759 3634 1313 
Q 3634 634 3220 271 
Q 2806 -91 2034 -91 
Q 1263 -91 848 271 
Q 434 634 434 1313 
Q 434 1759 690 2068 
Q 947 2378 1403 2484 
z
M 1172 3481 
Q 1172 3119 1398 2916 
Q 1625 2713 2034 2713 
Q 2441 2713 2670 2916 
Q 2900 3119 2900 3481 
Q 2900 3844 2670 4047 
Q 2441 4250 2034 4250 
Q 1625 4250 1398 4047 
Q 1172 3844 1172 3481 
z
" transform="scale(0.015625)"/>
       </defs>
       <use xlink:href="#DejaVuSans-38"/>
      </g>
     </g>
    </g>
    <g id="text_5">
     <!-- Azimuth [rad] -->
     <g transform="translate(49.037187 175.606654) rotate(-90) scale(0.12 -0.12)">
      <defs>
       <path id="DejaVuSans-41" d="M 2188 4044 
L 1331 1722 
L 3047 1722 
L 2188 4044 
z
M 1831 4666 
L 2547 4666 
L 4325 0 
L 3669 0 
L 3244 1197 
L 1141 1197 
L 716 0 
L 50 0 
L 1831 4666 
z
" transform="scale(0.015625)"/>
       <path id="DejaVuSans-7a" d="M 353 3500 
L 3084 3500 
L 3084 2975 
L 922 459 
L 3084 459 
L 3084 0 
L 275 0 
L 275 525 
L 2438 3041 
L 353 3041 
L 353 3500 
z
" transform="scale(0.015625)"/>
       <path id="DejaVuSans-69" d="M 603 3500 
L 1178 3500 
L 1178 0 
L 603 0 
L 603 3500 
z
M 603 4863 
L 1178 4863 
L 1178 4134 
L 603 4134 
L 603 4863 
z
" transform="scale(0.015625)"/>
       <path id="DejaVuSans-6d" d="M 3328 2828 
Q 3544 3216 3844 3400 
Q 4144 3584 4550 3584 
Q 5097 3584 5394 3201 
Q 5691 2819 5691 2113 
L 5691 0 
L 5113 0 
L 5113 2094 
Q 5113 2597 4934 2840 
Q 4756 3084 4391 3084 
Q 3944 3084 3684 2787 
Q 3425 2491 3425 1978 
L 3425 0 
L 2847 0 
L 2847 2094 
Q 2847 2600 2669 2842 
Q 2491 3084 2119 3084 
Q 1678 3084 1418 2786 
Q 1159 2488 1159 1978 
L 1159 0 
L 581 0 
L 581 3500 
L 1159 3500 
L 1159 2956 
Q 1356 3278 1631 3431 
Q 1906 3584 2284 3584 
Q 2666 3584 2933 3390 
Q 3200 3197 3328 2828 
z
" transform="scale(0.015625)"/>
       <path id="DejaVuSans-75" d="M 544 1381 
L 544 3500 
L 1119 3500 
L 1119 1403 
Q 1119 906 1312 657 
Q 1506 409 1894 409 
Q 2359 409 2629 706 
Q 2900 1003 2900 1516 
L 2900 3500 
L 3475 3500 
L 3475 0 
L 2900 0 
L 2900 538 
Q 2691 219 2414 64 
Q 2138 -91 1772 -91 
Q 1169 -91 856 284 
Q 544 659 544 1381 
z
M 1991 3584 
L 1991 3584 
z
" transform="scale(0.015625)"/>
       <path id="DejaVuSans-74" d="M 1172 4494 
L 1172 3500 
L 2356 3500 
L 2356 3053 
L 1172 3053 
L 1172 1153 
Q 1172 725 1289 603 
Q 1406 481 1766 481 
L 2356 481 
L 2356 0 
L 1766 0 
Q 1100 0 847 248 
Q 594 497 594 1153 
L 594 3053 
L 172 3053 
L 172 3500 
L 594 3500 
L 594 4494 
L 1172 4494 
z
" transform="scale(0.015625)"/>
       <path id="DejaVuSans-68" d="M 3513 2113 
L 3513 0 
L 2938 0 
L 2938 2094 
Q 2938 2591 2744 2837 
Q 2550 3084 2163 3084 
Q 1697 3084 1428 2787 
Q 1159 2491 1159 1978 
L 1159 0 
L 581 0 
L 581 4863 
L 1159 4863 
L 1159 2956 
Q 1366 3272 1645 3428 
Q 1925 3584 2291 3584 
Q 2894 3584 3203 3211 
Q 3513 2838 3513 2113 
z
" transform="scale(0.015625)"/>
       <path id="DejaVuSans-20" transform="scale(0.015625)"/>
       <path id="DejaVuSans-5b" d="M 550 4863 
L 1875 4863 
L 1875 4416 
L 1125 4416 
L 1125 -397 
L 1875 -397 
L 1875 -844 
L 550 -844 
L 550 4863 
z
" transform="scale(0.015625)"/>
       <path id="DejaVuSans-72" d="M 2631 2963 
Q 2534 3019 2420 3045 
Q 2306 3072 2169 3072 
Q 1681 3072 1420 2755 
Q 1159 2438 1159 1844 
L 1159 0 
L 581 0 
L 581 3500 
L 1159 3500 
L 1159 2956 
Q 1341 3275 1631 3429 
Q 1922 3584 2338 3584 
Q 2397 3584 2469 3576 
Q 2541 3569 2628 3553 
L 2631 2963 
z
" transform="scale(0.015625)"/>
       <path id="DejaVuSans-61" d="M 2194 1759 
Q 1497 1759 1228 1600 
Q 959 1441 959 1056 
Q 959 750 1161 570 
Q 1363 391 1709 391 
Q 2188 391 2477 730 
Q 2766 1069 2766 1631 
L 2766 1759 
L 2194 1759 
z
M 3341 1997 
L 3341 0 
L 2766 0 
L 2766 531 
Q 2569 213 2275 61 
Q 1981 -91 1556 -91 
Q 1019 -91 701 211 
Q 384 513 384 1019 
Q 384 1609 779 1909 
Q 1175 2209 1959 2209 
L 2766 2209 
L 2766 2266 
Q 2766 2663 2505 2880 
Q 2244 3097 1772 3097 
Q 1472 3097 1187 3025 
Q 903 2953 641 2809 
L 641 3341 
Q 956 3463 1253 3523 
Q 1550 3584 1831 3584 
Q 2591 3584 2966 3190 
Q 3341 2797 3341 1997 
z
" transform="scale(0.015625)"/>
       <path id="DejaVuSans-64" d="M 2906 2969 
L 2906 4863 
L 3481 4863 
L 3481 0 
L 2906 0 
L 2906 525 
Q 2725 213 2448 61 
Q 2172 -91 1784 -91 
Q 1150 -91 751 415 
Q 353 922 353 1747 
Q 353 2572 751 3078 
Q 1150 3584 1784 3584 
Q 2172 3584 2448 3432 
Q 2725 3281 2906 2969 
z
M 947 1747 
Q 947 1113 1208 752 
Q 1469 391 1925 391 
Q 2381 391 2643 752 
Q 2906 1113 2906 1747 
Q 2906 2381 2643 2742 
Q 2381 3103 1925 3103 
Q 1469 3103 1208 2742 
Q 947 2381 947 1747 
z
" transform="scale(0.015625)"/>
       <path id="DejaVuSans-5d" d="M 1947 4863 
L 1947 -844 
L 622 -844 
L 622 -397 
L 1369 -397 
L 1369 4416 
L 622 4416 
L 622 4863 
L 1947 4863 
z
" transform="scale(0.015625)"/>
      </defs>
      <use xlink:href="#DejaVuSans-41"/>
      <use xlink:href="#DejaVuSans-7a" x="68.408203"/>
      <use xlink:href="#DejaVuSans-69" x="120.898438"/>
      <use xlink:href="#DejaVuSans-6d" x="148.681641"/>
      <use xlink:href="#DejaVuSans-75" x="246.09375"/>
      <use xlink:href="#DejaVuSans-74" x="309.472656"/>
      <use xlink:href="#DejaVuSans-68" x="348.681641"/>
      <use xlink:href="#DejaVuSans-20" x="412.060547"/>
      <use xlink:href="#DejaVuSans-5b" x="443.847656"/>
      <use xlink:href="#DejaVuSans-72" x="482.861328"/>
      <use xlink:href="#DejaVuSans-61" x="523.974609"/>
      <use xlink:href="#DejaVuSans-64" x="585.253906"/>
      <use xlink:href="#DejaVuSans-5d" x="648.730469"/>
     </g>
    </g>
   </g>
   <g id="line2d_10">
    <path d="M 101.528926 193.637647 
L 332.107438 75.049412 
L 332.107438 75.049412 
" clip-path="url(#p5d3586d621)" style="fill: none; stroke: #1f77b4; stroke-width: 1.5; stroke-linecap: square"/>
   </g>
   <g id="patch_3">
    <path d="M 90 199.567059 
L 90 69.12 
" style="fill: none; stroke: #000000; stroke-width: 0.8; stroke-linejoin: miter; stroke-linecap: square"/>
   </g>
   <g id="patch_4">
    <path d="M 343.636364 199.567059 
L 343.636364 69.12 
" style="fill: none; stroke: #000000; stroke-width: 0.8; stroke-linejoin: miter; stroke-linecap: square"/>
   </g>
   <g id="patch_5">
    <path d="M 90 199.567059 
L 343.636364 199.567059 
" style="fill: none; stroke: #000000; stroke-width: 0.8; stroke-linejoin: miter; stroke-linecap: square"/>
   </g>
   <g id="patch_6">
    <path d="M 90 69.12 
L 343.636364 69.12 
" style="fill: none; stroke: #000000; stroke-width: 0.8; stroke-linejoin: miter; stroke-linecap: square"/>
   </g>
   <g id="text_6">
    <!-- Estimated -->
    <g transform="translate(186.507869 63.12) scale(0.12 -0.12)">
     <defs>
      <path id="DejaVuSans-45" d="M 628 4666 
L 3578 4666 
L 3578 4134 
L 1259 4134 
L 1259 2753 
L 3481 2753 
L 3481 2222 
L 1259 2222 
L 1259 531 
L 3634 531 
L 3634 0 
L 628 0 
L 628 4666 
z
" transform="scale(0.015625)"/>
      <path id="DejaVuSans-73" d="M 2834 3397 
L 2834 2853 
Q 2591 2978 2328 3040 
Q 2066 3103 1784 3103 
Q 1356 3103 1142 2972 
Q 928 2841 928 2578 
Q 928 2378 1081 2264 
Q 1234 2150 1697 2047 
L 1894 2003 
Q 2506 1872 2764 1633 
Q 3022 1394 3022 966 
Q 3022 478 2636 193 
Q 2250 -91 1575 -91 
Q 1294 -91 989 -36 
Q 684 19 347 128 
L 347 722 
Q 666 556 975 473 
Q 1284 391 1588 391 
Q 1994 391 2212 530 
Q 2431 669 2431 922 
Q 2431 1156 2273 1281 
Q 2116 1406 1581 1522 
L 1381 1569 
Q 847 1681 609 1914 
Q 372 2147 372 2553 
Q 372 3047 722 3315 
Q 1072 3584 1716 3584 
Q 2034 3584 2315 3537 
Q 2597 3491 2834 3397 
z
" transform="scale(0.015625)"/>
      <path id="DejaVuSans-65" d="M 3597 1894 
L 3597 1613 
L 953 1613 
Q 991 1019 1311 708 
Q 1631 397 2203 397 
Q 2534 397 2845 478 
Q 3156 559 3463 722 
L 3463 178 
Q 3153 47 2828 -22 
Q 2503 -91 2169 -91 
Q 1331 -91 842 396 
Q 353 884 353 1716 
Q 353 2575 817 3079 
Q 1281 3584 2069 3584 
Q 2775 3584 3186 3129 
Q 3597 2675 3597 1894 
z
M 3022 2063 
Q 3016 2534 2758 2815 
Q 2500 3097 2075 3097 
Q 1594 3097 1305 2825 
Q 1016 2553 972 2059 
L 3022 2063 
z
" transform="scale(0.015625)"/>
     </defs>
     <use xlink:href="#DejaVuSans-45"/>
     <use xlink:href="#DejaVuSans-73" x="63.183594"/>
     <use xlink:href="#DejaVuSans-74" x="115.283203"/>
     <use xlink:href="#DejaVuSans-69" x="154.492188"/>
     <use xlink:href="#DejaVuSans-6d" x="182.275391"/>
     <use xlink:href="#DejaVuSans-61" x="279.6875"/>
     <use xlink:href="#DejaVuSans-74" x="340.966797"/>
     <use xlink:href="#DejaVuSans-65" x="380.175781"/>
     <use xlink:href="#DejaVuSans-64" x="441.699219"/>
    </g>
   </g>
  </g>
  <g id="axes_2">
   <g id="patch_7">
    <path d="M 394.363636 199.567059 
L 648 199.567059 
L 648 69.12 
L 394.363636 69.12 
z
" style="fill: #ffffff"/>
   </g>
   <g id="matplotlib.axis_3">
    <g id="xtick_6">
     <g id="line2d_11">
      <g>
       <use xlink:href="#m18f35a2700" x="405.892562" y="199.567059" style="stroke: #000000; stroke-width: 0.8"/>
      </g>
     </g>
    </g>
    <g id="xtick_7">
     <g id="line2d_12">
      <g>
       <use xlink:href="#m18f35a2700" x="463.53719" y="199.567059" style="stroke: #000000; stroke-width: 0.8"/>
      </g>
     </g>
    </g>
    <g id="xtick_8">
     <g id="line2d_13">
      <g>
       <use xlink:href="#m18f35a2700" x="521.181818" y="199.567059" style="stroke: #000000; stroke-width: 0.8"/>
      </g>
     </g>
    </g>
    <g id="xtick_9">
     <g id="line2d_14">
      <g>
       <use xlink:href="#m18f35a2700" x="578.826446" y="199.567059" style="stroke: #000000; stroke-width: 0.8"/>
      </g>
     </g>
    </g>
    <g id="xtick_10">
     <g id="line2d_15">
      <g>
       <use xlink:href="#m18f35a2700" x="636.471074" y="199.567059" style="stroke: #000000; stroke-width: 0.8"/>
      </g>
     </g>
    </g>
   </g>
   <g id="matplotlib.axis_4">
    <g id="ytick_5">
     <g id="line2d_16">
      <g>
       <use xlink:href="#m839fa799cf" x="394.363636" y="185.536898" style="stroke: #000000; stroke-width: 0.8"/>
      </g>
     </g>
    </g>
    <g id="ytick_6">
     <g id="line2d_17">
      <g>
       <use xlink:href="#m839fa799cf" x="394.363636" y="147.789091" style="stroke: #000000; stroke-width: 0.8"/>
      </g>
     </g>
    </g>
    <g id="ytick_7">
     <g id="line2d_18">
      <g>
       <use xlink:href="#m839fa799cf" x="394.363636" y="110.041283" style="stroke: #000000; stroke-width: 0.8"/>
      </g>
     </g>
    </g>
    <g id="ytick_8">
     <g id="line2d_19">
      <g>
       <use xlink:href="#m839fa799cf" x="394.363636" y="72.293475" style="stroke: #000000; stroke-width: 0.8"/>
      </g>
     </g>
    </g>
   </g>
   <g id="line2d_20">
    <path d="M 405.892562 193.637647 
L 636.471074 75.049412 
L 636.471074 75.049412 
" clip-path="url(#paf990a40ac)" style="fill: none; stroke: #1f77b4; stroke-width: 1.5; stroke-linecap: square"/>
   </g>
   <g id="patch_8">
    <path d="M 394.363636 199.567059 
L 394.363636 69.12 
" style="fill: none; stroke: #000000; stroke-width: 0.8; stroke-linejoin: miter; stroke-linecap: square"/>
   </g>
   <g id="patch_9">
    <path d="M 648 199.567059 
L 648 69.12 
" style="fill: none; stroke: #000000; stroke-width: 0.8; stroke-linejoin: miter; stroke-linecap: square"/>
   </g>
   <g id="patch_10">
    <path d="M 394.363636 199.567059 
L 648 199.567059 
" style="fill: none; stroke: #000000; stroke-width: 0.8; stroke-linejoin: miter; stroke-linecap: square"/>
   </g>
   <g id="patch_11">
    <path d="M 394.363636 69.12 
L 648 69.12 
" style="fill: none; stroke: #000000; stroke-width: 0.8; stroke-linejoin: miter; stroke-linecap: square"/>
   </g>
   <g id="text_7">
    <!-- True -->
    <g transform="translate(508.441193 63.12) scale(0.12 -0.12)">
     <defs>
      <path id="DejaVuSans-54" d="M -19 4666 
L 3928 4666 
L 3928 4134 
L 2272 4134 
L 2272 0 
L 1638 0 
L 1638 4134 
L -19 4134 
L -19 4666 
z
" transform="scale(0.015625)"/>
     </defs>
     <use xlink:href="#DejaVuSans-54"/>
     <use xlink:href="#DejaVuSans-72" x="46.333984"/>
     <use xlink:href="#DejaVuSans-75" x="87.447266"/>
     <use xlink:href="#DejaVuSans-65" x="150.826172"/>
    </g>
   </g>
  </g>
  <g id="axes_3">
   <g id="patch_12">
    <path d="M 90 356.103529 
L 343.636364 356.103529 
L 343.636364 225.656471 
L 90 225.656471 
z
" style="fill: #ffffff"/>
   </g>
   <g id="matplotlib.axis_5">
    <g id="xtick_11">
     <g id="line2d_21">
      <g>
       <use xlink:href="#m18f35a2700" x="101.528926" y="356.103529" style="stroke: #000000; stroke-width: 0.8"/>
      </g>
     </g>
    </g>
    <g id="xtick_12">
     <g id="line2d_22">
      <g>
       <use xlink:href="#m18f35a2700" x="159.173554" y="356.103529" style="stroke: #000000; stroke-width: 0.8"/>
      </g>
     </g>
    </g>
    <g id="xtick_13">
     <g id="line2d_23">
      <g>
       <use xlink:href="#m18f35a2700" x="216.818182" y="356.103529" style="stroke: #000000; stroke-width: 0.8"/>
      </g>
     </g>
    </g>
    <g id="xtick_14">
     <g id="line2d_24">
      <g>
       <use xlink:href="#m18f35a2700" x="274.46281" y="356.103529" style="stroke: #000000; stroke-width: 0.8"/>
      </g>
     </g>
    </g>
    <g id="xtick_15">
     <g id="line2d_25">
      <g>
       <use xlink:href="#m18f35a2700" x="332.107438" y="356.103529" style="stroke: #000000; stroke-width: 0.8"/>
      </g>
     </g>
    </g>
   </g>
   <g id="matplotlib.axis_6">
    <g id="ytick_9">
     <g id="line2d_26">
      <g>
       <use xlink:href="#m839fa799cf" x="90" y="336.295299" style="stroke: #000000; stroke-width: 0.8"/>
      </g>
     </g>
     <g id="text_8">
      <!-- −400 -->
      <g transform="translate(55.532812 340.094518) scale(0.1 -0.1)">
       <defs>
        <path id="DejaVuSans-2212" d="M 678 2272 
L 4684 2272 
L 4684 1741 
L 678 1741 
L 678 2272 
z
" transform="scale(0.015625)"/>
        <path id="DejaVuSans-30" d="M 2034 4250 
Q 1547 4250 1301 3770 
Q 1056 3291 1056 2328 
Q 1056 1369 1301 889 
Q 1547 409 2034 409 
Q 2525 409 2770 889 
Q 3016 1369 3016 2328 
Q 3016 3291 2770 3770 
Q 2525 4250 2034 4250 
z
M 2034 4750 
Q 2819 4750 3233 4129 
Q 3647 3509 3647 2328 
Q 3647 1150 3233 529 
Q 2819 -91 2034 -91 
Q 1250 -91 836 529 
Q 422 1150 422 2328 
Q 422 3509 836 4129 
Q 1250 4750 2034 4750 
z
" transform="scale(0.015625)"/>
       </defs>
       <use xlink:href="#DejaVuSans-2212"/>
       <use xlink:href="#DejaVuSans-34" x="83.789062"/>
       <use xlink:href="#DejaVuSans-30" x="147.412109"/>
       <use xlink:href="#DejaVuSans-30" x="211.035156"/>
      </g>
     </g>
    </g>
    <g id="ytick_10">
     <g id="line2d_27">
      <g>
       <use xlink:href="#m839fa799cf" x="90" y="313.196413" style="stroke: #000000; stroke-width: 0.8"/>
      </g>
     </g>
     <g id="text_9">
      <!-- −200 -->
      <g transform="translate(55.532812 316.995632) scale(0.1 -0.1)">
       <use xlink:href="#DejaVuSans-2212"/>
       <use xlink:href="#DejaVuSans-32" x="83.789062"/>
       <use xlink:href="#DejaVuSans-30" x="147.412109"/>
       <use xlink:href="#DejaVuSans-30" x="211.035156"/>
      </g>
     </g>
    </g>
    <g id="ytick_11">
     <g id="line2d_28">
      <g>
       <use xlink:href="#m839fa799cf" x="90" y="290.097527" style="stroke: #000000; stroke-width: 0.8"/>
      </g>
     </g>
     <g id="text_10">
      <!-- 0 -->
      <g transform="translate(76.6375 293.896746) scale(0.1 -0.1)">
       <use xlink:href="#DejaVuSans-30"/>
      </g>
     </g>
    </g>
    <g id="ytick_12">
     <g id="line2d_29">
      <g>
       <use xlink:href="#m839fa799cf" x="90" y="266.998641" style="stroke: #000000; stroke-width: 0.8"/>
      </g>
     </g>
     <g id="text_11">
      <!-- 200 -->
      <g transform="translate(63.9125 270.797859) scale(0.1 -0.1)">
       <use xlink:href="#DejaVuSans-32"/>
       <use xlink:href="#DejaVuSans-30" x="63.623047"/>
       <use xlink:href="#DejaVuSans-30" x="127.246094"/>
      </g>
     </g>
    </g>
    <g id="ytick_13">
     <g id="line2d_30">
      <g>
       <use xlink:href="#m839fa799cf" x="90" y="243.899754" style="stroke: #000000; stroke-width: 0.8"/>
      </g>
     </g>
     <g id="text_12">
      <!-- 400 -->
      <g transform="translate(63.9125 247.698973) scale(0.1 -0.1)">
       <use xlink:href="#DejaVuSans-34"/>
       <use xlink:href="#DejaVuSans-30" x="63.623047"/>
       <use xlink:href="#DejaVuSans-30" x="127.246094"/>
      </g>
     </g>
    </g>
    <g id="text_13">
     <!-- Position [m] -->
     <g transform="translate(49.037187 326.67) rotate(-90) scale(0.12 -0.12)">
      <defs>
       <path id="DejaVuSans-50" d="M 1259 4147 
L 1259 2394 
L 2053 2394 
Q 2494 2394 2734 2622 
Q 2975 2850 2975 3272 
Q 2975 3691 2734 3919 
Q 2494 4147 2053 4147 
L 1259 4147 
z
M 628 4666 
L 2053 4666 
Q 2838 4666 3239 4311 
Q 3641 3956 3641 3272 
Q 3641 2581 3239 2228 
Q 2838 1875 2053 1875 
L 1259 1875 
L 1259 0 
L 628 0 
L 628 4666 
z
" transform="scale(0.015625)"/>
       <path id="DejaVuSans-6f" d="M 1959 3097 
Q 1497 3097 1228 2736 
Q 959 2375 959 1747 
Q 959 1119 1226 758 
Q 1494 397 1959 397 
Q 2419 397 2687 759 
Q 2956 1122 2956 1747 
Q 2956 2369 2687 2733 
Q 2419 3097 1959 3097 
z
M 1959 3584 
Q 2709 3584 3137 3096 
Q 3566 2609 3566 1747 
Q 3566 888 3137 398 
Q 2709 -91 1959 -91 
Q 1206 -91 779 398 
Q 353 888 353 1747 
Q 353 2609 779 3096 
Q 1206 3584 1959 3584 
z
" transform="scale(0.015625)"/>
       <path id="DejaVuSans-6e" d="M 3513 2113 
L 3513 0 
L 2938 0 
L 2938 2094 
Q 2938 2591 2744 2837 
Q 2550 3084 2163 3084 
Q 1697 3084 1428 2787 
Q 1159 2491 1159 1978 
L 1159 0 
L 581 0 
L 581 3500 
L 1159 3500 
L 1159 2956 
Q 1366 3272 1645 3428 
Q 1925 3584 2291 3584 
Q 2894 3584 3203 3211 
Q 3513 2838 3513 2113 
z
" transform="scale(0.015625)"/>
      </defs>
      <use xlink:href="#DejaVuSans-50"/>
      <use xlink:href="#DejaVuSans-6f" x="56.677734"/>
      <use xlink:href="#DejaVuSans-73" x="117.859375"/>
      <use xlink:href="#DejaVuSans-69" x="169.958984"/>
      <use xlink:href="#DejaVuSans-74" x="197.742188"/>
      <use xlink:href="#DejaVuSans-69" x="236.951172"/>
      <use xlink:href="#DejaVuSans-6f" x="264.734375"/>
      <use xlink:href="#DejaVuSans-6e" x="325.916016"/>
      <use xlink:href="#DejaVuSans-20" x="389.294922"/>
      <use xlink:href="#DejaVuSans-5b" x="421.082031"/>
      <use xlink:href="#DejaVuSans-6d" x="460.095703"/>
      <use xlink:href="#DejaVuSans-5d" x="557.507812"/>
     </g>
    </g>
   </g>
   <g id="line2d_31">
    <path d="M 101.528926 232.350311 
L 103.800124 232.460899 
L 106.082851 232.79461 
L 108.388636 233.357064 
L 110.740537 234.161985 
L 113.138554 235.219982 
L 115.605744 236.554088 
L 118.153636 238.187072 
L 120.805289 240.153904 
L 123.58376 242.496549 
L 126.500579 245.251762 
L 129.590331 248.482251 
L 132.876074 252.245082 
L 136.426983 256.657451 
L 140.312231 261.849423 
L 144.658636 268.04043 
L 149.76595 275.718802 
L 156.591074 286.41546 
L 170.933058 308.988141 
L 176.144132 316.705202 
L 180.536653 322.823101 
L 184.444959 327.89436 
L 188.018926 332.174867 
L 191.327727 335.7977 
L 194.429008 338.870223 
L 197.357355 341.464456 
L 200.147355 343.643734 
L 202.810537 345.446287 
L 205.369959 346.914259 
L 207.848678 348.082372 
L 210.258223 348.973756 
L 212.610124 349.608201 
L 214.915909 350.001888 
L 217.198636 350.167589 
L 219.481364 350.109909 
L 221.764091 349.829236 
L 224.069876 349.32064 
L 226.410248 348.575351 
L 228.808264 347.575741 
L 231.263926 346.309176 
L 233.811818 344.741454 
L 236.451942 342.852775 
L 239.218884 340.595597 
L 242.124174 337.933896 
L 245.202397 334.806292 
L 248.48814 331.143937 
L 252.027521 326.858207 
L 255.90124 321.809229 
L 260.247645 315.767408 
L 265.354959 308.271175 
L 272.237727 297.740452 
L 285.957149 276.680028 
L 291.179752 269.129442 
L 295.572273 263.160044 
L 299.46905 258.230376 
L 303.031488 254.074903 
L 306.32876 250.563516 
L 309.418512 247.591817 
L 312.335331 245.08921 
L 315.113802 242.993816 
L 317.765455 241.268203 
L 320.313347 239.871168 
L 322.780537 238.768876 
L 325.178554 237.938616 
L 327.518926 237.361152 
L 329.824711 237.019658 
L 332.107438 236.905444 
L 332.107438 236.905444 
" clip-path="url(#p3256356d89)" style="fill: none; stroke: #1f77b4; stroke-width: 1.5; stroke-linecap: square"/>
   </g>
   <g id="line2d_32">
    <path d="M 101.528926 290.097527 
L 112.239298 273.450819 
L 117.646364 265.471458 
L 122.142645 259.22248 
L 126.108595 254.082437 
L 129.717149 249.761714 
L 133.060537 246.09888 
L 136.184876 242.999606 
L 139.136281 240.380091 
L 141.93781 238.186153 
L 144.612521 236.369383 
L 147.183471 234.888186 
L 149.66219 233.713055 
L 152.071736 232.813922 
L 154.423636 232.171261 
L 156.74095 231.767616 
L 159.023678 231.594374 
L 161.294876 231.643673 
L 163.577603 231.915818 
L 165.883388 232.416155 
L 168.22376 233.153694 
L 170.610248 234.140863 
L 173.065909 235.400197 
L 175.602273 236.954284 
L 178.242397 238.837375 
L 180.99781 241.081023 
L 183.89157 243.729713 
L 186.946736 246.833325 
L 190.197893 250.458721 
L 193.691157 254.693024 
L 197.507231 259.67569 
L 201.772934 265.622162 
L 206.730372 272.929429 
L 213.163512 282.836731 
L 229.488471 308.155141 
L 234.503554 315.413398 
L 238.792314 321.239396 
L 242.619917 326.073201 
L 246.13624 330.163013 
L 249.398926 333.623186 
L 252.454091 336.546319 
L 255.347851 339.013697 
L 258.103264 341.076186 
L 260.743388 342.778829 
L 263.279752 344.154121 
L 265.735413 345.236104 
L 268.121901 346.047745 
L 270.462273 346.61067 
L 272.768058 346.937362 
L 275.050785 347.036672 
L 277.321983 346.913786 
L 279.604711 346.567933 
L 281.922025 345.990208 
L 284.273926 345.172779 
L 286.683471 344.0973 
L 289.16219 342.744429 
L 291.73314 341.083743 
L 294.407851 339.086347 
L 297.197851 336.72114 
L 300.137727 333.932519 
L 303.250537 330.66782 
L 306.570868 326.857779 
L 310.167893 322.384357 
L 314.110785 317.117052 
L 318.56095 310.789407 
L 323.864256 302.844153 
L 331.358058 291.173671 
L 332.107438 289.994125 
L 332.107438 289.994125 
" clip-path="url(#p3256356d89)" style="fill: none; stroke: #ff7f0e; stroke-width: 1.5; stroke-linecap: square"/>
   </g>
   <g id="patch_13">
    <path d="M 90 356.103529 
L 90 225.656471 
" style="fill: none; stroke: #000000; stroke-width: 0.8; stroke-linejoin: miter; stroke-linecap: square"/>
   </g>
   <g id="patch_14">
    <path d="M 343.636364 356.103529 
L 343.636364 225.656471 
" style="fill: none; stroke: #000000; stroke-width: 0.8; stroke-linejoin: miter; stroke-linecap: square"/>
   </g>
   <g id="patch_15">
    <path d="M 90 356.103529 
L 343.636364 356.103529 
" style="fill: none; stroke: #000000; stroke-width: 0.8; stroke-linejoin: miter; stroke-linecap: square"/>
   </g>
   <g id="patch_16">
    <path d="M 90 225.656471 
L 343.636364 225.656471 
" style="fill: none; stroke: #000000; stroke-width: 0.8; stroke-linejoin: miter; stroke-linecap: square"/>
   </g>
   <g id="legend_1">
    <g id="patch_17">
     <path d="M 97 351.103529 
L 156.96875 351.103529 
Q 158.96875 351.103529 158.96875 349.103529 
L 158.96875 320.747279 
Q 158.96875 318.747279 156.96875 318.747279 
L 97 318.747279 
Q 95 318.747279 95 320.747279 
L 95 349.103529 
Q 95 351.103529 97 351.103529 
z
" style="fill: #ffffff; opacity: 0.8; stroke: #cccccc; stroke-linejoin: miter"/>
    </g>
    <g id="line2d_33">
     <path d="M 99 326.845717 
L 109 326.845717 
L 119 326.845717 
" style="fill: none; stroke: #1f77b4; stroke-width: 1.5; stroke-linecap: square"/>
    </g>
    <g id="text_14">
     <!-- North -->
     <g transform="translate(127 330.345717) scale(0.1 -0.1)">
      <defs>
       <path id="DejaVuSans-4e" d="M 628 4666 
L 1478 4666 
L 3547 763 
L 3547 4666 
L 4159 4666 
L 4159 0 
L 3309 0 
L 1241 3903 
L 1241 0 
L 628 0 
L 628 4666 
z
" transform="scale(0.015625)"/>
      </defs>
      <use xlink:href="#DejaVuSans-4e"/>
      <use xlink:href="#DejaVuSans-6f" x="74.804688"/>
      <use xlink:href="#DejaVuSans-72" x="135.986328"/>
      <use xlink:href="#DejaVuSans-74" x="177.099609"/>
      <use xlink:href="#DejaVuSans-68" x="216.308594"/>
     </g>
    </g>
    <g id="line2d_34">
     <path d="M 99 341.523842 
L 109 341.523842 
L 119 341.523842 
" style="fill: none; stroke: #ff7f0e; stroke-width: 1.5; stroke-linecap: square"/>
    </g>
    <g id="text_15">
     <!-- East -->
     <g transform="translate(127 345.023842) scale(0.1 -0.1)">
      <use xlink:href="#DejaVuSans-45"/>
      <use xlink:href="#DejaVuSans-61" x="63.183594"/>
      <use xlink:href="#DejaVuSans-73" x="124.462891"/>
      <use xlink:href="#DejaVuSans-74" x="176.5625"/>
     </g>
    </g>
   </g>
  </g>
  <g id="axes_4">
   <g id="patch_18">
    <path d="M 394.363636 356.103529 
L 648 356.103529 
L 648 225.656471 
L 394.363636 225.656471 
z
" style="fill: #ffffff"/>
   </g>
   <g id="matplotlib.axis_7">
    <g id="xtick_16">
     <g id="line2d_35">
      <g>
       <use xlink:href="#m18f35a2700" x="405.892562" y="356.103529" style="stroke: #000000; stroke-width: 0.8"/>
      </g>
     </g>
    </g>
    <g id="xtick_17">
     <g id="line2d_36">
      <g>
       <use xlink:href="#m18f35a2700" x="463.53719" y="356.103529" style="stroke: #000000; stroke-width: 0.8"/>
      </g>
     </g>
    </g>
    <g id="xtick_18">
     <g id="line2d_37">
      <g>
       <use xlink:href="#m18f35a2700" x="521.181818" y="356.103529" style="stroke: #000000; stroke-width: 0.8"/>
      </g>
     </g>
    </g>
    <g id="xtick_19">
     <g id="line2d_38">
      <g>
       <use xlink:href="#m18f35a2700" x="578.826446" y="356.103529" style="stroke: #000000; stroke-width: 0.8"/>
      </g>
     </g>
    </g>
    <g id="xtick_20">
     <g id="line2d_39">
      <g>
       <use xlink:href="#m18f35a2700" x="636.471074" y="356.103529" style="stroke: #000000; stroke-width: 0.8"/>
      </g>
     </g>
    </g>
   </g>
   <g id="matplotlib.axis_8">
    <g id="ytick_14">
     <g id="line2d_40">
      <g>
       <use xlink:href="#m839fa799cf" x="394.363636" y="336.295299" style="stroke: #000000; stroke-width: 0.8"/>
      </g>
     </g>
    </g>
    <g id="ytick_15">
     <g id="line2d_41">
      <g>
       <use xlink:href="#m839fa799cf" x="394.363636" y="313.196413" style="stroke: #000000; stroke-width: 0.8"/>
      </g>
     </g>
    </g>
    <g id="ytick_16">
     <g id="line2d_42">
      <g>
       <use xlink:href="#m839fa799cf" x="394.363636" y="290.097527" style="stroke: #000000; stroke-width: 0.8"/>
      </g>
     </g>
    </g>
    <g id="ytick_17">
     <g id="line2d_43">
      <g>
       <use xlink:href="#m839fa799cf" x="394.363636" y="266.998641" style="stroke: #000000; stroke-width: 0.8"/>
      </g>
     </g>
    </g>
    <g id="ytick_18">
     <g id="line2d_44">
      <g>
       <use xlink:href="#m839fa799cf" x="394.363636" y="243.899754" style="stroke: #000000; stroke-width: 0.8"/>
      </g>
     </g>
    </g>
   </g>
   <g id="line2d_45">
    <path d="M 405.892562 232.350311 
L 408.16376 232.46087 
L 410.446488 232.794367 
L 412.752273 233.356246 
L 415.104174 234.160037 
L 417.513719 235.221684 
L 419.992438 236.560528 
L 422.55186 238.199092 
L 425.215041 240.171848 
L 428.005041 242.520239 
L 430.933388 245.280465 
L 434.034669 248.514272 
L 437.343471 252.291115 
L 440.917438 256.714698 
L 444.837273 261.928509 
L 449.252851 268.183125 
L 454.486983 276.000115 
L 461.750207 287.286655 
L 474.097686 306.487025 
L 479.435579 314.339843 
L 483.885744 320.502055 
L 487.828636 325.591461 
L 491.425661 329.878782 
L 494.757521 333.510195 
L 497.870331 336.580295 
L 500.810207 339.173276 
L 503.600207 341.343182 
L 506.274917 343.145608 
L 508.834339 344.606728 
L 511.313058 345.76921 
L 513.722603 346.655929 
L 516.074504 347.286392 
L 518.380289 347.676552 
L 520.663017 347.838972 
L 522.934215 347.778915 
L 525.216942 347.496004 
L 527.522727 346.984847 
L 529.863099 346.236452 
L 532.249587 345.238296 
L 534.705248 343.967914 
L 537.241612 342.402714 
L 539.881736 340.508313 
L 542.637149 338.253224 
L 545.530909 335.593024 
L 548.597603 332.465644 
L 551.860289 328.814293 
L 555.376612 324.537562 
L 559.215744 319.508865 
L 563.504504 313.513596 
L 568.508058 306.121359 
L 575.044959 296.03752 
L 590.724298 271.701442 
L 595.797025 264.334453 
L 600.108843 258.453665 
L 603.959504 253.568361 
L 607.487355 249.444068 
L 610.76157 245.951424 
L 613.828264 242.998158 
L 616.733554 240.503244 
L 619.500496 238.415761 
L 622.14062 236.697587 
L 624.688512 235.301307 
L 627.144174 234.205375 
L 629.54219 233.376575 
L 631.882562 232.801129 
L 634.188347 232.461995 
L 636.471074 232.350311 
L 636.471074 232.350311 
" clip-path="url(#p80cb3ceea7)" style="fill: none; stroke: #1f77b4; stroke-width: 1.5; stroke-linecap: square"/>
   </g>
   <g id="line2d_46">
    <path d="M 405.892562 290.097527 
L 416.10719 274.230623 
L 421.514256 266.251075 
L 425.999008 260.017554 
L 429.964959 254.87612 
L 433.573512 250.553615 
L 436.916901 246.888851 
L 440.04124 243.78758 
L 442.992645 241.165745 
L 445.794174 238.969447 
L 448.468884 237.150316 
L 451.039835 235.666644 
L 453.518554 234.488969 
L 455.928099 233.587204 
L 458.28 232.941856 
L 460.597314 232.535515 
L 462.880041 232.35957 
L 465.162769 232.406957 
L 467.445496 232.677493 
L 469.751281 233.176236 
L 472.091653 233.912168 
L 474.47814 234.89781 
L 476.933802 236.155574 
L 479.470165 237.708081 
L 482.09876 239.580904 
L 484.842645 241.812068 
L 487.724876 244.446045 
L 490.780041 247.544972 
L 494.031198 251.165885 
L 497.524463 255.395922 
L 501.340537 260.37452 
L 505.594711 266.300654 
L 510.54062 273.586297 
L 516.927645 283.418178 
L 533.540826 309.180008 
L 538.532851 316.395004 
L 542.798554 322.180161 
L 546.626157 327.004748 
L 550.13095 331.071841 
L 553.382107 334.511465 
L 556.437273 337.426699 
L 559.331033 339.885898 
L 562.086446 341.940146 
L 564.72657 343.634525 
L 567.262934 345.00155 
L 569.718595 346.075348 
L 572.105083 346.878862 
L 574.445455 347.433733 
L 576.75124 347.752436 
L 579.033967 347.843819 
L 581.316694 347.711837 
L 583.599421 347.357001 
L 585.916736 346.770259 
L 588.268636 345.943789 
L 590.678182 344.859298 
L 593.156901 343.497466 
L 595.727851 341.827763 
L 598.402562 339.821442 
L 601.204091 337.437091 
L 604.155496 334.627193 
L 607.279835 331.339407 
L 610.611694 327.504687 
L 614.220248 323.004971 
L 618.186198 317.694623 
L 622.659421 311.321955 
L 628.008843 303.295928 
L 635.721694 291.276663 
L 636.471074 290.097527 
L 636.471074 290.097527 
" clip-path="url(#p80cb3ceea7)" style="fill: none; stroke: #ff7f0e; stroke-width: 1.5; stroke-linecap: square"/>
   </g>
   <g id="patch_19">
    <path d="M 394.363636 356.103529 
L 394.363636 225.656471 
" style="fill: none; stroke: #000000; stroke-width: 0.8; stroke-linejoin: miter; stroke-linecap: square"/>
   </g>
   <g id="patch_20">
    <path d="M 648 356.103529 
L 648 225.656471 
" style="fill: none; stroke: #000000; stroke-width: 0.8; stroke-linejoin: miter; stroke-linecap: square"/>
   </g>
   <g id="patch_21">
    <path d="M 394.363636 356.103529 
L 648 356.103529 
" style="fill: none; stroke: #000000; stroke-width: 0.8; stroke-linejoin: miter; stroke-linecap: square"/>
   </g>
   <g id="patch_22">
    <path d="M 394.363636 225.656471 
L 648 225.656471 
" style="fill: none; stroke: #000000; stroke-width: 0.8; stroke-linejoin: miter; stroke-linecap: square"/>
   </g>
   <g id="legend_2">
    <g id="patch_23">
     <path d="M 401.363636 351.103529 
L 461.332386 351.103529 
Q 463.332386 351.103529 463.332386 349.103529 
L 463.332386 320.747279 
Q 463.332386 318.747279 461.332386 318.747279 
L 401.363636 318.747279 
Q 399.363636 318.747279 399.363636 320.747279 
L 399.363636 349.103529 
Q 399.363636 351.103529 401.363636 351.103529 
z
" style="fill: #ffffff; opacity: 0.8; stroke: #cccccc; stroke-linejoin: miter"/>
    </g>
    <g id="line2d_47">
     <path d="M 403.363636 326.845717 
L 413.363636 326.845717 
L 423.363636 326.845717 
" style="fill: none; stroke: #1f77b4; stroke-width: 1.5; stroke-linecap: square"/>
    </g>
    <g id="text_16">
     <!-- North -->
     <g transform="translate(431.363636 330.345717) scale(0.1 -0.1)">
      <use xlink:href="#DejaVuSans-4e"/>
      <use xlink:href="#DejaVuSans-6f" x="74.804688"/>
      <use xlink:href="#DejaVuSans-72" x="135.986328"/>
      <use xlink:href="#DejaVuSans-74" x="177.099609"/>
      <use xlink:href="#DejaVuSans-68" x="216.308594"/>
     </g>
    </g>
    <g id="line2d_48">
     <path d="M 403.363636 341.523842 
L 413.363636 341.523842 
L 423.363636 341.523842 
" style="fill: none; stroke: #ff7f0e; stroke-width: 1.5; stroke-linecap: square"/>
    </g>
    <g id="text_17">
     <!-- East -->
     <g transform="translate(431.363636 345.023842) scale(0.1 -0.1)">
      <use xlink:href="#DejaVuSans-45"/>
      <use xlink:href="#DejaVuSans-61" x="63.183594"/>
      <use xlink:href="#DejaVuSans-73" x="124.462891"/>
      <use xlink:href="#DejaVuSans-74" x="176.5625"/>
     </g>
    </g>
   </g>
  </g>
  <g id="axes_5">
   <g id="patch_24">
    <path d="M 90 512.64 
L 343.636364 512.64 
L 343.636364 382.192941 
L 90 382.192941 
z
" style="fill: #ffffff"/>
   </g>
   <g id="matplotlib.axis_9">
    <g id="xtick_21">
     <g id="line2d_49">
      <g>
       <use xlink:href="#m18f35a2700" x="101.528926" y="512.64" style="stroke: #000000; stroke-width: 0.8"/>
      </g>
     </g>
     <g id="text_18">
      <!-- 0 -->
      <g transform="translate(98.347676 527.238438) scale(0.1 -0.1)">
       <use xlink:href="#DejaVuSans-30"/>
      </g>
     </g>
    </g>
    <g id="xtick_22">
     <g id="line2d_50">
      <g>
       <use xlink:href="#m18f35a2700" x="159.173554" y="512.64" style="stroke: #000000; stroke-width: 0.8"/>
      </g>
     </g>
     <g id="text_19">
      <!-- 50 -->
      <g transform="translate(152.811054 527.238438) scale(0.1 -0.1)">
       <defs>
        <path id="DejaVuSans-35" d="M 691 4666 
L 3169 4666 
L 3169 4134 
L 1269 4134 
L 1269 2991 
Q 1406 3038 1543 3061 
Q 1681 3084 1819 3084 
Q 2600 3084 3056 2656 
Q 3513 2228 3513 1497 
Q 3513 744 3044 326 
Q 2575 -91 1722 -91 
Q 1428 -91 1123 -41 
Q 819 9 494 109 
L 494 744 
Q 775 591 1075 516 
Q 1375 441 1709 441 
Q 2250 441 2565 725 
Q 2881 1009 2881 1497 
Q 2881 1984 2565 2268 
Q 2250 2553 1709 2553 
Q 1456 2553 1204 2497 
Q 953 2441 691 2322 
L 691 4666 
z
" transform="scale(0.015625)"/>
       </defs>
       <use xlink:href="#DejaVuSans-35"/>
       <use xlink:href="#DejaVuSans-30" x="63.623047"/>
      </g>
     </g>
    </g>
    <g id="xtick_23">
     <g id="line2d_51">
      <g>
       <use xlink:href="#m18f35a2700" x="216.818182" y="512.64" style="stroke: #000000; stroke-width: 0.8"/>
      </g>
     </g>
     <g id="text_20">
      <!-- 100 -->
      <g transform="translate(207.274432 527.238438) scale(0.1 -0.1)">
       <defs>
        <path id="DejaVuSans-31" d="M 794 531 
L 1825 531 
L 1825 4091 
L 703 3866 
L 703 4441 
L 1819 4666 
L 2450 4666 
L 2450 531 
L 3481 531 
L 3481 0 
L 794 0 
L 794 531 
z
" transform="scale(0.015625)"/>
       </defs>
       <use xlink:href="#DejaVuSans-31"/>
       <use xlink:href="#DejaVuSans-30" x="63.623047"/>
       <use xlink:href="#DejaVuSans-30" x="127.246094"/>
      </g>
     </g>
    </g>
    <g id="xtick_24">
     <g id="line2d_52">
      <g>
       <use xlink:href="#m18f35a2700" x="274.46281" y="512.64" style="stroke: #000000; stroke-width: 0.8"/>
      </g>
     </g>
     <g id="text_21">
      <!-- 150 -->
      <g transform="translate(264.91906 527.238438) scale(0.1 -0.1)">
       <use xlink:href="#DejaVuSans-31"/>
       <use xlink:href="#DejaVuSans-35" x="63.623047"/>
       <use xlink:href="#DejaVuSans-30" x="127.246094"/>
      </g>
     </g>
    </g>
    <g id="xtick_25">
     <g id="line2d_53">
      <g>
       <use xlink:href="#m18f35a2700" x="332.107438" y="512.64" style="stroke: #000000; stroke-width: 0.8"/>
      </g>
     </g>
     <g id="text_22">
      <!-- 200 -->
      <g transform="translate(322.563688 527.238438) scale(0.1 -0.1)">
       <use xlink:href="#DejaVuSans-32"/>
       <use xlink:href="#DejaVuSans-30" x="63.623047"/>
       <use xlink:href="#DejaVuSans-30" x="127.246094"/>
      </g>
     </g>
    </g>
    <g id="text_23">
     <!-- Time s -->
     <g transform="translate(197.105369 542.43625) scale(0.12 -0.12)">
      <use xlink:href="#DejaVuSans-54"/>
      <use xlink:href="#DejaVuSans-69" x="57.958984"/>
      <use xlink:href="#DejaVuSans-6d" x="85.742188"/>
      <use xlink:href="#DejaVuSans-65" x="183.154297"/>
      <use xlink:href="#DejaVuSans-20" x="244.677734"/>
      <use xlink:href="#DejaVuSans-73" x="276.464844"/>
     </g>
    </g>
   </g>
   <g id="matplotlib.axis_10">
    <g id="ytick_19">
     <g id="line2d_54">
      <g>
       <use xlink:href="#m839fa799cf" x="90" y="484.549782" style="stroke: #000000; stroke-width: 0.8"/>
      </g>
     </g>
     <g id="text_24">
      <!-- −10 -->
      <g transform="translate(61.895313 488.349) scale(0.1 -0.1)">
       <use xlink:href="#DejaVuSans-2212"/>
       <use xlink:href="#DejaVuSans-31" x="83.789062"/>
       <use xlink:href="#DejaVuSans-30" x="147.412109"/>
      </g>
     </g>
    </g>
    <g id="ytick_20">
     <g id="line2d_55">
      <g>
       <use xlink:href="#m839fa799cf" x="90" y="447.052229" style="stroke: #000000; stroke-width: 0.8"/>
      </g>
     </g>
     <g id="text_25">
      <!-- 0 -->
      <g transform="translate(76.6375 450.851448) scale(0.1 -0.1)">
       <use xlink:href="#DejaVuSans-30"/>
      </g>
     </g>
    </g>
    <g id="ytick_21">
     <g id="line2d_56">
      <g>
       <use xlink:href="#m839fa799cf" x="90" y="409.554677" style="stroke: #000000; stroke-width: 0.8"/>
      </g>
     </g>
     <g id="text_26">
      <!-- 10 -->
      <g transform="translate(70.275 413.353896) scale(0.1 -0.1)">
       <use xlink:href="#DejaVuSans-31"/>
       <use xlink:href="#DejaVuSans-30" x="63.623047"/>
      </g>
     </g>
    </g>
    <g id="text_27">
     <!-- Velocity [m/s] -->
     <g transform="translate(49.037187 488.535221) rotate(-90) scale(0.12 -0.12)">
      <defs>
       <path id="DejaVuSans-56" d="M 1831 0 
L 50 4666 
L 709 4666 
L 2188 738 
L 3669 4666 
L 4325 4666 
L 2547 0 
L 1831 0 
z
" transform="scale(0.015625)"/>
       <path id="DejaVuSans-6c" d="M 603 4863 
L 1178 4863 
L 1178 0 
L 603 0 
L 603 4863 
z
" transform="scale(0.015625)"/>
       <path id="DejaVuSans-63" d="M 3122 3366 
L 3122 2828 
Q 2878 2963 2633 3030 
Q 2388 3097 2138 3097 
Q 1578 3097 1268 2742 
Q 959 2388 959 1747 
Q 959 1106 1268 751 
Q 1578 397 2138 397 
Q 2388 397 2633 464 
Q 2878 531 3122 666 
L 3122 134 
Q 2881 22 2623 -34 
Q 2366 -91 2075 -91 
Q 1284 -91 818 406 
Q 353 903 353 1747 
Q 353 2603 823 3093 
Q 1294 3584 2113 3584 
Q 2378 3584 2631 3529 
Q 2884 3475 3122 3366 
z
" transform="scale(0.015625)"/>
       <path id="DejaVuSans-79" d="M 2059 -325 
Q 1816 -950 1584 -1140 
Q 1353 -1331 966 -1331 
L 506 -1331 
L 506 -850 
L 844 -850 
Q 1081 -850 1212 -737 
Q 1344 -625 1503 -206 
L 1606 56 
L 191 3500 
L 800 3500 
L 1894 763 
L 2988 3500 
L 3597 3500 
L 2059 -325 
z
" transform="scale(0.015625)"/>
       <path id="DejaVuSans-2f" d="M 1625 4666 
L 2156 4666 
L 531 -594 
L 0 -594 
L 1625 4666 
z
" transform="scale(0.015625)"/>
      </defs>
      <use xlink:href="#DejaVuSans-56"/>
      <use xlink:href="#DejaVuSans-65" x="60.658203"/>
      <use xlink:href="#DejaVuSans-6c" x="122.181641"/>
      <use xlink:href="#DejaVuSans-6f" x="149.964844"/>
      <use xlink:href="#DejaVuSans-63" x="211.146484"/>
      <use xlink:href="#DejaVuSans-69" x="266.126953"/>
      <use xlink:href="#DejaVuSans-74" x="293.910156"/>
      <use xlink:href="#DejaVuSans-79" x="333.119141"/>
      <use xlink:href="#DejaVuSans-20" x="392.298828"/>
      <use xlink:href="#DejaVuSans-5b" x="424.085938"/>
      <use xlink:href="#DejaVuSans-6d" x="463.099609"/>
      <use xlink:href="#DejaVuSans-2f" x="560.511719"/>
      <use xlink:href="#DejaVuSans-73" x="594.203125"/>
      <use xlink:href="#DejaVuSans-5d" x="646.302734"/>
     </g>
    </g>
   </g>
   <g id="line2d_57">
    <path d="M 101.528926 447.052229 
L 112.239298 464.033195 
L 117.415785 471.834537 
L 121.520083 477.691675 
L 126.062479 483.729859 
L 129.440455 487.869758 
L 132.864545 491.722257 
L 135.596901 494.52189 
L 138.375372 497.098433 
L 141.707231 499.823449 
L 143.989959 501.444435 
L 146.572438 503.0206 
L 149.074215 504.290663 
L 151.864215 505.393082 
L 154.319876 506.091248 
L 156.764008 506.527874 
L 158.989091 506.698877 
L 160.995124 506.67126 
L 163.416198 506.397949 
L 165.595165 505.933745 
L 167.739545 505.277403 
L 170.356612 504.207003 
L 172.662397 503.033987 
L 175.221818 501.474158 
L 178.138636 499.374079 
L 180.917107 497.07163 
L 183.557231 494.62598 
L 186.289587 491.838423 
L 188.975826 488.859548 
L 192.422975 484.719022 
L 195.754835 480.405817 
L 199.66314 475.008681 
L 204.228595 468.316768 
L 209.808595 459.717302 
L 218.489876 445.865738 
L 227.666901 431.357922 
L 232.970207 423.382975 
L 237.777769 416.588011 
L 241.674545 411.468615 
L 245.236983 407.145324 
L 248.534256 403.482882 
L 251.808471 400.202349 
L 254.540826 397.746097 
L 257.284711 395.563966 
L 260.432107 393.420596 
L 262.910826 392.010695 
L 265.378017 390.864048 
L 267.683802 390.020652 
L 270.208636 389.363024 
L 272.664298 388.987181 
L 275.016198 388.871764 
L 277.218223 388.985088 
L 279.166612 389.266287 
L 281.241818 389.743405 
L 284.089463 390.70041 
L 286.130083 391.592421 
L 288.458926 392.825001 
L 290.972231 394.409162 
L 293.819876 396.499623 
L 296.540702 398.786315 
L 299.515165 401.595359 
L 302.420455 404.629408 
L 305.441033 408.069418 
L 309.602975 413.251869 
L 313.545868 418.567088 
L 317.984504 424.954331 
L 323.057231 432.654909 
L 330.078347 443.75629 
L 332.107438 447.010309 
L 332.107438 447.010309 
" clip-path="url(#p5e253aedee)" style="fill: none; stroke: #1f77b4; stroke-width: 1.5; stroke-linecap: square"/>
   </g>
   <g id="line2d_58">
    <path d="M 101.528926 388.151212 
L 103.673306 388.208491 
L 106.152025 388.521659 
L 108.388636 389.038254 
L 110.994174 389.907233 
L 113.034793 390.785686 
L 115.144587 391.875131 
L 117.79624 393.509778 
L 119.917562 395.017019 
L 122.142645 396.782317 
L 125.059463 399.381997 
L 128.114628 402.426512 
L 131.20438 405.819198 
L 134.524711 409.788095 
L 137.914215 414.159154 
L 141.626529 419.261554 
L 145.869174 425.439909 
L 151.333884 433.811838 
L 158.735455 445.579525 
L 169.872397 463.241495 
L 175.371694 471.516139 
L 179.764215 477.736319 
L 184.145207 483.503413 
L 187.534711 487.615744 
L 191.08562 491.549829 
L 193.829504 494.311039 
L 196.504215 496.741849 
L 199.478678 499.139974 
L 202.291736 501.095247 
L 204.505289 502.405539 
L 207.110826 503.698146 
L 209.335909 504.567874 
L 211.872273 505.306502 
L 214.892851 505.817402 
L 216.599132 505.933988 
L 218.651281 505.899645 
L 221.314463 505.589182 
L 223.147562 505.193168 
L 225.914504 504.320153 
L 228.404752 503.254367 
L 231.11405 501.804845 
L 233.454421 500.309951 
L 236.290537 498.215157 
L 238.780785 496.119279 
L 241.95124 493.12744 
L 244.983347 489.944317 
L 248.015455 486.467106 
L 251.116736 482.633122 
L 255.013512 477.46209 
L 259.025579 471.777513 
L 264.063719 464.230357 
L 270.92343 453.461293 
L 286.775702 428.356074 
L 291.906074 420.75338 
L 296.091074 414.924162 
L 299.861033 410.028087 
L 303.723223 405.414419 
L 306.905207 401.957446 
L 309.960372 398.962197 
L 313.246116 396.1057 
L 316.059174 393.987649 
L 318.768471 392.242804 
L 321.085785 390.988419 
L 323.495331 389.916507 
L 325.570537 389.191604 
L 328.014669 388.573443 
L 330.816198 388.183341 
L 332.107438 388.122353 
L 332.107438 388.122353 
" clip-path="url(#p5e253aedee)" style="fill: none; stroke: #ff7f0e; stroke-width: 1.5; stroke-linecap: square"/>
   </g>
   <g id="patch_25">
    <path d="M 90 512.64 
L 90 382.192941 
" style="fill: none; stroke: #000000; stroke-width: 0.8; stroke-linejoin: miter; stroke-linecap: square"/>
   </g>
   <g id="patch_26">
    <path d="M 343.636364 512.64 
L 343.636364 382.192941 
" style="fill: none; stroke: #000000; stroke-width: 0.8; stroke-linejoin: miter; stroke-linecap: square"/>
   </g>
   <g id="patch_27">
    <path d="M 90 512.64 
L 343.636364 512.64 
" style="fill: none; stroke: #000000; stroke-width: 0.8; stroke-linejoin: miter; stroke-linecap: square"/>
   </g>
   <g id="patch_28">
    <path d="M 90 382.192941 
L 343.636364 382.192941 
" style="fill: none; stroke: #000000; stroke-width: 0.8; stroke-linejoin: miter; stroke-linecap: square"/>
   </g>
   <g id="legend_3">
    <g id="patch_29">
     <path d="M 276.667614 507.64 
L 336.636364 507.64 
Q 338.636364 507.64 338.636364 505.64 
L 338.636364 477.28375 
Q 338.636364 475.28375 336.636364 475.28375 
L 276.667614 475.28375 
Q 274.667614 475.28375 274.667614 477.28375 
L 274.667614 505.64 
Q 274.667614 507.64 276.667614 507.64 
z
" style="fill: #ffffff; opacity: 0.8; stroke: #cccccc; stroke-linejoin: miter"/>
    </g>
    <g id="line2d_59">
     <path d="M 278.667614 483.382187 
L 288.667614 483.382187 
L 298.667614 483.382187 
" style="fill: none; stroke: #1f77b4; stroke-width: 1.5; stroke-linecap: square"/>
    </g>
    <g id="text_28">
     <!-- North -->
     <g transform="translate(306.667614 486.882187) scale(0.1 -0.1)">
      <use xlink:href="#DejaVuSans-4e"/>
      <use xlink:href="#DejaVuSans-6f" x="74.804688"/>
      <use xlink:href="#DejaVuSans-72" x="135.986328"/>
      <use xlink:href="#DejaVuSans-74" x="177.099609"/>
      <use xlink:href="#DejaVuSans-68" x="216.308594"/>
     </g>
    </g>
    <g id="line2d_60">
     <path d="M 278.667614 498.060313 
L 288.667614 498.060313 
L 298.667614 498.060313 
" style="fill: none; stroke: #ff7f0e; stroke-width: 1.5; stroke-linecap: square"/>
    </g>
    <g id="text_29">
     <!-- East -->
     <g transform="translate(306.667614 501.560313) scale(0.1 -0.1)">
      <use xlink:href="#DejaVuSans-45"/>
      <use xlink:href="#DejaVuSans-61" x="63.183594"/>
      <use xlink:href="#DejaVuSans-73" x="124.462891"/>
      <use xlink:href="#DejaVuSans-74" x="176.5625"/>
     </g>
    </g>
   </g>
  </g>
  <g id="axes_6">
   <g id="patch_30">
    <path d="M 394.363636 512.64 
L 648 512.64 
L 648 382.192941 
L 394.363636 382.192941 
z
" style="fill: #ffffff"/>
   </g>
   <g id="matplotlib.axis_11">
    <g id="xtick_26">
     <g id="line2d_61">
      <g>
       <use xlink:href="#m18f35a2700" x="405.892562" y="512.64" style="stroke: #000000; stroke-width: 0.8"/>
      </g>
     </g>
     <g id="text_30">
      <!-- 0 -->
      <g transform="translate(402.711312 527.238438) scale(0.1 -0.1)">
       <use xlink:href="#DejaVuSans-30"/>
      </g>
     </g>
    </g>
    <g id="xtick_27">
     <g id="line2d_62">
      <g>
       <use xlink:href="#m18f35a2700" x="463.53719" y="512.64" style="stroke: #000000; stroke-width: 0.8"/>
      </g>
     </g>
     <g id="text_31">
      <!-- 50 -->
      <g transform="translate(457.17469 527.238438) scale(0.1 -0.1)">
       <use xlink:href="#DejaVuSans-35"/>
       <use xlink:href="#DejaVuSans-30" x="63.623047"/>
      </g>
     </g>
    </g>
    <g id="xtick_28">
     <g id="line2d_63">
      <g>
       <use xlink:href="#m18f35a2700" x="521.181818" y="512.64" style="stroke: #000000; stroke-width: 0.8"/>
      </g>
     </g>
     <g id="text_32">
      <!-- 100 -->
      <g transform="translate(511.638068 527.238438) scale(0.1 -0.1)">
       <use xlink:href="#DejaVuSans-31"/>
       <use xlink:href="#DejaVuSans-30" x="63.623047"/>
       <use xlink:href="#DejaVuSans-30" x="127.246094"/>
      </g>
     </g>
    </g>
    <g id="xtick_29">
     <g id="line2d_64">
      <g>
       <use xlink:href="#m18f35a2700" x="578.826446" y="512.64" style="stroke: #000000; stroke-width: 0.8"/>
      </g>
     </g>
     <g id="text_33">
      <!-- 150 -->
      <g transform="translate(569.282696 527.238438) scale(0.1 -0.1)">
       <use xlink:href="#DejaVuSans-31"/>
       <use xlink:href="#DejaVuSans-35" x="63.623047"/>
       <use xlink:href="#DejaVuSans-30" x="127.246094"/>
      </g>
     </g>
    </g>
    <g id="xtick_30">
     <g id="line2d_65">
      <g>
       <use xlink:href="#m18f35a2700" x="636.471074" y="512.64" style="stroke: #000000; stroke-width: 0.8"/>
      </g>
     </g>
     <g id="text_34">
      <!-- 200 -->
      <g transform="translate(626.927324 527.238438) scale(0.1 -0.1)">
       <use xlink:href="#DejaVuSans-32"/>
       <use xlink:href="#DejaVuSans-30" x="63.623047"/>
       <use xlink:href="#DejaVuSans-30" x="127.246094"/>
      </g>
     </g>
    </g>
    <g id="text_35">
     <!-- Time s -->
     <g transform="translate(501.469006 542.43625) scale(0.12 -0.12)">
      <use xlink:href="#DejaVuSans-54"/>
      <use xlink:href="#DejaVuSans-69" x="57.958984"/>
      <use xlink:href="#DejaVuSans-6d" x="85.742188"/>
      <use xlink:href="#DejaVuSans-65" x="183.154297"/>
      <use xlink:href="#DejaVuSans-20" x="244.677734"/>
      <use xlink:href="#DejaVuSans-73" x="276.464844"/>
     </g>
    </g>
   </g>
   <g id="matplotlib.axis_12">
    <g id="ytick_22">
     <g id="line2d_66">
      <g>
       <use xlink:href="#m839fa799cf" x="394.363636" y="484.549782" style="stroke: #000000; stroke-width: 0.8"/>
      </g>
     </g>
    </g>
    <g id="ytick_23">
     <g id="line2d_67">
      <g>
       <use xlink:href="#m839fa799cf" x="394.363636" y="447.052229" style="stroke: #000000; stroke-width: 0.8"/>
      </g>
     </g>
    </g>
    <g id="ytick_24">
     <g id="line2d_68">
      <g>
       <use xlink:href="#m839fa799cf" x="394.363636" y="409.554677" style="stroke: #000000; stroke-width: 0.8"/>
      </g>
     </g>
    </g>
   </g>
   <g id="line2d_69">
    <path d="M 405.892562 447.052229 
L 416.084132 463.20057 
L 421.479669 471.324569 
L 425.952893 477.67 
L 429.907314 482.904003 
L 433.504339 487.305255 
L 436.836198 491.038183 
L 439.949008 494.198873 
L 442.888884 496.87304 
L 445.678884 499.11558 
L 448.342066 500.975766 
L 450.901488 502.496092 
L 453.368678 503.706525 
L 455.766694 504.637752 
L 458.107066 505.309608 
L 460.401322 505.738332 
L 462.672521 505.936897 
L 464.93219 505.910696 
L 467.19186 505.661402 
L 469.463058 505.186989 
L 471.768843 504.477651 
L 474.132273 503.515409 
L 476.553347 502.286991 
L 479.055124 500.765226 
L 481.649132 498.923959 
L 484.35843 496.724424 
L 487.206074 494.121117 
L 490.215124 491.062788 
L 493.408636 487.49399 
L 496.844256 483.313696 
L 500.579628 478.409602 
L 504.718512 472.598896 
L 509.479959 465.517421 
L 515.428884 456.248102 
L 535.350868 424.871284 
L 540.031612 418.110634 
L 544.112851 412.59596 
L 547.802107 407.975521 
L 551.20314 404.064601 
L 554.373595 400.750476 
L 557.359587 397.944586 
L 560.184174 395.589157 
L 562.881942 393.623818 
L 565.464421 392.012712 
L 567.954669 390.717098 
L 570.364215 389.71026 
L 572.716116 388.965805 
L 575.021901 388.467463 
L 577.293099 388.20262 
L 579.552769 388.162748 
L 581.812438 388.346085 
L 584.083636 388.754576 
L 586.377893 389.393843 
L 588.718264 390.278058 
L 591.116281 391.423445 
L 593.595 392.856882 
L 596.16595 394.604683 
L 598.840661 396.695984 
L 601.64219 399.172936 
L 604.593595 402.083779 
L 607.729463 405.494613 
L 611.08438 409.4788 
L 614.715992 414.144181 
L 618.716529 419.654358 
L 623.258926 426.301457 
L 628.746694 434.745693 
L 636.471074 447.052229 
L 636.471074 447.052229 
" clip-path="url(#pe5fb730669)" style="fill: none; stroke: #1f77b4; stroke-width: 1.5; stroke-linecap: square"/>
   </g>
   <g id="line2d_70">
    <path d="M 405.892562 388.151212 
L 408.152231 388.262839 
L 410.411901 388.597295 
L 412.694628 389.160123 
L 415.023471 389.965061 
L 417.409959 391.028318 
L 419.86562 392.36958 
L 422.401983 394.011804 
L 425.042107 395.990104 
L 427.797521 398.336342 
L 430.70281 401.107233 
L 433.781033 404.356673 
L 437.066777 408.15584 
L 440.606157 412.59596 
L 444.479876 417.821002 
L 448.826281 424.068053 
L 453.945124 431.831357 
L 460.839421 442.726122 
L 474.558843 464.47759 
L 479.781446 472.281651 
L 484.173967 478.45658 
L 488.070744 483.561072 
L 491.633182 487.86911 
L 494.930455 491.514832 
L 498.020207 494.606074 
L 500.937025 497.215502 
L 503.703967 499.398345 
L 506.35562 501.211272 
L 508.903512 502.687093 
L 511.359174 503.855866 
L 513.745661 504.74814 
L 516.074504 505.38374 
L 518.36876 505.780281 
L 520.62843 505.94655 
L 522.888099 505.889591 
L 525.147769 505.60962 
L 527.430496 505.101439 
L 529.74781 504.355907 
L 532.11124 503.360281 
L 534.543843 502.091747 
L 537.057149 500.527282 
L 539.674215 498.631885 
L 542.40657 496.37337 
L 545.277273 493.706348 
L 548.30938 490.579873 
L 551.537479 486.925453 
L 555.007686 482.653905 
L 558.789174 477.638378 
L 562.997231 471.6781 
L 567.873967 464.371504 
L 574.111116 454.59968 
L 591.681198 426.839289 
L 596.569463 419.67074 
L 600.777521 413.883755 
L 604.559008 409.052963 
L 608.029215 404.973378 
L 611.257314 401.515258 
L 614.289421 398.587348 
L 617.160124 396.119728 
L 619.892479 394.060179 
L 622.509545 392.362706 
L 625.022851 390.994142 
L 627.455455 389.919775 
L 629.818884 389.116273 
L 632.136198 388.561665 
L 634.418926 388.243282 
L 636.471074 388.151212 
L 636.471074 388.151212 
" clip-path="url(#pe5fb730669)" style="fill: none; stroke: #ff7f0e; stroke-width: 1.5; stroke-linecap: square"/>
   </g>
   <g id="patch_31">
    <path d="M 394.363636 512.64 
L 394.363636 382.192941 
" style="fill: none; stroke: #000000; stroke-width: 0.8; stroke-linejoin: miter; stroke-linecap: square"/>
   </g>
   <g id="patch_32">
    <path d="M 648 512.64 
L 648 382.192941 
" style="fill: none; stroke: #000000; stroke-width: 0.8; stroke-linejoin: miter; stroke-linecap: square"/>
   </g>
   <g id="patch_33">
    <path d="M 394.363636 512.64 
L 648 512.64 
" style="fill: none; stroke: #000000; stroke-width: 0.8; stroke-linejoin: miter; stroke-linecap: square"/>
   </g>
   <g id="patch_34">
    <path d="M 394.363636 382.192941 
L 648 382.192941 
" style="fill: none; stroke: #000000; stroke-width: 0.8; stroke-linejoin: miter; stroke-linecap: square"/>
   </g>
   <g id="legend_4">
    <g id="patch_35">
     <path d="M 581.03125 507.64 
L 641 507.64 
Q 643 507.64 643 505.64 
L 643 477.28375 
Q 643 475.28375 641 475.28375 
L 581.03125 475.28375 
Q 579.03125 475.28375 579.03125 477.28375 
L 579.03125 505.64 
Q 579.03125 507.64 581.03125 507.64 
z
" style="fill: #ffffff; opacity: 0.8; stroke: #cccccc; stroke-linejoin: miter"/>
    </g>
    <g id="line2d_71">
     <path d="M 583.03125 483.382187 
L 593.03125 483.382187 
L 603.03125 483.382187 
" style="fill: none; stroke: #1f77b4; stroke-width: 1.5; stroke-linecap: square"/>
    </g>
    <g id="text_36">
     <!-- North -->
     <g transform="translate(611.03125 486.882187) scale(0.1 -0.1)">
      <use xlink:href="#DejaVuSans-4e"/>
      <use xlink:href="#DejaVuSans-6f" x="74.804688"/>
      <use xlink:href="#DejaVuSans-72" x="135.986328"/>
      <use xlink:href="#DejaVuSans-74" x="177.099609"/>
      <use xlink:href="#DejaVuSans-68" x="216.308594"/>
     </g>
    </g>
    <g id="line2d_72">
     <path d="M 583.03125 498.060313 
L 593.03125 498.060313 
L 603.03125 498.060313 
" style="fill: none; stroke: #ff7f0e; stroke-width: 1.5; stroke-linecap: square"/>
    </g>
    <g id="text_37">
     <!-- East -->
     <g transform="translate(611.03125 501.560313) scale(0.1 -0.1)">
      <use xlink:href="#DejaVuSans-45"/>
      <use xlink:href="#DejaVuSans-61" x="63.183594"/>
      <use xlink:href="#DejaVuSans-73" x="124.462891"/>
      <use xlink:href="#DejaVuSans-74" x="176.5625"/>
     </g>
    </g>
   </g>
  </g>
 </g>
 <defs>
  <clipPath id="p5d3586d621">
   <rect x="90" y="69.12" width="253.636364" height="130.447059"/>
  </clipPath>
  <clipPath id="paf990a40ac">
   <rect x="394.363636" y="69.12" width="253.636364" height="130.447059"/>
  </clipPath>
  <clipPath id="p3256356d89">
   <rect x="90" y="225.656471" width="253.636364" height="130.447059"/>
  </clipPath>
  <clipPath id="p80cb3ceea7">
   <rect x="394.363636" y="225.656471" width="253.636364" height="130.447059"/>
  </clipPath>
  <clipPath id="p5e253aedee">
   <rect x="90" y="382.192941" width="253.636364" height="130.447059"/>
  </clipPath>
  <clipPath id="pe5fb730669">
   <rect x="394.363636" y="382.192941" width="253.636364" height="130.447059"/>
  </clipPath>
 </defs>
</svg>
