<?xml version="1.0" encoding="utf-8" standalone="no"?>
<!DOCTYPE svg PUBLIC "-//W3C//DTD SVG 1.1//EN"
  "http://www.w3.org/Graphics/SVG/1.1/DTD/svg11.dtd">
<svg xmlns:xlink="http://www.w3.org/1999/xlink" width="720pt" height="720pt" viewBox="0 0 720 720" xmlns="http://www.w3.org/2000/svg" version="1.1">
 <metadata>
  <rdf:RDF xmlns:dc="http://purl.org/dc/elements/1.1/" xmlns:cc="http://creativecommons.org/ns#" xmlns:rdf="http://www.w3.org/1999/02/22-rdf-syntax-ns#">
   <cc:Work>
    <dc:type rdf:resource="http://purl.org/dc/dcmitype/StillImage"/>
    <dc:date>2024-06-03T16:53:57.650063</dc:date>
    <dc:format>image/svg+xml</dc:format>
    <dc:creator>
     <cc:Agent>
      <dc:title>Matplotlib v3.9.0, https://matplotlib.org/</dc:title>
     </cc:Agent>
    </dc:creator>
   </cc:Work>
  </rdf:RDF>
 </metadata>
 <defs>
  <style type="text/css">*{stroke-linejoin: round; stroke-linecap: butt}</style>
 </defs>
 <g id="figure_1">
  <g id="patch_1">
   <path d="M 0 720 
L 720 720 
L 720 0 
L 0 0 
z
" style="fill: #ffffff"/>
  </g>
  <g id="axes_1">
   <g id="patch_2">
    <path d="M 67.34 156.344 
L 704.88 156.344 
L 704.88 48.653135 
L 67.34 48.653135 
z
" style="fill: #ffffff"/>
   </g>
   <g id="matplotlib.axis_1">
    <g id="xtick_1">
     <g id="line2d_1">
      <defs>
       <path id="m7f4a617b07" d="M 0 0 
L 0 3.5 
" style="stroke: #000000; stroke-width: 0.8"/>
      </defs>
      <g>
       <use xlink:href="#m7f4a617b07" x="67.34" y="156.344" style="stroke: #000000; stroke-width: 0.8"/>
      </g>
     </g>
    </g>
    <g id="xtick_2">
     <g id="line2d_2">
      <g>
       <use xlink:href="#m7f4a617b07" x="147.036485" y="156.344" style="stroke: #000000; stroke-width: 0.8"/>
      </g>
     </g>
    </g>
    <g id="xtick_3">
     <g id="line2d_3">
      <g>
       <use xlink:href="#m7f4a617b07" x="226.73297" y="156.344" style="stroke: #000000; stroke-width: 0.8"/>
      </g>
     </g>
    </g>
    <g id="xtick_4">
     <g id="line2d_4">
      <g>
       <use xlink:href="#m7f4a617b07" x="306.429454" y="156.344" style="stroke: #000000; stroke-width: 0.8"/>
      </g>
     </g>
    </g>
    <g id="xtick_5">
     <g id="line2d_5">
      <g>
       <use xlink:href="#m7f4a617b07" x="386.125939" y="156.344" style="stroke: #000000; stroke-width: 0.8"/>
      </g>
     </g>
    </g>
    <g id="xtick_6">
     <g id="line2d_6">
      <g>
       <use xlink:href="#m7f4a617b07" x="465.822424" y="156.344" style="stroke: #000000; stroke-width: 0.8"/>
      </g>
     </g>
    </g>
    <g id="xtick_7">
     <g id="line2d_7">
      <g>
       <use xlink:href="#m7f4a617b07" x="545.518909" y="156.344" style="stroke: #000000; stroke-width: 0.8"/>
      </g>
     </g>
    </g>
    <g id="xtick_8">
     <g id="line2d_8">
      <g>
       <use xlink:href="#m7f4a617b07" x="625.215394" y="156.344" style="stroke: #000000; stroke-width: 0.8"/>
      </g>
     </g>
    </g>
   </g>
   <g id="matplotlib.axis_2">
    <g id="ytick_1">
     <g id="line2d_9">
      <defs>
       <path id="mb51b80296f" d="M 0 0 
L -3.5 0 
" style="stroke: #000000; stroke-width: 0.8"/>
      </defs>
      <g>
       <use xlink:href="#mb51b80296f" x="67.34" y="152.347974" style="stroke: #000000; stroke-width: 0.8"/>
      </g>
     </g>
     <g id="text_1">
      <!-- -0.2 -->
      <g transform="translate(33.024687 157.666881) scale(0.14 -0.14)">
       <defs>
        <path id="DejaVuSans-2d" d="M 313 2009 
L 1997 2009 
L 1997 1497 
L 313 1497 
L 313 2009 
z
" transform="scale(0.015625)"/>
        <path id="DejaVuSans-30" d="M 2034 4250 
Q 1547 4250 1301 3770 
Q 1056 3291 1056 2328 
Q 1056 1369 1301 889 
Q 1547 409 2034 409 
Q 2525 409 2770 889 
Q 3016 1369 3016 2328 
Q 3016 3291 2770 3770 
Q 2525 4250 2034 4250 
z
M 2034 4750 
Q 2819 4750 3233 4129 
Q 3647 3509 3647 2328 
Q 3647 1150 3233 529 
Q 2819 -91 2034 -91 
Q 1250 -91 836 529 
Q 422 1150 422 2328 
Q 422 3509 836 4129 
Q 1250 4750 2034 4750 
z
" transform="scale(0.015625)"/>
        <path id="DejaVuSans-2e" d="M 684 794 
L 1344 794 
L 1344 0 
L 684 0 
L 684 794 
z
" transform="scale(0.015625)"/>
        <path id="DejaVuSans-32" d="M 1228 531 
L 3431 531 
L 3431 0 
L 469 0 
L 469 531 
Q 828 903 1448 1529 
Q 2069 2156 2228 2338 
Q 2531 2678 2651 2914 
Q 2772 3150 2772 3378 
Q 2772 3750 2511 3984 
Q 2250 4219 1831 4219 
Q 1534 4219 1204 4116 
Q 875 4013 500 3803 
L 500 4441 
Q 881 4594 1212 4672 
Q 1544 4750 1819 4750 
Q 2544 4750 2975 4387 
Q 3406 4025 3406 3419 
Q 3406 3131 3298 2873 
Q 3191 2616 2906 2266 
Q 2828 2175 2409 1742 
Q 1991 1309 1228 531 
z
" transform="scale(0.015625)"/>
       </defs>
       <use xlink:href="#DejaVuSans-2d"/>
       <use xlink:href="#DejaVuSans-30" x="36.083984"/>
       <use xlink:href="#DejaVuSans-2e" x="99.707031"/>
       <use xlink:href="#DejaVuSans-32" x="131.494141"/>
      </g>
     </g>
    </g>
    <g id="ytick_2">
     <g id="line2d_10">
      <g>
       <use xlink:href="#mb51b80296f" x="67.34" y="127.423271" style="stroke: #000000; stroke-width: 0.8"/>
      </g>
     </g>
     <g id="text_2">
      <!-- -0.1 -->
      <g transform="translate(33.024687 132.742177) scale(0.14 -0.14)">
       <defs>
        <path id="DejaVuSans-31" d="M 794 531 
L 1825 531 
L 1825 4091 
L 703 3866 
L 703 4441 
L 1819 4666 
L 2450 4666 
L 2450 531 
L 3481 531 
L 3481 0 
L 794 0 
L 794 531 
z
" transform="scale(0.015625)"/>
       </defs>
       <use xlink:href="#DejaVuSans-2d"/>
       <use xlink:href="#DejaVuSans-30" x="36.083984"/>
       <use xlink:href="#DejaVuSans-2e" x="99.707031"/>
       <use xlink:href="#DejaVuSans-31" x="131.494141"/>
      </g>
     </g>
    </g>
    <g id="ytick_3">
     <g id="line2d_11">
      <g>
       <use xlink:href="#mb51b80296f" x="67.34" y="102.498568" style="stroke: #000000; stroke-width: 0.8"/>
      </g>
     </g>
     <g id="text_3">
      <!-- 0.0 -->
      <g transform="translate(38.075625 107.817474) scale(0.14 -0.14)">
       <use xlink:href="#DejaVuSans-30"/>
       <use xlink:href="#DejaVuSans-2e" x="63.623047"/>
       <use xlink:href="#DejaVuSans-30" x="95.410156"/>
      </g>
     </g>
    </g>
    <g id="ytick_4">
     <g id="line2d_12">
      <g>
       <use xlink:href="#mb51b80296f" x="67.34" y="77.573864" style="stroke: #000000; stroke-width: 0.8"/>
      </g>
     </g>
     <g id="text_4">
      <!-- 0.1 -->
      <g transform="translate(38.075625 82.892771) scale(0.14 -0.14)">
       <use xlink:href="#DejaVuSans-30"/>
       <use xlink:href="#DejaVuSans-2e" x="63.623047"/>
       <use xlink:href="#DejaVuSans-31" x="95.410156"/>
      </g>
     </g>
    </g>
    <g id="ytick_5">
     <g id="line2d_13">
      <g>
       <use xlink:href="#mb51b80296f" x="67.34" y="52.649161" style="stroke: #000000; stroke-width: 0.8"/>
      </g>
     </g>
     <g id="text_5">
      <!-- 0.2 -->
      <g transform="translate(38.075625 57.968067) scale(0.14 -0.14)">
       <use xlink:href="#DejaVuSans-30"/>
       <use xlink:href="#DejaVuSans-2e" x="63.623047"/>
       <use xlink:href="#DejaVuSans-32" x="95.410156"/>
      </g>
     </g>
    </g>
    <g id="text_6">
     <!-- Attitude [rad] -->
     <g transform="translate(26.113125 149.827318) rotate(-90) scale(0.14 -0.14)">
      <defs>
       <path id="DejaVuSans-41" d="M 2188 4044 
L 1331 1722 
L 3047 1722 
L 2188 4044 
z
M 1831 4666 
L 2547 4666 
L 4325 0 
L 3669 0 
L 3244 1197 
L 1141 1197 
L 716 0 
L 50 0 
L 1831 4666 
z
" transform="scale(0.015625)"/>
       <path id="DejaVuSans-74" d="M 1172 4494 
L 1172 3500 
L 2356 3500 
L 2356 3053 
L 1172 3053 
L 1172 1153 
Q 1172 725 1289 603 
Q 1406 481 1766 481 
L 2356 481 
L 2356 0 
L 1766 0 
Q 1100 0 847 248 
Q 594 497 594 1153 
L 594 3053 
L 172 3053 
L 172 3500 
L 594 3500 
L 594 4494 
L 1172 4494 
z
" transform="scale(0.015625)"/>
       <path id="DejaVuSans-69" d="M 603 3500 
L 1178 3500 
L 1178 0 
L 603 0 
L 603 3500 
z
M 603 4863 
L 1178 4863 
L 1178 4134 
L 603 4134 
L 603 4863 
z
" transform="scale(0.015625)"/>
       <path id="DejaVuSans-75" d="M 544 1381 
L 544 3500 
L 1119 3500 
L 1119 1403 
Q 1119 906 1312 657 
Q 1506 409 1894 409 
Q 2359 409 2629 706 
Q 2900 1003 2900 1516 
L 2900 3500 
L 3475 3500 
L 3475 0 
L 2900 0 
L 2900 538 
Q 2691 219 2414 64 
Q 2138 -91 1772 -91 
Q 1169 -91 856 284 
Q 544 659 544 1381 
z
M 1991 3584 
L 1991 3584 
z
" transform="scale(0.015625)"/>
       <path id="DejaVuSans-64" d="M 2906 2969 
L 2906 4863 
L 3481 4863 
L 3481 0 
L 2906 0 
L 2906 525 
Q 2725 213 2448 61 
Q 2172 -91 1784 -91 
Q 1150 -91 751 415 
Q 353 922 353 1747 
Q 353 2572 751 3078 
Q 1150 3584 1784 3584 
Q 2172 3584 2448 3432 
Q 2725 3281 2906 2969 
z
M 947 1747 
Q 947 1113 1208 752 
Q 1469 391 1925 391 
Q 2381 391 2643 752 
Q 2906 1113 2906 1747 
Q 2906 2381 2643 2742 
Q 2381 3103 1925 3103 
Q 1469 3103 1208 2742 
Q 947 2381 947 1747 
z
" transform="scale(0.015625)"/>
       <path id="DejaVuSans-65" d="M 3597 1894 
L 3597 1613 
L 953 1613 
Q 991 1019 1311 708 
Q 1631 397 2203 397 
Q 2534 397 2845 478 
Q 3156 559 3463 722 
L 3463 178 
Q 3153 47 2828 -22 
Q 2503 -91 2169 -91 
Q 1331 -91 842 396 
Q 353 884 353 1716 
Q 353 2575 817 3079 
Q 1281 3584 2069 3584 
Q 2775 3584 3186 3129 
Q 3597 2675 3597 1894 
z
M 3022 2063 
Q 3016 2534 2758 2815 
Q 2500 3097 2075 3097 
Q 1594 3097 1305 2825 
Q 1016 2553 972 2059 
L 3022 2063 
z
" transform="scale(0.015625)"/>
       <path id="DejaVuSans-20" transform="scale(0.015625)"/>
       <path id="DejaVuSans-5b" d="M 550 4863 
L 1875 4863 
L 1875 4416 
L 1125 4416 
L 1125 -397 
L 1875 -397 
L 1875 -844 
L 550 -844 
L 550 4863 
z
" transform="scale(0.015625)"/>
       <path id="DejaVuSans-72" d="M 2631 2963 
Q 2534 3019 2420 3045 
Q 2306 3072 2169 3072 
Q 1681 3072 1420 2755 
Q 1159 2438 1159 1844 
L 1159 0 
L 581 0 
L 581 3500 
L 1159 3500 
L 1159 2956 
Q 1341 3275 1631 3429 
Q 1922 3584 2338 3584 
Q 2397 3584 2469 3576 
Q 2541 3569 2628 3553 
L 2631 2963 
z
" transform="scale(0.015625)"/>
       <path id="DejaVuSans-61" d="M 2194 1759 
Q 1497 1759 1228 1600 
Q 959 1441 959 1056 
Q 959 750 1161 570 
Q 1363 391 1709 391 
Q 2188 391 2477 730 
Q 2766 1069 2766 1631 
L 2766 1759 
L 2194 1759 
z
M 3341 1997 
L 3341 0 
L 2766 0 
L 2766 531 
Q 2569 213 2275 61 
Q 1981 -91 1556 -91 
Q 1019 -91 701 211 
Q 384 513 384 1019 
Q 384 1609 779 1909 
Q 1175 2209 1959 2209 
L 2766 2209 
L 2766 2266 
Q 2766 2663 2505 2880 
Q 2244 3097 1772 3097 
Q 1472 3097 1187 3025 
Q 903 2953 641 2809 
L 641 3341 
Q 956 3463 1253 3523 
Q 1550 3584 1831 3584 
Q 2591 3584 2966 3190 
Q 3341 2797 3341 1997 
z
" transform="scale(0.015625)"/>
       <path id="DejaVuSans-5d" d="M 1947 4863 
L 1947 -844 
L 622 -844 
L 622 -397 
L 1369 -397 
L 1369 4416 
L 622 4416 
L 622 4863 
L 1947 4863 
z
" transform="scale(0.015625)"/>
      </defs>
      <use xlink:href="#DejaVuSans-41"/>
      <use xlink:href="#DejaVuSans-74" x="66.658203"/>
      <use xlink:href="#DejaVuSans-74" x="105.867188"/>
      <use xlink:href="#DejaVuSans-69" x="145.076172"/>
      <use xlink:href="#DejaVuSans-74" x="172.859375"/>
      <use xlink:href="#DejaVuSans-75" x="212.068359"/>
      <use xlink:href="#DejaVuSans-64" x="275.447266"/>
      <use xlink:href="#DejaVuSans-65" x="338.923828"/>
      <use xlink:href="#DejaVuSans-20" x="400.447266"/>
      <use xlink:href="#DejaVuSans-5b" x="432.234375"/>
      <use xlink:href="#DejaVuSans-72" x="471.248047"/>
      <use xlink:href="#DejaVuSans-61" x="512.361328"/>
      <use xlink:href="#DejaVuSans-64" x="573.640625"/>
      <use xlink:href="#DejaVuSans-5d" x="637.117188"/>
     </g>
    </g>
   </g>
   <g id="line2d_14">
    <path d="M 67.34 89.448023 
L 72.249303 90.345051 
L 78.401872 91.372905 
L 86.499035 92.528453 
L 91.185188 93.179296 
L 95.552556 93.748685 
L 97.815936 93.934134 
L 101.641367 94.27942 
L 105.403041 94.676612 
L 108.973444 94.992166 
L 133.009903 98.388166 
L 138.174236 98.993629 
L 141.138945 99.477013 
L 148.439143 100.640595 
L 152.296453 101.20285 
L 156.21752 101.800868 
L 159.724165 102.349793 
L 163.517718 102.942521 
L 174.898376 105.033031 
L 177.639935 105.698055 
L 183.473718 107.187883 
L 189.211865 108.332247 
L 191.220216 108.71476 
L 193.898018 109.223167 
L 202.186452 110.831374 
L 208.912836 111.742127 
L 210.953066 111.978057 
L 212.802024 112.233652 
L 216.53182 112.798868 
L 220.994823 113.484714 
L 226.127276 114.351992 
L 238.304899 116.783461 
L 240.536401 117.209121 
L 242.608509 117.607446 
L 250.928822 118.855625 
L 273.084445 122.861929 
L 279.268892 123.142736 
L 282.839295 123.177167 
L 285.931519 123.11829 
L 290.4264 122.731098 
L 292.817295 122.432822 
L 302.508387 121.668204 
L 306.556969 121.629212 
L 309.202892 121.422924 
L 318.862106 120.661965 
L 320.3604 120.536716 
L 324.249588 120.15515 
L 337.192298 119.156778 
L 343.886802 118.529926 
L 347.489083 118.145399 
L 350.358157 117.695994 
L 352.398387 117.404342 
L 355.426853 117.144929 
L 358.072777 116.966819 
L 374.522131 116.087061 
L 384.946431 115.612435 
L 392.565415 114.959083 
L 407.516476 114.46507 
L 411.182514 114.44993 
L 413.477773 114.627115 
L 415.932425 114.874318 
L 419.247798 115.266968 
L 426.165453 115.750341 
L 440.733971 115.655838 
L 458.075926 116.385661 
L 476.406117 116.875462 
L 480.518456 116.744835 
L 490.910878 116.082161 
L 493.652437 115.917091 
L 495.660788 115.812925 
L 500.346941 115.585642 
L 507.583382 115.294077 
L 514.724187 115.246204 
L 519.123433 115.236208 
L 522.630079 115.223153 
L 525.945452 115.192987 
L 530.75912 115.390842 
L 533.564436 115.673042 
L 535.891574 115.928047 
L 542.649835 116.970001 
L 551.958385 117.908169 
L 554.954973 117.996386 
L 568.120832 118.641231 
L 575.676059 119.514775 
L 578.385739 119.854012 
L 589.70264 121.148266 
L 593.145528 121.691431 
L 600.892027 122.975593 
L 607.873439 123.658107 
L 612.878378 123.971624 
L 615.747451 124.267719 
L 619.668518 124.540247 
L 625.661694 124.637686 
L 629.327732 124.512334 
L 636.596052 124.287903 
L 645.49018 124.565943 
L 649.857547 124.871084 
L 652.375956 125.038917 
L 655.308786 125.344559 
L 658.432889 125.805024 
L 666.912595 126.908498 
L 677.751317 127.87162 
L 684.445821 128.657002 
L 690.757783 129.273952 
L 696.368415 130.064884 
L 704.88 131.323349 
L 704.88 131.323349 
" clip-path="url(#p98051e9ca8)" style="fill: none; stroke: #1f77b4; stroke-width: 1.5; stroke-linecap: square"/>
   </g>
   <g id="line2d_15">
    <path d="M 67.34 76.397479 
L 73.715719 76.35641 
L 80.091438 76.219302 
L 86.467156 75.972431 
L 92.842875 75.633666 
L 99.218594 75.262318 
L 105.594313 74.965543 
L 111.970032 74.877621 
L 118.34575 75.1015 
L 124.721469 75.634373 
L 131.097188 76.337015 
L 137.472907 76.995305 
L 143.848625 77.434356 
L 150.224344 77.576323 
L 156.600063 77.432348 
L 162.975782 77.065039 
L 169.351501 76.551797 
L 175.727219 75.959868 
L 182.102938 75.342068 
L 188.478657 74.737988 
L 194.854376 74.177497 
L 201.230095 73.677841 
L 207.605813 73.248279 
L 213.981532 72.884252 
L 220.357251 72.575323 
L 226.73297 72.311846 
L 233.108688 72.083947 
L 239.484407 71.881214 
L 245.860126 71.694427 
L 252.235845 71.517751 
L 258.611564 71.347466 
L 264.987282 71.182113 
L 271.363001 71.023651 
L 277.73872 70.871225 
L 284.114439 70.723561 
L 290.490158 70.579928 
L 296.865876 70.434682 
L 303.241595 70.282319 
L 309.617314 70.123701 
L 315.993033 69.969144 
L 322.368751 69.823533 
L 328.74447 69.685969 
L 335.120189 69.554563 
L 341.495908 69.429543 
L 347.871627 69.311193 
L 354.247345 69.203861 
L 360.623064 69.109634 
L 366.998783 69.029803 
L 373.374502 68.967545 
L 379.750221 68.919827 
L 386.125939 68.875473 
L 392.501658 68.825316 
L 398.877377 68.769686 
L 405.253096 68.707566 
L 411.628814 68.633391 
L 418.004533 68.54294 
L 424.380252 68.438297 
L 430.755971 68.324977 
L 437.13169 68.201801 
L 443.507408 68.062557 
L 449.883127 67.904789 
L 456.258846 67.741135 
L 462.634565 67.584772 
L 469.010284 67.443036 
L 475.386002 67.327316 
L 481.761721 67.254814 
L 488.13744 67.238442 
L 494.513159 67.281405 
L 500.888877 67.37279 
L 507.264596 67.487344 
L 513.640315 67.604166 
L 520.016034 67.710357 
L 526.391753 67.797805 
L 532.767471 67.860723 
L 539.14319 67.893302 
L 545.518909 67.894909 
L 551.894628 67.862167 
L 558.270347 67.795493 
L 564.646065 67.698699 
L 571.021784 67.587576 
L 577.397503 67.483908 
L 583.773222 67.406621 
L 590.14894 67.37039 
L 596.524659 67.379221 
L 602.900378 67.426678 
L 609.276097 67.494089 
L 615.651816 67.560546 
L 622.027534 67.60803 
L 628.403253 67.632157 
L 634.778972 67.630455 
L 641.154691 67.60445 
L 647.53041 67.561518 
L 653.906128 67.509729 
L 660.281847 67.449031 
L 666.657566 67.386358 
L 673.033285 67.331838 
L 679.409003 67.288148 
L 685.784722 67.256298 
L 692.160441 67.241395 
L 698.53616 67.247685 
" clip-path="url(#p98051e9ca8)" style="fill: none; stroke-dasharray: 5.55,2.4; stroke-dashoffset: 0; stroke: #ff0000; stroke-width: 1.5"/>
   </g>
   <g id="line2d_16">
    <path d="M 67.34 128.599656 
L 73.715719 128.640726 
L 80.091438 128.777833 
L 86.467156 129.024704 
L 92.842875 129.363469 
L 99.218594 129.734817 
L 105.594313 130.031593 
L 111.970032 130.119514 
L 118.34575 129.895635 
L 124.721469 129.362762 
L 131.097188 128.66012 
L 137.472907 128.001831 
L 143.848625 127.562779 
L 150.224344 127.420813 
L 156.600063 127.564788 
L 162.975782 127.932096 
L 169.351501 128.445338 
L 175.727219 129.037267 
L 182.102938 129.655067 
L 188.478657 130.259148 
L 194.854376 130.819638 
L 201.230095 131.319295 
L 207.605813 131.748856 
L 213.981532 132.112883 
L 220.357251 132.421812 
L 226.73297 132.685289 
L 233.108688 132.913188 
L 239.484407 133.115922 
L 245.860126 133.302708 
L 252.235845 133.479384 
L 258.611564 133.64967 
L 264.987282 133.815022 
L 271.363001 133.973484 
L 277.73872 134.125911 
L 284.114439 134.273574 
L 290.490158 134.417208 
L 296.865876 134.562453 
L 303.241595 134.714817 
L 309.617314 134.873435 
L 315.993033 135.027992 
L 322.368751 135.173602 
L 328.74447 135.311166 
L 335.120189 135.442572 
L 341.495908 135.567592 
L 347.871627 135.685942 
L 354.247345 135.793274 
L 360.623064 135.887502 
L 366.998783 135.967333 
L 373.374502 136.02959 
L 379.750221 136.077309 
L 386.125939 136.121663 
L 392.501658 136.171819 
L 398.877377 136.22745 
L 405.253096 136.28957 
L 411.628814 136.363744 
L 418.004533 136.454196 
L 424.380252 136.558838 
L 430.755971 136.672158 
L 437.13169 136.795334 
L 443.507408 136.934578 
L 449.883127 137.092347 
L 456.258846 137.256001 
L 462.634565 137.412363 
L 469.010284 137.554099 
L 475.386002 137.669819 
L 481.761721 137.742321 
L 488.13744 137.758694 
L 494.513159 137.715731 
L 500.888877 137.624346 
L 507.264596 137.509791 
L 513.640315 137.392969 
L 520.016034 137.286779 
L 526.391753 137.199331 
L 532.767471 137.136412 
L 539.14319 137.103833 
L 545.518909 137.102227 
L 551.894628 137.134968 
L 558.270347 137.201642 
L 564.646065 137.298437 
L 571.021784 137.409559 
L 577.397503 137.513227 
L 583.773222 137.590515 
L 590.14894 137.626745 
L 596.524659 137.617914 
L 602.900378 137.570458 
L 609.276097 137.503046 
L 615.651816 137.436589 
L 622.027534 137.389106 
L 628.403253 137.364978 
L 634.778972 137.36668 
L 641.154691 137.392686 
L 647.53041 137.435618 
L 653.906128 137.487406 
L 660.281847 137.548105 
L 666.657566 137.610778 
L 673.033285 137.665297 
L 679.409003 137.708987 
L 685.784722 137.740837 
L 692.160441 137.75574 
L 698.53616 137.74945 
" clip-path="url(#p98051e9ca8)" style="fill: none; stroke-dasharray: 5.55,2.4; stroke-dashoffset: 0; stroke: #ff0000; stroke-width: 1.5"/>
   </g>
   <g id="patch_3">
    <path d="M 67.34 156.344 
L 67.34 48.653135 
" style="fill: none; stroke: #000000; stroke-width: 0.8; stroke-linejoin: miter; stroke-linecap: square"/>
   </g>
   <g id="patch_4">
    <path d="M 704.88 156.344 
L 704.88 48.653135 
" style="fill: none; stroke: #000000; stroke-width: 0.8; stroke-linejoin: miter; stroke-linecap: square"/>
   </g>
   <g id="patch_5">
    <path d="M 67.34 156.344 
L 704.88 156.344 
" style="fill: none; stroke: #000000; stroke-width: 0.8; stroke-linejoin: miter; stroke-linecap: square"/>
   </g>
   <g id="patch_6">
    <path d="M 67.34 48.653135 
L 704.88 48.653135 
" style="fill: none; stroke: #000000; stroke-width: 0.8; stroke-linejoin: miter; stroke-linecap: square"/>
   </g>
  </g>
  <g id="axes_2">
   <g id="patch_7">
    <path d="M 67.34 283.888 
L 704.88 283.888 
L 704.88 176.197135 
L 67.34 176.197135 
z
" style="fill: #ffffff"/>
   </g>
   <g id="matplotlib.axis_3">
    <g id="xtick_9">
     <g id="line2d_17">
      <g>
       <use xlink:href="#m7f4a617b07" x="67.34" y="283.888" style="stroke: #000000; stroke-width: 0.8"/>
      </g>
     </g>
    </g>
    <g id="xtick_10">
     <g id="line2d_18">
      <g>
       <use xlink:href="#m7f4a617b07" x="147.036485" y="283.888" style="stroke: #000000; stroke-width: 0.8"/>
      </g>
     </g>
    </g>
    <g id="xtick_11">
     <g id="line2d_19">
      <g>
       <use xlink:href="#m7f4a617b07" x="226.73297" y="283.888" style="stroke: #000000; stroke-width: 0.8"/>
      </g>
     </g>
    </g>
    <g id="xtick_12">
     <g id="line2d_20">
      <g>
       <use xlink:href="#m7f4a617b07" x="306.429454" y="283.888" style="stroke: #000000; stroke-width: 0.8"/>
      </g>
     </g>
    </g>
    <g id="xtick_13">
     <g id="line2d_21">
      <g>
       <use xlink:href="#m7f4a617b07" x="386.125939" y="283.888" style="stroke: #000000; stroke-width: 0.8"/>
      </g>
     </g>
    </g>
    <g id="xtick_14">
     <g id="line2d_22">
      <g>
       <use xlink:href="#m7f4a617b07" x="465.822424" y="283.888" style="stroke: #000000; stroke-width: 0.8"/>
      </g>
     </g>
    </g>
    <g id="xtick_15">
     <g id="line2d_23">
      <g>
       <use xlink:href="#m7f4a617b07" x="545.518909" y="283.888" style="stroke: #000000; stroke-width: 0.8"/>
      </g>
     </g>
    </g>
    <g id="xtick_16">
     <g id="line2d_24">
      <g>
       <use xlink:href="#m7f4a617b07" x="625.215394" y="283.888" style="stroke: #000000; stroke-width: 0.8"/>
      </g>
     </g>
    </g>
   </g>
   <g id="matplotlib.axis_4">
    <g id="ytick_6">
     <g id="line2d_25">
      <g>
       <use xlink:href="#mb51b80296f" x="67.34" y="269.043872" style="stroke: #000000; stroke-width: 0.8"/>
      </g>
     </g>
     <g id="text_7">
      <!-- -0.5 -->
      <g transform="translate(33.024687 274.362778) scale(0.14 -0.14)">
       <defs>
        <path id="DejaVuSans-35" d="M 691 4666 
L 3169 4666 
L 3169 4134 
L 1269 4134 
L 1269 2991 
Q 1406 3038 1543 3061 
Q 1681 3084 1819 3084 
Q 2600 3084 3056 2656 
Q 3513 2228 3513 1497 
Q 3513 744 3044 326 
Q 2575 -91 1722 -91 
Q 1428 -91 1123 -41 
Q 819 9 494 109 
L 494 744 
Q 775 591 1075 516 
Q 1375 441 1709 441 
Q 2250 441 2565 725 
Q 2881 1009 2881 1497 
Q 2881 1984 2565 2268 
Q 2250 2553 1709 2553 
Q 1456 2553 1204 2497 
Q 953 2441 691 2322 
L 691 4666 
z
" transform="scale(0.015625)"/>
       </defs>
       <use xlink:href="#DejaVuSans-2d"/>
       <use xlink:href="#DejaVuSans-30" x="36.083984"/>
       <use xlink:href="#DejaVuSans-2e" x="99.707031"/>
       <use xlink:href="#DejaVuSans-35" x="131.494141"/>
      </g>
     </g>
    </g>
    <g id="ytick_7">
     <g id="line2d_26">
      <g>
       <use xlink:href="#mb51b80296f" x="67.34" y="230.042568" style="stroke: #000000; stroke-width: 0.8"/>
      </g>
     </g>
     <g id="text_8">
      <!-- 0.0 -->
      <g transform="translate(38.075625 235.361474) scale(0.14 -0.14)">
       <use xlink:href="#DejaVuSans-30"/>
       <use xlink:href="#DejaVuSans-2e" x="63.623047"/>
       <use xlink:href="#DejaVuSans-30" x="95.410156"/>
      </g>
     </g>
    </g>
    <g id="ytick_8">
     <g id="line2d_27">
      <g>
       <use xlink:href="#mb51b80296f" x="67.34" y="191.041263" style="stroke: #000000; stroke-width: 0.8"/>
      </g>
     </g>
     <g id="text_9">
      <!-- 0.5 -->
      <g transform="translate(38.075625 196.360169) scale(0.14 -0.14)">
       <use xlink:href="#DejaVuSans-30"/>
       <use xlink:href="#DejaVuSans-2e" x="63.623047"/>
       <use xlink:href="#DejaVuSans-35" x="95.410156"/>
      </g>
     </g>
    </g>
    <g id="text_10">
     <!-- Vel N [m/s] -->
     <g transform="translate(26.113125 268.511943) rotate(-90) scale(0.14 -0.14)">
      <defs>
       <path id="DejaVuSans-56" d="M 1831 0 
L 50 4666 
L 709 4666 
L 2188 738 
L 3669 4666 
L 4325 4666 
L 2547 0 
L 1831 0 
z
" transform="scale(0.015625)"/>
       <path id="DejaVuSans-6c" d="M 603 4863 
L 1178 4863 
L 1178 0 
L 603 0 
L 603 4863 
z
" transform="scale(0.015625)"/>
       <path id="DejaVuSans-4e" d="M 628 4666 
L 1478 4666 
L 3547 763 
L 3547 4666 
L 4159 4666 
L 4159 0 
L 3309 0 
L 1241 3903 
L 1241 0 
L 628 0 
L 628 4666 
z
" transform="scale(0.015625)"/>
       <path id="DejaVuSans-6d" d="M 3328 2828 
Q 3544 3216 3844 3400 
Q 4144 3584 4550 3584 
Q 5097 3584 5394 3201 
Q 5691 2819 5691 2113 
L 5691 0 
L 5113 0 
L 5113 2094 
Q 5113 2597 4934 2840 
Q 4756 3084 4391 3084 
Q 3944 3084 3684 2787 
Q 3425 2491 3425 1978 
L 3425 0 
L 2847 0 
L 2847 2094 
Q 2847 2600 2669 2842 
Q 2491 3084 2119 3084 
Q 1678 3084 1418 2786 
Q 1159 2488 1159 1978 
L 1159 0 
L 581 0 
L 581 3500 
L 1159 3500 
L 1159 2956 
Q 1356 3278 1631 3431 
Q 1906 3584 2284 3584 
Q 2666 3584 2933 3390 
Q 3200 3197 3328 2828 
z
" transform="scale(0.015625)"/>
       <path id="DejaVuSans-2f" d="M 1625 4666 
L 2156 4666 
L 531 -594 
L 0 -594 
L 1625 4666 
z
" transform="scale(0.015625)"/>
       <path id="DejaVuSans-73" d="M 2834 3397 
L 2834 2853 
Q 2591 2978 2328 3040 
Q 2066 3103 1784 3103 
Q 1356 3103 1142 2972 
Q 928 2841 928 2578 
Q 928 2378 1081 2264 
Q 1234 2150 1697 2047 
L 1894 2003 
Q 2506 1872 2764 1633 
Q 3022 1394 3022 966 
Q 3022 478 2636 193 
Q 2250 -91 1575 -91 
Q 1294 -91 989 -36 
Q 684 19 347 128 
L 347 722 
Q 666 556 975 473 
Q 1284 391 1588 391 
Q 1994 391 2212 530 
Q 2431 669 2431 922 
Q 2431 1156 2273 1281 
Q 2116 1406 1581 1522 
L 1381 1569 
Q 847 1681 609 1914 
Q 372 2147 372 2553 
Q 372 3047 722 3315 
Q 1072 3584 1716 3584 
Q 2034 3584 2315 3537 
Q 2597 3491 2834 3397 
z
" transform="scale(0.015625)"/>
      </defs>
      <use xlink:href="#DejaVuSans-56"/>
      <use xlink:href="#DejaVuSans-65" x="60.658203"/>
      <use xlink:href="#DejaVuSans-6c" x="122.181641"/>
      <use xlink:href="#DejaVuSans-20" x="149.964844"/>
      <use xlink:href="#DejaVuSans-4e" x="181.751953"/>
      <use xlink:href="#DejaVuSans-20" x="256.556641"/>
      <use xlink:href="#DejaVuSans-5b" x="288.34375"/>
      <use xlink:href="#DejaVuSans-6d" x="327.357422"/>
      <use xlink:href="#DejaVuSans-2f" x="424.769531"/>
      <use xlink:href="#DejaVuSans-73" x="458.460938"/>
      <use xlink:href="#DejaVuSans-5d" x="510.560547"/>
     </g>
    </g>
   </g>
   <g id="line2d_28">
    <path d="M 67.34 386.047786 
L 69.60338 385.973688 
L 72.568089 385.924751 
L 77.891815 386.48553 
L 78.656901 386.497834 
L 79.58138 386.608424 
L 80.314588 386.748723 
L 81.972275 386.892518 
L 82.386696 386.92104 
L 83.948747 386.967324 
L 85.351406 386.760256 
L 86.403399 386.600738 
L 86.817821 386.55446 
L 88.284236 386.366162 
L 88.826172 386.331904 
L 89.623137 386.340078 
L 90.993917 386.357033 
L 93.257297 386.329478 
L 93.958626 386.326016 
L 99.696773 386.856702 
L 101.513853 387.19774 
L 102.502089 387.336209 
L 103.203418 387.401074 
L 105.275527 387.50998 
L 106.263763 387.614031 
L 107.283878 387.637802 
L 108.463386 387.629675 
L 110.344223 387.472158 
L 110.981795 387.413843 
L 111.746881 387.384586 
L 112.830754 387.378066 
L 113.691476 387.384956 
L 114.584076 387.34873 
L 116.146127 387.351686 
L 117.644421 387.480144 
L 122.298696 387.616465 
L 122.936268 387.726915 
L 125.263405 388.265132 
L 126.315399 388.424429 
L 130.236466 389.157892 
L 131.097188 389.264381 
L 131.51161 389.345287 
L 133.77499 389.592734 
L 134.476319 389.630815 
L 138.206114 389.914453 
L 139.130594 389.898534 
L 148.0566 389.746398 
L 149.140472 389.596716 
L 152.58336 389.238151 
L 153.858504 389.229255 
L 155.420555 389.311002 
L 155.866855 389.302155 
L 158.895322 389.251522 
L 161.573124 389.128132 
L 162.306331 389.12396 
L 164.60159 389.247048 
L 165.557948 389.249984 
L 171.296095 389.135713 
L 171.933667 389.207247 
L 172.443724 389.279708 
L 176.364791 389.827772 
L 177.767449 389.88614 
L 178.851322 390.02478 
L 180.668401 390.189682 
L 181.879788 390.255114 
L 185.131405 390.436333 
L 185.800855 390.507777 
L 191.985302 391.189423 
L 192.559117 391.264671 
L 193.260446 391.398593 
L 198.169749 392.396989 
L 198.871079 392.524009 
L 199.954951 392.764053 
L 201.293852 393.062126 
L 201.963302 393.210146 
L 202.505238 393.298099 
L 203.238446 393.440316 
L 204.354197 393.67732 
L 204.832376 393.747384 
L 206.458184 394.0185 
L 208.147749 394.406848 
L 208.498414 394.485117 
L 209.008471 394.586368 
L 209.869193 394.730781 
L 210.538644 394.802027 
L 211.52688 394.917166 
L 215.798612 395.049899 
L 216.595577 395.067446 
L 217.711328 395.08444 
L 219.369014 395.173468 
L 219.974708 395.190345 
L 222.429359 395.338413 
L 224.055168 395.389312 
L 224.628982 395.410165 
L 225.107161 395.45471 
L 226.127276 395.490729 
L 229.506407 395.445022 
L 230.303372 395.496056 
L 232.120452 395.470845 
L 232.694267 395.448355 
L 233.427474 395.395219 
L 235.372069 395.344033 
L 238.241142 395.556721 
L 239.6438 395.819497 
L 243.341717 396.960564 
L 243.819896 397.100953 
L 247.007755 398.196847 
L 247.709084 398.377297 
L 250.195615 399.231254 
L 251.056337 399.597012 
L 251.630152 399.81531 
L 252.427116 400.120238 
L 253.351596 400.518989 
L 255.678733 401.968981 
L 256.985755 402.729771 
L 263.488988 406.374229 
L 266.134912 408.08397 
L 266.995634 408.580995 
L 270.566036 411.135188 
L 271.458637 411.815975 
L 273.977046 413.698665 
L 274.997161 414.44078 
L 275.47534 414.7984 
L 276.304183 415.404187 
L 276.750484 415.741513 
L 280.894701 418.643245 
L 281.468515 419.033834 
L 281.882937 419.332841 
L 282.616145 419.878272 
L 285.357704 421.772682 
L 287.557327 423.021977 
L 287.971749 423.230539 
L 288.928106 423.674744 
L 289.5338 423.944619 
L 297.630963 426.885417 
L 298.332292 427.065003 
L 300.18125 427.691265 
L 301.041972 427.962694 
L 302.476509 428.407466 
L 302.890931 428.523788 
L 304.421103 429.039716 
L 305.473097 429.378097 
L 306.716362 429.624529 
L 307.353934 429.73376 
L 308.629077 429.941458 
L 313.857167 430.784856 
L 314.494739 430.932518 
L 315.674247 431.216193 
L 316.439333 431.419646 
L 323.803288 432.501456 
L 324.281467 432.543901 
L 325.365339 432.671706 
L 327.054905 432.829075 
L 329.318285 432.805775 
L 329.764585 432.76404 
L 336.714119 432.317956 
L 337.479205 432.244871 
L 341.846572 431.601449 
L 342.388508 431.504927 
L 343.24923 431.230213 
L 347.010905 429.84189 
L 348.732349 429.022917 
L 349.083013 428.859003 
L 357.913384 425.083658 
L 358.487198 424.835072 
L 365.755518 422.398578 
L 366.552483 422.012499 
L 367.731991 421.45458 
L 368.43332 421.062145 
L 369.262163 420.569772 
L 369.963492 420.212326 
L 372.258751 419.149344 
L 372.928201 418.849146 
L 373.788923 418.573551 
L 375.032189 418.158193 
L 377.805626 417.164611 
L 378.251927 417.045424 
L 381.726693 416.280497 
L 382.300508 416.18047 
L 382.810566 416.053396 
L 383.224987 415.962993 
L 385.870911 415.49943 
L 387.46484 415.296504 
L 388.166169 415.144417 
L 388.899377 414.999914 
L 395.944546 413.177139 
L 396.99654 412.945723 
L 398.144169 412.667536 
L 400.056885 412.197214 
L 400.566942 412.083612 
L 404.998067 411.509927 
L 405.858789 411.399651 
L 407.19769 411.323064 
L 407.771505 411.343042 
L 409.620463 411.285394 
L 411.373786 411.240585 
L 416.474361 410.946618 
L 417.080054 410.889578 
L 418.418955 410.777582 
L 423.678923 409.986613 
L 427.249325 409.334174 
L 427.59999 409.272905 
L 429.990885 408.962184 
L 430.660335 408.886867 
L 431.042878 408.87196 
L 431.393543 408.863065 
L 432.445536 408.82116 
L 433.114987 408.810301 
L 434.932067 408.867368 
L 435.474003 408.92107 
L 442.646686 409.87533 
L 445.675153 410.620577 
L 449.022405 410.974948 
L 450.010642 411.059835 
L 450.807606 411.131599 
L 451.987114 411.223532 
L 453.549165 411.309619 
L 459.510463 411.980662 
L 460.46682 412.118177 
L 467.288839 413.178966 
L 467.926411 413.226694 
L 469.010284 413.28559 
L 469.55222 413.285123 
L 472.7082 413.245877 
L 476.023574 412.845137 
L 478.956405 412.140269 
L 481.347299 411.363193 
L 482.01675 411.152975 
L 482.941229 410.831348 
L 487.244839 408.875329 
L 489.285069 407.737219 
L 489.603855 407.553114 
L 491.165906 406.797503 
L 494.385644 404.976654 
L 495.278245 404.515868 
L 497.382232 403.391414 
L 498.019804 403.061676 
L 500.761363 401.825789 
L 507.455868 399.294744 
L 508.31659 398.992337 
L 508.76289 398.851608 
L 510.707484 398.100282 
L 511.313178 397.884482 
L 512.237657 397.545345 
L 513.0665 397.172691 
L 515.202366 396.365969 
L 516.286238 396.001626 
L 522.311293 394.771409 
L 523.140136 394.704621 
L 525.786059 394.336412 
L 526.136724 394.30267 
L 526.997446 394.177188 
L 529.930277 394.029395 
L 531.014149 393.984894 
L 536.082845 393.44762 
L 536.529145 393.389003 
L 539.398219 393.306639 
L 539.972034 393.288635 
L 541.820992 393.309021 
L 542.33105 393.327878 
L 542.904864 393.339765 
L 548.483618 393.96246 
L 558.365982 396.851819 
L 559.162947 396.992214 
L 559.673005 397.095278 
L 561.36257 397.384924 
L 562.797107 397.723864 
L 564.104129 397.926073 
L 565.347394 398.172298 
L 566.654417 398.344149 
L 567.132596 398.416624 
L 569.30034 398.695734 
L 570.926148 398.869713 
L 572.073778 398.947117 
L 572.679471 398.97821 
L 573.572072 399.05654 
L 576.568659 399.036324 
L 577.556896 398.993336 
L 578.927675 398.937924 
L 580.712877 398.979176 
L 582.370564 399.147572 
L 583.709464 399.27315 
L 584.633944 399.344496 
L 585.303394 399.374051 
L 587.152353 399.25359 
L 588.236225 399.175032 
L 590.276455 399.024269 
L 590.945905 398.940015 
L 591.74287 398.859576 
L 592.412321 398.792595 
L 593.273043 398.694555 
L 594.356915 398.488875 
L 594.962608 398.381572 
L 595.663937 398.279684 
L 596.237752 398.167372 
L 599.298097 397.491431 
L 602.804742 396.662328 
L 603.219164 396.558387 
L 610.232455 394.848112 
L 610.742512 394.730577 
L 614.791094 393.519157 
L 615.874966 393.090699 
L 617.341381 392.656942 
L 618.871554 392.218077 
L 622.282563 391.036595 
L 622.696985 390.91389 
L 627.032474 389.823026 
L 627.765681 389.656903 
L 633.567585 388.742757 
L 635.161515 388.716081 
L 635.799087 388.683601 
L 636.436659 388.718865 
L 637.616167 388.824793 
L 639.178218 388.980952 
L 640.899662 389.043629 
L 641.505355 389.011834 
L 644.980122 389.071182 
L 646.095873 389.125848 
L 646.860959 389.134183 
L 647.97671 389.225229 
L 648.933068 389.235181 
L 652.28032 388.752046 
L 653.332314 388.500758 
L 655.468179 387.968163 
L 657.062109 387.454743 
L 657.540288 387.261743 
L 658.241617 387.018237 
L 659.134218 386.738278 
L 659.77179 386.51226 
L 660.632512 386.246235 
L 661.875777 385.9259 
L 662.417713 385.775978 
L 663.246556 385.554283 
L 663.85225 385.332124 
L 665.063636 385.003908 
L 666.051873 384.782676 
L 670.86554 383.525162 
L 671.981291 383.132095 
L 675.87048 381.780322 
L 677.623802 381.113387 
L 678.835189 380.712119 
L 681.321719 379.95375 
L 682.278077 379.720466 
L 684.318307 379.285727 
L 685.14715 379.184312 
L 687.091745 379.004602 
L 687.793074 378.929957 
L 688.55816 378.830037 
L 690.725904 378.540789 
L 693.818128 378.06017 
L 694.391943 377.990806 
L 697.133502 377.816885 
L 700.767661 377.921517 
L 701.724019 377.890717 
L 702.807891 377.78815 
L 703.764249 377.736829 
L 704.88 377.798434 
L 704.88 377.798434 
" clip-path="url(#p9c628ad622)" style="fill: none; stroke: #1f77b4; stroke-width: 1.5; stroke-linecap: square"/>
   </g>
   <g id="line2d_29">
    <path d="M 79.417941 -1 
L 80.091438 69.672809 
L 86.467156 148.214448 
L 92.842875 177.651303 
L 99.218594 191.959745 
L 105.594313 199.286646 
L 111.970032 202.550031 
L 118.34575 203.317326 
L 124.721469 202.783996 
L 131.097188 201.833787 
L 137.472907 200.935561 
L 143.848625 200.37156 
L 150.224344 200.220696 
L 156.600063 200.345661 
L 162.975782 200.553615 
L 169.351501 200.744565 
L 175.727219 200.867737 
L 182.102938 200.869171 
L 188.478657 200.68582 
L 194.854376 200.417248 
L 201.230095 200.077263 
L 207.605813 199.768491 
L 213.981532 199.533074 
L 220.357251 199.352439 
L 226.73297 199.232822 
L 233.108688 199.19441 
L 239.484407 199.241355 
L 245.860126 199.328314 
L 252.235845 199.436242 
L 258.611564 199.538724 
L 264.987282 199.63621 
L 271.363001 199.724979 
L 277.73872 199.845257 
L 284.114439 200.005769 
L 290.490158 200.20504 
L 296.865876 200.521707 
L 303.241595 200.86909 
L 309.617314 201.191497 
L 315.993033 201.481189 
L 322.368751 201.814697 
L 328.74447 202.203678 
L 335.120189 202.611477 
L 341.495908 203.016505 
L 347.871627 203.448476 
L 354.247345 203.868203 
L 360.623064 204.214565 
L 366.998783 204.513593 
L 373.374502 204.761276 
L 379.750221 204.972574 
L 386.125939 205.146313 
L 392.501658 205.26929 
L 398.877377 205.349415 
L 405.253096 205.390143 
L 411.628814 205.396648 
L 418.004533 205.366405 
L 424.380252 205.301117 
L 430.755971 205.193799 
L 437.13169 205.036851 
L 443.507408 204.843301 
L 449.883127 204.571177 
L 456.258846 204.208042 
L 462.634565 203.830839 
L 469.010284 203.453712 
L 475.386002 203.044821 
L 481.761721 202.625536 
L 488.13744 202.240241 
L 494.513159 201.896279 
L 500.888877 201.623149 
L 507.264596 201.399329 
L 513.640315 201.161416 
L 520.016034 200.924449 
L 526.391753 200.65217 
L 532.767471 200.496341 
L 539.14319 200.342351 
L 545.518909 200.270646 
L 551.894628 200.245086 
L 558.270347 200.260998 
L 564.646065 200.313003 
L 571.021784 200.279968 
L 577.397503 200.222922 
L 583.773222 200.152387 
L 590.14894 200.121856 
L 596.524659 200.15595 
L 602.900378 200.277705 
L 609.276097 200.545773 
L 615.651816 200.889222 
L 622.027534 201.230699 
L 628.403253 201.576547 
L 634.778972 201.991391 
L 641.154691 202.421225 
L 647.53041 202.803911 
L 653.906128 203.174773 
L 660.281847 203.493776 
L 666.657566 203.718635 
L 673.033285 203.942776 
L 679.409003 204.151348 
L 685.784722 204.372145 
L 692.160441 204.571762 
L 698.53616 204.722831 
" clip-path="url(#p9c628ad622)" style="fill: none; stroke-dasharray: 5.55,2.4; stroke-dashoffset: 0; stroke: #ff0000; stroke-width: 1.5"/>
   </g>
   <g id="line2d_30">
    <path d="M 76.941009 721 
L 80.091438 390.412327 
L 86.467156 311.870687 
L 92.842875 282.433832 
L 99.218594 268.12539 
L 105.594313 260.798489 
L 111.970032 257.535104 
L 118.34575 256.767809 
L 124.721469 257.301139 
L 131.097188 258.251348 
L 137.472907 259.149574 
L 143.848625 259.713576 
L 150.224344 259.86444 
L 156.600063 259.739474 
L 162.975782 259.531521 
L 169.351501 259.340571 
L 175.727219 259.217399 
L 182.102938 259.215964 
L 188.478657 259.399315 
L 194.854376 259.667887 
L 201.230095 260.007872 
L 207.605813 260.316644 
L 213.981532 260.552061 
L 220.357251 260.732697 
L 226.73297 260.852313 
L 233.108688 260.890725 
L 239.484407 260.84378 
L 245.860126 260.756821 
L 252.235845 260.648893 
L 258.611564 260.546412 
L 264.987282 260.448925 
L 271.363001 260.360157 
L 277.73872 260.239878 
L 284.114439 260.079366 
L 290.490158 259.880096 
L 296.865876 259.563429 
L 303.241595 259.216045 
L 309.617314 258.893639 
L 315.993033 258.603946 
L 322.368751 258.270439 
L 328.74447 257.881457 
L 335.120189 257.473659 
L 341.495908 257.068631 
L 347.871627 256.63666 
L 354.247345 256.216932 
L 360.623064 255.87057 
L 366.998783 255.571542 
L 373.374502 255.323859 
L 379.750221 255.112562 
L 386.125939 254.938822 
L 392.501658 254.815845 
L 398.877377 254.735721 
L 405.253096 254.694993 
L 411.628814 254.688487 
L 418.004533 254.71873 
L 424.380252 254.784019 
L 430.755971 254.891336 
L 437.13169 255.048285 
L 443.507408 255.241834 
L 449.883127 255.513958 
L 456.258846 255.877093 
L 462.634565 256.254297 
L 469.010284 256.631424 
L 475.386002 257.040314 
L 481.761721 257.459599 
L 488.13744 257.844894 
L 494.513159 258.188856 
L 500.888877 258.461987 
L 507.264596 258.685806 
L 513.640315 258.923719 
L 520.016034 259.160686 
L 526.391753 259.432965 
L 532.767471 259.588795 
L 539.14319 259.742784 
L 545.518909 259.814489 
L 551.894628 259.84005 
L 558.270347 259.824137 
L 564.646065 259.772132 
L 571.021784 259.805167 
L 577.397503 259.862213 
L 583.773222 259.932748 
L 590.14894 259.963279 
L 596.524659 259.929185 
L 602.900378 259.807431 
L 609.276097 259.539362 
L 615.651816 259.195913 
L 622.027534 258.854436 
L 628.403253 258.508588 
L 634.778972 258.093744 
L 641.154691 257.66391 
L 647.53041 257.281224 
L 653.906128 256.910363 
L 660.281847 256.59136 
L 666.657566 256.366501 
L 673.033285 256.14236 
L 679.409003 255.933788 
L 685.784722 255.71299 
L 692.160441 255.513373 
L 698.53616 255.362304 
" clip-path="url(#p9c628ad622)" style="fill: none; stroke-dasharray: 5.55,2.4; stroke-dashoffset: 0; stroke: #ff0000; stroke-width: 1.5"/>
   </g>
   <g id="patch_8">
    <path d="M 67.34 283.888 
L 67.34 176.197135 
" style="fill: none; stroke: #000000; stroke-width: 0.8; stroke-linejoin: miter; stroke-linecap: square"/>
   </g>
   <g id="patch_9">
    <path d="M 704.88 283.888 
L 704.88 176.197135 
" style="fill: none; stroke: #000000; stroke-width: 0.8; stroke-linejoin: miter; stroke-linecap: square"/>
   </g>
   <g id="patch_10">
    <path d="M 67.34 283.888 
L 704.88 283.888 
" style="fill: none; stroke: #000000; stroke-width: 0.8; stroke-linejoin: miter; stroke-linecap: square"/>
   </g>
   <g id="patch_11">
    <path d="M 67.34 176.197135 
L 704.88 176.197135 
" style="fill: none; stroke: #000000; stroke-width: 0.8; stroke-linejoin: miter; stroke-linecap: square"/>
   </g>
  </g>
  <g id="axes_3">
   <g id="patch_12">
    <path d="M 67.34 411.432 
L 704.88 411.432 
L 704.88 303.741135 
L 67.34 303.741135 
z
" style="fill: #ffffff"/>
   </g>
   <g id="matplotlib.axis_5">
    <g id="xtick_17">
     <g id="line2d_31">
      <g>
       <use xlink:href="#m7f4a617b07" x="67.34" y="411.432" style="stroke: #000000; stroke-width: 0.8"/>
      </g>
     </g>
    </g>
    <g id="xtick_18">
     <g id="line2d_32">
      <g>
       <use xlink:href="#m7f4a617b07" x="147.036485" y="411.432" style="stroke: #000000; stroke-width: 0.8"/>
      </g>
     </g>
    </g>
    <g id="xtick_19">
     <g id="line2d_33">
      <g>
       <use xlink:href="#m7f4a617b07" x="226.73297" y="411.432" style="stroke: #000000; stroke-width: 0.8"/>
      </g>
     </g>
    </g>
    <g id="xtick_20">
     <g id="line2d_34">
      <g>
       <use xlink:href="#m7f4a617b07" x="306.429454" y="411.432" style="stroke: #000000; stroke-width: 0.8"/>
      </g>
     </g>
    </g>
    <g id="xtick_21">
     <g id="line2d_35">
      <g>
       <use xlink:href="#m7f4a617b07" x="386.125939" y="411.432" style="stroke: #000000; stroke-width: 0.8"/>
      </g>
     </g>
    </g>
    <g id="xtick_22">
     <g id="line2d_36">
      <g>
       <use xlink:href="#m7f4a617b07" x="465.822424" y="411.432" style="stroke: #000000; stroke-width: 0.8"/>
      </g>
     </g>
    </g>
    <g id="xtick_23">
     <g id="line2d_37">
      <g>
       <use xlink:href="#m7f4a617b07" x="545.518909" y="411.432" style="stroke: #000000; stroke-width: 0.8"/>
      </g>
     </g>
    </g>
    <g id="xtick_24">
     <g id="line2d_38">
      <g>
       <use xlink:href="#m7f4a617b07" x="625.215394" y="411.432" style="stroke: #000000; stroke-width: 0.8"/>
      </g>
     </g>
    </g>
   </g>
   <g id="matplotlib.axis_6">
    <g id="ytick_9">
     <g id="line2d_39">
      <g>
       <use xlink:href="#mb51b80296f" x="67.34" y="395.13514" style="stroke: #000000; stroke-width: 0.8"/>
      </g>
     </g>
     <g id="text_11">
      <!-- -0.5 -->
      <g transform="translate(33.024687 400.454046) scale(0.14 -0.14)">
       <use xlink:href="#DejaVuSans-2d"/>
       <use xlink:href="#DejaVuSans-30" x="36.083984"/>
       <use xlink:href="#DejaVuSans-2e" x="99.707031"/>
       <use xlink:href="#DejaVuSans-35" x="131.494141"/>
      </g>
     </g>
    </g>
    <g id="ytick_10">
     <g id="line2d_40">
      <g>
       <use xlink:href="#mb51b80296f" x="67.34" y="357.586568" style="stroke: #000000; stroke-width: 0.8"/>
      </g>
     </g>
     <g id="text_12">
      <!-- 0.0 -->
      <g transform="translate(38.075625 362.905474) scale(0.14 -0.14)">
       <use xlink:href="#DejaVuSans-30"/>
       <use xlink:href="#DejaVuSans-2e" x="63.623047"/>
       <use xlink:href="#DejaVuSans-30" x="95.410156"/>
      </g>
     </g>
    </g>
    <g id="ytick_11">
     <g id="line2d_41">
      <g>
       <use xlink:href="#mb51b80296f" x="67.34" y="320.037995" style="stroke: #000000; stroke-width: 0.8"/>
      </g>
     </g>
     <g id="text_13">
      <!-- 0.5 -->
      <g transform="translate(38.075625 325.356901) scale(0.14 -0.14)">
       <use xlink:href="#DejaVuSans-30"/>
       <use xlink:href="#DejaVuSans-2e" x="63.623047"/>
       <use xlink:href="#DejaVuSans-35" x="95.410156"/>
      </g>
     </g>
    </g>
    <g id="text_14">
     <!-- Vel E [m/s] -->
     <g transform="translate(26.113125 395.242193) rotate(-90) scale(0.14 -0.14)">
      <defs>
       <path id="DejaVuSans-45" d="M 628 4666 
L 3578 4666 
L 3578 4134 
L 1259 4134 
L 1259 2753 
L 3481 2753 
L 3481 2222 
L 1259 2222 
L 1259 531 
L 3634 531 
L 3634 0 
L 628 0 
L 628 4666 
z
" transform="scale(0.015625)"/>
      </defs>
      <use xlink:href="#DejaVuSans-56"/>
      <use xlink:href="#DejaVuSans-65" x="60.658203"/>
      <use xlink:href="#DejaVuSans-6c" x="122.181641"/>
      <use xlink:href="#DejaVuSans-20" x="149.964844"/>
      <use xlink:href="#DejaVuSans-45" x="181.751953"/>
      <use xlink:href="#DejaVuSans-20" x="244.935547"/>
      <use xlink:href="#DejaVuSans-5b" x="276.722656"/>
      <use xlink:href="#DejaVuSans-6d" x="315.736328"/>
      <use xlink:href="#DejaVuSans-2f" x="413.148438"/>
      <use xlink:href="#DejaVuSans-73" x="446.839844"/>
      <use xlink:href="#DejaVuSans-5d" x="498.939453"/>
     </g>
    </g>
   </g>
   <g id="line2d_42">
    <path d="M 67.34 432.683713 
L 69.985923 434.307916 
L 70.878524 434.893698 
L 71.771125 435.477068 
L 73.68384 436.726784 
L 74.576441 437.286619 
L 75.532799 437.958974 
L 78.274358 440.040462 
L 79.039444 440.597433 
L 82.577968 443.240398 
L 83.789354 444.033357 
L 88.411751 447.212891 
L 89.240594 447.793513 
L 93.289175 450.73093 
L 93.990505 451.159427 
L 95.01062 451.828613 
L 96.445156 452.67468 
L 98.453508 453.792554 
L 99.122958 454.19785 
L 100.398102 454.952062 
L 101.737003 455.788613 
L 104.574198 457.564107 
L 105.21177 457.900859 
L 110.694888 460.578023 
L 111.396217 460.937888 
L 112.22506 461.386323 
L 114.679712 462.374813 
L 115.63607 462.759623 
L 121.246702 464.869855 
L 122.171182 465.159267 
L 122.776875 465.317424 
L 123.79699 465.600216 
L 124.338926 465.778335 
L 126.538549 466.427586 
L 127.463028 466.704519 
L 133.583718 468.911784 
L 134.826983 469.578257 
L 135.623948 470.072656 
L 136.867213 470.952783 
L 144.167411 476.245399 
L 145.155648 476.794481 
L 147.929085 478.647077 
L 149.87368 479.918864 
L 151.244459 480.841253 
L 153.475961 482.183353 
L 154.40044 482.745214 
L 156.058127 483.785467 
L 156.982606 484.319184 
L 158.990958 485.564504 
L 161.445609 487.221962 
L 162.242574 487.879292 
L 166.386791 490.783567 
L 167.311271 491.330889 
L 168.267628 491.908637 
L 170.754159 493.191394 
L 173.559475 494.428096 
L 174.165168 494.686593 
L 174.643347 494.906852 
L 176.301034 495.539004 
L 180.158344 496.853826 
L 180.987187 497.157093 
L 181.816031 497.494655 
L 184.461954 498.750981 
L 186.565941 499.802453 
L 187.936721 500.511825 
L 188.8612 501.045549 
L 189.913194 501.664346 
L 190.837673 502.163038 
L 191.825909 502.689737 
L 193.961775 503.750021 
L 195.268797 504.338813 
L 195.970127 504.721405 
L 196.79897 505.194075 
L 197.595935 505.635596 
L 200.783794 507.913836 
L 201.740152 508.596288 
L 203.206567 509.579885 
L 203.652868 509.865294 
L 204.672983 510.566415 
L 205.278676 510.963286 
L 205.980005 511.422683 
L 207.095756 512.12127 
L 207.765206 512.532478 
L 215.001647 517.2283 
L 216.372427 518.186707 
L 216.882484 518.55765 
L 218.030114 519.324364 
L 220.165979 520.830845 
L 222.971296 522.920902 
L 223.481353 523.30519 
L 225.36219 524.626485 
L 235.754612 531.968777 
L 236.487819 532.406233 
L 237.571692 533.099332 
L 238.878714 533.961847 
L 241.078337 535.255636 
L 241.68403 535.631945 
L 242.417238 536.113598 
L 243.182324 536.637009 
L 244.011168 537.157538 
L 248.219142 539.900477 
L 248.920471 540.334078 
L 251.279487 541.905165 
L 252.044573 542.398767 
L 252.745902 542.840822 
L 254.435468 544.071799 
L 255.551219 544.88407 
L 256.411941 545.469269 
L 258.579685 547.042555 
L 259.1535 547.440411 
L 260.779308 548.682845 
L 262.022573 549.634756 
L 262.596388 550.117932 
L 263.297717 550.664359 
L 275.570976 561.742744 
L 280.097736 566.176098 
L 281.627908 567.583596 
L 290.043857 576.056801 
L 293.582381 578.919863 
L 293.964924 579.218476 
L 294.50686 579.645205 
L 296.578969 581.349672 
L 297.439691 582.022012 
L 298.842349 583.056362 
L 301.328879 584.913639 
L 302.795295 586.10562 
L 303.783531 586.899929 
L 305.345582 588.164231 
L 306.52509 589.085242 
L 308.915985 591.21027 
L 310.60555 592.819953 
L 313.410867 595.618877 
L 320.456036 602.045313 
L 322.209358 603.48548 
L 322.783173 603.944828 
L 329.350164 608.772208 
L 339.838221 615.450004 
L 340.443914 615.758155 
L 342.452266 616.642941 
L 343.727409 617.155084 
L 344.811282 617.535601 
L 345.99079 617.941847 
L 346.564604 618.132173 
L 347.393448 618.424338 
L 348.222291 618.702179 
L 352.33463 619.561248 
L 353.099716 619.664535 
L 355.618125 620.02146 
L 356.41509 620.161497 
L 356.925147 620.29762 
L 359.539192 620.999304 
L 362.695173 621.693161 
L 363.396502 621.836153 
L 364.289102 622.024348 
L 366.584361 622.371136 
L 367.445083 622.52826 
L 368.752106 622.781271 
L 369.32592 622.905911 
L 369.931614 623.018886 
L 370.441671 623.152984 
L 371.5893 623.335321 
L 373.18323 623.658476 
L 376.530483 623.983563 
L 377.646233 624.17404 
L 380.324035 624.53513 
L 382.109236 624.587593 
L 383.033716 624.603604 
L 384.659524 624.584104 
L 386.189696 624.757324 
L 388.61247 624.992925 
L 391.736572 625.257613 
L 392.884201 625.466282 
L 393.713045 625.588504 
L 394.286859 625.653828 
L 395.657639 625.819064 
L 399.132406 626.442721 
L 401.172636 627.00575 
L 402.097115 627.244855 
L 403.180987 627.570891 
L 403.499773 627.660564 
L 411.533179 630.128159 
L 412.170751 630.338347 
L 413.158987 630.64237 
L 416.729389 631.807279 
L 417.877019 632.331118 
L 418.482712 632.631632 
L 420.012885 633.339077 
L 420.554821 633.622069 
L 421.033 633.829546 
L 422.340022 634.368427 
L 424.826552 635.47402 
L 430.819728 637.997074 
L 431.521057 638.232604 
L 433.019351 638.79355 
L 436.844782 640.085023 
L 437.896776 640.490526 
L 438.789376 640.790669 
L 439.490706 641.027683 
L 440.861485 641.569684 
L 442.200386 642.210281 
L 444.272495 643.0394 
L 445.96206 643.532595 
L 447.045932 643.770365 
L 447.715383 643.872883 
L 448.863012 644.033206 
L 449.59622 644.040575 
L 459.064162 644.066687 
L 461.61445 644.285353 
L 462.188264 644.308542 
L 463.367772 644.420797 
L 464.738552 644.572336 
L 466.045574 644.714807 
L 466.58751 644.776125 
L 469.042162 645.104676 
L 470.030399 645.200341 
L 470.699849 645.291644 
L 473.919587 645.337203 
L 475.258488 645.241701 
L 476.533632 645.105665 
L 477.585625 645.120366 
L 482.208021 644.888221 
L 483.451287 644.724799 
L 485.491517 644.665071 
L 486.224724 644.719585 
L 486.926053 644.7119 
L 488.870648 644.605619 
L 489.444462 644.551811 
L 490.17767 644.513208 
L 491.516571 644.51677 
L 491.99475 644.514995 
L 492.696079 644.507697 
L 493.142379 644.505738 
L 494.321887 644.407843 
L 500.251306 644.623017 
L 500.761363 644.664647 
L 502.450929 644.915308 
L 503.311651 645.027292 
L 504.937459 645.10979 
L 505.638788 645.143802 
L 506.690782 645.22234 
L 507.137082 645.245876 
L 508.061561 645.256994 
L 508.731012 645.267876 
L 509.687369 645.266869 
L 510.101791 645.27214 
L 510.57997 645.296196 
L 511.791357 645.323868 
L 513.162136 645.306187 
L 514.341644 645.245594 
L 516.605024 645.135465 
L 518.358347 645.051098 
L 519.282826 645.028513 
L 522.247535 644.590786 
L 523.490801 644.295812 
L 525.339759 643.935778 
L 526.965567 643.667399 
L 528.623254 643.558053 
L 529.228947 643.570612 
L 529.643369 643.610538 
L 530.057791 643.681775 
L 530.98227 643.755867 
L 531.747356 643.814518 
L 533.054379 643.802974 
L 540.386455 643.571969 
L 543.510558 643.9455 
L 544.052494 644.057529 
L 546.539024 644.329962 
L 547.112839 644.372914 
L 548.993676 644.705506 
L 549.663126 644.859304 
L 549.950034 644.915911 
L 550.555727 645.060944 
L 552.659714 645.52523 
L 553.265407 645.606156 
L 554.668065 645.893361 
L 557.473382 646.742815 
L 558.206589 646.966431 
L 563.721586 648.95214 
L 566.208116 649.502317 
L 566.718174 649.579634 
L 573.253286 650.051498 
L 574.592187 650.041607 
L 575.325394 650.023016 
L 575.771695 650.013034 
L 576.664295 649.982755 
L 578.83204 649.786469 
L 579.342097 649.75641 
L 583.3588 649.002607 
L 584.442672 648.720509 
L 585.048365 648.588846 
L 586.323509 648.337239 
L 587.343624 648.157906 
L 588.172468 647.92073 
L 588.555011 647.831924 
L 589.320097 647.606847 
L 589.989547 647.405777 
L 594.101886 646.138128 
L 596.684052 645.423065 
L 597.927317 645.0176 
L 599.808154 644.304697 
L 600.477605 644.102457 
L 601.019541 643.922188 
L 601.784627 643.718299 
L 605.80133 643.129074 
L 607.108352 642.956812 
L 607.84156 642.863534 
L 612.527713 642.254686 
L 613.388435 642.205735 
L 613.994129 642.23035 
L 615.078001 642.275634 
L 617.086352 642.181713 
L 617.915196 642.105547 
L 619.764154 641.872154 
L 628.498889 640.754239 
L 630.666633 640.858155 
L 631.973656 640.912008 
L 633.121285 640.994631 
L 634.300793 641.09211 
L 635.193394 641.170041 
L 635.73533 641.292227 
L 637.042352 641.457085 
L 643.418071 642.528164 
L 644.470065 642.61432 
L 645.075758 642.646958 
L 649.538761 643.262288 
L 652.72662 643.791065 
L 653.619221 643.874916 
L 654.0974 643.940654 
L 654.607457 643.982013 
L 655.245029 644.10569 
L 658.369131 644.417879 
L 659.580518 644.385873 
L 660.760026 644.23092 
L 661.333841 644.129142 
L 662.290199 643.930002 
L 663.087163 643.744539 
L 664.553579 643.328623 
L 668.60216 642.031438 
L 670.482997 641.511645 
L 670.993055 641.371701 
L 672.300077 640.903376 
L 673.320192 640.456255 
L 678.835189 637.886233 
L 688.621917 632.899527 
L 693.658735 629.170566 
L 695.412058 627.503699 
L 696.240901 626.74185 
L 698.823067 623.933381 
L 699.588153 623.017245 
L 701.341476 620.948804 
L 704.816243 616.679761 
L 704.88 616.602487 
L 704.88 616.602487 
" clip-path="url(#p5ca3f12b07)" style="fill: none; stroke: #1f77b4; stroke-width: 1.5; stroke-linecap: square"/>
   </g>
   <g id="line2d_43">
    <path d="M 78.070731 -1 
L 80.091438 203.130844 
L 86.467156 278.424254 
L 92.842875 305.898093 
L 99.218594 318.079786 
L 105.594313 323.079143 
L 111.970032 324.486402 
L 118.34575 324.398633 
L 124.721469 324.132935 
L 131.097188 324.305743 
L 137.472907 325.046588 
L 143.848625 326.150006 
L 150.224344 327.354917 
L 156.600063 328.470422 
L 162.975782 329.436311 
L 169.351501 330.235112 
L 175.727219 330.857184 
L 182.102938 331.374736 
L 188.478657 331.812431 
L 194.854376 332.172654 
L 201.230095 332.495952 
L 207.605813 332.795294 
L 213.981532 333.077501 
L 220.357251 333.326944 
L 226.73297 333.525588 
L 233.108688 333.673573 
L 239.484407 333.763528 
L 245.860126 333.804539 
L 252.235845 333.811946 
L 258.611564 333.791882 
L 264.987282 333.741731 
L 271.363001 333.663883 
L 277.73872 333.556858 
L 284.114439 333.412093 
L 290.490158 333.209064 
L 296.865876 332.949399 
L 303.241595 332.652651 
L 309.617314 332.318391 
L 315.993033 331.972057 
L 322.368751 331.626256 
L 328.74447 331.261906 
L 335.120189 330.881746 
L 341.495908 330.506049 
L 347.871627 330.091172 
L 354.247345 329.693974 
L 360.623064 329.360349 
L 366.998783 329.098797 
L 373.374502 328.842559 
L 379.750221 328.70421 
L 386.125939 328.65322 
L 392.501658 328.607336 
L 398.877377 328.579943 
L 405.253096 328.602467 
L 411.628814 328.687065 
L 418.004533 328.771175 
L 424.380252 328.835888 
L 430.755971 328.932732 
L 437.13169 329.133621 
L 443.507408 329.389694 
L 449.883127 329.647663 
L 456.258846 329.885248 
L 462.634565 330.167011 
L 469.010284 330.444139 
L 475.386002 330.677064 
L 481.761721 330.868892 
L 488.13744 331.044593 
L 494.513159 331.245085 
L 500.888877 331.511036 
L 507.264596 331.840832 
L 513.640315 332.175721 
L 520.016034 332.526702 
L 526.391753 332.87385 
L 532.767471 333.179107 
L 539.14319 333.425665 
L 545.518909 333.622003 
L 551.894628 333.76067 
L 558.270347 333.825185 
L 564.646065 333.825166 
L 571.021784 333.778617 
L 577.397503 333.699506 
L 583.773222 333.581405 
L 590.14894 333.439692 
L 596.524659 333.282484 
L 602.900378 333.109231 
L 609.276097 332.908904 
L 615.651816 332.693751 
L 622.027534 332.455347 
L 628.403253 332.170724 
L 634.778972 331.837903 
L 641.154691 331.44127 
L 647.53041 331.049431 
L 653.906128 330.718226 
L 660.281847 330.465799 
L 666.657566 330.202166 
L 673.033285 329.956836 
L 679.409003 329.756453 
L 685.784722 329.520849 
L 692.160441 329.283417 
L 698.53616 329.05976 
" clip-path="url(#p5ca3f12b07)" style="fill: none; stroke-dasharray: 5.55,2.4; stroke-dashoffset: 0; stroke: #ff0000; stroke-width: 1.5"/>
   </g>
   <g id="line2d_44">
    <path d="M 78.02295 721 
L 80.091438 512.042291 
L 86.467156 436.748881 
L 92.842875 409.275043 
L 99.218594 397.093349 
L 105.594313 392.093992 
L 111.970032 390.686733 
L 118.34575 390.774502 
L 124.721469 391.0402 
L 131.097188 390.867392 
L 137.472907 390.126547 
L 143.848625 389.023129 
L 150.224344 387.818218 
L 156.600063 386.702713 
L 162.975782 385.736824 
L 169.351501 384.938023 
L 175.727219 384.315951 
L 182.102938 383.798399 
L 188.478657 383.360704 
L 194.854376 383.000481 
L 201.230095 382.677183 
L 207.605813 382.377841 
L 213.981532 382.095634 
L 220.357251 381.846191 
L 226.73297 381.647547 
L 233.108688 381.499562 
L 239.484407 381.409608 
L 245.860126 381.368597 
L 252.235845 381.361189 
L 258.611564 381.381253 
L 264.987282 381.431405 
L 271.363001 381.509253 
L 277.73872 381.616277 
L 284.114439 381.761042 
L 290.490158 381.964072 
L 296.865876 382.223736 
L 303.241595 382.520485 
L 309.617314 382.854744 
L 315.993033 383.201078 
L 322.368751 383.54688 
L 328.74447 383.91123 
L 335.120189 384.291389 
L 341.495908 384.667086 
L 347.871627 385.081964 
L 354.247345 385.479162 
L 360.623064 385.812787 
L 366.998783 386.074339 
L 373.374502 386.330577 
L 379.750221 386.468925 
L 386.125939 386.519916 
L 392.501658 386.565799 
L 398.877377 386.593193 
L 405.253096 386.570669 
L 411.628814 386.48607 
L 418.004533 386.40196 
L 424.380252 386.337247 
L 430.755971 386.240403 
L 437.13169 386.039514 
L 443.507408 385.783441 
L 449.883127 385.525472 
L 456.258846 385.287887 
L 462.634565 385.006125 
L 469.010284 384.728996 
L 475.386002 384.496071 
L 481.761721 384.304243 
L 488.13744 384.128542 
L 494.513159 383.928051 
L 500.888877 383.6621 
L 507.264596 383.332303 
L 513.640315 382.997415 
L 520.016034 382.646433 
L 526.391753 382.299285 
L 532.767471 381.994028 
L 539.14319 381.747471 
L 545.518909 381.551133 
L 551.894628 381.412465 
L 558.270347 381.34795 
L 564.646065 381.34797 
L 571.021784 381.394518 
L 577.397503 381.473629 
L 583.773222 381.59173 
L 590.14894 381.733443 
L 596.524659 381.890651 
L 602.900378 382.063905 
L 609.276097 382.264231 
L 615.651816 382.479384 
L 622.027534 382.717788 
L 628.403253 383.002411 
L 634.778972 383.335232 
L 641.154691 383.731866 
L 647.53041 384.123705 
L 653.906128 384.454909 
L 660.281847 384.707336 
L 666.657566 384.970969 
L 673.033285 385.216299 
L 679.409003 385.416682 
L 685.784722 385.652286 
L 692.160441 385.889718 
L 698.53616 386.113375 
" clip-path="url(#p5ca3f12b07)" style="fill: none; stroke-dasharray: 5.55,2.4; stroke-dashoffset: 0; stroke: #ff0000; stroke-width: 1.5"/>
   </g>
   <g id="patch_13">
    <path d="M 67.34 411.432 
L 67.34 303.741135 
" style="fill: none; stroke: #000000; stroke-width: 0.8; stroke-linejoin: miter; stroke-linecap: square"/>
   </g>
   <g id="patch_14">
    <path d="M 704.88 411.432 
L 704.88 303.741135 
" style="fill: none; stroke: #000000; stroke-width: 0.8; stroke-linejoin: miter; stroke-linecap: square"/>
   </g>
   <g id="patch_15">
    <path d="M 67.34 411.432 
L 704.88 411.432 
" style="fill: none; stroke: #000000; stroke-width: 0.8; stroke-linejoin: miter; stroke-linecap: square"/>
   </g>
   <g id="patch_16">
    <path d="M 67.34 303.741135 
L 704.88 303.741135 
" style="fill: none; stroke: #000000; stroke-width: 0.8; stroke-linejoin: miter; stroke-linecap: square"/>
   </g>
  </g>
  <g id="axes_4">
   <g id="patch_17">
    <path d="M 67.34 538.976 
L 704.88 538.976 
L 704.88 431.285135 
L 67.34 431.285135 
z
" style="fill: #ffffff"/>
   </g>
   <g id="matplotlib.axis_7">
    <g id="xtick_25">
     <g id="line2d_45">
      <g>
       <use xlink:href="#m7f4a617b07" x="67.34" y="538.976" style="stroke: #000000; stroke-width: 0.8"/>
      </g>
     </g>
    </g>
    <g id="xtick_26">
     <g id="line2d_46">
      <g>
       <use xlink:href="#m7f4a617b07" x="147.036485" y="538.976" style="stroke: #000000; stroke-width: 0.8"/>
      </g>
     </g>
    </g>
    <g id="xtick_27">
     <g id="line2d_47">
      <g>
       <use xlink:href="#m7f4a617b07" x="226.73297" y="538.976" style="stroke: #000000; stroke-width: 0.8"/>
      </g>
     </g>
    </g>
    <g id="xtick_28">
     <g id="line2d_48">
      <g>
       <use xlink:href="#m7f4a617b07" x="306.429454" y="538.976" style="stroke: #000000; stroke-width: 0.8"/>
      </g>
     </g>
    </g>
    <g id="xtick_29">
     <g id="line2d_49">
      <g>
       <use xlink:href="#m7f4a617b07" x="386.125939" y="538.976" style="stroke: #000000; stroke-width: 0.8"/>
      </g>
     </g>
    </g>
    <g id="xtick_30">
     <g id="line2d_50">
      <g>
       <use xlink:href="#m7f4a617b07" x="465.822424" y="538.976" style="stroke: #000000; stroke-width: 0.8"/>
      </g>
     </g>
    </g>
    <g id="xtick_31">
     <g id="line2d_51">
      <g>
       <use xlink:href="#m7f4a617b07" x="545.518909" y="538.976" style="stroke: #000000; stroke-width: 0.8"/>
      </g>
     </g>
    </g>
    <g id="xtick_32">
     <g id="line2d_52">
      <g>
       <use xlink:href="#m7f4a617b07" x="625.215394" y="538.976" style="stroke: #000000; stroke-width: 0.8"/>
      </g>
     </g>
    </g>
   </g>
   <g id="matplotlib.axis_8">
    <g id="ytick_12">
     <g id="line2d_53">
      <g>
       <use xlink:href="#mb51b80296f" x="67.34" y="512.470172" style="stroke: #000000; stroke-width: 0.8"/>
      </g>
     </g>
     <g id="text_15">
      <!-- -2.0 -->
      <g transform="translate(33.024687 517.789078) scale(0.14 -0.14)">
       <use xlink:href="#DejaVuSans-2d"/>
       <use xlink:href="#DejaVuSans-32" x="36.083984"/>
       <use xlink:href="#DejaVuSans-2e" x="99.707031"/>
       <use xlink:href="#DejaVuSans-30" x="131.494141"/>
      </g>
     </g>
    </g>
    <g id="ytick_13">
     <g id="line2d_54">
      <g>
       <use xlink:href="#mb51b80296f" x="67.34" y="485.130568" style="stroke: #000000; stroke-width: 0.8"/>
      </g>
     </g>
     <g id="text_16">
      <!-- 0.0 -->
      <g transform="translate(38.075625 490.449474) scale(0.14 -0.14)">
       <use xlink:href="#DejaVuSans-30"/>
       <use xlink:href="#DejaVuSans-2e" x="63.623047"/>
       <use xlink:href="#DejaVuSans-30" x="95.410156"/>
      </g>
     </g>
    </g>
    <g id="ytick_14">
     <g id="line2d_55">
      <g>
       <use xlink:href="#mb51b80296f" x="67.34" y="457.790963" style="stroke: #000000; stroke-width: 0.8"/>
      </g>
     </g>
     <g id="text_17">
      <!-- 2.0 -->
      <g transform="translate(38.075625 463.109869) scale(0.14 -0.14)">
       <use xlink:href="#DejaVuSans-32"/>
       <use xlink:href="#DejaVuSans-2e" x="63.623047"/>
       <use xlink:href="#DejaVuSans-30" x="95.410156"/>
      </g>
     </g>
    </g>
    <g id="text_18">
     <!-- Pos N [m] -->
     <g transform="translate(26.113125 518.994161) rotate(-90) scale(0.14 -0.14)">
      <defs>
       <path id="DejaVuSans-50" d="M 1259 4147 
L 1259 2394 
L 2053 2394 
Q 2494 2394 2734 2622 
Q 2975 2850 2975 3272 
Q 2975 3691 2734 3919 
Q 2494 4147 2053 4147 
L 1259 4147 
z
M 628 4666 
L 2053 4666 
Q 2838 4666 3239 4311 
Q 3641 3956 3641 3272 
Q 3641 2581 3239 2228 
Q 2838 1875 2053 1875 
L 1259 1875 
L 1259 0 
L 628 0 
L 628 4666 
z
" transform="scale(0.015625)"/>
       <path id="DejaVuSans-6f" d="M 1959 3097 
Q 1497 3097 1228 2736 
Q 959 2375 959 1747 
Q 959 1119 1226 758 
Q 1494 397 1959 397 
Q 2419 397 2687 759 
Q 2956 1122 2956 1747 
Q 2956 2369 2687 2733 
Q 2419 3097 1959 3097 
z
M 1959 3584 
Q 2709 3584 3137 3096 
Q 3566 2609 3566 1747 
Q 3566 888 3137 398 
Q 2709 -91 1959 -91 
Q 1206 -91 779 398 
Q 353 888 353 1747 
Q 353 2609 779 3096 
Q 1206 3584 1959 3584 
z
" transform="scale(0.015625)"/>
      </defs>
      <use xlink:href="#DejaVuSans-50"/>
      <use xlink:href="#DejaVuSans-6f" x="56.677734"/>
      <use xlink:href="#DejaVuSans-73" x="117.859375"/>
      <use xlink:href="#DejaVuSans-20" x="169.958984"/>
      <use xlink:href="#DejaVuSans-4e" x="201.746094"/>
      <use xlink:href="#DejaVuSans-20" x="276.550781"/>
      <use xlink:href="#DejaVuSans-5b" x="308.337891"/>
      <use xlink:href="#DejaVuSans-6d" x="347.351562"/>
      <use xlink:href="#DejaVuSans-5d" x="444.763672"/>
     </g>
    </g>
   </g>
   <g id="line2d_56">
    <path d="M 67.34 478.340583 
L 95.537004 721 
L 95.537004 721 
" clip-path="url(#p2a10e12125)" style="fill: none; stroke: #1f77b4; stroke-width: 1.5; stroke-linecap: square"/>
   </g>
   <g id="line2d_57">
    <path d="M 67.34 75.0365 
L 73.715719 444.223301 
L 80.091438 444.508126 
L 86.467156 447.845763 
L 92.842875 450.893512 
L 99.218594 453.37701 
L 105.594313 455.35311 
L 111.970032 456.865988 
L 118.34575 457.925569 
L 124.721469 458.542173 
L 131.097188 458.768672 
L 137.472907 458.708962 
L 143.848625 458.49247 
L 150.224344 458.248583 
L 156.600063 458.058194 
L 162.975782 457.947576 
L 169.351501 457.901838 
L 175.727219 457.897776 
L 182.102938 457.908344 
L 188.478657 457.90646 
L 194.854376 457.877233 
L 201.230095 457.822176 
L 207.605813 457.744307 
L 213.981532 457.660483 
L 220.357251 457.580534 
L 226.73297 457.511355 
L 233.108688 457.458487 
L 239.484407 457.425884 
L 245.860126 457.414736 
L 252.235845 457.419448 
L 258.611564 457.435125 
L 264.987282 457.457055 
L 271.363001 457.480417 
L 277.73872 457.507952 
L 284.114439 457.541398 
L 290.490158 457.582515 
L 296.865876 457.640685 
L 303.241595 457.717342 
L 309.617314 457.805086 
L 315.993033 457.894252 
L 322.368751 457.986139 
L 328.74447 458.085699 
L 335.120189 458.194029 
L 341.495908 458.3071 
L 347.871627 458.425455 
L 354.247345 458.54679 
L 360.623064 458.664681 
L 366.998783 458.77077 
L 373.374502 458.864017 
L 379.750221 458.944177 
L 386.125939 459.012169 
L 392.501658 459.06774 
L 398.877377 459.110523 
L 405.253096 459.141013 
L 411.628814 459.160435 
L 418.004533 459.169668 
L 424.380252 459.168863 
L 430.755971 459.158049 
L 437.13169 459.13658 
L 443.507408 459.103747 
L 449.883127 459.05862 
L 456.258846 458.99594 
L 462.634565 458.915619 
L 469.010284 458.822621 
L 475.386002 458.720594 
L 481.761721 458.609661 
L 488.13744 458.495025 
L 494.513159 458.383405 
L 500.888877 458.279851 
L 507.264596 458.189261 
L 513.640315 458.107079 
L 520.016034 458.028733 
L 526.391753 457.950102 
L 532.767471 457.874932 
L 539.14319 457.810711 
L 545.518909 457.756091 
L 551.894628 457.716299 
L 558.270347 457.690934 
L 564.646065 457.681618 
L 571.021784 457.676903 
L 577.397503 457.669164 
L 583.773222 457.658466 
L 590.14894 457.647254 
L 596.524659 457.64255 
L 602.900378 457.651042 
L 609.276097 457.682878 
L 615.651816 457.739708 
L 622.027534 457.817824 
L 628.403253 457.905845 
L 634.778972 458.00555 
L 641.154691 458.117166 
L 647.53041 458.233802 
L 653.906128 458.348909 
L 660.281847 458.458471 
L 666.657566 458.553872 
L 673.033285 458.635177 
L 679.409003 458.70741 
L 685.784722 458.774166 
L 692.160441 458.838084 
L 698.53616 458.895479 
" clip-path="url(#p2a10e12125)" style="fill: none; stroke-dasharray: 5.55,2.4; stroke-dashoffset: 0; stroke: #ff0000; stroke-width: 1.5"/>
   </g>
   <g id="line2d_58">
    <path d="M 70.348795 721 
L 73.715719 526.037834 
L 80.091438 525.753009 
L 86.467156 522.415373 
L 92.842875 519.367623 
L 99.218594 516.884125 
L 105.594313 514.908025 
L 111.970032 513.395148 
L 118.34575 512.335566 
L 124.721469 511.718962 
L 131.097188 511.492463 
L 137.472907 511.552174 
L 143.848625 511.768666 
L 150.224344 512.012552 
L 156.600063 512.202942 
L 162.975782 512.31356 
L 169.351501 512.359297 
L 175.727219 512.363359 
L 182.102938 512.352791 
L 188.478657 512.354676 
L 194.854376 512.383902 
L 201.230095 512.438959 
L 207.605813 512.516829 
L 213.981532 512.600652 
L 220.357251 512.680601 
L 226.73297 512.749781 
L 233.108688 512.802648 
L 239.484407 512.835251 
L 245.860126 512.846399 
L 252.235845 512.841687 
L 258.611564 512.82601 
L 264.987282 512.80408 
L 271.363001 512.780718 
L 277.73872 512.753183 
L 284.114439 512.719737 
L 290.490158 512.67862 
L 296.865876 512.62045 
L 303.241595 512.543793 
L 309.617314 512.456049 
L 315.993033 512.366883 
L 322.368751 512.274996 
L 328.74447 512.175437 
L 335.120189 512.067106 
L 341.495908 511.954035 
L 347.871627 511.83568 
L 354.247345 511.714345 
L 360.623064 511.596454 
L 366.998783 511.490365 
L 373.374502 511.397118 
L 379.750221 511.316959 
L 386.125939 511.248966 
L 392.501658 511.193395 
L 398.877377 511.150612 
L 405.253096 511.120122 
L 411.628814 511.1007 
L 418.004533 511.091467 
L 424.380252 511.092272 
L 430.755971 511.103087 
L 437.13169 511.124555 
L 443.507408 511.157388 
L 449.883127 511.202515 
L 456.258846 511.265195 
L 462.634565 511.345517 
L 469.010284 511.438514 
L 475.386002 511.540541 
L 481.761721 511.651474 
L 488.13744 511.766111 
L 494.513159 511.87773 
L 500.888877 511.981284 
L 507.264596 512.071874 
L 513.640315 512.154056 
L 520.016034 512.232402 
L 526.391753 512.311033 
L 532.767471 512.386203 
L 539.14319 512.450424 
L 545.518909 512.505044 
L 551.894628 512.544836 
L 558.270347 512.570202 
L 564.646065 512.579517 
L 571.021784 512.584232 
L 577.397503 512.591971 
L 583.773222 512.602669 
L 590.14894 512.613881 
L 596.524659 512.618585 
L 602.900378 512.610094 
L 609.276097 512.578258 
L 615.651816 512.521428 
L 622.027534 512.443311 
L 628.403253 512.35529 
L 634.778972 512.255586 
L 641.154691 512.14397 
L 647.53041 512.027333 
L 653.906128 511.912227 
L 660.281847 511.802664 
L 666.657566 511.707263 
L 673.033285 511.625958 
L 679.409003 511.553725 
L 685.784722 511.486969 
L 692.160441 511.423051 
L 698.53616 511.365657 
" clip-path="url(#p2a10e12125)" style="fill: none; stroke-dasharray: 5.55,2.4; stroke-dashoffset: 0; stroke: #ff0000; stroke-width: 1.5"/>
   </g>
   <g id="patch_18">
    <path d="M 67.34 538.976 
L 67.34 431.285135 
" style="fill: none; stroke: #000000; stroke-width: 0.8; stroke-linejoin: miter; stroke-linecap: square"/>
   </g>
   <g id="patch_19">
    <path d="M 704.88 538.976 
L 704.88 431.285135 
" style="fill: none; stroke: #000000; stroke-width: 0.8; stroke-linejoin: miter; stroke-linecap: square"/>
   </g>
   <g id="patch_20">
    <path d="M 67.34 538.976 
L 704.88 538.976 
" style="fill: none; stroke: #000000; stroke-width: 0.8; stroke-linejoin: miter; stroke-linecap: square"/>
   </g>
   <g id="patch_21">
    <path d="M 67.34 431.285135 
L 704.88 431.285135 
" style="fill: none; stroke: #000000; stroke-width: 0.8; stroke-linejoin: miter; stroke-linecap: square"/>
   </g>
  </g>
  <g id="axes_5">
   <g id="patch_22">
    <path d="M 67.34 666.52 
L 704.88 666.52 
L 704.88 558.829135 
L 67.34 558.829135 
z
" style="fill: #ffffff"/>
   </g>
   <g id="matplotlib.axis_9">
    <g id="xtick_33">
     <g id="line2d_59">
      <g>
       <use xlink:href="#m7f4a617b07" x="67.34" y="666.52" style="stroke: #000000; stroke-width: 0.8"/>
      </g>
     </g>
     <g id="text_19">
      <!-- 0 -->
      <g transform="translate(62.88625 684.157813) scale(0.14 -0.14)">
       <use xlink:href="#DejaVuSans-30"/>
      </g>
     </g>
    </g>
    <g id="xtick_34">
     <g id="line2d_60">
      <g>
       <use xlink:href="#m7f4a617b07" x="147.036485" y="666.52" style="stroke: #000000; stroke-width: 0.8"/>
      </g>
     </g>
     <g id="text_20">
      <!-- 25 -->
      <g transform="translate(138.128985 684.157813) scale(0.14 -0.14)">
       <use xlink:href="#DejaVuSans-32"/>
       <use xlink:href="#DejaVuSans-35" x="63.623047"/>
      </g>
     </g>
    </g>
    <g id="xtick_35">
     <g id="line2d_61">
      <g>
       <use xlink:href="#m7f4a617b07" x="226.73297" y="666.52" style="stroke: #000000; stroke-width: 0.8"/>
      </g>
     </g>
     <g id="text_21">
      <!-- 50 -->
      <g transform="translate(217.82547 684.157813) scale(0.14 -0.14)">
       <use xlink:href="#DejaVuSans-35"/>
       <use xlink:href="#DejaVuSans-30" x="63.623047"/>
      </g>
     </g>
    </g>
    <g id="xtick_36">
     <g id="line2d_62">
      <g>
       <use xlink:href="#m7f4a617b07" x="306.429454" y="666.52" style="stroke: #000000; stroke-width: 0.8"/>
      </g>
     </g>
     <g id="text_22">
      <!-- 75 -->
      <g transform="translate(297.521954 684.157813) scale(0.14 -0.14)">
       <defs>
        <path id="DejaVuSans-37" d="M 525 4666 
L 3525 4666 
L 3525 4397 
L 1831 0 
L 1172 0 
L 2766 4134 
L 525 4134 
L 525 4666 
z
" transform="scale(0.015625)"/>
       </defs>
       <use xlink:href="#DejaVuSans-37"/>
       <use xlink:href="#DejaVuSans-35" x="63.623047"/>
      </g>
     </g>
    </g>
    <g id="xtick_37">
     <g id="line2d_63">
      <g>
       <use xlink:href="#m7f4a617b07" x="386.125939" y="666.52" style="stroke: #000000; stroke-width: 0.8"/>
      </g>
     </g>
     <g id="text_23">
      <!-- 100 -->
      <g transform="translate(372.764689 684.157813) scale(0.14 -0.14)">
       <use xlink:href="#DejaVuSans-31"/>
       <use xlink:href="#DejaVuSans-30" x="63.623047"/>
       <use xlink:href="#DejaVuSans-30" x="127.246094"/>
      </g>
     </g>
    </g>
    <g id="xtick_38">
     <g id="line2d_64">
      <g>
       <use xlink:href="#m7f4a617b07" x="465.822424" y="666.52" style="stroke: #000000; stroke-width: 0.8"/>
      </g>
     </g>
     <g id="text_24">
      <!-- 125 -->
      <g transform="translate(452.461174 684.157813) scale(0.14 -0.14)">
       <use xlink:href="#DejaVuSans-31"/>
       <use xlink:href="#DejaVuSans-32" x="63.623047"/>
       <use xlink:href="#DejaVuSans-35" x="127.246094"/>
      </g>
     </g>
    </g>
    <g id="xtick_39">
     <g id="line2d_65">
      <g>
       <use xlink:href="#m7f4a617b07" x="545.518909" y="666.52" style="stroke: #000000; stroke-width: 0.8"/>
      </g>
     </g>
     <g id="text_25">
      <!-- 150 -->
      <g transform="translate(532.157659 684.157813) scale(0.14 -0.14)">
       <use xlink:href="#DejaVuSans-31"/>
       <use xlink:href="#DejaVuSans-35" x="63.623047"/>
       <use xlink:href="#DejaVuSans-30" x="127.246094"/>
      </g>
     </g>
    </g>
    <g id="xtick_40">
     <g id="line2d_66">
      <g>
       <use xlink:href="#m7f4a617b07" x="625.215394" y="666.52" style="stroke: #000000; stroke-width: 0.8"/>
      </g>
     </g>
     <g id="text_26">
      <!-- 175 -->
      <g transform="translate(611.854144 684.157813) scale(0.14 -0.14)">
       <use xlink:href="#DejaVuSans-31"/>
       <use xlink:href="#DejaVuSans-37" x="63.623047"/>
       <use xlink:href="#DejaVuSans-35" x="127.246094"/>
      </g>
     </g>
    </g>
    <g id="text_27">
     <!-- Timestamp [s] -->
     <g transform="translate(335.706719 701.707188) scale(0.14 -0.14)">
      <defs>
       <path id="DejaVuSans-54" d="M -19 4666 
L 3928 4666 
L 3928 4134 
L 2272 4134 
L 2272 0 
L 1638 0 
L 1638 4134 
L -19 4134 
L -19 4666 
z
" transform="scale(0.015625)"/>
       <path id="DejaVuSans-70" d="M 1159 525 
L 1159 -1331 
L 581 -1331 
L 581 3500 
L 1159 3500 
L 1159 2969 
Q 1341 3281 1617 3432 
Q 1894 3584 2278 3584 
Q 2916 3584 3314 3078 
Q 3713 2572 3713 1747 
Q 3713 922 3314 415 
Q 2916 -91 2278 -91 
Q 1894 -91 1617 61 
Q 1341 213 1159 525 
z
M 3116 1747 
Q 3116 2381 2855 2742 
Q 2594 3103 2138 3103 
Q 1681 3103 1420 2742 
Q 1159 2381 1159 1747 
Q 1159 1113 1420 752 
Q 1681 391 2138 391 
Q 2594 391 2855 752 
Q 3116 1113 3116 1747 
z
" transform="scale(0.015625)"/>
      </defs>
      <use xlink:href="#DejaVuSans-54"/>
      <use xlink:href="#DejaVuSans-69" x="57.958984"/>
      <use xlink:href="#DejaVuSans-6d" x="85.742188"/>
      <use xlink:href="#DejaVuSans-65" x="183.154297"/>
      <use xlink:href="#DejaVuSans-73" x="244.677734"/>
      <use xlink:href="#DejaVuSans-74" x="296.777344"/>
      <use xlink:href="#DejaVuSans-61" x="335.986328"/>
      <use xlink:href="#DejaVuSans-6d" x="397.265625"/>
      <use xlink:href="#DejaVuSans-70" x="494.677734"/>
      <use xlink:href="#DejaVuSans-20" x="558.154297"/>
      <use xlink:href="#DejaVuSans-5b" x="589.941406"/>
      <use xlink:href="#DejaVuSans-73" x="628.955078"/>
      <use xlink:href="#DejaVuSans-5d" x="681.054688"/>
     </g>
    </g>
   </g>
   <g id="matplotlib.axis_10">
    <g id="ytick_15">
     <g id="line2d_67">
      <g>
       <use xlink:href="#mb51b80296f" x="67.34" y="640.106964" style="stroke: #000000; stroke-width: 0.8"/>
      </g>
     </g>
     <g id="text_28">
      <!-- -2.0 -->
      <g transform="translate(33.024687 645.425871) scale(0.14 -0.14)">
       <use xlink:href="#DejaVuSans-2d"/>
       <use xlink:href="#DejaVuSans-32" x="36.083984"/>
       <use xlink:href="#DejaVuSans-2e" x="99.707031"/>
       <use xlink:href="#DejaVuSans-30" x="131.494141"/>
      </g>
     </g>
    </g>
    <g id="ytick_16">
     <g id="line2d_68">
      <g>
       <use xlink:href="#mb51b80296f" x="67.34" y="612.674568" style="stroke: #000000; stroke-width: 0.8"/>
      </g>
     </g>
     <g id="text_29">
      <!-- 0.0 -->
      <g transform="translate(38.075625 617.993474) scale(0.14 -0.14)">
       <use xlink:href="#DejaVuSans-30"/>
       <use xlink:href="#DejaVuSans-2e" x="63.623047"/>
       <use xlink:href="#DejaVuSans-30" x="95.410156"/>
      </g>
     </g>
    </g>
    <g id="ytick_17">
     <g id="line2d_69">
      <g>
       <use xlink:href="#mb51b80296f" x="67.34" y="585.242171" style="stroke: #000000; stroke-width: 0.8"/>
      </g>
     </g>
     <g id="text_30">
      <!-- 2.0 -->
      <g transform="translate(38.075625 590.561077) scale(0.14 -0.14)">
       <use xlink:href="#DejaVuSans-32"/>
       <use xlink:href="#DejaVuSans-2e" x="63.623047"/>
       <use xlink:href="#DejaVuSans-30" x="95.410156"/>
      </g>
     </g>
    </g>
    <g id="text_31">
     <!-- Pos E [m] -->
     <g transform="translate(26.113125 645.724411) rotate(-90) scale(0.14 -0.14)">
      <use xlink:href="#DejaVuSans-50"/>
      <use xlink:href="#DejaVuSans-6f" x="56.677734"/>
      <use xlink:href="#DejaVuSans-73" x="117.859375"/>
      <use xlink:href="#DejaVuSans-20" x="169.958984"/>
      <use xlink:href="#DejaVuSans-45" x="201.746094"/>
      <use xlink:href="#DejaVuSans-20" x="264.929688"/>
      <use xlink:href="#DejaVuSans-5b" x="296.716797"/>
      <use xlink:href="#DejaVuSans-6d" x="335.730469"/>
      <use xlink:href="#DejaVuSans-5d" x="433.142578"/>
     </g>
    </g>
   </g>
   <g id="line2d_70">
    <path d="M 67.34 632.088074 
L 72.599968 655.215547 
L 77.7643 678.944987 
L 82.737361 702.866687 
L 86.374865 721 
L 86.374865 721 
" clip-path="url(#pb6549706dd)" style="fill: none; stroke: #1f77b4; stroke-width: 1.5; stroke-linecap: square"/>
   </g>
   <g id="line2d_71">
    <path d="M 67.34 201.188615 
L 73.715719 571.628459 
L 80.091438 571.914197 
L 86.467156 575.259549 
L 92.842875 578.291752 
L 99.218594 580.695367 
L 105.594313 582.473959 
L 111.970032 583.642933 
L 118.34575 584.259694 
L 124.721469 584.468016 
L 131.097188 584.470941 
L 137.472907 584.449433 
L 143.848625 584.496866 
L 150.224344 584.624351 
L 156.600063 584.809234 
L 162.975782 585.020245 
L 169.351501 585.236022 
L 175.727219 585.441189 
L 182.102938 585.625958 
L 188.478657 585.790406 
L 194.854376 585.934314 
L 201.230095 586.058839 
L 207.605813 586.168244 
L 213.981532 586.265513 
L 220.357251 586.353381 
L 226.73297 586.429544 
L 233.108688 586.49287 
L 239.484407 586.542269 
L 245.860126 586.576146 
L 252.235845 586.596726 
L 258.611564 586.606388 
L 264.987282 586.606862 
L 271.363001 586.598952 
L 277.73872 586.583119 
L 284.114439 586.558983 
L 290.490158 586.525323 
L 296.865876 586.478896 
L 303.241595 586.418881 
L 309.617314 586.34614 
L 315.993033 586.260682 
L 322.368751 586.167495 
L 328.74447 586.067825 
L 335.120189 585.961671 
L 341.495908 585.850985 
L 347.871627 585.735358 
L 354.247345 585.613181 
L 360.623064 585.493311 
L 366.998783 585.384222 
L 373.374502 585.2844 
L 379.750221 585.199943 
L 386.125939 585.137698 
L 392.501658 585.095669 
L 398.877377 585.064794 
L 405.253096 585.045866 
L 411.628814 585.042002 
L 418.004533 585.050782 
L 424.380252 585.065572 
L 430.755971 585.083557 
L 437.13169 585.113204 
L 443.507408 585.160989 
L 449.883127 585.224317 
L 456.258846 585.293626 
L 462.634565 585.369174 
L 469.010284 585.452201 
L 475.386002 585.535254 
L 481.761721 585.612561 
L 488.13744 585.683223 
L 494.513159 585.749371 
L 500.888877 585.818242 
L 507.264596 585.897243 
L 513.640315 585.985461 
L 520.016034 586.07915 
L 526.391753 586.178038 
L 532.767471 586.276702 
L 539.14319 586.367893 
L 545.518909 586.448204 
L 551.894628 586.515775 
L 558.270347 586.568367 
L 564.646065 586.601898 
L 571.021784 586.616852 
L 577.397503 586.615719 
L 583.773222 586.601482 
L 590.14894 586.575833 
L 596.524659 586.541479 
L 602.900378 586.500534 
L 609.276097 586.453401 
L 615.651816 586.399957 
L 622.027534 586.340867 
L 628.403253 586.274438 
L 634.778972 586.197604 
L 641.154691 586.106826 
L 647.53041 586.003785 
L 653.906128 585.894805 
L 660.281847 585.792186 
L 666.657566 585.697493 
L 673.033285 585.607994 
L 679.409003 585.5266 
L 685.784722 585.451329 
L 692.160441 585.375333 
L 698.53616 585.302641 
" clip-path="url(#pb6549706dd)" style="fill: none; stroke-dasharray: 5.55,2.4; stroke-dashoffset: 0; stroke: #ff0000; stroke-width: 1.5"/>
   </g>
   <g id="line2d_72">
    <path d="M 72.55776 721 
L 73.715719 653.720676 
L 80.091438 653.434938 
L 86.467156 650.089586 
L 92.842875 647.057383 
L 99.218594 644.653768 
L 105.594313 642.875176 
L 111.970032 641.706202 
L 118.34575 641.089442 
L 124.721469 640.881119 
L 131.097188 640.878194 
L 137.472907 640.899703 
L 143.848625 640.852269 
L 150.224344 640.724784 
L 156.600063 640.539901 
L 162.975782 640.32889 
L 169.351501 640.113114 
L 175.727219 639.907946 
L 182.102938 639.723178 
L 188.478657 639.558729 
L 194.854376 639.414821 
L 201.230095 639.290297 
L 207.605813 639.180892 
L 213.981532 639.083622 
L 220.357251 638.995754 
L 226.73297 638.919591 
L 233.108688 638.856265 
L 239.484407 638.806867 
L 245.860126 638.772989 
L 252.235845 638.752409 
L 258.611564 638.742748 
L 264.987282 638.742273 
L 271.363001 638.750183 
L 277.73872 638.766016 
L 284.114439 638.790153 
L 290.490158 638.823813 
L 296.865876 638.870239 
L 303.241595 638.930254 
L 309.617314 639.002995 
L 315.993033 639.088453 
L 322.368751 639.181641 
L 328.74447 639.28131 
L 335.120189 639.387465 
L 341.495908 639.498151 
L 347.871627 639.613777 
L 354.247345 639.735955 
L 360.623064 639.855824 
L 366.998783 639.964913 
L 373.374502 640.064735 
L 379.750221 640.149193 
L 386.125939 640.211437 
L 392.501658 640.253466 
L 398.877377 640.284341 
L 405.253096 640.303269 
L 411.628814 640.307133 
L 418.004533 640.298353 
L 424.380252 640.283563 
L 430.755971 640.265578 
L 437.13169 640.235931 
L 443.507408 640.188146 
L 449.883127 640.124818 
L 456.258846 640.055509 
L 462.634565 639.979961 
L 469.010284 639.896935 
L 475.386002 639.813881 
L 481.761721 639.736575 
L 488.13744 639.665913 
L 494.513159 639.599764 
L 500.888877 639.530893 
L 507.264596 639.451892 
L 513.640315 639.363674 
L 520.016034 639.269985 
L 526.391753 639.171098 
L 532.767471 639.072433 
L 539.14319 638.981242 
L 545.518909 638.900931 
L 551.894628 638.833361 
L 558.270347 638.780768 
L 564.646065 638.747237 
L 571.021784 638.732283 
L 577.397503 638.733416 
L 583.773222 638.747654 
L 590.14894 638.773302 
L 596.524659 638.807656 
L 602.900378 638.848601 
L 609.276097 638.895734 
L 615.651816 638.949179 
L 622.027534 639.008268 
L 628.403253 639.074697 
L 634.778972 639.151532 
L 641.154691 639.242309 
L 647.53041 639.34535 
L 653.906128 639.45433 
L 660.281847 639.556949 
L 666.657566 639.651642 
L 673.033285 639.741142 
L 679.409003 639.822535 
L 685.784722 639.897806 
L 692.160441 639.973802 
L 698.53616 640.046494 
" clip-path="url(#pb6549706dd)" style="fill: none; stroke-dasharray: 5.55,2.4; stroke-dashoffset: 0; stroke: #ff0000; stroke-width: 1.5"/>
   </g>
   <g id="patch_23">
    <path d="M 67.34 666.52 
L 67.34 558.829135 
" style="fill: none; stroke: #000000; stroke-width: 0.8; stroke-linejoin: miter; stroke-linecap: square"/>
   </g>
   <g id="patch_24">
    <path d="M 704.88 666.52 
L 704.88 558.829135 
" style="fill: none; stroke: #000000; stroke-width: 0.8; stroke-linejoin: miter; stroke-linecap: square"/>
   </g>
   <g id="patch_25">
    <path d="M 67.34 666.52 
L 704.88 666.52 
" style="fill: none; stroke: #000000; stroke-width: 0.8; stroke-linejoin: miter; stroke-linecap: square"/>
   </g>
   <g id="patch_26">
    <path d="M 67.34 558.829135 
L 704.88 558.829135 
" style="fill: none; stroke: #000000; stroke-width: 0.8; stroke-linejoin: miter; stroke-linecap: square"/>
   </g>
  </g>
  <g id="text_32">
   <!-- Errors on positions and velocities at 100Hz -->
   <g transform="translate(180.283312 27.165375) scale(0.168 -0.168)">
    <defs>
     <path id="DejaVuSans-6e" d="M 3513 2113 
L 3513 0 
L 2938 0 
L 2938 2094 
Q 2938 2591 2744 2837 
Q 2550 3084 2163 3084 
Q 1697 3084 1428 2787 
Q 1159 2491 1159 1978 
L 1159 0 
L 581 0 
L 581 3500 
L 1159 3500 
L 1159 2956 
Q 1366 3272 1645 3428 
Q 1925 3584 2291 3584 
Q 2894 3584 3203 3211 
Q 3513 2838 3513 2113 
z
" transform="scale(0.015625)"/>
     <path id="DejaVuSans-76" d="M 191 3500 
L 800 3500 
L 1894 563 
L 2988 3500 
L 3597 3500 
L 2284 0 
L 1503 0 
L 191 3500 
z
" transform="scale(0.015625)"/>
     <path id="DejaVuSans-63" d="M 3122 3366 
L 3122 2828 
Q 2878 2963 2633 3030 
Q 2388 3097 2138 3097 
Q 1578 3097 1268 2742 
Q 959 2388 959 1747 
Q 959 1106 1268 751 
Q 1578 397 2138 397 
Q 2388 397 2633 464 
Q 2878 531 3122 666 
L 3122 134 
Q 2881 22 2623 -34 
Q 2366 -91 2075 -91 
Q 1284 -91 818 406 
Q 353 903 353 1747 
Q 353 2603 823 3093 
Q 1294 3584 2113 3584 
Q 2378 3584 2631 3529 
Q 2884 3475 3122 3366 
z
" transform="scale(0.015625)"/>
     <path id="DejaVuSans-48" d="M 628 4666 
L 1259 4666 
L 1259 2753 
L 3553 2753 
L 3553 4666 
L 4184 4666 
L 4184 0 
L 3553 0 
L 3553 2222 
L 1259 2222 
L 1259 0 
L 628 0 
L 628 4666 
z
" transform="scale(0.015625)"/>
     <path id="DejaVuSans-7a" d="M 353 3500 
L 3084 3500 
L 3084 2975 
L 922 459 
L 3084 459 
L 3084 0 
L 275 0 
L 275 525 
L 2438 3041 
L 353 3041 
L 353 3500 
z
" transform="scale(0.015625)"/>
    </defs>
    <use xlink:href="#DejaVuSans-45"/>
    <use xlink:href="#DejaVuSans-72" x="63.183594"/>
    <use xlink:href="#DejaVuSans-72" x="102.546875"/>
    <use xlink:href="#DejaVuSans-6f" x="141.410156"/>
    <use xlink:href="#DejaVuSans-72" x="202.591797"/>
    <use xlink:href="#DejaVuSans-73" x="243.705078"/>
    <use xlink:href="#DejaVuSans-20" x="295.804688"/>
    <use xlink:href="#DejaVuSans-6f" x="327.591797"/>
    <use xlink:href="#DejaVuSans-6e" x="388.773438"/>
    <use xlink:href="#DejaVuSans-20" x="452.152344"/>
    <use xlink:href="#DejaVuSans-70" x="483.939453"/>
    <use xlink:href="#DejaVuSans-6f" x="547.416016"/>
    <use xlink:href="#DejaVuSans-73" x="608.597656"/>
    <use xlink:href="#DejaVuSans-69" x="660.697266"/>
    <use xlink:href="#DejaVuSans-74" x="688.480469"/>
    <use xlink:href="#DejaVuSans-69" x="727.689453"/>
    <use xlink:href="#DejaVuSans-6f" x="755.472656"/>
    <use xlink:href="#DejaVuSans-6e" x="816.654297"/>
    <use xlink:href="#DejaVuSans-73" x="880.033203"/>
    <use xlink:href="#DejaVuSans-20" x="932.132812"/>
    <use xlink:href="#DejaVuSans-61" x="963.919922"/>
    <use xlink:href="#DejaVuSans-6e" x="1025.199219"/>
    <use xlink:href="#DejaVuSans-64" x="1088.578125"/>
    <use xlink:href="#DejaVuSans-20" x="1152.054688"/>
    <use xlink:href="#DejaVuSans-76" x="1183.841797"/>
    <use xlink:href="#DejaVuSans-65" x="1243.021484"/>
    <use xlink:href="#DejaVuSans-6c" x="1304.544922"/>
    <use xlink:href="#DejaVuSans-6f" x="1332.328125"/>
    <use xlink:href="#DejaVuSans-63" x="1393.509766"/>
    <use xlink:href="#DejaVuSans-69" x="1448.490234"/>
    <use xlink:href="#DejaVuSans-74" x="1476.273438"/>
    <use xlink:href="#DejaVuSans-69" x="1515.482422"/>
    <use xlink:href="#DejaVuSans-65" x="1543.265625"/>
    <use xlink:href="#DejaVuSans-73" x="1604.789062"/>
    <use xlink:href="#DejaVuSans-20" x="1656.888672"/>
    <use xlink:href="#DejaVuSans-61" x="1688.675781"/>
    <use xlink:href="#DejaVuSans-74" x="1749.955078"/>
    <use xlink:href="#DejaVuSans-20" x="1789.164062"/>
    <use xlink:href="#DejaVuSans-31" x="1820.951172"/>
    <use xlink:href="#DejaVuSans-30" x="1884.574219"/>
    <use xlink:href="#DejaVuSans-30" x="1948.197266"/>
    <use xlink:href="#DejaVuSans-48" x="2011.820312"/>
    <use xlink:href="#DejaVuSans-7a" x="2087.015625"/>
   </g>
  </g>
 </g>
 <defs>
  <clipPath id="p98051e9ca8">
   <rect x="67.34" y="48.653135" width="637.54" height="107.690865"/>
  </clipPath>
  <clipPath id="p9c628ad622">
   <rect x="67.34" y="176.197135" width="637.54" height="107.690865"/>
  </clipPath>
  <clipPath id="p5ca3f12b07">
   <rect x="67.34" y="303.741135" width="637.54" height="107.690865"/>
  </clipPath>
  <clipPath id="p2a10e12125">
   <rect x="67.34" y="431.285135" width="637.54" height="107.690865"/>
  </clipPath>
  <clipPath id="pb6549706dd">
   <rect x="67.34" y="558.829135" width="637.54" height="107.690865"/>
  </clipPath>
 </defs>
</svg>
