<?xml version="1.0" encoding="utf-8" standalone="no"?>
<!DOCTYPE svg PUBLIC "-//W3C//DTD SVG 1.1//EN"
  "http://www.w3.org/Graphics/SVG/1.1/DTD/svg11.dtd">
<svg xmlns:xlink="http://www.w3.org/1999/xlink" width="720pt" height="720pt" viewBox="0 0 720 720" xmlns="http://www.w3.org/2000/svg" version="1.1">
 <metadata>
  <rdf:RDF xmlns:dc="http://purl.org/dc/elements/1.1/" xmlns:cc="http://creativecommons.org/ns#" xmlns:rdf="http://www.w3.org/1999/02/22-rdf-syntax-ns#">
   <cc:Work>
    <dc:type rdf:resource="http://purl.org/dc/dcmitype/StillImage"/>
    <dc:date>2024-06-03T16:53:58.288023</dc:date>
    <dc:format>image/svg+xml</dc:format>
    <dc:creator>
     <cc:Agent>
      <dc:title>Matplotlib v3.9.0, https://matplotlib.org/</dc:title>
     </cc:Agent>
    </dc:creator>
   </cc:Work>
  </rdf:RDF>
 </metadata>
 <defs>
  <style type="text/css">*{stroke-linejoin: round; stroke-linecap: butt}</style>
 </defs>
 <g id="figure_1">
  <g id="patch_1">
   <path d="M 0 720 
L 720 720 
L 720 0 
L 0 0 
z
" style="fill: #ffffff"/>
  </g>
  <g id="axes_1">
   <g id="patch_2">
    <path d="M 91.55 187.765 
L 704.88 187.765 
L 704.88 46.8 
L 91.55 46.8 
z
" style="fill: #ffffff"/>
   </g>
   <g id="matplotlib.axis_1">
    <g id="xtick_1">
     <g id="line2d_1">
      <defs>
       <path id="m9b6c47bc10" d="M 0 0 
L 0 3.5 
" style="stroke: #000000; stroke-width: 0.8"/>
      </defs>
      <g>
       <use xlink:href="#m9b6c47bc10" x="91.55" y="187.765" style="stroke: #000000; stroke-width: 0.8"/>
      </g>
     </g>
    </g>
    <g id="xtick_2">
     <g id="line2d_2">
      <g>
       <use xlink:href="#m9b6c47bc10" x="168.220084" y="187.765" style="stroke: #000000; stroke-width: 0.8"/>
      </g>
     </g>
    </g>
    <g id="xtick_3">
     <g id="line2d_3">
      <g>
       <use xlink:href="#m9b6c47bc10" x="244.890167" y="187.765" style="stroke: #000000; stroke-width: 0.8"/>
      </g>
     </g>
    </g>
    <g id="xtick_4">
     <g id="line2d_4">
      <g>
       <use xlink:href="#m9b6c47bc10" x="321.560251" y="187.765" style="stroke: #000000; stroke-width: 0.8"/>
      </g>
     </g>
    </g>
    <g id="xtick_5">
     <g id="line2d_5">
      <g>
       <use xlink:href="#m9b6c47bc10" x="398.230334" y="187.765" style="stroke: #000000; stroke-width: 0.8"/>
      </g>
     </g>
    </g>
    <g id="xtick_6">
     <g id="line2d_6">
      <g>
       <use xlink:href="#m9b6c47bc10" x="474.900418" y="187.765" style="stroke: #000000; stroke-width: 0.8"/>
      </g>
     </g>
    </g>
    <g id="xtick_7">
     <g id="line2d_7">
      <g>
       <use xlink:href="#m9b6c47bc10" x="551.570501" y="187.765" style="stroke: #000000; stroke-width: 0.8"/>
      </g>
     </g>
    </g>
    <g id="xtick_8">
     <g id="line2d_8">
      <g>
       <use xlink:href="#m9b6c47bc10" x="628.240585" y="187.765" style="stroke: #000000; stroke-width: 0.8"/>
      </g>
     </g>
    </g>
   </g>
   <g id="matplotlib.axis_2">
    <g id="ytick_1">
     <g id="line2d_9">
      <defs>
       <path id="m50dc46a90d" d="M 0 0 
L -3.5 0 
" style="stroke: #000000; stroke-width: 0.8"/>
      </defs>
      <g>
       <use xlink:href="#m50dc46a90d" x="91.55" y="153.637769" style="stroke: #000000; stroke-width: 0.8"/>
      </g>
     </g>
     <g id="text_1">
      <!-- −0.002 -->
      <g transform="translate(32.739062 158.956675) scale(0.14 -0.14)">
       <defs>
        <path id="DejaVuSans-2212" d="M 678 2272 
L 4684 2272 
L 4684 1741 
L 678 1741 
L 678 2272 
z
" transform="scale(0.015625)"/>
        <path id="DejaVuSans-30" d="M 2034 4250 
Q 1547 4250 1301 3770 
Q 1056 3291 1056 2328 
Q 1056 1369 1301 889 
Q 1547 409 2034 409 
Q 2525 409 2770 889 
Q 3016 1369 3016 2328 
Q 3016 3291 2770 3770 
Q 2525 4250 2034 4250 
z
M 2034 4750 
Q 2819 4750 3233 4129 
Q 3647 3509 3647 2328 
Q 3647 1150 3233 529 
Q 2819 -91 2034 -91 
Q 1250 -91 836 529 
Q 422 1150 422 2328 
Q 422 3509 836 4129 
Q 1250 4750 2034 4750 
z
" transform="scale(0.015625)"/>
        <path id="DejaVuSans-2e" d="M 684 794 
L 1344 794 
L 1344 0 
L 684 0 
L 684 794 
z
" transform="scale(0.015625)"/>
        <path id="DejaVuSans-32" d="M 1228 531 
L 3431 531 
L 3431 0 
L 469 0 
L 469 531 
Q 828 903 1448 1529 
Q 2069 2156 2228 2338 
Q 2531 2678 2651 2914 
Q 2772 3150 2772 3378 
Q 2772 3750 2511 3984 
Q 2250 4219 1831 4219 
Q 1534 4219 1204 4116 
Q 875 4013 500 3803 
L 500 4441 
Q 881 4594 1212 4672 
Q 1544 4750 1819 4750 
Q 2544 4750 2975 4387 
Q 3406 4025 3406 3419 
Q 3406 3131 3298 2873 
Q 3191 2616 2906 2266 
Q 2828 2175 2409 1742 
Q 1991 1309 1228 531 
z
" transform="scale(0.015625)"/>
       </defs>
       <use xlink:href="#DejaVuSans-2212"/>
       <use xlink:href="#DejaVuSans-30" x="83.789062"/>
       <use xlink:href="#DejaVuSans-2e" x="147.412109"/>
       <use xlink:href="#DejaVuSans-30" x="179.199219"/>
       <use xlink:href="#DejaVuSans-30" x="242.822266"/>
       <use xlink:href="#DejaVuSans-32" x="306.445312"/>
      </g>
     </g>
    </g>
    <g id="ytick_2">
     <g id="line2d_10">
      <g>
       <use xlink:href="#m50dc46a90d" x="91.55" y="117.2825" style="stroke: #000000; stroke-width: 0.8"/>
      </g>
     </g>
     <g id="text_2">
      <!-- 0.000 -->
      <g transform="translate(44.470625 122.601406) scale(0.14 -0.14)">
       <use xlink:href="#DejaVuSans-30"/>
       <use xlink:href="#DejaVuSans-2e" x="63.623047"/>
       <use xlink:href="#DejaVuSans-30" x="95.410156"/>
       <use xlink:href="#DejaVuSans-30" x="159.033203"/>
       <use xlink:href="#DejaVuSans-30" x="222.65625"/>
      </g>
     </g>
    </g>
    <g id="ytick_3">
     <g id="line2d_11">
      <g>
       <use xlink:href="#m50dc46a90d" x="91.55" y="80.927231" style="stroke: #000000; stroke-width: 0.8"/>
      </g>
     </g>
     <g id="text_3">
      <!-- 0.002 -->
      <g transform="translate(44.470625 86.246138) scale(0.14 -0.14)">
       <use xlink:href="#DejaVuSans-30"/>
       <use xlink:href="#DejaVuSans-2e" x="63.623047"/>
       <use xlink:href="#DejaVuSans-30" x="95.410156"/>
       <use xlink:href="#DejaVuSans-30" x="159.033203"/>
       <use xlink:href="#DejaVuSans-32" x="222.65625"/>
      </g>
     </g>
    </g>
    <g id="text_4">
     <!-- Gyro bias [rad/s] -->
     <g transform="translate(25.8275 175.705156) rotate(-90) scale(0.14 -0.14)">
      <defs>
       <path id="DejaVuSans-47" d="M 3809 666 
L 3809 1919 
L 2778 1919 
L 2778 2438 
L 4434 2438 
L 4434 434 
Q 4069 175 3628 42 
Q 3188 -91 2688 -91 
Q 1594 -91 976 548 
Q 359 1188 359 2328 
Q 359 3472 976 4111 
Q 1594 4750 2688 4750 
Q 3144 4750 3555 4637 
Q 3966 4525 4313 4306 
L 4313 3634 
Q 3963 3931 3569 4081 
Q 3175 4231 2741 4231 
Q 1884 4231 1454 3753 
Q 1025 3275 1025 2328 
Q 1025 1384 1454 906 
Q 1884 428 2741 428 
Q 3075 428 3337 486 
Q 3600 544 3809 666 
z
" transform="scale(0.015625)"/>
       <path id="DejaVuSans-79" d="M 2059 -325 
Q 1816 -950 1584 -1140 
Q 1353 -1331 966 -1331 
L 506 -1331 
L 506 -850 
L 844 -850 
Q 1081 -850 1212 -737 
Q 1344 -625 1503 -206 
L 1606 56 
L 191 3500 
L 800 3500 
L 1894 763 
L 2988 3500 
L 3597 3500 
L 2059 -325 
z
" transform="scale(0.015625)"/>
       <path id="DejaVuSans-72" d="M 2631 2963 
Q 2534 3019 2420 3045 
Q 2306 3072 2169 3072 
Q 1681 3072 1420 2755 
Q 1159 2438 1159 1844 
L 1159 0 
L 581 0 
L 581 3500 
L 1159 3500 
L 1159 2956 
Q 1341 3275 1631 3429 
Q 1922 3584 2338 3584 
Q 2397 3584 2469 3576 
Q 2541 3569 2628 3553 
L 2631 2963 
z
" transform="scale(0.015625)"/>
       <path id="DejaVuSans-6f" d="M 1959 3097 
Q 1497 3097 1228 2736 
Q 959 2375 959 1747 
Q 959 1119 1226 758 
Q 1494 397 1959 397 
Q 2419 397 2687 759 
Q 2956 1122 2956 1747 
Q 2956 2369 2687 2733 
Q 2419 3097 1959 3097 
z
M 1959 3584 
Q 2709 3584 3137 3096 
Q 3566 2609 3566 1747 
Q 3566 888 3137 398 
Q 2709 -91 1959 -91 
Q 1206 -91 779 398 
Q 353 888 353 1747 
Q 353 2609 779 3096 
Q 1206 3584 1959 3584 
z
" transform="scale(0.015625)"/>
       <path id="DejaVuSans-20" transform="scale(0.015625)"/>
       <path id="DejaVuSans-62" d="M 3116 1747 
Q 3116 2381 2855 2742 
Q 2594 3103 2138 3103 
Q 1681 3103 1420 2742 
Q 1159 2381 1159 1747 
Q 1159 1113 1420 752 
Q 1681 391 2138 391 
Q 2594 391 2855 752 
Q 3116 1113 3116 1747 
z
M 1159 2969 
Q 1341 3281 1617 3432 
Q 1894 3584 2278 3584 
Q 2916 3584 3314 3078 
Q 3713 2572 3713 1747 
Q 3713 922 3314 415 
Q 2916 -91 2278 -91 
Q 1894 -91 1617 61 
Q 1341 213 1159 525 
L 1159 0 
L 581 0 
L 581 4863 
L 1159 4863 
L 1159 2969 
z
" transform="scale(0.015625)"/>
       <path id="DejaVuSans-69" d="M 603 3500 
L 1178 3500 
L 1178 0 
L 603 0 
L 603 3500 
z
M 603 4863 
L 1178 4863 
L 1178 4134 
L 603 4134 
L 603 4863 
z
" transform="scale(0.015625)"/>
       <path id="DejaVuSans-61" d="M 2194 1759 
Q 1497 1759 1228 1600 
Q 959 1441 959 1056 
Q 959 750 1161 570 
Q 1363 391 1709 391 
Q 2188 391 2477 730 
Q 2766 1069 2766 1631 
L 2766 1759 
L 2194 1759 
z
M 3341 1997 
L 3341 0 
L 2766 0 
L 2766 531 
Q 2569 213 2275 61 
Q 1981 -91 1556 -91 
Q 1019 -91 701 211 
Q 384 513 384 1019 
Q 384 1609 779 1909 
Q 1175 2209 1959 2209 
L 2766 2209 
L 2766 2266 
Q 2766 2663 2505 2880 
Q 2244 3097 1772 3097 
Q 1472 3097 1187 3025 
Q 903 2953 641 2809 
L 641 3341 
Q 956 3463 1253 3523 
Q 1550 3584 1831 3584 
Q 2591 3584 2966 3190 
Q 3341 2797 3341 1997 
z
" transform="scale(0.015625)"/>
       <path id="DejaVuSans-73" d="M 2834 3397 
L 2834 2853 
Q 2591 2978 2328 3040 
Q 2066 3103 1784 3103 
Q 1356 3103 1142 2972 
Q 928 2841 928 2578 
Q 928 2378 1081 2264 
Q 1234 2150 1697 2047 
L 1894 2003 
Q 2506 1872 2764 1633 
Q 3022 1394 3022 966 
Q 3022 478 2636 193 
Q 2250 -91 1575 -91 
Q 1294 -91 989 -36 
Q 684 19 347 128 
L 347 722 
Q 666 556 975 473 
Q 1284 391 1588 391 
Q 1994 391 2212 530 
Q 2431 669 2431 922 
Q 2431 1156 2273 1281 
Q 2116 1406 1581 1522 
L 1381 1569 
Q 847 1681 609 1914 
Q 372 2147 372 2553 
Q 372 3047 722 3315 
Q 1072 3584 1716 3584 
Q 2034 3584 2315 3537 
Q 2597 3491 2834 3397 
z
" transform="scale(0.015625)"/>
       <path id="DejaVuSans-5b" d="M 550 4863 
L 1875 4863 
L 1875 4416 
L 1125 4416 
L 1125 -397 
L 1875 -397 
L 1875 -844 
L 550 -844 
L 550 4863 
z
" transform="scale(0.015625)"/>
       <path id="DejaVuSans-64" d="M 2906 2969 
L 2906 4863 
L 3481 4863 
L 3481 0 
L 2906 0 
L 2906 525 
Q 2725 213 2448 61 
Q 2172 -91 1784 -91 
Q 1150 -91 751 415 
Q 353 922 353 1747 
Q 353 2572 751 3078 
Q 1150 3584 1784 3584 
Q 2172 3584 2448 3432 
Q 2725 3281 2906 2969 
z
M 947 1747 
Q 947 1113 1208 752 
Q 1469 391 1925 391 
Q 2381 391 2643 752 
Q 2906 1113 2906 1747 
Q 2906 2381 2643 2742 
Q 2381 3103 1925 3103 
Q 1469 3103 1208 2742 
Q 947 2381 947 1747 
z
" transform="scale(0.015625)"/>
       <path id="DejaVuSans-2f" d="M 1625 4666 
L 2156 4666 
L 531 -594 
L 0 -594 
L 1625 4666 
z
" transform="scale(0.015625)"/>
       <path id="DejaVuSans-5d" d="M 1947 4863 
L 1947 -844 
L 622 -844 
L 622 -397 
L 1369 -397 
L 1369 4416 
L 622 4416 
L 622 4863 
L 1947 4863 
z
" transform="scale(0.015625)"/>
      </defs>
      <use xlink:href="#DejaVuSans-47"/>
      <use xlink:href="#DejaVuSans-79" x="77.490234"/>
      <use xlink:href="#DejaVuSans-72" x="136.669922"/>
      <use xlink:href="#DejaVuSans-6f" x="175.533203"/>
      <use xlink:href="#DejaVuSans-20" x="236.714844"/>
      <use xlink:href="#DejaVuSans-62" x="268.501953"/>
      <use xlink:href="#DejaVuSans-69" x="331.978516"/>
      <use xlink:href="#DejaVuSans-61" x="359.761719"/>
      <use xlink:href="#DejaVuSans-73" x="421.041016"/>
      <use xlink:href="#DejaVuSans-20" x="473.140625"/>
      <use xlink:href="#DejaVuSans-5b" x="504.927734"/>
      <use xlink:href="#DejaVuSans-72" x="543.941406"/>
      <use xlink:href="#DejaVuSans-61" x="585.054688"/>
      <use xlink:href="#DejaVuSans-64" x="646.333984"/>
      <use xlink:href="#DejaVuSans-2f" x="709.810547"/>
      <use xlink:href="#DejaVuSans-73" x="743.501953"/>
      <use xlink:href="#DejaVuSans-5d" x="795.601562"/>
     </g>
    </g>
   </g>
   <g id="line2d_12">
    <path d="M 91.55 117.2825 
L 116.053759 117.377698 
L 116.176431 117.843548 
L 122.187365 117.843548 
L 122.310038 119.176285 
L 128.320972 119.176285 
L 128.443644 122.156149 
L 134.454579 122.156149 
L 134.577251 126.280142 
L 140.588185 126.280142 
L 140.710858 132.350769 
L 146.721792 132.350769 
L 146.844464 138.734894 
L 152.855399 138.734894 
L 152.978071 143.524325 
L 158.989005 143.524325 
L 159.111678 148.737528 
L 165.122612 148.737528 
L 165.245284 150.549029 
L 171.256219 150.549029 
L 171.378891 152.565151 
L 177.389825 152.565151 
L 177.512498 146.968896 
L 183.523432 146.968896 
L 183.646104 135.691822 
L 189.657039 135.691822 
L 189.779711 118.735489 
L 195.790646 118.735489 
L 195.913318 93.197719 
L 201.924252 93.197719 
L 202.046924 64.666762 
L 208.057859 64.666762 
L 208.180531 29.409614 
L 214.191466 29.409614 
L 214.211736 -1 
M 680.367093 -1 
L 680.468245 118.013984 
L 686.47918 118.013984 
L 686.601852 519.691361 
L 692.612787 519.691361 
L 692.628096 721 
L 692.628096 721 
" clip-path="url(#p811b3e2769)" style="fill: none; stroke: #1f77b4; stroke-width: 1.5; stroke-linecap: square"/>
   </g>
   <g id="line2d_13">
    <path d="M 91.55 69.693565 
L 97.683607 69.693565 
L 103.817213 69.693571 
L 109.95082 69.693787 
L 116.084427 69.695458 
L 122.218033 69.702826 
L 128.35164 69.726031 
L 134.485247 69.78256 
L 140.618853 69.893394 
L 146.75246 70.072843 
L 152.886067 70.318758 
L 159.019673 70.613564 
L 165.15328 70.936718 
L 171.286887 71.273515 
L 177.420494 71.617454 
L 183.5541 71.968297 
L 189.687707 72.328094 
L 195.821314 72.696572 
L 201.95492 73.070778 
L 208.088527 73.445801 
L 214.222134 73.816055 
L 220.35574 74.174989 
L 226.489347 74.517025 
L 232.622954 74.836595 
L 238.75656 75.130308 
L 244.890167 75.397736 
L 251.023774 75.640156 
L 257.15738 75.859735 
L 263.290987 76.059229 
L 269.424594 76.241781 
L 275.5582 76.410405 
L 281.691807 76.567887 
L 287.825414 76.716887 
L 293.95902 76.859203 
L 300.092627 76.996216 
L 306.226234 77.129057 
L 312.35984 77.258077 
L 318.493447 77.383473 
L 324.627054 77.505924 
L 330.760661 77.626846 
L 336.894267 77.746817 
L 343.027874 77.865748 
L 349.161481 77.983466 
L 355.295087 78.100013 
L 361.428694 78.215425 
L 367.562301 78.330109 
L 373.695907 78.444203 
L 379.829514 78.557762 
L 385.963121 78.671032 
L 392.096727 78.783697 
L 398.230334 78.894819 
L 404.363941 79.003776 
L 410.497547 79.11081 
L 416.631154 79.21599 
L 422.764761 79.318988 
L 428.898367 79.419627 
L 435.031974 79.518239 
L 441.165581 79.615363 
L 447.299187 79.710948 
L 453.432794 79.804572 
L 459.566401 79.896162 
L 465.700008 79.986803 
L 471.833614 80.077449 
L 477.967221 80.168489 
L 484.100828 80.260592 
L 490.234434 80.354798 
L 496.368041 80.451725 
L 502.501648 80.551251 
L 508.635254 80.65233 
L 514.768861 80.753117 
L 520.902468 80.852357 
L 527.036074 80.949484 
L 533.169681 81.044284 
L 539.303288 81.136654 
L 545.436894 81.226441 
L 551.570501 81.313793 
L 557.704108 81.398623 
L 563.837714 81.481067 
L 569.971321 81.561429 
L 576.104928 81.640738 
L 582.238534 81.720281 
L 588.372141 81.801037 
L 594.505748 81.883639 
L 600.639354 81.968034 
L 606.772961 82.053591 
L 612.906568 82.139082 
L 619.040175 82.223353 
L 625.173781 82.305579 
L 631.307388 82.3858 
L 637.440995 82.464106 
L 643.574601 82.540762 
L 649.708208 82.616282 
L 655.841815 82.691109 
L 661.975421 82.765164 
L 668.109028 82.838788 
L 674.242635 82.912473 
L 680.376241 82.986256 
L 686.509848 83.060109 
L 692.643455 83.134257 
L 698.777061 83.208853 
" clip-path="url(#p811b3e2769)" style="fill: none; stroke-dasharray: 5.55,2.4; stroke-dashoffset: 0; stroke: #ff0000; stroke-width: 1.5"/>
   </g>
   <g id="line2d_14">
    <path d="M 91.55 164.871435 
L 97.683607 164.871435 
L 103.817213 164.871429 
L 109.95082 164.871213 
L 116.084427 164.869542 
L 122.218033 164.862174 
L 128.35164 164.838969 
L 134.485247 164.78244 
L 140.618853 164.671606 
L 146.75246 164.492157 
L 152.886067 164.246242 
L 159.019673 163.951436 
L 165.15328 163.628282 
L 171.286887 163.291485 
L 177.420494 162.947546 
L 183.5541 162.596703 
L 189.687707 162.236906 
L 195.821314 161.868428 
L 201.95492 161.494222 
L 208.088527 161.119199 
L 214.222134 160.748945 
L 220.35574 160.390011 
L 226.489347 160.047975 
L 232.622954 159.728405 
L 238.75656 159.434692 
L 244.890167 159.167264 
L 251.023774 158.924844 
L 257.15738 158.705265 
L 263.290987 158.505771 
L 269.424594 158.323219 
L 275.5582 158.154595 
L 281.691807 157.997113 
L 287.825414 157.848113 
L 293.95902 157.705797 
L 300.092627 157.568784 
L 306.226234 157.435943 
L 312.35984 157.306923 
L 318.493447 157.181527 
L 324.627054 157.059076 
L 330.760661 156.938154 
L 336.894267 156.818183 
L 343.027874 156.699252 
L 349.161481 156.581534 
L 355.295087 156.464987 
L 361.428694 156.349575 
L 367.562301 156.234891 
L 373.695907 156.120797 
L 379.829514 156.007238 
L 385.963121 155.893968 
L 392.096727 155.781303 
L 398.230334 155.670181 
L 404.363941 155.561224 
L 410.497547 155.45419 
L 416.631154 155.34901 
L 422.764761 155.246012 
L 428.898367 155.145373 
L 435.031974 155.046761 
L 441.165581 154.949637 
L 447.299187 154.854052 
L 453.432794 154.760428 
L 459.566401 154.668838 
L 465.700008 154.578197 
L 471.833614 154.487551 
L 477.967221 154.396511 
L 484.100828 154.304408 
L 490.234434 154.210202 
L 496.368041 154.113275 
L 502.501648 154.013749 
L 508.635254 153.91267 
L 514.768861 153.811883 
L 520.902468 153.712643 
L 527.036074 153.615516 
L 533.169681 153.520716 
L 539.303288 153.428346 
L 545.436894 153.338559 
L 551.570501 153.251207 
L 557.704108 153.166377 
L 563.837714 153.083933 
L 569.971321 153.003571 
L 576.104928 152.924262 
L 582.238534 152.844719 
L 588.372141 152.763963 
L 594.505748 152.681361 
L 600.639354 152.596966 
L 606.772961 152.511409 
L 612.906568 152.425918 
L 619.040175 152.341647 
L 625.173781 152.259421 
L 631.307388 152.1792 
L 637.440995 152.100894 
L 643.574601 152.024238 
L 649.708208 151.948718 
L 655.841815 151.873891 
L 661.975421 151.799836 
L 668.109028 151.726212 
L 674.242635 151.652527 
L 680.376241 151.578744 
L 686.509848 151.504891 
L 692.643455 151.430743 
L 698.777061 151.356147 
" clip-path="url(#p811b3e2769)" style="fill: none; stroke-dasharray: 5.55,2.4; stroke-dashoffset: 0; stroke: #ff0000; stroke-width: 1.5"/>
   </g>
   <g id="patch_3">
    <path d="M 91.55 187.765 
L 91.55 46.8 
" style="fill: none; stroke: #000000; stroke-width: 0.8; stroke-linejoin: miter; stroke-linecap: square"/>
   </g>
   <g id="patch_4">
    <path d="M 704.88 187.765 
L 704.88 46.8 
" style="fill: none; stroke: #000000; stroke-width: 0.8; stroke-linejoin: miter; stroke-linecap: square"/>
   </g>
   <g id="patch_5">
    <path d="M 91.55 187.765 
L 704.88 187.765 
" style="fill: none; stroke: #000000; stroke-width: 0.8; stroke-linejoin: miter; stroke-linecap: square"/>
   </g>
   <g id="patch_6">
    <path d="M 91.55 46.8 
L 704.88 46.8 
" style="fill: none; stroke: #000000; stroke-width: 0.8; stroke-linejoin: miter; stroke-linecap: square"/>
   </g>
  </g>
  <g id="axes_2">
   <g id="patch_7">
    <path d="M 91.55 347.35 
L 704.88 347.35 
L 704.88 206.385 
L 91.55 206.385 
z
" style="fill: #ffffff"/>
   </g>
   <g id="matplotlib.axis_3">
    <g id="xtick_9">
     <g id="line2d_15">
      <g>
       <use xlink:href="#m9b6c47bc10" x="91.55" y="347.35" style="stroke: #000000; stroke-width: 0.8"/>
      </g>
     </g>
    </g>
    <g id="xtick_10">
     <g id="line2d_16">
      <g>
       <use xlink:href="#m9b6c47bc10" x="168.220084" y="347.35" style="stroke: #000000; stroke-width: 0.8"/>
      </g>
     </g>
    </g>
    <g id="xtick_11">
     <g id="line2d_17">
      <g>
       <use xlink:href="#m9b6c47bc10" x="244.890167" y="347.35" style="stroke: #000000; stroke-width: 0.8"/>
      </g>
     </g>
    </g>
    <g id="xtick_12">
     <g id="line2d_18">
      <g>
       <use xlink:href="#m9b6c47bc10" x="321.560251" y="347.35" style="stroke: #000000; stroke-width: 0.8"/>
      </g>
     </g>
    </g>
    <g id="xtick_13">
     <g id="line2d_19">
      <g>
       <use xlink:href="#m9b6c47bc10" x="398.230334" y="347.35" style="stroke: #000000; stroke-width: 0.8"/>
      </g>
     </g>
    </g>
    <g id="xtick_14">
     <g id="line2d_20">
      <g>
       <use xlink:href="#m9b6c47bc10" x="474.900418" y="347.35" style="stroke: #000000; stroke-width: 0.8"/>
      </g>
     </g>
    </g>
    <g id="xtick_15">
     <g id="line2d_21">
      <g>
       <use xlink:href="#m9b6c47bc10" x="551.570501" y="347.35" style="stroke: #000000; stroke-width: 0.8"/>
      </g>
     </g>
    </g>
    <g id="xtick_16">
     <g id="line2d_22">
      <g>
       <use xlink:href="#m9b6c47bc10" x="628.240585" y="347.35" style="stroke: #000000; stroke-width: 0.8"/>
      </g>
     </g>
    </g>
   </g>
   <g id="matplotlib.axis_4">
    <g id="ytick_4">
     <g id="line2d_23">
      <g>
       <use xlink:href="#m50dc46a90d" x="91.55" y="324.776316" style="stroke: #000000; stroke-width: 0.8"/>
      </g>
     </g>
     <g id="text_5">
      <!-- −0.0050 -->
      <g transform="translate(23.831562 330.095223) scale(0.14 -0.14)">
       <defs>
        <path id="DejaVuSans-35" d="M 691 4666 
L 3169 4666 
L 3169 4134 
L 1269 4134 
L 1269 2991 
Q 1406 3038 1543 3061 
Q 1681 3084 1819 3084 
Q 2600 3084 3056 2656 
Q 3513 2228 3513 1497 
Q 3513 744 3044 326 
Q 2575 -91 1722 -91 
Q 1428 -91 1123 -41 
Q 819 9 494 109 
L 494 744 
Q 775 591 1075 516 
Q 1375 441 1709 441 
Q 2250 441 2565 725 
Q 2881 1009 2881 1497 
Q 2881 1984 2565 2268 
Q 2250 2553 1709 2553 
Q 1456 2553 1204 2497 
Q 953 2441 691 2322 
L 691 4666 
z
" transform="scale(0.015625)"/>
       </defs>
       <use xlink:href="#DejaVuSans-2212"/>
       <use xlink:href="#DejaVuSans-30" x="83.789062"/>
       <use xlink:href="#DejaVuSans-2e" x="147.412109"/>
       <use xlink:href="#DejaVuSans-30" x="179.199219"/>
       <use xlink:href="#DejaVuSans-30" x="242.822266"/>
       <use xlink:href="#DejaVuSans-35" x="306.445312"/>
       <use xlink:href="#DejaVuSans-30" x="370.068359"/>
      </g>
     </g>
    </g>
    <g id="ytick_5">
     <g id="line2d_24">
      <g>
       <use xlink:href="#m50dc46a90d" x="91.55" y="300.821908" style="stroke: #000000; stroke-width: 0.8"/>
      </g>
     </g>
     <g id="text_6">
      <!-- −0.0025 -->
      <g transform="translate(23.831562 306.140814) scale(0.14 -0.14)">
       <use xlink:href="#DejaVuSans-2212"/>
       <use xlink:href="#DejaVuSans-30" x="83.789062"/>
       <use xlink:href="#DejaVuSans-2e" x="147.412109"/>
       <use xlink:href="#DejaVuSans-30" x="179.199219"/>
       <use xlink:href="#DejaVuSans-30" x="242.822266"/>
       <use xlink:href="#DejaVuSans-32" x="306.445312"/>
       <use xlink:href="#DejaVuSans-35" x="370.068359"/>
      </g>
     </g>
    </g>
    <g id="ytick_6">
     <g id="line2d_25">
      <g>
       <use xlink:href="#m50dc46a90d" x="91.55" y="276.8675" style="stroke: #000000; stroke-width: 0.8"/>
      </g>
     </g>
     <g id="text_7">
      <!-- 0.0000 -->
      <g transform="translate(35.563125 282.186406) scale(0.14 -0.14)">
       <use xlink:href="#DejaVuSans-30"/>
       <use xlink:href="#DejaVuSans-2e" x="63.623047"/>
       <use xlink:href="#DejaVuSans-30" x="95.410156"/>
       <use xlink:href="#DejaVuSans-30" x="159.033203"/>
       <use xlink:href="#DejaVuSans-30" x="222.65625"/>
       <use xlink:href="#DejaVuSans-30" x="286.279297"/>
      </g>
     </g>
    </g>
    <g id="ytick_7">
     <g id="line2d_26">
      <g>
       <use xlink:href="#m50dc46a90d" x="91.55" y="252.913092" style="stroke: #000000; stroke-width: 0.8"/>
      </g>
     </g>
     <g id="text_8">
      <!-- 0.0025 -->
      <g transform="translate(35.563125 258.231998) scale(0.14 -0.14)">
       <use xlink:href="#DejaVuSans-30"/>
       <use xlink:href="#DejaVuSans-2e" x="63.623047"/>
       <use xlink:href="#DejaVuSans-30" x="95.410156"/>
       <use xlink:href="#DejaVuSans-30" x="159.033203"/>
       <use xlink:href="#DejaVuSans-32" x="222.65625"/>
       <use xlink:href="#DejaVuSans-35" x="286.279297"/>
      </g>
     </g>
    </g>
    <g id="ytick_8">
     <g id="line2d_27">
      <g>
       <use xlink:href="#m50dc46a90d" x="91.55" y="228.958684" style="stroke: #000000; stroke-width: 0.8"/>
      </g>
     </g>
     <g id="text_9">
      <!-- 0.0050 -->
      <g transform="translate(35.563125 234.27759) scale(0.14 -0.14)">
       <use xlink:href="#DejaVuSans-30"/>
       <use xlink:href="#DejaVuSans-2e" x="63.623047"/>
       <use xlink:href="#DejaVuSans-30" x="95.410156"/>
       <use xlink:href="#DejaVuSans-30" x="159.033203"/>
       <use xlink:href="#DejaVuSans-35" x="222.65625"/>
       <use xlink:href="#DejaVuSans-30" x="286.279297"/>
      </g>
     </g>
    </g>
    <g id="text_10">
     <!-- Gyro [rad/s] -->
     <g transform="translate(16.92 318.740625) rotate(-90) scale(0.14 -0.14)">
      <use xlink:href="#DejaVuSans-47"/>
      <use xlink:href="#DejaVuSans-79" x="77.490234"/>
      <use xlink:href="#DejaVuSans-72" x="136.669922"/>
      <use xlink:href="#DejaVuSans-6f" x="175.533203"/>
      <use xlink:href="#DejaVuSans-20" x="236.714844"/>
      <use xlink:href="#DejaVuSans-5b" x="268.501953"/>
      <use xlink:href="#DejaVuSans-72" x="307.515625"/>
      <use xlink:href="#DejaVuSans-61" x="348.628906"/>
      <use xlink:href="#DejaVuSans-64" x="409.908203"/>
      <use xlink:href="#DejaVuSans-2f" x="473.384766"/>
      <use xlink:href="#DejaVuSans-73" x="507.076172"/>
      <use xlink:href="#DejaVuSans-5d" x="559.175781"/>
     </g>
    </g>
   </g>
   <g id="line2d_28">
    <path d="M 91.55 276.8675 
L 116.053759 276.889136 
L 116.176431 277.030461 
L 122.187365 277.020154 
L 122.310038 277.48453 
L 128.320972 277.445506 
L 128.443644 278.589796 
L 134.454579 278.480869 
L 134.485247 280.157232 
L 134.577251 280.153944 
L 140.588185 279.946093 
L 140.618853 282.527262 
L 140.710858 282.521605 
L 146.721792 282.164012 
L 146.75246 284.830391 
L 146.844464 284.822433 
L 152.855399 284.319324 
L 152.886067 285.991877 
L 152.978071 285.982757 
L 158.989005 285.406264 
L 159.019673 286.960744 
L 159.111678 286.950656 
L 165.122612 286.312949 
L 165.245284 285.184961 
L 171.256219 284.658924 
L 171.378891 283.024217 
L 177.389825 282.634836 
L 177.420494 274.763321 
L 177.512498 274.765424 
L 183.523432 274.89837 
L 183.5541 261.35841 
L 183.646104 261.373911 
L 189.657039 262.353801 
L 189.687707 242.547617 
L 189.779711 242.58192 
L 195.790646 244.750306 
L 195.821314 215.229219 
L 195.913318 215.290826 
L 201.924252 219.185233 
L 201.95492 184.524344 
L 202.046924 184.616641 
L 207.475166 189.901991 
L 208.057859 190.451032 
L 208.088527 146.292985 
L 208.180531 146.423495 
L 213.240757 153.404186 
L 214.191466 154.673405 
L 214.222134 95.443379 
L 214.314138 95.624712 
L 219.159687 104.923158 
L 220.325072 107.087384 
L 220.35574 36.36089 
L 220.447744 36.601277 
L 225.170622 48.623727 
L 226.458679 51.796876 
L 226.4782 -1 
M 569.95893 -1 
L 570.063325 202.442745 
L 575.828915 206.963564 
L 576.07426 207.149726 
L 576.102582 721 
L 576.102582 721 
" clip-path="url(#pd07657ce37)" style="fill: none; stroke: #1f77b4; stroke-width: 1.5; stroke-linecap: square"/>
   </g>
   <g id="line2d_29">
    <path d="M 91.55 271.8505 
L 97.683607 258.531179 
L 103.817213 252.20085 
L 109.95082 247.769654 
L 116.084427 244.384077 
L 122.218033 241.688524 
L 128.35164 239.492185 
L 134.485247 237.679547 
L 140.618853 236.175596 
L 146.75246 234.927671 
L 152.886067 233.894331 
L 159.019673 233.040159 
L 165.15328 232.336105 
L 171.286887 231.759704 
L 177.420494 231.294735 
L 183.5541 230.930058 
L 189.687707 230.657203 
L 195.821314 230.466274 
L 201.95492 230.345532 
L 208.088527 230.282188 
L 214.222134 230.263432 
L 220.35574 230.275508 
L 226.489347 230.306231 
L 232.622954 230.343134 
L 238.75656 230.377183 
L 244.890167 230.404028 
L 251.023774 230.42194 
L 257.15738 230.430635 
L 263.290987 230.431037 
L 269.424594 230.42524 
L 275.5582 230.415497 
L 281.691807 230.403986 
L 287.825414 230.393029 
L 293.95902 230.383095 
L 300.092627 230.374237 
L 306.226234 230.366527 
L 312.35984 230.358573 
L 318.493447 230.349423 
L 324.627054 230.339986 
L 330.760661 230.333114 
L 336.894267 230.328711 
L 343.027874 230.325158 
L 349.161481 230.321311 
L 355.295087 230.317092 
L 361.428694 230.31258 
L 367.562301 230.30892 
L 373.695907 230.306175 
L 379.829514 230.304179 
L 385.963121 230.303584 
L 392.096727 230.303278 
L 398.230334 230.300753 
L 404.363941 230.295246 
L 410.497547 230.288733 
L 416.631154 230.282033 
L 422.764761 230.274375 
L 428.898367 230.265546 
L 435.031974 230.256885 
L 441.165581 230.249875 
L 447.299187 230.243504 
L 453.432794 230.235719 
L 459.566401 230.226127 
L 465.700008 230.218349 
L 471.833614 230.214214 
L 477.967221 230.212975 
L 484.100828 230.21518 
L 490.234434 230.222763 
L 496.368041 230.235965 
L 502.501648 230.252846 
L 508.635254 230.269315 
L 514.768861 230.280216 
L 520.902468 230.284259 
L 527.036074 230.282968 
L 533.169681 230.278613 
L 539.303288 230.272775 
L 545.436894 230.265988 
L 551.570501 230.259162 
L 557.704108 230.251646 
L 563.837714 230.243385 
L 569.971321 230.234585 
L 576.104928 230.22824 
L 582.238534 230.227621 
L 588.372141 230.234093 
L 594.505748 230.247437 
L 600.639354 230.265035 
L 606.772961 230.28305 
L 612.906568 230.296632 
L 619.040175 230.302968 
L 625.173781 230.301568 
L 631.307388 230.295599 
L 637.440995 230.28736 
L 643.574601 230.279062 
L 649.708208 230.27298 
L 655.841815 230.270002 
L 661.975421 230.268199 
L 668.109028 230.268107 
L 674.242635 230.270794 
L 680.376241 230.275099 
L 686.509848 230.280097 
L 692.643455 230.286485 
L 698.777061 230.294583 
" clip-path="url(#pd07657ce37)" style="fill: none; stroke-dasharray: 5.55,2.4; stroke-dashoffset: 0; stroke: #ff0000; stroke-width: 1.5"/>
   </g>
   <g id="line2d_30">
    <path d="M 91.55 281.8845 
L 97.683607 295.203821 
L 103.817213 301.53415 
L 109.95082 305.965346 
L 116.084427 309.350923 
L 122.218033 312.046476 
L 128.35164 314.242815 
L 134.485247 316.055453 
L 140.618853 317.559404 
L 146.75246 318.807329 
L 152.886067 319.840669 
L 159.019673 320.694841 
L 165.15328 321.398895 
L 171.286887 321.975296 
L 177.420494 322.440265 
L 183.5541 322.804942 
L 189.687707 323.077797 
L 195.821314 323.268726 
L 201.95492 323.389468 
L 208.088527 323.452812 
L 214.222134 323.471568 
L 220.35574 323.459492 
L 226.489347 323.428769 
L 232.622954 323.391866 
L 238.75656 323.357817 
L 244.890167 323.330972 
L 251.023774 323.31306 
L 257.15738 323.304365 
L 263.290987 323.303963 
L 269.424594 323.30976 
L 275.5582 323.319503 
L 281.691807 323.331014 
L 287.825414 323.341971 
L 293.95902 323.351905 
L 300.092627 323.360763 
L 306.226234 323.368473 
L 312.35984 323.376427 
L 318.493447 323.385577 
L 324.627054 323.395014 
L 330.760661 323.401886 
L 336.894267 323.406289 
L 343.027874 323.409842 
L 349.161481 323.413689 
L 355.295087 323.417908 
L 361.428694 323.42242 
L 367.562301 323.42608 
L 373.695907 323.428825 
L 379.829514 323.430821 
L 385.963121 323.431416 
L 392.096727 323.431722 
L 398.230334 323.434247 
L 404.363941 323.439754 
L 410.497547 323.446267 
L 416.631154 323.452967 
L 422.764761 323.460625 
L 428.898367 323.469454 
L 435.031974 323.478115 
L 441.165581 323.485125 
L 447.299187 323.491496 
L 453.432794 323.499281 
L 459.566401 323.508873 
L 465.700008 323.516651 
L 471.833614 323.520786 
L 477.967221 323.522025 
L 484.100828 323.51982 
L 490.234434 323.512237 
L 496.368041 323.499035 
L 502.501648 323.482154 
L 508.635254 323.465685 
L 514.768861 323.454784 
L 520.902468 323.450741 
L 527.036074 323.452032 
L 533.169681 323.456387 
L 539.303288 323.462225 
L 545.436894 323.469012 
L 551.570501 323.475838 
L 557.704108 323.483354 
L 563.837714 323.491615 
L 569.971321 323.500415 
L 576.104928 323.50676 
L 582.238534 323.507379 
L 588.372141 323.500907 
L 594.505748 323.487563 
L 600.639354 323.469965 
L 606.772961 323.45195 
L 612.906568 323.438368 
L 619.040175 323.432032 
L 625.173781 323.433432 
L 631.307388 323.439401 
L 637.440995 323.44764 
L 643.574601 323.455938 
L 649.708208 323.46202 
L 655.841815 323.464998 
L 661.975421 323.466801 
L 668.109028 323.466893 
L 674.242635 323.464206 
L 680.376241 323.459901 
L 686.509848 323.454903 
L 692.643455 323.448515 
L 698.777061 323.440417 
" clip-path="url(#pd07657ce37)" style="fill: none; stroke-dasharray: 5.55,2.4; stroke-dashoffset: 0; stroke: #ff0000; stroke-width: 1.5"/>
   </g>
   <g id="patch_8">
    <path d="M 91.55 347.35 
L 91.55 206.385 
" style="fill: none; stroke: #000000; stroke-width: 0.8; stroke-linejoin: miter; stroke-linecap: square"/>
   </g>
   <g id="patch_9">
    <path d="M 704.88 347.35 
L 704.88 206.385 
" style="fill: none; stroke: #000000; stroke-width: 0.8; stroke-linejoin: miter; stroke-linecap: square"/>
   </g>
   <g id="patch_10">
    <path d="M 91.55 347.35 
L 704.88 347.35 
" style="fill: none; stroke: #000000; stroke-width: 0.8; stroke-linejoin: miter; stroke-linecap: square"/>
   </g>
   <g id="patch_11">
    <path d="M 91.55 206.385 
L 704.88 206.385 
" style="fill: none; stroke: #000000; stroke-width: 0.8; stroke-linejoin: miter; stroke-linecap: square"/>
   </g>
  </g>
  <g id="axes_3">
   <g id="patch_12">
    <path d="M 91.55 506.935 
L 704.88 506.935 
L 704.88 365.97 
L 91.55 365.97 
z
" style="fill: #ffffff"/>
   </g>
   <g id="matplotlib.axis_5">
    <g id="xtick_17">
     <g id="line2d_31">
      <g>
       <use xlink:href="#m9b6c47bc10" x="91.55" y="506.935" style="stroke: #000000; stroke-width: 0.8"/>
      </g>
     </g>
    </g>
    <g id="xtick_18">
     <g id="line2d_32">
      <g>
       <use xlink:href="#m9b6c47bc10" x="168.220084" y="506.935" style="stroke: #000000; stroke-width: 0.8"/>
      </g>
     </g>
    </g>
    <g id="xtick_19">
     <g id="line2d_33">
      <g>
       <use xlink:href="#m9b6c47bc10" x="244.890167" y="506.935" style="stroke: #000000; stroke-width: 0.8"/>
      </g>
     </g>
    </g>
    <g id="xtick_20">
     <g id="line2d_34">
      <g>
       <use xlink:href="#m9b6c47bc10" x="321.560251" y="506.935" style="stroke: #000000; stroke-width: 0.8"/>
      </g>
     </g>
    </g>
    <g id="xtick_21">
     <g id="line2d_35">
      <g>
       <use xlink:href="#m9b6c47bc10" x="398.230334" y="506.935" style="stroke: #000000; stroke-width: 0.8"/>
      </g>
     </g>
    </g>
    <g id="xtick_22">
     <g id="line2d_36">
      <g>
       <use xlink:href="#m9b6c47bc10" x="474.900418" y="506.935" style="stroke: #000000; stroke-width: 0.8"/>
      </g>
     </g>
    </g>
    <g id="xtick_23">
     <g id="line2d_37">
      <g>
       <use xlink:href="#m9b6c47bc10" x="551.570501" y="506.935" style="stroke: #000000; stroke-width: 0.8"/>
      </g>
     </g>
    </g>
    <g id="xtick_24">
     <g id="line2d_38">
      <g>
       <use xlink:href="#m9b6c47bc10" x="628.240585" y="506.935" style="stroke: #000000; stroke-width: 0.8"/>
      </g>
     </g>
    </g>
   </g>
   <g id="matplotlib.axis_6">
    <g id="ytick_9">
     <g id="line2d_39">
      <g>
       <use xlink:href="#m50dc46a90d" x="91.55" y="497.907855" style="stroke: #000000; stroke-width: 0.8"/>
      </g>
     </g>
     <g id="text_11">
      <!-- −0.075 -->
      <g transform="translate(32.739062 503.226761) scale(0.14 -0.14)">
       <defs>
        <path id="DejaVuSans-37" d="M 525 4666 
L 3525 4666 
L 3525 4397 
L 1831 0 
L 1172 0 
L 2766 4134 
L 525 4134 
L 525 4666 
z
" transform="scale(0.015625)"/>
       </defs>
       <use xlink:href="#DejaVuSans-2212"/>
       <use xlink:href="#DejaVuSans-30" x="83.789062"/>
       <use xlink:href="#DejaVuSans-2e" x="147.412109"/>
       <use xlink:href="#DejaVuSans-30" x="179.199219"/>
       <use xlink:href="#DejaVuSans-37" x="242.822266"/>
       <use xlink:href="#DejaVuSans-35" x="306.445312"/>
      </g>
     </g>
    </g>
    <g id="ytick_10">
     <g id="line2d_40">
      <g>
       <use xlink:href="#m50dc46a90d" x="91.55" y="477.422737" style="stroke: #000000; stroke-width: 0.8"/>
      </g>
     </g>
     <g id="text_12">
      <!-- −0.050 -->
      <g transform="translate(32.739062 482.741643) scale(0.14 -0.14)">
       <use xlink:href="#DejaVuSans-2212"/>
       <use xlink:href="#DejaVuSans-30" x="83.789062"/>
       <use xlink:href="#DejaVuSans-2e" x="147.412109"/>
       <use xlink:href="#DejaVuSans-30" x="179.199219"/>
       <use xlink:href="#DejaVuSans-35" x="242.822266"/>
       <use xlink:href="#DejaVuSans-30" x="306.445312"/>
      </g>
     </g>
    </g>
    <g id="ytick_11">
     <g id="line2d_41">
      <g>
       <use xlink:href="#m50dc46a90d" x="91.55" y="456.937618" style="stroke: #000000; stroke-width: 0.8"/>
      </g>
     </g>
     <g id="text_13">
      <!-- −0.025 -->
      <g transform="translate(32.739062 462.256525) scale(0.14 -0.14)">
       <use xlink:href="#DejaVuSans-2212"/>
       <use xlink:href="#DejaVuSans-30" x="83.789062"/>
       <use xlink:href="#DejaVuSans-2e" x="147.412109"/>
       <use xlink:href="#DejaVuSans-30" x="179.199219"/>
       <use xlink:href="#DejaVuSans-32" x="242.822266"/>
       <use xlink:href="#DejaVuSans-35" x="306.445312"/>
      </g>
     </g>
    </g>
    <g id="ytick_12">
     <g id="line2d_42">
      <g>
       <use xlink:href="#m50dc46a90d" x="91.55" y="436.4525" style="stroke: #000000; stroke-width: 0.8"/>
      </g>
     </g>
     <g id="text_14">
      <!-- 0.000 -->
      <g transform="translate(44.470625 441.771406) scale(0.14 -0.14)">
       <use xlink:href="#DejaVuSans-30"/>
       <use xlink:href="#DejaVuSans-2e" x="63.623047"/>
       <use xlink:href="#DejaVuSans-30" x="95.410156"/>
       <use xlink:href="#DejaVuSans-30" x="159.033203"/>
       <use xlink:href="#DejaVuSans-30" x="222.65625"/>
      </g>
     </g>
    </g>
    <g id="ytick_13">
     <g id="line2d_43">
      <g>
       <use xlink:href="#m50dc46a90d" x="91.55" y="415.967382" style="stroke: #000000; stroke-width: 0.8"/>
      </g>
     </g>
     <g id="text_15">
      <!-- 0.025 -->
      <g transform="translate(44.470625 421.286288) scale(0.14 -0.14)">
       <use xlink:href="#DejaVuSans-30"/>
       <use xlink:href="#DejaVuSans-2e" x="63.623047"/>
       <use xlink:href="#DejaVuSans-30" x="95.410156"/>
       <use xlink:href="#DejaVuSans-32" x="159.033203"/>
       <use xlink:href="#DejaVuSans-35" x="222.65625"/>
      </g>
     </g>
    </g>
    <g id="ytick_14">
     <g id="line2d_44">
      <g>
       <use xlink:href="#m50dc46a90d" x="91.55" y="395.482263" style="stroke: #000000; stroke-width: 0.8"/>
      </g>
     </g>
     <g id="text_16">
      <!-- 0.050 -->
      <g transform="translate(44.470625 400.801169) scale(0.14 -0.14)">
       <use xlink:href="#DejaVuSans-30"/>
       <use xlink:href="#DejaVuSans-2e" x="63.623047"/>
       <use xlink:href="#DejaVuSans-30" x="95.410156"/>
       <use xlink:href="#DejaVuSans-35" x="159.033203"/>
       <use xlink:href="#DejaVuSans-30" x="222.65625"/>
      </g>
     </g>
    </g>
    <g id="ytick_15">
     <g id="line2d_45">
      <g>
       <use xlink:href="#m50dc46a90d" x="91.55" y="374.997145" style="stroke: #000000; stroke-width: 0.8"/>
      </g>
     </g>
     <g id="text_17">
      <!-- 0.075 -->
      <g transform="translate(44.470625 380.316051) scale(0.14 -0.14)">
       <use xlink:href="#DejaVuSans-30"/>
       <use xlink:href="#DejaVuSans-2e" x="63.623047"/>
       <use xlink:href="#DejaVuSans-30" x="95.410156"/>
       <use xlink:href="#DejaVuSans-37" x="159.033203"/>
       <use xlink:href="#DejaVuSans-35" x="222.65625"/>
      </g>
     </g>
    </g>
    <g id="text_18">
     <!-- Acc N [m/s²] -->
     <g transform="translate(25.8275 479.594375) rotate(-90) scale(0.14 -0.14)">
      <defs>
       <path id="DejaVuSans-41" d="M 2188 4044 
L 1331 1722 
L 3047 1722 
L 2188 4044 
z
M 1831 4666 
L 2547 4666 
L 4325 0 
L 3669 0 
L 3244 1197 
L 1141 1197 
L 716 0 
L 50 0 
L 1831 4666 
z
" transform="scale(0.015625)"/>
       <path id="DejaVuSans-63" d="M 3122 3366 
L 3122 2828 
Q 2878 2963 2633 3030 
Q 2388 3097 2138 3097 
Q 1578 3097 1268 2742 
Q 959 2388 959 1747 
Q 959 1106 1268 751 
Q 1578 397 2138 397 
Q 2388 397 2633 464 
Q 2878 531 3122 666 
L 3122 134 
Q 2881 22 2623 -34 
Q 2366 -91 2075 -91 
Q 1284 -91 818 406 
Q 353 903 353 1747 
Q 353 2603 823 3093 
Q 1294 3584 2113 3584 
Q 2378 3584 2631 3529 
Q 2884 3475 3122 3366 
z
" transform="scale(0.015625)"/>
       <path id="DejaVuSans-4e" d="M 628 4666 
L 1478 4666 
L 3547 763 
L 3547 4666 
L 4159 4666 
L 4159 0 
L 3309 0 
L 1241 3903 
L 1241 0 
L 628 0 
L 628 4666 
z
" transform="scale(0.015625)"/>
       <path id="DejaVuSans-6d" d="M 3328 2828 
Q 3544 3216 3844 3400 
Q 4144 3584 4550 3584 
Q 5097 3584 5394 3201 
Q 5691 2819 5691 2113 
L 5691 0 
L 5113 0 
L 5113 2094 
Q 5113 2597 4934 2840 
Q 4756 3084 4391 3084 
Q 3944 3084 3684 2787 
Q 3425 2491 3425 1978 
L 3425 0 
L 2847 0 
L 2847 2094 
Q 2847 2600 2669 2842 
Q 2491 3084 2119 3084 
Q 1678 3084 1418 2786 
Q 1159 2488 1159 1978 
L 1159 0 
L 581 0 
L 581 3500 
L 1159 3500 
L 1159 2956 
Q 1356 3278 1631 3431 
Q 1906 3584 2284 3584 
Q 2666 3584 2933 3390 
Q 3200 3197 3328 2828 
z
" transform="scale(0.015625)"/>
       <path id="DejaVuSans-b2" d="M 838 2444 
L 2163 2444 
L 2163 2088 
L 294 2088 
L 294 2431 
Q 400 2528 597 2703 
Q 1672 3656 1672 3950 
Q 1672 4156 1509 4282 
Q 1347 4409 1081 4409 
Q 919 4409 728 4354 
Q 538 4300 313 4191 
L 313 4575 
Q 553 4663 761 4706 
Q 969 4750 1147 4750 
Q 1600 4750 1872 4544 
Q 2144 4338 2144 4000 
Q 2144 3566 1109 2678 
Q 934 2528 838 2444 
z
" transform="scale(0.015625)"/>
      </defs>
      <use xlink:href="#DejaVuSans-41"/>
      <use xlink:href="#DejaVuSans-63" x="66.658203"/>
      <use xlink:href="#DejaVuSans-63" x="121.638672"/>
      <use xlink:href="#DejaVuSans-20" x="176.619141"/>
      <use xlink:href="#DejaVuSans-4e" x="208.40625"/>
      <use xlink:href="#DejaVuSans-20" x="283.210938"/>
      <use xlink:href="#DejaVuSans-5b" x="314.998047"/>
      <use xlink:href="#DejaVuSans-6d" x="354.011719"/>
      <use xlink:href="#DejaVuSans-2f" x="451.423828"/>
      <use xlink:href="#DejaVuSans-73" x="485.115234"/>
      <use xlink:href="#DejaVuSans-b2" x="537.214844"/>
      <use xlink:href="#DejaVuSans-5d" x="577.302734"/>
     </g>
    </g>
   </g>
   <g id="line2d_46">
    <path d="M 91.55 436.4525 
L 109.920152 436.44287 
L 110.042824 436.290188 
L 116.053759 436.295404 
L 116.176431 435.559737 
L 122.187365 435.588429 
L 122.218033 433.596924 
L 122.310038 433.598351 
L 128.320972 433.690081 
L 128.35164 429.466333 
L 128.443644 429.469825 
L 134.454579 429.694241 
L 134.485247 424.041565 
L 134.577251 424.047769 
L 140.588185 424.446443 
L 140.618853 416.455645 
L 140.710858 416.46564 
L 146.721792 417.107996 
L 146.75246 408.900141 
L 146.844464 408.913914 
L 152.855399 409.798973 
L 152.886067 403.763698 
L 152.978071 403.780038 
L 158.989005 404.830095 
L 159.019673 398.538413 
L 159.111678 398.557365 
L 165.122612 399.775272 
L 165.15328 396.651508 
L 165.245284 396.671403 
L 171.256219 397.949923 
L 171.286887 393.659934 
L 171.378891 393.681325 
L 177.389825 395.055942 
L 177.512498 396.960977 
L 183.523432 398.23019 
L 183.646104 403.829585 
L 189.657039 404.878049 
L 189.779711 413.844607 
L 195.790646 414.571199 
L 195.913318 429.576702 
L 201.924252 429.797683 
L 201.95492 446.543184 
L 202.046924 446.53814 
L 208.057859 446.213999 
L 208.088527 468.069457 
L 208.180531 468.053653 
L 214.191466 467.038027 
L 214.222134 496.740602 
L 214.314138 496.710466 
L 220.325072 494.773843 
L 220.35574 529.377705 
L 220.447744 529.331254 
L 226.458679 526.346236 
L 226.489347 564.614625 
L 226.581351 564.55056 
L 232.592286 560.433632 
L 232.622954 603.362068 
L 232.714958 603.278634 
L 238.725892 597.91703 
L 238.75656 644.525631 
L 238.848564 644.421621 
L 244.859499 637.737728 
L 244.890167 687.71623 
L 244.982171 687.590629 
L 250.993106 679.519333 
L 251.017006 721 
M 625.152871 721 
L 625.265785 529.130729 
L 631.27672 526.152155 
L 631.307388 206.929028 
L 631.399392 207.043761 
L 637.410327 214.4167 
L 637.428875 -1 
L 637.428875 -1 
" clip-path="url(#pf3dbe66cc2)" style="fill: none; stroke: #1f77b4; stroke-width: 1.5; stroke-linecap: square"/>
   </g>
   <g id="line2d_47">
    <path d="M 91.55 429.217976 
L 97.683607 422.34636 
L 103.817213 418.117611 
L 109.95082 414.901272 
L 116.084427 412.282991 
L 122.218033 410.08747 
L 128.35164 408.232719 
L 134.485247 406.682652 
L 140.618853 405.415803 
L 146.75246 404.396911 
L 152.886067 403.565072 
L 159.019673 402.849759 
L 165.15328 402.195788 
L 171.286887 401.574285 
L 177.420494 400.976557 
L 183.5541 400.402641 
L 189.687707 399.854037 
L 195.821314 399.332134 
L 201.95492 398.836439 
L 208.088527 398.364133 
L 214.222134 397.90989 
L 220.35574 397.468456 
L 226.489347 397.03527 
L 232.622954 396.60941 
L 238.75656 396.192146 
L 244.890167 395.785201 
L 251.023774 395.390956 
L 257.15738 395.012153 
L 263.290987 394.650808 
L 269.424594 394.307987 
L 275.5582 393.984237 
L 281.691807 393.679693 
L 287.825414 393.393806 
L 293.95902 393.126492 
L 300.092627 392.877516 
L 306.226234 392.646167 
L 312.35984 392.432107 
L 318.493447 392.234864 
L 324.627054 392.052964 
L 330.760661 391.883153 
L 336.894267 391.72357 
L 343.027874 391.573569 
L 349.161481 391.432791 
L 355.295087 391.300621 
L 361.428694 391.176666 
L 367.562301 391.060111 
L 373.695907 390.950729 
L 379.829514 390.847835 
L 385.963121 390.750134 
L 392.096727 390.657187 
L 398.230334 390.570043 
L 404.363941 390.489521 
L 410.497547 390.414763 
L 416.631154 390.345285 
L 422.764761 390.281982 
L 428.898367 390.226027 
L 435.031974 390.17741 
L 441.165581 390.135174 
L 447.299187 390.099391 
L 453.432794 390.070965 
L 459.566401 390.049865 
L 465.700008 390.032392 
L 471.833614 390.015395 
L 477.967221 389.997684 
L 484.100828 389.976974 
L 490.234434 389.949614 
L 496.368041 389.912812 
L 502.501648 389.86582 
L 508.635254 389.81102 
L 514.768861 389.753432 
L 520.902468 389.697421 
L 527.036074 389.645931 
L 533.169681 389.600833 
L 539.303288 389.563289 
L 545.436894 389.534485 
L 551.570501 389.514804 
L 557.704108 389.505419 
L 563.837714 389.507274 
L 569.971321 389.520378 
L 576.104928 389.54111 
L 582.238534 389.563122 
L 588.372141 389.580116 
L 594.505748 389.58753 
L 600.639354 389.583328 
L 606.772961 389.568333 
L 612.906568 389.546611 
L 619.040175 389.522973 
L 625.173781 389.501775 
L 631.307388 389.484977 
L 637.440995 389.474244 
L 643.574601 389.470446 
L 649.708208 389.473011 
L 655.841815 389.480701 
L 661.975421 389.493023 
L 668.109028 389.506892 
L 674.242635 389.518282 
L 680.376241 389.525245 
L 686.509848 389.527123 
L 692.643455 389.523318 
L 698.777061 389.513344 
" clip-path="url(#pf3dbe66cc2)" style="fill: none; stroke-dasharray: 5.55,2.4; stroke-dashoffset: 0; stroke: #ff0000; stroke-width: 1.5"/>
   </g>
   <g id="line2d_48">
    <path d="M 91.55 443.687024 
L 97.683607 450.55864 
L 103.817213 454.787389 
L 109.95082 458.003728 
L 116.084427 460.622009 
L 122.218033 462.81753 
L 128.35164 464.672281 
L 134.485247 466.222348 
L 140.618853 467.489197 
L 146.75246 468.508089 
L 152.886067 469.339928 
L 159.019673 470.055241 
L 165.15328 470.709212 
L 171.286887 471.330715 
L 177.420494 471.928443 
L 183.5541 472.502359 
L 189.687707 473.050963 
L 195.821314 473.572866 
L 201.95492 474.068561 
L 208.088527 474.540867 
L 214.222134 474.99511 
L 220.35574 475.436544 
L 226.489347 475.86973 
L 232.622954 476.29559 
L 238.75656 476.712854 
L 244.890167 477.119799 
L 251.023774 477.514044 
L 257.15738 477.892847 
L 263.290987 478.254192 
L 269.424594 478.597013 
L 275.5582 478.920763 
L 281.691807 479.225307 
L 287.825414 479.511194 
L 293.95902 479.778508 
L 300.092627 480.027484 
L 306.226234 480.258833 
L 312.35984 480.472893 
L 318.493447 480.670136 
L 324.627054 480.852036 
L 330.760661 481.021847 
L 336.894267 481.18143 
L 343.027874 481.331431 
L 349.161481 481.472209 
L 355.295087 481.604379 
L 361.428694 481.728334 
L 367.562301 481.844889 
L 373.695907 481.954271 
L 379.829514 482.057165 
L 385.963121 482.154866 
L 392.096727 482.247813 
L 398.230334 482.334957 
L 404.363941 482.415479 
L 410.497547 482.490237 
L 416.631154 482.559715 
L 422.764761 482.623018 
L 428.898367 482.678973 
L 435.031974 482.72759 
L 441.165581 482.769826 
L 447.299187 482.805609 
L 453.432794 482.834035 
L 459.566401 482.855135 
L 465.700008 482.872608 
L 471.833614 482.889605 
L 477.967221 482.907316 
L 484.100828 482.928026 
L 490.234434 482.955386 
L 496.368041 482.992188 
L 502.501648 483.03918 
L 508.635254 483.09398 
L 514.768861 483.151568 
L 520.902468 483.207579 
L 527.036074 483.259069 
L 533.169681 483.304167 
L 539.303288 483.341711 
L 545.436894 483.370515 
L 551.570501 483.390196 
L 557.704108 483.399581 
L 563.837714 483.397726 
L 569.971321 483.384622 
L 576.104928 483.36389 
L 582.238534 483.341878 
L 588.372141 483.324884 
L 594.505748 483.31747 
L 600.639354 483.321672 
L 606.772961 483.336667 
L 612.906568 483.358389 
L 619.040175 483.382027 
L 625.173781 483.403225 
L 631.307388 483.420023 
L 637.440995 483.430756 
L 643.574601 483.434554 
L 649.708208 483.431989 
L 655.841815 483.424299 
L 661.975421 483.411977 
L 668.109028 483.398108 
L 674.242635 483.386718 
L 680.376241 483.379755 
L 686.509848 483.377877 
L 692.643455 483.381682 
L 698.777061 483.391656 
" clip-path="url(#pf3dbe66cc2)" style="fill: none; stroke-dasharray: 5.55,2.4; stroke-dashoffset: 0; stroke: #ff0000; stroke-width: 1.5"/>
   </g>
   <g id="patch_13">
    <path d="M 91.55 506.935 
L 91.55 365.97 
" style="fill: none; stroke: #000000; stroke-width: 0.8; stroke-linejoin: miter; stroke-linecap: square"/>
   </g>
   <g id="patch_14">
    <path d="M 704.88 506.935 
L 704.88 365.97 
" style="fill: none; stroke: #000000; stroke-width: 0.8; stroke-linejoin: miter; stroke-linecap: square"/>
   </g>
   <g id="patch_15">
    <path d="M 91.55 506.935 
L 704.88 506.935 
" style="fill: none; stroke: #000000; stroke-width: 0.8; stroke-linejoin: miter; stroke-linecap: square"/>
   </g>
   <g id="patch_16">
    <path d="M 91.55 365.97 
L 704.88 365.97 
" style="fill: none; stroke: #000000; stroke-width: 0.8; stroke-linejoin: miter; stroke-linecap: square"/>
   </g>
  </g>
  <g id="axes_4">
   <g id="patch_17">
    <path d="M 91.55 666.52 
L 704.88 666.52 
L 704.88 525.555 
L 91.55 525.555 
z
" style="fill: #ffffff"/>
   </g>
   <g id="matplotlib.axis_7">
    <g id="xtick_25">
     <g id="line2d_49">
      <g>
       <use xlink:href="#m9b6c47bc10" x="91.55" y="666.52" style="stroke: #000000; stroke-width: 0.8"/>
      </g>
     </g>
     <g id="text_19">
      <!-- 0 -->
      <g transform="translate(87.09625 684.157812) scale(0.14 -0.14)">
       <use xlink:href="#DejaVuSans-30"/>
      </g>
     </g>
    </g>
    <g id="xtick_26">
     <g id="line2d_50">
      <g>
       <use xlink:href="#m9b6c47bc10" x="168.220084" y="666.52" style="stroke: #000000; stroke-width: 0.8"/>
      </g>
     </g>
     <g id="text_20">
      <!-- 25 -->
      <g transform="translate(159.312584 684.157812) scale(0.14 -0.14)">
       <use xlink:href="#DejaVuSans-32"/>
       <use xlink:href="#DejaVuSans-35" x="63.623047"/>
      </g>
     </g>
    </g>
    <g id="xtick_27">
     <g id="line2d_51">
      <g>
       <use xlink:href="#m9b6c47bc10" x="244.890167" y="666.52" style="stroke: #000000; stroke-width: 0.8"/>
      </g>
     </g>
     <g id="text_21">
      <!-- 50 -->
      <g transform="translate(235.982667 684.157812) scale(0.14 -0.14)">
       <use xlink:href="#DejaVuSans-35"/>
       <use xlink:href="#DejaVuSans-30" x="63.623047"/>
      </g>
     </g>
    </g>
    <g id="xtick_28">
     <g id="line2d_52">
      <g>
       <use xlink:href="#m9b6c47bc10" x="321.560251" y="666.52" style="stroke: #000000; stroke-width: 0.8"/>
      </g>
     </g>
     <g id="text_22">
      <!-- 75 -->
      <g transform="translate(312.652751 684.157812) scale(0.14 -0.14)">
       <use xlink:href="#DejaVuSans-37"/>
       <use xlink:href="#DejaVuSans-35" x="63.623047"/>
      </g>
     </g>
    </g>
    <g id="xtick_29">
     <g id="line2d_53">
      <g>
       <use xlink:href="#m9b6c47bc10" x="398.230334" y="666.52" style="stroke: #000000; stroke-width: 0.8"/>
      </g>
     </g>
     <g id="text_23">
      <!-- 100 -->
      <g transform="translate(384.869084 684.157812) scale(0.14 -0.14)">
       <defs>
        <path id="DejaVuSans-31" d="M 794 531 
L 1825 531 
L 1825 4091 
L 703 3866 
L 703 4441 
L 1819 4666 
L 2450 4666 
L 2450 531 
L 3481 531 
L 3481 0 
L 794 0 
L 794 531 
z
" transform="scale(0.015625)"/>
       </defs>
       <use xlink:href="#DejaVuSans-31"/>
       <use xlink:href="#DejaVuSans-30" x="63.623047"/>
       <use xlink:href="#DejaVuSans-30" x="127.246094"/>
      </g>
     </g>
    </g>
    <g id="xtick_30">
     <g id="line2d_54">
      <g>
       <use xlink:href="#m9b6c47bc10" x="474.900418" y="666.52" style="stroke: #000000; stroke-width: 0.8"/>
      </g>
     </g>
     <g id="text_24">
      <!-- 125 -->
      <g transform="translate(461.539168 684.157812) scale(0.14 -0.14)">
       <use xlink:href="#DejaVuSans-31"/>
       <use xlink:href="#DejaVuSans-32" x="63.623047"/>
       <use xlink:href="#DejaVuSans-35" x="127.246094"/>
      </g>
     </g>
    </g>
    <g id="xtick_31">
     <g id="line2d_55">
      <g>
       <use xlink:href="#m9b6c47bc10" x="551.570501" y="666.52" style="stroke: #000000; stroke-width: 0.8"/>
      </g>
     </g>
     <g id="text_25">
      <!-- 150 -->
      <g transform="translate(538.209251 684.157812) scale(0.14 -0.14)">
       <use xlink:href="#DejaVuSans-31"/>
       <use xlink:href="#DejaVuSans-35" x="63.623047"/>
       <use xlink:href="#DejaVuSans-30" x="127.246094"/>
      </g>
     </g>
    </g>
    <g id="xtick_32">
     <g id="line2d_56">
      <g>
       <use xlink:href="#m9b6c47bc10" x="628.240585" y="666.52" style="stroke: #000000; stroke-width: 0.8"/>
      </g>
     </g>
     <g id="text_26">
      <!-- 175 -->
      <g transform="translate(614.879335 684.157812) scale(0.14 -0.14)">
       <use xlink:href="#DejaVuSans-31"/>
       <use xlink:href="#DejaVuSans-37" x="63.623047"/>
       <use xlink:href="#DejaVuSans-35" x="127.246094"/>
      </g>
     </g>
    </g>
    <g id="text_27">
     <!-- Timestamp [s] -->
     <g transform="translate(347.811719 701.707188) scale(0.14 -0.14)">
      <defs>
       <path id="DejaVuSans-54" d="M -19 4666 
L 3928 4666 
L 3928 4134 
L 2272 4134 
L 2272 0 
L 1638 0 
L 1638 4134 
L -19 4134 
L -19 4666 
z
" transform="scale(0.015625)"/>
       <path id="DejaVuSans-65" d="M 3597 1894 
L 3597 1613 
L 953 1613 
Q 991 1019 1311 708 
Q 1631 397 2203 397 
Q 2534 397 2845 478 
Q 3156 559 3463 722 
L 3463 178 
Q 3153 47 2828 -22 
Q 2503 -91 2169 -91 
Q 1331 -91 842 396 
Q 353 884 353 1716 
Q 353 2575 817 3079 
Q 1281 3584 2069 3584 
Q 2775 3584 3186 3129 
Q 3597 2675 3597 1894 
z
M 3022 2063 
Q 3016 2534 2758 2815 
Q 2500 3097 2075 3097 
Q 1594 3097 1305 2825 
Q 1016 2553 972 2059 
L 3022 2063 
z
" transform="scale(0.015625)"/>
       <path id="DejaVuSans-74" d="M 1172 4494 
L 1172 3500 
L 2356 3500 
L 2356 3053 
L 1172 3053 
L 1172 1153 
Q 1172 725 1289 603 
Q 1406 481 1766 481 
L 2356 481 
L 2356 0 
L 1766 0 
Q 1100 0 847 248 
Q 594 497 594 1153 
L 594 3053 
L 172 3053 
L 172 3500 
L 594 3500 
L 594 4494 
L 1172 4494 
z
" transform="scale(0.015625)"/>
       <path id="DejaVuSans-70" d="M 1159 525 
L 1159 -1331 
L 581 -1331 
L 581 3500 
L 1159 3500 
L 1159 2969 
Q 1341 3281 1617 3432 
Q 1894 3584 2278 3584 
Q 2916 3584 3314 3078 
Q 3713 2572 3713 1747 
Q 3713 922 3314 415 
Q 2916 -91 2278 -91 
Q 1894 -91 1617 61 
Q 1341 213 1159 525 
z
M 3116 1747 
Q 3116 2381 2855 2742 
Q 2594 3103 2138 3103 
Q 1681 3103 1420 2742 
Q 1159 2381 1159 1747 
Q 1159 1113 1420 752 
Q 1681 391 2138 391 
Q 2594 391 2855 752 
Q 3116 1113 3116 1747 
z
" transform="scale(0.015625)"/>
      </defs>
      <use xlink:href="#DejaVuSans-54"/>
      <use xlink:href="#DejaVuSans-69" x="57.958984"/>
      <use xlink:href="#DejaVuSans-6d" x="85.742188"/>
      <use xlink:href="#DejaVuSans-65" x="183.154297"/>
      <use xlink:href="#DejaVuSans-73" x="244.677734"/>
      <use xlink:href="#DejaVuSans-74" x="296.777344"/>
      <use xlink:href="#DejaVuSans-61" x="335.986328"/>
      <use xlink:href="#DejaVuSans-6d" x="397.265625"/>
      <use xlink:href="#DejaVuSans-70" x="494.677734"/>
      <use xlink:href="#DejaVuSans-20" x="558.154297"/>
      <use xlink:href="#DejaVuSans-5b" x="589.941406"/>
      <use xlink:href="#DejaVuSans-73" x="628.955078"/>
      <use xlink:href="#DejaVuSans-5d" x="681.054688"/>
     </g>
    </g>
   </g>
   <g id="matplotlib.axis_8">
    <g id="ytick_16">
     <g id="line2d_57">
      <g>
       <use xlink:href="#m50dc46a90d" x="91.55" y="645.739411" style="stroke: #000000; stroke-width: 0.8"/>
      </g>
     </g>
     <g id="text_28">
      <!-- −0.04 -->
      <g transform="translate(41.646562 651.058317) scale(0.14 -0.14)">
       <defs>
        <path id="DejaVuSans-34" d="M 2419 4116 
L 825 1625 
L 2419 1625 
L 2419 4116 
z
M 2253 4666 
L 3047 4666 
L 3047 1625 
L 3713 1625 
L 3713 1100 
L 3047 1100 
L 3047 0 
L 2419 0 
L 2419 1100 
L 313 1100 
L 313 1709 
L 2253 4666 
z
" transform="scale(0.015625)"/>
       </defs>
       <use xlink:href="#DejaVuSans-2212"/>
       <use xlink:href="#DejaVuSans-30" x="83.789062"/>
       <use xlink:href="#DejaVuSans-2e" x="147.412109"/>
       <use xlink:href="#DejaVuSans-30" x="179.199219"/>
       <use xlink:href="#DejaVuSans-34" x="242.822266"/>
      </g>
     </g>
    </g>
    <g id="ytick_17">
     <g id="line2d_58">
      <g>
       <use xlink:href="#m50dc46a90d" x="91.55" y="620.888456" style="stroke: #000000; stroke-width: 0.8"/>
      </g>
     </g>
     <g id="text_29">
      <!-- −0.02 -->
      <g transform="translate(41.646562 626.207362) scale(0.14 -0.14)">
       <use xlink:href="#DejaVuSans-2212"/>
       <use xlink:href="#DejaVuSans-30" x="83.789062"/>
       <use xlink:href="#DejaVuSans-2e" x="147.412109"/>
       <use xlink:href="#DejaVuSans-30" x="179.199219"/>
       <use xlink:href="#DejaVuSans-32" x="242.822266"/>
      </g>
     </g>
    </g>
    <g id="ytick_18">
     <g id="line2d_59">
      <g>
       <use xlink:href="#m50dc46a90d" x="91.55" y="596.0375" style="stroke: #000000; stroke-width: 0.8"/>
      </g>
     </g>
     <g id="text_30">
      <!-- 0.00 -->
      <g transform="translate(53.378125 601.356406) scale(0.14 -0.14)">
       <use xlink:href="#DejaVuSans-30"/>
       <use xlink:href="#DejaVuSans-2e" x="63.623047"/>
       <use xlink:href="#DejaVuSans-30" x="95.410156"/>
       <use xlink:href="#DejaVuSans-30" x="159.033203"/>
      </g>
     </g>
    </g>
    <g id="ytick_19">
     <g id="line2d_60">
      <g>
       <use xlink:href="#m50dc46a90d" x="91.55" y="571.186544" style="stroke: #000000; stroke-width: 0.8"/>
      </g>
     </g>
     <g id="text_31">
      <!-- 0.02 -->
      <g transform="translate(53.378125 576.505451) scale(0.14 -0.14)">
       <use xlink:href="#DejaVuSans-30"/>
       <use xlink:href="#DejaVuSans-2e" x="63.623047"/>
       <use xlink:href="#DejaVuSans-30" x="95.410156"/>
       <use xlink:href="#DejaVuSans-32" x="159.033203"/>
      </g>
     </g>
    </g>
    <g id="ytick_20">
     <g id="line2d_61">
      <g>
       <use xlink:href="#m50dc46a90d" x="91.55" y="546.335589" style="stroke: #000000; stroke-width: 0.8"/>
      </g>
     </g>
     <g id="text_32">
      <!-- 0.04 -->
      <g transform="translate(53.378125 551.654495) scale(0.14 -0.14)">
       <use xlink:href="#DejaVuSans-30"/>
       <use xlink:href="#DejaVuSans-2e" x="63.623047"/>
       <use xlink:href="#DejaVuSans-30" x="95.410156"/>
       <use xlink:href="#DejaVuSans-34" x="159.033203"/>
      </g>
     </g>
    </g>
    <g id="text_33">
     <!-- Acc E [m/s²] -->
     <g transform="translate(34.735 638.365625) rotate(-90) scale(0.14 -0.14)">
      <defs>
       <path id="DejaVuSans-45" d="M 628 4666 
L 3578 4666 
L 3578 4134 
L 1259 4134 
L 1259 2753 
L 3481 2753 
L 3481 2222 
L 1259 2222 
L 1259 531 
L 3634 531 
L 3634 0 
L 628 0 
L 628 4666 
z
" transform="scale(0.015625)"/>
      </defs>
      <use xlink:href="#DejaVuSans-41"/>
      <use xlink:href="#DejaVuSans-63" x="66.658203"/>
      <use xlink:href="#DejaVuSans-63" x="121.638672"/>
      <use xlink:href="#DejaVuSans-20" x="176.619141"/>
      <use xlink:href="#DejaVuSans-45" x="208.40625"/>
      <use xlink:href="#DejaVuSans-20" x="271.589844"/>
      <use xlink:href="#DejaVuSans-5b" x="303.376953"/>
      <use xlink:href="#DejaVuSans-6d" x="342.390625"/>
      <use xlink:href="#DejaVuSans-2f" x="439.802734"/>
      <use xlink:href="#DejaVuSans-73" x="473.494141"/>
      <use xlink:href="#DejaVuSans-b2" x="525.59375"/>
      <use xlink:href="#DejaVuSans-5d" x="565.681641"/>
     </g>
    </g>
   </g>
   <g id="line2d_62">
    <path d="M 91.55 596.0375 
L 109.920152 596.066441 
L 110.042824 596.746571 
L 116.053759 596.723782 
L 116.084427 599.577257 
L 116.176431 599.575487 
L 122.187365 599.46178 
L 122.218033 607.885085 
L 122.310038 607.879162 
L 128.320972 607.498585 
L 128.35164 628.242161 
L 128.443644 628.226063 
L 134.454579 627.191559 
L 134.485247 665.405873 
L 134.577251 665.371197 
L 140.588185 663.14289 
L 140.616168 721 
M 422.757998 721 
L 422.764761 533.79992 
L 422.856765 533.831031 
L 428.867699 535.830277 
L 428.885383 -1 
L 428.885383 -1 
" clip-path="url(#p8737a982b2)" style="fill: none; stroke: #1f77b4; stroke-width: 1.5; stroke-linecap: square"/>
   </g>
   <g id="line2d_63">
    <path d="M 91.55 585.067046 
L 97.683607 574.646907 
L 103.817213 568.23442 
L 109.95082 563.357156 
L 116.084427 559.386854 
L 122.218033 556.058424 
L 128.35164 553.252198 
L 134.485247 550.932746 
L 140.618853 549.122298 
L 146.75246 547.874703 
L 152.886067 547.235462 
L 159.019673 547.191384 
L 165.15328 547.636043 
L 171.286887 548.381936 
L 177.420494 549.218763 
L 183.5541 549.978899 
L 189.687707 550.570658 
L 195.821314 550.973226 
L 201.95492 551.211445 
L 208.088527 551.329339 
L 214.222134 551.371815 
L 220.35574 551.375556 
L 226.489347 551.365688 
L 232.622954 551.356467 
L 238.75656 551.353435 
L 244.890167 551.356853 
L 251.023774 551.364344 
L 257.15738 551.372957 
L 263.290987 551.380874 
L 269.424594 551.387332 
L 275.5582 551.392553 
L 281.691807 551.397285 
L 287.825414 551.402313 
L 293.95902 551.40806 
L 300.092627 551.414058 
L 306.226234 551.41929 
L 312.35984 551.42239 
L 318.493447 551.42273 
L 324.627054 551.420742 
L 330.760661 551.417312 
L 336.894267 551.413368 
L 343.027874 551.409499 
L 349.161481 551.406002 
L 355.295087 551.403013 
L 361.428694 551.400307 
L 367.562301 551.397269 
L 373.695907 551.393235 
L 379.829514 551.388025 
L 385.963121 551.381672 
L 392.096727 551.37458 
L 398.230334 551.367318 
L 404.363941 551.360426 
L 410.497547 551.354523 
L 416.631154 551.350605 
L 422.764761 551.349577 
L 428.898367 551.351761 
L 435.031974 551.357175 
L 441.165581 551.365065 
L 447.299187 551.373831 
L 453.432794 551.381884 
L 459.566401 551.388157 
L 465.700008 551.391626 
L 471.833614 551.392055 
L 477.967221 551.389738 
L 484.100828 551.385073 
L 490.234434 551.378459 
L 496.368041 551.37083 
L 502.501648 551.363831 
L 508.635254 551.359128 
L 514.768861 551.357659 
L 520.902468 551.359256 
L 527.036074 551.363097 
L 533.169681 551.367603 
L 539.303288 551.371578 
L 545.436894 551.374717 
L 551.570501 551.376809 
L 557.704108 551.377382 
L 563.837714 551.375256 
L 569.971321 551.369623 
L 576.104928 551.359958 
L 582.238534 551.346508 
L 588.372141 551.330448 
L 594.505748 551.313086 
L 600.639354 551.296738 
L 606.772961 551.283917 
L 612.906568 551.275888 
L 619.040175 551.272472 
L 625.173781 551.272859 
L 631.307388 551.275754 
L 637.440995 551.278774 
L 643.574601 551.278967 
L 649.708208 551.274643 
L 655.841815 551.265769 
L 661.975421 551.254031 
L 668.109028 551.242145 
L 674.242635 551.232583 
L 680.376241 551.227277 
L 686.509848 551.227109 
L 692.643455 551.231473 
L 698.777061 551.240917 
" clip-path="url(#p8737a982b2)" style="fill: none; stroke-dasharray: 5.55,2.4; stroke-dashoffset: 0; stroke: #ff0000; stroke-width: 1.5"/>
   </g>
   <g id="line2d_64">
    <path d="M 91.55 607.007954 
L 97.683607 617.428093 
L 103.817213 623.84058 
L 109.95082 628.717844 
L 116.084427 632.688146 
L 122.218033 636.016576 
L 128.35164 638.822802 
L 134.485247 641.142254 
L 140.618853 642.952702 
L 146.75246 644.200297 
L 152.886067 644.839538 
L 159.019673 644.883616 
L 165.15328 644.438957 
L 171.286887 643.693064 
L 177.420494 642.856237 
L 183.5541 642.096101 
L 189.687707 641.504342 
L 195.821314 641.101774 
L 201.95492 640.863555 
L 208.088527 640.745661 
L 214.222134 640.703185 
L 220.35574 640.699444 
L 226.489347 640.709312 
L 232.622954 640.718533 
L 238.75656 640.721565 
L 244.890167 640.718147 
L 251.023774 640.710656 
L 257.15738 640.702043 
L 263.290987 640.694126 
L 269.424594 640.687668 
L 275.5582 640.682447 
L 281.691807 640.677715 
L 287.825414 640.672687 
L 293.95902 640.66694 
L 300.092627 640.660942 
L 306.226234 640.65571 
L 312.35984 640.65261 
L 318.493447 640.65227 
L 324.627054 640.654258 
L 330.760661 640.657688 
L 336.894267 640.661632 
L 343.027874 640.665501 
L 349.161481 640.668998 
L 355.295087 640.671987 
L 361.428694 640.674693 
L 367.562301 640.677731 
L 373.695907 640.681765 
L 379.829514 640.686975 
L 385.963121 640.693328 
L 392.096727 640.70042 
L 398.230334 640.707682 
L 404.363941 640.714574 
L 410.497547 640.720477 
L 416.631154 640.724395 
L 422.764761 640.725423 
L 428.898367 640.723239 
L 435.031974 640.717825 
L 441.165581 640.709935 
L 447.299187 640.701169 
L 453.432794 640.693116 
L 459.566401 640.686843 
L 465.700008 640.683374 
L 471.833614 640.682945 
L 477.967221 640.685262 
L 484.100828 640.689927 
L 490.234434 640.696541 
L 496.368041 640.70417 
L 502.501648 640.711169 
L 508.635254 640.715872 
L 514.768861 640.717341 
L 520.902468 640.715744 
L 527.036074 640.711903 
L 533.169681 640.707397 
L 539.303288 640.703422 
L 545.436894 640.700283 
L 551.570501 640.698191 
L 557.704108 640.697618 
L 563.837714 640.699744 
L 569.971321 640.705377 
L 576.104928 640.715042 
L 582.238534 640.728492 
L 588.372141 640.744552 
L 594.505748 640.761914 
L 600.639354 640.778262 
L 606.772961 640.791083 
L 612.906568 640.799112 
L 619.040175 640.802528 
L 625.173781 640.802141 
L 631.307388 640.799246 
L 637.440995 640.796226 
L 643.574601 640.796033 
L 649.708208 640.800357 
L 655.841815 640.809231 
L 661.975421 640.820969 
L 668.109028 640.832855 
L 674.242635 640.842417 
L 680.376241 640.847723 
L 686.509848 640.847891 
L 692.643455 640.843527 
L 698.777061 640.834083 
" clip-path="url(#p8737a982b2)" style="fill: none; stroke-dasharray: 5.55,2.4; stroke-dashoffset: 0; stroke: #ff0000; stroke-width: 1.5"/>
   </g>
   <g id="patch_18">
    <path d="M 91.55 666.52 
L 91.55 525.555 
" style="fill: none; stroke: #000000; stroke-width: 0.8; stroke-linejoin: miter; stroke-linecap: square"/>
   </g>
   <g id="patch_19">
    <path d="M 704.88 666.52 
L 704.88 525.555 
" style="fill: none; stroke: #000000; stroke-width: 0.8; stroke-linejoin: miter; stroke-linecap: square"/>
   </g>
   <g id="patch_20">
    <path d="M 91.55 666.52 
L 704.88 666.52 
" style="fill: none; stroke: #000000; stroke-width: 0.8; stroke-linejoin: miter; stroke-linecap: square"/>
   </g>
   <g id="patch_21">
    <path d="M 91.55 525.555 
L 704.88 525.555 
" style="fill: none; stroke: #000000; stroke-width: 0.8; stroke-linejoin: miter; stroke-linecap: square"/>
   </g>
  </g>
  <g id="text_34">
   <!-- Errors on imu states at 100Hz -->
   <g transform="translate(234.648375 27.165375) scale(0.168 -0.168)">
    <defs>
     <path id="DejaVuSans-6e" d="M 3513 2113 
L 3513 0 
L 2938 0 
L 2938 2094 
Q 2938 2591 2744 2837 
Q 2550 3084 2163 3084 
Q 1697 3084 1428 2787 
Q 1159 2491 1159 1978 
L 1159 0 
L 581 0 
L 581 3500 
L 1159 3500 
L 1159 2956 
Q 1366 3272 1645 3428 
Q 1925 3584 2291 3584 
Q 2894 3584 3203 3211 
Q 3513 2838 3513 2113 
z
" transform="scale(0.015625)"/>
     <path id="DejaVuSans-75" d="M 544 1381 
L 544 3500 
L 1119 3500 
L 1119 1403 
Q 1119 906 1312 657 
Q 1506 409 1894 409 
Q 2359 409 2629 706 
Q 2900 1003 2900 1516 
L 2900 3500 
L 3475 3500 
L 3475 0 
L 2900 0 
L 2900 538 
Q 2691 219 2414 64 
Q 2138 -91 1772 -91 
Q 1169 -91 856 284 
Q 544 659 544 1381 
z
M 1991 3584 
L 1991 3584 
z
" transform="scale(0.015625)"/>
     <path id="DejaVuSans-48" d="M 628 4666 
L 1259 4666 
L 1259 2753 
L 3553 2753 
L 3553 4666 
L 4184 4666 
L 4184 0 
L 3553 0 
L 3553 2222 
L 1259 2222 
L 1259 0 
L 628 0 
L 628 4666 
z
" transform="scale(0.015625)"/>
     <path id="DejaVuSans-7a" d="M 353 3500 
L 3084 3500 
L 3084 2975 
L 922 459 
L 3084 459 
L 3084 0 
L 275 0 
L 275 525 
L 2438 3041 
L 353 3041 
L 353 3500 
z
" transform="scale(0.015625)"/>
    </defs>
    <use xlink:href="#DejaVuSans-45"/>
    <use xlink:href="#DejaVuSans-72" x="63.183594"/>
    <use xlink:href="#DejaVuSans-72" x="102.546875"/>
    <use xlink:href="#DejaVuSans-6f" x="141.410156"/>
    <use xlink:href="#DejaVuSans-72" x="202.591797"/>
    <use xlink:href="#DejaVuSans-73" x="243.705078"/>
    <use xlink:href="#DejaVuSans-20" x="295.804688"/>
    <use xlink:href="#DejaVuSans-6f" x="327.591797"/>
    <use xlink:href="#DejaVuSans-6e" x="388.773438"/>
    <use xlink:href="#DejaVuSans-20" x="452.152344"/>
    <use xlink:href="#DejaVuSans-69" x="483.939453"/>
    <use xlink:href="#DejaVuSans-6d" x="511.722656"/>
    <use xlink:href="#DejaVuSans-75" x="609.134766"/>
    <use xlink:href="#DejaVuSans-20" x="672.513672"/>
    <use xlink:href="#DejaVuSans-73" x="704.300781"/>
    <use xlink:href="#DejaVuSans-74" x="756.400391"/>
    <use xlink:href="#DejaVuSans-61" x="795.609375"/>
    <use xlink:href="#DejaVuSans-74" x="856.888672"/>
    <use xlink:href="#DejaVuSans-65" x="896.097656"/>
    <use xlink:href="#DejaVuSans-73" x="957.621094"/>
    <use xlink:href="#DejaVuSans-20" x="1009.720703"/>
    <use xlink:href="#DejaVuSans-61" x="1041.507812"/>
    <use xlink:href="#DejaVuSans-74" x="1102.787109"/>
    <use xlink:href="#DejaVuSans-20" x="1141.996094"/>
    <use xlink:href="#DejaVuSans-31" x="1173.783203"/>
    <use xlink:href="#DejaVuSans-30" x="1237.40625"/>
    <use xlink:href="#DejaVuSans-30" x="1301.029297"/>
    <use xlink:href="#DejaVuSans-48" x="1364.652344"/>
    <use xlink:href="#DejaVuSans-7a" x="1439.847656"/>
   </g>
  </g>
 </g>
 <defs>
  <clipPath id="p811b3e2769">
   <rect x="91.55" y="46.8" width="613.33" height="140.965"/>
  </clipPath>
  <clipPath id="pd07657ce37">
   <rect x="91.55" y="206.385" width="613.33" height="140.965"/>
  </clipPath>
  <clipPath id="pf3dbe66cc2">
   <rect x="91.55" y="365.97" width="613.33" height="140.965"/>
  </clipPath>
  <clipPath id="p8737a982b2">
   <rect x="91.55" y="525.555" width="613.33" height="140.965"/>
  </clipPath>
 </defs>
</svg>
