<?xml version="1.0" encoding="utf-8" standalone="no"?>
<!DOCTYPE svg PUBLIC "-//W3C//DTD SVG 1.1//EN"
  "http://www.w3.org/Graphics/SVG/1.1/DTD/svg11.dtd">
<svg height="576pt" version="1.1" viewBox="0 0 720 576" width="720pt" xmlns="http://www.w3.org/2000/svg" xmlns:xlink="http://www.w3.org/1999/xlink">
 <metadata>
  <rdf:RDF xmlns:cc="http://creativecommons.org/ns#" xmlns:dc="http://purl.org/dc/elements/1.1/" xmlns:rdf="http://www.w3.org/1999/02/22-rdf-syntax-ns#">
   <cc:Work>
    <dc:type rdf:resource="http://purl.org/dc/dcmitype/StillImage"/>
    <dc:date>2024-04-14T16:01:28.582954</dc:date>
    <dc:format>image/svg+xml</dc:format>
    <dc:creator>
     <cc:Agent>
      <dc:title>Matplotlib v3.4.2, https://matplotlib.org/</dc:title>
     </cc:Agent>
    </dc:creator>
   </cc:Work>
  </rdf:RDF>
 </metadata>
 <defs>
  <style type="text/css">*{stroke-linecap:butt;stroke-linejoin:round;}</style>
 </defs>
 <g id="figure_1">
  <g id="patch_1">
   <path d="M 0 576 
L 720 576 
L 720 0 
L 0 0 
z
" style="fill:#ffffff;"/>
  </g>
  <g id="axes_1">
   <g id="patch_2">
    <path d="M 81.56 177.24 
L 702.72 177.24 
L 702.72 63.48 
L 81.56 63.48 
z
" style="fill:#ffffff;"/>
   </g>
   <g id="matplotlib.axis_1">
    <g id="xtick_1">
     <g id="line2d_1">
      <defs>
       <path d="M 0 0 
L 0 3.5 
" id="mde8581cb05" style="stroke:#000000;stroke-width:0.8;"/>
      </defs>
      <g>
       <use style="stroke:#000000;stroke-width:0.8;" x="109.794545" xlink:href="#mde8581cb05" y="177.24"/>
      </g>
     </g>
     <g id="text_1">
      <!-- 0 -->
      <g transform="translate(104.704545 196.3975)scale(0.16 -0.16)">
       <defs>
        <path d="M 2034 4250 
Q 1547 4250 1301 3770 
Q 1056 3291 1056 2328 
Q 1056 1369 1301 889 
Q 1547 409 2034 409 
Q 2525 409 2770 889 
Q 3016 1369 3016 2328 
Q 3016 3291 2770 3770 
Q 2525 4250 2034 4250 
z
M 2034 4750 
Q 2819 4750 3233 4129 
Q 3647 3509 3647 2328 
Q 3647 1150 3233 529 
Q 2819 -91 2034 -91 
Q 1250 -91 836 529 
Q 422 1150 422 2328 
Q 422 3509 836 4129 
Q 1250 4750 2034 4750 
z
" id="DejaVuSans-30" transform="scale(0.015625)"/>
       </defs>
       <use xlink:href="#DejaVuSans-30"/>
      </g>
     </g>
    </g>
    <g id="xtick_2">
     <g id="line2d_2">
      <g>
       <use style="stroke:#000000;stroke-width:0.8;" x="180.380909" xlink:href="#mde8581cb05" y="177.24"/>
      </g>
     </g>
     <g id="text_2">
      <!-- 25 -->
      <g transform="translate(170.200909 196.3975)scale(0.16 -0.16)">
       <defs>
        <path d="M 1228 531 
L 3431 531 
L 3431 0 
L 469 0 
L 469 531 
Q 828 903 1448 1529 
Q 2069 2156 2228 2338 
Q 2531 2678 2651 2914 
Q 2772 3150 2772 3378 
Q 2772 3750 2511 3984 
Q 2250 4219 1831 4219 
Q 1534 4219 1204 4116 
Q 875 4013 500 3803 
L 500 4441 
Q 881 4594 1212 4672 
Q 1544 4750 1819 4750 
Q 2544 4750 2975 4387 
Q 3406 4025 3406 3419 
Q 3406 3131 3298 2873 
Q 3191 2616 2906 2266 
Q 2828 2175 2409 1742 
Q 1991 1309 1228 531 
z
" id="DejaVuSans-32" transform="scale(0.015625)"/>
        <path d="M 691 4666 
L 3169 4666 
L 3169 4134 
L 1269 4134 
L 1269 2991 
Q 1406 3038 1543 3061 
Q 1681 3084 1819 3084 
Q 2600 3084 3056 2656 
Q 3513 2228 3513 1497 
Q 3513 744 3044 326 
Q 2575 -91 1722 -91 
Q 1428 -91 1123 -41 
Q 819 9 494 109 
L 494 744 
Q 775 591 1075 516 
Q 1375 441 1709 441 
Q 2250 441 2565 725 
Q 2881 1009 2881 1497 
Q 2881 1984 2565 2268 
Q 2250 2553 1709 2553 
Q 1456 2553 1204 2497 
Q 953 2441 691 2322 
L 691 4666 
z
" id="DejaVuSans-35" transform="scale(0.015625)"/>
       </defs>
       <use xlink:href="#DejaVuSans-32"/>
       <use x="63.623047" xlink:href="#DejaVuSans-35"/>
      </g>
     </g>
    </g>
    <g id="xtick_3">
     <g id="line2d_3">
      <g>
       <use style="stroke:#000000;stroke-width:0.8;" x="250.967273" xlink:href="#mde8581cb05" y="177.24"/>
      </g>
     </g>
     <g id="text_3">
      <!-- 50 -->
      <g transform="translate(240.787273 196.3975)scale(0.16 -0.16)">
       <use xlink:href="#DejaVuSans-35"/>
       <use x="63.623047" xlink:href="#DejaVuSans-30"/>
      </g>
     </g>
    </g>
    <g id="xtick_4">
     <g id="line2d_4">
      <g>
       <use style="stroke:#000000;stroke-width:0.8;" x="321.553636" xlink:href="#mde8581cb05" y="177.24"/>
      </g>
     </g>
     <g id="text_4">
      <!-- 75 -->
      <g transform="translate(311.373636 196.3975)scale(0.16 -0.16)">
       <defs>
        <path d="M 525 4666 
L 3525 4666 
L 3525 4397 
L 1831 0 
L 1172 0 
L 2766 4134 
L 525 4134 
L 525 4666 
z
" id="DejaVuSans-37" transform="scale(0.015625)"/>
       </defs>
       <use xlink:href="#DejaVuSans-37"/>
       <use x="63.623047" xlink:href="#DejaVuSans-35"/>
      </g>
     </g>
    </g>
    <g id="xtick_5">
     <g id="line2d_5">
      <g>
       <use style="stroke:#000000;stroke-width:0.8;" x="392.14" xlink:href="#mde8581cb05" y="177.24"/>
      </g>
     </g>
     <g id="text_5">
      <!-- 100 -->
      <g transform="translate(376.87 196.3975)scale(0.16 -0.16)">
       <defs>
        <path d="M 794 531 
L 1825 531 
L 1825 4091 
L 703 3866 
L 703 4441 
L 1819 4666 
L 2450 4666 
L 2450 531 
L 3481 531 
L 3481 0 
L 794 0 
L 794 531 
z
" id="DejaVuSans-31" transform="scale(0.015625)"/>
       </defs>
       <use xlink:href="#DejaVuSans-31"/>
       <use x="63.623047" xlink:href="#DejaVuSans-30"/>
       <use x="127.246094" xlink:href="#DejaVuSans-30"/>
      </g>
     </g>
    </g>
    <g id="xtick_6">
     <g id="line2d_6">
      <g>
       <use style="stroke:#000000;stroke-width:0.8;" x="462.726364" xlink:href="#mde8581cb05" y="177.24"/>
      </g>
     </g>
     <g id="text_6">
      <!-- 125 -->
      <g transform="translate(447.456364 196.3975)scale(0.16 -0.16)">
       <use xlink:href="#DejaVuSans-31"/>
       <use x="63.623047" xlink:href="#DejaVuSans-32"/>
       <use x="127.246094" xlink:href="#DejaVuSans-35"/>
      </g>
     </g>
    </g>
    <g id="xtick_7">
     <g id="line2d_7">
      <g>
       <use style="stroke:#000000;stroke-width:0.8;" x="533.312727" xlink:href="#mde8581cb05" y="177.24"/>
      </g>
     </g>
     <g id="text_7">
      <!-- 150 -->
      <g transform="translate(518.042727 196.3975)scale(0.16 -0.16)">
       <use xlink:href="#DejaVuSans-31"/>
       <use x="63.623047" xlink:href="#DejaVuSans-35"/>
       <use x="127.246094" xlink:href="#DejaVuSans-30"/>
      </g>
     </g>
    </g>
    <g id="xtick_8">
     <g id="line2d_8">
      <g>
       <use style="stroke:#000000;stroke-width:0.8;" x="603.899091" xlink:href="#mde8581cb05" y="177.24"/>
      </g>
     </g>
     <g id="text_8">
      <!-- 175 -->
      <g transform="translate(588.629091 196.3975)scale(0.16 -0.16)">
       <use xlink:href="#DejaVuSans-31"/>
       <use x="63.623047" xlink:href="#DejaVuSans-37"/>
       <use x="127.246094" xlink:href="#DejaVuSans-35"/>
      </g>
     </g>
    </g>
    <g id="xtick_9">
     <g id="line2d_9">
      <g>
       <use style="stroke:#000000;stroke-width:0.8;" x="674.485455" xlink:href="#mde8581cb05" y="177.24"/>
      </g>
     </g>
     <g id="text_9">
      <!-- 200 -->
      <g transform="translate(659.215455 196.3975)scale(0.16 -0.16)">
       <use xlink:href="#DejaVuSans-32"/>
       <use x="63.623047" xlink:href="#DejaVuSans-30"/>
       <use x="127.246094" xlink:href="#DejaVuSans-30"/>
      </g>
     </g>
    </g>
    <g id="text_10">
     <!-- Time [s] -->
     <g transform="translate(359.61375 215.8825)scale(0.16 -0.16)">
      <defs>
       <path d="M -19 4666 
L 3928 4666 
L 3928 4134 
L 2272 4134 
L 2272 0 
L 1638 0 
L 1638 4134 
L -19 4134 
L -19 4666 
z
" id="DejaVuSans-54" transform="scale(0.015625)"/>
       <path d="M 603 3500 
L 1178 3500 
L 1178 0 
L 603 0 
L 603 3500 
z
M 603 4863 
L 1178 4863 
L 1178 4134 
L 603 4134 
L 603 4863 
z
" id="DejaVuSans-69" transform="scale(0.015625)"/>
       <path d="M 3328 2828 
Q 3544 3216 3844 3400 
Q 4144 3584 4550 3584 
Q 5097 3584 5394 3201 
Q 5691 2819 5691 2113 
L 5691 0 
L 5113 0 
L 5113 2094 
Q 5113 2597 4934 2840 
Q 4756 3084 4391 3084 
Q 3944 3084 3684 2787 
Q 3425 2491 3425 1978 
L 3425 0 
L 2847 0 
L 2847 2094 
Q 2847 2600 2669 2842 
Q 2491 3084 2119 3084 
Q 1678 3084 1418 2786 
Q 1159 2488 1159 1978 
L 1159 0 
L 581 0 
L 581 3500 
L 1159 3500 
L 1159 2956 
Q 1356 3278 1631 3431 
Q 1906 3584 2284 3584 
Q 2666 3584 2933 3390 
Q 3200 3197 3328 2828 
z
" id="DejaVuSans-6d" transform="scale(0.015625)"/>
       <path d="M 3597 1894 
L 3597 1613 
L 953 1613 
Q 991 1019 1311 708 
Q 1631 397 2203 397 
Q 2534 397 2845 478 
Q 3156 559 3463 722 
L 3463 178 
Q 3153 47 2828 -22 
Q 2503 -91 2169 -91 
Q 1331 -91 842 396 
Q 353 884 353 1716 
Q 353 2575 817 3079 
Q 1281 3584 2069 3584 
Q 2775 3584 3186 3129 
Q 3597 2675 3597 1894 
z
M 3022 2063 
Q 3016 2534 2758 2815 
Q 2500 3097 2075 3097 
Q 1594 3097 1305 2825 
Q 1016 2553 972 2059 
L 3022 2063 
z
" id="DejaVuSans-65" transform="scale(0.015625)"/>
       <path id="DejaVuSans-20" transform="scale(0.015625)"/>
       <path d="M 550 4863 
L 1875 4863 
L 1875 4416 
L 1125 4416 
L 1125 -397 
L 1875 -397 
L 1875 -844 
L 550 -844 
L 550 4863 
z
" id="DejaVuSans-5b" transform="scale(0.015625)"/>
       <path d="M 2834 3397 
L 2834 2853 
Q 2591 2978 2328 3040 
Q 2066 3103 1784 3103 
Q 1356 3103 1142 2972 
Q 928 2841 928 2578 
Q 928 2378 1081 2264 
Q 1234 2150 1697 2047 
L 1894 2003 
Q 2506 1872 2764 1633 
Q 3022 1394 3022 966 
Q 3022 478 2636 193 
Q 2250 -91 1575 -91 
Q 1294 -91 989 -36 
Q 684 19 347 128 
L 347 722 
Q 666 556 975 473 
Q 1284 391 1588 391 
Q 1994 391 2212 530 
Q 2431 669 2431 922 
Q 2431 1156 2273 1281 
Q 2116 1406 1581 1522 
L 1381 1569 
Q 847 1681 609 1914 
Q 372 2147 372 2553 
Q 372 3047 722 3315 
Q 1072 3584 1716 3584 
Q 2034 3584 2315 3537 
Q 2597 3491 2834 3397 
z
" id="DejaVuSans-73" transform="scale(0.015625)"/>
       <path d="M 1947 4863 
L 1947 -844 
L 622 -844 
L 622 -397 
L 1369 -397 
L 1369 4416 
L 622 4416 
L 622 4863 
L 1947 4863 
z
" id="DejaVuSans-5d" transform="scale(0.015625)"/>
      </defs>
      <use xlink:href="#DejaVuSans-54"/>
      <use x="57.958984" xlink:href="#DejaVuSans-69"/>
      <use x="85.742188" xlink:href="#DejaVuSans-6d"/>
      <use x="183.154297" xlink:href="#DejaVuSans-65"/>
      <use x="244.677734" xlink:href="#DejaVuSans-20"/>
      <use x="276.464844" xlink:href="#DejaVuSans-5b"/>
      <use x="315.478516" xlink:href="#DejaVuSans-73"/>
      <use x="367.578125" xlink:href="#DejaVuSans-5d"/>
     </g>
    </g>
   </g>
   <g id="matplotlib.axis_2">
    <g id="ytick_1">
     <g id="line2d_10">
      <defs>
       <path d="M 0 0 
L -3.5 0 
" id="ma9753e1655" style="stroke:#000000;stroke-width:0.8;"/>
      </defs>
      <g>
       <use style="stroke:#000000;stroke-width:0.8;" x="81.56" xlink:href="#ma9753e1655" y="167.747634"/>
      </g>
     </g>
     <g id="text_11">
      <!-- −2 -->
      <g transform="translate(50.9725 173.826384)scale(0.16 -0.16)">
       <defs>
        <path d="M 678 2272 
L 4684 2272 
L 4684 1741 
L 678 1741 
L 678 2272 
z
" id="DejaVuSans-2212" transform="scale(0.015625)"/>
       </defs>
       <use xlink:href="#DejaVuSans-2212"/>
       <use x="83.789062" xlink:href="#DejaVuSans-32"/>
      </g>
     </g>
    </g>
    <g id="ytick_2">
     <g id="line2d_11">
      <g>
       <use style="stroke:#000000;stroke-width:0.8;" x="81.56" xlink:href="#ma9753e1655" y="129.795052"/>
      </g>
     </g>
     <g id="text_12">
      <!-- −1 -->
      <g transform="translate(50.9725 135.873802)scale(0.16 -0.16)">
       <use xlink:href="#DejaVuSans-2212"/>
       <use x="83.789062" xlink:href="#DejaVuSans-31"/>
      </g>
     </g>
    </g>
    <g id="ytick_3">
     <g id="line2d_12">
      <g>
       <use style="stroke:#000000;stroke-width:0.8;" x="81.56" xlink:href="#ma9753e1655" y="91.84247"/>
      </g>
     </g>
     <g id="text_13">
      <!-- 0 -->
      <g transform="translate(64.38 97.92122)scale(0.16 -0.16)">
       <use xlink:href="#DejaVuSans-30"/>
      </g>
     </g>
    </g>
    <g id="text_14">
     <!-- Azimuth [rad] -->
     <g transform="translate(18.2 175.3775)rotate(-90)scale(0.16 -0.16)">
      <defs>
       <path d="M 2188 4044 
L 1331 1722 
L 3047 1722 
L 2188 4044 
z
M 1831 4666 
L 2547 4666 
L 4325 0 
L 3669 0 
L 3244 1197 
L 1141 1197 
L 716 0 
L 50 0 
L 1831 4666 
z
" id="DejaVuSans-41" transform="scale(0.015625)"/>
       <path d="M 353 3500 
L 3084 3500 
L 3084 2975 
L 922 459 
L 3084 459 
L 3084 0 
L 275 0 
L 275 525 
L 2438 3041 
L 353 3041 
L 353 3500 
z
" id="DejaVuSans-7a" transform="scale(0.015625)"/>
       <path d="M 544 1381 
L 544 3500 
L 1119 3500 
L 1119 1403 
Q 1119 906 1312 657 
Q 1506 409 1894 409 
Q 2359 409 2629 706 
Q 2900 1003 2900 1516 
L 2900 3500 
L 3475 3500 
L 3475 0 
L 2900 0 
L 2900 538 
Q 2691 219 2414 64 
Q 2138 -91 1772 -91 
Q 1169 -91 856 284 
Q 544 659 544 1381 
z
M 1991 3584 
L 1991 3584 
z
" id="DejaVuSans-75" transform="scale(0.015625)"/>
       <path d="M 1172 4494 
L 1172 3500 
L 2356 3500 
L 2356 3053 
L 1172 3053 
L 1172 1153 
Q 1172 725 1289 603 
Q 1406 481 1766 481 
L 2356 481 
L 2356 0 
L 1766 0 
Q 1100 0 847 248 
Q 594 497 594 1153 
L 594 3053 
L 172 3053 
L 172 3500 
L 594 3500 
L 594 4494 
L 1172 4494 
z
" id="DejaVuSans-74" transform="scale(0.015625)"/>
       <path d="M 3513 2113 
L 3513 0 
L 2938 0 
L 2938 2094 
Q 2938 2591 2744 2837 
Q 2550 3084 2163 3084 
Q 1697 3084 1428 2787 
Q 1159 2491 1159 1978 
L 1159 0 
L 581 0 
L 581 4863 
L 1159 4863 
L 1159 2956 
Q 1366 3272 1645 3428 
Q 1925 3584 2291 3584 
Q 2894 3584 3203 3211 
Q 3513 2838 3513 2113 
z
" id="DejaVuSans-68" transform="scale(0.015625)"/>
       <path d="M 2631 2963 
Q 2534 3019 2420 3045 
Q 2306 3072 2169 3072 
Q 1681 3072 1420 2755 
Q 1159 2438 1159 1844 
L 1159 0 
L 581 0 
L 581 3500 
L 1159 3500 
L 1159 2956 
Q 1341 3275 1631 3429 
Q 1922 3584 2338 3584 
Q 2397 3584 2469 3576 
Q 2541 3569 2628 3553 
L 2631 2963 
z
" id="DejaVuSans-72" transform="scale(0.015625)"/>
       <path d="M 2194 1759 
Q 1497 1759 1228 1600 
Q 959 1441 959 1056 
Q 959 750 1161 570 
Q 1363 391 1709 391 
Q 2188 391 2477 730 
Q 2766 1069 2766 1631 
L 2766 1759 
L 2194 1759 
z
M 3341 1997 
L 3341 0 
L 2766 0 
L 2766 531 
Q 2569 213 2275 61 
Q 1981 -91 1556 -91 
Q 1019 -91 701 211 
Q 384 513 384 1019 
Q 384 1609 779 1909 
Q 1175 2209 1959 2209 
L 2766 2209 
L 2766 2266 
Q 2766 2663 2505 2880 
Q 2244 3097 1772 3097 
Q 1472 3097 1187 3025 
Q 903 2953 641 2809 
L 641 3341 
Q 956 3463 1253 3523 
Q 1550 3584 1831 3584 
Q 2591 3584 2966 3190 
Q 3341 2797 3341 1997 
z
" id="DejaVuSans-61" transform="scale(0.015625)"/>
       <path d="M 2906 2969 
L 2906 4863 
L 3481 4863 
L 3481 0 
L 2906 0 
L 2906 525 
Q 2725 213 2448 61 
Q 2172 -91 1784 -91 
Q 1150 -91 751 415 
Q 353 922 353 1747 
Q 353 2572 751 3078 
Q 1150 3584 1784 3584 
Q 2172 3584 2448 3432 
Q 2725 3281 2906 2969 
z
M 947 1747 
Q 947 1113 1208 752 
Q 1469 391 1925 391 
Q 2381 391 2643 752 
Q 2906 1113 2906 1747 
Q 2906 2381 2643 2742 
Q 2381 3103 1925 3103 
Q 1469 3103 1208 2742 
Q 947 2381 947 1747 
z
" id="DejaVuSans-64" transform="scale(0.015625)"/>
      </defs>
      <use xlink:href="#DejaVuSans-41"/>
      <use x="68.408203" xlink:href="#DejaVuSans-7a"/>
      <use x="120.898438" xlink:href="#DejaVuSans-69"/>
      <use x="148.681641" xlink:href="#DejaVuSans-6d"/>
      <use x="246.09375" xlink:href="#DejaVuSans-75"/>
      <use x="309.472656" xlink:href="#DejaVuSans-74"/>
      <use x="348.681641" xlink:href="#DejaVuSans-68"/>
      <use x="412.060547" xlink:href="#DejaVuSans-20"/>
      <use x="443.847656" xlink:href="#DejaVuSans-5b"/>
      <use x="482.861328" xlink:href="#DejaVuSans-72"/>
      <use x="523.974609" xlink:href="#DejaVuSans-61"/>
      <use x="585.253906" xlink:href="#DejaVuSans-64"/>
      <use x="648.730469" xlink:href="#DejaVuSans-5d"/>
     </g>
    </g>
    <g id="text_15">
     <!-- 1e−12 -->
     <g transform="translate(81.56 60.48)scale(0.16 -0.16)">
      <use xlink:href="#DejaVuSans-31"/>
      <use x="63.623047" xlink:href="#DejaVuSans-65"/>
      <use x="125.146484" xlink:href="#DejaVuSans-2212"/>
      <use x="208.935547" xlink:href="#DejaVuSans-31"/>
      <use x="272.558594" xlink:href="#DejaVuSans-32"/>
     </g>
    </g>
   </g>
   <g id="line2d_13">
    <path clip-path="url(#p2a18c92418)" d="M 109.794545 91.84247 
L 127.130556 91.732917 
L 127.52584 91.72449 
L 133.455095 91.614937 
L 133.850378 91.606509 
L 139.779633 91.496956 
L 140.174916 91.488529 
L 146.301813 91.378976 
L 146.697096 91.370549 
L 152.400475 91.269423 
L 152.626351 91.252568 
L 157.115644 91.353694 
L 157.34152 91.370549 
L 159.233235 91.471675 
L 159.487345 91.505383 
L 159.684987 91.505383 
L 161.717875 91.606509 
L 161.971985 91.640218 
L 164.004873 91.741344 
L 164.230749 91.775053 
L 164.428391 91.758198 
L 164.682502 91.791907 
L 166.687155 91.893033 
L 166.913031 91.909887 
L 168.889449 92.011013 
L 169.115325 92.044722 
L 169.312967 92.044722 
L 171.204682 92.145848 
L 171.458793 92.179557 
L 171.656435 92.162702 
L 171.910545 92.196411 
L 173.915198 92.297537 
L 174.141075 92.314391 
L 176.089258 92.415517 
L 176.2869 92.432372 
L 176.456307 92.449226 
L 178.432725 92.550352 
L 178.686836 92.584061 
L 178.884478 92.567206 
L 179.138589 92.600915 
L 181.143242 92.702041 
L 181.369118 92.718895 
L 183.204364 92.820021 
L 183.43024 92.85373 
L 183.627882 92.836876 
L 183.881993 92.870584 
L 185.886645 92.97171 
L 186.112522 92.988565 
L 188.08894 93.089691 
L 188.314816 93.123399 
L 188.512458 93.106545 
L 188.766569 93.140254 
L 190.630049 93.224525 
L 190.799456 93.258234 
L 190.997098 93.258234 
L 192.888813 93.35936 
L 193.142924 93.393069 
L 193.340565 93.393069 
L 195.316984 93.494195 
L 195.54286 93.527903 
L 195.740502 93.527903 
L 197.632216 93.629029 
L 197.886327 93.662738 
L 198.083969 93.645884 
L 198.33808 93.679592 
L 201.44388 93.595321 
L 201.585053 93.561612 
L 201.782695 93.561612 
L 202.036805 93.527903 
L 203.194422 93.426777 
L 203.448533 93.393069 
L 204.662618 93.291943 
L 204.916729 93.258234 
L 206.074345 93.157108 
L 206.328456 93.123399 
L 206.526098 93.123399 
L 206.780209 93.089691 
L 207.881356 92.988565 
L 208.135467 92.954856 
L 208.333109 92.954856 
L 208.58722 92.921147 
L 209.688367 92.820021 
L 209.942478 92.786313 
L 210.14012 92.786313 
L 210.394231 92.752604 
L 211.495378 92.651478 
L 211.749489 92.617769 
L 213.020044 92.516643 
L 213.274155 92.482935 
L 214.431771 92.381809 
L 214.685882 92.3481 
L 214.883524 92.3481 
L 215.052931 92.314391 
L 216.182313 92.213265 
L 216.436424 92.179557 
L 216.634065 92.179557 
L 216.888176 92.145848 
L 217.989324 92.044722 
L 218.243435 92.011013 
L 218.441076 92.011013 
L 218.695187 91.977305 
L 219.796335 91.876179 
L 220.050445 91.84247 
L 220.248087 91.84247 
L 220.502198 91.808761 
L 221.659815 91.707635 
L 221.913925 91.673927 
L 223.128011 91.572801 
L 223.382122 91.539092 
L 224.539738 91.437966 
L 224.793849 91.404257 
L 224.991491 91.404257 
L 225.245602 91.370549 
L 226.346749 91.269423 
L 226.60086 91.235714 
L 226.798502 91.235714 
L 227.052613 91.202005 
L 228.15376 91.100879 
L 228.407871 91.067171 
L 228.605513 91.067171 
L 228.859624 91.033462 
L 229.960771 90.932336 
L 230.214882 90.898627 
L 230.412524 90.898627 
L 230.666635 90.864919 
L 231.824251 90.763793 
L 232.078362 90.730084 
L 233.292447 90.628958 
L 233.546558 90.595249 
L 234.704175 90.494124 
L 234.958285 90.460415 
L 235.155927 90.460415 
L 235.2971 90.426706 
L 235.494742 90.426706 
L 235.664149 90.392998 
L 236.85 90.291872 
L 237.104111 90.258163 
L 237.301753 90.258163 
L 237.555864 90.224454 
L 238.657011 90.123328 
L 238.911122 90.08962 
L 239.108764 90.08962 
L 239.362875 90.055911 
L 240.464022 89.954785 
L 240.718133 89.921076 
L 240.915775 89.921076 
L 241.169885 89.887368 
L 242.271033 89.786242 
L 242.525144 89.752533 
L 242.722785 89.752533 
L 242.976896 89.718824 
L 244.078044 89.617698 
L 244.332155 89.58399 
L 244.529796 89.58399 
L 244.783907 89.550281 
L 245.941524 89.449155 
L 246.195635 89.415446 
L 247.40972 89.31432 
L 247.663831 89.280612 
L 248.821447 89.179486 
L 249.075558 89.145777 
L 249.2732 89.145777 
L 249.527311 89.112068 
L 250.628458 89.010942 
L 250.882569 88.977234 
L 251.080211 88.977234 
L 251.334322 88.943525 
L 252.379 88.842399 
L 252.633111 88.80869 
L 252.830753 88.80869 
L 253.084864 88.774982 
L 254.24248 88.673856 
L 254.496591 88.640147 
L 255.710676 88.539021 
L 255.964787 88.505312 
L 257.122404 88.404186 
L 257.376515 88.370478 
L 257.574156 88.370478 
L 257.828267 88.336769 
L 258.929415 88.235643 
L 259.183525 88.201934 
L 259.381167 88.201934 
L 259.635278 88.168226 
L 260.736425 88.0671 
L 260.990536 88.033391 
L 261.188178 88.033391 
L 261.442289 87.999682 
L 262.543436 87.898556 
L 262.797547 87.864848 
L 262.995189 87.864848 
L 263.2493 87.831139 
L 264.350447 87.730013 
L 264.604558 87.696304 
L 264.8022 87.696304 
L 265.056311 87.662596 
L 266.213927 87.56147 
L 266.468038 87.527761 
L 267.682124 87.426635 
L 267.936235 87.392926 
L 269.093851 87.2918 
L 269.347962 87.258092 
L 269.545604 87.258092 
L 269.799715 87.224383 
L 270.900862 87.123257 
L 271.154973 87.089548 
L 271.352615 87.089548 
L 271.606725 87.05584 
L 272.651404 86.954714 
L 272.905515 86.921005 
L 273.103156 86.921005 
L 273.357267 86.887296 
L 274.514884 86.78617 
L 274.768995 86.752462 
L 276.039549 86.651336 
L 276.208956 86.617627 
L 277.451276 86.516501 
L 277.705387 86.482792 
L 277.903029 86.482792 
L 278.072436 86.449084 
L 279.201818 86.347958 
L 279.455929 86.314249 
L 279.653571 86.314249 
L 279.907682 86.28054 
L 281.008829 86.179414 
L 281.26294 86.145706 
L 281.460582 86.145706 
L 281.714693 86.111997 
L 282.81584 86.010871 
L 283.069951 85.977162 
L 283.267593 85.977162 
L 283.521704 85.943454 
L 284.67932 85.842328 
L 284.933431 85.808619 
L 286.147516 85.707493 
L 286.401627 85.673785 
L 287.559244 85.572659 
L 287.813355 85.53895 
L 288.010996 85.53895 
L 288.152169 85.505241 
L 288.349811 85.505241 
L 288.490984 85.471533 
L 288.688625 85.471533 
L 288.942736 85.437824 
L 290.185056 85.336698 
L 290.410933 85.302989 
L 290.608575 85.302989 
L 290.862685 85.269281 
L 292.020302 85.168155 
L 292.274413 85.134446 
L 293.432029 85.03332 
L 293.68614 84.999611 
L 294.92846 84.898485 
L 295.182571 84.864777 
L 296.340187 84.763651 
L 296.594298 84.729942 
L 297.808384 84.628816 
L 298.03426 84.595107 
L 298.203667 84.595107 
L 298.429544 84.561399 
L 298.598951 84.561399 
L 298.853062 84.52769 
L 299.925975 84.426564 
L 300.151851 84.40971 
L 301.281233 84.308584 
L 301.535344 84.274875 
L 302.69296 84.173749 
L 302.947071 84.14004 
L 304.189391 84.038914 
L 304.443502 84.005206 
L 305.601118 83.90408 
L 305.855229 83.870371 
L 307.069315 83.769245 
L 307.295191 83.735536 
L 307.464598 83.735536 
L 307.718709 83.701828 
L 308.791622 83.600702 
L 309.017498 83.583847 
L 310.14688 83.482721 
L 310.400991 83.449013 
L 311.558607 83.347887 
L 311.812718 83.314178 
L 313.026804 83.213052 
L 313.25268 83.179343 
L 313.422087 83.179343 
L 313.647964 83.145635 
L 313.817371 83.145635 
L 314.071482 83.111926 
L 315.144395 83.0108 
L 315.370271 82.993946 
L 316.499653 82.89282 
L 316.753764 82.859111 
L 317.91138 82.757985 
L 318.165491 82.724276 
L 319.379576 82.62315 
L 319.605453 82.589442 
L 319.77486 82.589442 
L 320.028971 82.555733 
L 321.186587 82.454607 
L 321.412464 82.420898 
L 321.581871 82.420898 
L 321.807747 82.38719 
L 321.977155 82.38719 
L 322.231265 82.336627 
L 322.428907 82.336627 
L 323.558289 82.235501 
L 323.8124 82.201792 
L 324.970016 82.100666 
L 325.224127 82.066957 
L 326.438213 81.965831 
L 326.664089 81.932123 
L 326.833496 81.932123 
L 327.087607 81.898414 
L 328.273458 81.797288 
L 328.442865 81.763579 
L 328.584038 81.763579 
L 328.753445 81.729871 
L 328.894618 81.763579 
L 329.09226 81.696162 
L 330.447518 81.595036 
L 330.588691 81.561327 
L 330.729864 81.595036 
L 330.899271 81.527619 
L 331.040444 81.527619 
L 332.113356 81.426493 
L 332.254529 81.392784 
L 332.423936 81.426493 
L 332.621578 81.359076 
L 332.790985 81.392784 
L 332.932158 81.325367 
L 333.101565 81.359076 
L 333.299207 81.291658 
L 333.468615 81.325367 
L 333.609787 81.25795 
L 333.638022 81.291658 
L 333.779195 81.291658 
L 333.948602 81.25795 
L 334.936811 81.156824 
L 335.077984 81.123115 
L 335.247391 81.156824 
L 335.416798 81.123115 
L 336.405007 81.055698 
L 336.54618 80.98828 
L 336.715587 81.021989 
L 336.913229 80.954572 
L 337.082636 80.98828 
L 337.223809 80.920863 
L 337.252044 80.954572 
L 337.393216 80.954572 
L 337.562624 80.920863 
L 338.663771 80.819737 
L 338.804944 80.786028 
L 338.946116 80.786028 
L 340.019029 80.718611 
L 340.160202 80.651194 
L 340.329609 80.684902 
L 340.499016 80.651194 
L 341.600164 80.550068 
L 341.741336 80.516359 
L 341.910744 80.550068 
L 342.108385 80.48265 
L 342.249558 80.516359 
L 342.418965 80.448942 
L 342.560138 80.448942 
L 343.633051 80.381524 
L 343.774224 80.314107 
L 343.943631 80.347816 
L 344.113038 80.314107 
L 345.185951 80.24669 
L 345.327124 80.179272 
L 346.569444 80.078146 
L 346.710616 80.044438 
L 346.880024 80.078146 
L 347.049431 80.044438 
L 348.03764 79.943312 
L 348.178813 79.909603 
L 348.319985 79.943312 
L 348.517627 79.875894 
L 348.687035 79.909603 
L 349.505836 79.808477 
L 349.647009 79.774768 
L 349.816416 79.808477 
L 350.014058 79.74106 
L 350.155231 79.774768 
L 350.324638 79.707351 
L 350.494045 79.74106 
L 350.663453 79.707351 
L 351.538724 79.639934 
L 351.679896 79.572516 
L 351.849304 79.606225 
L 352.018711 79.572516 
L 353.119858 79.505099 
L 353.261031 79.437682 
L 353.430438 79.47139 
L 353.62808 79.403973 
L 353.797487 79.437682 
L 353.93866 79.370264 
L 353.966895 79.403973 
L 355.068042 79.302847 
L 355.209215 79.269138 
L 355.350387 79.302847 
L 355.519795 79.23543 
L 355.660967 79.23543 
L 356.73388 79.168012 
L 356.875053 79.100595 
L 357.04446 79.134304 
L 357.242102 79.066886 
L 357.411509 79.100595 
L 357.552682 79.033178 
L 357.580916 79.066886 
L 358.682064 78.96576 
L 358.823236 78.932052 
L 358.964409 78.96576 
L 359.133816 78.898343 
L 359.274989 78.898343 
L 360.347902 78.797217 
L 360.489075 78.763508 
L 360.658482 78.797217 
L 360.827889 78.7298 
L 360.997296 78.763508 
L 361.816098 78.662382 
L 361.957271 78.628674 
L 362.126678 78.662382 
L 362.32432 78.594965 
L 362.465493 78.628674 
L 362.6349 78.561256 
L 362.804307 78.594965 
L 362.973715 78.561256 
L 363.848985 78.493839 
L 363.990158 78.426422 
L 364.159565 78.46013 
L 365.204244 78.359004 
L 365.373651 78.325296 
L 365.514824 78.359004 
L 365.655996 78.291587 
L 366.898316 78.190461 
L 367.039489 78.156752 
L 367.180662 78.156752 
L 368.253575 78.089335 
L 368.394747 78.021918 
L 368.564155 78.055626 
L 368.733562 78.021918 
L 369.834709 77.920792 
L 369.975882 77.887083 
L 370.145289 77.920792 
L 370.342931 77.853374 
L 370.484104 77.887083 
L 370.653511 77.819666 
L 370.822918 77.853374 
L 371.02056 77.785957 
L 371.161733 77.819666 
L 371.33114 77.752248 
L 371.472313 77.785957 
L 371.64172 77.752248 
L 372.658164 77.684831 
L 372.799336 77.617414 
L 372.968744 77.651122 
L 373.166385 77.583705 
L 373.335793 77.617414 
L 373.476965 77.549996 
L 373.5052 77.583705 
L 374.606347 77.482579 
L 374.74752 77.44887 
L 374.888693 77.482579 
L 375.0581 77.415162 
L 375.199273 77.415162 
L 376.272185 77.314036 
L 376.413358 77.280327 
L 376.554531 77.314036 
L 376.752173 77.246618 
L 376.92158 77.280327 
L 377.740382 77.21291 
L 377.881555 77.145492 
L 378.050962 77.179201 
L 378.248604 77.111784 
L 378.389776 77.145492 
L 378.559184 77.078075 
L 378.728591 77.111784 
L 378.897998 77.078075 
L 379.773269 77.010658 
L 379.914442 76.94324 
L 380.083849 76.976949 
L 381.128527 76.875823 
L 381.297935 76.842114 
L 381.439107 76.875823 
L 381.58028 76.808406 
L 382.8226 76.70728 
L 382.963773 76.673571 
L 383.13318 76.70728 
L 383.330822 76.639863 
L 383.471995 76.673571 
L 383.641402 76.606154 
L 383.782575 76.639863 
L 383.951982 76.606154 
L 384.968425 76.538737 
L 385.109598 76.471319 
L 385.279005 76.505028 
L 385.476647 76.437611 
L 385.646055 76.471319 
L 385.787227 76.403902 
L 385.815462 76.437611 
L 386.916609 76.336485 
L 387.057782 76.302776 
L 387.198955 76.336485 
L 387.368362 76.269067 
L 387.509535 76.269067 
L 388.582447 76.20165 
L 388.72362 76.134233 
L 388.893027 76.167941 
L 389.062435 76.100524 
L 389.231842 76.134233 
L 390.050644 76.066815 
L 390.191816 75.999398 
L 390.361224 76.033107 
L 390.558865 75.965689 
L 390.700038 75.999398 
L 390.869445 75.931981 
L 391.038853 75.965689 
L 391.20826 75.931981 
L 392.196469 75.830855 
L 392.337642 75.797146 
L 392.478815 75.830855 
L 392.648222 75.797146 
L 393.664665 75.729729 
L 393.805838 75.662311 
L 393.975245 75.69602 
L 394.172887 75.628603 
L 394.342295 75.662311 
L 394.483467 75.594894 
L 394.511702 75.628603 
L 394.652875 75.628603 
L 394.822282 75.594894 
L 395.810491 75.493768 
L 395.951664 75.460059 
L 396.092836 75.493768 
L 396.262244 75.460059 
L 397.278687 75.392642 
L 397.41986 75.325225 
L 397.589267 75.358933 
L 397.786909 75.291516 
L 397.956316 75.325225 
L 398.097489 75.257807 
L 398.125724 75.291516 
L 399.226871 75.19039 
L 399.368044 75.156681 
L 399.509216 75.19039 
L 399.678624 75.122973 
L 399.819796 75.122973 
L 400.892709 75.055555 
L 401.033882 74.988138 
L 401.203289 75.021847 
L 401.372696 74.954429 
L 401.542104 74.988138 
L 402.360905 74.887012 
L 402.502078 74.853303 
L 402.671485 74.887012 
L 402.869127 74.819595 
L 403.0103 74.853303 
L 403.179707 74.785886 
L 403.349115 74.819595 
L 403.518522 74.785886 
L 404.506731 74.68476 
L 404.647904 74.651051 
L 404.817311 74.68476 
L 404.986718 74.617343 
L 405.156125 74.651051 
L 405.974927 74.583634 
L 406.1161 74.516217 
L 406.285507 74.549925 
L 406.483149 74.482508 
L 406.652556 74.516217 
L 406.793729 74.448799 
L 406.821964 74.482508 
L 406.963136 74.482508 
L 407.132544 74.448799 
L 408.120753 74.347673 
L 408.261925 74.313965 
L 408.403098 74.347673 
L 408.572505 74.313965 
L 409.588949 74.246547 
L 409.730122 74.17913 
L 409.899529 74.212839 
L 410.097171 74.145421 
L 410.266578 74.17913 
L 410.407751 74.111713 
L 410.435985 74.145421 
L 410.577158 74.145421 
L 410.746565 74.111713 
L 411.734775 74.010587 
L 411.875947 73.976878 
L 412.01712 74.010587 
L 412.186527 73.976878 
L 413.202971 73.909461 
L 413.344144 73.842043 
L 413.513551 73.875752 
L 413.682958 73.808335 
L 413.852365 73.842043 
L 414.755871 73.774626 
L 414.897044 73.707209 
L 416.026425 73.639791 
L 416.167598 73.572374 
L 416.337005 73.639791 
L 416.478178 73.572374 
L 417.60756 73.471248 
L 417.748733 73.437539 
L 417.889905 73.471248 
L 418.087547 73.403831 
L 419.555744 73.302705 
L 419.696916 73.268996 
L 419.838089 73.302705 
L 420.035731 73.235287 
L 421.108644 73.16787 
L 421.249816 73.100453 
L 421.419224 73.134161 
L 421.588631 73.100453 
L 422.689778 72.999327 
L 422.830951 72.965618 
L 423.000358 72.999327 
L 423.198 72.931909 
L 423.339173 72.965618 
L 423.50858 72.898201 
L 423.677987 72.931909 
L 423.847395 72.898201 
L 424.722665 72.830783 
L 424.863838 72.763366 
L 425.033245 72.797075 
L 425.202653 72.763366 
L 426.3038 72.695949 
L 426.444973 72.628531 
L 426.61438 72.66224 
L 426.812022 72.594823 
L 426.953195 72.628531 
L 427.122602 72.561114 
L 427.292009 72.594823 
L 427.489651 72.527405 
L 427.630824 72.561114 
L 427.800231 72.493697 
L 427.969638 72.527405 
L 428.139045 72.493697 
L 429.127255 72.426279 
L 429.268427 72.358862 
L 429.437835 72.392571 
L 429.607242 72.325153 
L 429.776649 72.358862 
L 430.595451 72.291445 
L 430.736624 72.224027 
L 430.906031 72.257736 
L 431.103673 72.190319 
L 431.244845 72.224027 
L 431.414253 72.15661 
L 431.58366 72.190319 
L 431.753067 72.15661 
L 432.741276 72.055484 
L 432.882449 72.021776 
L 433.051856 72.055484 
L 433.221264 72.021776 
L 434.209473 71.954358 
L 434.350645 71.886941 
L 434.520053 71.92065 
L 434.717695 71.853232 
L 434.887102 71.886941 
L 435.028275 71.819524 
L 435.056509 71.853232 
L 435.197682 71.853232 
L 435.367089 71.819524 
L 436.355298 71.718398 
L 436.496471 71.684689 
L 436.637644 71.718398 
L 436.807051 71.684689 
L 437.823495 71.617272 
L 437.964667 71.549854 
L 438.134075 71.583563 
L 438.331716 71.516146 
L 438.501124 71.549854 
L 438.642296 71.482437 
L 438.670531 71.516146 
L 438.811704 71.516146 
L 438.981111 71.482437 
L 440.082258 71.381311 
L 440.223431 71.347602 
L 440.364604 71.347602 
L 441.437516 71.280185 
L 441.578689 71.212768 
L 441.748096 71.246476 
L 441.917504 71.179059 
L 442.086911 71.212768 
L 442.990416 71.14535 
L 443.131589 71.077933 
L 444.373909 70.976807 
L 444.515082 70.943098 
L 444.656255 70.976807 
L 444.825662 70.943098 
L 445.842105 70.841972 
L 445.983278 70.808264 
L 446.124451 70.841972 
L 446.322093 70.774555 
L 447.790289 70.673429 
L 447.931462 70.63972 
L 448.072635 70.673429 
L 448.270276 70.606012 
L 448.411449 70.606012 
L 449.343189 70.538594 
L 449.484362 70.471177 
L 449.653769 70.504886 
L 449.823176 70.471177 
L 450.924324 70.370051 
L 451.065496 70.336342 
L 451.234904 70.370051 
L 451.432545 70.302634 
L 451.573718 70.336342 
L 451.743125 70.268925 
L 451.912533 70.302634 
L 452.08194 70.268925 
L 452.957211 70.201508 
L 453.098384 70.13409 
L 453.267791 70.167799 
L 453.437198 70.13409 
L 454.538345 70.066673 
L 454.679518 69.999256 
L 454.848925 70.032964 
L 455.046567 69.965547 
L 455.215975 69.999256 
L 455.357147 69.931838 
L 455.385382 69.965547 
L 456.486529 69.864421 
L 456.599467 69.797004 
L 456.627702 69.830712 
L 456.768875 69.864421 
L 456.938282 69.797004 
L 457.079455 69.797004 
L 458.152367 69.729586 
L 458.29354 69.662169 
L 458.462947 69.695878 
L 458.660589 69.62846 
L 458.829996 69.662169 
L 458.971169 69.594752 
L 458.999404 69.62846 
L 460.100551 69.527334 
L 460.241724 69.493626 
L 460.382896 69.527334 
L 460.552304 69.459917 
L 460.693476 69.459917 
L 461.766389 69.358791 
L 461.907562 69.325082 
L 462.048735 69.358791 
L 462.246376 69.291374 
L 462.415784 69.325082 
L 463.234585 69.223956 
L 463.375758 69.190248 
L 463.545165 69.223956 
L 463.742807 69.156539 
L 463.88398 69.190248 
L 464.053387 69.12283 
L 464.222795 69.156539 
L 464.392202 69.12283 
L 465.267473 69.055413 
L 465.408645 68.987996 
L 465.578053 69.021704 
L 465.74746 68.987996 
L 466.848607 68.920578 
L 466.98978 68.853161 
L 467.159187 68.88687 
L 467.356829 68.819452 
L 467.498002 68.853161 
L 467.667409 68.785744 
L 467.836816 68.819452 
L 468.006224 68.785744 
L 468.881495 68.718326 
L 469.022667 68.650909 
L 469.192075 68.718326 
L 469.248544 68.650909 
L 469.305013 68.684618 
L 469.530889 68.785744 
L 469.813235 68.954287 
L 470.067345 69.055413 
L 470.321456 69.190248 
L 470.547333 69.291374 
L 470.829678 69.459917 
L 471.055555 69.561043 
L 471.281431 69.662169 
L 471.479073 69.763295 
L 471.733184 69.89813 
L 471.930825 69.999256 
L 472.213171 70.167799 
L 472.467282 70.268925 
L 472.749627 70.437468 
L 472.975504 70.504886 
L 473.116676 70.606012 
L 473.342553 70.707138 
L 473.624898 70.875681 
L 473.879009 70.976807 
L 474.161355 71.14535 
L 474.387231 71.246476 
L 474.613107 71.347602 
L 474.838984 71.448728 
L 475.121329 71.617272 
L 475.37544 71.718398 
L 475.657785 71.886941 
L 475.883662 71.988067 
L 476.137773 72.122902 
L 476.335415 72.224027 
L 476.561291 72.325153 
L 476.787167 72.426279 
L 477.069513 72.594823 
L 477.295389 72.695949 
L 477.5495 72.830783 
L 477.747142 72.931909 
L 478.029487 73.100453 
L 478.283598 73.201579 
L 478.565944 73.370122 
L 478.820055 73.471248 
L 479.045931 73.572374 
L 479.243573 73.6735 
L 479.497684 73.808335 
L 479.695325 73.909461 
L 479.977671 74.078004 
L 480.231782 74.17913 
L 480.514127 74.347673 
L 480.740004 74.415091 
L 480.881176 74.516217 
L 481.107053 74.617343 
L 481.389398 74.785886 
L 481.643509 74.887012 
L 481.925855 75.055555 
L 482.151731 75.156681 
L 482.405842 75.291516 
L 482.659953 75.392642 
L 482.914064 75.527477 
L 483.13994 75.628603 
L 483.422285 75.797146 
L 483.648162 75.898272 
L 483.902273 76.033107 
L 484.099915 76.134233 
L 484.38226 76.302776 
L 484.636371 76.403902 
L 484.862247 76.505028 
L 485.059889 76.606154 
L 485.314 76.740989 
L 485.511642 76.842114 
L 485.793987 77.010658 
L 486.048098 77.111784 
L 486.330444 77.280327 
L 486.584555 77.381453 
L 486.8669 77.549996 
L 487.092776 77.617414 
L 487.233949 77.71854 
L 487.459825 77.819666 
L 487.742171 77.988209 
L 487.996282 78.089335 
L 488.278627 78.257878 
L 488.504504 78.359004 
L 488.73038 78.46013 
L 488.956256 78.561256 
L 489.238602 78.7298 
L 489.492713 78.830926 
L 489.775058 78.999469 
L 490.000935 79.100595 
L 490.255045 79.23543 
L 490.452687 79.336556 
L 490.735033 79.505099 
L 490.989144 79.606225 
L 491.21502 79.707351 
L 491.412662 79.808477 
L 491.666773 79.943312 
L 491.864415 80.044438 
L 492.14676 80.212981 
L 492.400871 80.314107 
L 492.683216 80.48265 
L 492.937327 80.583776 
L 493.163204 80.684902 
L 493.360845 80.786028 
L 493.614956 80.920863 
L 493.812598 81.021989 
L 494.094944 81.190532 
L 494.349055 81.291658 
L 494.6314 81.460201 
L 494.857276 81.561327 
L 495.083153 81.662453 
L 495.309029 81.763579 
L 495.591375 81.932123 
L 495.845485 82.033249 
L 496.127831 82.201792 
L 496.353707 82.302918 
L 496.607818 82.437753 
L 496.80546 82.538879 
L 497.031336 82.640005 
L 497.257213 82.741131 
L 497.539558 82.909674 
L 497.765435 83.0108 
L 498.019545 83.145635 
L 498.217187 83.246761 
L 498.499533 83.415304 
L 498.753644 83.51643 
L 498.97952 83.617556 
L 499.177162 83.718682 
L 499.431273 83.853517 
L 499.628915 83.954643 
L 499.91126 84.123186 
L 500.165371 84.224312 
L 500.447716 84.392855 
L 500.673593 84.493981 
L 500.899469 84.595107 
L 501.125345 84.696233 
L 501.407691 84.864777 
L 501.661802 84.965903 
L 501.944147 85.134446 
L 502.198258 85.235572 
L 502.480604 85.404115 
L 502.70648 85.505241 
L 502.960591 85.640076 
L 503.158233 85.707493 
L 503.299405 85.808619 
L 503.497047 85.909745 
L 503.751158 86.04458 
L 503.977035 86.145706 
L 504.231145 86.28054 
L 504.485256 86.381666 
L 504.767602 86.55021 
L 505.021713 86.651336 
L 505.304058 86.819879 
L 505.529935 86.921005 
L 505.784045 87.05584 
L 505.981687 87.156966 
L 506.264033 87.325509 
L 506.518144 87.426635 
L 506.800489 87.595178 
L 507.026365 87.662596 
L 507.167538 87.763722 
L 507.393415 87.864848 
L 507.67576 88.033391 
L 507.929871 88.134517 
L 508.212216 88.30306 
L 508.438093 88.404186 
L 508.663969 88.505312 
L 508.889845 88.606438 
L 509.172191 88.774982 
L 509.426302 88.876108 
L 509.708647 89.044651 
L 509.962758 89.145777 
L 510.245104 89.31432 
L 510.47098 89.415446 
L 510.725091 89.550281 
L 510.922733 89.651407 
L 511.148609 89.752533 
L 511.374485 89.853659 
L 511.656831 90.022202 
L 511.882707 90.123328 
L 512.136818 90.258163 
L 512.33446 90.359289 
L 512.616805 90.527832 
L 512.870916 90.628958 
L 513.153262 90.797501 
L 513.379138 90.864919 
L 513.520311 90.966045 
L 513.746187 91.067171 
L 514.028533 91.235714 
L 514.282644 91.33684 
L 514.564989 91.505383 
L 514.790865 91.606509 
L 515.016742 91.707635 
L 515.242618 91.808761 
L 515.524964 91.977305 
L 515.779075 92.078431 
L 516.06142 92.246974 
L 516.315531 92.3481 
L 516.597876 92.516643 
L 516.823753 92.617769 
L 517.077864 92.752604 
L 517.275505 92.85373 
L 517.501382 92.954856 
L 517.727258 93.055982 
L 518.009604 93.224525 
L 518.23548 93.325651 
L 518.489591 93.460486 
L 518.687233 93.561612 
L 518.969578 93.730155 
L 519.223689 93.831281 
L 519.449565 93.932407 
L 519.647207 94.033533 
L 519.901318 94.168368 
L 520.09896 94.269494 
L 520.381305 94.438037 
L 520.635416 94.539163 
L 520.917762 94.707707 
L 521.143638 94.775124 
L 521.284811 94.87625 
L 521.510687 94.977376 
L 521.793033 95.145919 
L 522.047144 95.247045 
L 522.329489 95.415588 
L 522.555365 95.516714 
L 522.809476 95.651549 
L 523.063587 95.752675 
L 523.317698 95.88751 
L 523.543575 95.988636 
L 523.82592 96.157179 
L 524.080031 96.258305 
L 524.362376 96.426848 
L 524.588253 96.527974 
L 524.842364 96.662809 
L 525.040005 96.763935 
L 525.265882 96.865061 
L 525.491758 96.966187 
L 525.774104 97.13473 
L 525.99998 97.235856 
L 526.254091 97.370691 
L 526.451733 97.471817 
L 526.734078 97.64036 
L 526.988189 97.741486 
L 527.270535 97.91003 
L 527.496411 97.977447 
L 527.637584 98.078573 
L 527.86346 98.179699 
L 528.145805 98.348242 
L 528.399916 98.449368 
L 528.682262 98.617912 
L 528.908138 98.719038 
L 529.134015 98.820164 
L 529.359891 98.92129 
L 529.642236 99.089833 
L 529.896347 99.190959 
L 530.178693 99.359502 
L 530.432804 99.460628 
L 530.715149 99.629172 
L 530.941025 99.730297 
L 531.195136 99.865132 
L 531.392778 99.966258 
L 531.618655 100.067384 
L 531.844531 100.16851 
L 532.126876 100.337053 
L 532.352753 100.438179 
L 532.606864 100.573014 
L 532.804505 100.67414 
L 533.086851 100.842683 
L 533.340962 100.943809 
L 533.566838 101.044935 
L 533.76448 101.146061 
L 534.018591 101.280896 
L 534.216233 101.382022 
L 534.498578 101.550565 
L 534.752689 101.651691 
L 535.035035 101.820235 
L 535.260911 101.921361 
L 535.486787 102.022487 
L 535.712664 102.123613 
L 535.995009 102.292156 
L 536.24912 102.393282 
L 536.531465 102.561825 
L 536.785576 102.662951 
L 537.067922 102.831495 
L 537.293798 102.932621 
L 537.547909 103.067455 
L 537.745551 103.134873 
L 537.886724 103.235999 
L 538.084365 103.337125 
L 538.338476 103.471959 
L 538.564353 103.573085 
L 538.818464 103.70792 
L 539.072575 103.809046 
L 539.35492 103.977589 
L 539.609031 104.078715 
L 539.891376 104.247259 
L 540.117253 104.348384 
L 540.371364 104.483219 
L 540.569005 104.584345 
L 540.851351 104.752888 
L 541.105462 104.854014 
L 541.387807 105.022558 
L 541.613684 105.089975 
L 541.754856 105.191101 
L 541.980733 105.292227 
L 542.263078 105.46077 
L 542.517189 105.561896 
L 542.799535 105.73044 
L 543.025411 105.831566 
L 543.251287 105.932692 
L 543.477164 106.033818 
L 543.759509 106.202361 
L 544.01362 106.303487 
L 544.295965 106.47203 
L 544.550076 106.573156 
L 544.832422 106.7417 
L 545.058298 106.842826 
L 545.312409 106.97766 
L 545.510051 107.078786 
L 545.735927 107.179912 
L 545.961804 107.281038 
L 546.244149 107.449582 
L 546.470025 107.550708 
L 546.724136 107.685542 
L 546.921778 107.786668 
L 547.204124 107.955212 
L 547.458235 108.056338 
L 547.74058 108.224881 
L 547.966456 108.292298 
L 548.107629 108.393424 
L 548.333505 108.49455 
L 548.615851 108.663094 
L 548.869962 108.76422 
L 549.152307 108.932763 
L 549.378184 109.033889 
L 549.60406 109.135015 
L 549.829936 109.236141 
L 550.112282 109.404684 
L 550.366393 109.50581 
L 550.648738 109.674353 
L 550.902849 109.775479 
L 551.185195 109.944023 
L 551.411071 110.045149 
L 551.665182 110.179983 
L 551.862824 110.281109 
L 552.0887 110.382235 
L 552.314576 110.483361 
L 552.596922 110.651905 
L 552.822798 110.753031 
L 553.076909 110.887865 
L 553.274551 110.988991 
L 553.556896 111.157535 
L 553.811007 111.258661 
L 554.036884 111.359787 
L 554.234525 111.460913 
L 554.488636 111.595747 
L 554.686278 111.696873 
L 554.968624 111.865417 
L 555.222735 111.966543 
L 555.50508 112.135086 
L 555.730956 112.202503 
L 555.872129 112.303629 
L 556.098005 112.404755 
L 556.380351 112.573299 
L 556.634462 112.674425 
L 556.916807 112.842968 
L 557.142684 112.944094 
L 557.396795 113.078929 
L 557.650905 113.180055 
L 557.905016 113.314889 
L 558.130893 113.416015 
L 558.413238 113.584558 
L 558.667349 113.685684 
L 558.949695 113.854228 
L 559.175571 113.955354 
L 559.429682 114.090188 
L 559.627324 114.191314 
L 559.8532 114.29244 
L 560.079076 114.393566 
L 560.361422 114.56211 
L 560.587298 114.663236 
L 560.841409 114.79807 
L 561.039051 114.899196 
L 561.321396 115.06774 
L 561.575507 115.168866 
L 561.857853 115.337409 
L 562.083729 115.404826 
L 562.224902 115.505952 
L 562.450778 115.607078 
L 562.733124 115.775622 
L 562.987235 115.876748 
L 563.26958 116.045291 
L 563.495456 116.146417 
L 563.721333 116.247543 
L 563.947209 116.348669 
L 564.229555 116.517212 
L 564.483665 116.618338 
L 564.766011 116.786882 
L 565.020122 116.888008 
L 565.302467 117.056551 
L 565.528344 117.157677 
L 565.782455 117.292512 
L 565.980096 117.393638 
L 566.205973 117.494764 
L 566.431849 117.59589 
L 566.714195 117.764433 
L 566.940071 117.865559 
L 567.194182 118.000394 
L 567.391824 118.101519 
L 567.674169 118.270063 
L 567.92828 118.371189 
L 568.154156 118.472315 
L 568.351798 118.573441 
L 568.605909 118.708275 
L 568.803551 118.809401 
L 569.085896 118.977945 
L 569.340007 119.079071 
L 569.622353 119.247614 
L 569.848229 119.315031 
L 569.989402 119.416157 
L 570.215278 119.517283 
L 570.497624 119.685827 
L 570.751735 119.786953 
L 571.03408 119.955496 
L 571.259956 120.056622 
L 571.514067 120.191457 
L 571.768178 120.292583 
L 572.022289 120.427417 
L 572.248165 120.528543 
L 572.530511 120.697087 
L 572.784622 120.798213 
L 573.066967 120.966756 
L 573.292844 121.067882 
L 573.546955 121.202717 
L 573.744596 121.303843 
L 573.970473 121.404969 
L 574.196349 121.506095 
L 574.478695 121.674638 
L 574.704571 121.775764 
L 574.958682 121.910599 
L 575.156324 122.011725 
L 575.438669 122.180268 
L 575.69278 122.281394 
L 575.975125 122.449937 
L 576.201002 122.517355 
L 576.342175 122.618481 
L 576.568051 122.719606 
L 576.850396 122.88815 
L 577.104507 122.989276 
L 577.386853 123.157819 
L 577.612729 123.258945 
L 577.838605 123.360071 
L 578.064482 123.461197 
L 578.346827 123.62974 
L 578.600938 123.730866 
L 578.883284 123.89941 
L 579.137395 124.000536 
L 579.41974 124.169079 
L 579.645616 124.270205 
L 579.899727 124.40504 
L 580.097369 124.506166 
L 580.323245 124.607292 
L 580.549122 124.708418 
L 580.831467 124.876961 
L 581.057344 124.978087 
L 581.311455 125.112922 
L 581.509096 125.214048 
L 581.791442 125.382591 
L 582.045553 125.483717 
L 582.271429 125.584843 
L 582.469071 125.685969 
L 582.723182 125.820804 
L 582.920824 125.92193 
L 583.203169 126.090473 
L 583.45728 126.191599 
L 583.739625 126.360142 
L 583.965502 126.461268 
L 584.191378 126.562394 
L 584.417255 126.66352 
L 584.6996 126.832064 
L 584.953711 126.93319 
L 585.236056 127.101733 
L 585.490167 127.202859 
L 585.772513 127.371402 
L 585.998389 127.472528 
L 586.2525 127.607363 
L 586.450142 127.67478 
L 586.591315 127.775906 
L 586.788956 127.877032 
L 587.043067 128.011867 
L 587.268944 128.112993 
L 587.523055 128.247827 
L 587.777165 128.348953 
L 588.059511 128.517497 
L 588.313622 128.618623 
L 588.595967 128.787166 
L 588.821844 128.888292 
L 589.075955 129.023127 
L 589.273596 129.124253 
L 589.555942 129.292796 
L 589.810053 129.393922 
L 590.092398 129.562465 
L 590.318275 129.629883 
L 590.459447 129.731009 
L 590.685324 129.832135 
L 590.967669 130.000678 
L 591.22178 130.101804 
L 591.504125 130.270347 
L 591.730002 130.371473 
L 591.955878 130.472599 
L 592.181755 130.573725 
L 592.4641 130.742269 
L 592.718211 130.843395 
L 593.000556 131.011938 
L 593.254667 131.113064 
L 593.537013 131.281607 
L 593.762889 131.382733 
L 594.017 131.517568 
L 594.214642 131.618694 
L 594.440518 131.71982 
L 594.666395 131.820946 
L 594.94874 131.989489 
L 595.174616 132.090615 
L 595.428727 132.22545 
L 595.626369 132.326576 
L 595.908715 132.495119 
L 596.162825 132.596245 
L 596.445171 132.764788 
L 596.671047 132.832206 
L 596.81222 132.933332 
L 597.038096 133.034458 
L 597.320442 133.203001 
L 597.574553 133.304127 
L 597.856898 133.47267 
L 598.082775 133.573796 
L 598.308651 133.674922 
L 598.534527 133.776048 
L 598.816873 133.944592 
L 599.070984 134.045718 
L 599.353329 134.214261 
L 599.60744 134.315387 
L 599.889785 134.48393 
L 600.115662 134.585056 
L 600.369773 134.719891 
L 600.567415 134.821017 
L 600.793291 134.922143 
L 601.019167 135.023269 
L 601.301513 135.191812 
L 601.527389 135.292938 
L 601.7815 135.427773 
L 601.979142 135.528899 
L 602.261487 135.697442 
L 602.515598 135.798568 
L 602.741475 135.899694 
L 602.939116 136.00082 
L 603.193227 136.135655 
L 603.390869 136.236781 
L 603.673215 136.405324 
L 603.927325 136.50645 
L 604.209671 136.674993 
L 604.435547 136.742411 
L 604.57672 136.843537 
L 604.802596 136.944663 
L 605.084942 137.113206 
L 605.339053 137.214332 
L 605.621398 137.382875 
L 605.847275 137.484001 
L 606.101385 137.618836 
L 606.355496 137.719962 
L 606.609607 137.854797 
L 606.835484 137.955923 
L 607.117829 138.124466 
L 607.37194 138.225592 
L 607.654285 138.394135 
L 607.880162 138.495261 
L 608.134273 138.630096 
L 608.331915 138.731222 
L 608.557791 138.832348 
L 608.783667 138.933474 
L 609.066013 139.102017 
L 609.291889 139.203143 
L 609.546 139.337978 
L 609.743642 139.439104 
L 610.025987 139.607647 
L 610.280098 139.708773 
L 610.562444 139.877317 
L 610.78832 139.944734 
L 610.929493 140.04586 
L 611.155369 140.146986 
L 611.437715 140.315529 
L 611.691825 140.416655 
L 611.974171 140.585199 
L 612.200047 140.686325 
L 612.425924 140.787451 
L 612.6518 140.888577 
L 612.934145 141.05712 
L 613.188256 141.158246 
L 613.470602 141.326789 
L 613.724713 141.427915 
L 614.007058 141.596458 
L 614.232935 141.697584 
L 614.487045 141.832419 
L 614.684687 141.933545 
L 614.910564 142.034671 
L 615.13644 142.135797 
L 615.418785 142.30434 
L 615.644662 142.405466 
L 615.898773 142.540301 
L 616.096415 142.641427 
L 616.37876 142.80997 
L 616.632871 142.911096 
L 616.858747 143.012222 
L 617.056389 143.113348 
L 617.3105 143.248183 
L 617.508142 143.349309 
L 617.790487 143.517852 
L 618.044598 143.618978 
L 618.326944 143.787522 
L 618.55282 143.888648 
L 618.778696 143.989774 
L 619.004573 144.0909 
L 619.286918 144.259443 
L 619.541029 144.360569 
L 619.823375 144.529112 
L 620.077485 144.630238 
L 620.359831 144.798782 
L 620.585707 144.899908 
L 620.839818 145.034742 
L 621.03746 145.10216 
L 621.178633 145.203286 
L 621.376275 145.304412 
L 621.630385 145.439246 
L 621.856262 145.540372 
L 622.110373 145.675207 
L 622.364484 145.776333 
L 622.646829 145.944876 
L 622.90094 146.046002 
L 623.183285 146.214545 
L 623.409162 146.315671 
L 623.663273 146.450506 
L 623.860915 146.551632 
L 624.14326 146.720175 
L 624.397371 146.821301 
L 624.679716 146.989845 
L 624.905593 147.057262 
L 625.046765 147.158388 
L 625.272642 147.259514 
L 625.554987 147.428057 
L 625.809098 147.529183 
L 626.091444 147.697727 
L 626.31732 147.798853 
L 626.543196 147.899979 
L 626.769073 148.001105 
L 627.051418 148.169648 
L 627.305529 148.270774 
L 627.587875 148.439317 
L 627.841985 148.540443 
L 628.124331 148.708987 
L 628.350207 148.810113 
L 628.604318 148.944947 
L 628.80196 149.046073 
L 629.027836 149.147199 
L 629.253713 149.248325 
L 629.536058 149.416869 
L 629.761935 149.517995 
L 630.016045 149.652829 
L 630.213687 149.753955 
L 630.496033 149.922499 
L 630.750144 150.023625 
L 630.97602 150.124751 
L 631.173662 150.225876 
L 631.427773 150.360711 
L 631.625415 150.461837 
L 631.90776 150.63038 
L 632.161871 150.731506 
L 632.444216 150.90005 
L 632.670093 151.001176 
L 632.895969 151.102302 
L 633.121845 151.203428 
L 633.404191 151.371971 
L 633.658302 151.473097 
L 633.940647 151.64164 
L 634.194758 151.742766 
L 634.477104 151.91131 
L 634.70298 152.012436 
L 634.957091 152.14727 
L 635.154733 152.214688 
L 635.295905 152.315814 
L 635.493547 152.41694 
L 635.747658 152.551774 
L 635.973535 152.6529 
L 636.227645 152.787735 
L 636.481756 152.888861 
L 636.764102 153.057404 
L 637.018213 153.15853 
L 637.300558 153.327074 
L 637.526435 153.4282 
L 637.780545 153.563034 
L 637.978187 153.66416 
L 638.260533 153.832704 
L 638.514644 153.93383 
L 638.796989 154.102373 
L 639.022865 154.16979 
L 639.164038 154.270916 
L 639.389915 154.372042 
L 639.67226 154.540586 
L 639.926371 154.641712 
L 640.208716 154.810255 
L 640.434593 154.911381 
L 640.660469 155.012507 
L 640.886345 155.113633 
L 641.168691 155.282176 
L 641.422802 155.383302 
L 641.705147 155.551845 
L 641.959258 155.652971 
L 642.241604 155.821515 
L 642.46748 155.922641 
L 642.721591 156.057475 
L 642.919233 156.158601 
L 643.145109 156.259727 
L 643.370985 156.360853 
L 643.653331 156.529397 
L 643.879207 156.630523 
L 644.133318 156.765357 
L 644.33096 156.866483 
L 644.613305 157.035027 
L 644.867416 157.136153 
L 645.149762 157.304696 
L 645.375638 157.372113 
L 645.516811 157.473239 
L 645.742687 157.574365 
L 646.025033 157.742909 
L 646.279144 157.844035 
L 646.561489 158.012578 
L 646.787365 158.113704 
L 647.013242 158.21483 
L 647.239118 158.315956 
L 647.521464 158.484499 
L 647.775575 158.585625 
L 648.05792 158.754169 
L 648.312031 158.855295 
L 648.594376 159.023838 
L 648.820253 159.124964 
L 649.074364 159.259799 
L 649.272005 159.360924 
L 649.497882 159.46205 
L 649.695524 159.563176 
L 649.949635 159.698011 
L 650.147276 159.799137 
L 650.429622 159.96768 
L 650.683733 160.068806 
L 650.966078 160.23735 
L 651.220189 160.338476 
L 651.446065 160.439602 
L 651.643707 160.540728 
L 651.897818 160.675562 
L 652.09546 160.776688 
L 652.377805 160.945232 
L 652.631916 161.046358 
L 652.914262 161.214901 
L 653.140138 161.282318 
L 653.281311 161.383444 
L 653.507187 161.48457 
L 653.789533 161.653114 
L 654.043644 161.75424 
L 654.325989 161.922783 
L 654.551865 162.023909 
L 654.805976 162.158744 
L 655.060087 162.25987 
L 655.314198 162.394704 
L 655.540075 162.49583 
L 655.82242 162.664374 
L 656.048296 162.7655 
L 656.302407 162.900334 
L 656.500049 163.00146 
L 656.782395 163.170004 
L 657.036505 163.27113 
L 657.262382 163.372256 
L 657.460024 163.473382 
L 657.714135 163.608216 
L 657.911776 163.709342 
L 658.194122 163.877886 
L 658.448233 163.979011 
L 658.730578 164.147555 
L 658.984689 164.248681 
L 659.267035 164.417224 
L 659.492911 164.484641 
L 659.634084 164.585767 
L 659.85996 164.686893 
L 660.142305 164.855437 
L 660.396416 164.956563 
L 660.678762 165.125106 
L 660.904638 165.226232 
L 661.130515 165.327358 
L 661.356391 165.428484 
L 661.638736 165.597027 
L 661.892847 165.698153 
L 662.175193 165.866697 
L 662.401069 165.967823 
L 662.65518 166.102657 
L 662.852822 166.203783 
L 663.135167 166.372327 
L 663.389278 166.473453 
L 663.615155 166.574579 
L 663.812796 166.675705 
L 664.066907 166.810539 
L 664.264549 166.911665 
L 664.546895 167.080209 
L 664.801005 167.181335 
L 665.083351 167.349878 
L 665.337462 167.451004 
L 665.563338 167.55213 
L 665.76098 167.653256 
L 666.015091 167.788091 
L 666.212733 167.889217 
L 666.495078 168.05776 
L 666.749189 168.158886 
L 667.031535 168.327429 
L 667.257411 168.428555 
L 667.483287 168.529681 
L 667.709164 168.630807 
L 667.991509 168.79935 
L 668.24562 168.900476 
L 668.527965 169.06902 
L 668.753842 169.170146 
L 669.007953 169.30498 
L 669.205595 169.406106 
L 669.431471 169.507232 
L 669.657347 169.608358 
L 669.939693 169.776902 
L 670.165569 169.878028 
L 670.41968 170.012862 
L 670.617322 170.113988 
L 670.899667 170.282532 
L 671.153778 170.383658 
L 671.436124 170.552201 
L 671.690235 170.653327 
L 671.916111 170.754453 
L 672.113753 170.855579 
L 672.367864 170.990414 
L 672.565505 171.09154 
L 672.847851 171.260083 
L 673.101962 171.361209 
L 673.384307 171.529752 
L 673.610184 171.59717 
L 673.751356 171.698296 
L 673.977233 171.799422 
L 674.259578 171.967965 
L 674.485455 172.069091 
L 674.485455 172.069091 
" style="fill:none;stroke:#1f77b4;stroke-linecap:square;stroke-width:1.5;"/>
   </g>
   <g id="patch_3">
    <path d="M 81.56 177.24 
L 81.56 63.48 
" style="fill:none;stroke:#000000;stroke-linecap:square;stroke-linejoin:miter;stroke-width:0.8;"/>
   </g>
   <g id="patch_4">
    <path d="M 702.72 177.24 
L 702.72 63.48 
" style="fill:none;stroke:#000000;stroke-linecap:square;stroke-linejoin:miter;stroke-width:0.8;"/>
   </g>
   <g id="patch_5">
    <path d="M 81.56 177.24 
L 702.72 177.24 
" style="fill:none;stroke:#000000;stroke-linecap:square;stroke-linejoin:miter;stroke-width:0.8;"/>
   </g>
   <g id="patch_6">
    <path d="M 81.56 63.48 
L 702.72 63.48 
" style="fill:none;stroke:#000000;stroke-linecap:square;stroke-linejoin:miter;stroke-width:0.8;"/>
   </g>
  </g>
  <g id="axes_2">
   <g id="patch_7">
    <path d="M 81.56 348.08 
L 702.72 348.08 
L 702.72 234.32 
L 81.56 234.32 
z
" style="fill:#ffffff;"/>
   </g>
   <g id="matplotlib.axis_3">
    <g id="xtick_10">
     <g id="line2d_14">
      <g>
       <use style="stroke:#000000;stroke-width:0.8;" x="109.794545" xlink:href="#mde8581cb05" y="348.08"/>
      </g>
     </g>
     <g id="text_16">
      <!-- 0 -->
      <g transform="translate(104.704545 367.2375)scale(0.16 -0.16)">
       <use xlink:href="#DejaVuSans-30"/>
      </g>
     </g>
    </g>
    <g id="xtick_11">
     <g id="line2d_15">
      <g>
       <use style="stroke:#000000;stroke-width:0.8;" x="180.380909" xlink:href="#mde8581cb05" y="348.08"/>
      </g>
     </g>
     <g id="text_17">
      <!-- 25 -->
      <g transform="translate(170.200909 367.2375)scale(0.16 -0.16)">
       <use xlink:href="#DejaVuSans-32"/>
       <use x="63.623047" xlink:href="#DejaVuSans-35"/>
      </g>
     </g>
    </g>
    <g id="xtick_12">
     <g id="line2d_16">
      <g>
       <use style="stroke:#000000;stroke-width:0.8;" x="250.967273" xlink:href="#mde8581cb05" y="348.08"/>
      </g>
     </g>
     <g id="text_18">
      <!-- 50 -->
      <g transform="translate(240.787273 367.2375)scale(0.16 -0.16)">
       <use xlink:href="#DejaVuSans-35"/>
       <use x="63.623047" xlink:href="#DejaVuSans-30"/>
      </g>
     </g>
    </g>
    <g id="xtick_13">
     <g id="line2d_17">
      <g>
       <use style="stroke:#000000;stroke-width:0.8;" x="321.553636" xlink:href="#mde8581cb05" y="348.08"/>
      </g>
     </g>
     <g id="text_19">
      <!-- 75 -->
      <g transform="translate(311.373636 367.2375)scale(0.16 -0.16)">
       <use xlink:href="#DejaVuSans-37"/>
       <use x="63.623047" xlink:href="#DejaVuSans-35"/>
      </g>
     </g>
    </g>
    <g id="xtick_14">
     <g id="line2d_18">
      <g>
       <use style="stroke:#000000;stroke-width:0.8;" x="392.14" xlink:href="#mde8581cb05" y="348.08"/>
      </g>
     </g>
     <g id="text_20">
      <!-- 100 -->
      <g transform="translate(376.87 367.2375)scale(0.16 -0.16)">
       <use xlink:href="#DejaVuSans-31"/>
       <use x="63.623047" xlink:href="#DejaVuSans-30"/>
       <use x="127.246094" xlink:href="#DejaVuSans-30"/>
      </g>
     </g>
    </g>
    <g id="xtick_15">
     <g id="line2d_19">
      <g>
       <use style="stroke:#000000;stroke-width:0.8;" x="462.726364" xlink:href="#mde8581cb05" y="348.08"/>
      </g>
     </g>
     <g id="text_21">
      <!-- 125 -->
      <g transform="translate(447.456364 367.2375)scale(0.16 -0.16)">
       <use xlink:href="#DejaVuSans-31"/>
       <use x="63.623047" xlink:href="#DejaVuSans-32"/>
       <use x="127.246094" xlink:href="#DejaVuSans-35"/>
      </g>
     </g>
    </g>
    <g id="xtick_16">
     <g id="line2d_20">
      <g>
       <use style="stroke:#000000;stroke-width:0.8;" x="533.312727" xlink:href="#mde8581cb05" y="348.08"/>
      </g>
     </g>
     <g id="text_22">
      <!-- 150 -->
      <g transform="translate(518.042727 367.2375)scale(0.16 -0.16)">
       <use xlink:href="#DejaVuSans-31"/>
       <use x="63.623047" xlink:href="#DejaVuSans-35"/>
       <use x="127.246094" xlink:href="#DejaVuSans-30"/>
      </g>
     </g>
    </g>
    <g id="xtick_17">
     <g id="line2d_21">
      <g>
       <use style="stroke:#000000;stroke-width:0.8;" x="603.899091" xlink:href="#mde8581cb05" y="348.08"/>
      </g>
     </g>
     <g id="text_23">
      <!-- 175 -->
      <g transform="translate(588.629091 367.2375)scale(0.16 -0.16)">
       <use xlink:href="#DejaVuSans-31"/>
       <use x="63.623047" xlink:href="#DejaVuSans-37"/>
       <use x="127.246094" xlink:href="#DejaVuSans-35"/>
      </g>
     </g>
    </g>
    <g id="xtick_18">
     <g id="line2d_22">
      <g>
       <use style="stroke:#000000;stroke-width:0.8;" x="674.485455" xlink:href="#mde8581cb05" y="348.08"/>
      </g>
     </g>
     <g id="text_24">
      <!-- 200 -->
      <g transform="translate(659.215455 367.2375)scale(0.16 -0.16)">
       <use xlink:href="#DejaVuSans-32"/>
       <use x="63.623047" xlink:href="#DejaVuSans-30"/>
       <use x="127.246094" xlink:href="#DejaVuSans-30"/>
      </g>
     </g>
    </g>
    <g id="text_25">
     <!-- Time [s] -->
     <g transform="translate(359.61375 386.7225)scale(0.16 -0.16)">
      <use xlink:href="#DejaVuSans-54"/>
      <use x="57.958984" xlink:href="#DejaVuSans-69"/>
      <use x="85.742188" xlink:href="#DejaVuSans-6d"/>
      <use x="183.154297" xlink:href="#DejaVuSans-65"/>
      <use x="244.677734" xlink:href="#DejaVuSans-20"/>
      <use x="276.464844" xlink:href="#DejaVuSans-5b"/>
      <use x="315.478516" xlink:href="#DejaVuSans-73"/>
      <use x="367.578125" xlink:href="#DejaVuSans-5d"/>
     </g>
    </g>
   </g>
   <g id="matplotlib.axis_4">
    <g id="ytick_4">
     <g id="line2d_23">
      <g>
       <use style="stroke:#000000;stroke-width:0.8;" x="81.56" xlink:href="#ma9753e1655" y="343.937564"/>
      </g>
     </g>
     <g id="text_26">
      <!-- −0.50 -->
      <g transform="translate(25.5275 350.016314)scale(0.16 -0.16)">
       <defs>
        <path d="M 684 794 
L 1344 794 
L 1344 0 
L 684 0 
L 684 794 
z
" id="DejaVuSans-2e" transform="scale(0.015625)"/>
       </defs>
       <use xlink:href="#DejaVuSans-2212"/>
       <use x="83.789062" xlink:href="#DejaVuSans-30"/>
       <use x="147.412109" xlink:href="#DejaVuSans-2e"/>
       <use x="179.199219" xlink:href="#DejaVuSans-35"/>
       <use x="242.822266" xlink:href="#DejaVuSans-30"/>
      </g>
     </g>
    </g>
    <g id="ytick_5">
     <g id="line2d_24">
      <g>
       <use style="stroke:#000000;stroke-width:0.8;" x="81.56" xlink:href="#ma9753e1655" y="304.200163"/>
      </g>
     </g>
     <g id="text_27">
      <!-- −0.25 -->
      <g transform="translate(25.5275 310.278913)scale(0.16 -0.16)">
       <use xlink:href="#DejaVuSans-2212"/>
       <use x="83.789062" xlink:href="#DejaVuSans-30"/>
       <use x="147.412109" xlink:href="#DejaVuSans-2e"/>
       <use x="179.199219" xlink:href="#DejaVuSans-32"/>
       <use x="242.822266" xlink:href="#DejaVuSans-35"/>
      </g>
     </g>
    </g>
    <g id="ytick_6">
     <g id="line2d_25">
      <g>
       <use style="stroke:#000000;stroke-width:0.8;" x="81.56" xlink:href="#ma9753e1655" y="264.462762"/>
      </g>
     </g>
     <g id="text_28">
      <!-- 0.00 -->
      <g transform="translate(38.935 270.541512)scale(0.16 -0.16)">
       <use xlink:href="#DejaVuSans-30"/>
       <use x="63.623047" xlink:href="#DejaVuSans-2e"/>
       <use x="95.410156" xlink:href="#DejaVuSans-30"/>
       <use x="159.033203" xlink:href="#DejaVuSans-30"/>
      </g>
     </g>
    </g>
    <g id="text_29">
     <!-- Position [m] -->
     <g transform="translate(18.2 338.92)rotate(-90)scale(0.16 -0.16)">
      <defs>
       <path d="M 1259 4147 
L 1259 2394 
L 2053 2394 
Q 2494 2394 2734 2622 
Q 2975 2850 2975 3272 
Q 2975 3691 2734 3919 
Q 2494 4147 2053 4147 
L 1259 4147 
z
M 628 4666 
L 2053 4666 
Q 2838 4666 3239 4311 
Q 3641 3956 3641 3272 
Q 3641 2581 3239 2228 
Q 2838 1875 2053 1875 
L 1259 1875 
L 1259 0 
L 628 0 
L 628 4666 
z
" id="DejaVuSans-50" transform="scale(0.015625)"/>
       <path d="M 1959 3097 
Q 1497 3097 1228 2736 
Q 959 2375 959 1747 
Q 959 1119 1226 758 
Q 1494 397 1959 397 
Q 2419 397 2687 759 
Q 2956 1122 2956 1747 
Q 2956 2369 2687 2733 
Q 2419 3097 1959 3097 
z
M 1959 3584 
Q 2709 3584 3137 3096 
Q 3566 2609 3566 1747 
Q 3566 888 3137 398 
Q 2709 -91 1959 -91 
Q 1206 -91 779 398 
Q 353 888 353 1747 
Q 353 2609 779 3096 
Q 1206 3584 1959 3584 
z
" id="DejaVuSans-6f" transform="scale(0.015625)"/>
       <path d="M 3513 2113 
L 3513 0 
L 2938 0 
L 2938 2094 
Q 2938 2591 2744 2837 
Q 2550 3084 2163 3084 
Q 1697 3084 1428 2787 
Q 1159 2491 1159 1978 
L 1159 0 
L 581 0 
L 581 3500 
L 1159 3500 
L 1159 2956 
Q 1366 3272 1645 3428 
Q 1925 3584 2291 3584 
Q 2894 3584 3203 3211 
Q 3513 2838 3513 2113 
z
" id="DejaVuSans-6e" transform="scale(0.015625)"/>
      </defs>
      <use xlink:href="#DejaVuSans-50"/>
      <use x="56.677734" xlink:href="#DejaVuSans-6f"/>
      <use x="117.859375" xlink:href="#DejaVuSans-73"/>
      <use x="169.958984" xlink:href="#DejaVuSans-69"/>
      <use x="197.742188" xlink:href="#DejaVuSans-74"/>
      <use x="236.951172" xlink:href="#DejaVuSans-69"/>
      <use x="264.734375" xlink:href="#DejaVuSans-6f"/>
      <use x="325.916016" xlink:href="#DejaVuSans-6e"/>
      <use x="389.294922" xlink:href="#DejaVuSans-20"/>
      <use x="421.082031" xlink:href="#DejaVuSans-5b"/>
      <use x="460.095703" xlink:href="#DejaVuSans-6d"/>
      <use x="557.507812" xlink:href="#DejaVuSans-5d"/>
     </g>
    </g>
   </g>
   <g id="line2d_26">
    <path clip-path="url(#p64a1d0caba)" d="M 109.794545 239.495016 
L 118.264909 239.60607 
L 126.791742 239.940699 
L 135.375044 240.500298 
L 144.099518 241.292877 
L 152.9934 242.325352 
L 162.113158 243.608881 
L 171.571731 245.166546 
L 181.453822 247.021735 
L 191.900604 249.211476 
L 203.194422 251.809336 
L 215.787029 254.939264 
L 230.807807 258.911407 
L 254.129542 265.343308 
L 278.524189 272.000851 
L 293.036745 275.72952 
L 305.318773 278.659735 
L 316.386715 281.074953 
L 326.664089 283.093052 
L 336.405007 284.781541 
L 345.750642 286.17758 
L 354.813931 287.307481 
L 363.651344 288.185761 
L 372.319349 288.824581 
L 380.874416 289.233047 
L 389.373015 289.416742 
L 397.843378 289.377946 
L 406.341976 289.116749 
L 414.897044 288.631314 
L 423.565049 287.916294 
L 432.402462 286.962905 
L 441.437516 285.763524 
L 450.754916 284.301506 
L 460.4676 282.550913 
L 470.71674 280.475186 
L 481.699978 278.020617 
L 493.784364 275.08776 
L 507.788698 271.452632 
L 526.508202 266.345034 
L 562.479013 256.495155 
L 576.680989 252.870481 
L 588.821844 249.997531 
L 599.805082 247.624192 
L 610.025987 245.640478 
L 619.738671 243.980338 
L 629.056071 242.612097 
L 638.091125 241.509238 
L 646.900304 240.657002 
L 655.568309 240.041418 
L 664.123376 239.656376 
L 672.621975 239.496222 
L 674.485455 239.490909 
L 674.485455 239.490909 
" style="fill:none;stroke:#1f77b4;stroke-linecap:square;stroke-width:1.5;"/>
   </g>
   <g id="line2d_27">
    <path clip-path="url(#p64a1d0caba)" d="M 109.794545 264.470606 
L 137.407931 275.85725 
L 152.202833 281.710073 
L 164.682502 286.41229 
L 175.919851 290.412046 
L 186.338398 293.887356 
L 196.192255 296.942652 
L 205.650827 299.64433 
L 214.79882 302.027297 
L 223.720936 304.122413 
L 232.473645 305.949768 
L 241.085182 307.521608 
L 249.640249 308.8577 
L 258.167082 309.964458 
L 266.693915 310.847361 
L 275.277216 311.512775 
L 283.973456 311.963348 
L 292.810869 312.19795 
L 301.874158 312.214781 
L 311.219793 312.008124 
L 320.960711 311.568065 
L 331.209851 310.880344 
L 342.221324 309.915626 
L 354.390413 308.621547 
L 368.592389 306.879717 
L 388.271867 304.220287 
L 419.696916 299.975061 
L 434.040065 298.280642 
L 446.209155 297.06326 
L 457.192393 296.185257 
L 467.413298 295.589092 
L 477.097747 295.244993 
L 486.415147 295.135364 
L 495.450202 295.25092 
L 504.25938 295.585043 
L 512.927385 296.135622 
L 521.510687 296.903634 
L 530.03752 297.889971 
L 538.564353 299.100739 
L 547.11942 300.540821 
L 555.730956 302.216017 
L 564.483665 304.146092 
L 573.405782 306.342493 
L 582.553775 308.824685 
L 592.012347 311.62295 
L 601.894438 314.78058 
L 612.34122 318.355102 
L 623.578569 322.439102 
L 636.001769 327.195778 
L 650.54256 333.010002 
L 670.758495 341.356303 
L 674.485455 342.909091 
L 674.485455 342.909091 
" style="fill:none;stroke:#ff7f0e;stroke-linecap:square;stroke-width:1.5;"/>
   </g>
   <g id="patch_8">
    <path d="M 81.56 348.08 
L 81.56 234.32 
" style="fill:none;stroke:#000000;stroke-linecap:square;stroke-linejoin:miter;stroke-width:0.8;"/>
   </g>
   <g id="patch_9">
    <path d="M 702.72 348.08 
L 702.72 234.32 
" style="fill:none;stroke:#000000;stroke-linecap:square;stroke-linejoin:miter;stroke-width:0.8;"/>
   </g>
   <g id="patch_10">
    <path d="M 81.56 348.08 
L 702.72 348.08 
" style="fill:none;stroke:#000000;stroke-linecap:square;stroke-linejoin:miter;stroke-width:0.8;"/>
   </g>
   <g id="patch_11">
    <path d="M 81.56 234.32 
L 702.72 234.32 
" style="fill:none;stroke:#000000;stroke-linecap:square;stroke-linejoin:miter;stroke-width:0.8;"/>
   </g>
   <g id="legend_1">
    <g id="patch_12">
     <path d="M 592.0675 317.53 
L 691.52 317.53 
Q 694.72 317.53 694.72 314.33 
L 694.72 268.07 
Q 694.72 264.87 691.52 264.87 
L 592.0675 264.87 
Q 588.8675 264.87 588.8675 268.07 
L 588.8675 314.33 
Q 588.8675 317.53 592.0675 317.53 
z
" style="fill:#ffffff;opacity:0.8;stroke:#cccccc;stroke-linejoin:miter;"/>
    </g>
    <g id="line2d_28">
     <path d="M 595.2675 277.8275 
L 627.2675 277.8275 
" style="fill:none;stroke:#1f77b4;stroke-linecap:square;stroke-width:1.5;"/>
    </g>
    <g id="line2d_29"/>
    <g id="text_30">
     <!-- pos_E -->
     <g transform="translate(640.0675 283.4275)scale(0.16 -0.16)">
      <defs>
       <path d="M 1159 525 
L 1159 -1331 
L 581 -1331 
L 581 3500 
L 1159 3500 
L 1159 2969 
Q 1341 3281 1617 3432 
Q 1894 3584 2278 3584 
Q 2916 3584 3314 3078 
Q 3713 2572 3713 1747 
Q 3713 922 3314 415 
Q 2916 -91 2278 -91 
Q 1894 -91 1617 61 
Q 1341 213 1159 525 
z
M 3116 1747 
Q 3116 2381 2855 2742 
Q 2594 3103 2138 3103 
Q 1681 3103 1420 2742 
Q 1159 2381 1159 1747 
Q 1159 1113 1420 752 
Q 1681 391 2138 391 
Q 2594 391 2855 752 
Q 3116 1113 3116 1747 
z
" id="DejaVuSans-70" transform="scale(0.015625)"/>
       <path d="M 3263 -1063 
L 3263 -1509 
L -63 -1509 
L -63 -1063 
L 3263 -1063 
z
" id="DejaVuSans-5f" transform="scale(0.015625)"/>
       <path d="M 628 4666 
L 3578 4666 
L 3578 4134 
L 1259 4134 
L 1259 2753 
L 3481 2753 
L 3481 2222 
L 1259 2222 
L 1259 531 
L 3634 531 
L 3634 0 
L 628 0 
L 628 4666 
z
" id="DejaVuSans-45" transform="scale(0.015625)"/>
      </defs>
      <use xlink:href="#DejaVuSans-70"/>
      <use x="63.476562" xlink:href="#DejaVuSans-6f"/>
      <use x="124.658203" xlink:href="#DejaVuSans-73"/>
      <use x="176.757812" xlink:href="#DejaVuSans-5f"/>
      <use x="226.757812" xlink:href="#DejaVuSans-45"/>
     </g>
    </g>
    <g id="line2d_30">
     <path d="M 595.2675 301.7575 
L 627.2675 301.7575 
" style="fill:none;stroke:#ff7f0e;stroke-linecap:square;stroke-width:1.5;"/>
    </g>
    <g id="line2d_31"/>
    <g id="text_31">
     <!-- pos_N -->
     <g transform="translate(640.0675 307.3575)scale(0.16 -0.16)">
      <defs>
       <path d="M 628 4666 
L 1478 4666 
L 3547 763 
L 3547 4666 
L 4159 4666 
L 4159 0 
L 3309 0 
L 1241 3903 
L 1241 0 
L 628 0 
L 628 4666 
z
" id="DejaVuSans-4e" transform="scale(0.015625)"/>
      </defs>
      <use xlink:href="#DejaVuSans-70"/>
      <use x="63.476562" xlink:href="#DejaVuSans-6f"/>
      <use x="124.658203" xlink:href="#DejaVuSans-73"/>
      <use x="176.757812" xlink:href="#DejaVuSans-5f"/>
      <use x="226.757812" xlink:href="#DejaVuSans-4e"/>
     </g>
    </g>
   </g>
  </g>
  <g id="axes_3">
   <g id="patch_13">
    <path d="M 81.56 518.92 
L 702.72 518.92 
L 702.72 405.16 
L 81.56 405.16 
z
" style="fill:#ffffff;"/>
   </g>
   <g id="matplotlib.axis_5">
    <g id="xtick_19">
     <g id="line2d_32">
      <g>
       <use style="stroke:#000000;stroke-width:0.8;" x="109.794545" xlink:href="#mde8581cb05" y="518.92"/>
      </g>
     </g>
     <g id="text_32">
      <!-- 0 -->
      <g transform="translate(104.704545 538.0775)scale(0.16 -0.16)">
       <use xlink:href="#DejaVuSans-30"/>
      </g>
     </g>
    </g>
    <g id="xtick_20">
     <g id="line2d_33">
      <g>
       <use style="stroke:#000000;stroke-width:0.8;" x="180.380909" xlink:href="#mde8581cb05" y="518.92"/>
      </g>
     </g>
     <g id="text_33">
      <!-- 25 -->
      <g transform="translate(170.200909 538.0775)scale(0.16 -0.16)">
       <use xlink:href="#DejaVuSans-32"/>
       <use x="63.623047" xlink:href="#DejaVuSans-35"/>
      </g>
     </g>
    </g>
    <g id="xtick_21">
     <g id="line2d_34">
      <g>
       <use style="stroke:#000000;stroke-width:0.8;" x="250.967273" xlink:href="#mde8581cb05" y="518.92"/>
      </g>
     </g>
     <g id="text_34">
      <!-- 50 -->
      <g transform="translate(240.787273 538.0775)scale(0.16 -0.16)">
       <use xlink:href="#DejaVuSans-35"/>
       <use x="63.623047" xlink:href="#DejaVuSans-30"/>
      </g>
     </g>
    </g>
    <g id="xtick_22">
     <g id="line2d_35">
      <g>
       <use style="stroke:#000000;stroke-width:0.8;" x="321.553636" xlink:href="#mde8581cb05" y="518.92"/>
      </g>
     </g>
     <g id="text_35">
      <!-- 75 -->
      <g transform="translate(311.373636 538.0775)scale(0.16 -0.16)">
       <use xlink:href="#DejaVuSans-37"/>
       <use x="63.623047" xlink:href="#DejaVuSans-35"/>
      </g>
     </g>
    </g>
    <g id="xtick_23">
     <g id="line2d_36">
      <g>
       <use style="stroke:#000000;stroke-width:0.8;" x="392.14" xlink:href="#mde8581cb05" y="518.92"/>
      </g>
     </g>
     <g id="text_36">
      <!-- 100 -->
      <g transform="translate(376.87 538.0775)scale(0.16 -0.16)">
       <use xlink:href="#DejaVuSans-31"/>
       <use x="63.623047" xlink:href="#DejaVuSans-30"/>
       <use x="127.246094" xlink:href="#DejaVuSans-30"/>
      </g>
     </g>
    </g>
    <g id="xtick_24">
     <g id="line2d_37">
      <g>
       <use style="stroke:#000000;stroke-width:0.8;" x="462.726364" xlink:href="#mde8581cb05" y="518.92"/>
      </g>
     </g>
     <g id="text_37">
      <!-- 125 -->
      <g transform="translate(447.456364 538.0775)scale(0.16 -0.16)">
       <use xlink:href="#DejaVuSans-31"/>
       <use x="63.623047" xlink:href="#DejaVuSans-32"/>
       <use x="127.246094" xlink:href="#DejaVuSans-35"/>
      </g>
     </g>
    </g>
    <g id="xtick_25">
     <g id="line2d_38">
      <g>
       <use style="stroke:#000000;stroke-width:0.8;" x="533.312727" xlink:href="#mde8581cb05" y="518.92"/>
      </g>
     </g>
     <g id="text_38">
      <!-- 150 -->
      <g transform="translate(518.042727 538.0775)scale(0.16 -0.16)">
       <use xlink:href="#DejaVuSans-31"/>
       <use x="63.623047" xlink:href="#DejaVuSans-35"/>
       <use x="127.246094" xlink:href="#DejaVuSans-30"/>
      </g>
     </g>
    </g>
    <g id="xtick_26">
     <g id="line2d_39">
      <g>
       <use style="stroke:#000000;stroke-width:0.8;" x="603.899091" xlink:href="#mde8581cb05" y="518.92"/>
      </g>
     </g>
     <g id="text_39">
      <!-- 175 -->
      <g transform="translate(588.629091 538.0775)scale(0.16 -0.16)">
       <use xlink:href="#DejaVuSans-31"/>
       <use x="63.623047" xlink:href="#DejaVuSans-37"/>
       <use x="127.246094" xlink:href="#DejaVuSans-35"/>
      </g>
     </g>
    </g>
    <g id="xtick_27">
     <g id="line2d_40">
      <g>
       <use style="stroke:#000000;stroke-width:0.8;" x="674.485455" xlink:href="#mde8581cb05" y="518.92"/>
      </g>
     </g>
     <g id="text_40">
      <!-- 200 -->
      <g transform="translate(659.215455 538.0775)scale(0.16 -0.16)">
       <use xlink:href="#DejaVuSans-32"/>
       <use x="63.623047" xlink:href="#DejaVuSans-30"/>
       <use x="127.246094" xlink:href="#DejaVuSans-30"/>
      </g>
     </g>
    </g>
    <g id="text_41">
     <!-- Time [s] -->
     <g transform="translate(359.61375 557.5625)scale(0.16 -0.16)">
      <use xlink:href="#DejaVuSans-54"/>
      <use x="57.958984" xlink:href="#DejaVuSans-69"/>
      <use x="85.742188" xlink:href="#DejaVuSans-6d"/>
      <use x="183.154297" xlink:href="#DejaVuSans-65"/>
      <use x="244.677734" xlink:href="#DejaVuSans-20"/>
      <use x="276.464844" xlink:href="#DejaVuSans-5b"/>
      <use x="315.478516" xlink:href="#DejaVuSans-73"/>
      <use x="367.578125" xlink:href="#DejaVuSans-5d"/>
     </g>
    </g>
   </g>
   <g id="matplotlib.axis_6">
    <g id="ytick_7">
     <g id="line2d_41">
      <g>
       <use style="stroke:#000000;stroke-width:0.8;" x="81.56" xlink:href="#ma9753e1655" y="476.158629"/>
      </g>
     </g>
     <g id="text_42">
      <!-- −10 -->
      <g transform="translate(40.7925 482.237379)scale(0.16 -0.16)">
       <use xlink:href="#DejaVuSans-2212"/>
       <use x="83.789062" xlink:href="#DejaVuSans-31"/>
       <use x="147.412109" xlink:href="#DejaVuSans-30"/>
      </g>
     </g>
    </g>
    <g id="ytick_8">
     <g id="line2d_42">
      <g>
       <use style="stroke:#000000;stroke-width:0.8;" x="81.56" xlink:href="#ma9753e1655" y="410.330909"/>
      </g>
     </g>
     <g id="text_43">
      <!-- 0 -->
      <g transform="translate(64.38 416.409659)scale(0.16 -0.16)">
       <use xlink:href="#DejaVuSans-30"/>
      </g>
     </g>
    </g>
    <g id="text_44">
     <!-- Velocity [m/s] -->
     <g transform="translate(18.2 516.865)rotate(-90)scale(0.16 -0.16)">
      <defs>
       <path d="M 1831 0 
L 50 4666 
L 709 4666 
L 2188 738 
L 3669 4666 
L 4325 4666 
L 2547 0 
L 1831 0 
z
" id="DejaVuSans-56" transform="scale(0.015625)"/>
       <path d="M 603 4863 
L 1178 4863 
L 1178 0 
L 603 0 
L 603 4863 
z
" id="DejaVuSans-6c" transform="scale(0.015625)"/>
       <path d="M 3122 3366 
L 3122 2828 
Q 2878 2963 2633 3030 
Q 2388 3097 2138 3097 
Q 1578 3097 1268 2742 
Q 959 2388 959 1747 
Q 959 1106 1268 751 
Q 1578 397 2138 397 
Q 2388 397 2633 464 
Q 2878 531 3122 666 
L 3122 134 
Q 2881 22 2623 -34 
Q 2366 -91 2075 -91 
Q 1284 -91 818 406 
Q 353 903 353 1747 
Q 353 2603 823 3093 
Q 1294 3584 2113 3584 
Q 2378 3584 2631 3529 
Q 2884 3475 3122 3366 
z
" id="DejaVuSans-63" transform="scale(0.015625)"/>
       <path d="M 2059 -325 
Q 1816 -950 1584 -1140 
Q 1353 -1331 966 -1331 
L 506 -1331 
L 506 -850 
L 844 -850 
Q 1081 -850 1212 -737 
Q 1344 -625 1503 -206 
L 1606 56 
L 191 3500 
L 800 3500 
L 1894 763 
L 2988 3500 
L 3597 3500 
L 2059 -325 
z
" id="DejaVuSans-79" transform="scale(0.015625)"/>
       <path d="M 1625 4666 
L 2156 4666 
L 531 -594 
L 0 -594 
L 1625 4666 
z
" id="DejaVuSans-2f" transform="scale(0.015625)"/>
      </defs>
      <use xlink:href="#DejaVuSans-56"/>
      <use x="60.658203" xlink:href="#DejaVuSans-65"/>
      <use x="122.181641" xlink:href="#DejaVuSans-6c"/>
      <use x="149.964844" xlink:href="#DejaVuSans-6f"/>
      <use x="211.146484" xlink:href="#DejaVuSans-63"/>
      <use x="266.126953" xlink:href="#DejaVuSans-69"/>
      <use x="293.910156" xlink:href="#DejaVuSans-74"/>
      <use x="333.119141" xlink:href="#DejaVuSans-79"/>
      <use x="392.298828" xlink:href="#DejaVuSans-20"/>
      <use x="424.085938" xlink:href="#DejaVuSans-5b"/>
      <use x="463.099609" xlink:href="#DejaVuSans-6d"/>
      <use x="560.511719" xlink:href="#DejaVuSans-2f"/>
      <use x="594.203125" xlink:href="#DejaVuSans-73"/>
      <use x="646.302734" xlink:href="#DejaVuSans-5d"/>
     </g>
    </g>
   </g>
   <g id="line2d_43">
    <path clip-path="url(#pe01e98d90e)" d="M 109.794545 513.732849 
L 674.485455 513.732849 
L 674.485455 513.732849 
" style="fill:none;stroke:#1f77b4;stroke-linecap:square;stroke-width:1.5;"/>
   </g>
   <g id="line2d_44">
    <path clip-path="url(#pe01e98d90e)" d="M 109.794545 410.363394 
L 674.485455 410.363394 
L 674.485455 410.363394 
" style="fill:none;stroke:#ff7f0e;stroke-linecap:square;stroke-width:1.5;"/>
   </g>
   <g id="patch_14">
    <path d="M 81.56 518.92 
L 81.56 405.16 
" style="fill:none;stroke:#000000;stroke-linecap:square;stroke-linejoin:miter;stroke-width:0.8;"/>
   </g>
   <g id="patch_15">
    <path d="M 702.72 518.92 
L 702.72 405.16 
" style="fill:none;stroke:#000000;stroke-linecap:square;stroke-linejoin:miter;stroke-width:0.8;"/>
   </g>
   <g id="patch_16">
    <path d="M 81.56 518.92 
L 702.72 518.92 
" style="fill:none;stroke:#000000;stroke-linecap:square;stroke-linejoin:miter;stroke-width:0.8;"/>
   </g>
   <g id="patch_17">
    <path d="M 81.56 405.16 
L 702.72 405.16 
" style="fill:none;stroke:#000000;stroke-linecap:square;stroke-linejoin:miter;stroke-width:0.8;"/>
   </g>
   <g id="legend_2">
    <g id="patch_18">
     <path d="M 596.59 465.82 
L 691.52 465.82 
Q 694.72 465.82 694.72 462.62 
L 694.72 416.36 
Q 694.72 413.16 691.52 413.16 
L 596.59 413.16 
Q 593.39 413.16 593.39 416.36 
L 593.39 462.62 
Q 593.39 465.82 596.59 465.82 
z
" style="fill:#ffffff;opacity:0.8;stroke:#cccccc;stroke-linejoin:miter;"/>
    </g>
    <g id="line2d_45">
     <path d="M 599.79 426.1175 
L 631.79 426.1175 
" style="fill:none;stroke:#1f77b4;stroke-linecap:square;stroke-width:1.5;"/>
    </g>
    <g id="line2d_46"/>
    <g id="text_45">
     <!-- vel_E -->
     <g transform="translate(644.59 431.7175)scale(0.16 -0.16)">
      <defs>
       <path d="M 191 3500 
L 800 3500 
L 1894 563 
L 2988 3500 
L 3597 3500 
L 2284 0 
L 1503 0 
L 191 3500 
z
" id="DejaVuSans-76" transform="scale(0.015625)"/>
      </defs>
      <use xlink:href="#DejaVuSans-76"/>
      <use x="59.179688" xlink:href="#DejaVuSans-65"/>
      <use x="120.703125" xlink:href="#DejaVuSans-6c"/>
      <use x="148.486328" xlink:href="#DejaVuSans-5f"/>
      <use x="198.486328" xlink:href="#DejaVuSans-45"/>
     </g>
    </g>
    <g id="line2d_47">
     <path d="M 599.79 450.0475 
L 631.79 450.0475 
" style="fill:none;stroke:#ff7f0e;stroke-linecap:square;stroke-width:1.5;"/>
    </g>
    <g id="line2d_48"/>
    <g id="text_46">
     <!-- vel_N -->
     <g transform="translate(644.59 455.6475)scale(0.16 -0.16)">
      <use xlink:href="#DejaVuSans-76"/>
      <use x="59.179688" xlink:href="#DejaVuSans-65"/>
      <use x="120.703125" xlink:href="#DejaVuSans-6c"/>
      <use x="148.486328" xlink:href="#DejaVuSans-5f"/>
      <use x="198.486328" xlink:href="#DejaVuSans-4e"/>
     </g>
    </g>
   </g>
  </g>
  <g id="text_47">
   <!-- Deviation from true trajectory (PVA) -->
   <g transform="translate(216.10625 23.6775)scale(0.16 -0.16)">
    <defs>
     <path d="M 1259 4147 
L 1259 519 
L 2022 519 
Q 2988 519 3436 956 
Q 3884 1394 3884 2338 
Q 3884 3275 3436 3711 
Q 2988 4147 2022 4147 
L 1259 4147 
z
M 628 4666 
L 1925 4666 
Q 3281 4666 3915 4102 
Q 4550 3538 4550 2338 
Q 4550 1131 3912 565 
Q 3275 0 1925 0 
L 628 0 
L 628 4666 
z
" id="DejaVuSans-44" transform="scale(0.015625)"/>
     <path d="M 2375 4863 
L 2375 4384 
L 1825 4384 
Q 1516 4384 1395 4259 
Q 1275 4134 1275 3809 
L 1275 3500 
L 2222 3500 
L 2222 3053 
L 1275 3053 
L 1275 0 
L 697 0 
L 697 3053 
L 147 3053 
L 147 3500 
L 697 3500 
L 697 3744 
Q 697 4328 969 4595 
Q 1241 4863 1831 4863 
L 2375 4863 
z
" id="DejaVuSans-66" transform="scale(0.015625)"/>
     <path d="M 603 3500 
L 1178 3500 
L 1178 -63 
Q 1178 -731 923 -1031 
Q 669 -1331 103 -1331 
L -116 -1331 
L -116 -844 
L 38 -844 
Q 366 -844 484 -692 
Q 603 -541 603 -63 
L 603 3500 
z
M 603 4863 
L 1178 4863 
L 1178 4134 
L 603 4134 
L 603 4863 
z
" id="DejaVuSans-6a" transform="scale(0.015625)"/>
     <path d="M 1984 4856 
Q 1566 4138 1362 3434 
Q 1159 2731 1159 2009 
Q 1159 1288 1364 580 
Q 1569 -128 1984 -844 
L 1484 -844 
Q 1016 -109 783 600 
Q 550 1309 550 2009 
Q 550 2706 781 3412 
Q 1013 4119 1484 4856 
L 1984 4856 
z
" id="DejaVuSans-28" transform="scale(0.015625)"/>
     <path d="M 513 4856 
L 1013 4856 
Q 1481 4119 1714 3412 
Q 1947 2706 1947 2009 
Q 1947 1309 1714 600 
Q 1481 -109 1013 -844 
L 513 -844 
Q 928 -128 1133 580 
Q 1338 1288 1338 2009 
Q 1338 2731 1133 3434 
Q 928 4138 513 4856 
z
" id="DejaVuSans-29" transform="scale(0.015625)"/>
    </defs>
    <use xlink:href="#DejaVuSans-44"/>
    <use x="77.001953" xlink:href="#DejaVuSans-65"/>
    <use x="138.525391" xlink:href="#DejaVuSans-76"/>
    <use x="197.705078" xlink:href="#DejaVuSans-69"/>
    <use x="225.488281" xlink:href="#DejaVuSans-61"/>
    <use x="286.767578" xlink:href="#DejaVuSans-74"/>
    <use x="325.976562" xlink:href="#DejaVuSans-69"/>
    <use x="353.759766" xlink:href="#DejaVuSans-6f"/>
    <use x="414.941406" xlink:href="#DejaVuSans-6e"/>
    <use x="478.320312" xlink:href="#DejaVuSans-20"/>
    <use x="510.107422" xlink:href="#DejaVuSans-66"/>
    <use x="545.3125" xlink:href="#DejaVuSans-72"/>
    <use x="584.175781" xlink:href="#DejaVuSans-6f"/>
    <use x="645.357422" xlink:href="#DejaVuSans-6d"/>
    <use x="742.769531" xlink:href="#DejaVuSans-20"/>
    <use x="774.556641" xlink:href="#DejaVuSans-74"/>
    <use x="813.765625" xlink:href="#DejaVuSans-72"/>
    <use x="854.878906" xlink:href="#DejaVuSans-75"/>
    <use x="918.257812" xlink:href="#DejaVuSans-65"/>
    <use x="979.78125" xlink:href="#DejaVuSans-20"/>
    <use x="1011.568359" xlink:href="#DejaVuSans-74"/>
    <use x="1050.777344" xlink:href="#DejaVuSans-72"/>
    <use x="1091.890625" xlink:href="#DejaVuSans-61"/>
    <use x="1153.169922" xlink:href="#DejaVuSans-6a"/>
    <use x="1180.953125" xlink:href="#DejaVuSans-65"/>
    <use x="1242.476562" xlink:href="#DejaVuSans-63"/>
    <use x="1297.457031" xlink:href="#DejaVuSans-74"/>
    <use x="1336.666016" xlink:href="#DejaVuSans-6f"/>
    <use x="1397.847656" xlink:href="#DejaVuSans-72"/>
    <use x="1438.960938" xlink:href="#DejaVuSans-79"/>
    <use x="1498.140625" xlink:href="#DejaVuSans-20"/>
    <use x="1529.927734" xlink:href="#DejaVuSans-28"/>
    <use x="1568.941406" xlink:href="#DejaVuSans-50"/>
    <use x="1629.244141" xlink:href="#DejaVuSans-56"/>
    <use x="1691.277344" xlink:href="#DejaVuSans-41"/>
    <use x="1759.685547" xlink:href="#DejaVuSans-29"/>
   </g>
  </g>
 </g>
 <defs>
  <clipPath id="p2a18c92418">
   <rect height="113.76" width="621.16" x="81.56" y="63.48"/>
  </clipPath>
  <clipPath id="p64a1d0caba">
   <rect height="113.76" width="621.16" x="81.56" y="234.32"/>
  </clipPath>
  <clipPath id="pe01e98d90e">
   <rect height="113.76" width="621.16" x="81.56" y="405.16"/>
  </clipPath>
 </defs>
</svg>
