<?xml version="1.0" encoding="utf-8" standalone="no"?>
<!DOCTYPE svg PUBLIC "-//W3C//DTD SVG 1.1//EN"
  "http://www.w3.org/Graphics/SVG/1.1/DTD/svg11.dtd">
<svg xmlns:xlink="http://www.w3.org/1999/xlink" width="720pt" height="720pt" viewBox="0 0 720 720" xmlns="http://www.w3.org/2000/svg" version="1.1">
 <metadata>
  <rdf:RDF xmlns:dc="http://purl.org/dc/elements/1.1/" xmlns:cc="http://creativecommons.org/ns#" xmlns:rdf="http://www.w3.org/1999/02/22-rdf-syntax-ns#">
   <cc:Work>
    <dc:type rdf:resource="http://purl.org/dc/dcmitype/StillImage"/>
    <dc:date>2024-03-06T11:35:44.711758</dc:date>
    <dc:format>image/svg+xml</dc:format>
    <dc:creator>
     <cc:Agent>
      <dc:title>Matplotlib v3.8.3, https://matplotlib.org/</dc:title>
     </cc:Agent>
    </dc:creator>
   </cc:Work>
  </rdf:RDF>
 </metadata>
 <defs>
  <style type="text/css">*{stroke-linejoin: round; stroke-linecap: butt}</style>
 </defs>
 <g id="figure_1">
  <g id="patch_1">
   <path d="M 0 720 
L 720 720 
L 720 0 
L 0 0 
z
" style="fill: #ffffff"/>
  </g>
  <g id="axes_1">
   <g id="patch_2">
    <path d="M 38.628365 167.090552 
L 716.99976 167.090552 
L 716.99976 35.732595 
L 38.628365 35.732595 
z
" style="fill: #ffffff"/>
   </g>
   <g id="matplotlib.axis_1">
    <g id="xtick_1">
     <g id="line2d_1">
      <defs>
       <path id="md0949d80bb" d="M 0 0 
L 0 3.5 
" style="stroke: #000000; stroke-width: 0.8"/>
      </defs>
      <g>
       <use xlink:href="#md0949d80bb" x="131.375399" y="167.090552" style="stroke: #000000; stroke-width: 0.8"/>
      </g>
     </g>
     <g id="text_1">
      <!-- −0.4 -->
      <g transform="translate(119.233993 181.688989) scale(0.1 -0.1)">
       <defs>
        <path id="DejaVuSans-2212" d="M 678 2272 
L 4684 2272 
L 4684 1741 
L 678 1741 
L 678 2272 
z
" transform="scale(0.015625)"/>
        <path id="DejaVuSans-30" d="M 2034 4250 
Q 1547 4250 1301 3770 
Q 1056 3291 1056 2328 
Q 1056 1369 1301 889 
Q 1547 409 2034 409 
Q 2525 409 2770 889 
Q 3016 1369 3016 2328 
Q 3016 3291 2770 3770 
Q 2525 4250 2034 4250 
z
M 2034 4750 
Q 2819 4750 3233 4129 
Q 3647 3509 3647 2328 
Q 3647 1150 3233 529 
Q 2819 -91 2034 -91 
Q 1250 -91 836 529 
Q 422 1150 422 2328 
Q 422 3509 836 4129 
Q 1250 4750 2034 4750 
z
" transform="scale(0.015625)"/>
        <path id="DejaVuSans-2e" d="M 684 794 
L 1344 794 
L 1344 0 
L 684 0 
L 684 794 
z
" transform="scale(0.015625)"/>
        <path id="DejaVuSans-34" d="M 2419 4116 
L 825 1625 
L 2419 1625 
L 2419 4116 
z
M 2253 4666 
L 3047 4666 
L 3047 1625 
L 3713 1625 
L 3713 1100 
L 3047 1100 
L 3047 0 
L 2419 0 
L 2419 1100 
L 313 1100 
L 313 1709 
L 2253 4666 
z
" transform="scale(0.015625)"/>
       </defs>
       <use xlink:href="#DejaVuSans-2212"/>
       <use xlink:href="#DejaVuSans-30" x="83.789062"/>
       <use xlink:href="#DejaVuSans-2e" x="147.412109"/>
       <use xlink:href="#DejaVuSans-34" x="179.199219"/>
      </g>
     </g>
    </g>
    <g id="xtick_2">
     <g id="line2d_2">
      <g>
       <use xlink:href="#md0949d80bb" x="255.19934" y="167.090552" style="stroke: #000000; stroke-width: 0.8"/>
      </g>
     </g>
     <g id="text_2">
      <!-- −0.2 -->
      <g transform="translate(243.057934 181.688989) scale(0.1 -0.1)">
       <defs>
        <path id="DejaVuSans-32" d="M 1228 531 
L 3431 531 
L 3431 0 
L 469 0 
L 469 531 
Q 828 903 1448 1529 
Q 2069 2156 2228 2338 
Q 2531 2678 2651 2914 
Q 2772 3150 2772 3378 
Q 2772 3750 2511 3984 
Q 2250 4219 1831 4219 
Q 1534 4219 1204 4116 
Q 875 4013 500 3803 
L 500 4441 
Q 881 4594 1212 4672 
Q 1544 4750 1819 4750 
Q 2544 4750 2975 4387 
Q 3406 4025 3406 3419 
Q 3406 3131 3298 2873 
Q 3191 2616 2906 2266 
Q 2828 2175 2409 1742 
Q 1991 1309 1228 531 
z
" transform="scale(0.015625)"/>
       </defs>
       <use xlink:href="#DejaVuSans-2212"/>
       <use xlink:href="#DejaVuSans-30" x="83.789062"/>
       <use xlink:href="#DejaVuSans-2e" x="147.412109"/>
       <use xlink:href="#DejaVuSans-32" x="179.199219"/>
      </g>
     </g>
    </g>
    <g id="xtick_3">
     <g id="line2d_3">
      <g>
       <use xlink:href="#md0949d80bb" x="379.023281" y="167.090552" style="stroke: #000000; stroke-width: 0.8"/>
      </g>
     </g>
     <g id="text_3">
      <!-- 0.0 -->
      <g transform="translate(371.071718 181.688989) scale(0.1 -0.1)">
       <use xlink:href="#DejaVuSans-30"/>
       <use xlink:href="#DejaVuSans-2e" x="63.623047"/>
       <use xlink:href="#DejaVuSans-30" x="95.410156"/>
      </g>
     </g>
    </g>
    <g id="xtick_4">
     <g id="line2d_4">
      <g>
       <use xlink:href="#md0949d80bb" x="502.847222" y="167.090552" style="stroke: #000000; stroke-width: 0.8"/>
      </g>
     </g>
     <g id="text_4">
      <!-- 0.2 -->
      <g transform="translate(494.895659 181.688989) scale(0.1 -0.1)">
       <use xlink:href="#DejaVuSans-30"/>
       <use xlink:href="#DejaVuSans-2e" x="63.623047"/>
       <use xlink:href="#DejaVuSans-32" x="95.410156"/>
      </g>
     </g>
    </g>
    <g id="xtick_5">
     <g id="line2d_5">
      <g>
       <use xlink:href="#md0949d80bb" x="626.671162" y="167.090552" style="stroke: #000000; stroke-width: 0.8"/>
      </g>
     </g>
     <g id="text_5">
      <!-- 0.4 -->
      <g transform="translate(618.7196 181.688989) scale(0.1 -0.1)">
       <use xlink:href="#DejaVuSans-30"/>
       <use xlink:href="#DejaVuSans-2e" x="63.623047"/>
       <use xlink:href="#DejaVuSans-34" x="95.410156"/>
      </g>
     </g>
    </g>
   </g>
   <g id="matplotlib.axis_2">
    <g id="ytick_1">
     <g id="line2d_6">
      <defs>
       <path id="m25b9f421ff" d="M 0 0 
L -3.5 0 
" style="stroke: #000000; stroke-width: 0.8"/>
      </defs>
      <g>
       <use xlink:href="#m25b9f421ff" x="38.628365" y="145.208696" style="stroke: #000000; stroke-width: 0.8"/>
      </g>
     </g>
     <g id="text_6">
      <!-- 0.010 -->
      <g transform="translate(3.00024 149.007915) scale(0.1 -0.1)">
       <defs>
        <path id="DejaVuSans-31" d="M 794 531 
L 1825 531 
L 1825 4091 
L 703 3866 
L 703 4441 
L 1819 4666 
L 2450 4666 
L 2450 531 
L 3481 531 
L 3481 0 
L 794 0 
L 794 531 
z
" transform="scale(0.015625)"/>
       </defs>
       <use xlink:href="#DejaVuSans-30"/>
       <use xlink:href="#DejaVuSans-2e" x="63.623047"/>
       <use xlink:href="#DejaVuSans-30" x="95.410156"/>
       <use xlink:href="#DejaVuSans-31" x="159.033203"/>
       <use xlink:href="#DejaVuSans-30" x="222.65625"/>
      </g>
     </g>
    </g>
    <g id="ytick_2">
     <g id="line2d_7">
      <g>
       <use xlink:href="#m25b9f421ff" x="38.628365" y="111.148309" style="stroke: #000000; stroke-width: 0.8"/>
      </g>
     </g>
     <g id="text_7">
      <!-- 0.015 -->
      <g transform="translate(3.00024 114.947528) scale(0.1 -0.1)">
       <defs>
        <path id="DejaVuSans-35" d="M 691 4666 
L 3169 4666 
L 3169 4134 
L 1269 4134 
L 1269 2991 
Q 1406 3038 1543 3061 
Q 1681 3084 1819 3084 
Q 2600 3084 3056 2656 
Q 3513 2228 3513 1497 
Q 3513 744 3044 326 
Q 2575 -91 1722 -91 
Q 1428 -91 1123 -41 
Q 819 9 494 109 
L 494 744 
Q 775 591 1075 516 
Q 1375 441 1709 441 
Q 2250 441 2565 725 
Q 2881 1009 2881 1497 
Q 2881 1984 2565 2268 
Q 2250 2553 1709 2553 
Q 1456 2553 1204 2497 
Q 953 2441 691 2322 
L 691 4666 
z
" transform="scale(0.015625)"/>
       </defs>
       <use xlink:href="#DejaVuSans-30"/>
       <use xlink:href="#DejaVuSans-2e" x="63.623047"/>
       <use xlink:href="#DejaVuSans-30" x="95.410156"/>
       <use xlink:href="#DejaVuSans-31" x="159.033203"/>
       <use xlink:href="#DejaVuSans-35" x="222.65625"/>
      </g>
     </g>
    </g>
    <g id="ytick_3">
     <g id="line2d_8">
      <g>
       <use xlink:href="#m25b9f421ff" x="38.628365" y="77.087922" style="stroke: #000000; stroke-width: 0.8"/>
      </g>
     </g>
     <g id="text_8">
      <!-- 0.020 -->
      <g transform="translate(3.00024 80.88714) scale(0.1 -0.1)">
       <use xlink:href="#DejaVuSans-30"/>
       <use xlink:href="#DejaVuSans-2e" x="63.623047"/>
       <use xlink:href="#DejaVuSans-30" x="95.410156"/>
       <use xlink:href="#DejaVuSans-32" x="159.033203"/>
       <use xlink:href="#DejaVuSans-30" x="222.65625"/>
      </g>
     </g>
    </g>
    <g id="ytick_4">
     <g id="line2d_9">
      <g>
       <use xlink:href="#m25b9f421ff" x="38.628365" y="43.027535" style="stroke: #000000; stroke-width: 0.8"/>
      </g>
     </g>
     <g id="text_9">
      <!-- 0.025 -->
      <g transform="translate(3.00024 46.826753) scale(0.1 -0.1)">
       <use xlink:href="#DejaVuSans-30"/>
       <use xlink:href="#DejaVuSans-2e" x="63.623047"/>
       <use xlink:href="#DejaVuSans-30" x="95.410156"/>
       <use xlink:href="#DejaVuSans-32" x="159.033203"/>
       <use xlink:href="#DejaVuSans-35" x="222.65625"/>
      </g>
     </g>
    </g>
   </g>
   <g id="line2d_10">
    <path d="M 379.023281 160.11351 
L 381.441717 76.752259 
L 383.860153 51.416849 
L 388.697026 56.202188 
L 391.115462 57.071613 
L 393.533899 48.625593 
L 395.952335 50.794404 
L 398.370771 47.028577 
L 400.789208 50.419692 
L 403.207644 56.413066 
L 405.62608 55.051251 
L 408.044517 55.535056 
L 410.462953 60.983746 
L 412.88139 59.773865 
L 415.299826 53.396816 
L 417.718262 53.879374 
L 420.136699 52.960153 
L 422.555135 59.828496 
L 424.973571 60.102745 
L 427.392008 56.16656 
L 429.810444 53.524212 
L 432.22888 54.355149 
L 434.647317 50.768304 
L 437.065753 52.121991 
L 439.484189 52.174781 
L 441.902626 55.647182 
L 444.321062 50.066656 
L 446.739498 55.705738 
L 449.157935 50.959844 
L 451.576371 51.827421 
L 453.994807 57.320904 
L 456.413244 59.890953 
L 458.83168 62.651646 
L 461.250116 57.714292 
L 463.668553 55.977382 
L 466.086989 55.219801 
L 468.505425 59.88111 
L 470.923862 56.861953 
L 473.342298 50.618753 
L 475.760735 53.946254 
L 478.179171 51.367138 
L 483.016044 49.224784 
L 485.43448 53.53718 
L 487.852916 49.987683 
L 490.271353 48.996728 
L 492.689789 50.882617 
L 495.108225 46.755911 
L 497.526662 45.773037 
L 499.945098 51.645582 
L 502.363534 51.612876 
L 504.781971 50.919981 
L 507.200407 50.043202 
L 509.618843 54.710741 
L 512.03728 58.076482 
L 514.455716 59.218536 
L 516.874152 49.608559 
L 519.292589 50.413104 
L 521.711025 52.276885 
L 524.129461 52.724614 
L 526.547898 58.428206 
L 528.966334 52.119331 
L 531.38477 49.754262 
L 533.803207 57.054514 
L 536.221643 53.736243 
L 538.640079 57.609497 
L 541.058516 55.92863 
L 543.476952 54.553143 
L 545.895389 57.126735 
L 548.313825 55.509932 
L 550.732261 55.977304 
L 553.150698 54.343503 
L 555.569134 51.347127 
L 557.98757 49.879106 
L 560.406007 51.824044 
L 562.824443 56.848323 
L 565.242879 55.319313 
L 567.661316 52.627656 
L 570.079752 54.123361 
L 572.498188 51.960819 
L 574.916625 54.885474 
L 577.335061 61.20885 
L 579.753497 66.119357 
L 582.171934 51.433045 
L 584.59037 50.211444 
L 587.008806 53.959524 
L 589.427243 50.829294 
L 591.845679 50.239895 
L 594.264115 52.500229 
L 596.682552 55.24373 
L 599.100988 54.138382 
L 601.519424 54.317314 
L 603.937861 51.790546 
L 606.356297 57.135176 
L 608.774734 57.567743 
L 611.19317 49.124366 
L 613.611606 50.397557 
L 616.030043 56.545951 
L 618.448479 57.863892 
L 620.866915 60.804138 
L 623.285352 63.217567 
L 625.703788 62.989236 
L 628.122224 63.157978 
L 632.959097 53.362159 
L 635.377533 50.191906 
L 637.79597 49.325485 
L 640.214406 53.259396 
L 642.632842 52.367745 
L 645.051279 49.488808 
L 647.469715 55.043885 
L 649.888151 61.152327 
L 652.306588 47.134162 
L 654.725024 46.972574 
L 657.14346 43.16851 
L 659.561897 50.463767 
L 661.980333 63.467941 
L 664.398769 60.659908 
L 666.817206 55.015003 
L 669.235642 57.528711 
L 671.654079 49.22769 
L 674.072515 57.533791 
L 676.490951 57.219877 
L 678.909388 55.346401 
L 681.327824 57.808718 
L 683.74626 51.987522 
L 686.164697 53.260021 
L 69.463428 58.825799 
L 71.881865 53.260021 
L 74.300301 51.987522 
L 76.718737 57.808718 
L 79.137174 55.346401 
L 81.55561 57.219877 
L 83.974046 57.533791 
L 86.392483 49.22769 
L 88.810919 57.528711 
L 91.229356 55.015003 
L 93.647792 60.659908 
L 96.066228 63.467941 
L 98.484665 50.463767 
L 100.903101 43.16851 
L 103.321537 46.972574 
L 105.739974 47.134162 
L 108.15841 61.152327 
L 110.576846 55.043885 
L 112.995283 49.488808 
L 115.413719 52.367745 
L 117.832155 53.259396 
L 120.250592 49.325485 
L 122.669028 50.191906 
L 125.087464 53.362159 
L 129.924337 63.157978 
L 132.342773 62.989236 
L 134.76121 63.217567 
L 137.179646 60.804138 
L 139.598082 57.863892 
L 142.016519 56.545951 
L 144.434955 50.397557 
L 146.853391 49.124366 
L 149.271828 57.567743 
L 151.690264 57.135176 
L 154.108701 51.790546 
L 156.527137 54.317314 
L 158.945573 54.138382 
L 161.36401 55.24373 
L 163.782446 52.500229 
L 166.200882 50.239895 
L 168.619319 50.829294 
L 171.037755 53.959524 
L 173.456191 50.211444 
L 175.874628 51.433045 
L 178.293064 66.119357 
L 180.7115 61.20885 
L 183.129937 54.885474 
L 185.548373 51.960819 
L 187.966809 54.123361 
L 190.385246 52.627656 
L 192.803682 55.319313 
L 195.222118 56.848323 
L 197.640555 51.824044 
L 200.058991 49.879106 
L 202.477427 51.347127 
L 204.895864 54.343503 
L 207.3143 55.977304 
L 209.732736 55.509932 
L 212.151173 57.126735 
L 214.569609 54.553143 
L 216.988046 55.92863 
L 219.406482 57.609497 
L 221.824918 53.736243 
L 224.243355 57.054514 
L 226.661791 49.754262 
L 229.080227 52.119331 
L 231.498664 58.428206 
L 233.9171 52.724614 
L 236.335536 52.276885 
L 238.753973 50.413104 
L 241.172409 49.608559 
L 243.590845 59.218536 
L 246.009282 58.076482 
L 248.427718 54.710741 
L 250.846154 50.043202 
L 253.264591 50.919981 
L 255.683027 51.612876 
L 258.101463 51.645582 
L 260.5199 45.773037 
L 262.938336 46.755911 
L 265.356772 50.882617 
L 267.775209 48.996728 
L 270.193645 49.987683 
L 272.612081 53.53718 
L 275.030518 49.224784 
L 279.86739 51.367138 
L 282.285827 53.946254 
L 284.704263 50.618753 
L 287.1227 56.861953 
L 289.541136 59.88111 
L 291.959572 55.219801 
L 294.378009 55.977382 
L 296.796445 57.714292 
L 299.214881 62.651646 
L 301.633318 59.890953 
L 304.051754 57.320904 
L 306.47019 51.827421 
L 308.888627 50.959844 
L 311.307063 55.705738 
L 313.725499 50.066656 
L 316.143936 55.647182 
L 318.562372 52.174781 
L 320.980808 52.121991 
L 323.399245 50.768304 
L 325.817681 54.355149 
L 328.236117 53.524212 
L 330.654554 56.16656 
L 333.07299 60.102745 
L 335.491426 59.828496 
L 337.909863 52.960153 
L 340.328299 53.879374 
L 342.746735 53.396816 
L 345.165172 59.773865 
L 347.583608 60.983746 
L 350.002045 55.535056 
L 352.420481 55.051251 
L 354.838917 56.413066 
L 357.257354 50.419692 
L 359.67579 47.028577 
L 362.094226 50.794404 
L 364.512663 48.625593 
L 366.931099 57.071613 
L 369.349535 56.202188 
L 374.186408 51.416849 
L 376.604844 76.752259 
L 376.604844 76.752259 
" clip-path="url(#p1eb1d92dc9)" style="fill: none; stroke: #1f77b4; stroke-width: 1.5; stroke-linecap: square"/>
   </g>
   <g id="line2d_11">
    <path d="M 379.023281 157.043141 
L 381.441717 71.118419 
L 383.860153 46.61443 
L 386.27859 45.917832 
L 388.697026 55.673271 
L 391.115462 54.111982 
L 393.533899 51.56185 
L 395.952335 53.892199 
L 398.370771 48.111546 
L 400.789208 46.539444 
L 403.207644 50.56698 
L 405.62608 58.974569 
L 408.044517 58.740944 
L 410.462953 55.792376 
L 412.88139 62.71948 
L 415.299826 56.739011 
L 417.718262 51.874211 
L 420.136699 51.247532 
L 422.555135 53.076206 
L 424.973571 46.111285 
L 427.392008 47.320547 
L 429.810444 49.829706 
L 432.22888 53.604598 
L 434.647317 55.195014 
L 437.065753 47.278488 
L 439.484189 46.988695 
L 441.902626 52.233936 
L 444.321062 50.020594 
L 446.739498 55.299636 
L 449.157935 60.166092 
L 451.576371 57.724291 
L 453.994807 48.715919 
L 456.413244 49.45271 
L 458.83168 46.7405 
L 461.250116 52.95625 
L 463.668553 56.663411 
L 466.086989 51.514375 
L 468.505425 53.131977 
L 470.923862 49.88246 
L 473.342298 47.391298 
L 475.760735 49.413539 
L 478.179171 52.201565 
L 480.597607 53.500401 
L 483.016044 56.74486 
L 485.43448 59.367994 
L 487.852916 54.286917 
L 490.271353 57.699036 
L 492.689789 58.137033 
L 495.108225 49.068525 
L 497.526662 50.81117 
L 499.945098 54.121985 
L 502.363534 48.887749 
L 504.781971 55.756136 
L 507.200407 60.16282 
L 509.618843 52.717591 
L 512.03728 48.515291 
L 514.455716 53.411501 
L 516.874152 56.944528 
L 519.292589 56.454931 
L 521.711025 52.046689 
L 524.129461 48.862345 
L 526.547898 53.571624 
L 528.966334 48.605301 
L 531.38477 48.720449 
L 533.803207 54.344141 
L 536.221643 52.891021 
L 538.640079 49.320945 
L 541.058516 53.133611 
L 543.476952 57.526824 
L 545.895389 56.94912 
L 548.313825 50.706636 
L 550.732261 49.929949 
L 553.150698 52.599392 
L 555.569134 55.53724 
L 557.98757 56.268559 
L 560.406007 50.481787 
L 562.824443 51.03252 
L 565.242879 50.928967 
L 567.661316 55.310846 
L 570.079752 50.877641 
L 572.498188 45.714579 
L 574.916625 48.893632 
L 577.335061 49.895752 
L 579.753497 46.491317 
L 582.171934 47.229037 
L 584.59037 52.085635 
L 587.008806 59.749011 
L 589.427243 59.40775 
L 591.845679 55.841659 
L 594.264115 60.473611 
L 596.682552 57.267073 
L 599.100988 53.271801 
L 601.519424 51.759504 
L 603.937861 49.620787 
L 606.356297 53.697513 
L 608.774734 59.153518 
L 611.19317 57.741138 
L 613.611606 46.274316 
L 616.030043 50.413014 
L 618.448479 51.226131 
L 620.866915 48.425163 
L 623.285352 51.908216 
L 625.703788 55.176671 
L 628.122224 56.351441 
L 630.540661 50.777233 
L 632.959097 53.854324 
L 635.377533 60.355353 
L 637.79597 59.314724 
L 640.214406 55.309559 
L 642.632842 58.669156 
L 645.051279 63.454188 
L 647.469715 64.482566 
L 649.888151 61.473101 
L 652.306588 53.391897 
L 654.725024 51.928605 
L 657.14346 58.66917 
L 659.561897 60.380371 
L 661.980333 53.553205 
L 664.398769 52.505502 
L 666.817206 56.774657 
L 669.235642 52.327091 
L 671.654079 54.746014 
L 674.072515 58.326963 
L 676.490951 58.83899 
L 678.909388 54.867093 
L 681.327824 53.962764 
L 683.74626 47.523614 
L 686.164697 50.750288 
L 69.463428 55.597268 
L 71.881865 50.750288 
L 74.300301 47.523614 
L 76.718737 53.962764 
L 79.137174 54.867093 
L 81.55561 58.83899 
L 83.974046 58.326963 
L 86.392483 54.746014 
L 88.810919 52.327091 
L 91.229356 56.774657 
L 93.647792 52.505502 
L 96.066228 53.553205 
L 98.484665 60.380371 
L 100.903101 58.66917 
L 103.321537 51.928605 
L 105.739974 53.391897 
L 108.15841 61.473101 
L 110.576846 64.482566 
L 112.995283 63.454188 
L 115.413719 58.669156 
L 117.832155 55.309559 
L 120.250592 59.314724 
L 122.669028 60.355353 
L 125.087464 53.854324 
L 127.505901 50.777233 
L 129.924337 56.351441 
L 132.342773 55.176671 
L 134.76121 51.908216 
L 137.179646 48.425163 
L 139.598082 51.226131 
L 142.016519 50.413014 
L 144.434955 46.274316 
L 146.853391 57.741138 
L 149.271828 59.153518 
L 151.690264 53.697513 
L 154.108701 49.620787 
L 156.527137 51.759504 
L 158.945573 53.271801 
L 161.36401 57.267073 
L 163.782446 60.473611 
L 166.200882 55.841659 
L 168.619319 59.40775 
L 171.037755 59.749011 
L 173.456191 52.085635 
L 175.874628 47.229037 
L 178.293064 46.491317 
L 180.7115 49.895752 
L 183.129937 48.893632 
L 185.548373 45.714579 
L 187.966809 50.877641 
L 190.385246 55.310846 
L 192.803682 50.928967 
L 195.222118 51.03252 
L 197.640555 50.481787 
L 200.058991 56.268559 
L 202.477427 55.53724 
L 204.895864 52.599392 
L 207.3143 49.929949 
L 209.732736 50.706636 
L 212.151173 56.94912 
L 214.569609 57.526824 
L 216.988046 53.133611 
L 219.406482 49.320945 
L 221.824918 52.891021 
L 224.243355 54.344141 
L 226.661791 48.720449 
L 229.080227 48.605301 
L 231.498664 53.571624 
L 233.9171 48.862345 
L 236.335536 52.046689 
L 238.753973 56.454931 
L 241.172409 56.944528 
L 243.590845 53.411501 
L 246.009282 48.515291 
L 248.427718 52.717591 
L 250.846154 60.16282 
L 253.264591 55.756136 
L 255.683027 48.887749 
L 258.101463 54.121985 
L 260.5199 50.81117 
L 262.938336 49.068525 
L 265.356772 58.137033 
L 267.775209 57.699036 
L 270.193645 54.286917 
L 272.612081 59.367994 
L 275.030518 56.74486 
L 277.448954 53.500401 
L 279.86739 52.201565 
L 282.285827 49.413539 
L 284.704263 47.391298 
L 287.1227 49.88246 
L 289.541136 53.131977 
L 291.959572 51.514375 
L 294.378009 56.663411 
L 296.796445 52.95625 
L 299.214881 46.7405 
L 301.633318 49.45271 
L 304.051754 48.715919 
L 306.47019 57.724291 
L 308.888627 60.166092 
L 311.307063 55.299636 
L 313.725499 50.020594 
L 316.143936 52.233936 
L 318.562372 46.988695 
L 320.980808 47.278488 
L 323.399245 55.195014 
L 325.817681 53.604598 
L 328.236117 49.829706 
L 330.654554 47.320547 
L 333.07299 46.111285 
L 335.491426 53.076206 
L 337.909863 51.247532 
L 340.328299 51.874211 
L 342.746735 56.739011 
L 345.165172 62.71948 
L 347.583608 55.792376 
L 350.002045 58.740944 
L 352.420481 58.974569 
L 354.838917 50.56698 
L 357.257354 46.539444 
L 359.67579 48.111546 
L 362.094226 53.892199 
L 364.512663 51.56185 
L 366.931099 54.111982 
L 369.349535 55.673271 
L 371.767972 45.917832 
L 374.186408 46.61443 
L 376.604844 71.118419 
L 376.604844 71.118419 
" clip-path="url(#p1eb1d92dc9)" style="fill: none; stroke: #ff7f0e; stroke-width: 1.5; stroke-linecap: square"/>
   </g>
   <g id="line2d_12">
    <path d="M 379.023281 161.119736 
L 381.441717 76.061738 
L 383.860153 51.637397 
L 386.27859 55.059999 
L 388.697026 53.468095 
L 391.115462 53.16772 
L 393.533899 57.340386 
L 395.952335 56.482861 
L 398.370771 57.674939 
L 400.789208 55.706188 
L 403.207644 51.553357 
L 405.62608 53.815229 
L 408.044517 53.402912 
L 412.88139 58.243223 
L 415.299826 57.483513 
L 417.718262 50.443814 
L 420.136699 50.199353 
L 422.555135 56.309543 
L 424.973571 55.053074 
L 427.392008 55.148932 
L 429.810444 60.62854 
L 432.22888 60.106686 
L 434.647317 56.373565 
L 437.065753 59.809821 
L 439.484189 63.009207 
L 441.902626 55.63383 
L 444.321062 53.30174 
L 446.739498 53.80692 
L 449.157935 62.327028 
L 451.576371 59.133935 
L 453.994807 52.047218 
L 456.413244 54.347206 
L 458.83168 47.34294 
L 461.250116 44.367125 
L 463.668553 53.383452 
L 466.086989 57.053099 
L 468.505425 52.739363 
L 470.923862 57.902311 
L 473.342298 56.921171 
L 475.760735 51.324401 
L 478.179171 57.009766 
L 480.597607 58.195622 
L 483.016044 55.348152 
L 485.43448 54.347072 
L 487.852916 55.966931 
L 490.271353 48.766018 
L 492.689789 46.020366 
L 495.108225 42.198971 
L 497.526662 51.641719 
L 499.945098 56.569987 
L 502.363534 53.0786 
L 504.781971 56.548064 
L 507.200407 57.224319 
L 509.618843 53.797273 
L 512.03728 56.785938 
L 514.455716 53.709809 
L 516.874152 47.729971 
L 519.292589 49.112992 
L 524.129461 61.496796 
L 526.547898 52.70299 
L 528.966334 54.430109 
L 531.38477 58.243467 
L 533.803207 52.262297 
L 536.221643 48.8894 
L 538.640079 45.196702 
L 541.058516 53.388872 
L 543.476952 54.914274 
L 545.895389 55.221748 
L 548.313825 57.89789 
L 550.732261 55.394161 
L 553.150698 46.442311 
L 555.569134 41.703411 
L 557.98757 53.110081 
L 560.406007 59.799506 
L 562.824443 60.081172 
L 565.242879 57.151744 
L 567.661316 56.48105 
L 570.079752 49.451097 
L 572.498188 58.089922 
L 574.916625 60.165385 
L 577.335061 58.029902 
L 579.753497 51.357434 
L 582.171934 56.405762 
L 584.59037 60.234423 
L 587.008806 52.76046 
L 589.427243 52.160682 
L 591.845679 55.052069 
L 594.264115 51.966496 
L 596.682552 43.259266 
L 599.100988 43.489534 
L 601.519424 47.805946 
L 603.937861 55.864186 
L 606.356297 53.696463 
L 608.774734 48.116216 
L 611.19317 49.023145 
L 616.030043 51.247877 
L 618.448479 56.29192 
L 620.866915 52.711597 
L 623.285352 53.319162 
L 625.703788 52.793986 
L 628.122224 57.996969 
L 630.540661 58.923145 
L 632.959097 49.738462 
L 635.377533 51.4365 
L 637.79597 51.759584 
L 640.214406 51.576233 
L 642.632842 52.793009 
L 645.051279 49.543475 
L 647.469715 47.532515 
L 649.888151 47.71069 
L 652.306588 50.579231 
L 654.725024 51.754665 
L 657.14346 58.065538 
L 659.561897 59.314925 
L 661.980333 53.905861 
L 664.398769 57.319555 
L 666.817206 60.245925 
L 669.235642 57.561925 
L 671.654079 53.583515 
L 674.072515 52.033826 
L 676.490951 52.127036 
L 678.909388 56.045697 
L 681.327824 59.060744 
L 683.74626 57.273356 
L 686.164697 56.580481 
L 69.463428 58.52792 
L 71.881865 56.580481 
L 74.300301 57.273356 
L 76.718737 59.060744 
L 79.137174 56.045697 
L 81.55561 52.127036 
L 83.974046 52.033826 
L 86.392483 53.583515 
L 88.810919 57.561925 
L 91.229356 60.245925 
L 93.647792 57.319555 
L 96.066228 53.905861 
L 98.484665 59.314925 
L 100.903101 58.065538 
L 103.321537 51.754665 
L 105.739974 50.579231 
L 108.15841 47.71069 
L 110.576846 47.532515 
L 112.995283 49.543475 
L 115.413719 52.793009 
L 117.832155 51.576233 
L 120.250592 51.759584 
L 122.669028 51.4365 
L 125.087464 49.738462 
L 127.505901 58.923145 
L 129.924337 57.996969 
L 132.342773 52.793986 
L 134.76121 53.319162 
L 137.179646 52.711597 
L 139.598082 56.29192 
L 142.016519 51.247877 
L 146.853391 49.023145 
L 149.271828 48.116216 
L 151.690264 53.696463 
L 154.108701 55.864186 
L 156.527137 47.805946 
L 158.945573 43.489534 
L 161.36401 43.259266 
L 163.782446 51.966496 
L 166.200882 55.052069 
L 168.619319 52.160682 
L 171.037755 52.76046 
L 173.456191 60.234423 
L 175.874628 56.405762 
L 178.293064 51.357434 
L 180.7115 58.029902 
L 183.129937 60.165385 
L 185.548373 58.089922 
L 187.966809 49.451097 
L 190.385246 56.48105 
L 192.803682 57.151744 
L 195.222118 60.081172 
L 197.640555 59.799506 
L 200.058991 53.110081 
L 202.477427 41.703411 
L 204.895864 46.442311 
L 207.3143 55.394161 
L 209.732736 57.89789 
L 212.151173 55.221748 
L 214.569609 54.914274 
L 216.988046 53.388872 
L 219.406482 45.196702 
L 221.824918 48.8894 
L 224.243355 52.262297 
L 226.661791 58.243467 
L 229.080227 54.430109 
L 231.498664 52.70299 
L 233.9171 61.496796 
L 238.753973 49.112992 
L 241.172409 47.729971 
L 243.590845 53.709809 
L 246.009282 56.785938 
L 248.427718 53.797273 
L 250.846154 57.224319 
L 253.264591 56.548064 
L 255.683027 53.0786 
L 258.101463 56.569987 
L 260.5199 51.641719 
L 262.938336 42.198971 
L 265.356772 46.020366 
L 267.775209 48.766018 
L 270.193645 55.966931 
L 272.612081 54.347072 
L 275.030518 55.348152 
L 277.448954 58.195622 
L 279.86739 57.009766 
L 282.285827 51.324401 
L 284.704263 56.921171 
L 287.1227 57.902311 
L 289.541136 52.739363 
L 291.959572 57.053099 
L 294.378009 53.383452 
L 296.796445 44.367125 
L 299.214881 47.34294 
L 301.633318 54.347206 
L 304.051754 52.047218 
L 306.47019 59.133935 
L 308.888627 62.327028 
L 311.307063 53.80692 
L 313.725499 53.30174 
L 316.143936 55.63383 
L 318.562372 63.009207 
L 320.980808 59.809821 
L 323.399245 56.373565 
L 325.817681 60.106686 
L 328.236117 60.62854 
L 330.654554 55.148932 
L 333.07299 55.053074 
L 335.491426 56.309543 
L 337.909863 50.199353 
L 340.328299 50.443814 
L 342.746735 57.483513 
L 345.165172 58.243223 
L 350.002045 53.402912 
L 352.420481 53.815229 
L 354.838917 51.553357 
L 357.257354 55.706188 
L 359.67579 57.674939 
L 362.094226 56.482861 
L 364.512663 57.340386 
L 366.931099 53.16772 
L 369.349535 53.468095 
L 371.767972 55.059999 
L 374.186408 51.637397 
L 376.604844 76.061738 
L 376.604844 76.061738 
" clip-path="url(#p1eb1d92dc9)" style="fill: none; stroke: #2ca02c; stroke-width: 1.5; stroke-linecap: square"/>
   </g>
   <g id="patch_3">
    <path d="M 38.628365 167.090552 
L 38.628365 35.732595 
" style="fill: none; stroke: #000000; stroke-width: 0.8; stroke-linejoin: miter; stroke-linecap: square"/>
   </g>
   <g id="patch_4">
    <path d="M 716.99976 167.090552 
L 716.99976 35.732595 
" style="fill: none; stroke: #000000; stroke-width: 0.8; stroke-linejoin: miter; stroke-linecap: square"/>
   </g>
   <g id="patch_5">
    <path d="M 38.628365 167.090552 
L 716.99976 167.090552 
" style="fill: none; stroke: #000000; stroke-width: 0.8; stroke-linejoin: miter; stroke-linecap: square"/>
   </g>
   <g id="patch_6">
    <path d="M 38.628365 35.732595 
L 716.99976 35.732595 
" style="fill: none; stroke: #000000; stroke-width: 0.8; stroke-linejoin: miter; stroke-linecap: square"/>
   </g>
   <g id="text_10">
    <!-- White Noise -->
    <g transform="translate(341.816875 29.732595) scale(0.12 -0.12)">
     <defs>
      <path id="DejaVuSans-57" d="M 213 4666 
L 850 4666 
L 1831 722 
L 2809 4666 
L 3519 4666 
L 4500 722 
L 5478 4666 
L 6119 4666 
L 4947 0 
L 4153 0 
L 3169 4050 
L 2175 0 
L 1381 0 
L 213 4666 
z
" transform="scale(0.015625)"/>
      <path id="DejaVuSans-68" d="M 3513 2113 
L 3513 0 
L 2938 0 
L 2938 2094 
Q 2938 2591 2744 2837 
Q 2550 3084 2163 3084 
Q 1697 3084 1428 2787 
Q 1159 2491 1159 1978 
L 1159 0 
L 581 0 
L 581 4863 
L 1159 4863 
L 1159 2956 
Q 1366 3272 1645 3428 
Q 1925 3584 2291 3584 
Q 2894 3584 3203 3211 
Q 3513 2838 3513 2113 
z
" transform="scale(0.015625)"/>
      <path id="DejaVuSans-69" d="M 603 3500 
L 1178 3500 
L 1178 0 
L 603 0 
L 603 3500 
z
M 603 4863 
L 1178 4863 
L 1178 4134 
L 603 4134 
L 603 4863 
z
" transform="scale(0.015625)"/>
      <path id="DejaVuSans-74" d="M 1172 4494 
L 1172 3500 
L 2356 3500 
L 2356 3053 
L 1172 3053 
L 1172 1153 
Q 1172 725 1289 603 
Q 1406 481 1766 481 
L 2356 481 
L 2356 0 
L 1766 0 
Q 1100 0 847 248 
Q 594 497 594 1153 
L 594 3053 
L 172 3053 
L 172 3500 
L 594 3500 
L 594 4494 
L 1172 4494 
z
" transform="scale(0.015625)"/>
      <path id="DejaVuSans-65" d="M 3597 1894 
L 3597 1613 
L 953 1613 
Q 991 1019 1311 708 
Q 1631 397 2203 397 
Q 2534 397 2845 478 
Q 3156 559 3463 722 
L 3463 178 
Q 3153 47 2828 -22 
Q 2503 -91 2169 -91 
Q 1331 -91 842 396 
Q 353 884 353 1716 
Q 353 2575 817 3079 
Q 1281 3584 2069 3584 
Q 2775 3584 3186 3129 
Q 3597 2675 3597 1894 
z
M 3022 2063 
Q 3016 2534 2758 2815 
Q 2500 3097 2075 3097 
Q 1594 3097 1305 2825 
Q 1016 2553 972 2059 
L 3022 2063 
z
" transform="scale(0.015625)"/>
      <path id="DejaVuSans-20" transform="scale(0.015625)"/>
      <path id="DejaVuSans-4e" d="M 628 4666 
L 1478 4666 
L 3547 763 
L 3547 4666 
L 4159 4666 
L 4159 0 
L 3309 0 
L 1241 3903 
L 1241 0 
L 628 0 
L 628 4666 
z
" transform="scale(0.015625)"/>
      <path id="DejaVuSans-6f" d="M 1959 3097 
Q 1497 3097 1228 2736 
Q 959 2375 959 1747 
Q 959 1119 1226 758 
Q 1494 397 1959 397 
Q 2419 397 2687 759 
Q 2956 1122 2956 1747 
Q 2956 2369 2687 2733 
Q 2419 3097 1959 3097 
z
M 1959 3584 
Q 2709 3584 3137 3096 
Q 3566 2609 3566 1747 
Q 3566 888 3137 398 
Q 2709 -91 1959 -91 
Q 1206 -91 779 398 
Q 353 888 353 1747 
Q 353 2609 779 3096 
Q 1206 3584 1959 3584 
z
" transform="scale(0.015625)"/>
      <path id="DejaVuSans-73" d="M 2834 3397 
L 2834 2853 
Q 2591 2978 2328 3040 
Q 2066 3103 1784 3103 
Q 1356 3103 1142 2972 
Q 928 2841 928 2578 
Q 928 2378 1081 2264 
Q 1234 2150 1697 2047 
L 1894 2003 
Q 2506 1872 2764 1633 
Q 3022 1394 3022 966 
Q 3022 478 2636 193 
Q 2250 -91 1575 -91 
Q 1294 -91 989 -36 
Q 684 19 347 128 
L 347 722 
Q 666 556 975 473 
Q 1284 391 1588 391 
Q 1994 391 2212 530 
Q 2431 669 2431 922 
Q 2431 1156 2273 1281 
Q 2116 1406 1581 1522 
L 1381 1569 
Q 847 1681 609 1914 
Q 372 2147 372 2553 
Q 372 3047 722 3315 
Q 1072 3584 1716 3584 
Q 2034 3584 2315 3537 
Q 2597 3491 2834 3397 
z
" transform="scale(0.015625)"/>
     </defs>
     <use xlink:href="#DejaVuSans-57"/>
     <use xlink:href="#DejaVuSans-68" x="98.876953"/>
     <use xlink:href="#DejaVuSans-69" x="162.255859"/>
     <use xlink:href="#DejaVuSans-74" x="190.039062"/>
     <use xlink:href="#DejaVuSans-65" x="229.248047"/>
     <use xlink:href="#DejaVuSans-20" x="290.771484"/>
     <use xlink:href="#DejaVuSans-4e" x="322.558594"/>
     <use xlink:href="#DejaVuSans-6f" x="397.363281"/>
     <use xlink:href="#DejaVuSans-69" x="458.544922"/>
     <use xlink:href="#DejaVuSans-73" x="486.328125"/>
     <use xlink:href="#DejaVuSans-65" x="538.427734"/>
    </g>
   </g>
  </g>
  <g id="axes_2">
   <g id="patch_7">
    <path d="M 38.628365 336.245239 
L 716.99976 336.245239 
L 716.99976 204.887282 
L 38.628365 204.887282 
z
" style="fill: #ffffff"/>
   </g>
   <g id="matplotlib.axis_3">
    <g id="xtick_6">
     <g id="line2d_13">
      <g>
       <use xlink:href="#md0949d80bb" x="131.375399" y="336.245239" style="stroke: #000000; stroke-width: 0.8"/>
      </g>
     </g>
     <g id="text_11">
      <!-- −0.4 -->
      <g transform="translate(119.233993 350.843676) scale(0.1 -0.1)">
       <use xlink:href="#DejaVuSans-2212"/>
       <use xlink:href="#DejaVuSans-30" x="83.789062"/>
       <use xlink:href="#DejaVuSans-2e" x="147.412109"/>
       <use xlink:href="#DejaVuSans-34" x="179.199219"/>
      </g>
     </g>
    </g>
    <g id="xtick_7">
     <g id="line2d_14">
      <g>
       <use xlink:href="#md0949d80bb" x="255.19934" y="336.245239" style="stroke: #000000; stroke-width: 0.8"/>
      </g>
     </g>
     <g id="text_12">
      <!-- −0.2 -->
      <g transform="translate(243.057934 350.843676) scale(0.1 -0.1)">
       <use xlink:href="#DejaVuSans-2212"/>
       <use xlink:href="#DejaVuSans-30" x="83.789062"/>
       <use xlink:href="#DejaVuSans-2e" x="147.412109"/>
       <use xlink:href="#DejaVuSans-32" x="179.199219"/>
      </g>
     </g>
    </g>
    <g id="xtick_8">
     <g id="line2d_15">
      <g>
       <use xlink:href="#md0949d80bb" x="379.023281" y="336.245239" style="stroke: #000000; stroke-width: 0.8"/>
      </g>
     </g>
     <g id="text_13">
      <!-- 0.0 -->
      <g transform="translate(371.071718 350.843676) scale(0.1 -0.1)">
       <use xlink:href="#DejaVuSans-30"/>
       <use xlink:href="#DejaVuSans-2e" x="63.623047"/>
       <use xlink:href="#DejaVuSans-30" x="95.410156"/>
      </g>
     </g>
    </g>
    <g id="xtick_9">
     <g id="line2d_16">
      <g>
       <use xlink:href="#md0949d80bb" x="502.847222" y="336.245239" style="stroke: #000000; stroke-width: 0.8"/>
      </g>
     </g>
     <g id="text_14">
      <!-- 0.2 -->
      <g transform="translate(494.895659 350.843676) scale(0.1 -0.1)">
       <use xlink:href="#DejaVuSans-30"/>
       <use xlink:href="#DejaVuSans-2e" x="63.623047"/>
       <use xlink:href="#DejaVuSans-32" x="95.410156"/>
      </g>
     </g>
    </g>
    <g id="xtick_10">
     <g id="line2d_17">
      <g>
       <use xlink:href="#md0949d80bb" x="626.671162" y="336.245239" style="stroke: #000000; stroke-width: 0.8"/>
      </g>
     </g>
     <g id="text_15">
      <!-- 0.4 -->
      <g transform="translate(618.7196 350.843676) scale(0.1 -0.1)">
       <use xlink:href="#DejaVuSans-30"/>
       <use xlink:href="#DejaVuSans-2e" x="63.623047"/>
       <use xlink:href="#DejaVuSans-34" x="95.410156"/>
      </g>
     </g>
    </g>
   </g>
   <g id="matplotlib.axis_4">
    <g id="ytick_5">
     <g id="line2d_18">
      <g>
       <use xlink:href="#m25b9f421ff" x="38.628365" y="308.41696" style="stroke: #000000; stroke-width: 0.8"/>
      </g>
     </g>
     <g id="text_16">
      <!-- 0.02 -->
      <g transform="translate(9.36274 312.216178) scale(0.1 -0.1)">
       <use xlink:href="#DejaVuSans-30"/>
       <use xlink:href="#DejaVuSans-2e" x="63.623047"/>
       <use xlink:href="#DejaVuSans-30" x="95.410156"/>
       <use xlink:href="#DejaVuSans-32" x="159.033203"/>
      </g>
     </g>
    </g>
    <g id="ytick_6">
     <g id="line2d_19">
      <g>
       <use xlink:href="#m25b9f421ff" x="38.628365" y="272.549769" style="stroke: #000000; stroke-width: 0.8"/>
      </g>
     </g>
     <g id="text_17">
      <!-- 0.04 -->
      <g transform="translate(9.36274 276.348987) scale(0.1 -0.1)">
       <use xlink:href="#DejaVuSans-30"/>
       <use xlink:href="#DejaVuSans-2e" x="63.623047"/>
       <use xlink:href="#DejaVuSans-30" x="95.410156"/>
       <use xlink:href="#DejaVuSans-34" x="159.033203"/>
      </g>
     </g>
    </g>
    <g id="ytick_7">
     <g id="line2d_20">
      <g>
       <use xlink:href="#m25b9f421ff" x="38.628365" y="236.682578" style="stroke: #000000; stroke-width: 0.8"/>
      </g>
     </g>
     <g id="text_18">
      <!-- 0.06 -->
      <g transform="translate(9.36274 240.481797) scale(0.1 -0.1)">
       <defs>
        <path id="DejaVuSans-36" d="M 2113 2584 
Q 1688 2584 1439 2293 
Q 1191 2003 1191 1497 
Q 1191 994 1439 701 
Q 1688 409 2113 409 
Q 2538 409 2786 701 
Q 3034 994 3034 1497 
Q 3034 2003 2786 2293 
Q 2538 2584 2113 2584 
z
M 3366 4563 
L 3366 3988 
Q 3128 4100 2886 4159 
Q 2644 4219 2406 4219 
Q 1781 4219 1451 3797 
Q 1122 3375 1075 2522 
Q 1259 2794 1537 2939 
Q 1816 3084 2150 3084 
Q 2853 3084 3261 2657 
Q 3669 2231 3669 1497 
Q 3669 778 3244 343 
Q 2819 -91 2113 -91 
Q 1303 -91 875 529 
Q 447 1150 447 2328 
Q 447 3434 972 4092 
Q 1497 4750 2381 4750 
Q 2619 4750 2861 4703 
Q 3103 4656 3366 4563 
z
" transform="scale(0.015625)"/>
       </defs>
       <use xlink:href="#DejaVuSans-30"/>
       <use xlink:href="#DejaVuSans-2e" x="63.623047"/>
       <use xlink:href="#DejaVuSans-30" x="95.410156"/>
       <use xlink:href="#DejaVuSans-36" x="159.033203"/>
      </g>
     </g>
    </g>
   </g>
   <g id="line2d_21">
    <path d="M 379.023281 330.274423 
L 381.441717 308.328592 
L 383.860153 301.658748 
L 388.697026 302.918544 
L 391.115462 303.147431 
L 393.533899 300.923917 
L 395.952335 301.494882 
L 398.370771 300.503483 
L 400.789208 301.396234 
L 403.207644 302.97406 
L 405.62608 302.615547 
L 408.044517 302.742914 
L 410.462953 304.177346 
L 412.88139 303.858831 
L 415.299826 302.179997 
L 417.718262 302.307036 
L 420.136699 302.065041 
L 422.555135 303.873213 
L 424.973571 303.945412 
L 427.392008 302.909165 
L 429.810444 302.213536 
L 432.22888 302.43229 
L 434.647317 301.48801 
L 437.065753 301.844384 
L 439.484189 301.858282 
L 441.902626 302.772433 
L 444.321062 301.303293 
L 446.739498 302.787848 
L 449.157935 301.538436 
L 451.576371 301.766835 
L 453.994807 303.21306 
L 458.83168 304.61644 
L 461.250116 303.316623 
L 463.668553 302.859361 
L 466.086989 302.659919 
L 468.505425 303.887064 
L 470.923862 303.092235 
L 473.342298 301.448639 
L 475.760735 302.324643 
L 478.179171 301.645661 
L 483.016044 301.081661 
L 485.43448 302.21695 
L 487.852916 301.282503 
L 490.271353 301.021622 
L 492.689789 301.518105 
L 495.108225 300.431701 
L 497.526662 300.172948 
L 499.945098 301.718964 
L 502.363534 301.710354 
L 507.200407 301.297119 
L 509.618843 302.525903 
L 512.03728 303.411974 
L 514.455716 303.712634 
L 516.874152 301.182694 
L 519.292589 301.3945 
L 521.711025 301.885162 
L 524.129461 302.003032 
L 526.547898 303.50457 
L 528.966334 301.843684 
L 531.38477 301.221052 
L 533.803207 303.142929 
L 536.221643 302.269355 
L 538.640079 303.289035 
L 543.476952 302.484414 
L 545.895389 303.161942 
L 548.313825 302.7363 
L 550.732261 302.859341 
L 553.150698 302.429224 
L 555.569134 301.640392 
L 557.98757 301.253919 
L 560.406007 301.765946 
L 562.824443 303.088647 
L 565.242879 302.686117 
L 567.661316 301.977507 
L 570.079752 302.371269 
L 572.498188 301.801954 
L 574.916625 302.571904 
L 577.335061 304.236607 
L 579.753497 305.529356 
L 582.171934 301.663011 
L 584.59037 301.341411 
L 587.008806 302.328137 
L 589.427243 301.504067 
L 591.845679 301.348901 
L 594.264115 301.94396 
L 596.682552 302.666219 
L 599.100988 302.375223 
L 601.519424 302.422329 
L 603.937861 301.757128 
L 606.356297 303.164165 
L 608.774734 303.278043 
L 611.19317 301.055225 
L 613.611606 301.390407 
L 616.030043 303.009044 
L 618.448479 303.356007 
L 620.866915 304.130062 
L 623.285352 304.765426 
L 628.122224 304.749738 
L 632.959097 302.170873 
L 635.377533 301.336267 
L 637.79597 301.108171 
L 640.214406 302.14382 
L 642.632842 301.909082 
L 645.051279 301.151168 
L 647.469715 302.613607 
L 649.888151 304.221727 
L 652.306588 300.53128 
L 654.725024 300.48874 
L 657.14346 299.487275 
L 659.561897 301.407838 
L 661.980333 304.831339 
L 664.398769 304.092092 
L 666.817206 302.606004 
L 669.235642 303.267767 
L 671.654079 301.082426 
L 674.072515 303.269104 
L 676.490951 303.186463 
L 678.909388 302.693248 
L 681.327824 303.341482 
L 683.74626 301.808984 
L 686.164697 302.143984 
L 69.463428 303.609241 
L 71.881865 302.143984 
L 74.300301 301.808984 
L 76.718737 303.341482 
L 79.137174 302.693248 
L 81.55561 303.186463 
L 83.974046 303.269104 
L 86.392483 301.082426 
L 88.810919 303.267767 
L 91.229356 302.606004 
L 93.647792 304.092092 
L 96.066228 304.831339 
L 98.484665 301.407838 
L 100.903101 299.487275 
L 103.321537 300.48874 
L 105.739974 300.53128 
L 108.15841 304.221727 
L 110.576846 302.613607 
L 112.995283 301.151168 
L 115.413719 301.909082 
L 117.832155 302.14382 
L 120.250592 301.108171 
L 122.669028 301.336267 
L 125.087464 302.170873 
L 129.924337 304.749738 
L 134.76121 304.765426 
L 137.179646 304.130062 
L 139.598082 303.356007 
L 142.016519 303.009044 
L 144.434955 301.390407 
L 146.853391 301.055225 
L 149.271828 303.278043 
L 151.690264 303.164165 
L 154.108701 301.757128 
L 156.527137 302.422329 
L 158.945573 302.375223 
L 161.36401 302.666219 
L 163.782446 301.94396 
L 166.200882 301.348901 
L 168.619319 301.504067 
L 171.037755 302.328137 
L 173.456191 301.341411 
L 175.874628 301.663011 
L 178.293064 305.529356 
L 180.7115 304.236607 
L 183.129937 302.571904 
L 185.548373 301.801954 
L 187.966809 302.371269 
L 190.385246 301.977507 
L 192.803682 302.686117 
L 195.222118 303.088647 
L 197.640555 301.765946 
L 200.058991 301.253919 
L 202.477427 301.640392 
L 204.895864 302.429224 
L 207.3143 302.859341 
L 209.732736 302.7363 
L 212.151173 303.161942 
L 214.569609 302.484414 
L 219.406482 303.289035 
L 221.824918 302.269355 
L 224.243355 303.142929 
L 226.661791 301.221052 
L 229.080227 301.843684 
L 231.498664 303.50457 
L 233.9171 302.003032 
L 236.335536 301.885162 
L 238.753973 301.3945 
L 241.172409 301.182694 
L 243.590845 303.712634 
L 246.009282 303.411974 
L 248.427718 302.525903 
L 250.846154 301.297119 
L 255.683027 301.710354 
L 258.101463 301.718964 
L 260.5199 300.172948 
L 262.938336 300.431701 
L 265.356772 301.518105 
L 267.775209 301.021622 
L 270.193645 301.282503 
L 272.612081 302.21695 
L 275.030518 301.081661 
L 279.86739 301.645661 
L 282.285827 302.324643 
L 284.704263 301.448639 
L 287.1227 303.092235 
L 289.541136 303.887064 
L 291.959572 302.659919 
L 294.378009 302.859361 
L 296.796445 303.316623 
L 299.214881 304.61644 
L 304.051754 303.21306 
L 306.47019 301.766835 
L 308.888627 301.538436 
L 311.307063 302.787848 
L 313.725499 301.303293 
L 316.143936 302.772433 
L 318.562372 301.858282 
L 320.980808 301.844384 
L 323.399245 301.48801 
L 325.817681 302.43229 
L 328.236117 302.213536 
L 330.654554 302.909165 
L 333.07299 303.945412 
L 335.491426 303.873213 
L 337.909863 302.065041 
L 340.328299 302.307036 
L 342.746735 302.179997 
L 345.165172 303.858831 
L 347.583608 304.177346 
L 350.002045 302.742914 
L 352.420481 302.615547 
L 354.838917 302.97406 
L 357.257354 301.396234 
L 359.67579 300.503483 
L 362.094226 301.494882 
L 364.512663 300.923917 
L 366.931099 303.147431 
L 369.349535 302.918544 
L 374.186408 301.658748 
L 376.604844 308.328592 
L 376.604844 308.328592 
" clip-path="url(#pd767adabf4)" style="fill: none; stroke: #1f77b4; stroke-width: 1.5; stroke-linecap: square"/>
   </g>
   <g id="line2d_22">
    <path d="M 379.023281 314.864894 
L 381.441717 271.486702 
L 383.860153 259.742681 
L 386.27859 259.226553 
L 388.697026 260.982794 
L 391.115462 260.461885 
L 395.952335 260.233723 
L 398.370771 255.284454 
L 400.789208 256.723899 
L 403.207644 263.332601 
L 405.62608 263.438311 
L 408.044517 262.503455 
L 410.462953 264.017548 
L 412.88139 267.214803 
L 415.299826 262.074213 
L 417.718262 257.375177 
L 420.136699 259.091322 
L 422.555135 258.790474 
L 424.973571 259.326018 
L 427.392008 262.880182 
L 429.810444 263.805197 
L 432.22888 261.568426 
L 434.647317 261.018545 
L 437.065753 260.115922 
L 439.484189 257.211111 
L 441.902626 258.831679 
L 444.321062 256.855107 
L 446.739498 262.060874 
L 449.157935 259.983465 
L 451.576371 258.993943 
L 453.994807 256.799822 
L 456.413244 257.426537 
L 458.83168 259.693018 
L 461.250116 262.754426 
L 463.668553 260.633561 
L 466.086989 260.988695 
L 468.505425 260.567609 
L 470.923862 256.969687 
L 473.342298 256.312329 
L 475.760735 259.129046 
L 478.179171 260.492806 
L 480.597607 259.403609 
L 483.016044 259.640521 
L 485.43448 264.590642 
L 487.852916 262.942346 
L 490.271353 260.608774 
L 492.689789 259.884534 
L 495.108225 259.544542 
L 497.526662 258.432639 
L 499.945098 260.821707 
L 502.363534 256.731632 
L 504.781971 258.402289 
L 507.200407 262.7501 
L 509.618843 262.199898 
L 512.03728 259.260251 
L 514.455716 263.0916 
L 519.292589 265.33387 
L 521.711025 257.305504 
L 524.129461 258.61857 
L 526.547898 262.822729 
L 528.966334 260.196657 
L 531.38477 258.159351 
L 533.803207 260.576585 
L 536.221643 261.16145 
L 538.640079 262.857713 
L 541.058516 261.771963 
L 543.476952 260.230149 
L 545.895389 260.250232 
L 548.313825 259.143475 
L 550.732261 260.896619 
L 553.150698 260.304679 
L 555.569134 262.569952 
L 557.98757 262.760795 
L 560.406007 258.871616 
L 562.824443 258.577872 
L 565.242879 261.671225 
L 567.661316 262.113377 
L 570.079752 260.667826 
L 572.498188 255.42525 
L 574.916625 257.239384 
L 577.335061 262.72398 
L 579.753497 262.59465 
L 582.171934 259.019738 
L 584.59037 259.293994 
L 587.008806 261.005667 
L 589.427243 260.338863 
L 591.845679 261.31195 
L 594.264115 261.939766 
L 596.682552 260.30099 
L 599.100988 260.325931 
L 601.519424 260.780064 
L 603.937861 259.356319 
L 606.356297 261.898079 
L 608.774734 263.391628 
L 611.19317 260.710506 
L 613.611606 259.068557 
L 616.030043 260.307602 
L 618.448479 258.73045 
L 620.866915 258.863663 
L 623.285352 262.158278 
L 625.703788 265.809687 
L 630.540661 262.44381 
L 632.959097 263.367417 
L 635.377533 260.984435 
L 637.79597 261.854951 
L 640.214406 261.860348 
L 645.051279 260.936965 
L 647.469715 262.763495 
L 649.888151 263.144582 
L 652.306588 257.396349 
L 654.725024 256.822847 
L 657.14346 257.502902 
L 659.561897 260.259647 
L 661.980333 261.453233 
L 666.817206 262.903887 
L 669.235642 259.512077 
L 671.654079 257.751095 
L 674.072515 262.563083 
L 676.490951 262.752393 
L 678.909388 260.549377 
L 681.327824 262.898267 
L 683.74626 260.438928 
L 686.164697 262.598055 
L 69.463428 262.221863 
L 71.881865 262.598055 
L 74.300301 260.438928 
L 76.718737 262.898267 
L 79.137174 260.549377 
L 81.55561 262.752393 
L 83.974046 262.563083 
L 86.392483 257.751095 
L 88.810919 259.512077 
L 91.229356 262.903887 
L 96.066228 261.453233 
L 98.484665 260.259647 
L 100.903101 257.502902 
L 103.321537 256.822847 
L 105.739974 257.396349 
L 108.15841 263.144582 
L 110.576846 262.763495 
L 112.995283 260.936965 
L 117.832155 261.860348 
L 120.250592 261.854951 
L 122.669028 260.984435 
L 125.087464 263.367417 
L 127.505901 262.44381 
L 132.342773 265.809687 
L 134.76121 262.158278 
L 137.179646 258.863663 
L 139.598082 258.73045 
L 142.016519 260.307602 
L 144.434955 259.068557 
L 146.853391 260.710506 
L 149.271828 263.391628 
L 151.690264 261.898079 
L 154.108701 259.356319 
L 156.527137 260.780064 
L 158.945573 260.325931 
L 161.36401 260.30099 
L 163.782446 261.939766 
L 166.200882 261.31195 
L 168.619319 260.338863 
L 171.037755 261.005667 
L 173.456191 259.293994 
L 175.874628 259.019738 
L 178.293064 262.59465 
L 180.7115 262.72398 
L 183.129937 257.239384 
L 185.548373 255.42525 
L 187.966809 260.667826 
L 190.385246 262.113377 
L 192.803682 261.671225 
L 195.222118 258.577872 
L 197.640555 258.871616 
L 200.058991 262.760795 
L 202.477427 262.569952 
L 204.895864 260.304679 
L 207.3143 260.896619 
L 209.732736 259.143475 
L 212.151173 260.250232 
L 214.569609 260.230149 
L 216.988046 261.771963 
L 219.406482 262.857713 
L 221.824918 261.16145 
L 224.243355 260.576585 
L 226.661791 258.159351 
L 229.080227 260.196657 
L 231.498664 262.822729 
L 233.9171 258.61857 
L 236.335536 257.305504 
L 238.753973 265.33387 
L 243.590845 263.0916 
L 246.009282 259.260251 
L 248.427718 262.199898 
L 250.846154 262.7501 
L 253.264591 258.402289 
L 255.683027 256.731632 
L 258.101463 260.821707 
L 260.5199 258.432639 
L 262.938336 259.544542 
L 265.356772 259.884534 
L 267.775209 260.608774 
L 270.193645 262.942346 
L 272.612081 264.590642 
L 275.030518 259.640521 
L 277.448954 259.403609 
L 279.86739 260.492806 
L 282.285827 259.129046 
L 284.704263 256.312329 
L 287.1227 256.969687 
L 289.541136 260.567609 
L 291.959572 260.988695 
L 294.378009 260.633561 
L 296.796445 262.754426 
L 299.214881 259.693018 
L 301.633318 257.426537 
L 304.051754 256.799822 
L 306.47019 258.993943 
L 308.888627 259.983465 
L 311.307063 262.060874 
L 313.725499 256.855107 
L 316.143936 258.831679 
L 318.562372 257.211111 
L 320.980808 260.115922 
L 323.399245 261.018545 
L 325.817681 261.568426 
L 328.236117 263.805197 
L 330.654554 262.880182 
L 333.07299 259.326018 
L 335.491426 258.790474 
L 337.909863 259.091322 
L 340.328299 257.375177 
L 342.746735 262.074213 
L 345.165172 267.214803 
L 347.583608 264.017548 
L 350.002045 262.503455 
L 352.420481 263.438311 
L 354.838917 263.332601 
L 357.257354 256.723899 
L 359.67579 255.284454 
L 362.094226 260.233723 
L 366.931099 260.461885 
L 369.349535 260.982794 
L 371.767972 259.226553 
L 374.186408 259.742681 
L 376.604844 271.486702 
L 376.604844 271.486702 
" clip-path="url(#pd767adabf4)" style="fill: none; stroke: #ff7f0e; stroke-width: 1.5; stroke-linecap: square"/>
   </g>
   <g id="line2d_23">
    <path d="M 379.023281 302.051757 
L 381.441717 236.506344 
L 383.860153 221.197077 
L 386.27859 219.916339 
L 388.697026 219.004962 
L 391.115462 219.915993 
L 393.533899 222.764441 
L 395.952335 219.878594 
L 398.370771 210.858098 
L 400.789208 212.335543 
L 403.207644 220.385333 
L 405.62608 222.717107 
L 408.044517 221.632802 
L 412.88139 227.192118 
L 415.299826 225.261796 
L 417.718262 216.011792 
L 420.136699 213.331733 
L 422.555135 216.884188 
L 424.973571 221.096281 
L 427.392008 221.483623 
L 429.810444 225.583515 
L 432.22888 221.526382 
L 434.647317 219.697176 
L 437.065753 218.773353 
L 439.484189 213.902409 
L 441.902626 216.652825 
L 444.321062 217.280215 
L 446.739498 222.521531 
L 449.157935 220.058985 
L 451.576371 215.86151 
L 453.994807 212.960993 
L 456.413244 211.220998 
L 458.83168 214.105722 
L 461.250116 214.73086 
L 466.086989 218.810203 
L 468.505425 214.77706 
L 473.342298 214.705964 
L 475.760735 215.6031 
L 478.179171 214.998942 
L 480.597607 219.523422 
L 483.016044 218.460401 
L 485.43448 220.384675 
L 487.852916 223.035086 
L 490.271353 223.304083 
L 492.689789 217.053078 
L 495.108225 214.08626 
L 497.526662 217.195552 
L 499.945098 221.005993 
L 502.363534 211.572174 
L 504.781971 212.758729 
L 507.200407 222.08512 
L 509.618843 223.840048 
L 512.03728 217.730372 
L 514.455716 222.151293 
L 516.874152 221.948201 
L 519.292589 218.983493 
L 521.711025 213.411884 
L 524.129461 221.176304 
L 526.547898 221.522515 
L 528.966334 221.517116 
L 531.38477 221.899689 
L 533.803207 220.540347 
L 536.221643 215.806357 
L 538.640079 215.891339 
L 541.058516 217.824802 
L 543.476952 217.41118 
L 545.895389 215.900329 
L 548.313825 215.09643 
L 550.732261 219.957662 
L 553.150698 215.370375 
L 555.569134 217.512378 
L 557.98757 222.926902 
L 560.406007 221.241756 
L 562.824443 219.872878 
L 565.242879 220.957504 
L 567.661316 220.448373 
L 570.079752 214.998836 
L 572.498188 212.288697 
L 574.916625 216.888949 
L 577.335061 220.825686 
L 579.753497 219.253912 
L 582.171934 216.617788 
L 589.427243 222.866795 
L 591.845679 222.092494 
L 594.264115 217.604849 
L 596.682552 213.709236 
L 599.100988 214.775553 
L 601.519424 217.768185 
L 603.937861 221.106497 
L 606.356297 218.272261 
L 608.774734 215.184861 
L 611.19317 215.464439 
L 613.611606 212.360115 
L 616.030043 213.696712 
L 618.448479 216.806295 
L 620.866915 216.050824 
L 623.285352 217.343445 
L 625.703788 225.18172 
L 628.122224 222.952207 
L 630.540661 218.164607 
L 632.959097 219.042264 
L 635.377533 217.05255 
L 637.79597 214.406704 
L 640.214406 217.276415 
L 642.632842 219.589399 
L 645.051279 216.12614 
L 647.469715 216.06263 
L 649.888151 221.66187 
L 652.306588 214.727017 
L 654.725024 213.692043 
L 657.14346 217.508842 
L 659.561897 218.662623 
L 661.980333 221.164967 
L 664.398769 223.168211 
L 666.817206 221.886345 
L 669.235642 216.848448 
L 671.654079 215.856752 
L 674.072515 223.568131 
L 676.490951 217.390884 
L 678.909388 214.480603 
L 681.327824 219.277758 
L 683.74626 218.541793 
L 686.164697 222.80026 
L 69.463428 222.331851 
L 71.881865 222.80026 
L 74.300301 218.541793 
L 76.718737 219.277758 
L 79.137174 214.480603 
L 81.55561 217.390884 
L 83.974046 223.568131 
L 86.392483 215.856752 
L 88.810919 216.848448 
L 91.229356 221.886345 
L 93.647792 223.168211 
L 96.066228 221.164967 
L 98.484665 218.662623 
L 100.903101 217.508842 
L 103.321537 213.692043 
L 105.739974 214.727017 
L 108.15841 221.66187 
L 110.576846 216.06263 
L 112.995283 216.12614 
L 115.413719 219.589399 
L 117.832155 217.276415 
L 120.250592 214.406704 
L 122.669028 217.05255 
L 125.087464 219.042264 
L 127.505901 218.164607 
L 129.924337 222.952207 
L 132.342773 225.18172 
L 134.76121 217.343445 
L 137.179646 216.050824 
L 139.598082 216.806295 
L 142.016519 213.696712 
L 144.434955 212.360115 
L 146.853391 215.464439 
L 149.271828 215.184861 
L 151.690264 218.272261 
L 154.108701 221.106497 
L 156.527137 217.768185 
L 158.945573 214.775553 
L 161.36401 213.709236 
L 163.782446 217.604849 
L 166.200882 222.092494 
L 168.619319 222.866795 
L 173.456191 218.7219 
L 175.874628 216.617788 
L 178.293064 219.253912 
L 180.7115 220.825686 
L 183.129937 216.888949 
L 185.548373 212.288697 
L 187.966809 214.998836 
L 190.385246 220.448373 
L 192.803682 220.957504 
L 195.222118 219.872878 
L 197.640555 221.241756 
L 200.058991 222.926902 
L 202.477427 217.512378 
L 204.895864 215.370375 
L 207.3143 219.957662 
L 209.732736 215.09643 
L 212.151173 215.900329 
L 214.569609 217.41118 
L 216.988046 217.824802 
L 219.406482 215.891339 
L 221.824918 215.806357 
L 224.243355 220.540347 
L 226.661791 221.899689 
L 229.080227 221.517116 
L 231.498664 221.522515 
L 233.9171 221.176304 
L 236.335536 213.411884 
L 238.753973 218.983493 
L 241.172409 221.948201 
L 243.590845 222.151293 
L 246.009282 217.730372 
L 248.427718 223.840048 
L 250.846154 222.08512 
L 253.264591 212.758729 
L 255.683027 211.572174 
L 258.101463 221.005993 
L 260.5199 217.195552 
L 262.938336 214.08626 
L 265.356772 217.053078 
L 267.775209 223.304083 
L 270.193645 223.035086 
L 272.612081 220.384675 
L 275.030518 218.460401 
L 277.448954 219.523422 
L 279.86739 214.998942 
L 282.285827 215.6031 
L 284.704263 214.705964 
L 289.541136 214.77706 
L 291.959572 218.810203 
L 296.796445 214.73086 
L 299.214881 214.105722 
L 301.633318 211.220998 
L 304.051754 212.960993 
L 306.47019 215.86151 
L 308.888627 220.058985 
L 311.307063 222.521531 
L 313.725499 217.280215 
L 316.143936 216.652825 
L 318.562372 213.902409 
L 320.980808 218.773353 
L 323.399245 219.697176 
L 325.817681 221.526382 
L 328.236117 225.583515 
L 330.654554 221.483623 
L 333.07299 221.096281 
L 335.491426 216.884188 
L 337.909863 213.331733 
L 340.328299 216.011792 
L 342.746735 225.261796 
L 345.165172 227.192118 
L 350.002045 221.632802 
L 352.420481 222.717107 
L 354.838917 220.385333 
L 357.257354 212.335543 
L 359.67579 210.858098 
L 362.094226 219.878594 
L 364.512663 222.764441 
L 366.931099 219.915993 
L 369.349535 219.004962 
L 371.767972 219.916339 
L 374.186408 221.197077 
L 376.604844 236.506344 
L 376.604844 236.506344 
" clip-path="url(#pd767adabf4)" style="fill: none; stroke: #2ca02c; stroke-width: 1.5; stroke-linecap: square"/>
   </g>
   <g id="patch_8">
    <path d="M 38.628365 336.245239 
L 38.628365 204.887282 
" style="fill: none; stroke: #000000; stroke-width: 0.8; stroke-linejoin: miter; stroke-linecap: square"/>
   </g>
   <g id="patch_9">
    <path d="M 716.99976 336.245239 
L 716.99976 204.887282 
" style="fill: none; stroke: #000000; stroke-width: 0.8; stroke-linejoin: miter; stroke-linecap: square"/>
   </g>
   <g id="patch_10">
    <path d="M 38.628365 336.245239 
L 716.99976 336.245239 
" style="fill: none; stroke: #000000; stroke-width: 0.8; stroke-linejoin: miter; stroke-linecap: square"/>
   </g>
   <g id="patch_11">
    <path d="M 38.628365 204.887282 
L 716.99976 204.887282 
" style="fill: none; stroke: #000000; stroke-width: 0.8; stroke-linejoin: miter; stroke-linecap: square"/>
   </g>
   <g id="text_19">
    <!-- Random Walk -->
    <g transform="translate(336.700937 198.887282) scale(0.12 -0.12)">
     <defs>
      <path id="DejaVuSans-52" d="M 2841 2188 
Q 3044 2119 3236 1894 
Q 3428 1669 3622 1275 
L 4263 0 
L 3584 0 
L 2988 1197 
Q 2756 1666 2539 1819 
Q 2322 1972 1947 1972 
L 1259 1972 
L 1259 0 
L 628 0 
L 628 4666 
L 2053 4666 
Q 2853 4666 3247 4331 
Q 3641 3997 3641 3322 
Q 3641 2881 3436 2590 
Q 3231 2300 2841 2188 
z
M 1259 4147 
L 1259 2491 
L 2053 2491 
Q 2509 2491 2742 2702 
Q 2975 2913 2975 3322 
Q 2975 3731 2742 3939 
Q 2509 4147 2053 4147 
L 1259 4147 
z
" transform="scale(0.015625)"/>
      <path id="DejaVuSans-61" d="M 2194 1759 
Q 1497 1759 1228 1600 
Q 959 1441 959 1056 
Q 959 750 1161 570 
Q 1363 391 1709 391 
Q 2188 391 2477 730 
Q 2766 1069 2766 1631 
L 2766 1759 
L 2194 1759 
z
M 3341 1997 
L 3341 0 
L 2766 0 
L 2766 531 
Q 2569 213 2275 61 
Q 1981 -91 1556 -91 
Q 1019 -91 701 211 
Q 384 513 384 1019 
Q 384 1609 779 1909 
Q 1175 2209 1959 2209 
L 2766 2209 
L 2766 2266 
Q 2766 2663 2505 2880 
Q 2244 3097 1772 3097 
Q 1472 3097 1187 3025 
Q 903 2953 641 2809 
L 641 3341 
Q 956 3463 1253 3523 
Q 1550 3584 1831 3584 
Q 2591 3584 2966 3190 
Q 3341 2797 3341 1997 
z
" transform="scale(0.015625)"/>
      <path id="DejaVuSans-6e" d="M 3513 2113 
L 3513 0 
L 2938 0 
L 2938 2094 
Q 2938 2591 2744 2837 
Q 2550 3084 2163 3084 
Q 1697 3084 1428 2787 
Q 1159 2491 1159 1978 
L 1159 0 
L 581 0 
L 581 3500 
L 1159 3500 
L 1159 2956 
Q 1366 3272 1645 3428 
Q 1925 3584 2291 3584 
Q 2894 3584 3203 3211 
Q 3513 2838 3513 2113 
z
" transform="scale(0.015625)"/>
      <path id="DejaVuSans-64" d="M 2906 2969 
L 2906 4863 
L 3481 4863 
L 3481 0 
L 2906 0 
L 2906 525 
Q 2725 213 2448 61 
Q 2172 -91 1784 -91 
Q 1150 -91 751 415 
Q 353 922 353 1747 
Q 353 2572 751 3078 
Q 1150 3584 1784 3584 
Q 2172 3584 2448 3432 
Q 2725 3281 2906 2969 
z
M 947 1747 
Q 947 1113 1208 752 
Q 1469 391 1925 391 
Q 2381 391 2643 752 
Q 2906 1113 2906 1747 
Q 2906 2381 2643 2742 
Q 2381 3103 1925 3103 
Q 1469 3103 1208 2742 
Q 947 2381 947 1747 
z
" transform="scale(0.015625)"/>
      <path id="DejaVuSans-6d" d="M 3328 2828 
Q 3544 3216 3844 3400 
Q 4144 3584 4550 3584 
Q 5097 3584 5394 3201 
Q 5691 2819 5691 2113 
L 5691 0 
L 5113 0 
L 5113 2094 
Q 5113 2597 4934 2840 
Q 4756 3084 4391 3084 
Q 3944 3084 3684 2787 
Q 3425 2491 3425 1978 
L 3425 0 
L 2847 0 
L 2847 2094 
Q 2847 2600 2669 2842 
Q 2491 3084 2119 3084 
Q 1678 3084 1418 2786 
Q 1159 2488 1159 1978 
L 1159 0 
L 581 0 
L 581 3500 
L 1159 3500 
L 1159 2956 
Q 1356 3278 1631 3431 
Q 1906 3584 2284 3584 
Q 2666 3584 2933 3390 
Q 3200 3197 3328 2828 
z
" transform="scale(0.015625)"/>
      <path id="DejaVuSans-6c" d="M 603 4863 
L 1178 4863 
L 1178 0 
L 603 0 
L 603 4863 
z
" transform="scale(0.015625)"/>
      <path id="DejaVuSans-6b" d="M 581 4863 
L 1159 4863 
L 1159 1991 
L 2875 3500 
L 3609 3500 
L 1753 1863 
L 3688 0 
L 2938 0 
L 1159 1709 
L 1159 0 
L 581 0 
L 581 4863 
z
" transform="scale(0.015625)"/>
     </defs>
     <use xlink:href="#DejaVuSans-52"/>
     <use xlink:href="#DejaVuSans-61" x="67.232422"/>
     <use xlink:href="#DejaVuSans-6e" x="128.511719"/>
     <use xlink:href="#DejaVuSans-64" x="191.890625"/>
     <use xlink:href="#DejaVuSans-6f" x="255.367188"/>
     <use xlink:href="#DejaVuSans-6d" x="316.548828"/>
     <use xlink:href="#DejaVuSans-20" x="413.960938"/>
     <use xlink:href="#DejaVuSans-57" x="445.748047"/>
     <use xlink:href="#DejaVuSans-61" x="538.25"/>
     <use xlink:href="#DejaVuSans-6c" x="599.529297"/>
     <use xlink:href="#DejaVuSans-6b" x="627.3125"/>
    </g>
   </g>
  </g>
  <g id="axes_3">
   <g id="patch_12">
    <path d="M 38.628365 505.399926 
L 716.99976 505.399926 
L 716.99976 374.041969 
L 38.628365 374.041969 
z
" style="fill: #ffffff"/>
   </g>
   <g id="matplotlib.axis_5">
    <g id="xtick_11">
     <g id="line2d_24">
      <g>
       <use xlink:href="#md0949d80bb" x="131.375399" y="505.399926" style="stroke: #000000; stroke-width: 0.8"/>
      </g>
     </g>
     <g id="text_20">
      <!-- −0.4 -->
      <g transform="translate(119.233993 519.998363) scale(0.1 -0.1)">
       <use xlink:href="#DejaVuSans-2212"/>
       <use xlink:href="#DejaVuSans-30" x="83.789062"/>
       <use xlink:href="#DejaVuSans-2e" x="147.412109"/>
       <use xlink:href="#DejaVuSans-34" x="179.199219"/>
      </g>
     </g>
    </g>
    <g id="xtick_12">
     <g id="line2d_25">
      <g>
       <use xlink:href="#md0949d80bb" x="255.19934" y="505.399926" style="stroke: #000000; stroke-width: 0.8"/>
      </g>
     </g>
     <g id="text_21">
      <!-- −0.2 -->
      <g transform="translate(243.057934 519.998363) scale(0.1 -0.1)">
       <use xlink:href="#DejaVuSans-2212"/>
       <use xlink:href="#DejaVuSans-30" x="83.789062"/>
       <use xlink:href="#DejaVuSans-2e" x="147.412109"/>
       <use xlink:href="#DejaVuSans-32" x="179.199219"/>
      </g>
     </g>
    </g>
    <g id="xtick_13">
     <g id="line2d_26">
      <g>
       <use xlink:href="#md0949d80bb" x="379.023281" y="505.399926" style="stroke: #000000; stroke-width: 0.8"/>
      </g>
     </g>
     <g id="text_22">
      <!-- 0.0 -->
      <g transform="translate(371.071718 519.998363) scale(0.1 -0.1)">
       <use xlink:href="#DejaVuSans-30"/>
       <use xlink:href="#DejaVuSans-2e" x="63.623047"/>
       <use xlink:href="#DejaVuSans-30" x="95.410156"/>
      </g>
     </g>
    </g>
    <g id="xtick_14">
     <g id="line2d_27">
      <g>
       <use xlink:href="#md0949d80bb" x="502.847222" y="505.399926" style="stroke: #000000; stroke-width: 0.8"/>
      </g>
     </g>
     <g id="text_23">
      <!-- 0.2 -->
      <g transform="translate(494.895659 519.998363) scale(0.1 -0.1)">
       <use xlink:href="#DejaVuSans-30"/>
       <use xlink:href="#DejaVuSans-2e" x="63.623047"/>
       <use xlink:href="#DejaVuSans-32" x="95.410156"/>
      </g>
     </g>
    </g>
    <g id="xtick_15">
     <g id="line2d_28">
      <g>
       <use xlink:href="#md0949d80bb" x="626.671162" y="505.399926" style="stroke: #000000; stroke-width: 0.8"/>
      </g>
     </g>
     <g id="text_24">
      <!-- 0.4 -->
      <g transform="translate(618.7196 519.998363) scale(0.1 -0.1)">
       <use xlink:href="#DejaVuSans-30"/>
       <use xlink:href="#DejaVuSans-2e" x="63.623047"/>
       <use xlink:href="#DejaVuSans-34" x="95.410156"/>
      </g>
     </g>
    </g>
   </g>
   <g id="matplotlib.axis_6">
    <g id="ytick_8">
     <g id="line2d_29">
      <g>
       <use xlink:href="#m25b9f421ff" x="38.628365" y="499.444436" style="stroke: #000000; stroke-width: 0.8"/>
      </g>
     </g>
     <g id="text_25">
      <!-- 0 -->
      <g transform="translate(25.265865 503.243655) scale(0.1 -0.1)">
       <use xlink:href="#DejaVuSans-30"/>
      </g>
     </g>
    </g>
    <g id="ytick_9">
     <g id="line2d_30">
      <g>
       <use xlink:href="#m25b9f421ff" x="38.628365" y="472.106251" style="stroke: #000000; stroke-width: 0.8"/>
      </g>
     </g>
     <g id="text_26">
      <!-- 10 -->
      <g transform="translate(18.903365 475.90547) scale(0.1 -0.1)">
       <use xlink:href="#DejaVuSans-31"/>
       <use xlink:href="#DejaVuSans-30" x="63.623047"/>
      </g>
     </g>
    </g>
    <g id="ytick_10">
     <g id="line2d_31">
      <g>
       <use xlink:href="#m25b9f421ff" x="38.628365" y="444.768066" style="stroke: #000000; stroke-width: 0.8"/>
      </g>
     </g>
     <g id="text_27">
      <!-- 20 -->
      <g transform="translate(18.903365 448.567285) scale(0.1 -0.1)">
       <use xlink:href="#DejaVuSans-32"/>
       <use xlink:href="#DejaVuSans-30" x="63.623047"/>
      </g>
     </g>
    </g>
    <g id="ytick_11">
     <g id="line2d_32">
      <g>
       <use xlink:href="#m25b9f421ff" x="38.628365" y="417.429881" style="stroke: #000000; stroke-width: 0.8"/>
      </g>
     </g>
     <g id="text_28">
      <!-- 30 -->
      <g transform="translate(18.903365 421.229099) scale(0.1 -0.1)">
       <defs>
        <path id="DejaVuSans-33" d="M 2597 2516 
Q 3050 2419 3304 2112 
Q 3559 1806 3559 1356 
Q 3559 666 3084 287 
Q 2609 -91 1734 -91 
Q 1441 -91 1130 -33 
Q 819 25 488 141 
L 488 750 
Q 750 597 1062 519 
Q 1375 441 1716 441 
Q 2309 441 2620 675 
Q 2931 909 2931 1356 
Q 2931 1769 2642 2001 
Q 2353 2234 1838 2234 
L 1294 2234 
L 1294 2753 
L 1863 2753 
Q 2328 2753 2575 2939 
Q 2822 3125 2822 3475 
Q 2822 3834 2567 4026 
Q 2313 4219 1838 4219 
Q 1578 4219 1281 4162 
Q 984 4106 628 3988 
L 628 4550 
Q 988 4650 1302 4700 
Q 1616 4750 1894 4750 
Q 2613 4750 3031 4423 
Q 3450 4097 3450 3541 
Q 3450 3153 3228 2886 
Q 3006 2619 2597 2516 
z
" transform="scale(0.015625)"/>
       </defs>
       <use xlink:href="#DejaVuSans-33"/>
       <use xlink:href="#DejaVuSans-30" x="63.623047"/>
      </g>
     </g>
    </g>
    <g id="ytick_12">
     <g id="line2d_33">
      <g>
       <use xlink:href="#m25b9f421ff" x="38.628365" y="390.091695" style="stroke: #000000; stroke-width: 0.8"/>
      </g>
     </g>
     <g id="text_29">
      <!-- 40 -->
      <g transform="translate(18.903365 393.890914) scale(0.1 -0.1)">
       <use xlink:href="#DejaVuSans-34"/>
       <use xlink:href="#DejaVuSans-30" x="63.623047"/>
      </g>
     </g>
    </g>
   </g>
   <g id="line2d_34">
    <path d="M 379.023281 463.270972 
L 381.441717 386.1063 
L 383.860153 459.262916 
L 386.27859 485.964919 
L 388.697026 492.356376 
L 391.115462 495.117301 
L 393.533899 496.305774 
L 395.952335 497.180369 
L 400.789208 498.078495 
L 403.207644 498.379825 
L 410.462953 498.834298 
L 420.136699 499.067682 
L 429.810444 499.196631 
L 453.994807 499.330647 
L 504.781971 499.398472 
L 686.164697 499.428371 
L 69.463428 499.428932 
L 306.47019 499.319067 
L 335.491426 499.122325 
L 350.002045 498.702532 
L 354.838917 498.379825 
L 359.67579 497.679952 
L 362.094226 497.180369 
L 364.512663 496.305774 
L 366.931099 495.117301 
L 369.349535 492.356376 
L 371.767972 485.964919 
L 374.186408 459.262916 
L 376.604844 386.1063 
L 376.604844 386.1063 
" clip-path="url(#pc61834cda0)" style="fill: none; stroke: #1f77b4; stroke-width: 1.5; stroke-linecap: square"/>
   </g>
   <g id="line2d_35">
    <path d="M 379.023281 461.427856 
L 381.441717 380.012785 
L 383.860153 458.080848 
L 386.27859 485.271744 
L 388.697026 492.317628 
L 391.115462 495.017391 
L 393.533899 496.349658 
L 395.952335 497.225501 
L 400.789208 498.050617 
L 405.62608 498.580366 
L 412.88139 498.924363 
L 432.22888 499.218399 
L 456.413244 499.332104 
L 565.242879 499.419617 
L 686.164697 499.428115 
L 69.463428 499.428602 
L 308.888627 499.317551 
L 337.909863 499.063083 
L 347.583608 498.813337 
L 352.420481 498.580366 
L 357.257354 498.050617 
L 359.67579 497.694623 
L 362.094226 497.225501 
L 364.512663 496.349658 
L 366.931099 495.017391 
L 369.349535 492.317628 
L 371.767972 485.271744 
L 374.186408 458.080848 
L 376.604844 380.012785 
L 376.604844 380.012785 
" clip-path="url(#pc61834cda0)" style="fill: none; stroke: #ff7f0e; stroke-width: 1.5; stroke-linecap: square"/>
   </g>
   <g id="line2d_36">
    <path d="M 379.023281 460.397642 
L 381.441717 383.345564 
L 383.860153 459.710109 
L 386.27859 485.891387 
L 388.697026 492.346491 
L 391.115462 494.95406 
L 393.533899 496.46437 
L 395.952335 497.26324 
L 398.370771 497.790419 
L 400.789208 498.128027 
L 408.044517 498.693605 
L 415.299826 498.97599 
L 441.902626 499.283447 
L 499.945098 499.396934 
L 686.164697 499.4287 
L 69.463428 499.428898 
L 308.888627 499.31943 
L 340.328299 499.013913 
L 347.583608 498.813579 
L 354.838917 498.348717 
L 357.257354 498.128027 
L 359.67579 497.790419 
L 362.094226 497.26324 
L 364.512663 496.46437 
L 366.931099 494.95406 
L 369.349535 492.346491 
L 371.767972 485.891387 
L 374.186408 459.710109 
L 376.604844 383.345564 
L 376.604844 383.345564 
" clip-path="url(#pc61834cda0)" style="fill: none; stroke: #2ca02c; stroke-width: 1.5; stroke-linecap: square"/>
   </g>
   <g id="patch_13">
    <path d="M 38.628365 505.399926 
L 38.628365 374.041969 
" style="fill: none; stroke: #000000; stroke-width: 0.8; stroke-linejoin: miter; stroke-linecap: square"/>
   </g>
   <g id="patch_14">
    <path d="M 716.99976 505.399926 
L 716.99976 374.041969 
" style="fill: none; stroke: #000000; stroke-width: 0.8; stroke-linejoin: miter; stroke-linecap: square"/>
   </g>
   <g id="patch_15">
    <path d="M 38.628365 505.399926 
L 716.99976 505.399926 
" style="fill: none; stroke: #000000; stroke-width: 0.8; stroke-linejoin: miter; stroke-linecap: square"/>
   </g>
   <g id="patch_16">
    <path d="M 38.628365 374.041969 
L 716.99976 374.041969 
" style="fill: none; stroke: #000000; stroke-width: 0.8; stroke-linejoin: miter; stroke-linecap: square"/>
   </g>
   <g id="text_30">
    <!-- Gauss Markov - tau=2000 -->
    <g transform="translate(299.62 368.041969) scale(0.12 -0.12)">
     <defs>
      <path id="DejaVuSans-47" d="M 3809 666 
L 3809 1919 
L 2778 1919 
L 2778 2438 
L 4434 2438 
L 4434 434 
Q 4069 175 3628 42 
Q 3188 -91 2688 -91 
Q 1594 -91 976 548 
Q 359 1188 359 2328 
Q 359 3472 976 4111 
Q 1594 4750 2688 4750 
Q 3144 4750 3555 4637 
Q 3966 4525 4313 4306 
L 4313 3634 
Q 3963 3931 3569 4081 
Q 3175 4231 2741 4231 
Q 1884 4231 1454 3753 
Q 1025 3275 1025 2328 
Q 1025 1384 1454 906 
Q 1884 428 2741 428 
Q 3075 428 3337 486 
Q 3600 544 3809 666 
z
" transform="scale(0.015625)"/>
      <path id="DejaVuSans-75" d="M 544 1381 
L 544 3500 
L 1119 3500 
L 1119 1403 
Q 1119 906 1312 657 
Q 1506 409 1894 409 
Q 2359 409 2629 706 
Q 2900 1003 2900 1516 
L 2900 3500 
L 3475 3500 
L 3475 0 
L 2900 0 
L 2900 538 
Q 2691 219 2414 64 
Q 2138 -91 1772 -91 
Q 1169 -91 856 284 
Q 544 659 544 1381 
z
M 1991 3584 
L 1991 3584 
z
" transform="scale(0.015625)"/>
      <path id="DejaVuSans-4d" d="M 628 4666 
L 1569 4666 
L 2759 1491 
L 3956 4666 
L 4897 4666 
L 4897 0 
L 4281 0 
L 4281 4097 
L 3078 897 
L 2444 897 
L 1241 4097 
L 1241 0 
L 628 0 
L 628 4666 
z
" transform="scale(0.015625)"/>
      <path id="DejaVuSans-72" d="M 2631 2963 
Q 2534 3019 2420 3045 
Q 2306 3072 2169 3072 
Q 1681 3072 1420 2755 
Q 1159 2438 1159 1844 
L 1159 0 
L 581 0 
L 581 3500 
L 1159 3500 
L 1159 2956 
Q 1341 3275 1631 3429 
Q 1922 3584 2338 3584 
Q 2397 3584 2469 3576 
Q 2541 3569 2628 3553 
L 2631 2963 
z
" transform="scale(0.015625)"/>
      <path id="DejaVuSans-76" d="M 191 3500 
L 800 3500 
L 1894 563 
L 2988 3500 
L 3597 3500 
L 2284 0 
L 1503 0 
L 191 3500 
z
" transform="scale(0.015625)"/>
      <path id="DejaVuSans-2d" d="M 313 2009 
L 1997 2009 
L 1997 1497 
L 313 1497 
L 313 2009 
z
" transform="scale(0.015625)"/>
      <path id="DejaVuSans-3d" d="M 678 2906 
L 4684 2906 
L 4684 2381 
L 678 2381 
L 678 2906 
z
M 678 1631 
L 4684 1631 
L 4684 1100 
L 678 1100 
L 678 1631 
z
" transform="scale(0.015625)"/>
     </defs>
     <use xlink:href="#DejaVuSans-47"/>
     <use xlink:href="#DejaVuSans-61" x="77.490234"/>
     <use xlink:href="#DejaVuSans-75" x="138.769531"/>
     <use xlink:href="#DejaVuSans-73" x="202.148438"/>
     <use xlink:href="#DejaVuSans-73" x="254.248047"/>
     <use xlink:href="#DejaVuSans-20" x="306.347656"/>
     <use xlink:href="#DejaVuSans-4d" x="338.134766"/>
     <use xlink:href="#DejaVuSans-61" x="424.414062"/>
     <use xlink:href="#DejaVuSans-72" x="485.693359"/>
     <use xlink:href="#DejaVuSans-6b" x="526.806641"/>
     <use xlink:href="#DejaVuSans-6f" x="581.091797"/>
     <use xlink:href="#DejaVuSans-76" x="642.273438"/>
     <use xlink:href="#DejaVuSans-20" x="701.453125"/>
     <use xlink:href="#DejaVuSans-2d" x="733.240234"/>
     <use xlink:href="#DejaVuSans-20" x="769.324219"/>
     <use xlink:href="#DejaVuSans-74" x="801.111328"/>
     <use xlink:href="#DejaVuSans-61" x="840.320312"/>
     <use xlink:href="#DejaVuSans-75" x="901.599609"/>
     <use xlink:href="#DejaVuSans-3d" x="964.978516"/>
     <use xlink:href="#DejaVuSans-32" x="1048.767578"/>
     <use xlink:href="#DejaVuSans-30" x="1112.390625"/>
     <use xlink:href="#DejaVuSans-30" x="1176.013672"/>
     <use xlink:href="#DejaVuSans-30" x="1239.636719"/>
    </g>
   </g>
  </g>
  <g id="axes_4">
   <g id="patch_17">
    <path d="M 38.628365 674.554613 
L 716.99976 674.554613 
L 716.99976 543.196656 
L 38.628365 543.196656 
z
" style="fill: #ffffff"/>
   </g>
   <g id="matplotlib.axis_7">
    <g id="xtick_16">
     <g id="line2d_37">
      <g>
       <use xlink:href="#md0949d80bb" x="131.375399" y="674.554613" style="stroke: #000000; stroke-width: 0.8"/>
      </g>
     </g>
     <g id="text_31">
      <!-- −0.4 -->
      <g transform="translate(119.233993 689.15305) scale(0.1 -0.1)">
       <use xlink:href="#DejaVuSans-2212"/>
       <use xlink:href="#DejaVuSans-30" x="83.789062"/>
       <use xlink:href="#DejaVuSans-2e" x="147.412109"/>
       <use xlink:href="#DejaVuSans-34" x="179.199219"/>
      </g>
     </g>
    </g>
    <g id="xtick_17">
     <g id="line2d_38">
      <g>
       <use xlink:href="#md0949d80bb" x="255.19934" y="674.554613" style="stroke: #000000; stroke-width: 0.8"/>
      </g>
     </g>
     <g id="text_32">
      <!-- −0.2 -->
      <g transform="translate(243.057934 689.15305) scale(0.1 -0.1)">
       <use xlink:href="#DejaVuSans-2212"/>
       <use xlink:href="#DejaVuSans-30" x="83.789062"/>
       <use xlink:href="#DejaVuSans-2e" x="147.412109"/>
       <use xlink:href="#DejaVuSans-32" x="179.199219"/>
      </g>
     </g>
    </g>
    <g id="xtick_18">
     <g id="line2d_39">
      <g>
       <use xlink:href="#md0949d80bb" x="379.023281" y="674.554613" style="stroke: #000000; stroke-width: 0.8"/>
      </g>
     </g>
     <g id="text_33">
      <!-- 0.0 -->
      <g transform="translate(371.071718 689.15305) scale(0.1 -0.1)">
       <use xlink:href="#DejaVuSans-30"/>
       <use xlink:href="#DejaVuSans-2e" x="63.623047"/>
       <use xlink:href="#DejaVuSans-30" x="95.410156"/>
      </g>
     </g>
    </g>
    <g id="xtick_19">
     <g id="line2d_40">
      <g>
       <use xlink:href="#md0949d80bb" x="502.847222" y="674.554613" style="stroke: #000000; stroke-width: 0.8"/>
      </g>
     </g>
     <g id="text_34">
      <!-- 0.2 -->
      <g transform="translate(494.895659 689.15305) scale(0.1 -0.1)">
       <use xlink:href="#DejaVuSans-30"/>
       <use xlink:href="#DejaVuSans-2e" x="63.623047"/>
       <use xlink:href="#DejaVuSans-32" x="95.410156"/>
      </g>
     </g>
    </g>
    <g id="xtick_20">
     <g id="line2d_41">
      <g>
       <use xlink:href="#md0949d80bb" x="626.671162" y="674.554613" style="stroke: #000000; stroke-width: 0.8"/>
      </g>
     </g>
     <g id="text_35">
      <!-- 0.4 -->
      <g transform="translate(618.7196 689.15305) scale(0.1 -0.1)">
       <use xlink:href="#DejaVuSans-30"/>
       <use xlink:href="#DejaVuSans-2e" x="63.623047"/>
       <use xlink:href="#DejaVuSans-34" x="95.410156"/>
      </g>
     </g>
    </g>
   </g>
   <g id="matplotlib.axis_8">
    <g id="ytick_13">
     <g id="line2d_42">
      <g>
       <use xlink:href="#m25b9f421ff" x="38.628365" y="668.600298" style="stroke: #000000; stroke-width: 0.8"/>
      </g>
     </g>
     <g id="text_36">
      <!-- 0 -->
      <g transform="translate(25.265865 672.399517) scale(0.1 -0.1)">
       <use xlink:href="#DejaVuSans-30"/>
      </g>
     </g>
    </g>
    <g id="ytick_14">
     <g id="line2d_43">
      <g>
       <use xlink:href="#m25b9f421ff" x="38.628365" y="639.211047" style="stroke: #000000; stroke-width: 0.8"/>
      </g>
     </g>
     <g id="text_37">
      <!-- 10 -->
      <g transform="translate(18.903365 643.010266) scale(0.1 -0.1)">
       <use xlink:href="#DejaVuSans-31"/>
       <use xlink:href="#DejaVuSans-30" x="63.623047"/>
      </g>
     </g>
    </g>
    <g id="ytick_15">
     <g id="line2d_44">
      <g>
       <use xlink:href="#m25b9f421ff" x="38.628365" y="609.821796" style="stroke: #000000; stroke-width: 0.8"/>
      </g>
     </g>
     <g id="text_38">
      <!-- 20 -->
      <g transform="translate(18.903365 613.621015) scale(0.1 -0.1)">
       <use xlink:href="#DejaVuSans-32"/>
       <use xlink:href="#DejaVuSans-30" x="63.623047"/>
      </g>
     </g>
    </g>
    <g id="ytick_16">
     <g id="line2d_45">
      <g>
       <use xlink:href="#m25b9f421ff" x="38.628365" y="580.432545" style="stroke: #000000; stroke-width: 0.8"/>
      </g>
     </g>
     <g id="text_39">
      <!-- 30 -->
      <g transform="translate(18.903365 584.231764) scale(0.1 -0.1)">
       <use xlink:href="#DejaVuSans-33"/>
       <use xlink:href="#DejaVuSans-30" x="63.623047"/>
      </g>
     </g>
    </g>
    <g id="ytick_17">
     <g id="line2d_46">
      <g>
       <use xlink:href="#m25b9f421ff" x="38.628365" y="551.043294" style="stroke: #000000; stroke-width: 0.8"/>
      </g>
     </g>
     <g id="text_40">
      <!-- 40 -->
      <g transform="translate(18.903365 554.842513) scale(0.1 -0.1)">
       <use xlink:href="#DejaVuSans-34"/>
       <use xlink:href="#DejaVuSans-30" x="63.623047"/>
      </g>
     </g>
    </g>
   </g>
   <g id="line2d_47">
    <path d="M 379.023281 630.276137 
L 381.441717 554.876651 
L 383.860153 625.942005 
L 386.27859 654.117823 
L 388.697026 660.982823 
L 391.115462 663.9398 
L 393.533899 665.22344 
L 395.952335 666.163125 
L 400.789208 667.129845 
L 403.207644 667.454277 
L 410.462953 667.943359 
L 420.136699 668.194669 
L 429.810444 668.333496 
L 453.994807 668.477788 
L 502.363534 668.549372 
L 686.164697 668.583001 
L 69.463428 668.583605 
L 304.051754 668.477788 
L 337.909863 668.194669 
L 347.583608 667.943359 
L 354.838917 667.454277 
L 359.67579 666.700374 
L 362.094226 666.163125 
L 364.512663 665.22344 
L 366.931099 663.9398 
L 369.349535 660.982823 
L 371.767972 654.117823 
L 374.186408 625.942005 
L 376.604844 554.876651 
L 376.604844 554.876651 
" clip-path="url(#p29bb6210d5)" style="fill: none; stroke: #1f77b4; stroke-width: 1.5; stroke-linecap: square"/>
   </g>
   <g id="line2d_48">
    <path d="M 379.023281 628.365177 
L 381.441717 549.167472 
L 383.860153 624.865406 
L 386.27859 653.347336 
L 388.697026 660.940777 
L 391.115462 663.832623 
L 393.533899 665.271113 
L 395.952335 666.211206 
L 398.370771 666.716526 
L 403.207644 667.409508 
L 408.044517 667.820203 
L 417.718262 668.141154 
L 434.647317 668.379701 
L 526.547898 668.563014 
L 686.164697 668.582726 
L 69.463428 668.58325 
L 306.47019 668.470556 
L 330.654554 668.295137 
L 345.165172 668.040358 
L 352.420481 667.670123 
L 357.257354 667.09995 
L 359.67579 666.716526 
L 362.094226 666.211206 
L 364.512663 665.271113 
L 366.931099 663.832623 
L 369.349535 660.940777 
L 371.767972 653.347336 
L 374.186408 624.865406 
L 376.604844 549.167472 
L 376.604844 549.167472 
" clip-path="url(#p29bb6210d5)" style="fill: none; stroke: #ff7f0e; stroke-width: 1.5; stroke-linecap: square"/>
   </g>
   <g id="line2d_49">
    <path d="M 379.023281 627.334862 
L 381.441717 552.670249 
L 383.860153 626.366824 
L 386.27859 654.070933 
L 388.697026 660.958838 
L 391.115462 663.769387 
L 393.533899 665.39319 
L 395.952335 666.252015 
L 398.370771 666.819828 
L 400.789208 667.183293 
L 408.044517 667.791994 
L 415.299826 668.095967 
L 439.484189 668.421916 
L 565.242879 668.574596 
L 686.164697 668.583355 
L 69.463428 668.583569 
L 313.725499 668.4367 
L 335.491426 668.245136 
L 350.002045 667.791994 
L 354.838917 667.420455 
L 357.257354 667.183293 
L 359.67579 666.819828 
L 362.094226 666.252015 
L 364.512663 665.39319 
L 366.931099 663.769387 
L 369.349535 660.958838 
L 371.767972 654.070933 
L 374.186408 626.366824 
L 376.604844 552.670249 
L 376.604844 552.670249 
" clip-path="url(#p29bb6210d5)" style="fill: none; stroke: #2ca02c; stroke-width: 1.5; stroke-linecap: square"/>
   </g>
   <g id="patch_18">
    <path d="M 38.628365 674.554613 
L 38.628365 543.196656 
" style="fill: none; stroke: #000000; stroke-width: 0.8; stroke-linejoin: miter; stroke-linecap: square"/>
   </g>
   <g id="patch_19">
    <path d="M 716.99976 674.554613 
L 716.99976 543.196656 
" style="fill: none; stroke: #000000; stroke-width: 0.8; stroke-linejoin: miter; stroke-linecap: square"/>
   </g>
   <g id="patch_20">
    <path d="M 38.628365 674.554613 
L 716.99976 674.554613 
" style="fill: none; stroke: #000000; stroke-width: 0.8; stroke-linejoin: miter; stroke-linecap: square"/>
   </g>
   <g id="patch_21">
    <path d="M 38.628365 543.196656 
L 716.99976 543.196656 
" style="fill: none; stroke: #000000; stroke-width: 0.8; stroke-linejoin: miter; stroke-linecap: square"/>
   </g>
   <g id="text_41">
    <!-- Gauss Markov - tau=500 -->
    <g transform="translate(303.4375 537.196656) scale(0.12 -0.12)">
     <use xlink:href="#DejaVuSans-47"/>
     <use xlink:href="#DejaVuSans-61" x="77.490234"/>
     <use xlink:href="#DejaVuSans-75" x="138.769531"/>
     <use xlink:href="#DejaVuSans-73" x="202.148438"/>
     <use xlink:href="#DejaVuSans-73" x="254.248047"/>
     <use xlink:href="#DejaVuSans-20" x="306.347656"/>
     <use xlink:href="#DejaVuSans-4d" x="338.134766"/>
     <use xlink:href="#DejaVuSans-61" x="424.414062"/>
     <use xlink:href="#DejaVuSans-72" x="485.693359"/>
     <use xlink:href="#DejaVuSans-6b" x="526.806641"/>
     <use xlink:href="#DejaVuSans-6f" x="581.091797"/>
     <use xlink:href="#DejaVuSans-76" x="642.273438"/>
     <use xlink:href="#DejaVuSans-20" x="701.453125"/>
     <use xlink:href="#DejaVuSans-2d" x="733.240234"/>
     <use xlink:href="#DejaVuSans-20" x="769.324219"/>
     <use xlink:href="#DejaVuSans-74" x="801.111328"/>
     <use xlink:href="#DejaVuSans-61" x="840.320312"/>
     <use xlink:href="#DejaVuSans-75" x="901.599609"/>
     <use xlink:href="#DejaVuSans-3d" x="964.978516"/>
     <use xlink:href="#DejaVuSans-35" x="1048.767578"/>
     <use xlink:href="#DejaVuSans-30" x="1112.390625"/>
     <use xlink:href="#DejaVuSans-30" x="1176.013672"/>
    </g>
   </g>
   <g id="legend_1">
    <g id="patch_22">
     <path d="M 267.166406 716.936431 
L 488.461719 716.936431 
Q 490.461719 716.936431 490.461719 714.936431 
L 490.461719 701.258306 
Q 490.461719 699.258306 488.461719 699.258306 
L 267.166406 699.258306 
Q 265.166406 699.258306 265.166406 701.258306 
L 265.166406 714.936431 
Q 265.166406 716.936431 267.166406 716.936431 
z
" style="fill: #ffffff; opacity: 0.8; stroke: #cccccc; stroke-linejoin: miter"/>
    </g>
    <g id="line2d_50">
     <path d="M 269.166406 707.356744 
L 279.166406 707.356744 
L 289.166406 707.356744 
" style="fill: none; stroke: #1f77b4; stroke-width: 1.5; stroke-linecap: square"/>
    </g>
    <g id="text_42">
     <!-- Real 1 -->
     <g transform="translate(297.166406 710.856744) scale(0.1 -0.1)">
      <use xlink:href="#DejaVuSans-52"/>
      <use xlink:href="#DejaVuSans-65" x="64.982422"/>
      <use xlink:href="#DejaVuSans-61" x="126.505859"/>
      <use xlink:href="#DejaVuSans-6c" x="187.785156"/>
      <use xlink:href="#DejaVuSans-20" x="215.568359"/>
      <use xlink:href="#DejaVuSans-31" x="247.355469"/>
     </g>
    </g>
    <g id="line2d_51">
     <path d="M 348.264844 707.356744 
L 358.264844 707.356744 
L 368.264844 707.356744 
" style="fill: none; stroke: #ff7f0e; stroke-width: 1.5; stroke-linecap: square"/>
    </g>
    <g id="text_43">
     <!-- Real 2 -->
     <g transform="translate(376.264844 710.856744) scale(0.1 -0.1)">
      <use xlink:href="#DejaVuSans-52"/>
      <use xlink:href="#DejaVuSans-65" x="64.982422"/>
      <use xlink:href="#DejaVuSans-61" x="126.505859"/>
      <use xlink:href="#DejaVuSans-6c" x="187.785156"/>
      <use xlink:href="#DejaVuSans-20" x="215.568359"/>
      <use xlink:href="#DejaVuSans-32" x="247.355469"/>
     </g>
    </g>
    <g id="line2d_52">
     <path d="M 427.363281 707.356744 
L 437.363281 707.356744 
L 447.363281 707.356744 
" style="fill: none; stroke: #2ca02c; stroke-width: 1.5; stroke-linecap: square"/>
    </g>
    <g id="text_44">
     <!-- Real 3 -->
     <g transform="translate(455.363281 710.856744) scale(0.1 -0.1)">
      <use xlink:href="#DejaVuSans-52"/>
      <use xlink:href="#DejaVuSans-65" x="64.982422"/>
      <use xlink:href="#DejaVuSans-61" x="126.505859"/>
      <use xlink:href="#DejaVuSans-6c" x="187.785156"/>
      <use xlink:href="#DejaVuSans-20" x="215.568359"/>
      <use xlink:href="#DejaVuSans-33" x="247.355469"/>
     </g>
    </g>
   </g>
  </g>
  <g id="text_45">
   <!-- Power Spectral Density -->
   <g transform="translate(290.4675 12.118365) scale(0.12 -0.12)">
    <defs>
     <path id="DejaVuSans-50" d="M 1259 4147 
L 1259 2394 
L 2053 2394 
Q 2494 2394 2734 2622 
Q 2975 2850 2975 3272 
Q 2975 3691 2734 3919 
Q 2494 4147 2053 4147 
L 1259 4147 
z
M 628 4666 
L 2053 4666 
Q 2838 4666 3239 4311 
Q 3641 3956 3641 3272 
Q 3641 2581 3239 2228 
Q 2838 1875 2053 1875 
L 1259 1875 
L 1259 0 
L 628 0 
L 628 4666 
z
" transform="scale(0.015625)"/>
     <path id="DejaVuSans-77" d="M 269 3500 
L 844 3500 
L 1563 769 
L 2278 3500 
L 2956 3500 
L 3675 769 
L 4391 3500 
L 4966 3500 
L 4050 0 
L 3372 0 
L 2619 2869 
L 1863 0 
L 1184 0 
L 269 3500 
z
" transform="scale(0.015625)"/>
     <path id="DejaVuSans-53" d="M 3425 4513 
L 3425 3897 
Q 3066 4069 2747 4153 
Q 2428 4238 2131 4238 
Q 1616 4238 1336 4038 
Q 1056 3838 1056 3469 
Q 1056 3159 1242 3001 
Q 1428 2844 1947 2747 
L 2328 2669 
Q 3034 2534 3370 2195 
Q 3706 1856 3706 1288 
Q 3706 609 3251 259 
Q 2797 -91 1919 -91 
Q 1588 -91 1214 -16 
Q 841 59 441 206 
L 441 856 
Q 825 641 1194 531 
Q 1563 422 1919 422 
Q 2459 422 2753 634 
Q 3047 847 3047 1241 
Q 3047 1584 2836 1778 
Q 2625 1972 2144 2069 
L 1759 2144 
Q 1053 2284 737 2584 
Q 422 2884 422 3419 
Q 422 4038 858 4394 
Q 1294 4750 2059 4750 
Q 2388 4750 2728 4690 
Q 3069 4631 3425 4513 
z
" transform="scale(0.015625)"/>
     <path id="DejaVuSans-70" d="M 1159 525 
L 1159 -1331 
L 581 -1331 
L 581 3500 
L 1159 3500 
L 1159 2969 
Q 1341 3281 1617 3432 
Q 1894 3584 2278 3584 
Q 2916 3584 3314 3078 
Q 3713 2572 3713 1747 
Q 3713 922 3314 415 
Q 2916 -91 2278 -91 
Q 1894 -91 1617 61 
Q 1341 213 1159 525 
z
M 3116 1747 
Q 3116 2381 2855 2742 
Q 2594 3103 2138 3103 
Q 1681 3103 1420 2742 
Q 1159 2381 1159 1747 
Q 1159 1113 1420 752 
Q 1681 391 2138 391 
Q 2594 391 2855 752 
Q 3116 1113 3116 1747 
z
" transform="scale(0.015625)"/>
     <path id="DejaVuSans-63" d="M 3122 3366 
L 3122 2828 
Q 2878 2963 2633 3030 
Q 2388 3097 2138 3097 
Q 1578 3097 1268 2742 
Q 959 2388 959 1747 
Q 959 1106 1268 751 
Q 1578 397 2138 397 
Q 2388 397 2633 464 
Q 2878 531 3122 666 
L 3122 134 
Q 2881 22 2623 -34 
Q 2366 -91 2075 -91 
Q 1284 -91 818 406 
Q 353 903 353 1747 
Q 353 2603 823 3093 
Q 1294 3584 2113 3584 
Q 2378 3584 2631 3529 
Q 2884 3475 3122 3366 
z
" transform="scale(0.015625)"/>
     <path id="DejaVuSans-44" d="M 1259 4147 
L 1259 519 
L 2022 519 
Q 2988 519 3436 956 
Q 3884 1394 3884 2338 
Q 3884 3275 3436 3711 
Q 2988 4147 2022 4147 
L 1259 4147 
z
M 628 4666 
L 1925 4666 
Q 3281 4666 3915 4102 
Q 4550 3538 4550 2338 
Q 4550 1131 3912 565 
Q 3275 0 1925 0 
L 628 0 
L 628 4666 
z
" transform="scale(0.015625)"/>
     <path id="DejaVuSans-79" d="M 2059 -325 
Q 1816 -950 1584 -1140 
Q 1353 -1331 966 -1331 
L 506 -1331 
L 506 -850 
L 844 -850 
Q 1081 -850 1212 -737 
Q 1344 -625 1503 -206 
L 1606 56 
L 191 3500 
L 800 3500 
L 1894 763 
L 2988 3500 
L 3597 3500 
L 2059 -325 
z
" transform="scale(0.015625)"/>
    </defs>
    <use xlink:href="#DejaVuSans-50"/>
    <use xlink:href="#DejaVuSans-6f" x="56.677734"/>
    <use xlink:href="#DejaVuSans-77" x="117.859375"/>
    <use xlink:href="#DejaVuSans-65" x="199.646484"/>
    <use xlink:href="#DejaVuSans-72" x="261.169922"/>
    <use xlink:href="#DejaVuSans-20" x="302.283203"/>
    <use xlink:href="#DejaVuSans-53" x="334.070312"/>
    <use xlink:href="#DejaVuSans-70" x="397.546875"/>
    <use xlink:href="#DejaVuSans-65" x="461.023438"/>
    <use xlink:href="#DejaVuSans-63" x="522.546875"/>
    <use xlink:href="#DejaVuSans-74" x="577.527344"/>
    <use xlink:href="#DejaVuSans-72" x="616.736328"/>
    <use xlink:href="#DejaVuSans-61" x="657.849609"/>
    <use xlink:href="#DejaVuSans-6c" x="719.128906"/>
    <use xlink:href="#DejaVuSans-20" x="746.912109"/>
    <use xlink:href="#DejaVuSans-44" x="778.699219"/>
    <use xlink:href="#DejaVuSans-65" x="855.701172"/>
    <use xlink:href="#DejaVuSans-6e" x="917.224609"/>
    <use xlink:href="#DejaVuSans-73" x="980.603516"/>
    <use xlink:href="#DejaVuSans-69" x="1032.703125"/>
    <use xlink:href="#DejaVuSans-74" x="1060.486328"/>
    <use xlink:href="#DejaVuSans-79" x="1099.695312"/>
   </g>
  </g>
 </g>
 <defs>
  <clipPath id="p1eb1d92dc9">
   <rect x="38.628365" y="35.732595" width="678.371395" height="131.357957"/>
  </clipPath>
  <clipPath id="pd767adabf4">
   <rect x="38.628365" y="204.887282" width="678.371395" height="131.357957"/>
  </clipPath>
  <clipPath id="pc61834cda0">
   <rect x="38.628365" y="374.041969" width="678.371395" height="131.357957"/>
  </clipPath>
  <clipPath id="p29bb6210d5">
   <rect x="38.628365" y="543.196656" width="678.371395" height="131.357957"/>
  </clipPath>
 </defs>
</svg>
