<?xml version="1.0" encoding="utf-8" standalone="no"?>
<!DOCTYPE svg PUBLIC "-//W3C//DTD SVG 1.1//EN"
  "http://www.w3.org/Graphics/SVG/1.1/DTD/svg11.dtd">
<svg xmlns:xlink="http://www.w3.org/1999/xlink" width="720pt" height="720pt" viewBox="0 0 720 720" xmlns="http://www.w3.org/2000/svg" version="1.1">
 <metadata>
  <rdf:RDF xmlns:dc="http://purl.org/dc/elements/1.1/" xmlns:cc="http://creativecommons.org/ns#" xmlns:rdf="http://www.w3.org/1999/02/22-rdf-syntax-ns#">
   <cc:Work>
    <dc:type rdf:resource="http://purl.org/dc/dcmitype/StillImage"/>
    <dc:date>2024-03-06T14:52:58.818488</dc:date>
    <dc:format>image/svg+xml</dc:format>
    <dc:creator>
     <cc:Agent>
      <dc:title>Matplotlib v3.8.3, https://matplotlib.org/</dc:title>
     </cc:Agent>
    </dc:creator>
   </cc:Work>
  </rdf:RDF>
 </metadata>
 <defs>
  <style type="text/css">*{stroke-linejoin: round; stroke-linecap: butt}</style>
 </defs>
 <g id="figure_1">
  <g id="patch_1">
   <path d="M 0 720 
L 720 720 
L 720 0 
L 0 0 
z
" style="fill: #ffffff"/>
  </g>
  <g id="axes_1">
   <g id="patch_2">
    <path d="M 38.628365 167.090552 
L 716.99976 167.090552 
L 716.99976 35.732595 
L 38.628365 35.732595 
z
" style="fill: #ffffff"/>
   </g>
   <g id="matplotlib.axis_1">
    <g id="xtick_1">
     <g id="line2d_1">
      <defs>
       <path id="mc1adffc852" d="M 0 0 
L 0 3.5 
" style="stroke: #000000; stroke-width: 0.8"/>
      </defs>
      <g>
       <use xlink:href="#mc1adffc852" x="131.375399" y="167.090552" style="stroke: #000000; stroke-width: 0.8"/>
      </g>
     </g>
     <g id="text_1">
      <!-- −0.4 -->
      <g transform="translate(119.233993 181.688989) scale(0.1 -0.1)">
       <defs>
        <path id="DejaVuSans-2212" d="M 678 2272 
L 4684 2272 
L 4684 1741 
L 678 1741 
L 678 2272 
z
" transform="scale(0.015625)"/>
        <path id="DejaVuSans-30" d="M 2034 4250 
Q 1547 4250 1301 3770 
Q 1056 3291 1056 2328 
Q 1056 1369 1301 889 
Q 1547 409 2034 409 
Q 2525 409 2770 889 
Q 3016 1369 3016 2328 
Q 3016 3291 2770 3770 
Q 2525 4250 2034 4250 
z
M 2034 4750 
Q 2819 4750 3233 4129 
Q 3647 3509 3647 2328 
Q 3647 1150 3233 529 
Q 2819 -91 2034 -91 
Q 1250 -91 836 529 
Q 422 1150 422 2328 
Q 422 3509 836 4129 
Q 1250 4750 2034 4750 
z
" transform="scale(0.015625)"/>
        <path id="DejaVuSans-2e" d="M 684 794 
L 1344 794 
L 1344 0 
L 684 0 
L 684 794 
z
" transform="scale(0.015625)"/>
        <path id="DejaVuSans-34" d="M 2419 4116 
L 825 1625 
L 2419 1625 
L 2419 4116 
z
M 2253 4666 
L 3047 4666 
L 3047 1625 
L 3713 1625 
L 3713 1100 
L 3047 1100 
L 3047 0 
L 2419 0 
L 2419 1100 
L 313 1100 
L 313 1709 
L 2253 4666 
z
" transform="scale(0.015625)"/>
       </defs>
       <use xlink:href="#DejaVuSans-2212"/>
       <use xlink:href="#DejaVuSans-30" x="83.789062"/>
       <use xlink:href="#DejaVuSans-2e" x="147.412109"/>
       <use xlink:href="#DejaVuSans-34" x="179.199219"/>
      </g>
     </g>
    </g>
    <g id="xtick_2">
     <g id="line2d_2">
      <g>
       <use xlink:href="#mc1adffc852" x="255.19934" y="167.090552" style="stroke: #000000; stroke-width: 0.8"/>
      </g>
     </g>
     <g id="text_2">
      <!-- −0.2 -->
      <g transform="translate(243.057934 181.688989) scale(0.1 -0.1)">
       <defs>
        <path id="DejaVuSans-32" d="M 1228 531 
L 3431 531 
L 3431 0 
L 469 0 
L 469 531 
Q 828 903 1448 1529 
Q 2069 2156 2228 2338 
Q 2531 2678 2651 2914 
Q 2772 3150 2772 3378 
Q 2772 3750 2511 3984 
Q 2250 4219 1831 4219 
Q 1534 4219 1204 4116 
Q 875 4013 500 3803 
L 500 4441 
Q 881 4594 1212 4672 
Q 1544 4750 1819 4750 
Q 2544 4750 2975 4387 
Q 3406 4025 3406 3419 
Q 3406 3131 3298 2873 
Q 3191 2616 2906 2266 
Q 2828 2175 2409 1742 
Q 1991 1309 1228 531 
z
" transform="scale(0.015625)"/>
       </defs>
       <use xlink:href="#DejaVuSans-2212"/>
       <use xlink:href="#DejaVuSans-30" x="83.789062"/>
       <use xlink:href="#DejaVuSans-2e" x="147.412109"/>
       <use xlink:href="#DejaVuSans-32" x="179.199219"/>
      </g>
     </g>
    </g>
    <g id="xtick_3">
     <g id="line2d_3">
      <g>
       <use xlink:href="#mc1adffc852" x="379.023281" y="167.090552" style="stroke: #000000; stroke-width: 0.8"/>
      </g>
     </g>
     <g id="text_3">
      <!-- 0.0 -->
      <g transform="translate(371.071718 181.688989) scale(0.1 -0.1)">
       <use xlink:href="#DejaVuSans-30"/>
       <use xlink:href="#DejaVuSans-2e" x="63.623047"/>
       <use xlink:href="#DejaVuSans-30" x="95.410156"/>
      </g>
     </g>
    </g>
    <g id="xtick_4">
     <g id="line2d_4">
      <g>
       <use xlink:href="#mc1adffc852" x="502.847222" y="167.090552" style="stroke: #000000; stroke-width: 0.8"/>
      </g>
     </g>
     <g id="text_4">
      <!-- 0.2 -->
      <g transform="translate(494.895659 181.688989) scale(0.1 -0.1)">
       <use xlink:href="#DejaVuSans-30"/>
       <use xlink:href="#DejaVuSans-2e" x="63.623047"/>
       <use xlink:href="#DejaVuSans-32" x="95.410156"/>
      </g>
     </g>
    </g>
    <g id="xtick_5">
     <g id="line2d_5">
      <g>
       <use xlink:href="#mc1adffc852" x="626.671162" y="167.090552" style="stroke: #000000; stroke-width: 0.8"/>
      </g>
     </g>
     <g id="text_5">
      <!-- 0.4 -->
      <g transform="translate(618.7196 181.688989) scale(0.1 -0.1)">
       <use xlink:href="#DejaVuSans-30"/>
       <use xlink:href="#DejaVuSans-2e" x="63.623047"/>
       <use xlink:href="#DejaVuSans-34" x="95.410156"/>
      </g>
     </g>
    </g>
   </g>
   <g id="matplotlib.axis_2">
    <g id="ytick_1">
     <g id="line2d_6">
      <defs>
       <path id="md161263d41" d="M 0 0 
L -3.5 0 
" style="stroke: #000000; stroke-width: 0.8"/>
      </defs>
      <g>
       <use xlink:href="#md161263d41" x="38.628365" y="143.769672" style="stroke: #000000; stroke-width: 0.8"/>
      </g>
     </g>
     <g id="text_6">
      <!-- 0.010 -->
      <g transform="translate(3.00024 147.568891) scale(0.1 -0.1)">
       <defs>
        <path id="DejaVuSans-31" d="M 794 531 
L 1825 531 
L 1825 4091 
L 703 3866 
L 703 4441 
L 1819 4666 
L 2450 4666 
L 2450 531 
L 3481 531 
L 3481 0 
L 794 0 
L 794 531 
z
" transform="scale(0.015625)"/>
       </defs>
       <use xlink:href="#DejaVuSans-30"/>
       <use xlink:href="#DejaVuSans-2e" x="63.623047"/>
       <use xlink:href="#DejaVuSans-30" x="95.410156"/>
       <use xlink:href="#DejaVuSans-31" x="159.033203"/>
       <use xlink:href="#DejaVuSans-30" x="222.65625"/>
      </g>
     </g>
    </g>
    <g id="ytick_2">
     <g id="line2d_7">
      <g>
       <use xlink:href="#md161263d41" x="38.628365" y="110.335167" style="stroke: #000000; stroke-width: 0.8"/>
      </g>
     </g>
     <g id="text_7">
      <!-- 0.015 -->
      <g transform="translate(3.00024 114.134386) scale(0.1 -0.1)">
       <defs>
        <path id="DejaVuSans-35" d="M 691 4666 
L 3169 4666 
L 3169 4134 
L 1269 4134 
L 1269 2991 
Q 1406 3038 1543 3061 
Q 1681 3084 1819 3084 
Q 2600 3084 3056 2656 
Q 3513 2228 3513 1497 
Q 3513 744 3044 326 
Q 2575 -91 1722 -91 
Q 1428 -91 1123 -41 
Q 819 9 494 109 
L 494 744 
Q 775 591 1075 516 
Q 1375 441 1709 441 
Q 2250 441 2565 725 
Q 2881 1009 2881 1497 
Q 2881 1984 2565 2268 
Q 2250 2553 1709 2553 
Q 1456 2553 1204 2497 
Q 953 2441 691 2322 
L 691 4666 
z
" transform="scale(0.015625)"/>
       </defs>
       <use xlink:href="#DejaVuSans-30"/>
       <use xlink:href="#DejaVuSans-2e" x="63.623047"/>
       <use xlink:href="#DejaVuSans-30" x="95.410156"/>
       <use xlink:href="#DejaVuSans-31" x="159.033203"/>
       <use xlink:href="#DejaVuSans-35" x="222.65625"/>
      </g>
     </g>
    </g>
    <g id="ytick_3">
     <g id="line2d_8">
      <g>
       <use xlink:href="#md161263d41" x="38.628365" y="76.900662" style="stroke: #000000; stroke-width: 0.8"/>
      </g>
     </g>
     <g id="text_8">
      <!-- 0.020 -->
      <g transform="translate(3.00024 80.699881) scale(0.1 -0.1)">
       <use xlink:href="#DejaVuSans-30"/>
       <use xlink:href="#DejaVuSans-2e" x="63.623047"/>
       <use xlink:href="#DejaVuSans-30" x="95.410156"/>
       <use xlink:href="#DejaVuSans-32" x="159.033203"/>
       <use xlink:href="#DejaVuSans-30" x="222.65625"/>
      </g>
     </g>
    </g>
    <g id="ytick_4">
     <g id="line2d_9">
      <g>
       <use xlink:href="#md161263d41" x="38.628365" y="43.466158" style="stroke: #000000; stroke-width: 0.8"/>
      </g>
     </g>
     <g id="text_9">
      <!-- 0.025 -->
      <g transform="translate(3.00024 47.265376) scale(0.1 -0.1)">
       <use xlink:href="#DejaVuSans-30"/>
       <use xlink:href="#DejaVuSans-2e" x="63.623047"/>
       <use xlink:href="#DejaVuSans-30" x="95.410156"/>
       <use xlink:href="#DejaVuSans-32" x="159.033203"/>
       <use xlink:href="#DejaVuSans-35" x="222.65625"/>
      </g>
     </g>
    </g>
   </g>
   <g id="line2d_10">
    <path d="M 379.023281 161.119736 
L 381.441717 84.139634 
L 383.860153 54.636394 
L 386.27859 56.007482 
L 388.697026 53.832478 
L 391.115462 57.221369 
L 393.533899 53.345584 
L 395.952335 51.068266 
L 398.370771 48.223277 
L 400.789208 50.533353 
L 403.207644 54.283332 
L 405.62608 56.018676 
L 408.044517 59.029995 
L 410.462953 60.273556 
L 412.88139 59.637561 
L 415.299826 52.763741 
L 417.718262 41.703411 
L 420.136699 45.558572 
L 422.555135 48.069095 
L 424.973571 50.948175 
L 427.392008 57.18138 
L 429.810444 54.916458 
L 432.22888 59.644743 
L 434.647317 58.43673 
L 437.065753 51.548835 
L 439.484189 48.37288 
L 441.902626 64.295846 
L 444.321062 66.599768 
L 446.739498 57.868479 
L 449.157935 53.451803 
L 451.576371 53.272209 
L 453.994807 51.143698 
L 458.83168 43.423038 
L 463.668553 56.047465 
L 466.086989 55.628002 
L 468.505425 57.105423 
L 470.923862 47.118683 
L 473.342298 47.772757 
L 475.760735 50.19899 
L 478.179171 51.308551 
L 480.597607 51.94343 
L 483.016044 53.389929 
L 485.43448 51.33182 
L 487.852916 46.658423 
L 490.271353 50.011672 
L 492.689789 50.177277 
L 495.108225 58.059122 
L 497.526662 54.870554 
L 499.945098 55.066789 
L 502.363534 57.528143 
L 504.781971 57.428242 
L 507.200407 53.288223 
L 509.618843 55.305905 
L 512.03728 51.758452 
L 514.455716 53.432185 
L 516.874152 53.398501 
L 519.292589 57.440214 
L 521.711025 55.123224 
L 524.129461 47.046467 
L 526.547898 52.166775 
L 528.966334 50.900176 
L 531.38477 55.125987 
L 533.803207 56.072272 
L 536.221643 56.256033 
L 538.640079 62.330108 
L 541.058516 60.089864 
L 543.476952 54.623732 
L 545.895389 52.91476 
L 548.313825 47.849434 
L 550.732261 54.340897 
L 553.150698 55.707984 
L 555.569134 52.831734 
L 557.98757 62.066293 
L 560.406007 59.9641 
L 562.824443 55.070963 
L 565.242879 56.010278 
L 567.661316 57.187638 
L 572.498188 49.218941 
L 574.916625 52.44954 
L 577.335061 52.731478 
L 579.753497 59.836412 
L 582.171934 63.833406 
L 584.59037 63.586613 
L 587.008806 65.978948 
L 589.427243 60.560334 
L 591.845679 52.372586 
L 594.264115 51.075631 
L 596.682552 53.778844 
L 599.100988 53.340771 
L 601.519424 52.562104 
L 603.937861 54.109451 
L 606.356297 48.542154 
L 608.774734 46.012886 
L 611.19317 48.322665 
L 613.611606 56.324652 
L 616.030043 60.457216 
L 618.448479 60.01895 
L 620.866915 57.869035 
L 623.285352 47.605447 
L 625.703788 49.112251 
L 628.122224 56.88922 
L 630.540661 59.959866 
L 632.959097 52.428346 
L 635.377533 47.067033 
L 637.79597 45.963228 
L 640.214406 51.634936 
L 642.632842 54.634862 
L 645.051279 56.797185 
L 647.469715 63.958399 
L 649.888151 61.467249 
L 652.306588 54.874759 
L 654.725024 49.300904 
L 657.14346 47.828017 
L 659.561897 47.372142 
L 661.980333 48.053778 
L 664.398769 52.639314 
L 666.817206 51.203376 
L 669.235642 50.246796 
L 671.654079 53.582865 
L 674.072515 54.803526 
L 676.490951 53.472674 
L 678.909388 49.437798 
L 681.327824 59.831426 
L 683.74626 55.043548 
L 686.164697 53.574516 
L 69.463428 53.164209 
L 71.881865 53.574516 
L 74.300301 55.043548 
L 76.718737 59.831426 
L 79.137174 49.437798 
L 81.55561 53.472674 
L 83.974046 54.803526 
L 86.392483 53.582865 
L 88.810919 50.246796 
L 91.229356 51.203376 
L 93.647792 52.639314 
L 96.066228 48.053778 
L 98.484665 47.372142 
L 100.903101 47.828017 
L 103.321537 49.300904 
L 105.739974 54.874759 
L 108.15841 61.467249 
L 110.576846 63.958399 
L 112.995283 56.797185 
L 115.413719 54.634862 
L 117.832155 51.634936 
L 120.250592 45.963228 
L 122.669028 47.067033 
L 125.087464 52.428346 
L 127.505901 59.959866 
L 129.924337 56.88922 
L 132.342773 49.112251 
L 134.76121 47.605447 
L 137.179646 57.869035 
L 139.598082 60.01895 
L 142.016519 60.457216 
L 144.434955 56.324652 
L 146.853391 48.322665 
L 149.271828 46.012886 
L 151.690264 48.542154 
L 154.108701 54.109451 
L 156.527137 52.562104 
L 158.945573 53.340771 
L 161.36401 53.778844 
L 163.782446 51.075631 
L 166.200882 52.372586 
L 168.619319 60.560334 
L 171.037755 65.978948 
L 173.456191 63.586613 
L 175.874628 63.833406 
L 178.293064 59.836412 
L 180.7115 52.731478 
L 183.129937 52.44954 
L 185.548373 49.218941 
L 190.385246 57.187638 
L 192.803682 56.010278 
L 195.222118 55.070963 
L 197.640555 59.9641 
L 200.058991 62.066293 
L 202.477427 52.831734 
L 204.895864 55.707984 
L 207.3143 54.340897 
L 209.732736 47.849434 
L 212.151173 52.91476 
L 214.569609 54.623732 
L 216.988046 60.089864 
L 219.406482 62.330108 
L 221.824918 56.256033 
L 224.243355 56.072272 
L 226.661791 55.125987 
L 229.080227 50.900176 
L 231.498664 52.166775 
L 233.9171 47.046467 
L 236.335536 55.123224 
L 238.753973 57.440214 
L 241.172409 53.398501 
L 243.590845 53.432185 
L 246.009282 51.758452 
L 248.427718 55.305905 
L 250.846154 53.288223 
L 253.264591 57.428242 
L 255.683027 57.528143 
L 258.101463 55.066789 
L 260.5199 54.870554 
L 262.938336 58.059122 
L 265.356772 50.177277 
L 267.775209 50.011672 
L 270.193645 46.658423 
L 272.612081 51.33182 
L 275.030518 53.389929 
L 277.448954 51.94343 
L 279.86739 51.308551 
L 282.285827 50.19899 
L 284.704263 47.772757 
L 287.1227 47.118683 
L 289.541136 57.105423 
L 291.959572 55.628002 
L 294.378009 56.047465 
L 299.214881 43.423038 
L 304.051754 51.143698 
L 306.47019 53.272209 
L 308.888627 53.451803 
L 311.307063 57.868479 
L 313.725499 66.599768 
L 316.143936 64.295846 
L 318.562372 48.37288 
L 320.980808 51.548835 
L 323.399245 58.43673 
L 325.817681 59.644743 
L 328.236117 54.916458 
L 330.654554 57.18138 
L 333.07299 50.948175 
L 335.491426 48.069095 
L 337.909863 45.558572 
L 340.328299 41.703411 
L 342.746735 52.763741 
L 345.165172 59.637561 
L 347.583608 60.273556 
L 350.002045 59.029995 
L 352.420481 56.018676 
L 354.838917 54.283332 
L 357.257354 50.533353 
L 359.67579 48.223277 
L 362.094226 51.068266 
L 364.512663 53.345584 
L 366.931099 57.221369 
L 369.349535 53.832478 
L 371.767972 56.007482 
L 374.186408 54.636394 
L 376.604844 84.139634 
L 376.604844 84.139634 
" clip-path="url(#pbcb84ba34d)" style="fill: none; stroke: #1f77b4; stroke-width: 1.5; stroke-linecap: square"/>
   </g>
   <g id="line2d_11">
    <path d="M 379.023281 157.558473 
L 381.441717 75.309993 
L 383.860153 49.777781 
L 386.27859 55.198741 
L 388.697026 51.487373 
L 391.115462 55.591164 
L 393.533899 60.303687 
L 395.952335 55.399544 
L 398.370771 56.434341 
L 400.789208 54.498008 
L 403.207644 53.384395 
L 405.62608 51.392431 
L 408.044517 51.535209 
L 410.462953 52.622396 
L 412.88139 52.933495 
L 415.299826 46.668984 
L 417.718262 48.290818 
L 420.136699 54.165509 
L 422.555135 55.753982 
L 424.973571 50.43643 
L 427.392008 53.60153 
L 429.810444 50.883375 
L 432.22888 63.458982 
L 434.647317 68.432381 
L 437.065753 58.150337 
L 439.484189 52.536545 
L 441.902626 57.547657 
L 444.321062 59.252101 
L 446.739498 56.03078 
L 451.576371 55.546388 
L 453.994807 51.510019 
L 456.413244 51.346053 
L 458.83168 53.76172 
L 461.250116 56.423878 
L 463.668553 55.329013 
L 466.086989 54.980483 
L 468.505425 54.838391 
L 470.923862 51.897649 
L 473.342298 54.70612 
L 475.760735 55.114223 
L 478.179171 51.796041 
L 480.597607 50.731399 
L 483.016044 56.65849 
L 487.852916 64.225238 
L 490.271353 55.782046 
L 492.689789 56.838531 
L 495.108225 54.048187 
L 497.526662 57.623811 
L 499.945098 56.121852 
L 502.363534 49.591914 
L 504.781971 51.133234 
L 507.200407 48.240627 
L 509.618843 47.543014 
L 512.03728 52.877124 
L 514.455716 50.908203 
L 516.874152 47.732479 
L 519.292589 51.668745 
L 521.711025 57.011646 
L 524.129461 58.994161 
L 528.966334 47.313449 
L 531.38477 48.710273 
L 533.803207 56.862423 
L 536.221643 54.525653 
L 538.640079 56.92472 
L 541.058516 59.49802 
L 543.476952 54.312166 
L 545.895389 51.837451 
L 548.313825 56.266283 
L 550.732261 57.669365 
L 553.150698 51.056939 
L 555.569134 54.191129 
L 557.98757 53.175689 
L 560.406007 51.611037 
L 562.824443 54.876828 
L 565.242879 61.853206 
L 567.661316 66.499903 
L 570.079752 59.552494 
L 572.498188 54.130327 
L 574.916625 49.436995 
L 577.335061 46.402846 
L 579.753497 50.879428 
L 582.171934 58.450162 
L 584.59037 55.409219 
L 587.008806 51.22897 
L 589.427243 52.415963 
L 591.845679 58.719459 
L 594.264115 53.265281 
L 596.682552 55.245932 
L 599.100988 54.447311 
L 601.519424 54.122066 
L 603.937861 55.320057 
L 606.356297 58.064194 
L 608.774734 62.838021 
L 611.19317 58.758061 
L 613.611606 57.360024 
L 616.030043 57.914143 
L 618.448479 56.048711 
L 620.866915 56.078026 
L 623.285352 55.967495 
L 625.703788 58.738661 
L 628.122224 56.313427 
L 630.540661 53.271352 
L 632.959097 58.569218 
L 635.377533 61.096698 
L 637.79597 57.365711 
L 640.214406 58.419558 
L 645.051279 46.84911 
L 647.469715 52.105185 
L 649.888151 50.373902 
L 652.306588 51.749862 
L 654.725024 56.30762 
L 657.14346 55.144811 
L 659.561897 56.329189 
L 661.980333 49.832324 
L 664.398769 48.65826 
L 666.817206 48.995057 
L 669.235642 51.130168 
L 671.654079 46.886779 
L 674.072515 50.606205 
L 676.490951 53.099658 
L 678.909388 48.901469 
L 681.327824 52.664775 
L 683.74626 51.906927 
L 686.164697 60.693757 
L 69.463428 63.919119 
L 71.881865 60.693757 
L 74.300301 51.906927 
L 76.718737 52.664775 
L 79.137174 48.901469 
L 81.55561 53.099658 
L 83.974046 50.606205 
L 86.392483 46.886779 
L 88.810919 51.130168 
L 91.229356 48.995057 
L 93.647792 48.65826 
L 96.066228 49.832324 
L 98.484665 56.329189 
L 100.903101 55.144811 
L 103.321537 56.30762 
L 105.739974 51.749862 
L 108.15841 50.373902 
L 110.576846 52.105185 
L 112.995283 46.84911 
L 117.832155 58.419558 
L 120.250592 57.365711 
L 122.669028 61.096698 
L 125.087464 58.569218 
L 127.505901 53.271352 
L 129.924337 56.313427 
L 132.342773 58.738661 
L 134.76121 55.967495 
L 137.179646 56.078026 
L 139.598082 56.048711 
L 142.016519 57.914143 
L 144.434955 57.360024 
L 146.853391 58.758061 
L 149.271828 62.838021 
L 151.690264 58.064194 
L 154.108701 55.320057 
L 156.527137 54.122066 
L 158.945573 54.447311 
L 161.36401 55.245932 
L 163.782446 53.265281 
L 166.200882 58.719459 
L 168.619319 52.415963 
L 171.037755 51.22897 
L 173.456191 55.409219 
L 175.874628 58.450162 
L 178.293064 50.879428 
L 180.7115 46.402846 
L 183.129937 49.436995 
L 185.548373 54.130327 
L 187.966809 59.552494 
L 190.385246 66.499903 
L 192.803682 61.853206 
L 195.222118 54.876828 
L 197.640555 51.611037 
L 200.058991 53.175689 
L 202.477427 54.191129 
L 204.895864 51.056939 
L 207.3143 57.669365 
L 209.732736 56.266283 
L 212.151173 51.837451 
L 214.569609 54.312166 
L 216.988046 59.49802 
L 219.406482 56.92472 
L 221.824918 54.525653 
L 224.243355 56.862423 
L 226.661791 48.710273 
L 229.080227 47.313449 
L 233.9171 58.994161 
L 236.335536 57.011646 
L 238.753973 51.668745 
L 241.172409 47.732479 
L 243.590845 50.908203 
L 246.009282 52.877124 
L 248.427718 47.543014 
L 250.846154 48.240627 
L 253.264591 51.133234 
L 255.683027 49.591914 
L 258.101463 56.121852 
L 260.5199 57.623811 
L 262.938336 54.048187 
L 265.356772 56.838531 
L 267.775209 55.782046 
L 270.193645 64.225238 
L 275.030518 56.65849 
L 277.448954 50.731399 
L 279.86739 51.796041 
L 282.285827 55.114223 
L 284.704263 54.70612 
L 287.1227 51.897649 
L 289.541136 54.838391 
L 291.959572 54.980483 
L 294.378009 55.329013 
L 296.796445 56.423878 
L 299.214881 53.76172 
L 301.633318 51.346053 
L 304.051754 51.510019 
L 306.47019 55.546388 
L 311.307063 56.03078 
L 313.725499 59.252101 
L 316.143936 57.547657 
L 318.562372 52.536545 
L 320.980808 58.150337 
L 323.399245 68.432381 
L 325.817681 63.458982 
L 328.236117 50.883375 
L 330.654554 53.60153 
L 333.07299 50.43643 
L 335.491426 55.753982 
L 337.909863 54.165509 
L 340.328299 48.290818 
L 342.746735 46.668984 
L 345.165172 52.933495 
L 347.583608 52.622396 
L 350.002045 51.535209 
L 352.420481 51.392431 
L 354.838917 53.384395 
L 357.257354 54.498008 
L 359.67579 56.434341 
L 362.094226 55.399544 
L 364.512663 60.303687 
L 366.931099 55.591164 
L 369.349535 51.487373 
L 371.767972 55.198741 
L 374.186408 49.777781 
L 376.604844 75.309993 
L 376.604844 75.309993 
" clip-path="url(#pbcb84ba34d)" style="fill: none; stroke: #ff7f0e; stroke-width: 1.5; stroke-linecap: square"/>
   </g>
   <g id="line2d_12">
    <path d="M 379.023281 156.162626 
L 381.441717 74.420515 
L 383.860153 51.477573 
L 386.27859 55.898235 
L 388.697026 56.404444 
L 391.115462 54.559547 
L 393.533899 55.37944 
L 395.952335 49.98158 
L 398.370771 47.617184 
L 400.789208 54.467374 
L 403.207644 55.79112 
L 405.62608 58.257771 
L 408.044517 50.138975 
L 410.462953 50.552353 
L 412.88139 56.427578 
L 415.299826 58.079657 
L 417.718262 57.969827 
L 420.136699 55.594433 
L 422.555135 53.446128 
L 424.973571 53.344398 
L 427.392008 52.434883 
L 429.810444 52.403135 
L 432.22888 55.091799 
L 434.647317 58.80432 
L 437.065753 60.895607 
L 439.484189 55.130432 
L 441.902626 51.314508 
L 444.321062 48.424675 
L 446.739498 51.254685 
L 449.157935 47.054618 
L 451.576371 55.108723 
L 453.994807 59.527048 
L 456.413244 48.870618 
L 458.83168 49.574464 
L 461.250116 55.366069 
L 463.668553 50.474799 
L 466.086989 48.256015 
L 470.923862 55.555815 
L 473.342298 50.872219 
L 475.760735 53.391294 
L 478.179171 60.778123 
L 480.597607 59.128053 
L 483.016044 59.38131 
L 485.43448 54.899972 
L 487.852916 54.519489 
L 490.271353 52.202084 
L 495.108225 62.497789 
L 497.526662 58.960085 
L 499.945098 60.653908 
L 502.363534 60.742203 
L 504.781971 54.291358 
L 507.200407 56.880009 
L 509.618843 58.199421 
L 512.03728 54.170088 
L 514.455716 57.175963 
L 516.874152 52.601274 
L 519.292589 53.559429 
L 521.711025 55.569457 
L 524.129461 52.742366 
L 526.547898 54.781238 
L 528.966334 51.227901 
L 531.38477 48.916955 
L 533.803207 52.679597 
L 536.221643 53.554822 
L 538.640079 52.489258 
L 541.058516 55.46834 
L 543.476952 58.794237 
L 545.895389 51.787723 
L 548.313825 49.981117 
L 550.732261 51.988645 
L 555.569134 53.830387 
L 557.98757 45.445004 
L 560.406007 50.409461 
L 562.824443 49.202004 
L 565.242879 52.423727 
L 567.661316 60.028161 
L 570.079752 56.218736 
L 572.498188 51.16025 
L 574.916625 55.848628 
L 577.335061 53.210203 
L 579.753497 54.314721 
L 582.171934 54.927168 
L 584.59037 51.494031 
L 587.008806 52.960119 
L 589.427243 57.144969 
L 591.845679 54.407578 
L 594.264115 57.842078 
L 596.682552 59.725869 
L 599.100988 58.825362 
L 601.519424 50.792646 
L 603.937861 55.107261 
L 606.356297 51.77918 
L 608.774734 55.927588 
L 611.19317 56.040703 
L 613.611606 53.669579 
L 616.030043 53.604049 
L 618.448479 52.917713 
L 623.285352 51.974047 
L 625.703788 54.147313 
L 628.122224 59.159173 
L 630.540661 60.341045 
L 632.959097 53.595505 
L 635.377533 44.737245 
L 637.79597 49.747104 
L 640.214406 56.964805 
L 642.632842 63.341584 
L 645.051279 53.453578 
L 647.469715 52.204097 
L 649.888151 50.76565 
L 652.306588 52.783504 
L 654.725024 51.818459 
L 657.14346 48.275273 
L 659.561897 50.17848 
L 661.980333 53.722558 
L 664.398769 53.991227 
L 666.817206 52.952102 
L 669.235642 49.833378 
L 671.654079 52.670078 
L 674.072515 50.749689 
L 676.490951 51.113629 
L 678.909388 56.602002 
L 681.327824 49.969069 
L 683.74626 51.572335 
L 686.164697 50.912173 
L 69.463428 48.267425 
L 71.881865 50.912173 
L 74.300301 51.572335 
L 76.718737 49.969069 
L 79.137174 56.602002 
L 81.55561 51.113629 
L 83.974046 50.749689 
L 86.392483 52.670078 
L 88.810919 49.833378 
L 91.229356 52.952102 
L 93.647792 53.991227 
L 96.066228 53.722558 
L 98.484665 50.17848 
L 100.903101 48.275273 
L 103.321537 51.818459 
L 105.739974 52.783504 
L 108.15841 50.76565 
L 110.576846 52.204097 
L 112.995283 53.453578 
L 115.413719 63.341584 
L 117.832155 56.964805 
L 120.250592 49.747104 
L 122.669028 44.737245 
L 125.087464 53.595505 
L 127.505901 60.341045 
L 129.924337 59.159173 
L 132.342773 54.147313 
L 134.76121 51.974047 
L 139.598082 52.917713 
L 142.016519 53.604049 
L 144.434955 53.669579 
L 146.853391 56.040703 
L 149.271828 55.927588 
L 151.690264 51.77918 
L 154.108701 55.107261 
L 156.527137 50.792646 
L 158.945573 58.825362 
L 161.36401 59.725869 
L 163.782446 57.842078 
L 166.200882 54.407578 
L 168.619319 57.144969 
L 171.037755 52.960119 
L 173.456191 51.494031 
L 175.874628 54.927168 
L 178.293064 54.314721 
L 180.7115 53.210203 
L 183.129937 55.848628 
L 185.548373 51.16025 
L 187.966809 56.218736 
L 190.385246 60.028161 
L 192.803682 52.423727 
L 195.222118 49.202004 
L 197.640555 50.409461 
L 200.058991 45.445004 
L 202.477427 53.830387 
L 207.3143 51.988645 
L 209.732736 49.981117 
L 212.151173 51.787723 
L 214.569609 58.794237 
L 216.988046 55.46834 
L 219.406482 52.489258 
L 221.824918 53.554822 
L 224.243355 52.679597 
L 226.661791 48.916955 
L 229.080227 51.227901 
L 231.498664 54.781238 
L 233.9171 52.742366 
L 236.335536 55.569457 
L 238.753973 53.559429 
L 241.172409 52.601274 
L 243.590845 57.175963 
L 246.009282 54.170088 
L 248.427718 58.199421 
L 250.846154 56.880009 
L 253.264591 54.291358 
L 255.683027 60.742203 
L 258.101463 60.653908 
L 260.5199 58.960085 
L 262.938336 62.497789 
L 267.775209 52.202084 
L 270.193645 54.519489 
L 272.612081 54.899972 
L 275.030518 59.38131 
L 277.448954 59.128053 
L 279.86739 60.778123 
L 282.285827 53.391294 
L 284.704263 50.872219 
L 287.1227 55.555815 
L 291.959572 48.256015 
L 294.378009 50.474799 
L 296.796445 55.366069 
L 299.214881 49.574464 
L 301.633318 48.870618 
L 304.051754 59.527048 
L 306.47019 55.108723 
L 308.888627 47.054618 
L 311.307063 51.254685 
L 313.725499 48.424675 
L 316.143936 51.314508 
L 318.562372 55.130432 
L 320.980808 60.895607 
L 323.399245 58.80432 
L 325.817681 55.091799 
L 328.236117 52.403135 
L 330.654554 52.434883 
L 333.07299 53.344398 
L 335.491426 53.446128 
L 337.909863 55.594433 
L 340.328299 57.969827 
L 342.746735 58.079657 
L 345.165172 56.427578 
L 347.583608 50.552353 
L 350.002045 50.138975 
L 352.420481 58.257771 
L 354.838917 55.79112 
L 357.257354 54.467374 
L 359.67579 47.617184 
L 362.094226 49.98158 
L 364.512663 55.37944 
L 366.931099 54.559547 
L 369.349535 56.404444 
L 371.767972 55.898235 
L 374.186408 51.477573 
L 376.604844 74.420515 
L 376.604844 74.420515 
" clip-path="url(#pbcb84ba34d)" style="fill: none; stroke: #2ca02c; stroke-width: 1.5; stroke-linecap: square"/>
   </g>
   <g id="patch_3">
    <path d="M 38.628365 167.090552 
L 38.628365 35.732595 
" style="fill: none; stroke: #000000; stroke-width: 0.8; stroke-linejoin: miter; stroke-linecap: square"/>
   </g>
   <g id="patch_4">
    <path d="M 716.99976 167.090552 
L 716.99976 35.732595 
" style="fill: none; stroke: #000000; stroke-width: 0.8; stroke-linejoin: miter; stroke-linecap: square"/>
   </g>
   <g id="patch_5">
    <path d="M 38.628365 167.090552 
L 716.99976 167.090552 
" style="fill: none; stroke: #000000; stroke-width: 0.8; stroke-linejoin: miter; stroke-linecap: square"/>
   </g>
   <g id="patch_6">
    <path d="M 38.628365 35.732595 
L 716.99976 35.732595 
" style="fill: none; stroke: #000000; stroke-width: 0.8; stroke-linejoin: miter; stroke-linecap: square"/>
   </g>
   <g id="text_10">
    <!-- White Noise -->
    <g transform="translate(341.816875 29.732595) scale(0.12 -0.12)">
     <defs>
      <path id="DejaVuSans-57" d="M 213 4666 
L 850 4666 
L 1831 722 
L 2809 4666 
L 3519 4666 
L 4500 722 
L 5478 4666 
L 6119 4666 
L 4947 0 
L 4153 0 
L 3169 4050 
L 2175 0 
L 1381 0 
L 213 4666 
z
" transform="scale(0.015625)"/>
      <path id="DejaVuSans-68" d="M 3513 2113 
L 3513 0 
L 2938 0 
L 2938 2094 
Q 2938 2591 2744 2837 
Q 2550 3084 2163 3084 
Q 1697 3084 1428 2787 
Q 1159 2491 1159 1978 
L 1159 0 
L 581 0 
L 581 4863 
L 1159 4863 
L 1159 2956 
Q 1366 3272 1645 3428 
Q 1925 3584 2291 3584 
Q 2894 3584 3203 3211 
Q 3513 2838 3513 2113 
z
" transform="scale(0.015625)"/>
      <path id="DejaVuSans-69" d="M 603 3500 
L 1178 3500 
L 1178 0 
L 603 0 
L 603 3500 
z
M 603 4863 
L 1178 4863 
L 1178 4134 
L 603 4134 
L 603 4863 
z
" transform="scale(0.015625)"/>
      <path id="DejaVuSans-74" d="M 1172 4494 
L 1172 3500 
L 2356 3500 
L 2356 3053 
L 1172 3053 
L 1172 1153 
Q 1172 725 1289 603 
Q 1406 481 1766 481 
L 2356 481 
L 2356 0 
L 1766 0 
Q 1100 0 847 248 
Q 594 497 594 1153 
L 594 3053 
L 172 3053 
L 172 3500 
L 594 3500 
L 594 4494 
L 1172 4494 
z
" transform="scale(0.015625)"/>
      <path id="DejaVuSans-65" d="M 3597 1894 
L 3597 1613 
L 953 1613 
Q 991 1019 1311 708 
Q 1631 397 2203 397 
Q 2534 397 2845 478 
Q 3156 559 3463 722 
L 3463 178 
Q 3153 47 2828 -22 
Q 2503 -91 2169 -91 
Q 1331 -91 842 396 
Q 353 884 353 1716 
Q 353 2575 817 3079 
Q 1281 3584 2069 3584 
Q 2775 3584 3186 3129 
Q 3597 2675 3597 1894 
z
M 3022 2063 
Q 3016 2534 2758 2815 
Q 2500 3097 2075 3097 
Q 1594 3097 1305 2825 
Q 1016 2553 972 2059 
L 3022 2063 
z
" transform="scale(0.015625)"/>
      <path id="DejaVuSans-20" transform="scale(0.015625)"/>
      <path id="DejaVuSans-4e" d="M 628 4666 
L 1478 4666 
L 3547 763 
L 3547 4666 
L 4159 4666 
L 4159 0 
L 3309 0 
L 1241 3903 
L 1241 0 
L 628 0 
L 628 4666 
z
" transform="scale(0.015625)"/>
      <path id="DejaVuSans-6f" d="M 1959 3097 
Q 1497 3097 1228 2736 
Q 959 2375 959 1747 
Q 959 1119 1226 758 
Q 1494 397 1959 397 
Q 2419 397 2687 759 
Q 2956 1122 2956 1747 
Q 2956 2369 2687 2733 
Q 2419 3097 1959 3097 
z
M 1959 3584 
Q 2709 3584 3137 3096 
Q 3566 2609 3566 1747 
Q 3566 888 3137 398 
Q 2709 -91 1959 -91 
Q 1206 -91 779 398 
Q 353 888 353 1747 
Q 353 2609 779 3096 
Q 1206 3584 1959 3584 
z
" transform="scale(0.015625)"/>
      <path id="DejaVuSans-73" d="M 2834 3397 
L 2834 2853 
Q 2591 2978 2328 3040 
Q 2066 3103 1784 3103 
Q 1356 3103 1142 2972 
Q 928 2841 928 2578 
Q 928 2378 1081 2264 
Q 1234 2150 1697 2047 
L 1894 2003 
Q 2506 1872 2764 1633 
Q 3022 1394 3022 966 
Q 3022 478 2636 193 
Q 2250 -91 1575 -91 
Q 1294 -91 989 -36 
Q 684 19 347 128 
L 347 722 
Q 666 556 975 473 
Q 1284 391 1588 391 
Q 1994 391 2212 530 
Q 2431 669 2431 922 
Q 2431 1156 2273 1281 
Q 2116 1406 1581 1522 
L 1381 1569 
Q 847 1681 609 1914 
Q 372 2147 372 2553 
Q 372 3047 722 3315 
Q 1072 3584 1716 3584 
Q 2034 3584 2315 3537 
Q 2597 3491 2834 3397 
z
" transform="scale(0.015625)"/>
     </defs>
     <use xlink:href="#DejaVuSans-57"/>
     <use xlink:href="#DejaVuSans-68" x="98.876953"/>
     <use xlink:href="#DejaVuSans-69" x="162.255859"/>
     <use xlink:href="#DejaVuSans-74" x="190.039062"/>
     <use xlink:href="#DejaVuSans-65" x="229.248047"/>
     <use xlink:href="#DejaVuSans-20" x="290.771484"/>
     <use xlink:href="#DejaVuSans-4e" x="322.558594"/>
     <use xlink:href="#DejaVuSans-6f" x="397.363281"/>
     <use xlink:href="#DejaVuSans-69" x="458.544922"/>
     <use xlink:href="#DejaVuSans-73" x="486.328125"/>
     <use xlink:href="#DejaVuSans-65" x="538.427734"/>
    </g>
   </g>
  </g>
  <g id="axes_2">
   <g id="patch_7">
    <path d="M 38.628365 336.245239 
L 716.99976 336.245239 
L 716.99976 204.887282 
L 38.628365 204.887282 
z
" style="fill: #ffffff"/>
   </g>
   <g id="matplotlib.axis_3">
    <g id="xtick_6">
     <g id="line2d_13">
      <g>
       <use xlink:href="#mc1adffc852" x="131.375399" y="336.245239" style="stroke: #000000; stroke-width: 0.8"/>
      </g>
     </g>
     <g id="text_11">
      <!-- −0.4 -->
      <g transform="translate(119.233993 350.843676) scale(0.1 -0.1)">
       <use xlink:href="#DejaVuSans-2212"/>
       <use xlink:href="#DejaVuSans-30" x="83.789062"/>
       <use xlink:href="#DejaVuSans-2e" x="147.412109"/>
       <use xlink:href="#DejaVuSans-34" x="179.199219"/>
      </g>
     </g>
    </g>
    <g id="xtick_7">
     <g id="line2d_14">
      <g>
       <use xlink:href="#mc1adffc852" x="255.19934" y="336.245239" style="stroke: #000000; stroke-width: 0.8"/>
      </g>
     </g>
     <g id="text_12">
      <!-- −0.2 -->
      <g transform="translate(243.057934 350.843676) scale(0.1 -0.1)">
       <use xlink:href="#DejaVuSans-2212"/>
       <use xlink:href="#DejaVuSans-30" x="83.789062"/>
       <use xlink:href="#DejaVuSans-2e" x="147.412109"/>
       <use xlink:href="#DejaVuSans-32" x="179.199219"/>
      </g>
     </g>
    </g>
    <g id="xtick_8">
     <g id="line2d_15">
      <g>
       <use xlink:href="#mc1adffc852" x="379.023281" y="336.245239" style="stroke: #000000; stroke-width: 0.8"/>
      </g>
     </g>
     <g id="text_13">
      <!-- 0.0 -->
      <g transform="translate(371.071718 350.843676) scale(0.1 -0.1)">
       <use xlink:href="#DejaVuSans-30"/>
       <use xlink:href="#DejaVuSans-2e" x="63.623047"/>
       <use xlink:href="#DejaVuSans-30" x="95.410156"/>
      </g>
     </g>
    </g>
    <g id="xtick_9">
     <g id="line2d_16">
      <g>
       <use xlink:href="#mc1adffc852" x="502.847222" y="336.245239" style="stroke: #000000; stroke-width: 0.8"/>
      </g>
     </g>
     <g id="text_14">
      <!-- 0.2 -->
      <g transform="translate(494.895659 350.843676) scale(0.1 -0.1)">
       <use xlink:href="#DejaVuSans-30"/>
       <use xlink:href="#DejaVuSans-2e" x="63.623047"/>
       <use xlink:href="#DejaVuSans-32" x="95.410156"/>
      </g>
     </g>
    </g>
    <g id="xtick_10">
     <g id="line2d_17">
      <g>
       <use xlink:href="#mc1adffc852" x="626.671162" y="336.245239" style="stroke: #000000; stroke-width: 0.8"/>
      </g>
     </g>
     <g id="text_15">
      <!-- 0.4 -->
      <g transform="translate(618.7196 350.843676) scale(0.1 -0.1)">
       <use xlink:href="#DejaVuSans-30"/>
       <use xlink:href="#DejaVuSans-2e" x="63.623047"/>
       <use xlink:href="#DejaVuSans-34" x="95.410156"/>
      </g>
     </g>
    </g>
   </g>
   <g id="matplotlib.axis_4">
    <g id="ytick_5">
     <g id="line2d_18">
      <g>
       <use xlink:href="#md161263d41" x="38.628365" y="330.28958" style="stroke: #000000; stroke-width: 0.8"/>
      </g>
     </g>
     <g id="text_16">
      <!-- 0 -->
      <g transform="translate(25.265865 334.088799) scale(0.1 -0.1)">
       <use xlink:href="#DejaVuSans-30"/>
      </g>
     </g>
    </g>
    <g id="ytick_6">
     <g id="line2d_19">
      <g>
       <use xlink:href="#md161263d41" x="38.628365" y="302.656515" style="stroke: #000000; stroke-width: 0.8"/>
      </g>
     </g>
     <g id="text_17">
      <!-- 10 -->
      <g transform="translate(18.903365 306.455733) scale(0.1 -0.1)">
       <use xlink:href="#DejaVuSans-31"/>
       <use xlink:href="#DejaVuSans-30" x="63.623047"/>
      </g>
     </g>
    </g>
    <g id="ytick_7">
     <g id="line2d_20">
      <g>
       <use xlink:href="#md161263d41" x="38.628365" y="275.023449" style="stroke: #000000; stroke-width: 0.8"/>
      </g>
     </g>
     <g id="text_18">
      <!-- 20 -->
      <g transform="translate(18.903365 278.822668) scale(0.1 -0.1)">
       <use xlink:href="#DejaVuSans-32"/>
       <use xlink:href="#DejaVuSans-30" x="63.623047"/>
      </g>
     </g>
    </g>
    <g id="ytick_8">
     <g id="line2d_21">
      <g>
       <use xlink:href="#md161263d41" x="38.628365" y="247.390384" style="stroke: #000000; stroke-width: 0.8"/>
      </g>
     </g>
     <g id="text_19">
      <!-- 30 -->
      <g transform="translate(18.903365 251.189602) scale(0.1 -0.1)">
       <defs>
        <path id="DejaVuSans-33" d="M 2597 2516 
Q 3050 2419 3304 2112 
Q 3559 1806 3559 1356 
Q 3559 666 3084 287 
Q 2609 -91 1734 -91 
Q 1441 -91 1130 -33 
Q 819 25 488 141 
L 488 750 
Q 750 597 1062 519 
Q 1375 441 1716 441 
Q 2309 441 2620 675 
Q 2931 909 2931 1356 
Q 2931 1769 2642 2001 
Q 2353 2234 1838 2234 
L 1294 2234 
L 1294 2753 
L 1863 2753 
Q 2328 2753 2575 2939 
Q 2822 3125 2822 3475 
Q 2822 3834 2567 4026 
Q 2313 4219 1838 4219 
Q 1578 4219 1281 4162 
Q 984 4106 628 3988 
L 628 4550 
Q 988 4650 1302 4700 
Q 1616 4750 1894 4750 
Q 2613 4750 3031 4423 
Q 3450 4097 3450 3541 
Q 3450 3153 3228 2886 
Q 3006 2619 2597 2516 
z
" transform="scale(0.015625)"/>
       </defs>
       <use xlink:href="#DejaVuSans-33"/>
       <use xlink:href="#DejaVuSans-30" x="63.623047"/>
      </g>
     </g>
    </g>
    <g id="ytick_9">
     <g id="line2d_22">
      <g>
       <use xlink:href="#md161263d41" x="38.628365" y="219.757318" style="stroke: #000000; stroke-width: 0.8"/>
      </g>
     </g>
     <g id="text_20">
      <!-- 40 -->
      <g transform="translate(18.903365 223.556537) scale(0.1 -0.1)">
       <use xlink:href="#DejaVuSans-34"/>
       <use xlink:href="#DejaVuSans-30" x="63.623047"/>
      </g>
     </g>
    </g>
   </g>
   <g id="line2d_23">
    <path d="M 379.023281 296.080292 
L 381.441717 219.484579 
L 383.860153 291.524702 
L 386.27859 316.740738 
L 388.697026 323.056409 
L 391.115462 325.891674 
L 393.533899 327.206282 
L 395.952335 328.006126 
L 398.370771 328.517304 
L 403.207644 329.200393 
L 408.044517 329.556349 
L 415.299826 329.801708 
L 453.994807 330.170042 
L 570.079752 330.265679 
L 686.164697 330.273349 
L 69.463428 330.273309 
L 296.796445 330.188214 
L 335.491426 329.93874 
L 350.002045 329.556349 
L 354.838917 329.200393 
L 359.67579 328.517304 
L 362.094226 328.006126 
L 364.512663 327.206282 
L 366.931099 325.891674 
L 369.349535 323.056409 
L 371.767972 316.740738 
L 374.186408 291.524702 
L 376.604844 219.484579 
L 376.604844 219.484579 
" clip-path="url(#pc5675bb461)" style="fill: none; stroke: #1f77b4; stroke-width: 1.5; stroke-linecap: square"/>
   </g>
   <g id="line2d_24">
    <path d="M 379.023281 293.179309 
L 381.441717 210.858098 
L 383.860153 288.824193 
L 386.27859 316.734085 
L 388.697026 322.979627 
L 391.115462 325.804622 
L 393.533899 327.33705 
L 395.952335 328.071649 
L 398.370771 328.602158 
L 403.207644 329.196354 
L 410.462953 329.638114 
L 420.136699 329.910902 
L 434.647317 330.100106 
L 686.164697 330.274088 
L 69.463428 330.274423 
L 306.47019 330.165798 
L 333.07299 329.978904 
L 342.746735 329.782088 
L 350.002045 329.520766 
L 354.838917 329.196354 
L 359.67579 328.602158 
L 362.094226 328.071649 
L 364.512663 327.33705 
L 366.931099 325.804622 
L 369.349535 322.979627 
L 371.767972 316.734085 
L 374.186408 288.824193 
L 376.604844 210.858098 
L 376.604844 210.858098 
" clip-path="url(#pc5675bb461)" style="fill: none; stroke: #ff7f0e; stroke-width: 1.5; stroke-linecap: square"/>
   </g>
   <g id="line2d_25">
    <path d="M 379.023281 292.841041 
L 381.441717 213.111532 
L 383.860153 289.735252 
L 386.27859 316.675003 
L 388.697026 323.184746 
L 391.115462 325.821752 
L 393.533899 327.236094 
L 395.952335 327.999804 
L 400.789208 328.937718 
L 405.62608 329.412237 
L 417.718262 329.872776 
L 437.065753 330.10573 
L 519.292589 330.251521 
L 686.164697 330.273069 
L 69.463428 330.272798 
L 306.47019 330.16522 
L 340.328299 329.872776 
L 347.583608 329.628969 
L 354.838917 329.212423 
L 357.257354 328.937718 
L 362.094226 327.999804 
L 364.512663 327.236094 
L 366.931099 325.821752 
L 369.349535 323.184746 
L 371.767972 316.675003 
L 374.186408 289.735252 
L 376.604844 213.111532 
L 376.604844 213.111532 
" clip-path="url(#pc5675bb461)" style="fill: none; stroke: #2ca02c; stroke-width: 1.5; stroke-linecap: square"/>
   </g>
   <g id="patch_8">
    <path d="M 38.628365 336.245239 
L 38.628365 204.887282 
" style="fill: none; stroke: #000000; stroke-width: 0.8; stroke-linejoin: miter; stroke-linecap: square"/>
   </g>
   <g id="patch_9">
    <path d="M 716.99976 336.245239 
L 716.99976 204.887282 
" style="fill: none; stroke: #000000; stroke-width: 0.8; stroke-linejoin: miter; stroke-linecap: square"/>
   </g>
   <g id="patch_10">
    <path d="M 38.628365 336.245239 
L 716.99976 336.245239 
" style="fill: none; stroke: #000000; stroke-width: 0.8; stroke-linejoin: miter; stroke-linecap: square"/>
   </g>
   <g id="patch_11">
    <path d="M 38.628365 204.887282 
L 716.99976 204.887282 
" style="fill: none; stroke: #000000; stroke-width: 0.8; stroke-linejoin: miter; stroke-linecap: square"/>
   </g>
   <g id="text_21">
    <!-- Random Walk -->
    <g transform="translate(336.700937 198.887282) scale(0.12 -0.12)">
     <defs>
      <path id="DejaVuSans-52" d="M 2841 2188 
Q 3044 2119 3236 1894 
Q 3428 1669 3622 1275 
L 4263 0 
L 3584 0 
L 2988 1197 
Q 2756 1666 2539 1819 
Q 2322 1972 1947 1972 
L 1259 1972 
L 1259 0 
L 628 0 
L 628 4666 
L 2053 4666 
Q 2853 4666 3247 4331 
Q 3641 3997 3641 3322 
Q 3641 2881 3436 2590 
Q 3231 2300 2841 2188 
z
M 1259 4147 
L 1259 2491 
L 2053 2491 
Q 2509 2491 2742 2702 
Q 2975 2913 2975 3322 
Q 2975 3731 2742 3939 
Q 2509 4147 2053 4147 
L 1259 4147 
z
" transform="scale(0.015625)"/>
      <path id="DejaVuSans-61" d="M 2194 1759 
Q 1497 1759 1228 1600 
Q 959 1441 959 1056 
Q 959 750 1161 570 
Q 1363 391 1709 391 
Q 2188 391 2477 730 
Q 2766 1069 2766 1631 
L 2766 1759 
L 2194 1759 
z
M 3341 1997 
L 3341 0 
L 2766 0 
L 2766 531 
Q 2569 213 2275 61 
Q 1981 -91 1556 -91 
Q 1019 -91 701 211 
Q 384 513 384 1019 
Q 384 1609 779 1909 
Q 1175 2209 1959 2209 
L 2766 2209 
L 2766 2266 
Q 2766 2663 2505 2880 
Q 2244 3097 1772 3097 
Q 1472 3097 1187 3025 
Q 903 2953 641 2809 
L 641 3341 
Q 956 3463 1253 3523 
Q 1550 3584 1831 3584 
Q 2591 3584 2966 3190 
Q 3341 2797 3341 1997 
z
" transform="scale(0.015625)"/>
      <path id="DejaVuSans-6e" d="M 3513 2113 
L 3513 0 
L 2938 0 
L 2938 2094 
Q 2938 2591 2744 2837 
Q 2550 3084 2163 3084 
Q 1697 3084 1428 2787 
Q 1159 2491 1159 1978 
L 1159 0 
L 581 0 
L 581 3500 
L 1159 3500 
L 1159 2956 
Q 1366 3272 1645 3428 
Q 1925 3584 2291 3584 
Q 2894 3584 3203 3211 
Q 3513 2838 3513 2113 
z
" transform="scale(0.015625)"/>
      <path id="DejaVuSans-64" d="M 2906 2969 
L 2906 4863 
L 3481 4863 
L 3481 0 
L 2906 0 
L 2906 525 
Q 2725 213 2448 61 
Q 2172 -91 1784 -91 
Q 1150 -91 751 415 
Q 353 922 353 1747 
Q 353 2572 751 3078 
Q 1150 3584 1784 3584 
Q 2172 3584 2448 3432 
Q 2725 3281 2906 2969 
z
M 947 1747 
Q 947 1113 1208 752 
Q 1469 391 1925 391 
Q 2381 391 2643 752 
Q 2906 1113 2906 1747 
Q 2906 2381 2643 2742 
Q 2381 3103 1925 3103 
Q 1469 3103 1208 2742 
Q 947 2381 947 1747 
z
" transform="scale(0.015625)"/>
      <path id="DejaVuSans-6d" d="M 3328 2828 
Q 3544 3216 3844 3400 
Q 4144 3584 4550 3584 
Q 5097 3584 5394 3201 
Q 5691 2819 5691 2113 
L 5691 0 
L 5113 0 
L 5113 2094 
Q 5113 2597 4934 2840 
Q 4756 3084 4391 3084 
Q 3944 3084 3684 2787 
Q 3425 2491 3425 1978 
L 3425 0 
L 2847 0 
L 2847 2094 
Q 2847 2600 2669 2842 
Q 2491 3084 2119 3084 
Q 1678 3084 1418 2786 
Q 1159 2488 1159 1978 
L 1159 0 
L 581 0 
L 581 3500 
L 1159 3500 
L 1159 2956 
Q 1356 3278 1631 3431 
Q 1906 3584 2284 3584 
Q 2666 3584 2933 3390 
Q 3200 3197 3328 2828 
z
" transform="scale(0.015625)"/>
      <path id="DejaVuSans-6c" d="M 603 4863 
L 1178 4863 
L 1178 0 
L 603 0 
L 603 4863 
z
" transform="scale(0.015625)"/>
      <path id="DejaVuSans-6b" d="M 581 4863 
L 1159 4863 
L 1159 1991 
L 2875 3500 
L 3609 3500 
L 1753 1863 
L 3688 0 
L 2938 0 
L 1159 1709 
L 1159 0 
L 581 0 
L 581 4863 
z
" transform="scale(0.015625)"/>
     </defs>
     <use xlink:href="#DejaVuSans-52"/>
     <use xlink:href="#DejaVuSans-61" x="67.232422"/>
     <use xlink:href="#DejaVuSans-6e" x="128.511719"/>
     <use xlink:href="#DejaVuSans-64" x="191.890625"/>
     <use xlink:href="#DejaVuSans-6f" x="255.367188"/>
     <use xlink:href="#DejaVuSans-6d" x="316.548828"/>
     <use xlink:href="#DejaVuSans-20" x="413.960938"/>
     <use xlink:href="#DejaVuSans-57" x="445.748047"/>
     <use xlink:href="#DejaVuSans-61" x="538.25"/>
     <use xlink:href="#DejaVuSans-6c" x="599.529297"/>
     <use xlink:href="#DejaVuSans-6b" x="627.3125"/>
    </g>
   </g>
  </g>
  <g id="axes_3">
   <g id="patch_12">
    <path d="M 38.628365 505.399926 
L 716.99976 505.399926 
L 716.99976 374.041969 
L 38.628365 374.041969 
z
" style="fill: #ffffff"/>
   </g>
   <g id="matplotlib.axis_5">
    <g id="xtick_11">
     <g id="line2d_26">
      <g>
       <use xlink:href="#mc1adffc852" x="131.375399" y="505.399926" style="stroke: #000000; stroke-width: 0.8"/>
      </g>
     </g>
     <g id="text_22">
      <!-- −0.4 -->
      <g transform="translate(119.233993 519.998363) scale(0.1 -0.1)">
       <use xlink:href="#DejaVuSans-2212"/>
       <use xlink:href="#DejaVuSans-30" x="83.789062"/>
       <use xlink:href="#DejaVuSans-2e" x="147.412109"/>
       <use xlink:href="#DejaVuSans-34" x="179.199219"/>
      </g>
     </g>
    </g>
    <g id="xtick_12">
     <g id="line2d_27">
      <g>
       <use xlink:href="#mc1adffc852" x="255.19934" y="505.399926" style="stroke: #000000; stroke-width: 0.8"/>
      </g>
     </g>
     <g id="text_23">
      <!-- −0.2 -->
      <g transform="translate(243.057934 519.998363) scale(0.1 -0.1)">
       <use xlink:href="#DejaVuSans-2212"/>
       <use xlink:href="#DejaVuSans-30" x="83.789062"/>
       <use xlink:href="#DejaVuSans-2e" x="147.412109"/>
       <use xlink:href="#DejaVuSans-32" x="179.199219"/>
      </g>
     </g>
    </g>
    <g id="xtick_13">
     <g id="line2d_28">
      <g>
       <use xlink:href="#mc1adffc852" x="379.023281" y="505.399926" style="stroke: #000000; stroke-width: 0.8"/>
      </g>
     </g>
     <g id="text_24">
      <!-- 0.0 -->
      <g transform="translate(371.071718 519.998363) scale(0.1 -0.1)">
       <use xlink:href="#DejaVuSans-30"/>
       <use xlink:href="#DejaVuSans-2e" x="63.623047"/>
       <use xlink:href="#DejaVuSans-30" x="95.410156"/>
      </g>
     </g>
    </g>
    <g id="xtick_14">
     <g id="line2d_29">
      <g>
       <use xlink:href="#mc1adffc852" x="502.847222" y="505.399926" style="stroke: #000000; stroke-width: 0.8"/>
      </g>
     </g>
     <g id="text_25">
      <!-- 0.2 -->
      <g transform="translate(494.895659 519.998363) scale(0.1 -0.1)">
       <use xlink:href="#DejaVuSans-30"/>
       <use xlink:href="#DejaVuSans-2e" x="63.623047"/>
       <use xlink:href="#DejaVuSans-32" x="95.410156"/>
      </g>
     </g>
    </g>
    <g id="xtick_15">
     <g id="line2d_30">
      <g>
       <use xlink:href="#mc1adffc852" x="626.671162" y="505.399926" style="stroke: #000000; stroke-width: 0.8"/>
      </g>
     </g>
     <g id="text_26">
      <!-- 0.4 -->
      <g transform="translate(618.7196 519.998363) scale(0.1 -0.1)">
       <use xlink:href="#DejaVuSans-30"/>
       <use xlink:href="#DejaVuSans-2e" x="63.623047"/>
       <use xlink:href="#DejaVuSans-34" x="95.410156"/>
      </g>
     </g>
    </g>
   </g>
   <g id="matplotlib.axis_6">
    <g id="ytick_10">
     <g id="line2d_31">
      <g>
       <use xlink:href="#md161263d41" x="38.628365" y="499.444585" style="stroke: #000000; stroke-width: 0.8"/>
      </g>
     </g>
     <g id="text_27">
      <!-- 0 -->
      <g transform="translate(25.265865 503.243804) scale(0.1 -0.1)">
       <use xlink:href="#DejaVuSans-30"/>
      </g>
     </g>
    </g>
    <g id="ytick_11">
     <g id="line2d_32">
      <g>
       <use xlink:href="#md161263d41" x="38.628365" y="471.249906" style="stroke: #000000; stroke-width: 0.8"/>
      </g>
     </g>
     <g id="text_28">
      <!-- 10 -->
      <g transform="translate(18.903365 475.049125) scale(0.1 -0.1)">
       <use xlink:href="#DejaVuSans-31"/>
       <use xlink:href="#DejaVuSans-30" x="63.623047"/>
      </g>
     </g>
    </g>
    <g id="ytick_12">
     <g id="line2d_33">
      <g>
       <use xlink:href="#md161263d41" x="38.628365" y="443.055228" style="stroke: #000000; stroke-width: 0.8"/>
      </g>
     </g>
     <g id="text_29">
      <!-- 20 -->
      <g transform="translate(18.903365 446.854446) scale(0.1 -0.1)">
       <use xlink:href="#DejaVuSans-32"/>
       <use xlink:href="#DejaVuSans-30" x="63.623047"/>
      </g>
     </g>
    </g>
    <g id="ytick_13">
     <g id="line2d_34">
      <g>
       <use xlink:href="#md161263d41" x="38.628365" y="414.860549" style="stroke: #000000; stroke-width: 0.8"/>
      </g>
     </g>
     <g id="text_30">
      <!-- 30 -->
      <g transform="translate(18.903365 418.659768) scale(0.1 -0.1)">
       <use xlink:href="#DejaVuSans-33"/>
       <use xlink:href="#DejaVuSans-30" x="63.623047"/>
      </g>
     </g>
    </g>
    <g id="ytick_14">
     <g id="line2d_35">
      <g>
       <use xlink:href="#md161263d41" x="38.628365" y="386.66587" style="stroke: #000000; stroke-width: 0.8"/>
      </g>
     </g>
     <g id="text_31">
      <!-- 40 -->
      <g transform="translate(18.903365 390.465089) scale(0.1 -0.1)">
       <use xlink:href="#DejaVuSans-34"/>
       <use xlink:href="#DejaVuSans-30" x="63.623047"/>
      </g>
     </g>
    </g>
   </g>
   <g id="line2d_36">
    <path d="M 379.023281 464.553678 
L 381.441717 388.160093 
L 383.860153 459.902071 
L 386.27859 485.634955 
L 388.697026 492.06845 
L 391.115462 494.953224 
L 393.533899 496.299214 
L 395.952335 497.113073 
L 398.370771 497.635241 
L 403.207644 498.33194 
L 408.044517 498.695839 
L 415.299826 498.946341 
L 453.994807 499.322497 
L 567.661316 499.420376 
L 686.164697 499.428019 
L 69.463428 499.427978 
L 296.796445 499.341062 
L 335.491426 499.086691 
L 350.002045 498.695839 
L 354.838917 498.33194 
L 359.67579 497.635241 
L 362.094226 497.113073 
L 364.512663 496.299214 
L 366.931099 494.953224 
L 369.349535 492.06845 
L 371.767972 485.634955 
L 374.186408 459.902071 
L 376.604844 388.160093 
L 376.604844 388.160093 
" clip-path="url(#pe0308c1c37)" style="fill: none; stroke: #1f77b4; stroke-width: 1.5; stroke-linecap: square"/>
   </g>
   <g id="line2d_37">
    <path d="M 379.023281 461.618451 
L 381.441717 380.012785 
L 383.860153 457.213468 
L 386.27859 485.637707 
L 388.697026 491.979138 
L 391.115462 494.868527 
L 393.533899 496.432048 
L 395.952335 497.181331 
L 398.370771 497.722076 
L 403.207644 498.328751 
L 410.462953 498.77976 
L 420.136699 499.058221 
L 434.647317 499.251146 
L 686.164697 499.428766 
L 69.463428 499.42911 
L 306.47019 499.318225 
L 333.07299 499.127234 
L 342.746735 498.926914 
L 350.002045 498.659695 
L 354.838917 498.328751 
L 359.67579 497.722076 
L 362.094226 497.181331 
L 364.512663 496.432048 
L 366.931099 494.868527 
L 369.349535 491.979138 
L 371.767972 485.637707 
L 374.186408 457.213468 
L 376.604844 380.012785 
L 376.604844 380.012785 
" clip-path="url(#pe0308c1c37)" style="fill: none; stroke: #ff7f0e; stroke-width: 1.5; stroke-linecap: square"/>
   </g>
   <g id="line2d_38">
    <path d="M 379.023281 461.269942 
L 381.441717 382.341737 
L 383.860153 458.099019 
L 386.27859 485.573364 
L 388.697026 492.198369 
L 391.115462 494.881937 
L 393.533899 496.327468 
L 395.952335 497.107926 
L 400.789208 498.066384 
L 405.62608 498.548478 
L 417.718262 499.019198 
L 434.647317 499.237607 
L 461.250116 499.344811 
L 657.14346 499.427015 
L 686.164697 499.427743 
L 69.463428 499.427467 
L 313.725499 499.282644 
L 335.491426 499.098023 
L 345.165172 498.884387 
L 354.838917 498.344805 
L 357.257354 498.066384 
L 362.094226 497.107926 
L 364.512663 496.327468 
L 366.931099 494.881937 
L 369.349535 492.198369 
L 371.767972 485.573364 
L 374.186408 458.099019 
L 376.604844 382.341737 
L 376.604844 382.341737 
" clip-path="url(#pe0308c1c37)" style="fill: none; stroke: #2ca02c; stroke-width: 1.5; stroke-linecap: square"/>
   </g>
   <g id="patch_13">
    <path d="M 38.628365 505.399926 
L 38.628365 374.041969 
" style="fill: none; stroke: #000000; stroke-width: 0.8; stroke-linejoin: miter; stroke-linecap: square"/>
   </g>
   <g id="patch_14">
    <path d="M 716.99976 505.399926 
L 716.99976 374.041969 
" style="fill: none; stroke: #000000; stroke-width: 0.8; stroke-linejoin: miter; stroke-linecap: square"/>
   </g>
   <g id="patch_15">
    <path d="M 38.628365 505.399926 
L 716.99976 505.399926 
" style="fill: none; stroke: #000000; stroke-width: 0.8; stroke-linejoin: miter; stroke-linecap: square"/>
   </g>
   <g id="patch_16">
    <path d="M 38.628365 374.041969 
L 716.99976 374.041969 
" style="fill: none; stroke: #000000; stroke-width: 0.8; stroke-linejoin: miter; stroke-linecap: square"/>
   </g>
   <g id="text_32">
    <!-- Gauss Markov - tau=2000 -->
    <g transform="translate(299.62 368.041969) scale(0.12 -0.12)">
     <defs>
      <path id="DejaVuSans-47" d="M 3809 666 
L 3809 1919 
L 2778 1919 
L 2778 2438 
L 4434 2438 
L 4434 434 
Q 4069 175 3628 42 
Q 3188 -91 2688 -91 
Q 1594 -91 976 548 
Q 359 1188 359 2328 
Q 359 3472 976 4111 
Q 1594 4750 2688 4750 
Q 3144 4750 3555 4637 
Q 3966 4525 4313 4306 
L 4313 3634 
Q 3963 3931 3569 4081 
Q 3175 4231 2741 4231 
Q 1884 4231 1454 3753 
Q 1025 3275 1025 2328 
Q 1025 1384 1454 906 
Q 1884 428 2741 428 
Q 3075 428 3337 486 
Q 3600 544 3809 666 
z
" transform="scale(0.015625)"/>
      <path id="DejaVuSans-75" d="M 544 1381 
L 544 3500 
L 1119 3500 
L 1119 1403 
Q 1119 906 1312 657 
Q 1506 409 1894 409 
Q 2359 409 2629 706 
Q 2900 1003 2900 1516 
L 2900 3500 
L 3475 3500 
L 3475 0 
L 2900 0 
L 2900 538 
Q 2691 219 2414 64 
Q 2138 -91 1772 -91 
Q 1169 -91 856 284 
Q 544 659 544 1381 
z
M 1991 3584 
L 1991 3584 
z
" transform="scale(0.015625)"/>
      <path id="DejaVuSans-4d" d="M 628 4666 
L 1569 4666 
L 2759 1491 
L 3956 4666 
L 4897 4666 
L 4897 0 
L 4281 0 
L 4281 4097 
L 3078 897 
L 2444 897 
L 1241 4097 
L 1241 0 
L 628 0 
L 628 4666 
z
" transform="scale(0.015625)"/>
      <path id="DejaVuSans-72" d="M 2631 2963 
Q 2534 3019 2420 3045 
Q 2306 3072 2169 3072 
Q 1681 3072 1420 2755 
Q 1159 2438 1159 1844 
L 1159 0 
L 581 0 
L 581 3500 
L 1159 3500 
L 1159 2956 
Q 1341 3275 1631 3429 
Q 1922 3584 2338 3584 
Q 2397 3584 2469 3576 
Q 2541 3569 2628 3553 
L 2631 2963 
z
" transform="scale(0.015625)"/>
      <path id="DejaVuSans-76" d="M 191 3500 
L 800 3500 
L 1894 563 
L 2988 3500 
L 3597 3500 
L 2284 0 
L 1503 0 
L 191 3500 
z
" transform="scale(0.015625)"/>
      <path id="DejaVuSans-2d" d="M 313 2009 
L 1997 2009 
L 1997 1497 
L 313 1497 
L 313 2009 
z
" transform="scale(0.015625)"/>
      <path id="DejaVuSans-3d" d="M 678 2906 
L 4684 2906 
L 4684 2381 
L 678 2381 
L 678 2906 
z
M 678 1631 
L 4684 1631 
L 4684 1100 
L 678 1100 
L 678 1631 
z
" transform="scale(0.015625)"/>
     </defs>
     <use xlink:href="#DejaVuSans-47"/>
     <use xlink:href="#DejaVuSans-61" x="77.490234"/>
     <use xlink:href="#DejaVuSans-75" x="138.769531"/>
     <use xlink:href="#DejaVuSans-73" x="202.148438"/>
     <use xlink:href="#DejaVuSans-73" x="254.248047"/>
     <use xlink:href="#DejaVuSans-20" x="306.347656"/>
     <use xlink:href="#DejaVuSans-4d" x="338.134766"/>
     <use xlink:href="#DejaVuSans-61" x="424.414062"/>
     <use xlink:href="#DejaVuSans-72" x="485.693359"/>
     <use xlink:href="#DejaVuSans-6b" x="526.806641"/>
     <use xlink:href="#DejaVuSans-6f" x="581.091797"/>
     <use xlink:href="#DejaVuSans-76" x="642.273438"/>
     <use xlink:href="#DejaVuSans-20" x="701.453125"/>
     <use xlink:href="#DejaVuSans-2d" x="733.240234"/>
     <use xlink:href="#DejaVuSans-20" x="769.324219"/>
     <use xlink:href="#DejaVuSans-74" x="801.111328"/>
     <use xlink:href="#DejaVuSans-61" x="840.320312"/>
     <use xlink:href="#DejaVuSans-75" x="901.599609"/>
     <use xlink:href="#DejaVuSans-3d" x="964.978516"/>
     <use xlink:href="#DejaVuSans-32" x="1048.767578"/>
     <use xlink:href="#DejaVuSans-30" x="1112.390625"/>
     <use xlink:href="#DejaVuSans-30" x="1176.013672"/>
     <use xlink:href="#DejaVuSans-30" x="1239.636719"/>
    </g>
   </g>
  </g>
  <g id="axes_4">
   <g id="patch_17">
    <path d="M 38.628365 674.554613 
L 716.99976 674.554613 
L 716.99976 543.196656 
L 38.628365 543.196656 
z
" style="fill: #ffffff"/>
   </g>
   <g id="matplotlib.axis_7">
    <g id="xtick_16">
     <g id="line2d_39">
      <g>
       <use xlink:href="#mc1adffc852" x="131.375399" y="674.554613" style="stroke: #000000; stroke-width: 0.8"/>
      </g>
     </g>
     <g id="text_33">
      <!-- −0.4 -->
      <g transform="translate(119.233993 689.15305) scale(0.1 -0.1)">
       <use xlink:href="#DejaVuSans-2212"/>
       <use xlink:href="#DejaVuSans-30" x="83.789062"/>
       <use xlink:href="#DejaVuSans-2e" x="147.412109"/>
       <use xlink:href="#DejaVuSans-34" x="179.199219"/>
      </g>
     </g>
    </g>
    <g id="xtick_17">
     <g id="line2d_40">
      <g>
       <use xlink:href="#mc1adffc852" x="255.19934" y="674.554613" style="stroke: #000000; stroke-width: 0.8"/>
      </g>
     </g>
     <g id="text_34">
      <!-- −0.2 -->
      <g transform="translate(243.057934 689.15305) scale(0.1 -0.1)">
       <use xlink:href="#DejaVuSans-2212"/>
       <use xlink:href="#DejaVuSans-30" x="83.789062"/>
       <use xlink:href="#DejaVuSans-2e" x="147.412109"/>
       <use xlink:href="#DejaVuSans-32" x="179.199219"/>
      </g>
     </g>
    </g>
    <g id="xtick_18">
     <g id="line2d_41">
      <g>
       <use xlink:href="#mc1adffc852" x="379.023281" y="674.554613" style="stroke: #000000; stroke-width: 0.8"/>
      </g>
     </g>
     <g id="text_35">
      <!-- 0.0 -->
      <g transform="translate(371.071718 689.15305) scale(0.1 -0.1)">
       <use xlink:href="#DejaVuSans-30"/>
       <use xlink:href="#DejaVuSans-2e" x="63.623047"/>
       <use xlink:href="#DejaVuSans-30" x="95.410156"/>
      </g>
     </g>
    </g>
    <g id="xtick_19">
     <g id="line2d_42">
      <g>
       <use xlink:href="#mc1adffc852" x="502.847222" y="674.554613" style="stroke: #000000; stroke-width: 0.8"/>
      </g>
     </g>
     <g id="text_36">
      <!-- 0.2 -->
      <g transform="translate(494.895659 689.15305) scale(0.1 -0.1)">
       <use xlink:href="#DejaVuSans-30"/>
       <use xlink:href="#DejaVuSans-2e" x="63.623047"/>
       <use xlink:href="#DejaVuSans-32" x="95.410156"/>
      </g>
     </g>
    </g>
    <g id="xtick_20">
     <g id="line2d_43">
      <g>
       <use xlink:href="#mc1adffc852" x="626.671162" y="674.554613" style="stroke: #000000; stroke-width: 0.8"/>
      </g>
     </g>
     <g id="text_37">
      <!-- 0.4 -->
      <g transform="translate(618.7196 689.15305) scale(0.1 -0.1)">
       <use xlink:href="#DejaVuSans-30"/>
       <use xlink:href="#DejaVuSans-2e" x="63.623047"/>
       <use xlink:href="#DejaVuSans-34" x="95.410156"/>
      </g>
     </g>
    </g>
   </g>
   <g id="matplotlib.axis_8">
    <g id="ytick_15">
     <g id="line2d_44">
      <g>
       <use xlink:href="#md161263d41" x="38.628365" y="668.600324" style="stroke: #000000; stroke-width: 0.8"/>
      </g>
     </g>
     <g id="text_38">
      <!-- 0 -->
      <g transform="translate(25.265865 672.399543) scale(0.1 -0.1)">
       <use xlink:href="#DejaVuSans-30"/>
      </g>
     </g>
    </g>
    <g id="ytick_16">
     <g id="line2d_45">
      <g>
       <use xlink:href="#md161263d41" x="38.628365" y="638.534561" style="stroke: #000000; stroke-width: 0.8"/>
      </g>
     </g>
     <g id="text_39">
      <!-- 10 -->
      <g transform="translate(18.903365 642.33378) scale(0.1 -0.1)">
       <use xlink:href="#DejaVuSans-31"/>
       <use xlink:href="#DejaVuSans-30" x="63.623047"/>
      </g>
     </g>
    </g>
    <g id="ytick_17">
     <g id="line2d_46">
      <g>
       <use xlink:href="#md161263d41" x="38.628365" y="608.468799" style="stroke: #000000; stroke-width: 0.8"/>
      </g>
     </g>
     <g id="text_40">
      <!-- 20 -->
      <g transform="translate(18.903365 612.268018) scale(0.1 -0.1)">
       <use xlink:href="#DejaVuSans-32"/>
       <use xlink:href="#DejaVuSans-30" x="63.623047"/>
      </g>
     </g>
    </g>
    <g id="ytick_18">
     <g id="line2d_47">
      <g>
       <use xlink:href="#md161263d41" x="38.628365" y="578.403036" style="stroke: #000000; stroke-width: 0.8"/>
      </g>
     </g>
     <g id="text_41">
      <!-- 30 -->
      <g transform="translate(18.903365 582.202255) scale(0.1 -0.1)">
       <use xlink:href="#DejaVuSans-33"/>
       <use xlink:href="#DejaVuSans-30" x="63.623047"/>
      </g>
     </g>
    </g>
    <g id="ytick_19">
     <g id="line2d_48">
      <g>
       <use xlink:href="#md161263d41" x="38.628365" y="548.337274" style="stroke: #000000; stroke-width: 0.8"/>
      </g>
     </g>
     <g id="text_42">
      <!-- 40 -->
      <g transform="translate(18.903365 552.136493) scale(0.1 -0.1)">
       <use xlink:href="#DejaVuSans-34"/>
       <use xlink:href="#DejaVuSans-30" x="63.623047"/>
      </g>
     </g>
    </g>
   </g>
   <g id="line2d_49">
    <path d="M 379.023281 631.840981 
L 381.441717 557.213656 
L 383.860153 626.967293 
L 386.27859 653.880915 
L 388.697026 660.731088 
L 391.115462 663.80499 
L 393.533899 665.242898 
L 395.952335 666.11061 
L 398.370771 666.668158 
L 403.207644 667.412111 
L 408.044517 667.800795 
L 415.299826 668.068226 
L 453.994807 668.469939 
L 562.824443 668.573162 
L 686.164697 668.582632 
L 69.463428 668.582589 
L 301.633318 668.474633 
L 328.236117 668.329728 
L 337.909863 668.164521 
L 350.002045 667.800795 
L 354.838917 667.412111 
L 359.67579 666.668158 
L 362.094226 666.11061 
L 364.512663 665.242898 
L 366.931099 663.80499 
L 369.349535 660.731088 
L 371.767972 653.880915 
L 374.186408 626.967293 
L 376.604844 557.213656 
L 376.604844 557.213656 
" clip-path="url(#p7557311f4c)" style="fill: none; stroke: #1f77b4; stroke-width: 1.5; stroke-linecap: square"/>
   </g>
   <g id="line2d_50">
    <path d="M 379.023281 628.750781 
L 381.441717 549.167472 
L 383.860153 624.125391 
L 386.27859 653.895781 
L 388.697026 660.631377 
L 391.115462 663.716175 
L 393.533899 665.383704 
L 395.952335 666.183957 
L 398.370771 666.760905 
L 403.207644 667.408659 
L 410.462953 667.890362 
L 420.136699 668.187707 
L 434.647317 668.393741 
L 686.164697 668.58343 
L 69.463428 668.583797 
L 301.633318 668.477639 
L 330.654554 668.299959 
L 345.165172 667.990526 
L 352.420481 667.601538 
L 357.257354 667.135299 
L 359.67579 666.760905 
L 362.094226 666.183957 
L 364.512663 665.383704 
L 366.931099 663.716175 
L 369.349535 660.631377 
L 371.767972 653.895781 
L 374.186408 624.125391 
L 376.604844 549.167472 
L 376.604844 549.167472 
" clip-path="url(#p7557311f4c)" style="fill: none; stroke: #ff7f0e; stroke-width: 1.5; stroke-linecap: square"/>
   </g>
   <g id="line2d_51">
    <path d="M 379.023281 628.41827 
L 381.441717 551.219152 
L 383.860153 624.818352 
L 386.27859 653.845342 
L 388.697026 660.874235 
L 391.115462 663.728759 
L 393.533899 665.271438 
L 395.952335 666.105556 
L 400.789208 667.12889 
L 405.62608 667.643399 
L 417.718262 668.146045 
L 434.647317 668.379285 
L 458.83168 668.48321 
L 497.526662 668.546936 
L 642.632842 668.582794 
L 686.164697 668.582337 
L 69.463428 668.582042 
L 304.051754 668.476885 
L 335.491426 668.23022 
L 345.165172 668.002055 
L 354.838917 667.425746 
L 357.257354 667.12889 
L 362.094226 666.105556 
L 364.512663 665.271438 
L 366.931099 663.728759 
L 369.349535 660.874235 
L 371.767972 653.845342 
L 374.186408 624.818352 
L 376.604844 551.219152 
L 376.604844 551.219152 
" clip-path="url(#p7557311f4c)" style="fill: none; stroke: #2ca02c; stroke-width: 1.5; stroke-linecap: square"/>
   </g>
   <g id="patch_18">
    <path d="M 38.628365 674.554613 
L 38.628365 543.196656 
" style="fill: none; stroke: #000000; stroke-width: 0.8; stroke-linejoin: miter; stroke-linecap: square"/>
   </g>
   <g id="patch_19">
    <path d="M 716.99976 674.554613 
L 716.99976 543.196656 
" style="fill: none; stroke: #000000; stroke-width: 0.8; stroke-linejoin: miter; stroke-linecap: square"/>
   </g>
   <g id="patch_20">
    <path d="M 38.628365 674.554613 
L 716.99976 674.554613 
" style="fill: none; stroke: #000000; stroke-width: 0.8; stroke-linejoin: miter; stroke-linecap: square"/>
   </g>
   <g id="patch_21">
    <path d="M 38.628365 543.196656 
L 716.99976 543.196656 
" style="fill: none; stroke: #000000; stroke-width: 0.8; stroke-linejoin: miter; stroke-linecap: square"/>
   </g>
   <g id="text_43">
    <!-- Gauss Markov - tau=500 -->
    <g transform="translate(303.4375 537.196656) scale(0.12 -0.12)">
     <use xlink:href="#DejaVuSans-47"/>
     <use xlink:href="#DejaVuSans-61" x="77.490234"/>
     <use xlink:href="#DejaVuSans-75" x="138.769531"/>
     <use xlink:href="#DejaVuSans-73" x="202.148438"/>
     <use xlink:href="#DejaVuSans-73" x="254.248047"/>
     <use xlink:href="#DejaVuSans-20" x="306.347656"/>
     <use xlink:href="#DejaVuSans-4d" x="338.134766"/>
     <use xlink:href="#DejaVuSans-61" x="424.414062"/>
     <use xlink:href="#DejaVuSans-72" x="485.693359"/>
     <use xlink:href="#DejaVuSans-6b" x="526.806641"/>
     <use xlink:href="#DejaVuSans-6f" x="581.091797"/>
     <use xlink:href="#DejaVuSans-76" x="642.273438"/>
     <use xlink:href="#DejaVuSans-20" x="701.453125"/>
     <use xlink:href="#DejaVuSans-2d" x="733.240234"/>
     <use xlink:href="#DejaVuSans-20" x="769.324219"/>
     <use xlink:href="#DejaVuSans-74" x="801.111328"/>
     <use xlink:href="#DejaVuSans-61" x="840.320312"/>
     <use xlink:href="#DejaVuSans-75" x="901.599609"/>
     <use xlink:href="#DejaVuSans-3d" x="964.978516"/>
     <use xlink:href="#DejaVuSans-35" x="1048.767578"/>
     <use xlink:href="#DejaVuSans-30" x="1112.390625"/>
     <use xlink:href="#DejaVuSans-30" x="1176.013672"/>
    </g>
   </g>
   <g id="legend_1">
    <g id="patch_22">
     <path d="M 267.166406 716.936431 
L 488.461719 716.936431 
Q 490.461719 716.936431 490.461719 714.936431 
L 490.461719 701.258306 
Q 490.461719 699.258306 488.461719 699.258306 
L 267.166406 699.258306 
Q 265.166406 699.258306 265.166406 701.258306 
L 265.166406 714.936431 
Q 265.166406 716.936431 267.166406 716.936431 
z
" style="fill: #ffffff; opacity: 0.8; stroke: #cccccc; stroke-linejoin: miter"/>
    </g>
    <g id="line2d_52">
     <path d="M 269.166406 707.356744 
L 279.166406 707.356744 
L 289.166406 707.356744 
" style="fill: none; stroke: #1f77b4; stroke-width: 1.5; stroke-linecap: square"/>
    </g>
    <g id="text_44">
     <!-- Real 1 -->
     <g transform="translate(297.166406 710.856744) scale(0.1 -0.1)">
      <use xlink:href="#DejaVuSans-52"/>
      <use xlink:href="#DejaVuSans-65" x="64.982422"/>
      <use xlink:href="#DejaVuSans-61" x="126.505859"/>
      <use xlink:href="#DejaVuSans-6c" x="187.785156"/>
      <use xlink:href="#DejaVuSans-20" x="215.568359"/>
      <use xlink:href="#DejaVuSans-31" x="247.355469"/>
     </g>
    </g>
    <g id="line2d_53">
     <path d="M 348.264844 707.356744 
L 358.264844 707.356744 
L 368.264844 707.356744 
" style="fill: none; stroke: #ff7f0e; stroke-width: 1.5; stroke-linecap: square"/>
    </g>
    <g id="text_45">
     <!-- Real 2 -->
     <g transform="translate(376.264844 710.856744) scale(0.1 -0.1)">
      <use xlink:href="#DejaVuSans-52"/>
      <use xlink:href="#DejaVuSans-65" x="64.982422"/>
      <use xlink:href="#DejaVuSans-61" x="126.505859"/>
      <use xlink:href="#DejaVuSans-6c" x="187.785156"/>
      <use xlink:href="#DejaVuSans-20" x="215.568359"/>
      <use xlink:href="#DejaVuSans-32" x="247.355469"/>
     </g>
    </g>
    <g id="line2d_54">
     <path d="M 427.363281 707.356744 
L 437.363281 707.356744 
L 447.363281 707.356744 
" style="fill: none; stroke: #2ca02c; stroke-width: 1.5; stroke-linecap: square"/>
    </g>
    <g id="text_46">
     <!-- Real 3 -->
     <g transform="translate(455.363281 710.856744) scale(0.1 -0.1)">
      <use xlink:href="#DejaVuSans-52"/>
      <use xlink:href="#DejaVuSans-65" x="64.982422"/>
      <use xlink:href="#DejaVuSans-61" x="126.505859"/>
      <use xlink:href="#DejaVuSans-6c" x="187.785156"/>
      <use xlink:href="#DejaVuSans-20" x="215.568359"/>
      <use xlink:href="#DejaVuSans-33" x="247.355469"/>
     </g>
    </g>
   </g>
  </g>
  <g id="text_47">
   <!-- Power Spectral Density -->
   <g transform="translate(290.4675 12.118365) scale(0.12 -0.12)">
    <defs>
     <path id="DejaVuSans-50" d="M 1259 4147 
L 1259 2394 
L 2053 2394 
Q 2494 2394 2734 2622 
Q 2975 2850 2975 3272 
Q 2975 3691 2734 3919 
Q 2494 4147 2053 4147 
L 1259 4147 
z
M 628 4666 
L 2053 4666 
Q 2838 4666 3239 4311 
Q 3641 3956 3641 3272 
Q 3641 2581 3239 2228 
Q 2838 1875 2053 1875 
L 1259 1875 
L 1259 0 
L 628 0 
L 628 4666 
z
" transform="scale(0.015625)"/>
     <path id="DejaVuSans-77" d="M 269 3500 
L 844 3500 
L 1563 769 
L 2278 3500 
L 2956 3500 
L 3675 769 
L 4391 3500 
L 4966 3500 
L 4050 0 
L 3372 0 
L 2619 2869 
L 1863 0 
L 1184 0 
L 269 3500 
z
" transform="scale(0.015625)"/>
     <path id="DejaVuSans-53" d="M 3425 4513 
L 3425 3897 
Q 3066 4069 2747 4153 
Q 2428 4238 2131 4238 
Q 1616 4238 1336 4038 
Q 1056 3838 1056 3469 
Q 1056 3159 1242 3001 
Q 1428 2844 1947 2747 
L 2328 2669 
Q 3034 2534 3370 2195 
Q 3706 1856 3706 1288 
Q 3706 609 3251 259 
Q 2797 -91 1919 -91 
Q 1588 -91 1214 -16 
Q 841 59 441 206 
L 441 856 
Q 825 641 1194 531 
Q 1563 422 1919 422 
Q 2459 422 2753 634 
Q 3047 847 3047 1241 
Q 3047 1584 2836 1778 
Q 2625 1972 2144 2069 
L 1759 2144 
Q 1053 2284 737 2584 
Q 422 2884 422 3419 
Q 422 4038 858 4394 
Q 1294 4750 2059 4750 
Q 2388 4750 2728 4690 
Q 3069 4631 3425 4513 
z
" transform="scale(0.015625)"/>
     <path id="DejaVuSans-70" d="M 1159 525 
L 1159 -1331 
L 581 -1331 
L 581 3500 
L 1159 3500 
L 1159 2969 
Q 1341 3281 1617 3432 
Q 1894 3584 2278 3584 
Q 2916 3584 3314 3078 
Q 3713 2572 3713 1747 
Q 3713 922 3314 415 
Q 2916 -91 2278 -91 
Q 1894 -91 1617 61 
Q 1341 213 1159 525 
z
M 3116 1747 
Q 3116 2381 2855 2742 
Q 2594 3103 2138 3103 
Q 1681 3103 1420 2742 
Q 1159 2381 1159 1747 
Q 1159 1113 1420 752 
Q 1681 391 2138 391 
Q 2594 391 2855 752 
Q 3116 1113 3116 1747 
z
" transform="scale(0.015625)"/>
     <path id="DejaVuSans-63" d="M 3122 3366 
L 3122 2828 
Q 2878 2963 2633 3030 
Q 2388 3097 2138 3097 
Q 1578 3097 1268 2742 
Q 959 2388 959 1747 
Q 959 1106 1268 751 
Q 1578 397 2138 397 
Q 2388 397 2633 464 
Q 2878 531 3122 666 
L 3122 134 
Q 2881 22 2623 -34 
Q 2366 -91 2075 -91 
Q 1284 -91 818 406 
Q 353 903 353 1747 
Q 353 2603 823 3093 
Q 1294 3584 2113 3584 
Q 2378 3584 2631 3529 
Q 2884 3475 3122 3366 
z
" transform="scale(0.015625)"/>
     <path id="DejaVuSans-44" d="M 1259 4147 
L 1259 519 
L 2022 519 
Q 2988 519 3436 956 
Q 3884 1394 3884 2338 
Q 3884 3275 3436 3711 
Q 2988 4147 2022 4147 
L 1259 4147 
z
M 628 4666 
L 1925 4666 
Q 3281 4666 3915 4102 
Q 4550 3538 4550 2338 
Q 4550 1131 3912 565 
Q 3275 0 1925 0 
L 628 0 
L 628 4666 
z
" transform="scale(0.015625)"/>
     <path id="DejaVuSans-79" d="M 2059 -325 
Q 1816 -950 1584 -1140 
Q 1353 -1331 966 -1331 
L 506 -1331 
L 506 -850 
L 844 -850 
Q 1081 -850 1212 -737 
Q 1344 -625 1503 -206 
L 1606 56 
L 191 3500 
L 800 3500 
L 1894 763 
L 2988 3500 
L 3597 3500 
L 2059 -325 
z
" transform="scale(0.015625)"/>
    </defs>
    <use xlink:href="#DejaVuSans-50"/>
    <use xlink:href="#DejaVuSans-6f" x="56.677734"/>
    <use xlink:href="#DejaVuSans-77" x="117.859375"/>
    <use xlink:href="#DejaVuSans-65" x="199.646484"/>
    <use xlink:href="#DejaVuSans-72" x="261.169922"/>
    <use xlink:href="#DejaVuSans-20" x="302.283203"/>
    <use xlink:href="#DejaVuSans-53" x="334.070312"/>
    <use xlink:href="#DejaVuSans-70" x="397.546875"/>
    <use xlink:href="#DejaVuSans-65" x="461.023438"/>
    <use xlink:href="#DejaVuSans-63" x="522.546875"/>
    <use xlink:href="#DejaVuSans-74" x="577.527344"/>
    <use xlink:href="#DejaVuSans-72" x="616.736328"/>
    <use xlink:href="#DejaVuSans-61" x="657.849609"/>
    <use xlink:href="#DejaVuSans-6c" x="719.128906"/>
    <use xlink:href="#DejaVuSans-20" x="746.912109"/>
    <use xlink:href="#DejaVuSans-44" x="778.699219"/>
    <use xlink:href="#DejaVuSans-65" x="855.701172"/>
    <use xlink:href="#DejaVuSans-6e" x="917.224609"/>
    <use xlink:href="#DejaVuSans-73" x="980.603516"/>
    <use xlink:href="#DejaVuSans-69" x="1032.703125"/>
    <use xlink:href="#DejaVuSans-74" x="1060.486328"/>
    <use xlink:href="#DejaVuSans-79" x="1099.695312"/>
   </g>
  </g>
 </g>
 <defs>
  <clipPath id="pbcb84ba34d">
   <rect x="38.628365" y="35.732595" width="678.371395" height="131.357957"/>
  </clipPath>
  <clipPath id="pc5675bb461">
   <rect x="38.628365" y="204.887282" width="678.371395" height="131.357957"/>
  </clipPath>
  <clipPath id="pe0308c1c37">
   <rect x="38.628365" y="374.041969" width="678.371395" height="131.357957"/>
  </clipPath>
  <clipPath id="p7557311f4c">
   <rect x="38.628365" y="543.196656" width="678.371395" height="131.357957"/>
  </clipPath>
 </defs>
</svg>
