<?xml version="1.0" encoding="utf-8" standalone="no"?>
<!DOCTYPE svg PUBLIC "-//W3C//DTD SVG 1.1//EN"
  "http://www.w3.org/Graphics/SVG/1.1/DTD/svg11.dtd">
<svg xmlns:xlink="http://www.w3.org/1999/xlink" width="720pt" height="576pt" viewBox="0 0 720 576" xmlns="http://www.w3.org/2000/svg" version="1.1">
 <metadata>
  <rdf:RDF xmlns:dc="http://purl.org/dc/elements/1.1/" xmlns:cc="http://creativecommons.org/ns#" xmlns:rdf="http://www.w3.org/1999/02/22-rdf-syntax-ns#">
   <cc:Work>
    <dc:type rdf:resource="http://purl.org/dc/dcmitype/StillImage"/>
    <dc:date>2024-05-24T16:12:52.918148</dc:date>
    <dc:format>image/svg+xml</dc:format>
    <dc:creator>
     <cc:Agent>
      <dc:title>Matplotlib v3.8.3, https://matplotlib.org/</dc:title>
     </cc:Agent>
    </dc:creator>
   </cc:Work>
  </rdf:RDF>
 </metadata>
 <defs>
  <style type="text/css">*{stroke-linejoin: round; stroke-linecap: butt}</style>
 </defs>
 <g id="figure_1">
  <g id="patch_1">
   <path d="M 0 576 
L 720 576 
L 720 0 
L 0 0 
z
" style="fill: #ffffff"/>
  </g>
  <g id="axes_1">
   <g id="patch_2">
    <path d="M 90 199.567059 
L 343.636364 199.567059 
L 343.636364 69.12 
L 90 69.12 
z
" style="fill: #ffffff"/>
   </g>
   <g id="matplotlib.axis_1">
    <g id="xtick_1">
     <g id="line2d_1">
      <defs>
       <path id="m07cdf022f3" d="M 0 0 
L 0 3.5 
" style="stroke: #000000; stroke-width: 0.8"/>
      </defs>
      <g>
       <use xlink:href="#m07cdf022f3" x="101.528926" y="199.567059" style="stroke: #000000; stroke-width: 0.8"/>
      </g>
     </g>
    </g>
    <g id="xtick_2">
     <g id="line2d_2">
      <g>
       <use xlink:href="#m07cdf022f3" x="159.173554" y="199.567059" style="stroke: #000000; stroke-width: 0.8"/>
      </g>
     </g>
    </g>
    <g id="xtick_3">
     <g id="line2d_3">
      <g>
       <use xlink:href="#m07cdf022f3" x="216.818182" y="199.567059" style="stroke: #000000; stroke-width: 0.8"/>
      </g>
     </g>
    </g>
    <g id="xtick_4">
     <g id="line2d_4">
      <g>
       <use xlink:href="#m07cdf022f3" x="274.46281" y="199.567059" style="stroke: #000000; stroke-width: 0.8"/>
      </g>
     </g>
    </g>
    <g id="xtick_5">
     <g id="line2d_5">
      <g>
       <use xlink:href="#m07cdf022f3" x="332.107438" y="199.567059" style="stroke: #000000; stroke-width: 0.8"/>
      </g>
     </g>
    </g>
   </g>
   <g id="matplotlib.axis_2">
    <g id="ytick_1">
     <g id="line2d_6">
      <defs>
       <path id="m0c380a1a91" d="M 0 0 
L -3.5 0 
" style="stroke: #000000; stroke-width: 0.8"/>
      </defs>
      <g>
       <use xlink:href="#m0c380a1a91" x="90" y="185.776546" style="stroke: #000000; stroke-width: 0.8"/>
      </g>
     </g>
     <g id="text_1">
      <!-- 2 -->
      <g transform="translate(76.6375 189.575765) scale(0.1 -0.1)">
       <defs>
        <path id="DejaVuSans-32" d="M 1228 531 
L 3431 531 
L 3431 0 
L 469 0 
L 469 531 
Q 828 903 1448 1529 
Q 2069 2156 2228 2338 
Q 2531 2678 2651 2914 
Q 2772 3150 2772 3378 
Q 2772 3750 2511 3984 
Q 2250 4219 1831 4219 
Q 1534 4219 1204 4116 
Q 875 4013 500 3803 
L 500 4441 
Q 881 4594 1212 4672 
Q 1544 4750 1819 4750 
Q 2544 4750 2975 4387 
Q 3406 4025 3406 3419 
Q 3406 3131 3298 2873 
Q 3191 2616 2906 2266 
Q 2828 2175 2409 1742 
Q 1991 1309 1228 531 
z
" transform="scale(0.015625)"/>
       </defs>
       <use xlink:href="#DejaVuSans-32"/>
      </g>
     </g>
    </g>
    <g id="ytick_2">
     <g id="line2d_7">
      <g>
       <use xlink:href="#m0c380a1a91" x="90" y="149.145448" style="stroke: #000000; stroke-width: 0.8"/>
      </g>
     </g>
     <g id="text_2">
      <!-- 4 -->
      <g transform="translate(76.6375 152.944667) scale(0.1 -0.1)">
       <defs>
        <path id="DejaVuSans-34" d="M 2419 4116 
L 825 1625 
L 2419 1625 
L 2419 4116 
z
M 2253 4666 
L 3047 4666 
L 3047 1625 
L 3713 1625 
L 3713 1100 
L 3047 1100 
L 3047 0 
L 2419 0 
L 2419 1100 
L 313 1100 
L 313 1709 
L 2253 4666 
z
" transform="scale(0.015625)"/>
       </defs>
       <use xlink:href="#DejaVuSans-34"/>
      </g>
     </g>
    </g>
    <g id="ytick_3">
     <g id="line2d_8">
      <g>
       <use xlink:href="#m0c380a1a91" x="90" y="112.51435" style="stroke: #000000; stroke-width: 0.8"/>
      </g>
     </g>
     <g id="text_3">
      <!-- 6 -->
      <g transform="translate(76.6375 116.313568) scale(0.1 -0.1)">
       <defs>
        <path id="DejaVuSans-36" d="M 2113 2584 
Q 1688 2584 1439 2293 
Q 1191 2003 1191 1497 
Q 1191 994 1439 701 
Q 1688 409 2113 409 
Q 2538 409 2786 701 
Q 3034 994 3034 1497 
Q 3034 2003 2786 2293 
Q 2538 2584 2113 2584 
z
M 3366 4563 
L 3366 3988 
Q 3128 4100 2886 4159 
Q 2644 4219 2406 4219 
Q 1781 4219 1451 3797 
Q 1122 3375 1075 2522 
Q 1259 2794 1537 2939 
Q 1816 3084 2150 3084 
Q 2853 3084 3261 2657 
Q 3669 2231 3669 1497 
Q 3669 778 3244 343 
Q 2819 -91 2113 -91 
Q 1303 -91 875 529 
Q 447 1150 447 2328 
Q 447 3434 972 4092 
Q 1497 4750 2381 4750 
Q 2619 4750 2861 4703 
Q 3103 4656 3366 4563 
z
" transform="scale(0.015625)"/>
       </defs>
       <use xlink:href="#DejaVuSans-36"/>
      </g>
     </g>
    </g>
    <g id="ytick_4">
     <g id="line2d_9">
      <g>
       <use xlink:href="#m0c380a1a91" x="90" y="75.883251" style="stroke: #000000; stroke-width: 0.8"/>
      </g>
     </g>
     <g id="text_4">
      <!-- 8 -->
      <g transform="translate(76.6375 79.68247) scale(0.1 -0.1)">
       <defs>
        <path id="DejaVuSans-38" d="M 2034 2216 
Q 1584 2216 1326 1975 
Q 1069 1734 1069 1313 
Q 1069 891 1326 650 
Q 1584 409 2034 409 
Q 2484 409 2743 651 
Q 3003 894 3003 1313 
Q 3003 1734 2745 1975 
Q 2488 2216 2034 2216 
z
M 1403 2484 
Q 997 2584 770 2862 
Q 544 3141 544 3541 
Q 544 4100 942 4425 
Q 1341 4750 2034 4750 
Q 2731 4750 3128 4425 
Q 3525 4100 3525 3541 
Q 3525 3141 3298 2862 
Q 3072 2584 2669 2484 
Q 3125 2378 3379 2068 
Q 3634 1759 3634 1313 
Q 3634 634 3220 271 
Q 2806 -91 2034 -91 
Q 1263 -91 848 271 
Q 434 634 434 1313 
Q 434 1759 690 2068 
Q 947 2378 1403 2484 
z
M 1172 3481 
Q 1172 3119 1398 2916 
Q 1625 2713 2034 2713 
Q 2441 2713 2670 2916 
Q 2900 3119 2900 3481 
Q 2900 3844 2670 4047 
Q 2441 4250 2034 4250 
Q 1625 4250 1398 4047 
Q 1172 3844 1172 3481 
z
" transform="scale(0.015625)"/>
       </defs>
       <use xlink:href="#DejaVuSans-38"/>
      </g>
     </g>
    </g>
    <g id="text_5">
     <!-- Azimuth [rad] -->
     <g transform="translate(49.037187 175.606654) rotate(-90) scale(0.12 -0.12)">
      <defs>
       <path id="DejaVuSans-41" d="M 2188 4044 
L 1331 1722 
L 3047 1722 
L 2188 4044 
z
M 1831 4666 
L 2547 4666 
L 4325 0 
L 3669 0 
L 3244 1197 
L 1141 1197 
L 716 0 
L 50 0 
L 1831 4666 
z
" transform="scale(0.015625)"/>
       <path id="DejaVuSans-7a" d="M 353 3500 
L 3084 3500 
L 3084 2975 
L 922 459 
L 3084 459 
L 3084 0 
L 275 0 
L 275 525 
L 2438 3041 
L 353 3041 
L 353 3500 
z
" transform="scale(0.015625)"/>
       <path id="DejaVuSans-69" d="M 603 3500 
L 1178 3500 
L 1178 0 
L 603 0 
L 603 3500 
z
M 603 4863 
L 1178 4863 
L 1178 4134 
L 603 4134 
L 603 4863 
z
" transform="scale(0.015625)"/>
       <path id="DejaVuSans-6d" d="M 3328 2828 
Q 3544 3216 3844 3400 
Q 4144 3584 4550 3584 
Q 5097 3584 5394 3201 
Q 5691 2819 5691 2113 
L 5691 0 
L 5113 0 
L 5113 2094 
Q 5113 2597 4934 2840 
Q 4756 3084 4391 3084 
Q 3944 3084 3684 2787 
Q 3425 2491 3425 1978 
L 3425 0 
L 2847 0 
L 2847 2094 
Q 2847 2600 2669 2842 
Q 2491 3084 2119 3084 
Q 1678 3084 1418 2786 
Q 1159 2488 1159 1978 
L 1159 0 
L 581 0 
L 581 3500 
L 1159 3500 
L 1159 2956 
Q 1356 3278 1631 3431 
Q 1906 3584 2284 3584 
Q 2666 3584 2933 3390 
Q 3200 3197 3328 2828 
z
" transform="scale(0.015625)"/>
       <path id="DejaVuSans-75" d="M 544 1381 
L 544 3500 
L 1119 3500 
L 1119 1403 
Q 1119 906 1312 657 
Q 1506 409 1894 409 
Q 2359 409 2629 706 
Q 2900 1003 2900 1516 
L 2900 3500 
L 3475 3500 
L 3475 0 
L 2900 0 
L 2900 538 
Q 2691 219 2414 64 
Q 2138 -91 1772 -91 
Q 1169 -91 856 284 
Q 544 659 544 1381 
z
M 1991 3584 
L 1991 3584 
z
" transform="scale(0.015625)"/>
       <path id="DejaVuSans-74" d="M 1172 4494 
L 1172 3500 
L 2356 3500 
L 2356 3053 
L 1172 3053 
L 1172 1153 
Q 1172 725 1289 603 
Q 1406 481 1766 481 
L 2356 481 
L 2356 0 
L 1766 0 
Q 1100 0 847 248 
Q 594 497 594 1153 
L 594 3053 
L 172 3053 
L 172 3500 
L 594 3500 
L 594 4494 
L 1172 4494 
z
" transform="scale(0.015625)"/>
       <path id="DejaVuSans-68" d="M 3513 2113 
L 3513 0 
L 2938 0 
L 2938 2094 
Q 2938 2591 2744 2837 
Q 2550 3084 2163 3084 
Q 1697 3084 1428 2787 
Q 1159 2491 1159 1978 
L 1159 0 
L 581 0 
L 581 4863 
L 1159 4863 
L 1159 2956 
Q 1366 3272 1645 3428 
Q 1925 3584 2291 3584 
Q 2894 3584 3203 3211 
Q 3513 2838 3513 2113 
z
" transform="scale(0.015625)"/>
       <path id="DejaVuSans-20" transform="scale(0.015625)"/>
       <path id="DejaVuSans-5b" d="M 550 4863 
L 1875 4863 
L 1875 4416 
L 1125 4416 
L 1125 -397 
L 1875 -397 
L 1875 -844 
L 550 -844 
L 550 4863 
z
" transform="scale(0.015625)"/>
       <path id="DejaVuSans-72" d="M 2631 2963 
Q 2534 3019 2420 3045 
Q 2306 3072 2169 3072 
Q 1681 3072 1420 2755 
Q 1159 2438 1159 1844 
L 1159 0 
L 581 0 
L 581 3500 
L 1159 3500 
L 1159 2956 
Q 1341 3275 1631 3429 
Q 1922 3584 2338 3584 
Q 2397 3584 2469 3576 
Q 2541 3569 2628 3553 
L 2631 2963 
z
" transform="scale(0.015625)"/>
       <path id="DejaVuSans-61" d="M 2194 1759 
Q 1497 1759 1228 1600 
Q 959 1441 959 1056 
Q 959 750 1161 570 
Q 1363 391 1709 391 
Q 2188 391 2477 730 
Q 2766 1069 2766 1631 
L 2766 1759 
L 2194 1759 
z
M 3341 1997 
L 3341 0 
L 2766 0 
L 2766 531 
Q 2569 213 2275 61 
Q 1981 -91 1556 -91 
Q 1019 -91 701 211 
Q 384 513 384 1019 
Q 384 1609 779 1909 
Q 1175 2209 1959 2209 
L 2766 2209 
L 2766 2266 
Q 2766 2663 2505 2880 
Q 2244 3097 1772 3097 
Q 1472 3097 1187 3025 
Q 903 2953 641 2809 
L 641 3341 
Q 956 3463 1253 3523 
Q 1550 3584 1831 3584 
Q 2591 3584 2966 3190 
Q 3341 2797 3341 1997 
z
" transform="scale(0.015625)"/>
       <path id="DejaVuSans-64" d="M 2906 2969 
L 2906 4863 
L 3481 4863 
L 3481 0 
L 2906 0 
L 2906 525 
Q 2725 213 2448 61 
Q 2172 -91 1784 -91 
Q 1150 -91 751 415 
Q 353 922 353 1747 
Q 353 2572 751 3078 
Q 1150 3584 1784 3584 
Q 2172 3584 2448 3432 
Q 2725 3281 2906 2969 
z
M 947 1747 
Q 947 1113 1208 752 
Q 1469 391 1925 391 
Q 2381 391 2643 752 
Q 2906 1113 2906 1747 
Q 2906 2381 2643 2742 
Q 2381 3103 1925 3103 
Q 1469 3103 1208 2742 
Q 947 2381 947 1747 
z
" transform="scale(0.015625)"/>
       <path id="DejaVuSans-5d" d="M 1947 4863 
L 1947 -844 
L 622 -844 
L 622 -397 
L 1369 -397 
L 1369 4416 
L 622 4416 
L 622 4863 
L 1947 4863 
z
" transform="scale(0.015625)"/>
      </defs>
      <use xlink:href="#DejaVuSans-41"/>
      <use xlink:href="#DejaVuSans-7a" x="68.408203"/>
      <use xlink:href="#DejaVuSans-69" x="120.898438"/>
      <use xlink:href="#DejaVuSans-6d" x="148.681641"/>
      <use xlink:href="#DejaVuSans-75" x="246.09375"/>
      <use xlink:href="#DejaVuSans-74" x="309.472656"/>
      <use xlink:href="#DejaVuSans-68" x="348.681641"/>
      <use xlink:href="#DejaVuSans-20" x="412.060547"/>
      <use xlink:href="#DejaVuSans-5b" x="443.847656"/>
      <use xlink:href="#DejaVuSans-72" x="482.861328"/>
      <use xlink:href="#DejaVuSans-61" x="523.974609"/>
      <use xlink:href="#DejaVuSans-64" x="585.253906"/>
      <use xlink:href="#DejaVuSans-5d" x="648.730469"/>
     </g>
    </g>
   </g>
   <g id="line2d_10">
    <path d="M 101.528926 193.637647 
L 128.31062 179.872767 
L 161.721446 162.324899 
L 182.39281 151.432516 
L 197.230537 143.896587 
L 216.887355 133.911202 
L 237.258967 123.454399 
L 252.373388 115.669064 
L 285.438347 98.588034 
L 301.209917 90.617176 
L 332.107438 75.049412 
L 332.107438 75.049412 
" clip-path="url(#p572a49e982)" style="fill: none; stroke: #1f77b4; stroke-width: 1.5; stroke-linecap: square"/>
   </g>
   <g id="patch_3">
    <path d="M 90 199.567059 
L 90 69.12 
" style="fill: none; stroke: #000000; stroke-width: 0.8; stroke-linejoin: miter; stroke-linecap: square"/>
   </g>
   <g id="patch_4">
    <path d="M 343.636364 199.567059 
L 343.636364 69.12 
" style="fill: none; stroke: #000000; stroke-width: 0.8; stroke-linejoin: miter; stroke-linecap: square"/>
   </g>
   <g id="patch_5">
    <path d="M 90 199.567059 
L 343.636364 199.567059 
" style="fill: none; stroke: #000000; stroke-width: 0.8; stroke-linejoin: miter; stroke-linecap: square"/>
   </g>
   <g id="patch_6">
    <path d="M 90 69.12 
L 343.636364 69.12 
" style="fill: none; stroke: #000000; stroke-width: 0.8; stroke-linejoin: miter; stroke-linecap: square"/>
   </g>
   <g id="text_6">
    <!-- Estimated -->
    <g transform="translate(186.507869 63.12) scale(0.12 -0.12)">
     <defs>
      <path id="DejaVuSans-45" d="M 628 4666 
L 3578 4666 
L 3578 4134 
L 1259 4134 
L 1259 2753 
L 3481 2753 
L 3481 2222 
L 1259 2222 
L 1259 531 
L 3634 531 
L 3634 0 
L 628 0 
L 628 4666 
z
" transform="scale(0.015625)"/>
      <path id="DejaVuSans-73" d="M 2834 3397 
L 2834 2853 
Q 2591 2978 2328 3040 
Q 2066 3103 1784 3103 
Q 1356 3103 1142 2972 
Q 928 2841 928 2578 
Q 928 2378 1081 2264 
Q 1234 2150 1697 2047 
L 1894 2003 
Q 2506 1872 2764 1633 
Q 3022 1394 3022 966 
Q 3022 478 2636 193 
Q 2250 -91 1575 -91 
Q 1294 -91 989 -36 
Q 684 19 347 128 
L 347 722 
Q 666 556 975 473 
Q 1284 391 1588 391 
Q 1994 391 2212 530 
Q 2431 669 2431 922 
Q 2431 1156 2273 1281 
Q 2116 1406 1581 1522 
L 1381 1569 
Q 847 1681 609 1914 
Q 372 2147 372 2553 
Q 372 3047 722 3315 
Q 1072 3584 1716 3584 
Q 2034 3584 2315 3537 
Q 2597 3491 2834 3397 
z
" transform="scale(0.015625)"/>
      <path id="DejaVuSans-65" d="M 3597 1894 
L 3597 1613 
L 953 1613 
Q 991 1019 1311 708 
Q 1631 397 2203 397 
Q 2534 397 2845 478 
Q 3156 559 3463 722 
L 3463 178 
Q 3153 47 2828 -22 
Q 2503 -91 2169 -91 
Q 1331 -91 842 396 
Q 353 884 353 1716 
Q 353 2575 817 3079 
Q 1281 3584 2069 3584 
Q 2775 3584 3186 3129 
Q 3597 2675 3597 1894 
z
M 3022 2063 
Q 3016 2534 2758 2815 
Q 2500 3097 2075 3097 
Q 1594 3097 1305 2825 
Q 1016 2553 972 2059 
L 3022 2063 
z
" transform="scale(0.015625)"/>
     </defs>
     <use xlink:href="#DejaVuSans-45"/>
     <use xlink:href="#DejaVuSans-73" x="63.183594"/>
     <use xlink:href="#DejaVuSans-74" x="115.283203"/>
     <use xlink:href="#DejaVuSans-69" x="154.492188"/>
     <use xlink:href="#DejaVuSans-6d" x="182.275391"/>
     <use xlink:href="#DejaVuSans-61" x="279.6875"/>
     <use xlink:href="#DejaVuSans-74" x="340.966797"/>
     <use xlink:href="#DejaVuSans-65" x="380.175781"/>
     <use xlink:href="#DejaVuSans-64" x="441.699219"/>
    </g>
   </g>
  </g>
  <g id="axes_2">
   <g id="patch_7">
    <path d="M 394.363636 199.567059 
L 648 199.567059 
L 648 69.12 
L 394.363636 69.12 
z
" style="fill: #ffffff"/>
   </g>
   <g id="matplotlib.axis_3">
    <g id="xtick_6">
     <g id="line2d_11">
      <g>
       <use xlink:href="#m07cdf022f3" x="405.892562" y="199.567059" style="stroke: #000000; stroke-width: 0.8"/>
      </g>
     </g>
    </g>
    <g id="xtick_7">
     <g id="line2d_12">
      <g>
       <use xlink:href="#m07cdf022f3" x="463.53719" y="199.567059" style="stroke: #000000; stroke-width: 0.8"/>
      </g>
     </g>
    </g>
    <g id="xtick_8">
     <g id="line2d_13">
      <g>
       <use xlink:href="#m07cdf022f3" x="521.181818" y="199.567059" style="stroke: #000000; stroke-width: 0.8"/>
      </g>
     </g>
    </g>
    <g id="xtick_9">
     <g id="line2d_14">
      <g>
       <use xlink:href="#m07cdf022f3" x="578.826446" y="199.567059" style="stroke: #000000; stroke-width: 0.8"/>
      </g>
     </g>
    </g>
    <g id="xtick_10">
     <g id="line2d_15">
      <g>
       <use xlink:href="#m07cdf022f3" x="636.471074" y="199.567059" style="stroke: #000000; stroke-width: 0.8"/>
      </g>
     </g>
    </g>
   </g>
   <g id="matplotlib.axis_4">
    <g id="ytick_5">
     <g id="line2d_16">
      <g>
       <use xlink:href="#m0c380a1a91" x="394.363636" y="185.776546" style="stroke: #000000; stroke-width: 0.8"/>
      </g>
     </g>
    </g>
    <g id="ytick_6">
     <g id="line2d_17">
      <g>
       <use xlink:href="#m0c380a1a91" x="394.363636" y="149.145448" style="stroke: #000000; stroke-width: 0.8"/>
      </g>
     </g>
    </g>
    <g id="ytick_7">
     <g id="line2d_18">
      <g>
       <use xlink:href="#m0c380a1a91" x="394.363636" y="112.51435" style="stroke: #000000; stroke-width: 0.8"/>
      </g>
     </g>
    </g>
    <g id="ytick_8">
     <g id="line2d_19">
      <g>
       <use xlink:href="#m0c380a1a91" x="394.363636" y="75.883251" style="stroke: #000000; stroke-width: 0.8"/>
      </g>
     </g>
    </g>
   </g>
   <g id="line2d_20">
    <path d="M 405.892562 193.637647 
L 636.471074 78.557658 
L 636.471074 78.557658 
" clip-path="url(#pacca7fee4c)" style="fill: none; stroke: #1f77b4; stroke-width: 1.5; stroke-linecap: square"/>
   </g>
   <g id="patch_8">
    <path d="M 394.363636 199.567059 
L 394.363636 69.12 
" style="fill: none; stroke: #000000; stroke-width: 0.8; stroke-linejoin: miter; stroke-linecap: square"/>
   </g>
   <g id="patch_9">
    <path d="M 648 199.567059 
L 648 69.12 
" style="fill: none; stroke: #000000; stroke-width: 0.8; stroke-linejoin: miter; stroke-linecap: square"/>
   </g>
   <g id="patch_10">
    <path d="M 394.363636 199.567059 
L 648 199.567059 
" style="fill: none; stroke: #000000; stroke-width: 0.8; stroke-linejoin: miter; stroke-linecap: square"/>
   </g>
   <g id="patch_11">
    <path d="M 394.363636 69.12 
L 648 69.12 
" style="fill: none; stroke: #000000; stroke-width: 0.8; stroke-linejoin: miter; stroke-linecap: square"/>
   </g>
   <g id="text_7">
    <!-- True -->
    <g transform="translate(508.441193 63.12) scale(0.12 -0.12)">
     <defs>
      <path id="DejaVuSans-54" d="M -19 4666 
L 3928 4666 
L 3928 4134 
L 2272 4134 
L 2272 0 
L 1638 0 
L 1638 4134 
L -19 4134 
L -19 4666 
z
" transform="scale(0.015625)"/>
     </defs>
     <use xlink:href="#DejaVuSans-54"/>
     <use xlink:href="#DejaVuSans-72" x="46.333984"/>
     <use xlink:href="#DejaVuSans-75" x="87.447266"/>
     <use xlink:href="#DejaVuSans-65" x="150.826172"/>
    </g>
   </g>
  </g>
  <g id="axes_3">
   <g id="patch_12">
    <path d="M 90 356.103529 
L 343.636364 356.103529 
L 343.636364 225.656471 
L 90 225.656471 
z
" style="fill: #ffffff"/>
   </g>
   <g id="matplotlib.axis_5">
    <g id="xtick_11">
     <g id="line2d_21">
      <g>
       <use xlink:href="#m07cdf022f3" x="101.528926" y="356.103529" style="stroke: #000000; stroke-width: 0.8"/>
      </g>
     </g>
    </g>
    <g id="xtick_12">
     <g id="line2d_22">
      <g>
       <use xlink:href="#m07cdf022f3" x="159.173554" y="356.103529" style="stroke: #000000; stroke-width: 0.8"/>
      </g>
     </g>
    </g>
    <g id="xtick_13">
     <g id="line2d_23">
      <g>
       <use xlink:href="#m07cdf022f3" x="216.818182" y="356.103529" style="stroke: #000000; stroke-width: 0.8"/>
      </g>
     </g>
    </g>
    <g id="xtick_14">
     <g id="line2d_24">
      <g>
       <use xlink:href="#m07cdf022f3" x="274.46281" y="356.103529" style="stroke: #000000; stroke-width: 0.8"/>
      </g>
     </g>
    </g>
    <g id="xtick_15">
     <g id="line2d_25">
      <g>
       <use xlink:href="#m07cdf022f3" x="332.107438" y="356.103529" style="stroke: #000000; stroke-width: 0.8"/>
      </g>
     </g>
    </g>
   </g>
   <g id="matplotlib.axis_6">
    <g id="ytick_9">
     <g id="line2d_26">
      <g>
       <use xlink:href="#m0c380a1a91" x="90" y="338.406658" style="stroke: #000000; stroke-width: 0.8"/>
      </g>
     </g>
     <g id="text_8">
      <!-- −400 -->
      <g transform="translate(55.532812 342.205877) scale(0.1 -0.1)">
       <defs>
        <path id="DejaVuSans-2212" d="M 678 2272 
L 4684 2272 
L 4684 1741 
L 678 1741 
L 678 2272 
z
" transform="scale(0.015625)"/>
        <path id="DejaVuSans-30" d="M 2034 4250 
Q 1547 4250 1301 3770 
Q 1056 3291 1056 2328 
Q 1056 1369 1301 889 
Q 1547 409 2034 409 
Q 2525 409 2770 889 
Q 3016 1369 3016 2328 
Q 3016 3291 2770 3770 
Q 2525 4250 2034 4250 
z
M 2034 4750 
Q 2819 4750 3233 4129 
Q 3647 3509 3647 2328 
Q 3647 1150 3233 529 
Q 2819 -91 2034 -91 
Q 1250 -91 836 529 
Q 422 1150 422 2328 
Q 422 3509 836 4129 
Q 1250 4750 2034 4750 
z
" transform="scale(0.015625)"/>
       </defs>
       <use xlink:href="#DejaVuSans-2212"/>
       <use xlink:href="#DejaVuSans-34" x="83.789062"/>
       <use xlink:href="#DejaVuSans-30" x="147.412109"/>
       <use xlink:href="#DejaVuSans-30" x="211.035156"/>
      </g>
     </g>
    </g>
    <g id="ytick_10">
     <g id="line2d_27">
      <g>
       <use xlink:href="#m0c380a1a91" x="90" y="314.871738" style="stroke: #000000; stroke-width: 0.8"/>
      </g>
     </g>
     <g id="text_9">
      <!-- −200 -->
      <g transform="translate(55.532812 318.670957) scale(0.1 -0.1)">
       <use xlink:href="#DejaVuSans-2212"/>
       <use xlink:href="#DejaVuSans-32" x="83.789062"/>
       <use xlink:href="#DejaVuSans-30" x="147.412109"/>
       <use xlink:href="#DejaVuSans-30" x="211.035156"/>
      </g>
     </g>
    </g>
    <g id="ytick_11">
     <g id="line2d_28">
      <g>
       <use xlink:href="#m0c380a1a91" x="90" y="291.336818" style="stroke: #000000; stroke-width: 0.8"/>
      </g>
     </g>
     <g id="text_10">
      <!-- 0 -->
      <g transform="translate(76.6375 295.136037) scale(0.1 -0.1)">
       <use xlink:href="#DejaVuSans-30"/>
      </g>
     </g>
    </g>
    <g id="ytick_12">
     <g id="line2d_29">
      <g>
       <use xlink:href="#m0c380a1a91" x="90" y="267.801899" style="stroke: #000000; stroke-width: 0.8"/>
      </g>
     </g>
     <g id="text_11">
      <!-- 200 -->
      <g transform="translate(63.9125 271.601117) scale(0.1 -0.1)">
       <use xlink:href="#DejaVuSans-32"/>
       <use xlink:href="#DejaVuSans-30" x="63.623047"/>
       <use xlink:href="#DejaVuSans-30" x="127.246094"/>
      </g>
     </g>
    </g>
    <g id="ytick_13">
     <g id="line2d_30">
      <g>
       <use xlink:href="#m0c380a1a91" x="90" y="244.266979" style="stroke: #000000; stroke-width: 0.8"/>
      </g>
     </g>
     <g id="text_12">
      <!-- 400 -->
      <g transform="translate(63.9125 248.066198) scale(0.1 -0.1)">
       <use xlink:href="#DejaVuSans-34"/>
       <use xlink:href="#DejaVuSans-30" x="63.623047"/>
       <use xlink:href="#DejaVuSans-30" x="127.246094"/>
      </g>
     </g>
    </g>
    <g id="text_13">
     <!-- Position [m] -->
     <g transform="translate(49.037187 326.67) rotate(-90) scale(0.12 -0.12)">
      <defs>
       <path id="DejaVuSans-50" d="M 1259 4147 
L 1259 2394 
L 2053 2394 
Q 2494 2394 2734 2622 
Q 2975 2850 2975 3272 
Q 2975 3691 2734 3919 
Q 2494 4147 2053 4147 
L 1259 4147 
z
M 628 4666 
L 2053 4666 
Q 2838 4666 3239 4311 
Q 3641 3956 3641 3272 
Q 3641 2581 3239 2228 
Q 2838 1875 2053 1875 
L 1259 1875 
L 1259 0 
L 628 0 
L 628 4666 
z
" transform="scale(0.015625)"/>
       <path id="DejaVuSans-6f" d="M 1959 3097 
Q 1497 3097 1228 2736 
Q 959 2375 959 1747 
Q 959 1119 1226 758 
Q 1494 397 1959 397 
Q 2419 397 2687 759 
Q 2956 1122 2956 1747 
Q 2956 2369 2687 2733 
Q 2419 3097 1959 3097 
z
M 1959 3584 
Q 2709 3584 3137 3096 
Q 3566 2609 3566 1747 
Q 3566 888 3137 398 
Q 2709 -91 1959 -91 
Q 1206 -91 779 398 
Q 353 888 353 1747 
Q 353 2609 779 3096 
Q 1206 3584 1959 3584 
z
" transform="scale(0.015625)"/>
       <path id="DejaVuSans-6e" d="M 3513 2113 
L 3513 0 
L 2938 0 
L 2938 2094 
Q 2938 2591 2744 2837 
Q 2550 3084 2163 3084 
Q 1697 3084 1428 2787 
Q 1159 2491 1159 1978 
L 1159 0 
L 581 0 
L 581 3500 
L 1159 3500 
L 1159 2956 
Q 1366 3272 1645 3428 
Q 1925 3584 2291 3584 
Q 2894 3584 3203 3211 
Q 3513 2838 3513 2113 
z
" transform="scale(0.015625)"/>
      </defs>
      <use xlink:href="#DejaVuSans-50"/>
      <use xlink:href="#DejaVuSans-6f" x="56.677734"/>
      <use xlink:href="#DejaVuSans-73" x="117.859375"/>
      <use xlink:href="#DejaVuSans-69" x="169.958984"/>
      <use xlink:href="#DejaVuSans-74" x="197.742188"/>
      <use xlink:href="#DejaVuSans-69" x="236.951172"/>
      <use xlink:href="#DejaVuSans-6f" x="264.734375"/>
      <use xlink:href="#DejaVuSans-6e" x="325.916016"/>
      <use xlink:href="#DejaVuSans-20" x="389.294922"/>
      <use xlink:href="#DejaVuSans-5b" x="421.082031"/>
      <use xlink:href="#DejaVuSans-6d" x="460.095703"/>
      <use xlink:href="#DejaVuSans-5d" x="557.507812"/>
     </g>
    </g>
   </g>
   <g id="line2d_31">
    <path d="M 101.528926 232.499519 
L 103.811653 232.610506 
L 106.105909 232.945439 
L 108.423223 233.509822 
L 110.775124 234.312837 
L 113.184669 235.372677 
L 115.663388 236.708974 
L 118.234339 238.351731 
L 120.90905 240.329645 
L 123.69905 242.673431 
L 126.638926 245.437674 
L 129.763264 248.685497 
L 133.106653 252.487742 
L 136.738264 256.962538 
L 140.750331 262.268273 
L 145.327314 268.702407 
L 150.964959 277.031605 
L 161.859793 293.638233 
L 168.811736 303.993383 
L 173.792231 311.023807 
L 178.023347 316.622663 
L 181.804835 321.266236 
L 185.275041 325.182126 
L 188.491612 328.483809 
L 191.523719 331.282803 
L 194.394421 333.634475 
L 197.126777 335.589621 
L 199.743843 337.193068 
L 202.268678 338.482303 
L 204.71281 339.483622 
L 207.099298 340.222664 
L 209.42814 340.713073 
L 211.733926 340.972036 
L 214.016653 341.005399 
L 216.29938 340.816755 
L 218.605165 340.401732 
L 220.934008 339.755239 
L 223.308967 338.863488 
L 225.74157 337.710918 
L 228.254876 336.271807 
L 230.860413 334.521081 
L 233.58124 332.421627 
L 236.440413 329.930392 
L 239.460992 326.998701 
L 242.677562 323.561724 
L 246.13624 319.534669 
L 249.917727 314.782854 
L 254.148843 309.09858 
L 259.094752 302.06657 
L 265.631653 292.356146 
L 280.331033 270.402951 
L 285.357645 263.37562 
L 289.634876 257.767755 
L 293.45095 253.122879 
L 296.944215 249.214114 
L 300.183843 245.91557 
L 303.227479 243.127459 
L 306.109711 240.783685 
L 308.853595 238.834375 
L 311.48219 237.235769 
L 314.007025 235.956561 
L 316.451157 234.963824 
L 318.837645 234.232558 
L 321.178017 233.747286 
L 323.483802 233.495767 
L 325.766529 233.469678 
L 328.049256 233.665553 
L 330.343512 234.085934 
L 332.107438 234.560817 
L 332.107438 234.560817 
" clip-path="url(#pe48589fa8b)" style="fill: none; stroke: #1f77b4; stroke-width: 1.5; stroke-linecap: square"/>
   </g>
   <g id="line2d_32">
    <path d="M 101.528926 291.336818 
L 112.239298 274.374217 
L 117.634835 266.258626 
L 122.119587 259.903681 
L 126.074008 254.676315 
L 129.682562 250.267455 
L 133.014421 246.540772 
L 136.127231 243.385687 
L 139.067107 240.716454 
L 141.857107 238.477689 
L 144.531818 236.612384 
L 147.102769 235.087138 
L 149.581488 233.871659 
L 151.991033 232.934791 
L 154.342934 232.255983 
L 156.660248 231.81674 
L 158.954504 231.607092 
L 161.237231 231.620895 
L 163.531488 231.857027 
L 165.848802 232.319596 
L 168.212231 233.020399 
L 170.633306 233.973041 
L 173.123554 235.19486 
L 175.706033 236.712675 
L 178.403802 238.560104 
L 181.239917 240.776661 
L 184.237438 243.406785 
L 187.43095 246.509758 
L 190.878099 250.176163 
L 194.636529 254.505377 
L 198.867645 259.728206 
L 203.836612 266.229793 
L 210.534917 275.391963 
L 223.70095 293.462428 
L 228.75062 299.963667 
L 233.004793 305.088048 
L 236.786281 309.302964 
L 240.23343 312.819717 
L 243.438471 315.777731 
L 246.435992 318.247299 
L 249.272107 320.300634 
L 251.969876 321.983801 
L 254.552355 323.337418 
L 257.042603 324.395312 
L 259.463678 325.184614 
L 261.827107 325.722865 
L 264.144421 326.024248 
L 266.438678 326.099335 
L 268.721405 325.952262 
L 271.015661 325.580808 
L 273.321446 324.981842 
L 275.673347 324.139433 
L 278.071364 323.042511 
L 280.538554 321.667138 
L 283.086446 319.989012 
L 285.738099 317.971903 
L 288.505041 315.582501 
L 291.410331 312.774424 
L 294.477025 309.495088 
L 297.739711 305.674111 
L 301.244504 301.219869 
L 305.060579 296.00121 
L 309.303223 289.811171 
L 314.191488 282.271656 
L 320.370992 272.305724 
L 332.107438 252.95897 
L 332.107438 252.95897 
" clip-path="url(#pe48589fa8b)" style="fill: none; stroke: #ff7f0e; stroke-width: 1.5; stroke-linecap: square"/>
   </g>
   <g id="patch_13">
    <path d="M 90 356.103529 
L 90 225.656471 
" style="fill: none; stroke: #000000; stroke-width: 0.8; stroke-linejoin: miter; stroke-linecap: square"/>
   </g>
   <g id="patch_14">
    <path d="M 343.636364 356.103529 
L 343.636364 225.656471 
" style="fill: none; stroke: #000000; stroke-width: 0.8; stroke-linejoin: miter; stroke-linecap: square"/>
   </g>
   <g id="patch_15">
    <path d="M 90 356.103529 
L 343.636364 356.103529 
" style="fill: none; stroke: #000000; stroke-width: 0.8; stroke-linejoin: miter; stroke-linecap: square"/>
   </g>
   <g id="patch_16">
    <path d="M 90 225.656471 
L 343.636364 225.656471 
" style="fill: none; stroke: #000000; stroke-width: 0.8; stroke-linejoin: miter; stroke-linecap: square"/>
   </g>
   <g id="legend_1">
    <g id="patch_17">
     <path d="M 97 351.103529 
L 156.96875 351.103529 
Q 158.96875 351.103529 158.96875 349.103529 
L 158.96875 320.747279 
Q 158.96875 318.747279 156.96875 318.747279 
L 97 318.747279 
Q 95 318.747279 95 320.747279 
L 95 349.103529 
Q 95 351.103529 97 351.103529 
z
" style="fill: #ffffff; opacity: 0.8; stroke: #cccccc; stroke-linejoin: miter"/>
    </g>
    <g id="line2d_33">
     <path d="M 99 326.845717 
L 109 326.845717 
L 119 326.845717 
" style="fill: none; stroke: #1f77b4; stroke-width: 1.5; stroke-linecap: square"/>
    </g>
    <g id="text_14">
     <!-- North -->
     <g transform="translate(127 330.345717) scale(0.1 -0.1)">
      <defs>
       <path id="DejaVuSans-4e" d="M 628 4666 
L 1478 4666 
L 3547 763 
L 3547 4666 
L 4159 4666 
L 4159 0 
L 3309 0 
L 1241 3903 
L 1241 0 
L 628 0 
L 628 4666 
z
" transform="scale(0.015625)"/>
      </defs>
      <use xlink:href="#DejaVuSans-4e"/>
      <use xlink:href="#DejaVuSans-6f" x="74.804688"/>
      <use xlink:href="#DejaVuSans-72" x="135.986328"/>
      <use xlink:href="#DejaVuSans-74" x="177.099609"/>
      <use xlink:href="#DejaVuSans-68" x="216.308594"/>
     </g>
    </g>
    <g id="line2d_34">
     <path d="M 99 341.523842 
L 109 341.523842 
L 119 341.523842 
" style="fill: none; stroke: #ff7f0e; stroke-width: 1.5; stroke-linecap: square"/>
    </g>
    <g id="text_15">
     <!-- East -->
     <g transform="translate(127 345.023842) scale(0.1 -0.1)">
      <use xlink:href="#DejaVuSans-45"/>
      <use xlink:href="#DejaVuSans-61" x="63.183594"/>
      <use xlink:href="#DejaVuSans-73" x="124.462891"/>
      <use xlink:href="#DejaVuSans-74" x="176.5625"/>
     </g>
    </g>
   </g>
  </g>
  <g id="axes_4">
   <g id="patch_18">
    <path d="M 394.363636 356.103529 
L 648 356.103529 
L 648 225.656471 
L 394.363636 225.656471 
z
" style="fill: #ffffff"/>
   </g>
   <g id="matplotlib.axis_7">
    <g id="xtick_16">
     <g id="line2d_35">
      <g>
       <use xlink:href="#m07cdf022f3" x="405.892562" y="356.103529" style="stroke: #000000; stroke-width: 0.8"/>
      </g>
     </g>
    </g>
    <g id="xtick_17">
     <g id="line2d_36">
      <g>
       <use xlink:href="#m07cdf022f3" x="463.53719" y="356.103529" style="stroke: #000000; stroke-width: 0.8"/>
      </g>
     </g>
    </g>
    <g id="xtick_18">
     <g id="line2d_37">
      <g>
       <use xlink:href="#m07cdf022f3" x="521.181818" y="356.103529" style="stroke: #000000; stroke-width: 0.8"/>
      </g>
     </g>
    </g>
    <g id="xtick_19">
     <g id="line2d_38">
      <g>
       <use xlink:href="#m07cdf022f3" x="578.826446" y="356.103529" style="stroke: #000000; stroke-width: 0.8"/>
      </g>
     </g>
    </g>
    <g id="xtick_20">
     <g id="line2d_39">
      <g>
       <use xlink:href="#m07cdf022f3" x="636.471074" y="356.103529" style="stroke: #000000; stroke-width: 0.8"/>
      </g>
     </g>
    </g>
   </g>
   <g id="matplotlib.axis_8">
    <g id="ytick_14">
     <g id="line2d_40">
      <g>
       <use xlink:href="#m0c380a1a91" x="394.363636" y="338.406658" style="stroke: #000000; stroke-width: 0.8"/>
      </g>
     </g>
    </g>
    <g id="ytick_15">
     <g id="line2d_41">
      <g>
       <use xlink:href="#m0c380a1a91" x="394.363636" y="314.871738" style="stroke: #000000; stroke-width: 0.8"/>
      </g>
     </g>
    </g>
    <g id="ytick_16">
     <g id="line2d_42">
      <g>
       <use xlink:href="#m0c380a1a91" x="394.363636" y="291.336818" style="stroke: #000000; stroke-width: 0.8"/>
      </g>
     </g>
    </g>
    <g id="ytick_17">
     <g id="line2d_43">
      <g>
       <use xlink:href="#m0c380a1a91" x="394.363636" y="267.801899" style="stroke: #000000; stroke-width: 0.8"/>
      </g>
     </g>
    </g>
    <g id="ytick_18">
     <g id="line2d_44">
      <g>
       <use xlink:href="#m0c380a1a91" x="394.363636" y="244.266979" style="stroke: #000000; stroke-width: 0.8"/>
      </g>
     </g>
    </g>
   </g>
   <g id="line2d_45">
    <path d="M 405.892562 232.499519 
L 408.152231 232.611025 
L 410.411901 232.94512 
L 412.706157 233.510748 
L 415.035 234.315961 
L 417.421488 235.379222 
L 419.877149 236.720196 
L 422.413512 238.361812 
L 425.053636 240.339147 
L 427.820579 242.69442 
L 430.725868 245.464666 
L 433.804091 248.712925 
L 437.089835 252.510275 
L 440.629215 256.947813 
L 444.502934 262.169314 
L 448.849339 268.411549 
L 453.968182 276.168128 
L 460.874008 287.070696 
L 474.535785 308.708012 
L 479.769917 316.522243 
L 484.162438 322.691557 
L 488.070744 327.806166 
L 491.633182 332.109544 
L 494.930455 335.751322 
L 498.020207 338.83922 
L 500.937025 341.445826 
L 503.703967 343.626307 
L 506.35562 345.437273 
L 508.903512 346.911497 
L 511.359174 348.079006 
L 513.745661 348.970315 
L 516.074504 349.605227 
L 518.36876 350.001339 
L 520.639959 350.167704 
L 522.899628 350.109669 
L 525.159298 349.828866 
L 527.442025 349.320096 
L 529.759339 348.574227 
L 532.122769 347.57853 
L 534.555372 346.31021 
L 537.068678 344.74627 
L 539.685744 342.851749 
L 542.418099 340.594497 
L 545.288802 337.929182 
L 548.320909 334.80492 
L 551.549008 331.153301 
L 555.019215 326.885254 
L 558.800702 321.874081 
L 563.020289 315.902462 
L 567.908554 308.584348 
L 574.157231 298.802771 
L 591.635083 271.215207 
L 596.534876 264.034058 
L 600.742934 258.250064 
L 604.524421 253.421045 
L 607.994628 249.342308 
L 611.222727 245.884301 
L 614.254835 242.955901 
L 617.125537 240.48729 
L 619.857893 238.426325 
L 622.474959 236.727073 
L 624.988264 235.356418 
L 627.420868 234.279681 
L 629.784298 233.473559 
L 632.101612 232.916089 
L 634.384339 232.594615 
L 636.471074 232.499519 
L 636.471074 232.499519 
" clip-path="url(#pf72326643d)" style="fill: none; stroke: #1f77b4; stroke-width: 1.5; stroke-linecap: square"/>
   </g>
   <g id="line2d_46">
    <path d="M 405.892562 291.336818 
L 416.095661 275.188172 
L 421.491198 267.073896 
L 425.964421 260.736381 
L 429.918843 255.509164 
L 433.515868 251.113845 
L 436.847727 247.386156 
L 439.960537 244.230099 
L 442.900413 241.560045 
L 445.690413 239.321147 
L 448.353595 237.464181 
L 450.913017 235.946697 
L 453.380207 234.738756 
L 455.778223 233.809709 
L 458.118595 233.139739 
L 460.412851 232.712627 
L 462.68405 232.515418 
L 464.943719 232.54273 
L 467.203388 232.792889 
L 469.486116 233.270903 
L 471.80343 233.985878 
L 474.16686 234.950533 
L 476.587934 236.181092 
L 479.089711 237.704707 
L 481.695248 239.556271 
L 484.404545 241.758132 
L 487.25219 244.363335 
L 490.26124 247.423043 
L 493.466281 251.006049 
L 496.901901 255.187454 
L 500.637273 260.091642 
L 504.787686 265.917764 
L 509.560661 273.014514 
L 515.544174 282.333515 
L 535.200992 313.270978 
L 539.904793 320.069844 
L 544.009091 325.620753 
L 547.709876 330.260486 
L 551.122438 334.189385 
L 554.304421 337.51985 
L 557.290413 340.330012 
L 560.126529 342.6992 
L 562.824298 344.668463 
L 565.418306 346.290422 
L 567.908554 347.589378 
L 570.329628 348.604057 
L 572.681529 349.35119 
L 574.987314 349.852444 
L 577.258512 350.120423 
L 579.518182 350.163665 
L 581.777851 349.983936 
L 584.04905 349.579297 
L 586.343306 348.944136 
L 588.683678 348.064314 
L 591.081694 346.923626 
L 593.560413 345.495233 
L 596.131364 343.752842 
L 598.806074 341.667333 
L 601.607603 339.196593 
L 604.559008 336.292418 
L 607.694876 332.888757 
L 611.049793 328.91229 
L 614.681405 324.255243 
L 618.681942 318.754128 
L 623.224339 312.117032 
L 628.700579 303.702337 
L 636.471074 291.336818 
L 636.471074 291.336818 
" clip-path="url(#pf72326643d)" style="fill: none; stroke: #ff7f0e; stroke-width: 1.5; stroke-linecap: square"/>
   </g>
   <g id="patch_19">
    <path d="M 394.363636 356.103529 
L 394.363636 225.656471 
" style="fill: none; stroke: #000000; stroke-width: 0.8; stroke-linejoin: miter; stroke-linecap: square"/>
   </g>
   <g id="patch_20">
    <path d="M 648 356.103529 
L 648 225.656471 
" style="fill: none; stroke: #000000; stroke-width: 0.8; stroke-linejoin: miter; stroke-linecap: square"/>
   </g>
   <g id="patch_21">
    <path d="M 394.363636 356.103529 
L 648 356.103529 
" style="fill: none; stroke: #000000; stroke-width: 0.8; stroke-linejoin: miter; stroke-linecap: square"/>
   </g>
   <g id="patch_22">
    <path d="M 394.363636 225.656471 
L 648 225.656471 
" style="fill: none; stroke: #000000; stroke-width: 0.8; stroke-linejoin: miter; stroke-linecap: square"/>
   </g>
   <g id="legend_2">
    <g id="patch_23">
     <path d="M 401.363636 351.103529 
L 461.332386 351.103529 
Q 463.332386 351.103529 463.332386 349.103529 
L 463.332386 320.747279 
Q 463.332386 318.747279 461.332386 318.747279 
L 401.363636 318.747279 
Q 399.363636 318.747279 399.363636 320.747279 
L 399.363636 349.103529 
Q 399.363636 351.103529 401.363636 351.103529 
z
" style="fill: #ffffff; opacity: 0.8; stroke: #cccccc; stroke-linejoin: miter"/>
    </g>
    <g id="line2d_47">
     <path d="M 403.363636 326.845717 
L 413.363636 326.845717 
L 423.363636 326.845717 
" style="fill: none; stroke: #1f77b4; stroke-width: 1.5; stroke-linecap: square"/>
    </g>
    <g id="text_16">
     <!-- North -->
     <g transform="translate(431.363636 330.345717) scale(0.1 -0.1)">
      <use xlink:href="#DejaVuSans-4e"/>
      <use xlink:href="#DejaVuSans-6f" x="74.804688"/>
      <use xlink:href="#DejaVuSans-72" x="135.986328"/>
      <use xlink:href="#DejaVuSans-74" x="177.099609"/>
      <use xlink:href="#DejaVuSans-68" x="216.308594"/>
     </g>
    </g>
    <g id="line2d_48">
     <path d="M 403.363636 341.523842 
L 413.363636 341.523842 
L 423.363636 341.523842 
" style="fill: none; stroke: #ff7f0e; stroke-width: 1.5; stroke-linecap: square"/>
    </g>
    <g id="text_17">
     <!-- East -->
     <g transform="translate(431.363636 345.023842) scale(0.1 -0.1)">
      <use xlink:href="#DejaVuSans-45"/>
      <use xlink:href="#DejaVuSans-61" x="63.183594"/>
      <use xlink:href="#DejaVuSans-73" x="124.462891"/>
      <use xlink:href="#DejaVuSans-74" x="176.5625"/>
     </g>
    </g>
   </g>
  </g>
  <g id="axes_5">
   <g id="patch_24">
    <path d="M 90 512.64 
L 343.636364 512.64 
L 343.636364 382.192941 
L 90 382.192941 
z
" style="fill: #ffffff"/>
   </g>
   <g id="matplotlib.axis_9">
    <g id="xtick_21">
     <g id="line2d_49">
      <g>
       <use xlink:href="#m07cdf022f3" x="101.528926" y="512.64" style="stroke: #000000; stroke-width: 0.8"/>
      </g>
     </g>
     <g id="text_18">
      <!-- 0 -->
      <g transform="translate(98.347676 527.238438) scale(0.1 -0.1)">
       <use xlink:href="#DejaVuSans-30"/>
      </g>
     </g>
    </g>
    <g id="xtick_22">
     <g id="line2d_50">
      <g>
       <use xlink:href="#m07cdf022f3" x="159.173554" y="512.64" style="stroke: #000000; stroke-width: 0.8"/>
      </g>
     </g>
     <g id="text_19">
      <!-- 50 -->
      <g transform="translate(152.811054 527.238438) scale(0.1 -0.1)">
       <defs>
        <path id="DejaVuSans-35" d="M 691 4666 
L 3169 4666 
L 3169 4134 
L 1269 4134 
L 1269 2991 
Q 1406 3038 1543 3061 
Q 1681 3084 1819 3084 
Q 2600 3084 3056 2656 
Q 3513 2228 3513 1497 
Q 3513 744 3044 326 
Q 2575 -91 1722 -91 
Q 1428 -91 1123 -41 
Q 819 9 494 109 
L 494 744 
Q 775 591 1075 516 
Q 1375 441 1709 441 
Q 2250 441 2565 725 
Q 2881 1009 2881 1497 
Q 2881 1984 2565 2268 
Q 2250 2553 1709 2553 
Q 1456 2553 1204 2497 
Q 953 2441 691 2322 
L 691 4666 
z
" transform="scale(0.015625)"/>
       </defs>
       <use xlink:href="#DejaVuSans-35"/>
       <use xlink:href="#DejaVuSans-30" x="63.623047"/>
      </g>
     </g>
    </g>
    <g id="xtick_23">
     <g id="line2d_51">
      <g>
       <use xlink:href="#m07cdf022f3" x="216.818182" y="512.64" style="stroke: #000000; stroke-width: 0.8"/>
      </g>
     </g>
     <g id="text_20">
      <!-- 100 -->
      <g transform="translate(207.274432 527.238438) scale(0.1 -0.1)">
       <defs>
        <path id="DejaVuSans-31" d="M 794 531 
L 1825 531 
L 1825 4091 
L 703 3866 
L 703 4441 
L 1819 4666 
L 2450 4666 
L 2450 531 
L 3481 531 
L 3481 0 
L 794 0 
L 794 531 
z
" transform="scale(0.015625)"/>
       </defs>
       <use xlink:href="#DejaVuSans-31"/>
       <use xlink:href="#DejaVuSans-30" x="63.623047"/>
       <use xlink:href="#DejaVuSans-30" x="127.246094"/>
      </g>
     </g>
    </g>
    <g id="xtick_24">
     <g id="line2d_52">
      <g>
       <use xlink:href="#m07cdf022f3" x="274.46281" y="512.64" style="stroke: #000000; stroke-width: 0.8"/>
      </g>
     </g>
     <g id="text_21">
      <!-- 150 -->
      <g transform="translate(264.91906 527.238438) scale(0.1 -0.1)">
       <use xlink:href="#DejaVuSans-31"/>
       <use xlink:href="#DejaVuSans-35" x="63.623047"/>
       <use xlink:href="#DejaVuSans-30" x="127.246094"/>
      </g>
     </g>
    </g>
    <g id="xtick_25">
     <g id="line2d_53">
      <g>
       <use xlink:href="#m07cdf022f3" x="332.107438" y="512.64" style="stroke: #000000; stroke-width: 0.8"/>
      </g>
     </g>
     <g id="text_22">
      <!-- 200 -->
      <g transform="translate(322.563688 527.238438) scale(0.1 -0.1)">
       <use xlink:href="#DejaVuSans-32"/>
       <use xlink:href="#DejaVuSans-30" x="63.623047"/>
       <use xlink:href="#DejaVuSans-30" x="127.246094"/>
      </g>
     </g>
    </g>
    <g id="text_23">
     <!-- Time [s] -->
     <g transform="translate(192.423494 542.43625) scale(0.12 -0.12)">
      <use xlink:href="#DejaVuSans-54"/>
      <use xlink:href="#DejaVuSans-69" x="57.958984"/>
      <use xlink:href="#DejaVuSans-6d" x="85.742188"/>
      <use xlink:href="#DejaVuSans-65" x="183.154297"/>
      <use xlink:href="#DejaVuSans-20" x="244.677734"/>
      <use xlink:href="#DejaVuSans-5b" x="276.464844"/>
      <use xlink:href="#DejaVuSans-73" x="315.478516"/>
      <use xlink:href="#DejaVuSans-5d" x="367.578125"/>
     </g>
    </g>
   </g>
   <g id="matplotlib.axis_10">
    <g id="ytick_19">
     <g id="line2d_54">
      <g>
       <use xlink:href="#m0c380a1a91" x="90" y="485.508483" style="stroke: #000000; stroke-width: 0.8"/>
      </g>
     </g>
     <g id="text_24">
      <!-- −10 -->
      <g transform="translate(61.895313 489.307701) scale(0.1 -0.1)">
       <use xlink:href="#DejaVuSans-2212"/>
       <use xlink:href="#DejaVuSans-31" x="83.789062"/>
       <use xlink:href="#DejaVuSans-30" x="147.412109"/>
      </g>
     </g>
    </g>
    <g id="ytick_20">
     <g id="line2d_55">
      <g>
       <use xlink:href="#m0c380a1a91" x="90" y="448.3637" style="stroke: #000000; stroke-width: 0.8"/>
      </g>
     </g>
     <g id="text_25">
      <!-- 0 -->
      <g transform="translate(76.6375 452.162919) scale(0.1 -0.1)">
       <use xlink:href="#DejaVuSans-30"/>
      </g>
     </g>
    </g>
    <g id="ytick_21">
     <g id="line2d_56">
      <g>
       <use xlink:href="#m0c380a1a91" x="90" y="411.218917" style="stroke: #000000; stroke-width: 0.8"/>
      </g>
     </g>
     <g id="text_26">
      <!-- 10 -->
      <g transform="translate(70.275 415.018136) scale(0.1 -0.1)">
       <use xlink:href="#DejaVuSans-31"/>
       <use xlink:href="#DejaVuSans-30" x="63.623047"/>
      </g>
     </g>
    </g>
    <g id="text_27">
     <!-- Velocity [m/s] -->
     <g transform="translate(49.037187 488.535221) rotate(-90) scale(0.12 -0.12)">
      <defs>
       <path id="DejaVuSans-56" d="M 1831 0 
L 50 4666 
L 709 4666 
L 2188 738 
L 3669 4666 
L 4325 4666 
L 2547 0 
L 1831 0 
z
" transform="scale(0.015625)"/>
       <path id="DejaVuSans-6c" d="M 603 4863 
L 1178 4863 
L 1178 0 
L 603 0 
L 603 4863 
z
" transform="scale(0.015625)"/>
       <path id="DejaVuSans-63" d="M 3122 3366 
L 3122 2828 
Q 2878 2963 2633 3030 
Q 2388 3097 2138 3097 
Q 1578 3097 1268 2742 
Q 959 2388 959 1747 
Q 959 1106 1268 751 
Q 1578 397 2138 397 
Q 2388 397 2633 464 
Q 2878 531 3122 666 
L 3122 134 
Q 2881 22 2623 -34 
Q 2366 -91 2075 -91 
Q 1284 -91 818 406 
Q 353 903 353 1747 
Q 353 2603 823 3093 
Q 1294 3584 2113 3584 
Q 2378 3584 2631 3529 
Q 2884 3475 3122 3366 
z
" transform="scale(0.015625)"/>
       <path id="DejaVuSans-79" d="M 2059 -325 
Q 1816 -950 1584 -1140 
Q 1353 -1331 966 -1331 
L 506 -1331 
L 506 -850 
L 844 -850 
Q 1081 -850 1212 -737 
Q 1344 -625 1503 -206 
L 1606 56 
L 191 3500 
L 800 3500 
L 1894 763 
L 2988 3500 
L 3597 3500 
L 2059 -325 
z
" transform="scale(0.015625)"/>
       <path id="DejaVuSans-2f" d="M 1625 4666 
L 2156 4666 
L 531 -594 
L 0 -594 
L 1625 4666 
z
" transform="scale(0.015625)"/>
      </defs>
      <use xlink:href="#DejaVuSans-56"/>
      <use xlink:href="#DejaVuSans-65" x="60.658203"/>
      <use xlink:href="#DejaVuSans-6c" x="122.181641"/>
      <use xlink:href="#DejaVuSans-6f" x="149.964844"/>
      <use xlink:href="#DejaVuSans-63" x="211.146484"/>
      <use xlink:href="#DejaVuSans-69" x="266.126953"/>
      <use xlink:href="#DejaVuSans-74" x="293.910156"/>
      <use xlink:href="#DejaVuSans-79" x="333.119141"/>
      <use xlink:href="#DejaVuSans-20" x="392.298828"/>
      <use xlink:href="#DejaVuSans-5b" x="424.085938"/>
      <use xlink:href="#DejaVuSans-6d" x="463.099609"/>
      <use xlink:href="#DejaVuSans-2f" x="560.511719"/>
      <use xlink:href="#DejaVuSans-73" x="594.203125"/>
      <use xlink:href="#DejaVuSans-5d" x="646.302734"/>
     </g>
    </g>
   </g>
   <g id="line2d_57">
    <path d="M 101.528926 448.3637 
L 113.449835 466.556841 
L 118.822314 474.249997 
L 123.675992 480.716184 
L 127.399835 485.277426 
L 130.731694 489.018478 
L 134.09814 492.444492 
L 136.530744 494.674251 
L 139.585909 497.16752 
L 142.422025 499.166331 
L 145.062149 500.731286 
L 148.186488 502.203105 
L 150.388512 502.990669 
L 152.970992 503.64234 
L 155.103843 503.9611 
L 157.70938 504.072256 
L 160.303388 503.884509 
L 162.332479 503.527687 
L 164.730496 502.864763 
L 167.589669 501.74819 
L 169.699463 500.695058 
L 172.431818 499.065822 
L 175.52157 496.852168 
L 178.484504 494.380383 
L 181.631901 491.405343 
L 184.883058 487.993696 
L 187.788347 484.667724 
L 192.365331 478.96131 
L 196.388926 473.542806 
L 200.435579 467.783545 
L 207.156942 457.728769 
L 227.25186 427.157271 
L 232.854917 419.434895 
L 236.405826 414.903961 
L 239.737686 410.953412 
L 243.357769 407.033591 
L 246.251529 404.204655 
L 249.652562 401.252673 
L 252.36186 399.209855 
L 255.048099 397.463535 
L 257.227066 396.266503 
L 259.417562 395.259389 
L 261.538884 394.478911 
L 264.375 393.737154 
L 266.922893 393.36386 
L 269.355496 393.27255 
L 271.880331 393.453415 
L 274.393636 393.907833 
L 276.526488 394.516863 
L 279.431777 395.657569 
L 281.86438 396.882978 
L 284.112521 398.229325 
L 286.452893 399.836304 
L 289.404298 402.161778 
L 292.978264 405.400494 
L 295.975785 408.445143 
L 299.330702 412.180057 
L 303.665579 417.471038 
L 308.311736 423.640715 
L 312.911777 430.165645 
L 320.082769 440.932449 
L 332.107438 459.514281 
L 332.107438 459.514281 
" clip-path="url(#pdb0331a6c5)" style="fill: none; stroke: #1f77b4; stroke-width: 1.5; stroke-linecap: square"/>
   </g>
   <g id="line2d_58">
    <path d="M 101.528926 390.016811 
L 103.684835 390.073867 
L 106.555537 390.454239 
L 109.506942 391.220624 
L 111.501446 391.943565 
L 113.853347 393.007984 
L 116.378182 394.406609 
L 119.421818 396.429007 
L 122.534628 398.871413 
L 125.612851 401.639611 
L 128.679545 404.715903 
L 131.515661 407.838863 
L 135.481612 412.600498 
L 139.874132 418.35102 
L 146.376446 427.593329 
L 151.748926 435.68163 
L 170.714008 464.556193 
L 175.383223 471.074027 
L 178.772727 475.501753 
L 182.531157 480.068246 
L 186.266529 484.192977 
L 189.621446 487.528965 
L 192.722727 490.273781 
L 195.501198 492.434759 
L 198.902231 494.682198 
L 201.27719 495.983424 
L 203.582975 497.030415 
L 206.419091 498.013011 
L 208.886281 498.593197 
L 211.215124 498.900546 
L 213.394091 498.976007 
L 215.688347 498.82837 
L 217.740496 498.506606 
L 220.207686 497.876756 
L 223.262851 496.737676 
L 225.63781 495.580695 
L 228.577686 493.833403 
L 231.263926 491.93906 
L 233.927107 489.789424 
L 237.178264 486.828815 
L 240.152727 483.798238 
L 243.622934 479.921396 
L 248.695661 473.629207 
L 252.165868 468.967597 
L 257.204008 461.778759 
L 263.210579 452.755367 
L 271.442231 440.033196 
L 278.451818 429.343714 
L 285.934091 418.555106 
L 289.680992 413.5397 
L 294.21186 407.918561 
L 297.843471 403.824009 
L 301.405909 400.197736 
L 304.011446 397.81441 
L 306.732273 395.581635 
L 309.55686 393.558444 
L 312.808017 391.602271 
L 315.090744 390.479226 
L 318.111322 389.329328 
L 320.013595 388.799926 
L 322.365496 388.354252 
L 325.247727 388.125022 
L 327.887851 388.227997 
L 329.882355 388.50187 
L 331.888388 388.951379 
L 332.107438 389.009942 
L 332.107438 389.009942 
" clip-path="url(#pdb0331a6c5)" style="fill: none; stroke: #ff7f0e; stroke-width: 1.5; stroke-linecap: square"/>
   </g>
   <g id="patch_25">
    <path d="M 90 512.64 
L 90 382.192941 
" style="fill: none; stroke: #000000; stroke-width: 0.8; stroke-linejoin: miter; stroke-linecap: square"/>
   </g>
   <g id="patch_26">
    <path d="M 343.636364 512.64 
L 343.636364 382.192941 
" style="fill: none; stroke: #000000; stroke-width: 0.8; stroke-linejoin: miter; stroke-linecap: square"/>
   </g>
   <g id="patch_27">
    <path d="M 90 512.64 
L 343.636364 512.64 
" style="fill: none; stroke: #000000; stroke-width: 0.8; stroke-linejoin: miter; stroke-linecap: square"/>
   </g>
   <g id="patch_28">
    <path d="M 90 382.192941 
L 343.636364 382.192941 
" style="fill: none; stroke: #000000; stroke-width: 0.8; stroke-linejoin: miter; stroke-linecap: square"/>
   </g>
   <g id="legend_3">
    <g id="patch_29">
     <path d="M 276.667614 507.64 
L 336.636364 507.64 
Q 338.636364 507.64 338.636364 505.64 
L 338.636364 477.28375 
Q 338.636364 475.28375 336.636364 475.28375 
L 276.667614 475.28375 
Q 274.667614 475.28375 274.667614 477.28375 
L 274.667614 505.64 
Q 274.667614 507.64 276.667614 507.64 
z
" style="fill: #ffffff; opacity: 0.8; stroke: #cccccc; stroke-linejoin: miter"/>
    </g>
    <g id="line2d_59">
     <path d="M 278.667614 483.382187 
L 288.667614 483.382187 
L 298.667614 483.382187 
" style="fill: none; stroke: #1f77b4; stroke-width: 1.5; stroke-linecap: square"/>
    </g>
    <g id="text_28">
     <!-- North -->
     <g transform="translate(306.667614 486.882187) scale(0.1 -0.1)">
      <use xlink:href="#DejaVuSans-4e"/>
      <use xlink:href="#DejaVuSans-6f" x="74.804688"/>
      <use xlink:href="#DejaVuSans-72" x="135.986328"/>
      <use xlink:href="#DejaVuSans-74" x="177.099609"/>
      <use xlink:href="#DejaVuSans-68" x="216.308594"/>
     </g>
    </g>
    <g id="line2d_60">
     <path d="M 278.667614 498.060313 
L 288.667614 498.060313 
L 298.667614 498.060313 
" style="fill: none; stroke: #ff7f0e; stroke-width: 1.5; stroke-linecap: square"/>
    </g>
    <g id="text_29">
     <!-- East -->
     <g transform="translate(306.667614 501.560313) scale(0.1 -0.1)">
      <use xlink:href="#DejaVuSans-45"/>
      <use xlink:href="#DejaVuSans-61" x="63.183594"/>
      <use xlink:href="#DejaVuSans-73" x="124.462891"/>
      <use xlink:href="#DejaVuSans-74" x="176.5625"/>
     </g>
    </g>
   </g>
  </g>
  <g id="axes_6">
   <g id="patch_30">
    <path d="M 394.363636 512.64 
L 648 512.64 
L 648 382.192941 
L 394.363636 382.192941 
z
" style="fill: #ffffff"/>
   </g>
   <g id="matplotlib.axis_11">
    <g id="xtick_26">
     <g id="line2d_61">
      <g>
       <use xlink:href="#m07cdf022f3" x="405.892562" y="512.64" style="stroke: #000000; stroke-width: 0.8"/>
      </g>
     </g>
     <g id="text_30">
      <!-- 0 -->
      <g transform="translate(402.711312 527.238438) scale(0.1 -0.1)">
       <use xlink:href="#DejaVuSans-30"/>
      </g>
     </g>
    </g>
    <g id="xtick_27">
     <g id="line2d_62">
      <g>
       <use xlink:href="#m07cdf022f3" x="463.53719" y="512.64" style="stroke: #000000; stroke-width: 0.8"/>
      </g>
     </g>
     <g id="text_31">
      <!-- 50 -->
      <g transform="translate(457.17469 527.238438) scale(0.1 -0.1)">
       <use xlink:href="#DejaVuSans-35"/>
       <use xlink:href="#DejaVuSans-30" x="63.623047"/>
      </g>
     </g>
    </g>
    <g id="xtick_28">
     <g id="line2d_63">
      <g>
       <use xlink:href="#m07cdf022f3" x="521.181818" y="512.64" style="stroke: #000000; stroke-width: 0.8"/>
      </g>
     </g>
     <g id="text_32">
      <!-- 100 -->
      <g transform="translate(511.638068 527.238438) scale(0.1 -0.1)">
       <use xlink:href="#DejaVuSans-31"/>
       <use xlink:href="#DejaVuSans-30" x="63.623047"/>
       <use xlink:href="#DejaVuSans-30" x="127.246094"/>
      </g>
     </g>
    </g>
    <g id="xtick_29">
     <g id="line2d_64">
      <g>
       <use xlink:href="#m07cdf022f3" x="578.826446" y="512.64" style="stroke: #000000; stroke-width: 0.8"/>
      </g>
     </g>
     <g id="text_33">
      <!-- 150 -->
      <g transform="translate(569.282696 527.238438) scale(0.1 -0.1)">
       <use xlink:href="#DejaVuSans-31"/>
       <use xlink:href="#DejaVuSans-35" x="63.623047"/>
       <use xlink:href="#DejaVuSans-30" x="127.246094"/>
      </g>
     </g>
    </g>
    <g id="xtick_30">
     <g id="line2d_65">
      <g>
       <use xlink:href="#m07cdf022f3" x="636.471074" y="512.64" style="stroke: #000000; stroke-width: 0.8"/>
      </g>
     </g>
     <g id="text_34">
      <!-- 200 -->
      <g transform="translate(626.927324 527.238438) scale(0.1 -0.1)">
       <use xlink:href="#DejaVuSans-32"/>
       <use xlink:href="#DejaVuSans-30" x="63.623047"/>
       <use xlink:href="#DejaVuSans-30" x="127.246094"/>
      </g>
     </g>
    </g>
    <g id="text_35">
     <!-- Time [s] -->
     <g transform="translate(496.787131 542.43625) scale(0.12 -0.12)">
      <use xlink:href="#DejaVuSans-54"/>
      <use xlink:href="#DejaVuSans-69" x="57.958984"/>
      <use xlink:href="#DejaVuSans-6d" x="85.742188"/>
      <use xlink:href="#DejaVuSans-65" x="183.154297"/>
      <use xlink:href="#DejaVuSans-20" x="244.677734"/>
      <use xlink:href="#DejaVuSans-5b" x="276.464844"/>
      <use xlink:href="#DejaVuSans-73" x="315.478516"/>
      <use xlink:href="#DejaVuSans-5d" x="367.578125"/>
     </g>
    </g>
   </g>
   <g id="matplotlib.axis_12">
    <g id="ytick_22">
     <g id="line2d_66">
      <g>
       <use xlink:href="#m0c380a1a91" x="394.363636" y="485.508483" style="stroke: #000000; stroke-width: 0.8"/>
      </g>
     </g>
    </g>
    <g id="ytick_23">
     <g id="line2d_67">
      <g>
       <use xlink:href="#m0c380a1a91" x="394.363636" y="448.3637" style="stroke: #000000; stroke-width: 0.8"/>
      </g>
     </g>
    </g>
    <g id="ytick_24">
     <g id="line2d_68">
      <g>
       <use xlink:href="#m0c380a1a91" x="394.363636" y="411.218917" style="stroke: #000000; stroke-width: 0.8"/>
      </g>
     </g>
    </g>
   </g>
   <g id="line2d_69">
    <path d="M 405.892562 448.3637 
L 416.095661 464.377747 
L 421.491198 472.42439 
L 425.97595 478.724737 
L 429.941901 483.921802 
L 433.550455 488.291529 
L 436.882314 491.984572 
L 440.006653 495.121677 
L 442.946529 497.764636 
L 445.736529 499.980046 
L 448.41124 501.824089 
L 450.970661 503.322985 
L 453.44938 504.519968 
L 455.847397 505.434298 
L 458.187769 506.091783 
L 460.493554 506.510027 
L 462.764752 506.697664 
L 465.03595 506.661935 
L 467.307149 506.402978 
L 469.601405 505.915765 
L 471.918719 505.195397 
L 474.293678 504.222079 
L 476.726281 502.982727 
L 479.239587 501.45035 
L 481.856653 499.5903 
L 484.589008 497.370599 
L 487.459711 494.746229 
L 490.491818 491.666603 
L 493.708388 488.077168 
L 497.167066 483.878187 
L 500.937025 478.943586 
L 505.133554 473.073833 
L 509.975702 465.905063 
L 516.12062 456.385179 
L 534.46314 427.705253 
L 539.29376 420.721856 
L 543.467231 415.069356 
L 547.225661 410.345133 
L 550.67281 406.361348 
L 553.88938 402.977384 
L 556.909959 400.116427 
L 559.769132 397.709022 
L 562.489959 395.703288 
L 565.095496 394.053622 
L 567.608802 392.721572 
L 570.041405 391.680693 
L 572.416364 390.904647 
L 574.733678 390.3793 
L 577.016405 390.087769 
L 579.287603 390.021418 
L 581.558802 390.178464 
L 583.841529 390.5608 
L 586.147314 391.173973 
L 588.499215 392.031907 
L 590.90876 393.150699 
L 593.387479 394.549844 
L 595.95843 396.26024 
L 598.63314 398.310838 
L 601.434669 400.743434 
L 604.386074 403.60592 
L 607.510413 406.950976 
L 610.853802 410.862163 
L 614.473884 415.446703 
L 618.451364 420.851085 
L 622.959174 427.362807 
L 628.36624 435.58206 
L 636.390372 448.235388 
L 636.471074 448.3637 
L 636.471074 448.3637 
" clip-path="url(#p4d49422dfb)" style="fill: none; stroke: #1f77b4; stroke-width: 1.5; stroke-linecap: square"/>
   </g>
   <g id="line2d_70">
    <path d="M 405.892562 390.016811 
L 408.152231 390.127388 
L 410.42343 390.460952 
L 412.717686 391.022998 
L 415.058058 391.827163 
L 417.444545 392.883851 
L 419.911736 394.222785 
L 422.459628 395.862188 
L 425.111281 397.836868 
L 427.878223 400.17836 
L 430.795041 402.942847 
L 433.884793 406.183631 
L 437.182066 409.971079 
L 440.732975 414.395324 
L 444.629752 419.614593 
L 448.999215 425.849162 
L 454.164174 433.622734 
L 461.208347 444.663481 
L 474.351322 465.309678 
L 479.620041 473.123638 
L 484.03562 479.286294 
L 487.955455 484.385053 
L 491.529421 488.677484 
L 494.838223 492.31169 
L 497.939504 495.394341 
L 500.867851 497.997317 
L 503.646322 500.175271 
L 506.309504 501.98436 
L 508.868926 503.45708 
L 511.336116 504.623232 
L 513.734132 505.513127 
L 516.074504 506.146439 
L 518.36876 506.53925 
L 520.639959 506.704228 
L 522.899628 506.646676 
L 525.170826 506.366229 
L 527.465083 505.85745 
L 529.793926 505.111271 
L 532.168884 504.115054 
L 534.613017 502.846154 
L 537.137851 501.281749 
L 539.766446 499.387137 
L 542.510331 497.130459 
L 545.392562 494.466786 
L 548.436198 491.345745 
L 551.675826 487.699625 
L 555.169091 483.425662 
L 558.973636 478.411077 
L 563.216281 472.441088 
L 568.150661 465.099077 
L 574.514628 455.203438 
L 591.243099 428.996579 
L 596.212066 421.744192 
L 600.46624 415.91743 
L 604.282314 411.059122 
L 607.775579 406.96389 
L 611.026736 403.488547 
L 614.070372 400.553545 
L 616.952603 398.076887 
L 619.696488 396.006971 
L 622.325083 394.298275 
L 624.849917 392.918001 
L 627.29405 391.831697 
L 629.669008 391.016231 
L 631.997851 390.449737 
L 634.292107 390.119633 
L 636.471074 390.016811 
L 636.471074 390.016811 
" clip-path="url(#p4d49422dfb)" style="fill: none; stroke: #ff7f0e; stroke-width: 1.5; stroke-linecap: square"/>
   </g>
   <g id="patch_31">
    <path d="M 394.363636 512.64 
L 394.363636 382.192941 
" style="fill: none; stroke: #000000; stroke-width: 0.8; stroke-linejoin: miter; stroke-linecap: square"/>
   </g>
   <g id="patch_32">
    <path d="M 648 512.64 
L 648 382.192941 
" style="fill: none; stroke: #000000; stroke-width: 0.8; stroke-linejoin: miter; stroke-linecap: square"/>
   </g>
   <g id="patch_33">
    <path d="M 394.363636 512.64 
L 648 512.64 
" style="fill: none; stroke: #000000; stroke-width: 0.8; stroke-linejoin: miter; stroke-linecap: square"/>
   </g>
   <g id="patch_34">
    <path d="M 394.363636 382.192941 
L 648 382.192941 
" style="fill: none; stroke: #000000; stroke-width: 0.8; stroke-linejoin: miter; stroke-linecap: square"/>
   </g>
   <g id="legend_4">
    <g id="patch_35">
     <path d="M 581.03125 507.64 
L 641 507.64 
Q 643 507.64 643 505.64 
L 643 477.28375 
Q 643 475.28375 641 475.28375 
L 581.03125 475.28375 
Q 579.03125 475.28375 579.03125 477.28375 
L 579.03125 505.64 
Q 579.03125 507.64 581.03125 507.64 
z
" style="fill: #ffffff; opacity: 0.8; stroke: #cccccc; stroke-linejoin: miter"/>
    </g>
    <g id="line2d_71">
     <path d="M 583.03125 483.382187 
L 593.03125 483.382187 
L 603.03125 483.382187 
" style="fill: none; stroke: #1f77b4; stroke-width: 1.5; stroke-linecap: square"/>
    </g>
    <g id="text_36">
     <!-- North -->
     <g transform="translate(611.03125 486.882187) scale(0.1 -0.1)">
      <use xlink:href="#DejaVuSans-4e"/>
      <use xlink:href="#DejaVuSans-6f" x="74.804688"/>
      <use xlink:href="#DejaVuSans-72" x="135.986328"/>
      <use xlink:href="#DejaVuSans-74" x="177.099609"/>
      <use xlink:href="#DejaVuSans-68" x="216.308594"/>
     </g>
    </g>
    <g id="line2d_72">
     <path d="M 583.03125 498.060313 
L 593.03125 498.060313 
L 603.03125 498.060313 
" style="fill: none; stroke: #ff7f0e; stroke-width: 1.5; stroke-linecap: square"/>
    </g>
    <g id="text_37">
     <!-- East -->
     <g transform="translate(611.03125 501.560313) scale(0.1 -0.1)">
      <use xlink:href="#DejaVuSans-45"/>
      <use xlink:href="#DejaVuSans-61" x="63.183594"/>
      <use xlink:href="#DejaVuSans-73" x="124.462891"/>
      <use xlink:href="#DejaVuSans-74" x="176.5625"/>
     </g>
    </g>
   </g>
  </g>
 </g>
 <defs>
  <clipPath id="p572a49e982">
   <rect x="90" y="69.12" width="253.636364" height="130.447059"/>
  </clipPath>
  <clipPath id="pacca7fee4c">
   <rect x="394.363636" y="69.12" width="253.636364" height="130.447059"/>
  </clipPath>
  <clipPath id="pe48589fa8b">
   <rect x="90" y="225.656471" width="253.636364" height="130.447059"/>
  </clipPath>
  <clipPath id="pf72326643d">
   <rect x="394.363636" y="225.656471" width="253.636364" height="130.447059"/>
  </clipPath>
  <clipPath id="pdb0331a6c5">
   <rect x="90" y="382.192941" width="253.636364" height="130.447059"/>
  </clipPath>
  <clipPath id="p4d49422dfb">
   <rect x="394.363636" y="382.192941" width="253.636364" height="130.447059"/>
  </clipPath>
 </defs>
</svg>
