<?xml version="1.0" encoding="utf-8" standalone="no"?>
<!DOCTYPE svg PUBLIC "-//W3C//DTD SVG 1.1//EN"
  "http://www.w3.org/Graphics/SVG/1.1/DTD/svg11.dtd">
<svg xmlns:xlink="http://www.w3.org/1999/xlink" width="460.8pt" height="345.6pt" viewBox="0 0 460.8 345.6" xmlns="http://www.w3.org/2000/svg" version="1.1">
 <metadata>
  <rdf:RDF xmlns:dc="http://purl.org/dc/elements/1.1/" xmlns:cc="http://creativecommons.org/ns#" xmlns:rdf="http://www.w3.org/1999/02/22-rdf-syntax-ns#">
   <cc:Work>
    <dc:type rdf:resource="http://purl.org/dc/dcmitype/StillImage"/>
    <dc:date>2024-06-03T16:53:57.049800</dc:date>
    <dc:format>image/svg+xml</dc:format>
    <dc:creator>
     <cc:Agent>
      <dc:title>Matplotlib v3.9.0, https://matplotlib.org/</dc:title>
     </cc:Agent>
    </dc:creator>
   </cc:Work>
  </rdf:RDF>
 </metadata>
 <defs>
  <style type="text/css">*{stroke-linejoin: round; stroke-linecap: butt}</style>
 </defs>
 <g id="figure_1">
  <g id="patch_1">
   <path d="M 0 345.6 
L 460.8 345.6 
L 460.8 0 
L 0 0 
z
" style="fill: #ffffff"/>
  </g>
  <g id="axes_1">
   <g id="patch_2">
    <path d="M 57.6 307.584 
L 414.72 307.584 
L 414.72 41.472 
L 57.6 41.472 
z
" style="fill: #ffffff"/>
   </g>
   <g id="matplotlib.axis_1">
    <g id="xtick_1">
     <g id="line2d_1">
      <defs>
       <path id="m264a52a642" d="M 0 0 
L 0 3.5 
" style="stroke: #000000; stroke-width: 0.8"/>
      </defs>
      <g>
       <use xlink:href="#m264a52a642" x="59.530218" y="307.584" style="stroke: #000000; stroke-width: 0.8"/>
      </g>
     </g>
     <g id="text_1">
      <!-- −1000 -->
      <g transform="translate(42.615374 322.182437) scale(0.1 -0.1)">
       <defs>
        <path id="DejaVuSans-2212" d="M 678 2272 
L 4684 2272 
L 4684 1741 
L 678 1741 
L 678 2272 
z
" transform="scale(0.015625)"/>
        <path id="DejaVuSans-31" d="M 794 531 
L 1825 531 
L 1825 4091 
L 703 3866 
L 703 4441 
L 1819 4666 
L 2450 4666 
L 2450 531 
L 3481 531 
L 3481 0 
L 794 0 
L 794 531 
z
" transform="scale(0.015625)"/>
        <path id="DejaVuSans-30" d="M 2034 4250 
Q 1547 4250 1301 3770 
Q 1056 3291 1056 2328 
Q 1056 1369 1301 889 
Q 1547 409 2034 409 
Q 2525 409 2770 889 
Q 3016 1369 3016 2328 
Q 3016 3291 2770 3770 
Q 2525 4250 2034 4250 
z
M 2034 4750 
Q 2819 4750 3233 4129 
Q 3647 3509 3647 2328 
Q 3647 1150 3233 529 
Q 2819 -91 2034 -91 
Q 1250 -91 836 529 
Q 422 1150 422 2328 
Q 422 3509 836 4129 
Q 1250 4750 2034 4750 
z
" transform="scale(0.015625)"/>
       </defs>
       <use xlink:href="#DejaVuSans-2212"/>
       <use xlink:href="#DejaVuSans-31" x="83.789062"/>
       <use xlink:href="#DejaVuSans-30" x="147.412109"/>
       <use xlink:href="#DejaVuSans-30" x="211.035156"/>
       <use xlink:href="#DejaVuSans-30" x="274.658203"/>
      </g>
     </g>
    </g>
    <g id="xtick_2">
     <g id="line2d_2">
      <g>
       <use xlink:href="#m264a52a642" x="104.709531" y="307.584" style="stroke: #000000; stroke-width: 0.8"/>
      </g>
     </g>
     <g id="text_2">
      <!-- −800 -->
      <g transform="translate(90.975937 322.182437) scale(0.1 -0.1)">
       <defs>
        <path id="DejaVuSans-38" d="M 2034 2216 
Q 1584 2216 1326 1975 
Q 1069 1734 1069 1313 
Q 1069 891 1326 650 
Q 1584 409 2034 409 
Q 2484 409 2743 651 
Q 3003 894 3003 1313 
Q 3003 1734 2745 1975 
Q 2488 2216 2034 2216 
z
M 1403 2484 
Q 997 2584 770 2862 
Q 544 3141 544 3541 
Q 544 4100 942 4425 
Q 1341 4750 2034 4750 
Q 2731 4750 3128 4425 
Q 3525 4100 3525 3541 
Q 3525 3141 3298 2862 
Q 3072 2584 2669 2484 
Q 3125 2378 3379 2068 
Q 3634 1759 3634 1313 
Q 3634 634 3220 271 
Q 2806 -91 2034 -91 
Q 1263 -91 848 271 
Q 434 634 434 1313 
Q 434 1759 690 2068 
Q 947 2378 1403 2484 
z
M 1172 3481 
Q 1172 3119 1398 2916 
Q 1625 2713 2034 2713 
Q 2441 2713 2670 2916 
Q 2900 3119 2900 3481 
Q 2900 3844 2670 4047 
Q 2441 4250 2034 4250 
Q 1625 4250 1398 4047 
Q 1172 3844 1172 3481 
z
" transform="scale(0.015625)"/>
       </defs>
       <use xlink:href="#DejaVuSans-2212"/>
       <use xlink:href="#DejaVuSans-38" x="83.789062"/>
       <use xlink:href="#DejaVuSans-30" x="147.412109"/>
       <use xlink:href="#DejaVuSans-30" x="211.035156"/>
      </g>
     </g>
    </g>
    <g id="xtick_3">
     <g id="line2d_3">
      <g>
       <use xlink:href="#m264a52a642" x="149.888844" y="307.584" style="stroke: #000000; stroke-width: 0.8"/>
      </g>
     </g>
     <g id="text_3">
      <!-- −600 -->
      <g transform="translate(136.155251 322.182437) scale(0.1 -0.1)">
       <defs>
        <path id="DejaVuSans-36" d="M 2113 2584 
Q 1688 2584 1439 2293 
Q 1191 2003 1191 1497 
Q 1191 994 1439 701 
Q 1688 409 2113 409 
Q 2538 409 2786 701 
Q 3034 994 3034 1497 
Q 3034 2003 2786 2293 
Q 2538 2584 2113 2584 
z
M 3366 4563 
L 3366 3988 
Q 3128 4100 2886 4159 
Q 2644 4219 2406 4219 
Q 1781 4219 1451 3797 
Q 1122 3375 1075 2522 
Q 1259 2794 1537 2939 
Q 1816 3084 2150 3084 
Q 2853 3084 3261 2657 
Q 3669 2231 3669 1497 
Q 3669 778 3244 343 
Q 2819 -91 2113 -91 
Q 1303 -91 875 529 
Q 447 1150 447 2328 
Q 447 3434 972 4092 
Q 1497 4750 2381 4750 
Q 2619 4750 2861 4703 
Q 3103 4656 3366 4563 
z
" transform="scale(0.015625)"/>
       </defs>
       <use xlink:href="#DejaVuSans-2212"/>
       <use xlink:href="#DejaVuSans-36" x="83.789062"/>
       <use xlink:href="#DejaVuSans-30" x="147.412109"/>
       <use xlink:href="#DejaVuSans-30" x="211.035156"/>
      </g>
     </g>
    </g>
    <g id="xtick_4">
     <g id="line2d_4">
      <g>
       <use xlink:href="#m264a52a642" x="195.068157" y="307.584" style="stroke: #000000; stroke-width: 0.8"/>
      </g>
     </g>
     <g id="text_4">
      <!-- −400 -->
      <g transform="translate(181.334564 322.182437) scale(0.1 -0.1)">
       <defs>
        <path id="DejaVuSans-34" d="M 2419 4116 
L 825 1625 
L 2419 1625 
L 2419 4116 
z
M 2253 4666 
L 3047 4666 
L 3047 1625 
L 3713 1625 
L 3713 1100 
L 3047 1100 
L 3047 0 
L 2419 0 
L 2419 1100 
L 313 1100 
L 313 1709 
L 2253 4666 
z
" transform="scale(0.015625)"/>
       </defs>
       <use xlink:href="#DejaVuSans-2212"/>
       <use xlink:href="#DejaVuSans-34" x="83.789062"/>
       <use xlink:href="#DejaVuSans-30" x="147.412109"/>
       <use xlink:href="#DejaVuSans-30" x="211.035156"/>
      </g>
     </g>
    </g>
    <g id="xtick_5">
     <g id="line2d_5">
      <g>
       <use xlink:href="#m264a52a642" x="240.247471" y="307.584" style="stroke: #000000; stroke-width: 0.8"/>
      </g>
     </g>
     <g id="text_5">
      <!-- −200 -->
      <g transform="translate(226.513877 322.182437) scale(0.1 -0.1)">
       <defs>
        <path id="DejaVuSans-32" d="M 1228 531 
L 3431 531 
L 3431 0 
L 469 0 
L 469 531 
Q 828 903 1448 1529 
Q 2069 2156 2228 2338 
Q 2531 2678 2651 2914 
Q 2772 3150 2772 3378 
Q 2772 3750 2511 3984 
Q 2250 4219 1831 4219 
Q 1534 4219 1204 4116 
Q 875 4013 500 3803 
L 500 4441 
Q 881 4594 1212 4672 
Q 1544 4750 1819 4750 
Q 2544 4750 2975 4387 
Q 3406 4025 3406 3419 
Q 3406 3131 3298 2873 
Q 3191 2616 2906 2266 
Q 2828 2175 2409 1742 
Q 1991 1309 1228 531 
z
" transform="scale(0.015625)"/>
       </defs>
       <use xlink:href="#DejaVuSans-2212"/>
       <use xlink:href="#DejaVuSans-32" x="83.789062"/>
       <use xlink:href="#DejaVuSans-30" x="147.412109"/>
       <use xlink:href="#DejaVuSans-30" x="211.035156"/>
      </g>
     </g>
    </g>
    <g id="xtick_6">
     <g id="line2d_6">
      <g>
       <use xlink:href="#m264a52a642" x="285.426784" y="307.584" style="stroke: #000000; stroke-width: 0.8"/>
      </g>
     </g>
     <g id="text_6">
      <!-- 0 -->
      <g transform="translate(282.245534 322.182437) scale(0.1 -0.1)">
       <use xlink:href="#DejaVuSans-30"/>
      </g>
     </g>
    </g>
    <g id="xtick_7">
     <g id="line2d_7">
      <g>
       <use xlink:href="#m264a52a642" x="330.606097" y="307.584" style="stroke: #000000; stroke-width: 0.8"/>
      </g>
     </g>
     <g id="text_7">
      <!-- 200 -->
      <g transform="translate(321.062347 322.182437) scale(0.1 -0.1)">
       <use xlink:href="#DejaVuSans-32"/>
       <use xlink:href="#DejaVuSans-30" x="63.623047"/>
       <use xlink:href="#DejaVuSans-30" x="127.246094"/>
      </g>
     </g>
    </g>
    <g id="xtick_8">
     <g id="line2d_8">
      <g>
       <use xlink:href="#m264a52a642" x="375.78541" y="307.584" style="stroke: #000000; stroke-width: 0.8"/>
      </g>
     </g>
     <g id="text_8">
      <!-- 400 -->
      <g transform="translate(366.24166 322.182437) scale(0.1 -0.1)">
       <use xlink:href="#DejaVuSans-34"/>
       <use xlink:href="#DejaVuSans-30" x="63.623047"/>
       <use xlink:href="#DejaVuSans-30" x="127.246094"/>
      </g>
     </g>
    </g>
   </g>
   <g id="matplotlib.axis_2">
    <g id="ytick_1">
     <g id="line2d_9">
      <defs>
       <path id="m7b9d75753e" d="M 0 0 
L -3.5 0 
" style="stroke: #000000; stroke-width: 0.8"/>
      </defs>
      <g>
       <use xlink:href="#m7b9d75753e" x="57.6" y="270.281896" style="stroke: #000000; stroke-width: 0.8"/>
      </g>
     </g>
     <g id="text_9">
      <!-- −600 -->
      <g transform="translate(23.132812 274.081115) scale(0.1 -0.1)">
       <use xlink:href="#DejaVuSans-2212"/>
       <use xlink:href="#DejaVuSans-36" x="83.789062"/>
       <use xlink:href="#DejaVuSans-30" x="147.412109"/>
       <use xlink:href="#DejaVuSans-30" x="211.035156"/>
      </g>
     </g>
    </g>
    <g id="ytick_2">
     <g id="line2d_10">
      <g>
       <use xlink:href="#m7b9d75753e" x="57.6" y="230.957677" style="stroke: #000000; stroke-width: 0.8"/>
      </g>
     </g>
     <g id="text_10">
      <!-- −400 -->
      <g transform="translate(23.132812 234.756896) scale(0.1 -0.1)">
       <use xlink:href="#DejaVuSans-2212"/>
       <use xlink:href="#DejaVuSans-34" x="83.789062"/>
       <use xlink:href="#DejaVuSans-30" x="147.412109"/>
       <use xlink:href="#DejaVuSans-30" x="211.035156"/>
      </g>
     </g>
    </g>
    <g id="ytick_3">
     <g id="line2d_11">
      <g>
       <use xlink:href="#m7b9d75753e" x="57.6" y="191.633458" style="stroke: #000000; stroke-width: 0.8"/>
      </g>
     </g>
     <g id="text_11">
      <!-- −200 -->
      <g transform="translate(23.132812 195.432676) scale(0.1 -0.1)">
       <use xlink:href="#DejaVuSans-2212"/>
       <use xlink:href="#DejaVuSans-32" x="83.789062"/>
       <use xlink:href="#DejaVuSans-30" x="147.412109"/>
       <use xlink:href="#DejaVuSans-30" x="211.035156"/>
      </g>
     </g>
    </g>
    <g id="ytick_4">
     <g id="line2d_12">
      <g>
       <use xlink:href="#m7b9d75753e" x="57.6" y="152.309238" style="stroke: #000000; stroke-width: 0.8"/>
      </g>
     </g>
     <g id="text_12">
      <!-- 0 -->
      <g transform="translate(44.2375 156.108457) scale(0.1 -0.1)">
       <use xlink:href="#DejaVuSans-30"/>
      </g>
     </g>
    </g>
    <g id="ytick_5">
     <g id="line2d_13">
      <g>
       <use xlink:href="#m7b9d75753e" x="57.6" y="112.985019" style="stroke: #000000; stroke-width: 0.8"/>
      </g>
     </g>
     <g id="text_13">
      <!-- 200 -->
      <g transform="translate(31.5125 116.784238) scale(0.1 -0.1)">
       <use xlink:href="#DejaVuSans-32"/>
       <use xlink:href="#DejaVuSans-30" x="63.623047"/>
       <use xlink:href="#DejaVuSans-30" x="127.246094"/>
      </g>
     </g>
    </g>
    <g id="ytick_6">
     <g id="line2d_14">
      <g>
       <use xlink:href="#m7b9d75753e" x="57.6" y="73.660799" style="stroke: #000000; stroke-width: 0.8"/>
      </g>
     </g>
     <g id="text_14">
      <!-- 400 -->
      <g transform="translate(31.5125 77.460018) scale(0.1 -0.1)">
       <use xlink:href="#DejaVuSans-34"/>
       <use xlink:href="#DejaVuSans-30" x="63.623047"/>
       <use xlink:href="#DejaVuSans-30" x="127.246094"/>
      </g>
     </g>
    </g>
   </g>
   <g id="line2d_15">
    <path d="M 285.107056 53.901025 
L 290.115184 54.605866 
L 295.064 55.525575 
L 299.973304 56.664276 
L 304.831647 58.019919 
L 309.627934 59.588218 
L 314.319056 61.356043 
L 318.897759 63.318168 
L 323.384722 65.483648 
L 327.770631 67.847685 
L 332.046428 70.40476 
L 336.175676 73.132412 
L 340.178866 76.043312 
L 344.021877 79.113132 
L 347.697929 82.332982 
L 351.197553 85.692705 
L 354.511535 89.182035 
L 357.658061 92.817374 
L 360.630286 96.591613 
L 363.402683 100.470537 
L 365.990367 104.474456 
L 368.352924 108.537522 
L 370.538228 112.738782 
L 372.52604 117.042988 
L 374.313435 121.444393 
L 375.896632 125.934784 
L 377.260386 130.473487 
L 378.404052 135.05167 
L 379.33514 139.695122 
L 380.045284 144.362406 
L 380.537061 149.079067 
L 380.809332 153.837117 
L 380.860799 158.627914 
L 380.689117 163.441896 
L 380.29301 168.271281 
L 379.671322 173.107993 
L 378.824297 177.943478 
L 377.752322 182.769388 
L 376.447173 187.61364 
L 374.917153 192.436304 
L 373.163185 197.230304 
L 371.172323 202.022272 
L 368.957555 206.772184 
L 366.521122 211.472115 
L 363.864605 216.115384 
L 360.968547 220.727491 
L 357.855252 225.268498 
L 354.528109 229.730485 
L 350.965817 234.136325 
L 347.195405 238.445251 
L 343.196574 242.676211 
L 339.00308 246.790109 
L 334.590902 250.806959 
L 329.994959 254.690488 
L 325.254335 258.406727 
L 320.274275 262.026138 
L 315.129047 265.489973 
L 309.828964 268.791264 
L 304.34666 271.944365 
L 298.728724 274.919305 
L 292.945341 277.729134 
L 287.047416 280.346769 
L 281.047999 282.764995 
L 274.960012 284.979105 
L 268.795012 286.986346 
L 262.519739 288.796173 
L 256.187969 290.392046 
L 249.810813 291.769706 
L 243.357031 292.936863 
L 236.838176 293.889834 
L 230.267447 294.625352 
L 223.699213 295.136073 
L 217.144569 295.421153 
L 210.61432 295.48235 
L 204.075522 295.320638 
L 197.540623 294.935387 
L 191.106364 294.334228 
L 184.740126 293.517605 
L 178.452535 292.487533 
L 172.255397 291.247882 
L 166.121582 289.795092 
L 160.064758 288.132879 
L 154.097305 286.264139 
L 148.347966 284.232756 
L 142.754006 282.020647 
L 137.325605 279.634995 
L 132.070543 277.084138 
L 126.997153 274.374788 
L 122.17765 271.550858 
L 117.584794 268.603022 
L 113.222292 265.539546 
L 109.092368 262.36873 
L 105.171195 259.077339 
L 101.488288 255.697114 
L 97.997117 252.192113 
L 94.72788 248.595459 
L 91.705893 244.941489 
L 88.93128 241.240786 
L 86.386725 237.480134 
L 84.077345 233.67028 
L 82.003441 229.821539 
L 80.164284 225.943327 
L 78.572711 222.072177 
L 77.205357 218.165528 
L 76.072739 214.26121 
L 75.167977 210.344955 
L 74.497607 206.453378 
L 74.05814 202.594545 
L 73.851834 198.829115 
L 73.870867 195.137911 
L 74.111996 191.502264 
L 74.57015 187.954782 
L 75.23973 184.503603 
L 76.119916 181.129827 
L 77.207744 177.840356 
L 78.498691 174.641589 
L 79.998205 171.5191 
L 81.702243 168.482432 
L 83.60853 165.541066 
L 85.712425 162.703649 
L 87.996261 159.998067 
L 90.453021 157.432258 
L 93.090894 154.998194 
L 95.883222 152.722277 
L 98.840249 150.599211 
L 101.934985 148.650271 
L 105.180035 146.869361 
L 108.590844 145.251759 
L 112.115886 143.825334 
L 115.749871 142.595146 
L 119.484148 141.565732 
L 123.334115 140.735164 
L 127.292132 140.109819 
L 131.295214 139.7023 
L 135.358013 139.512599 
L 139.499815 139.543098 
L 143.659674 139.796315 
L 147.41356 140.212531 
L 147.41356 140.212531 
" clip-path="url(#pd45bc4297e)" style="fill: none; stroke: #1f77b4; stroke-width: 1.5; stroke-linecap: square"/>
   </g>
   <g id="line2d_16">
    <path d="M 285.426784 53.99869 
L 290.782821 54.109287 
L 296.126807 54.440828 
L 301.446718 54.992568 
L 306.730586 55.763265 
L 311.966521 56.751186 
L 317.142743 57.954107 
L 322.247606 59.369322 
L 327.236663 60.98221 
L 332.132891 62.797867 
L 336.925421 64.812261 
L 341.572824 67.005563 
L 346.097225 69.385745 
L 350.488712 71.947591 
L 354.709645 74.66654 
L 358.780826 77.553311 
L 362.66757 80.580537 
L 366.38961 83.760714 
L 369.915465 87.063954 
L 373.263603 90.504433 
L 376.405959 94.050034 
L 379.359558 97.716507 
L 382.118272 101.496244 
L 384.659435 105.354268 
L 386.997547 109.308371 
L 389.113757 113.322109 
L 391.020737 117.414519 
L 392.71464 121.577342 
L 394.182475 125.77244 
L 395.433909 130.020339 
L 396.466455 134.312589 
L 397.278056 138.640648 
L 397.86373 142.965158 
L 398.22882 147.308 
L 398.372609 151.660654 
L 398.294814 156.014581 
L 397.995588 160.361238 
L 397.475519 164.692098 
L 396.735626 168.998665 
L 395.76979 173.302663 
L 394.584396 177.564889 
L 393.181802 181.776862 
L 391.5648 185.930201 
L 389.722992 190.045163 
L 387.670725 194.083978 
L 385.41214 198.038496 
L 382.933892 201.927402 
L 380.256122 205.714779 
L 377.384312 209.392877 
L 374.302445 212.978475 
L 371.036184 216.438201 
L 367.567956 219.787341 
L 363.92695 222.994546 
L 360.094203 226.07349 
L 356.102239 228.995143 
L 351.930894 231.771464 
L 347.615804 234.376032 
L 343.166295 236.803217 
L 338.560675 239.062306 
L 333.838652 241.131341 
L 328.977834 243.017701 
L 324.020321 244.702667 
L 318.97712 246.182495 
L 313.825087 247.461672 
L 308.60916 248.526761 
L 303.341073 249.375365 
L 298.03268 250.005576 
L 292.695925 250.415976 
L 287.342814 250.60564 
L 281.985393 250.574143 
L 276.635714 250.321555 
L 271.305815 249.848445 
L 266.007687 249.155876 
L 260.753251 248.245408 
L 255.55433 247.119089 
L 250.422619 245.779452 
L 245.402846 244.240462 
L 240.471935 242.497361 
L 235.640836 240.55402 
L 230.920274 238.414753 
L 226.35097 236.100469 
L 221.911087 233.602619 
L 217.638729 230.945216 
L 213.512893 228.117845 
L 209.56878 225.147364 
L 205.786423 222.021568 
L 202.173887 218.74712 
L 198.761625 215.354706 
L 195.531658 211.829679 
L 192.51095 208.204866 
L 189.683016 204.464084 
L 187.071165 200.641992 
L 184.660571 196.721001 
L 182.470752 192.73729 
L 180.488687 188.671998 
L 178.718377 184.533331 
L 177.173512 180.359241 
L 175.844048 176.129338 
L 174.732628 171.852038 
L 173.841465 167.535853 
L 173.176264 163.220065 
L 172.731283 158.882871 
L 172.507394 154.532781 
L 172.505037 150.178328 
L 172.724215 145.828057 
L 173.1645 141.4905 
L 173.825027 137.174168 
L 174.704501 132.887529 
L 175.809744 128.609017 
L 177.133101 124.377663 
L 178.671938 120.201887 
L 180.423194 116.089997 
L 182.397919 112.022001 
L 184.580546 108.0353 
L 186.96667 104.137939 
L 189.570239 100.311569 
L 192.369952 96.591598 
L 195.381494 92.961011 
L 198.579856 89.453555 
L 201.982312 86.053687 
L 205.560287 82.793183 
L 209.332475 79.65809 
L 213.266922 76.677915 
L 217.355239 73.859012 
L 221.617984 71.189939 
L 226.018648 68.696201 
L 230.578736 66.368187 
L 235.258983 64.228448 
L 240.081631 62.269268 
L 245.004956 60.51 
L 250.018029 58.954549 
L 255.109717 57.606368 
L 260.303311 56.461577 
L 265.55343 55.532438 
L 270.848264 54.821042 
L 276.175899 54.328989 
L 281.524348 54.057386 
L 285.3913 53.998695 
L 285.3913 53.998695 
" clip-path="url(#pd45bc4297e)" style="fill: none; stroke: #ff7f0e; stroke-width: 1.5; stroke-linecap: square"/>
   </g>
   <g id="line2d_17">
    <path d="M 398.099197 158.706941 
" clip-path="url(#pd45bc4297e)" style="fill: none; stroke: #2ca02c; stroke-width: 1.5; stroke-linecap: square"/>
    <defs>
     <path id="mc803257878" d="M -3 3 
L 3 -3 
M -3 -3 
L 3 3 
" style="stroke: #2ca02c"/>
    </defs>
    <g clip-path="url(#pd45bc4297e)">
     <use xlink:href="#mc803257878" x="398.487273" y="152.58753" style="fill: #2ca02c; stroke: #2ca02c"/>
     <use xlink:href="#mc803257878" x="398.120956" y="146.218976" style="fill: #2ca02c; stroke: #2ca02c"/>
     <use xlink:href="#mc803257878" x="397.630746" y="140.055044" style="fill: #2ca02c; stroke: #2ca02c"/>
     <use xlink:href="#mc803257878" x="396.718489" y="134.045423" style="fill: #2ca02c; stroke: #2ca02c"/>
     <use xlink:href="#mc803257878" x="394.773694" y="127.892111" style="fill: #2ca02c; stroke: #2ca02c"/>
     <use xlink:href="#mc803257878" x="392.794094" y="121.850163" style="fill: #2ca02c; stroke: #2ca02c"/>
     <use xlink:href="#mc803257878" x="390.80018" y="115.747848" style="fill: #2ca02c; stroke: #2ca02c"/>
     <use xlink:href="#mc803257878" x="387.798807" y="110.416317" style="fill: #2ca02c; stroke: #2ca02c"/>
     <use xlink:href="#mc803257878" x="384.298066" y="104.89713" style="fill: #2ca02c; stroke: #2ca02c"/>
     <use xlink:href="#mc803257878" x="380.914736" y="99.64645" style="fill: #2ca02c; stroke: #2ca02c"/>
     <use xlink:href="#mc803257878" x="376.69918" y="94.901019" style="fill: #2ca02c; stroke: #2ca02c"/>
     <use xlink:href="#mc803257878" x="372.349725" y="89.648949" style="fill: #2ca02c; stroke: #2ca02c"/>
     <use xlink:href="#mc803257878" x="367.817197" y="84.999194" style="fill: #2ca02c; stroke: #2ca02c"/>
     <use xlink:href="#mc803257878" x="362.313001" y="80.159607" style="fill: #2ca02c; stroke: #2ca02c"/>
     <use xlink:href="#mc803257878" x="357.033076" y="76.597481" style="fill: #2ca02c; stroke: #2ca02c"/>
     <use xlink:href="#mc803257878" x="351.6891" y="72.715043" style="fill: #2ca02c; stroke: #2ca02c"/>
     <use xlink:href="#mc803257878" x="345.718705" y="69.309722" style="fill: #2ca02c; stroke: #2ca02c"/>
     <use xlink:href="#mc803257878" x="339.911021" y="66.388835" style="fill: #2ca02c; stroke: #2ca02c"/>
     <use xlink:href="#mc803257878" x="333.312704" y="63.130491" style="fill: #2ca02c; stroke: #2ca02c"/>
     <use xlink:href="#mc803257878" x="326.686785" y="60.754556" style="fill: #2ca02c; stroke: #2ca02c"/>
     <use xlink:href="#mc803257878" x="320.660808" y="58.654817" style="fill: #2ca02c; stroke: #2ca02c"/>
     <use xlink:href="#mc803257878" x="313.464877" y="57.266101" style="fill: #2ca02c; stroke: #2ca02c"/>
     <use xlink:href="#mc803257878" x="306.606436" y="55.464221" style="fill: #2ca02c; stroke: #2ca02c"/>
     <use xlink:href="#mc803257878" x="299.261112" y="55.049531" style="fill: #2ca02c; stroke: #2ca02c"/>
     <use xlink:href="#mc803257878" x="292.395891" y="54.077295" style="fill: #2ca02c; stroke: #2ca02c"/>
     <use xlink:href="#mc803257878" x="285.451841" y="53.568" style="fill: #2ca02c; stroke: #2ca02c"/>
     <use xlink:href="#mc803257878" x="278.074697" y="54.387444" style="fill: #2ca02c; stroke: #2ca02c"/>
     <use xlink:href="#mc803257878" x="271.355479" y="54.885244" style="fill: #2ca02c; stroke: #2ca02c"/>
     <use xlink:href="#mc803257878" x="264.126704" y="55.720446" style="fill: #2ca02c; stroke: #2ca02c"/>
     <use xlink:href="#mc803257878" x="257.271795" y="57.18629" style="fill: #2ca02c; stroke: #2ca02c"/>
     <use xlink:href="#mc803257878" x="250.387921" y="59.115244" style="fill: #2ca02c; stroke: #2ca02c"/>
     <use xlink:href="#mc803257878" x="244.266171" y="60.888921" style="fill: #2ca02c; stroke: #2ca02c"/>
     <use xlink:href="#mc803257878" x="237.332695" y="63.564066" style="fill: #2ca02c; stroke: #2ca02c"/>
     <use xlink:href="#mc803257878" x="230.7746" y="66.06593" style="fill: #2ca02c; stroke: #2ca02c"/>
     <use xlink:href="#mc803257878" x="225.091877" y="69.483675" style="fill: #2ca02c; stroke: #2ca02c"/>
     <use xlink:href="#mc803257878" x="218.761664" y="72.469584" style="fill: #2ca02c; stroke: #2ca02c"/>
     <use xlink:href="#mc803257878" x="213.47802" y="76.713663" style="fill: #2ca02c; stroke: #2ca02c"/>
     <use xlink:href="#mc803257878" x="207.665681" y="80.707257" style="fill: #2ca02c; stroke: #2ca02c"/>
     <use xlink:href="#mc803257878" x="202.790996" y="84.851082" style="fill: #2ca02c; stroke: #2ca02c"/>
     <use xlink:href="#mc803257878" x="198.443106" y="89.88575" style="fill: #2ca02c; stroke: #2ca02c"/>
     <use xlink:href="#mc803257878" x="194.21652" y="94.479024" style="fill: #2ca02c; stroke: #2ca02c"/>
     <use xlink:href="#mc803257878" x="190.100106" y="99.3748" style="fill: #2ca02c; stroke: #2ca02c"/>
     <use xlink:href="#mc803257878" x="186.423324" y="105.263835" style="fill: #2ca02c; stroke: #2ca02c"/>
     <use xlink:href="#mc803257878" x="183.160104" y="110.41434" style="fill: #2ca02c; stroke: #2ca02c"/>
     <use xlink:href="#mc803257878" x="180.076133" y="116.067613" style="fill: #2ca02c; stroke: #2ca02c"/>
     <use xlink:href="#mc803257878" x="177.843973" y="121.775885" style="fill: #2ca02c; stroke: #2ca02c"/>
     <use xlink:href="#mc803257878" x="175.922922" y="128.10361" style="fill: #2ca02c; stroke: #2ca02c"/>
     <use xlink:href="#mc803257878" x="174.717926" y="134.147308" style="fill: #2ca02c; stroke: #2ca02c"/>
     <use xlink:href="#mc803257878" x="173.446754" y="139.885035" style="fill: #2ca02c; stroke: #2ca02c"/>
     <use xlink:href="#mc803257878" x="172.303114" y="146.077874" style="fill: #2ca02c; stroke: #2ca02c"/>
     <use xlink:href="#mc803257878" x="172.55171" y="152.259986" style="fill: #2ca02c; stroke: #2ca02c"/>
     <use xlink:href="#mc803257878" x="172.61439" y="158.41409" style="fill: #2ca02c; stroke: #2ca02c"/>
     <use xlink:href="#mc803257878" x="173.216217" y="164.764524" style="fill: #2ca02c; stroke: #2ca02c"/>
     <use xlink:href="#mc803257878" x="174.617301" y="170.685132" style="fill: #2ca02c; stroke: #2ca02c"/>
     <use xlink:href="#mc803257878" x="176.259878" y="176.700453" style="fill: #2ca02c; stroke: #2ca02c"/>
     <use xlink:href="#mc803257878" x="178.216956" y="182.829325" style="fill: #2ca02c; stroke: #2ca02c"/>
     <use xlink:href="#mc803257878" x="180.22055" y="188.132914" style="fill: #2ca02c; stroke: #2ca02c"/>
     <use xlink:href="#mc803257878" x="183.158272" y="194.074668" style="fill: #2ca02c; stroke: #2ca02c"/>
     <use xlink:href="#mc803257878" x="186.52428" y="199.904942" style="fill: #2ca02c; stroke: #2ca02c"/>
     <use xlink:href="#mc803257878" x="190.281767" y="204.857572" style="fill: #2ca02c; stroke: #2ca02c"/>
     <use xlink:href="#mc803257878" x="193.94146" y="210.286372" style="fill: #2ca02c; stroke: #2ca02c"/>
     <use xlink:href="#mc803257878" x="198.356696" y="214.819983" style="fill: #2ca02c; stroke: #2ca02c"/>
     <use xlink:href="#mc803257878" x="202.841112" y="219.379635" style="fill: #2ca02c; stroke: #2ca02c"/>
     <use xlink:href="#mc803257878" x="207.838145" y="224.135907" style="fill: #2ca02c; stroke: #2ca02c"/>
     <use xlink:href="#mc803257878" x="213.614385" y="227.869398" style="fill: #2ca02c; stroke: #2ca02c"/>
     <use xlink:href="#mc803257878" x="219.343819" y="231.762981" style="fill: #2ca02c; stroke: #2ca02c"/>
     <use xlink:href="#mc803257878" x="224.889801" y="235.153945" style="fill: #2ca02c; stroke: #2ca02c"/>
     <use xlink:href="#mc803257878" x="231.240228" y="238.086479" style="fill: #2ca02c; stroke: #2ca02c"/>
     <use xlink:href="#mc803257878" x="237.417436" y="241.311531" style="fill: #2ca02c; stroke: #2ca02c"/>
     <use xlink:href="#mc803257878" x="243.702017" y="243.864275" style="fill: #2ca02c; stroke: #2ca02c"/>
     <use xlink:href="#mc803257878" x="250.605483" y="245.983023" style="fill: #2ca02c; stroke: #2ca02c"/>
     <use xlink:href="#mc803257878" x="257.685125" y="247.691586" style="fill: #2ca02c; stroke: #2ca02c"/>
     <use xlink:href="#mc803257878" x="264.254293" y="248.893596" style="fill: #2ca02c; stroke: #2ca02c"/>
     <use xlink:href="#mc803257878" x="271.624058" y="249.777501" style="fill: #2ca02c; stroke: #2ca02c"/>
     <use xlink:href="#mc803257878" x="277.742911" y="250.37139" style="fill: #2ca02c; stroke: #2ca02c"/>
     <use xlink:href="#mc803257878" x="285.612449" y="250.457145" style="fill: #2ca02c; stroke: #2ca02c"/>
     <use xlink:href="#mc803257878" x="292.538529" y="250.423237" style="fill: #2ca02c; stroke: #2ca02c"/>
     <use xlink:href="#mc803257878" x="299.515413" y="249.558783" style="fill: #2ca02c; stroke: #2ca02c"/>
     <use xlink:href="#mc803257878" x="306.61191" y="248.930474" style="fill: #2ca02c; stroke: #2ca02c"/>
     <use xlink:href="#mc803257878" x="313.066895" y="246.996337" style="fill: #2ca02c; stroke: #2ca02c"/>
     <use xlink:href="#mc803257878" x="320.2801" y="245.685107" style="fill: #2ca02c; stroke: #2ca02c"/>
     <use xlink:href="#mc803257878" x="327.08649" y="243.88461" style="fill: #2ca02c; stroke: #2ca02c"/>
     <use xlink:href="#mc803257878" x="333.851675" y="241.473842" style="fill: #2ca02c; stroke: #2ca02c"/>
     <use xlink:href="#mc803257878" x="339.722959" y="238.364564" style="fill: #2ca02c; stroke: #2ca02c"/>
     <use xlink:href="#mc803257878" x="345.764864" y="235.359517" style="fill: #2ca02c; stroke: #2ca02c"/>
     <use xlink:href="#mc803257878" x="351.702774" y="231.703755" style="fill: #2ca02c; stroke: #2ca02c"/>
     <use xlink:href="#mc803257878" x="357.629515" y="227.965769" style="fill: #2ca02c; stroke: #2ca02c"/>
     <use xlink:href="#mc803257878" x="362.819468" y="223.988864" style="fill: #2ca02c; stroke: #2ca02c"/>
     <use xlink:href="#mc803257878" x="367.642868" y="219.773937" style="fill: #2ca02c; stroke: #2ca02c"/>
     <use xlink:href="#mc803257878" x="372.570877" y="215.272591" style="fill: #2ca02c; stroke: #2ca02c"/>
     <use xlink:href="#mc803257878" x="376.825794" y="210.182523" style="fill: #2ca02c; stroke: #2ca02c"/>
     <use xlink:href="#mc803257878" x="381.010987" y="204.818278" style="fill: #2ca02c; stroke: #2ca02c"/>
     <use xlink:href="#mc803257878" x="384.245527" y="199.628611" style="fill: #2ca02c; stroke: #2ca02c"/>
     <use xlink:href="#mc803257878" x="387.551428" y="194.412772" style="fill: #2ca02c; stroke: #2ca02c"/>
     <use xlink:href="#mc803257878" x="390.354865" y="188.465714" style="fill: #2ca02c; stroke: #2ca02c"/>
     <use xlink:href="#mc803257878" x="392.516381" y="182.613107" style="fill: #2ca02c; stroke: #2ca02c"/>
     <use xlink:href="#mc803257878" x="394.893481" y="176.931862" style="fill: #2ca02c; stroke: #2ca02c"/>
     <use xlink:href="#mc803257878" x="396.433414" y="170.700572" style="fill: #2ca02c; stroke: #2ca02c"/>
     <use xlink:href="#mc803257878" x="397.485591" y="164.619372" style="fill: #2ca02c; stroke: #2ca02c"/>
     <use xlink:href="#mc803257878" x="398.099197" y="158.706941" style="fill: #2ca02c; stroke: #2ca02c"/>
    </g>
   </g>
   <g id="patch_3">
    <path d="M 57.6 307.584 
L 57.6 41.472 
" style="fill: none; stroke: #000000; stroke-width: 0.8; stroke-linejoin: miter; stroke-linecap: square"/>
   </g>
   <g id="patch_4">
    <path d="M 414.72 307.584 
L 414.72 41.472 
" style="fill: none; stroke: #000000; stroke-width: 0.8; stroke-linejoin: miter; stroke-linecap: square"/>
   </g>
   <g id="patch_5">
    <path d="M 57.6 307.584 
L 414.72 307.584 
" style="fill: none; stroke: #000000; stroke-width: 0.8; stroke-linejoin: miter; stroke-linecap: square"/>
   </g>
   <g id="patch_6">
    <path d="M 57.6 41.472 
L 414.72 41.472 
" style="fill: none; stroke: #000000; stroke-width: 0.8; stroke-linejoin: miter; stroke-linecap: square"/>
   </g>
   <g id="legend_1">
    <g id="patch_7">
     <path d="M 64.6 93.506375 
L 149.85 93.506375 
Q 151.85 93.506375 151.85 91.506375 
L 151.85 48.472 
Q 151.85 46.472 149.85 46.472 
L 64.6 46.472 
Q 62.6 46.472 62.6 48.472 
L 62.6 91.506375 
Q 62.6 93.506375 64.6 93.506375 
z
" style="fill: #ffffff; opacity: 0.8; stroke: #cccccc; stroke-linejoin: miter"/>
    </g>
    <g id="line2d_18">
     <path d="M 66.6 54.570438 
L 76.6 54.570438 
L 86.6 54.570438 
" style="fill: none; stroke: #1f77b4; stroke-width: 1.5; stroke-linecap: square"/>
    </g>
    <g id="text_15">
     <!-- Estimation -->
     <g transform="translate(94.6 58.070438) scale(0.1 -0.1)">
      <defs>
       <path id="DejaVuSans-45" d="M 628 4666 
L 3578 4666 
L 3578 4134 
L 1259 4134 
L 1259 2753 
L 3481 2753 
L 3481 2222 
L 1259 2222 
L 1259 531 
L 3634 531 
L 3634 0 
L 628 0 
L 628 4666 
z
" transform="scale(0.015625)"/>
       <path id="DejaVuSans-73" d="M 2834 3397 
L 2834 2853 
Q 2591 2978 2328 3040 
Q 2066 3103 1784 3103 
Q 1356 3103 1142 2972 
Q 928 2841 928 2578 
Q 928 2378 1081 2264 
Q 1234 2150 1697 2047 
L 1894 2003 
Q 2506 1872 2764 1633 
Q 3022 1394 3022 966 
Q 3022 478 2636 193 
Q 2250 -91 1575 -91 
Q 1294 -91 989 -36 
Q 684 19 347 128 
L 347 722 
Q 666 556 975 473 
Q 1284 391 1588 391 
Q 1994 391 2212 530 
Q 2431 669 2431 922 
Q 2431 1156 2273 1281 
Q 2116 1406 1581 1522 
L 1381 1569 
Q 847 1681 609 1914 
Q 372 2147 372 2553 
Q 372 3047 722 3315 
Q 1072 3584 1716 3584 
Q 2034 3584 2315 3537 
Q 2597 3491 2834 3397 
z
" transform="scale(0.015625)"/>
       <path id="DejaVuSans-74" d="M 1172 4494 
L 1172 3500 
L 2356 3500 
L 2356 3053 
L 1172 3053 
L 1172 1153 
Q 1172 725 1289 603 
Q 1406 481 1766 481 
L 2356 481 
L 2356 0 
L 1766 0 
Q 1100 0 847 248 
Q 594 497 594 1153 
L 594 3053 
L 172 3053 
L 172 3500 
L 594 3500 
L 594 4494 
L 1172 4494 
z
" transform="scale(0.015625)"/>
       <path id="DejaVuSans-69" d="M 603 3500 
L 1178 3500 
L 1178 0 
L 603 0 
L 603 3500 
z
M 603 4863 
L 1178 4863 
L 1178 4134 
L 603 4134 
L 603 4863 
z
" transform="scale(0.015625)"/>
       <path id="DejaVuSans-6d" d="M 3328 2828 
Q 3544 3216 3844 3400 
Q 4144 3584 4550 3584 
Q 5097 3584 5394 3201 
Q 5691 2819 5691 2113 
L 5691 0 
L 5113 0 
L 5113 2094 
Q 5113 2597 4934 2840 
Q 4756 3084 4391 3084 
Q 3944 3084 3684 2787 
Q 3425 2491 3425 1978 
L 3425 0 
L 2847 0 
L 2847 2094 
Q 2847 2600 2669 2842 
Q 2491 3084 2119 3084 
Q 1678 3084 1418 2786 
Q 1159 2488 1159 1978 
L 1159 0 
L 581 0 
L 581 3500 
L 1159 3500 
L 1159 2956 
Q 1356 3278 1631 3431 
Q 1906 3584 2284 3584 
Q 2666 3584 2933 3390 
Q 3200 3197 3328 2828 
z
" transform="scale(0.015625)"/>
       <path id="DejaVuSans-61" d="M 2194 1759 
Q 1497 1759 1228 1600 
Q 959 1441 959 1056 
Q 959 750 1161 570 
Q 1363 391 1709 391 
Q 2188 391 2477 730 
Q 2766 1069 2766 1631 
L 2766 1759 
L 2194 1759 
z
M 3341 1997 
L 3341 0 
L 2766 0 
L 2766 531 
Q 2569 213 2275 61 
Q 1981 -91 1556 -91 
Q 1019 -91 701 211 
Q 384 513 384 1019 
Q 384 1609 779 1909 
Q 1175 2209 1959 2209 
L 2766 2209 
L 2766 2266 
Q 2766 2663 2505 2880 
Q 2244 3097 1772 3097 
Q 1472 3097 1187 3025 
Q 903 2953 641 2809 
L 641 3341 
Q 956 3463 1253 3523 
Q 1550 3584 1831 3584 
Q 2591 3584 2966 3190 
Q 3341 2797 3341 1997 
z
" transform="scale(0.015625)"/>
       <path id="DejaVuSans-6f" d="M 1959 3097 
Q 1497 3097 1228 2736 
Q 959 2375 959 1747 
Q 959 1119 1226 758 
Q 1494 397 1959 397 
Q 2419 397 2687 759 
Q 2956 1122 2956 1747 
Q 2956 2369 2687 2733 
Q 2419 3097 1959 3097 
z
M 1959 3584 
Q 2709 3584 3137 3096 
Q 3566 2609 3566 1747 
Q 3566 888 3137 398 
Q 2709 -91 1959 -91 
Q 1206 -91 779 398 
Q 353 888 353 1747 
Q 353 2609 779 3096 
Q 1206 3584 1959 3584 
z
" transform="scale(0.015625)"/>
       <path id="DejaVuSans-6e" d="M 3513 2113 
L 3513 0 
L 2938 0 
L 2938 2094 
Q 2938 2591 2744 2837 
Q 2550 3084 2163 3084 
Q 1697 3084 1428 2787 
Q 1159 2491 1159 1978 
L 1159 0 
L 581 0 
L 581 3500 
L 1159 3500 
L 1159 2956 
Q 1366 3272 1645 3428 
Q 1925 3584 2291 3584 
Q 2894 3584 3203 3211 
Q 3513 2838 3513 2113 
z
" transform="scale(0.015625)"/>
      </defs>
      <use xlink:href="#DejaVuSans-45"/>
      <use xlink:href="#DejaVuSans-73" x="63.183594"/>
      <use xlink:href="#DejaVuSans-74" x="115.283203"/>
      <use xlink:href="#DejaVuSans-69" x="154.492188"/>
      <use xlink:href="#DejaVuSans-6d" x="182.275391"/>
      <use xlink:href="#DejaVuSans-61" x="279.6875"/>
      <use xlink:href="#DejaVuSans-74" x="340.966797"/>
      <use xlink:href="#DejaVuSans-69" x="380.175781"/>
      <use xlink:href="#DejaVuSans-6f" x="407.958984"/>
      <use xlink:href="#DejaVuSans-6e" x="469.140625"/>
     </g>
    </g>
    <g id="line2d_19">
     <path d="M 66.6 69.248563 
L 76.6 69.248563 
L 86.6 69.248563 
" style="fill: none; stroke: #ff7f0e; stroke-width: 1.5; stroke-linecap: square"/>
    </g>
    <g id="text_16">
     <!-- Truth -->
     <g transform="translate(94.6 72.748563) scale(0.1 -0.1)">
      <defs>
       <path id="DejaVuSans-54" d="M -19 4666 
L 3928 4666 
L 3928 4134 
L 2272 4134 
L 2272 0 
L 1638 0 
L 1638 4134 
L -19 4134 
L -19 4666 
z
" transform="scale(0.015625)"/>
       <path id="DejaVuSans-72" d="M 2631 2963 
Q 2534 3019 2420 3045 
Q 2306 3072 2169 3072 
Q 1681 3072 1420 2755 
Q 1159 2438 1159 1844 
L 1159 0 
L 581 0 
L 581 3500 
L 1159 3500 
L 1159 2956 
Q 1341 3275 1631 3429 
Q 1922 3584 2338 3584 
Q 2397 3584 2469 3576 
Q 2541 3569 2628 3553 
L 2631 2963 
z
" transform="scale(0.015625)"/>
       <path id="DejaVuSans-75" d="M 544 1381 
L 544 3500 
L 1119 3500 
L 1119 1403 
Q 1119 906 1312 657 
Q 1506 409 1894 409 
Q 2359 409 2629 706 
Q 2900 1003 2900 1516 
L 2900 3500 
L 3475 3500 
L 3475 0 
L 2900 0 
L 2900 538 
Q 2691 219 2414 64 
Q 2138 -91 1772 -91 
Q 1169 -91 856 284 
Q 544 659 544 1381 
z
M 1991 3584 
L 1991 3584 
z
" transform="scale(0.015625)"/>
       <path id="DejaVuSans-68" d="M 3513 2113 
L 3513 0 
L 2938 0 
L 2938 2094 
Q 2938 2591 2744 2837 
Q 2550 3084 2163 3084 
Q 1697 3084 1428 2787 
Q 1159 2491 1159 1978 
L 1159 0 
L 581 0 
L 581 4863 
L 1159 4863 
L 1159 2956 
Q 1366 3272 1645 3428 
Q 1925 3584 2291 3584 
Q 2894 3584 3203 3211 
Q 3513 2838 3513 2113 
z
" transform="scale(0.015625)"/>
      </defs>
      <use xlink:href="#DejaVuSans-54"/>
      <use xlink:href="#DejaVuSans-72" x="46.333984"/>
      <use xlink:href="#DejaVuSans-75" x="87.447266"/>
      <use xlink:href="#DejaVuSans-74" x="150.826172"/>
      <use xlink:href="#DejaVuSans-68" x="190.035156"/>
     </g>
    </g>
    <g id="line2d_20">
     <path d="M 66.6 83.926688 
L 76.6 83.926688 
L 86.6 83.926688 
" style="fill: none; stroke: #2ca02c; stroke-width: 1.5; stroke-linecap: square"/>
     <g>
      <use xlink:href="#mc803257878" x="76.6" y="83.926688" style="fill: #2ca02c; stroke: #2ca02c"/>
     </g>
    </g>
    <g id="text_17">
     <!-- GPS -->
     <g transform="translate(94.6 87.426688) scale(0.1 -0.1)">
      <defs>
       <path id="DejaVuSans-47" d="M 3809 666 
L 3809 1919 
L 2778 1919 
L 2778 2438 
L 4434 2438 
L 4434 434 
Q 4069 175 3628 42 
Q 3188 -91 2688 -91 
Q 1594 -91 976 548 
Q 359 1188 359 2328 
Q 359 3472 976 4111 
Q 1594 4750 2688 4750 
Q 3144 4750 3555 4637 
Q 3966 4525 4313 4306 
L 4313 3634 
Q 3963 3931 3569 4081 
Q 3175 4231 2741 4231 
Q 1884 4231 1454 3753 
Q 1025 3275 1025 2328 
Q 1025 1384 1454 906 
Q 1884 428 2741 428 
Q 3075 428 3337 486 
Q 3600 544 3809 666 
z
" transform="scale(0.015625)"/>
       <path id="DejaVuSans-50" d="M 1259 4147 
L 1259 2394 
L 2053 2394 
Q 2494 2394 2734 2622 
Q 2975 2850 2975 3272 
Q 2975 3691 2734 3919 
Q 2494 4147 2053 4147 
L 1259 4147 
z
M 628 4666 
L 2053 4666 
Q 2838 4666 3239 4311 
Q 3641 3956 3641 3272 
Q 3641 2581 3239 2228 
Q 2838 1875 2053 1875 
L 1259 1875 
L 1259 0 
L 628 0 
L 628 4666 
z
" transform="scale(0.015625)"/>
       <path id="DejaVuSans-53" d="M 3425 4513 
L 3425 3897 
Q 3066 4069 2747 4153 
Q 2428 4238 2131 4238 
Q 1616 4238 1336 4038 
Q 1056 3838 1056 3469 
Q 1056 3159 1242 3001 
Q 1428 2844 1947 2747 
L 2328 2669 
Q 3034 2534 3370 2195 
Q 3706 1856 3706 1288 
Q 3706 609 3251 259 
Q 2797 -91 1919 -91 
Q 1588 -91 1214 -16 
Q 841 59 441 206 
L 441 856 
Q 825 641 1194 531 
Q 1563 422 1919 422 
Q 2459 422 2753 634 
Q 3047 847 3047 1241 
Q 3047 1584 2836 1778 
Q 2625 1972 2144 2069 
L 1759 2144 
Q 1053 2284 737 2584 
Q 422 2884 422 3419 
Q 422 4038 858 4394 
Q 1294 4750 2059 4750 
Q 2388 4750 2728 4690 
Q 3069 4631 3425 4513 
z
" transform="scale(0.015625)"/>
      </defs>
      <use xlink:href="#DejaVuSans-47"/>
      <use xlink:href="#DejaVuSans-50" x="77.490234"/>
      <use xlink:href="#DejaVuSans-53" x="137.792969"/>
     </g>
    </g>
   </g>
  </g>
 </g>
 <defs>
  <clipPath id="pd45bc4297e">
   <rect x="57.6" y="41.472" width="357.12" height="266.112"/>
  </clipPath>
 </defs>
</svg>
