<?xml version="1.0" encoding="utf-8" standalone="no"?>
<!DOCTYPE svg PUBLIC "-//W3C//DTD SVG 1.1//EN"
  "http://www.w3.org/Graphics/SVG/1.1/DTD/svg11.dtd">
<svg xmlns:xlink="http://www.w3.org/1999/xlink" width="460.8pt" height="345.6pt" viewBox="0 0 460.8 345.6" xmlns="http://www.w3.org/2000/svg" version="1.1">
 <metadata>
  <rdf:RDF xmlns:dc="http://purl.org/dc/elements/1.1/" xmlns:cc="http://creativecommons.org/ns#" xmlns:rdf="http://www.w3.org/1999/02/22-rdf-syntax-ns#">
   <cc:Work>
    <dc:type rdf:resource="http://purl.org/dc/dcmitype/StillImage"/>
    <dc:date>2024-06-03T16:56:45.641401</dc:date>
    <dc:format>image/svg+xml</dc:format>
    <dc:creator>
     <cc:Agent>
      <dc:title>Matplotlib v3.9.0, https://matplotlib.org/</dc:title>
     </cc:Agent>
    </dc:creator>
   </cc:Work>
  </rdf:RDF>
 </metadata>
 <defs>
  <style type="text/css">*{stroke-linejoin: round; stroke-linecap: butt}</style>
 </defs>
 <g id="figure_1">
  <g id="patch_1">
   <path d="M 0 345.6 
L 460.8 345.6 
L 460.8 0 
L 0 0 
z
" style="fill: #ffffff"/>
  </g>
  <g id="axes_1">
   <g id="patch_2">
    <path d="M 57.6 307.584 
L 414.72 307.584 
L 414.72 41.472 
L 57.6 41.472 
z
" style="fill: #ffffff"/>
   </g>
   <g id="matplotlib.axis_1">
    <g id="xtick_1">
     <g id="line2d_1">
      <defs>
       <path id="mf4e448620b" d="M 0 0 
L 0 3.5 
" style="stroke: #000000; stroke-width: 0.8"/>
      </defs>
      <g>
       <use xlink:href="#mf4e448620b" x="106.508645" y="307.584" style="stroke: #000000; stroke-width: 0.8"/>
      </g>
     </g>
     <g id="text_1">
      <!-- −400 -->
      <g transform="translate(92.775051 322.182437) scale(0.1 -0.1)">
       <defs>
        <path id="DejaVuSans-2212" d="M 678 2272 
L 4684 2272 
L 4684 1741 
L 678 1741 
L 678 2272 
z
" transform="scale(0.015625)"/>
        <path id="DejaVuSans-34" d="M 2419 4116 
L 825 1625 
L 2419 1625 
L 2419 4116 
z
M 2253 4666 
L 3047 4666 
L 3047 1625 
L 3713 1625 
L 3713 1100 
L 3047 1100 
L 3047 0 
L 2419 0 
L 2419 1100 
L 313 1100 
L 313 1709 
L 2253 4666 
z
" transform="scale(0.015625)"/>
        <path id="DejaVuSans-30" d="M 2034 4250 
Q 1547 4250 1301 3770 
Q 1056 3291 1056 2328 
Q 1056 1369 1301 889 
Q 1547 409 2034 409 
Q 2525 409 2770 889 
Q 3016 1369 3016 2328 
Q 3016 3291 2770 3770 
Q 2525 4250 2034 4250 
z
M 2034 4750 
Q 2819 4750 3233 4129 
Q 3647 3509 3647 2328 
Q 3647 1150 3233 529 
Q 2819 -91 2034 -91 
Q 1250 -91 836 529 
Q 422 1150 422 2328 
Q 422 3509 836 4129 
Q 1250 4750 2034 4750 
z
" transform="scale(0.015625)"/>
       </defs>
       <use xlink:href="#DejaVuSans-2212"/>
       <use xlink:href="#DejaVuSans-34" x="83.789062"/>
       <use xlink:href="#DejaVuSans-30" x="147.412109"/>
       <use xlink:href="#DejaVuSans-30" x="211.035156"/>
      </g>
     </g>
    </g>
    <g id="xtick_2">
     <g id="line2d_2">
      <g>
       <use xlink:href="#mf4e448620b" x="171.356994" y="307.584" style="stroke: #000000; stroke-width: 0.8"/>
      </g>
     </g>
     <g id="text_2">
      <!-- −200 -->
      <g transform="translate(157.6234 322.182437) scale(0.1 -0.1)">
       <defs>
        <path id="DejaVuSans-32" d="M 1228 531 
L 3431 531 
L 3431 0 
L 469 0 
L 469 531 
Q 828 903 1448 1529 
Q 2069 2156 2228 2338 
Q 2531 2678 2651 2914 
Q 2772 3150 2772 3378 
Q 2772 3750 2511 3984 
Q 2250 4219 1831 4219 
Q 1534 4219 1204 4116 
Q 875 4013 500 3803 
L 500 4441 
Q 881 4594 1212 4672 
Q 1544 4750 1819 4750 
Q 2544 4750 2975 4387 
Q 3406 4025 3406 3419 
Q 3406 3131 3298 2873 
Q 3191 2616 2906 2266 
Q 2828 2175 2409 1742 
Q 1991 1309 1228 531 
z
" transform="scale(0.015625)"/>
       </defs>
       <use xlink:href="#DejaVuSans-2212"/>
       <use xlink:href="#DejaVuSans-32" x="83.789062"/>
       <use xlink:href="#DejaVuSans-30" x="147.412109"/>
       <use xlink:href="#DejaVuSans-30" x="211.035156"/>
      </g>
     </g>
    </g>
    <g id="xtick_3">
     <g id="line2d_3">
      <g>
       <use xlink:href="#mf4e448620b" x="236.205344" y="307.584" style="stroke: #000000; stroke-width: 0.8"/>
      </g>
     </g>
     <g id="text_3">
      <!-- 0 -->
      <g transform="translate(233.024094 322.182437) scale(0.1 -0.1)">
       <use xlink:href="#DejaVuSans-30"/>
      </g>
     </g>
    </g>
    <g id="xtick_4">
     <g id="line2d_4">
      <g>
       <use xlink:href="#mf4e448620b" x="301.053693" y="307.584" style="stroke: #000000; stroke-width: 0.8"/>
      </g>
     </g>
     <g id="text_4">
      <!-- 200 -->
      <g transform="translate(291.509943 322.182437) scale(0.1 -0.1)">
       <use xlink:href="#DejaVuSans-32"/>
       <use xlink:href="#DejaVuSans-30" x="63.623047"/>
       <use xlink:href="#DejaVuSans-30" x="127.246094"/>
      </g>
     </g>
    </g>
    <g id="xtick_5">
     <g id="line2d_5">
      <g>
       <use xlink:href="#mf4e448620b" x="365.902043" y="307.584" style="stroke: #000000; stroke-width: 0.8"/>
      </g>
     </g>
     <g id="text_5">
      <!-- 400 -->
      <g transform="translate(356.358293 322.182437) scale(0.1 -0.1)">
       <use xlink:href="#DejaVuSans-34"/>
       <use xlink:href="#DejaVuSans-30" x="63.623047"/>
       <use xlink:href="#DejaVuSans-30" x="127.246094"/>
      </g>
     </g>
    </g>
   </g>
   <g id="matplotlib.axis_2">
    <g id="ytick_1">
     <g id="line2d_6">
      <defs>
       <path id="m5661eabca8" d="M 0 0 
L -3.5 0 
" style="stroke: #000000; stroke-width: 0.8"/>
      </defs>
      <g>
       <use xlink:href="#m5661eabca8" x="57.6" y="271.268219" style="stroke: #000000; stroke-width: 0.8"/>
      </g>
     </g>
     <g id="text_6">
      <!-- −400 -->
      <g transform="translate(23.132812 275.067438) scale(0.1 -0.1)">
       <use xlink:href="#DejaVuSans-2212"/>
       <use xlink:href="#DejaVuSans-34" x="83.789062"/>
       <use xlink:href="#DejaVuSans-30" x="147.412109"/>
       <use xlink:href="#DejaVuSans-30" x="211.035156"/>
      </g>
     </g>
    </g>
    <g id="ytick_2">
     <g id="line2d_7">
      <g>
       <use xlink:href="#m5661eabca8" x="57.6" y="223.007851" style="stroke: #000000; stroke-width: 0.8"/>
      </g>
     </g>
     <g id="text_7">
      <!-- −200 -->
      <g transform="translate(23.132812 226.80707) scale(0.1 -0.1)">
       <use xlink:href="#DejaVuSans-2212"/>
       <use xlink:href="#DejaVuSans-32" x="83.789062"/>
       <use xlink:href="#DejaVuSans-30" x="147.412109"/>
       <use xlink:href="#DejaVuSans-30" x="211.035156"/>
      </g>
     </g>
    </g>
    <g id="ytick_3">
     <g id="line2d_8">
      <g>
       <use xlink:href="#m5661eabca8" x="57.6" y="174.747482" style="stroke: #000000; stroke-width: 0.8"/>
      </g>
     </g>
     <g id="text_8">
      <!-- 0 -->
      <g transform="translate(44.2375 178.546701) scale(0.1 -0.1)">
       <use xlink:href="#DejaVuSans-30"/>
      </g>
     </g>
    </g>
    <g id="ytick_4">
     <g id="line2d_9">
      <g>
       <use xlink:href="#m5661eabca8" x="57.6" y="126.487114" style="stroke: #000000; stroke-width: 0.8"/>
      </g>
     </g>
     <g id="text_9">
      <!-- 200 -->
      <g transform="translate(31.5125 130.286333) scale(0.1 -0.1)">
       <use xlink:href="#DejaVuSans-32"/>
       <use xlink:href="#DejaVuSans-30" x="63.623047"/>
       <use xlink:href="#DejaVuSans-30" x="127.246094"/>
      </g>
     </g>
    </g>
    <g id="ytick_5">
     <g id="line2d_10">
      <g>
       <use xlink:href="#m5661eabca8" x="57.6" y="78.226745" style="stroke: #000000; stroke-width: 0.8"/>
      </g>
     </g>
     <g id="text_10">
      <!-- 400 -->
      <g transform="translate(31.5125 82.025964) scale(0.1 -0.1)">
       <use xlink:href="#DejaVuSans-34"/>
       <use xlink:href="#DejaVuSans-30" x="63.623047"/>
       <use xlink:href="#DejaVuSans-30" x="127.246094"/>
      </g>
     </g>
    </g>
   </g>
   <g id="line2d_11">
    <path d="M 235.746421 53.976703 
L 242.220019 54.743905 
L 245.207482 55.175082 
L 246.393144 54.387814 
L 253.047283 55.203219 
L 256.108299 55.652337 
L 256.509531 54.914065 
L 263.397415 55.572857 
L 271.819101 56.622284 
L 276.118274 57.317749 
L 276.477629 57.775339 
L 282.972484 59.127893 
L 286.939618 60.136371 
L 293.333126 61.842188 
L 295.851275 62.575578 
L 296.362346 62.421534 
L 302.857318 64.422764 
L 306.357443 65.679579 
L 312.479942 67.942756 
L 314.55091 68.764861 
L 314.59666 68.967948 
L 320.472071 71.492743 
L 325.23004 73.76 
L 330.717225 76.572519 
L 331.540239 77.016422 
L 331.274359 77.099731 
L 331.396144 77.166658 
L 336.577967 80.143978 
L 342.238339 83.673026 
L 349.012595 88.273565 
L 353.549809 91.749634 
L 354.030428 92.134735 
L 354.894499 92.632276 
L 359.232496 96.260261 
L 361.314361 98.111519 
L 361.239349 98.168092 
L 361.304385 98.227405 
L 365.3027 102.026625 
L 369.628527 106.466386 
L 373.204075 110.536498 
L 376.483734 114.606011 
L 378.745775 117.720584 
L 381.600796 121.894877 
L 382.699633 123.615507 
L 382.980619 123.760261 
L 385.460721 127.914753 
L 388.399309 133.333179 
L 390.420073 137.684061 
L 390.500365 137.616845 
L 392.824247 143.461405 
L 393.326833 144.899719 
L 393.19434 144.868752 
L 393.231492 144.97929 
L 394.604592 149.422879 
L 395.357998 152.257229 
L 395.55324 152.324779 
L 396.566009 156.789226 
L 397.108266 159.727905 
L 396.977299 159.939386 
L 397.580811 164.371327 
L 398.1625 170.616903 
L 398.245003 174.966345 
L 398.477848 174.914624 
L 398.477779 174.990802 
L 398.360641 179.484831 
L 398.157495 182.49373 
L 398.002896 182.662847 
L 397.483313 187.227788 
L 397.035917 190.116316 
L 396.96722 190.00294 
L 396.940861 190.154164 
L 396.034304 194.688277 
L 394.751684 199.861364 
L 393.371874 204.307086 
L 392.15613 207.564776 
L 390.36415 211.98113 
L 390.23675 212.273943 
L 390.088304 212.328307 
L 388.043493 216.683313 
L 386.356696 219.819885 
L 383.945314 223.998334 
L 381.500015 227.814362 
L 378.615629 231.964644 
L 377.898299 232.939492 
L 378.036338 233.029297 
L 377.98664 233.096484 
L 374.82341 237.183506 
L 372.820042 239.600528 
L 372.800808 239.463359 
L 372.718051 239.560006 
L 369.247388 243.438227 
L 367.049126 245.738292 
L 367.269786 245.829151 
L 367.209862 245.89084 
L 363.275921 249.778712 
L 361.072403 251.824952 
L 360.9313 251.820663 
L 356.686717 255.504926 
L 350.583352 260.453313 
L 344.828347 264.630798 
L 339.820517 267.885825 
L 339.585148 268.032546 
L 339.359495 267.973399 
L 334.117337 271.07561 
L 331.414928 272.577942 
L 331.459301 272.443775 
L 331.335896 272.510519 
L 325.870551 275.33692 
L 319.98907 278.1239 
L 314.565962 280.449535 
L 313.786101 280.700895 
L 307.793162 283.006238 
L 300.962142 285.382714 
L 292.074753 288.13381 
L 284.603188 290.04962 
L 278.147733 291.433409 
L 271.851328 292.564396 
L 266.674711 293.365479 
L 266.32465 293.288969 
L 259.682911 294.095151 
L 253.11287 294.674494 
L 242.010663 295.39982 
L 236.257066 295.488 
L 236.138635 295.435462 
L 229.212275 295.330029 
L 222.015983 294.991377 
L 213.746994 294.341211 
L 206.655904 293.504337 
L 203.914565 293.025295 
L 196.906889 291.86987 
L 195.398426 291.482854 
L 188.688092 290.084024 
L 183.611022 288.824155 
L 177.131319 287.072095 
L 171.060439 285.205201 
L 164.531541 282.966293 
L 158.373828 280.607822 
L 151.557608 277.747513 
L 149.202094 276.676644 
L 149.294374 276.577427 
L 149.207902 276.537113 
L 143.629009 273.811998 
L 136.762471 270.170775 
L 132.747362 267.793216 
L 132.853366 267.770813 
L 132.736177 267.698771 
L 127.629794 264.425749 
L 123.574937 261.585493 
L 118.976793 258.148266 
L 112.641518 253.071969 
L 111.371066 251.94438 
L 111.348051 251.718781 
L 107.450111 248.032835 
L 105.246726 245.805608 
L 105.009807 245.449838 
L 101.43231 241.550836 
L 98.14204 237.643432 
L 94.946655 233.50212 
L 94.4064 232.762887 
L 94.50136 232.705322 
L 94.452827 232.637955 
L 91.550986 228.417577 
L 89.941277 225.894326 
L 89.70198 225.80034 
L 87.105094 221.424061 
L 85.731933 218.905814 
L 85.572324 219.006734 
L 85.534499 218.935702 
L 83.376158 214.642298 
L 80.531569 208.385816 
L 78.586349 203.175783 
L 77.260132 198.857592 
L 76.335581 195.159082 
L 75.342595 190.500963 
L 75.120749 188.720871 
L 74.499083 184.288241 
L 74.300455 181.586283 
L 74.050994 177.030714 
L 74.009877 174.847301 
L 74.107154 174.573516 
L 74.208111 170.12855 
L 74.528253 165.682178 
L 75.069136 161.231586 
L 75.29949 159.738452 
L 75.482827 159.59285 
L 76.350429 155.090071 
L 77.63452 149.745669 
L 78.947971 145.523849 
L 79.160014 144.902707 
L 79.465089 144.921605 
L 81.082489 140.686594 
L 83.440329 135.220676 
L 85.548945 131.085384 
L 85.796639 130.62974 
L 85.668782 130.402889 
L 88.083185 126.182293 
L 89.711857 123.562717 
L 89.611995 123.283049 
L 92.372873 119.148879 
L 94.601558 116.155576 
L 97.755867 112.130159 
L 101.253558 108.030176 
L 104.944982 104.04985 
L 107.632485 101.430051 
L 112.721506 96.623774 
L 116.940494 93.031375 
L 121.787792 89.208239 
L 126.214926 86.029405 
L 131.142989 82.740628 
L 137.646582 78.707474 
L 141.859755 76.413934 
L 147.233615 73.654344 
L 152.182637 71.3491 
L 157.888847 68.863608 
L 158.087032 68.916357 
L 164.167114 66.527667 
L 169.265907 64.741136 
L 175.454313 62.762114 
L 179.397641 61.690872 
L 185.914194 59.992671 
L 185.962864 59.980834 
L 186.16854 60.063953 
L 192.844645 58.575768 
L 201.200762 56.967619 
L 208.665116 55.852782 
L 215.571924 55.082318 
L 222.509731 54.530677 
L 228.59958 54.255594 
L 235.722489 54.129623 
L 236.290873 54.129284 
L 236.290873 54.129284 
" clip-path="url(#pf37d7188fe)" style="fill: none; stroke: #1f77b4; stroke-width: 1.5; stroke-linecap: square"/>
   </g>
   <g id="line2d_12">
    <path d="M 236.205344 54.096561 
L 243.180843 54.208292 
L 250.143422 54.543279 
L 257.080186 55.100901 
L 263.928107 55.873637 
L 270.725428 56.863343 
L 277.459743 58.068211 
L 284.11876 59.486043 
L 290.642354 61.101517 
L 297.068044 62.92138 
L 303.337918 64.926658 
L 309.488839 67.126529 
L 315.46548 69.498561 
L 321.303767 72.054313 
L 326.951306 74.768103 
L 332.442814 77.653801 
L 337.729144 80.682705 
L 342.805177 83.845978 
L 347.666451 87.134787 
L 352.344686 90.567471 
L 356.798166 94.110195 
L 361.024173 97.754109 
L 365.051511 101.52057 
L 368.844491 105.372569 
L 372.402045 109.301411 
L 375.72366 113.298544 
L 378.833576 117.388918 
L 381.704616 121.532304 
L 384.337739 125.720505 
L 386.753284 129.980717 
L 388.930622 134.270974 
L 390.87204 138.58355 
L 392.593667 142.947518 
L 394.081487 147.319762 
L 395.34868 151.730335 
L 396.393474 156.173075 
L 397.208448 160.604129 
L 397.802189 165.054617 
L 398.173883 169.518423 
L 398.323017 173.989415 
L 398.249388 178.461449 
L 397.953096 182.928379 
L 397.434549 187.384068 
L 396.69446 191.822393 
L 395.733844 196.237256 
L 394.543091 200.659611 
L 393.131066 205.045754 
L 391.499742 209.389556 
L 389.634953 213.72082 
L 387.552133 217.996701 
L 385.234197 222.245967 
L 382.700939 226.426606 
L 379.932462 230.566183 
L 376.927594 234.656677 
L 373.71263 238.657727 
L 370.263734 242.594706 
L 366.581158 246.459221 
L 362.697552 250.213162 
L 358.585505 253.879357 
L 354.24682 257.449178 
L 349.683885 260.913902 
L 344.937475 264.239311 
L 339.976139 267.444293 
L 334.803969 270.520108 
L 329.425697 273.458 
L 323.889559 276.228726 
L 318.160987 278.846763 
L 312.246521 281.303591 
L 306.199319 283.574417 
L 299.983114 285.670193 
L 293.6539 287.569423 
L 287.174545 289.280662 
L 280.603524 290.785918 
L 273.952653 292.082483 
L 267.183904 293.175273 
L 260.358613 294.051908 
L 253.489237 294.710789 
L 246.588315 295.150712 
L 239.617521 295.371678 
L 232.640407 295.369231 
L 225.669896 295.143376 
L 218.718898 294.69453 
L 211.85064 294.029226 
L 205.026834 293.146209 
L 198.259936 292.047089 
L 191.562295 290.733874 
L 184.994459 289.220938 
L 178.518724 287.502126 
L 172.146736 285.580529 
L 165.935851 283.476036 
L 159.849478 281.178885 
L 153.942286 278.712383 
L 148.17869 276.064403 
L 142.610335 273.261452 
L 137.243246 270.312256 
L 132.043749 267.201222 
L 127.058302 263.959141 
L 122.291117 260.594917 
L 117.745765 257.117416 
L 113.391941 253.506738 
L 109.268359 249.798402 
L 105.376891 246.001202 
L 101.718826 242.123815 
L 98.26813 238.142538 
L 95.055169 234.096514 
L 92.079699 229.994136 
L 89.319407 225.809275 
L 86.798177 221.583114 
L 84.514364 217.323626 
L 82.449719 213.002623 
L 80.621535 208.662725 
L 79.014445 204.274631 
L 77.641333 199.881651 
L 76.48981 195.453546 
L 75.561485 190.996506 
L 74.862632 186.55448 
L 74.385478 182.09623 
L 74.130678 177.627883 
L 74.098582 173.155577 
L 74.289236 168.685459 
L 74.702376 164.223671 
L 75.337435 159.776343 
L 76.19354 155.349587 
L 77.269516 150.949485 
L 78.57578 146.545229 
L 80.102328 142.180385 
L 81.862604 137.824965 
L 83.842209 133.522015 
L 86.057533 129.242541 
L 88.489796 125.028815 
L 91.158227 120.853009 
L 94.039705 116.756364 
L 97.156178 112.712385 
L 100.508113 108.729294 
L 104.065949 104.846377 
L 107.855396 101.039513 
L 111.87543 97.317229 
L 116.124464 93.688176 
L 120.564625 90.188142 
L 125.225969 86.796746 
L 130.105251 83.52274 
L 135.198601 80.374921 
L 140.460404 77.38449 
L 145.924182 74.535322 
L 151.58429 71.836072 
L 157.389897 69.313772 
L 163.376522 66.955725 
L 169.490276 64.785837 
L 175.767744 62.793761 
L 182.152303 61.000058 
L 188.681331 59.39679 
L 195.29583 58.000977 
L 202.033689 56.807133 
L 208.833918 55.828554 
L 215.684106 55.067026 
L 222.571749 54.52394 
L 229.535164 54.198721 
L 236.154412 54.096567 
L 236.154412 54.096567 
" clip-path="url(#pf37d7188fe)" style="fill: none; stroke: #ff7f0e; stroke-width: 1.5; stroke-linecap: square"/>
   </g>
   <g id="line2d_13">
    <path d="M 397.930246 182.599017 
" clip-path="url(#pf37d7188fe)" style="fill: none; stroke: #2ca02c; stroke-width: 1.5; stroke-linecap: square"/>
    <defs>
     <path id="m11b5628163" d="M -3 3 
L 3 -3 
M -3 -3 
L 3 3 
" style="stroke: #2ca02c"/>
    </defs>
    <g clip-path="url(#pf37d7188fe)">
     <use xlink:href="#m11b5628163" x="398.487273" y="175.089014" style="fill: #2ca02c; stroke: #2ca02c"/>
     <use xlink:href="#m11b5628163" x="397.961478" y="167.273251" style="fill: #2ca02c; stroke: #2ca02c"/>
     <use xlink:href="#m11b5628163" x="397.257853" y="159.70861" style="fill: #2ca02c; stroke: #2ca02c"/>
     <use xlink:href="#m11b5628163" x="395.948441" y="152.333345" style="fill: #2ca02c; stroke: #2ca02c"/>
     <use xlink:href="#m11b5628163" x="393.15697" y="144.781737" style="fill: #2ca02c; stroke: #2ca02c"/>
     <use xlink:href="#m11b5628163" x="390.31554" y="137.366799" style="fill: #2ca02c; stroke: #2ca02c"/>
     <use xlink:href="#m11b5628163" x="387.453567" y="129.877776" style="fill: #2ca02c; stroke: #2ca02c"/>
     <use xlink:href="#m11b5628163" x="383.14553" y="123.334693" style="fill: #2ca02c; stroke: #2ca02c"/>
     <use xlink:href="#m11b5628163" x="378.120725" y="116.56131" style="fill: #2ca02c; stroke: #2ca02c"/>
     <use xlink:href="#m11b5628163" x="373.264445" y="110.11745" style="fill: #2ca02c; stroke: #2ca02c"/>
     <use xlink:href="#m11b5628163" x="367.213626" y="104.293653" style="fill: #2ca02c; stroke: #2ca02c"/>
     <use xlink:href="#m11b5628163" x="360.970615" y="97.848089" style="fill: #2ca02c; stroke: #2ca02c"/>
     <use xlink:href="#m11b5628163" x="354.464829" y="92.14171" style="fill: #2ca02c; stroke: #2ca02c"/>
     <use xlink:href="#m11b5628163" x="346.564353" y="86.202361" style="fill: #2ca02c; stroke: #2ca02c"/>
     <use xlink:href="#m11b5628163" x="338.985787" y="81.830767" style="fill: #2ca02c; stroke: #2ca02c"/>
     <use xlink:href="#m11b5628163" x="331.315285" y="77.066073" style="fill: #2ca02c; stroke: #2ca02c"/>
     <use xlink:href="#m11b5628163" x="322.74565" y="72.886916" style="fill: #2ca02c; stroke: #2ca02c"/>
     <use xlink:href="#m11b5628163" x="314.409562" y="69.302278" style="fill: #2ca02c; stroke: #2ca02c"/>
     <use xlink:href="#m11b5628163" x="304.938635" y="65.3035" style="fill: #2ca02c; stroke: #2ca02c"/>
     <use xlink:href="#m11b5628163" x="295.42809" y="62.38765" style="fill: #2ca02c; stroke: #2ca02c"/>
     <use xlink:href="#m11b5628163" x="286.778673" y="59.81076" style="fill: #2ca02c; stroke: #2ca02c"/>
     <use xlink:href="#m11b5628163" x="276.449959" y="58.106468" style="fill: #2ca02c; stroke: #2ca02c"/>
     <use xlink:href="#m11b5628163" x="266.605662" y="55.895124" style="fill: #2ca02c; stroke: #2ca02c"/>
     <use xlink:href="#m11b5628163" x="256.062514" y="55.386199" style="fill: #2ca02c; stroke: #2ca02c"/>
     <use xlink:href="#m11b5628163" x="246.208486" y="54.193028" style="fill: #2ca02c; stroke: #2ca02c"/>
     <use xlink:href="#m11b5628163" x="236.241309" y="53.568" style="fill: #2ca02c; stroke: #2ca02c"/>
     <use xlink:href="#m11b5628163" x="225.65249" y="54.573656" style="fill: #2ca02c; stroke: #2ca02c"/>
     <use xlink:href="#m11b5628163" x="216.008027" y="55.184578" style="fill: #2ca02c; stroke: #2ca02c"/>
     <use xlink:href="#m11b5628163" x="205.632169" y="56.209574" style="fill: #2ca02c; stroke: #2ca02c"/>
     <use xlink:href="#m11b5628163" x="195.792943" y="58.008521" style="fill: #2ca02c; stroke: #2ca02c"/>
     <use xlink:href="#m11b5628163" x="185.91214" y="60.375815" style="fill: #2ca02c; stroke: #2ca02c"/>
     <use xlink:href="#m11b5628163" x="177.125255" y="62.552548" style="fill: #2ca02c; stroke: #2ca02c"/>
     <use xlink:href="#m11b5628163" x="167.173257" y="65.835601" style="fill: #2ca02c; stroke: #2ca02c"/>
     <use xlink:href="#m11b5628163" x="157.760063" y="68.905995" style="fill: #2ca02c; stroke: #2ca02c"/>
     <use xlink:href="#m11b5628163" x="149.603339" y="73.100399" style="fill: #2ca02c; stroke: #2ca02c"/>
     <use xlink:href="#m11b5628163" x="140.517237" y="76.764835" style="fill: #2ca02c; stroke: #2ca02c"/>
     <use xlink:href="#m11b5628163" x="132.933332" y="81.97335" style="fill: #2ca02c; stroke: #2ca02c"/>
     <use xlink:href="#m11b5628163" x="124.590562" y="86.87446" style="fill: #2ca02c; stroke: #2ca02c"/>
     <use xlink:href="#m11b5628163" x="117.59366" y="91.95994" style="fill: #2ca02c; stroke: #2ca02c"/>
     <use xlink:href="#m11b5628163" x="111.352894" y="98.138701" style="fill: #2ca02c; stroke: #2ca02c"/>
     <use xlink:href="#m11b5628163" x="105.286243" y="103.775764" style="fill: #2ca02c; stroke: #2ca02c"/>
     <use xlink:href="#m11b5628163" x="99.377727" y="109.78407" style="fill: #2ca02c; stroke: #2ca02c"/>
     <use xlink:href="#m11b5628163" x="94.100241" y="117.011346" style="fill: #2ca02c; stroke: #2ca02c"/>
     <use xlink:href="#m11b5628163" x="89.416361" y="123.332266" style="fill: #2ca02c; stroke: #2ca02c"/>
     <use xlink:href="#m11b5628163" x="84.989769" y="130.270206" style="fill: #2ca02c; stroke: #2ca02c"/>
     <use xlink:href="#m11b5628163" x="81.785827" y="137.275642" style="fill: #2ca02c; stroke: #2ca02c"/>
     <use xlink:href="#m11b5628163" x="79.028437" y="145.041297" style="fill: #2ca02c; stroke: #2ca02c"/>
     <use xlink:href="#m11b5628163" x="77.29884" y="152.458383" style="fill: #2ca02c; stroke: #2ca02c"/>
     <use xlink:href="#m11b5628163" x="75.474257" y="159.499967" style="fill: #2ca02c; stroke: #2ca02c"/>
     <use xlink:href="#m11b5628163" x="73.832727" y="167.100085" style="fill: #2ca02c; stroke: #2ca02c"/>
     <use xlink:href="#m11b5628163" x="74.189552" y="174.687038" style="fill: #2ca02c; stroke: #2ca02c"/>
     <use xlink:href="#m11b5628163" x="74.279519" y="182.239618" style="fill: #2ca02c; stroke: #2ca02c"/>
     <use xlink:href="#m11b5628163" x="75.143355" y="190.033144" style="fill: #2ca02c; stroke: #2ca02c"/>
     <use xlink:href="#m11b5628163" x="77.154407" y="197.299167" style="fill: #2ca02c; stroke: #2ca02c"/>
     <use xlink:href="#m11b5628163" x="79.512088" y="204.681427" style="fill: #2ca02c; stroke: #2ca02c"/>
     <use xlink:href="#m11b5628163" x="82.32119" y="212.203042" style="fill: #2ca02c; stroke: #2ca02c"/>
     <use xlink:href="#m11b5628163" x="85.197058" y="218.711834" style="fill: #2ca02c; stroke: #2ca02c"/>
     <use xlink:href="#m11b5628163" x="89.413732" y="226.003809" style="fill: #2ca02c; stroke: #2ca02c"/>
     <use xlink:href="#m11b5628163" x="94.245149" y="233.158971" style="fill: #2ca02c; stroke: #2ca02c"/>
     <use xlink:href="#m11b5628163" x="99.638475" y="239.237051" style="fill: #2ca02c; stroke: #2ca02c"/>
     <use xlink:href="#m11b5628163" x="104.891433" y="245.899507" style="fill: #2ca02c; stroke: #2ca02c"/>
     <use xlink:href="#m11b5628163" x="111.228865" y="251.463349" style="fill: #2ca02c; stroke: #2ca02c"/>
     <use xlink:href="#m11b5628163" x="117.665593" y="257.05915" style="fill: #2ca02c; stroke: #2ca02c"/>
     <use xlink:href="#m11b5628163" x="124.838109" y="262.896251" style="fill: #2ca02c; stroke: #2ca02c"/>
     <use xlink:href="#m11b5628163" x="133.129064" y="267.478151" style="fill: #2ca02c; stroke: #2ca02c"/>
     <use xlink:href="#m11b5628163" x="141.352835" y="272.256523" style="fill: #2ca02c; stroke: #2ca02c"/>
     <use xlink:href="#m11b5628163" x="149.313287" y="276.41806" style="fill: #2ca02c; stroke: #2ca02c"/>
     <use xlink:href="#m11b5628163" x="158.428404" y="280.016991" style="fill: #2ca02c; stroke: #2ca02c"/>
     <use xlink:href="#m11b5628163" x="167.29489" y="283.974913" style="fill: #2ca02c; stroke: #2ca02c"/>
     <use xlink:href="#m11b5628163" x="176.315495" y="287.10775" style="fill: #2ca02c; stroke: #2ca02c"/>
     <use xlink:href="#m11b5628163" x="186.224418" y="289.707969" style="fill: #2ca02c; stroke: #2ca02c"/>
     <use xlink:href="#m11b5628163" x="196.386218" y="291.80479" style="fill: #2ca02c; stroke: #2ca02c"/>
     <use xlink:href="#m11b5628163" x="205.815305" y="293.279949" style="fill: #2ca02c; stroke: #2ca02c"/>
     <use xlink:href="#m11b5628163" x="216.393533" y="294.364715" style="fill: #2ca02c; stroke: #2ca02c"/>
     <use xlink:href="#m11b5628163" x="225.176259" y="295.093561" style="fill: #2ca02c; stroke: #2ca02c"/>
     <use xlink:href="#m11b5628163" x="236.471839" y="295.198803" style="fill: #2ca02c; stroke: #2ca02c"/>
     <use xlink:href="#m11b5628163" x="246.413222" y="295.157189" style="fill: #2ca02c; stroke: #2ca02c"/>
     <use xlink:href="#m11b5628163" x="256.427526" y="294.096295" style="fill: #2ca02c; stroke: #2ca02c"/>
     <use xlink:href="#m11b5628163" x="266.613519" y="293.325206" style="fill: #2ca02c; stroke: #2ca02c"/>
     <use xlink:href="#m11b5628163" x="275.878713" y="290.951551" style="fill: #2ca02c; stroke: #2ca02c"/>
     <use xlink:href="#m11b5628163" x="286.232222" y="289.342353" style="fill: #2ca02c; stroke: #2ca02c"/>
     <use xlink:href="#m11b5628163" x="296.001809" y="287.132706" style="fill: #2ca02c; stroke: #2ca02c"/>
     <use xlink:href="#m11b5628163" x="305.712249" y="284.174108" style="fill: #2ca02c; stroke: #2ca02c"/>
     <use xlink:href="#m11b5628163" x="314.139625" y="280.358269" style="fill: #2ca02c; stroke: #2ca02c"/>
     <use xlink:href="#m11b5628163" x="322.811904" y="276.670346" style="fill: #2ca02c; stroke: #2ca02c"/>
     <use xlink:href="#m11b5628163" x="331.334912" y="272.183838" style="fill: #2ca02c; stroke: #2ca02c"/>
     <use xlink:href="#m11b5628163" x="339.841889" y="267.596422" style="fill: #2ca02c; stroke: #2ca02c"/>
     <use xlink:href="#m11b5628163" x="347.291313" y="262.715793" style="fill: #2ca02c; stroke: #2ca02c"/>
     <use xlink:href="#m11b5628163" x="354.214604" y="257.543054" style="fill: #2ca02c; stroke: #2ca02c"/>
     <use xlink:href="#m11b5628163" x="361.288046" y="252.018809" style="fill: #2ca02c; stroke: #2ca02c"/>
     <use xlink:href="#m11b5628163" x="367.395362" y="245.772059" style="fill: #2ca02c; stroke: #2ca02c"/>
     <use xlink:href="#m11b5628163" x="373.4026" y="239.188828" style="fill: #2ca02c; stroke: #2ca02c"/>
     <use xlink:href="#m11b5628163" x="378.045313" y="232.819846" style="fill: #2ca02c; stroke: #2ca02c"/>
     <use xlink:href="#m11b5628163" x="382.790454" y="226.418745" style="fill: #2ca02c; stroke: #2ca02c"/>
     <use xlink:href="#m11b5628163" x="386.814382" y="219.12026" style="fill: #2ca02c; stroke: #2ca02c"/>
     <use xlink:href="#m11b5628163" x="389.916924" y="211.93769" style="fill: #2ca02c; stroke: #2ca02c"/>
     <use xlink:href="#m11b5628163" x="393.328906" y="204.965423" style="fill: #2ca02c; stroke: #2ca02c"/>
     <use xlink:href="#m11b5628163" x="395.539256" y="197.318116" style="fill: #2ca02c; stroke: #2ca02c"/>
     <use xlink:href="#m11b5628163" x="397.049504" y="189.855007" style="fill: #2ca02c; stroke: #2ca02c"/>
     <use xlink:href="#m11b5628163" x="397.930246" y="182.599017" style="fill: #2ca02c; stroke: #2ca02c"/>
    </g>
   </g>
   <g id="patch_3">
    <path d="M 57.6 307.584 
L 57.6 41.472 
" style="fill: none; stroke: #000000; stroke-width: 0.8; stroke-linejoin: miter; stroke-linecap: square"/>
   </g>
   <g id="patch_4">
    <path d="M 414.72 307.584 
L 414.72 41.472 
" style="fill: none; stroke: #000000; stroke-width: 0.8; stroke-linejoin: miter; stroke-linecap: square"/>
   </g>
   <g id="patch_5">
    <path d="M 57.6 307.584 
L 414.72 307.584 
" style="fill: none; stroke: #000000; stroke-width: 0.8; stroke-linejoin: miter; stroke-linecap: square"/>
   </g>
   <g id="patch_6">
    <path d="M 57.6 41.472 
L 414.72 41.472 
" style="fill: none; stroke: #000000; stroke-width: 0.8; stroke-linejoin: miter; stroke-linecap: square"/>
   </g>
   <g id="legend_1">
    <g id="patch_7">
     <path d="M 193.535 198.045187 
L 278.785 198.045187 
Q 280.785 198.045187 280.785 196.045187 
L 280.785 153.010812 
Q 280.785 151.010812 278.785 151.010812 
L 193.535 151.010812 
Q 191.535 151.010812 191.535 153.010812 
L 191.535 196.045187 
Q 191.535 198.045187 193.535 198.045187 
z
" style="fill: #ffffff; opacity: 0.8; stroke: #cccccc; stroke-linejoin: miter"/>
    </g>
    <g id="line2d_14">
     <path d="M 195.535 159.10925 
L 205.535 159.10925 
L 215.535 159.10925 
" style="fill: none; stroke: #1f77b4; stroke-width: 1.5; stroke-linecap: square"/>
    </g>
    <g id="text_11">
     <!-- Estimation -->
     <g transform="translate(223.535 162.60925) scale(0.1 -0.1)">
      <defs>
       <path id="DejaVuSans-45" d="M 628 4666 
L 3578 4666 
L 3578 4134 
L 1259 4134 
L 1259 2753 
L 3481 2753 
L 3481 2222 
L 1259 2222 
L 1259 531 
L 3634 531 
L 3634 0 
L 628 0 
L 628 4666 
z
" transform="scale(0.015625)"/>
       <path id="DejaVuSans-73" d="M 2834 3397 
L 2834 2853 
Q 2591 2978 2328 3040 
Q 2066 3103 1784 3103 
Q 1356 3103 1142 2972 
Q 928 2841 928 2578 
Q 928 2378 1081 2264 
Q 1234 2150 1697 2047 
L 1894 2003 
Q 2506 1872 2764 1633 
Q 3022 1394 3022 966 
Q 3022 478 2636 193 
Q 2250 -91 1575 -91 
Q 1294 -91 989 -36 
Q 684 19 347 128 
L 347 722 
Q 666 556 975 473 
Q 1284 391 1588 391 
Q 1994 391 2212 530 
Q 2431 669 2431 922 
Q 2431 1156 2273 1281 
Q 2116 1406 1581 1522 
L 1381 1569 
Q 847 1681 609 1914 
Q 372 2147 372 2553 
Q 372 3047 722 3315 
Q 1072 3584 1716 3584 
Q 2034 3584 2315 3537 
Q 2597 3491 2834 3397 
z
" transform="scale(0.015625)"/>
       <path id="DejaVuSans-74" d="M 1172 4494 
L 1172 3500 
L 2356 3500 
L 2356 3053 
L 1172 3053 
L 1172 1153 
Q 1172 725 1289 603 
Q 1406 481 1766 481 
L 2356 481 
L 2356 0 
L 1766 0 
Q 1100 0 847 248 
Q 594 497 594 1153 
L 594 3053 
L 172 3053 
L 172 3500 
L 594 3500 
L 594 4494 
L 1172 4494 
z
" transform="scale(0.015625)"/>
       <path id="DejaVuSans-69" d="M 603 3500 
L 1178 3500 
L 1178 0 
L 603 0 
L 603 3500 
z
M 603 4863 
L 1178 4863 
L 1178 4134 
L 603 4134 
L 603 4863 
z
" transform="scale(0.015625)"/>
       <path id="DejaVuSans-6d" d="M 3328 2828 
Q 3544 3216 3844 3400 
Q 4144 3584 4550 3584 
Q 5097 3584 5394 3201 
Q 5691 2819 5691 2113 
L 5691 0 
L 5113 0 
L 5113 2094 
Q 5113 2597 4934 2840 
Q 4756 3084 4391 3084 
Q 3944 3084 3684 2787 
Q 3425 2491 3425 1978 
L 3425 0 
L 2847 0 
L 2847 2094 
Q 2847 2600 2669 2842 
Q 2491 3084 2119 3084 
Q 1678 3084 1418 2786 
Q 1159 2488 1159 1978 
L 1159 0 
L 581 0 
L 581 3500 
L 1159 3500 
L 1159 2956 
Q 1356 3278 1631 3431 
Q 1906 3584 2284 3584 
Q 2666 3584 2933 3390 
Q 3200 3197 3328 2828 
z
" transform="scale(0.015625)"/>
       <path id="DejaVuSans-61" d="M 2194 1759 
Q 1497 1759 1228 1600 
Q 959 1441 959 1056 
Q 959 750 1161 570 
Q 1363 391 1709 391 
Q 2188 391 2477 730 
Q 2766 1069 2766 1631 
L 2766 1759 
L 2194 1759 
z
M 3341 1997 
L 3341 0 
L 2766 0 
L 2766 531 
Q 2569 213 2275 61 
Q 1981 -91 1556 -91 
Q 1019 -91 701 211 
Q 384 513 384 1019 
Q 384 1609 779 1909 
Q 1175 2209 1959 2209 
L 2766 2209 
L 2766 2266 
Q 2766 2663 2505 2880 
Q 2244 3097 1772 3097 
Q 1472 3097 1187 3025 
Q 903 2953 641 2809 
L 641 3341 
Q 956 3463 1253 3523 
Q 1550 3584 1831 3584 
Q 2591 3584 2966 3190 
Q 3341 2797 3341 1997 
z
" transform="scale(0.015625)"/>
       <path id="DejaVuSans-6f" d="M 1959 3097 
Q 1497 3097 1228 2736 
Q 959 2375 959 1747 
Q 959 1119 1226 758 
Q 1494 397 1959 397 
Q 2419 397 2687 759 
Q 2956 1122 2956 1747 
Q 2956 2369 2687 2733 
Q 2419 3097 1959 3097 
z
M 1959 3584 
Q 2709 3584 3137 3096 
Q 3566 2609 3566 1747 
Q 3566 888 3137 398 
Q 2709 -91 1959 -91 
Q 1206 -91 779 398 
Q 353 888 353 1747 
Q 353 2609 779 3096 
Q 1206 3584 1959 3584 
z
" transform="scale(0.015625)"/>
       <path id="DejaVuSans-6e" d="M 3513 2113 
L 3513 0 
L 2938 0 
L 2938 2094 
Q 2938 2591 2744 2837 
Q 2550 3084 2163 3084 
Q 1697 3084 1428 2787 
Q 1159 2491 1159 1978 
L 1159 0 
L 581 0 
L 581 3500 
L 1159 3500 
L 1159 2956 
Q 1366 3272 1645 3428 
Q 1925 3584 2291 3584 
Q 2894 3584 3203 3211 
Q 3513 2838 3513 2113 
z
" transform="scale(0.015625)"/>
      </defs>
      <use xlink:href="#DejaVuSans-45"/>
      <use xlink:href="#DejaVuSans-73" x="63.183594"/>
      <use xlink:href="#DejaVuSans-74" x="115.283203"/>
      <use xlink:href="#DejaVuSans-69" x="154.492188"/>
      <use xlink:href="#DejaVuSans-6d" x="182.275391"/>
      <use xlink:href="#DejaVuSans-61" x="279.6875"/>
      <use xlink:href="#DejaVuSans-74" x="340.966797"/>
      <use xlink:href="#DejaVuSans-69" x="380.175781"/>
      <use xlink:href="#DejaVuSans-6f" x="407.958984"/>
      <use xlink:href="#DejaVuSans-6e" x="469.140625"/>
     </g>
    </g>
    <g id="line2d_15">
     <path d="M 195.535 173.787375 
L 205.535 173.787375 
L 215.535 173.787375 
" style="fill: none; stroke: #ff7f0e; stroke-width: 1.5; stroke-linecap: square"/>
    </g>
    <g id="text_12">
     <!-- Truth -->
     <g transform="translate(223.535 177.287375) scale(0.1 -0.1)">
      <defs>
       <path id="DejaVuSans-54" d="M -19 4666 
L 3928 4666 
L 3928 4134 
L 2272 4134 
L 2272 0 
L 1638 0 
L 1638 4134 
L -19 4134 
L -19 4666 
z
" transform="scale(0.015625)"/>
       <path id="DejaVuSans-72" d="M 2631 2963 
Q 2534 3019 2420 3045 
Q 2306 3072 2169 3072 
Q 1681 3072 1420 2755 
Q 1159 2438 1159 1844 
L 1159 0 
L 581 0 
L 581 3500 
L 1159 3500 
L 1159 2956 
Q 1341 3275 1631 3429 
Q 1922 3584 2338 3584 
Q 2397 3584 2469 3576 
Q 2541 3569 2628 3553 
L 2631 2963 
z
" transform="scale(0.015625)"/>
       <path id="DejaVuSans-75" d="M 544 1381 
L 544 3500 
L 1119 3500 
L 1119 1403 
Q 1119 906 1312 657 
Q 1506 409 1894 409 
Q 2359 409 2629 706 
Q 2900 1003 2900 1516 
L 2900 3500 
L 3475 3500 
L 3475 0 
L 2900 0 
L 2900 538 
Q 2691 219 2414 64 
Q 2138 -91 1772 -91 
Q 1169 -91 856 284 
Q 544 659 544 1381 
z
M 1991 3584 
L 1991 3584 
z
" transform="scale(0.015625)"/>
       <path id="DejaVuSans-68" d="M 3513 2113 
L 3513 0 
L 2938 0 
L 2938 2094 
Q 2938 2591 2744 2837 
Q 2550 3084 2163 3084 
Q 1697 3084 1428 2787 
Q 1159 2491 1159 1978 
L 1159 0 
L 581 0 
L 581 4863 
L 1159 4863 
L 1159 2956 
Q 1366 3272 1645 3428 
Q 1925 3584 2291 3584 
Q 2894 3584 3203 3211 
Q 3513 2838 3513 2113 
z
" transform="scale(0.015625)"/>
      </defs>
      <use xlink:href="#DejaVuSans-54"/>
      <use xlink:href="#DejaVuSans-72" x="46.333984"/>
      <use xlink:href="#DejaVuSans-75" x="87.447266"/>
      <use xlink:href="#DejaVuSans-74" x="150.826172"/>
      <use xlink:href="#DejaVuSans-68" x="190.035156"/>
     </g>
    </g>
    <g id="line2d_16">
     <path d="M 195.535 188.4655 
L 205.535 188.4655 
L 215.535 188.4655 
" style="fill: none; stroke: #2ca02c; stroke-width: 1.5; stroke-linecap: square"/>
     <g>
      <use xlink:href="#m11b5628163" x="205.535" y="188.4655" style="fill: #2ca02c; stroke: #2ca02c"/>
     </g>
    </g>
    <g id="text_13">
     <!-- GPS -->
     <g transform="translate(223.535 191.9655) scale(0.1 -0.1)">
      <defs>
       <path id="DejaVuSans-47" d="M 3809 666 
L 3809 1919 
L 2778 1919 
L 2778 2438 
L 4434 2438 
L 4434 434 
Q 4069 175 3628 42 
Q 3188 -91 2688 -91 
Q 1594 -91 976 548 
Q 359 1188 359 2328 
Q 359 3472 976 4111 
Q 1594 4750 2688 4750 
Q 3144 4750 3555 4637 
Q 3966 4525 4313 4306 
L 4313 3634 
Q 3963 3931 3569 4081 
Q 3175 4231 2741 4231 
Q 1884 4231 1454 3753 
Q 1025 3275 1025 2328 
Q 1025 1384 1454 906 
Q 1884 428 2741 428 
Q 3075 428 3337 486 
Q 3600 544 3809 666 
z
" transform="scale(0.015625)"/>
       <path id="DejaVuSans-50" d="M 1259 4147 
L 1259 2394 
L 2053 2394 
Q 2494 2394 2734 2622 
Q 2975 2850 2975 3272 
Q 2975 3691 2734 3919 
Q 2494 4147 2053 4147 
L 1259 4147 
z
M 628 4666 
L 2053 4666 
Q 2838 4666 3239 4311 
Q 3641 3956 3641 3272 
Q 3641 2581 3239 2228 
Q 2838 1875 2053 1875 
L 1259 1875 
L 1259 0 
L 628 0 
L 628 4666 
z
" transform="scale(0.015625)"/>
       <path id="DejaVuSans-53" d="M 3425 4513 
L 3425 3897 
Q 3066 4069 2747 4153 
Q 2428 4238 2131 4238 
Q 1616 4238 1336 4038 
Q 1056 3838 1056 3469 
Q 1056 3159 1242 3001 
Q 1428 2844 1947 2747 
L 2328 2669 
Q 3034 2534 3370 2195 
Q 3706 1856 3706 1288 
Q 3706 609 3251 259 
Q 2797 -91 1919 -91 
Q 1588 -91 1214 -16 
Q 841 59 441 206 
L 441 856 
Q 825 641 1194 531 
Q 1563 422 1919 422 
Q 2459 422 2753 634 
Q 3047 847 3047 1241 
Q 3047 1584 2836 1778 
Q 2625 1972 2144 2069 
L 1759 2144 
Q 1053 2284 737 2584 
Q 422 2884 422 3419 
Q 422 4038 858 4394 
Q 1294 4750 2059 4750 
Q 2388 4750 2728 4690 
Q 3069 4631 3425 4513 
z
" transform="scale(0.015625)"/>
      </defs>
      <use xlink:href="#DejaVuSans-47"/>
      <use xlink:href="#DejaVuSans-50" x="77.490234"/>
      <use xlink:href="#DejaVuSans-53" x="137.792969"/>
     </g>
    </g>
   </g>
  </g>
 </g>
 <defs>
  <clipPath id="pf37d7188fe">
   <rect x="57.6" y="41.472" width="357.12" height="266.112"/>
  </clipPath>
 </defs>
</svg>
