<?xml version="1.0" encoding="utf-8" standalone="no"?>
<!DOCTYPE svg PUBLIC "-//W3C//DTD SVG 1.1//EN"
  "http://www.w3.org/Graphics/SVG/1.1/DTD/svg11.dtd">
<svg xmlns:xlink="http://www.w3.org/1999/xlink" width="720pt" height="288pt" viewBox="0 0 720 288" xmlns="http://www.w3.org/2000/svg" version="1.1">
 <metadata>
  <rdf:RDF xmlns:dc="http://purl.org/dc/elements/1.1/" xmlns:cc="http://creativecommons.org/ns#" xmlns:rdf="http://www.w3.org/1999/02/22-rdf-syntax-ns#">
   <cc:Work>
    <dc:type rdf:resource="http://purl.org/dc/dcmitype/StillImage"/>
    <dc:date>2024-04-27T15:55:08.108950</dc:date>
    <dc:format>image/svg+xml</dc:format>
    <dc:creator>
     <cc:Agent>
      <dc:title>Matplotlib v3.8.3, https://matplotlib.org/</dc:title>
     </cc:Agent>
    </dc:creator>
   </cc:Work>
  </rdf:RDF>
 </metadata>
 <defs>
  <style type="text/css">*{stroke-linejoin: round; stroke-linecap: butt}</style>
 </defs>
 <g id="figure_1">
  <g id="patch_1">
   <path d="M 0 288 
L 720 288 
L 720 0 
L 0 0 
z
" style="fill: #ffffff"/>
  </g>
  <g id="axes_1">
   <g id="patch_2">
    <path d="M 90 256.32 
L 648 256.32 
L 648 34.56 
L 90 34.56 
z
" style="fill: #ffffff"/>
   </g>
   <g id="matplotlib.axis_1">
    <g id="xtick_1">
     <g id="line2d_1">
      <defs>
       <path id="m6b68fbd06e" d="M 0 0 
L 0 3.5 
" style="stroke: #000000; stroke-width: 0.8"/>
      </defs>
      <g>
       <use xlink:href="#m6b68fbd06e" x="173.62764" y="256.32" style="stroke: #000000; stroke-width: 0.8"/>
      </g>
     </g>
     <g id="text_1">
      <!-- 24500 -->
      <g transform="translate(157.72139 270.918437) scale(0.1 -0.1)">
       <defs>
        <path id="DejaVuSans-32" d="M 1228 531 
L 3431 531 
L 3431 0 
L 469 0 
L 469 531 
Q 828 903 1448 1529 
Q 2069 2156 2228 2338 
Q 2531 2678 2651 2914 
Q 2772 3150 2772 3378 
Q 2772 3750 2511 3984 
Q 2250 4219 1831 4219 
Q 1534 4219 1204 4116 
Q 875 4013 500 3803 
L 500 4441 
Q 881 4594 1212 4672 
Q 1544 4750 1819 4750 
Q 2544 4750 2975 4387 
Q 3406 4025 3406 3419 
Q 3406 3131 3298 2873 
Q 3191 2616 2906 2266 
Q 2828 2175 2409 1742 
Q 1991 1309 1228 531 
z
" transform="scale(0.015625)"/>
        <path id="DejaVuSans-34" d="M 2419 4116 
L 825 1625 
L 2419 1625 
L 2419 4116 
z
M 2253 4666 
L 3047 4666 
L 3047 1625 
L 3713 1625 
L 3713 1100 
L 3047 1100 
L 3047 0 
L 2419 0 
L 2419 1100 
L 313 1100 
L 313 1709 
L 2253 4666 
z
" transform="scale(0.015625)"/>
        <path id="DejaVuSans-35" d="M 691 4666 
L 3169 4666 
L 3169 4134 
L 1269 4134 
L 1269 2991 
Q 1406 3038 1543 3061 
Q 1681 3084 1819 3084 
Q 2600 3084 3056 2656 
Q 3513 2228 3513 1497 
Q 3513 744 3044 326 
Q 2575 -91 1722 -91 
Q 1428 -91 1123 -41 
Q 819 9 494 109 
L 494 744 
Q 775 591 1075 516 
Q 1375 441 1709 441 
Q 2250 441 2565 725 
Q 2881 1009 2881 1497 
Q 2881 1984 2565 2268 
Q 2250 2553 1709 2553 
Q 1456 2553 1204 2497 
Q 953 2441 691 2322 
L 691 4666 
z
" transform="scale(0.015625)"/>
        <path id="DejaVuSans-30" d="M 2034 4250 
Q 1547 4250 1301 3770 
Q 1056 3291 1056 2328 
Q 1056 1369 1301 889 
Q 1547 409 2034 409 
Q 2525 409 2770 889 
Q 3016 1369 3016 2328 
Q 3016 3291 2770 3770 
Q 2525 4250 2034 4250 
z
M 2034 4750 
Q 2819 4750 3233 4129 
Q 3647 3509 3647 2328 
Q 3647 1150 3233 529 
Q 2819 -91 2034 -91 
Q 1250 -91 836 529 
Q 422 1150 422 2328 
Q 422 3509 836 4129 
Q 1250 4750 2034 4750 
z
" transform="scale(0.015625)"/>
       </defs>
       <use xlink:href="#DejaVuSans-32"/>
       <use xlink:href="#DejaVuSans-34" x="63.623047"/>
       <use xlink:href="#DejaVuSans-35" x="127.246094"/>
       <use xlink:href="#DejaVuSans-30" x="190.869141"/>
       <use xlink:href="#DejaVuSans-30" x="254.492188"/>
      </g>
     </g>
    </g>
    <g id="xtick_2">
     <g id="line2d_2">
      <g>
       <use xlink:href="#m6b68fbd06e" x="267.601839" y="256.32" style="stroke: #000000; stroke-width: 0.8"/>
      </g>
     </g>
     <g id="text_2">
      <!-- 25000 -->
      <g transform="translate(251.695589 270.918437) scale(0.1 -0.1)">
       <use xlink:href="#DejaVuSans-32"/>
       <use xlink:href="#DejaVuSans-35" x="63.623047"/>
       <use xlink:href="#DejaVuSans-30" x="127.246094"/>
       <use xlink:href="#DejaVuSans-30" x="190.869141"/>
       <use xlink:href="#DejaVuSans-30" x="254.492188"/>
      </g>
     </g>
    </g>
    <g id="xtick_3">
     <g id="line2d_3">
      <g>
       <use xlink:href="#m6b68fbd06e" x="361.576038" y="256.32" style="stroke: #000000; stroke-width: 0.8"/>
      </g>
     </g>
     <g id="text_3">
      <!-- 25500 -->
      <g transform="translate(345.669788 270.918437) scale(0.1 -0.1)">
       <use xlink:href="#DejaVuSans-32"/>
       <use xlink:href="#DejaVuSans-35" x="63.623047"/>
       <use xlink:href="#DejaVuSans-35" x="127.246094"/>
       <use xlink:href="#DejaVuSans-30" x="190.869141"/>
       <use xlink:href="#DejaVuSans-30" x="254.492188"/>
      </g>
     </g>
    </g>
    <g id="xtick_4">
     <g id="line2d_4">
      <g>
       <use xlink:href="#m6b68fbd06e" x="455.550237" y="256.32" style="stroke: #000000; stroke-width: 0.8"/>
      </g>
     </g>
     <g id="text_4">
      <!-- 26000 -->
      <g transform="translate(439.643987 270.918437) scale(0.1 -0.1)">
       <defs>
        <path id="DejaVuSans-36" d="M 2113 2584 
Q 1688 2584 1439 2293 
Q 1191 2003 1191 1497 
Q 1191 994 1439 701 
Q 1688 409 2113 409 
Q 2538 409 2786 701 
Q 3034 994 3034 1497 
Q 3034 2003 2786 2293 
Q 2538 2584 2113 2584 
z
M 3366 4563 
L 3366 3988 
Q 3128 4100 2886 4159 
Q 2644 4219 2406 4219 
Q 1781 4219 1451 3797 
Q 1122 3375 1075 2522 
Q 1259 2794 1537 2939 
Q 1816 3084 2150 3084 
Q 2853 3084 3261 2657 
Q 3669 2231 3669 1497 
Q 3669 778 3244 343 
Q 2819 -91 2113 -91 
Q 1303 -91 875 529 
Q 447 1150 447 2328 
Q 447 3434 972 4092 
Q 1497 4750 2381 4750 
Q 2619 4750 2861 4703 
Q 3103 4656 3366 4563 
z
" transform="scale(0.015625)"/>
       </defs>
       <use xlink:href="#DejaVuSans-32"/>
       <use xlink:href="#DejaVuSans-36" x="63.623047"/>
       <use xlink:href="#DejaVuSans-30" x="127.246094"/>
       <use xlink:href="#DejaVuSans-30" x="190.869141"/>
       <use xlink:href="#DejaVuSans-30" x="254.492188"/>
      </g>
     </g>
    </g>
    <g id="xtick_5">
     <g id="line2d_5">
      <g>
       <use xlink:href="#m6b68fbd06e" x="549.524437" y="256.32" style="stroke: #000000; stroke-width: 0.8"/>
      </g>
     </g>
     <g id="text_5">
      <!-- 26500 -->
      <g transform="translate(533.618187 270.918437) scale(0.1 -0.1)">
       <use xlink:href="#DejaVuSans-32"/>
       <use xlink:href="#DejaVuSans-36" x="63.623047"/>
       <use xlink:href="#DejaVuSans-35" x="127.246094"/>
       <use xlink:href="#DejaVuSans-30" x="190.869141"/>
       <use xlink:href="#DejaVuSans-30" x="254.492188"/>
      </g>
     </g>
    </g>
    <g id="xtick_6">
     <g id="line2d_6">
      <g>
       <use xlink:href="#m6b68fbd06e" x="643.498636" y="256.32" style="stroke: #000000; stroke-width: 0.8"/>
      </g>
     </g>
     <g id="text_6">
      <!-- 27000 -->
      <g transform="translate(627.592386 270.918437) scale(0.1 -0.1)">
       <defs>
        <path id="DejaVuSans-37" d="M 525 4666 
L 3525 4666 
L 3525 4397 
L 1831 0 
L 1172 0 
L 2766 4134 
L 525 4134 
L 525 4666 
z
" transform="scale(0.015625)"/>
       </defs>
       <use xlink:href="#DejaVuSans-32"/>
       <use xlink:href="#DejaVuSans-37" x="63.623047"/>
       <use xlink:href="#DejaVuSans-30" x="127.246094"/>
       <use xlink:href="#DejaVuSans-30" x="190.869141"/>
       <use xlink:href="#DejaVuSans-30" x="254.492188"/>
      </g>
     </g>
    </g>
    <g id="text_7">
     <!-- GPS - Time of week [s] -->
     <g transform="translate(312.490625 284.596563) scale(0.1 -0.1)">
      <defs>
       <path id="DejaVuSans-47" d="M 3809 666 
L 3809 1919 
L 2778 1919 
L 2778 2438 
L 4434 2438 
L 4434 434 
Q 4069 175 3628 42 
Q 3188 -91 2688 -91 
Q 1594 -91 976 548 
Q 359 1188 359 2328 
Q 359 3472 976 4111 
Q 1594 4750 2688 4750 
Q 3144 4750 3555 4637 
Q 3966 4525 4313 4306 
L 4313 3634 
Q 3963 3931 3569 4081 
Q 3175 4231 2741 4231 
Q 1884 4231 1454 3753 
Q 1025 3275 1025 2328 
Q 1025 1384 1454 906 
Q 1884 428 2741 428 
Q 3075 428 3337 486 
Q 3600 544 3809 666 
z
" transform="scale(0.015625)"/>
       <path id="DejaVuSans-50" d="M 1259 4147 
L 1259 2394 
L 2053 2394 
Q 2494 2394 2734 2622 
Q 2975 2850 2975 3272 
Q 2975 3691 2734 3919 
Q 2494 4147 2053 4147 
L 1259 4147 
z
M 628 4666 
L 2053 4666 
Q 2838 4666 3239 4311 
Q 3641 3956 3641 3272 
Q 3641 2581 3239 2228 
Q 2838 1875 2053 1875 
L 1259 1875 
L 1259 0 
L 628 0 
L 628 4666 
z
" transform="scale(0.015625)"/>
       <path id="DejaVuSans-53" d="M 3425 4513 
L 3425 3897 
Q 3066 4069 2747 4153 
Q 2428 4238 2131 4238 
Q 1616 4238 1336 4038 
Q 1056 3838 1056 3469 
Q 1056 3159 1242 3001 
Q 1428 2844 1947 2747 
L 2328 2669 
Q 3034 2534 3370 2195 
Q 3706 1856 3706 1288 
Q 3706 609 3251 259 
Q 2797 -91 1919 -91 
Q 1588 -91 1214 -16 
Q 841 59 441 206 
L 441 856 
Q 825 641 1194 531 
Q 1563 422 1919 422 
Q 2459 422 2753 634 
Q 3047 847 3047 1241 
Q 3047 1584 2836 1778 
Q 2625 1972 2144 2069 
L 1759 2144 
Q 1053 2284 737 2584 
Q 422 2884 422 3419 
Q 422 4038 858 4394 
Q 1294 4750 2059 4750 
Q 2388 4750 2728 4690 
Q 3069 4631 3425 4513 
z
" transform="scale(0.015625)"/>
       <path id="DejaVuSans-20" transform="scale(0.015625)"/>
       <path id="DejaVuSans-2d" d="M 313 2009 
L 1997 2009 
L 1997 1497 
L 313 1497 
L 313 2009 
z
" transform="scale(0.015625)"/>
       <path id="DejaVuSans-54" d="M -19 4666 
L 3928 4666 
L 3928 4134 
L 2272 4134 
L 2272 0 
L 1638 0 
L 1638 4134 
L -19 4134 
L -19 4666 
z
" transform="scale(0.015625)"/>
       <path id="DejaVuSans-69" d="M 603 3500 
L 1178 3500 
L 1178 0 
L 603 0 
L 603 3500 
z
M 603 4863 
L 1178 4863 
L 1178 4134 
L 603 4134 
L 603 4863 
z
" transform="scale(0.015625)"/>
       <path id="DejaVuSans-6d" d="M 3328 2828 
Q 3544 3216 3844 3400 
Q 4144 3584 4550 3584 
Q 5097 3584 5394 3201 
Q 5691 2819 5691 2113 
L 5691 0 
L 5113 0 
L 5113 2094 
Q 5113 2597 4934 2840 
Q 4756 3084 4391 3084 
Q 3944 3084 3684 2787 
Q 3425 2491 3425 1978 
L 3425 0 
L 2847 0 
L 2847 2094 
Q 2847 2600 2669 2842 
Q 2491 3084 2119 3084 
Q 1678 3084 1418 2786 
Q 1159 2488 1159 1978 
L 1159 0 
L 581 0 
L 581 3500 
L 1159 3500 
L 1159 2956 
Q 1356 3278 1631 3431 
Q 1906 3584 2284 3584 
Q 2666 3584 2933 3390 
Q 3200 3197 3328 2828 
z
" transform="scale(0.015625)"/>
       <path id="DejaVuSans-65" d="M 3597 1894 
L 3597 1613 
L 953 1613 
Q 991 1019 1311 708 
Q 1631 397 2203 397 
Q 2534 397 2845 478 
Q 3156 559 3463 722 
L 3463 178 
Q 3153 47 2828 -22 
Q 2503 -91 2169 -91 
Q 1331 -91 842 396 
Q 353 884 353 1716 
Q 353 2575 817 3079 
Q 1281 3584 2069 3584 
Q 2775 3584 3186 3129 
Q 3597 2675 3597 1894 
z
M 3022 2063 
Q 3016 2534 2758 2815 
Q 2500 3097 2075 3097 
Q 1594 3097 1305 2825 
Q 1016 2553 972 2059 
L 3022 2063 
z
" transform="scale(0.015625)"/>
       <path id="DejaVuSans-6f" d="M 1959 3097 
Q 1497 3097 1228 2736 
Q 959 2375 959 1747 
Q 959 1119 1226 758 
Q 1494 397 1959 397 
Q 2419 397 2687 759 
Q 2956 1122 2956 1747 
Q 2956 2369 2687 2733 
Q 2419 3097 1959 3097 
z
M 1959 3584 
Q 2709 3584 3137 3096 
Q 3566 2609 3566 1747 
Q 3566 888 3137 398 
Q 2709 -91 1959 -91 
Q 1206 -91 779 398 
Q 353 888 353 1747 
Q 353 2609 779 3096 
Q 1206 3584 1959 3584 
z
" transform="scale(0.015625)"/>
       <path id="DejaVuSans-66" d="M 2375 4863 
L 2375 4384 
L 1825 4384 
Q 1516 4384 1395 4259 
Q 1275 4134 1275 3809 
L 1275 3500 
L 2222 3500 
L 2222 3053 
L 1275 3053 
L 1275 0 
L 697 0 
L 697 3053 
L 147 3053 
L 147 3500 
L 697 3500 
L 697 3744 
Q 697 4328 969 4595 
Q 1241 4863 1831 4863 
L 2375 4863 
z
" transform="scale(0.015625)"/>
       <path id="DejaVuSans-77" d="M 269 3500 
L 844 3500 
L 1563 769 
L 2278 3500 
L 2956 3500 
L 3675 769 
L 4391 3500 
L 4966 3500 
L 4050 0 
L 3372 0 
L 2619 2869 
L 1863 0 
L 1184 0 
L 269 3500 
z
" transform="scale(0.015625)"/>
       <path id="DejaVuSans-6b" d="M 581 4863 
L 1159 4863 
L 1159 1991 
L 2875 3500 
L 3609 3500 
L 1753 1863 
L 3688 0 
L 2938 0 
L 1159 1709 
L 1159 0 
L 581 0 
L 581 4863 
z
" transform="scale(0.015625)"/>
       <path id="DejaVuSans-5b" d="M 550 4863 
L 1875 4863 
L 1875 4416 
L 1125 4416 
L 1125 -397 
L 1875 -397 
L 1875 -844 
L 550 -844 
L 550 4863 
z
" transform="scale(0.015625)"/>
       <path id="DejaVuSans-73" d="M 2834 3397 
L 2834 2853 
Q 2591 2978 2328 3040 
Q 2066 3103 1784 3103 
Q 1356 3103 1142 2972 
Q 928 2841 928 2578 
Q 928 2378 1081 2264 
Q 1234 2150 1697 2047 
L 1894 2003 
Q 2506 1872 2764 1633 
Q 3022 1394 3022 966 
Q 3022 478 2636 193 
Q 2250 -91 1575 -91 
Q 1294 -91 989 -36 
Q 684 19 347 128 
L 347 722 
Q 666 556 975 473 
Q 1284 391 1588 391 
Q 1994 391 2212 530 
Q 2431 669 2431 922 
Q 2431 1156 2273 1281 
Q 2116 1406 1581 1522 
L 1381 1569 
Q 847 1681 609 1914 
Q 372 2147 372 2553 
Q 372 3047 722 3315 
Q 1072 3584 1716 3584 
Q 2034 3584 2315 3537 
Q 2597 3491 2834 3397 
z
" transform="scale(0.015625)"/>
       <path id="DejaVuSans-5d" d="M 1947 4863 
L 1947 -844 
L 622 -844 
L 622 -397 
L 1369 -397 
L 1369 4416 
L 622 4416 
L 622 4863 
L 1947 4863 
z
" transform="scale(0.015625)"/>
      </defs>
      <use xlink:href="#DejaVuSans-47"/>
      <use xlink:href="#DejaVuSans-50" x="77.490234"/>
      <use xlink:href="#DejaVuSans-53" x="137.792969"/>
      <use xlink:href="#DejaVuSans-20" x="201.269531"/>
      <use xlink:href="#DejaVuSans-2d" x="233.056641"/>
      <use xlink:href="#DejaVuSans-20" x="269.140625"/>
      <use xlink:href="#DejaVuSans-54" x="300.927734"/>
      <use xlink:href="#DejaVuSans-69" x="358.886719"/>
      <use xlink:href="#DejaVuSans-6d" x="386.669922"/>
      <use xlink:href="#DejaVuSans-65" x="484.082031"/>
      <use xlink:href="#DejaVuSans-20" x="545.605469"/>
      <use xlink:href="#DejaVuSans-6f" x="577.392578"/>
      <use xlink:href="#DejaVuSans-66" x="638.574219"/>
      <use xlink:href="#DejaVuSans-20" x="673.779297"/>
      <use xlink:href="#DejaVuSans-77" x="705.566406"/>
      <use xlink:href="#DejaVuSans-65" x="787.353516"/>
      <use xlink:href="#DejaVuSans-65" x="848.876953"/>
      <use xlink:href="#DejaVuSans-6b" x="910.400391"/>
      <use xlink:href="#DejaVuSans-20" x="968.310547"/>
      <use xlink:href="#DejaVuSans-5b" x="1000.097656"/>
      <use xlink:href="#DejaVuSans-73" x="1039.111328"/>
      <use xlink:href="#DejaVuSans-5d" x="1091.210938"/>
     </g>
    </g>
   </g>
   <g id="matplotlib.axis_2">
    <g id="ytick_1">
     <g id="line2d_7">
      <defs>
       <path id="md8a69f8d54" d="M 0 0 
L -3.5 0 
" style="stroke: #000000; stroke-width: 0.8"/>
      </defs>
      <g>
       <use xlink:href="#md8a69f8d54" x="90" y="215.049308" style="stroke: #000000; stroke-width: 0.8"/>
      </g>
     </g>
     <g id="text_8">
      <!-- $\mathdefault{10^{-4}}$ -->
      <g transform="translate(59.5 218.848527) scale(0.1 -0.1)">
       <defs>
        <path id="DejaVuSans-31" d="M 794 531 
L 1825 531 
L 1825 4091 
L 703 3866 
L 703 4441 
L 1819 4666 
L 2450 4666 
L 2450 531 
L 3481 531 
L 3481 0 
L 794 0 
L 794 531 
z
" transform="scale(0.015625)"/>
        <path id="DejaVuSans-2212" d="M 678 2272 
L 4684 2272 
L 4684 1741 
L 678 1741 
L 678 2272 
z
" transform="scale(0.015625)"/>
       </defs>
       <use xlink:href="#DejaVuSans-31" transform="translate(0 0.684375)"/>
       <use xlink:href="#DejaVuSans-30" transform="translate(63.623047 0.684375)"/>
       <use xlink:href="#DejaVuSans-2212" transform="translate(128.203125 38.965625) scale(0.7)"/>
       <use xlink:href="#DejaVuSans-34" transform="translate(186.855469 38.965625) scale(0.7)"/>
      </g>
     </g>
    </g>
    <g id="ytick_2">
     <g id="line2d_8">
      <g>
       <use xlink:href="#md8a69f8d54" x="90" y="142.186783" style="stroke: #000000; stroke-width: 0.8"/>
      </g>
     </g>
     <g id="text_9">
      <!-- $\mathdefault{10^{-3}}$ -->
      <g transform="translate(59.5 145.986002) scale(0.1 -0.1)">
       <defs>
        <path id="DejaVuSans-33" d="M 2597 2516 
Q 3050 2419 3304 2112 
Q 3559 1806 3559 1356 
Q 3559 666 3084 287 
Q 2609 -91 1734 -91 
Q 1441 -91 1130 -33 
Q 819 25 488 141 
L 488 750 
Q 750 597 1062 519 
Q 1375 441 1716 441 
Q 2309 441 2620 675 
Q 2931 909 2931 1356 
Q 2931 1769 2642 2001 
Q 2353 2234 1838 2234 
L 1294 2234 
L 1294 2753 
L 1863 2753 
Q 2328 2753 2575 2939 
Q 2822 3125 2822 3475 
Q 2822 3834 2567 4026 
Q 2313 4219 1838 4219 
Q 1578 4219 1281 4162 
Q 984 4106 628 3988 
L 628 4550 
Q 988 4650 1302 4700 
Q 1616 4750 1894 4750 
Q 2613 4750 3031 4423 
Q 3450 4097 3450 3541 
Q 3450 3153 3228 2886 
Q 3006 2619 2597 2516 
z
" transform="scale(0.015625)"/>
       </defs>
       <use xlink:href="#DejaVuSans-31" transform="translate(0 0.765625)"/>
       <use xlink:href="#DejaVuSans-30" transform="translate(63.623047 0.765625)"/>
       <use xlink:href="#DejaVuSans-2212" transform="translate(128.203125 39.046875) scale(0.7)"/>
       <use xlink:href="#DejaVuSans-33" transform="translate(186.855469 39.046875) scale(0.7)"/>
      </g>
     </g>
    </g>
    <g id="ytick_3">
     <g id="line2d_9">
      <g>
       <use xlink:href="#md8a69f8d54" x="90" y="69.324259" style="stroke: #000000; stroke-width: 0.8"/>
      </g>
     </g>
     <g id="text_10">
      <!-- $\mathdefault{10^{-2}}$ -->
      <g transform="translate(59.5 73.123478) scale(0.1 -0.1)">
       <use xlink:href="#DejaVuSans-31" transform="translate(0 0.765625)"/>
       <use xlink:href="#DejaVuSans-30" transform="translate(63.623047 0.765625)"/>
       <use xlink:href="#DejaVuSans-2212" transform="translate(128.203125 39.046875) scale(0.7)"/>
       <use xlink:href="#DejaVuSans-32" transform="translate(186.855469 39.046875) scale(0.7)"/>
      </g>
     </g>
    </g>
    <g id="ytick_4">
     <g id="line2d_10">
      <defs>
       <path id="md76a34900b" d="M 0 0 
L -2 0 
" style="stroke: #000000; stroke-width: 0.6"/>
      </defs>
      <g>
       <use xlink:href="#md76a34900b" x="90" y="253.147573" style="stroke: #000000; stroke-width: 0.6"/>
      </g>
     </g>
    </g>
    <g id="ytick_5">
     <g id="line2d_11">
      <g>
       <use xlink:href="#md76a34900b" x="90" y="244.044221" style="stroke: #000000; stroke-width: 0.6"/>
      </g>
     </g>
    </g>
    <g id="ytick_6">
     <g id="line2d_12">
      <g>
       <use xlink:href="#md76a34900b" x="90" y="236.983113" style="stroke: #000000; stroke-width: 0.6"/>
      </g>
     </g>
    </g>
    <g id="ytick_7">
     <g id="line2d_13">
      <g>
       <use xlink:href="#md76a34900b" x="90" y="231.213768" style="stroke: #000000; stroke-width: 0.6"/>
      </g>
     </g>
    </g>
    <g id="ytick_8">
     <g id="line2d_14">
      <g>
       <use xlink:href="#md76a34900b" x="90" y="226.335856" style="stroke: #000000; stroke-width: 0.6"/>
      </g>
     </g>
    </g>
    <g id="ytick_9">
     <g id="line2d_15">
      <g>
       <use xlink:href="#md76a34900b" x="90" y="222.110416" style="stroke: #000000; stroke-width: 0.6"/>
      </g>
     </g>
    </g>
    <g id="ytick_10">
     <g id="line2d_16">
      <g>
       <use xlink:href="#md76a34900b" x="90" y="218.383314" style="stroke: #000000; stroke-width: 0.6"/>
      </g>
     </g>
    </g>
    <g id="ytick_11">
     <g id="line2d_17">
      <g>
       <use xlink:href="#md76a34900b" x="90" y="193.115502" style="stroke: #000000; stroke-width: 0.6"/>
      </g>
     </g>
    </g>
    <g id="ytick_12">
     <g id="line2d_18">
      <g>
       <use xlink:href="#md76a34900b" x="90" y="180.285049" style="stroke: #000000; stroke-width: 0.6"/>
      </g>
     </g>
    </g>
    <g id="ytick_13">
     <g id="line2d_19">
      <g>
       <use xlink:href="#md76a34900b" x="90" y="171.181697" style="stroke: #000000; stroke-width: 0.6"/>
      </g>
     </g>
    </g>
    <g id="ytick_14">
     <g id="line2d_20">
      <g>
       <use xlink:href="#md76a34900b" x="90" y="164.120589" style="stroke: #000000; stroke-width: 0.6"/>
      </g>
     </g>
    </g>
    <g id="ytick_15">
     <g id="line2d_21">
      <g>
       <use xlink:href="#md76a34900b" x="90" y="158.351243" style="stroke: #000000; stroke-width: 0.6"/>
      </g>
     </g>
    </g>
    <g id="ytick_16">
     <g id="line2d_22">
      <g>
       <use xlink:href="#md76a34900b" x="90" y="153.473331" style="stroke: #000000; stroke-width: 0.6"/>
      </g>
     </g>
    </g>
    <g id="ytick_17">
     <g id="line2d_23">
      <g>
       <use xlink:href="#md76a34900b" x="90" y="149.247892" style="stroke: #000000; stroke-width: 0.6"/>
      </g>
     </g>
    </g>
    <g id="ytick_18">
     <g id="line2d_24">
      <g>
       <use xlink:href="#md76a34900b" x="90" y="145.52079" style="stroke: #000000; stroke-width: 0.6"/>
      </g>
     </g>
    </g>
    <g id="ytick_19">
     <g id="line2d_25">
      <g>
       <use xlink:href="#md76a34900b" x="90" y="120.252978" style="stroke: #000000; stroke-width: 0.6"/>
      </g>
     </g>
    </g>
    <g id="ytick_20">
     <g id="line2d_26">
      <g>
       <use xlink:href="#md76a34900b" x="90" y="107.422524" style="stroke: #000000; stroke-width: 0.6"/>
      </g>
     </g>
    </g>
    <g id="ytick_21">
     <g id="line2d_27">
      <g>
       <use xlink:href="#md76a34900b" x="90" y="98.319173" style="stroke: #000000; stroke-width: 0.6"/>
      </g>
     </g>
    </g>
    <g id="ytick_22">
     <g id="line2d_28">
      <g>
       <use xlink:href="#md76a34900b" x="90" y="91.258064" style="stroke: #000000; stroke-width: 0.6"/>
      </g>
     </g>
    </g>
    <g id="ytick_23">
     <g id="line2d_29">
      <g>
       <use xlink:href="#md76a34900b" x="90" y="85.488719" style="stroke: #000000; stroke-width: 0.6"/>
      </g>
     </g>
    </g>
    <g id="ytick_24">
     <g id="line2d_30">
      <g>
       <use xlink:href="#md76a34900b" x="90" y="80.610807" style="stroke: #000000; stroke-width: 0.6"/>
      </g>
     </g>
    </g>
    <g id="ytick_25">
     <g id="line2d_31">
      <g>
       <use xlink:href="#md76a34900b" x="90" y="76.385367" style="stroke: #000000; stroke-width: 0.6"/>
      </g>
     </g>
    </g>
    <g id="ytick_26">
     <g id="line2d_32">
      <g>
       <use xlink:href="#md76a34900b" x="90" y="72.658265" style="stroke: #000000; stroke-width: 0.6"/>
      </g>
     </g>
    </g>
    <g id="ytick_27">
     <g id="line2d_33">
      <g>
       <use xlink:href="#md76a34900b" x="90" y="47.390454" style="stroke: #000000; stroke-width: 0.6"/>
      </g>
     </g>
    </g>
    <g id="ytick_28">
     <g id="line2d_34">
      <g>
       <use xlink:href="#md76a34900b" x="90" y="34.56" style="stroke: #000000; stroke-width: 0.6"/>
      </g>
     </g>
    </g>
    <g id="text_11">
     <!-- Norm of Gyro [rad/s] -->
     <g transform="translate(53.420312 196.985312) rotate(-90) scale(0.1 -0.1)">
      <defs>
       <path id="DejaVuSans-4e" d="M 628 4666 
L 1478 4666 
L 3547 763 
L 3547 4666 
L 4159 4666 
L 4159 0 
L 3309 0 
L 1241 3903 
L 1241 0 
L 628 0 
L 628 4666 
z
" transform="scale(0.015625)"/>
       <path id="DejaVuSans-72" d="M 2631 2963 
Q 2534 3019 2420 3045 
Q 2306 3072 2169 3072 
Q 1681 3072 1420 2755 
Q 1159 2438 1159 1844 
L 1159 0 
L 581 0 
L 581 3500 
L 1159 3500 
L 1159 2956 
Q 1341 3275 1631 3429 
Q 1922 3584 2338 3584 
Q 2397 3584 2469 3576 
Q 2541 3569 2628 3553 
L 2631 2963 
z
" transform="scale(0.015625)"/>
       <path id="DejaVuSans-79" d="M 2059 -325 
Q 1816 -950 1584 -1140 
Q 1353 -1331 966 -1331 
L 506 -1331 
L 506 -850 
L 844 -850 
Q 1081 -850 1212 -737 
Q 1344 -625 1503 -206 
L 1606 56 
L 191 3500 
L 800 3500 
L 1894 763 
L 2988 3500 
L 3597 3500 
L 2059 -325 
z
" transform="scale(0.015625)"/>
       <path id="DejaVuSans-61" d="M 2194 1759 
Q 1497 1759 1228 1600 
Q 959 1441 959 1056 
Q 959 750 1161 570 
Q 1363 391 1709 391 
Q 2188 391 2477 730 
Q 2766 1069 2766 1631 
L 2766 1759 
L 2194 1759 
z
M 3341 1997 
L 3341 0 
L 2766 0 
L 2766 531 
Q 2569 213 2275 61 
Q 1981 -91 1556 -91 
Q 1019 -91 701 211 
Q 384 513 384 1019 
Q 384 1609 779 1909 
Q 1175 2209 1959 2209 
L 2766 2209 
L 2766 2266 
Q 2766 2663 2505 2880 
Q 2244 3097 1772 3097 
Q 1472 3097 1187 3025 
Q 903 2953 641 2809 
L 641 3341 
Q 956 3463 1253 3523 
Q 1550 3584 1831 3584 
Q 2591 3584 2966 3190 
Q 3341 2797 3341 1997 
z
" transform="scale(0.015625)"/>
       <path id="DejaVuSans-64" d="M 2906 2969 
L 2906 4863 
L 3481 4863 
L 3481 0 
L 2906 0 
L 2906 525 
Q 2725 213 2448 61 
Q 2172 -91 1784 -91 
Q 1150 -91 751 415 
Q 353 922 353 1747 
Q 353 2572 751 3078 
Q 1150 3584 1784 3584 
Q 2172 3584 2448 3432 
Q 2725 3281 2906 2969 
z
M 947 1747 
Q 947 1113 1208 752 
Q 1469 391 1925 391 
Q 2381 391 2643 752 
Q 2906 1113 2906 1747 
Q 2906 2381 2643 2742 
Q 2381 3103 1925 3103 
Q 1469 3103 1208 2742 
Q 947 2381 947 1747 
z
" transform="scale(0.015625)"/>
       <path id="DejaVuSans-2f" d="M 1625 4666 
L 2156 4666 
L 531 -594 
L 0 -594 
L 1625 4666 
z
" transform="scale(0.015625)"/>
      </defs>
      <use xlink:href="#DejaVuSans-4e"/>
      <use xlink:href="#DejaVuSans-6f" x="74.804688"/>
      <use xlink:href="#DejaVuSans-72" x="135.986328"/>
      <use xlink:href="#DejaVuSans-6d" x="175.349609"/>
      <use xlink:href="#DejaVuSans-20" x="272.761719"/>
      <use xlink:href="#DejaVuSans-6f" x="304.548828"/>
      <use xlink:href="#DejaVuSans-66" x="365.730469"/>
      <use xlink:href="#DejaVuSans-20" x="400.935547"/>
      <use xlink:href="#DejaVuSans-47" x="432.722656"/>
      <use xlink:href="#DejaVuSans-79" x="510.212891"/>
      <use xlink:href="#DejaVuSans-72" x="569.392578"/>
      <use xlink:href="#DejaVuSans-6f" x="608.255859"/>
      <use xlink:href="#DejaVuSans-20" x="669.4375"/>
      <use xlink:href="#DejaVuSans-5b" x="701.224609"/>
      <use xlink:href="#DejaVuSans-72" x="740.238281"/>
      <use xlink:href="#DejaVuSans-61" x="781.351562"/>
      <use xlink:href="#DejaVuSans-64" x="842.630859"/>
      <use xlink:href="#DejaVuSans-2f" x="906.107422"/>
      <use xlink:href="#DejaVuSans-73" x="939.798828"/>
      <use xlink:href="#DejaVuSans-5d" x="991.898438"/>
     </g>
    </g>
   </g>
   <g id="line2d_35">
    <path d="M 115.363636 185.980862 
L 115.551585 181.365027 
L 115.927482 200.581619 
L 116.11543 202.828204 
L 116.303378 221.825318 
L 116.491327 182.152103 
L 116.679275 171.308944 
L 116.867224 195.304279 
L 117.24312 165.924096 
L 117.431069 176.887415 
L 117.619017 231.419911 
L 117.806966 171.794391 
L 117.994914 164.847875 
L 118.558759 209.675617 
L 118.746708 211.767168 
L 118.934656 186.694886 
L 119.122604 191.15607 
L 119.310553 191.131365 
L 119.498501 169.582796 
L 119.68645 174.180576 
L 119.874398 209.902576 
L 120.062346 164.314261 
L 120.250295 156.077038 
L 120.438243 176.090067 
L 120.626192 175.218568 
L 120.81414 146.32392 
L 121.002088 148.94709 
L 121.190037 195.408397 
L 121.377985 160.562136 
L 121.565934 149.815801 
L 121.94183 189.16896 
L 122.129779 163.853599 
L 122.505676 185.894156 
L 122.693624 156.90166 
L 122.881572 168.248488 
L 123.069521 193.310797 
L 123.257469 157.84376 
L 123.445417 165.978087 
L 123.633366 186.069951 
L 123.821314 145.249368 
L 124.009263 143.028618 
L 124.197211 179.564016 
L 124.573108 134.46409 
L 124.761056 146.894384 
L 124.949005 189.335007 
L 125.136953 141.763168 
L 125.324901 143.353057 
L 125.51285 204.53285 
L 125.700798 148.866752 
L 125.888747 144.86143 
L 126.076695 215.648526 
L 126.264643 155.765677 
L 126.452592 158.722884 
L 126.64054 205.564613 
L 126.828489 159.045396 
L 127.016437 156.263525 
L 127.204385 199.729836 
L 127.392334 149.378015 
L 127.580282 140.927972 
L 127.956179 174.432376 
L 128.144127 143.945238 
L 128.332076 151.130493 
L 128.520024 183.057847 
L 128.707973 163.007538 
L 128.895921 161.722995 
L 129.271818 223.505389 
L 129.459766 177.615558 
L 129.647715 173.317235 
L 130.023611 183.684604 
L 130.21156 202.594271 
L 130.399508 182.810464 
L 130.587457 178.700473 
L 130.775405 199.135302 
L 130.963353 195.735013 
L 131.151302 186.545526 
L 131.33925 184.74832 
L 131.527199 156.461383 
L 131.715147 154.165924 
L 131.903095 189.221717 
L 132.091044 156.277727 
L 132.278992 149.949887 
L 132.466941 174.903181 
L 132.654889 162.512619 
L 132.842837 141.816212 
L 133.030786 145.610225 
L 133.218734 196.656234 
L 133.406683 145.651431 
L 133.594631 142.411846 
L 133.782579 175.488533 
L 134.158476 157.240634 
L 134.346425 196.123627 
L 134.534373 175.047694 
L 134.722321 174.533832 
L 134.91027 186.487325 
L 135.286167 170.182342 
L 135.474115 211.309644 
L 135.662063 172.844813 
L 135.850012 158.030361 
L 136.225909 182.431154 
L 136.413857 159.245514 
L 136.601805 161.085046 
L 136.977702 212.36335 
L 137.353599 168.231177 
L 137.541547 163.765559 
L 137.729496 189.094443 
L 137.917444 189.028603 
L 138.105393 166.9471 
L 138.293341 167.771765 
L 138.669238 200.335256 
L 138.857186 175.639196 
L 139.045135 170.43156 
L 139.233083 185.667716 
L 139.421031 211.512645 
L 139.60898 201.49119 
L 139.796928 209.946691 
L 139.984877 195.678613 
L 140.172825 206.626833 
L 140.360773 177.959526 
L 140.548722 167.733103 
L 140.73667 174.940542 
L 140.924619 195.152338 
L 141.112567 152.642399 
L 141.300515 149.747521 
L 141.488464 182.02932 
L 141.676412 146.588376 
L 141.864361 133.941124 
L 142.240257 169.220807 
L 142.428206 139.879139 
L 142.616154 144.061709 
L 142.804103 185.584611 
L 143.179999 148.122684 
L 143.367948 168.567512 
L 143.555896 175.889653 
L 143.743845 153.3824 
L 144.119741 184.907563 
L 144.30769 156.036301 
L 144.683587 186.840915 
L 144.871535 154.469925 
L 145.059483 161.772815 
L 145.247432 201.847338 
L 145.43538 149.383054 
L 145.623329 144.743821 
L 145.811277 178.601309 
L 146.187174 141.982232 
L 146.375122 164.265306 
L 146.56307 166.877306 
L 146.751019 144.682743 
L 146.938967 158.374567 
L 147.126916 193.223595 
L 147.314864 152.349249 
L 147.502812 158.686545 
L 147.690761 212.185165 
L 147.878709 163.886044 
L 148.066658 163.395253 
L 148.254606 221.088842 
L 148.442554 171.367205 
L 148.630503 166.462005 
L 149.0064 198.514625 
L 149.194348 180.469773 
L 149.382296 180.501117 
L 149.570245 226.241371 
L 149.758193 187.96783 
L 149.946142 192.71876 
L 150.13409 178.872392 
L 150.322038 195.205617 
L 150.509987 182.445736 
L 150.697935 199.144009 
L 150.885884 198.117496 
L 151.26178 190.82403 
L 151.449729 232.464633 
L 151.637677 181.690052 
L 151.825626 172.269291 
L 152.013574 196.638568 
L 152.201522 187.844154 
L 152.389471 163.265111 
L 152.577419 168.947256 
L 152.765368 231.129555 
L 152.953316 166.404759 
L 153.141264 164.141477 
L 153.329213 200.650174 
L 153.70511 173.977006 
L 154.081006 195.961869 
L 154.268955 193.348775 
L 154.456903 202.196496 
L 154.644852 241.658678 
L 154.8328 232.583587 
L 155.208697 176.169062 
L 155.396645 184.822291 
L 155.584594 207.197143 
L 155.772542 172.582205 
L 155.96049 177.369926 
L 156.148439 186.017802 
L 156.336387 187.207771 
L 156.524336 178.442111 
L 156.712284 179.770774 
L 156.900232 186.696621 
L 157.276129 180.267767 
L 157.464078 178.436522 
L 157.652026 178.094766 
L 157.839974 204.507617 
L 158.027923 152.15656 
L 158.215871 170.52032 
L 158.40382 165.894615 
L 158.591768 138.025983 
L 158.779716 142.07455 
L 158.967665 185.24077 
L 159.155613 138.577737 
L 159.343562 128.175663 
L 159.53151 160.664355 
L 159.907407 126.151505 
L 160.283304 161.890644 
L 160.471252 130.688869 
L 160.6592 143.949694 
L 160.847149 173.568962 
L 161.035097 135.397731 
L 161.410994 165.828193 
L 161.598942 131.183254 
L 161.786891 138.919598 
L 161.974839 173.266587 
L 162.162788 124.643698 
L 162.350736 125.135566 
L 162.538684 220.094469 
L 162.726633 125.977448 
L 162.914581 120.768932 
L 163.10253 156.445028 
L 163.478426 117.830123 
L 163.666375 132.062724 
L 163.854323 173.106051 
L 164.042272 124.585071 
L 164.23022 126.646687 
L 164.418168 177.205408 
L 164.606117 136.282316 
L 164.794065 130.714239 
L 164.982014 177.45677 
L 165.169962 140.708963 
L 165.35791 133.451972 
L 165.545859 177.726139 
L 165.733807 145.733372 
L 165.921756 136.416665 
L 166.109704 168.405089 
L 166.485601 135.585095 
L 166.673549 148.458651 
L 166.861498 177.635221 
L 167.049446 136.85463 
L 167.237394 136.625623 
L 167.425343 180.457863 
L 167.80124 138.577515 
L 168.177136 174.104877 
L 168.365085 143.918297 
L 168.553033 149.930952 
L 168.740982 236.17452 
L 168.92893 153.700332 
L 169.116878 155.292116 
L 169.304827 240.712068 
L 169.492775 160.810271 
L 169.680724 161.447867 
L 169.868672 196.220395 
L 170.05662 155.88886 
L 170.244569 156.804563 
L 170.432517 201.305232 
L 170.808414 149.123924 
L 171.184311 187.357665 
L 171.372259 155.427548 
L 171.748156 181.242911 
L 171.936104 158.855475 
L 172.124053 170.482247 
L 172.312001 206.963423 
L 172.499949 172.723517 
L 172.687898 171.247675 
L 172.875846 203.206641 
L 173.063795 170.721862 
L 173.251743 164.721955 
L 173.439691 208.748727 
L 173.62764 168.088011 
L 173.815588 156.57589 
L 174.003537 178.018674 
L 174.191485 176.002004 
L 174.379433 153.255452 
L 174.567382 160.713992 
L 174.75533 200.038576 
L 174.943279 163.790509 
L 175.131227 162.366501 
L 175.319175 199.01552 
L 175.695072 168.568773 
L 175.883021 195.457155 
L 176.070969 201.998363 
L 176.258917 197.376633 
L 176.446866 222.228176 
L 176.634814 171.519645 
L 177.010711 178.809707 
L 177.198659 170.601355 
L 177.386608 174.250063 
L 177.574556 222.383485 
L 177.762505 180.986866 
L 177.950453 179.422485 
L 178.32635 200.676989 
L 178.514298 175.82902 
L 178.702247 189.8169 
L 179.078143 228.598683 
L 179.266092 199.576927 
L 179.45404 221.888219 
L 180.017885 188.253569 
L 180.205834 180.627791 
L 180.581731 227.061189 
L 180.769679 185.790359 
L 180.957627 174.789611 
L 181.145576 195.929293 
L 181.333524 192.641699 
L 181.521473 165.209552 
L 181.709421 169.30136 
L 181.897369 205.337341 
L 182.085318 197.072391 
L 182.273266 173.43729 
L 182.461215 172.500672 
L 182.837111 221.351947 
L 183.02506 192.510332 
L 183.213008 193.760169 
L 183.400957 193.839776 
L 183.588905 194.908373 
L 183.776853 214.938935 
L 183.964802 182.90395 
L 184.15275 179.346952 
L 184.528647 206.130877 
L 184.716595 183.792492 
L 185.092492 193.394129 
L 185.280441 189.809732 
L 185.656337 207.326035 
L 185.844286 184.42463 
L 186.032234 178.461688 
L 186.220183 190.098038 
L 186.408131 222.066264 
L 186.784028 175.719156 
L 186.971976 183.615499 
L 187.159925 203.565711 
L 187.535821 173.884258 
L 187.72377 174.445597 
L 187.911718 210.171042 
L 188.099667 182.924638 
L 188.287615 175.406449 
L 188.475563 182.221207 
L 188.663512 210.475584 
L 189.039409 216.965212 
L 189.415305 180.0361 
L 189.603254 202.073683 
L 189.791202 168.950061 
L 189.979151 169.952573 
L 190.167099 211.108925 
L 190.355047 159.920282 
L 190.542996 148.858671 
L 190.918893 188.267661 
L 191.106841 149.544537 
L 191.294789 151.936087 
L 191.482738 203.510019 
L 191.670686 173.986799 
L 191.858635 167.678713 
L 192.234531 228.197516 
L 192.42248 200.140717 
L 192.798377 220.63299 
L 192.986325 223.142762 
L 193.362222 183.912809 
L 193.55017 200.854303 
L 193.738118 203.03203 
L 193.926067 168.06572 
L 194.114015 162.143782 
L 194.301964 178.250962 
L 194.489912 209.351413 
L 194.67786 167.181887 
L 194.865809 164.585626 
L 195.241706 193.530976 
L 195.429654 173.097785 
L 195.617602 167.293128 
L 195.993499 211.769888 
L 196.181448 187.953265 
L 196.369396 193.430316 
L 196.557344 195.521752 
L 196.745293 194.838865 
L 196.933241 202.689506 
L 197.12119 226.116629 
L 197.497086 174.50599 
L 197.685035 177.819032 
L 197.872983 215.76249 
L 198.24888 175.011797 
L 198.436828 184.256124 
L 198.624777 216.080388 
L 199.000674 179.046352 
L 199.188622 180.187854 
L 199.37657 194.014955 
L 199.564519 236.934534 
L 199.752467 198.853689 
L 199.940416 190.641055 
L 200.128364 201.068168 
L 200.316312 229.844327 
L 200.504261 183.634994 
L 200.692209 194.74831 
L 200.880158 216.132073 
L 201.068106 216.440905 
L 201.256054 192.998392 
L 201.444003 184.280839 
L 201.631951 208.225798 
L 202.007848 167.062195 
L 202.195796 173.925421 
L 202.383745 200.950268 
L 202.759642 165.484662 
L 202.94759 177.95571 
L 203.135538 238.557275 
L 203.323487 190.352454 
L 203.511435 180.732008 
L 203.887332 208.47835 
L 204.07528 170.86162 
L 204.451177 202.999525 
L 204.639126 184.362754 
L 204.827074 227.626563 
L 205.015022 185.24795 
L 205.202971 181.602732 
L 205.390919 204.586701 
L 205.578868 193.394129 
L 205.766816 170.642568 
L 205.954764 175.197643 
L 206.142713 213.458602 
L 206.330661 168.521081 
L 206.51861 158.997115 
L 206.706558 176.251592 
L 206.894506 209.589793 
L 207.082455 165.946502 
L 207.270403 167.140785 
L 207.458352 196.222205 
L 207.834248 170.725204 
L 208.022197 183.285167 
L 208.210145 236.024002 
L 208.398094 195.003203 
L 208.586042 194.107237 
L 208.77399 197.391244 
L 208.961939 247.08217 
L 209.149887 212.235826 
L 209.337836 205.302154 
L 209.525784 210.940522 
L 209.713732 223.979508 
L 210.089629 172.067501 
L 210.277578 182.458009 
L 210.465526 200.122031 
L 210.841423 169.622763 
L 211.029371 214.123132 
L 211.405268 173.47357 
L 211.781165 220.82629 
L 211.969113 190.412842 
L 212.157062 204.0203 
L 212.34501 185.014622 
L 212.532958 183.462725 
L 212.720907 232.383229 
L 212.908855 187.098896 
L 213.096804 179.159049 
L 213.284752 227.865514 
L 213.4727 177.764957 
L 213.660649 166.045546 
L 213.848597 197.578979 
L 214.224494 167.881019 
L 214.412442 181.208882 
L 214.600391 207.938494 
L 214.788339 168.138286 
L 214.976288 172.798947 
L 215.164236 204.084142 
L 215.352184 194.589646 
L 215.540133 177.928913 
L 215.728081 196.896322 
L 216.103978 171.875998 
L 216.479875 201.501612 
L 216.667823 172.557617 
L 217.04372 185.430336 
L 217.231668 159.424697 
L 217.607565 188.172004 
L 217.795513 157.453776 
L 217.983462 159.587246 
L 218.17141 217.185005 
L 218.359359 161.896872 
L 218.547307 159.85276 
L 218.735255 190.259896 
L 218.923204 182.821131 
L 219.111152 160.928681 
L 219.299101 169.119287 
L 219.487049 233.246092 
L 219.674997 169.476534 
L 219.862946 164.77481 
L 220.050894 194.409436 
L 220.238843 186.137935 
L 220.426791 171.964352 
L 220.614739 215.882767 
L 220.802688 173.898905 
L 220.990636 162.973107 
L 221.178585 184.142666 
L 221.366533 184.294835 
L 221.554481 158.629933 
L 221.74243 165.842135 
L 221.930378 217.902465 
L 222.118327 156.680678 
L 222.306275 154.969043 
L 222.494223 195.375438 
L 222.682172 160.761439 
L 222.87012 150.755453 
L 223.246017 181.144183 
L 223.433965 152.641448 
L 223.621914 161.668363 
L 223.809862 189.947862 
L 223.997811 158.608479 
L 224.373707 178.654633 
L 224.561656 153.085559 
L 224.937553 181.190801 
L 225.125501 161.814844 
L 225.313449 155.511513 
L 225.501398 195.165561 
L 225.689346 158.976178 
L 225.877295 151.016798 
L 226.253191 178.3632 
L 226.44114 147.461489 
L 226.629088 156.203148 
L 226.817037 184.301864 
L 227.004985 162.366527 
L 227.192933 165.727417 
L 227.380882 202.986334 
L 227.756779 161.576928 
L 227.944727 184.587193 
L 228.132675 180.674435 
L 228.320624 162.246964 
L 228.508572 185.116802 
L 228.696521 179.66974 
L 228.884469 162.185927 
L 229.072417 206.094727 
L 229.260366 171.012853 
L 229.448314 161.960345 
L 229.824211 198.957312 
L 230.012159 169.817195 
L 230.200108 173.539394 
L 230.388056 221.287276 
L 230.576005 174.611732 
L 230.763953 164.899763 
L 231.13985 196.211347 
L 231.327798 172.762818 
L 231.515747 164.886705 
L 231.703695 178.402038 
L 231.891643 167.399847 
L 232.26754 157.685797 
L 232.643437 168.604182 
L 232.831385 143.508119 
L 233.207282 174.256385 
L 233.395231 147.150032 
L 233.583179 137.304179 
L 233.771127 155.304066 
L 233.959076 155.114105 
L 234.147024 128.705796 
L 234.334973 142.572689 
L 234.522921 165.073241 
L 234.710869 131.958087 
L 234.898818 135.970256 
L 235.086766 197.832851 
L 235.274715 137.924052 
L 235.462663 138.924015 
L 235.650611 216.623469 
L 235.83856 140.873459 
L 236.026508 137.253879 
L 236.214457 181.740574 
L 236.402405 133.033755 
L 236.590353 124.261462 
L 236.778302 161.543764 
L 236.96625 127.323529 
L 237.154199 114.864376 
L 237.342147 136.828421 
L 237.530095 141.548532 
L 237.718044 112.794293 
L 237.905992 119.527535 
L 238.093941 190.951713 
L 238.281889 119.785381 
L 238.469837 117.286125 
L 238.657786 149.547053 
L 238.845734 138.805378 
L 239.033683 119.777332 
L 239.409579 151.996655 
L 239.597528 124.213499 
L 239.785476 144.400674 
L 239.973425 149.299656 
L 240.161373 124.801379 
L 240.53727 159.595458 
L 240.725218 125.205325 
L 240.913166 128.006327 
L 241.101115 205.657799 
L 241.289063 127.330237 
L 241.477012 122.0493 
L 241.66496 151.589693 
L 242.040857 130.221598 
L 242.228805 133.242595 
L 242.416754 159.379623 
L 242.604702 168.183509 
L 242.79265 142.105816 
L 242.980599 138.120402 
L 243.356496 162.076146 
L 243.544444 138.775422 
L 243.732392 140.193624 
L 243.920341 166.008964 
L 244.108289 155.336793 
L 244.296238 135.408211 
L 244.484186 158.110554 
L 244.860083 135.879017 
L 245.048031 185.057862 
L 245.23598 135.645179 
L 245.423928 128.64031 
L 245.611876 182.516851 
L 245.799825 127.679458 
L 245.987773 119.490904 
L 246.175722 145.905193 
L 246.36367 148.734611 
L 246.551618 120.893606 
L 246.739567 123.488864 
L 246.927515 169.761557 
L 247.115464 123.631933 
L 247.303412 113.274008 
L 247.49136 136.268365 
L 247.679309 138.387233 
L 247.867257 118.131692 
L 248.055206 133.616868 
L 248.243154 158.580281 
L 248.431102 129.632544 
L 248.619051 141.319114 
L 248.806999 169.121429 
L 248.994948 129.043756 
L 249.182896 135.362071 
L 249.370844 155.08828 
L 249.558793 122.45008 
L 249.746741 127.469068 
L 249.93469 175.217788 
L 250.122638 122.621486 
L 250.310586 122.342443 
L 250.498535 175.055887 
L 250.686483 131.326028 
L 250.874432 121.843861 
L 251.250328 157.161741 
L 251.438277 134.66599 
L 251.626225 141.568926 
L 251.814174 177.077969 
L 252.002122 153.48972 
L 252.378019 185.565389 
L 252.565967 162.642802 
L 252.753916 198.598811 
L 252.941864 164.900341 
L 253.129812 156.596402 
L 253.317761 179.489418 
L 253.505709 186.177524 
L 253.693658 151.359426 
L 253.881606 145.020281 
L 254.069554 166.584437 
L 254.257503 156.225367 
L 254.445451 136.98243 
L 254.6334 149.378255 
L 254.821348 208.06881 
L 255.009296 150.288768 
L 255.197245 151.21728 
L 255.385193 194.928795 
L 255.76109 153.281066 
L 255.949038 172.620393 
L 256.136987 172.738512 
L 256.324935 161.266007 
L 256.512884 189.899535 
L 256.700832 155.033834 
L 256.88878 159.719598 
L 257.076729 170.578271 
L 257.264677 147.488694 
L 257.452626 150.271965 
L 257.640574 176.634368 
L 257.828522 168.53651 
L 258.016471 148.274803 
L 258.204419 154.141553 
L 258.392368 220.346098 
L 258.580316 152.645474 
L 258.768264 148.127447 
L 258.956213 192.116889 
L 259.33211 150.16654 
L 259.520058 176.615187 
L 259.708006 183.534462 
L 259.895955 160.223751 
L 260.083903 183.665765 
L 260.271852 174.773066 
L 260.4598 148.53541 
L 260.835697 173.223133 
L 261.023645 141.510156 
L 261.211594 152.133002 
L 261.399542 184.008879 
L 261.58749 142.562484 
L 261.775439 146.731533 
L 261.963387 187.910989 
L 262.151336 153.61102 
L 262.339284 147.531234 
L 262.527232 174.400752 
L 262.715181 182.305021 
L 262.903129 162.162764 
L 263.279026 194.284719 
L 263.466974 174.457972 
L 263.654923 228.071668 
L 263.842871 174.722225 
L 264.030819 168.244028 
L 264.406716 187.987787 
L 264.594665 165.396295 
L 264.782613 167.305694 
L 264.970561 205.181506 
L 265.346458 147.912538 
L 265.534407 156.966378 
L 265.722355 199.072723 
L 265.910303 154.907565 
L 266.098252 152.065036 
L 266.474149 211.711356 
L 266.662097 170.476556 
L 266.850045 173.37568 
L 267.037994 195.887033 
L 267.225942 199.18871 
L 267.413891 193.491416 
L 267.601839 204.677954 
L 267.789787 198.013257 
L 267.977736 200.684788 
L 268.165684 178.371106 
L 268.353633 195.321905 
L 268.541581 190.699763 
L 268.917478 194.400862 
L 269.105426 189.853851 
L 269.293375 179.733339 
L 269.481323 191.316316 
L 269.669271 180.7718 
L 269.85722 160.481952 
L 270.045168 162.191615 
L 270.233117 198.428414 
L 270.421065 158.846338 
L 270.609013 152.201766 
L 270.98491 190.465832 
L 271.172859 157.289359 
L 271.360807 160.37779 
L 271.548755 190.383636 
L 271.736704 185.678462 
L 271.924652 175.690665 
L 272.300549 212.532458 
L 272.488497 223.447743 
L 272.676446 187.74393 
L 272.864394 187.537263 
L 273.052343 235.516997 
L 273.240291 190.009167 
L 273.428239 176.58167 
L 273.616188 180.911929 
L 273.804136 204.094373 
L 273.992085 155.432212 
L 274.180033 151.683624 
L 274.367981 178.879082 
L 274.55593 179.250864 
L 274.743878 155.508216 
L 274.931827 164.738017 
L 275.119775 211.169048 
L 275.307723 169.764596 
L 275.495672 165.365222 
L 275.68362 188.61506 
L 275.871569 192.8495 
L 276.059517 173.117894 
L 276.247465 202.345575 
L 276.435414 198.143663 
L 276.623362 201.895361 
L 276.811311 180.787787 
L 276.999259 174.018162 
L 277.187207 193.273849 
L 277.375156 189.520658 
L 277.563104 166.35272 
L 277.751053 163.520373 
L 277.939001 184.226835 
L 278.126949 186.861815 
L 278.314898 159.657502 
L 278.502846 162.271284 
L 278.690795 239.228577 
L 278.878743 163.313325 
L 279.066691 157.91309 
L 279.25464 175.637256 
L 279.442588 208.604298 
L 279.630537 171.646928 
L 280.006433 179.29016 
L 280.194382 195.735562 
L 280.38233 190.874463 
L 280.570279 227.154426 
L 280.758227 179.423737 
L 281.134124 194.898484 
L 281.322072 164.581966 
L 281.510021 173.770245 
L 281.697969 217.424739 
L 281.885917 166.067619 
L 282.073866 160.151173 
L 282.261814 181.609291 
L 282.449763 181.583299 
L 282.637711 154.178163 
L 282.825659 156.575114 
L 283.013608 180.703174 
L 283.201556 188.067797 
L 283.389505 166.464868 
L 283.577453 169.589583 
L 283.765401 208.031297 
L 284.141298 173.000646 
L 284.517195 195.152549 
L 284.705143 183.371462 
L 284.893092 210.675147 
L 285.268989 189.476201 
L 285.456937 249.113828 
L 285.644885 185.660053 
L 285.832834 170.828582 
L 286.208731 198.283787 
L 286.396679 161.6308 
L 286.584627 158.387576 
L 286.772576 218.980549 
L 286.960524 163.900194 
L 287.148472 159.613405 
L 287.336421 192.444075 
L 287.524369 189.173525 
L 287.712318 173.181064 
L 287.900266 169.857845 
L 288.088214 178.521713 
L 288.276163 222.835638 
L 288.464111 178.431927 
L 288.65206 178.096205 
L 288.840008 216.82896 
L 289.027956 188.521042 
L 289.215905 182.472806 
L 289.403853 202.960677 
L 289.77975 181.702972 
L 289.967698 205.920635 
L 290.343595 175.458718 
L 290.531544 177.478971 
L 290.719492 205.472987 
L 290.90744 167.219369 
L 291.095389 170.821878 
L 291.283337 195.87275 
L 291.471286 157.91927 
L 291.659234 162.331695 
L 291.847182 235.745066 
L 292.035131 167.262872 
L 292.223079 165.120074 
L 292.411028 199.785434 
L 292.598976 169.305281 
L 292.786924 161.477167 
L 292.974873 198.827122 
L 293.35077 165.64111 
L 293.538718 202.607308 
L 293.726666 184.185752 
L 293.914615 178.305013 
L 294.102563 208.741487 
L 294.290512 182.738068 
L 294.47846 178.611751 
L 294.666408 223.875873 
L 294.854357 174.722632 
L 295.042305 176.791699 
L 295.230254 248.690453 
L 295.418202 176.923692 
L 295.60615 173.498414 
L 295.794099 234.924846 
L 295.982047 171.022422 
L 296.169996 169.810843 
L 296.357944 209.245148 
L 296.545892 198.107296 
L 296.733841 207.694115 
L 296.921789 211.034884 
L 297.109738 188.887558 
L 297.485634 220.629815 
L 297.673583 186.121972 
L 298.04948 201.631192 
L 298.237428 167.76268 
L 298.613325 192.603128 
L 298.801273 162.105559 
L 298.989222 174.502836 
L 299.17717 200.668595 
L 299.365118 168.910648 
L 299.741015 199.742975 
L 299.928964 183.77847 
L 300.116912 195.276225 
L 300.30486 236.24819 
L 300.492809 186.163138 
L 300.680757 185.848749 
L 300.868706 229.255732 
L 301.056654 192.148605 
L 301.244602 186.960808 
L 301.432551 202.115007 
L 301.620499 184.074371 
L 301.808448 193.529545 
L 301.996396 211.557913 
L 302.184344 202.352574 
L 302.560241 214.438769 
L 302.74819 185.592238 
L 303.124086 212.955164 
L 303.312035 215.660117 
L 303.499983 238.439408 
L 303.687932 229.510611 
L 303.87588 204.160945 
L 304.063828 193.92771 
L 304.251777 193.094382 
L 304.439725 231.780875 
L 304.627674 201.160342 
L 304.815622 191.592963 
L 305.00357 214.006764 
L 305.191519 176.529962 
L 305.379467 172.618993 
L 305.567416 178.48778 
L 305.755364 228.153185 
L 305.943312 178.485752 
L 306.131261 180.14344 
L 306.319209 214.151216 
L 306.507158 184.92905 
L 306.695106 185.048032 
L 307.071003 225.834723 
L 307.258951 207.137486 
L 307.4469 210.463333 
L 307.634848 202.841436 
L 307.822796 190.031644 
L 308.010745 232.107579 
L 308.198693 184.666516 
L 308.386642 180.487509 
L 308.57459 232.936693 
L 308.762538 182.580212 
L 308.950487 175.113802 
L 309.138435 186.554244 
L 309.326384 210.703378 
L 309.70228 181.586394 
L 310.078177 195.997859 
L 310.266126 168.979822 
L 310.454074 173.685693 
L 310.642022 192.526626 
L 310.829971 176.895217 
L 311.017919 202.176868 
L 311.205867 197.576144 
L 311.393816 188.106566 
L 311.581764 195.497741 
L 311.769713 192.57507 
L 311.957661 178.893001 
L 312.145609 191.568494 
L 312.333558 196.742873 
L 312.521506 173.823687 
L 312.709455 173.06966 
L 312.897403 230.19298 
L 313.085351 173.644415 
L 313.2733 168.324111 
L 313.461248 193.958275 
L 313.837145 178.546756 
L 314.213042 221.630207 
L 314.40099 194.214105 
L 314.588939 184.857945 
L 314.776887 193.217699 
L 314.964835 193.562026 
L 315.152784 195.060291 
L 315.340732 173.321731 
L 315.528681 193.324639 
L 315.904577 161.714816 
L 316.092526 180.704659 
L 316.280474 182.782956 
L 316.468423 162.033014 
L 316.844319 191.224148 
L 317.032268 168.347838 
L 317.220216 176.420997 
L 317.408165 204.228173 
L 317.596113 162.323248 
L 317.784061 164.820176 
L 317.97201 195.889914 
L 318.159958 155.052851 
L 318.347907 155.598148 
L 318.535855 208.877862 
L 318.723803 157.714021 
L 318.911752 154.470167 
L 319.0997 187.253598 
L 319.475597 149.994535 
L 319.663545 162.403465 
L 319.851494 201.032399 
L 320.039442 151.283372 
L 320.227391 152.238387 
L 320.415339 226.195418 
L 320.603287 150.52433 
L 320.791236 149.980513 
L 320.979184 244.152033 
L 321.167133 145.442214 
L 321.355081 144.210233 
L 321.543029 188.125545 
L 321.730978 148.609329 
L 321.918926 137.916203 
L 322.106875 163.675128 
L 322.482771 133.583808 
L 322.858668 169.378985 
L 323.046617 130.375214 
L 323.234565 133.960594 
L 323.422513 198.079407 
L 323.610462 134.00306 
L 323.79841 129.100752 
L 323.986359 172.109098 
L 324.174307 137.911613 
L 324.362255 125.799679 
L 324.550204 150.610721 
L 324.738152 147.853232 
L 324.926101 125.699299 
L 325.301997 157.229862 
L 325.489946 125.574639 
L 325.677894 135.902416 
L 325.865843 167.33986 
L 326.053791 123.783056 
L 326.241739 125.116643 
L 326.429688 181.552335 
L 326.617636 126.665729 
L 326.805585 120.422679 
L 326.993533 152.523466 
L 327.36943 120.624612 
L 327.745327 152.285833 
L 327.933275 123.8999 
L 328.121223 136.126728 
L 328.309172 177.638891 
L 328.49712 130.390094 
L 328.685069 137.56271 
L 328.873017 178.051256 
L 329.060965 126.389389 
L 329.248914 128.024378 
L 329.436862 192.651807 
L 329.624811 127.485552 
L 329.812759 122.650123 
L 330.000707 155.697756 
L 330.376604 120.134614 
L 330.564553 131.140706 
L 330.752501 187.103664 
L 330.940449 126.094878 
L 331.128398 124.025579 
L 331.316346 161.093275 
L 331.692243 126.143969 
L 332.06814 156.990625 
L 332.256088 131.690879 
L 332.631985 159.24723 
L 332.819933 130.402778 
L 333.007882 136.860607 
L 333.19583 186.471433 
L 333.383779 130.461769 
L 333.571727 126.963038 
L 333.759675 161.178479 
L 334.135572 119.234278 
L 334.32352 130.471705 
L 334.511469 171.082107 
L 334.699417 124.729035 
L 334.887366 122.171112 
L 335.075314 150.107232 
L 335.263262 149.90242 
L 335.451211 126.752141 
L 335.639159 134.860388 
L 335.827108 209.996062 
L 336.015056 144.077795 
L 336.203004 145.113151 
L 336.390953 178.725838 
L 336.578901 175.830985 
L 336.76685 181.017305 
L 337.142746 158.275634 
L 337.330695 181.12744 
L 337.706592 133.032664 
L 337.89454 144.873285 
L 338.082488 188.845056 
L 338.270437 135.100804 
L 338.458385 133.018335 
L 338.834282 171.94729 
L 339.02223 148.524804 
L 339.210179 146.166539 
L 339.398127 154.991783 
L 339.586076 185.70079 
L 339.774024 179.166131 
L 339.961972 149.236036 
L 340.149921 144.900121 
L 340.337869 152.577649 
L 340.525818 193.794972 
L 340.901714 150.431123 
L 341.089663 157.874111 
L 341.46556 193.55151 
L 341.653508 160.700384 
L 342.029405 179.980675 
L 342.217353 157.249843 
L 342.405302 154.419318 
L 342.59325 186.523569 
L 342.969147 129.056155 
L 343.157095 136.972542 
L 343.345044 173.337385 
L 343.532992 135.419955 
L 343.72094 128.560947 
L 344.096837 169.719352 
L 344.284786 152.06532 
L 344.848631 205.420895 
L 345.036579 174.572835 
L 345.224528 167.055944 
L 345.412476 174.734498 
L 345.600424 143.429497 
L 345.788373 134.234674 
L 345.976321 144.872558 
L 346.16427 163.358396 
L 346.352218 125.654811 
L 346.540166 127.099997 
L 346.728115 172.076402 
L 346.916063 139.900029 
L 347.104012 130.740502 
L 347.29196 154.846922 
L 347.479908 161.515956 
L 347.667857 138.959285 
L 347.855805 153.566228 
L 348.043754 189.034995 
L 348.231702 150.976821 
L 348.607599 167.765152 
L 348.795547 142.805944 
L 348.983496 155.581881 
L 349.171444 159.844675 
L 349.359392 127.665785 
L 349.547341 132.763456 
L 349.735289 177.094375 
L 349.923238 133.324661 
L 350.111186 128.546189 
L 350.299134 161.896252 
L 350.675031 129.970685 
L 350.86298 143.5419 
L 351.050928 182.098028 
L 351.238876 139.925955 
L 351.426825 142.63447 
L 351.614773 175.452506 
L 351.802722 156.029083 
L 351.99067 148.691491 
L 352.178618 183.335945 
L 352.366567 154.335312 
L 352.554515 145.180652 
L 352.742464 192.369755 
L 352.930412 149.381929 
L 353.11836 138.076572 
L 353.306309 162.951996 
L 353.494257 156.308121 
L 353.682206 134.231633 
L 353.870154 144.529424 
L 354.058102 170.539502 
L 354.246051 130.952903 
L 354.433999 129.52928 
L 354.621948 175.650106 
L 354.809896 142.162492 
L 354.997844 130.170048 
L 355.373741 166.429732 
L 355.56169 138.986997 
L 355.749638 149.96204 
L 355.937586 190.42225 
L 356.125535 149.571089 
L 356.313483 149.929587 
L 356.501432 186.919779 
L 356.68938 151.761353 
L 356.877328 148.647721 
L 357.065277 195.857817 
L 357.253225 141.278165 
L 357.441173 130.382032 
L 357.629122 150.44154 
L 357.81707 152.592832 
L 358.005019 126.125258 
L 358.192967 135.515784 
L 358.380915 175.662873 
L 358.568864 124.740626 
L 358.756812 124.447374 
L 358.944761 174.563391 
L 359.132709 134.517009 
L 359.320657 124.898111 
L 359.508606 152.034183 
L 359.696554 150.096469 
L 359.884503 127.686262 
L 360.260399 168.478077 
L 360.448348 141.410411 
L 360.636296 184.819209 
L 360.824245 142.584884 
L 361.012193 132.575486 
L 361.200141 167.307877 
L 361.576038 134.738117 
L 361.763987 161.692778 
L 361.951935 153.520025 
L 362.139883 132.919007 
L 362.327832 140.383104 
L 362.51578 207.442183 
L 362.703729 144.274178 
L 362.891677 143.852995 
L 363.267574 177.481809 
L 363.455522 150.653117 
L 363.643471 159.584789 
L 363.831419 187.386702 
L 364.019367 157.763362 
L 364.207316 175.504011 
L 364.395264 173.996237 
L 364.583213 163.333565 
L 364.771161 178.951383 
L 364.959109 205.985092 
L 365.147058 163.126124 
L 365.335006 167.808663 
L 365.522955 210.431082 
L 365.710903 152.563584 
L 365.898851 142.66793 
L 366.0868 161.995044 
L 366.274748 169.181206 
L 366.462697 143.30921 
L 366.650645 152.414383 
L 366.838593 215.748102 
L 367.026542 148.71161 
L 367.21449 145.980855 
L 367.402439 177.151624 
L 367.778335 150.951744 
L 368.154232 189.552468 
L 368.342181 160.463348 
L 368.530129 183.688959 
L 368.906026 149.156706 
L 369.093974 169.405305 
L 369.281923 168.783565 
L 369.469871 135.711719 
L 369.657819 138.137443 
L 369.845768 179.061605 
L 370.033716 138.656111 
L 370.221665 131.689643 
L 370.409613 158.159986 
L 370.597561 149.173607 
L 370.78551 129.045631 
L 370.973458 143.224974 
L 371.161407 179.211471 
L 371.349355 138.65385 
L 371.537303 135.872092 
L 371.725252 168.74558 
L 372.101149 137.483547 
L 372.289097 152.810231 
L 372.477045 179.624377 
L 372.664994 145.676147 
L 373.040891 171.87153 
L 373.228839 143.531714 
L 373.604736 169.17232 
L 373.792684 139.312699 
L 373.980633 142.527453 
L 374.168581 170.11328 
L 374.356529 136.190749 
L 374.544478 131.492141 
L 374.732426 155.196961 
L 374.920375 152.988869 
L 375.108323 132.980025 
L 375.48422 160.869378 
L 375.672168 135.090218 
L 375.860117 146.681435 
L 376.048065 174.547541 
L 376.236013 148.41874 
L 376.423962 154.497374 
L 376.61191 186.54792 
L 376.799859 154.130236 
L 376.987807 160.994629 
L 377.175755 179.811666 
L 377.363704 147.454256 
L 377.551652 157.16914 
L 377.739601 172.988474 
L 377.927549 140.739138 
L 378.115497 145.96501 
L 378.303446 209.614041 
L 378.491394 161.19672 
L 378.679343 150.736961 
L 378.867291 179.551545 
L 379.055239 178.78556 
L 379.243188 157.866446 
L 379.431136 165.362132 
L 379.619085 223.750982 
L 379.807033 172.361804 
L 379.994981 177.6362 
L 380.18293 174.250232 
L 380.370878 193.818864 
L 380.558827 188.745643 
L 380.934723 219.884595 
L 381.122672 190.536289 
L 381.31062 199.175477 
L 381.498568 197.162306 
L 381.686517 180.523124 
L 381.874465 213.296991 
L 382.250362 167.866951 
L 382.43831 176.635647 
L 382.626259 210.221393 
L 382.814207 179.370139 
L 383.002156 180.976676 
L 383.190104 188.734432 
L 383.378052 189.041677 
L 383.566001 167.81257 
L 383.753949 194.651814 
L 383.941898 174.612771 
L 384.129846 172.137195 
L 384.317794 199.96688 
L 384.505743 182.48339 
L 384.693691 176.629382 
L 384.88164 224.233961 
L 385.069588 171.044642 
L 385.257536 166.828758 
L 385.445485 182.063128 
L 385.633433 183.159797 
L 385.821382 161.807812 
L 386.00933 177.310205 
L 386.197278 177.896547 
L 386.385227 163.000094 
L 386.573175 174.479887 
L 386.761124 205.247618 
L 386.949072 161.547367 
L 387.13702 172.394066 
L 387.324969 222.396496 
L 387.512917 172.513359 
L 387.700866 180.091924 
L 387.888814 217.994927 
L 388.076762 172.75591 
L 388.264711 170.419063 
L 388.452659 208.015792 
L 388.640608 175.752538 
L 388.828556 163.094766 
L 389.204453 194.328926 
L 389.392401 172.712298 
L 389.956246 214.899838 
L 390.144195 184.260002 
L 390.332143 175.819545 
L 390.520092 179.728073 
L 390.70804 191.714263 
L 390.895988 182.84307 
L 391.083937 192.030626 
L 391.271885 210.43136 
L 391.459834 211.002887 
L 391.647782 227.264304 
L 391.83573 222.152255 
L 392.211627 199.454461 
L 392.399576 227.194439 
L 392.587524 186.039545 
L 392.775472 178.93396 
L 392.963421 210.814817 
L 393.151369 177.44765 
L 393.339318 171.522115 
L 393.527266 203.239574 
L 393.903163 160.82064 
L 394.091111 162.066789 
L 394.27906 185.78135 
L 394.654956 155.29869 
L 395.030853 191.240078 
L 395.218802 157.752517 
L 395.40675 165.142527 
L 395.594698 178.833779 
L 395.782647 169.955304 
L 395.970595 167.171421 
L 396.158544 176.546559 
L 396.346492 216.105812 
L 396.53444 180.588149 
L 396.722389 181.328571 
L 396.910337 182.578492 
L 397.098286 157.570413 
L 397.286234 189.723286 
L 397.474182 137.4364 
L 397.662131 134.640836 
L 397.850079 160.494426 
L 398.038028 120.96095 
L 398.225976 123.507854 
L 398.413924 170.906623 
L 398.601873 111.944317 
L 398.789821 110.052876 
L 398.97777 148.260968 
L 399.353666 108.391605 
L 399.729563 138.679965 
L 399.917512 115.779748 
L 400.293408 143.90874 
L 400.481357 117.978297 
L 400.669305 144.5569 
L 401.045202 119.014801 
L 401.23315 151.915736 
L 401.609047 111.636988 
L 401.796996 135.233635 
L 401.984944 124.369526 
L 402.172892 104.99039 
L 402.360841 121.599408 
L 402.548789 154.295779 
L 402.736738 113.074764 
L 402.924686 114.968159 
L 403.112634 167.362648 
L 403.300583 122.052312 
L 403.488531 118.536847 
L 403.67648 146.528684 
L 403.864428 144.47241 
L 404.052376 126.720003 
L 404.240325 151.971904 
L 404.616221 127.16073 
L 404.80417 177.537666 
L 404.992118 130.850396 
L 405.180067 120.753315 
L 405.368015 152.33997 
L 405.743912 112.755939 
L 406.119809 149.817217 
L 406.307757 114.781487 
L 406.495705 116.764129 
L 406.683654 160.064576 
L 407.059551 114.448604 
L 407.247499 123.546807 
L 407.435447 230.199761 
L 407.623396 131.1901 
L 407.811344 127.447069 
L 407.999293 159.109726 
L 408.187241 160.824239 
L 408.375189 152.092784 
L 408.563138 182.665474 
L 408.751086 157.925363 
L 408.939035 175.26366 
L 409.314931 129.319967 
L 409.690828 149.323389 
L 409.878777 117.24142 
L 410.066725 113.295291 
L 410.254673 149.446757 
L 410.63057 106.866176 
L 410.818519 115.366858 
L 411.006467 198.861574 
L 411.194415 120.986102 
L 411.382364 114.069584 
L 411.758261 163.210991 
L 411.946209 136.275437 
L 412.322106 162.787897 
L 412.510054 164.704704 
L 412.698003 149.283894 
L 413.073899 174.767963 
L 413.261848 137.17663 
L 413.449796 128.578647 
L 413.637745 140.440813 
L 413.825693 179.848523 
L 414.013641 127.865265 
L 414.20159 120.158115 
L 414.389538 135.601471 
L 414.577487 188.209256 
L 414.765435 137.797689 
L 414.953383 132.680176 
L 415.141332 141.004346 
L 415.32928 163.836057 
L 415.517229 163.920921 
L 415.705177 141.187133 
L 415.893125 134.838412 
L 416.081074 145.255679 
L 416.269022 180.292552 
L 416.456971 171.292294 
L 416.644919 150.529489 
L 416.832867 143.91336 
L 417.020816 144.875366 
L 417.396713 181.78903 
L 417.584661 142.979336 
L 417.772609 136.505732 
L 417.960558 142.406415 
L 418.148506 181.987438 
L 418.524403 133.523341 
L 418.712351 133.324 
L 419.088248 172.086908 
L 419.276197 133.762804 
L 419.464145 127.943561 
L 419.652093 139.172562 
L 419.840042 185.243427 
L 420.02799 147.109158 
L 420.215939 141.680851 
L 420.403887 157.313749 
L 420.591835 189.239099 
L 420.779784 153.743676 
L 420.967732 148.481089 
L 421.719526 217.925195 
L 421.907474 169.46112 
L 422.283371 143.080388 
L 422.471319 151.295126 
L 422.659268 190.267737 
L 422.847216 140.303351 
L 423.035165 137.017284 
L 423.411061 169.069035 
L 423.59901 149.005825 
L 423.786958 147.676399 
L 423.974907 159.004401 
L 424.162855 177.579054 
L 424.350803 161.838997 
L 424.538752 171.994908 
L 424.7267 160.324888 
L 424.914649 176.167438 
L 425.102597 178.341113 
L 425.290545 158.140372 
L 425.478494 167.511383 
L 425.854391 132.139875 
L 426.042339 140.386724 
L 426.230287 185.002314 
L 426.418236 128.893851 
L 426.606184 122.917541 
L 426.794133 149.121964 
L 426.982081 147.465922 
L 427.170029 124.48989 
L 427.357978 131.738473 
L 427.545926 213.987627 
L 427.733874 139.730402 
L 427.921823 131.364939 
L 428.109771 149.381273 
L 428.29772 229.764948 
L 428.485668 177.340638 
L 428.673616 245.836988 
L 428.861565 190.859865 
L 429.049513 179.790426 
L 429.237462 137.781195 
L 429.42541 131.034135 
L 429.801307 168.917858 
L 429.989255 136.245857 
L 430.177204 138.464801 
L 430.365152 186.635269 
L 430.741049 124.977661 
L 430.928997 130.499032 
L 431.116946 161.06962 
L 431.304894 156.592186 
L 431.492842 139.862068 
L 431.680791 142.130888 
L 431.868739 167.888624 
L 432.056688 213.483846 
L 432.244636 185.510562 
L 432.432584 197.343563 
L 432.620533 162.117298 
L 432.808481 177.213981 
L 433.184378 155.177144 
L 433.372326 199.630867 
L 433.560275 144.369941 
L 433.748223 128.325672 
L 433.936172 139.348063 
L 434.12412 201.828622 
L 434.312068 133.801825 
L 434.500017 122.79554 
L 434.687965 138.052908 
L 434.875914 176.20328 
L 435.063862 147.441187 
L 435.25181 143.361643 
L 435.439759 159.771427 
L 435.627707 187.032613 
L 435.815656 190.365107 
L 436.003604 203.270809 
L 436.379501 138.73649 
L 436.567449 135.111898 
L 436.755398 147.302892 
L 436.943346 181.828477 
L 437.131294 129.066039 
L 437.319243 117.057866 
L 437.507191 123.815538 
L 437.69514 158.04611 
L 438.071036 122.686344 
L 438.258985 124.041966 
L 438.446933 143.954721 
L 438.634882 179.069103 
L 438.82283 135.224953 
L 439.010778 125.82688 
L 439.198727 134.42124 
L 439.386675 155.534295 
L 439.574624 159.435878 
L 439.95052 126.876805 
L 440.138469 125.549906 
L 440.514366 162.889628 
L 440.702314 122.551047 
L 440.890262 114.465583 
L 441.078211 122.987779 
L 441.266159 167.5721 
L 441.642056 114.954851 
L 441.830004 118.281382 
L 442.017953 145.990638 
L 442.205901 154.207789 
L 442.39385 126.733213 
L 442.581798 124.098891 
L 442.769746 134.334836 
L 443.145643 181.677458 
L 443.333592 144.542068 
L 443.52154 135.178968 
L 443.709488 135.189757 
L 443.897437 143.069067 
L 444.085385 199.386326 
L 444.461282 123.583691 
L 444.64923 118.898347 
L 444.837179 137.463071 
L 445.025127 177.636794 
L 445.213076 127.801132 
L 445.401024 120.48529 
L 445.588972 134.443462 
L 445.776921 188.561078 
L 445.964869 146.475438 
L 446.152818 136.38724 
L 446.340766 136.081832 
L 446.528714 143.116272 
L 446.716663 160.184624 
L 446.904611 195.46891 
L 447.09256 138.274485 
L 447.280508 124.839626 
L 447.468456 129.830337 
L 447.656405 166.815806 
L 448.032302 125.570412 
L 448.22025 126.089003 
L 448.596147 180.118765 
L 448.784095 136.11195 
L 448.972044 126.932103 
L 449.159992 134.332006 
L 449.535889 175.61254 
L 449.723837 137.71499 
L 449.911786 124.985813 
L 450.099734 127.718722 
L 450.287682 170.792188 
L 450.663579 128.824662 
L 450.851528 130.273049 
L 451.039476 151.306989 
L 451.227424 188.957673 
L 451.415373 144.227494 
L 451.603321 135.894986 
L 451.791269 140.469416 
L 451.979218 158.823769 
L 452.167166 220.771735 
L 452.355115 145.79123 
L 452.543063 133.245875 
L 452.731011 136.588608 
L 453.106908 173.955056 
L 453.294857 138.528843 
L 453.482805 130.506764 
L 453.670753 139.764249 
L 453.858702 188.203598 
L 454.234599 130.1464 
L 454.422547 136.660679 
L 454.610495 174.509375 
L 454.798444 155.19179 
L 454.986392 147.630424 
L 455.174341 149.319635 
L 455.362289 157.163514 
L 455.550237 172.511539 
L 455.738186 225.333203 
L 455.926134 165.202669 
L 456.114083 144.978119 
L 456.302031 137.842306 
L 456.489979 151.090352 
L 456.677928 189.187735 
L 456.865876 138.700708 
L 457.053825 128.056118 
L 457.241773 142.902844 
L 457.429721 199.358298 
L 457.61767 147.121101 
L 457.805618 140.834284 
L 457.993567 146.444355 
L 458.181515 164.475499 
L 458.369463 201.581899 
L 458.557412 154.176195 
L 458.74536 142.705602 
L 458.933309 147.302492 
L 459.309205 187.049776 
L 459.685102 145.459684 
L 459.873051 144.836063 
L 460.060999 167.042501 
L 460.248947 212.677123 
L 460.436896 160.022362 
L 460.624844 142.723824 
L 460.812793 139.3705 
L 461.188689 173.863509 
L 461.376638 137.757921 
L 461.564586 134.935334 
L 461.752535 153.173986 
L 461.940483 223.540968 
L 462.128431 155.119309 
L 462.31638 142.624924 
L 462.504328 146.192568 
L 462.692277 166.801649 
L 462.880225 203.466142 
L 463.068173 157.906891 
L 463.256122 151.731963 
L 463.44407 159.766342 
L 463.632019 172.912915 
L 463.819967 205.164374 
L 464.195864 148.539966 
L 464.383812 146.599082 
L 464.571761 160.351088 
L 464.759709 234.880501 
L 464.947657 155.520779 
L 465.135606 138.725418 
L 465.323554 140.530749 
L 465.511503 178.401267 
L 465.887399 137.924075 
L 466.075348 144.264845 
L 466.263296 179.905866 
L 466.451245 179.803928 
L 466.639193 158.639472 
L 466.827141 155.43832 
L 467.01509 158.097831 
L 467.203038 177.469354 
L 467.390987 230.712778 
L 467.766883 159.947112 
L 467.954832 153.936221 
L 468.14278 160.646622 
L 468.330729 195.960979 
L 468.706625 147.883065 
L 468.894574 148.54145 
L 469.270471 170.960004 
L 469.458419 143.933514 
L 469.646367 136.699169 
L 469.834316 152.770834 
L 470.022264 194.034551 
L 470.210213 146.640254 
L 470.398161 142.754743 
L 470.586109 161.032373 
L 470.774058 244.191866 
L 470.962006 179.455739 
L 471.149955 167.667392 
L 471.337903 163.168816 
L 471.525851 165.843827 
L 471.7138 177.304043 
L 471.901748 208.642204 
L 472.277645 153.004305 
L 472.465593 153.594347 
L 472.653542 184.62194 
L 472.84149 171.268718 
L 473.029439 148.776767 
L 473.217387 150.91694 
L 473.405335 176.188857 
L 473.593284 184.068597 
L 473.781232 157.522306 
L 473.969181 155.930779 
L 474.157129 163.894723 
L 474.345077 190.896508 
L 474.533026 188.242702 
L 474.908922 204.676796 
L 475.284819 167.605938 
L 475.472768 176.655049 
L 475.660716 179.824785 
L 475.848664 153.040485 
L 476.036613 148.308191 
L 476.224561 167.957822 
L 476.41251 174.50513 
L 476.600458 141.55854 
L 476.788406 141.976459 
L 476.976355 168.219473 
L 477.352252 149.461451 
L 477.5402 164.988299 
L 477.728148 226.529147 
L 477.916097 176.315799 
L 478.104045 178.591096 
L 478.479942 217.452852 
L 478.855839 176.339255 
L 479.043787 171.641304 
L 479.231736 177.933079 
L 479.607632 149.002283 
L 479.795581 163.449596 
L 479.983529 217.695391 
L 480.171478 156.317847 
L 480.359426 146.315102 
L 480.547374 153.18297 
L 480.735323 208.960153 
L 480.923271 155.331952 
L 481.11122 143.046148 
L 481.487116 178.11435 
L 481.675065 153.689064 
L 481.863013 165.261666 
L 482.050962 190.106415 
L 482.23891 173.84884 
L 482.426858 170.018668 
L 482.614807 183.987561 
L 482.802755 155.06677 
L 482.990704 160.906958 
L 483.178652 156.431719 
L 483.3666 137.324153 
L 483.554549 143.340016 
L 483.742497 175.231953 
L 483.930446 136.107006 
L 484.118394 130.389855 
L 484.306342 155.608334 
L 484.494291 154.062833 
L 484.682239 131.617539 
L 484.870188 136.662134 
L 485.058136 196.753634 
L 485.246084 140.630611 
L 485.434033 133.355284 
L 485.621981 159.626298 
L 485.80993 160.417456 
L 485.997878 144.73367 
L 486.185826 172.246826 
L 486.561723 146.38149 
L 486.749672 192.005644 
L 486.93762 144.094089 
L 487.125568 131.179152 
L 487.313517 159.402955 
L 487.689414 119.681361 
L 488.06531 150.93516 
L 488.253259 117.174607 
L 488.441207 121.732379 
L 488.629156 212.494757 
L 488.817104 123.884564 
L 489.005052 120.835877 
L 489.193001 162.739293 
L 489.380949 136.482812 
L 489.568898 127.334295 
L 489.756846 174.913565 
L 489.944794 134.842404 
L 490.132743 127.485736 
L 490.320691 176.382979 
L 490.50864 130.227531 
L 490.696588 123.817751 
L 490.884536 177.975515 
L 491.072485 126.701288 
L 491.260433 117.076112 
L 491.448382 141.113391 
L 491.63633 141.667185 
L 491.824278 117.458464 
L 492.012227 126.417364 
L 492.200175 195.211984 
L 492.388124 127.658801 
L 492.576072 129.506143 
L 492.76402 191.743135 
L 492.951969 140.206163 
L 493.139917 140.276453 
L 493.327866 171.825516 
L 493.515814 143.59864 
L 493.703762 147.950944 
L 493.891711 182.779811 
L 494.079659 143.67042 
L 494.267608 144.244998 
L 494.455556 223.15393 
L 494.643504 137.632889 
L 494.831453 131.807879 
L 495.019401 163.677905 
L 495.395298 138.851793 
L 495.583246 154.292709 
L 495.771195 181.95549 
L 495.959143 156.635847 
L 496.147092 161.575129 
L 496.33504 228.848449 
L 496.522988 181.536853 
L 496.710937 181.009517 
L 496.898885 190.032945 
L 497.086834 163.729484 
L 497.274782 181.235538 
L 497.46273 156.31445 
L 497.650679 152.005679 
L 497.838627 180.207619 
L 498.026575 168.009548 
L 498.214524 147.314062 
L 498.402472 150.148175 
L 498.590421 173.052411 
L 498.778369 165.791251 
L 498.966317 148.973863 
L 499.154266 159.684069 
L 499.342214 203.925569 
L 499.530163 159.886087 
L 499.718111 164.427469 
L 499.906059 198.323146 
L 500.094008 190.137808 
L 500.281956 189.527696 
L 500.469905 201.443276 
L 500.657853 187.798579 
L 500.845801 196.353883 
L 501.221698 157.816652 
L 501.409647 166.890148 
L 501.597595 199.649543 
L 501.785543 158.221904 
L 501.973492 155.27645 
L 502.16144 185.61051 
L 502.349389 177.167462 
L 502.537337 159.298003 
L 502.725285 165.901672 
L 502.913234 191.692834 
L 503.101182 186.617317 
L 503.289131 164.336397 
L 503.477079 165.439891 
L 503.665027 178.579925 
L 503.852976 233.724261 
L 504.228873 175.532963 
L 504.604769 192.311062 
L 504.792718 166.030231 
L 504.980666 185.4573 
L 505.168615 184.239563 
L 505.356563 164.190513 
L 505.544511 194.88361 
L 505.920408 158.177428 
L 506.108357 179.389378 
L 506.484253 149.667936 
L 506.672202 161.021779 
L 506.86015 197.806442 
L 507.048099 150.986255 
L 507.236047 151.909801 
L 507.423995 198.431275 
L 507.611944 170.885668 
L 507.799892 160.572379 
L 507.987841 180.299002 
L 508.175789 187.594612 
L 508.363737 161.442767 
L 508.551686 171.813272 
L 508.739634 236.586915 
L 508.927583 174.685463 
L 509.115531 177.635326 
L 509.303479 195.676427 
L 509.491428 167.206094 
L 509.679376 171.364995 
L 509.867325 220.773337 
L 510.055273 164.487126 
L 510.243221 155.217107 
L 510.43117 174.777704 
L 510.619118 177.790454 
L 510.807067 150.996116 
L 510.995015 161.075411 
L 511.182963 214.390539 
L 511.370912 159.152852 
L 511.55886 161.289149 
L 511.746809 189.665469 
L 511.934757 179.582266 
L 512.122705 176.680594 
L 512.310654 190.815426 
L 512.498602 215.152346 
L 512.686551 206.757528 
L 512.874499 230.92943 
L 513.250396 189.846287 
L 513.438344 205.662319 
L 513.814241 180.24467 
L 514.002189 213.491595 
L 514.190138 177.702185 
L 514.378086 173.47306 
L 514.566035 189.892253 
L 514.753983 216.182329 
L 514.941931 183.972947 
L 515.12988 171.846955 
L 515.317828 177.564191 
L 515.505777 194.629598 
L 515.693725 176.852851 
L 515.881673 186.150681 
L 516.069622 210.499276 
L 516.25757 217.067966 
L 516.445519 196.165171 
L 516.633467 188.042139 
L 516.821415 196.254597 
L 517.009364 233.786125 
L 517.197312 183.759621 
L 517.385261 180.743871 
L 517.573209 222.101069 
L 517.761157 173.093483 
L 517.949106 166.03139 
L 518.137054 194.30816 
L 518.325003 190.613171 
L 518.512951 168.91522 
L 519.076796 200.349496 
L 519.264745 172.123276 
L 519.452693 173.561666 
L 519.640641 207.563593 
L 520.016538 173.786267 
L 520.392435 187.889325 
L 520.580383 154.680833 
L 520.768332 153.643491 
L 520.95628 187.763739 
L 521.332177 144.558045 
L 521.520125 166.344038 
L 521.708074 155.873881 
L 521.896022 131.768295 
L 522.08397 143.684539 
L 522.271919 165.292088 
L 522.459867 128.582246 
L 522.647816 132.03303 
L 522.835764 186.238748 
L 523.023712 134.38684 
L 523.211661 133.064323 
L 523.399609 185.2835 
L 523.587558 142.124619 
L 523.775506 136.931889 
L 523.963454 177.574388 
L 524.151403 145.025201 
L 524.339351 136.522678 
L 524.5273 169.507888 
L 524.715248 142.446058 
L 524.903196 132.476713 
L 525.091145 166.337517 
L 525.467042 126.446525 
L 525.65499 137.936485 
L 525.842938 191.14712 
L 526.030887 132.565737 
L 526.218835 129.820242 
L 526.406784 168.773062 
L 526.78268 132.950591 
L 527.158577 165.954751 
L 527.346526 140.717474 
L 527.534474 149.73462 
L 527.722422 169.978379 
L 527.910371 151.571788 
L 528.098319 165.271694 
L 528.286268 165.81885 
L 528.474216 141.414862 
L 528.662164 164.853374 
L 528.850113 166.26228 
L 529.038061 134.462985 
L 529.22601 147.418463 
L 529.413958 182.40236 
L 529.601906 150.592922 
L 529.789855 156.011583 
L 529.977803 206.416191 
L 530.165752 190.461665 
L 530.3537 188.734432 
L 530.541648 190.545691 
L 530.917545 163.609316 
L 531.105494 168.199248 
L 531.293442 190.317905 
L 531.48139 147.452699 
L 531.669339 143.964837 
L 531.857287 177.177678 
L 532.045236 173.351028 
L 532.233184 160.963052 
L 532.421132 183.203414 
L 532.609081 186.747017 
L 532.797029 200.384046 
L 532.984978 200.42059 
L 533.172926 227.16402 
L 533.360874 182.366359 
L 533.548823 170.449769 
L 533.736771 180.938218 
L 533.92472 216.51988 
L 534.300616 151.608516 
L 534.488565 152.143018 
L 534.676513 177.547291 
L 534.864462 171.222138 
L 535.05241 153.639748 
L 535.240358 155.629985 
L 535.428307 174.971108 
L 535.804204 160.709435 
L 535.992152 169.548819 
L 536.1801 200.493784 
L 536.368049 174.134206 
L 536.555997 178.117845 
L 536.743946 196.856112 
L 536.931894 227.889776 
L 537.119842 167.677241 
L 537.307791 157.550171 
L 537.495739 180.34958 
L 537.683688 167.610704 
L 537.871636 143.762202 
L 538.059584 148.598037 
L 538.247533 193.03091 
L 538.435481 150.922779 
L 538.62343 146.451166 
L 538.811378 189.47428 
L 538.999326 161.733456 
L 539.187275 151.978117 
L 539.563172 195.515908 
L 539.75112 182.282315 
L 540.127017 195.099975 
L 540.314965 179.127103 
L 540.502914 180.3228 
L 540.690862 175.506822 
L 540.87881 161.302513 
L 541.254707 194.808312 
L 541.442656 159.496598 
L 541.630604 151.729733 
L 541.818552 186.504885 
L 542.194449 144.80877 
L 542.382398 153.146975 
L 542.570346 173.994294 
L 542.946243 141.254695 
L 543.134191 148.893685 
L 543.32214 171.210491 
L 543.510088 150.592694 
L 543.698036 148.359526 
L 543.885985 186.748136 
L 544.073933 151.991505 
L 544.261882 148.466724 
L 544.44983 172.274546 
L 544.825727 148.754554 
L 545.013675 178.919815 
L 545.389572 142.513715 
L 545.57752 160.742311 
L 545.765469 167.627405 
L 545.953417 135.023477 
L 546.141365 138.525387 
L 546.329314 186.698913 
L 546.517262 143.338644 
L 546.705211 132.412944 
L 547.081107 165.33127 
L 547.269056 135.083765 
L 547.457004 145.276931 
L 547.644953 187.355146 
L 547.832901 137.213427 
L 548.020849 141.986491 
L 548.208798 194.548879 
L 548.396746 146.37515 
L 548.584695 145.875534 
L 548.772643 205.41523 
L 548.960591 141.744323 
L 549.14854 139.30899 
L 549.336488 192.379869 
L 549.524437 145.647742 
L 549.712385 132.989107 
L 549.900333 155.078156 
L 550.088282 160.343834 
L 550.27623 134.785636 
L 550.464179 147.07516 
L 550.652127 195.582593 
L 550.840075 142.198298 
L 551.028024 142.15149 
L 551.215972 168.020127 
L 551.591869 149.421429 
L 551.779817 157.626638 
L 551.967766 205.97503 
L 552.155714 162.548526 
L 552.343663 173.513274 
L 552.531611 175.351659 
L 552.719559 159.904081 
L 552.907508 188.843636 
L 553.283405 167.547124 
L 553.471353 191.753965 
L 553.84725 161.502297 
L 554.035198 168.466189 
L 554.223147 218.538143 
L 554.411095 166.537489 
L 554.599043 158.763483 
L 554.97494 198.326506 
L 555.162889 179.555491 
L 555.350837 187.492107 
L 555.538785 211.125167 
L 555.726734 195.971555 
L 555.914682 216.824799 
L 556.102631 178.411065 
L 556.290579 184.675893 
L 556.478527 236.024002 
L 556.666476 214.677792 
L 556.854424 236.964222 
L 557.418269 179.287871 
L 557.606218 195.356038 
L 557.794166 232.153554 
L 557.982115 207.785492 
L 558.170063 201.27702 
L 558.358011 212.745453 
L 558.733908 173.701603 
L 558.921857 218.691886 
L 559.109805 168.323199 
L 559.297753 200.51054 
L 559.485702 164.411112 
L 559.67365 160.502283 
L 559.861599 183.646334 
L 560.049547 147.426561 
L 560.237495 156.151168 
L 560.425444 180.760427 
L 560.613392 138.663813 
L 560.801341 142.196738 
L 560.989289 209.913056 
L 561.177237 140.673765 
L 561.365186 137.331602 
L 561.553134 192.953788 
L 561.741083 137.232696 
L 561.929031 129.889599 
L 562.116979 161.878129 
L 562.492876 128.912717 
L 562.680825 154.661039 
L 562.868773 145.464203 
L 563.056721 127.893424 
L 563.432618 156.120599 
L 563.620567 129.922938 
L 563.808515 142.245068 
L 563.996463 166.479711 
L 564.184412 132.04658 
L 564.37236 144.617636 
L 564.560309 169.986782 
L 564.748257 131.7034 
L 564.936205 142.359459 
L 565.124154 169.378176 
L 565.312102 129.438685 
L 565.500051 136.992543 
L 565.687999 200.225297 
L 565.875947 133.241568 
L 566.063896 133.591535 
L 566.251844 176.842676 
L 566.439793 132.385256 
L 566.627741 129.365607 
L 566.815689 158.271183 
L 567.191586 134.645 
L 567.379535 166.63728 
L 567.567483 146.920696 
L 567.755431 140.327976 
L 567.94338 193.186009 
L 568.131328 147.461251 
L 568.319276 143.214633 
L 568.507225 182.258845 
L 568.695173 148.509091 
L 568.883122 142.152188 
L 569.07107 177.483193 
L 569.446967 136.824512 
L 569.634915 162.328786 
L 569.822864 155.222446 
L 570.010812 138.058852 
L 570.386709 181.969778 
L 570.574657 150.312685 
L 570.762606 161.124916 
L 570.950554 193.379564 
L 571.138502 157.414111 
L 571.326451 159.583628 
L 571.514399 211.801052 
L 571.702348 169.690093 
L 571.890296 166.193011 
L 572.078244 225.705839 
L 572.266193 168.240457 
L 572.454141 165.998877 
L 572.64209 175.36982 
L 572.830038 178.919853 
L 573.017986 162.067533 
L 573.205935 158.254428 
L 573.393883 197.513411 
L 573.76978 152.090134 
L 573.957728 172.940736 
L 574.145677 177.381168 
L 574.333625 156.07813 
L 574.521574 164.000618 
L 574.709522 211.299078 
L 574.89747 166.329921 
L 575.085419 154.584029 
L 575.461316 187.407688 
L 575.649264 164.394016 
L 575.837212 186.302264 
L 576.213109 157.084917 
L 576.401058 200.070867 
L 576.589006 164.27738 
L 576.776954 155.296638 
L 576.964903 192.663097 
L 577.3408 145.422353 
L 577.528748 168.212747 
L 577.716696 164.010054 
L 577.904645 140.576496 
L 578.280542 167.045793 
L 578.46849 139.065139 
L 578.656438 151.800497 
L 578.844387 176.786001 
L 579.032335 141.166926 
L 579.220284 151.373856 
L 579.408232 175.505936 
L 579.59618 139.267957 
L 579.784129 145.277311 
L 579.972077 190.649167 
L 580.160026 142.95007 
L 580.347974 146.112947 
L 580.535922 195.813432 
L 580.723871 140.074634 
L 580.911819 136.713185 
L 581.099768 170.056787 
L 581.287716 145.590955 
L 581.475664 135.991198 
L 581.663613 162.78236 
L 581.851561 160.178629 
L 582.03951 137.910742 
L 582.227458 151.572111 
L 582.415406 178.02684 
L 582.603355 139.549952 
L 582.791303 145.635362 
L 582.979252 226.325335 
L 583.1672 144.424132 
L 583.355148 145.024872 
L 583.543097 196.369407 
L 583.731045 150.007954 
L 583.918994 144.772785 
L 584.106942 179.12357 
L 584.482839 141.722038 
L 584.670787 151.527432 
L 584.858736 194.228861 
L 585.046684 143.74632 
L 585.234632 145.471781 
L 585.422581 231.958536 
L 585.610529 147.763354 
L 585.798478 145.488408 
L 585.986426 188.403332 
L 586.174374 159.968768 
L 586.362323 152.038278 
L 586.550271 178.72333 
L 586.73822 169.24886 
L 586.926168 150.200297 
L 587.302065 177.691975 
L 587.490013 150.976166 
L 587.86591 176.870623 
L 588.053858 159.941194 
L 588.241807 160.784083 
L 588.429755 205.276467 
L 588.805652 160.743572 
L 588.9936 173.26839 
L 589.181549 222.748281 
L 589.369497 169.544899 
L 589.557446 172.418476 
L 589.745394 194.527314 
L 589.933342 194.792902 
L 590.121291 201.312566 
L 590.309239 227.893125 
L 590.497188 194.191101 
L 590.685136 186.321617 
L 590.873084 172.030133 
L 591.061033 179.256361 
L 591.248981 164.953045 
L 591.43693 197.295905 
L 591.624878 164.009271 
L 591.812826 170.186619 
L 592.000775 169.705224 
L 592.188723 156.475663 
L 592.376671 198.828055 
L 592.56462 151.302648 
L 592.752568 140.872719 
L 592.940517 173.158136 
L 593.128465 143.354611 
L 593.316413 131.381428 
L 593.504362 163.659458 
L 593.880259 131.720863 
L 594.068207 164.093364 
L 594.444104 135.508443 
L 594.632052 161.427841 
L 594.820001 155.739854 
L 595.007949 139.671628 
L 595.195897 170.816244 
L 595.571794 136.419185 
L 595.759743 159.922632 
L 595.947691 157.638168 
L 596.135639 134.092062 
L 596.511536 169.707998 
L 596.699485 135.110055 
L 596.887433 142.399855 
L 597.075381 209.150347 
L 597.26333 141.831684 
L 597.451278 141.407897 
L 597.639227 181.863182 
L 597.827175 152.997056 
L 598.015123 145.953262 
L 598.203072 170.196313 
L 598.39102 165.487516 
L 598.578969 148.169245 
L 598.766917 169.851305 
L 598.954865 162.675801 
L 599.142814 143.496282 
L 599.518711 178.344658 
L 599.706659 143.536986 
L 599.894607 152.888093 
L 600.082556 209.903382 
L 600.270504 147.90051 
L 600.458453 145.559705 
L 600.646401 184.110166 
L 601.022298 151.602311 
L 601.210246 168.706256 
L 601.398195 202.513407 
L 601.586143 170.844273 
L 601.774091 172.960985 
L 601.96204 196.850931 
L 602.149988 201.000842 
L 602.337937 177.993988 
L 602.525885 181.311014 
L 602.713833 204.322473 
L 602.901782 179.853347 
L 603.08973 212.511854 
L 603.465627 166.808505 
L 603.653575 206.79015 
L 603.841524 168.430735 
L 604.029472 154.573799 
L 604.217421 164.994617 
L 604.405369 197.852028 
L 604.593317 161.852512 
L 604.781266 162.506117 
L 604.969214 209.161621 
L 605.157163 177.697693 
L 605.345111 165.207655 
L 605.533059 175.284281 
L 605.721008 224.656209 
L 605.908956 179.750588 
L 606.096905 188.15426 
L 606.284853 211.051917 
L 606.472801 202.299823 
L 606.66075 186.722358 
L 606.848698 184.859324 
L 607.036647 186.693956 
L 607.224595 179.623109 
L 607.412543 223.175047 
L 607.600492 173.408046 
L 607.78844 163.052733 
L 608.164337 183.991321 
L 608.352285 163.649853 
L 608.540234 162.037186 
L 608.728182 208.750475 
L 609.104079 150.030906 
L 609.292027 163.574156 
L 609.479976 195.858038 
L 609.667924 159.660789 
L 609.855873 168.618743 
L 610.043821 204.49807 
L 610.231769 174.328985 
L 610.607666 198.460574 
L 610.795615 178.99992 
L 610.983563 203.396905 
L 611.35946 162.533381 
L 611.735357 192.125358 
L 611.923305 156.92849 
L 612.111253 156.462914 
L 612.299202 197.349273 
L 612.675099 147.943799 
L 612.863047 155.559836 
L 613.050995 217.084451 
L 613.238944 164.641548 
L 613.426892 156.743526 
L 613.614841 183.63045 
L 613.802789 186.064055 
L 613.990737 175.424673 
L 614.366634 244.000648 
L 614.554583 229.573813 
L 614.742531 186.749753 
L 614.930479 182.212897 
L 615.118428 211.917171 
L 615.306376 177.708117 
L 615.494324 170.854173 
L 615.870221 193.382495 
L 616.05817 179.064321 
L 616.246118 173.599181 
L 616.434066 182.506434 
L 616.622015 231.38228 
L 616.997912 173.207169 
L 617.18586 172.38155 
L 617.373808 196.00779 
L 617.749705 157.864442 
L 617.937654 167.913824 
L 618.125602 236.423824 
L 618.31355 177.122331 
L 618.501499 191.947075 
L 618.689447 191.878057 
L 618.877396 173.133899 
L 619.065344 202.153148 
L 619.253292 174.260168 
L 619.441241 165.200822 
L 619.629189 211.863565 
L 619.817138 160.676519 
L 620.005086 150.114829 
L 620.193034 177.565791 
L 620.568931 142.219528 
L 620.75688 158.333446 
L 620.944828 198.527054 
L 621.132776 153.942012 
L 621.320725 154.531604 
L 621.508673 197.844881 
L 621.696622 177.643332 
L 621.88457 169.476618 
L 622.072518 196.076248 
L 622.448415 170.260388 
L 622.636364 211.949239 
L 622.636364 211.949239 
" clip-path="url(#pb607953bc3)" style="fill: none; stroke: #0000ff; stroke-opacity: 0.2; stroke-width: 0.5; stroke-linecap: square"/>
   </g>
   <g id="line2d_36">
    <path d="M 115.363636 158.810951 
L 622.636364 158.810951 
" clip-path="url(#pb607953bc3)" style="fill: none; stroke: #0000ff; stroke-width: 1.5; stroke-linecap: square"/>
   </g>
   <g id="line2d_37">
    <path d="M 115.363636 225.042147 
L 622.636364 225.042147 
" clip-path="url(#pb607953bc3)" style="fill: none; stroke: #ff0000; stroke-width: 1.5; stroke-linecap: square"/>
   </g>
   <g id="patch_3">
    <path d="M 90 256.32 
L 90 34.56 
" style="fill: none; stroke: #000000; stroke-width: 0.8; stroke-linejoin: miter; stroke-linecap: square"/>
   </g>
   <g id="patch_4">
    <path d="M 648 256.32 
L 648 34.56 
" style="fill: none; stroke: #000000; stroke-width: 0.8; stroke-linejoin: miter; stroke-linecap: square"/>
   </g>
   <g id="patch_5">
    <path d="M 90 256.32 
L 648 256.32 
" style="fill: none; stroke: #000000; stroke-width: 0.8; stroke-linejoin: miter; stroke-linecap: square"/>
   </g>
   <g id="patch_6">
    <path d="M 90 34.56 
L 648 34.56 
" style="fill: none; stroke: #000000; stroke-width: 0.8; stroke-linejoin: miter; stroke-linecap: square"/>
   </g>
   <g id="legend_1">
    <g id="patch_7">
     <path d="M 490.789062 86.594375 
L 641 86.594375 
Q 643 86.594375 643 84.594375 
L 643 41.56 
Q 643 39.56 641 39.56 
L 490.789062 39.56 
Q 488.789062 39.56 488.789062 41.56 
L 488.789062 84.594375 
Q 488.789062 86.594375 490.789062 86.594375 
z
" style="fill: #ffffff; opacity: 0.8; stroke: #cccccc; stroke-linejoin: miter"/>
    </g>
    <g id="line2d_38">
     <path d="M 492.789062 47.658438 
L 502.789062 47.658438 
L 512.789062 47.658438 
" style="fill: none; stroke: #0000ff; stroke-opacity: 0.2; stroke-width: 0.5; stroke-linecap: square"/>
    </g>
    <g id="text_12">
     <!-- Measurements -->
     <g transform="translate(520.789062 51.158438) scale(0.1 -0.1)">
      <defs>
       <path id="DejaVuSans-4d" d="M 628 4666 
L 1569 4666 
L 2759 1491 
L 3956 4666 
L 4897 4666 
L 4897 0 
L 4281 0 
L 4281 4097 
L 3078 897 
L 2444 897 
L 1241 4097 
L 1241 0 
L 628 0 
L 628 4666 
z
" transform="scale(0.015625)"/>
       <path id="DejaVuSans-75" d="M 544 1381 
L 544 3500 
L 1119 3500 
L 1119 1403 
Q 1119 906 1312 657 
Q 1506 409 1894 409 
Q 2359 409 2629 706 
Q 2900 1003 2900 1516 
L 2900 3500 
L 3475 3500 
L 3475 0 
L 2900 0 
L 2900 538 
Q 2691 219 2414 64 
Q 2138 -91 1772 -91 
Q 1169 -91 856 284 
Q 544 659 544 1381 
z
M 1991 3584 
L 1991 3584 
z
" transform="scale(0.015625)"/>
       <path id="DejaVuSans-6e" d="M 3513 2113 
L 3513 0 
L 2938 0 
L 2938 2094 
Q 2938 2591 2744 2837 
Q 2550 3084 2163 3084 
Q 1697 3084 1428 2787 
Q 1159 2491 1159 1978 
L 1159 0 
L 581 0 
L 581 3500 
L 1159 3500 
L 1159 2956 
Q 1366 3272 1645 3428 
Q 1925 3584 2291 3584 
Q 2894 3584 3203 3211 
Q 3513 2838 3513 2113 
z
" transform="scale(0.015625)"/>
       <path id="DejaVuSans-74" d="M 1172 4494 
L 1172 3500 
L 2356 3500 
L 2356 3053 
L 1172 3053 
L 1172 1153 
Q 1172 725 1289 603 
Q 1406 481 1766 481 
L 2356 481 
L 2356 0 
L 1766 0 
Q 1100 0 847 248 
Q 594 497 594 1153 
L 594 3053 
L 172 3053 
L 172 3500 
L 594 3500 
L 594 4494 
L 1172 4494 
z
" transform="scale(0.015625)"/>
      </defs>
      <use xlink:href="#DejaVuSans-4d"/>
      <use xlink:href="#DejaVuSans-65" x="86.279297"/>
      <use xlink:href="#DejaVuSans-61" x="147.802734"/>
      <use xlink:href="#DejaVuSans-73" x="209.082031"/>
      <use xlink:href="#DejaVuSans-75" x="261.181641"/>
      <use xlink:href="#DejaVuSans-72" x="324.560547"/>
      <use xlink:href="#DejaVuSans-65" x="363.423828"/>
      <use xlink:href="#DejaVuSans-6d" x="424.947266"/>
      <use xlink:href="#DejaVuSans-65" x="522.359375"/>
      <use xlink:href="#DejaVuSans-6e" x="583.882812"/>
      <use xlink:href="#DejaVuSans-74" x="647.261719"/>
      <use xlink:href="#DejaVuSans-73" x="686.470703"/>
     </g>
    </g>
    <g id="line2d_39">
     <path d="M 492.789062 62.336563 
L 502.789062 62.336563 
L 512.789062 62.336563 
" style="fill: none; stroke: #0000ff; stroke-width: 1.5; stroke-linecap: square"/>
    </g>
    <g id="text_13">
     <!-- Mean of measurements -->
     <g transform="translate(520.789062 65.836563) scale(0.1 -0.1)">
      <use xlink:href="#DejaVuSans-4d"/>
      <use xlink:href="#DejaVuSans-65" x="86.279297"/>
      <use xlink:href="#DejaVuSans-61" x="147.802734"/>
      <use xlink:href="#DejaVuSans-6e" x="209.082031"/>
      <use xlink:href="#DejaVuSans-20" x="272.460938"/>
      <use xlink:href="#DejaVuSans-6f" x="304.248047"/>
      <use xlink:href="#DejaVuSans-66" x="365.429688"/>
      <use xlink:href="#DejaVuSans-20" x="400.634766"/>
      <use xlink:href="#DejaVuSans-6d" x="432.421875"/>
      <use xlink:href="#DejaVuSans-65" x="529.833984"/>
      <use xlink:href="#DejaVuSans-61" x="591.357422"/>
      <use xlink:href="#DejaVuSans-73" x="652.636719"/>
      <use xlink:href="#DejaVuSans-75" x="704.736328"/>
      <use xlink:href="#DejaVuSans-72" x="768.115234"/>
      <use xlink:href="#DejaVuSans-65" x="806.978516"/>
      <use xlink:href="#DejaVuSans-6d" x="868.501953"/>
      <use xlink:href="#DejaVuSans-65" x="965.914062"/>
      <use xlink:href="#DejaVuSans-6e" x="1027.4375"/>
      <use xlink:href="#DejaVuSans-74" x="1090.816406"/>
      <use xlink:href="#DejaVuSans-73" x="1130.025391"/>
     </g>
    </g>
    <g id="line2d_40">
     <path d="M 492.789062 77.014688 
L 502.789062 77.014688 
L 512.789062 77.014688 
" style="fill: none; stroke: #ff0000; stroke-width: 1.5; stroke-linecap: square"/>
    </g>
    <g id="text_14">
     <!-- Reference -->
     <g transform="translate(520.789062 80.514688) scale(0.1 -0.1)">
      <defs>
       <path id="DejaVuSans-52" d="M 2841 2188 
Q 3044 2119 3236 1894 
Q 3428 1669 3622 1275 
L 4263 0 
L 3584 0 
L 2988 1197 
Q 2756 1666 2539 1819 
Q 2322 1972 1947 1972 
L 1259 1972 
L 1259 0 
L 628 0 
L 628 4666 
L 2053 4666 
Q 2853 4666 3247 4331 
Q 3641 3997 3641 3322 
Q 3641 2881 3436 2590 
Q 3231 2300 2841 2188 
z
M 1259 4147 
L 1259 2491 
L 2053 2491 
Q 2509 2491 2742 2702 
Q 2975 2913 2975 3322 
Q 2975 3731 2742 3939 
Q 2509 4147 2053 4147 
L 1259 4147 
z
" transform="scale(0.015625)"/>
       <path id="DejaVuSans-63" d="M 3122 3366 
L 3122 2828 
Q 2878 2963 2633 3030 
Q 2388 3097 2138 3097 
Q 1578 3097 1268 2742 
Q 959 2388 959 1747 
Q 959 1106 1268 751 
Q 1578 397 2138 397 
Q 2388 397 2633 464 
Q 2878 531 3122 666 
L 3122 134 
Q 2881 22 2623 -34 
Q 2366 -91 2075 -91 
Q 1284 -91 818 406 
Q 353 903 353 1747 
Q 353 2603 823 3093 
Q 1294 3584 2113 3584 
Q 2378 3584 2631 3529 
Q 2884 3475 3122 3366 
z
" transform="scale(0.015625)"/>
      </defs>
      <use xlink:href="#DejaVuSans-52"/>
      <use xlink:href="#DejaVuSans-65" x="64.982422"/>
      <use xlink:href="#DejaVuSans-66" x="126.505859"/>
      <use xlink:href="#DejaVuSans-65" x="161.710938"/>
      <use xlink:href="#DejaVuSans-72" x="223.234375"/>
      <use xlink:href="#DejaVuSans-65" x="262.097656"/>
      <use xlink:href="#DejaVuSans-6e" x="323.621094"/>
      <use xlink:href="#DejaVuSans-63" x="387"/>
      <use xlink:href="#DejaVuSans-65" x="441.980469"/>
     </g>
    </g>
   </g>
  </g>
 </g>
 <defs>
  <clipPath id="pb607953bc3">
   <rect x="90" y="34.56" width="558" height="221.76"/>
  </clipPath>
 </defs>
</svg>
